<?xml version="1.0" encoding="UTF-8"?>
<!DOCTYPE svg  PUBLIC '-//W3C//DTD SVG 1.1//EN'  'http://www.w3.org/Graphics/SVG/1.1/DTD/svg11.dtd'>
<svg width="2026.7pt" height="1066.7pt" version="1.1" viewBox="0 0 2026.7 1066.7" xmlns="http://www.w3.org/2000/svg" xmlns:xlink="http://www.w3.org/1999/xlink">
<defs>
<style type="text/css">*{stroke-linecap:butt;stroke-linejoin:round;}</style>
</defs>
<path d="m0 1066.7h2026.7v-1066.7h-2026.7z" fill="#fff"/>
<g fill="none" stroke="#000">
<path d="m292.48 48.485 6.9189 97.889" clip-path="url(#a)"/>
<path d="m292.48 48.485-65.076 874.93" clip-path="url(#a)"/>
<path d="m292.48 48.485 25.112 682.27" clip-path="url(#a)"/>
<path d="m292.48 48.485-88.697 874.93" clip-path="url(#a)"/>
<path d="m292.48 48.485 121.74 874.93" clip-path="url(#a)"/>
<path d="m299.4 146.37-0.71862 97.78" clip-path="url(#a)"/>
<path d="m299.4 146.37 8.5302 777.05" clip-path="url(#a)"/>
<path d="m299.4 146.37-117.09 777.05" clip-path="url(#a)"/>
<path d="m299.4 146.37-168.63 777.05" clip-path="url(#a)"/>
<path d="m299.4 146.37-153.59 777.05" clip-path="url(#a)"/>
<path d="m299.4 146.37 194.28 777.05" clip-path="url(#a)"/>
<path d="m299.4 146.37 237.22 777.05" clip-path="url(#a)"/>
<path d="m227.4 923.42v94.762" clip-path="url(#a)"/>
<path d="m317.59 730.75-64.42 192.67" clip-path="url(#a)"/>
<path d="m317.59 730.75-21.473 96.585" clip-path="url(#a)"/>
<path d="m317.59 730.75 25.768 192.67" clip-path="url(#a)"/>
<path d="m317.59 730.75 60.126 192.67" clip-path="url(#a)"/>
<path d="m253.17 923.42v94.762" clip-path="url(#a)"/>
<path d="m296.12 827.34-15.031 96.081" clip-path="url(#a)"/>
<path d="m296.12 827.34 15.031 96.081" clip-path="url(#a)"/>
<path d="m343.36 923.42v94.762" clip-path="url(#a)"/>
<path d="m377.72 923.42v94.762" clip-path="url(#a)"/>
<path d="m281.09 923.42v94.762" clip-path="url(#a)"/>
<path d="m311.15 923.42v94.762" clip-path="url(#a)"/>
<path d="m298.68 244.15-206.56 679.27" clip-path="url(#a)"/>
<path d="m298.68 244.15 406.68 97.657" clip-path="url(#a)"/>
<path d="m298.68 244.15-200.12 679.27" clip-path="url(#a)"/>
<path d="m307.93 923.42-144.95 94.762" clip-path="url(#a)"/>
<path d="m307.93 923.42 144.95 94.762" clip-path="url(#a)"/>
<path d="m182.31 923.42v94.762" clip-path="url(#a)"/>
<path d="m92.121 923.42v94.762" clip-path="url(#a)"/>
<path d="m705.36 341.81-592.84 485.53" clip-path="url(#a)"/>
<path d="m705.36 341.81-123.64 581.61" clip-path="url(#a)"/>
<path d="m705.36 341.81-76.4 581.61" clip-path="url(#a)"/>
<path d="m705.36 341.81-27.011 581.61" clip-path="url(#a)"/>
<path d="m705.36 341.81 795.36 97.517" clip-path="url(#a)"/>
<path d="m705.36 341.81 24.525 581.61" clip-path="url(#a)"/>
<path d="m112.52 827.34-5.3684 96.081" clip-path="url(#a)"/>
<path d="m112.52 827.34 5.3684 96.081" clip-path="url(#a)"/>
<path d="m581.72 923.42v94.762" clip-path="url(#a)"/>
<path d="m628.96 923.42v94.762" clip-path="url(#a)"/>
<path d="m678.35 923.42v94.762" clip-path="url(#a)"/>
<path d="m1500.7 439.33-717.15 484.09" clip-path="url(#a)"/>
<path d="m1500.7 439.33-545.9 97.354" clip-path="url(#a)"/>
<path d="m1500.7 439.33 15.091 484.09" clip-path="url(#a)"/>
<path d="m1500.7 439.33 94.543 484.09" clip-path="url(#a)"/>
<path d="m1500.7 439.33 176.14 484.09" clip-path="url(#a)"/>
<path d="m1500.7 439.33-62.213 484.09" clip-path="url(#a)"/>
<path d="m1500.7 439.33 259.89 484.09" clip-path="url(#a)"/>
<path d="m1500.7 439.33 345.78 484.09" clip-path="url(#a)"/>
<path d="m1500.7 439.33 433.82 484.09" clip-path="url(#a)"/>
<path d="m783.57 923.42v94.762" clip-path="url(#a)"/>
<path d="m954.82 536.68-115.42 386.74" clip-path="url(#a)"/>
<path d="m954.82 536.68 172.86 97.158" clip-path="url(#a)"/>
<path d="m954.82 536.68-57.442 386.74" clip-path="url(#a)"/>
<path d="m1515.8 923.42v94.762" clip-path="url(#a)"/>
<path d="m1595.3 923.42v94.762" clip-path="url(#a)"/>
<path d="m1676.9 923.42v94.762" clip-path="url(#a)"/>
<path d="m839.4 923.42v94.762" clip-path="url(#a)"/>
<path d="m1127.7 633.84-288.28 289.58" clip-path="url(#a)" stroke-dasharray="3.7,1.6"/>
<path d="m1127.7 633.84-170.18 289.58" clip-path="url(#a)"/>
<path d="m1127.7 633.84-31.673 96.913" clip-path="url(#a)"/>
<path d="m1127.7 633.84 91.799 289.58" clip-path="url(#a)"/>
<path d="m1127.7 633.84 162.66 289.58" clip-path="url(#a)"/>
<path d="m1127.7 633.84 235.67 289.58" clip-path="url(#a)"/>
<path d="m98.563 923.42v94.762" clip-path="url(#a)"/>
<path d="m957.5 923.42v94.762" clip-path="url(#a)"/>
<path d="m1096 730.75-76.231 192.67" clip-path="url(#a)"/>
<path d="m1096 730.75 21.473 96.585" clip-path="url(#a)"/>
<path d="m1096 730.75 54.757 192.67" clip-path="url(#a)"/>
<path d="m1219.5 923.42v94.762" clip-path="url(#a)"/>
<path d="m1290.3 923.42v94.762" clip-path="url(#a)"/>
<path d="m1363.4 923.42v94.762" clip-path="url(#a)"/>
<path d="m1019.8 923.42v94.762" clip-path="url(#a)"/>
<path d="m1117.5 827.34 33.284 96.081" clip-path="url(#a)" stroke-dasharray="3.7,1.6"/>
<path d="m1117.5 827.34-33.284 96.081" clip-path="url(#a)"/>
<path d="m1150.8 923.42v94.762" clip-path="url(#a)"/>
<path d="m1084.2 923.42v94.762" clip-path="url(#a)"/>
<path d="m107.15 923.42v94.762" clip-path="url(#a)"/>
<path d="m117.89 923.42v94.762" clip-path="url(#a)"/>
<path d="m130.77 923.42v94.762" clip-path="url(#a)"/>
<path d="m145.8 923.42v94.762" clip-path="url(#a)"/>
<path d="m203.78 923.42v94.762" clip-path="url(#a)"/>
<path d="m414.22 923.42v94.762" clip-path="url(#a)"/>
<path d="m493.68 923.42v94.762" clip-path="url(#a)"/>
<path d="m536.62 923.42v94.762" clip-path="url(#a)"/>
<path d="m729.88 923.42v94.762" clip-path="url(#a)"/>
<path d="m897.38 923.42v94.762" clip-path="url(#a)"/>
<path d="m1438.5 923.42v94.762" clip-path="url(#a)"/>
<path d="m1760.6 923.42v94.762" clip-path="url(#a)"/>
<path d="m1846.5 923.42v94.762" clip-path="url(#a)"/>
<path d="m1934.5 923.42v94.762" clip-path="url(#a)"/>
</g>
<path d="m289.47 94.871 0.42418 6.0013q0.16921 2.394 2.5632 2.2248l7.7232-0.54588q2.394-0.16921 2.2248-2.5632l-0.42418-6.0013q-0.16921-2.394-2.5632-2.2248l-7.7232 0.54588q-2.394 0.16921-2.2248 2.5632z" clip-path="url(#a)" fill="#fff" stroke="#fff"/>
<g clip-path="url(#a)">
<defs>
<path id="aa" d="m9.8125 72.906h9.8594v-29.891h35.844v29.891h9.8594v-72.906h-9.8594v34.719h-35.844v-34.719h-9.8594z"/>
</defs>
<g transform="translate(293.53 94.584) rotate(85.957) scale(.08 -.08)">
<use xlink:href="#aa"/>
</g>
</g>
<path d="m266.03 488.64 0.33063-4.4452q0.17802-2.3934-2.2154-2.5714l-7.7212-0.57429q-2.3934-0.17802-2.5714 2.2154l-0.33063 4.4452q-0.17802 2.3934 2.2154 2.5714l7.7212 0.57429q2.3934 0.17802 2.5714-2.2154z" clip-path="url(#a)" fill="#fff" stroke="#fff"/>
<g clip-path="url(#a)">
<defs>
<path id="ag" d="m9.8125 72.906h9.8594v-64.609h35.5v-8.2969h-45.359z"/>
</defs>
<g transform="translate(261.98 488.34) rotate(-85.746) scale(.08 -.08)">
<use xlink:href="#ag"/>
</g>
</g>
<path d="m298.66 386.84 0.22129 6.0122q0.088277 2.3984 2.4867 2.3101l7.7373-0.28478q2.3984-0.088277 2.3101-2.4867l-0.22129-6.0122q-0.088276-2.3984-2.4867-2.3101l-7.7373 0.28478q-2.3984 0.088277-2.3101 2.4867z" clip-path="url(#a)" fill="#fff" stroke="#fff"/>
<g clip-path="url(#a)">
<g transform="translate(302.72 386.69) rotate(87.892) scale(.08 -.08)">
<use xlink:href="#aa"/>
</g>
</g>
<path d="m254.08 489.5 0.59053-5.8251q0.24206-2.3878-2.1457-2.6298l-7.703-0.7809q-2.3878-0.24206-2.6298 2.1457l-0.59053 5.8251q-0.24206 2.3878 2.1457 2.6298l7.703 0.7809q2.3878 0.24206 2.6298-2.1457z" clip-path="url(#a)" fill="#fff" stroke="#fff"/>
<g clip-path="url(#a)">
<defs>
<path id="p" d="m8.6875 72.906h9.9219v-44.297q0-11.719 4.2344-16.875 4.25-5.1406 13.781-5.1406 9.4688 0 13.719 5.1406 4.25 5.1562 4.25 16.875v44.297h9.9062v-45.516q0-14.25-7.0625-21.531-7.0469-7.2812-20.812-7.2812-13.828 0-20.891 7.2812-7.0469 7.2812-7.0469 21.531z"/>
</defs>
<g transform="translate(250.03 489.09) rotate(-84.211) scale(.08 -.08)">
<use xlink:href="#p"/>
</g>
</g>
<path d="m346.74 483.92 0.80692 5.7991q0.33076 2.3771 2.7079 2.0463l7.6686-1.067q2.3771-0.33076 2.0463-2.7079l-0.80692-5.7991q-0.33076-2.3771-2.7079-2.0463l-7.6686 1.067q-2.3771 0.33076-2.0463 2.7079z" clip-path="url(#a)" fill="#fff" stroke="#fff"/>
<g clip-path="url(#a)">
<g transform="translate(350.76 483.36) rotate(82.078) scale(.08 -.08)">
<use xlink:href="#p"/>
</g>
</g>
<path d="m305.29 198.05 0.040218-5.4724q0.017638-2.3999-2.3823-2.4176l-7.7423-0.056902q-2.3999-0.017638-2.4176 2.3823l-0.040219 5.4724q-0.017638 2.3999 2.3823 2.4176l7.7423 0.056901q2.3999 0.017638 2.4176-2.3823z" clip-path="url(#a)" fill="#fff" stroke="#fff"/>
<g clip-path="url(#a)">
<defs>
<path id="q" d="m34.188 63.188-13.391-36.281h26.812zm-5.5781 9.7188h11.188l27.781-72.906h-10.25l-6.6406 18.703h-32.859l-6.6406-18.703h-10.406z"/>
</defs>
<g transform="translate(301.23 198.02) rotate(-89.579) scale(.08 -.08)">
<use xlink:href="#q"/>
</g>
</g>
<path d="m297.37 532.55 0.052951 4.8235q0.026345 2.3999 2.4262 2.3735l7.742-0.08499q2.3999-0.026345 2.3735-2.4262l-0.052951-4.8235q-0.026345-2.3999-2.4262-2.3735l-7.742 0.08499q-2.3999 0.026345-2.3735 2.4262z" clip-path="url(#a)" fill="#fff" stroke="#fff"/>
<g clip-path="url(#a)">
<defs>
<path id="w" d="m19.672 64.797v-27.391h12.406q6.8906 0 10.641 3.5625 3.7656 3.5625 3.7656 10.156 0 6.5469-3.7656 10.109-3.75 3.5625-10.641 3.5625zm-9.8594 8.1094h22.266q12.266 0 18.531-5.5469 6.2812-5.5469 6.2812-16.234 0-10.797-6.2812-16.312-6.2656-5.5156-18.531-5.5156h-12.406v-29.297h-9.8594z"/>
</defs>
<g transform="translate(301.43 532.51) rotate(89.371) scale(.08 -.08)">
<use xlink:href="#w"/>
</g>
</g>
<path d="m246.65 538.54 0.81542-5.4114q0.35761-2.3732-2.0156-2.7308l-7.6561-1.1537q-2.3732-0.35761-2.7308 2.0156l-0.81542 5.4114q-0.35761 2.3732 2.0156 2.7308l7.6561 1.1537q2.3732 0.35761 2.7308-2.0156z" clip-path="url(#a)" fill="#fff" stroke="#fff"/>
<g clip-path="url(#a)">
<g transform="translate(242.63 537.93) rotate(-81.431) scale(.08 -.08)">
<use xlink:href="#q"/>
</g>
</g>
<path d="m220.59 539.09 1.2417-5.7218q0.50897-2.3454-1.8364-2.8544l-7.5664-1.642q-2.3454-0.50898-2.8544 1.8364l-1.2417 5.7218q-0.50898 2.3454 1.8364 2.8544l7.5664 1.642q2.3454 0.50898 2.8544-1.8364z" clip-path="url(#a)" fill="#fff" stroke="#fff"/>
<g clip-path="url(#a)">
<g transform="translate(216.62 538.23) rotate(-77.756) scale(.08 -.08)">
<use xlink:href="#p"/>
</g>
</g>
<path d="m228.19 538.98 1.1354-5.7439q0.46539-2.3544-1.8891-2.8198l-7.5955-1.5014q-2.3544-0.46539-2.8198 1.8891l-1.1354 5.7439q-0.46539 2.3544 1.8891 2.8198l7.5955 1.5014q2.3544 0.46539 2.8198-1.8891z" clip-path="url(#a)" fill="#fff" stroke="#fff"/>
<g clip-path="url(#a)">
<g transform="translate(224.2 538.2) rotate(-78.819) scale(.08 -.08)">
<use xlink:href="#p"/>
</g>
</g>
<path d="m389.74 533.58 1.4201 5.6802q0.58213 2.3283 2.9105 1.7462l7.5113-1.878q2.3283-0.58213 1.7462-2.9105l-1.4201-5.6802q-0.58213-2.3283-2.9105-1.7462l-7.5113 1.878q-2.3283 0.58212-1.7462 2.9105z" clip-path="url(#a)" fill="#fff" stroke="#fff"/>
<g clip-path="url(#a)">
<g transform="translate(393.69 532.59) rotate(75.963) scale(.08 -.08)">
<use xlink:href="#p"/>
</g>
</g>
<path d="m411.16 533.93 1.7096 5.5999q0.70076 2.2954 2.9962 1.5947l7.4051-2.2607q2.2954-0.70076 1.5947-2.9962l-1.7096-5.5999q-0.70076-2.2954-2.9962-1.5947l-7.4051 2.2607q-2.2954 0.70076-1.5947 2.9962z" clip-path="url(#a)" fill="#fff" stroke="#fff"/>
<g clip-path="url(#a)">
<g transform="translate(415.04 532.74) rotate(73.023) scale(.08 -.08)">
<use xlink:href="#p"/>
</g>
</g>
<path d="m221.13 953.9v33.808q0 2.4 2.4 2.4h7.7425q2.4 0 2.4-2.4v-33.808q0-2.4-2.4-2.4h-7.7425q-2.4 0-2.4 2.4z" clip-path="url(#a)" fill="#fff" stroke="#fff"/>
<g clip-path="url(#a)">
<defs>
<path id="l" d="m-0.29688 72.906h61.672v-8.3125h-25.875v-64.594h-9.9062v64.594h-25.891z"/>
<path id="d" d="m56.203 29.594v-4.3906h-41.312q0.59375-9.2812 5.5938-14.141t13.938-4.8594q5.1719 0 10.031 1.2656t9.6562 3.8125v-8.5q-4.8438-2.0469-9.9219-3.125t-10.297-1.0781q-13.094 0-20.734 7.6094-7.6406 7.625-7.6406 20.625 0 13.422 7.25 21.297 7.25 7.8906 19.562 7.8906 11.031 0 17.453-7.1094 6.4219-7.0938 6.4219-19.297zm-8.9844 2.6406q-0.09375 7.3594-4.125 11.75-4.0312 4.4062-10.672 4.4062-7.5156 0-12.031-4.25t-5.2031-11.969z"/>
<path id="f" d="m41.109 46.297q-1.5156 0.875-3.2969 1.2812-1.7812 0.42188-3.9219 0.42188-7.625 0-11.703-4.9531t-4.0781-14.234v-28.812h-9.0312v54.688h9.0312v-8.5q2.8438 4.9844 7.375 7.3906 4.5469 2.4219 11.047 2.4219 0.92188 0 2.0469-0.125 1.125-0.10938 2.4844-0.35938z"/>
<path id="k" d="m52 44.188q3.375 6.0625 8.0625 8.9375t11.031 2.875q8.5469 0 13.188-5.9844 4.6406-5.9688 4.6406-17v-33.016h-9.0312v32.719q0 7.8594-2.7969 11.656-2.7812 3.8125-8.4844 3.8125-6.9844 0-11.047-4.6406-4.0469-4.625-4.0469-12.641v-30.906h-9.0312v32.719q0 7.9062-2.7812 11.688t-8.5938 3.7812q-6.8906 0-10.953-4.6562-4.0469-4.6562-4.0469-12.625v-30.906h-9.0312v54.688h9.0312v-8.5q3.0781 5.0312 7.375 7.4219t10.203 2.3906q5.9688 0 10.141-3.0312 4.1719-3.0156 6.1719-8.7812z"/>
<path id="h" d="m9.4219 54.688h8.9844v-54.688h-8.9844zm0 21.297h8.9844v-11.391h-8.9844z"/>
<path id="e" d="m54.891 33.016v-33.016h-8.9844v32.719q0 7.7656-3.0312 11.609-3.0312 3.8594-9.0781 3.8594-7.2812 0-11.484-4.6406-4.2031-4.625-4.2031-12.641v-30.906h-9.0312v54.688h9.0312v-8.5q3.2344 4.9375 7.5938 7.375 4.375 2.4375 10.094 2.4375 9.4219 0 14.25-5.8281 4.8438-5.8281 4.8438-17.156z"/>
<path id="i" d="m34.281 27.484q-10.891 0-15.094-2.4844t-4.2031-8.5q0-4.7812 3.1562-7.5938 3.1562-2.7969 8.5625-2.7969 7.4844 0 12 5.2969t4.5156 14.078v2zm17.922 3.7188v-31.203h-8.9844v8.2969q-3.0781-4.9688-7.6719-7.3438t-11.234-2.375q-8.3906 0-13.359 4.7188-4.9531 4.7188-4.9531 12.625 0 9.2188 6.1719 13.906 6.1875 4.6875 18.438 4.6875h12.609v0.89062q0 6.2031-4.0781 9.5938t-11.453 3.3906q-4.6875 0-9.1406-1.125-4.4375-1.125-8.5312-3.375v8.3125q4.9219 1.9062 9.5625 2.8438 4.6406 0.95312 9.0312 0.95312 11.875 0 17.734-6.1562 5.8594-6.1406 5.8594-18.641z"/>
<path id="j" d="m9.4219 75.984h8.9844v-75.984h-8.9844z"/>
</defs>
<g transform="translate(225.2 953.9) rotate(90) scale(.08 -.08)">
<use xlink:href="#l"/>
<use x="44.083984" xlink:href="#d"/>
<use x="105.607422" xlink:href="#f"/>
<use x="144.970703" xlink:href="#k"/>
<use x="242.382812" xlink:href="#h"/>
<use x="270.166016" xlink:href="#e"/>
<use x="333.544922" xlink:href="#i"/>
<use x="394.824219" xlink:href="#j"/>
</g>
</g>
<path d="m290.46 831.67 1.7354-5.1901q0.76106-2.2761-1.5151-3.0372l-7.3429-2.4552q-2.2761-0.76106-3.0372 1.5151l-1.7354 5.1901q-0.76106 2.2761 1.5151 3.0372l7.3429 2.4552q2.2761 0.76106 3.0372-1.5151z" clip-path="url(#a)" fill="#fff" stroke="#fff"/>
<g clip-path="url(#a)">
<g transform="translate(286.61 830.38) rotate(-71.512) scale(.08 -.08)">
<use xlink:href="#q"/>
</g>
</g>
<path d="m312.45 782.79 1.0605-4.7698q0.52087-2.3428-1.8219-2.8637l-7.558-1.6803q-2.3428-0.52087-2.8637 1.8219l-1.0605 4.7698q-0.52087 2.3428 1.8219 2.8637l7.558 1.6803q2.3428 0.52087 2.8637-1.8219z" clip-path="url(#a)" fill="#fff" stroke="#fff"/>
<g clip-path="url(#a)">
<g transform="translate(308.48 781.91) rotate(-77.465) scale(.08 -.08)">
<use xlink:href="#l"/>
</g>
</g>
<path d="m323.94 825.53 0.63946 4.7812q0.31816 2.3788 2.697 2.0607l7.6742-1.0264q2.3788-0.31816 2.0607-2.697l-0.63946-4.7812q-0.31816-2.3788-2.697-2.0607l-7.6742 1.0264q-2.3788 0.31816-2.0607 2.697z" clip-path="url(#a)" fill="#fff" stroke="#fff"/>
<g clip-path="url(#a)">
<g transform="translate(327.97 824.99) rotate(82.382) scale(.08 -.08)">
<use xlink:href="#w"/>
</g>
</g>
<path d="m340.98 826.76 1.3707 4.3923q0.71497 2.291 3.006 1.5761l7.391-2.3065q2.291-0.71497 1.5761-3.006l-1.3707-4.3923q-0.71497-2.291-3.006-1.5761l-7.391 2.3065q-2.291 0.71497-1.5761 3.006z" clip-path="url(#a)" fill="#fff" stroke="#fff"/>
<g clip-path="url(#a)">
<defs>
<path id="ab" d="m9.8125 72.906h41.891v-8.3125h-32.031v-21.484h28.906v-8.2969h-28.906v-34.812h-9.8594z"/>
</defs>
<g transform="translate(344.86 825.55) rotate(72.668) scale(.08 -.08)">
<use xlink:href="#ab"/>
</g>
</g>
<path d="m246.9 953.9v33.808q0 2.4 2.4 2.4h7.7425q2.4 0 2.4-2.4v-33.808q0-2.4-2.4-2.4h-7.7425q-2.4 0-2.4 2.4z" clip-path="url(#a)" fill="#fff" stroke="#fff"/>
<g clip-path="url(#a)">
<g transform="translate(250.96 953.9) rotate(90) scale(.08 -.08)">
<use xlink:href="#l"/>
<use x="44.083984" xlink:href="#d"/>
<use x="105.607422" xlink:href="#f"/>
<use x="144.970703" xlink:href="#k"/>
<use x="242.382812" xlink:href="#h"/>
<use x="270.166016" xlink:href="#e"/>
<use x="333.544922" xlink:href="#i"/>
<use x="394.824219" xlink:href="#j"/>
</g>
</g>
<path d="m294.44 878.62 0.7112-4.546q0.37096-2.3712-2.0002-2.7421l-7.6495-1.1967q-2.3712-0.37096-2.7421 2.0002l-0.7112 4.546q-0.37096 2.3712 2.0002 2.7421l7.6495 1.1967q2.3712 0.37096 2.7421-2.0002z" clip-path="url(#a)" fill="#fff" stroke="#fff"/>
<g clip-path="url(#a)">
<g transform="translate(290.43 877.99) rotate(-81.108) scale(.08 -.08)">
<use xlink:href="#ab"/>
</g>
</g>
<path d="m297.01 873.59 0.86344 5.5191q0.37096 2.3712 2.7421 2.0002l7.6495-1.1967q2.3712-0.37096 2.0002-2.7421l-0.86344-5.5191q-0.37096-2.3712-2.7421-2.0002l-7.6495 1.1967q-2.3712 0.37096-2.0002 2.7421z" clip-path="url(#a)" fill="#fff" stroke="#fff"/>
<g clip-path="url(#a)">
<defs>
<path id="ac" d="m64.406 67.281v-10.391q-4.9844 4.6406-10.625 6.9219-5.6406 2.2969-11.984 2.2969-12.5 0-19.141-7.6406t-6.6406-22.094q0-14.406 6.6406-22.047t19.141-7.6406q6.3438 0 11.984 2.2969t10.625 6.9375v-10.312q-5.1719-3.5156-10.969-5.2812-5.7812-1.75-12.219-1.75-16.562 0-26.094 10.125-9.5156 10.141-9.5156 27.672 0 17.578 9.5156 27.703 9.5312 10.141 26.094 10.141 6.5312 0 12.312-1.7344 5.7969-1.7344 10.875-5.2031z"/>
</defs>
<g transform="translate(301.02 872.96) rotate(81.108) scale(.08 -.08)">
<use xlink:href="#ac"/>
</g>
</g>
<path d="m337.09 953.9v33.808q0 2.4 2.4 2.4h7.7425q2.4 0 2.4-2.4v-33.808q0-2.4-2.4-2.4h-7.7425q-2.4 0-2.4 2.4z" clip-path="url(#a)" fill="#fff" stroke="#fff"/>
<g clip-path="url(#a)">
<g transform="translate(341.15 953.9) rotate(90) scale(.08 -.08)">
<use xlink:href="#l"/>
<use x="44.083984" xlink:href="#d"/>
<use x="105.607422" xlink:href="#f"/>
<use x="144.970703" xlink:href="#k"/>
<use x="242.382812" xlink:href="#h"/>
<use x="270.166016" xlink:href="#e"/>
<use x="333.544922" xlink:href="#i"/>
<use x="394.824219" xlink:href="#j"/>
</g>
</g>
<path d="m371.45 953.9v33.808q0 2.4 2.4 2.4h7.7425q2.4 0 2.4-2.4v-33.808q0-2.4-2.4-2.4h-7.7425q-2.4 0-2.4 2.4z" clip-path="url(#a)" fill="#fff" stroke="#fff"/>
<g clip-path="url(#a)">
<g transform="translate(375.51 953.9) rotate(90) scale(.08 -.08)">
<use xlink:href="#l"/>
<use x="44.083984" xlink:href="#d"/>
<use x="105.607422" xlink:href="#f"/>
<use x="144.970703" xlink:href="#k"/>
<use x="242.382812" xlink:href="#h"/>
<use x="270.166016" xlink:href="#e"/>
<use x="333.544922" xlink:href="#i"/>
<use x="394.824219" xlink:href="#j"/>
</g>
</g>
<path d="m274.82 953.9v33.808q0 2.4 2.4 2.4h7.7425q2.4 0 2.4-2.4v-33.808q0-2.4-2.4-2.4h-7.7425q-2.4 0-2.4 2.4z" clip-path="url(#a)" fill="#fff" stroke="#fff"/>
<g clip-path="url(#a)">
<g transform="translate(278.88 953.9) rotate(90) scale(.08 -.08)">
<use xlink:href="#l"/>
<use x="44.083984" xlink:href="#d"/>
<use x="105.607422" xlink:href="#f"/>
<use x="144.970703" xlink:href="#k"/>
<use x="242.382812" xlink:href="#h"/>
<use x="270.166016" xlink:href="#e"/>
<use x="333.544922" xlink:href="#i"/>
<use x="394.824219" xlink:href="#j"/>
</g>
</g>
<path d="m304.88 953.9v33.808q0 2.4 2.4 2.4h7.7425q2.4 0 2.4-2.4v-33.808q0-2.4-2.4-2.4h-7.7425q-2.4 0-2.4 2.4z" clip-path="url(#a)" fill="#fff" stroke="#fff"/>
<g clip-path="url(#a)">
<g transform="translate(308.94 953.9) rotate(90) scale(.08 -.08)">
<use xlink:href="#l"/>
<use x="44.083984" xlink:href="#d"/>
<use x="105.607422" xlink:href="#f"/>
<use x="144.970703" xlink:href="#k"/>
<use x="242.382812" xlink:href="#h"/>
<use x="270.166016" xlink:href="#e"/>
<use x="333.544922" xlink:href="#i"/>
<use x="394.824219" xlink:href="#j"/>
</g>
</g>
<path d="m200.75 587.74 1.2969-4.2647q0.69825-2.2962-1.5979-2.9944l-7.4076-2.2526q-2.2962-0.69825-2.9944 1.5979l-1.2969 4.2647q-0.69825 2.2962 1.5979 2.9944l7.4076 2.2526q2.2962 0.69825 2.9944-1.5979z" clip-path="url(#a)" fill="#fff" stroke="#fff"/>
<g clip-path="url(#a)">
<g transform="translate(196.86 586.56) rotate(-73.086) scale(.08 -.08)">
<use xlink:href="#ag"/>
</g>
</g>
<path d="m497.63 298.38 5.8499 1.4048q2.3337 0.56039 2.8941-1.7733l1.8078-7.5285q0.56039-2.3337-1.7733-2.894l-5.8499-1.4048q-2.3337-0.56039-2.894 1.7733l-1.8078 7.5285q-0.56039 2.3337 1.7733 2.8941z" clip-path="url(#a)" fill="#fff" stroke="#fff"/>
<g clip-path="url(#a)">
<g transform="translate(498.58 294.43) rotate(13.503) scale(.08 -.08)">
<use xlink:href="#aa"/>
</g>
</g>
<path d="m203.81 588.37 1.6546-5.6163q0.67824-2.3022-1.6239-2.9804l-7.4269-2.188q-2.3022-0.67824-2.9804 1.6239l-1.6546 5.6163q-0.67824 2.3022 1.6239 2.9804l7.4269 2.188q2.3022 0.67824 2.9804-1.6239z" clip-path="url(#a)" fill="#fff" stroke="#fff"/>
<g clip-path="url(#a)">
<g transform="translate(199.91 587.22) rotate(-73.585) scale(.08 -.08)">
<use xlink:href="#p"/>
</g>
</g>
<path d="m224.74 985.3 28.297-18.5q2.0088-1.3133 0.69549-3.3221l-4.2368-6.4804q-1.3133-2.0088-3.3221-0.69549l-28.297 18.5q-2.0088 1.3133-0.69549 3.3221l4.2368 6.4804q1.3133 2.0088 3.3221 0.69549z" clip-path="url(#a)" fill="#fff" stroke="#fff"/>
<g clip-path="url(#a)">
<g transform="translate(222.52 981.9) rotate(-33.176) scale(.08 -.08)">
<use xlink:href="#l"/>
<use x="44.083984" xlink:href="#d"/>
<use x="105.607422" xlink:href="#f"/>
<use x="144.970703" xlink:href="#k"/>
<use x="242.382812" xlink:href="#h"/>
<use x="270.166016" xlink:href="#e"/>
<use x="333.544922" xlink:href="#i"/>
<use x="394.824219" xlink:href="#j"/>
</g>
</g>
<path d="m362.82 966.8 28.297 18.5q2.0088 1.3133 3.3221-0.69549l4.2368-6.4804q1.3133-2.0088-0.69549-3.3221l-28.297-18.5q-2.0088-1.3133-3.3221 0.69549l-4.2368 6.4804q-1.3133 2.0088 0.69549 3.3221z" clip-path="url(#a)" fill="#fff" stroke="#fff"/>
<g clip-path="url(#a)">
<g transform="translate(365.05 963.4) rotate(33.176) scale(.08 -.08)">
<use xlink:href="#l"/>
<use x="44.083984" xlink:href="#d"/>
<use x="105.607422" xlink:href="#f"/>
<use x="144.970703" xlink:href="#k"/>
<use x="242.382812" xlink:href="#h"/>
<use x="270.166016" xlink:href="#e"/>
<use x="333.544922" xlink:href="#i"/>
<use x="394.824219" xlink:href="#j"/>
</g>
</g>
<path d="m176.04 953.9v33.808q0 2.4 2.4 2.4h7.7425q2.4 0 2.4-2.4v-33.808q0-2.4-2.4-2.4h-7.7425q-2.4 0-2.4 2.4z" clip-path="url(#a)" fill="#fff" stroke="#fff"/>
<g clip-path="url(#a)">
<g transform="translate(180.1 953.9) rotate(90) scale(.08 -.08)">
<use xlink:href="#l"/>
<use x="44.083984" xlink:href="#d"/>
<use x="105.607422" xlink:href="#f"/>
<use x="144.970703" xlink:href="#k"/>
<use x="242.382812" xlink:href="#h"/>
<use x="270.166016" xlink:href="#e"/>
<use x="333.544922" xlink:href="#i"/>
<use x="394.824219" xlink:href="#j"/>
</g>
</g>
<path d="m85.85 953.9v33.808q0 2.4 2.4 2.4h7.7425q2.4 0 2.4-2.4v-33.808q0-2.4-2.4-2.4h-7.7425q-2.4 0-2.4 2.4z" clip-path="url(#a)" fill="#fff" stroke="#fff"/>
<g clip-path="url(#a)">
<g transform="translate(89.914 953.9) rotate(90) scale(.08 -.08)">
<use xlink:href="#l"/>
<use x="44.083984" xlink:href="#d"/>
<use x="105.607422" xlink:href="#f"/>
<use x="144.970703" xlink:href="#k"/>
<use x="242.382812" xlink:href="#h"/>
<use x="270.166016" xlink:href="#e"/>
<use x="333.544922" xlink:href="#i"/>
<use x="394.824219" xlink:href="#j"/>
</g>
</g>
<path d="m410.52 591.39 4.7957-3.9276q1.8568-1.5207 0.33609-3.3774l-4.9057-5.99q-1.5207-1.8568-3.3774-0.33609l-4.7957 3.9276q-1.8568 1.5207-0.33609 3.3774l4.9057 5.99q1.5207 1.8568 3.3774 0.33609z" clip-path="url(#a)" fill="#fff" stroke="#fff"/>
<g clip-path="url(#a)">
<defs>
<path id="av" d="m59.516 10.406v19.578h-16.109v8.1094h25.875v-31.312q-5.7031-4.0469-12.594-6.125-6.875-2.0781-14.688-2.0781-17.094 0-26.75 9.9844-9.6406 10-9.6406 27.812 0 17.875 9.6406 27.859 9.6562 9.9844 26.75 9.9844 7.125 0 13.547-1.7656 6.4219-1.75 11.844-5.1719v-10.5q-5.4688 4.6406-11.625 6.9844t-12.938 2.3438q-13.391 0-20.109-7.4688-6.7031-7.4688-6.7031-22.266 0-14.75 6.7031-22.219 6.7188-7.4688 20.109-7.4688 5.2188 0 9.3125 0.90625 4.1094 0.90625 7.375 2.8125z"/>
</defs>
<g transform="translate(407.94 588.25) rotate(-39.317) scale(.08 -.08)">
<use xlink:href="#av"/>
</g>
</g>
<path d="m649.1 636.6 1.1379-5.3529q0.49905-2.3475-1.8485-2.8466l-7.5733-1.61q-2.3475-0.49905-2.8466 1.8485l-1.1379 5.3529q-0.49905 2.3475 1.8485 2.8466l7.5733 1.61q2.3475 0.49905 2.8466-1.8485z" clip-path="url(#a)" fill="#fff" stroke="#fff"/>
<g clip-path="url(#a)">
<g transform="translate(645.13 635.75) rotate(-77.998) scale(.08 -.08)">
<use xlink:href="#q"/>
</g>
</g>
<path d="m673.06 635.82 0.62825-4.7827q0.31258-2.3796-2.067-2.6921l-7.6766-1.0084q-2.3796-0.31258-2.6921 2.067l-0.62825 4.7827q-0.31258 2.3796 2.067 2.6921l7.6766 1.0084q2.3796 0.31258 2.6921-2.067z" clip-path="url(#a)" fill="#fff" stroke="#fff"/>
<g clip-path="url(#a)">
<g transform="translate(669.03 635.29) rotate(-82.517) scale(.08 -.08)">
<use xlink:href="#w"/>
</g>
</g>
<path d="m697.97 635.98 0.28577-6.1534q0.11134-2.3974-2.2861-2.5088l-7.7342-0.35919q-2.3974-0.11134-2.5088 2.2861l-0.28577 6.1534q-0.11134 2.3974 2.2861 2.5088l7.7342 0.35919q2.3974 0.11134 2.5088-2.2861z" clip-path="url(#a)" fill="#fff" stroke="#fff"/>
<g clip-path="url(#a)">
<defs>
<path id="ai" d="m19.672 64.797v-56.688h11.922q15.094 0 22.094 6.8281 7 6.8438 7 21.594 0 14.641-7 21.453t-22.094 6.8125zm-9.8594 8.1094h20.266q21.188 0 31.094-8.8125 9.9219-8.8125 9.9219-27.562 0-18.859-9.9688-27.703-9.9531-8.8281-31.047-8.8281h-20.266z"/>
</defs>
<g transform="translate(693.91 635.79) rotate(-87.341) scale(.08 -.08)">
<use xlink:href="#ai"/>
</g>
</g>
<path d="m1099.6 396.46 5.4318 0.66598q2.3822 0.29207 2.6742-2.0901l0.94223-7.685q0.29207-2.3822-2.0901-2.6742l-5.4318-0.66598q-2.3822-0.29207-2.6742 2.0901l-0.94223 7.685q-0.29207 2.3822 2.0901 2.6742z" clip-path="url(#a)" fill="#fff" stroke="#fff"/>
<g clip-path="url(#a)">
<g transform="translate(1100.1 392.43) rotate(6.99) scale(.08 -.08)">
<use xlink:href="#q"/>
</g>
</g>
<path d="m711.23 629.95 0.24668 5.8498q0.10111 2.3979 2.499 2.2968l7.7356-0.3262q2.3979-0.10111 2.2968-2.499l-0.24668-5.8498q-0.10112-2.3979-2.499-2.2968l-7.7356 0.3262q-2.3979 0.10111-2.2968 2.499z" clip-path="url(#a)" fill="#fff" stroke="#fff"/>
<g clip-path="url(#a)">
<g transform="translate(715.29 629.78) rotate(87.585) scale(.08 -.08)">
<use xlink:href="#p"/>
</g>
</g>
<path d="m115.96 878.25 0.282-5.0471q0.13389-2.3963-2.2624-2.5302l-7.7304-0.43193q-2.3963-0.13389-2.5302 2.2624l-0.282 5.0471q-0.13389 2.3963 2.2624 2.5302l7.7304 0.43193q2.3963 0.13389 2.5302-2.2624z" clip-path="url(#a)" fill="#fff" stroke="#fff"/>
<g clip-path="url(#a)">
<defs>
<path id="ah" d="m9.8125 72.906h46.094v-8.3125h-36.234v-21.578h34.719v-8.2969h-34.719v-26.422h37.109v-8.2969h-46.969z"/>
</defs>
<g transform="translate(111.9 878.03) rotate(-86.802) scale(.08 -.08)">
<use xlink:href="#ah"/>
</g>
</g>
<path d="m108.79 872.94 0.31164 5.5776q0.13389 2.3963 2.5302 2.2624l7.7304-0.43193q2.3963-0.13389 2.2624-2.5302l-0.31164-5.5776q-0.13389-2.3963-2.5302-2.2624l-7.7304 0.43193q-2.3963 0.13389-2.2624 2.5302z" clip-path="url(#a)" fill="#fff" stroke="#fff"/>
<g clip-path="url(#a)">
<g transform="translate(112.85 872.71) rotate(86.802) scale(.08 -.08)">
<use xlink:href="#ac"/>
</g>
</g>
<path d="m575.45 953.9v33.808q0 2.4 2.4 2.4h7.7425q2.4 0 2.4-2.4v-33.808q0-2.4-2.4-2.4h-7.7425q-2.4 0-2.4 2.4z" clip-path="url(#a)" fill="#fff" stroke="#fff"/>
<g clip-path="url(#a)">
<g transform="translate(579.51 953.9) rotate(90) scale(.08 -.08)">
<use xlink:href="#l"/>
<use x="44.083984" xlink:href="#d"/>
<use x="105.607422" xlink:href="#f"/>
<use x="144.970703" xlink:href="#k"/>
<use x="242.382812" xlink:href="#h"/>
<use x="270.166016" xlink:href="#e"/>
<use x="333.544922" xlink:href="#i"/>
<use x="394.824219" xlink:href="#j"/>
</g>
</g>
<path d="m622.69 953.9v33.808q0 2.4 2.4 2.4h7.7425q2.4 0 2.4-2.4v-33.808q0-2.4-2.4-2.4h-7.7425q-2.4 0-2.4 2.4z" clip-path="url(#a)" fill="#fff" stroke="#fff"/>
<g clip-path="url(#a)">
<g transform="translate(626.75 953.9) rotate(90) scale(.08 -.08)">
<use xlink:href="#l"/>
<use x="44.083984" xlink:href="#d"/>
<use x="105.607422" xlink:href="#f"/>
<use x="144.970703" xlink:href="#k"/>
<use x="242.382812" xlink:href="#h"/>
<use x="270.166016" xlink:href="#e"/>
<use x="333.544922" xlink:href="#i"/>
<use x="394.824219" xlink:href="#j"/>
</g>
</g>
<path d="m672.08 953.9v33.808q0 2.4 2.4 2.4h7.7425q2.4 0 2.4-2.4v-33.808q0-2.4-2.4-2.4h-7.7425q-2.4 0-2.4 2.4z" clip-path="url(#a)" fill="#fff" stroke="#fff"/>
<g clip-path="url(#a)">
<g transform="translate(676.14 953.9) rotate(90) scale(.08 -.08)">
<use xlink:href="#l"/>
<use x="44.083984" xlink:href="#d"/>
<use x="105.607422" xlink:href="#f"/>
<use x="144.970703" xlink:href="#k"/>
<use x="242.382812" xlink:href="#h"/>
<use x="270.166016" xlink:href="#e"/>
<use x="333.544922" xlink:href="#i"/>
<use x="394.824219" xlink:href="#j"/>
</g>
</g>
<path d="m1143.4 688.1 4.5358-3.0618q1.9892-1.3428 0.64646-3.332l-4.3318-6.4173q-1.3428-1.9892-3.332-0.64646l-4.5358 3.0618q-1.9892 1.3428-0.64646 3.332l4.3318 6.4173q1.3428 1.9892 3.332 0.64646z" clip-path="url(#a)" fill="#fff" stroke="#fff"/>
<g clip-path="url(#a)">
<g transform="translate(1141.1 684.73) rotate(-34.02) scale(.08 -.08)">
<use xlink:href="#q"/>
</g>
</g>
<path d="m1226.2 494.66 5.3875-0.96079q2.3627-0.42136 1.9414-2.7841l-1.3593-7.6222q-0.42136-2.3627-2.7841-1.9414l-5.3875 0.96079q-2.3627 0.42136-1.9414 2.7841l1.3593 7.6222q0.42136 2.3627 2.7841 1.9414z" clip-path="url(#a)" fill="#fff" stroke="#fff"/>
<g clip-path="url(#a)">
<g transform="translate(1225.5 490.66) rotate(-10.112) scale(.08 -.08)">
<use xlink:href="#q"/>
</g>
</g>
<path d="m1501.9 679.27 0.14337 4.599q0.074782 2.3988 2.4736 2.3241l7.7387-0.24125q2.3988-0.074781 2.3241-2.4736l-0.14337-4.599q-0.074781-2.3988-2.4736-2.3241l-7.7387 0.24125q-2.3988 0.074781-2.3241 2.4736z" clip-path="url(#a)" fill="#fff" stroke="#fff"/>
<g clip-path="url(#a)">
<g transform="translate(1506 679.14) rotate(88.214) scale(.08 -.08)">
<use xlink:href="#ab"/>
</g>
</g>
<path d="m1541.4 680.21 0.92461 4.7343q0.46003 2.3555 2.8155 1.8955l7.5989-1.4841q2.3555-0.46003 1.8955-2.8155l-0.92461-4.7343q-0.46003-2.3555-2.8155-1.8955l-7.5989 1.4841q-2.3555 0.46003-1.8955 2.8155z" clip-path="url(#a)" fill="#fff" stroke="#fff"/>
<g clip-path="url(#a)">
<g transform="translate(1545.4 679.43) rotate(78.949) scale(.08 -.08)">
<use xlink:href="#w"/>
</g>
</g>
<path d="m1581.8 680.62 2.1063 5.7887q0.82063 2.2553 3.076 1.4347l7.2758-2.6474q2.2553-0.82063 1.4347-3.076l-2.1063-5.7887q-0.82063-2.2553-3.076-1.4347l-7.2758 2.6474q-2.2553 0.82063-1.4347 3.076z" clip-path="url(#a)" fill="#fff" stroke="#fff"/>
<g clip-path="url(#a)">
<g transform="translate(1585.7 679.23) rotate(70.006) scale(.08 -.08)">
<use xlink:href="#ai"/>
</g>
</g>
<path d="m1475.5 685.08 0.74632-5.8072q0.30592-2.3804-2.0745-2.6863l-7.6793-0.98692q-2.3804-0.30592-2.6863 2.0745l-0.74632 5.8072q-0.30592 2.3804 2.0745 2.6863l7.6793 0.98692q2.3804 0.30592 2.6863-2.0745z" clip-path="url(#a)" fill="#fff" stroke="#fff"/>
<g clip-path="url(#a)">
<g transform="translate(1471.4 684.56) rotate(-82.677) scale(.08 -.08)">
<use xlink:href="#p"/>
</g>
</g>
<path d="m1623.8 681.76 2.7694 5.1586q1.1352 2.1145 3.2498 0.97933l6.8216-3.6622q2.1145-1.1352 0.97933-3.2498l-2.7694-5.1586q-1.1352-2.1145-3.2498-0.97933l-6.8216 3.6622q-2.1145 1.1352-0.97933 3.2498z" clip-path="url(#a)" fill="#fff" stroke="#fff"/>
<g clip-path="url(#a)">
<g transform="translate(1627.3 679.84) rotate(61.77) scale(.08 -.08)">
<use xlink:href="#p"/>
</g>
</g>
<path d="m1666.8 682.64 3.4032 4.7644q1.395 1.953 3.3479 0.55797l6.3003-4.5003q1.953-1.395 0.55797-3.3479l-3.4032-4.7644q-1.395-1.953-3.3479-0.55797l-6.3003 4.5003q-1.953 1.395-0.55798 3.3479z" clip-path="url(#a)" fill="#fff" stroke="#fff"/>
<g clip-path="url(#a)">
<g transform="translate(1670.1 680.27) rotate(54.462) scale(.08 -.08)">
<use xlink:href="#p"/>
</g>
</g>
<path d="m1711 683.38 3.9075 4.3603q1.6017 1.7873 3.389 0.18559l5.7659-5.1672q1.7873-1.6017 0.18559-3.389l-3.9075-4.3603q-1.6017-1.7873-3.389-0.18559l-5.7659 5.1672q-1.7873 1.6017-0.18559 3.389z" clip-path="url(#a)" fill="#fff" stroke="#fff"/>
<g clip-path="url(#a)">
<g transform="translate(1714 680.67) rotate(48.135) scale(.08 -.08)">
<use xlink:href="#p"/>
</g>
</g>
<path d="m777.3 953.9v33.808q0 2.4 2.4 2.4h7.7425q2.4 0 2.4-2.4v-33.808q0-2.4-2.4-2.4h-7.7425q-2.4 0-2.4 2.4z" clip-path="url(#a)" fill="#fff" stroke="#fff"/>
<g clip-path="url(#a)">
<g transform="translate(781.36 953.9) rotate(90) scale(.08 -.08)">
<use xlink:href="#l"/>
<use x="44.083984" xlink:href="#d"/>
<use x="105.607422" xlink:href="#f"/>
<use x="144.970703" xlink:href="#k"/>
<use x="242.382812" xlink:href="#h"/>
<use x="270.166016" xlink:href="#e"/>
<use x="333.544922" xlink:href="#i"/>
<use x="394.824219" xlink:href="#j"/>
</g>
</g>
<path d="m902.32 734.52 1.5976-5.3529q0.68636-2.2998-1.6134-2.9861l-7.4191-2.2142q-2.2998-0.68635-2.9861 1.6134l-1.5976 5.3529q-0.68636 2.2998 1.6134 2.9861l7.4191 2.2142q2.2998 0.68636 2.9861-1.6134z" clip-path="url(#a)" fill="#fff" stroke="#fff"/>
<g clip-path="url(#a)">
<g transform="translate(898.42 733.36) rotate(-73.383) scale(.08 -.08)">
<use xlink:href="#ac"/>
</g>
</g>
<path d="m1036 589.49 4.4066 2.4768q2.0922 1.1759 3.2681-0.91625l3.7936-6.7494q1.1759-2.0922-0.91625-3.2681l-4.4066-2.4768q-2.0922-1.1759-3.2681 0.91625l-3.7936 6.7494q-1.1759 2.0922 0.91625 3.2681z" clip-path="url(#a)" fill="#fff" stroke="#fff"/>
<g clip-path="url(#a)">
<g transform="translate(1038 585.95) rotate(29.339) scale(.08 -.08)">
<use xlink:href="#ah"/>
</g>
</g>
<path d="m931.87 733.87 0.8602-5.7915q0.3526-2.374-2.0214-2.7266l-7.6585-1.1375q-2.374-0.3526-2.7266 2.0214l-0.8602 5.7915q-0.3526 2.374 2.0214 2.7266l7.6585 1.1375q2.374 0.3526 2.7266-2.0214z" clip-path="url(#a)" fill="#fff" stroke="#fff"/>
<g clip-path="url(#a)">
<g transform="translate(927.85 733.27) rotate(-81.552) scale(.08 -.08)">
<use xlink:href="#p"/>
</g>
</g>
<path d="m1509.5 953.9v33.808q0 2.4 2.4 2.4h7.7425q2.4 0 2.4-2.4v-33.808q0-2.4-2.4-2.4h-7.7425q-2.4 0-2.4 2.4z" clip-path="url(#a)" fill="#fff" stroke="#fff"/>
<g clip-path="url(#a)">
<g transform="translate(1513.6 953.9) rotate(90) scale(.08 -.08)">
<use xlink:href="#l"/>
<use x="44.083984" xlink:href="#d"/>
<use x="105.607422" xlink:href="#f"/>
<use x="144.970703" xlink:href="#k"/>
<use x="242.382812" xlink:href="#h"/>
<use x="270.166016" xlink:href="#e"/>
<use x="333.544922" xlink:href="#i"/>
<use x="394.824219" xlink:href="#j"/>
</g>
</g>
<path d="m1589 953.9v33.808q0 2.4 2.4 2.4h7.7425q2.4 0 2.4-2.4v-33.808q0-2.4-2.4-2.4h-7.7425q-2.4 0-2.4 2.4z" clip-path="url(#a)" fill="#fff" stroke="#fff"/>
<g clip-path="url(#a)">
<g transform="translate(1593.1 953.9) rotate(90) scale(.08 -.08)">
<use xlink:href="#l"/>
<use x="44.083984" xlink:href="#d"/>
<use x="105.607422" xlink:href="#f"/>
<use x="144.970703" xlink:href="#k"/>
<use x="242.382812" xlink:href="#h"/>
<use x="270.166016" xlink:href="#e"/>
<use x="333.544922" xlink:href="#i"/>
<use x="394.824219" xlink:href="#j"/>
</g>
</g>
<path d="m1670.6 953.9v33.808q0 2.4 2.4 2.4h7.7425q2.4 0 2.4-2.4v-33.808q0-2.4-2.4-2.4h-7.7425q-2.4 0-2.4 2.4z" clip-path="url(#a)" fill="#fff" stroke="#fff"/>
<g clip-path="url(#a)">
<g transform="translate(1674.7 953.9) rotate(90) scale(.08 -.08)">
<use xlink:href="#l"/>
<use x="44.083984" xlink:href="#d"/>
<use x="105.607422" xlink:href="#f"/>
<use x="144.970703" xlink:href="#k"/>
<use x="242.382812" xlink:href="#h"/>
<use x="270.166016" xlink:href="#e"/>
<use x="333.544922" xlink:href="#i"/>
<use x="394.824219" xlink:href="#j"/>
</g>
</g>
<path d="m833.13 953.9v33.808q0 2.4 2.4 2.4h7.7425q2.4 0 2.4-2.4v-33.808q0-2.4-2.4-2.4h-7.7425q-2.4 0-2.4 2.4z" clip-path="url(#a)" fill="#fff" stroke="#fff"/>
<g clip-path="url(#a)">
<g transform="translate(837.19 953.9) rotate(90) scale(.08 -.08)">
<use xlink:href="#l"/>
<use x="44.083984" xlink:href="#d"/>
<use x="105.607422" xlink:href="#f"/>
<use x="144.970703" xlink:href="#k"/>
<use x="242.382812" xlink:href="#h"/>
<use x="270.166016" xlink:href="#e"/>
<use x="333.544922" xlink:href="#i"/>
<use x="394.824219" xlink:href="#j"/>
</g>
</g>
<path d="m986.05 784.99 3.8609-3.8783q1.6932-1.7009-0.007618-3.3941l-5.487-5.4625q-1.7009-1.6932-3.3941 0.007618l-3.8609 3.8783q-1.6932 1.7009 0.007619 3.3941l5.487 5.4625q1.7009 1.6932 3.3941-0.007619z" clip-path="url(#a)" fill="#fff" stroke="#fff"/>
<g clip-path="url(#a)">
<g transform="translate(983.17 782.13) rotate(-45.129) scale(.08 -.08)">
<use xlink:href="#q"/>
</g>
</g>
<path d="m1046.6 784.2 2.8164-4.7925q1.216-2.0692-0.85317-3.2851l-6.6752-3.9228q-2.0692-1.216-3.2851 0.85317l-2.8164 4.7925q-1.216 2.0692 0.85317 3.2851l6.6752 3.9228q2.0692 1.216 3.2851-0.85317z" clip-path="url(#a)" fill="#fff" stroke="#fff"/>
<g clip-path="url(#a)">
<defs>
<path id="an" d="m44.391 34.188q3.1719-1.0781 6.1719-4.5938t6.0312-9.6719l10.016-19.922h-10.609l-9.3125 18.703q-3.625 7.3281-7.0156 9.7188t-9.25 2.3906h-10.75v-30.812h-9.8594v72.906h22.266q12.5 0 18.656-5.2344 6.1562-5.2188 6.1562-15.766 0-6.8906-3.2031-11.438-3.2031-4.5312-9.2969-6.2812zm-24.719 30.609v-25.875h12.406q7.125 0 10.766 3.2969t3.6406 9.6875-3.6406 9.6406-10.766 3.25z"/>
</defs>
<g transform="translate(1043.1 782.14) rotate(-59.558) scale(.08 -.08)">
<use xlink:href="#an"/>
</g>
</g>
<path d="m1117 686.85 1.7-5.2017q0.74556-2.2813-1.5357-3.0268l-7.3594-2.4052q-2.2813-0.74556-3.0268 1.5357l-1.7 5.2017q-0.74556 2.2813 1.5357 3.0268l7.3594 2.4052q2.2813 0.74556 3.0268-1.5357z" clip-path="url(#a)" fill="#fff" stroke="#fff"/>
<g clip-path="url(#a)">
<g transform="translate(1113.1 685.58) rotate(-71.901) scale(.08 -.08)">
<use xlink:href="#q"/>
</g>
</g>
<path d="m1166.7 777.59 1.8615 5.872q0.72525 2.2878 3.013 1.5625l7.3805-2.3397q2.2878-0.72525 1.5625-3.013l-1.8615-5.872q-0.72525-2.2878-3.013-1.5625l-7.3805 2.3397q-2.2878 0.72525-1.5625 3.013z" clip-path="url(#a)" fill="#fff" stroke="#fff"/>
<g clip-path="url(#a)">
<g transform="translate(1170.5 776.36) rotate(72.411) scale(.08 -.08)">
<use xlink:href="#ai"/>
</g>
</g>
<path d="m1202.4 779.6 2.3624 4.2057q1.1754 2.0925 3.2679 0.9171l6.7504-3.7918q2.0925-1.1754 0.9171-3.2679l-2.3624-4.2057q-1.1754-2.0925-3.2679-0.9171l-6.7504 3.7918q-2.0925 1.1754-0.9171 3.2679z" clip-path="url(#a)" fill="#fff" stroke="#fff"/>
<g clip-path="url(#a)">
<g transform="translate(1205.9 777.61) rotate(60.676) scale(.08 -.08)">
<use xlink:href="#w"/>
</g>
</g>
<path d="m1239.2 780.8 2.9044 3.5687q1.5149 1.8614 3.3764 0.34652l6.0051-4.8872q1.8614-1.5149 0.34652-3.3764l-2.9044-3.5687q-1.5149-1.8614-3.3764-0.34652l-6.0051 4.8872q-1.8614 1.5149-0.34652 3.3764z" clip-path="url(#a)" fill="#fff" stroke="#fff"/>
<g clip-path="url(#a)">
<g transform="translate(1242.4 778.24) rotate(50.86) scale(.08 -.08)">
<use xlink:href="#ab"/>
</g>
</g>
<path d="m92.292 953.9v33.808q0 2.4 2.4 2.4h7.7425q2.4 0 2.4-2.4v-33.808q0-2.4-2.4-2.4h-7.7425q-2.4 0-2.4 2.4z" clip-path="url(#a)" fill="#fff" stroke="#fff"/>
<g clip-path="url(#a)">
<g transform="translate(96.356 953.9) rotate(90) scale(.08 -.08)">
<use xlink:href="#l"/>
<use x="44.083984" xlink:href="#d"/>
<use x="105.607422" xlink:href="#f"/>
<use x="144.970703" xlink:href="#k"/>
<use x="242.382812" xlink:href="#h"/>
<use x="270.166016" xlink:href="#e"/>
<use x="333.544922" xlink:href="#i"/>
<use x="394.824219" xlink:href="#j"/>
</g>
</g>
<path d="m951.23 953.9v33.808q0 2.4 2.4 2.4h7.7425q2.4 0 2.4-2.4v-33.808q0-2.4-2.4-2.4h-7.7425q-2.4 0-2.4 2.4z" clip-path="url(#a)" fill="#fff" stroke="#fff"/>
<g clip-path="url(#a)">
<g transform="translate(955.29 953.9) rotate(90) scale(.08 -.08)">
<use xlink:href="#l"/>
<use x="44.083984" xlink:href="#d"/>
<use x="105.607422" xlink:href="#f"/>
<use x="144.970703" xlink:href="#k"/>
<use x="242.382812" xlink:href="#h"/>
<use x="270.166016" xlink:href="#e"/>
<use x="333.544922" xlink:href="#i"/>
<use x="394.824219" xlink:href="#j"/>
</g>
</g>
<path d="m1062.7 831.98 2.0451-5.1689q0.88299-2.2317-1.3487-3.1147l-7.1994-2.8486q-2.2317-0.88299-3.1147 1.3487l-2.0451 5.1689q-0.88299 2.2317 1.3487 3.1147l7.1994 2.8486q2.2317 0.88299 3.1147-1.3487z" clip-path="url(#a)" fill="#fff" stroke="#fff"/>
<g clip-path="url(#a)">
<g transform="translate(1058.9 830.48) rotate(-68.413) scale(.08 -.08)">
<use xlink:href="#an"/>
</g>
</g>
<path d="m1100.1 777.94 1.0971 4.9345q0.52087 2.3428 2.8637 1.8219l7.558-1.6803q2.3428-0.52087 1.8219-2.8637l-1.0971-4.9345q-0.52087-2.3428-2.8637-1.8219l-7.558 1.6803q-2.3428 0.52087-1.8219 2.8637z" clip-path="url(#a)" fill="#fff" stroke="#fff"/>
<g clip-path="url(#a)">
<g transform="translate(1104 777.06) rotate(77.465) scale(.08 -.08)">
<use xlink:href="#ah"/>
</g>
</g>
<path d="m1116.6 826.11 1.5272 5.3734q0.65612 2.3086 2.9647 1.6525l7.4476-2.1167q2.3086-0.65612 1.6525-2.9647l-1.5272-5.3734q-0.65612-2.3086-2.9647-1.6525l-7.4476 2.1167q-2.3086 0.65612-1.6525 2.9647z" clip-path="url(#a)" fill="#fff" stroke="#fff"/>
<g clip-path="url(#a)">
<g transform="translate(1120.5 825) rotate(74.134) scale(.08 -.08)">
<use xlink:href="#ac"/>
</g>
</g>
<path d="m1213.2 953.9v33.808q0 2.4 2.4 2.4h7.7425q2.4 0 2.4-2.4v-33.808q0-2.4-2.4-2.4h-7.7425q-2.4 0-2.4 2.4z" clip-path="url(#a)" fill="#fff" stroke="#fff"/>
<g clip-path="url(#a)">
<g transform="translate(1217.3 953.9) rotate(90) scale(.08 -.08)">
<use xlink:href="#l"/>
<use x="44.083984" xlink:href="#d"/>
<use x="105.607422" xlink:href="#f"/>
<use x="144.970703" xlink:href="#k"/>
<use x="242.382812" xlink:href="#h"/>
<use x="270.166016" xlink:href="#e"/>
<use x="333.544922" xlink:href="#i"/>
<use x="394.824219" xlink:href="#j"/>
</g>
</g>
<path d="m1284.1 953.9v33.808q0 2.4 2.4 2.4h7.7425q2.4 0 2.4-2.4v-33.808q0-2.4-2.4-2.4h-7.7425q-2.4 0-2.4 2.4z" clip-path="url(#a)" fill="#fff" stroke="#fff"/>
<g clip-path="url(#a)">
<g transform="translate(1288.1 953.9) rotate(90) scale(.08 -.08)">
<use xlink:href="#l"/>
<use x="44.083984" xlink:href="#d"/>
<use x="105.607422" xlink:href="#f"/>
<use x="144.970703" xlink:href="#k"/>
<use x="242.382812" xlink:href="#h"/>
<use x="270.166016" xlink:href="#e"/>
<use x="333.544922" xlink:href="#i"/>
<use x="394.824219" xlink:href="#j"/>
</g>
</g>
<path d="m1357.1 953.9v33.808q0 2.4 2.4 2.4h7.7425q2.4 0 2.4-2.4v-33.808q0-2.4-2.4-2.4h-7.7425q-2.4 0-2.4 2.4z" clip-path="url(#a)" fill="#fff" stroke="#fff"/>
<g clip-path="url(#a)">
<g transform="translate(1361.1 953.9) rotate(90) scale(.08 -.08)">
<use xlink:href="#l"/>
<use x="44.083984" xlink:href="#d"/>
<use x="105.607422" xlink:href="#f"/>
<use x="144.970703" xlink:href="#k"/>
<use x="242.382812" xlink:href="#h"/>
<use x="270.166016" xlink:href="#e"/>
<use x="333.544922" xlink:href="#i"/>
<use x="394.824219" xlink:href="#j"/>
</g>
</g>
<path d="m1013.5 953.9v33.808q0 2.4 2.4 2.4h7.7425q2.4 0 2.4-2.4v-33.808q0-2.4-2.4-2.4h-7.7425q-2.4 0-2.4 2.4z" clip-path="url(#a)" fill="#fff" stroke="#fff"/>
<g clip-path="url(#a)">
<g transform="translate(1017.6 953.9) rotate(90) scale(.08 -.08)">
<use xlink:href="#l"/>
<use x="44.083984" xlink:href="#d"/>
<use x="105.607422" xlink:href="#f"/>
<use x="144.970703" xlink:href="#k"/>
<use x="242.382812" xlink:href="#h"/>
<use x="270.166016" xlink:href="#e"/>
<use x="333.544922" xlink:href="#i"/>
<use x="394.824219" xlink:href="#j"/>
</g>
</g>
<path d="m1127.3 874.85 1.7913 5.171q0.7856 2.2678 3.0534 1.4822l7.316-2.5344q2.2678-0.7856 1.4822-3.0534l-1.7913-5.171q-0.7856-2.2678-3.0534-1.4822l-7.316 2.5344q-2.2678 0.7856-1.4822 3.0534z" clip-path="url(#a)" fill="#fff" stroke="#fff"/>
<g clip-path="url(#a)">
<g transform="translate(1131.1 873.52) rotate(70.893) scale(.08 -.08)">
<use xlink:href="#q"/>
</g>
</g>
<path d="m1104.7 883.73 4.3359-12.517q0.7856-2.2678-1.4822-3.0534l-7.5593-2.6187q-2.2678-0.7856-3.0534 1.4822l-4.3359 12.517q-0.7856 2.2678 1.4822 3.0534l7.5593 2.6187q2.2678 0.7856 3.0534-1.4822z" clip-path="url(#a)" fill="#fff" stroke="#fff"/>
<g clip-path="url(#a)">
<defs>
<path id="az" d="m21 76.422v-100h-8.2969v100z"/>
<path id="am" d="m53.516 70.516v-9.625q-5.6094 2.6875-10.594 4-4.9844 1.3281-9.625 1.3281-8.0469 0-12.422-3.125t-4.375-8.8906q0-4.8438 2.9062-7.3125 2.9062-2.4531 11.016-3.9688l5.9531-1.2188q11.031-2.1094 16.281-7.4062t5.25-14.172q0-10.609-7.1094-16.078-7.0938-5.4688-20.812-5.4688-5.1719 0-11.016 1.1719-5.8281 1.1719-12.078 3.4688v10.156q6-3.3594 11.766-5.0781 5.7656-1.7031 11.328-1.7031 8.4375 0 13.031 3.3125 4.5938 3.3281 4.5938 9.4844 0 5.3594-3.2969 8.3906t-10.812 4.5469l-6.0156 1.1719q-11.031 2.1875-15.969 6.875-4.9219 4.6875-4.9219 13.047 0 9.6719 6.8125 15.234t18.766 5.5625q5.1406 0 10.453-0.9375 5.3281-0.92188 10.891-2.7656z"/>
</defs>
<g transform="translate(1100.7 882.33) rotate(-70.893) scale(.08 -.08)">
<use xlink:href="#q"/>
<use x="68.408203" xlink:href="#az"/>
<use x="102.099609" xlink:href="#am"/>
</g>
</g>
<path d="m1144.5 953.9v33.808q0 2.4 2.4 2.4h7.7425q2.4 0 2.4-2.4v-33.808q0-2.4-2.4-2.4h-7.7425q-2.4 0-2.4 2.4z" clip-path="url(#a)" fill="#fff" stroke="#fff"/>
<g clip-path="url(#a)">
<g transform="translate(1148.6 953.9) rotate(90) scale(.08 -.08)">
<use xlink:href="#l"/>
<use x="44.083984" xlink:href="#d"/>
<use x="105.607422" xlink:href="#f"/>
<use x="144.970703" xlink:href="#k"/>
<use x="242.382812" xlink:href="#h"/>
<use x="270.166016" xlink:href="#e"/>
<use x="333.544922" xlink:href="#i"/>
<use x="394.824219" xlink:href="#j"/>
</g>
</g>
<path d="m1077.9 953.9v33.808q0 2.4 2.4 2.4h7.7425q2.4 0 2.4-2.4v-33.808q0-2.4-2.4-2.4h-7.7425q-2.4 0-2.4 2.4z" clip-path="url(#a)" fill="#fff" stroke="#fff"/>
<g clip-path="url(#a)">
<g transform="translate(1082 953.9) rotate(90) scale(.08 -.08)">
<use xlink:href="#l"/>
<use x="44.083984" xlink:href="#d"/>
<use x="105.607422" xlink:href="#f"/>
<use x="144.970703" xlink:href="#k"/>
<use x="242.382812" xlink:href="#h"/>
<use x="270.166016" xlink:href="#e"/>
<use x="333.544922" xlink:href="#i"/>
<use x="394.824219" xlink:href="#j"/>
</g>
</g>
<path d="m100.88 953.9v33.808q0 2.4 2.4 2.4h7.7425q2.4 0 2.4-2.4v-33.808q0-2.4-2.4-2.4h-7.7425q-2.4 0-2.4 2.4z" clip-path="url(#a)" fill="#fff" stroke="#fff"/>
<g clip-path="url(#a)">
<g transform="translate(104.95 953.9) rotate(90) scale(.08 -.08)">
<use xlink:href="#l"/>
<use x="44.083984" xlink:href="#d"/>
<use x="105.607422" xlink:href="#f"/>
<use x="144.970703" xlink:href="#k"/>
<use x="242.382812" xlink:href="#h"/>
<use x="270.166016" xlink:href="#e"/>
<use x="333.544922" xlink:href="#i"/>
<use x="394.824219" xlink:href="#j"/>
</g>
</g>
<path d="m111.62 953.9v33.808q0 2.4 2.4 2.4h7.7425q2.4 0 2.4-2.4v-33.808q0-2.4-2.4-2.4h-7.7425q-2.4 0-2.4 2.4z" clip-path="url(#a)" fill="#fff" stroke="#fff"/>
<g clip-path="url(#a)">
<g transform="translate(115.68 953.9) rotate(90) scale(.08 -.08)">
<use xlink:href="#l"/>
<use x="44.083984" xlink:href="#d"/>
<use x="105.607422" xlink:href="#f"/>
<use x="144.970703" xlink:href="#k"/>
<use x="242.382812" xlink:href="#h"/>
<use x="270.166016" xlink:href="#e"/>
<use x="333.544922" xlink:href="#i"/>
<use x="394.824219" xlink:href="#j"/>
</g>
</g>
<path d="m124.5 953.9v33.808q0 2.4 2.4 2.4h7.7425q2.4 0 2.4-2.4v-33.808q0-2.4-2.4-2.4h-7.7425q-2.4 0-2.4 2.4z" clip-path="url(#a)" fill="#fff" stroke="#fff"/>
<g clip-path="url(#a)">
<g transform="translate(128.57 953.9) rotate(90) scale(.08 -.08)">
<use xlink:href="#l"/>
<use x="44.083984" xlink:href="#d"/>
<use x="105.607422" xlink:href="#f"/>
<use x="144.970703" xlink:href="#k"/>
<use x="242.382812" xlink:href="#h"/>
<use x="270.166016" xlink:href="#e"/>
<use x="333.544922" xlink:href="#i"/>
<use x="394.824219" xlink:href="#j"/>
</g>
</g>
<path d="m139.53 953.9v33.808q0 2.4 2.4 2.4h7.7425q2.4 0 2.4-2.4v-33.808q0-2.4-2.4-2.4h-7.7425q-2.4 0-2.4 2.4z" clip-path="url(#a)" fill="#fff" stroke="#fff"/>
<g clip-path="url(#a)">
<g transform="translate(143.6 953.9) rotate(90) scale(.08 -.08)">
<use xlink:href="#l"/>
<use x="44.083984" xlink:href="#d"/>
<use x="105.607422" xlink:href="#f"/>
<use x="144.970703" xlink:href="#k"/>
<use x="242.382812" xlink:href="#h"/>
<use x="270.166016" xlink:href="#e"/>
<use x="333.544922" xlink:href="#i"/>
<use x="394.824219" xlink:href="#j"/>
</g>
</g>
<path d="m197.51 953.9v33.808q0 2.4 2.4 2.4h7.7425q2.4 0 2.4-2.4v-33.808q0-2.4-2.4-2.4h-7.7425q-2.4 0-2.4 2.4z" clip-path="url(#a)" fill="#fff" stroke="#fff"/>
<g clip-path="url(#a)">
<g transform="translate(201.58 953.9) rotate(90) scale(.08 -.08)">
<use xlink:href="#l"/>
<use x="44.083984" xlink:href="#d"/>
<use x="105.607422" xlink:href="#f"/>
<use x="144.970703" xlink:href="#k"/>
<use x="242.382812" xlink:href="#h"/>
<use x="270.166016" xlink:href="#e"/>
<use x="333.544922" xlink:href="#i"/>
<use x="394.824219" xlink:href="#j"/>
</g>
</g>
<path d="m407.95 953.9v33.808q0 2.4 2.4 2.4h7.7425q2.4 0 2.4-2.4v-33.808q0-2.4-2.4-2.4h-7.7425q-2.4 0-2.4 2.4z" clip-path="url(#a)" fill="#fff" stroke="#fff"/>
<g clip-path="url(#a)">
<g transform="translate(412.02 953.9) rotate(90) scale(.08 -.08)">
<use xlink:href="#l"/>
<use x="44.083984" xlink:href="#d"/>
<use x="105.607422" xlink:href="#f"/>
<use x="144.970703" xlink:href="#k"/>
<use x="242.382812" xlink:href="#h"/>
<use x="270.166016" xlink:href="#e"/>
<use x="333.544922" xlink:href="#i"/>
<use x="394.824219" xlink:href="#j"/>
</g>
</g>
<path d="m487.4 953.9v33.808q0 2.4 2.4 2.4h7.7425q2.4 0 2.4-2.4v-33.808q0-2.4-2.4-2.4h-7.7425q-2.4 0-2.4 2.4z" clip-path="url(#a)" fill="#fff" stroke="#fff"/>
<g clip-path="url(#a)">
<g transform="translate(491.47 953.9) rotate(90) scale(.08 -.08)">
<use xlink:href="#l"/>
<use x="44.083984" xlink:href="#d"/>
<use x="105.607422" xlink:href="#f"/>
<use x="144.970703" xlink:href="#k"/>
<use x="242.382812" xlink:href="#h"/>
<use x="270.166016" xlink:href="#e"/>
<use x="333.544922" xlink:href="#i"/>
<use x="394.824219" xlink:href="#j"/>
</g>
</g>
<path d="m530.35 953.9v33.808q0 2.4 2.4 2.4h7.7425q2.4 0 2.4-2.4v-33.808q0-2.4-2.4-2.4h-7.7425q-2.4 0-2.4 2.4z" clip-path="url(#a)" fill="#fff" stroke="#fff"/>
<g clip-path="url(#a)">
<g transform="translate(534.41 953.9) rotate(90) scale(.08 -.08)">
<use xlink:href="#l"/>
<use x="44.083984" xlink:href="#d"/>
<use x="105.607422" xlink:href="#f"/>
<use x="144.970703" xlink:href="#k"/>
<use x="242.382812" xlink:href="#h"/>
<use x="270.166016" xlink:href="#e"/>
<use x="333.544922" xlink:href="#i"/>
<use x="394.824219" xlink:href="#j"/>
</g>
</g>
<path d="m723.61 953.9v33.808q0 2.4 2.4 2.4h7.7425q2.4 0 2.4-2.4v-33.808q0-2.4-2.4-2.4h-7.7425q-2.4 0-2.4 2.4z" clip-path="url(#a)" fill="#fff" stroke="#fff"/>
<g clip-path="url(#a)">
<g transform="translate(727.68 953.9) rotate(90) scale(.08 -.08)">
<use xlink:href="#l"/>
<use x="44.083984" xlink:href="#d"/>
<use x="105.607422" xlink:href="#f"/>
<use x="144.970703" xlink:href="#k"/>
<use x="242.382812" xlink:href="#h"/>
<use x="270.166016" xlink:href="#e"/>
<use x="333.544922" xlink:href="#i"/>
<use x="394.824219" xlink:href="#j"/>
</g>
</g>
<path d="m891.11 953.9v33.808q0 2.4 2.4 2.4h7.7425q2.4 0 2.4-2.4v-33.808q0-2.4-2.4-2.4h-7.7425q-2.4 0-2.4 2.4z" clip-path="url(#a)" fill="#fff" stroke="#fff"/>
<g clip-path="url(#a)">
<g transform="translate(895.17 953.9) rotate(90) scale(.08 -.08)">
<use xlink:href="#l"/>
<use x="44.083984" xlink:href="#d"/>
<use x="105.607422" xlink:href="#f"/>
<use x="144.970703" xlink:href="#k"/>
<use x="242.382812" xlink:href="#h"/>
<use x="270.166016" xlink:href="#e"/>
<use x="333.544922" xlink:href="#i"/>
<use x="394.824219" xlink:href="#j"/>
</g>
</g>
<path d="m1432.2 953.9v33.808q0 2.4 2.4 2.4h7.7425q2.4 0 2.4-2.4v-33.808q0-2.4-2.4-2.4h-7.7425q-2.4 0-2.4 2.4z" clip-path="url(#a)" fill="#fff" stroke="#fff"/>
<g clip-path="url(#a)">
<g transform="translate(1436.3 953.9) rotate(90) scale(.08 -.08)">
<use xlink:href="#l"/>
<use x="44.083984" xlink:href="#d"/>
<use x="105.607422" xlink:href="#f"/>
<use x="144.970703" xlink:href="#k"/>
<use x="242.382812" xlink:href="#h"/>
<use x="270.166016" xlink:href="#e"/>
<use x="333.544922" xlink:href="#i"/>
<use x="394.824219" xlink:href="#j"/>
</g>
</g>
<path d="m1754.3 953.9v33.808q0 2.4 2.4 2.4h7.7425q2.4 0 2.4-2.4v-33.808q0-2.4-2.4-2.4h-7.7425q-2.4 0-2.4 2.4z" clip-path="url(#a)" fill="#fff" stroke="#fff"/>
<g clip-path="url(#a)">
<g transform="translate(1758.4 953.9) rotate(90) scale(.08 -.08)">
<use xlink:href="#l"/>
<use x="44.083984" xlink:href="#d"/>
<use x="105.607422" xlink:href="#f"/>
<use x="144.970703" xlink:href="#k"/>
<use x="242.382812" xlink:href="#h"/>
<use x="270.166016" xlink:href="#e"/>
<use x="333.544922" xlink:href="#i"/>
<use x="394.824219" xlink:href="#j"/>
</g>
</g>
<path d="m1840.2 953.9v33.808q0 2.4 2.4 2.4h7.7425q2.4 0 2.4-2.4v-33.808q0-2.4-2.4-2.4h-7.7425q-2.4 0-2.4 2.4z" clip-path="url(#a)" fill="#fff" stroke="#fff"/>
<g clip-path="url(#a)">
<g transform="translate(1844.3 953.9) rotate(90) scale(.08 -.08)">
<use xlink:href="#l"/>
<use x="44.083984" xlink:href="#d"/>
<use x="105.607422" xlink:href="#f"/>
<use x="144.970703" xlink:href="#k"/>
<use x="242.382812" xlink:href="#h"/>
<use x="270.166016" xlink:href="#e"/>
<use x="333.544922" xlink:href="#i"/>
<use x="394.824219" xlink:href="#j"/>
</g>
</g>
<path d="m1928.3 953.9v33.808q0 2.4 2.4 2.4h7.7425q2.4 0 2.4-2.4v-33.808q0-2.4-2.4-2.4h-7.7425q-2.4 0-2.4 2.4z" clip-path="url(#a)" fill="#fff" stroke="#fff"/>
<g clip-path="url(#a)">
<g transform="translate(1932.3 953.9) rotate(90) scale(.08 -.08)">
<use xlink:href="#l"/>
<use x="44.083984" xlink:href="#d"/>
<use x="105.607422" xlink:href="#f"/>
<use x="144.970703" xlink:href="#k"/>
<use x="242.382812" xlink:href="#h"/>
<use x="270.166016" xlink:href="#e"/>
<use x="333.544922" xlink:href="#i"/>
<use x="394.824219" xlink:href="#j"/>
</g>
</g>
<defs>
<path id="b" d="m0 8.6603c2.2967 0 4.4997-0.9125 6.1237-2.5365 1.624-1.624 2.5365-3.827 2.5365-6.1237s-0.9125-4.4997-2.5365-6.1237c-1.624-1.624-3.827-2.5365-6.1237-2.5365s-4.4997 0.9125-6.1237 2.5365c-1.624 1.624-2.5365 3.827-2.5365 6.1237s0.9125 4.4997 2.5365 6.1237c1.624 1.624 3.827 2.5365 6.1237 2.5365z"/>
</defs>
<g clip-path="url(#a)">
<use x="92.121212" y="1018.181818" fill="#ffffff" stroke="#ffffff" xlink:href="#b"/>
</g>
<g clip-path="url(#a)">
<use x="98.563255" y="1018.181818" fill="#ffffff" stroke="#ffffff" xlink:href="#b"/>
</g>
<g clip-path="url(#a)">
<use x="107.152645" y="1018.181818" fill="#ffffff" stroke="#ffffff" xlink:href="#b"/>
</g>
<g clip-path="url(#a)">
<use x="117.889383" y="1018.181818" fill="#ffffff" stroke="#ffffff" xlink:href="#b"/>
</g>
<g clip-path="url(#a)">
<use x="130.773469" y="1018.181818" fill="#ffffff" stroke="#ffffff" xlink:href="#b"/>
</g>
<g clip-path="url(#a)">
<use x="145.804902" y="1018.181818" fill="#ffffff" stroke="#ffffff" xlink:href="#b"/>
</g>
<g clip-path="url(#a)">
<use x="162.983683" y="1018.181818" fill="#ffffff" stroke="#ffffff" xlink:href="#b"/>
</g>
<g clip-path="url(#a)">
<use x="182.309811" y="1018.181818" fill="#ffffff" stroke="#ffffff" xlink:href="#b"/>
</g>
<g clip-path="url(#a)">
<use x="203.783287" y="1018.181818" fill="#ffffff" stroke="#ffffff" xlink:href="#b"/>
</g>
<g clip-path="url(#a)">
<use x="227.404111" y="1018.181818" fill="#ffffff" stroke="#ffffff" xlink:href="#b"/>
</g>
<g clip-path="url(#a)">
<use x="253.172282" y="1018.181818" fill="#ffffff" stroke="#ffffff" xlink:href="#b"/>
</g>
<g clip-path="url(#a)">
<use x="281.087801" y="1018.181818" fill="#ffffff" stroke="#ffffff" xlink:href="#b"/>
</g>
<g clip-path="url(#a)">
<use x="311.150668" y="1018.181818" fill="#ffffff" stroke="#ffffff" xlink:href="#b"/>
</g>
<g clip-path="url(#a)">
<use x="343.360882" y="1018.181818" fill="#ffffff" stroke="#ffffff" xlink:href="#b"/>
</g>
<g clip-path="url(#a)">
<use x="377.718443" y="1018.181818" fill="#ffffff" stroke="#ffffff" xlink:href="#b"/>
</g>
<g clip-path="url(#a)">
<use x="414.223352" y="1018.181818" fill="#ffffff" stroke="#ffffff" xlink:href="#b"/>
</g>
<g clip-path="url(#a)">
<use x="452.875609" y="1018.181818" fill="#ffffff" stroke="#ffffff" xlink:href="#b"/>
</g>
<g clip-path="url(#a)">
<use x="493.675214" y="1018.181818" fill="#ffffff" stroke="#ffffff" xlink:href="#b"/>
</g>
<g clip-path="url(#a)">
<use x="536.622166" y="1018.181818" fill="#ffffff" stroke="#ffffff" xlink:href="#b"/>
</g>
<g clip-path="url(#a)">
<use x="581.716465" y="1018.181818" fill="#ffffff" stroke="#ffffff" xlink:href="#b"/>
</g>
<g clip-path="url(#a)">
<use x="628.958113" y="1018.181818" fill="#ffffff" stroke="#ffffff" xlink:href="#b"/>
</g>
<g clip-path="url(#a)">
<use x="678.347107" y="1018.181818" fill="#ffffff" stroke="#ffffff" xlink:href="#b"/>
</g>
<g clip-path="url(#a)">
<use x="729.88345" y="1018.181818" fill="#ffffff" stroke="#ffffff" xlink:href="#b"/>
</g>
<g clip-path="url(#a)">
<use x="783.56714" y="1018.181818" fill="#ffffff" stroke="#ffffff" xlink:href="#b"/>
</g>
<g clip-path="url(#a)">
<use x="839.398178" y="1018.181818" fill="#ffffff" stroke="#ffffff" xlink:href="#b"/>
</g>
<g clip-path="url(#a)">
<use x="897.376563" y="1018.181818" fill="#ffffff" stroke="#ffffff" xlink:href="#b"/>
</g>
<g clip-path="url(#a)">
<use x="957.502296" y="1018.181818" fill="#ffffff" stroke="#ffffff" xlink:href="#b"/>
</g>
<g clip-path="url(#a)">
<use x="1019.775376" y="1018.181818" fill="#ffffff" stroke="#ffffff" xlink:href="#b"/>
</g>
<g clip-path="url(#a)">
<use x="1084.195804" y="1018.181818" fill="#ffffff" stroke="#ffffff" xlink:href="#b"/>
</g>
<g clip-path="url(#a)">
<use x="1150.76358" y="1018.181818" fill="#ffffff" stroke="#ffffff" xlink:href="#b"/>
</g>
<g clip-path="url(#a)">
<use x="1219.478703" y="1018.181818" fill="#ffffff" stroke="#ffffff" xlink:href="#b"/>
</g>
<g clip-path="url(#a)">
<use x="1290.341174" y="1018.181818" fill="#ffffff" stroke="#ffffff" xlink:href="#b"/>
</g>
<g clip-path="url(#a)">
<use x="1363.350992" y="1018.181818" fill="#ffffff" stroke="#ffffff" xlink:href="#b"/>
</g>
<g clip-path="url(#a)">
<use x="1438.508159" y="1018.181818" fill="#ffffff" stroke="#ffffff" xlink:href="#b"/>
</g>
<g clip-path="url(#a)">
<use x="1515.812672" y="1018.181818" fill="#ffffff" stroke="#ffffff" xlink:href="#b"/>
</g>
<g clip-path="url(#a)">
<use x="1595.264533" y="1018.181818" fill="#ffffff" stroke="#ffffff" xlink:href="#b"/>
</g>
<g clip-path="url(#a)">
<use x="1676.863742" y="1018.181818" fill="#ffffff" stroke="#ffffff" xlink:href="#b"/>
</g>
<g clip-path="url(#a)">
<use x="1760.610299" y="1018.181818" fill="#ffffff" stroke="#ffffff" xlink:href="#b"/>
</g>
<g clip-path="url(#a)">
<use x="1846.504203" y="1018.181818" fill="#ffffff" stroke="#ffffff" xlink:href="#b"/>
</g>
<g clip-path="url(#a)">
<use x="1934.545455" y="1018.181818" fill="#ffffff" stroke="#ffffff" xlink:href="#b"/>
</g>
<g clip-path="url(#a)">
<use x="292.480578" y="48.484848" fill="#ffffff" stroke="#ffffff" xlink:href="#b"/>
</g>
<g clip-path="url(#a)">
<use x="299.399431" y="146.373571" fill="#ffffff" stroke="#ffffff" xlink:href="#b"/>
</g>
<g clip-path="url(#a)">
<use x="227.404111" y="923.419421" fill="#ffffff" stroke="#ffffff" xlink:href="#b"/>
</g>
<g clip-path="url(#a)">
<use x="317.59271" y="730.754194" fill="#ffffff" stroke="#ffffff" xlink:href="#b"/>
</g>
<g clip-path="url(#a)">
<use x="253.172282" y="923.419421" fill="#ffffff" stroke="#ffffff" xlink:href="#b"/>
</g>
<g clip-path="url(#a)">
<use x="296.119234" y="827.338775" fill="#ffffff" stroke="#ffffff" xlink:href="#b"/>
</g>
<g clip-path="url(#a)">
<use x="343.360882" y="923.419421" fill="#ffffff" stroke="#ffffff" xlink:href="#b"/>
</g>
<g clip-path="url(#a)">
<use x="377.718443" y="923.419421" fill="#ffffff" stroke="#ffffff" xlink:href="#b"/>
</g>
<g clip-path="url(#a)">
<use x="281.087801" y="923.419421" fill="#ffffff" stroke="#ffffff" xlink:href="#b"/>
</g>
<g clip-path="url(#a)">
<use x="311.150668" y="923.419421" fill="#ffffff" stroke="#ffffff" xlink:href="#b"/>
</g>
<g clip-path="url(#a)">
<use x="298.680808" y="244.153365" fill="#ffffff" stroke="#ffffff" xlink:href="#b"/>
</g>
<g clip-path="url(#a)">
<use x="307.929646" y="923.419421" fill="#ffffff" stroke="#ffffff" xlink:href="#b"/>
</g>
<g clip-path="url(#a)">
<use x="182.309811" y="923.419421" fill="#ffffff" stroke="#ffffff" xlink:href="#b"/>
</g>
<g clip-path="url(#a)">
<use x="92.121212" y="923.419421" fill="#ffffff" stroke="#ffffff" xlink:href="#b"/>
</g>
<g clip-path="url(#a)">
<use x="705.357957" y="341.810693" fill="#ffffff" stroke="#ffffff" xlink:href="#b"/>
</g>
<g clip-path="url(#a)">
<use x="112.521014" y="827.338775" fill="#ffffff" stroke="#ffffff" xlink:href="#b"/>
</g>
<g clip-path="url(#a)">
<use x="581.716465" y="923.419421" fill="#ffffff" stroke="#ffffff" xlink:href="#b"/>
</g>
<g clip-path="url(#a)">
<use x="628.958113" y="923.419421" fill="#ffffff" stroke="#ffffff" xlink:href="#b"/>
</g>
<g clip-path="url(#a)">
<use x="678.347107" y="923.419421" fill="#ffffff" stroke="#ffffff" xlink:href="#b"/>
</g>
<g clip-path="url(#a)">
<use x="1500.72159" y="439.328135" fill="#ffffff" stroke="#ffffff" xlink:href="#b"/>
</g>
<g clip-path="url(#a)">
<use x="783.56714" y="923.419421" fill="#ffffff" stroke="#ffffff" xlink:href="#b"/>
</g>
<g clip-path="url(#a)">
<use x="954.818111" y="536.682426" fill="#ffffff" stroke="#ffffff" xlink:href="#b"/>
</g>
<g clip-path="url(#a)">
<use x="1515.812672" y="923.419421" fill="#ffffff" stroke="#ffffff" xlink:href="#b"/>
</g>
<g clip-path="url(#a)">
<use x="1595.264533" y="923.419421" fill="#ffffff" stroke="#ffffff" xlink:href="#b"/>
</g>
<g clip-path="url(#a)">
<use x="1676.863742" y="923.419421" fill="#ffffff" stroke="#ffffff" xlink:href="#b"/>
</g>
<g clip-path="url(#a)">
<use x="839.398178" y="923.419421" fill="#ffffff" stroke="#ffffff" xlink:href="#b"/>
</g>
<g clip-path="url(#a)">
<use x="1127.679593" y="633.840894" fill="#ffffff" stroke="#ffffff" xlink:href="#b"/>
</g>
<g clip-path="url(#a)">
<use x="98.563255" y="923.419421" fill="#ffffff" stroke="#ffffff" xlink:href="#b"/>
</g>
<g clip-path="url(#a)">
<use x="957.502296" y="923.419421" fill="#ffffff" stroke="#ffffff" xlink:href="#b"/>
</g>
<g clip-path="url(#a)">
<use x="1096.006216" y="730.754194" fill="#ffffff" stroke="#ffffff" xlink:href="#b"/>
</g>
<g clip-path="url(#a)">
<use x="1219.478703" y="923.419421" fill="#ffffff" stroke="#ffffff" xlink:href="#b"/>
</g>
<g clip-path="url(#a)">
<use x="1290.341174" y="923.419421" fill="#ffffff" stroke="#ffffff" xlink:href="#b"/>
</g>
<g clip-path="url(#a)">
<use x="1363.350992" y="923.419421" fill="#ffffff" stroke="#ffffff" xlink:href="#b"/>
</g>
<g clip-path="url(#a)">
<use x="1019.775376" y="923.419421" fill="#ffffff" stroke="#ffffff" xlink:href="#b"/>
</g>
<g clip-path="url(#a)">
<use x="1117.479692" y="827.338775" fill="#ffffff" stroke="#ffffff" xlink:href="#b"/>
</g>
<g clip-path="url(#a)">
<use x="1150.76358" y="923.419421" fill="#ffffff" stroke="#ffffff" xlink:href="#b"/>
</g>
<g clip-path="url(#a)">
<use x="1084.195804" y="923.419421" fill="#ffffff" stroke="#ffffff" xlink:href="#b"/>
</g>
<g clip-path="url(#a)">
<use x="107.152645" y="923.419421" fill="#ffffff" stroke="#ffffff" xlink:href="#b"/>
</g>
<g clip-path="url(#a)">
<use x="117.889383" y="923.419421" fill="#ffffff" stroke="#ffffff" xlink:href="#b"/>
</g>
<g clip-path="url(#a)">
<use x="130.773469" y="923.419421" fill="#ffffff" stroke="#ffffff" xlink:href="#b"/>
</g>
<g clip-path="url(#a)">
<use x="145.804902" y="923.419421" fill="#ffffff" stroke="#ffffff" xlink:href="#b"/>
</g>
<g clip-path="url(#a)">
<use x="203.783287" y="923.419421" fill="#ffffff" stroke="#ffffff" xlink:href="#b"/>
</g>
<g clip-path="url(#a)">
<use x="414.223352" y="923.419421" fill="#ffffff" stroke="#ffffff" xlink:href="#b"/>
</g>
<g clip-path="url(#a)">
<use x="493.675214" y="923.419421" fill="#ffffff" stroke="#ffffff" xlink:href="#b"/>
</g>
<g clip-path="url(#a)">
<use x="536.622166" y="923.419421" fill="#ffffff" stroke="#ffffff" xlink:href="#b"/>
</g>
<g clip-path="url(#a)">
<use x="729.88345" y="923.419421" fill="#ffffff" stroke="#ffffff" xlink:href="#b"/>
</g>
<g clip-path="url(#a)">
<use x="897.376563" y="923.419421" fill="#ffffff" stroke="#ffffff" xlink:href="#b"/>
</g>
<g clip-path="url(#a)">
<use x="1438.508159" y="923.419421" fill="#ffffff" stroke="#ffffff" xlink:href="#b"/>
</g>
<g clip-path="url(#a)">
<use x="1760.610299" y="923.419421" fill="#ffffff" stroke="#ffffff" xlink:href="#b"/>
</g>
<g clip-path="url(#a)">
<use x="1846.504203" y="923.419421" fill="#ffffff" stroke="#ffffff" xlink:href="#b"/>
</g>
<g clip-path="url(#a)">
<use x="1934.545455" y="923.419421" fill="#ffffff" stroke="#ffffff" xlink:href="#b"/>
</g>
<g clip-path="url(#a)">
<defs>
<path id="aj" d="m44.281 53.078v-8.5q-3.7969 1.9531-7.9062 2.9219-4.0938 0.98438-8.5 0.98438-6.6875 0-10.031-2.0469t-3.3438-6.1562q0-3.125 2.3906-4.9062t9.625-3.3906l3.0781-0.6875q9.5625-2.0469 13.594-5.7812t4.0312-10.422q0-7.625-6.0312-12.078-6.0312-4.4375-16.578-4.4375-4.3906 0-9.1562 0.85938t-10.031 2.5625v9.2812q4.9844-2.5938 9.8125-3.8906 4.8281-1.2812 9.5781-1.2812 6.3438 0 9.75 2.1719 3.4219 2.1719 3.4219 6.125 0 3.6562-2.4688 5.6094-2.4531 1.9531-10.812 3.7656l-3.125 0.73438q-8.3438 1.75-12.062 5.3906-3.7031 3.6406-3.7031 9.9844 0 7.7188 5.4688 11.906 5.4688 4.2031 15.531 4.2031 4.9688 0 9.3594-0.73438 4.4062-0.71875 8.1094-2.1875z"/>
<path id="ak" d="m30.609 48.391q-7.2188 0-11.422-5.6406t-4.2031-15.453 4.1719-15.453q4.1875-5.6406 11.453-5.6406 7.1875 0 11.375 5.6562 4.2031 5.6719 4.2031 15.438 0 9.7188-4.2031 15.406-4.1875 5.6875-11.375 5.6875zm0 7.6094q11.719 0 18.406-7.625 6.7031-7.6094 6.7031-21.078 0-13.422-6.7031-21.078-6.6875-7.6406-18.406-7.6406-11.766 0-18.438 7.6406-6.6562 7.6562-6.6562 21.078 0 13.469 6.6562 21.078 6.6719 7.625 18.438 7.625z"/>
</defs>
<g transform="translate(81.648 1020.9) scale(.1 -.1)">
<use xlink:href="#q"/>
<use x="68.408203" xlink:href="#j"/>
<use x="96.191406" xlink:href="#aj"/>
<use x="148.291016" xlink:href="#ak"/>
</g>
</g>
<g clip-path="url(#a)">
<defs>
<path id="u" d="m11.719 12.406h10.297v-8.4062l-8-15.625h-6.2969l4 15.625z"/>
</defs>
<g transform="translate(96.974 1020.9) scale(.1 -.1)">
<use xlink:href="#u"/>
</g>
</g>
<g clip-path="url(#a)">
<g transform="translate(96.292 1020.9) scale(.1 -.1)">
<use xlink:href="#aa"/>
<use x="75.195312" xlink:href="#d"/>
<use x="136.71875" xlink:href="#f"/>
<use x="176.082031" xlink:href="#f"/>
</g>
</g>
<g clip-path="url(#a)">
<defs>
<path id="bb" d="m54.891 54.688-19.781-26.609 20.797-28.078h-10.594l-15.922 21.484-15.906-21.484h-10.609l21.25 28.609-19.438 26.078h10.594l14.5-19.484 14.5 19.484z"/>
</defs>
<g transform="translate(98.307 1020.9) scale(.1 -.1)">
<use xlink:href="#q"/>
<use x="68.408203" xlink:href="#f"/>
<use x="107.771484" xlink:href="#f"/>
<use x="146.634766" xlink:href="#ak"/>
<use x="207.816406" xlink:href="#e"/>
<use x="271.195312" xlink:href="#i"/>
<use x="332.474609" xlink:href="#bb"/>
</g>
</g>
<g clip-path="url(#a)">
<defs>
<path id="ap" d="m51.812 51.703v-9.3125l-14.703-13.094 14.703-13.078v-9.3281l-22.906 20.406v4zm-21.203 0v-9.3125l-14.688-13.094 14.688-13.078v-9.3281l-22.891 20.406v4z"/>
</defs>
<g transform="translate(127.71 1020.9) scale(.1 -.1)">
<use xlink:href="#ap"/>
</g>
</g>
<g clip-path="url(#a)">
<g transform="translate(144.22 1020.9) scale(.1 -.1)">
<use xlink:href="#u"/>
</g>
</g>
<g clip-path="url(#a)">
<defs>
<path id="ar" d="m37.109 75.984v-7.4844h-8.5938q-4.8281 0-6.7188-1.9531-1.875-1.9531-1.875-7.0312v-4.8281h14.797v-6.9844h-14.797v-47.703h-9.0312v47.703h-8.5938v6.9844h8.5938v3.8125q0 9.125 4.25 13.297 4.25 4.1875 13.469 4.1875z"/>
<path id="z" d="m8.5 21.578v33.109h8.9844v-32.766q0-7.7656 3.0156-11.656 3.0312-3.875 9.0938-3.875 7.2656 0 11.484 4.6406 4.2344 4.6406 4.2344 12.656v31h8.9844v-54.688h-8.9844v8.4062q-3.2656-4.9844-7.5938-7.4062-4.3125-2.4219-10.031-2.4219-9.4219 0-14.312 5.8594-4.875 5.8594-4.875 17.141z"/>
<path id="v" d="m54.891 33.016v-33.016h-8.9844v32.719q0 7.7656-3.0312 11.609-3.0312 3.8594-9.0781 3.8594-7.2812 0-11.484-4.6406-4.2031-4.625-4.2031-12.641v-30.906h-9.0312v75.984h9.0312v-29.797q3.2344 4.9375 7.5938 7.375 4.375 2.4375 10.094 2.4375 9.4219 0 14.25-5.8281 4.8438-5.8281 4.8438-17.156z"/>
</defs>
<g transform="translate(152.83 1020.9) scale(.1 -.1)">
<use xlink:href="#ar"/>
<use x="35.205078" xlink:href="#z"/>
<use x="98.583984" xlink:href="#v"/>
<use x="161.962891" xlink:href="#f"/>
</g>
</g>
<g clip-path="url(#a)">
<g transform="translate(177.18 1020.9) scale(.1 -.1)">
<use xlink:href="#d"/>
<use x="61.523438" xlink:href="#f"/>
</g>
</g>
<g clip-path="url(#a)">
<g transform="translate(202.19 1020.9) scale(.1 -.1)">
<use xlink:href="#u"/>
</g>
</g>
<g clip-path="url(#a)">
<defs>
<path id="af" d="m48.781 52.594v-8.4062q-3.8125 2.1094-7.6406 3.1562t-7.7344 1.0469q-8.75 0-13.594-5.5469-4.8281-5.5312-4.8281-15.547t4.8281-15.562q4.8438-5.5312 13.594-5.5312 3.9062 0 7.7344 1.0469t7.6406 3.1562v-8.3125q-3.7656-1.75-7.7969-2.625-4.0156-0.89062-8.5625-0.89062-12.359 0-19.641 7.7656-7.2656 7.7656-7.2656 20.953 0 13.375 7.3438 21.031 7.3594 7.6719 20.156 7.6719 4.1406 0 8.0938-0.85938 3.9531-0.84375 7.6719-2.5469z"/>
<path id="as" d="m45.406 46.391v29.594h8.9844v-75.984h-8.9844v8.2031q-2.8281-4.875-7.1562-7.25-4.3125-2.375-10.375-2.375-9.9062 0-16.141 7.9062-6.2188 7.9219-6.2188 20.812t6.2188 20.797q6.2344 7.9062 16.141 7.9062 6.0625 0 10.375-2.375 4.3281-2.3594 7.1562-7.2344zm-30.609-19.094q0-9.9062 4.0781-15.547t11.203-5.6406 11.219 5.6406q4.1094 5.6406 4.1094 15.547t-4.1094 15.547q-4.0938 5.6406-11.219 5.6406t-11.203-5.6406-4.0781-15.547z"/>
</defs>
<g transform="translate(204.13 1020.9) scale(.1 -.1)">
<use xlink:href="#e"/>
<use x="63.378906" xlink:href="#i"/>
<use x="124.658203" xlink:href="#af"/>
<use x="179.638672" xlink:href="#v"/>
<use x="243.017578" xlink:href="#as"/>
<use x="306.494141" xlink:href="#d"/>
<use x="368.017578" xlink:href="#k"/>
</g>
</g>
<g clip-path="url(#a)">
<g transform="translate(248.04 1020.9) scale(.1 -.1)">
<use xlink:href="#d"/>
<use x="61.523438" xlink:href="#f"/>
</g>
</g>
<g clip-path="url(#a)">
<g transform="translate(270.38 1020.9) scale(.1 -.1)">
<use xlink:href="#d"/>
<use x="61.523438" xlink:href="#h"/>
<use x="89.306641" xlink:href="#e"/>
<use x="152.685547" xlink:href="#d"/>
</g>
</g>
<g clip-path="url(#a)">
<defs>
<path id="at" d="m3.3281 72.906h9.9531l15.328-61.625 15.281 61.625h11.094l15.328-61.625 15.281 61.625h10.016l-18.312-72.906h-12.406l-15.375 63.281-15.531-63.281h-12.406z"/>
</defs>
<g transform="translate(297.57 1020.9) scale(.1 -.1)">
<use xlink:href="#at"/>
<use x="93.001953" xlink:href="#d"/>
<use x="154.525391" xlink:href="#h"/>
<use x="182.308594" xlink:href="#j"/>
<use x="210.091797" xlink:href="#d"/>
</g>
</g>
<g clip-path="url(#a)">
<defs>
<path id="ax" d="m8.5 21.578v33.109h8.9844v-32.766q0-7.7656 3.0156-11.656 3.0312-3.875 9.0938-3.875 7.2656 0 11.484 4.6406 4.2344 4.6406 4.2344 12.656v31h8.9844v-54.688h-8.9844v8.4062q-3.2656-4.9844-7.5938-7.4062-4.3125-2.4219-10.031-2.4219-9.4219 0-14.312 5.8594-4.875 5.8594-4.875 17.141zm22.609 34.422m4.4844 19.781h9.9062v-9.8594h-9.9062zm-19.094 0h9.9062v-9.8594h-9.9062z"/>
<path id="al" d="m48.688 27.297q0 9.9062-4.0781 15.547t-11.203 5.6406q-7.1406 0-11.219-5.6406t-4.0781-15.547 4.0781-15.547 11.219-5.6406q7.125 0 11.203 5.6406t4.0781 15.547zm-30.578 19.094q2.8438 4.875 7.1562 7.2344 4.3281 2.375 10.328 2.375 9.9688 0 16.188-7.9062 6.2344-7.9062 6.2344-20.797t-6.2344-20.812q-6.2188-7.9062-16.188-7.9062-6 0-10.328 2.375-4.3125 2.375-7.1562 7.25v-8.2031h-9.0312v75.984h9.0312z"/>
<path id="bd" d="m45.406 27.984q0 9.7656-4.0312 15.125-4.0156 5.375-11.297 5.375-7.2188 0-11.25-5.375-4.0312-5.3594-4.0312-15.125 0-9.7188 4.0312-15.094t11.25-5.375q7.2812 0 11.297 5.375 4.0312 5.375 4.0312 15.094zm8.9844-21.203q0-13.953-6.2031-20.766-6.1875-6.8125-18.984-6.8125-4.7344 0-8.9375 0.70312t-8.1562 2.1719v8.7344q3.9531-2.1406 7.8125-3.1562 3.8594-1.0312 7.8594-1.0312 8.8438 0 13.234 4.6094t4.3906 13.938v4.4531q-2.7812-4.8438-7.125-7.2344t-10.406-2.3906q-10.047 0-16.203 7.6562-6.1562 7.6719-6.1562 20.328 0 12.688 6.1562 20.344 6.1562 7.6719 16.203 7.6719 6.0625 0 10.406-2.3906t7.125-7.2188v8.2969h8.9844z"/>
<path id="t" d="m18.312 70.219v-15.531h18.5v-6.9844h-18.5v-29.688q0-6.6875 1.8281-8.5938t7.4531-1.9062h9.2188v-7.5156h-9.2188q-10.406 0-14.359 3.875-3.9531 3.8906-3.9531 14.141v29.688h-6.5938v6.9844h6.5938v15.531z"/>
</defs>
<g transform="translate(322.29 1020.9) scale(.1 -.1)">
<use xlink:href="#ax"/>
<use x="63.378906" xlink:href="#al"/>
<use x="126.855469" xlink:href="#d"/>
<use x="188.378906" xlink:href="#f"/>
<use x="229.492188" xlink:href="#j"/>
<use x="257.275391" xlink:href="#d"/>
<use x="318.798828" xlink:href="#bd"/>
<use x="382.275391" xlink:href="#t"/>
</g>
</g>
<g clip-path="url(#a)">
<g transform="translate(364.49 1020.9) scale(.1 -.1)">
<use xlink:href="#v"/>
<use x="63.378906" xlink:href="#i"/>
<use x="124.658203" xlink:href="#t"/>
<use x="163.867188" xlink:href="#t"/>
<use x="203.076172" xlink:href="#d"/>
</g>
</g>
<g clip-path="url(#a)">
<g transform="translate(412.63 1020.9) scale(.1 -.1)">
<use xlink:href="#u"/>
</g>
</g>
<g clip-path="url(#a)">
<g transform="translate(444.04 1020.9) scale(.1 -.1)">
<use xlink:href="#ar"/>
<use x="35.205078" xlink:href="#ak"/>
<use x="96.386719" xlink:href="#f"/>
<use x="137.5" xlink:href="#t"/>
</g>
</g>
<g clip-path="url(#a)">
<g transform="translate(492.09 1020.9) scale(.1 -.1)">
<use xlink:href="#u"/>
</g>
</g>
<g clip-path="url(#a)">
<defs>
<path id="ao" d="m9.4219 51.703 22.906-20.406v-4l-22.906-20.406v9.3281l14.703 13.078-14.703 13.094zm21.188 0 22.906-20.406v-4l-22.906-20.406v9.3281l14.703 13.078-14.703 13.094z"/>
</defs>
<g transform="translate(533.56 1020.9) scale(.1 -.1)">
<use xlink:href="#ao"/>
</g>
</g>
<g clip-path="url(#a)">
<g transform="translate(574.08 1020.9) scale(.1 -.1)">
<use xlink:href="#am"/>
<use x="63.476562" xlink:href="#h"/>
<use x="91.259766" xlink:href="#d"/>
</g>
</g>
<g clip-path="url(#a)">
<g transform="translate(613.31 1020.9) scale(.1 -.1)">
<use xlink:href="#i"/>
<use x="61.279297" xlink:href="#v"/>
<use x="124.658203" xlink:href="#e"/>
<use x="188.037109" xlink:href="#d"/>
<use x="249.560547" xlink:href="#e"/>
</g>
</g>
<g clip-path="url(#a)">
<g transform="translate(665.91 1020.9) scale(.1 -.1)">
<use xlink:href="#e"/>
<use x="63.378906" xlink:href="#h"/>
<use x="91.162109" xlink:href="#af"/>
<use x="146.142578" xlink:href="#v"/>
<use x="209.521484" xlink:href="#t"/>
</g>
</g>
<g clip-path="url(#a)">
<g transform="translate(728.29 1020.9) scale(.1 -.1)">
<use xlink:href="#u"/>
</g>
</g>
<g clip-path="url(#a)">
<defs>
<path id="bc" d="m4.2031 54.688h8.9844l11.234-42.672 11.172 42.672h10.594l11.234-42.672 11.188 42.672h8.9844l-14.312-54.688h-10.594l-11.766 44.828-11.812-44.828h-10.609z"/>
</defs>
<g transform="translate(773.81 1020.9) scale(.1 -.1)">
<use xlink:href="#bc"/>
<use x="81.787109" xlink:href="#i"/>
<use x="143.066406" xlink:href="#aj"/>
</g>
</g>
<g clip-path="url(#a)">
<g transform="translate(825.42 1020.9) scale(.1 -.1)">
<use xlink:href="#ag"/>
<use x="53.962891" xlink:href="#d"/>
<use x="115.486328" xlink:href="#z"/>
<use x="178.865234" xlink:href="#t"/>
<use x="218.074219" xlink:href="#d"/>
</g>
</g>
<g clip-path="url(#a)">
<g transform="translate(895.79 1020.9) scale(.1 -.1)">
<use xlink:href="#u"/>
</g>
</g>
<g clip-path="url(#a)">
<g transform="translate(949.86 1020.9) scale(.1 -.1)">
<use xlink:href="#as"/>
<use x="63.476562" xlink:href="#h"/>
<use x="91.259766" xlink:href="#d"/>
</g>
</g>
<g clip-path="url(#a)">
<g transform="translate(1010.9 1020.9) scale(.1 -.1)">
<use xlink:href="#i"/>
<use x="61.279297" xlink:href="#z"/>
<use x="124.658203" xlink:href="#aj"/>
</g>
</g>
<g clip-path="url(#a)">
<g transform="translate(1069.7 1020.9) scale(.1 -.1)">
<use xlink:href="#h"/>
<use x="27.783203" xlink:href="#v"/>
<use x="91.162109" xlink:href="#f"/>
<use x="130.025391" xlink:href="#d"/>
<use x="191.548828" xlink:href="#k"/>
</g>
</g>
<g clip-path="url(#a)">
<defs>
<path id="au" d="m9.8125 72.906h9.8594v-30.812l32.719 30.812h12.703l-36.188-33.984 38.766-38.922h-12.984l-35.016 35.109v-35.109h-9.8594z"/>
<path id="aq" d="m9.0781 75.984h9.0312v-44.875l26.812 23.578h11.469l-29-25.578 30.234-29.109h-11.719l-27.797 26.703v-26.703h-9.0312z"/>
</defs>
<g transform="translate(1134.8 1020.9) scale(.1 -.1)">
<use xlink:href="#au"/>
<use x="60.576172" xlink:href="#d"/>
<use x="122.099609" xlink:href="#f"/>
<use x="163.212891" xlink:href="#aq"/>
<use x="217.498047" xlink:href="#d"/>
<use x="279.021484" xlink:href="#f"/>
</g>
</g>
<g clip-path="url(#a)">
<g transform="translate(1207 1020.9) scale(.1 -.1)">
<use xlink:href="#e"/>
<use x="63.378906" xlink:href="#h"/>
<use x="91.162109" xlink:href="#af"/>
<use x="146.142578" xlink:href="#v"/>
<use x="209.521484" xlink:href="#t"/>
</g>
</g>
<g clip-path="url(#a)">
<g transform="translate(1266.1 1020.9) scale(.1 -.1)">
<use xlink:href="#d"/>
<use x="61.523438" xlink:href="#e"/>
<use x="124.902344" xlink:href="#t"/>
<use x="164.111328" xlink:href="#f"/>
<use x="205.224609" xlink:href="#h"/>
<use x="233.007812" xlink:href="#e"/>
<use x="296.386719" xlink:href="#e"/>
<use x="359.765625" xlink:href="#d"/>
<use x="421.289062" xlink:href="#e"/>
</g>
</g>
<g clip-path="url(#a)">
<defs>
<path id="ay" d="m30.609 48.391q-7.2188 0-11.422-5.6406t-4.2031-15.453 4.1719-15.453q4.1875-5.6406 11.453-5.6406 7.1875 0 11.375 5.6562 4.2031 5.6719 4.2031 15.438 0 9.7188-4.2031 15.406-4.1875 5.6875-11.375 5.6875zm0 7.6094q11.719 0 18.406-7.625 6.7031-7.6094 6.7031-21.078 0-13.422-6.7031-21.078-6.6875-7.6406-18.406-7.6406-11.766 0-18.438 7.6406-6.6562 7.6562-6.6562 21.078 0 13.469 6.6562 21.078 6.6719 7.625 18.438 7.625zm4.6094 19.781h9.9062v-9.8594h-9.9062zm-19.094 0h9.9062v-9.8594h-9.9062z"/>
</defs>
<g transform="translate(1345 1020.9) scale(.1 -.1)">
<use xlink:href="#aq"/>
<use x="54.285156" xlink:href="#ay"/>
<use x="115.466797" xlink:href="#e"/>
<use x="178.845703" xlink:href="#e"/>
<use x="242.224609" xlink:href="#d"/>
<use x="303.748047" xlink:href="#e"/>
</g>
</g>
<g clip-path="url(#a)">
<g transform="translate(1436.9 1020.9) scale(.1 -.1)">
<use xlink:href="#u"/>
</g>
</g>
<g clip-path="url(#a)">
<defs>
<path id="ba" d="m5.5156 54.688h42.672v-8.2031l-33.781-39.312h33.781v-7.1719h-43.891v8.2031l33.797 39.312h-32.578z"/>
</defs>
<g transform="translate(1510 1020.9) scale(.1 -.1)">
<use xlink:href="#ba"/>
<use x="52.490234" xlink:href="#z"/>
</g>
</g>
<g clip-path="url(#a)">
<g transform="translate(1587 1020.9) scale(.1 -.1)">
<use xlink:href="#t"/>
<use x="39.208984" xlink:href="#z"/>
<use x="102.587891" xlink:href="#e"/>
</g>
</g>
<g clip-path="url(#a)">
<g transform="translate(1661.2 1020.9) scale(.1 -.1)">
<use xlink:href="#v"/>
<use x="63.378906" xlink:href="#i"/>
<use x="124.658203" xlink:href="#al"/>
<use x="188.134766" xlink:href="#d"/>
<use x="249.658203" xlink:href="#e"/>
</g>
</g>
<g clip-path="url(#a)">
<defs>
<path id="aw" d="m19.094 12.406h9.9062v-12.406h-9.9062zm9.625 7.1719h-9.3281v7.5156q0 4.9375 1.3594 8.1094 1.375 3.1719 5.7656 7.375l4.3906 4.3438q2.7812 2.5938 4.0312 4.8906t1.25 4.6875q0 4.3438-3.2031 7.0312t-8.4688 2.6875q-3.8594 0-8.2344-1.7188-4.3594-1.7031-9.1094-4.9844v9.1875q4.5938 2.7812 9.2969 4.1406 4.7188 1.375 9.75 1.375 8.9844 0 14.422-4.7344 5.4531-4.7344 5.4531-12.5 0-3.7188-1.7656-7.0625-1.75-3.3438-6.1406-7.5312l-4.2969-4.2031q-2.2969-2.2969-3.25-3.5938t-1.3438-2.5156q-0.29688-1.0156-0.4375-2.4844t-0.14062-4z"/>
</defs>
<g transform="translate(1758 1020.9) scale(.1 -.1)">
<use xlink:href="#aw"/>
</g>
</g>
<g clip-path="url(#a)">
<g transform="translate(1843.4 1020.9) scale(.1 -.1)">
<use xlink:href="#ap"/>
</g>
</g>
<g clip-path="url(#a)">
<g transform="translate(1931.5 1020.9) scale(.1 -.1)">
<use xlink:href="#ao"/>
</g>
</g>
<g clip-path="url(#a)">
<defs>
<path id="c" d="m12.406 8.2969h16.109v55.625l-17.531-3.5156v8.9844l17.438 3.5156h9.8594v-64.609h16.109v-8.2969h-41.984z"/>
<path id="g" d="m10.688 12.406h10.312v-12.406h-10.312z"/>
</defs>
<g transform="translate(284.53 51.244) scale(.1 -.1)">
<use xlink:href="#c"/>
<use x="63.623047" xlink:href="#g"/>
<use x="95.410156" xlink:href="#c"/>
</g>
</g>
<g clip-path="url(#a)">
<defs>
<path id="r" d="m19.188 8.2969h34.422v-8.2969h-46.281v8.2969q5.6094 5.8125 15.297 15.594 9.7031 9.7969 12.188 12.641 4.7344 5.3125 6.6094 9 1.8906 3.6875 1.8906 7.25 0 5.8125-4.0781 9.4688-4.0781 3.6719-10.625 3.6719-4.6406 0-9.7969-1.6094-5.1406-1.6094-11-4.8906v9.9688q5.9531 2.3906 11.125 3.6094 5.1875 1.2188 9.4844 1.2188 11.328 0 18.062-5.6719 6.7344-5.6562 6.7344-15.125 0-4.5-1.6875-8.5312-1.6719-4.0156-6.125-9.4844-1.2188-1.4219-7.7656-8.1875-6.5312-6.7656-18.453-18.922z"/>
</defs>
<g transform="translate(291.45 149.13) scale(.1 -.1)">
<use xlink:href="#c"/>
<use x="63.623047" xlink:href="#g"/>
<use x="95.410156" xlink:href="#r"/>
</g>
</g>
<g clip-path="url(#a)">
<defs>
<path id="n" d="m40.578 39.312q7.0781-1.5156 11.047-6.3125 3.9844-4.7812 3.9844-11.812 0-10.781-7.4219-16.703-7.4219-5.9062-21.094-5.9062-4.5781 0-9.4375 0.90625t-10.031 2.7188v9.5156q4.0938-2.3906 8.9688-3.6094 4.8906-1.2188 10.219-1.2188 9.2656 0 14.125 3.6562t4.8594 10.641q0 6.4531-4.5156 10.078-4.5156 3.6406-12.562 3.6406h-8.5v8.1094h8.8906q7.2656 0 11.125 2.9062t3.8594 8.375q0 5.6094-3.9844 8.6094-3.9688 3.0156-11.391 3.0156-4.0625 0-8.7031-0.89062-4.6406-0.875-10.203-2.7188v8.7812q5.625 1.5625 10.531 2.3438t9.25 0.78125q11.234 0 17.766-5.1094 6.5469-5.0938 6.5469-13.781 0-6.0625-3.4688-10.234t-9.8594-5.7812z"/>
</defs>
<g transform="translate(219.45 926.18) scale(.1 -.1)">
<use xlink:href="#c"/>
<use x="63.623047" xlink:href="#g"/>
<use x="95.410156" xlink:href="#n"/>
</g>
</g>
<g clip-path="url(#a)">
<defs>
<path id="m" d="m37.797 64.312-24.906-38.922h24.906zm-2.5938 8.5938h12.406v-47.516h10.406v-8.2031h-10.406v-17.188h-9.8125v17.188h-32.906v9.5156z"/>
</defs>
<g transform="translate(309.64 733.51) scale(.1 -.1)">
<use xlink:href="#c"/>
<use x="63.623047" xlink:href="#g"/>
<use x="95.410156" xlink:href="#m"/>
</g>
</g>
<g clip-path="url(#a)">
<defs>
<path id="y" d="m31.781 66.406q-7.6094 0-11.453-7.5-3.8281-7.4844-3.8281-22.531 0-14.984 3.8281-22.484 3.8438-7.5 11.453-7.5 7.6719 0 11.5 7.5 3.8438 7.5 3.8438 22.484 0 15.047-3.8438 22.531-3.8281 7.5-11.5 7.5zm0 7.8125q12.266 0 18.734-9.7031 6.4688-9.6875 6.4688-28.141 0-18.406-6.4688-28.109-6.4688-9.6875-18.734-9.6875-12.25 0-18.719 9.6875-6.4688 9.7031-6.4688 28.109 0 18.453 6.4688 28.141 6.4688 9.7031 18.719 9.7031z"/>
</defs>
<g transform="translate(242.04 926.18) scale(.1 -.1)">
<use xlink:href="#c"/>
<use x="63.623047" xlink:href="#g"/>
<use x="95.410156" xlink:href="#c"/>
<use x="159.033203" xlink:href="#y"/>
</g>
</g>
<g clip-path="url(#a)">
<g transform="translate(284.99 830.1) scale(.1 -.1)">
<use xlink:href="#c"/>
<use x="63.623047" xlink:href="#g"/>
<use x="95.410156" xlink:href="#c"/>
<use x="159.033203" xlink:href="#c"/>
</g>
</g>
<g clip-path="url(#a)">
<g transform="translate(332.23 926.18) scale(.1 -.1)">
<use xlink:href="#c"/>
<use x="63.623047" xlink:href="#g"/>
<use x="95.410156" xlink:href="#c"/>
<use x="159.033203" xlink:href="#r"/>
</g>
</g>
<g clip-path="url(#a)">
<g transform="translate(366.59 926.18) scale(.1 -.1)">
<use xlink:href="#c"/>
<use x="63.623047" xlink:href="#g"/>
<use x="95.410156" xlink:href="#c"/>
<use x="159.033203" xlink:href="#n"/>
</g>
</g>
<g clip-path="url(#a)">
<g transform="translate(269.95 926.18) scale(.1 -.1)">
<use xlink:href="#c"/>
<use x="63.623047" xlink:href="#g"/>
<use x="95.410156" xlink:href="#c"/>
<use x="159.033203" xlink:href="#m"/>
</g>
</g>
<g clip-path="url(#a)">
<defs>
<path id="o" d="m10.797 72.906h38.719v-8.3125h-29.688v-17.859q2.1406 0.73438 4.2812 1.0938 2.1562 0.35938 4.3125 0.35938 12.203 0 19.328-6.6875 7.1406-6.6875 7.1406-18.109 0-11.766-7.3281-18.297-7.3281-6.5156-20.656-6.5156-4.5938 0-9.3594 0.78125-4.75 0.78125-9.8281 2.3438v9.9219q4.3906-2.3906 9.0781-3.5625t9.9062-1.1719q8.4531 0 13.375 4.4375 4.9375 4.4375 4.9375 12.062 0 7.6094-4.9375 12.047-4.9219 4.4531-13.375 4.4531-3.9531 0-7.8906-0.875-3.9219-0.875-8.0156-2.7344z"/>
</defs>
<g transform="translate(300.02 926.18) scale(.1 -.1)">
<use xlink:href="#c"/>
<use x="63.623047" xlink:href="#g"/>
<use x="95.410156" xlink:href="#c"/>
<use x="159.033203" xlink:href="#o"/>
</g>
</g>
<g clip-path="url(#a)">
<defs>
<path id="s" d="m33.016 40.375q-6.6406 0-10.531-4.5469-3.875-4.5312-3.875-12.438 0-7.8594 3.875-12.438 3.8906-4.5625 10.531-4.5625t10.516 4.5625q3.875 4.5781 3.875 12.438 0 7.9062-3.875 12.438-3.875 4.5469-10.516 4.5469zm19.578 30.922v-8.9844q-3.7188 1.75-7.5 2.6719-3.7812 0.9375-7.5 0.9375-9.7656 0-14.922-6.5938-5.1406-6.5938-5.875-19.922 2.875 4.25 7.2188 6.5156 4.3594 2.2656 9.5781 2.2656 10.984 0 17.359-6.6719 6.375-6.6562 6.375-18.125 0-11.234-6.6406-18.031-6.6406-6.7812-17.672-6.7812-12.656 0-19.344 9.6875-6.6875 9.7031-6.6875 28.109 0 17.281 8.2031 27.562t22.016 10.281q3.7188 0 7.5-0.73438t7.8906-2.1875z"/>
</defs>
<g transform="translate(287.55 246.91) scale(.1 -.1)">
<use xlink:href="#c"/>
<use x="63.623047" xlink:href="#g"/>
<use x="95.410156" xlink:href="#c"/>
<use x="159.033203" xlink:href="#s"/>
</g>
</g>
<g clip-path="url(#a)">
<defs>
<path id="ae" d="m8.2031 72.906h46.875v-4.2031l-26.469-68.703h-10.297l24.906 64.594h-35.016z"/>
</defs>
<g transform="translate(296.8 926.18) scale(.1 -.1)">
<use xlink:href="#c"/>
<use x="63.623047" xlink:href="#g"/>
<use x="95.410156" xlink:href="#c"/>
<use x="159.033203" xlink:href="#ae"/>
</g>
</g>
<g clip-path="url(#a)">
<defs>
<path id="x" d="m31.781 34.625q-7.0312 0-11.062-3.7656-4.0156-3.7656-4.0156-10.344 0-6.5938 4.0156-10.359 4.0312-3.7656 11.062-3.7656t11.078 3.7812q4.0625 3.7969 4.0625 10.344 0 6.5781-4.0312 10.344-4.0156 3.7656-11.109 3.7656zm-9.8594 4.1875q-6.3438 1.5625-9.8906 5.9062-3.5312 4.3594-3.5312 10.609 0 8.7344 6.2188 13.812 6.2344 5.0781 17.062 5.0781 10.891 0 17.094-5.0781t6.2031-13.812q0-6.25-3.5469-10.609-3.5312-4.3438-9.8281-5.9062 7.125-1.6562 11.094-6.5 3.9844-4.8281 3.9844-11.797 0-10.609-6.4688-16.281-6.4688-5.6562-18.531-5.6562-12.047 0-18.531 5.6562-6.4688 5.6719-6.4688 16.281 0 6.9688 4 11.797 4.0156 4.8438 11.141 6.5zm-3.6094 15.578q0-5.6562 3.5312-8.8281 3.5469-3.1719 9.9375-3.1719 6.3594 0 9.9375 3.1719 3.5938 3.1719 3.5938 8.8281 0 5.6719-3.5938 8.8438-3.5781 3.1719-9.9375 3.1719-6.3906 0-9.9375-3.1719-3.5312-3.1719-3.5312-8.8438z"/>
</defs>
<g transform="translate(171.18 926.18) scale(.1 -.1)">
<use xlink:href="#c"/>
<use x="63.623047" xlink:href="#g"/>
<use x="95.410156" xlink:href="#c"/>
<use x="159.033203" xlink:href="#x"/>
</g>
</g>
<g clip-path="url(#a)">
<g transform="translate(80.988 926.18) scale(.1 -.1)">
<use xlink:href="#c"/>
<use x="63.623047" xlink:href="#g"/>
<use x="95.410156" xlink:href="#r"/>
<use x="159.033203" xlink:href="#n"/>
</g>
</g>
<g clip-path="url(#a)">
<g transform="translate(694.23 344.57) scale(.1 -.1)">
<use xlink:href="#c"/>
<use x="63.623047" xlink:href="#g"/>
<use x="95.410156" xlink:href="#r"/>
<use x="159.033203" xlink:href="#m"/>
</g>
</g>
<g clip-path="url(#a)">
<g transform="translate(101.39 830.1) scale(.1 -.1)">
<use xlink:href="#c"/>
<use x="63.623047" xlink:href="#g"/>
<use x="95.410156" xlink:href="#r"/>
<use x="159.033203" xlink:href="#s"/>
</g>
</g>
<g clip-path="url(#a)">
<g transform="translate(570.58 926.18) scale(.1 -.1)">
<use xlink:href="#c"/>
<use x="63.623047" xlink:href="#g"/>
<use x="95.410156" xlink:href="#r"/>
<use x="159.033203" xlink:href="#ae"/>
</g>
</g>
<g clip-path="url(#a)">
<g transform="translate(617.83 926.18) scale(.1 -.1)">
<use xlink:href="#c"/>
<use x="63.623047" xlink:href="#g"/>
<use x="95.410156" xlink:href="#r"/>
<use x="159.033203" xlink:href="#x"/>
</g>
</g>
<g clip-path="url(#a)">
<defs>
<path id="ad" d="m10.984 1.5156v8.9844q3.7188-1.7656 7.5156-2.6875 3.8125-0.92188 7.4844-0.92188 9.7656 0 14.906 6.5625 5.1562 6.5625 5.8906 19.953-2.8281-4.2031-7.1875-6.4531-4.3438-2.25-9.6094-2.25-10.938 0-17.312 6.6094-6.375 6.625-6.375 18.109 0 11.219 6.6406 18 6.6406 6.7969 17.672 6.7969 12.656 0 19.312-9.7031 6.6719-9.6875 6.6719-28.141 0-17.234-8.1875-27.516-8.1719-10.281-21.984-10.281-3.7188 0-7.5312 0.73438-3.7969 0.73438-7.9062 2.2031zm19.625 30.906q6.6406 0 10.516 4.5312 3.8906 4.5469 3.8906 12.469 0 7.8594-3.8906 12.422-3.875 4.5625-10.516 4.5625t-10.516-4.5625-3.875-12.422q0-7.9219 3.875-12.469 3.875-4.5312 10.516-4.5312z"/>
</defs>
<g transform="translate(667.21 926.18) scale(.1 -.1)">
<use xlink:href="#c"/>
<use x="63.623047" xlink:href="#g"/>
<use x="95.410156" xlink:href="#r"/>
<use x="159.033203" xlink:href="#ad"/>
</g>
</g>
<g clip-path="url(#a)">
<g transform="translate(1489.6 442.09) scale(.1 -.1)">
<use xlink:href="#c"/>
<use x="63.623047" xlink:href="#g"/>
<use x="95.410156" xlink:href="#n"/>
<use x="159.033203" xlink:href="#y"/>
</g>
</g>
<g clip-path="url(#a)">
<g transform="translate(772.43 926.18) scale(.1 -.1)">
<use xlink:href="#c"/>
<use x="63.623047" xlink:href="#g"/>
<use x="95.410156" xlink:href="#n"/>
<use x="159.033203" xlink:href="#r"/>
</g>
</g>
<g clip-path="url(#a)">
<g transform="translate(943.69 539.44) scale(.1 -.1)">
<use xlink:href="#c"/>
<use x="63.623047" xlink:href="#g"/>
<use x="95.410156" xlink:href="#n"/>
<use x="159.033203" xlink:href="#n"/>
</g>
</g>
<g clip-path="url(#a)">
<g transform="translate(1504.7 926.18) scale(.1 -.1)">
<use xlink:href="#c"/>
<use x="63.623047" xlink:href="#g"/>
<use x="95.410156" xlink:href="#n"/>
<use x="159.033203" xlink:href="#m"/>
</g>
</g>
<g clip-path="url(#a)">
<g transform="translate(1584.1 926.18) scale(.1 -.1)">
<use xlink:href="#c"/>
<use x="63.623047" xlink:href="#g"/>
<use x="95.410156" xlink:href="#n"/>
<use x="159.033203" xlink:href="#o"/>
</g>
</g>
<g clip-path="url(#a)">
<g transform="translate(1665.7 926.18) scale(.1 -.1)">
<use xlink:href="#c"/>
<use x="63.623047" xlink:href="#g"/>
<use x="95.410156" xlink:href="#n"/>
<use x="159.033203" xlink:href="#s"/>
</g>
</g>
<g clip-path="url(#a)">
<g transform="translate(828.27 926.18) scale(.1 -.1)">
<use xlink:href="#c"/>
<use x="63.623047" xlink:href="#g"/>
<use x="95.410156" xlink:href="#n"/>
<use x="159.033203" xlink:href="#x"/>
</g>
</g>
<g clip-path="url(#a)">
<g transform="translate(1116.5 636.6) scale(.1 -.1)">
<use xlink:href="#c"/>
<use x="63.623047" xlink:href="#g"/>
<use x="95.410156" xlink:href="#n"/>
<use x="159.033203" xlink:href="#ad"/>
</g>
</g>
<g clip-path="url(#a)">
<g transform="translate(87.43 926.18) scale(.1 -.1)">
<use xlink:href="#c"/>
<use x="63.623047" xlink:href="#g"/>
<use x="95.410156" xlink:href="#m"/>
<use x="159.033203" xlink:href="#y"/>
</g>
</g>
<g clip-path="url(#a)">
<g transform="translate(946.37 926.18) scale(.1 -.1)">
<use xlink:href="#c"/>
<use x="63.623047" xlink:href="#g"/>
<use x="95.410156" xlink:href="#m"/>
<use x="159.033203" xlink:href="#c"/>
</g>
</g>
<g clip-path="url(#a)">
<g transform="translate(1084.9 733.51) scale(.1 -.1)">
<use xlink:href="#c"/>
<use x="63.623047" xlink:href="#g"/>
<use x="95.410156" xlink:href="#m"/>
<use x="159.033203" xlink:href="#r"/>
</g>
</g>
<g clip-path="url(#a)">
<g transform="translate(1208.3 926.18) scale(.1 -.1)">
<use xlink:href="#c"/>
<use x="63.623047" xlink:href="#g"/>
<use x="95.410156" xlink:href="#m"/>
<use x="159.033203" xlink:href="#n"/>
</g>
</g>
<g clip-path="url(#a)">
<g transform="translate(1279.2 926.18) scale(.1 -.1)">
<use xlink:href="#c"/>
<use x="63.623047" xlink:href="#g"/>
<use x="95.410156" xlink:href="#m"/>
<use x="159.033203" xlink:href="#m"/>
</g>
</g>
<g clip-path="url(#a)">
<g transform="translate(1352.2 926.18) scale(.1 -.1)">
<use xlink:href="#c"/>
<use x="63.623047" xlink:href="#g"/>
<use x="95.410156" xlink:href="#m"/>
<use x="159.033203" xlink:href="#o"/>
</g>
</g>
<g clip-path="url(#a)">
<g transform="translate(1008.6 926.18) scale(.1 -.1)">
<use xlink:href="#c"/>
<use x="63.623047" xlink:href="#g"/>
<use x="95.410156" xlink:href="#m"/>
<use x="159.033203" xlink:href="#s"/>
</g>
</g>
<g clip-path="url(#a)">
<g transform="translate(1106.3 830.1) scale(.1 -.1)">
<use xlink:href="#c"/>
<use x="63.623047" xlink:href="#g"/>
<use x="95.410156" xlink:href="#m"/>
<use x="159.033203" xlink:href="#ae"/>
</g>
</g>
<g clip-path="url(#a)">
<g transform="translate(1139.6 926.18) scale(.1 -.1)">
<use xlink:href="#c"/>
<use x="63.623047" xlink:href="#g"/>
<use x="95.410156" xlink:href="#m"/>
<use x="159.033203" xlink:href="#x"/>
</g>
</g>
<g clip-path="url(#a)">
<g transform="translate(1073.1 926.18) scale(.1 -.1)">
<use xlink:href="#c"/>
<use x="63.623047" xlink:href="#g"/>
<use x="95.410156" xlink:href="#m"/>
<use x="159.033203" xlink:href="#ad"/>
</g>
</g>
<g clip-path="url(#a)">
<g transform="translate(96.02 926.18) scale(.1 -.1)">
<use xlink:href="#c"/>
<use x="63.623047" xlink:href="#g"/>
<use x="95.410156" xlink:href="#o"/>
<use x="159.033203" xlink:href="#y"/>
</g>
</g>
<g clip-path="url(#a)">
<g transform="translate(106.76 926.18) scale(.1 -.1)">
<use xlink:href="#c"/>
<use x="63.623047" xlink:href="#g"/>
<use x="95.410156" xlink:href="#o"/>
<use x="159.033203" xlink:href="#c"/>
</g>
</g>
<g clip-path="url(#a)">
<g transform="translate(119.64 926.18) scale(.1 -.1)">
<use xlink:href="#c"/>
<use x="63.623047" xlink:href="#g"/>
<use x="95.410156" xlink:href="#o"/>
<use x="159.033203" xlink:href="#r"/>
</g>
</g>
<g clip-path="url(#a)">
<g transform="translate(134.67 926.18) scale(.1 -.1)">
<use xlink:href="#c"/>
<use x="63.623047" xlink:href="#g"/>
<use x="95.410156" xlink:href="#o"/>
<use x="159.033203" xlink:href="#n"/>
</g>
</g>
<g clip-path="url(#a)">
<g transform="translate(192.65 926.18) scale(.1 -.1)">
<use xlink:href="#c"/>
<use x="63.623047" xlink:href="#g"/>
<use x="95.410156" xlink:href="#o"/>
<use x="159.033203" xlink:href="#m"/>
</g>
</g>
<g clip-path="url(#a)">
<g transform="translate(403.09 926.18) scale(.1 -.1)">
<use xlink:href="#c"/>
<use x="63.623047" xlink:href="#g"/>
<use x="95.410156" xlink:href="#o"/>
<use x="159.033203" xlink:href="#o"/>
</g>
</g>
<g clip-path="url(#a)">
<g transform="translate(482.54 926.18) scale(.1 -.1)">
<use xlink:href="#c"/>
<use x="63.623047" xlink:href="#g"/>
<use x="95.410156" xlink:href="#o"/>
<use x="159.033203" xlink:href="#s"/>
</g>
</g>
<g clip-path="url(#a)">
<g transform="translate(525.49 926.18) scale(.1 -.1)">
<use xlink:href="#c"/>
<use x="63.623047" xlink:href="#g"/>
<use x="95.410156" xlink:href="#o"/>
<use x="159.033203" xlink:href="#ae"/>
</g>
</g>
<g clip-path="url(#a)">
<g transform="translate(718.75 926.18) scale(.1 -.1)">
<use xlink:href="#c"/>
<use x="63.623047" xlink:href="#g"/>
<use x="95.410156" xlink:href="#o"/>
<use x="159.033203" xlink:href="#x"/>
</g>
</g>
<g clip-path="url(#a)">
<g transform="translate(886.24 926.18) scale(.1 -.1)">
<use xlink:href="#c"/>
<use x="63.623047" xlink:href="#g"/>
<use x="95.410156" xlink:href="#o"/>
<use x="159.033203" xlink:href="#ad"/>
</g>
</g>
<g clip-path="url(#a)">
<g transform="translate(1427.4 926.18) scale(.1 -.1)">
<use xlink:href="#c"/>
<use x="63.623047" xlink:href="#g"/>
<use x="95.410156" xlink:href="#s"/>
<use x="159.033203" xlink:href="#y"/>
</g>
</g>
<g clip-path="url(#a)">
<g transform="translate(1749.5 926.18) scale(.1 -.1)">
<use xlink:href="#c"/>
<use x="63.623047" xlink:href="#g"/>
<use x="95.410156" xlink:href="#s"/>
<use x="159.033203" xlink:href="#c"/>
</g>
</g>
<g clip-path="url(#a)">
<g transform="translate(1835.4 926.18) scale(.1 -.1)">
<use xlink:href="#c"/>
<use x="63.623047" xlink:href="#g"/>
<use x="95.410156" xlink:href="#s"/>
<use x="159.033203" xlink:href="#r"/>
</g>
</g>
<g clip-path="url(#a)">
<g transform="translate(1923.4 926.18) scale(.1 -.1)">
<use xlink:href="#c"/>
<use x="63.623047" xlink:href="#g"/>
<use x="95.410156" xlink:href="#s"/>
<use x="159.033203" xlink:href="#n"/>
</g>
</g>
<defs>
<clipPath id="a">
<rect width="2026.7" height="1066.7"/>
</clipPath>
</defs>
</svg>
