<?xml version="1.0" encoding="UTF-8"?>
<!DOCTYPE svg  PUBLIC '-//W3C//DTD SVG 1.1//EN'  'http://www.w3.org/Graphics/SVG/1.1/DTD/svg11.dtd'>
<svg width="1672pt" height="880pt" version="1.1" viewBox="0 0 1672 880" xmlns="http://www.w3.org/2000/svg" xmlns:xlink="http://www.w3.org/1999/xlink">
<defs>
<style type="text/css">*{stroke-linecap:butt;stroke-linejoin:round;}</style>
</defs>
<path d="m0 880h1672v-880h-1672z" fill="#fff"/>
<g fill="none" stroke="#000">
<path d="m191.72 40v89.726" clip-path="url(#a)"/>
<path d="m191.72 129.73 334.69 89.614" clip-path="url(#a)"/>
<path d="m191.72 129.73-69.505 623.32" clip-path="url(#a)"/>
<path d="m191.72 129.73-51.532 623.32" clip-path="url(#a)"/>
<path d="m191.72 129.73-97.749 623.32" clip-path="url(#a)"/>
<path d="m191.72 129.73-84.911 623.32" clip-path="url(#a)"/>
<path d="m191.72 129.73-30.992 623.32" clip-path="url(#a)"/>
<path d="m526.41 219.34-296.61 267.98" clip-path="url(#a)"/>
<path d="m526.41 219.34 29.725 533.7" clip-path="url(#a)"/>
<path d="m526.41 219.34 285.95 89.485" clip-path="url(#a)"/>
<path d="m526.41 219.34-19.059 533.7" clip-path="url(#a)"/>
<path d="m122.22 753.04v86.957" clip-path="url(#a)"/>
<path d="m140.19 753.04v86.957" clip-path="url(#a)"/>
<path d="m229.8 487.32-149.95 177.56" clip-path="url(#a)"/>
<path d="m229.8 487.32-45.959 265.73" clip-path="url(#a)"/>
<path d="m229.8 487.32-20.284 265.73" clip-path="url(#a)"/>
<path d="m229.8 487.32 119.65 265.73" clip-path="url(#a)"/>
<path d="m229.8 487.32 96.541 88.931" clip-path="url(#a)"/>
<path d="m556.14 753.04v86.957" clip-path="url(#a)"/>
<path d="m812.36 308.82-204.87 444.22" clip-path="url(#a)"/>
<path d="m812.36 308.82-150.95 444.22" clip-path="url(#a)"/>
<path d="m812.36 308.82 450.29 89.336" clip-path="url(#a)"/>
<path d="m812.36 308.82-94.465 444.22" clip-path="url(#a)"/>
<path d="m607.49 753.04v86.957" clip-path="url(#a)"/>
<path d="m661.41 753.04v86.957" clip-path="url(#a)"/>
<path d="m1262.6 398.16-407.39 178.09" clip-path="url(#a)"/>
<path d="m1262.6 398.16-106.98 354.88" clip-path="url(#a)"/>
<path d="m1262.6 398.16-226.37 89.156" clip-path="url(#a)"/>
<path d="m1262.6 398.16 161.33 354.88" clip-path="url(#a)"/>
<path d="m1262.6 398.16 246.06 354.88" clip-path="url(#a)"/>
<path d="m1262.6 398.16 333.36 354.88" clip-path="url(#a)"/>
<path d="m855.26 576.25-47.5 88.629" clip-path="url(#a)"/>
<path d="m855.26 576.25 47.5 176.8" clip-path="url(#a)"/>
<path d="m1155.7 753.04-186.15 86.957" clip-path="url(#a)"/>
<path d="m1155.7 753.04 186.15 86.957" clip-path="url(#a)"/>
<path d="m1036.3 487.32 2.5676 265.73" clip-path="url(#a)"/>
<path d="m1036.3 487.32 130.95 88.931" clip-path="url(#a)"/>
<path d="m1036.3 487.32-133.51 265.73" clip-path="url(#a)" stroke-dasharray="3.7,1.6"/>
<path d="m1038.8 753.04v86.957" clip-path="url(#a)"/>
<path d="m1167.2 576.25-56.486 176.8" clip-path="url(#a)"/>
<path d="m1167.2 576.25 56.486 88.629" clip-path="url(#a)"/>
<path d="m1110.7 753.04v86.957" clip-path="url(#a)"/>
<path d="m1223.7 664.88-38.514 88.167" clip-path="url(#a)"/>
<path d="m1223.7 664.88 38.514 88.167" clip-path="url(#a)"/>
<path d="m1185.2 753.04v86.957" clip-path="url(#a)"/>
<path d="m1262.2 753.04v86.957" clip-path="url(#a)"/>
<path d="m807.76 664.88-30.811 88.167" clip-path="url(#a)"/>
<path d="m807.76 664.88 30.811 88.167" clip-path="url(#a)"/>
<path d="m902.76 753.04v86.957" clip-path="url(#a)"/>
<path d="m776.95 753.04v86.957" clip-path="url(#a)"/>
<path d="m838.57 753.04v86.957" clip-path="url(#a)"/>
<path d="m79.851 664.88-3.8514 88.167" clip-path="url(#a)"/>
<path d="m79.851 664.88 3.8514 88.167" clip-path="url(#a)"/>
<path d="m183.84 753.04v86.957" clip-path="url(#a)"/>
<path d="m209.51 753.04v86.957" clip-path="url(#a)"/>
<path d="m349.45 753.04-111.69 86.957" clip-path="url(#a)"/>
<path d="m349.45 753.04 111.69 86.957" clip-path="url(#a)"/>
<path d="m326.34 576.25-57.77 176.8" clip-path="url(#a)"/>
<path d="m326.34 576.25-24.392 176.8" clip-path="url(#a)"/>
<path d="m326.34 576.25 11.554 176.8" clip-path="url(#a)"/>
<path d="m326.34 576.25 70.608 88.629" clip-path="url(#a)"/>
<path d="m268.57 753.04v86.957" clip-path="url(#a)"/>
<path d="m301.95 753.04v86.957" clip-path="url(#a)"/>
<path d="m337.89 753.04v86.957" clip-path="url(#a)"/>
<path d="m396.95 664.88-20.541 88.167" clip-path="url(#a)"/>
<path d="m396.95 664.88 20.541 88.167" clip-path="url(#a)"/>
<path d="m376.41 753.04v86.957" clip-path="url(#a)"/>
<path d="m417.49 753.04v86.957" clip-path="url(#a)"/>
<path d="m76 753.04v86.957" clip-path="url(#a)"/>
<path d="m83.703 753.04v86.957" clip-path="url(#a)"/>
<path d="m93.973 753.04v86.957" clip-path="url(#a)"/>
<path d="m106.81 753.04v86.957" clip-path="url(#a)"/>
<path d="m160.73 753.04v86.957" clip-path="url(#a)"/>
<path d="m507.35 753.04v86.957" clip-path="url(#a)"/>
<path d="m717.89 753.04v86.957" clip-path="url(#a)"/>
<path d="m1424 753.04v86.957" clip-path="url(#a)"/>
<path d="m1508.7 753.04v86.957" clip-path="url(#a)"/>
<path d="m1596 753.04v86.957" clip-path="url(#a)"/>
</g>
<path d="m185.45 81.855v6.0162q0 2.4 2.4 2.4h7.7425q2.4 0 2.4-2.4v-6.0162q0-2.4-2.4-2.4h-7.7425q-2.4 0-2.4 2.4z" clip-path="url(#a)" fill="#fff" stroke="#fff"/>
<g clip-path="url(#a)">
<defs>
<path id="ai" d="m9.8125 72.906h9.8594v-29.891h35.844v29.891h9.8594v-72.906h-9.8594v34.719h-35.844v-34.719h-9.8594z"/>
</defs>
<g transform="translate(189.51 81.855) rotate(90) scale(.08 -.08)">
<use xlink:href="#ai"/>
</g>
</g>
<path d="m354.8 179.88 5.2863 1.4154q2.3183 0.62074 2.9391-1.6976l2.0025-7.479q0.62074-2.3183-1.6976-2.9391l-5.2863-1.4154q-2.3183-0.62074-2.9391 1.6976l-2.0025 7.479q-0.62074 2.3183 1.6976 2.9391z" clip-path="url(#a)" fill="#fff" stroke="#fff"/>
<g clip-path="url(#a)">
<defs>
<path id="r" d="m34.188 63.188-13.391-36.281h26.812zm-5.5781 9.7188h11.188l27.781-72.906h-10.25l-6.6406 18.703h-32.859l-6.6406-18.703h-10.406z"/>
</defs>
<g transform="translate(355.85 175.96) rotate(14.989) scale(.08 -.08)">
<use xlink:href="#r"/>
</g>
</g>
<path d="m162.93 444.48 0.53458-4.794q0.26597-2.3852-2.1192-2.6512l-7.6948-0.85804q-2.3852-0.26597-2.6512 2.1192l-0.53458 4.794q-0.26597 2.3852 2.1192 2.6512l7.6948 0.85804q2.3852 0.26597 2.6512-2.1192z" clip-path="url(#a)" fill="#fff" stroke="#fff"/>
<g clip-path="url(#a)">
<defs>
<path id="aa" d="m19.672 64.797v-27.391h12.406q6.8906 0 10.641 3.5625 3.7656 3.5625 3.7656 10.156 0 6.5469-3.7656 10.109-3.75 3.5625-10.641 3.5625zm-9.8594 8.1094h22.266q12.266 0 18.531-5.5469 6.2812-5.5469 6.2812-16.234 0-10.797-6.2812-16.312-6.2656-5.5156-18.531-5.5156h-12.406v-29.297h-9.8594z"/>
</defs>
<g transform="translate(158.9 444.03) rotate(-83.637) scale(.08 -.08)">
<use xlink:href="#aa"/>
</g>
</g>
<path d="m171.98 444.63 0.4509-5.4539q0.19774-2.3918-2.1941-2.5896l-7.7162-0.63793q-2.3918-0.19774-2.5896 2.1941l-0.4509 5.4539q-0.19774 2.3918 2.1941 2.5896l7.7162 0.63793q2.3918 0.19774 2.5896-2.1941z" clip-path="url(#a)" fill="#fff" stroke="#fff"/>
<g clip-path="url(#a)">
<g transform="translate(167.93 444.29) rotate(-85.274) scale(.08 -.08)">
<use xlink:href="#r"/>
</g>
</g>
<path d="m148.59 445.25 0.9071-5.7843q0.37182-2.371-1.9992-2.7428l-7.649-1.1995q-2.371-0.37182-2.7428 1.9992l-0.9071 5.7843q-0.37182 2.371 1.9992 2.7428l7.649 1.1995q2.371 0.37182 2.7428-1.9992z" clip-path="url(#a)" fill="#fff" stroke="#fff"/>
<g clip-path="url(#a)">
<defs>
<path id="q" d="m8.6875 72.906h9.9219v-44.297q0-11.719 4.2344-16.875 4.25-5.1406 13.781-5.1406 9.4688 0 13.719 5.1406 4.25 5.1562 4.25 16.875v44.297h9.9062v-45.516q0-14.25-7.0625-21.531-7.0469-7.2812-20.812-7.2812-13.828 0-20.891 7.2812-7.0469 7.2812-7.0469 21.531z"/>
</defs>
<g transform="translate(144.57 444.62) rotate(-81.087) scale(.08 -.08)">
<use xlink:href="#q"/>
</g>
</g>
<path d="m155.08 445.13 0.79029-5.8014q0.32394-2.378-2.0541-2.702l-7.6716-1.0451q-2.378-0.32394-2.702 2.0541l-0.79029 5.8014q-0.32395 2.378 2.0541 2.702l7.6716 1.0451q2.378 0.32395 2.702-2.0541z" clip-path="url(#a)" fill="#fff" stroke="#fff"/>
<g clip-path="url(#a)">
<g transform="translate(151.06 444.58) rotate(-82.243) scale(.08 -.08)">
<use xlink:href="#q"/>
</g>
</g>
<path d="m182.34 444.62 0.29076-5.8478q0.11918-2.397-2.2779-2.5162l-7.7329-0.38449q-2.397-0.11918-2.5162 2.2779l-0.29076 5.8478q-0.11918 2.397 2.2779 2.5162l7.7329 0.38449q2.397 0.11918 2.5162-2.2779z" clip-path="url(#a)" fill="#fff" stroke="#fff"/>
<g clip-path="url(#a)">
<g transform="translate(178.29 444.42) rotate(-87.154) scale(.08 -.08)">
<use xlink:href="#q"/>
</g>
</g>
<path d="m380.08 360 4.4642-4.0332q1.7808-1.6089 0.17193-3.3898l-5.1904-5.7451q-1.6089-1.7808-3.3898-0.17193l-4.4642 4.0332q-1.7808 1.6089-0.17193 3.3898l5.1904 5.7451q1.6089 1.7808 3.3898 0.17193z" clip-path="url(#a)" fill="#fff" stroke="#fff"/>
<g clip-path="url(#a)">
<g transform="translate(377.35 356.98) rotate(-42.096) scale(.08 -.08)">
<use xlink:href="#ai"/>
</g>
</g>
<path d="m534.89 484.31 0.24788 4.4506q0.13346 2.3963 2.5297 2.2628l7.7305-0.43056q2.3963-0.13346 2.2628-2.5297l-0.24788-4.4506q-0.13346-2.3963-2.5297-2.2628l-7.7305 0.43056q-2.3963 0.13346-2.2628 2.5297z" clip-path="url(#a)" fill="#fff" stroke="#fff"/>
<g clip-path="url(#a)">
<defs>
<path id="am" d="m9.8125 72.906h9.8594v-64.609h35.5v-8.2969h-45.359z"/>
</defs>
<g transform="translate(538.94 484.09) rotate(86.812) scale(.08 -.08)">
<use xlink:href="#am"/>
</g>
</g>
<path d="m664.64 269.17 5.7417 1.7968q2.2905 0.71678 3.0072-1.5737l2.3124-7.3891q0.71678-2.2905-1.5737-3.0072l-5.7417-1.7968q-2.2905-0.71679-3.0072 1.5737l-2.3124 7.3891q-0.71679 2.2905 1.5737 3.0072z" clip-path="url(#a)" fill="#fff" stroke="#fff"/>
<g clip-path="url(#a)">
<g transform="translate(665.85 265.29) rotate(17.377) scale(.08 -.08)">
<use xlink:href="#ai"/>
</g>
</g>
<path d="m523.04 489.34 0.20895-5.8513q0.08565-2.3985-2.3128-2.4841l-7.7376-0.27631q-2.3985-0.085651-2.4841 2.3128l-0.20895 5.8513q-0.085651 2.3985 2.3128 2.4841l7.7376 0.27631q2.3985 0.08565 2.4841-2.3128z" clip-path="url(#a)" fill="#fff" stroke="#fff"/>
<g clip-path="url(#a)">
<g transform="translate(518.98 489.2) rotate(-87.955) scale(.08 -.08)">
<use xlink:href="#q"/>
</g>
</g>
<path d="m115.94 779.62v33.808q0 2.4 2.4 2.4h7.7425q2.4 0 2.4-2.4v-33.808q0-2.4-2.4-2.4h-7.7425q-2.4 0-2.4 2.4z" clip-path="url(#a)" fill="#fff" stroke="#fff"/>
<g clip-path="url(#a)">
<defs>
<path id="l" d="m-0.29688 72.906h61.672v-8.3125h-25.875v-64.594h-9.9062v64.594h-25.891z"/>
<path id="d" d="m56.203 29.594v-4.3906h-41.312q0.59375-9.2812 5.5938-14.141t13.938-4.8594q5.1719 0 10.031 1.2656t9.6562 3.8125v-8.5q-4.8438-2.0469-9.9219-3.125t-10.297-1.0781q-13.094 0-20.734 7.6094-7.6406 7.625-7.6406 20.625 0 13.422 7.25 21.297 7.25 7.8906 19.562 7.8906 11.031 0 17.453-7.1094 6.4219-7.0938 6.4219-19.297zm-8.9844 2.6406q-0.09375 7.3594-4.125 11.75-4.0312 4.4062-10.672 4.4062-7.5156 0-12.031-4.25t-5.2031-11.969z"/>
<path id="g" d="m41.109 46.297q-1.5156 0.875-3.2969 1.2812-1.7812 0.42188-3.9219 0.42188-7.625 0-11.703-4.9531t-4.0781-14.234v-28.812h-9.0312v54.688h9.0312v-8.5q2.8438 4.9844 7.375 7.3906 4.5469 2.4219 11.047 2.4219 0.92188 0 2.0469-0.125 1.125-0.10938 2.4844-0.35938z"/>
<path id="i" d="m52 44.188q3.375 6.0625 8.0625 8.9375t11.031 2.875q8.5469 0 13.188-5.9844 4.6406-5.9688 4.6406-17v-33.016h-9.0312v32.719q0 7.8594-2.7969 11.656-2.7812 3.8125-8.4844 3.8125-6.9844 0-11.047-4.6406-4.0469-4.625-4.0469-12.641v-30.906h-9.0312v32.719q0 7.9062-2.7812 11.688t-8.5938 3.7812q-6.8906 0-10.953-4.6562-4.0469-4.6562-4.0469-12.625v-30.906h-9.0312v54.688h9.0312v-8.5q3.0781 5.0312 7.375 7.4219t10.203 2.3906q5.9688 0 10.141-3.0312 4.1719-3.0156 6.1719-8.7812z"/>
<path id="h" d="m9.4219 54.688h8.9844v-54.688h-8.9844zm0 21.297h8.9844v-11.391h-8.9844z"/>
<path id="f" d="m54.891 33.016v-33.016h-8.9844v32.719q0 7.7656-3.0312 11.609-3.0312 3.8594-9.0781 3.8594-7.2812 0-11.484-4.6406-4.2031-4.625-4.2031-12.641v-30.906h-9.0312v54.688h9.0312v-8.5q3.2344 4.9375 7.5938 7.375 4.375 2.4375 10.094 2.4375 9.4219 0 14.25-5.8281 4.8438-5.8281 4.8438-17.156z"/>
<path id="j" d="m34.281 27.484q-10.891 0-15.094-2.4844t-4.2031-8.5q0-4.7812 3.1562-7.5938 3.1562-2.7969 8.5625-2.7969 7.4844 0 12 5.2969t4.5156 14.078v2zm17.922 3.7188v-31.203h-8.9844v8.2969q-3.0781-4.9688-7.6719-7.3438t-11.234-2.375q-8.3906 0-13.359 4.7188-4.9531 4.7188-4.9531 12.625 0 9.2188 6.1719 13.906 6.1875 4.6875 18.438 4.6875h12.609v0.89062q0 6.2031-4.0781 9.5938t-11.453 3.3906q-4.6875 0-9.1406-1.125-4.4375-1.125-8.5312-3.375v8.3125q4.9219 1.9062 9.5625 2.8438 4.6406 0.95312 9.0312 0.95312 11.875 0 17.734-6.1562 5.8594-6.1406 5.8594-18.641z"/>
<path id="k" d="m9.4219 75.984h8.9844v-75.984h-8.9844z"/>
</defs>
<g transform="translate(120.01 779.62) rotate(90) scale(.08 -.08)">
<use xlink:href="#l"/>
<use x="44.083984" xlink:href="#d"/>
<use x="105.607422" xlink:href="#g"/>
<use x="144.970703" xlink:href="#i"/>
<use x="242.382812" xlink:href="#h"/>
<use x="270.166016" xlink:href="#f"/>
<use x="333.544922" xlink:href="#j"/>
<use x="394.824219" xlink:href="#k"/>
</g>
</g>
<path d="m133.92 779.62v33.808q0 2.4 2.4 2.4h7.7425q2.4 0 2.4-2.4v-33.808q0-2.4-2.4-2.4h-7.7425q-2.4 0-2.4 2.4z" clip-path="url(#a)" fill="#fff" stroke="#fff"/>
<g clip-path="url(#a)">
<g transform="translate(137.98 779.62) rotate(90) scale(.08 -.08)">
<use xlink:href="#l"/>
<use x="44.083984" xlink:href="#d"/>
<use x="105.607422" xlink:href="#g"/>
<use x="144.970703" xlink:href="#i"/>
<use x="242.382812" xlink:href="#h"/>
<use x="270.166016" xlink:href="#f"/>
<use x="333.544922" xlink:href="#j"/>
<use x="394.824219" xlink:href="#k"/>
</g>
</g>
<path d="m157.62 582.51 3.9994-4.7359q1.5485-1.8336-0.28517-3.3821l-5.9154-4.9954q-1.8336-1.5485-3.3821 0.28517l-3.9994 4.7359q-1.5485 1.8336 0.28517 3.3821l5.9154 4.9954q1.8336 1.5485 3.3821-0.28517z" clip-path="url(#a)" fill="#fff" stroke="#fff"/>
<g clip-path="url(#a)">
<defs>
<path id="at" d="m59.516 10.406v19.578h-16.109v8.1094h25.875v-31.312q-5.7031-4.0469-12.594-6.125-6.875-2.0781-14.688-2.0781-17.094 0-26.75 9.9844-9.6406 10-9.6406 27.812 0 17.875 9.6406 27.859 9.6562 9.9844 26.75 9.9844 7.125 0 13.547-1.7656 6.4219-1.75 11.844-5.1719v-10.5q-5.4688 4.6406-11.625 6.9844t-12.938 2.3438q-13.391 0-20.109-7.4688-6.7031-7.4688-6.7031-22.266 0-14.75 6.7031-22.219 6.7188-7.4688 20.109-7.4688 5.2188 0 9.3125 0.90625 4.1094 0.90625 7.375 2.8125z"/>
</defs>
<g transform="translate(154.51 579.89) rotate(-49.82) scale(.08 -.08)">
<use xlink:href="#at"/>
</g>
</g>
<path d="m212.53 623.94 0.93266-5.3924q0.40903-2.3649-1.9559-2.7739l-7.6292-1.3195q-2.3649-0.40902-2.7739 1.9559l-0.93266 5.3924q-0.40903 2.3649 1.9559 2.7739l7.6292 1.3195q2.3649 0.40903 2.7739-1.9559z" clip-path="url(#a)" fill="#fff" stroke="#fff"/>
<g clip-path="url(#a)">
<g transform="translate(208.53 623.25) rotate(-80.187) scale(.08 -.08)">
<use xlink:href="#r"/>
</g>
</g>
<path d="m225.67 623.73 0.46885-6.1421q0.18267-2.393-2.2104-2.5757l-7.72-0.5893q-2.393-0.18267-2.5757 2.2104l-0.46885 6.1421q-0.18267 2.393 2.2104 2.5757l7.72 0.5893q2.393 0.18267 2.5757-2.2104z" clip-path="url(#a)" fill="#fff" stroke="#fff"/>
<g clip-path="url(#a)">
<defs>
<path id="au" d="m19.672 64.797v-56.688h11.922q15.094 0 22.094 6.8281 7 6.8438 7 21.594 0 14.641-7 21.453t-22.094 6.8125zm-9.8594 8.1094h20.266q21.188 0 31.094-8.8125 9.9219-8.8125 9.9219-27.562 0-18.859-9.9688-27.703-9.9531-8.8281-31.047-8.8281h-20.266z"/>
</defs>
<g transform="translate(221.62 623.42) rotate(-85.635) scale(.08 -.08)">
<use xlink:href="#au"/>
</g>
</g>
<path d="m282.91 620.56 1.9805 4.3984q0.98537 2.1884 3.1738 1.203l7.0598-3.1788q2.1884-0.98537 1.203-3.1738l-1.9805-4.3984q-0.98537-2.1884-3.1738-1.203l-7.0598 3.1788q-2.1884 0.98536-1.203 3.1738z" clip-path="url(#a)" fill="#fff" stroke="#fff"/>
<g clip-path="url(#a)">
<g transform="translate(286.62 618.89) rotate(65.759) scale(.08 -.08)">
<use xlink:href="#aa"/>
</g>
</g>
<path d="m271.81 534.54 4.025 3.7078q1.7652 1.6261 3.3913-0.13914l5.2457-5.6946q1.6261-1.7652-0.13914-3.3913l-4.025-3.7078q-1.7652-1.6261-3.3913 0.13914l-5.2457 5.6946q-1.6261 1.7652 0.13914 3.3913z" clip-path="url(#a)" fill="#fff" stroke="#fff"/>
<g clip-path="url(#a)">
<g transform="translate(274.56 531.55) rotate(42.651) scale(.08 -.08)">
<use xlink:href="#r"/>
</g>
</g>
<path d="m549.86 779.62v33.808q0 2.4 2.4 2.4h7.7425q2.4 0 2.4-2.4v-33.808q0-2.4-2.4-2.4h-7.7425q-2.4 0-2.4 2.4z" clip-path="url(#a)" fill="#fff" stroke="#fff"/>
<g clip-path="url(#a)">
<g transform="translate(553.93 779.62) rotate(90) scale(.08 -.08)">
<use xlink:href="#l"/>
<use x="44.083984" xlink:href="#d"/>
<use x="105.607422" xlink:href="#g"/>
<use x="144.970703" xlink:href="#i"/>
<use x="242.382812" xlink:href="#h"/>
<use x="270.166016" xlink:href="#f"/>
<use x="333.544922" xlink:href="#j"/>
<use x="394.824219" xlink:href="#k"/>
</g>
</g>
<path d="m714.47 536.04 2.2919-4.9695q1.0051-2.1794-1.1743-3.1845l-7.0308-3.2426q-2.1794-1.0051-3.1845 1.1743l-2.2919 4.9695q-1.0051 2.1794 1.1743 3.1845l7.0308 3.2426q2.1794 1.0051 3.1845-1.1743z" clip-path="url(#a)" fill="#fff" stroke="#fff"/>
<g clip-path="url(#a)">
<g transform="translate(710.78 534.34) rotate(-65.241) scale(.08 -.08)">
<use xlink:href="#r"/>
</g>
</g>
<path d="m742.04 535.24 1.552-4.5673q0.77219-2.2724-1.5002-3.0446l-7.3308-2.4911q-2.2724-0.77219-3.0446 1.5002l-1.552 4.5673q-0.77219 2.2724 1.5002 3.0446l7.3308 2.4911q2.2724 0.77219 3.0446-1.5002z" clip-path="url(#a)" fill="#fff" stroke="#fff"/>
<g clip-path="url(#a)">
<g transform="translate(738.2 533.93) rotate(-71.232) scale(.08 -.08)">
<use xlink:href="#aa"/>
</g>
</g>
<path d="m1033.6 359.11 5.3679 1.065q2.3541 0.46705 2.8212-1.8871l1.5067-7.5945q0.46705-2.3541-1.8871-2.8212l-5.3679-1.065q-2.3541-0.46705-2.8212 1.8871l-1.5067 7.5945q-0.46705 2.3541 1.8871 2.8212z" clip-path="url(#a)" fill="#fff" stroke="#fff"/>
<g clip-path="url(#a)">
<g transform="translate(1034.4 355.13) rotate(11.222) scale(.08 -.08)">
<use xlink:href="#r"/>
</g>
</g>
<path d="m770.65 535.1 1.2179-5.7269q0.49921-2.3475-1.8483-2.8467l-7.5732-1.6105q-2.3475-0.49921-2.8467 1.8483l-1.2179 5.7269q-0.49921 2.3475 1.8483 2.8467l7.5732 1.6105q2.3475 0.49921 2.8467-1.8483z" clip-path="url(#a)" fill="#fff" stroke="#fff"/>
<g clip-path="url(#a)">
<g transform="translate(766.67 534.26) rotate(-77.995) scale(.08 -.08)">
<use xlink:href="#q"/>
</g>
</g>
<path d="m601.22 779.62v33.808q0 2.4 2.4 2.4h7.7425q2.4 0 2.4-2.4v-33.808q0-2.4-2.4-2.4h-7.7425q-2.4 0-2.4 2.4z" clip-path="url(#a)" fill="#fff" stroke="#fff"/>
<g clip-path="url(#a)">
<g transform="translate(605.28 779.62) rotate(90) scale(.08 -.08)">
<use xlink:href="#l"/>
<use x="44.083984" xlink:href="#d"/>
<use x="105.607422" xlink:href="#g"/>
<use x="144.970703" xlink:href="#i"/>
<use x="242.382812" xlink:href="#h"/>
<use x="270.166016" xlink:href="#f"/>
<use x="333.544922" xlink:href="#j"/>
<use x="394.824219" xlink:href="#k"/>
</g>
</g>
<path d="m655.13 779.62v33.808q0 2.4 2.4 2.4h7.7425q2.4 0 2.4-2.4v-33.808q0-2.4-2.4-2.4h-7.7425q-2.4 0-2.4 2.4z" clip-path="url(#a)" fill="#fff" stroke="#fff"/>
<g clip-path="url(#a)">
<g transform="translate(659.2 779.62) rotate(90) scale(.08 -.08)">
<use xlink:href="#l"/>
<use x="44.083984" xlink:href="#d"/>
<use x="105.607422" xlink:href="#g"/>
<use x="144.970703" xlink:href="#i"/>
<use x="242.382812" xlink:href="#h"/>
<use x="270.166016" xlink:href="#f"/>
<use x="333.544922" xlink:href="#j"/>
<use x="394.824219" xlink:href="#k"/>
</g>
</g>
<path d="m1059 494.05 5.0143-2.192q2.1991-0.96131 1.2378-3.1604l-3.1012-7.0943q-0.96131-2.1991-3.1604-1.2378l-5.0143 2.192q-2.1991 0.96131-1.2378 3.1604l3.1012 7.0943q0.96131 2.1991 3.1604 1.2378z" clip-path="url(#a)" fill="#fff" stroke="#fff"/>
<g clip-path="url(#a)">
<g transform="translate(1057.3 490.32) rotate(-23.612) scale(.08 -.08)">
<use xlink:href="#r"/>
</g>
</g>
<path d="m1214.5 579.72 1.3923-4.6185q0.69271-2.2979-1.6052-2.9906l-7.413-2.2347q-2.2979-0.69271-2.9906 1.6052l-1.3923 4.6185q-0.69271 2.2979 1.6052 2.9906l7.413 2.2347q2.2979 0.69271 2.9906-1.6052z" clip-path="url(#a)" fill="#fff" stroke="#fff"/>
<g clip-path="url(#a)">
<g transform="translate(1210.6 578.55) rotate(-73.224) scale(.08 -.08)">
<use xlink:href="#aa"/>
</g>
</g>
<path d="m1149.2 449.58 5.0918-2.0054q2.2331-0.87947 1.3536-3.1125l-2.8372-7.2039q-0.87947-2.2331-3.1125-1.3536l-5.0918 2.0054q-2.2331 0.87947-1.3536 3.1125l2.8372 7.2039q0.87947 2.2331 3.1125 1.3536z" clip-path="url(#a)" fill="#fff" stroke="#fff"/>
<g clip-path="url(#a)">
<g transform="translate(1147.7 445.79) rotate(-21.497) scale(.08 -.08)">
<use xlink:href="#r"/>
</g>
</g>
<path d="m1336.4 575.53 2.423 5.3301q0.99322 2.1848 3.1781 1.1916l7.0484-3.2042q2.1848-0.99322 1.1916-3.1781l-2.423-5.3301q-0.99322-2.1848-3.1781-1.1916l-7.0484 3.2042q-2.1848 0.99322-1.1916 3.1781z" clip-path="url(#a)" fill="#fff" stroke="#fff"/>
<g clip-path="url(#a)">
<g transform="translate(1340.1 573.85) rotate(65.554) scale(.08 -.08)">
<use xlink:href="#q"/>
</g>
</g>
<path d="m1378.9 576.77 3.3361 4.8116q1.3675 1.9723 3.3398 0.6048l6.3627-4.4116q1.9723-1.3675 0.6048-3.3398l-3.3361-4.8116q-1.3675-1.9723-3.3398-0.6048l-6.3627 4.4116q-1.9723 1.3675-0.6048 3.3398z" clip-path="url(#a)" fill="#fff" stroke="#fff"/>
<g clip-path="url(#a)">
<g transform="translate(1382.2 574.45) rotate(55.264) scale(.08 -.08)">
<use xlink:href="#q"/>
</g>
</g>
<path d="m1422.7 577.76 4.0087 4.2675q1.6432 1.7493 3.3925 0.10611l5.6433-5.3009q1.7493-1.6432 0.10611-3.3925l-4.0087-4.2675q-1.6432-1.7493-3.3925-0.10611l-5.6433 5.3009q-1.7493 1.6432-0.10611 3.3925z" clip-path="url(#a)" fill="#fff" stroke="#fff"/>
<g clip-path="url(#a)">
<g transform="translate(1425.7 574.98) rotate(46.792) scale(.08 -.08)">
<use xlink:href="#q"/>
</g>
</g>
<path d="m835.84 625.75 2.3879-4.4555q1.1337-2.1154-0.98165-3.2491l-6.8242-3.6574q-2.1154-1.1337-3.2491 0.98165l-2.3879 4.4555q-1.1337 2.1154 0.98165 3.2491l6.8242 3.6574q2.1154 1.1337 3.2491-0.98165z" clip-path="url(#a)" fill="#fff" stroke="#fff"/>
<g clip-path="url(#a)">
<defs>
<path id="x" d="m9.8125 72.906h46.094v-8.3125h-36.234v-21.578h34.719v-8.2969h-34.719v-26.422h37.109v-8.2969h-46.969z"/>
</defs>
<g transform="translate(832.26 623.83) rotate(-61.811) scale(.08 -.08)">
<use xlink:href="#x"/>
</g>
</g>
<path d="m872.23 663.57 1.4495 5.3949q0.62273 2.3178 2.9405 1.6951l7.4773-2.0089q2.3178-0.62273 1.6951-2.9405l-1.4495-5.3949q-0.62273-2.3178-2.9405-1.6951l-7.4773 2.0089q-2.3178 0.62273-1.6951 2.9405z" clip-path="url(#a)" fill="#fff" stroke="#fff"/>
<g clip-path="url(#a)">
<defs>
<path id="t" d="m64.406 67.281v-10.391q-4.9844 4.6406-10.625 6.9219-5.6406 2.2969-11.984 2.2969-12.5 0-19.141-7.6406t-6.6406-22.094q0-14.406 6.6406-22.047t19.141-7.6406q6.3438 0 11.984 2.2969t10.625 6.9375v-10.312q-5.1719-3.5156-10.969-5.2812-5.7812-1.75-12.219-1.75-16.562 0-26.094 10.125-9.5156 10.141-9.5156 27.672 0 17.578 9.5156 27.703 9.5312 10.141 26.094 10.141 6.5312 0 12.312-1.7344 5.7969-1.7344 10.875-5.2031z"/>
</defs>
<g transform="translate(876.15 662.52) rotate(74.961) scale(.08 -.08)">
<use xlink:href="#t"/>
</g>
</g>
<path d="m1049.9 809.36 30.63-14.309q2.1744-1.0158 1.1587-3.1902l-3.2769-7.0149q-1.0158-2.1744-3.1902-1.1587l-30.63 14.309q-2.1744 1.0158-1.1587 3.1902l3.2769 7.0149q1.0158 2.1744 3.1902 1.1587z" clip-path="url(#a)" fill="#fff" stroke="#fff"/>
<g clip-path="url(#a)">
<g transform="translate(1048.2 805.68) rotate(-25.039) scale(.08 -.08)">
<use xlink:href="#l"/>
<use x="44.083984" xlink:href="#d"/>
<use x="105.607422" xlink:href="#g"/>
<use x="144.970703" xlink:href="#i"/>
<use x="242.382812" xlink:href="#h"/>
<use x="270.166016" xlink:href="#f"/>
<use x="333.544922" xlink:href="#j"/>
<use x="394.824219" xlink:href="#k"/>
</g>
</g>
<path d="m1230.8 795.05 30.63 14.309q2.1744 1.0158 3.1902-1.1587l3.2769-7.0149q1.0158-2.1744-1.1587-3.1902l-30.63-14.309q-2.1744-1.0158-3.1902 1.1587l-3.2769 7.0149q-1.0158 2.1744 1.1587 3.1902z" clip-path="url(#a)" fill="#fff" stroke="#fff"/>
<g clip-path="url(#a)">
<g transform="translate(1232.5 791.37) rotate(25.039) scale(.08 -.08)">
<use xlink:href="#l"/>
<use x="44.083984" xlink:href="#d"/>
<use x="105.607422" xlink:href="#g"/>
<use x="144.970703" xlink:href="#i"/>
<use x="242.382812" xlink:href="#h"/>
<use x="270.166016" xlink:href="#f"/>
<use x="333.544922" xlink:href="#j"/>
<use x="394.824219" xlink:href="#k"/>
</g>
</g>
<path d="m1031.3 617.94 0.044457 4.601q0.023189 2.3999 2.4231 2.3767l7.7421-0.074808q2.3999-0.023188 2.3767-2.4231l-0.044457-4.601q-0.023189-2.3999-2.4231-2.3767l-7.7421 0.074808q-2.3999 0.023189-2.3767 2.4231z" clip-path="url(#a)" fill="#fff" stroke="#fff"/>
<g clip-path="url(#a)">
<defs>
<path id="an" d="m9.8125 72.906h41.891v-8.3125h-32.031v-21.484h28.906v-8.2969h-28.906v-34.812h-9.8594z"/>
</defs>
<g transform="translate(1035.3 617.9) rotate(89.446) scale(.08 -.08)">
<use xlink:href="#an"/>
</g>
</g>
<path d="m1096.1 535.55 4.1818 2.84q1.9854 1.3484 3.3338-0.63704l4.3499-6.405q1.3484-1.9854-0.63704-3.3338l-4.1818-2.84q-1.9854-1.3484-3.3338 0.63704l-4.3499 6.405q-1.3484 1.9854 0.63704 3.3338z" clip-path="url(#a)" fill="#fff" stroke="#fff"/>
<g clip-path="url(#a)">
<g transform="translate(1098.4 532.19) rotate(34.182) scale(.08 -.08)">
<use xlink:href="#x"/>
</g>
</g>
<path d="m973.86 625.49 2.508-4.9916q1.0775-2.1445-1.067-3.222l-6.9183-3.4761q-2.1445-1.0775-3.222 1.067l-2.508 4.9916q-1.0775 2.1445 1.067 3.222l6.9183 3.4761q2.1445 1.0775 3.222-1.067z" clip-path="url(#a)" fill="#fff" stroke="#fff"/>
<g clip-path="url(#a)">
<g transform="translate(970.23 623.67) rotate(-63.323) scale(.08 -.08)">
<use xlink:href="#t"/>
</g>
</g>
<path d="m1032.6 779.62v33.808q0 2.4 2.4 2.4h7.7425q2.4 0 2.4-2.4v-33.808q0-2.4-2.4-2.4h-7.7425q-2.4 0-2.4 2.4z" clip-path="url(#a)" fill="#fff" stroke="#fff"/>
<g clip-path="url(#a)">
<g transform="translate(1036.6 779.62) rotate(90) scale(.08 -.08)">
<use xlink:href="#l"/>
<use x="44.083984" xlink:href="#d"/>
<use x="105.607422" xlink:href="#g"/>
<use x="144.970703" xlink:href="#i"/>
<use x="242.382812" xlink:href="#h"/>
<use x="270.166016" xlink:href="#f"/>
<use x="333.544922" xlink:href="#j"/>
<use x="394.824219" xlink:href="#k"/>
</g>
</g>
<path d="m1144.1 669.2 1.6918-5.2951q0.73043-2.2861-1.5557-3.0166l-7.3752-2.3564q-2.2861-0.73043-3.0166 1.5557l-1.6918 5.2951q-0.73043 2.2861 1.5557 3.0166l7.3752 2.3564q2.2861 0.73043 3.0166-1.5557z" clip-path="url(#a)" fill="#fff" stroke="#fff"/>
<g clip-path="url(#a)">
<defs>
<path id="ae" d="m44.391 34.188q3.1719-1.0781 6.1719-4.5938t6.0312-9.6719l10.016-19.922h-10.609l-9.3125 18.703q-3.625 7.3281-7.0156 9.7188t-9.25 2.3906h-10.75v-30.812h-9.8594v72.906h22.266q12.5 0 18.656-5.2344 6.1562-5.2188 6.1562-15.766 0-6.8906-3.2031-11.438-3.2031-4.5312-9.2969-6.2812zm-24.719 30.609v-25.875h12.406q7.125 0 10.766 3.2969t3.6406 9.6875-3.6406 9.6406-10.766 3.25z"/>
</defs>
<g transform="translate(1140.2 667.96) rotate(-72.281) scale(.08 -.08)">
<use xlink:href="#ae"/>
</g>
</g>
<path d="m1186.6 618.52 6.9823 10.955q1.2899 2.0239 3.3138 0.734l6.7463-4.2997q2.0239-1.2899 0.734-3.3138l-6.9823-10.955q-1.2899-2.0239-3.3138-0.734l-6.7463 4.2997q-2.0239 1.2899-0.734 3.3138z" clip-path="url(#a)" fill="#fff" stroke="#fff"/>
<g clip-path="url(#a)">
<defs>
<path id="ax" d="m21 76.422v-100h-8.2969v100z"/>
</defs>
<g transform="translate(1190.2 616.22) rotate(57.489) scale(.08 -.08)">
<use xlink:href="#r"/>
<use x="68.408203" xlink:href="#ax"/>
<use x="102.099609" xlink:href="#aa"/>
</g>
</g>
<path d="m1104.5 779.62v33.808q0 2.4 2.4 2.4h7.7425q2.4 0 2.4-2.4v-33.808q0-2.4-2.4-2.4h-7.7425q-2.4 0-2.4 2.4z" clip-path="url(#a)" fill="#fff" stroke="#fff"/>
<g clip-path="url(#a)">
<g transform="translate(1108.5 779.62) rotate(90) scale(.08 -.08)">
<use xlink:href="#l"/>
<use x="44.083984" xlink:href="#d"/>
<use x="105.607422" xlink:href="#g"/>
<use x="144.970703" xlink:href="#i"/>
<use x="242.382812" xlink:href="#h"/>
<use x="270.166016" xlink:href="#f"/>
<use x="333.544922" xlink:href="#j"/>
<use x="394.824219" xlink:href="#k"/>
</g>
</g>
<path d="m1209.2 713.79 2.0235-4.6323q0.96072-2.1993-1.2386-3.16l-7.0951-3.0993q-2.1993-0.96072-3.16 1.2386l-2.0235 4.6323q-0.96072 2.1993 1.2386 3.16l7.0951 3.0993q2.1993 0.96072 3.16-1.2386z" clip-path="url(#a)" fill="#fff" stroke="#fff"/>
<g clip-path="url(#a)">
<g transform="translate(1205.5 712.16) rotate(-66.403) scale(.08 -.08)">
<use xlink:href="#x"/>
</g>
</g>
<path d="m1236.1 708.91 2.2362 5.1192q0.96072 2.1993 3.16 1.2386l7.0951-3.0993q2.1993-0.96072 1.2386-3.16l-2.2362-5.1192q-0.96072-2.1993-3.16-1.2386l-7.0951 3.0993q-2.1993 0.96072-1.2386 3.16z" clip-path="url(#a)" fill="#fff" stroke="#fff"/>
<g clip-path="url(#a)">
<g transform="translate(1239.8 707.28) rotate(66.403) scale(.08 -.08)">
<use xlink:href="#t"/>
</g>
</g>
<path d="m1178.9 779.62v33.808q0 2.4 2.4 2.4h7.7425q2.4 0 2.4-2.4v-33.808q0-2.4-2.4-2.4h-7.7425q-2.4 0-2.4 2.4z" clip-path="url(#a)" fill="#fff" stroke="#fff"/>
<g clip-path="url(#a)">
<g transform="translate(1183 779.62) rotate(90) scale(.08 -.08)">
<use xlink:href="#l"/>
<use x="44.083984" xlink:href="#d"/>
<use x="105.607422" xlink:href="#g"/>
<use x="144.970703" xlink:href="#i"/>
<use x="242.382812" xlink:href="#h"/>
<use x="270.166016" xlink:href="#f"/>
<use x="333.544922" xlink:href="#j"/>
<use x="394.824219" xlink:href="#k"/>
</g>
</g>
<path d="m1255.9 779.62v33.808q0 2.4 2.4 2.4h7.7425q2.4 0 2.4-2.4v-33.808q0-2.4-2.4-2.4h-7.7425q-2.4 0-2.4 2.4z" clip-path="url(#a)" fill="#fff" stroke="#fff"/>
<g clip-path="url(#a)">
<g transform="translate(1260 779.62) rotate(90) scale(.08 -.08)">
<use xlink:href="#l"/>
<use x="44.083984" xlink:href="#d"/>
<use x="105.607422" xlink:href="#g"/>
<use x="144.970703" xlink:href="#i"/>
<use x="242.382812" xlink:href="#h"/>
<use x="270.166016" xlink:href="#f"/>
<use x="333.544922" xlink:href="#j"/>
<use x="394.824219" xlink:href="#k"/>
</g>
</g>
<path d="m797.44 713.41 1.6676-4.772q0.79175-2.2656-1.4739-3.0574l-7.3091-2.5542q-2.2656-0.79175-3.0574 1.4739l-1.6676 4.772q-0.79175 2.2656 1.4739 3.0574l7.3091 2.5542q2.2656 0.79175 3.0574-1.4739z" clip-path="url(#a)" fill="#fff" stroke="#fff"/>
<g clip-path="url(#a)">
<g transform="translate(793.6 712.07) rotate(-70.737) scale(.08 -.08)">
<use xlink:href="#x"/>
</g>
</g>
<path d="m816.32 708.39 1.8429 5.2735q0.79175 2.2656 3.0574 1.4739l7.3091-2.5542q2.2656-0.79175 1.4739-3.0574l-1.8429-5.2735q-0.79175-2.2656-3.0574-1.4739l-7.3091 2.5542q-2.2656 0.79175-1.4739 3.0574z" clip-path="url(#a)" fill="#fff" stroke="#fff"/>
<g clip-path="url(#a)">
<g transform="translate(820.16 707.05) rotate(70.737) scale(.08 -.08)">
<use xlink:href="#t"/>
</g>
</g>
<path d="m896.49 779.62v33.808q0 2.4 2.4 2.4h7.7425q2.4 0 2.4-2.4v-33.808q0-2.4-2.4-2.4h-7.7425q-2.4 0-2.4 2.4z" clip-path="url(#a)" fill="#fff" stroke="#fff"/>
<g clip-path="url(#a)">
<g transform="translate(900.55 779.62) rotate(90) scale(.08 -.08)">
<use xlink:href="#l"/>
<use x="44.083984" xlink:href="#d"/>
<use x="105.607422" xlink:href="#g"/>
<use x="144.970703" xlink:href="#i"/>
<use x="242.382812" xlink:href="#h"/>
<use x="270.166016" xlink:href="#f"/>
<use x="333.544922" xlink:href="#j"/>
<use x="394.824219" xlink:href="#k"/>
</g>
</g>
<path d="m770.67 779.62v33.808q0 2.4 2.4 2.4h7.7425q2.4 0 2.4-2.4v-33.808q0-2.4-2.4-2.4h-7.7425q-2.4 0-2.4 2.4z" clip-path="url(#a)" fill="#fff" stroke="#fff"/>
<g clip-path="url(#a)">
<g transform="translate(774.74 779.62) rotate(90) scale(.08 -.08)">
<use xlink:href="#l"/>
<use x="44.083984" xlink:href="#d"/>
<use x="105.607422" xlink:href="#g"/>
<use x="144.970703" xlink:href="#i"/>
<use x="242.382812" xlink:href="#h"/>
<use x="270.166016" xlink:href="#f"/>
<use x="333.544922" xlink:href="#j"/>
<use x="394.824219" xlink:href="#k"/>
</g>
</g>
<path d="m832.3 779.62v33.808q0 2.4 2.4 2.4h7.7425q2.4 0 2.4-2.4v-33.808q0-2.4-2.4-2.4h-7.7425q-2.4 0-2.4 2.4z" clip-path="url(#a)" fill="#fff" stroke="#fff"/>
<g clip-path="url(#a)">
<g transform="translate(836.36 779.62) rotate(90) scale(.08 -.08)">
<use xlink:href="#l"/>
<use x="44.083984" xlink:href="#d"/>
<use x="105.607422" xlink:href="#g"/>
<use x="144.970703" xlink:href="#i"/>
<use x="242.382812" xlink:href="#h"/>
<use x="270.166016" xlink:href="#f"/>
<use x="333.544922" xlink:href="#j"/>
<use x="394.824219" xlink:href="#k"/>
</g>
</g>
<path d="m84.081 711.76 0.2206-5.0502q0.10474-2.3977-2.293-2.5025l-7.7351-0.33789q-2.3977-0.10474-2.5025 2.293l-0.2206 5.0502q-0.10474 2.3977 2.293 2.5025l7.7351 0.33789q2.3977 0.10474 2.5025-2.293z" clip-path="url(#a)" fill="#fff" stroke="#fff"/>
<g clip-path="url(#a)">
<g transform="translate(80.021 711.58) rotate(-87.499) scale(.08 -.08)">
<use xlink:href="#x"/>
</g>
</g>
<path d="m75.39 706.44 0.24379 5.5809q0.10474 2.3977 2.5025 2.293l7.7351-0.33789q2.3977-0.10474 2.293-2.5025l-0.24379-5.5809q-0.10474-2.3977-2.5025-2.293l-7.7351 0.33789q-2.3977 0.10474-2.293 2.5025z" clip-path="url(#a)" fill="#fff" stroke="#fff"/>
<g clip-path="url(#a)">
<g transform="translate(79.45 706.27) rotate(87.499) scale(.08 -.08)">
<use xlink:href="#t"/>
</g>
</g>
<path d="m177.57 779.62v33.808q0 2.4 2.4 2.4h7.7425q2.4 0 2.4-2.4v-33.808q0-2.4-2.4-2.4h-7.7425q-2.4 0-2.4 2.4z" clip-path="url(#a)" fill="#fff" stroke="#fff"/>
<g clip-path="url(#a)">
<g transform="translate(181.63 779.62) rotate(90) scale(.08 -.08)">
<use xlink:href="#l"/>
<use x="44.083984" xlink:href="#d"/>
<use x="105.607422" xlink:href="#g"/>
<use x="144.970703" xlink:href="#i"/>
<use x="242.382812" xlink:href="#h"/>
<use x="270.166016" xlink:href="#f"/>
<use x="333.544922" xlink:href="#j"/>
<use x="394.824219" xlink:href="#k"/>
</g>
</g>
<path d="m203.24 779.62v33.808q0 2.4 2.4 2.4h7.7425q2.4 0 2.4-2.4v-33.808q0-2.4-2.4-2.4h-7.7425q-2.4 0-2.4 2.4z" clip-path="url(#a)" fill="#fff" stroke="#fff"/>
<g clip-path="url(#a)">
<g transform="translate(207.31 779.62) rotate(90) scale(.08 -.08)">
<use xlink:href="#l"/>
<use x="44.083984" xlink:href="#d"/>
<use x="105.607422" xlink:href="#g"/>
<use x="144.970703" xlink:href="#i"/>
<use x="242.382812" xlink:href="#h"/>
<use x="270.166016" xlink:href="#f"/>
<use x="333.544922" xlink:href="#j"/>
<use x="394.824219" xlink:href="#k"/>
</g>
</g>
<path d="m284.12 811.85 26.676-20.769q1.8937-1.4744 0.41934-3.3681l-4.7564-6.1092q-1.4744-1.8937-3.3681-0.41934l-26.676 20.769q-1.8937 1.4744-0.41934 3.3681l4.7564 6.1092q1.4744 1.8937 3.3681 0.41934z" clip-path="url(#a)" fill="#fff" stroke="#fff"/>
<g clip-path="url(#a)">
<g transform="translate(281.62 808.65) rotate(-37.903) scale(.08 -.08)">
<use xlink:href="#l"/>
<use x="44.083984" xlink:href="#d"/>
<use x="105.607422" xlink:href="#g"/>
<use x="144.970703" xlink:href="#i"/>
<use x="242.382812" xlink:href="#h"/>
<use x="270.166016" xlink:href="#f"/>
<use x="333.544922" xlink:href="#j"/>
<use x="394.824219" xlink:href="#k"/>
</g>
</g>
<path d="m388.1 791.09 26.676 20.769q1.8937 1.4744 3.3681-0.41934l4.7564-6.1092q1.4744-1.8937-0.41934-3.3681l-26.676-20.769q-1.8937-1.4744-3.3681 0.41934l-4.7564 6.1092q-1.4744 1.8937 0.41934 3.3681z" clip-path="url(#a)" fill="#fff" stroke="#fff"/>
<g clip-path="url(#a)">
<g transform="translate(390.6 787.88) rotate(37.903) scale(.08 -.08)">
<use xlink:href="#l"/>
<use x="44.083984" xlink:href="#d"/>
<use x="105.607422" xlink:href="#g"/>
<use x="144.970703" xlink:href="#i"/>
<use x="242.382812" xlink:href="#h"/>
<use x="270.166016" xlink:href="#f"/>
<use x="333.544922" xlink:href="#j"/>
<use x="394.824219" xlink:href="#k"/>
</g>
</g>
<path d="m302.55 669.23 1.7266-5.2838q0.74544-2.2813-1.5359-3.0267l-7.3596-2.4048q-2.2813-0.74544-3.0267 1.5359l-1.7266 5.2838q-0.74544 2.2813 1.5359 3.0267l7.3596 2.4048q2.2813 0.74544 3.0267-1.5359z" clip-path="url(#a)" fill="#fff" stroke="#fff"/>
<g clip-path="url(#a)">
<g transform="translate(298.69 667.97) rotate(-71.905) scale(.08 -.08)">
<use xlink:href="#ae"/>
</g>
</g>
<path d="m320.04 667.78 0.62886-4.5581q0.32801-2.3775-2.0495-2.7055l-7.6698-1.0582q-2.3775-0.32801-2.7055 2.0495l-0.62886 4.5581q-0.32801 2.3775 2.0495 2.7055l7.6698 1.0582q2.3775 0.32801 2.7055-2.0495z" clip-path="url(#a)" fill="#fff" stroke="#fff"/>
<g clip-path="url(#a)">
<g transform="translate(316.01 667.23) rotate(-82.145) scale(.08 -.08)">
<use xlink:href="#an"/>
</g>
</g>
<path d="m325.67 662.27 0.3643 5.5744q0.15651 2.3949 2.5514 2.2384l7.726-0.50491q2.3949-0.15651 2.2384-2.5514l-0.3643-5.5744q-0.15651-2.3949-2.5514-2.2384l-7.726 0.50491q-2.3949 0.15651-2.2384 2.5514z" clip-path="url(#a)" fill="#fff" stroke="#fff"/>
<g clip-path="url(#a)">
<g transform="translate(329.73 662) rotate(86.261) scale(.08 -.08)">
<use xlink:href="#t"/>
</g>
</g>
<path d="m355.16 622.49 3.1498 3.9537q1.4955 1.8771 3.3726 0.38168l6.0557-4.8244q1.8771-1.4955 0.38168-3.3726l-3.1498-3.9537q-1.4955-1.8771-3.3726-0.38168l-6.0557 4.8244q-1.8771 1.4955-0.38168 3.3726z" clip-path="url(#a)" fill="#fff" stroke="#fff"/>
<g clip-path="url(#a)">
<g transform="translate(358.34 619.96) rotate(51.457) scale(.08 -.08)">
<use xlink:href="#x"/>
</g>
</g>
<path d="m262.3 779.62v33.808q0 2.4 2.4 2.4h7.7425q2.4 0 2.4-2.4v-33.808q0-2.4-2.4-2.4h-7.7425q-2.4 0-2.4 2.4z" clip-path="url(#a)" fill="#fff" stroke="#fff"/>
<g clip-path="url(#a)">
<g transform="translate(266.36 779.62) rotate(90) scale(.08 -.08)">
<use xlink:href="#l"/>
<use x="44.083984" xlink:href="#d"/>
<use x="105.607422" xlink:href="#g"/>
<use x="144.970703" xlink:href="#i"/>
<use x="242.382812" xlink:href="#h"/>
<use x="270.166016" xlink:href="#f"/>
<use x="333.544922" xlink:href="#j"/>
<use x="394.824219" xlink:href="#k"/>
</g>
</g>
<path d="m295.67 779.62v33.808q0 2.4 2.4 2.4h7.7425q2.4 0 2.4-2.4v-33.808q0-2.4-2.4-2.4h-7.7425q-2.4 0-2.4 2.4z" clip-path="url(#a)" fill="#fff" stroke="#fff"/>
<g clip-path="url(#a)">
<g transform="translate(299.74 779.62) rotate(90) scale(.08 -.08)">
<use xlink:href="#l"/>
<use x="44.083984" xlink:href="#d"/>
<use x="105.607422" xlink:href="#g"/>
<use x="144.970703" xlink:href="#i"/>
<use x="242.382812" xlink:href="#h"/>
<use x="270.166016" xlink:href="#f"/>
<use x="333.544922" xlink:href="#j"/>
<use x="394.824219" xlink:href="#k"/>
</g>
</g>
<path d="m331.62 779.62v33.808q0 2.4 2.4 2.4h7.7425q2.4 0 2.4-2.4v-33.808q0-2.4-2.4-2.4h-7.7425q-2.4 0-2.4 2.4z" clip-path="url(#a)" fill="#fff" stroke="#fff"/>
<g clip-path="url(#a)">
<g transform="translate(335.68 779.62) rotate(90) scale(.08 -.08)">
<use xlink:href="#l"/>
<use x="44.083984" xlink:href="#d"/>
<use x="105.607422" xlink:href="#g"/>
<use x="144.970703" xlink:href="#i"/>
<use x="242.382812" xlink:href="#h"/>
<use x="270.166016" xlink:href="#f"/>
<use x="333.544922" xlink:href="#j"/>
<use x="394.824219" xlink:href="#k"/>
</g>
</g>
<path d="m392.15 713.09 1.2613-5.4138q0.54455-2.3374-1.7929-2.882l-7.5406-1.7568q-2.3374-0.54455-2.882 1.7929l-1.2613 5.4138q-0.54455 2.3374 1.7929 2.882l7.5406 1.7568q2.3374 0.54455 2.882-1.7929z" clip-path="url(#a)" fill="#fff" stroke="#fff"/>
<g clip-path="url(#a)">
<g transform="translate(388.19 712.17) rotate(-76.886) scale(.08 -.08)">
<use xlink:href="#ae"/>
</g>
</g>
<path d="m400.47 707.66 1.2675 5.4406q0.54455 2.3374 2.882 1.7929l7.5406-1.7568q2.3374-0.54455 1.7929-2.882l-1.2675-5.4406q-0.54455-2.3374-2.882-1.7929l-7.5406 1.7568q-2.3374 0.54455-1.7929 2.882z" clip-path="url(#a)" fill="#fff" stroke="#fff"/>
<g clip-path="url(#a)">
<g transform="translate(404.43 706.74) rotate(76.886) scale(.08 -.08)">
<use xlink:href="#t"/>
</g>
</g>
<path d="m370.13 779.62v33.808q0 2.4 2.4 2.4h7.7425q2.4 0 2.4-2.4v-33.808q0-2.4-2.4-2.4h-7.7425q-2.4 0-2.4 2.4z" clip-path="url(#a)" fill="#fff" stroke="#fff"/>
<g clip-path="url(#a)">
<g transform="translate(374.2 779.62) rotate(90) scale(.08 -.08)">
<use xlink:href="#l"/>
<use x="44.083984" xlink:href="#d"/>
<use x="105.607422" xlink:href="#g"/>
<use x="144.970703" xlink:href="#i"/>
<use x="242.382812" xlink:href="#h"/>
<use x="270.166016" xlink:href="#f"/>
<use x="333.544922" xlink:href="#j"/>
<use x="394.824219" xlink:href="#k"/>
</g>
</g>
<path d="m411.22 779.62v33.808q0 2.4 2.4 2.4h7.7425q2.4 0 2.4-2.4v-33.808q0-2.4-2.4-2.4h-7.7425q-2.4 0-2.4 2.4z" clip-path="url(#a)" fill="#fff" stroke="#fff"/>
<g clip-path="url(#a)">
<g transform="translate(415.28 779.62) rotate(90) scale(.08 -.08)">
<use xlink:href="#l"/>
<use x="44.083984" xlink:href="#d"/>
<use x="105.607422" xlink:href="#g"/>
<use x="144.970703" xlink:href="#i"/>
<use x="242.382812" xlink:href="#h"/>
<use x="270.166016" xlink:href="#f"/>
<use x="333.544922" xlink:href="#j"/>
<use x="394.824219" xlink:href="#k"/>
</g>
</g>
<path d="m69.729 779.62v33.808q0 2.4 2.4 2.4h7.7425q2.4 0 2.4-2.4v-33.808q0-2.4-2.4-2.4h-7.7425q-2.4 0-2.4 2.4z" clip-path="url(#a)" fill="#fff" stroke="#fff"/>
<g clip-path="url(#a)">
<g transform="translate(73.792 779.62) rotate(90) scale(.08 -.08)">
<use xlink:href="#l"/>
<use x="44.083984" xlink:href="#d"/>
<use x="105.607422" xlink:href="#g"/>
<use x="144.970703" xlink:href="#i"/>
<use x="242.382812" xlink:href="#h"/>
<use x="270.166016" xlink:href="#f"/>
<use x="333.544922" xlink:href="#j"/>
<use x="394.824219" xlink:href="#k"/>
</g>
</g>
<path d="m77.431 779.62v33.808q0 2.4 2.4 2.4h7.7425q2.4 0 2.4-2.4v-33.808q0-2.4-2.4-2.4h-7.7425q-2.4 0-2.4 2.4z" clip-path="url(#a)" fill="#fff" stroke="#fff"/>
<g clip-path="url(#a)">
<g transform="translate(81.495 779.62) rotate(90) scale(.08 -.08)">
<use xlink:href="#l"/>
<use x="44.083984" xlink:href="#d"/>
<use x="105.607422" xlink:href="#g"/>
<use x="144.970703" xlink:href="#i"/>
<use x="242.382812" xlink:href="#h"/>
<use x="270.166016" xlink:href="#f"/>
<use x="333.544922" xlink:href="#j"/>
<use x="394.824219" xlink:href="#k"/>
</g>
</g>
<path d="m87.702 779.62v33.808q0 2.4 2.4 2.4h7.7425q2.4 0 2.4-2.4v-33.808q0-2.4-2.4-2.4h-7.7425q-2.4 0-2.4 2.4z" clip-path="url(#a)" fill="#fff" stroke="#fff"/>
<g clip-path="url(#a)">
<g transform="translate(91.765 779.62) rotate(90) scale(.08 -.08)">
<use xlink:href="#l"/>
<use x="44.083984" xlink:href="#d"/>
<use x="105.607422" xlink:href="#g"/>
<use x="144.970703" xlink:href="#i"/>
<use x="242.382812" xlink:href="#h"/>
<use x="270.166016" xlink:href="#f"/>
<use x="333.544922" xlink:href="#j"/>
<use x="394.824219" xlink:href="#k"/>
</g>
</g>
<path d="m100.54 779.62v33.808q0 2.4 2.4 2.4h7.7425q2.4 0 2.4-2.4v-33.808q0-2.4-2.4-2.4h-7.7425q-2.4 0-2.4 2.4z" clip-path="url(#a)" fill="#fff" stroke="#fff"/>
<g clip-path="url(#a)">
<g transform="translate(104.6 779.62) rotate(90) scale(.08 -.08)">
<use xlink:href="#l"/>
<use x="44.083984" xlink:href="#d"/>
<use x="105.607422" xlink:href="#g"/>
<use x="144.970703" xlink:href="#i"/>
<use x="242.382812" xlink:href="#h"/>
<use x="270.166016" xlink:href="#f"/>
<use x="333.544922" xlink:href="#j"/>
<use x="394.824219" xlink:href="#k"/>
</g>
</g>
<path d="m154.46 779.62v33.808q0 2.4 2.4 2.4h7.7425q2.4 0 2.4-2.4v-33.808q0-2.4-2.4-2.4h-7.7425q-2.4 0-2.4 2.4z" clip-path="url(#a)" fill="#fff" stroke="#fff"/>
<g clip-path="url(#a)">
<g transform="translate(158.52 779.62) rotate(90) scale(.08 -.08)">
<use xlink:href="#l"/>
<use x="44.083984" xlink:href="#d"/>
<use x="105.607422" xlink:href="#g"/>
<use x="144.970703" xlink:href="#i"/>
<use x="242.382812" xlink:href="#h"/>
<use x="270.166016" xlink:href="#f"/>
<use x="333.544922" xlink:href="#j"/>
<use x="394.824219" xlink:href="#k"/>
</g>
</g>
<path d="m501.08 779.62v33.808q0 2.4 2.4 2.4h7.7425q2.4 0 2.4-2.4v-33.808q0-2.4-2.4-2.4h-7.7425q-2.4 0-2.4 2.4z" clip-path="url(#a)" fill="#fff" stroke="#fff"/>
<g clip-path="url(#a)">
<g transform="translate(505.14 779.62) rotate(90) scale(.08 -.08)">
<use xlink:href="#l"/>
<use x="44.083984" xlink:href="#d"/>
<use x="105.607422" xlink:href="#g"/>
<use x="144.970703" xlink:href="#i"/>
<use x="242.382812" xlink:href="#h"/>
<use x="270.166016" xlink:href="#f"/>
<use x="333.544922" xlink:href="#j"/>
<use x="394.824219" xlink:href="#k"/>
</g>
</g>
<path d="m711.62 779.62v33.808q0 2.4 2.4 2.4h7.7425q2.4 0 2.4-2.4v-33.808q0-2.4-2.4-2.4h-7.7425q-2.4 0-2.4 2.4z" clip-path="url(#a)" fill="#fff" stroke="#fff"/>
<g clip-path="url(#a)">
<g transform="translate(715.68 779.62) rotate(90) scale(.08 -.08)">
<use xlink:href="#l"/>
<use x="44.083984" xlink:href="#d"/>
<use x="105.607422" xlink:href="#g"/>
<use x="144.970703" xlink:href="#i"/>
<use x="242.382812" xlink:href="#h"/>
<use x="270.166016" xlink:href="#f"/>
<use x="333.544922" xlink:href="#j"/>
<use x="394.824219" xlink:href="#k"/>
</g>
</g>
<path d="m1417.7 779.62v33.808q0 2.4 2.4 2.4h7.7425q2.4 0 2.4-2.4v-33.808q0-2.4-2.4-2.4h-7.7425q-2.4 0-2.4 2.4z" clip-path="url(#a)" fill="#fff" stroke="#fff"/>
<g clip-path="url(#a)">
<g transform="translate(1421.8 779.62) rotate(90) scale(.08 -.08)">
<use xlink:href="#l"/>
<use x="44.083984" xlink:href="#d"/>
<use x="105.607422" xlink:href="#g"/>
<use x="144.970703" xlink:href="#i"/>
<use x="242.382812" xlink:href="#h"/>
<use x="270.166016" xlink:href="#f"/>
<use x="333.544922" xlink:href="#j"/>
<use x="394.824219" xlink:href="#k"/>
</g>
</g>
<path d="m1502.4 779.62v33.808q0 2.4 2.4 2.4h7.7425q2.4 0 2.4-2.4v-33.808q0-2.4-2.4-2.4h-7.7425q-2.4 0-2.4 2.4z" clip-path="url(#a)" fill="#fff" stroke="#fff"/>
<g clip-path="url(#a)">
<g transform="translate(1506.5 779.62) rotate(90) scale(.08 -.08)">
<use xlink:href="#l"/>
<use x="44.083984" xlink:href="#d"/>
<use x="105.607422" xlink:href="#g"/>
<use x="144.970703" xlink:href="#i"/>
<use x="242.382812" xlink:href="#h"/>
<use x="270.166016" xlink:href="#f"/>
<use x="333.544922" xlink:href="#j"/>
<use x="394.824219" xlink:href="#k"/>
</g>
</g>
<path d="m1589.7 779.62v33.808q0 2.4 2.4 2.4h7.7425q2.4 0 2.4-2.4v-33.808q0-2.4-2.4-2.4h-7.7425q-2.4 0-2.4 2.4z" clip-path="url(#a)" fill="#fff" stroke="#fff"/>
<g clip-path="url(#a)">
<g transform="translate(1593.8 779.62) rotate(90) scale(.08 -.08)">
<use xlink:href="#l"/>
<use x="44.083984" xlink:href="#d"/>
<use x="105.607422" xlink:href="#g"/>
<use x="144.970703" xlink:href="#i"/>
<use x="242.382812" xlink:href="#h"/>
<use x="270.166016" xlink:href="#f"/>
<use x="333.544922" xlink:href="#j"/>
<use x="394.824219" xlink:href="#k"/>
</g>
</g>
<defs>
<path id="b" d="m0 8.6603c2.2967 0 4.4997-0.9125 6.1237-2.5365 1.624-1.624 2.5365-3.827 2.5365-6.1237s-0.9125-4.4997-2.5365-6.1237c-1.624-1.624-3.827-2.5365-6.1237-2.5365s-4.4997 0.9125-6.1237 2.5365c-1.624 1.624-2.5365 3.827-2.5365 6.1237s0.9125 4.4997 2.5365 6.1237c1.624 1.624 3.827 2.5365 6.1237 2.5365z"/>
</defs>
<g clip-path="url(#a)">
<use x="76" y="840" fill="#ffffff" stroke="#ffffff" xlink:href="#b"/>
</g>
<g clip-path="url(#a)">
<use x="83.702703" y="840" fill="#ffffff" stroke="#ffffff" xlink:href="#b"/>
</g>
<g clip-path="url(#a)">
<use x="93.972973" y="840" fill="#ffffff" stroke="#ffffff" xlink:href="#b"/>
</g>
<g clip-path="url(#a)">
<use x="106.810811" y="840" fill="#ffffff" stroke="#ffffff" xlink:href="#b"/>
</g>
<g clip-path="url(#a)">
<use x="122.216216" y="840" fill="#ffffff" stroke="#ffffff" xlink:href="#b"/>
</g>
<g clip-path="url(#a)">
<use x="140.189189" y="840" fill="#ffffff" stroke="#ffffff" xlink:href="#b"/>
</g>
<g clip-path="url(#a)">
<use x="160.72973" y="840" fill="#ffffff" stroke="#ffffff" xlink:href="#b"/>
</g>
<g clip-path="url(#a)">
<use x="183.837838" y="840" fill="#ffffff" stroke="#ffffff" xlink:href="#b"/>
</g>
<g clip-path="url(#a)">
<use x="209.513514" y="840" fill="#ffffff" stroke="#ffffff" xlink:href="#b"/>
</g>
<g clip-path="url(#a)">
<use x="237.756757" y="840" fill="#ffffff" stroke="#ffffff" xlink:href="#b"/>
</g>
<g clip-path="url(#a)">
<use x="268.567568" y="840" fill="#ffffff" stroke="#ffffff" xlink:href="#b"/>
</g>
<g clip-path="url(#a)">
<use x="301.945946" y="840" fill="#ffffff" stroke="#ffffff" xlink:href="#b"/>
</g>
<g clip-path="url(#a)">
<use x="337.891892" y="840" fill="#ffffff" stroke="#ffffff" xlink:href="#b"/>
</g>
<g clip-path="url(#a)">
<use x="376.405405" y="840" fill="#ffffff" stroke="#ffffff" xlink:href="#b"/>
</g>
<g clip-path="url(#a)">
<use x="417.486486" y="840" fill="#ffffff" stroke="#ffffff" xlink:href="#b"/>
</g>
<g clip-path="url(#a)">
<use x="461.135135" y="840" fill="#ffffff" stroke="#ffffff" xlink:href="#b"/>
</g>
<g clip-path="url(#a)">
<use x="507.351351" y="840" fill="#ffffff" stroke="#ffffff" xlink:href="#b"/>
</g>
<g clip-path="url(#a)">
<use x="556.135135" y="840" fill="#ffffff" stroke="#ffffff" xlink:href="#b"/>
</g>
<g clip-path="url(#a)">
<use x="607.486486" y="840" fill="#ffffff" stroke="#ffffff" xlink:href="#b"/>
</g>
<g clip-path="url(#a)">
<use x="661.405405" y="840" fill="#ffffff" stroke="#ffffff" xlink:href="#b"/>
</g>
<g clip-path="url(#a)">
<use x="717.891892" y="840" fill="#ffffff" stroke="#ffffff" xlink:href="#b"/>
</g>
<g clip-path="url(#a)">
<use x="776.945946" y="840" fill="#ffffff" stroke="#ffffff" xlink:href="#b"/>
</g>
<g clip-path="url(#a)">
<use x="838.567568" y="840" fill="#ffffff" stroke="#ffffff" xlink:href="#b"/>
</g>
<g clip-path="url(#a)">
<use x="902.756757" y="840" fill="#ffffff" stroke="#ffffff" xlink:href="#b"/>
</g>
<g clip-path="url(#a)">
<use x="969.513514" y="840" fill="#ffffff" stroke="#ffffff" xlink:href="#b"/>
</g>
<g clip-path="url(#a)">
<use x="1038.837838" y="840" fill="#ffffff" stroke="#ffffff" xlink:href="#b"/>
</g>
<g clip-path="url(#a)">
<use x="1110.72973" y="840" fill="#ffffff" stroke="#ffffff" xlink:href="#b"/>
</g>
<g clip-path="url(#a)">
<use x="1185.189189" y="840" fill="#ffffff" stroke="#ffffff" xlink:href="#b"/>
</g>
<g clip-path="url(#a)">
<use x="1262.216216" y="840" fill="#ffffff" stroke="#ffffff" xlink:href="#b"/>
</g>
<g clip-path="url(#a)">
<use x="1341.810811" y="840" fill="#ffffff" stroke="#ffffff" xlink:href="#b"/>
</g>
<g clip-path="url(#a)">
<use x="1423.972973" y="840" fill="#ffffff" stroke="#ffffff" xlink:href="#b"/>
</g>
<g clip-path="url(#a)">
<use x="1508.702703" y="840" fill="#ffffff" stroke="#ffffff" xlink:href="#b"/>
</g>
<g clip-path="url(#a)">
<use x="1596" y="840" fill="#ffffff" stroke="#ffffff" xlink:href="#b"/>
</g>
<g clip-path="url(#a)">
<use x="191.721518" y="40" fill="#ffffff" stroke="#ffffff" xlink:href="#b"/>
</g>
<g clip-path="url(#a)">
<use x="191.721518" y="129.725964" fill="#ffffff" stroke="#ffffff" xlink:href="#b"/>
</g>
<g clip-path="url(#a)">
<use x="526.410191" y="219.339549" fill="#ffffff" stroke="#ffffff" xlink:href="#b"/>
</g>
<g clip-path="url(#a)">
<use x="122.216216" y="753.042899" fill="#ffffff" stroke="#ffffff" xlink:href="#b"/>
</g>
<g clip-path="url(#a)">
<use x="140.189189" y="753.042899" fill="#ffffff" stroke="#ffffff" xlink:href="#b"/>
</g>
<g clip-path="url(#a)">
<use x="229.797297" y="487.316093" fill="#ffffff" stroke="#ffffff" xlink:href="#b"/>
</g>
<g clip-path="url(#a)">
<use x="556.135135" y="753.042899" fill="#ffffff" stroke="#ffffff" xlink:href="#b"/>
</g>
<g clip-path="url(#a)">
<use x="812.356982" y="308.824769" fill="#ffffff" stroke="#ffffff" xlink:href="#b"/>
</g>
<g clip-path="url(#a)">
<use x="607.486486" y="753.042899" fill="#ffffff" stroke="#ffffff" xlink:href="#b"/>
</g>
<g clip-path="url(#a)">
<use x="661.405405" y="753.042899" fill="#ffffff" stroke="#ffffff" xlink:href="#b"/>
</g>
<g clip-path="url(#a)">
<use x="1262.644144" y="398.160278" fill="#ffffff" stroke="#ffffff" xlink:href="#b"/>
</g>
<g clip-path="url(#a)">
<use x="855.256757" y="576.246932" fill="#ffffff" stroke="#ffffff" xlink:href="#b"/>
</g>
<g clip-path="url(#a)">
<use x="1155.662162" y="753.042899" fill="#ffffff" stroke="#ffffff" xlink:href="#b"/>
</g>
<g clip-path="url(#a)">
<use x="1036.27027" y="487.316093" fill="#ffffff" stroke="#ffffff" xlink:href="#b"/>
</g>
<g clip-path="url(#a)">
<use x="1038.837838" y="753.042899" fill="#ffffff" stroke="#ffffff" xlink:href="#b"/>
</g>
<g clip-path="url(#a)">
<use x="1167.216216" y="576.246932" fill="#ffffff" stroke="#ffffff" xlink:href="#b"/>
</g>
<g clip-path="url(#a)">
<use x="1110.72973" y="753.042899" fill="#ffffff" stroke="#ffffff" xlink:href="#b"/>
</g>
<g clip-path="url(#a)">
<use x="1223.702703" y="664.876129" fill="#ffffff" stroke="#ffffff" xlink:href="#b"/>
</g>
<g clip-path="url(#a)">
<use x="1185.189189" y="753.042899" fill="#ffffff" stroke="#ffffff" xlink:href="#b"/>
</g>
<g clip-path="url(#a)">
<use x="1262.216216" y="753.042899" fill="#ffffff" stroke="#ffffff" xlink:href="#b"/>
</g>
<g clip-path="url(#a)">
<use x="807.756757" y="664.876129" fill="#ffffff" stroke="#ffffff" xlink:href="#b"/>
</g>
<g clip-path="url(#a)">
<use x="902.756757" y="753.042899" fill="#ffffff" stroke="#ffffff" xlink:href="#b"/>
</g>
<g clip-path="url(#a)">
<use x="776.945946" y="753.042899" fill="#ffffff" stroke="#ffffff" xlink:href="#b"/>
</g>
<g clip-path="url(#a)">
<use x="838.567568" y="753.042899" fill="#ffffff" stroke="#ffffff" xlink:href="#b"/>
</g>
<g clip-path="url(#a)">
<use x="79.851351" y="664.876129" fill="#ffffff" stroke="#ffffff" xlink:href="#b"/>
</g>
<g clip-path="url(#a)">
<use x="183.837838" y="753.042899" fill="#ffffff" stroke="#ffffff" xlink:href="#b"/>
</g>
<g clip-path="url(#a)">
<use x="209.513514" y="753.042899" fill="#ffffff" stroke="#ffffff" xlink:href="#b"/>
</g>
<g clip-path="url(#a)">
<use x="349.445946" y="753.042899" fill="#ffffff" stroke="#ffffff" xlink:href="#b"/>
</g>
<g clip-path="url(#a)">
<use x="326.337838" y="576.246932" fill="#ffffff" stroke="#ffffff" xlink:href="#b"/>
</g>
<g clip-path="url(#a)">
<use x="268.567568" y="753.042899" fill="#ffffff" stroke="#ffffff" xlink:href="#b"/>
</g>
<g clip-path="url(#a)">
<use x="301.945946" y="753.042899" fill="#ffffff" stroke="#ffffff" xlink:href="#b"/>
</g>
<g clip-path="url(#a)">
<use x="337.891892" y="753.042899" fill="#ffffff" stroke="#ffffff" xlink:href="#b"/>
</g>
<g clip-path="url(#a)">
<use x="396.945946" y="664.876129" fill="#ffffff" stroke="#ffffff" xlink:href="#b"/>
</g>
<g clip-path="url(#a)">
<use x="376.405405" y="753.042899" fill="#ffffff" stroke="#ffffff" xlink:href="#b"/>
</g>
<g clip-path="url(#a)">
<use x="417.486486" y="753.042899" fill="#ffffff" stroke="#ffffff" xlink:href="#b"/>
</g>
<g clip-path="url(#a)">
<use x="76" y="753.042899" fill="#ffffff" stroke="#ffffff" xlink:href="#b"/>
</g>
<g clip-path="url(#a)">
<use x="83.702703" y="753.042899" fill="#ffffff" stroke="#ffffff" xlink:href="#b"/>
</g>
<g clip-path="url(#a)">
<use x="93.972973" y="753.042899" fill="#ffffff" stroke="#ffffff" xlink:href="#b"/>
</g>
<g clip-path="url(#a)">
<use x="106.810811" y="753.042899" fill="#ffffff" stroke="#ffffff" xlink:href="#b"/>
</g>
<g clip-path="url(#a)">
<use x="160.72973" y="753.042899" fill="#ffffff" stroke="#ffffff" xlink:href="#b"/>
</g>
<g clip-path="url(#a)">
<use x="507.351351" y="753.042899" fill="#ffffff" stroke="#ffffff" xlink:href="#b"/>
</g>
<g clip-path="url(#a)">
<use x="717.891892" y="753.042899" fill="#ffffff" stroke="#ffffff" xlink:href="#b"/>
</g>
<g clip-path="url(#a)">
<use x="1423.972973" y="753.042899" fill="#ffffff" stroke="#ffffff" xlink:href="#b"/>
</g>
<g clip-path="url(#a)">
<use x="1508.702703" y="753.042899" fill="#ffffff" stroke="#ffffff" xlink:href="#b"/>
</g>
<g clip-path="url(#a)">
<use x="1596" y="753.042899" fill="#ffffff" stroke="#ffffff" xlink:href="#b"/>
</g>
<g clip-path="url(#a)">
<defs>
<path id="al" d="m9.8125 72.906h14.703l18.594-49.609 18.703 49.609h14.703v-72.906h-9.625v64.016l-18.797-50h-9.9062l-18.797 50v-64.016h-9.5781z"/>
<path id="p" d="m44.281 53.078v-8.5q-3.7969 1.9531-7.9062 2.9219-4.0938 0.98438-8.5 0.98438-6.6875 0-10.031-2.0469t-3.3438-6.1562q0-3.125 2.3906-4.9062t9.625-3.3906l3.0781-0.6875q9.5625-2.0469 13.594-5.7812t4.0312-10.422q0-7.625-6.0312-12.078-6.0312-4.4375-16.578-4.4375-4.3906 0-9.1562 0.85938t-10.031 2.5625v9.2812q4.9844-2.5938 9.8125-3.8906 4.8281-1.2812 9.5781-1.2812 6.3438 0 9.75 2.1719 3.4219 2.1719 3.4219 6.125 0 3.6562-2.4688 5.6094-2.4531 1.9531-10.812 3.7656l-3.125 0.73438q-8.3438 1.75-12.062 5.3906-3.7031 3.6406-3.7031 9.9844 0 7.7188 5.4688 11.906 5.4688 4.2031 15.531 4.2031 4.9688 0 9.3594-0.73438 4.4062-0.71875 8.1094-2.1875z"/>
<path id="s" d="m18.312 70.219v-15.531h18.5v-6.9844h-18.5v-29.688q0-6.6875 1.8281-8.5938t7.4531-1.9062h9.2188v-7.5156h-9.2188q-10.406 0-14.359 3.875-3.9531 3.8906-3.9531 14.141v29.688h-6.5938v6.9844h6.5938v15.531z"/>
</defs>
<g transform="translate(57.523 842.76) scale(.1 -.1)">
<use xlink:href="#al"/>
<use x="86.279297" xlink:href="#d"/>
<use x="147.802734" xlink:href="#h"/>
<use x="175.585938" xlink:href="#p"/>
<use x="227.685547" xlink:href="#s"/>
<use x="266.894531" xlink:href="#d"/>
<use x="328.417969" xlink:href="#g"/>
</g>
</g>
<g clip-path="url(#a)">
<defs>
<path id="z" d="m45.406 46.391v29.594h8.9844v-75.984h-8.9844v8.2031q-2.8281-4.875-7.1562-7.25-4.3125-2.375-10.375-2.375-9.9062 0-16.141 7.9062-6.2188 7.9219-6.2188 20.812t6.2188 20.797q6.2344 7.9062 16.141 7.9062 6.0625 0 10.375-2.375 4.3281-2.3594 7.1562-7.2344zm-30.609-19.094q0-9.9062 4.0781-15.547t11.203-5.6406 11.219 5.6406q4.1094 5.6406 4.1094 15.547t-4.1094 15.547q-4.0938 5.6406-11.219 5.6406t-11.203-5.6406-4.0781-15.547z"/>
</defs>
<g transform="translate(71.51 842.76) scale(.1 -.1)">
<use xlink:href="#am"/>
<use x="55.712891" xlink:href="#j"/>
<use x="116.992188" xlink:href="#f"/>
<use x="180.371094" xlink:href="#z"/>
</g>
</g>
<g clip-path="url(#a)">
<defs>
<path id="ap" d="m51.812 51.703v-9.3125l-14.703-13.094 14.703-13.078v-9.3281l-22.906 20.406v4zm-21.203 0v-9.3125l-14.688-13.094 14.688-13.078v-9.3281l-22.891 20.406v4z"/>
</defs>
<g transform="translate(90.914 842.76) scale(.1 -.1)">
<use xlink:href="#ap"/>
</g>
</g>
<g clip-path="url(#a)">
<defs>
<path id="ag" d="m11.719 12.406h10.297v-8.4062l-8-15.625h-6.2969l4 15.625z"/>
</defs>
<g transform="translate(105.22 842.76) scale(.1 -.1)">
<use xlink:href="#ag"/>
</g>
</g>
<g clip-path="url(#a)">
<defs>
<path id="ah" d="m45.406 27.984q0 9.7656-4.0312 15.125-4.0156 5.375-11.297 5.375-7.2188 0-11.25-5.375-4.0312-5.3594-4.0312-15.125 0-9.7188 4.0312-15.094t11.25-5.375q7.2812 0 11.297 5.375 4.0312 5.375 4.0312 15.094zm8.9844-21.203q0-13.953-6.2031-20.766-6.1875-6.8125-18.984-6.8125-4.7344 0-8.9375 0.70312t-8.1562 2.1719v8.7344q3.9531-2.1406 7.8125-3.1562 3.8594-1.0312 7.8594-1.0312 8.8438 0 13.234 4.6094t4.3906 13.938v4.4531q-2.7812-4.8438-7.125-7.2344t-10.406-2.3906q-10.047 0-16.203 7.6562-6.1562 7.6719-6.1562 20.328 0 12.688 6.1562 20.344 6.1562 7.6719 16.203 7.6719 6.0625 0 10.406-2.3906t7.125-7.2188v8.2969h8.9844z"/>
</defs>
<g transform="translate(93.304 842.76) scale(.1 -.1)">
<use xlink:href="#d"/>
<use x="61.523438" xlink:href="#f"/>
<use x="124.902344" xlink:href="#s"/>
<use x="164.111328" xlink:href="#ah"/>
<use x="227.587891" xlink:href="#d"/>
<use x="289.111328" xlink:href="#ah"/>
<use x="352.587891" xlink:href="#f"/>
<use x="415.966797" xlink:href="#d"/>
<use x="477.490234" xlink:href="#s"/>
<use x="516.699219" xlink:href="#d"/>
</g>
</g>
<g clip-path="url(#a)">
<defs>
<path id="w" d="m48.781 52.594v-8.4062q-3.8125 2.1094-7.6406 3.1562t-7.7344 1.0469q-8.75 0-13.594-5.5469-4.8281-5.5312-4.8281-15.547t4.8281-15.562q4.8438-5.5312 13.594-5.5312 3.9062 0 7.7344 1.0469t7.6406 3.1562v-8.3125q-3.7656-1.75-7.7969-2.625-4.0156-0.89062-8.5625-0.89062-12.359 0-19.641 7.7656-7.2656 7.7656-7.2656 20.953 0 13.375 7.3438 21.031 7.3594 7.6719 20.156 7.6719 4.1406 0 8.0938-0.85938 3.9531-0.84375 7.6719-2.5469z"/>
<path id="v" d="m54.891 33.016v-33.016h-8.9844v32.719q0 7.7656-3.0312 11.609-3.0312 3.8594-9.0781 3.8594-7.2812 0-11.484-4.6406-4.2031-4.625-4.2031-12.641v-30.906h-9.0312v75.984h9.0312v-29.797q3.2344 4.9375 7.5938 7.375 4.375 2.4375 10.094 2.4375 9.4219 0 14.25-5.8281 4.8438-5.8281 4.8438-17.156z"/>
</defs>
<g transform="translate(132.88 842.76) scale(.1 -.1)">
<use xlink:href="#h"/>
<use x="27.783203" xlink:href="#w"/>
<use x="82.763672" xlink:href="#v"/>
</g>
</g>
<g clip-path="url(#a)">
<g transform="translate(159.14 842.76) scale(.1 -.1)">
<use xlink:href="#ag"/>
</g>
</g>
<g clip-path="url(#a)">
<defs>
<path id="ay" d="m4.2031 54.688h8.9844l11.234-42.672 11.172 42.672h10.594l11.234-42.672 11.188 42.672h8.9844l-14.312-54.688h-10.594l-11.766 44.828-11.812-44.828h-10.609z"/>
</defs>
<g transform="translate(176.3 842.76) scale(.1 -.1)">
<use xlink:href="#ay"/>
<use x="81.787109" xlink:href="#h"/>
<use x="109.570312" xlink:href="#g"/>
</g>
</g>
<g clip-path="url(#a)">
<defs>
<path id="ao" d="m8.5 21.578v33.109h8.9844v-32.766q0-7.7656 3.0156-11.656 3.0312-3.875 9.0938-3.875 7.2656 0 11.484 4.6406 4.2344 4.6406 4.2344 12.656v31h8.9844v-54.688h-8.9844v8.4062q-3.2656-4.9844-7.5938-7.4062-4.3125-2.4219-10.031-2.4219-9.4219 0-14.312 5.8594-4.875 5.8594-4.875 17.141zm22.609 34.422m4.4844 19.781h9.9062v-9.8594h-9.9062zm-19.094 0h9.9062v-9.8594h-9.9062z"/>
</defs>
<g transform="translate(190.02 842.76) scale(.1 -.1)">
<use xlink:href="#i"/>
<use x="97.412109" xlink:href="#ao"/>
<use x="160.791016" xlink:href="#p"/>
<use x="212.890625" xlink:href="#p"/>
<use x="264.990234" xlink:href="#d"/>
<use x="326.513672" xlink:href="#f"/>
</g>
</g>
<g clip-path="url(#a)">
<defs>
<path id="y" d="m8.5 21.578v33.109h8.9844v-32.766q0-7.7656 3.0156-11.656 3.0312-3.875 9.0938-3.875 7.2656 0 11.484 4.6406 4.2344 4.6406 4.2344 12.656v31h8.9844v-54.688h-8.9844v8.4062q-3.2656-4.9844-7.5938-7.4062-4.3125-2.4219-10.031-2.4219-9.4219 0-14.312 5.8594-4.875 5.8594-4.875 17.141z"/>
</defs>
<g transform="translate(228.81 842.76) scale(.1 -.1)">
<use xlink:href="#y"/>
<use x="63.378906" xlink:href="#f"/>
<use x="126.757812" xlink:href="#p"/>
</g>
</g>
<g clip-path="url(#a)">
<g transform="translate(256.42 842.76) scale(.1 -.1)">
<use xlink:href="#f"/>
<use x="63.378906" xlink:href="#j"/>
<use x="124.658203" xlink:href="#w"/>
<use x="179.638672" xlink:href="#v"/>
</g>
</g>
<g clip-path="url(#a)">
<g transform="translate(290.82 842.76) scale(.1 -.1)">
<use xlink:href="#z"/>
<use x="63.476562" xlink:href="#d"/>
<use x="125" xlink:href="#i"/>
</g>
</g>
<g clip-path="url(#a)">
<g transform="translate(310.85 842.76) scale(.1 -.1)">
<use xlink:href="#ae"/>
<use x="64.982422" xlink:href="#d"/>
<use x="126.505859" xlink:href="#ah"/>
<use x="189.982422" xlink:href="#k"/>
<use x="217.765625" xlink:href="#d"/>
<use x="279.289062" xlink:href="#i"/>
<use x="376.701172" xlink:href="#d"/>
<use x="438.224609" xlink:href="#f"/>
<use x="501.603516" xlink:href="#s"/>
</g>
</g>
<g clip-path="url(#a)">
<g transform="translate(367.55 842.76) scale(.1 -.1)">
<use xlink:href="#z"/>
<use x="63.476562" xlink:href="#d"/>
<use x="125" xlink:href="#p"/>
</g>
</g>
<g clip-path="url(#a)">
<defs>
<path id="ar" d="m53.516 70.516v-9.625q-5.6094 2.6875-10.594 4-4.9844 1.3281-9.625 1.3281-8.0469 0-12.422-3.125t-4.375-8.8906q0-4.8438 2.9062-7.3125 2.9062-2.4531 11.016-3.9688l5.9531-1.2188q11.031-2.1094 16.281-7.4062t5.25-14.172q0-10.609-7.1094-16.078-7.0938-5.4688-20.812-5.4688-5.1719 0-11.016 1.1719-5.8281 1.1719-12.078 3.4688v10.156q6-3.3594 11.766-5.0781 5.7656-1.7031 11.328-1.7031 8.4375 0 13.031 3.3125 4.5938 3.3281 4.5938 9.4844 0 5.3594-3.2969 8.3906t-10.812 4.5469l-6.0156 1.1719q-11.031 2.1875-15.969 6.875-4.9219 4.6875-4.9219 13.047 0 9.6719 6.8125 15.234t18.766 5.5625q5.1406 0 10.453-0.9375 5.3281-0.92188 10.891-2.7656z"/>
<path id="ak" d="m37.109 75.984v-7.4844h-8.5938q-4.8281 0-6.7188-1.9531-1.875-1.9531-1.875-7.0312v-4.8281h14.797v-6.9844h-14.797v-47.703h-9.0312v47.703h-8.5938v6.9844h8.5938v3.8125q0 9.125 4.25 13.297 4.25 4.1875 13.469 4.1875z"/>
</defs>
<g transform="translate(400.88 842.76) scale(.1 -.1)">
<use xlink:href="#ar"/>
<use x="63.476562" xlink:href="#w"/>
<use x="118.457031" xlink:href="#v"/>
<use x="181.835938" xlink:href="#h"/>
<use x="209.619141" xlink:href="#ak"/>
<use x="244.824219" xlink:href="#ak"/>
<use x="280.029297" xlink:href="#p"/>
</g>
</g>
<g clip-path="url(#a)">
<g transform="translate(443.57 842.76) scale(.1 -.1)">
<use xlink:href="#g"/>
<use x="41.113281" xlink:href="#h"/>
<use x="68.896484" xlink:href="#w"/>
<use x="123.876953" xlink:href="#v"/>
<use x="187.255859" xlink:href="#s"/>
<use x="226.464844" xlink:href="#d"/>
<use x="287.988281" xlink:href="#f"/>
</g>
</g>
<g clip-path="url(#a)">
<g transform="translate(505.76 842.76) scale(.1 -.1)">
<use xlink:href="#ag"/>
</g>
</g>
<g clip-path="url(#a)">
<g transform="translate(546.62 842.76) scale(.1 -.1)">
<use xlink:href="#y"/>
<use x="63.378906" xlink:href="#f"/>
<use x="126.757812" xlink:href="#z"/>
</g>
</g>
<g clip-path="url(#a)">
<g transform="translate(600.18 842.76) scale(.1 -.1)">
<use xlink:href="#h"/>
<use x="27.783203" xlink:href="#w"/>
<use x="82.763672" xlink:href="#v"/>
</g>
</g>
<g clip-path="url(#a)">
<defs>
<path id="aq" d="m2.9844 54.688h9.5156l17.094-45.891 17.094 45.891h9.5156l-20.516-54.688h-12.203z"/>
</defs>
<g transform="translate(640.33 842.76) scale(.1 -.1)">
<use xlink:href="#aq"/>
<use x="59.179688" xlink:href="#d"/>
<use x="120.703125" xlink:href="#g"/>
<use x="160.066406" xlink:href="#i"/>
<use x="257.478516" xlink:href="#y"/>
<use x="320.857422" xlink:href="#s"/>
<use x="360.066406" xlink:href="#d"/>
</g>
</g>
<g clip-path="url(#a)">
<g transform="translate(716.3 842.76) scale(.1 -.1)">
<use xlink:href="#ag"/>
</g>
</g>
<g clip-path="url(#a)">
<g transform="translate(760.38 842.76) scale(.1 -.1)">
<use xlink:href="#y"/>
<use x="63.378906" xlink:href="#f"/>
<use x="126.757812" xlink:href="#p"/>
<use x="178.857422" xlink:href="#g"/>
<use x="217.720703" xlink:href="#d"/>
<use x="279.244141" xlink:href="#p"/>
</g>
</g>
<g clip-path="url(#a)">
<g transform="translate(819.17 842.76) scale(.1 -.1)">
<use xlink:href="#al"/>
<use x="86.279297" xlink:href="#j"/>
<use x="147.558594" xlink:href="#ah"/>
<use x="211.035156" xlink:href="#d"/>
<use x="272.558594" xlink:href="#f"/>
<use x="335.9375" xlink:href="#p"/>
</g>
</g>
<g clip-path="url(#a)">
<g transform="translate(893.87 842.76) scale(.1 -.1)">
<use xlink:href="#q"/>
<use x="73.193359" xlink:href="#v"/>
<use x="136.572266" xlink:href="#g"/>
</g>
</g>
<g clip-path="url(#a)">
<defs>
<path id="av" d="m34.281 27.484q-10.891 0-15.094-2.4844t-4.2031-8.5q0-4.7812 3.1562-7.5938 3.1562-2.7969 8.5625-2.7969 7.4844 0 12 5.2969t4.5156 14.078v2zm17.922 3.7188v-31.203h-8.9844v8.2969q-3.0781-4.9688-7.6719-7.3438t-11.234-2.375q-8.3906 0-13.359 4.7188-4.9531 4.7188-4.9531 12.625 0 9.2188 6.1719 13.906 6.1875 4.6875 18.438 4.6875h12.609v0.89062q0 6.2031-4.0781 9.5938t-11.453 3.3906q-4.6875 0-9.1406-1.125-4.4375-1.125-8.5312-3.375v8.3125q4.9219 1.9062 9.5625 2.8438 4.6406 0.95312 9.0312 0.95312 11.875 0 17.734-6.1562 5.8594-6.1406 5.8594-18.641zm-18.609 44.578h9.9062v-9.8594h-9.9062zm-19.094 0h9.9062v-9.8594h-9.9062z"/>
</defs>
<g transform="translate(958.26 842.76) scale(.1 -.1)">
<use xlink:href="#k"/>
<use x="27.783203" xlink:href="#av"/>
<use x="89.0625" xlink:href="#y"/>
<use x="152.441406" xlink:href="#ak"/>
<use x="185.896484" xlink:href="#s"/>
</g>
</g>
<g clip-path="url(#a)">
<g transform="translate(1030.5 842.76) scale(.1 -.1)">
<use xlink:href="#z"/>
<use x="63.476562" xlink:href="#d"/>
<use x="125" xlink:href="#g"/>
</g>
</g>
<g clip-path="url(#a)">
<g transform="translate(1101.9 842.76) scale(.1 -.1)">
<use xlink:href="#z"/>
<use x="63.476562" xlink:href="#d"/>
<use x="125" xlink:href="#p"/>
</g>
</g>
<g clip-path="url(#a)">
<defs>
<path id="as" d="m9.8125 72.906h9.8594v-30.812l32.719 30.812h12.703l-36.188-33.984 38.766-38.922h-12.984l-35.016 35.109v-35.109h-9.8594z"/>
</defs>
<g transform="translate(1166.8 842.76) scale(.1 -.1)">
<use xlink:href="#as"/>
<use x="60.576172" xlink:href="#ao"/>
<use x="123.955078" xlink:href="#w"/>
<use x="178.935547" xlink:href="#v"/>
<use x="242.314453" xlink:href="#d"/>
<use x="303.837891" xlink:href="#f"/>
</g>
</g>
<g clip-path="url(#a)">
<g transform="translate(1240.6 842.76) scale(.1 -.1)">
<use xlink:href="#i"/>
<use x="97.412109" xlink:href="#d"/>
<use x="158.935547" xlink:href="#h"/>
<use x="186.71875" xlink:href="#p"/>
<use x="238.818359" xlink:href="#s"/>
<use x="278.027344" xlink:href="#d"/>
<use x="339.550781" xlink:href="#g"/>
<use x="380.664062" xlink:href="#p"/>
</g>
</g>
<g clip-path="url(#a)">
<defs>
<path id="az" d="m30.609 48.391q-7.2188 0-11.422-5.6406t-4.2031-15.453 4.1719-15.453q4.1875-5.6406 11.453-5.6406 7.1875 0 11.375 5.6562 4.2031 5.6719 4.2031 15.438 0 9.7188-4.2031 15.406-4.1875 5.6875-11.375 5.6875zm0 7.6094q11.719 0 18.406-7.625 6.7031-7.6094 6.7031-21.078 0-13.422-6.7031-21.078-6.6875-7.6406-18.406-7.6406-11.766 0-18.438 7.6406-6.6562 7.6562-6.6562 21.078 0 13.469 6.6562 21.078 6.6719 7.625 18.438 7.625z"/>
</defs>
<g transform="translate(1324.9 842.76) scale(.1 -.1)">
<use xlink:href="#aq"/>
<use x="59.179688" xlink:href="#az"/>
<use x="120.361328" xlink:href="#g"/>
<use x="161.474609" xlink:href="#j"/>
<use x="222.753906" xlink:href="#y"/>
<use x="286.132812" xlink:href="#p"/>
</g>
</g>
<g clip-path="url(#a)">
<defs>
<path id="e" d="m10.688 12.406h10.312v-12.406h-10.312z"/>
</defs>
<g transform="translate(1422.4 842.76) scale(.1 -.1)">
<use xlink:href="#e"/>
</g>
</g>
<g clip-path="url(#a)">
<g transform="translate(1505.6 842.76) scale(.1 -.1)">
<use xlink:href="#ap"/>
</g>
</g>
<g clip-path="url(#a)">
<defs>
<path id="aw" d="m9.4219 51.703 22.906-20.406v-4l-22.906-20.406v9.3281l14.703 13.078-14.703 13.094zm21.188 0 22.906-20.406v-4l-22.906-20.406v9.3281l14.703 13.078-14.703 13.094z"/>
</defs>
<g transform="translate(1592.9 842.76) scale(.1 -.1)">
<use xlink:href="#aw"/>
</g>
</g>
<g clip-path="url(#a)">
<defs>
<path id="c" d="m12.406 8.2969h16.109v55.625l-17.531-3.5156v8.9844l17.438 3.5156h9.8594v-64.609h16.109v-8.2969h-41.984z"/>
</defs>
<g transform="translate(183.77 42.759) scale(.1 -.1)">
<use xlink:href="#c"/>
<use x="63.623047" xlink:href="#e"/>
<use x="95.410156" xlink:href="#c"/>
</g>
</g>
<g clip-path="url(#a)">
<defs>
<path id="m" d="m19.188 8.2969h34.422v-8.2969h-46.281v8.2969q5.6094 5.8125 15.297 15.594 9.7031 9.7969 12.188 12.641 4.7344 5.3125 6.6094 9 1.8906 3.6875 1.8906 7.25 0 5.8125-4.0781 9.4688-4.0781 3.6719-10.625 3.6719-4.6406 0-9.7969-1.6094-5.1406-1.6094-11-4.8906v9.9688q5.9531 2.3906 11.125 3.6094 5.1875 1.2188 9.4844 1.2188 11.328 0 18.062-5.6719 6.7344-5.6562 6.7344-15.125 0-4.5-1.6875-8.5312-1.6719-4.0156-6.125-9.4844-1.2188-1.4219-7.7656-8.1875-6.5312-6.7656-18.453-18.922z"/>
</defs>
<g transform="translate(183.77 132.49) scale(.1 -.1)">
<use xlink:href="#c"/>
<use x="63.623047" xlink:href="#e"/>
<use x="95.410156" xlink:href="#m"/>
</g>
</g>
<g clip-path="url(#a)">
<defs>
<path id="ad" d="m33.016 40.375q-6.6406 0-10.531-4.5469-3.875-4.5312-3.875-12.438 0-7.8594 3.875-12.438 3.8906-4.5625 10.531-4.5625t10.516 4.5625q3.875 4.5781 3.875 12.438 0 7.9062-3.875 12.438-3.875 4.5469-10.516 4.5469zm19.578 30.922v-8.9844q-3.7188 1.75-7.5 2.6719-3.7812 0.9375-7.5 0.9375-9.7656 0-14.922-6.5938-5.1406-6.5938-5.875-19.922 2.875 4.25 7.2188 6.5156 4.3594 2.2656 9.5781 2.2656 10.984 0 17.359-6.6719 6.375-6.6562 6.375-18.125 0-11.234-6.6406-18.031-6.6406-6.7812-17.672-6.7812-12.656 0-19.344 9.6875-6.6875 9.7031-6.6875 28.109 0 17.281 8.2031 27.562t22.016 10.281q3.7188 0 7.5-0.73438t7.8906-2.1875z"/>
</defs>
<g transform="translate(518.46 222.1) scale(.1 -.1)">
<use xlink:href="#c"/>
<use x="63.623047" xlink:href="#e"/>
<use x="95.410156" xlink:href="#ad"/>
</g>
</g>
<g clip-path="url(#a)">
<defs>
<path id="ac" d="m8.2031 72.906h46.875v-4.2031l-26.469-68.703h-10.297l24.906 64.594h-35.016z"/>
</defs>
<g transform="translate(114.26 755.8) scale(.1 -.1)">
<use xlink:href="#c"/>
<use x="63.623047" xlink:href="#e"/>
<use x="95.410156" xlink:href="#ac"/>
</g>
</g>
<g clip-path="url(#a)">
<defs>
<path id="ab" d="m31.781 34.625q-7.0312 0-11.062-3.7656-4.0156-3.7656-4.0156-10.344 0-6.5938 4.0156-10.359 4.0312-3.7656 11.062-3.7656t11.078 3.7812q4.0625 3.7969 4.0625 10.344 0 6.5781-4.0312 10.344-4.0156 3.7656-11.109 3.7656zm-9.8594 4.1875q-6.3438 1.5625-9.8906 5.9062-3.5312 4.3594-3.5312 10.609 0 8.7344 6.2188 13.812 6.2344 5.0781 17.062 5.0781 10.891 0 17.094-5.0781t6.2031-13.812q0-6.25-3.5469-10.609-3.5312-4.3438-9.8281-5.9062 7.125-1.6562 11.094-6.5 3.9844-4.8281 3.9844-11.797 0-10.609-6.4688-16.281-6.4688-5.6562-18.531-5.6562-12.047 0-18.531 5.6562-6.4688 5.6719-6.4688 16.281 0 6.9688 4 11.797 4.0156 4.8438 11.141 6.5zm-3.6094 15.578q0-5.6562 3.5312-8.8281 3.5469-3.1719 9.9375-3.1719 6.3594 0 9.9375 3.1719 3.5938 3.1719 3.5938 8.8281 0 5.6719-3.5938 8.8438-3.5781 3.1719-9.9375 3.1719-6.3906 0-9.9375-3.1719-3.5312-3.1719-3.5312-8.8438z"/>
</defs>
<g transform="translate(132.24 755.8) scale(.1 -.1)">
<use xlink:href="#c"/>
<use x="63.623047" xlink:href="#e"/>
<use x="95.410156" xlink:href="#ab"/>
</g>
</g>
<g clip-path="url(#a)">
<g transform="translate(218.66 490.08) scale(.1 -.1)">
<use xlink:href="#c"/>
<use x="63.623047" xlink:href="#e"/>
<use x="95.410156" xlink:href="#c"/>
<use x="159.033203" xlink:href="#m"/>
</g>
</g>
<g clip-path="url(#a)">
<defs>
<path id="n" d="m40.578 39.312q7.0781-1.5156 11.047-6.3125 3.9844-4.7812 3.9844-11.812 0-10.781-7.4219-16.703-7.4219-5.9062-21.094-5.9062-4.5781 0-9.4375 0.90625t-10.031 2.7188v9.5156q4.0938-2.3906 8.9688-3.6094 4.8906-1.2188 10.219-1.2188 9.2656 0 14.125 3.6562t4.8594 10.641q0 6.4531-4.5156 10.078-4.5156 3.6406-12.562 3.6406h-8.5v8.1094h8.8906q7.2656 0 11.125 2.9062t3.8594 8.375q0 5.6094-3.9844 8.6094-3.9688 3.0156-11.391 3.0156-4.0625 0-8.7031-0.89062-4.6406-0.875-10.203-2.7188v8.7812q5.625 1.5625 10.531 2.3438t9.25 0.78125q11.234 0 17.766-5.1094 6.5469-5.0938 6.5469-13.781 0-6.0625-3.4688-10.234t-9.8594-5.7812z"/>
</defs>
<g transform="translate(545 755.8) scale(.1 -.1)">
<use xlink:href="#c"/>
<use x="63.623047" xlink:href="#e"/>
<use x="95.410156" xlink:href="#c"/>
<use x="159.033203" xlink:href="#n"/>
</g>
</g>
<g clip-path="url(#a)">
<defs>
<path id="o" d="m37.797 64.312-24.906-38.922h24.906zm-2.5938 8.5938h12.406v-47.516h10.406v-8.2031h-10.406v-17.188h-9.8125v17.188h-32.906v9.5156z"/>
</defs>
<g transform="translate(801.22 311.58) scale(.1 -.1)">
<use xlink:href="#c"/>
<use x="63.623047" xlink:href="#e"/>
<use x="95.410156" xlink:href="#c"/>
<use x="159.033203" xlink:href="#o"/>
</g>
</g>
<g clip-path="url(#a)">
<g transform="translate(596.35 755.8) scale(.1 -.1)">
<use xlink:href="#c"/>
<use x="63.623047" xlink:href="#e"/>
<use x="95.410156" xlink:href="#c"/>
<use x="159.033203" xlink:href="#ad"/>
</g>
</g>
<g clip-path="url(#a)">
<g transform="translate(650.27 755.8) scale(.1 -.1)">
<use xlink:href="#c"/>
<use x="63.623047" xlink:href="#e"/>
<use x="95.410156" xlink:href="#c"/>
<use x="159.033203" xlink:href="#ac"/>
</g>
</g>
<g clip-path="url(#a)">
<g transform="translate(1251.5 400.92) scale(.1 -.1)">
<use xlink:href="#c"/>
<use x="63.623047" xlink:href="#e"/>
<use x="95.410156" xlink:href="#c"/>
<use x="159.033203" xlink:href="#ab"/>
</g>
</g>
<g clip-path="url(#a)">
<defs>
<path id="af" d="m31.781 66.406q-7.6094 0-11.453-7.5-3.8281-7.4844-3.8281-22.531 0-14.984 3.8281-22.484 3.8438-7.5 11.453-7.5 7.6719 0 11.5 7.5 3.8438 7.5 3.8438 22.484 0 15.047-3.8438 22.531-3.8281 7.5-11.5 7.5zm0 7.8125q12.266 0 18.734-9.7031 6.4688-9.6875 6.4688-28.141 0-18.406-6.4688-28.109-6.4688-9.6875-18.734-9.6875-12.25 0-18.719 9.6875-6.4688 9.7031-6.4688 28.109 0 18.453 6.4688 28.141 6.4688 9.7031 18.719 9.7031z"/>
</defs>
<g transform="translate(844.12 579.01) scale(.1 -.1)">
<use xlink:href="#c"/>
<use x="63.623047" xlink:href="#e"/>
<use x="95.410156" xlink:href="#m"/>
<use x="159.033203" xlink:href="#af"/>
</g>
</g>
<g clip-path="url(#a)">
<g transform="translate(1144.5 755.8) scale(.1 -.1)">
<use xlink:href="#c"/>
<use x="63.623047" xlink:href="#e"/>
<use x="95.410156" xlink:href="#m"/>
<use x="159.033203" xlink:href="#c"/>
</g>
</g>
<g clip-path="url(#a)">
<g transform="translate(1025.1 490.08) scale(.1 -.1)">
<use xlink:href="#c"/>
<use x="63.623047" xlink:href="#e"/>
<use x="95.410156" xlink:href="#m"/>
<use x="159.033203" xlink:href="#m"/>
</g>
</g>
<g clip-path="url(#a)">
<g transform="translate(1027.7 755.8) scale(.1 -.1)">
<use xlink:href="#c"/>
<use x="63.623047" xlink:href="#e"/>
<use x="95.410156" xlink:href="#m"/>
<use x="159.033203" xlink:href="#n"/>
</g>
</g>
<g clip-path="url(#a)">
<g transform="translate(1156.1 579.01) scale(.1 -.1)">
<use xlink:href="#c"/>
<use x="63.623047" xlink:href="#e"/>
<use x="95.410156" xlink:href="#m"/>
<use x="159.033203" xlink:href="#o"/>
</g>
</g>
<g clip-path="url(#a)">
<defs>
<path id="u" d="m10.797 72.906h38.719v-8.3125h-29.688v-17.859q2.1406 0.73438 4.2812 1.0938 2.1562 0.35938 4.3125 0.35938 12.203 0 19.328-6.6875 7.1406-6.6875 7.1406-18.109 0-11.766-7.3281-18.297-7.3281-6.5156-20.656-6.5156-4.5938 0-9.3594 0.78125-4.75 0.78125-9.8281 2.3438v9.9219q4.3906-2.3906 9.0781-3.5625t9.9062-1.1719q8.4531 0 13.375 4.4375 4.9375 4.4375 4.9375 12.062 0 7.6094-4.9375 12.047-4.9219 4.4531-13.375 4.4531-3.9531 0-7.8906-0.875-3.9219-0.875-8.0156-2.7344z"/>
</defs>
<g transform="translate(1099.6 755.8) scale(.1 -.1)">
<use xlink:href="#c"/>
<use x="63.623047" xlink:href="#e"/>
<use x="95.410156" xlink:href="#m"/>
<use x="159.033203" xlink:href="#u"/>
</g>
</g>
<g clip-path="url(#a)">
<g transform="translate(1212.6 667.64) scale(.1 -.1)">
<use xlink:href="#c"/>
<use x="63.623047" xlink:href="#e"/>
<use x="95.410156" xlink:href="#m"/>
<use x="159.033203" xlink:href="#ad"/>
</g>
</g>
<g clip-path="url(#a)">
<g transform="translate(1174.1 755.8) scale(.1 -.1)">
<use xlink:href="#c"/>
<use x="63.623047" xlink:href="#e"/>
<use x="95.410156" xlink:href="#m"/>
<use x="159.033203" xlink:href="#ac"/>
</g>
</g>
<g clip-path="url(#a)">
<g transform="translate(1251.1 755.8) scale(.1 -.1)">
<use xlink:href="#c"/>
<use x="63.623047" xlink:href="#e"/>
<use x="95.410156" xlink:href="#m"/>
<use x="159.033203" xlink:href="#ab"/>
</g>
</g>
<g clip-path="url(#a)">
<defs>
<path id="aj" d="m10.984 1.5156v8.9844q3.7188-1.7656 7.5156-2.6875 3.8125-0.92188 7.4844-0.92188 9.7656 0 14.906 6.5625 5.1562 6.5625 5.8906 19.953-2.8281-4.2031-7.1875-6.4531-4.3438-2.25-9.6094-2.25-10.938 0-17.312 6.6094-6.375 6.625-6.375 18.109 0 11.219 6.6406 18 6.6406 6.7969 17.672 6.7969 12.656 0 19.312-9.7031 6.6719-9.6875 6.6719-28.141 0-17.234-8.1875-27.516-8.1719-10.281-21.984-10.281-3.7188 0-7.5312 0.73438-3.7969 0.73438-7.9062 2.2031zm19.625 30.906q6.6406 0 10.516 4.5312 3.8906 4.5469 3.8906 12.469 0 7.8594-3.8906 12.422-3.875 4.5625-10.516 4.5625t-10.516-4.5625-3.875-12.422q0-7.9219 3.875-12.469 3.875-4.5312 10.516-4.5312z"/>
</defs>
<g transform="translate(796.62 667.64) scale(.1 -.1)">
<use xlink:href="#c"/>
<use x="63.623047" xlink:href="#e"/>
<use x="95.410156" xlink:href="#m"/>
<use x="159.033203" xlink:href="#aj"/>
</g>
</g>
<g clip-path="url(#a)">
<g transform="translate(891.62 755.8) scale(.1 -.1)">
<use xlink:href="#c"/>
<use x="63.623047" xlink:href="#e"/>
<use x="95.410156" xlink:href="#n"/>
<use x="159.033203" xlink:href="#af"/>
</g>
</g>
<g clip-path="url(#a)">
<g transform="translate(765.81 755.8) scale(.1 -.1)">
<use xlink:href="#c"/>
<use x="63.623047" xlink:href="#e"/>
<use x="95.410156" xlink:href="#n"/>
<use x="159.033203" xlink:href="#c"/>
</g>
</g>
<g clip-path="url(#a)">
<g transform="translate(827.43 755.8) scale(.1 -.1)">
<use xlink:href="#c"/>
<use x="63.623047" xlink:href="#e"/>
<use x="95.410156" xlink:href="#n"/>
<use x="159.033203" xlink:href="#m"/>
</g>
</g>
<g clip-path="url(#a)">
<g transform="translate(68.719 667.64) scale(.1 -.1)">
<use xlink:href="#c"/>
<use x="63.623047" xlink:href="#e"/>
<use x="95.410156" xlink:href="#n"/>
<use x="159.033203" xlink:href="#n"/>
</g>
</g>
<g clip-path="url(#a)">
<g transform="translate(172.71 755.8) scale(.1 -.1)">
<use xlink:href="#c"/>
<use x="63.623047" xlink:href="#e"/>
<use x="95.410156" xlink:href="#n"/>
<use x="159.033203" xlink:href="#o"/>
</g>
</g>
<g clip-path="url(#a)">
<g transform="translate(198.38 755.8) scale(.1 -.1)">
<use xlink:href="#c"/>
<use x="63.623047" xlink:href="#e"/>
<use x="95.410156" xlink:href="#n"/>
<use x="159.033203" xlink:href="#u"/>
</g>
</g>
<g clip-path="url(#a)">
<g transform="translate(338.31 755.8) scale(.1 -.1)">
<use xlink:href="#c"/>
<use x="63.623047" xlink:href="#e"/>
<use x="95.410156" xlink:href="#n"/>
<use x="159.033203" xlink:href="#ad"/>
</g>
</g>
<g clip-path="url(#a)">
<g transform="translate(315.21 579.01) scale(.1 -.1)">
<use xlink:href="#c"/>
<use x="63.623047" xlink:href="#e"/>
<use x="95.410156" xlink:href="#n"/>
<use x="159.033203" xlink:href="#ac"/>
</g>
</g>
<g clip-path="url(#a)">
<g transform="translate(257.43 755.8) scale(.1 -.1)">
<use xlink:href="#c"/>
<use x="63.623047" xlink:href="#e"/>
<use x="95.410156" xlink:href="#n"/>
<use x="159.033203" xlink:href="#ab"/>
</g>
</g>
<g clip-path="url(#a)">
<g transform="translate(290.81 755.8) scale(.1 -.1)">
<use xlink:href="#c"/>
<use x="63.623047" xlink:href="#e"/>
<use x="95.410156" xlink:href="#n"/>
<use x="159.033203" xlink:href="#aj"/>
</g>
</g>
<g clip-path="url(#a)">
<g transform="translate(326.76 755.8) scale(.1 -.1)">
<use xlink:href="#c"/>
<use x="63.623047" xlink:href="#e"/>
<use x="95.410156" xlink:href="#o"/>
<use x="159.033203" xlink:href="#af"/>
</g>
</g>
<g clip-path="url(#a)">
<g transform="translate(385.81 667.64) scale(.1 -.1)">
<use xlink:href="#c"/>
<use x="63.623047" xlink:href="#e"/>
<use x="95.410156" xlink:href="#o"/>
<use x="159.033203" xlink:href="#c"/>
</g>
</g>
<g clip-path="url(#a)">
<g transform="translate(365.27 755.8) scale(.1 -.1)">
<use xlink:href="#c"/>
<use x="63.623047" xlink:href="#e"/>
<use x="95.410156" xlink:href="#o"/>
<use x="159.033203" xlink:href="#m"/>
</g>
</g>
<g clip-path="url(#a)">
<g transform="translate(406.35 755.8) scale(.1 -.1)">
<use xlink:href="#c"/>
<use x="63.623047" xlink:href="#e"/>
<use x="95.410156" xlink:href="#o"/>
<use x="159.033203" xlink:href="#n"/>
</g>
</g>
<g clip-path="url(#a)">
<g transform="translate(64.867 755.8) scale(.1 -.1)">
<use xlink:href="#c"/>
<use x="63.623047" xlink:href="#e"/>
<use x="95.410156" xlink:href="#o"/>
<use x="159.033203" xlink:href="#o"/>
</g>
</g>
<g clip-path="url(#a)">
<g transform="translate(72.57 755.8) scale(.1 -.1)">
<use xlink:href="#c"/>
<use x="63.623047" xlink:href="#e"/>
<use x="95.410156" xlink:href="#o"/>
<use x="159.033203" xlink:href="#u"/>
</g>
</g>
<g clip-path="url(#a)">
<g transform="translate(82.84 755.8) scale(.1 -.1)">
<use xlink:href="#c"/>
<use x="63.623047" xlink:href="#e"/>
<use x="95.410156" xlink:href="#o"/>
<use x="159.033203" xlink:href="#ad"/>
</g>
</g>
<g clip-path="url(#a)">
<g transform="translate(95.678 755.8) scale(.1 -.1)">
<use xlink:href="#c"/>
<use x="63.623047" xlink:href="#e"/>
<use x="95.410156" xlink:href="#o"/>
<use x="159.033203" xlink:href="#ac"/>
</g>
</g>
<g clip-path="url(#a)">
<g transform="translate(149.6 755.8) scale(.1 -.1)">
<use xlink:href="#c"/>
<use x="63.623047" xlink:href="#e"/>
<use x="95.410156" xlink:href="#o"/>
<use x="159.033203" xlink:href="#ab"/>
</g>
</g>
<g clip-path="url(#a)">
<g transform="translate(496.22 755.8) scale(.1 -.1)">
<use xlink:href="#c"/>
<use x="63.623047" xlink:href="#e"/>
<use x="95.410156" xlink:href="#o"/>
<use x="159.033203" xlink:href="#aj"/>
</g>
</g>
<g clip-path="url(#a)">
<g transform="translate(706.76 755.8) scale(.1 -.1)">
<use xlink:href="#c"/>
<use x="63.623047" xlink:href="#e"/>
<use x="95.410156" xlink:href="#u"/>
<use x="159.033203" xlink:href="#af"/>
</g>
</g>
<g clip-path="url(#a)">
<g transform="translate(1412.8 755.8) scale(.1 -.1)">
<use xlink:href="#c"/>
<use x="63.623047" xlink:href="#e"/>
<use x="95.410156" xlink:href="#u"/>
<use x="159.033203" xlink:href="#c"/>
</g>
</g>
<g clip-path="url(#a)">
<g transform="translate(1497.6 755.8) scale(.1 -.1)">
<use xlink:href="#c"/>
<use x="63.623047" xlink:href="#e"/>
<use x="95.410156" xlink:href="#u"/>
<use x="159.033203" xlink:href="#m"/>
</g>
</g>
<g clip-path="url(#a)">
<g transform="translate(1584.9 755.8) scale(.1 -.1)">
<use xlink:href="#c"/>
<use x="63.623047" xlink:href="#e"/>
<use x="95.410156" xlink:href="#u"/>
<use x="159.033203" xlink:href="#n"/>
</g>
</g>
<defs>
<clipPath id="a">
<rect width="1672" height="880"/>
</clipPath>
</defs>
</svg>
