<?xml version="1.0" encoding="UTF-8"?>
<!DOCTYPE svg  PUBLIC '-//W3C//DTD SVG 1.1//EN'  'http://www.w3.org/Graphics/SVG/1.1/DTD/svg11.dtd'>
<svg width="1216pt" height="640pt" version="1.1" viewBox="0 0 1216 640" xmlns="http://www.w3.org/2000/svg" xmlns:xlink="http://www.w3.org/1999/xlink">
<defs>
<style type="text/css">*{stroke-linecap:butt;stroke-linejoin:round;}</style>
</defs>
<path d="m0 640h1216v-640h-1216z" fill="#fff"/>
<g fill="none" stroke="#000">
<path d="m536.54 29.865v88.512" clip-path="url(#a)"/>
<path d="m536.54 118.38-481.02 412.29" clip-path="url(#a)"/>
<path d="m536.54 118.38-207.78 86.133" clip-path="url(#a)"/>
<path d="m536.54 118.38 143.52 412.29" clip-path="url(#a)"/>
<path d="m536.54 118.38 191.57 412.29" clip-path="url(#a)"/>
<path d="m536.54 118.38 353.71 86.133" clip-path="url(#a)"/>
<path d="m55.519 530.67v79.467" clip-path="url(#a)"/>
<path d="m328.76 204.51-225.2 326.16" clip-path="url(#a)"/>
<path d="m328.76 204.51-33.029 83.995" clip-path="url(#a)"/>
<path d="m328.76 204.51 63.055 326.16" clip-path="url(#a)"/>
<path d="m328.76 204.51 195.17 166.12" clip-path="url(#a)"/>
<path d="m680.06 530.67v79.467" clip-path="url(#a)"/>
<path d="m728.1 530.67v79.467" clip-path="url(#a)"/>
<path d="m890.25 204.51-90.078 246.69" clip-path="url(#a)"/>
<path d="m890.25 204.51 108.09 83.995" clip-path="url(#a)"/>
<path d="m890.25 204.51-18.016 326.16" clip-path="url(#a)"/>
<path d="m800.17 451.2-24.021 79.467" clip-path="url(#a)"/>
<path d="m800.17 451.2 24.021 79.467" clip-path="url(#a)"/>
<path d="m998.34 288.51-270.24 242.16" clip-path="url(#a)" stroke-dasharray="3.7,1.6"/>
<path d="m998.34 288.51-6.0052 82.124" clip-path="url(#a)"/>
<path d="m998.34 288.51 114.1 242.16" clip-path="url(#a)"/>
<path d="m998.34 288.51 162.14 242.16" clip-path="url(#a)"/>
<path d="m992.33 370.63-72.063 160.04" clip-path="url(#a)"/>
<path d="m992.33 370.63-24.021 160.04" clip-path="url(#a)"/>
<path d="m992.33 370.63 24.021 160.04" clip-path="url(#a)"/>
<path d="m992.33 370.63 72.063 80.572" clip-path="url(#a)"/>
<path d="m1112.4 530.67v79.467" clip-path="url(#a)"/>
<path d="m920.27 530.67v79.467" clip-path="url(#a)"/>
<path d="m968.31 530.67v79.467" clip-path="url(#a)"/>
<path d="m1016.4 530.67v79.467" clip-path="url(#a)"/>
<path d="m1064.4 451.2v79.467" clip-path="url(#a)"/>
<path d="m1064.4 530.67v79.467" clip-path="url(#a)"/>
<path d="m776.15 530.67v79.467" clip-path="url(#a)"/>
<path d="m824.19 530.67v79.467" clip-path="url(#a)"/>
<path d="m103.56 530.67v79.467" clip-path="url(#a)"/>
<path d="m295.73 288.51-48.042 82.124" clip-path="url(#a)"/>
<path d="m295.73 288.51v242.16" clip-path="url(#a)"/>
<path d="m295.73 288.51 48.042 242.16" clip-path="url(#a)"/>
<path d="m391.81 530.67v79.467" clip-path="url(#a)"/>
<path d="m523.93 370.63-60.052 80.572" clip-path="url(#a)"/>
<path d="m523.93 370.63 60.052 80.572" clip-path="url(#a)"/>
<path d="m463.87 451.2-24.021 79.467" clip-path="url(#a)"/>
<path d="m463.87 451.2 24.021 79.467" clip-path="url(#a)"/>
<path d="m583.98 451.2-48.042 79.467" clip-path="url(#a)"/>
<path d="m583.98 451.2v79.467" clip-path="url(#a)"/>
<path d="m583.98 451.2 48.042 79.467" clip-path="url(#a)"/>
<path d="m535.94 530.67v79.467" clip-path="url(#a)"/>
<path d="m583.98 530.67v79.467" clip-path="url(#a)"/>
<path d="m632.02 530.67v79.467" clip-path="url(#a)"/>
<path d="m439.85 530.67v79.467" clip-path="url(#a)"/>
<path d="m487.9 530.67v79.467" clip-path="url(#a)"/>
<path d="m247.69 370.63 96.084 160.04" clip-path="url(#a)" stroke-dasharray="3.7,1.6"/>
<path d="m247.69 370.63-48.042 80.572" clip-path="url(#a)"/>
<path d="m247.69 370.63-48.042 160.04" clip-path="url(#a)"/>
<path d="m295.73 530.67v79.467" clip-path="url(#a)"/>
<path d="m343.77 530.67v79.467" clip-path="url(#a)"/>
<path d="m199.64 451.2-48.042 79.467" clip-path="url(#a)"/>
<path d="m199.64 451.2 48.042 79.467" clip-path="url(#a)"/>
<path d="m199.64 530.67v79.467" clip-path="url(#a)"/>
<path d="m151.6 530.67v79.467" clip-path="url(#a)"/>
<path d="m247.69 530.67v79.467" clip-path="url(#a)"/>
<path d="m872.23 530.67v79.467" clip-path="url(#a)"/>
<path d="m1160.5 530.67v79.467" clip-path="url(#a)"/>
</g>
<path d="m530.27 71.113v6.0162q0 2.4 2.4 2.4h7.7425q2.4 0 2.4-2.4v-6.0162q0-2.4-2.4-2.4h-7.7425q-2.4 0-2.4 2.4z" clip-path="url(#a)" fill="#fff" stroke="#fff"/>
<g clip-path="url(#a)">
<defs>
<path id="aq" d="m9.8125 72.906h9.8594v-29.891h35.844v29.891h9.8594v-72.906h-9.8594v34.719h-35.844v-34.719h-9.8594z"/>
</defs>
<g transform="translate(534.33 71.113) rotate(90) scale(.08 -.08)">
<use xlink:href="#aq"/>
</g>
</g>
<path d="m297.77 331.29 4.6771-4.0088q1.8222-1.5619 0.26036-3.3841l-5.0387-5.8786q-1.5619-1.8222-3.3841-0.26036l-4.6771 4.0088q-1.8222 1.5619-0.26036 3.3841l5.0387 5.8786q1.5619 1.8222 3.3841 0.26036z" clip-path="url(#a)" fill="#fff" stroke="#fff"/>
<g clip-path="url(#a)">
<defs>
<path id="aj" d="m19.672 64.797v-56.688h11.922q15.094 0 22.094 6.8281 7 6.8438 7 21.594 0 14.641-7 21.453t-22.094 6.8125zm-9.8594 8.1094h20.266q21.188 0 31.094-8.8125 9.9219-8.8125 9.9219-27.562 0-18.859-9.9688-27.703-9.9531-8.8281-31.047-8.8281h-20.266z"/>
</defs>
<g transform="translate(295.13 328.2) rotate(-40.601) scale(.08 -.08)">
<use xlink:href="#aj"/>
</g>
</g>
<path d="m432.52 168.28 5.0554-2.0956q2.2171-0.91905 1.298-3.1361l-2.9649-7.1523q-0.91905-2.2171-3.1361-1.298l-5.0554 2.0956q-2.2171 0.91905-1.298 3.1361l2.9649 7.1523q0.91905 2.2171 3.1361 1.298z" clip-path="url(#a)" fill="#fff" stroke="#fff"/>
<g clip-path="url(#a)">
<defs>
<path id="u" d="m34.188 63.188-13.391-36.281h26.812zm-5.5781 9.7188h11.188l27.781-72.906h-10.25l-6.6406 18.703h-32.859l-6.6406-18.703h-10.406z"/>
</defs>
<g transform="translate(430.97 164.53) rotate(-22.516) scale(.08 -.08)">
<use xlink:href="#u"/>
</g>
</g>
<path d="m601.58 324.31 1.5859 4.5556q0.78904 2.2666 3.0556 1.4776l7.3121-2.5455q2.2666-0.78904 1.4776-3.0556l-1.5859-4.5556q-0.78904-2.2666-3.0556-1.4776l-7.3121 2.5455q-2.2666 0.78904-1.4776 3.0556z" clip-path="url(#a)" fill="#fff" stroke="#fff"/>
<g clip-path="url(#a)">
<defs>
<path id="ab" d="m19.672 64.797v-27.391h12.406q6.8906 0 10.641 3.5625 3.7656 3.5625 3.7656 10.156 0 6.5469-3.7656 10.109-3.75 3.5625-10.641 3.5625zm-9.8594 8.1094h22.266q12.266 0 18.531-5.5469 6.2812-5.5469 6.2812-16.234 0-10.797-6.2812-16.312-6.2656-5.5156-18.531-5.5156h-12.406v-29.297h-9.8594z"/>
</defs>
<g transform="translate(605.42 322.97) rotate(70.806) scale(.08 -.08)">
<use xlink:href="#ab"/>
</g>
</g>
<path d="m625.48 324.68 2.306 4.9629q1.0113 2.1765 3.1878 1.1652l7.0216-3.2625q2.1765-1.0113 1.1652-3.1878l-2.306-4.9629q-1.0113-2.1765-3.1878-1.1652l-7.0216 3.2625q-2.1765 1.0113-1.1652 3.1878z" clip-path="url(#a)" fill="#fff" stroke="#fff"/>
<g clip-path="url(#a)">
<g transform="translate(629.17 322.97) rotate(65.079) scale(.08 -.08)">
<use xlink:href="#u"/>
</g>
</g>
<path d="m709.25 166.89 5.3171 1.2948q2.3319 0.56784 2.8997-1.764l1.8319-7.5227q0.56784-2.3319-1.764-2.8997l-5.3171-1.2948q-2.3319-0.56784-2.8997 1.764l-1.8319 7.5227q-0.56784 2.3319 1.764 2.8997z" clip-path="url(#a)" fill="#fff" stroke="#fff"/>
<g clip-path="url(#a)">
<g transform="translate(710.21 162.94) rotate(13.686) scale(.08 -.08)">
<use xlink:href="#u"/>
</g>
</g>
<path d="m49.248 552.76v35.285q0 2.4 2.4 2.4h7.7425q2.4 0 2.4-2.4v-35.285q0-2.4-2.4-2.4h-7.7425q-2.4 0-2.4 2.4z" clip-path="url(#a)" fill="#fff" stroke="#fff"/>
<g clip-path="url(#a)">
<defs>
<path id="l" d="m-0.29688 72.906h61.672v-8.3125h-25.875v-64.594h-9.9062v64.594h-25.891z"/>
<path id="c" d="m56.203 29.594v-4.3906h-41.312q0.59375-9.2812 5.5938-14.141t13.938-4.8594q5.1719 0 10.031 1.2656t9.6562 3.8125v-8.5q-4.8438-2.0469-9.9219-3.125t-10.297-1.0781q-13.094 0-20.734 7.6094-7.6406 7.625-7.6406 20.625 0 13.422 7.25 21.297 7.25 7.8906 19.562 7.8906 11.031 0 17.453-7.1094 6.4219-7.0938 6.4219-19.297zm-8.9844 2.6406q-0.09375 7.3594-4.125 11.75-4.0312 4.4062-10.672 4.4062-7.5156 0-12.031-4.25t-5.2031-11.969z"/>
<path id="h" d="m41.109 46.297q-1.5156 0.875-3.2969 1.2812-1.7812 0.42188-3.9219 0.42188-7.625 0-11.703-4.9531t-4.0781-14.234v-28.812h-9.0312v54.688h9.0312v-8.5q2.8438 4.9844 7.375 7.3906 4.5469 2.4219 11.047 2.4219 0.92188 0 2.0469-0.125 1.125-0.10938 2.4844-0.35938z"/>
<path id="j" d="m52 44.188q3.375 6.0625 8.0625 8.9375t11.031 2.875q8.5469 0 13.188-5.9844 4.6406-5.9688 4.6406-17v-33.016h-9.0312v32.719q0 7.8594-2.7969 11.656-2.7812 3.8125-8.4844 3.8125-6.9844 0-11.047-4.6406-4.0469-4.625-4.0469-12.641v-30.906h-9.0312v32.719q0 7.9062-2.7812 11.688t-8.5938 3.7812q-6.8906 0-10.953-4.6562-4.0469-4.6562-4.0469-12.625v-30.906h-9.0312v54.688h9.0312v-8.5q3.0781 5.0312 7.375 7.4219t10.203 2.3906q5.9688 0 10.141-3.0312 4.1719-3.0156 6.1719-8.7812z"/>
<path id="f" d="m9.4219 54.688h8.9844v-54.688h-8.9844zm0 21.297h8.9844v-11.391h-8.9844z"/>
<path id="e" d="m54.891 33.016v-33.016h-8.9844v32.719q0 7.7656-3.0312 11.609-3.0312 3.8594-9.0781 3.8594-7.2812 0-11.484-4.6406-4.2031-4.625-4.2031-12.641v-30.906h-9.0312v54.688h9.0312v-8.5q3.2344 4.9375 7.5938 7.375 4.375 2.4375 10.094 2.4375 9.4219 0 14.25-5.8281 4.8438-5.8281 4.8438-17.156z"/>
<path id="i" d="m34.281 27.484q-10.891 0-15.094-2.4844t-4.2031-8.5q0-4.7812 3.1562-7.5938 3.1562-2.7969 8.5625-2.7969 7.4844 0 12 5.2969t4.5156 14.078v2zm17.922 3.7188v-31.203h-8.9844v8.2969q-3.0781-4.9688-7.6719-7.3438t-11.234-2.375q-8.3906 0-13.359 4.7188-4.9531 4.7188-4.9531 12.625 0 9.2188 6.1719 13.906 6.1875 4.6875 18.438 4.6875h12.609v0.89062q0 6.2031-4.0781 9.5938t-11.453 3.3906q-4.6875 0-9.1406-1.125-4.4375-1.125-8.5312-3.375v8.3125q4.9219 1.9062 9.5625 2.8438 4.6406 0.95312 9.0312 0.95312 11.875 0 17.734-6.1562 5.8594-6.1406 5.8594-18.641z"/>
<path id="k" d="m9.4219 75.984h8.9844v-75.984h-8.9844z"/>
</defs>
<g transform="translate(53.312 552.76) rotate(90) scale(.08 -.08)">
<use xlink:href="#l"/>
<use x="60.818359" xlink:href="#c"/>
<use x="122.341797" xlink:href="#h"/>
<use x="163.439453" xlink:href="#j"/>
<use x="260.851562" xlink:href="#f"/>
<use x="288.634766" xlink:href="#e"/>
<use x="352.013672" xlink:href="#i"/>
<use x="413.292969" xlink:href="#k"/>
</g>
</g>
<path d="m219.74 373.44 3.1584-4.5743q1.3636-1.975-0.61135-3.3386l-6.3714-4.3991q-1.975-1.3636-3.3386 0.61135l-3.1584 4.5743q-1.3636 1.975 0.61135 3.3386l6.3714 4.3991q1.975 1.3636 3.3386-0.61135z" clip-path="url(#a)" fill="#fff" stroke="#fff"/>
<g clip-path="url(#a)">
<defs>
<path id="w" d="m44.391 34.188q3.1719-1.0781 6.1719-4.5938t6.0312-9.6719l10.016-19.922h-10.609l-9.3125 18.703q-3.625 7.3281-7.0156 9.7188t-9.25 2.3906h-10.75v-30.812h-9.8594v72.906h22.266q12.5 0 18.656-5.2344 6.1562-5.2188 6.1562-15.766 0-6.8906-3.2031-11.438-3.2031-4.5312-9.2969-6.2812zm-24.719 30.609v-25.875h12.406q7.125 0 10.766 3.2969t3.6406 9.6875-3.6406 9.6406-10.766 3.25z"/>
</defs>
<g transform="translate(216.4 371.13) rotate(-55.377) scale(.08 -.08)">
<use xlink:href="#w"/>
</g>
</g>
<path d="m317.06 251.4 2.0443-5.1988q0.87827-2.2335-1.3553-3.1118l-7.2054-2.8333q-2.2335-0.87827-3.1118 1.3553l-2.0443 5.1988q-0.87827 2.2335 1.3553 3.1118l7.2054 2.8333q2.2335 0.87827 3.1118-1.3553z" clip-path="url(#a)" fill="#fff" stroke="#fff"/>
<g clip-path="url(#a)">
<defs>
<path id="t" d="m64.406 67.281v-10.391q-4.9844 4.6406-10.625 6.9219-5.6406 2.2969-11.984 2.2969-12.5 0-19.141-7.6406t-6.6406-22.094q0-14.406 6.6406-22.047t19.141-7.6406q6.3438 0 11.984 2.2969t10.625 6.9375v-10.312q-5.1719-3.5156-10.969-5.2812-5.7812-1.75-12.219-1.75-16.562 0-26.094 10.125-9.5156 10.141-9.5156 27.672 0 17.578 9.5156 27.703 9.5312 10.141 26.094 10.141 6.5312 0 12.312-1.7344 5.7969-1.7344 10.875-5.2031z"/>
</defs>
<g transform="translate(313.27 249.91) rotate(-68.534) scale(.08 -.08)">
<use xlink:href="#t"/>
</g>
</g>
<path d="m353.56 365.84 1.136 5.8762q0.45555 2.3564 2.8119 1.9008l7.6017-1.4696q2.3564-0.45555 1.9008-2.8119l-1.136-5.8762q-0.45555-2.3564-2.8119-1.9008l-7.6017 1.4696q-2.3564 0.45555-1.9008 2.8119z" clip-path="url(#a)" fill="#fff" stroke="#fff"/>
<g clip-path="url(#a)">
<defs>
<path id="ao" d="m9.8125 72.906h13.281l32.328-60.984v60.984h9.5625v-72.906h-13.281l-32.312 60.984v-60.984h-9.5781z"/>
</defs>
<g transform="translate(357.55 365.07) rotate(79.058) scale(.08 -.08)">
<use xlink:href="#ao"/>
</g>
</g>
<path d="m420.15 290.53 4.254 3.6208q1.8276 1.5556 3.3832-0.27204l5.0184-5.896q1.5556-1.8276-0.27204-3.3832l-4.254-3.6208q-1.8276-1.5556-3.3832 0.27204l-5.0184 5.896q-1.5556 1.8276 0.27204 3.3832z" clip-path="url(#a)" fill="#fff" stroke="#fff"/>
<g clip-path="url(#a)">
<g transform="translate(422.78 287.44) rotate(40.403) scale(.08 -.08)">
<use xlink:href="#t"/>
</g>
</g>
<path d="m673.79 552.76v35.285q0 2.4 2.4 2.4h7.7425q2.4 0 2.4-2.4v-35.285q0-2.4-2.4-2.4h-7.7425q-2.4 0-2.4 2.4z" clip-path="url(#a)" fill="#fff" stroke="#fff"/>
<g clip-path="url(#a)">
<g transform="translate(677.86 552.76) rotate(90) scale(.08 -.08)">
<use xlink:href="#l"/>
<use x="60.818359" xlink:href="#c"/>
<use x="122.341797" xlink:href="#h"/>
<use x="163.439453" xlink:href="#j"/>
<use x="260.851562" xlink:href="#f"/>
<use x="288.634766" xlink:href="#e"/>
<use x="352.013672" xlink:href="#i"/>
<use x="413.292969" xlink:href="#k"/>
</g>
</g>
<path d="m721.83 552.76v35.285q0 2.4 2.4 2.4h7.7425q2.4 0 2.4-2.4v-35.285q0-2.4-2.4-2.4h-7.7425q-2.4 0-2.4 2.4z" clip-path="url(#a)" fill="#fff" stroke="#fff"/>
<g clip-path="url(#a)">
<g transform="translate(725.9 552.76) rotate(90) scale(.08 -.08)">
<use xlink:href="#l"/>
<use x="60.818359" xlink:href="#c"/>
<use x="122.341797" xlink:href="#h"/>
<use x="163.439453" xlink:href="#j"/>
<use x="260.851562" xlink:href="#f"/>
<use x="288.634766" xlink:href="#e"/>
<use x="352.013672" xlink:href="#i"/>
<use x="413.292969" xlink:href="#k"/>
</g>
</g>
<path d="m850.23 332.39 1.742-4.7707q0.82319-2.2544-1.4312-3.0776l-7.2728-2.6556q-2.2544-0.82319-3.0776 1.4312l-1.742 4.7707q-0.82319 2.2544 1.4312 3.0776l7.2728 2.6556q2.2544 0.82319 3.0776-1.4312z" clip-path="url(#a)" fill="#fff" stroke="#fff"/>
<g clip-path="url(#a)">
<defs>
<path id="y" d="m53.516 70.516v-9.625q-5.6094 2.6875-10.594 4-4.9844 1.3281-9.625 1.3281-8.0469 0-12.422-3.125t-4.375-8.8906q0-4.8438 2.9062-7.3125 2.9062-2.4531 11.016-3.9688l5.9531-1.2188q11.031-2.1094 16.281-7.4062t5.25-14.172q0-10.609-7.1094-16.078-7.0938-5.4688-20.812-5.4688-5.1719 0-11.016 1.1719-5.8281 1.1719-12.078 3.4688v10.156q6-3.3594 11.766-5.0781 5.7656-1.7031 11.328-1.7031 8.4375 0 13.031 3.3125 4.5938 3.3281 4.5938 9.4844 0 5.3594-3.2969 8.3906t-10.812 4.5469l-6.0156 1.1719q-11.031 2.1875-15.969 6.875-4.9219 4.6875-4.9219 13.047 0 9.6719 6.8125 15.234t18.766 5.5625q5.1406 0 10.453-0.9375 5.3281-0.92188 10.891-2.7656z"/>
</defs>
<g transform="translate(846.41 331) rotate(-69.941) scale(.08 -.08)">
<use xlink:href="#y"/>
</g>
</g>
<path d="m938.28 249.78 4.3212 3.3578q1.8951 1.4726 3.3677-0.42251l4.7507-6.1137q1.4726-1.8951-0.42251-3.3677l-4.3212-3.3578q-1.8951-1.4726-3.3677 0.42251l-4.7507 6.1137q-1.4726 1.8951 0.42251 3.3677z" clip-path="url(#a)" fill="#fff" stroke="#fff"/>
<g clip-path="url(#a)">
<g transform="translate(940.78 246.57) rotate(37.849) scale(.08 -.08)">
<use xlink:href="#u"/>
</g>
</g>
<path d="m887.34 370.86 0.32292-5.8461q0.13236-2.3963-2.264-2.5287l-7.7307-0.42702q-2.3963-0.13236-2.5287 2.264l-0.32292 5.8461q-0.13236 2.3963 2.264 2.5287l7.7307 0.42701q2.3963 0.13236 2.5287-2.264z" clip-path="url(#a)" fill="#fff" stroke="#fff"/>
<g clip-path="url(#a)">
<defs>
<path id="am" d="m8.6875 72.906h9.9219v-44.297q0-11.719 4.2344-16.875 4.25-5.1406 13.781-5.1406 9.4688 0 13.719 5.1406 4.25 5.1562 4.25 16.875v44.297h9.9062v-45.516q0-14.25-7.0625-21.531-7.0469-7.2812-20.812-7.2812-13.828 0-20.891 7.2812-7.0469 7.2812-7.0469 21.531z"/>
</defs>
<g transform="translate(883.28 370.63) rotate(-86.838) scale(.08 -.08)">
<use xlink:href="#am"/>
</g>
</g>
<path d="m793.36 495.41 1.6084-5.321q0.69443-2.2973-1.6029-2.9918l-7.4113-2.2403q-2.2973-0.69443-2.9918 1.6029l-1.6084 5.321q-0.69443 2.2973 1.6029 2.9918l7.4113 2.2403q2.2973 0.69443 2.9918-1.6029z" clip-path="url(#a)" fill="#fff" stroke="#fff"/>
<g clip-path="url(#a)">
<g transform="translate(789.47 494.23) rotate(-73.181) scale(.08 -.08)">
<use xlink:href="#w"/>
</g>
</g>
<path d="m805.37 490.08 1.6164 5.3473q0.69443 2.2973 2.9918 1.6029l7.4113-2.2403q2.2973-0.69443 1.6029-2.9918l-1.6164-5.3473q-0.69443-2.2973-2.9918-1.6029l-7.4113 2.2403q-2.2973 0.69443-1.6029 2.9918z" clip-path="url(#a)" fill="#fff" stroke="#fff"/>
<g clip-path="url(#a)">
<g transform="translate(809.26 488.9) rotate(73.181) scale(.08 -.08)">
<use xlink:href="#t"/>
</g>
</g>
<path d="m865.37 416.08 4.0755-3.6522q1.7874-1.6017 0.18567-3.389l-5.1671-5.7661q-1.6017-1.7874-3.389-0.18567l-4.0755 3.6522q-1.7874 1.6017-0.18567 3.389l5.1671 5.7661q1.6017 1.7874 3.389 0.18567z" clip-path="url(#a)" fill="#fff" stroke="#fff"/>
<g clip-path="url(#a)">
<g transform="translate(862.66 413.06) rotate(-41.864) scale(.08 -.08)">
<use xlink:href="#u"/>
</g>
</g>
<path d="m1001.4 332.75 0.39911-5.4579q0.17503-2.3936-2.2186-2.5686l-7.7219-0.56466q-2.3936-0.17503-2.5686 2.2186l-0.39911 5.4579q-0.17503 2.3936 2.2186 2.5686l7.7219 0.56466q2.3936 0.17503 2.5686-2.2186z" clip-path="url(#a)" fill="#fff" stroke="#fff"/>
<g clip-path="url(#a)">
<g transform="translate(997.34 332.46) rotate(-85.818) scale(.08 -.08)">
<use xlink:href="#u"/>
</g>
</g>
<path d="m1048.7 410.08 2.056 4.3636q1.0229 2.1711 3.194 1.1481l7.004-3.3001q2.1711-1.0229 1.1481-3.194l-2.056-4.3636q-1.0229-2.1711-3.194-1.1481l-7.004 3.3001q-2.1711 1.0229-1.1481 3.194z" clip-path="url(#a)" fill="#fff" stroke="#fff"/>
<g clip-path="url(#a)">
<g transform="translate(1052.4 408.35) rotate(64.772) scale(.08 -.08)">
<use xlink:href="#ab"/>
</g>
</g>
<path d="m1072.6 410.64 3.2575 4.8652q1.3353 1.9943 3.3295 0.659l6.4336-4.3076q1.9943-1.3353 0.659-3.3295l-3.2575-4.8652q-1.3353-1.9943-3.3295-0.659l-6.4336 4.3076q-1.9943 1.3353-0.659 3.3295z" clip-path="url(#a)" fill="#fff" stroke="#fff"/>
<g clip-path="url(#a)">
<g transform="translate(1075.9 408.38) rotate(56.196) scale(.08 -.08)">
<use xlink:href="#am"/>
</g>
</g>
<path d="m960.88 455.76 2.2823-5.0686q0.98539-2.1884-1.203-3.1738l-7.0598-3.1789q-2.1884-0.98539-3.1738 1.203l-2.2823 5.0686q-0.98539 2.1884 1.203 3.1738l7.0598 3.1789q2.1884 0.98539 3.1738-1.203z" clip-path="url(#a)" fill="#fff" stroke="#fff"/>
<g clip-path="url(#a)">
<g transform="translate(957.17 454.09) rotate(-65.759) scale(.08 -.08)">
<use xlink:href="#w"/>
</g>
</g>
<path d="m986.15 454.08 0.75032-4.999q0.35624-2.3734-2.0172-2.7296l-7.6567-1.1492q-2.3734-0.35624-2.7296 2.0172l-0.75032 4.999q-0.35624 2.3734 2.0172 2.7296l7.6567 1.1492q2.3734 0.35624 2.7296-2.0172z" clip-path="url(#a)" fill="#fff" stroke="#fff"/>
<g clip-path="url(#a)">
<defs>
<path id="ai" d="m9.8125 72.906h46.094v-8.3125h-36.234v-21.578h34.719v-8.2969h-34.719v-26.422h37.109v-8.2969h-46.969z"/>
</defs>
<g transform="translate(982.13 453.48) rotate(-81.464) scale(.08 -.08)">
<use xlink:href="#ai"/>
</g>
</g>
<path d="m997.68 448.47 0.93475 6.2277q0.35624 2.3734 2.7296 2.0172l7.6567-1.1492q2.3734-0.35624 2.0172-2.7296l-0.93475-6.2277q-0.35624-2.3734-2.7296-2.0172l-7.6567 1.1492q-2.3734 0.35624-2.0172 2.7296z" clip-path="url(#a)" fill="#fff" stroke="#fff"/>
<g clip-path="url(#a)">
<defs>
<path id="an" d="m39.406 66.219q-10.75 0-17.078-8.0156-6.3125-8-6.3125-21.828 0-13.766 6.3125-21.781 6.3281-8 17.078-8 10.734 0 17.016 8 6.2812 8.0156 6.2812 21.781 0 13.828-6.2812 21.828-6.2812 8.0156-17.016 8.0156zm13.812-64.906 13-14.203h-11.922l-10.797 11.672q-1.6094-0.09375-2.4688-0.14062-0.84375-0.0625-1.625-0.0625-15.375 0-24.594 10.281-9.2031 10.281-9.2031 27.516 0 17.281 9.2031 27.562 9.2188 10.281 24.594 10.281 15.328 0 24.5-10.281 9.1875-10.281 9.1875-27.562 0-12.688-5.1094-21.734-5.0938-9.0312-14.766-13.328z"/>
</defs>
<g transform="translate(1001.7 447.86) rotate(81.464) scale(.08 -.08)">
<use xlink:href="#an"/>
</g>
</g>
<path d="m1021.8 413.01 3.7241 4.1638q1.6 1.7889 3.3888 0.18893l5.771-5.1615q1.7889-1.6 0.18893-3.3888l-3.7241-4.1638q-1.6-1.7889-3.3888-0.18893l-5.771 5.1615q-1.7889 1.6-0.18893 3.3888z" clip-path="url(#a)" fill="#fff" stroke="#fff"/>
<g clip-path="url(#a)">
<g transform="translate(1024.9 410.3) rotate(48.191) scale(.08 -.08)">
<use xlink:href="#t"/>
</g>
</g>
<path d="m1106.2 552.76v35.285q0 2.4 2.4 2.4h7.7425q2.4 0 2.4-2.4v-35.285q0-2.4-2.4-2.4h-7.7425q-2.4 0-2.4 2.4z" clip-path="url(#a)" fill="#fff" stroke="#fff"/>
<g clip-path="url(#a)">
<g transform="translate(1110.2 552.76) rotate(90) scale(.08 -.08)">
<use xlink:href="#l"/>
<use x="60.818359" xlink:href="#c"/>
<use x="122.341797" xlink:href="#h"/>
<use x="163.439453" xlink:href="#j"/>
<use x="260.851562" xlink:href="#f"/>
<use x="288.634766" xlink:href="#e"/>
<use x="352.013672" xlink:href="#i"/>
<use x="413.292969" xlink:href="#k"/>
</g>
</g>
<path d="m914 552.76v35.285q0 2.4 2.4 2.4h7.7425q2.4 0 2.4-2.4v-35.285q0-2.4-2.4-2.4h-7.7425q-2.4 0-2.4 2.4z" clip-path="url(#a)" fill="#fff" stroke="#fff"/>
<g clip-path="url(#a)">
<g transform="translate(918.06 552.76) rotate(90) scale(.08 -.08)">
<use xlink:href="#l"/>
<use x="60.818359" xlink:href="#c"/>
<use x="122.341797" xlink:href="#h"/>
<use x="163.439453" xlink:href="#j"/>
<use x="260.851562" xlink:href="#f"/>
<use x="288.634766" xlink:href="#e"/>
<use x="352.013672" xlink:href="#i"/>
<use x="413.292969" xlink:href="#k"/>
</g>
</g>
<path d="m962.04 552.76v35.285q0 2.4 2.4 2.4h7.7425q2.4 0 2.4-2.4v-35.285q0-2.4-2.4-2.4h-7.7425q-2.4 0-2.4 2.4z" clip-path="url(#a)" fill="#fff" stroke="#fff"/>
<g clip-path="url(#a)">
<g transform="translate(966.11 552.76) rotate(90) scale(.08 -.08)">
<use xlink:href="#l"/>
<use x="60.818359" xlink:href="#c"/>
<use x="122.341797" xlink:href="#h"/>
<use x="163.439453" xlink:href="#j"/>
<use x="260.851562" xlink:href="#f"/>
<use x="288.634766" xlink:href="#e"/>
<use x="352.013672" xlink:href="#i"/>
<use x="413.292969" xlink:href="#k"/>
</g>
</g>
<path d="m1010.1 552.76v35.285q0 2.4 2.4 2.4h7.7425q2.4 0 2.4-2.4v-35.285q0-2.4-2.4-2.4h-7.7425q-2.4 0-2.4 2.4z" clip-path="url(#a)" fill="#fff" stroke="#fff"/>
<g clip-path="url(#a)">
<g transform="translate(1014.1 552.76) rotate(90) scale(.08 -.08)">
<use xlink:href="#l"/>
<use x="60.818359" xlink:href="#c"/>
<use x="122.341797" xlink:href="#h"/>
<use x="163.439453" xlink:href="#j"/>
<use x="260.851562" xlink:href="#f"/>
<use x="288.634766" xlink:href="#e"/>
<use x="352.013672" xlink:href="#i"/>
<use x="413.292969" xlink:href="#k"/>
</g>
</g>
<path d="m1058 484.31v13.246q0 2.4 2.4 2.4h8q2.4 0 2.4-2.4v-13.246q0-2.4-2.4-2.4h-8q-2.4 0-2.4 2.4z" clip-path="url(#a)" fill="#fff" stroke="#fff"/>
<g clip-path="url(#a)">
<defs>
<path id="aw" d="m21 76.422v-100h-8.2969v100z"/>
</defs>
<g transform="translate(1062.3 484.31) rotate(90) scale(.08 -.08)">
<use xlink:href="#u"/>
<use x="68.408203" xlink:href="#aw"/>
<use x="102.099609" xlink:href="#y"/>
</g>
</g>
<path d="m1058.1 552.76v35.285q0 2.4 2.4 2.4h7.7425q2.4 0 2.4-2.4v-35.285q0-2.4-2.4-2.4h-7.7425q-2.4 0-2.4 2.4z" clip-path="url(#a)" fill="#fff" stroke="#fff"/>
<g clip-path="url(#a)">
<g transform="translate(1062.2 552.76) rotate(90) scale(.08 -.08)">
<use xlink:href="#l"/>
<use x="60.818359" xlink:href="#c"/>
<use x="122.341797" xlink:href="#h"/>
<use x="163.439453" xlink:href="#j"/>
<use x="260.851562" xlink:href="#f"/>
<use x="288.634766" xlink:href="#e"/>
<use x="352.013672" xlink:href="#i"/>
<use x="413.292969" xlink:href="#k"/>
</g>
</g>
<path d="m769.88 552.76v35.285q0 2.4 2.4 2.4h7.7425q2.4 0 2.4-2.4v-35.285q0-2.4-2.4-2.4h-7.7425q-2.4 0-2.4 2.4z" clip-path="url(#a)" fill="#fff" stroke="#fff"/>
<g clip-path="url(#a)">
<g transform="translate(773.94 552.76) rotate(90) scale(.08 -.08)">
<use xlink:href="#l"/>
<use x="60.818359" xlink:href="#c"/>
<use x="122.341797" xlink:href="#h"/>
<use x="163.439453" xlink:href="#j"/>
<use x="260.851562" xlink:href="#f"/>
<use x="288.634766" xlink:href="#e"/>
<use x="352.013672" xlink:href="#i"/>
<use x="413.292969" xlink:href="#k"/>
</g>
</g>
<path d="m817.92 552.76v35.285q0 2.4 2.4 2.4h7.7425q2.4 0 2.4-2.4v-35.285q0-2.4-2.4-2.4h-7.7425q-2.4 0-2.4 2.4z" clip-path="url(#a)" fill="#fff" stroke="#fff"/>
<g clip-path="url(#a)">
<g transform="translate(821.98 552.76) rotate(90) scale(.08 -.08)">
<use xlink:href="#l"/>
<use x="60.818359" xlink:href="#c"/>
<use x="122.341797" xlink:href="#h"/>
<use x="163.439453" xlink:href="#j"/>
<use x="260.851562" xlink:href="#f"/>
<use x="288.634766" xlink:href="#e"/>
<use x="352.013672" xlink:href="#i"/>
<use x="413.292969" xlink:href="#k"/>
</g>
</g>
<path d="m97.29 552.76v35.285q0 2.4 2.4 2.4h7.7425q2.4 0 2.4-2.4v-35.285q0-2.4-2.4-2.4h-7.7425q-2.4 0-2.4 2.4z" clip-path="url(#a)" fill="#fff" stroke="#fff"/>
<g clip-path="url(#a)">
<g transform="translate(101.35 552.76) rotate(90) scale(.08 -.08)">
<use xlink:href="#l"/>
<use x="60.818359" xlink:href="#c"/>
<use x="122.341797" xlink:href="#h"/>
<use x="163.439453" xlink:href="#j"/>
<use x="260.851562" xlink:href="#f"/>
<use x="288.634766" xlink:href="#e"/>
<use x="352.013672" xlink:href="#i"/>
<use x="413.292969" xlink:href="#k"/>
</g>
</g>
<path d="m275.84 334.92 2.5525-4.3632q1.2119-2.0716-0.85972-3.2834l-6.683-3.9095q-2.0716-1.2119-3.2834 0.85972l-2.5525 4.3632q-1.2119 2.0716 0.85972 3.2834l6.683 3.9095q2.0716 1.2119 3.2834-0.85972z" clip-path="url(#a)" fill="#fff" stroke="#fff"/>
<g clip-path="url(#a)">
<g transform="translate(272.34 332.86) rotate(-59.673) scale(.08 -.08)">
<use xlink:href="#ai"/>
</g>
</g>
<path d="m289.46 406.81v5.5588q0 2.4 2.4 2.4h7.7425q2.4 0 2.4-2.4v-5.5588q0-2.4-2.4-2.4h-7.7425q-2.4 0-2.4 2.4z" clip-path="url(#a)" fill="#fff" stroke="#fff"/>
<g clip-path="url(#a)">
<g transform="translate(293.52 406.81) rotate(90) scale(.08 -.08)">
<use xlink:href="#w"/>
</g>
</g>
<path d="m313.05 408.07 1.0871 5.4795q0.46703 2.3541 2.8211 1.8871l7.5945-1.5066q2.3541-0.46703 1.8871-2.8211l-1.0871-5.4795q-0.46702-2.3541-2.8211-1.8871l-7.5945 1.5066q-2.3541 0.46702-1.8871 2.8211z" clip-path="url(#a)" fill="#fff" stroke="#fff"/>
<g clip-path="url(#a)">
<g transform="translate(317.04 407.28) rotate(78.779) scale(.08 -.08)">
<use xlink:href="#t"/>
</g>
</g>
<path d="m385.54 552.76v35.285q0 2.4 2.4 2.4h7.7425q2.4 0 2.4-2.4v-35.285q0-2.4-2.4-2.4h-7.7425q-2.4 0-2.4 2.4z" clip-path="url(#a)" fill="#fff" stroke="#fff"/>
<g clip-path="url(#a)">
<g transform="translate(389.6 552.76) rotate(90) scale(.08 -.08)">
<use xlink:href="#l"/>
<use x="60.818359" xlink:href="#c"/>
<use x="122.341797" xlink:href="#h"/>
<use x="163.439453" xlink:href="#j"/>
<use x="260.851562" xlink:href="#f"/>
<use x="288.634766" xlink:href="#e"/>
<use x="352.013672" xlink:href="#i"/>
<use x="413.292969" xlink:href="#k"/>
</g>
</g>
<path d="m497.41 416.7 3.035-4.0721q1.4342-1.9243-0.49008-3.3585l-6.2079-4.6269q-1.9243-1.4342-3.3585 0.49008l-3.035 4.0721q-1.4342 1.9243 0.49008 3.3585l6.2079 4.6269q1.9243 1.4342 3.3585-0.49008z" clip-path="url(#a)" fill="#fff" stroke="#fff"/>
<g clip-path="url(#a)">
<g transform="translate(494.15 414.27) rotate(-53.302) scale(.08 -.08)">
<use xlink:href="#y"/>
</g>
</g>
<path d="m547.08 412.19 3.6812 4.9391q1.4342 1.9243 3.3585 0.49008l6.2079-4.6269q1.9243-1.4342 0.49008-3.3585l-3.6812-4.9391q-1.4342-1.9243-3.3585-0.49008l-6.2079 4.6269q-1.9243 1.4342-0.49008 3.3585z" clip-path="url(#a)" fill="#fff" stroke="#fff"/>
<g clip-path="url(#a)">
<g transform="translate(550.34 409.76) rotate(53.302) scale(.08 -.08)">
<use xlink:href="#aj"/>
</g>
</g>
<path d="m457.14 495.17 1.4626-4.8388q0.69443-2.2973-1.6029-2.9918l-7.4113-2.2403q-2.2973-0.69443-2.9918 1.6029l-1.4626 4.8388q-0.69443 2.2973 1.6029 2.9918l7.4113 2.2403q2.2973 0.69443 2.9918-1.6029z" clip-path="url(#a)" fill="#fff" stroke="#fff"/>
<g clip-path="url(#a)">
<g transform="translate(453.25 493.99) rotate(-73.181) scale(.08 -.08)">
<use xlink:href="#ai"/>
</g>
</g>
<path d="m469.07 490.08 1.6164 5.3473q0.69443 2.2973 2.9918 1.6029l7.4113-2.2403q2.2973-0.69443 1.6029-2.9918l-1.6164-5.3473q-0.69443-2.2973-2.9918-1.6029l-7.4113 2.2403q-2.2973 0.69443-1.6029 2.9918z" clip-path="url(#a)" fill="#fff" stroke="#fff"/>
<g clip-path="url(#a)">
<g transform="translate(472.96 488.9) rotate(73.181) scale(.08 -.08)">
<use xlink:href="#t"/>
</g>
</g>
<path d="m563.89 496.56 2.8759-4.757q1.2417-2.0538-0.81219-3.2955l-6.6258-4.0056q-2.0538-1.2417-3.2955 0.81219l-2.8759 4.757q-1.2417 2.0538 0.81219 3.2955l6.6258 4.0056q2.0538 1.2417 3.2955-0.81219z" clip-path="url(#a)" fill="#fff" stroke="#fff"/>
<g clip-path="url(#a)">
<g transform="translate(560.41 494.46) rotate(-58.845) scale(.08 -.08)">
<use xlink:href="#w"/>
</g>
</g>
<path d="m577.71 487.79v6.2975q0 2.4 2.4 2.4h7.7425q2.4 0 2.4-2.4v-6.2975q0-2.4-2.4-2.4h-7.7425q-2.4 0-2.4 2.4z" clip-path="url(#a)" fill="#fff" stroke="#fff"/>
<g clip-path="url(#a)">
<g transform="translate(581.77 487.79) rotate(90) scale(.08 -.08)">
<use xlink:href="#an"/>
</g>
</g>
<path d="m601.19 491.79 2.8901 4.7805q1.2417 2.0538 3.2955 0.81219l6.6258-4.0056q2.0538-1.2417 0.81219-3.2955l-2.8901-4.7805q-1.2417-2.0538-3.2955-0.81219l-6.6258 4.0056q-2.0538 1.2417-0.81219 3.2955z" clip-path="url(#a)" fill="#fff" stroke="#fff"/>
<g clip-path="url(#a)">
<g transform="translate(604.67 489.69) rotate(58.845) scale(.08 -.08)">
<use xlink:href="#t"/>
</g>
</g>
<path d="m529.67 552.76v35.285q0 2.4 2.4 2.4h7.7425q2.4 0 2.4-2.4v-35.285q0-2.4-2.4-2.4h-7.7425q-2.4 0-2.4 2.4z" clip-path="url(#a)" fill="#fff" stroke="#fff"/>
<g clip-path="url(#a)">
<g transform="translate(533.73 552.76) rotate(90) scale(.08 -.08)">
<use xlink:href="#l"/>
<use x="60.818359" xlink:href="#c"/>
<use x="122.341797" xlink:href="#h"/>
<use x="163.439453" xlink:href="#j"/>
<use x="260.851562" xlink:href="#f"/>
<use x="288.634766" xlink:href="#e"/>
<use x="352.013672" xlink:href="#i"/>
<use x="413.292969" xlink:href="#k"/>
</g>
</g>
<path d="m577.71 552.76v35.285q0 2.4 2.4 2.4h7.7425q2.4 0 2.4-2.4v-35.285q0-2.4-2.4-2.4h-7.7425q-2.4 0-2.4 2.4z" clip-path="url(#a)" fill="#fff" stroke="#fff"/>
<g clip-path="url(#a)">
<g transform="translate(581.77 552.76) rotate(90) scale(.08 -.08)">
<use xlink:href="#l"/>
<use x="60.818359" xlink:href="#c"/>
<use x="122.341797" xlink:href="#h"/>
<use x="163.439453" xlink:href="#j"/>
<use x="260.851562" xlink:href="#f"/>
<use x="288.634766" xlink:href="#e"/>
<use x="352.013672" xlink:href="#i"/>
<use x="413.292969" xlink:href="#k"/>
</g>
</g>
<path d="m625.75 552.76v35.285q0 2.4 2.4 2.4h7.7425q2.4 0 2.4-2.4v-35.285q0-2.4-2.4-2.4h-7.7425q-2.4 0-2.4 2.4z" clip-path="url(#a)" fill="#fff" stroke="#fff"/>
<g clip-path="url(#a)">
<g transform="translate(629.81 552.76) rotate(90) scale(.08 -.08)">
<use xlink:href="#l"/>
<use x="60.818359" xlink:href="#c"/>
<use x="122.341797" xlink:href="#h"/>
<use x="163.439453" xlink:href="#j"/>
<use x="260.851562" xlink:href="#f"/>
<use x="288.634766" xlink:href="#e"/>
<use x="352.013672" xlink:href="#i"/>
<use x="413.292969" xlink:href="#k"/>
</g>
</g>
<path d="m433.58 552.76v35.285q0 2.4 2.4 2.4h7.7425q2.4 0 2.4-2.4v-35.285q0-2.4-2.4-2.4h-7.7425q-2.4 0-2.4 2.4z" clip-path="url(#a)" fill="#fff" stroke="#fff"/>
<g clip-path="url(#a)">
<g transform="translate(437.65 552.76) rotate(90) scale(.08 -.08)">
<use xlink:href="#l"/>
<use x="60.818359" xlink:href="#c"/>
<use x="122.341797" xlink:href="#h"/>
<use x="163.439453" xlink:href="#j"/>
<use x="260.851562" xlink:href="#f"/>
<use x="288.634766" xlink:href="#e"/>
<use x="352.013672" xlink:href="#i"/>
<use x="413.292969" xlink:href="#k"/>
</g>
</g>
<path d="m481.62 552.76v35.285q0 2.4 2.4 2.4h7.7425q2.4 0 2.4-2.4v-35.285q0-2.4-2.4-2.4h-7.7425q-2.4 0-2.4 2.4z" clip-path="url(#a)" fill="#fff" stroke="#fff"/>
<g clip-path="url(#a)">
<g transform="translate(485.69 552.76) rotate(90) scale(.08 -.08)">
<use xlink:href="#l"/>
<use x="60.818359" xlink:href="#c"/>
<use x="122.341797" xlink:href="#h"/>
<use x="163.439453" xlink:href="#j"/>
<use x="260.851562" xlink:href="#f"/>
<use x="288.634766" xlink:href="#e"/>
<use x="352.013672" xlink:href="#i"/>
<use x="413.292969" xlink:href="#k"/>
</g>
</g>
<path d="m288.94 451.53 2.8169 4.6919q1.2354 2.0576 3.293 0.82228l6.638-3.9853q2.0576-1.2354 0.82228-3.293l-2.8169-4.6919q-1.2354-2.0576-3.293-0.82228l-6.638 3.9853q-2.0576 1.2354-0.82228 3.293z" clip-path="url(#a)" fill="#fff" stroke="#fff"/>
<g clip-path="url(#a)">
<g transform="translate(292.43 449.44) rotate(59.02) scale(.08 -.08)">
<use xlink:href="#u"/>
</g>
</g>
<path d="m227.75 416.31 2.601-4.3622q1.2291-2.0614-0.83227-3.2905l-6.6501-3.9652q-2.0614-1.2291-3.2905 0.83227l-2.601 4.3622q-1.2291 2.0614 0.83227 3.2905l6.6501 3.9652q2.0614 1.2291 3.2905-0.83227z" clip-path="url(#a)" fill="#fff" stroke="#fff"/>
<g clip-path="url(#a)">
<g transform="translate(224.26 414.23) rotate(-59.194) scale(.08 -.08)">
<use xlink:href="#y"/>
</g>
</g>
<path d="m228.79 455.4 1.7711-5.8999q0.69003-2.2987-1.6086-2.9887l-7.4156-2.2261q-2.2987-0.69003-2.9887 1.6086l-1.7711 5.8999q-0.69003 2.2987 1.6086 2.9887l7.4156 2.2261q2.2987 0.69003 2.9887-1.6086z" clip-path="url(#a)" fill="#fff" stroke="#fff"/>
<g clip-path="url(#a)">
<g transform="translate(224.89 454.23) rotate(-73.291) scale(.08 -.08)">
<use xlink:href="#aj"/>
</g>
</g>
<path d="m289.46 552.76v35.285q0 2.4 2.4 2.4h7.7425q2.4 0 2.4-2.4v-35.285q0-2.4-2.4-2.4h-7.7425q-2.4 0-2.4 2.4z" clip-path="url(#a)" fill="#fff" stroke="#fff"/>
<g clip-path="url(#a)">
<g transform="translate(293.52 552.76) rotate(90) scale(.08 -.08)">
<use xlink:href="#l"/>
<use x="60.818359" xlink:href="#c"/>
<use x="122.341797" xlink:href="#h"/>
<use x="163.439453" xlink:href="#j"/>
<use x="260.851562" xlink:href="#f"/>
<use x="288.634766" xlink:href="#e"/>
<use x="352.013672" xlink:href="#i"/>
<use x="413.292969" xlink:href="#k"/>
</g>
</g>
<path d="m337.5 552.76v35.285q0 2.4 2.4 2.4h7.7425q2.4 0 2.4-2.4v-35.285q0-2.4-2.4-2.4h-7.7425q-2.4 0-2.4 2.4z" clip-path="url(#a)" fill="#fff" stroke="#fff"/>
<g clip-path="url(#a)">
<g transform="translate(341.56 552.76) rotate(90) scale(.08 -.08)">
<use xlink:href="#l"/>
<use x="60.818359" xlink:href="#c"/>
<use x="122.341797" xlink:href="#h"/>
<use x="163.439453" xlink:href="#j"/>
<use x="260.851562" xlink:href="#f"/>
<use x="288.634766" xlink:href="#e"/>
<use x="352.013672" xlink:href="#i"/>
<use x="413.292969" xlink:href="#k"/>
</g>
</g>
<path d="m179.8 496.15 2.3805-3.9376q1.2417-2.0538-0.81219-3.2955l-6.6258-4.0056q-2.0538-1.2417-3.2955 0.81219l-2.3805 3.9376q-1.2417 2.0538 0.81219 3.2955l6.6258 4.0056q2.0538 1.2417 3.2955-0.81219z" clip-path="url(#a)" fill="#fff" stroke="#fff"/>
<g clip-path="url(#a)">
<defs>
<path id="as" d="m9.8125 72.906h41.891v-8.3125h-32.031v-21.484h28.906v-8.2969h-28.906v-34.812h-9.8594z"/>
</defs>
<g transform="translate(176.32 494.05) rotate(-58.845) scale(.08 -.08)">
<use xlink:href="#as"/>
</g>
</g>
<path d="m216.85 491.79 2.8901 4.7805q1.2417 2.0538 3.2955 0.81219l6.6258-4.0056q2.0538-1.2417 0.81219-3.2955l-2.8901-4.7805q-1.2417-2.0538-3.2955-0.81219l-6.6258 4.0056q-2.0538 1.2417-0.81219 3.2955z" clip-path="url(#a)" fill="#fff" stroke="#fff"/>
<g clip-path="url(#a)">
<g transform="translate(220.33 489.69) rotate(58.845) scale(.08 -.08)">
<use xlink:href="#t"/>
</g>
</g>
<path d="m193.37 552.76v35.285q0 2.4 2.4 2.4h7.7425q2.4 0 2.4-2.4v-35.285q0-2.4-2.4-2.4h-7.7425q-2.4 0-2.4 2.4z" clip-path="url(#a)" fill="#fff" stroke="#fff"/>
<g clip-path="url(#a)">
<g transform="translate(197.44 552.76) rotate(90) scale(.08 -.08)">
<use xlink:href="#l"/>
<use x="60.818359" xlink:href="#c"/>
<use x="122.341797" xlink:href="#h"/>
<use x="163.439453" xlink:href="#j"/>
<use x="260.851562" xlink:href="#f"/>
<use x="288.634766" xlink:href="#e"/>
<use x="352.013672" xlink:href="#i"/>
<use x="413.292969" xlink:href="#k"/>
</g>
</g>
<path d="m145.33 552.76v35.285q0 2.4 2.4 2.4h7.7425q2.4 0 2.4-2.4v-35.285q0-2.4-2.4-2.4h-7.7425q-2.4 0-2.4 2.4z" clip-path="url(#a)" fill="#fff" stroke="#fff"/>
<g clip-path="url(#a)">
<g transform="translate(149.4 552.76) rotate(90) scale(.08 -.08)">
<use xlink:href="#l"/>
<use x="60.818359" xlink:href="#c"/>
<use x="122.341797" xlink:href="#h"/>
<use x="163.439453" xlink:href="#j"/>
<use x="260.851562" xlink:href="#f"/>
<use x="288.634766" xlink:href="#e"/>
<use x="352.013672" xlink:href="#i"/>
<use x="413.292969" xlink:href="#k"/>
</g>
</g>
<path d="m241.42 552.76v35.285q0 2.4 2.4 2.4h7.7425q2.4 0 2.4-2.4v-35.285q0-2.4-2.4-2.4h-7.7425q-2.4 0-2.4 2.4z" clip-path="url(#a)" fill="#fff" stroke="#fff"/>
<g clip-path="url(#a)">
<g transform="translate(245.48 552.76) rotate(90) scale(.08 -.08)">
<use xlink:href="#l"/>
<use x="60.818359" xlink:href="#c"/>
<use x="122.341797" xlink:href="#h"/>
<use x="163.439453" xlink:href="#j"/>
<use x="260.851562" xlink:href="#f"/>
<use x="288.634766" xlink:href="#e"/>
<use x="352.013672" xlink:href="#i"/>
<use x="413.292969" xlink:href="#k"/>
</g>
</g>
<path d="m865.96 552.76v35.285q0 2.4 2.4 2.4h7.7425q2.4 0 2.4-2.4v-35.285q0-2.4-2.4-2.4h-7.7425q-2.4 0-2.4 2.4z" clip-path="url(#a)" fill="#fff" stroke="#fff"/>
<g clip-path="url(#a)">
<g transform="translate(870.02 552.76) rotate(90) scale(.08 -.08)">
<use xlink:href="#l"/>
<use x="60.818359" xlink:href="#c"/>
<use x="122.341797" xlink:href="#h"/>
<use x="163.439453" xlink:href="#j"/>
<use x="260.851562" xlink:href="#f"/>
<use x="288.634766" xlink:href="#e"/>
<use x="352.013672" xlink:href="#i"/>
<use x="413.292969" xlink:href="#k"/>
</g>
</g>
<path d="m1154.2 552.76v35.285q0 2.4 2.4 2.4h7.7425q2.4 0 2.4-2.4v-35.285q0-2.4-2.4-2.4h-7.7425q-2.4 0-2.4 2.4z" clip-path="url(#a)" fill="#fff" stroke="#fff"/>
<g clip-path="url(#a)">
<g transform="translate(1158.3 552.76) rotate(90) scale(.08 -.08)">
<use xlink:href="#l"/>
<use x="60.818359" xlink:href="#c"/>
<use x="122.341797" xlink:href="#h"/>
<use x="163.439453" xlink:href="#j"/>
<use x="260.851562" xlink:href="#f"/>
<use x="288.634766" xlink:href="#e"/>
<use x="352.013672" xlink:href="#i"/>
<use x="413.292969" xlink:href="#k"/>
</g>
</g>
<defs>
<path id="b" d="m0 8.6603c2.2967 0 4.4997-0.9125 6.1237-2.5365 1.624-1.624 2.5365-3.827 2.5365-6.1237s-0.9125-4.4997-2.5365-6.1237c-1.624-1.624-3.827-2.5365-6.1237-2.5365s-4.4997 0.9125-6.1237 2.5365c-1.624 1.624-2.5365 3.827-2.5365 6.1237s0.9125 4.4997 2.5365 6.1237c1.624 1.624 3.827 2.5365 6.1237 2.5365z"/>
</defs>
<g clip-path="url(#a)">
<use x="55.519075" y="610.134863" fill="#ffffff" stroke="#ffffff" xlink:href="#b"/>
</g>
<g clip-path="url(#a)">
<use x="103.560895" y="610.134863" fill="#ffffff" stroke="#ffffff" xlink:href="#b"/>
</g>
<g clip-path="url(#a)">
<use x="151.602714" y="610.134863" fill="#ffffff" stroke="#ffffff" xlink:href="#b"/>
</g>
<g clip-path="url(#a)">
<use x="199.644534" y="610.134863" fill="#ffffff" stroke="#ffffff" xlink:href="#b"/>
</g>
<g clip-path="url(#a)">
<use x="247.686353" y="610.134863" fill="#ffffff" stroke="#ffffff" xlink:href="#b"/>
</g>
<g clip-path="url(#a)">
<use x="295.728173" y="610.134863" fill="#ffffff" stroke="#ffffff" xlink:href="#b"/>
</g>
<g clip-path="url(#a)">
<use x="343.769993" y="610.134863" fill="#ffffff" stroke="#ffffff" xlink:href="#b"/>
</g>
<g clip-path="url(#a)">
<use x="391.811812" y="610.134863" fill="#ffffff" stroke="#ffffff" xlink:href="#b"/>
</g>
<g clip-path="url(#a)">
<use x="439.853632" y="610.134863" fill="#ffffff" stroke="#ffffff" xlink:href="#b"/>
</g>
<g clip-path="url(#a)">
<use x="487.895451" y="610.134863" fill="#ffffff" stroke="#ffffff" xlink:href="#b"/>
</g>
<g clip-path="url(#a)">
<use x="535.937271" y="610.134863" fill="#ffffff" stroke="#ffffff" xlink:href="#b"/>
</g>
<g clip-path="url(#a)">
<use x="583.97909" y="610.134863" fill="#ffffff" stroke="#ffffff" xlink:href="#b"/>
</g>
<g clip-path="url(#a)">
<use x="632.02091" y="610.134863" fill="#ffffff" stroke="#ffffff" xlink:href="#b"/>
</g>
<g clip-path="url(#a)">
<use x="680.062729" y="610.134863" fill="#ffffff" stroke="#ffffff" xlink:href="#b"/>
</g>
<g clip-path="url(#a)">
<use x="728.104549" y="610.134863" fill="#ffffff" stroke="#ffffff" xlink:href="#b"/>
</g>
<g clip-path="url(#a)">
<use x="776.146368" y="610.134863" fill="#ffffff" stroke="#ffffff" xlink:href="#b"/>
</g>
<g clip-path="url(#a)">
<use x="824.188188" y="610.134863" fill="#ffffff" stroke="#ffffff" xlink:href="#b"/>
</g>
<g clip-path="url(#a)">
<use x="872.230007" y="610.134863" fill="#ffffff" stroke="#ffffff" xlink:href="#b"/>
</g>
<g clip-path="url(#a)">
<use x="920.271827" y="610.134863" fill="#ffffff" stroke="#ffffff" xlink:href="#b"/>
</g>
<g clip-path="url(#a)">
<use x="968.313647" y="610.134863" fill="#ffffff" stroke="#ffffff" xlink:href="#b"/>
</g>
<g clip-path="url(#a)">
<use x="1016.355466" y="610.134863" fill="#ffffff" stroke="#ffffff" xlink:href="#b"/>
</g>
<g clip-path="url(#a)">
<use x="1064.397286" y="610.134863" fill="#ffffff" stroke="#ffffff" xlink:href="#b"/>
</g>
<g clip-path="url(#a)">
<use x="1112.439105" y="610.134863" fill="#ffffff" stroke="#ffffff" xlink:href="#b"/>
</g>
<g clip-path="url(#a)">
<use x="1160.480925" y="610.134863" fill="#ffffff" stroke="#ffffff" xlink:href="#b"/>
</g>
<g clip-path="url(#a)">
<use x="536.537793" y="29.865137" fill="#ffffff" stroke="#ffffff" xlink:href="#b"/>
</g>
<g clip-path="url(#a)">
<use x="536.537793" y="118.377142" fill="#ffffff" stroke="#ffffff" xlink:href="#b"/>
</g>
<g clip-path="url(#a)">
<use x="55.519075" y="530.668044" fill="#ffffff" stroke="#ffffff" xlink:href="#b"/>
</g>
<g clip-path="url(#a)">
<use x="328.756924" y="204.510188" fill="#ffffff" stroke="#ffffff" xlink:href="#b"/>
</g>
<g clip-path="url(#a)">
<use x="680.062729" y="530.668044" fill="#ffffff" stroke="#ffffff" xlink:href="#b"/>
</g>
<g clip-path="url(#a)">
<use x="728.104549" y="530.668044" fill="#ffffff" stroke="#ffffff" xlink:href="#b"/>
</g>
<g clip-path="url(#a)">
<use x="890.24569" y="204.510188" fill="#ffffff" stroke="#ffffff" xlink:href="#b"/>
</g>
<g clip-path="url(#a)">
<use x="800.167278" y="451.201225" fill="#ffffff" stroke="#ffffff" xlink:href="#b"/>
</g>
<g clip-path="url(#a)">
<use x="998.339784" y="288.505166" fill="#ffffff" stroke="#ffffff" xlink:href="#b"/>
</g>
<g clip-path="url(#a)">
<use x="992.334556" y="370.628936" fill="#ffffff" stroke="#ffffff" xlink:href="#b"/>
</g>
<g clip-path="url(#a)">
<use x="1112.439105" y="530.668044" fill="#ffffff" stroke="#ffffff" xlink:href="#b"/>
</g>
<g clip-path="url(#a)">
<use x="920.271827" y="530.668044" fill="#ffffff" stroke="#ffffff" xlink:href="#b"/>
</g>
<g clip-path="url(#a)">
<use x="968.313647" y="530.668044" fill="#ffffff" stroke="#ffffff" xlink:href="#b"/>
</g>
<g clip-path="url(#a)">
<use x="1016.355466" y="530.668044" fill="#ffffff" stroke="#ffffff" xlink:href="#b"/>
</g>
<g clip-path="url(#a)">
<use x="1064.397286" y="451.201225" fill="#ffffff" stroke="#ffffff" xlink:href="#b"/>
</g>
<g clip-path="url(#a)">
<use x="1064.397286" y="530.668044" fill="#ffffff" stroke="#ffffff" xlink:href="#b"/>
</g>
<g clip-path="url(#a)">
<use x="776.146368" y="530.668044" fill="#ffffff" stroke="#ffffff" xlink:href="#b"/>
</g>
<g clip-path="url(#a)">
<use x="824.188188" y="530.668044" fill="#ffffff" stroke="#ffffff" xlink:href="#b"/>
</g>
<g clip-path="url(#a)">
<use x="103.560895" y="530.668044" fill="#ffffff" stroke="#ffffff" xlink:href="#b"/>
</g>
<g clip-path="url(#a)">
<use x="295.728173" y="288.505166" fill="#ffffff" stroke="#ffffff" xlink:href="#b"/>
</g>
<g clip-path="url(#a)">
<use x="391.811812" y="530.668044" fill="#ffffff" stroke="#ffffff" xlink:href="#b"/>
</g>
<g clip-path="url(#a)">
<use x="523.926816" y="370.628936" fill="#ffffff" stroke="#ffffff" xlink:href="#b"/>
</g>
<g clip-path="url(#a)">
<use x="463.874541" y="451.201225" fill="#ffffff" stroke="#ffffff" xlink:href="#b"/>
</g>
<g clip-path="url(#a)">
<use x="583.97909" y="451.201225" fill="#ffffff" stroke="#ffffff" xlink:href="#b"/>
</g>
<g clip-path="url(#a)">
<use x="535.937271" y="530.668044" fill="#ffffff" stroke="#ffffff" xlink:href="#b"/>
</g>
<g clip-path="url(#a)">
<use x="583.97909" y="530.668044" fill="#ffffff" stroke="#ffffff" xlink:href="#b"/>
</g>
<g clip-path="url(#a)">
<use x="632.02091" y="530.668044" fill="#ffffff" stroke="#ffffff" xlink:href="#b"/>
</g>
<g clip-path="url(#a)">
<use x="439.853632" y="530.668044" fill="#ffffff" stroke="#ffffff" xlink:href="#b"/>
</g>
<g clip-path="url(#a)">
<use x="487.895451" y="530.668044" fill="#ffffff" stroke="#ffffff" xlink:href="#b"/>
</g>
<g clip-path="url(#a)">
<use x="247.686353" y="370.628936" fill="#ffffff" stroke="#ffffff" xlink:href="#b"/>
</g>
<g clip-path="url(#a)">
<use x="295.728173" y="530.668044" fill="#ffffff" stroke="#ffffff" xlink:href="#b"/>
</g>
<g clip-path="url(#a)">
<use x="343.769993" y="530.668044" fill="#ffffff" stroke="#ffffff" xlink:href="#b"/>
</g>
<g clip-path="url(#a)">
<use x="199.644534" y="451.201225" fill="#ffffff" stroke="#ffffff" xlink:href="#b"/>
</g>
<g clip-path="url(#a)">
<use x="199.644534" y="530.668044" fill="#ffffff" stroke="#ffffff" xlink:href="#b"/>
</g>
<g clip-path="url(#a)">
<use x="151.602714" y="530.668044" fill="#ffffff" stroke="#ffffff" xlink:href="#b"/>
</g>
<g clip-path="url(#a)">
<use x="247.686353" y="530.668044" fill="#ffffff" stroke="#ffffff" xlink:href="#b"/>
</g>
<g clip-path="url(#a)">
<use x="872.230007" y="530.668044" fill="#ffffff" stroke="#ffffff" xlink:href="#b"/>
</g>
<g clip-path="url(#a)">
<use x="1160.480925" y="530.668044" fill="#ffffff" stroke="#ffffff" xlink:href="#b"/>
</g>
<g clip-path="url(#a)">
<defs>
<path id="o" d="m8.5 21.578v33.109h8.9844v-32.766q0-7.7656 3.0156-11.656 3.0312-3.875 9.0938-3.875 7.2656 0 11.484 4.6406 4.2344 4.6406 4.2344 12.656v31h8.9844v-54.688h-8.9844v8.4062q-3.2656-4.9844-7.5938-7.4062-4.3125-2.4219-10.031-2.4219-9.4219 0-14.312 5.8594-4.875 5.8594-4.875 17.141z"/>
</defs>
<g transform="translate(46.554 612.89) scale(.1 -.1)">
<use xlink:href="#ao"/>
<use x="74.804688" xlink:href="#o"/>
<use x="138.183594" xlink:href="#h"/>
</g>
</g>
<g clip-path="url(#a)">
<defs>
<path id="s" d="m45.406 46.391v29.594h8.9844v-75.984h-8.9844v8.2031q-2.8281-4.875-7.1562-7.25-4.3125-2.375-10.375-2.375-9.9062 0-16.141 7.9062-6.2188 7.9219-6.2188 20.812t6.2188 20.797q6.2344 7.9062 16.141 7.9062 6.0625 0 10.375-2.375 4.3281-2.3594 7.1562-7.2344zm-30.609-19.094q0-9.9062 4.0781-15.547t11.203-5.6406 11.219 5.6406q4.1094 5.6406 4.1094 15.547t-4.1094 15.547q-4.0938 5.6406-11.219 5.6406t-11.203-5.6406-4.0781-15.547z"/>
<path id="aa" d="m48.781 52.594v-8.4062q-3.8125 2.1094-7.6406 3.1562t-7.7344 1.0469q-8.75 0-13.594-5.5469-4.8281-5.5312-4.8281-15.547t4.8281-15.562q4.8438-5.5312 13.594-5.5312 3.9062 0 7.7344 1.0469t7.6406 3.1562v-8.3125q-3.7656-1.75-7.7969-2.625-4.0156-0.89062-8.5625-0.89062-12.359 0-19.641 7.7656-7.2656 7.7656-7.2656 20.953 0 13.375 7.3438 21.031 7.3594 7.6719 20.156 7.6719 4.1406 0 8.0938-0.85938 3.9531-0.84375 7.6719-2.5469z"/>
<path id="r" d="m54.891 33.016v-33.016h-8.9844v32.719q0 7.7656-3.0312 11.609-3.0312 3.8594-9.0781 3.8594-7.2812 0-11.484-4.6406-4.2031-4.625-4.2031-12.641v-30.906h-9.0312v75.984h9.0312v-29.797q3.2344 4.9375 7.5938 7.375 4.375 2.4375 10.094 2.4375 9.4219 0 14.25-5.8281 4.8438-5.8281 4.8438-17.156z"/>
</defs>
<g transform="translate(89.246 612.89) scale(.1 -.1)">
<use xlink:href="#s"/>
<use x="63.476562" xlink:href="#o"/>
<use x="126.855469" xlink:href="#h"/>
<use x="167.9375" xlink:href="#aa"/>
<use x="222.917969" xlink:href="#r"/>
</g>
</g>
<g clip-path="url(#a)">
<g transform="translate(143.96 612.89) scale(.1 -.1)">
<use xlink:href="#s"/>
<use x="63.476562" xlink:href="#f"/>
<use x="91.259766" xlink:href="#c"/>
</g>
</g>
<g clip-path="url(#a)">
<defs>
<path id="p" d="m44.281 53.078v-8.5q-3.7969 1.9531-7.9062 2.9219-4.0938 0.98438-8.5 0.98438-6.6875 0-10.031-2.0469t-3.3438-6.1562q0-3.125 2.3906-4.9062t9.625-3.3906l3.0781-0.6875q9.5625-2.0469 13.594-5.7812t4.0312-10.422q0-7.625-6.0312-12.078-6.0312-4.4375-16.578-4.4375-4.3906 0-9.1562 0.85938t-10.031 2.5625v9.2812q4.9844-2.5938 9.8125-3.8906 4.8281-1.2812 9.5781-1.2812 6.3438 0 9.75 2.1719 3.4219 2.1719 3.4219 6.125 0 3.6562-2.4688 5.6094-2.4531 1.9531-10.812 3.7656l-3.125 0.73438q-8.3438 1.75-12.062 5.3906-3.7031 3.6406-3.7031 9.9844 0 7.7188 5.4688 11.906 5.4688 4.2031 15.531 4.2031 4.9688 0 9.3594-0.73438 4.4062-0.71875 8.1094-2.1875z"/>
<path id="v" d="m45.406 27.984q0 9.7656-4.0312 15.125-4.0156 5.375-11.297 5.375-7.2188 0-11.25-5.375-4.0312-5.3594-4.0312-15.125 0-9.7188 4.0312-15.094t11.25-5.375q7.2812 0 11.297 5.375 4.0312 5.375 4.0312 15.094zm8.9844-21.203q0-13.953-6.2031-20.766-6.1875-6.8125-18.984-6.8125-4.7344 0-8.9375 0.70312t-8.1562 2.1719v8.7344q3.9531-2.1406 7.8125-3.1562 3.8594-1.0312 7.8594-1.0312 8.8438 0 13.234 4.6094t4.3906 13.938v4.4531q-2.7812-4.8438-7.125-7.2344t-10.406-2.3906q-10.047 0-16.203 7.6562-6.1562 7.6719-6.1562 20.328 0 12.688 6.1562 20.344 6.1562 7.6719 16.203 7.6719 6.0625 0 10.406-2.3906t7.125-7.2188v8.2969h8.9844z"/>
<path id="ak" d="m5.5156 54.688h42.672v-8.2031l-33.781-39.312h33.781v-7.1719h-43.891v8.2031l33.797 39.312h-32.578z"/>
<path id="q" d="m18.312 70.219v-15.531h18.5v-6.9844h-18.5v-29.688q0-6.6875 1.8281-8.5938t7.4531-1.9062h9.2188v-7.5156h-9.2188q-10.406 0-14.359 3.875-3.9531 3.8906-3.9531 14.141v29.688h-6.5938v6.9844h6.5938v15.531z"/>
</defs>
<g transform="translate(160.27 612.89) scale(.1 -.1)">
<use xlink:href="#i"/>
<use x="61.279297" xlink:href="#o"/>
<use x="124.658203" xlink:href="#p"/>
<use x="176.757812" xlink:href="#v"/>
<use x="240.234375" xlink:href="#c"/>
<use x="301.757812" xlink:href="#ak"/>
<use x="354.248047" xlink:href="#c"/>
<use x="415.771484" xlink:href="#f"/>
<use x="443.554688" xlink:href="#aa"/>
<use x="498.535156" xlink:href="#r"/>
<use x="561.914062" xlink:href="#e"/>
<use x="625.292969" xlink:href="#c"/>
<use x="686.816406" xlink:href="#q"/>
<use x="726.025391" xlink:href="#c"/>
</g>
</g>
<g clip-path="url(#a)">
<defs>
<path id="at" d="m19.672 34.812v-26.703h15.828q7.9531 0 11.781 3.2969 3.8438 3.2969 3.8438 10.078 0 6.8438-3.8438 10.078-3.8281 3.25-11.781 3.25zm0 29.984v-21.969h14.609q7.2188 0 10.75 2.7031 3.5469 2.7188 3.5469 8.2812 0 5.5156-3.5469 8.25-3.5312 2.7344-10.75 2.7344zm-9.8594 8.1094h25.203q11.281 0 17.375-4.6875 6.1094-4.6875 6.1094-13.328 0-6.7031-3.125-10.656t-9.1875-4.9219q7.2812-1.5625 11.312-6.5312 4.0312-4.9531 4.0312-12.375 0-9.7656-6.6406-15.094-6.6406-5.3125-18.906-5.3125h-26.172z"/>
<path id="x" d="m37.109 75.984v-7.4844h-8.5938q-4.8281 0-6.7188-1.9531-1.875-1.9531-1.875-7.0312v-4.8281h14.797v-6.9844h-14.797v-47.703h-9.0312v47.703h-8.5938v6.9844h8.5938v3.8125q0 9.125 4.25 13.297 4.25 4.1875 13.469 4.1875z"/>
</defs>
<g transform="translate(210.23 612.89) scale(.1 -.1)">
<use xlink:href="#at"/>
<use x="68.603516" xlink:href="#c"/>
<use x="130.126953" xlink:href="#p"/>
<use x="182.226562" xlink:href="#aa"/>
<use x="237.207031" xlink:href="#r"/>
<use x="300.585938" xlink:href="#i"/>
<use x="361.865234" xlink:href="#x"/>
<use x="397.070312" xlink:href="#x"/>
<use x="432.275391" xlink:href="#c"/>
<use x="493.798828" xlink:href="#e"/>
<use x="557.177734" xlink:href="#r"/>
<use x="620.556641" xlink:href="#c"/>
<use x="682.080078" xlink:href="#f"/>
<use x="709.863281" xlink:href="#q"/>
</g>
</g>
<g clip-path="url(#a)">
<g transform="translate(279.81 612.89) scale(.1 -.1)">
<use xlink:href="#p"/>
<use x="52.099609" xlink:href="#c"/>
<use x="113.623047" xlink:href="#f"/>
<use x="141.40625" xlink:href="#e"/>
<use x="204.785156" xlink:href="#c"/>
<use x="266.308594" xlink:href="#p"/>
</g>
</g>
<g clip-path="url(#a)">
<defs>
<path id="az" d="m18.109 8.2031v-29h-9.0312v75.484h9.0312v-8.2969q2.8438 4.875 7.1562 7.2344 4.3281 2.375 10.328 2.375 9.9688 0 16.188-7.9062 6.2344-7.9062 6.2344-20.797t-6.2344-20.812q-6.2188-7.9062-16.188-7.9062-6 0-10.328 2.375-4.3125 2.375-7.1562 7.25zm30.578 19.094q0 9.9062-4.0781 15.547t-11.203 5.6406q-7.1406 0-11.219-5.6406t-4.0781-15.547 4.0781-15.547 11.219-5.6406q7.125 0 11.203 5.6406t4.0781 15.547z"/>
</defs>
<g transform="translate(321.64 612.89) scale(.1 -.1)">
<use xlink:href="#w"/>
<use x="69.419922" xlink:href="#o"/>
<use x="132.798828" xlink:href="#j"/>
<use x="230.210938" xlink:href="#az"/>
<use x="293.6875" xlink:href="#x"/>
<use x="328.892578" xlink:href="#c"/>
<use x="390.416016" xlink:href="#p"/>
</g>
</g>
<g clip-path="url(#a)">
<g transform="translate(382.3 612.89) scale(.1 -.1)">
<use xlink:href="#o"/>
<use x="63.378906" xlink:href="#e"/>
<use x="126.757812" xlink:href="#s"/>
</g>
</g>
<g clip-path="url(#a)">
<g transform="translate(426.54 612.89) scale(.1 -.1)">
<use xlink:href="#p"/>
<use x="52.099609" xlink:href="#c"/>
<use x="113.623047" xlink:href="#f"/>
<use x="141.40625" xlink:href="#e"/>
<use x="204.785156" xlink:href="#c"/>
</g>
</g>
<g clip-path="url(#a)">
<defs>
<path id="ap" d="m9.0781 75.984h9.0312v-44.875l26.812 23.578h11.469l-29-25.578 30.234-29.109h-11.719l-27.797 26.703v-26.703h-9.0312z"/>
</defs>
<g transform="translate(455.9 612.89) scale(.1 -.1)">
<use xlink:href="#y"/>
<use x="63.476562" xlink:href="#aa"/>
<use x="118.457031" xlink:href="#r"/>
<use x="181.835938" xlink:href="#e"/>
<use x="245.214844" xlink:href="#c"/>
<use x="306.738281" xlink:href="#k"/>
<use x="334.521484" xlink:href="#k"/>
<use x="362.304688" xlink:href="#f"/>
<use x="390.087891" xlink:href="#v"/>
<use x="453.564453" xlink:href="#ap"/>
<use x="511.427734" xlink:href="#c"/>
<use x="572.951172" xlink:href="#f"/>
<use x="600.734375" xlink:href="#q"/>
</g>
</g>
<g clip-path="url(#a)">
<defs>
<path id="al" d="m48.688 27.297q0 9.9062-4.0781 15.547t-11.203 5.6406q-7.1406 0-11.219-5.6406t-4.0781-15.547 4.0781-15.547 11.219-5.6406q7.125 0 11.203 5.6406t4.0781 15.547zm-30.578 19.094q2.8438 4.875 7.1562 7.2344 4.3281 2.375 10.328 2.375 9.9688 0 16.188-7.9062 6.2344-7.9062 6.2344-20.797t-6.2344-20.812q-6.2188-7.9062-16.188-7.9062-6 0-10.328 2.375-4.3125 2.375-7.1562 7.25v-8.2031h-9.0312v75.984h9.0312z"/>
</defs>
<g transform="translate(528.3 612.89) scale(.1 -.1)">
<use xlink:href="#al"/>
<use x="63.476562" xlink:href="#c"/>
<use x="125" xlink:href="#f"/>
</g>
</g>
<g clip-path="url(#a)">
<defs>
<path id="ay" d="m2.9844 54.688h9.5156l17.094-45.891 17.094 45.891h9.5156l-20.516-54.688h-12.203z"/>
</defs>
<g transform="translate(554.73 612.89) scale(.1 -.1)">
<use xlink:href="#ay"/>
<use x="59.179688" xlink:href="#f"/>
<use x="86.962891" xlink:href="#c"/>
<use x="148.486328" xlink:href="#h"/>
<use x="189.583984" xlink:href="#r"/>
<use x="252.962891" xlink:href="#o"/>
<use x="316.341797" xlink:href="#e"/>
<use x="379.720703" xlink:href="#s"/>
<use x="443.197266" xlink:href="#c"/>
<use x="504.720703" xlink:href="#h"/>
<use x="545.833984" xlink:href="#q"/>
</g>
</g>
<g clip-path="url(#a)">
<g transform="translate(604.13 612.89) scale(.1 -.1)">
<use xlink:href="#ab"/>
<use x="60.302734" xlink:href="#x"/>
<use x="95.507812" xlink:href="#c"/>
<use x="157.03125" xlink:href="#h"/>
<use x="198.128906" xlink:href="#s"/>
<use x="261.605469" xlink:href="#c"/>
<use x="323.128906" xlink:href="#ap"/>
<use x="381.039062" xlink:href="#h"/>
<use x="422.152344" xlink:href="#i"/>
<use x="483.431641" xlink:href="#x"/>
<use x="518.621094" xlink:href="#q"/>
</g>
</g>
<g clip-path="url(#a)">
<g transform="translate(660.95 612.89) scale(.1 -.1)">
<use xlink:href="#c"/>
<use x="61.523438" xlink:href="#e"/>
<use x="124.902344" xlink:href="#q"/>
<use x="164.111328" xlink:href="#v"/>
<use x="227.587891" xlink:href="#f"/>
<use x="255.371094" xlink:href="#e"/>
<use x="318.75" xlink:href="#v"/>
</g>
</g>
<g clip-path="url(#a)">
<g transform="translate(722.97 612.89) scale(.1 -.1)">
<use xlink:href="#c"/>
<use x="61.523438" xlink:href="#h"/>
</g>
</g>
<g clip-path="url(#a)">
<g transform="translate(767.84 612.89) scale(.1 -.1)">
<use xlink:href="#s"/>
<use x="63.476562" xlink:href="#c"/>
<use x="125" xlink:href="#h"/>
</g>
</g>
<g clip-path="url(#a)">
<defs>
<path id="ar" d="m59.516 10.406v19.578h-16.109v8.1094h25.875v-31.312q-5.7031-4.0469-12.594-6.125-6.875-2.0781-14.688-2.0781-17.094 0-26.75 9.9844-9.6406 10-9.6406 27.812 0 17.875 9.6406 27.859 9.6562 9.9844 26.75 9.9844 7.125 0 13.547-1.7656 6.4219-1.75 11.844-5.1719v-10.5q-5.4688 4.6406-11.625 6.9844t-12.938 2.3438q-13.391 0-20.109-7.4688-6.7031-7.4688-6.7031-22.266 0-14.75 6.7031-22.219 6.7188-7.4688 20.109-7.4688 5.2188 0 9.3125 0.90625 4.1094 0.90625 7.375 2.8125z"/>
</defs>
<g transform="translate(807.19 612.89) scale(.1 -.1)">
<use xlink:href="#ar"/>
<use x="77.490234" xlink:href="#c"/>
<use x="139.013672" xlink:href="#x"/>
<use x="174.21875" xlink:href="#i"/>
<use x="235.498047" xlink:href="#r"/>
<use x="298.876953" xlink:href="#h"/>
</g>
</g>
<g clip-path="url(#a)">
<defs>
<path id="au" d="m11.719 12.406h10.297v-8.4062l-8-15.625h-6.2969l4 15.625z"/>
</defs>
<g transform="translate(870.64 612.89) scale(.1 -.1)">
<use xlink:href="#au"/>
</g>
</g>
<g clip-path="url(#a)">
<g transform="translate(912.05 612.89) scale(.1 -.1)">
<use xlink:href="#j"/>
<use x="97.412109" xlink:href="#f"/>
<use x="125.195312" xlink:href="#q"/>
</g>
</g>
<g clip-path="url(#a)">
<g transform="translate(951.83 612.89) scale(.1 -.1)">
<use xlink:href="#p"/>
<use x="52.099609" xlink:href="#c"/>
<use x="113.623047" xlink:href="#f"/>
<use x="141.40625" xlink:href="#e"/>
<use x="204.785156" xlink:href="#c"/>
<use x="266.308594" xlink:href="#e"/>
</g>
</g>
<g clip-path="url(#a)">
<defs>
<path id="ax" d="m4.2031 54.688h8.9844l11.234-42.672 11.172 42.672h10.594l11.234-42.672 11.188 42.672h8.9844l-14.312-54.688h-10.594l-11.766 44.828-11.812-44.828h-10.609z"/>
<path id="av" d="m9.0781 55.516q0 9.7656 5.8281 15.109 5.8438 5.3594 16.484 5.3594 10.156 0 15.5-5.6719 5.3594-5.6562 5.5-16.594-7.375-0.39062-11.484-3.2031-4.0938-2.8125-4.0938-7.5 0-2.2969 1.4219-4.2812 1.4219-1.9688 4.5938-4.0156l2.7812-1.8125q8.1094-5.1719 10.453-8.6406t2.3438-8.3438q0-8.4062-5.5-12.875t-15.797-4.4688q-3.125 0-6.4531 0.60938-3.3125 0.60938-6.875 1.7969v8q3.9062-1.4688 7.3125-2.1719 3.4219-0.70312 6.6094-0.70312 5.6562 0 8.5781 2.3125 2.9375 2.3281 2.9375 6.7656 0 3.0781-1.4375 5.125t-6.375 5.0781l-4.4844 2.6875q-4.6875 2.875-6.8125 6.1719t-2.125 7.75q0 6.1875 4.0781 10.391t11.438 5.625q-0.39062 5.0156-3.5938 7.75-3.1875 2.7344-8.7031 2.7344-6.3438 0-9.6719-3.3906-3.3125-3.3906-3.3125-9.7812v-55.328h-9.1406z"/>
</defs>
<g transform="translate(942 612.89) scale(.1 -.1)">
<use xlink:href="#ak"/>
<use x="52.490234" xlink:href="#ax"/>
<use x="134.277344" xlink:href="#c"/>
<use x="195.800781" xlink:href="#f"/>
<use x="223.583984" xlink:href="#r"/>
<use x="286.962891" xlink:href="#o"/>
<use x="350.341797" xlink:href="#e"/>
<use x="413.720703" xlink:href="#s"/>
<use x="477.197266" xlink:href="#c"/>
<use x="538.720703" xlink:href="#h"/>
<use x="579.833984" xlink:href="#q"/>
<use x="619.042969" xlink:href="#p"/>
<use x="671.142578" xlink:href="#f"/>
<use x="698.925781" xlink:href="#c"/>
<use x="760.449219" xlink:href="#al"/>
<use x="823.925781" xlink:href="#c"/>
<use x="885.449219" xlink:href="#e"/>
<use x="948.828125" xlink:href="#o"/>
<use x="1012.207031" xlink:href="#e"/>
<use x="1075.585938" xlink:href="#s"/>
<use x="1139.0625" xlink:href="#s"/>
<use x="1202.539062" xlink:href="#h"/>
<use x="1243.621094" xlink:href="#c"/>
<use x="1305.144531" xlink:href="#f"/>
<use x="1332.927734" xlink:href="#av"/>
<use x="1395.916016" xlink:href="#f"/>
<use x="1423.699219" xlink:href="#v"/>
</g>
</g>
<g clip-path="url(#a)">
<g transform="translate(1034.1 612.89) scale(.1 -.1)">
<use xlink:href="#ab"/>
<use x="60.240234" xlink:href="#i"/>
<use x="121.519531" xlink:href="#p"/>
<use x="173.619141" xlink:href="#p"/>
<use x="225.71875" xlink:href="#i"/>
<use x="286.998047" xlink:href="#v"/>
<use x="350.474609" xlink:href="#f"/>
<use x="378.257812" xlink:href="#c"/>
<use x="439.78125" xlink:href="#h"/>
<use x="480.863281" xlink:href="#c"/>
<use x="542.386719" xlink:href="#e"/>
</g>
</g>
<g clip-path="url(#a)">
<g transform="translate(1077.6 612.89) scale(.1 -.1)">
<use xlink:href="#o"/>
<use x="63.378906" xlink:href="#e"/>
<use x="126.757812" xlink:href="#q"/>
<use x="165.966797" xlink:href="#c"/>
<use x="227.490234" xlink:href="#h"/>
<use x="268.603516" xlink:href="#ak"/>
<use x="321.09375" xlink:href="#o"/>
<use x="384.472656" xlink:href="#v"/>
<use x="447.949219" xlink:href="#c"/>
<use x="509.472656" xlink:href="#r"/>
<use x="572.851562" xlink:href="#c"/>
<use x="634.375" xlink:href="#e"/>
</g>
</g>
<g clip-path="url(#a)">
<defs>
<path id="g" d="m10.688 12.406h10.312v-12.406h-10.312z"/>
</defs>
<g transform="translate(1158.9 612.89) scale(.1 -.1)">
<use xlink:href="#g"/>
</g>
</g>
<g clip-path="url(#a)">
<defs>
<path id="d" d="m12.406 8.2969h16.109v55.625l-17.531-3.5156v8.9844l17.438 3.5156h9.8594v-64.609h16.109v-8.2969h-41.984z"/>
</defs>
<g transform="translate(528.59 32.625) scale(.1 -.1)">
<use xlink:href="#d"/>
<use x="63.623047" xlink:href="#g"/>
<use x="95.410156" xlink:href="#d"/>
</g>
</g>
<g clip-path="url(#a)">
<defs>
<path id="m" d="m19.188 8.2969h34.422v-8.2969h-46.281v8.2969q5.6094 5.8125 15.297 15.594 9.7031 9.7969 12.188 12.641 4.7344 5.3125 6.6094 9 1.8906 3.6875 1.8906 7.25 0 5.8125-4.0781 9.4688-4.0781 3.6719-10.625 3.6719-4.6406 0-9.7969-1.6094-5.1406-1.6094-11-4.8906v9.9688q5.9531 2.3906 11.125 3.6094 5.1875 1.2188 9.4844 1.2188 11.328 0 18.062-5.6719 6.7344-5.6562 6.7344-15.125 0-4.5-1.6875-8.5312-1.6719-4.0156-6.125-9.4844-1.2188-1.4219-7.7656-8.1875-6.5312-6.7656-18.453-18.922z"/>
</defs>
<g transform="translate(528.59 121.14) scale(.1 -.1)">
<use xlink:href="#d"/>
<use x="63.623047" xlink:href="#g"/>
<use x="95.410156" xlink:href="#m"/>
</g>
</g>
<g clip-path="url(#a)">
<defs>
<path id="z" d="m37.797 64.312-24.906-38.922h24.906zm-2.5938 8.5938h12.406v-47.516h10.406v-8.2031h-10.406v-17.188h-9.8125v17.188h-32.906v9.5156z"/>
</defs>
<g transform="translate(47.568 533.43) scale(.1 -.1)">
<use xlink:href="#d"/>
<use x="63.623047" xlink:href="#g"/>
<use x="95.410156" xlink:href="#z"/>
</g>
</g>
<g clip-path="url(#a)">
<defs>
<path id="ag" d="m10.797 72.906h38.719v-8.3125h-29.688v-17.859q2.1406 0.73438 4.2812 1.0938 2.1562 0.35938 4.3125 0.35938 12.203 0 19.328-6.6875 7.1406-6.6875 7.1406-18.109 0-11.766-7.3281-18.297-7.3281-6.5156-20.656-6.5156-4.5938 0-9.3594 0.78125-4.75 0.78125-9.8281 2.3438v9.9219q4.3906-2.3906 9.0781-3.5625t9.9062-1.1719q8.4531 0 13.375 4.4375 4.9375 4.4375 4.9375 12.062 0 7.6094-4.9375 12.047-4.9219 4.4531-13.375 4.4531-3.9531 0-7.8906-0.875-3.9219-0.875-8.0156-2.7344z"/>
</defs>
<g transform="translate(320.81 207.27) scale(.1 -.1)">
<use xlink:href="#d"/>
<use x="63.623047" xlink:href="#g"/>
<use x="95.410156" xlink:href="#ag"/>
</g>
</g>
<g clip-path="url(#a)">
<defs>
<path id="af" d="m33.016 40.375q-6.6406 0-10.531-4.5469-3.875-4.5312-3.875-12.438 0-7.8594 3.875-12.438 3.8906-4.5625 10.531-4.5625t10.516 4.5625q3.875 4.5781 3.875 12.438 0 7.9062-3.875 12.438-3.875 4.5469-10.516 4.5469zm19.578 30.922v-8.9844q-3.7188 1.75-7.5 2.6719-3.7812 0.9375-7.5 0.9375-9.7656 0-14.922-6.5938-5.1406-6.5938-5.875-19.922 2.875 4.25 7.2188 6.5156 4.3594 2.2656 9.5781 2.2656 10.984 0 17.359-6.6719 6.375-6.6562 6.375-18.125 0-11.234-6.6406-18.031-6.6406-6.7812-17.672-6.7812-12.656 0-19.344 9.6875-6.6875 9.7031-6.6875 28.109 0 17.281 8.2031 27.562t22.016 10.281q3.7188 0 7.5-0.73438t7.8906-2.1875z"/>
</defs>
<g transform="translate(672.11 533.43) scale(.1 -.1)">
<use xlink:href="#d"/>
<use x="63.623047" xlink:href="#g"/>
<use x="95.410156" xlink:href="#af"/>
</g>
</g>
<g clip-path="url(#a)">
<defs>
<path id="ae" d="m8.2031 72.906h46.875v-4.2031l-26.469-68.703h-10.297l24.906 64.594h-35.016z"/>
</defs>
<g transform="translate(720.15 533.43) scale(.1 -.1)">
<use xlink:href="#d"/>
<use x="63.623047" xlink:href="#g"/>
<use x="95.410156" xlink:href="#ae"/>
</g>
</g>
<g clip-path="url(#a)">
<defs>
<path id="ad" d="m31.781 34.625q-7.0312 0-11.062-3.7656-4.0156-3.7656-4.0156-10.344 0-6.5938 4.0156-10.359 4.0312-3.7656 11.062-3.7656t11.078 3.7812q4.0625 3.7969 4.0625 10.344 0 6.5781-4.0312 10.344-4.0156 3.7656-11.109 3.7656zm-9.8594 4.1875q-6.3438 1.5625-9.8906 5.9062-3.5312 4.3594-3.5312 10.609 0 8.7344 6.2188 13.812 6.2344 5.0781 17.062 5.0781 10.891 0 17.094-5.0781t6.2031-13.812q0-6.25-3.5469-10.609-3.5312-4.3438-9.8281-5.9062 7.125-1.6562 11.094-6.5 3.9844-4.8281 3.9844-11.797 0-10.609-6.4688-16.281-6.4688-5.6562-18.531-5.6562-12.047 0-18.531 5.6562-6.4688 5.6719-6.4688 16.281 0 6.9688 4 11.797 4.0156 4.8438 11.141 6.5zm-3.6094 15.578q0-5.6562 3.5312-8.8281 3.5469-3.1719 9.9375-3.1719 6.3594 0 9.9375 3.1719 3.5938 3.1719 3.5938 8.8281 0 5.6719-3.5938 8.8438-3.5781 3.1719-9.9375 3.1719-6.3906 0-9.9375-3.1719-3.5312-3.1719-3.5312-8.8438z"/>
</defs>
<g transform="translate(882.29 207.27) scale(.1 -.1)">
<use xlink:href="#d"/>
<use x="63.623047" xlink:href="#g"/>
<use x="95.410156" xlink:href="#ad"/>
</g>
</g>
<g clip-path="url(#a)">
<defs>
<path id="ac" d="m10.984 1.5156v8.9844q3.7188-1.7656 7.5156-2.6875 3.8125-0.92188 7.4844-0.92188 9.7656 0 14.906 6.5625 5.1562 6.5625 5.8906 19.953-2.8281-4.2031-7.1875-6.4531-4.3438-2.25-9.6094-2.25-10.938 0-17.312 6.6094-6.375 6.625-6.375 18.109 0 11.219 6.6406 18 6.6406 6.7969 17.672 6.7969 12.656 0 19.312-9.7031 6.6719-9.6875 6.6719-28.141 0-17.234-8.1875-27.516-8.1719-10.281-21.984-10.281-3.7188 0-7.5312 0.73438-3.7969 0.73438-7.9062 2.2031zm19.625 30.906q6.6406 0 10.516 4.5312 3.8906 4.5469 3.8906 12.469 0 7.8594-3.8906 12.422-3.875 4.5625-10.516 4.5625t-10.516-4.5625-3.875-12.422q0-7.9219 3.875-12.469 3.875-4.5312 10.516-4.5312z"/>
</defs>
<g transform="translate(792.22 453.96) scale(.1 -.1)">
<use xlink:href="#d"/>
<use x="63.623047" xlink:href="#g"/>
<use x="95.410156" xlink:href="#ac"/>
</g>
</g>
<g clip-path="url(#a)">
<defs>
<path id="ah" d="m31.781 66.406q-7.6094 0-11.453-7.5-3.8281-7.4844-3.8281-22.531 0-14.984 3.8281-22.484 3.8438-7.5 11.453-7.5 7.6719 0 11.5 7.5 3.8438 7.5 3.8438 22.484 0 15.047-3.8438 22.531-3.8281 7.5-11.5 7.5zm0 7.8125q12.266 0 18.734-9.7031 6.4688-9.6875 6.4688-28.141 0-18.406-6.4688-28.109-6.4688-9.6875-18.734-9.6875-12.25 0-18.719 9.6875-6.4688 9.7031-6.4688 28.109 0 18.453 6.4688 28.141 6.4688 9.7031 18.719 9.7031z"/>
</defs>
<g transform="translate(987.21 291.26) scale(.1 -.1)">
<use xlink:href="#d"/>
<use x="63.623047" xlink:href="#g"/>
<use x="95.410156" xlink:href="#d"/>
<use x="159.033203" xlink:href="#ah"/>
</g>
</g>
<g clip-path="url(#a)">
<g transform="translate(981.2 373.39) scale(.1 -.1)">
<use xlink:href="#d"/>
<use x="63.623047" xlink:href="#g"/>
<use x="95.410156" xlink:href="#d"/>
<use x="159.033203" xlink:href="#m"/>
</g>
</g>
<g clip-path="url(#a)">
<defs>
<path id="n" d="m40.578 39.312q7.0781-1.5156 11.047-6.3125 3.9844-4.7812 3.9844-11.812 0-10.781-7.4219-16.703-7.4219-5.9062-21.094-5.9062-4.5781 0-9.4375 0.90625t-10.031 2.7188v9.5156q4.0938-2.3906 8.9688-3.6094 4.8906-1.2188 10.219-1.2188 9.2656 0 14.125 3.6562t4.8594 10.641q0 6.4531-4.5156 10.078-4.5156 3.6406-12.562 3.6406h-8.5v8.1094h8.8906q7.2656 0 11.125 2.9062t3.8594 8.375q0 5.6094-3.9844 8.6094-3.9688 3.0156-11.391 3.0156-4.0625 0-8.7031-0.89062-4.6406-0.875-10.203-2.7188v8.7812q5.625 1.5625 10.531 2.3438t9.25 0.78125q11.234 0 17.766-5.1094 6.5469-5.0938 6.5469-13.781 0-6.0625-3.4688-10.234t-9.8594-5.7812z"/>
</defs>
<g transform="translate(1101.3 533.43) scale(.1 -.1)">
<use xlink:href="#d"/>
<use x="63.623047" xlink:href="#g"/>
<use x="95.410156" xlink:href="#d"/>
<use x="159.033203" xlink:href="#n"/>
</g>
</g>
<g clip-path="url(#a)">
<g transform="translate(909.14 533.43) scale(.1 -.1)">
<use xlink:href="#d"/>
<use x="63.623047" xlink:href="#g"/>
<use x="95.410156" xlink:href="#d"/>
<use x="159.033203" xlink:href="#z"/>
</g>
</g>
<g clip-path="url(#a)">
<g transform="translate(957.18 533.43) scale(.1 -.1)">
<use xlink:href="#d"/>
<use x="63.623047" xlink:href="#g"/>
<use x="95.410156" xlink:href="#d"/>
<use x="159.033203" xlink:href="#ag"/>
</g>
</g>
<g clip-path="url(#a)">
<g transform="translate(1005.2 533.43) scale(.1 -.1)">
<use xlink:href="#d"/>
<use x="63.623047" xlink:href="#g"/>
<use x="95.410156" xlink:href="#d"/>
<use x="159.033203" xlink:href="#af"/>
</g>
</g>
<g clip-path="url(#a)">
<g transform="translate(1053.3 453.96) scale(.1 -.1)">
<use xlink:href="#d"/>
<use x="63.623047" xlink:href="#g"/>
<use x="95.410156" xlink:href="#d"/>
<use x="159.033203" xlink:href="#ae"/>
</g>
</g>
<g clip-path="url(#a)">
<g transform="translate(1053.3 533.43) scale(.1 -.1)">
<use xlink:href="#d"/>
<use x="63.623047" xlink:href="#g"/>
<use x="95.410156" xlink:href="#d"/>
<use x="159.033203" xlink:href="#ad"/>
</g>
</g>
<g clip-path="url(#a)">
<g transform="translate(765.01 533.43) scale(.1 -.1)">
<use xlink:href="#d"/>
<use x="63.623047" xlink:href="#g"/>
<use x="95.410156" xlink:href="#d"/>
<use x="159.033203" xlink:href="#ac"/>
</g>
</g>
<g clip-path="url(#a)">
<g transform="translate(813.06 533.43) scale(.1 -.1)">
<use xlink:href="#d"/>
<use x="63.623047" xlink:href="#g"/>
<use x="95.410156" xlink:href="#m"/>
<use x="159.033203" xlink:href="#ah"/>
</g>
</g>
<g clip-path="url(#a)">
<g transform="translate(92.428 533.43) scale(.1 -.1)">
<use xlink:href="#d"/>
<use x="63.623047" xlink:href="#g"/>
<use x="95.410156" xlink:href="#m"/>
<use x="159.033203" xlink:href="#d"/>
</g>
</g>
<g clip-path="url(#a)">
<g transform="translate(284.6 291.26) scale(.1 -.1)">
<use xlink:href="#d"/>
<use x="63.623047" xlink:href="#g"/>
<use x="95.410156" xlink:href="#m"/>
<use x="159.033203" xlink:href="#m"/>
</g>
</g>
<g clip-path="url(#a)">
<g transform="translate(380.68 533.43) scale(.1 -.1)">
<use xlink:href="#d"/>
<use x="63.623047" xlink:href="#g"/>
<use x="95.410156" xlink:href="#m"/>
<use x="159.033203" xlink:href="#n"/>
</g>
</g>
<g clip-path="url(#a)">
<g transform="translate(512.79 373.39) scale(.1 -.1)">
<use xlink:href="#d"/>
<use x="63.623047" xlink:href="#g"/>
<use x="95.410156" xlink:href="#m"/>
<use x="159.033203" xlink:href="#z"/>
</g>
</g>
<g clip-path="url(#a)">
<g transform="translate(452.74 453.96) scale(.1 -.1)">
<use xlink:href="#d"/>
<use x="63.623047" xlink:href="#g"/>
<use x="95.410156" xlink:href="#m"/>
<use x="159.033203" xlink:href="#ag"/>
</g>
</g>
<g clip-path="url(#a)">
<g transform="translate(572.85 453.96) scale(.1 -.1)">
<use xlink:href="#d"/>
<use x="63.623047" xlink:href="#g"/>
<use x="95.410156" xlink:href="#m"/>
<use x="159.033203" xlink:href="#af"/>
</g>
</g>
<g clip-path="url(#a)">
<g transform="translate(524.8 533.43) scale(.1 -.1)">
<use xlink:href="#d"/>
<use x="63.623047" xlink:href="#g"/>
<use x="95.410156" xlink:href="#m"/>
<use x="159.033203" xlink:href="#ae"/>
</g>
</g>
<g clip-path="url(#a)">
<g transform="translate(572.85 533.43) scale(.1 -.1)">
<use xlink:href="#d"/>
<use x="63.623047" xlink:href="#g"/>
<use x="95.410156" xlink:href="#m"/>
<use x="159.033203" xlink:href="#ad"/>
</g>
</g>
<g clip-path="url(#a)">
<g transform="translate(620.89 533.43) scale(.1 -.1)">
<use xlink:href="#d"/>
<use x="63.623047" xlink:href="#g"/>
<use x="95.410156" xlink:href="#m"/>
<use x="159.033203" xlink:href="#ac"/>
</g>
</g>
<g clip-path="url(#a)">
<g transform="translate(428.72 533.43) scale(.1 -.1)">
<use xlink:href="#d"/>
<use x="63.623047" xlink:href="#g"/>
<use x="95.410156" xlink:href="#n"/>
<use x="159.033203" xlink:href="#ah"/>
</g>
</g>
<g clip-path="url(#a)">
<g transform="translate(476.76 533.43) scale(.1 -.1)">
<use xlink:href="#d"/>
<use x="63.623047" xlink:href="#g"/>
<use x="95.410156" xlink:href="#n"/>
<use x="159.033203" xlink:href="#d"/>
</g>
</g>
<g clip-path="url(#a)">
<g transform="translate(236.55 373.39) scale(.1 -.1)">
<use xlink:href="#d"/>
<use x="63.623047" xlink:href="#g"/>
<use x="95.410156" xlink:href="#n"/>
<use x="159.033203" xlink:href="#m"/>
</g>
</g>
<g clip-path="url(#a)">
<g transform="translate(284.6 533.43) scale(.1 -.1)">
<use xlink:href="#d"/>
<use x="63.623047" xlink:href="#g"/>
<use x="95.410156" xlink:href="#n"/>
<use x="159.033203" xlink:href="#n"/>
</g>
</g>
<g clip-path="url(#a)">
<g transform="translate(332.64 533.43) scale(.1 -.1)">
<use xlink:href="#d"/>
<use x="63.623047" xlink:href="#g"/>
<use x="95.410156" xlink:href="#n"/>
<use x="159.033203" xlink:href="#z"/>
</g>
</g>
<g clip-path="url(#a)">
<g transform="translate(188.51 453.96) scale(.1 -.1)">
<use xlink:href="#d"/>
<use x="63.623047" xlink:href="#g"/>
<use x="95.410156" xlink:href="#n"/>
<use x="159.033203" xlink:href="#ag"/>
</g>
</g>
<g clip-path="url(#a)">
<g transform="translate(188.51 533.43) scale(.1 -.1)">
<use xlink:href="#d"/>
<use x="63.623047" xlink:href="#g"/>
<use x="95.410156" xlink:href="#n"/>
<use x="159.033203" xlink:href="#af"/>
</g>
</g>
<g clip-path="url(#a)">
<g transform="translate(140.47 533.43) scale(.1 -.1)">
<use xlink:href="#d"/>
<use x="63.623047" xlink:href="#g"/>
<use x="95.410156" xlink:href="#n"/>
<use x="159.033203" xlink:href="#ae"/>
</g>
</g>
<g clip-path="url(#a)">
<g transform="translate(236.55 533.43) scale(.1 -.1)">
<use xlink:href="#d"/>
<use x="63.623047" xlink:href="#g"/>
<use x="95.410156" xlink:href="#n"/>
<use x="159.033203" xlink:href="#ad"/>
</g>
</g>
<g clip-path="url(#a)">
<g transform="translate(861.1 533.43) scale(.1 -.1)">
<use xlink:href="#d"/>
<use x="63.623047" xlink:href="#g"/>
<use x="95.410156" xlink:href="#n"/>
<use x="159.033203" xlink:href="#ac"/>
</g>
</g>
<g clip-path="url(#a)">
<g transform="translate(1149.3 533.43) scale(.1 -.1)">
<use xlink:href="#d"/>
<use x="63.623047" xlink:href="#g"/>
<use x="95.410156" xlink:href="#z"/>
<use x="159.033203" xlink:href="#ah"/>
</g>
</g>
<defs>
<clipPath id="a">
<rect width="1216" height="640"/>
</clipPath>
</defs>
</svg>
