<?xml version="1.0" encoding="UTF-8"?>
<!DOCTYPE svg  PUBLIC '-//W3C//DTD SVG 1.1//EN'  'http://www.w3.org/Graphics/SVG/1.1/DTD/svg11.dtd'>
<svg width="1418.7pt" height="746.67pt" version="1.1" viewBox="0 0 1418.7 746.67" xmlns="http://www.w3.org/2000/svg" xmlns:xlink="http://www.w3.org/1999/xlink">
<defs>
<style type="text/css">*{stroke-linecap:butt;stroke-linejoin:round;}</style>
</defs>
<path d="m0 746.67h1418.7v-746.67h-1418.7z" fill="#fff"/>
<g fill="none" stroke="#000">
<path d="m249.09 33.939v76.131" clip-path="url(#a)"/>
<path d="m249.09 110.07-184.6 528.87" clip-path="url(#a)"/>
<path d="m249.09 110.07-175.65 528.87" clip-path="url(#a)"/>
<path d="m249.09 110.07 523.95 76.036" clip-path="url(#a)"/>
<path d="m249.09 110.07-163.7 528.87" clip-path="url(#a)"/>
<path d="m64.485 638.95v73.782" clip-path="url(#a)"/>
<path d="m73.441 638.95v73.782" clip-path="url(#a)"/>
<path d="m773.04 186.11-629.9 75.927" clip-path="url(#a)"/>
<path d="m773.04 186.11-311.5 452.84" clip-path="url(#a)"/>
<path d="m773.04 186.11-233.88 378.03" clip-path="url(#a)"/>
<path d="m773.04 186.11-89.582 378.03" clip-path="url(#a)"/>
<path d="m773.04 186.11 189.16 302.83" clip-path="url(#a)"/>
<path d="m773.04 186.11 494.56 452.84" clip-path="url(#a)"/>
<path d="m773.04 186.11 581.14 452.84" clip-path="url(#a)"/>
<path d="m143.14 262.03-42.832 376.91" clip-path="url(#a)"/>
<path d="m143.14 262.03-24.92 376.91" clip-path="url(#a)"/>
<path d="m143.14 262.03 67.752 75.8" clip-path="url(#a)"/>
<path d="m461.54 638.95v73.782" clip-path="url(#a)"/>
<path d="m539.16 564.14-26.869 74.808" clip-path="url(#a)"/>
<path d="m539.16 564.14 26.869 74.808" clip-path="url(#a)"/>
<path d="m683.46 564.14-60.703 74.808" clip-path="url(#a)"/>
<path d="m683.46 564.14-0.99514 74.808" clip-path="url(#a)"/>
<path d="m683.46 564.14 61.698 74.808" clip-path="url(#a)"/>
<path d="m962.2 488.94-151.36 150.01" clip-path="url(#a)"/>
<path d="m962.2 488.94-82.696 150.01" clip-path="url(#a)"/>
<path d="m962.2 488.94-11.046 150.01" clip-path="url(#a)"/>
<path d="m962.2 488.94 63.589 150.01" clip-path="url(#a)"/>
<path d="m962.2 488.94 181.51 75.201" clip-path="url(#a)"/>
<path d="m1267.6 638.95v73.782" clip-path="url(#a)"/>
<path d="m810.84 638.95v73.782" clip-path="url(#a)"/>
<path d="m879.5 638.95v73.782" clip-path="url(#a)"/>
<path d="m951.15 638.95v73.782" clip-path="url(#a)"/>
<path d="m1025.8 638.95v73.782" clip-path="url(#a)"/>
<path d="m1143.7 564.14-40.303 74.808" clip-path="url(#a)"/>
<path d="m1143.7 564.14 40.303 74.808" clip-path="url(#a)"/>
<path d="m1103.4 638.95v73.782" clip-path="url(#a)"/>
<path d="m1184 638.95v73.782" clip-path="url(#a)"/>
<path d="m622.76 638.95v73.782" clip-path="url(#a)"/>
<path d="m682.46 638.95v73.782" clip-path="url(#a)"/>
<path d="m745.16 638.95v73.782" clip-path="url(#a)"/>
<path d="m512.3 638.95v73.782" clip-path="url(#a)"/>
<path d="m566.03 638.95v73.782" clip-path="url(#a)"/>
<path d="m100.31 638.95v73.782" clip-path="url(#a)"/>
<path d="m118.22 638.95v73.782" clip-path="url(#a)"/>
<path d="m210.89 337.83-71.774 301.11" clip-path="url(#a)"/>
<path d="m210.89 337.83-47.891 301.11" clip-path="url(#a)"/>
<path d="m210.89 337.83-21.022 301.11" clip-path="url(#a)"/>
<path d="m210.89 337.83 140.69 75.647" clip-path="url(#a)"/>
<path d="m139.12 638.95v73.782" clip-path="url(#a)"/>
<path d="m163 638.95v73.782" clip-path="url(#a)"/>
<path d="m189.87 638.95v73.782" clip-path="url(#a)"/>
<path d="m351.58 413.48-79.611 75.456" clip-path="url(#a)"/>
<path d="m351.58 413.48 17.415 225.47" clip-path="url(#a)"/>
<path d="m351.58 413.48 62.196 225.47" clip-path="url(#a)"/>
<path d="m271.97 488.94-35.825 150.01" clip-path="url(#a)"/>
<path d="m271.97 488.94 35.825 75.201" clip-path="url(#a)"/>
<path d="m369 638.95v73.782" clip-path="url(#a)"/>
<path d="m413.78 638.95v73.782" clip-path="url(#a)"/>
<path d="m236.15 638.95-16.42 73.782" clip-path="url(#a)"/>
<path d="m236.15 638.95 16.42 73.782" clip-path="url(#a)"/>
<path d="m307.8 564.14-19.405 74.808" clip-path="url(#a)"/>
<path d="m307.8 564.14 19.405 74.808" clip-path="url(#a)"/>
<path d="m288.39 638.95v73.782" clip-path="url(#a)"/>
<path d="m327.2 638.95v73.782" clip-path="url(#a)"/>
<path d="m85.383 638.95v73.782" clip-path="url(#a)"/>
<path d="m1354.2 638.95v73.782" clip-path="url(#a)"/>
</g>
<path d="m242.82 68.997v6.0162q0 2.4 2.4 2.4h7.7425q2.4 0 2.4-2.4v-6.0162q0-2.4-2.4-2.4h-7.7425q-2.4 0-2.4 2.4z" clip-path="url(#a)" fill="#fff" stroke="#fff"/>
<g clip-path="url(#a)">
<defs>
<path id="av" d="m9.8125 72.906h9.8594v-29.891h35.844v29.891h9.8594v-72.906h-9.8594v34.719h-35.844v-34.719h-9.8594z"/>
</defs>
<g transform="translate(246.88 68.997) rotate(90) scale(.08 -.08)">
<use xlink:href="#av"/>
</g>
</g>
<path d="m161.69 379.48 2.03-5.8159q0.79092-2.2659-1.475-3.0569l-7.31-2.5515q-2.2659-0.79092-3.0569 1.475l-2.03 5.8159q-0.79092 2.2659 1.475 3.0569l7.31 2.5515q2.2659 0.79092 3.0569-1.475z" clip-path="url(#a)" fill="#fff" stroke="#fff"/>
<g clip-path="url(#a)">
<defs>
<path id="ak" d="m19.672 64.797v-56.688h11.922q15.094 0 22.094 6.8281 7 6.8438 7 21.594 0 14.641-7 21.453t-22.094 6.8125zm-9.8594 8.1094h20.266q21.188 0 31.094-8.8125 9.9219-8.8125 9.9219-27.562 0-18.859-9.9688-27.703-9.9531-8.8281-31.047-8.8281h-20.266z"/>
</defs>
<g transform="translate(157.86 378.14) rotate(-70.759) scale(.08 -.08)">
<use xlink:href="#ak"/>
</g>
</g>
<path d="m166.46 378.77 1.5204-4.5779q0.75645-2.2777-1.5212-3.0341l-7.3479-2.4403q-2.2777-0.75645-3.0341 1.5212l-1.5204 4.5779q-0.75645 2.2777 1.5212 3.0341l7.3479 2.4403q2.2777 0.75645 3.0341-1.5212z" clip-path="url(#a)" fill="#fff" stroke="#fff"/>
<g clip-path="url(#a)">
<defs>
<path id="ae" d="m19.672 64.797v-27.391h12.406q6.8906 0 10.641 3.5625 3.7656 3.5625 3.7656 10.156 0 6.5469-3.7656 10.109-3.75 3.5625-10.641 3.5625zm-9.8594 8.1094h22.266q12.266 0 18.531-5.5469 6.2812-5.5469 6.2812-16.234 0-10.797-6.2812-16.312-6.2656-5.5156-18.531-5.5156h-12.406v-29.297h-9.8594z"/>
</defs>
<g transform="translate(162.6 377.49) rotate(-71.628) scale(.08 -.08)">
<use xlink:href="#ae"/>
</g>
</g>
<path d="m507.46 153.9 5.4158 0.78593q2.3751 0.34468 2.7198-2.0304l1.1119-7.6622q0.34468-2.3751-2.0304-2.7198l-5.4158-0.78593q-2.3751-0.34468-2.7198 2.0304l-1.1119 7.6622q-0.34468 2.3751 2.0304 2.7198z" clip-path="url(#a)" fill="#fff" stroke="#fff"/>
<g clip-path="url(#a)">
<defs>
<path id="y" d="m34.188 63.188-13.391-36.281h26.812zm-5.5781 9.7188h11.188l27.781-72.906h-10.25l-6.6406 18.703h-32.859l-6.6406-18.703h-10.406z"/>
</defs>
<g transform="translate(508.04 149.88) rotate(8.2571) scale(.08 -.08)">
<use xlink:href="#y"/>
</g>
</g>
<path d="m172.36 379.16 1.7313-5.5932q0.70966-2.2927-1.583-3.0023l-7.3963-2.2894q-2.2927-0.70966-3.0023 1.583l-1.7313 5.5932q-0.70966 2.2927 1.583 3.0023l7.3963 2.2894q2.2927 0.70966 3.0023-1.583z" clip-path="url(#a)" fill="#fff" stroke="#fff"/>
<g clip-path="url(#a)">
<defs>
<path id="ai" d="m8.6875 72.906h9.9219v-44.297q0-11.719 4.2344-16.875 4.25-5.1406 13.781-5.1406 9.4688 0 13.719 5.1406 4.25 5.1562 4.25 16.875v44.297h9.9062v-45.516q0-14.25-7.0625-21.531-7.0469-7.2812-20.812-7.2812-13.828 0-20.891 7.2812-7.0469 7.2812-7.0469 21.531z"/>
</defs>
<g transform="translate(168.48 377.96) rotate(-72.801) scale(.08 -.08)">
<use xlink:href="#ai"/>
</g>
</g>
<path d="m58.214 658.93v33.808q0 2.4 2.4 2.4h7.7425q2.4 0 2.4-2.4v-33.808q0-2.4-2.4-2.4h-7.7425q-2.4 0-2.4 2.4z" clip-path="url(#a)" fill="#fff" stroke="#fff"/>
<g clip-path="url(#a)">
<defs>
<path id="k" d="m-0.29688 72.906h61.672v-8.3125h-25.875v-64.594h-9.9062v64.594h-25.891z"/>
<path id="d" d="m56.203 29.594v-4.3906h-41.312q0.59375-9.2812 5.5938-14.141t13.938-4.8594q5.1719 0 10.031 1.2656t9.6562 3.8125v-8.5q-4.8438-2.0469-9.9219-3.125t-10.297-1.0781q-13.094 0-20.734 7.6094-7.6406 7.625-7.6406 20.625 0 13.422 7.25 21.297 7.25 7.8906 19.562 7.8906 11.031 0 17.453-7.1094 6.4219-7.0938 6.4219-19.297zm-8.9844 2.6406q-0.09375 7.3594-4.125 11.75-4.0312 4.4062-10.672 4.4062-7.5156 0-12.031-4.25t-5.2031-11.969z"/>
<path id="i" d="m41.109 46.297q-1.5156 0.875-3.2969 1.2812-1.7812 0.42188-3.9219 0.42188-7.625 0-11.703-4.9531t-4.0781-14.234v-28.812h-9.0312v54.688h9.0312v-8.5q2.8438 4.9844 7.375 7.3906 4.5469 2.4219 11.047 2.4219 0.92188 0 2.0469-0.125 1.125-0.10938 2.4844-0.35938z"/>
<path id="l" d="m52 44.188q3.375 6.0625 8.0625 8.9375t11.031 2.875q8.5469 0 13.188-5.9844 4.6406-5.9688 4.6406-17v-33.016h-9.0312v32.719q0 7.8594-2.7969 11.656-2.7812 3.8125-8.4844 3.8125-6.9844 0-11.047-4.6406-4.0469-4.625-4.0469-12.641v-30.906h-9.0312v32.719q0 7.9062-2.7812 11.688t-8.5938 3.7812q-6.8906 0-10.953-4.6562-4.0469-4.6562-4.0469-12.625v-30.906h-9.0312v54.688h9.0312v-8.5q3.0781 5.0312 7.375 7.4219t10.203 2.3906q5.9688 0 10.141-3.0312 4.1719-3.0156 6.1719-8.7812z"/>
<path id="f" d="m9.4219 54.688h8.9844v-54.688h-8.9844zm0 21.297h8.9844v-11.391h-8.9844z"/>
<path id="e" d="m54.891 33.016v-33.016h-8.9844v32.719q0 7.7656-3.0312 11.609-3.0312 3.8594-9.0781 3.8594-7.2812 0-11.484-4.6406-4.2031-4.625-4.2031-12.641v-30.906h-9.0312v54.688h9.0312v-8.5q3.2344 4.9375 7.5938 7.375 4.375 2.4375 10.094 2.4375 9.4219 0 14.25-5.8281 4.8438-5.8281 4.8438-17.156z"/>
<path id="h" d="m34.281 27.484q-10.891 0-15.094-2.4844t-4.2031-8.5q0-4.7812 3.1562-7.5938 3.1562-2.7969 8.5625-2.7969 7.4844 0 12 5.2969t4.5156 14.078v2zm17.922 3.7188v-31.203h-8.9844v8.2969q-3.0781-4.9688-7.6719-7.3438t-11.234-2.375q-8.3906 0-13.359 4.7188-4.9531 4.7188-4.9531 12.625 0 9.2188 6.1719 13.906 6.1875 4.6875 18.438 4.6875h12.609v0.89062q0 6.2031-4.0781 9.5938t-11.453 3.3906q-4.6875 0-9.1406-1.125-4.4375-1.125-8.5312-3.375v8.3125q4.9219 1.9062 9.5625 2.8438 4.6406 0.95312 9.0312 0.95312 11.875 0 17.734-6.1562 5.8594-6.1406 5.8594-18.641z"/>
<path id="j" d="m9.4219 75.984h8.9844v-75.984h-8.9844z"/>
</defs>
<g transform="translate(62.277 658.93) rotate(90) scale(.08 -.08)">
<use xlink:href="#k"/>
<use x="44.083984" xlink:href="#d"/>
<use x="105.607422" xlink:href="#i"/>
<use x="144.970703" xlink:href="#l"/>
<use x="242.382812" xlink:href="#f"/>
<use x="270.166016" xlink:href="#e"/>
<use x="333.544922" xlink:href="#h"/>
<use x="394.824219" xlink:href="#j"/>
</g>
</g>
<path d="m67.17 658.93v33.808q0 2.4 2.4 2.4h7.7425q2.4 0 2.4-2.4v-33.808q0-2.4-2.4-2.4h-7.7425q-2.4 0-2.4 2.4z" clip-path="url(#a)" fill="#fff" stroke="#fff"/>
<g clip-path="url(#a)">
<g transform="translate(71.234 658.93) rotate(90) scale(.08 -.08)">
<use xlink:href="#k"/>
<use x="44.083984" xlink:href="#d"/>
<use x="105.607422" xlink:href="#i"/>
<use x="144.970703" xlink:href="#l"/>
<use x="242.382812" xlink:href="#f"/>
<use x="270.166016" xlink:href="#e"/>
<use x="333.544922" xlink:href="#h"/>
<use x="394.824219" xlink:href="#j"/>
</g>
</g>
<path d="m456.13 230.62 5.4332-0.6549q2.3828-0.28721 2.0955-2.67l-0.92656-7.6869q-0.28721-2.3828-2.67-2.0955l-5.4332 0.6549q-2.3828 0.28721-2.0955 2.67l0.92656 7.6869q0.28721 2.3828 2.67 2.0955z" clip-path="url(#a)" fill="#fff" stroke="#fff"/>
<g clip-path="url(#a)">
<g transform="translate(455.64 226.59) rotate(-6.8732) scale(.08 -.08)">
<use xlink:href="#y"/>
</g>
</g>
<path d="m621.16 417.98 2.6077-3.791q1.3602-1.9774-0.61718-3.3375l-6.379-4.388q-1.9774-1.3602-3.3375 0.61718l-2.6077 3.791q-1.3602 1.9774 0.61718 3.3375l6.379 4.388q1.9774 1.3602 3.3375-0.61718z" clip-path="url(#a)" fill="#fff" stroke="#fff"/>
<g clip-path="url(#a)">
<defs>
<path id="t" d="m9.8125 72.906h41.891v-8.3125h-32.031v-21.484h28.906v-8.2969h-28.906v-34.812h-9.8594z"/>
</defs>
<g transform="translate(617.81 415.67) rotate(-55.477) scale(.08 -.08)">
<use xlink:href="#t"/>
</g>
</g>
<path d="m660 380.75 2.8792-4.6539q1.2627-2.041-0.77828-3.3037l-6.5843-4.0735q-2.041-1.2627-3.3037 0.77828l-2.8792 4.6539q-1.2627 2.041 0.77828 3.3037l6.5843 4.0735q2.041 1.2627 3.3037-0.77828z" clip-path="url(#a)" fill="#fff" stroke="#fff"/>
<g clip-path="url(#a)">
<g transform="translate(656.54 378.61) rotate(-58.256) scale(.08 -.08)">
<use xlink:href="#y"/>
</g>
</g>
<path d="m733.79 378.95 1.1267-4.7546q0.5534-2.3353-1.7819-2.8887l-7.5339-1.7853q-2.3353-0.5534-2.8887 1.7819l-1.1267 4.7546q-0.5534 2.3353 1.7819 2.8887l7.5339 1.7853q2.3353 0.5534 2.8887-1.7819z" clip-path="url(#a)" fill="#fff" stroke="#fff"/>
<g clip-path="url(#a)">
<g transform="translate(729.84 378.01) rotate(-76.668) scale(.08 -.08)">
<use xlink:href="#k"/>
</g>
</g>
<path d="m860.85 338.52 2.8992 4.6415q1.2714 2.0355 3.307 0.76409l6.5667-4.1017q2.0355-1.2714 0.76409-3.307l-2.8992-4.6415q-1.2714-2.0355-3.307-0.76409l-6.5667 4.1017q-2.0355 1.2714-0.76409 3.307z" clip-path="url(#a)" fill="#fff" stroke="#fff"/>
<g clip-path="url(#a)">
<g transform="translate(864.3 336.37) rotate(58.01) scale(.08 -.08)">
<use xlink:href="#y"/>
</g>
</g>
<path d="m1014.3 415.52 3.5577 3.2575q1.7701 1.6207 3.3908-0.14933l5.2286-5.7103q1.6207-1.7701-0.14933-3.3908l-3.5577-3.2575q-1.7701-1.6207-3.3908 0.14933l-5.2286 5.7103q-1.6207 1.7701 0.14933 3.3908z" clip-path="url(#a)" fill="#fff" stroke="#fff"/>
<g clip-path="url(#a)">
<g transform="translate(1017.1 412.53) rotate(42.478) scale(.08 -.08)">
<use xlink:href="#ae"/>
</g>
</g>
<path d="m1057.4 415.67 4.6184 3.5988q1.8931 1.4752 3.3683-0.41795l4.7589-6.1073q1.4752-1.8931-0.41795-3.3683l-4.6184-3.5988q-1.8931-1.4752-3.3683 0.41795l-4.7589 6.1073q-1.4752 1.8931 0.41795 3.3683z" clip-path="url(#a)" fill="#fff" stroke="#fff"/>
<g clip-path="url(#a)">
<g transform="translate(1059.9 412.47) rotate(37.927) scale(.08 -.08)">
<use xlink:href="#ai"/>
</g>
</g>
<path d="m127.7 453.48 0.51954-4.5718q0.27099-2.3847-2.1137-2.6556l-7.693-0.87423q-2.3847-0.27099-2.6556 2.1137l-0.51954 4.5718q-0.27099 2.3847 2.1137 2.6556l7.693 0.87423q2.3847 0.27099 2.6556-2.1137z" clip-path="url(#a)" fill="#fff" stroke="#fff"/>
<g clip-path="url(#a)">
<g transform="translate(123.66 453.02) rotate(-83.517) scale(.08 -.08)">
<use xlink:href="#t"/>
</g>
</g>
<path d="m136.76 453.69 0.36854-5.5741q0.15833-2.3948-2.2364-2.5531l-7.7256-0.51079q-2.3948-0.15833-2.5531 2.2364l-0.36854 5.5741q-0.15833 2.3948 2.2364 2.5531l7.7256 0.51079q2.3948 0.15833 2.5531-2.2364z" clip-path="url(#a)" fill="#fff" stroke="#fff"/>
<g clip-path="url(#a)">
<defs>
<path id="o" d="m64.406 67.281v-10.391q-4.9844 4.6406-10.625 6.9219-5.6406 2.2969-11.984 2.2969-12.5 0-19.141-7.6406t-6.6406-22.094q0-14.406 6.6406-22.047t19.141-7.6406q6.3438 0 11.984 2.2969t10.625 6.9375v-10.312q-5.1719-3.5156-10.969-5.2812-5.7812-1.75-12.219-1.75-16.562 0-26.094 10.125-9.5156 10.141-9.5156 27.672 0 17.578 9.5156 27.703 9.5312 10.141 26.094 10.141 6.5312 0 12.312-1.7344 5.7969-1.7344 10.875-5.2031z"/>
</defs>
<g transform="translate(132.7 453.42) rotate(-86.217) scale(.08 -.08)">
<use xlink:href="#o"/>
</g>
</g>
<path d="m170.66 302.23 3.3688 3.7689q1.5994 1.7894 3.3888 0.18998l5.7726-5.1598q1.7894-1.5994 0.18998-3.3888l-3.3688-3.7689q-1.5994-1.7894-3.3888-0.18998l-5.7726 5.1598q-1.7894 1.5994-0.18998 3.3888z" clip-path="url(#a)" fill="#fff" stroke="#fff"/>
<g clip-path="url(#a)">
<defs>
<path id="r" d="m9.8125 72.906h46.094v-8.3125h-36.234v-21.578h34.719v-8.2969h-34.719v-26.422h37.109v-8.2969h-46.969z"/>
</defs>
<g transform="translate(173.69 299.52) rotate(48.209) scale(.08 -.08)">
<use xlink:href="#r"/>
</g>
</g>
<path d="m455.27 658.93v33.808q0 2.4 2.4 2.4h7.7425q2.4 0 2.4-2.4v-33.808q0-2.4-2.4-2.4h-7.7425q-2.4 0-2.4 2.4z" clip-path="url(#a)" fill="#fff" stroke="#fff"/>
<g clip-path="url(#a)">
<g transform="translate(459.34 658.93) rotate(90) scale(.08 -.08)">
<use xlink:href="#k"/>
<use x="44.083984" xlink:href="#d"/>
<use x="105.607422" xlink:href="#i"/>
<use x="144.970703" xlink:href="#l"/>
<use x="242.382812" xlink:href="#f"/>
<use x="270.166016" xlink:href="#e"/>
<use x="333.544922" xlink:href="#h"/>
<use x="394.824219" xlink:href="#j"/>
</g>
</g>
<path d="m530.86 605.83 1.5553-4.3304q0.81126-2.2587-1.4475-3.07l-7.2868-2.6172q-2.2587-0.81126-3.07 1.4475l-1.5553 4.3304q-0.81126 2.2587 1.4475 3.07l7.2868 2.6172q2.2587 0.81126 3.07-1.4475z" clip-path="url(#a)" fill="#fff" stroke="#fff"/>
<g clip-path="url(#a)">
<g transform="translate(527.03 604.45) rotate(-70.243) scale(.08 -.08)">
<use xlink:href="#t"/>
</g>
</g>
<path d="m545.75 601.03 1.8883 5.2574q0.81126 2.2587 3.07 1.4475l7.2868-2.6172q2.2587-0.81126 1.4475-3.07l-1.8883-5.2574q-0.81126-2.2587-3.07-1.4475l-7.2868 2.6172q-2.2587 0.81126-1.4475 3.07z" clip-path="url(#a)" fill="#fff" stroke="#fff"/>
<g clip-path="url(#a)">
<g transform="translate(549.58 599.66) rotate(70.243) scale(.08 -.08)">
<use xlink:href="#o"/>
</g>
</g>
<path d="m655.99 607.94 3.9681-4.8901q1.5122-1.8636-0.35138-3.3759l-6.0121-4.8786q-1.8636-1.5122-3.3759 0.35138l-3.9681 4.8901q-1.5122 1.8636 0.35138 3.3759l6.0121 4.8786q1.8636 1.5122 3.3759-0.35138z" clip-path="url(#a)" fill="#fff" stroke="#fff"/>
<g clip-path="url(#a)">
<defs>
<path id="ar" d="m39.406 66.219q-10.75 0-17.078-8.0156-6.3125-8-6.3125-21.828 0-13.766 6.3125-21.781 6.3281-8 17.078-8 10.734 0 17.016 8 6.2812 8.0156 6.2812 21.781 0 13.828-6.2812 21.828-6.2812 8.0156-17.016 8.0156zm13.812-64.906 13-14.203h-11.922l-10.797 11.672q-1.6094-0.09375-2.4688-0.14062-0.84375-0.0625-1.625-0.0625-15.375 0-24.594 10.281-9.2031 10.281-9.2031 27.516 0 17.281 9.2031 27.562 9.2188 10.281 24.594 10.281 15.328 0 24.5-10.281 9.1875-10.281 9.1875-27.562 0-12.688-5.1094-21.734-5.0938-9.0312-14.766-13.328z"/>
</defs>
<g transform="translate(652.84 605.38) rotate(-50.942) scale(.08 -.08)">
<use xlink:href="#ar"/>
</g>
</g>
<path d="m689.2 604.42 0.074304-5.5858q0.031923-2.3998-2.3679-2.4317l-7.7418-0.10298q-2.3998-0.031924-2.4317 2.3679l-0.074305 5.5858q-0.031923 2.3998 2.3679 2.4317l7.7418 0.10298q2.3998 0.031923 2.4317-2.3679z" clip-path="url(#a)" fill="#fff" stroke="#fff"/>
<g clip-path="url(#a)">
<g transform="translate(685.13 604.36) rotate(-89.238) scale(.08 -.08)">
<use xlink:href="#o"/>
</g>
</g>
<path d="m707.86 603.58 3.2163 3.8998q1.527 1.8515 3.3786 0.32447l5.9731-4.9263q1.8515-1.527 0.32447-3.3786l-3.2163-3.8998q-1.527-1.8515-3.3786-0.32447l-5.9731 4.9263q-1.8515 1.527-0.32447 3.3786z" clip-path="url(#a)" fill="#fff" stroke="#fff"/>
<g clip-path="url(#a)">
<g transform="translate(711 601) rotate(50.486) scale(.08 -.08)">
<use xlink:href="#r"/>
</g>
</g>
<path d="m888.96 570.35 3.9482-3.913q1.7046-1.6894 0.015221-3.3941l-5.4502-5.4993q-1.6894-1.7046-3.3941-0.015222l-3.9482 3.913q-1.7046 1.6894-0.015222 3.3941l5.4502 5.4993q1.6894 1.7046 3.3941 0.015222z" clip-path="url(#a)" fill="#fff" stroke="#fff"/>
<g clip-path="url(#a)">
<defs>
<path id="x" d="m44.391 34.188q3.1719-1.0781 6.1719-4.5938t6.0312-9.6719l10.016-19.922h-10.609l-9.3125 18.703q-3.625 7.3281-7.0156 9.7188t-9.25 2.3906h-10.75v-30.812h-9.8594v72.906h22.266q12.5 0 18.656-5.2344 6.1562-5.2188 6.1562-15.766 0-6.8906-3.2031-11.438-3.2031-4.5312-9.2969-6.2812zm-24.719 30.609v-25.875h12.406q7.125 0 10.766 3.2969t3.6406 9.6875-3.6406 9.6406-10.766 3.25z"/>
</defs>
<g transform="translate(886.1 567.47) rotate(-44.743) scale(.08 -.08)">
<use xlink:href="#x"/>
</g>
</g>
<path d="m925.23 568.98 2.2214-4.0295q1.1587-2.1018-0.94313-3.2604l-6.7805-3.7379q-2.1018-1.1587-3.2604 0.94313l-2.2214 4.0295q-1.1587 2.1018 0.94313 3.2604l6.7805 3.7379q2.1018 1.1587 3.2604-0.94313z" clip-path="url(#a)" fill="#fff" stroke="#fff"/>
<g clip-path="url(#a)">
<g transform="translate(921.67 567.02) rotate(-61.133) scale(.08 -.08)">
<use xlink:href="#t"/>
</g>
</g>
<path d="m962.74 566.92 0.37122-5.0414q0.17625-2.3935-2.2173-2.5698l-7.7216-0.56859q-2.3935-0.17625-2.5698 2.2173l-0.37122 5.0414q-0.17625 2.3935 2.2173 2.5698l7.7216 0.56859q2.3935 0.17625 2.5698-2.2173z" clip-path="url(#a)" fill="#fff" stroke="#fff"/>
<g clip-path="url(#a)">
<g transform="translate(958.69 566.62) rotate(-85.789) scale(.08 -.08)">
<use xlink:href="#r"/>
</g>
</g>
<path d="m987.13 563.82 2.1802 5.1432q0.93668 2.2097 3.1464 1.273l7.1285-3.0218q2.2097-0.93669 1.273-3.1464l-2.1802-5.1432q-0.93668-2.2097-3.1464-1.273l-7.1285 3.0218q-2.2097 0.93668-1.273 3.1464z" clip-path="url(#a)" fill="#fff" stroke="#fff"/>
<g clip-path="url(#a)">
<g transform="translate(990.87 562.23) rotate(67.028) scale(.08 -.08)">
<use xlink:href="#o"/>
</g>
</g>
<path d="m1048.2 531.36 4.6701 1.9348q2.2172 0.9186 3.1358-1.2986l2.9634-7.1529q0.9186-2.2172-1.2986-3.1358l-4.6701-1.9348q-2.2172-0.9186-3.1358 1.2986l-2.9634 7.1529q-0.9186 2.2172 1.2986 3.1358z" clip-path="url(#a)" fill="#fff" stroke="#fff"/>
<g clip-path="url(#a)">
<g transform="translate(1049.8 527.61) rotate(22.504) scale(.08 -.08)">
<use xlink:href="#r"/>
</g>
</g>
<path d="m1261.3 658.93v33.808q0 2.4 2.4 2.4h7.7425q2.4 0 2.4-2.4v-33.808q0-2.4-2.4-2.4h-7.7425q-2.4 0-2.4 2.4z" clip-path="url(#a)" fill="#fff" stroke="#fff"/>
<g clip-path="url(#a)">
<g transform="translate(1265.4 658.93) rotate(90) scale(.08 -.08)">
<use xlink:href="#k"/>
<use x="44.083984" xlink:href="#d"/>
<use x="105.607422" xlink:href="#i"/>
<use x="144.970703" xlink:href="#l"/>
<use x="242.382812" xlink:href="#f"/>
<use x="270.166016" xlink:href="#e"/>
<use x="333.544922" xlink:href="#h"/>
<use x="394.824219" xlink:href="#j"/>
</g>
</g>
<path d="m804.57 658.93v33.808q0 2.4 2.4 2.4h7.7425q2.4 0 2.4-2.4v-33.808q0-2.4-2.4-2.4h-7.7425q-2.4 0-2.4 2.4z" clip-path="url(#a)" fill="#fff" stroke="#fff"/>
<g clip-path="url(#a)">
<g transform="translate(808.63 658.93) rotate(90) scale(.08 -.08)">
<use xlink:href="#k"/>
<use x="44.083984" xlink:href="#d"/>
<use x="105.607422" xlink:href="#i"/>
<use x="144.970703" xlink:href="#l"/>
<use x="242.382812" xlink:href="#f"/>
<use x="270.166016" xlink:href="#e"/>
<use x="333.544922" xlink:href="#h"/>
<use x="394.824219" xlink:href="#j"/>
</g>
</g>
<path d="m873.23 658.93v33.808q0 2.4 2.4 2.4h7.7425q2.4 0 2.4-2.4v-33.808q0-2.4-2.4-2.4h-7.7425q-2.4 0-2.4 2.4z" clip-path="url(#a)" fill="#fff" stroke="#fff"/>
<g clip-path="url(#a)">
<g transform="translate(877.29 658.93) rotate(90) scale(.08 -.08)">
<use xlink:href="#k"/>
<use x="44.083984" xlink:href="#d"/>
<use x="105.607422" xlink:href="#i"/>
<use x="144.970703" xlink:href="#l"/>
<use x="242.382812" xlink:href="#f"/>
<use x="270.166016" xlink:href="#e"/>
<use x="333.544922" xlink:href="#h"/>
<use x="394.824219" xlink:href="#j"/>
</g>
</g>
<path d="m944.88 658.93v33.808q0 2.4 2.4 2.4h7.7425q2.4 0 2.4-2.4v-33.808q0-2.4-2.4-2.4h-7.7425q-2.4 0-2.4 2.4z" clip-path="url(#a)" fill="#fff" stroke="#fff"/>
<g clip-path="url(#a)">
<g transform="translate(948.94 658.93) rotate(90) scale(.08 -.08)">
<use xlink:href="#k"/>
<use x="44.083984" xlink:href="#d"/>
<use x="105.607422" xlink:href="#i"/>
<use x="144.970703" xlink:href="#l"/>
<use x="242.382812" xlink:href="#f"/>
<use x="270.166016" xlink:href="#e"/>
<use x="333.544922" xlink:href="#h"/>
<use x="394.824219" xlink:href="#j"/>
</g>
</g>
<path d="m1019.5 658.93v33.808q0 2.4 2.4 2.4h7.7425q2.4 0 2.4-2.4v-33.808q0-2.4-2.4-2.4h-7.7425q-2.4 0-2.4 2.4z" clip-path="url(#a)" fill="#fff" stroke="#fff"/>
<g clip-path="url(#a)">
<g transform="translate(1023.6 658.93) rotate(90) scale(.08 -.08)">
<use xlink:href="#k"/>
<use x="44.083984" xlink:href="#d"/>
<use x="105.607422" xlink:href="#i"/>
<use x="144.970703" xlink:href="#l"/>
<use x="242.382812" xlink:href="#f"/>
<use x="270.166016" xlink:href="#e"/>
<use x="333.544922" xlink:href="#h"/>
<use x="394.824219" xlink:href="#j"/>
</g>
</g>
<path d="m1127.8 606.96 2.6365-4.8937q1.1383-2.1129-0.97456-3.2512l-6.8162-3.6723q-2.1129-1.1383-3.2512 0.97456l-2.6365 4.8937q-1.1383 2.1129 0.97456 3.2512l6.8162 3.6723q2.1129 1.1383 3.2512-0.97456z" clip-path="url(#a)" fill="#fff" stroke="#fff"/>
<g clip-path="url(#a)">
<g transform="translate(1124.2 605.04) rotate(-61.686) scale(.08 -.08)">
<use xlink:href="#x"/>
</g>
</g>
<path d="m1157 602.06 2.6495 4.9179q1.1383 2.1129 3.2512 0.97456l6.8162-3.6723q2.1129-1.1383 0.97456-3.2512l-2.6495-4.9179q-1.1383-2.1129-3.2512-0.97456l-6.8162 3.6723q-2.1129 1.1383-0.97456 3.2512z" clip-path="url(#a)" fill="#fff" stroke="#fff"/>
<g clip-path="url(#a)">
<g transform="translate(1160.6 600.13) rotate(61.686) scale(.08 -.08)">
<use xlink:href="#o"/>
</g>
</g>
<path d="m1097.1 658.93v33.808q0 2.4 2.4 2.4h7.7425q2.4 0 2.4-2.4v-33.808q0-2.4-2.4-2.4h-7.7425q-2.4 0-2.4 2.4z" clip-path="url(#a)" fill="#fff" stroke="#fff"/>
<g clip-path="url(#a)">
<g transform="translate(1101.2 658.93) rotate(90) scale(.08 -.08)">
<use xlink:href="#k"/>
<use x="44.083984" xlink:href="#d"/>
<use x="105.607422" xlink:href="#i"/>
<use x="144.970703" xlink:href="#l"/>
<use x="242.382812" xlink:href="#f"/>
<use x="270.166016" xlink:href="#e"/>
<use x="333.544922" xlink:href="#h"/>
<use x="394.824219" xlink:href="#j"/>
</g>
</g>
<path d="m1177.7 658.93v33.808q0 2.4 2.4 2.4h7.7425q2.4 0 2.4-2.4v-33.808q0-2.4-2.4-2.4h-7.7425q-2.4 0-2.4 2.4z" clip-path="url(#a)" fill="#fff" stroke="#fff"/>
<g clip-path="url(#a)">
<g transform="translate(1181.8 658.93) rotate(90) scale(.08 -.08)">
<use xlink:href="#k"/>
<use x="44.083984" xlink:href="#d"/>
<use x="105.607422" xlink:href="#i"/>
<use x="144.970703" xlink:href="#l"/>
<use x="242.382812" xlink:href="#f"/>
<use x="270.166016" xlink:href="#e"/>
<use x="333.544922" xlink:href="#h"/>
<use x="394.824219" xlink:href="#j"/>
</g>
</g>
<path d="m616.49 658.93v33.808q0 2.4 2.4 2.4h7.7425q2.4 0 2.4-2.4v-33.808q0-2.4-2.4-2.4h-7.7425q-2.4 0-2.4 2.4z" clip-path="url(#a)" fill="#fff" stroke="#fff"/>
<g clip-path="url(#a)">
<g transform="translate(620.55 658.93) rotate(90) scale(.08 -.08)">
<use xlink:href="#k"/>
<use x="44.083984" xlink:href="#d"/>
<use x="105.607422" xlink:href="#i"/>
<use x="144.970703" xlink:href="#l"/>
<use x="242.382812" xlink:href="#f"/>
<use x="270.166016" xlink:href="#e"/>
<use x="333.544922" xlink:href="#h"/>
<use x="394.824219" xlink:href="#j"/>
</g>
</g>
<path d="m676.19 658.93v33.808q0 2.4 2.4 2.4h7.7425q2.4 0 2.4-2.4v-33.808q0-2.4-2.4-2.4h-7.7425q-2.4 0-2.4 2.4z" clip-path="url(#a)" fill="#fff" stroke="#fff"/>
<g clip-path="url(#a)">
<g transform="translate(680.26 658.93) rotate(90) scale(.08 -.08)">
<use xlink:href="#k"/>
<use x="44.083984" xlink:href="#d"/>
<use x="105.607422" xlink:href="#i"/>
<use x="144.970703" xlink:href="#l"/>
<use x="242.382812" xlink:href="#f"/>
<use x="270.166016" xlink:href="#e"/>
<use x="333.544922" xlink:href="#h"/>
<use x="394.824219" xlink:href="#j"/>
</g>
</g>
<path d="m738.89 658.93v33.808q0 2.4 2.4 2.4h7.7425q2.4 0 2.4-2.4v-33.808q0-2.4-2.4-2.4h-7.7425q-2.4 0-2.4 2.4z" clip-path="url(#a)" fill="#fff" stroke="#fff"/>
<g clip-path="url(#a)">
<g transform="translate(742.95 658.93) rotate(90) scale(.08 -.08)">
<use xlink:href="#k"/>
<use x="44.083984" xlink:href="#d"/>
<use x="105.607422" xlink:href="#i"/>
<use x="144.970703" xlink:href="#l"/>
<use x="242.382812" xlink:href="#f"/>
<use x="270.166016" xlink:href="#e"/>
<use x="333.544922" xlink:href="#h"/>
<use x="394.824219" xlink:href="#j"/>
</g>
</g>
<path d="m506.03 658.93v33.808q0 2.4 2.4 2.4h7.7425q2.4 0 2.4-2.4v-33.808q0-2.4-2.4-2.4h-7.7425q-2.4 0-2.4 2.4z" clip-path="url(#a)" fill="#fff" stroke="#fff"/>
<g clip-path="url(#a)">
<g transform="translate(510.09 658.93) rotate(90) scale(.08 -.08)">
<use xlink:href="#k"/>
<use x="44.083984" xlink:href="#d"/>
<use x="105.607422" xlink:href="#i"/>
<use x="144.970703" xlink:href="#l"/>
<use x="242.382812" xlink:href="#f"/>
<use x="270.166016" xlink:href="#e"/>
<use x="333.544922" xlink:href="#h"/>
<use x="394.824219" xlink:href="#j"/>
</g>
</g>
<path d="m559.76 658.93v33.808q0 2.4 2.4 2.4h7.7425q2.4 0 2.4-2.4v-33.808q0-2.4-2.4-2.4h-7.7425q-2.4 0-2.4 2.4z" clip-path="url(#a)" fill="#fff" stroke="#fff"/>
<g clip-path="url(#a)">
<g transform="translate(563.83 658.93) rotate(90) scale(.08 -.08)">
<use xlink:href="#k"/>
<use x="44.083984" xlink:href="#d"/>
<use x="105.607422" xlink:href="#i"/>
<use x="144.970703" xlink:href="#l"/>
<use x="242.382812" xlink:href="#f"/>
<use x="270.166016" xlink:href="#e"/>
<use x="333.544922" xlink:href="#h"/>
<use x="394.824219" xlink:href="#j"/>
</g>
</g>
<path d="m94.039 658.93v33.808q0 2.4 2.4 2.4h7.7425q2.4 0 2.4-2.4v-33.808q0-2.4-2.4-2.4h-7.7425q-2.4 0-2.4 2.4z" clip-path="url(#a)" fill="#fff" stroke="#fff"/>
<g clip-path="url(#a)">
<g transform="translate(98.102 658.93) rotate(90) scale(.08 -.08)">
<use xlink:href="#k"/>
<use x="44.083984" xlink:href="#d"/>
<use x="105.607422" xlink:href="#i"/>
<use x="144.970703" xlink:href="#l"/>
<use x="242.382812" xlink:href="#f"/>
<use x="270.166016" xlink:href="#e"/>
<use x="333.544922" xlink:href="#h"/>
<use x="394.824219" xlink:href="#j"/>
</g>
</g>
<path d="m111.95 658.93v33.808q0 2.4 2.4 2.4h7.7425q2.4 0 2.4-2.4v-33.808q0-2.4-2.4-2.4h-7.7425q-2.4 0-2.4 2.4z" clip-path="url(#a)" fill="#fff" stroke="#fff"/>
<g clip-path="url(#a)">
<g transform="translate(116.01 658.93) rotate(90) scale(.08 -.08)">
<use xlink:href="#k"/>
<use x="44.083984" xlink:href="#d"/>
<use x="105.607422" xlink:href="#i"/>
<use x="144.970703" xlink:href="#l"/>
<use x="242.382812" xlink:href="#f"/>
<use x="270.166016" xlink:href="#e"/>
<use x="333.544922" xlink:href="#h"/>
<use x="394.824219" xlink:href="#j"/>
</g>
</g>
<path d="m180.46 492.55 1.2889-5.4073q0.55648-2.3346-1.7781-2.8911l-7.5315-1.7952q-2.3346-0.55648-2.8911 1.7781l-1.2889 5.4073q-0.55648 2.3346 1.7781 2.8911l7.5315 1.7952q2.3346 0.55648 2.8911-1.7781z" clip-path="url(#a)" fill="#fff" stroke="#fff"/>
<g clip-path="url(#a)">
<g transform="translate(176.51 491.6) rotate(-76.593) scale(.08 -.08)">
<use xlink:href="#x"/>
</g>
</g>
<path d="m192.78 491.65 0.72273-4.5441q0.37697-2.3702-1.9932-2.7472l-7.6464-1.2161q-2.3702-0.37697-2.7472 1.9932l-0.72273 4.5441q-0.37697 2.3702 1.9932 2.7472l7.6464 1.2161q2.3702 0.37697 2.7472-1.9932z" clip-path="url(#a)" fill="#fff" stroke="#fff"/>
<g clip-path="url(#a)">
<g transform="translate(188.77 491.01) rotate(-80.963) scale(.08 -.08)">
<use xlink:href="#t"/>
</g>
</g>
<path d="m206.44 491.61 0.38906-5.5727q0.16715-2.3942-2.227-2.5613l-7.7237-0.53923q-2.3942-0.16715-2.5613 2.227l-0.38906 5.5727q-0.16715 2.3942 2.227 2.5613l7.7237 0.53923q2.3942 0.16715 2.5613-2.227z" clip-path="url(#a)" fill="#fff" stroke="#fff"/>
<g clip-path="url(#a)">
<g transform="translate(202.39 491.33) rotate(-86.006) scale(.08 -.08)">
<use xlink:href="#o"/>
</g>
</g>
<path d="m276.04 379.98 4.4522 2.3939q2.1138 1.1366 3.2504-0.97722l3.6667-6.8192q1.1366-2.1138-0.97722-3.2504l-4.4522-2.3939q-2.1138-1.1366-3.2504 0.97722l-3.6667 6.8192q-1.1366 2.1138 0.97722 3.2504z" clip-path="url(#a)" fill="#fff" stroke="#fff"/>
<g clip-path="url(#a)">
<g transform="translate(277.97 376.4) rotate(28.267) scale(.08 -.08)">
<use xlink:href="#r"/>
</g>
</g>
<path d="m132.85 658.93v33.808q0 2.4 2.4 2.4h7.7425q2.4 0 2.4-2.4v-33.808q0-2.4-2.4-2.4h-7.7425q-2.4 0-2.4 2.4z" clip-path="url(#a)" fill="#fff" stroke="#fff"/>
<g clip-path="url(#a)">
<g transform="translate(136.91 658.93) rotate(90) scale(.08 -.08)">
<use xlink:href="#k"/>
<use x="44.083984" xlink:href="#d"/>
<use x="105.607422" xlink:href="#i"/>
<use x="144.970703" xlink:href="#l"/>
<use x="242.382812" xlink:href="#f"/>
<use x="270.166016" xlink:href="#e"/>
<use x="333.544922" xlink:href="#h"/>
<use x="394.824219" xlink:href="#j"/>
</g>
</g>
<path d="m156.73 658.93v33.808q0 2.4 2.4 2.4h7.7425q2.4 0 2.4-2.4v-33.808q0-2.4-2.4-2.4h-7.7425q-2.4 0-2.4 2.4z" clip-path="url(#a)" fill="#fff" stroke="#fff"/>
<g clip-path="url(#a)">
<g transform="translate(160.8 658.93) rotate(90) scale(.08 -.08)">
<use xlink:href="#k"/>
<use x="44.083984" xlink:href="#d"/>
<use x="105.607422" xlink:href="#i"/>
<use x="144.970703" xlink:href="#l"/>
<use x="242.382812" xlink:href="#f"/>
<use x="270.166016" xlink:href="#e"/>
<use x="333.544922" xlink:href="#h"/>
<use x="394.824219" xlink:href="#j"/>
</g>
</g>
<path d="m183.6 658.93v33.808q0 2.4 2.4 2.4h7.7425q2.4 0 2.4-2.4v-33.808q0-2.4-2.4-2.4h-7.7425q-2.4 0-2.4 2.4z" clip-path="url(#a)" fill="#fff" stroke="#fff"/>
<g clip-path="url(#a)">
<g transform="translate(187.66 658.93) rotate(90) scale(.08 -.08)">
<use xlink:href="#k"/>
<use x="44.083984" xlink:href="#d"/>
<use x="105.607422" xlink:href="#i"/>
<use x="144.970703" xlink:href="#l"/>
<use x="242.382812" xlink:href="#f"/>
<use x="270.166016" xlink:href="#e"/>
<use x="333.544922" xlink:href="#h"/>
<use x="394.824219" xlink:href="#j"/>
</g>
</g>
<path d="m314.06 457.68 4.0544-3.8429q1.7419-1.651 0.0909-3.3929l-5.3262-5.6194q-1.651-1.7419-3.3929-0.0909l-4.0544 3.8429q-1.7419 1.651-0.0909 3.3929l5.3262 5.6194q1.651 1.7419 3.3929 0.0909z" clip-path="url(#a)" fill="#fff" stroke="#fff"/>
<g clip-path="url(#a)">
<g transform="translate(311.27 454.73) rotate(-43.465) scale(.08 -.08)">
<use xlink:href="#o"/>
</g>
</g>
<path d="m353.81 523.71 0.46091 5.9672q0.18482 2.3929 2.5777 2.208l7.7195-0.59625q2.3929-0.18482 2.208-2.5777l-0.46091-5.9672q-0.18482-2.3929-2.5777-2.208l-7.7195 0.59625q-2.3929 0.18482-2.208 2.5777z" clip-path="url(#a)" fill="#fff" stroke="#fff"/>
<g clip-path="url(#a)">
<defs>
<path id="as" d="m9.8125 72.906h13.281l32.328-60.984v60.984h9.5625v-72.906h-13.281l-32.312 60.984v-60.984h-9.5781z"/>
</defs>
<g transform="translate(357.86 523.4) rotate(85.583) scale(.08 -.08)">
<use xlink:href="#as"/>
</g>
</g>
<path d="m375.89 525.19 1.4855 5.3851q0.63822 2.3136 2.9518 1.6754l7.4637-2.0589q2.3136-0.63822 1.6754-2.9518l-1.4855-5.3851q-0.63822-2.3136-2.9518-1.6754l-7.4637 2.0589q-2.3136 0.63822-1.6754 2.9518z" clip-path="url(#a)" fill="#fff" stroke="#fff"/>
<g clip-path="url(#a)">
<g transform="translate(379.81 524.11) rotate(74.578) scale(.08 -.08)">
<use xlink:href="#o"/>
</g>
</g>
<path d="m259.51 568.11 1.2976-5.4335q0.55749-2.3344-1.7769-2.8918l-7.5307-1.7985q-2.3344-0.55749-2.8918 1.7769l-1.2976 5.4335q-0.55749 2.3344 1.7769 2.8918l7.5307 1.7985q2.3344 0.55749 2.8918-1.7769z" clip-path="url(#a)" fill="#fff" stroke="#fff"/>
<g clip-path="url(#a)">
<g transform="translate(255.56 567.17) rotate(-76.568) scale(.08 -.08)">
<use xlink:href="#o"/>
</g>
</g>
<path d="m283.13 526.95 2.1741 4.5636q1.0322 2.1667 3.1989 1.1345l6.9899-3.3299q2.1667-1.0322 1.1345-3.1989l-2.1741-4.5636q-1.0322-2.1667-3.1989-1.1345l-6.9899 3.3299q-2.1667 1.0322-1.1345 3.1989z" clip-path="url(#a)" fill="#fff" stroke="#fff"/>
<g clip-path="url(#a)">
<g transform="translate(286.8 525.2) rotate(64.527) scale(.08 -.08)">
<use xlink:href="#r"/>
</g>
</g>
<path d="m362.73 658.93v33.808q0 2.4 2.4 2.4h7.7425q2.4 0 2.4-2.4v-33.808q0-2.4-2.4-2.4h-7.7425q-2.4 0-2.4 2.4z" clip-path="url(#a)" fill="#fff" stroke="#fff"/>
<g clip-path="url(#a)">
<g transform="translate(366.79 658.93) rotate(90) scale(.08 -.08)">
<use xlink:href="#k"/>
<use x="44.083984" xlink:href="#d"/>
<use x="105.607422" xlink:href="#i"/>
<use x="144.970703" xlink:href="#l"/>
<use x="242.382812" xlink:href="#f"/>
<use x="270.166016" xlink:href="#e"/>
<use x="333.544922" xlink:href="#h"/>
<use x="394.824219" xlink:href="#j"/>
</g>
</g>
<path d="m407.51 658.93v33.808q0 2.4 2.4 2.4h7.7425q2.4 0 2.4-2.4v-33.808q0-2.4-2.4-2.4h-7.7425q-2.4 0-2.4 2.4z" clip-path="url(#a)" fill="#fff" stroke="#fff"/>
<g clip-path="url(#a)">
<g transform="translate(411.57 658.93) rotate(90) scale(.08 -.08)">
<use xlink:href="#k"/>
<use x="44.083984" xlink:href="#d"/>
<use x="105.607422" xlink:href="#i"/>
<use x="144.970703" xlink:href="#l"/>
<use x="242.382812" xlink:href="#f"/>
<use x="270.166016" xlink:href="#e"/>
<use x="333.544922" xlink:href="#h"/>
<use x="394.824219" xlink:href="#j"/>
</g>
</g>
<path d="m230.39 693.7 7.344-33q0.52135-2.3427-1.8213-2.864l-7.5576-1.6819q-2.3427-0.52135-2.864 1.8213l-7.344 33q-0.52135 2.3427 1.8213 2.864l7.5576 1.6819q2.3427 0.52135 2.864-1.8213z" clip-path="url(#a)" fill="#fff" stroke="#fff"/>
<g clip-path="url(#a)">
<g transform="translate(226.42 692.82) rotate(-77.454) scale(.08 -.08)">
<use xlink:href="#k"/>
<use x="44.083984" xlink:href="#d"/>
<use x="105.607422" xlink:href="#i"/>
<use x="144.970703" xlink:href="#l"/>
<use x="242.382812" xlink:href="#f"/>
<use x="270.166016" xlink:href="#e"/>
<use x="333.544922" xlink:href="#h"/>
<use x="394.824219" xlink:href="#j"/>
</g>
</g>
<path d="m234.56 660.7 7.344 33q0.52135 2.3427 2.864 1.8213l7.5576-1.6819q2.3427-0.52135 1.8213-2.864l-7.344-33q-0.52135-2.3427-2.864-1.8213l-7.5576 1.6819q-2.3427 0.52135-1.8213 2.864z" clip-path="url(#a)" fill="#fff" stroke="#fff"/>
<g clip-path="url(#a)">
<g transform="translate(238.53 659.82) rotate(77.454) scale(.08 -.08)">
<use xlink:href="#k"/>
<use x="44.083984" xlink:href="#d"/>
<use x="105.607422" xlink:href="#i"/>
<use x="144.970703" xlink:href="#l"/>
<use x="242.382812" xlink:href="#f"/>
<use x="270.166016" xlink:href="#e"/>
<use x="333.544922" xlink:href="#h"/>
<use x="394.824219" xlink:href="#j"/>
</g>
</g>
<path d="m303.47 605.81 1.3957-5.3807q0.60261-2.3231-1.7205-2.9257l-7.4945-1.9441q-2.3231-0.60261-2.9257 1.7205l-1.3957 5.3807q-0.60261 2.3231 1.7205 2.9257l7.4945 1.9441q2.3231 0.60261 2.9257-1.7205z" clip-path="url(#a)" fill="#fff" stroke="#fff"/>
<g clip-path="url(#a)">
<g transform="translate(299.53 604.79) rotate(-75.458) scale(.08 -.08)">
<use xlink:href="#x"/>
</g>
</g>
<path d="m310.73 600.41 1.4026 5.4073q0.60261 2.3231 2.9257 1.7205l7.4945-1.9441q2.3231-0.60261 1.7205-2.9257l-1.4026-5.4073q-0.60261-2.3231-2.9257-1.7205l-7.4945 1.9441q-2.3231 0.60261-1.7205 2.9257z" clip-path="url(#a)" fill="#fff" stroke="#fff"/>
<g clip-path="url(#a)">
<g transform="translate(314.66 599.39) rotate(75.458) scale(.08 -.08)">
<use xlink:href="#o"/>
</g>
</g>
<path d="m282.12 658.93v33.808q0 2.4 2.4 2.4h7.7425q2.4 0 2.4-2.4v-33.808q0-2.4-2.4-2.4h-7.7425q-2.4 0-2.4 2.4z" clip-path="url(#a)" fill="#fff" stroke="#fff"/>
<g clip-path="url(#a)">
<g transform="translate(286.18 658.93) rotate(90) scale(.08 -.08)">
<use xlink:href="#k"/>
<use x="44.083984" xlink:href="#d"/>
<use x="105.607422" xlink:href="#i"/>
<use x="144.970703" xlink:href="#l"/>
<use x="242.382812" xlink:href="#f"/>
<use x="270.166016" xlink:href="#e"/>
<use x="333.544922" xlink:href="#h"/>
<use x="394.824219" xlink:href="#j"/>
</g>
</g>
<path d="m320.93 658.93v33.808q0 2.4 2.4 2.4h7.7425q2.4 0 2.4-2.4v-33.808q0-2.4-2.4-2.4h-7.7425q-2.4 0-2.4 2.4z" clip-path="url(#a)" fill="#fff" stroke="#fff"/>
<g clip-path="url(#a)">
<g transform="translate(324.99 658.93) rotate(90) scale(.08 -.08)">
<use xlink:href="#k"/>
<use x="44.083984" xlink:href="#d"/>
<use x="105.607422" xlink:href="#i"/>
<use x="144.970703" xlink:href="#l"/>
<use x="242.382812" xlink:href="#f"/>
<use x="270.166016" xlink:href="#e"/>
<use x="333.544922" xlink:href="#h"/>
<use x="394.824219" xlink:href="#j"/>
</g>
</g>
<path d="m79.111 658.93v33.808q0 2.4 2.4 2.4h7.7425q2.4 0 2.4-2.4v-33.808q0-2.4-2.4-2.4h-7.7425q-2.4 0-2.4 2.4z" clip-path="url(#a)" fill="#fff" stroke="#fff"/>
<g clip-path="url(#a)">
<g transform="translate(83.175 658.93) rotate(90) scale(.08 -.08)">
<use xlink:href="#k"/>
<use x="44.083984" xlink:href="#d"/>
<use x="105.607422" xlink:href="#i"/>
<use x="144.970703" xlink:href="#l"/>
<use x="242.382812" xlink:href="#f"/>
<use x="270.166016" xlink:href="#e"/>
<use x="333.544922" xlink:href="#h"/>
<use x="394.824219" xlink:href="#j"/>
</g>
</g>
<path d="m1347.9 658.93v33.808q0 2.4 2.4 2.4h7.7425q2.4 0 2.4-2.4v-33.808q0-2.4-2.4-2.4h-7.7425q-2.4 0-2.4 2.4z" clip-path="url(#a)" fill="#fff" stroke="#fff"/>
<g clip-path="url(#a)">
<g transform="translate(1352 658.93) rotate(90) scale(.08 -.08)">
<use xlink:href="#k"/>
<use x="44.083984" xlink:href="#d"/>
<use x="105.607422" xlink:href="#i"/>
<use x="144.970703" xlink:href="#l"/>
<use x="242.382812" xlink:href="#f"/>
<use x="270.166016" xlink:href="#e"/>
<use x="333.544922" xlink:href="#h"/>
<use x="394.824219" xlink:href="#j"/>
</g>
</g>
<defs>
<path id="b" d="m0 8.6603c2.2967 0 4.4997-0.9125 6.1237-2.5365 1.624-1.624 2.5365-3.827 2.5365-6.1237s-0.9125-4.4997-2.5365-6.1237c-1.624-1.624-3.827-2.5365-6.1237-2.5365s-4.4997 0.9125-6.1237 2.5365c-1.624 1.624-2.5365 3.827-2.5365 6.1237s0.9125 4.4997 2.5365 6.1237c1.624 1.624 3.827 2.5365 6.1237 2.5365z"/>
</defs>
<g clip-path="url(#a)" fill="#ffffff" stroke="#ffffff">
<use x="64.484848" y="712.727273" xlink:href="#b"/>
<use x="73.441077" y="712.727273" xlink:href="#b"/>
<use x="85.382716" y="712.727273" xlink:href="#b"/>
<use x="100.309764" y="712.727273" xlink:href="#b"/>
<use x="118.222222" y="712.727273" xlink:href="#b"/>
<use x="139.12009" y="712.727273" xlink:href="#b"/>
<use x="163.003367" y="712.727273" xlink:href="#b"/>
<use x="189.872054" y="712.727273" xlink:href="#b"/>
<use x="219.72615" y="712.727273" xlink:href="#b"/>
<use x="252.565657" y="712.727273" xlink:href="#b"/>
<use x="288.390572" y="712.727273" xlink:href="#b"/>
<use x="327.200898" y="712.727273" xlink:href="#b"/>
<use x="368.996633" y="712.727273" xlink:href="#b"/>
<use x="413.777778" y="712.727273" xlink:href="#b"/>
<use x="461.544332" y="712.727273" xlink:href="#b"/>
<use x="512.296296" y="712.727273" xlink:href="#b"/>
<use x="566.03367" y="712.727273" xlink:href="#b"/>
<use x="622.756453" y="712.727273" xlink:href="#b"/>
<use x="682.464646" y="712.727273" xlink:href="#b"/>
<use x="745.158249" y="712.727273" xlink:href="#b"/>
<use x="810.837262" y="712.727273" xlink:href="#b"/>
<use x="879.501684" y="712.727273" xlink:href="#b"/>
<use x="951.151515" y="712.727273" xlink:href="#b"/>
<use x="1025.786756" y="712.727273" xlink:href="#b"/>
<use x="1103.407407" y="712.727273" xlink:href="#b"/>
<use x="1184.013468" y="712.727273" xlink:href="#b"/>
<use x="1267.604938" y="712.727273" xlink:href="#b"/>
<use x="1354.181818" y="712.727273" xlink:href="#b"/>
<use x="249.087714" y="33.939394" xlink:href="#b"/>
<use x="249.087714" y="110.070515" xlink:href="#b"/>
<use x="64.484848" y="638.94549" xlink:href="#b"/>
<use x="73.441077" y="638.94549" xlink:href="#b"/>
<use x="773.042212" y="186.106284" xlink:href="#b"/>
<use x="143.1421" y="262.033137" xlink:href="#b"/>
<use x="461.544332" y="638.94549" xlink:href="#b"/>
<use x="539.164983" y="564.137322" xlink:href="#b"/>
<use x="683.459783" y="564.137322" xlink:href="#b"/>
<use x="962.197531" y="488.936791" xlink:href="#b"/>
<use x="1267.604938" y="638.94549" xlink:href="#b"/>
<use x="810.837262" y="638.94549" xlink:href="#b"/>
<use x="879.501684" y="638.94549" xlink:href="#b"/>
<use x="951.151515" y="638.94549" xlink:href="#b"/>
<use x="1025.786756" y="638.94549" xlink:href="#b"/>
<use x="1143.710438" y="564.137322" xlink:href="#b"/>
<use x="1103.407407" y="638.94549" xlink:href="#b"/>
<use x="1184.013468" y="638.94549" xlink:href="#b"/>
<use x="622.756453" y="638.94549" xlink:href="#b"/>
<use x="682.464646" y="638.94549" xlink:href="#b"/>
<use x="745.158249" y="638.94549" xlink:href="#b"/>
<use x="512.296296" y="638.94549" xlink:href="#b"/>
<use x="566.03367" y="638.94549" xlink:href="#b"/>
<use x="100.309764" y="638.94549" xlink:href="#b"/>
<use x="118.222222" y="638.94549" xlink:href="#b"/>
<use x="210.894314" y="337.832963" xlink:href="#b"/>
<use x="139.12009" y="638.94549" xlink:href="#b"/>
<use x="163.003367" y="638.94549" xlink:href="#b"/>
<use x="189.872054" y="638.94549" xlink:href="#b"/>
<use x="351.581743" y="413.480321" xlink:href="#b"/>
<use x="271.970819" y="488.936791" xlink:href="#b"/>
<use x="368.996633" y="638.94549" xlink:href="#b"/>
<use x="413.777778" y="638.94549" xlink:href="#b"/>
<use x="236.145903" y="638.94549" xlink:href="#b"/>
<use x="307.795735" y="564.137322" xlink:href="#b"/>
<use x="288.390572" y="638.94549" xlink:href="#b"/>
<use x="327.200898" y="638.94549" xlink:href="#b"/>
<use x="85.382716" y="638.94549" xlink:href="#b"/>
<use x="1354.181818" y="638.94549" xlink:href="#b"/>
</g>
<g clip-path="url(#a)">
<defs>
<path id="v" d="m45.406 46.391v29.594h8.9844v-75.984h-8.9844v8.2031q-2.8281-4.875-7.1562-7.25-4.3125-2.375-10.375-2.375-9.9062 0-16.141 7.9062-6.2188 7.9219-6.2188 20.812t6.2188 20.797q6.2344 7.9062 16.141 7.9062 6.0625 0 10.375-2.375 4.3281-2.3594 7.1562-7.2344zm-30.609-19.094q0-9.9062 4.0781-15.547t11.203-5.6406 11.219 5.6406q4.1094 5.6406 4.1094 15.547t-4.1094 15.547q-4.0938 5.6406-11.219 5.6406t-11.203-5.6406-4.0781-15.547z"/>
<path id="q" d="m48.781 52.594v-8.4062q-3.8125 2.1094-7.6406 3.1562t-7.7344 1.0469q-8.75 0-13.594-5.5469-4.8281-5.5312-4.8281-15.547t4.8281-15.562q4.8438-5.5312 13.594-5.5312 3.9062 0 7.7344 1.0469t7.6406 3.1562v-8.3125q-3.7656-1.75-7.7969-2.625-4.0156-0.89062-8.5625-0.89062-12.359 0-19.641 7.7656-7.2656 7.7656-7.2656 20.953 0 13.375 7.3438 21.031 7.3594 7.6719 20.156 7.6719 4.1406 0 8.0938-0.85938 3.9531-0.84375 7.6719-2.5469z"/>
<path id="p" d="m54.891 33.016v-33.016h-8.9844v32.719q0 7.7656-3.0312 11.609-3.0312 3.8594-9.0781 3.8594-7.2812 0-11.484-4.6406-4.2031-4.625-4.2031-12.641v-30.906h-9.0312v75.984h9.0312v-29.797q3.2344 4.9375 7.5938 7.375 4.375 2.4375 10.094 2.4375 9.4219 0 14.25-5.8281 4.8438-5.8281 4.8438-17.156z"/>
</defs>
<g transform="translate(46.286 715.49) scale(.1 -.1)">
<use xlink:href="#r"/>
<use x="63.183594" xlink:href="#e"/>
<use x="126.5625" xlink:href="#v"/>
<use x="190.039062" xlink:href="#j"/>
<use x="217.822266" xlink:href="#f"/>
<use x="245.605469" xlink:href="#q"/>
<use x="300.585938" xlink:href="#p"/>
</g>
</g>
<g clip-path="url(#a)">
<defs>
<path id="ag" d="m2.9844 54.688h9.5156l17.094-45.891 17.094 45.891h9.5156l-20.516-54.688h-12.203z"/>
<path id="am" d="m8.5 21.578v33.109h8.9844v-32.766q0-7.7656 3.0156-11.656 3.0312-3.875 9.0938-3.875 7.2656 0 11.484 4.6406 4.2344 4.6406 4.2344 12.656v31h8.9844v-54.688h-8.9844v8.4062q-3.2656-4.9844-7.5938-7.4062-4.3125-2.4219-10.031-2.4219-9.4219 0-14.312 5.8594-4.875 5.8594-4.875 17.141z"/>
<path id="an" d="m18.312 70.219v-15.531h18.5v-6.9844h-18.5v-29.688q0-6.6875 1.8281-8.5938t7.4531-1.9062h9.2188v-7.5156h-9.2188q-10.406 0-14.359 3.875-3.9531 3.8906-3.9531 14.141v29.688h-6.5938v6.9844h6.5938v15.531z"/>
</defs>
<g transform="translate(47.654 715.49) scale(.1 -.1)">
<use xlink:href="#ag"/>
<use x="59.179688" xlink:href="#d"/>
<use x="120.703125" xlink:href="#i"/>
<use x="161.816406" xlink:href="#j"/>
<use x="189.599609" xlink:href="#h"/>
<use x="250.878906" xlink:href="#am"/>
<use x="314.257812" xlink:href="#an"/>
<use x="353.466797" xlink:href="#d"/>
<use x="414.990234" xlink:href="#an"/>
<use x="454.199219" xlink:href="#d"/>
</g>
</g>
<g clip-path="url(#a)">
<defs>
<path id="ax" d="m11.719 12.406h10.297v-8.4062l-8-15.625h-6.2969l4 15.625z"/>
</defs>
<g transform="translate(83.794 715.49) scale(.1 -.1)">
<use xlink:href="#ax"/>
</g>
</g>
<g clip-path="url(#a)">
<g transform="translate(92.675 715.49) scale(.1 -.1)">
<use xlink:href="#d"/>
<use x="61.523438" xlink:href="#f"/>
<use x="89.306641" xlink:href="#e"/>
</g>
</g>
<g clip-path="url(#a)">
<defs>
<path id="bb" d="m18.109 8.2031v-29h-9.0312v75.484h9.0312v-8.2969q2.8438 4.875 7.1562 7.2344 4.3281 2.375 10.328 2.375 9.9688 0 16.188-7.9062 6.2344-7.9062 6.2344-20.797t-6.2344-20.812q-6.2188-7.9062-16.188-7.9062-6 0-10.328 2.375-4.3125 2.375-7.1562 7.25zm30.578 19.094q0 9.9062-4.0781 15.547t-11.203 5.6406q-7.1406 0-11.219-5.6406t-4.0781-15.547 4.0781-15.547 11.219-5.6406q7.125 0 11.203 5.6406t4.0781 15.547z"/>
<path id="ah" d="m37.109 75.984v-7.4844h-8.5938q-4.8281 0-6.7188-1.9531-1.875-1.9531-1.875-7.0312v-4.8281h14.797v-6.9844h-14.797v-47.703h-9.0312v47.703h-8.5938v6.9844h8.5938v3.8125q0 9.125 4.25 13.297 4.25 4.1875 13.469 4.1875z"/>
</defs>
<g transform="translate(96.371 715.49) scale(.1 -.1)">
<use xlink:href="#ak"/>
<use x="77.001953" xlink:href="#h"/>
<use x="138.28125" xlink:href="#l"/>
<use x="235.693359" xlink:href="#bb"/>
<use x="299.169922" xlink:href="#ah"/>
<use x="334.375" xlink:href="#d"/>
<use x="395.898438" xlink:href="#i"/>
</g>
</g>
<g clip-path="url(#a)">
<defs>
<path id="w" d="m30.609 48.391q-7.2188 0-11.422-5.6406t-4.2031-15.453 4.1719-15.453q4.1875-5.6406 11.453-5.6406 7.1875 0 11.375 5.6562 4.2031 5.6719 4.2031 15.438 0 9.7188-4.2031 15.406-4.1875 5.6875-11.375 5.6875zm0 7.6094q11.719 0 18.406-7.625 6.7031-7.6094 6.7031-21.078 0-13.422-6.7031-21.078-6.6875-7.6406-18.406-7.6406-11.766 0-18.438 7.6406-6.6562 7.6562-6.6562 21.078 0 13.469 6.6562 21.078 6.6719 7.625 18.438 7.625z"/>
</defs>
<g transform="translate(129.93 715.49) scale(.1 -.1)">
<use xlink:href="#ag"/>
<use x="59.179688" xlink:href="#w"/>
<use x="120.361328" xlink:href="#e"/>
</g>
</g>
<g clip-path="url(#a)">
<g transform="translate(154.7 715.49) scale(.1 -.1)">
<use xlink:href="#v"/>
<use x="63.476562" xlink:href="#d"/>
<use x="125" xlink:href="#i"/>
</g>
</g>
<g clip-path="url(#a)">
<defs>
<path id="at" d="m9.8125 72.906h9.8594v-64.609h35.5v-8.2969h-45.359z"/>
</defs>
<g transform="translate(178.06 715.49) scale(.1 -.1)">
<use xlink:href="#at"/>
<use x="55.712891" xlink:href="#f"/>
<use x="83.496094" xlink:href="#e"/>
<use x="146.875" xlink:href="#f"/>
<use x="174.658203" xlink:href="#d"/>
</g>
</g>
<g clip-path="url(#a)">
<defs>
<path id="aj" d="m53.516 70.516v-9.625q-5.6094 2.6875-10.594 4-4.9844 1.3281-9.625 1.3281-8.0469 0-12.422-3.125t-4.375-8.8906q0-4.8438 2.9062-7.3125 2.9062-2.4531 11.016-3.9688l5.9531-1.2188q11.031-2.1094 16.281-7.4062t5.25-14.172q0-10.609-7.1094-16.078-7.0938-5.4688-20.812-5.4688-5.1719 0-11.016 1.1719-5.8281 1.1719-12.078 3.4688v10.156q6-3.3594 11.766-5.0781 5.7656-1.7031 11.328-1.7031 8.4375 0 13.031 3.3125 4.5938 3.3281 4.5938 9.4844 0 5.3594-3.2969 8.3906t-10.812 4.5469l-6.0156 1.1719q-11.031 2.1875-15.969 6.875-4.9219 4.6875-4.9219 13.047 0 9.6719 6.8125 15.234t18.766 5.5625q5.1406 0 10.453-0.9375 5.3281-0.92188 10.891-2.7656z"/>
</defs>
<g transform="translate(210.32 715.49) scale(.1 -.1)">
<use xlink:href="#aj"/>
<use x="63.476562" xlink:href="#h"/>
<use x="124.755859" xlink:href="#e"/>
</g>
</g>
<g clip-path="url(#a)">
<defs>
<path id="s" d="m44.281 53.078v-8.5q-3.7969 1.9531-7.9062 2.9219-4.0938 0.98438-8.5 0.98438-6.6875 0-10.031-2.0469t-3.3438-6.1562q0-3.125 2.3906-4.9062t9.625-3.3906l3.0781-0.6875q9.5625-2.0469 13.594-5.7812t4.0312-10.422q0-7.625-6.0312-12.078-6.0312-4.4375-16.578-4.4375-4.3906 0-9.1562 0.85938t-10.031 2.5625v9.2812q4.9844-2.5938 9.8125-3.8906 4.8281-1.2812 9.5781-1.2812 6.3438 0 9.75 2.1719 3.4219 2.1719 3.4219 6.125 0 3.6562-2.4688 5.6094-2.4531 1.9531-10.812 3.7656l-3.125 0.73438q-8.3438 1.75-12.062 5.3906-3.7031 3.6406-3.7031 9.9844 0 7.7188 5.4688 11.906 5.4688 4.2031 15.531 4.2031 4.9688 0 9.3594-0.73438 4.4062-0.71875 8.1094-2.1875z"/>
</defs>
<g transform="translate(229.21 715.49) scale(.1 -.1)">
<use xlink:href="#t"/>
<use x="50.269531" xlink:href="#i"/>
<use x="91.382812" xlink:href="#h"/>
<use x="152.662109" xlink:href="#e"/>
<use x="216.041016" xlink:href="#q"/>
<use x="271.021484" xlink:href="#f"/>
<use x="298.804688" xlink:href="#s"/>
<use x="350.904297" xlink:href="#q"/>
<use x="405.884766" xlink:href="#w"/>
</g>
</g>
<g clip-path="url(#a)">
<g transform="translate(283.83 715.49) scale(.1 -.1)">
<use xlink:href="#f"/>
<use x="27.783203" xlink:href="#e"/>
</g>
</g>
<g clip-path="url(#a)">
<defs>
<path id="au" d="m9.8125 72.906h9.8594v-30.812l32.719 30.812h12.703l-36.188-33.984 38.766-38.922h-12.984l-35.016 35.109v-35.109h-9.8594z"/>
</defs>
<g transform="translate(300.58 715.49) scale(.1 -.1)">
<use xlink:href="#au"/>
<use x="63.826172" xlink:href="#h"/>
<use x="125.105469" xlink:href="#j"/>
<use x="152.888672" xlink:href="#f"/>
<use x="180.671875" xlink:href="#ah"/>
<use x="215.876953" xlink:href="#w"/>
<use x="277.058594" xlink:href="#i"/>
<use x="316.421875" xlink:href="#e"/>
<use x="379.800781" xlink:href="#f"/>
<use x="407.583984" xlink:href="#d"/>
<use x="469.107422" xlink:href="#e"/>
</g>
</g>
<g clip-path="url(#a)">
<g transform="translate(356.85 715.49) scale(.1 -.1)">
<use xlink:href="#e"/>
<use x="63.378906" xlink:href="#h"/>
<use x="124.658203" xlink:href="#q"/>
<use x="179.638672" xlink:href="#p"/>
</g>
</g>
<g clip-path="url(#a)">
<defs>
<path id="ao" d="m45.406 27.984q0 9.7656-4.0312 15.125-4.0156 5.375-11.297 5.375-7.2188 0-11.25-5.375-4.0312-5.3594-4.0312-15.125 0-9.7188 4.0312-15.094t11.25-5.375q7.2812 0 11.297 5.375 4.0312 5.375 4.0312 15.094zm8.9844-21.203q0-13.953-6.2031-20.766-6.1875-6.8125-18.984-6.8125-4.7344 0-8.9375 0.70312t-8.1562 2.1719v8.7344q3.9531-2.1406 7.8125-3.1562 3.8594-1.0312 7.8594-1.0312 8.8438 0 13.234 4.6094t4.3906 13.938v4.4531q-2.7812-4.8438-7.125-7.2344t-10.406-2.3906q-10.047 0-16.203 7.6562-6.1562 7.6719-6.1562 20.328 0 12.688 6.1562 20.344 6.1562 7.6719 16.203 7.6719 6.0625 0 10.406-2.3906t7.125-7.2188v8.2969h8.9844z"/>
</defs>
<g transform="translate(387.66 715.49) scale(.1 -.1)">
<use xlink:href="#aj"/>
<use x="63.476562" xlink:href="#q"/>
<use x="118.457031" xlink:href="#p"/>
<use x="181.835938" xlink:href="#h"/>
<use x="243.115234" xlink:href="#e"/>
<use x="306.494141" xlink:href="#ao"/>
<use x="369.970703" xlink:href="#p"/>
<use x="433.349609" xlink:href="#h"/>
<use x="494.628906" xlink:href="#f"/>
</g>
</g>
<g clip-path="url(#a)">
<defs>
<path id="ap" d="m48.688 27.297q0 9.9062-4.0781 15.547t-11.203 5.6406q-7.1406 0-11.219-5.6406t-4.0781-15.547 4.0781-15.547 11.219-5.6406q7.125 0 11.203 5.6406t4.0781 15.547zm-30.578 19.094q2.8438 4.875 7.1562 7.2344 4.3281 2.375 10.328 2.375 9.9688 0 16.188-7.9062 6.2344-7.9062 6.2344-20.797t-6.2344-20.812q-6.2188-7.9062-16.188-7.9062-6 0-10.328 2.375-4.3125 2.375-7.1562 7.25v-8.2031h-9.0312v75.984h9.0312z"/>
</defs>
<g transform="translate(449.06 715.49) scale(.1 -.1)">
<use xlink:href="#p"/>
<use x="63.378906" xlink:href="#h"/>
<use x="124.658203" xlink:href="#ap"/>
<use x="188.134766" xlink:href="#d"/>
</g>
</g>
<g clip-path="url(#a)">
<g transform="translate(503.45 715.49) scale(.1 -.1)">
<use xlink:href="#v"/>
<use x="63.476562" xlink:href="#h"/>
<use x="124.755859" xlink:href="#s"/>
</g>
</g>
<g clip-path="url(#a)">
<g transform="translate(556.61 715.49) scale(.1 -.1)">
<use xlink:href="#k"/>
<use x="57.958984" xlink:href="#f"/>
<use x="85.742188" xlink:href="#d"/>
<use x="147.265625" xlink:href="#i"/>
</g>
</g>
<g clip-path="url(#a)">
<defs>
<path id="m" d="m40.578 39.312q7.0781-1.5156 11.047-6.3125 3.9844-4.7812 3.9844-11.812 0-10.781-7.4219-16.703-7.4219-5.9062-21.094-5.9062-4.5781 0-9.4375 0.90625t-10.031 2.7188v9.5156q4.0938-2.3906 8.9688-3.6094 4.8906-1.2188 10.219-1.2188 9.2656 0 14.125 3.6562t4.8594 10.641q0 6.4531-4.5156 10.078-4.5156 3.6406-12.562 3.6406h-8.5v8.1094h8.8906q7.2656 0 11.125 2.9062t3.8594 8.375q0 5.6094-3.9844 8.6094-3.9688 3.0156-11.391 3.0156-4.0625 0-8.7031-0.89062-4.6406-0.875-10.203-2.7188v8.7812q5.625 1.5625 10.531 2.3438t9.25 0.78125q11.234 0 17.766-5.1094 6.5469-5.0938 6.5469-13.781 0-6.0625-3.4688-10.234t-9.8594-5.7812z"/>
</defs>
<g transform="translate(619.58 715.49) scale(.1 -.1)">
<use xlink:href="#m"/>
</g>
</g>
<g clip-path="url(#a)">
<defs>
<path id="aq" d="m3.3281 72.906h9.9531l15.328-61.625 15.281 61.625h11.094l15.328-61.625 15.281 61.625h10.016l-18.312-72.906h-12.406l-15.375 63.281-15.531-63.281h-12.406z"/>
</defs>
<g transform="translate(662.59 715.49) scale(.1 -.1)">
<use xlink:href="#aq"/>
<use x="93.001953" xlink:href="#w"/>
<use x="154.183594" xlink:href="#q"/>
<use x="209.164062" xlink:href="#p"/>
<use x="272.542969" xlink:href="#d"/>
<use x="334.066406" xlink:href="#e"/>
</g>
</g>
<g clip-path="url(#a)">
<defs>
<path id="al" d="m5.5156 54.688h42.672v-8.2031l-33.781-39.312h33.781v-7.1719h-43.891v8.2031l33.797 39.312h-32.578z"/>
</defs>
<g transform="translate(731.29 715.49) scale(.1 -.1)">
<use xlink:href="#al"/>
<use x="52.490234" xlink:href="#am"/>
<use x="115.869141" xlink:href="#ag"/>
<use x="175.048828" xlink:href="#w"/>
<use x="236.230469" xlink:href="#i"/>
</g>
</g>
<g clip-path="url(#a)">
<g transform="translate(806.28 715.49) scale(.1 -.1)">
<use xlink:href="#f"/>
<use x="27.783203" xlink:href="#e"/>
</g>
</g>
<g clip-path="url(#a)">
<g transform="translate(870.08 715.49) scale(.1 -.1)">
<use xlink:href="#v"/>
<use x="63.476562" xlink:href="#d"/>
<use x="125" xlink:href="#e"/>
</g>
</g>
<g clip-path="url(#a)">
<defs>
<path id="ay" d="m30.609 48.391q-7.2188 0-11.422-5.6406t-4.2031-15.453 4.1719-15.453q4.1875-5.6406 11.453-5.6406 7.1875 0 11.375 5.6562 4.2031 5.6719 4.2031 15.438 0 9.7188-4.2031 15.406-4.1875 5.6875-11.375 5.6875zm0 7.6094q11.719 0 18.406-7.625 6.7031-7.6094 6.7031-21.078 0-13.422-6.7031-21.078-6.6875-7.6406-18.406-7.6406-11.766 0-18.438 7.6406-6.6562 7.6562-6.6562 21.078 0 13.469 6.6562 21.078 6.6719 7.625 18.438 7.625zm4.6094 19.781h9.9062v-9.8594h-9.9062zm-19.094 0h9.9062v-9.8594h-9.9062z"/>
</defs>
<g transform="translate(924.84 715.49) scale(.1 -.1)">
<use xlink:href="#e"/>
<use x="63.378906" xlink:href="#ay"/>
<use x="124.560547" xlink:href="#i"/>
<use x="163.923828" xlink:href="#v"/>
<use x="227.400391" xlink:href="#j"/>
<use x="255.183594" xlink:href="#f"/>
<use x="282.966797" xlink:href="#q"/>
<use x="337.947266" xlink:href="#p"/>
<use x="401.326172" xlink:href="#d"/>
<use x="462.849609" xlink:href="#e"/>
</g>
</g>
<g clip-path="url(#a)">
<defs>
<path id="aw" d="m59.516 10.406v19.578h-16.109v8.1094h25.875v-31.312q-5.7031-4.0469-12.594-6.125-6.875-2.0781-14.688-2.0781-17.094 0-26.75 9.9844-9.6406 10-9.6406 27.812 0 17.875 9.6406 27.859 9.6562 9.9844 26.75 9.9844 7.125 0 13.547-1.7656 6.4219-1.75 11.844-5.1719v-10.5q-5.4688 4.6406-11.625 6.9844t-12.938 2.3438q-13.391 0-20.109-7.4688-6.7031-7.4688-6.7031-22.266 0-14.75 6.7031-22.219 6.7188-7.4688 20.109-7.4688 5.2188 0 9.3125 0.90625 4.1094 0.90625 7.375 2.8125z"/>
<path id="ba" d="m4.2031 54.688h8.9844l11.234-42.672 11.172 42.672h10.594l11.234-42.672 11.188 42.672h8.9844l-14.312-54.688h-10.594l-11.766 44.828-11.812-44.828h-10.609z"/>
<path id="az" d="m34.281 27.484q-10.891 0-15.094-2.4844t-4.2031-8.5q0-4.7812 3.1562-7.5938 3.1562-2.7969 8.5625-2.7969 7.4844 0 12 5.2969t4.5156 14.078v2zm17.922 3.7188v-31.203h-8.9844v8.2969q-3.0781-4.9688-7.6719-7.3438t-11.234-2.375q-8.3906 0-13.359 4.7188-4.9531 4.7188-4.9531 12.625 0 9.2188 6.1719 13.906 6.1875 4.6875 18.438 4.6875h12.609v0.89062q0 6.2031-4.0781 9.5938t-11.453 3.3906q-4.6875 0-9.1406-1.125-4.4375-1.125-8.5312-3.375v8.3125q4.9219 1.9062 9.5625 2.8438 4.6406 0.95312 9.0312 0.95312 11.875 0 17.734-6.1562 5.8594-6.1406 5.8594-18.641zm-18.609 44.578h9.9062v-9.8594h-9.9062zm-19.094 0h9.9062v-9.8594h-9.9062z"/>
</defs>
<g transform="translate(998.26 715.49) scale(.1 -.1)">
<use xlink:href="#aw"/>
<use x="77.490234" xlink:href="#d"/>
<use x="139.013672" xlink:href="#ba"/>
<use x="220.800781" xlink:href="#az"/>
<use x="282.080078" xlink:href="#s"/>
<use x="334.179688" xlink:href="#s"/>
<use x="386.279297" xlink:href="#d"/>
<use x="447.802734" xlink:href="#i"/>
<use x="487.166016" xlink:href="#e"/>
</g>
</g>
<g clip-path="url(#a)">
<g transform="translate(1094.6 715.49) scale(.1 -.1)">
<use xlink:href="#v"/>
<use x="63.476562" xlink:href="#d"/>
<use x="125" xlink:href="#s"/>
</g>
</g>
<g clip-path="url(#a)">
<defs>
<path id="bc" d="m9.0781 75.984h9.0312v-44.875l26.812 23.578h11.469l-29-25.578 30.234-29.109h-11.719l-27.797 26.703v-26.703h-9.0312z"/>
</defs>
<g transform="translate(1165.5 715.49) scale(.1 -.1)">
<use xlink:href="#ae"/>
<use x="55.802734" xlink:href="#h"/>
<use x="117.082031" xlink:href="#al"/>
<use x="169.572266" xlink:href="#f"/>
<use x="197.355469" xlink:href="#ah"/>
<use x="232.560547" xlink:href="#f"/>
<use x="260.34375" xlink:href="#bc"/>
<use x="318.253906" xlink:href="#s"/>
</g>
</g>
<g clip-path="url(#a)">
<g transform="translate(1246.3 715.49) scale(.1 -.1)">
<use xlink:href="#ao"/>
<use x="63.476562" xlink:href="#d"/>
<use x="125" xlink:href="#s"/>
<use x="177.099609" xlink:href="#d"/>
<use x="238.623047" xlink:href="#p"/>
<use x="302.001953" xlink:href="#d"/>
<use x="363.525391" xlink:href="#e"/>
</g>
</g>
<g clip-path="url(#a)">
<defs>
<path id="g" d="m10.688 12.406h10.312v-12.406h-10.312z"/>
</defs>
<g transform="translate(1352.6 715.49) scale(.1 -.1)">
<use xlink:href="#g"/>
</g>
</g>
<g clip-path="url(#a)">
<defs>
<path id="c" d="m12.406 8.2969h16.109v55.625l-17.531-3.5156v8.9844l17.438 3.5156h9.8594v-64.609h16.109v-8.2969h-41.984z"/>
</defs>
<g transform="translate(241.14 36.699) scale(.1 -.1)">
<use xlink:href="#c"/>
<use x="63.623047" xlink:href="#g"/>
<use x="95.410156" xlink:href="#c"/>
</g>
</g>
<g clip-path="url(#a)">
<defs>
<path id="n" d="m19.188 8.2969h34.422v-8.2969h-46.281v8.2969q5.6094 5.8125 15.297 15.594 9.7031 9.7969 12.188 12.641 4.7344 5.3125 6.6094 9 1.8906 3.6875 1.8906 7.25 0 5.8125-4.0781 9.4688-4.0781 3.6719-10.625 3.6719-4.6406 0-9.7969-1.6094-5.1406-1.6094-11-4.8906v9.9688q5.9531 2.3906 11.125 3.6094 5.1875 1.2188 9.4844 1.2188 11.328 0 18.062-5.6719 6.7344-5.6562 6.7344-15.125 0-4.5-1.6875-8.5312-1.6719-4.0156-6.125-9.4844-1.2188-1.4219-7.7656-8.1875-6.5312-6.7656-18.453-18.922z"/>
</defs>
<g transform="translate(241.14 112.83) scale(.1 -.1)">
<use xlink:href="#c"/>
<use x="63.623047" xlink:href="#g"/>
<use x="95.410156" xlink:href="#n"/>
</g>
</g>
<g clip-path="url(#a)">
<defs>
<path id="u" d="m37.797 64.312-24.906-38.922h24.906zm-2.5938 8.5938h12.406v-47.516h10.406v-8.2031h-10.406v-17.188h-9.8125v17.188h-32.906v9.5156z"/>
</defs>
<g transform="translate(56.533 641.7) scale(.1 -.1)">
<use xlink:href="#c"/>
<use x="63.623047" xlink:href="#g"/>
<use x="95.410156" xlink:href="#u"/>
</g>
</g>
<g clip-path="url(#a)">
<defs>
<path id="ac" d="m10.797 72.906h38.719v-8.3125h-29.688v-17.859q2.1406 0.73438 4.2812 1.0938 2.1562 0.35938 4.3125 0.35938 12.203 0 19.328-6.6875 7.1406-6.6875 7.1406-18.109 0-11.766-7.3281-18.297-7.3281-6.5156-20.656-6.5156-4.5938 0-9.3594 0.78125-4.75 0.78125-9.8281 2.3438v9.9219q4.3906-2.3906 9.0781-3.5625t9.9062-1.1719q8.4531 0 13.375 4.4375 4.9375 4.4375 4.9375 12.062 0 7.6094-4.9375 12.047-4.9219 4.4531-13.375 4.4531-3.9531 0-7.8906-0.875-3.9219-0.875-8.0156-2.7344z"/>
</defs>
<g transform="translate(65.49 641.7) scale(.1 -.1)">
<use xlink:href="#c"/>
<use x="63.623047" xlink:href="#g"/>
<use x="95.410156" xlink:href="#ac"/>
</g>
</g>
<g clip-path="url(#a)">
<defs>
<path id="ab" d="m33.016 40.375q-6.6406 0-10.531-4.5469-3.875-4.5312-3.875-12.438 0-7.8594 3.875-12.438 3.8906-4.5625 10.531-4.5625t10.516 4.5625q3.875 4.5781 3.875 12.438 0 7.9062-3.875 12.438-3.875 4.5469-10.516 4.5469zm19.578 30.922v-8.9844q-3.7188 1.75-7.5 2.6719-3.7812 0.9375-7.5 0.9375-9.7656 0-14.922-6.5938-5.1406-6.5938-5.875-19.922 2.875 4.25 7.2188 6.5156 4.3594 2.2656 9.5781 2.2656 10.984 0 17.359-6.6719 6.375-6.6562 6.375-18.125 0-11.234-6.6406-18.031-6.6406-6.7812-17.672-6.7812-12.656 0-19.344 9.6875-6.6875 9.7031-6.6875 28.109 0 17.281 8.2031 27.562t22.016 10.281q3.7188 0 7.5-0.73438t7.8906-2.1875z"/>
</defs>
<g transform="translate(765.09 188.87) scale(.1 -.1)">
<use xlink:href="#c"/>
<use x="63.623047" xlink:href="#g"/>
<use x="95.410156" xlink:href="#ab"/>
</g>
</g>
<g clip-path="url(#a)">
<defs>
<path id="aa" d="m31.781 34.625q-7.0312 0-11.062-3.7656-4.0156-3.7656-4.0156-10.344 0-6.5938 4.0156-10.359 4.0312-3.7656 11.062-3.7656t11.078 3.7812q4.0625 3.7969 4.0625 10.344 0 6.5781-4.0312 10.344-4.0156 3.7656-11.109 3.7656zm-9.8594 4.1875q-6.3438 1.5625-9.8906 5.9062-3.5312 4.3594-3.5312 10.609 0 8.7344 6.2188 13.812 6.2344 5.0781 17.062 5.0781 10.891 0 17.094-5.0781t6.2031-13.812q0-6.25-3.5469-10.609-3.5312-4.3438-9.8281-5.9062 7.125-1.6562 11.094-6.5 3.9844-4.8281 3.9844-11.797 0-10.609-6.4688-16.281-6.4688-5.6562-18.531-5.6562-12.047 0-18.531 5.6562-6.4688 5.6719-6.4688 16.281 0 6.9688 4 11.797 4.0156 4.8438 11.141 6.5zm-3.6094 15.578q0-5.6562 3.5312-8.8281 3.5469-3.1719 9.9375-3.1719 6.3594 0 9.9375 3.1719 3.5938 3.1719 3.5938 8.8281 0 5.6719-3.5938 8.8438-3.5781 3.1719-9.9375 3.1719-6.3906 0-9.9375-3.1719-3.5312-3.1719-3.5312-8.8438z"/>
</defs>
<g transform="translate(135.19 264.79) scale(.1 -.1)">
<use xlink:href="#c"/>
<use x="63.623047" xlink:href="#g"/>
<use x="95.410156" xlink:href="#aa"/>
</g>
</g>
<g clip-path="url(#a)">
<defs>
<path id="z" d="m10.984 1.5156v8.9844q3.7188-1.7656 7.5156-2.6875 3.8125-0.92188 7.4844-0.92188 9.7656 0 14.906 6.5625 5.1562 6.5625 5.8906 19.953-2.8281-4.2031-7.1875-6.4531-4.3438-2.25-9.6094-2.25-10.938 0-17.312 6.6094-6.375 6.625-6.375 18.109 0 11.219 6.6406 18 6.6406 6.7969 17.672 6.7969 12.656 0 19.312-9.7031 6.6719-9.6875 6.6719-28.141 0-17.234-8.1875-27.516-8.1719-10.281-21.984-10.281-3.7188 0-7.5312 0.73438-3.7969 0.73438-7.9062 2.2031zm19.625 30.906q6.6406 0 10.516 4.5312 3.8906 4.5469 3.8906 12.469 0 7.8594-3.8906 12.422-3.875 4.5625-10.516 4.5625t-10.516-4.5625-3.875-12.422q0-7.9219 3.875-12.469 3.875-4.5312 10.516-4.5312z"/>
</defs>
<g transform="translate(453.59 641.7) scale(.1 -.1)">
<use xlink:href="#c"/>
<use x="63.623047" xlink:href="#g"/>
<use x="95.410156" xlink:href="#z"/>
</g>
</g>
<g clip-path="url(#a)">
<defs>
<path id="ad" d="m31.781 66.406q-7.6094 0-11.453-7.5-3.8281-7.4844-3.8281-22.531 0-14.984 3.8281-22.484 3.8438-7.5 11.453-7.5 7.6719 0 11.5 7.5 3.8438 7.5 3.8438 22.484 0 15.047-3.8438 22.531-3.8281 7.5-11.5 7.5zm0 7.8125q12.266 0 18.734-9.7031 6.4688-9.6875 6.4688-28.141 0-18.406-6.4688-28.109-6.4688-9.6875-18.734-9.6875-12.25 0-18.719 9.6875-6.4688 9.7031-6.4688 28.109 0 18.453 6.4688 28.141 6.4688 9.7031 18.719 9.7031z"/>
</defs>
<g transform="translate(528.03 566.9) scale(.1 -.1)">
<use xlink:href="#c"/>
<use x="63.623047" xlink:href="#g"/>
<use x="95.410156" xlink:href="#c"/>
<use x="159.033203" xlink:href="#ad"/>
</g>
</g>
<g clip-path="url(#a)">
<g transform="translate(672.33 566.9) scale(.1 -.1)">
<use xlink:href="#c"/>
<use x="63.623047" xlink:href="#g"/>
<use x="95.410156" xlink:href="#c"/>
<use x="159.033203" xlink:href="#c"/>
</g>
</g>
<g clip-path="url(#a)">
<g transform="translate(951.06 491.7) scale(.1 -.1)">
<use xlink:href="#c"/>
<use x="63.623047" xlink:href="#g"/>
<use x="95.410156" xlink:href="#c"/>
<use x="159.033203" xlink:href="#n"/>
</g>
</g>
<g clip-path="url(#a)">
<g transform="translate(1256.5 641.7) scale(.1 -.1)">
<use xlink:href="#c"/>
<use x="63.623047" xlink:href="#g"/>
<use x="95.410156" xlink:href="#c"/>
<use x="159.033203" xlink:href="#m"/>
</g>
</g>
<g clip-path="url(#a)">
<g transform="translate(799.7 641.7) scale(.1 -.1)">
<use xlink:href="#c"/>
<use x="63.623047" xlink:href="#g"/>
<use x="95.410156" xlink:href="#c"/>
<use x="159.033203" xlink:href="#u"/>
</g>
</g>
<g clip-path="url(#a)">
<g transform="translate(868.37 641.7) scale(.1 -.1)">
<use xlink:href="#c"/>
<use x="63.623047" xlink:href="#g"/>
<use x="95.410156" xlink:href="#c"/>
<use x="159.033203" xlink:href="#ac"/>
</g>
</g>
<g clip-path="url(#a)">
<g transform="translate(940.02 641.7) scale(.1 -.1)">
<use xlink:href="#c"/>
<use x="63.623047" xlink:href="#g"/>
<use x="95.410156" xlink:href="#c"/>
<use x="159.033203" xlink:href="#ab"/>
</g>
</g>
<g clip-path="url(#a)">
<defs>
<path id="af" d="m8.2031 72.906h46.875v-4.2031l-26.469-68.703h-10.297l24.906 64.594h-35.016z"/>
</defs>
<g transform="translate(1014.7 641.7) scale(.1 -.1)">
<use xlink:href="#c"/>
<use x="63.623047" xlink:href="#g"/>
<use x="95.410156" xlink:href="#c"/>
<use x="159.033203" xlink:href="#af"/>
</g>
</g>
<g clip-path="url(#a)">
<g transform="translate(1132.6 566.9) scale(.1 -.1)">
<use xlink:href="#c"/>
<use x="63.623047" xlink:href="#g"/>
<use x="95.410156" xlink:href="#c"/>
<use x="159.033203" xlink:href="#aa"/>
</g>
</g>
<g clip-path="url(#a)">
<g transform="translate(1092.3 641.7) scale(.1 -.1)">
<use xlink:href="#c"/>
<use x="63.623047" xlink:href="#g"/>
<use x="95.410156" xlink:href="#c"/>
<use x="159.033203" xlink:href="#z"/>
</g>
</g>
<g clip-path="url(#a)">
<g transform="translate(1172.9 641.7) scale(.1 -.1)">
<use xlink:href="#c"/>
<use x="63.623047" xlink:href="#g"/>
<use x="95.410156" xlink:href="#n"/>
<use x="159.033203" xlink:href="#ad"/>
</g>
</g>
<g clip-path="url(#a)">
<g transform="translate(611.62 641.7) scale(.1 -.1)">
<use xlink:href="#c"/>
<use x="63.623047" xlink:href="#g"/>
<use x="95.410156" xlink:href="#n"/>
<use x="159.033203" xlink:href="#c"/>
</g>
</g>
<g clip-path="url(#a)">
<g transform="translate(671.33 641.7) scale(.1 -.1)">
<use xlink:href="#c"/>
<use x="63.623047" xlink:href="#g"/>
<use x="95.410156" xlink:href="#n"/>
<use x="159.033203" xlink:href="#n"/>
</g>
</g>
<g clip-path="url(#a)">
<g transform="translate(734.03 641.7) scale(.1 -.1)">
<use xlink:href="#c"/>
<use x="63.623047" xlink:href="#g"/>
<use x="95.410156" xlink:href="#n"/>
<use x="159.033203" xlink:href="#m"/>
</g>
</g>
<g clip-path="url(#a)">
<g transform="translate(501.16 641.7) scale(.1 -.1)">
<use xlink:href="#c"/>
<use x="63.623047" xlink:href="#g"/>
<use x="95.410156" xlink:href="#n"/>
<use x="159.033203" xlink:href="#u"/>
</g>
</g>
<g clip-path="url(#a)">
<g transform="translate(554.9 641.7) scale(.1 -.1)">
<use xlink:href="#c"/>
<use x="63.623047" xlink:href="#g"/>
<use x="95.410156" xlink:href="#n"/>
<use x="159.033203" xlink:href="#ac"/>
</g>
</g>
<g clip-path="url(#a)">
<g transform="translate(89.177 641.7) scale(.1 -.1)">
<use xlink:href="#c"/>
<use x="63.623047" xlink:href="#g"/>
<use x="95.410156" xlink:href="#n"/>
<use x="159.033203" xlink:href="#ab"/>
</g>
</g>
<g clip-path="url(#a)">
<g transform="translate(107.09 641.7) scale(.1 -.1)">
<use xlink:href="#c"/>
<use x="63.623047" xlink:href="#g"/>
<use x="95.410156" xlink:href="#n"/>
<use x="159.033203" xlink:href="#af"/>
</g>
</g>
<g clip-path="url(#a)">
<g transform="translate(199.76 340.59) scale(.1 -.1)">
<use xlink:href="#c"/>
<use x="63.623047" xlink:href="#g"/>
<use x="95.410156" xlink:href="#n"/>
<use x="159.033203" xlink:href="#aa"/>
</g>
</g>
<g clip-path="url(#a)">
<g transform="translate(127.99 641.7) scale(.1 -.1)">
<use xlink:href="#c"/>
<use x="63.623047" xlink:href="#g"/>
<use x="95.410156" xlink:href="#n"/>
<use x="159.033203" xlink:href="#z"/>
</g>
</g>
<g clip-path="url(#a)">
<g transform="translate(151.87 641.7) scale(.1 -.1)">
<use xlink:href="#c"/>
<use x="63.623047" xlink:href="#g"/>
<use x="95.410156" xlink:href="#m"/>
<use x="159.033203" xlink:href="#ad"/>
</g>
</g>
<g clip-path="url(#a)">
<g transform="translate(178.74 641.7) scale(.1 -.1)">
<use xlink:href="#c"/>
<use x="63.623047" xlink:href="#g"/>
<use x="95.410156" xlink:href="#m"/>
<use x="159.033203" xlink:href="#c"/>
</g>
</g>
<g clip-path="url(#a)">
<g transform="translate(340.45 416.24) scale(.1 -.1)">
<use xlink:href="#c"/>
<use x="63.623047" xlink:href="#g"/>
<use x="95.410156" xlink:href="#m"/>
<use x="159.033203" xlink:href="#n"/>
</g>
</g>
<g clip-path="url(#a)">
<g transform="translate(260.84 491.7) scale(.1 -.1)">
<use xlink:href="#c"/>
<use x="63.623047" xlink:href="#g"/>
<use x="95.410156" xlink:href="#m"/>
<use x="159.033203" xlink:href="#m"/>
</g>
</g>
<g clip-path="url(#a)">
<g transform="translate(357.86 641.7) scale(.1 -.1)">
<use xlink:href="#c"/>
<use x="63.623047" xlink:href="#g"/>
<use x="95.410156" xlink:href="#m"/>
<use x="159.033203" xlink:href="#u"/>
</g>
</g>
<g clip-path="url(#a)">
<g transform="translate(402.64 641.7) scale(.1 -.1)">
<use xlink:href="#c"/>
<use x="63.623047" xlink:href="#g"/>
<use x="95.410156" xlink:href="#m"/>
<use x="159.033203" xlink:href="#ac"/>
</g>
</g>
<g clip-path="url(#a)">
<g transform="translate(225.01 641.7) scale(.1 -.1)">
<use xlink:href="#c"/>
<use x="63.623047" xlink:href="#g"/>
<use x="95.410156" xlink:href="#m"/>
<use x="159.033203" xlink:href="#ab"/>
</g>
</g>
<g clip-path="url(#a)">
<g transform="translate(296.66 566.9) scale(.1 -.1)">
<use xlink:href="#c"/>
<use x="63.623047" xlink:href="#g"/>
<use x="95.410156" xlink:href="#m"/>
<use x="159.033203" xlink:href="#af"/>
</g>
</g>
<g clip-path="url(#a)">
<g transform="translate(277.26 641.7) scale(.1 -.1)">
<use xlink:href="#c"/>
<use x="63.623047" xlink:href="#g"/>
<use x="95.410156" xlink:href="#m"/>
<use x="159.033203" xlink:href="#aa"/>
</g>
</g>
<g clip-path="url(#a)">
<g transform="translate(316.07 641.7) scale(.1 -.1)">
<use xlink:href="#c"/>
<use x="63.623047" xlink:href="#g"/>
<use x="95.410156" xlink:href="#m"/>
<use x="159.033203" xlink:href="#z"/>
</g>
</g>
<g clip-path="url(#a)">
<g transform="translate(74.25 641.7) scale(.1 -.1)">
<use xlink:href="#c"/>
<use x="63.623047" xlink:href="#g"/>
<use x="95.410156" xlink:href="#u"/>
<use x="159.033203" xlink:href="#ad"/>
</g>
</g>
<g clip-path="url(#a)">
<g transform="translate(1343 641.7) scale(.1 -.1)">
<use xlink:href="#c"/>
<use x="63.623047" xlink:href="#g"/>
<use x="95.410156" xlink:href="#u"/>
<use x="159.033203" xlink:href="#c"/>
</g>
</g>
<defs>
<clipPath id="a">
<rect width="1418.7" height="746.67"/>
</clipPath>
</defs>
</svg>
