<?xml version="1.0" encoding="UTF-8"?>
<!DOCTYPE svg  PUBLIC '-//W3C//DTD SVG 1.1//EN'  'http://www.w3.org/Graphics/SVG/1.1/DTD/svg11.dtd'>
<svg width="1114.7pt" height="586.67pt" version="1.1" viewBox="0 0 1114.7 586.67" xmlns="http://www.w3.org/2000/svg" xmlns:xlink="http://www.w3.org/1999/xlink">
<defs>
<style type="text/css">*{stroke-linecap:butt;stroke-linejoin:round;}</style>
</defs>
<path d="m0 586.67h1114.7v-586.67h-1114.7z" fill="#fff"/>
<g fill="none" stroke="#000">
<path d="m336.51 26.667-221.92 134.48" clip-path="url(#a)"/>
<path d="m336.51 26.667-29.729 401.84" clip-path="url(#a)"/>
<path d="m336.51 26.667 344.48 268.51" clip-path="url(#a)"/>
<path d="m336.51 26.667-92.83 401.84" clip-path="url(#a)"/>
<path d="m114.59 161.15-63.926 267.35" clip-path="url(#a)"/>
<path d="m114.59 161.15-52.791 267.35" clip-path="url(#a)"/>
<path d="m114.59 161.15-37.943 267.35" clip-path="url(#a)"/>
<path d="m114.59 161.15 4.1243 134.03" clip-path="url(#a)"/>
<path d="m114.59 161.15 58.565 267.35" clip-path="url(#a)"/>
<path d="m114.59 161.15 91.971 267.35" clip-path="url(#a)"/>
<path d="m306.78 428.5-22.271 131.5" clip-path="url(#a)"/>
<path d="m306.78 428.5 22.271 131.5" clip-path="url(#a)"/>
<path d="m680.99 295.18-303.68 133.33" clip-path="url(#a)"/>
<path d="m680.99 295.18-251.72 133.33" clip-path="url(#a)"/>
<path d="m680.99 295.18-196.04 133.33" clip-path="url(#a)"/>
<path d="m680.99 295.18-136.65 133.33" clip-path="url(#a)"/>
<path d="m680.99 295.18-73.549 133.33" clip-path="url(#a)"/>
<path d="m680.99 295.18 65.026 133.33" clip-path="url(#a)"/>
<path d="m680.99 295.18 215.97 133.33" clip-path="url(#a)"/>
<path d="m680.99 295.18 297.63 133.33" clip-path="url(#a)"/>
<path d="m680.99 295.18 383.01 133.33" clip-path="url(#a)"/>
<path d="m377.31 428.5v131.5" clip-path="url(#a)"/>
<path d="m429.27 428.5v131.5" clip-path="url(#a)"/>
<path d="m484.95 428.5v131.5" clip-path="url(#a)"/>
<path d="m544.34 428.5v131.5" clip-path="url(#a)"/>
<path d="m607.44 428.5v131.5" clip-path="url(#a)"/>
<path d="m746.02 428.5-71.762 131.5" clip-path="url(#a)"/>
<path d="m746.02 428.5-1.2373 131.5" clip-path="url(#a)"/>
<path d="m746.02 428.5 73 131.5" clip-path="url(#a)"/>
<path d="m896.97 428.5v131.5" clip-path="url(#a)"/>
<path d="m978.63 428.5v131.5" clip-path="url(#a)"/>
<path d="m50.667 428.5v131.5" clip-path="url(#a)"/>
<path d="m61.802 428.5v131.5" clip-path="url(#a)"/>
<path d="m76.65 428.5v131.5" clip-path="url(#a)"/>
<path d="m118.72 295.18-23.508 133.33" clip-path="url(#a)"/>
<path d="m118.72 295.18-1.2373 133.33" clip-path="url(#a)"/>
<path d="m118.72 295.18 24.746 133.33" clip-path="url(#a)"/>
<path d="m173.16 428.5v131.5" clip-path="url(#a)"/>
<path d="m206.56 428.5v131.5" clip-path="url(#a)"/>
<path d="m95.209 428.5v131.5" clip-path="url(#a)"/>
<path d="m117.48 428.5v131.5" clip-path="url(#a)"/>
<path d="m143.46 428.5v131.5" clip-path="url(#a)"/>
<path d="m243.68 428.5v131.5" clip-path="url(#a)"/>
<path d="m1064 428.5v131.5" clip-path="url(#a)"/>
</g>
<path d="m226.23 100.83 5.1452-3.118q2.0525-1.2438 0.80871-3.2964l-4.0126-6.6216q-1.2438-2.0525-3.2964-0.80871l-5.1452 3.118q-2.0525 1.2438-0.80871 3.2964l4.0126 6.6216q1.2438 2.0525 3.2964 0.80871z" clip-path="url(#a)" fill="#fff" stroke="#fff"/>
<g clip-path="url(#a)">
<defs>
<path id="ae" d="m9.8125 72.906h9.8594v-29.891h35.844v29.891h9.8594v-72.906h-9.8594v34.719h-35.844v-34.719h-9.8594z"/>
</defs>
<g transform="translate(224.12 97.355) rotate(-31.216) scale(.08 -.08)">
<use xlink:href="#ae"/>
</g>
</g>
<path d="m327.74 230.27 0.32888-4.4454q0.17708-2.3935-2.2164-2.5705l-7.7214-0.57126q-2.3935-0.17708-2.5705 2.2164l-0.32888 4.4454q-0.17708 2.3935 2.2164 2.5705l7.7214 0.57125q2.3935 0.17708 2.5705-2.2164z" clip-path="url(#a)" fill="#fff" stroke="#fff"/>
<g clip-path="url(#a)">
<defs>
<path id="ad" d="m9.8125 72.906h9.8594v-64.609h35.5v-8.2969h-45.359z"/>
</defs>
<g transform="translate(323.69 229.97) rotate(-85.769) scale(.08 -.08)">
<use xlink:href="#ad"/>
</g>
</g>
<path d="m502.52 164.02 4.7451 3.6986q1.8929 1.4754 3.3683-0.41746l4.7598-6.1066q1.4754-1.8929-0.41746-3.3683l-4.7451-3.6986q-1.8929-1.4754-3.3683 0.41746l-4.7598 6.1066q-1.4754 1.8929 0.41746 3.3683z" clip-path="url(#a)" fill="#fff" stroke="#fff"/>
<g clip-path="url(#a)">
<g transform="translate(505.02 160.81) rotate(37.935) scale(.08 -.08)">
<use xlink:href="#ae"/>
</g>
</g>
<path d="m295.55 231.85 1.3179-5.7048q0.54021-2.3384-1.7982-2.8786l-7.5438-1.7427q-2.3384-0.54021-2.8786 1.7982l-1.3179 5.7048q-0.54021 2.3384 1.7982 2.8786l7.5438 1.7427q2.3384 0.54021 2.8786-1.7982z" clip-path="url(#a)" fill="#fff" stroke="#fff"/>
<g clip-path="url(#a)">
<defs>
<path id="ab" d="m8.6875 72.906h9.9219v-44.297q0-11.719 4.2344-16.875 4.25-5.1406 13.781-5.1406 9.4688 0 13.719 5.1406 4.25 5.1562 4.25 16.875v44.297h9.9062v-45.516q0-14.25-7.0625-21.531-7.0469-7.2812-20.812-7.2812-13.828 0-20.891 7.2812-7.0469 7.2812-7.0469 21.531z"/>
</defs>
<g transform="translate(291.59 230.93) rotate(-76.992) scale(.08 -.08)">
<use xlink:href="#ab"/>
</g>
</g>
<path d="m88.093 298.95 1.2726-5.3225q0.55813-2.3342-1.7761-2.8923l-7.5302-1.8005q-2.3342-0.55812-2.8923 1.7761l-1.2726 5.3225q-0.55812 2.3342 1.7761 2.8923l7.5302 1.8005q2.3342 0.55813 2.8923-1.7761z" clip-path="url(#a)" fill="#fff" stroke="#fff"/>
<g clip-path="url(#a)">
<defs>
<path id="p" d="m34.188 63.188-13.391-36.281h26.812zm-5.5781 9.7188h11.188l27.781-72.906h-10.25l-6.6406 18.703h-32.859l-6.6406-18.703h-10.406z"/>
</defs>
<g transform="translate(84.14 298) rotate(-76.553) scale(.08 -.08)">
<use xlink:href="#p"/>
</g>
</g>
<path d="m93.753 299.06 1.1933-6.0433q0.46492-2.3545-1.8896-2.8195l-7.5958-1.4998q-2.3545-0.46492-2.8195 1.8896l-1.1933 6.0433q-0.46492 2.3545 1.8896 2.8195l7.5958 1.4998q2.3545 0.46492 2.8195-1.8896z" clip-path="url(#a)" fill="#fff" stroke="#fff"/>
<g clip-path="url(#a)">
<defs>
<path id="o" d="m19.672 64.797v-56.688h11.922q15.094 0 22.094 6.8281 7 6.8438 7 21.594 0 14.641-7 21.453t-22.094 6.8125zm-9.8594 8.1094h20.266q21.188 0 31.094-8.8125 9.9219-8.8125 9.9219-27.562 0-18.859-9.9688-27.703-9.9531-8.8281-31.047-8.8281h-20.266z"/>
</defs>
<g transform="translate(89.767 298.27) rotate(-78.83) scale(.08 -.08)">
<use xlink:href="#o"/>
</g>
</g>
<path d="m101.4 298.76 0.86556-6.0989q0.33723-2.3762-2.039-2.7134l-7.6657-1.0879q-2.3762-0.33723-2.7134 2.039l-0.86557 6.0989q-0.33723 2.3762 2.039 2.7134l7.6657 1.0879q2.3762 0.33723 2.7134-2.039z" clip-path="url(#a)" fill="#fff" stroke="#fff"/>
<g clip-path="url(#a)">
<g transform="translate(97.374 298.19) rotate(-81.922) scale(.08 -.08)">
<use xlink:href="#o"/>
</g>
</g>
<path d="m110.3 225.62 0.16832 5.4699q0.073818 2.3989 2.4727 2.325l7.7388-0.23814q2.3989-0.073818 2.325-2.4727l-0.16832-5.4699q-0.073818-2.3989-2.4727-2.325l-7.7388 0.23814q-2.3989 0.073818-2.325 2.4727z" clip-path="url(#a)" fill="#fff" stroke="#fff"/>
<g clip-path="url(#a)">
<g transform="translate(114.36 225.5) rotate(88.237) scale(.08 -.08)">
<use xlink:href="#p"/>
</g>
</g>
<path d="m137.26 293.92 0.98458 4.4947q0.51355 2.3444 2.858 1.8309l7.5632-1.6567q2.3444-0.51355 1.8309-2.858l-0.98458-4.4947q-0.51355-2.3444-2.858-1.8309l-7.5632 1.6567q-2.3444 0.51355-1.8309 2.858z" clip-path="url(#a)" fill="#fff" stroke="#fff"/>
<g clip-path="url(#a)">
<defs>
<path id="u" d="m9.8125 72.906h41.891v-8.3125h-32.031v-21.484h28.906v-8.2969h-28.906v-34.812h-9.8594z"/>
</defs>
<g transform="translate(141.23 293.05) rotate(77.644) scale(.08 -.08)">
<use xlink:href="#u"/>
</g>
</g>
<path d="m153.86 294.59 1.5692 4.5614q0.78071 2.2695 3.0502 1.4888l7.3214-2.5186q2.2695-0.78071 1.4888-3.0502l-1.5691-4.5614q-0.78071-2.2695-3.0502-1.4888l-7.3214 2.5186q-2.2695 0.78071-1.4888 3.0502z" clip-path="url(#a)" fill="#fff" stroke="#fff"/>
<g clip-path="url(#a)">
<defs>
<path id="ac" d="m19.672 64.797v-27.391h12.406q6.8906 0 10.641 3.5625 3.7656 3.5625 3.7656 10.156 0 6.5469-3.7656 10.109-3.75 3.5625-10.641 3.5625zm-9.8594 8.1094h22.266q12.266 0 18.531-5.5469 6.2812-5.5469 6.2812-16.234 0-10.797-6.2812-16.312-6.2656-5.5156-18.531-5.5156h-12.406v-29.297h-9.8594z"/>
</defs>
<g transform="translate(157.71 293.26) rotate(71.016) scale(.08 -.08)">
<use xlink:href="#ac"/>
</g>
</g>
<path d="m299.01 511.96 5.6454-33.333q0.40077-2.3663-1.9655-2.7671l-7.6338-1.2929q-2.3663-0.40077-2.7671 1.9655l-5.6454 33.333q-0.40077 2.3663 1.9655 2.7671l7.6338 1.2929q2.3663 0.40077 2.7671-1.9655z" clip-path="url(#a)" fill="#fff" stroke="#fff"/>
<g clip-path="url(#a)">
<defs>
<path id="l" d="m-0.29688 72.906h61.672v-8.3125h-25.875v-64.594h-9.9062v64.594h-25.891z"/>
<path id="d" d="m56.203 29.594v-4.3906h-41.312q0.59375-9.2812 5.5938-14.141t13.938-4.8594q5.1719 0 10.031 1.2656t9.6562 3.8125v-8.5q-4.8438-2.0469-9.9219-3.125t-10.297-1.0781q-13.094 0-20.734 7.6094-7.6406 7.625-7.6406 20.625 0 13.422 7.25 21.297 7.25 7.8906 19.562 7.8906 11.031 0 17.453-7.1094 6.4219-7.0938 6.4219-19.297zm-8.9844 2.6406q-0.09375 7.3594-4.125 11.75-4.0312 4.4062-10.672 4.4062-7.5156 0-12.031-4.25t-5.2031-11.969z"/>
<path id="i" d="m41.109 46.297q-1.5156 0.875-3.2969 1.2812-1.7812 0.42188-3.9219 0.42188-7.625 0-11.703-4.9531t-4.0781-14.234v-28.812h-9.0312v54.688h9.0312v-8.5q2.8438 4.9844 7.375 7.3906 4.5469 2.4219 11.047 2.4219 0.92188 0 2.0469-0.125 1.125-0.10938 2.4844-0.35938z"/>
<path id="h" d="m52 44.188q3.375 6.0625 8.0625 8.9375t11.031 2.875q8.5469 0 13.188-5.9844 4.6406-5.9688 4.6406-17v-33.016h-9.0312v32.719q0 7.8594-2.7969 11.656-2.7812 3.8125-8.4844 3.8125-6.9844 0-11.047-4.6406-4.0469-4.625-4.0469-12.641v-30.906h-9.0312v32.719q0 7.9062-2.7812 11.688t-8.5938 3.7812q-6.8906 0-10.953-4.6562-4.0469-4.6562-4.0469-12.625v-30.906h-9.0312v54.688h9.0312v-8.5q3.0781 5.0312 7.375 7.4219t10.203 2.3906q5.9688 0 10.141-3.0312 4.1719-3.0156 6.1719-8.7812z"/>
<path id="f" d="m9.4219 54.688h8.9844v-54.688h-8.9844zm0 21.297h8.9844v-11.391h-8.9844z"/>
<path id="e" d="m54.891 33.016v-33.016h-8.9844v32.719q0 7.7656-3.0312 11.609-3.0312 3.8594-9.0781 3.8594-7.2812 0-11.484-4.6406-4.2031-4.625-4.2031-12.641v-30.906h-9.0312v54.688h9.0312v-8.5q3.2344 4.9375 7.5938 7.375 4.375 2.4375 10.094 2.4375 9.4219 0 14.25-5.8281 4.8438-5.8281 4.8438-17.156z"/>
<path id="g" d="m34.281 27.484q-10.891 0-15.094-2.4844t-4.2031-8.5q0-4.7812 3.1562-7.5938 3.1562-2.7969 8.5625-2.7969 7.4844 0 12 5.2969t4.5156 14.078v2zm17.922 3.7188v-31.203h-8.9844v8.2969q-3.0781-4.9688-7.6719-7.3438t-11.234-2.375q-8.3906 0-13.359 4.7188-4.9531 4.7188-4.9531 12.625 0 9.2188 6.1719 13.906 6.1875 4.6875 18.438 4.6875h12.609v0.89062q0 6.2031-4.0781 9.5938t-11.453 3.3906q-4.6875 0-9.1406-1.125-4.4375-1.125-8.5312-3.375v8.3125q4.9219 1.9062 9.5625 2.8438 4.6406 0.95312 9.0312 0.95312 11.875 0 17.734-6.1562 5.8594-6.1406 5.8594-18.641z"/>
<path id="j" d="m9.4219 75.984h8.9844v-75.984h-8.9844z"/>
</defs>
<g transform="translate(295 511.29) rotate(-80.387) scale(.08 -.08)">
<use xlink:href="#l"/>
<use x="44.083984" xlink:href="#d"/>
<use x="105.607422" xlink:href="#i"/>
<use x="144.970703" xlink:href="#h"/>
<use x="242.382812" xlink:href="#f"/>
<use x="270.166016" xlink:href="#e"/>
<use x="333.544922" xlink:href="#g"/>
<use x="394.824219" xlink:href="#j"/>
</g>
</g>
<path d="m308.91 478.63 5.6454 33.333q0.40077 2.3663 2.7671 1.9655l7.6338-1.2929q2.3663-0.40077 1.9655-2.7671l-5.6454-33.333q-0.40077-2.3663-2.7671-1.9655l-7.6338 1.2929q-2.3663 0.40077-1.9655 2.7671z" clip-path="url(#a)" fill="#fff" stroke="#fff"/>
<g clip-path="url(#a)">
<g transform="translate(312.92 477.95) rotate(80.387) scale(.08 -.08)">
<use xlink:href="#l"/>
<use x="44.083984" xlink:href="#d"/>
<use x="105.607422" xlink:href="#i"/>
<use x="144.970703" xlink:href="#h"/>
<use x="242.382812" xlink:href="#f"/>
<use x="270.166016" xlink:href="#e"/>
<use x="333.544922" xlink:href="#g"/>
<use x="394.824219" xlink:href="#j"/>
</g>
</g>
<path d="m529.17 368.68 5.0108-2.1999q2.1975-0.96479 1.2327-3.1623l-3.1125-7.0894q-0.96479-2.1975-3.1623-1.2327l-5.0108 2.1999q-2.1975 0.96479-1.2327 3.1623l3.1125 7.0894q0.96479 2.1975 3.1623 1.2327z" clip-path="url(#a)" fill="#fff" stroke="#fff"/>
<g clip-path="url(#a)">
<g transform="translate(527.53 364.96) rotate(-23.703) scale(.08 -.08)">
<use xlink:href="#p"/>
</g>
</g>
<path d="m555.65 368.66 4.836-2.5615q2.1209-1.1234 0.99751-3.2442l-3.624-6.842q-1.1234-2.1209-3.2442-0.99751l-4.836 2.5615q-2.1209 1.1234-0.99751 3.2442l3.624 6.842q1.1234 2.1209 3.2442 0.99751z" clip-path="url(#a)" fill="#fff" stroke="#fff"/>
<g clip-path="url(#a)">
<g transform="translate(553.75 365.07) rotate(-27.909) scale(.08 -.08)">
<use xlink:href="#p"/>
</g>
</g>
<path d="m583.95 368.76 5.0936-3.4642q1.9845-1.3497 0.63485-3.3342l-4.3541-6.4022q-1.3497-1.9845-3.3342-0.63485l-5.0936 3.4642q-1.9845 1.3497-0.63485 3.3342l4.3541 6.4022q1.3497 1.9845 3.3342 0.63485z" clip-path="url(#a)" fill="#fff" stroke="#fff"/>
<g clip-path="url(#a)">
<g transform="translate(581.67 365.4) rotate(-34.22) scale(.08 -.08)">
<use xlink:href="#o"/>
</g>
</g>
<path d="m614.84 368.48 4.4091-4.3018q1.7178-1.676 0.041784-3.3939l-5.407-5.5418q-1.676-1.7178-3.3939-0.041784l-4.4091 4.3018q-1.7178 1.676-0.041784 3.3939l5.407 5.5418q1.676 1.7178 3.3939 0.041784z" clip-path="url(#a)" fill="#fff" stroke="#fff"/>
<g clip-path="url(#a)">
<g transform="translate(612 365.57) rotate(-44.295) scale(.08 -.08)">
<use xlink:href="#o"/>
</g>
</g>
<path d="m648.39 367.26 2.6434-4.7918q1.1593-2.1015-0.94219-3.2607l-6.7794-3.7398q-2.1015-1.1593-3.2607 0.94219l-2.6434 4.7918q-1.1593 2.1015 0.94219 3.2607l6.7794 3.7398q2.1015 1.1593 3.2607-0.94219z" clip-path="url(#a)" fill="#fff" stroke="#fff"/>
<g clip-path="url(#a)">
<g transform="translate(644.83 365.3) rotate(-61.117) scale(.08 -.08)">
<use xlink:href="#p"/>
</g>
</g>
<path d="m706.81 362.42 2.1145 4.3356q1.0521 2.1571 3.2092 1.1051l6.959-3.394q2.1571-1.0521 1.1051-3.2092l-2.1145-4.3356q-1.0521-2.1571-3.2092-1.1051l-6.959 3.394q-2.1571 1.0521-1.1051 3.2092z" clip-path="url(#a)" fill="#fff" stroke="#fff"/>
<g clip-path="url(#a)">
<g transform="translate(710.46 360.64) rotate(64.001) scale(.08 -.08)">
<use xlink:href="#ac"/>
</g>
</g>
<path d="m783.73 365.97 3.9153 2.417q2.0422 1.2607 3.3029-0.7815l4.0671-6.5882q1.2607-2.0422-0.7815-3.3029l-3.9153-2.417q-2.0422-1.2607-3.3029 0.7815l-4.0671 6.5882q-1.2607 2.0422 0.7815 3.3029z" clip-path="url(#a)" fill="#fff" stroke="#fff"/>
<g clip-path="url(#a)">
<g transform="translate(785.86 362.51) rotate(31.688) scale(.08 -.08)">
<use xlink:href="#u"/>
</g>
</g>
<path d="m824.44 366.3 5.6217 2.5183q2.1903 0.98115 3.1714-1.2091l3.1652-7.066q0.98115-2.1903-1.2091-3.1714l-5.6217-2.5183q-2.1903-0.98115-3.1714 1.2091l-3.1652 7.066q-0.98115 2.1903 1.2091 3.1714z" clip-path="url(#a)" fill="#fff" stroke="#fff"/>
<g clip-path="url(#a)">
<g transform="translate(826.1 362.59) rotate(24.13) scale(.08 -.08)">
<use xlink:href="#o"/>
</g>
</g>
<path d="m867.67 366.8 5.5295 1.9249q2.2666 0.78902 3.0556-1.4776l2.5454-7.3121q0.78901-2.2666-1.4776-3.0556l-5.5295-1.9249q-2.2666-0.78901-3.0556 1.4776l-2.5454 7.3121q-0.78901 2.2666 1.4776 3.0556z" clip-path="url(#a)" fill="#fff" stroke="#fff"/>
<g clip-path="url(#a)">
<g transform="translate(869.01 362.96) rotate(19.193) scale(.08 -.08)">
<use xlink:href="#ab"/>
</g>
</g>
<path d="m371.04 477.35v33.808q0 2.4 2.4 2.4h7.7425q2.4 0 2.4-2.4v-33.808q0-2.4-2.4-2.4h-7.7425q-2.4 0-2.4 2.4z" clip-path="url(#a)" fill="#fff" stroke="#fff"/>
<g clip-path="url(#a)">
<g transform="translate(375.1 477.35) rotate(90) scale(.08 -.08)">
<use xlink:href="#l"/>
<use x="44.083984" xlink:href="#d"/>
<use x="105.607422" xlink:href="#i"/>
<use x="144.970703" xlink:href="#h"/>
<use x="242.382812" xlink:href="#f"/>
<use x="270.166016" xlink:href="#e"/>
<use x="333.544922" xlink:href="#g"/>
<use x="394.824219" xlink:href="#j"/>
</g>
</g>
<path d="m423 477.35v33.808q0 2.4 2.4 2.4h7.7425q2.4 0 2.4-2.4v-33.808q0-2.4-2.4-2.4h-7.7425q-2.4 0-2.4 2.4z" clip-path="url(#a)" fill="#fff" stroke="#fff"/>
<g clip-path="url(#a)">
<g transform="translate(427.07 477.35) rotate(90) scale(.08 -.08)">
<use xlink:href="#l"/>
<use x="44.083984" xlink:href="#d"/>
<use x="105.607422" xlink:href="#i"/>
<use x="144.970703" xlink:href="#h"/>
<use x="242.382812" xlink:href="#f"/>
<use x="270.166016" xlink:href="#e"/>
<use x="333.544922" xlink:href="#g"/>
<use x="394.824219" xlink:href="#j"/>
</g>
</g>
<path d="m478.68 477.35v33.808q0 2.4 2.4 2.4h7.7425q2.4 0 2.4-2.4v-33.808q0-2.4-2.4-2.4h-7.7425q-2.4 0-2.4 2.4z" clip-path="url(#a)" fill="#fff" stroke="#fff"/>
<g clip-path="url(#a)">
<g transform="translate(482.74 477.35) rotate(90) scale(.08 -.08)">
<use xlink:href="#l"/>
<use x="44.083984" xlink:href="#d"/>
<use x="105.607422" xlink:href="#i"/>
<use x="144.970703" xlink:href="#h"/>
<use x="242.382812" xlink:href="#f"/>
<use x="270.166016" xlink:href="#e"/>
<use x="333.544922" xlink:href="#g"/>
<use x="394.824219" xlink:href="#j"/>
</g>
</g>
<path d="m538.07 477.35v33.808q0 2.4 2.4 2.4h7.7425q2.4 0 2.4-2.4v-33.808q0-2.4-2.4-2.4h-7.7425q-2.4 0-2.4 2.4z" clip-path="url(#a)" fill="#fff" stroke="#fff"/>
<g clip-path="url(#a)">
<g transform="translate(542.13 477.35) rotate(90) scale(.08 -.08)">
<use xlink:href="#l"/>
<use x="44.083984" xlink:href="#d"/>
<use x="105.607422" xlink:href="#i"/>
<use x="144.970703" xlink:href="#h"/>
<use x="242.382812" xlink:href="#f"/>
<use x="270.166016" xlink:href="#e"/>
<use x="333.544922" xlink:href="#g"/>
<use x="394.824219" xlink:href="#j"/>
</g>
</g>
<path d="m601.17 477.35v33.808q0 2.4 2.4 2.4h7.7425q2.4 0 2.4-2.4v-33.808q0-2.4-2.4-2.4h-7.7425q-2.4 0-2.4 2.4z" clip-path="url(#a)" fill="#fff" stroke="#fff"/>
<g clip-path="url(#a)">
<g transform="translate(605.24 477.35) rotate(90) scale(.08 -.08)">
<use xlink:href="#l"/>
<use x="44.083984" xlink:href="#d"/>
<use x="105.607422" xlink:href="#i"/>
<use x="144.970703" xlink:href="#h"/>
<use x="242.382812" xlink:href="#f"/>
<use x="270.166016" xlink:href="#e"/>
<use x="333.544922" xlink:href="#g"/>
<use x="394.824219" xlink:href="#j"/>
</g>
</g>
<path d="m707.54 512.09 16.195-29.676q1.1497-2.1067-0.95701-3.2564l-6.7963-3.709q-2.1067-1.1497-3.2564 0.95701l-16.195 29.676q-1.1497 2.1067 0.95701 3.2564l6.7963 3.709q2.1067 1.1497 3.2564-0.95701z" clip-path="url(#a)" fill="#fff" stroke="#fff"/>
<g clip-path="url(#a)">
<g transform="translate(703.98 510.15) rotate(-61.377) scale(.08 -.08)">
<use xlink:href="#l"/>
<use x="44.083984" xlink:href="#d"/>
<use x="105.607422" xlink:href="#i"/>
<use x="144.970703" xlink:href="#h"/>
<use x="242.382812" xlink:href="#f"/>
<use x="270.166016" xlink:href="#e"/>
<use x="333.544922" xlink:href="#g"/>
<use x="394.824219" xlink:href="#j"/>
</g>
</g>
<path d="m751.51 511.21 0.31809-33.806q0.022581-2.3999-2.3773-2.4225l-7.7422-0.072847q-2.3999-0.022581-2.4225 2.3773l-0.31809 33.806q-0.022581 2.3999 2.3773 2.4225l7.7422 0.072847q2.3999 0.022581 2.4225-2.3773z" clip-path="url(#a)" fill="#fff" stroke="#fff"/>
<g clip-path="url(#a)">
<g transform="translate(747.45 511.17) rotate(-89.461) scale(.08 -.08)">
<use xlink:href="#l"/>
<use x="44.083984" xlink:href="#d"/>
<use x="105.607422" xlink:href="#i"/>
<use x="144.970703" xlink:href="#h"/>
<use x="242.382812" xlink:href="#f"/>
<use x="270.166016" xlink:href="#e"/>
<use x="333.544922" xlink:href="#g"/>
<use x="394.824219" xlink:href="#j"/>
</g>
</g>
<path d="m768.83 482.52 16.409 29.558q1.1649 2.0983 3.2632 0.93347l6.7694-3.7579q2.0983-1.1649 0.93347-3.2632l-16.409-29.558q-1.1649-2.0983-3.2632-0.93347l-6.7694 3.7579q-2.0983 1.1649-0.93347 3.2632z" clip-path="url(#a)" fill="#fff" stroke="#fff"/>
<g clip-path="url(#a)">
<g transform="translate(772.38 480.54) rotate(60.964) scale(.08 -.08)">
<use xlink:href="#l"/>
<use x="44.083984" xlink:href="#d"/>
<use x="105.607422" xlink:href="#i"/>
<use x="144.970703" xlink:href="#h"/>
<use x="242.382812" xlink:href="#f"/>
<use x="270.166016" xlink:href="#e"/>
<use x="333.544922" xlink:href="#g"/>
<use x="394.824219" xlink:href="#j"/>
</g>
</g>
<path d="m890.7 477.35v33.808q0 2.4 2.4 2.4h7.7425q2.4 0 2.4-2.4v-33.808q0-2.4-2.4-2.4h-7.7425q-2.4 0-2.4 2.4z" clip-path="url(#a)" fill="#fff" stroke="#fff"/>
<g clip-path="url(#a)">
<g transform="translate(894.76 477.35) rotate(90) scale(.08 -.08)">
<use xlink:href="#l"/>
<use x="44.083984" xlink:href="#d"/>
<use x="105.607422" xlink:href="#i"/>
<use x="144.970703" xlink:href="#h"/>
<use x="242.382812" xlink:href="#f"/>
<use x="270.166016" xlink:href="#e"/>
<use x="333.544922" xlink:href="#g"/>
<use x="394.824219" xlink:href="#j"/>
</g>
</g>
<path d="m972.36 477.35v33.808q0 2.4 2.4 2.4h7.7425q2.4 0 2.4-2.4v-33.808q0-2.4-2.4-2.4h-7.7425q-2.4 0-2.4 2.4z" clip-path="url(#a)" fill="#fff" stroke="#fff"/>
<g clip-path="url(#a)">
<g transform="translate(976.42 477.35) rotate(90) scale(.08 -.08)">
<use xlink:href="#l"/>
<use x="44.083984" xlink:href="#d"/>
<use x="105.607422" xlink:href="#i"/>
<use x="144.970703" xlink:href="#h"/>
<use x="242.382812" xlink:href="#f"/>
<use x="270.166016" xlink:href="#e"/>
<use x="333.544922" xlink:href="#g"/>
<use x="394.824219" xlink:href="#j"/>
</g>
</g>
<path d="m44.395 477.35v33.808q0 2.4 2.4 2.4h7.7425q2.4 0 2.4-2.4v-33.808q0-2.4-2.4-2.4h-7.7425q-2.4 0-2.4 2.4z" clip-path="url(#a)" fill="#fff" stroke="#fff"/>
<g clip-path="url(#a)">
<g transform="translate(48.459 477.35) rotate(90) scale(.08 -.08)">
<use xlink:href="#l"/>
<use x="44.083984" xlink:href="#d"/>
<use x="105.607422" xlink:href="#i"/>
<use x="144.970703" xlink:href="#h"/>
<use x="242.382812" xlink:href="#f"/>
<use x="270.166016" xlink:href="#e"/>
<use x="333.544922" xlink:href="#g"/>
<use x="394.824219" xlink:href="#j"/>
</g>
</g>
<path d="m55.531 477.35v33.808q0 2.4 2.4 2.4h7.7425q2.4 0 2.4-2.4v-33.808q0-2.4-2.4-2.4h-7.7425q-2.4 0-2.4 2.4z" clip-path="url(#a)" fill="#fff" stroke="#fff"/>
<g clip-path="url(#a)">
<g transform="translate(59.595 477.35) rotate(90) scale(.08 -.08)">
<use xlink:href="#l"/>
<use x="44.083984" xlink:href="#d"/>
<use x="105.607422" xlink:href="#i"/>
<use x="144.970703" xlink:href="#h"/>
<use x="242.382812" xlink:href="#f"/>
<use x="270.166016" xlink:href="#e"/>
<use x="333.544922" xlink:href="#g"/>
<use x="394.824219" xlink:href="#j"/>
</g>
</g>
<path d="m70.378 477.35v33.808q0 2.4 2.4 2.4h7.7425q2.4 0 2.4-2.4v-33.808q0-2.4-2.4-2.4h-7.7425q-2.4 0-2.4 2.4z" clip-path="url(#a)" fill="#fff" stroke="#fff"/>
<g clip-path="url(#a)">
<g transform="translate(74.442 477.35) rotate(90) scale(.08 -.08)">
<use xlink:href="#l"/>
<use x="44.083984" xlink:href="#d"/>
<use x="105.607422" xlink:href="#i"/>
<use x="144.970703" xlink:href="#h"/>
<use x="242.382812" xlink:href="#f"/>
<use x="270.166016" xlink:href="#e"/>
<use x="333.544922" xlink:href="#g"/>
<use x="394.824219" xlink:href="#j"/>
</g>
</g>
<path d="m112.66 365.66 0.96524-5.4743q0.41674-2.3635-1.9468-2.7803l-7.6249-1.3444q-2.3635-0.41674-2.7803 1.9468l-0.96524 5.4743q-0.41674 2.3635 1.9468 2.7803l7.6249 1.3444q2.3635 0.41674 2.7803-1.9468z" clip-path="url(#a)" fill="#fff" stroke="#fff"/>
<g clip-path="url(#a)">
<defs>
<path id="al" d="m44.391 34.188q3.1719-1.0781 6.1719-4.5938t6.0312-9.6719l10.016-19.922h-10.609l-9.3125 18.703q-3.625 7.3281-7.0156 9.7188t-9.25 2.3906h-10.75v-30.812h-9.8594v72.906h22.266q12.5 0 18.656-5.2344 6.1562-5.2188 6.1562-15.766 0-6.8906-3.2031-11.438-3.2031-4.5312-9.2969-6.2812zm-24.719 30.609v-25.875h12.406q7.125 0 10.766 3.2969t3.6406 9.6875-3.6406 9.6406-10.766 3.25z"/>
</defs>
<g transform="translate(108.65 364.96) rotate(-80) scale(.08 -.08)">
<use xlink:href="#al"/>
</g>
</g>
<path d="m124.35 364.2 0.042698-4.6011q0.022271-2.3999-2.3776-2.4222l-7.7422-0.071848q-2.3999-0.022271-2.4222 2.3776l-0.042698 4.6011q-0.022271 2.3999 2.3776 2.4222l7.7422 0.071848q2.3999 0.022271 2.4222-2.3776z" clip-path="url(#a)" fill="#fff" stroke="#fff"/>
<g clip-path="url(#a)">
<g transform="translate(120.28 364.16) rotate(-89.468) scale(.08 -.08)">
<use xlink:href="#u"/>
</g>
</g>
<path d="m124.41 360.24 1.0194 5.4924q0.43796 2.3597 2.7977 1.9217l7.6125-1.4129q2.3597-0.43796 1.9217-2.7977l-1.0194-5.4924q-0.43796-2.3597-2.7977-1.9217l-7.6125 1.4129q-2.3597 0.43796-1.9217 2.7977z" clip-path="url(#a)" fill="#fff" stroke="#fff"/>
<g clip-path="url(#a)">
<defs>
<path id="ao" d="m64.406 67.281v-10.391q-4.9844 4.6406-10.625 6.9219-5.6406 2.2969-11.984 2.2969-12.5 0-19.141-7.6406t-6.6406-22.094q0-14.406 6.6406-22.047t19.141-7.6406q6.3438 0 11.984 2.2969t10.625 6.9375v-10.312q-5.1719-3.5156-10.969-5.2812-5.7812-1.75-12.219-1.75-16.562 0-26.094 10.125-9.5156 10.141-9.5156 27.672 0 17.578 9.5156 27.703 9.5312 10.141 26.094 10.141 6.5312 0 12.312-1.7344 5.7969-1.7344 10.875-5.2031z"/>
</defs>
<g transform="translate(128.41 359.5) rotate(79.485) scale(.08 -.08)">
<use xlink:href="#ao"/>
</g>
</g>
<path d="m166.89 477.35v33.808q0 2.4 2.4 2.4h7.7425q2.4 0 2.4-2.4v-33.808q0-2.4-2.4-2.4h-7.7425q-2.4 0-2.4 2.4z" clip-path="url(#a)" fill="#fff" stroke="#fff"/>
<g clip-path="url(#a)">
<g transform="translate(170.95 477.35) rotate(90) scale(.08 -.08)">
<use xlink:href="#l"/>
<use x="44.083984" xlink:href="#d"/>
<use x="105.607422" xlink:href="#i"/>
<use x="144.970703" xlink:href="#h"/>
<use x="242.382812" xlink:href="#f"/>
<use x="270.166016" xlink:href="#e"/>
<use x="333.544922" xlink:href="#g"/>
<use x="394.824219" xlink:href="#j"/>
</g>
</g>
<path d="m200.29 477.35v33.808q0 2.4 2.4 2.4h7.7425q2.4 0 2.4-2.4v-33.808q0-2.4-2.4-2.4h-7.7425q-2.4 0-2.4 2.4z" clip-path="url(#a)" fill="#fff" stroke="#fff"/>
<g clip-path="url(#a)">
<g transform="translate(204.36 477.35) rotate(90) scale(.08 -.08)">
<use xlink:href="#l"/>
<use x="44.083984" xlink:href="#d"/>
<use x="105.607422" xlink:href="#i"/>
<use x="144.970703" xlink:href="#h"/>
<use x="242.382812" xlink:href="#f"/>
<use x="270.166016" xlink:href="#e"/>
<use x="333.544922" xlink:href="#g"/>
<use x="394.824219" xlink:href="#j"/>
</g>
</g>
<path d="m88.938 477.35v33.808q0 2.4 2.4 2.4h7.7425q2.4 0 2.4-2.4v-33.808q0-2.4-2.4-2.4h-7.7425q-2.4 0-2.4 2.4z" clip-path="url(#a)" fill="#fff" stroke="#fff"/>
<g clip-path="url(#a)">
<g transform="translate(93.001 477.35) rotate(90) scale(.08 -.08)">
<use xlink:href="#l"/>
<use x="44.083984" xlink:href="#d"/>
<use x="105.607422" xlink:href="#i"/>
<use x="144.970703" xlink:href="#h"/>
<use x="242.382812" xlink:href="#f"/>
<use x="270.166016" xlink:href="#e"/>
<use x="333.544922" xlink:href="#g"/>
<use x="394.824219" xlink:href="#j"/>
</g>
</g>
<path d="m111.21 477.35v33.808q0 2.4 2.4 2.4h7.7425q2.4 0 2.4-2.4v-33.808q0-2.4-2.4-2.4h-7.7425q-2.4 0-2.4 2.4z" clip-path="url(#a)" fill="#fff" stroke="#fff"/>
<g clip-path="url(#a)">
<g transform="translate(115.27 477.35) rotate(90) scale(.08 -.08)">
<use xlink:href="#l"/>
<use x="44.083984" xlink:href="#d"/>
<use x="105.607422" xlink:href="#i"/>
<use x="144.970703" xlink:href="#h"/>
<use x="242.382812" xlink:href="#f"/>
<use x="270.166016" xlink:href="#e"/>
<use x="333.544922" xlink:href="#g"/>
<use x="394.824219" xlink:href="#j"/>
</g>
</g>
<path d="m137.19 477.35v33.808q0 2.4 2.4 2.4h7.7425q2.4 0 2.4-2.4v-33.808q0-2.4-2.4-2.4h-7.7425q-2.4 0-2.4 2.4z" clip-path="url(#a)" fill="#fff" stroke="#fff"/>
<g clip-path="url(#a)">
<g transform="translate(141.26 477.35) rotate(90) scale(.08 -.08)">
<use xlink:href="#l"/>
<use x="44.083984" xlink:href="#d"/>
<use x="105.607422" xlink:href="#i"/>
<use x="144.970703" xlink:href="#h"/>
<use x="242.382812" xlink:href="#f"/>
<use x="270.166016" xlink:href="#e"/>
<use x="333.544922" xlink:href="#g"/>
<use x="394.824219" xlink:href="#j"/>
</g>
</g>
<path d="m237.41 477.35v33.808q0 2.4 2.4 2.4h7.7425q2.4 0 2.4-2.4v-33.808q0-2.4-2.4-2.4h-7.7425q-2.4 0-2.4 2.4z" clip-path="url(#a)" fill="#fff" stroke="#fff"/>
<g clip-path="url(#a)">
<g transform="translate(241.48 477.35) rotate(90) scale(.08 -.08)">
<use xlink:href="#l"/>
<use x="44.083984" xlink:href="#d"/>
<use x="105.607422" xlink:href="#i"/>
<use x="144.970703" xlink:href="#h"/>
<use x="242.382812" xlink:href="#f"/>
<use x="270.166016" xlink:href="#e"/>
<use x="333.544922" xlink:href="#g"/>
<use x="394.824219" xlink:href="#j"/>
</g>
</g>
<path d="m1057.7 477.35v33.808q0 2.4 2.4 2.4h7.7425q2.4 0 2.4-2.4v-33.808q0-2.4-2.4-2.4h-7.7425q-2.4 0-2.4 2.4z" clip-path="url(#a)" fill="#fff" stroke="#fff"/>
<g clip-path="url(#a)">
<g transform="translate(1061.8 477.35) rotate(90) scale(.08 -.08)">
<use xlink:href="#l"/>
<use x="44.083984" xlink:href="#d"/>
<use x="105.607422" xlink:href="#i"/>
<use x="144.970703" xlink:href="#h"/>
<use x="242.382812" xlink:href="#f"/>
<use x="270.166016" xlink:href="#e"/>
<use x="333.544922" xlink:href="#g"/>
<use x="394.824219" xlink:href="#j"/>
</g>
</g>
<defs>
<path id="b" d="m0 8.6603c2.2967 0 4.4997-0.9125 6.1237-2.5365 1.624-1.624 2.5365-3.827 2.5365-6.1237s-0.9125-4.4997-2.5365-6.1237c-1.624-1.624-3.827-2.5365-6.1237-2.5365s-4.4997 0.9125-6.1237 2.5365c-1.624 1.624-2.5365 3.827-2.5365 6.1237s0.9125 4.4997 2.5365 6.1237c1.624 1.624 3.827 2.5365 6.1237 2.5365z"/>
</defs>
<g clip-path="url(#a)" fill="#ffffff" stroke="#ffffff">
<use x="50.666667" y="560" xlink:href="#b"/>
<use x="61.802198" y="560" xlink:href="#b"/>
<use x="76.649573" y="560" xlink:href="#b"/>
<use x="95.208791" y="560" xlink:href="#b"/>
<use x="117.479853" y="560" xlink:href="#b"/>
<use x="143.462759" y="560" xlink:href="#b"/>
<use x="173.157509" y="560" xlink:href="#b"/>
<use x="206.564103" y="560" xlink:href="#b"/>
<use x="243.68254" y="560" xlink:href="#b"/>
<use x="284.512821" y="560" xlink:href="#b"/>
<use x="329.054945" y="560" xlink:href="#b"/>
<use x="377.308913" y="560" xlink:href="#b"/>
<use x="429.274725" y="560" xlink:href="#b"/>
<use x="484.952381" y="560" xlink:href="#b"/>
<use x="544.34188" y="560" xlink:href="#b"/>
<use x="607.443223" y="560" xlink:href="#b"/>
<use x="674.25641" y="560" xlink:href="#b"/>
<use x="744.781441" y="560" xlink:href="#b"/>
<use x="819.018315" y="560" xlink:href="#b"/>
<use x="896.967033" y="560" xlink:href="#b"/>
<use x="978.627595" y="560" xlink:href="#b"/>
<use x="1064" y="560" xlink:href="#b"/>
<use x="336.513001" y="26.666667" xlink:href="#b"/>
<use x="114.592864" y="161.149075" xlink:href="#b"/>
<use x="306.783883" y="428.502306" xlink:href="#b"/>
<use x="680.992719" y="295.175335" xlink:href="#b"/>
<use x="377.308913" y="428.502306" xlink:href="#b"/>
<use x="429.274725" y="428.502306" xlink:href="#b"/>
<use x="484.952381" y="428.502306" xlink:href="#b"/>
<use x="544.34188" y="428.502306" xlink:href="#b"/>
<use x="607.443223" y="428.502306" xlink:href="#b"/>
<use x="746.018722" y="428.502306" xlink:href="#b"/>
<use x="896.967033" y="428.502306" xlink:href="#b"/>
<use x="978.627595" y="428.502306" xlink:href="#b"/>
<use x="50.666667" y="428.502306" xlink:href="#b"/>
<use x="61.802198" y="428.502306" xlink:href="#b"/>
<use x="76.649573" y="428.502306" xlink:href="#b"/>
<use x="118.717135" y="295.175335" xlink:href="#b"/>
<use x="173.157509" y="428.502306" xlink:href="#b"/>
<use x="206.564103" y="428.502306" xlink:href="#b"/>
<use x="95.208791" y="428.502306" xlink:href="#b"/>
<use x="117.479853" y="428.502306" xlink:href="#b"/>
<use x="143.462759" y="428.502306" xlink:href="#b"/>
<use x="243.68254" y="428.502306" xlink:href="#b"/>
<use x="1064" y="428.502306" xlink:href="#b"/>
</g>
<g clip-path="url(#a)">
<defs>
<path id="an" d="m9.8125 72.906h46.094v-8.3125h-36.234v-21.578h34.719v-8.2969h-34.719v-26.422h37.109v-8.2969h-46.969z"/>
</defs>
<g transform="translate(45.452 562.76) scale(.1 -.1)">
<use xlink:href="#an"/>
<use x="63.183594" xlink:href="#i"/>
</g>
</g>
<g clip-path="url(#a)">
<defs>
<path id="q" d="m45.406 46.391v29.594h8.9844v-75.984h-8.9844v8.2031q-2.8281-4.875-7.1562-7.25-4.3125-2.375-10.375-2.375-9.9062 0-16.141 7.9062-6.2188 7.9219-6.2188 20.812t6.2188 20.797q6.2344 7.9062 16.141 7.9062 6.0625 0 10.375-2.375 4.3281-2.3594 7.1562-7.2344zm-30.609-19.094q0-9.9062 4.0781-15.547t11.203-5.6406 11.219 5.6406q4.1094 5.6406 4.1094 15.547t-4.1094 15.547q-4.0938 5.6406-11.219 5.6406t-11.203-5.6406-4.0781-15.547z"/>
</defs>
<g transform="translate(49.292 562.76) scale(.1 -.1)">
<use xlink:href="#h"/>
<use x="97.412109" xlink:href="#f"/>
<use x="125.195312" xlink:href="#d"/>
<use x="186.71875" xlink:href="#q"/>
</g>
</g>
<g clip-path="url(#a)">
<defs>
<path id="n" d="m44.281 53.078v-8.5q-3.7969 1.9531-7.9062 2.9219-4.0938 0.98438-8.5 0.98438-6.6875 0-10.031-2.0469t-3.3438-6.1562q0-3.125 2.3906-4.9062t9.625-3.3906l3.0781-0.6875q9.5625-2.0469 13.594-5.7812t4.0312-10.422q0-7.625-6.0312-12.078-6.0312-4.4375-16.578-4.4375-4.3906 0-9.1562 0.85938t-10.031 2.5625v9.2812q4.9844-2.5938 9.8125-3.8906 4.8281-1.2812 9.5781-1.2812 6.3438 0 9.75 2.1719 3.4219 2.1719 3.4219 6.125 0 3.6562-2.4688 5.6094-2.4531 1.9531-10.812 3.7656l-3.125 0.73438q-8.3438 1.75-12.062 5.3906-3.7031 3.6406-3.7031 9.9844 0 7.7188 5.4688 11.906 5.4688 4.2031 15.531 4.2031 4.9688 0 9.3594-0.73438 4.4062-0.71875 8.1094-2.1875z"/>
<path id="t" d="m48.688 27.297q0 9.9062-4.0781 15.547t-11.203 5.6406q-7.1406 0-11.219-5.6406t-4.0781-15.547 4.0781-15.547 11.219-5.6406q7.125 0 11.203 5.6406t4.0781 15.547zm-30.578 19.094q2.8438 4.875 7.1562 7.2344 4.3281 2.375 10.328 2.375 9.9688 0 16.188-7.9062 6.2344-7.9062 6.2344-20.797t-6.2344-20.812q-6.2188-7.9062-16.188-7.9062-6 0-10.328 2.375-4.3125 2.375-7.1562 7.25v-8.2031h-9.0312v75.984h9.0312z"/>
<path id="y" d="m18.312 70.219v-15.531h18.5v-6.9844h-18.5v-29.688q0-6.6875 1.8281-8.5938t7.4531-1.9062h9.2188v-7.5156h-9.2188q-10.406 0-14.359 3.875-3.9531 3.8906-3.9531 14.141v29.688h-6.5938v6.9844h6.5938v15.531z"/>
</defs>
<g transform="translate(61.84 562.76) scale(.1 -.1)">
<use xlink:href="#n"/>
<use x="52.099609" xlink:href="#d"/>
<use x="113.623047" xlink:href="#j"/>
<use x="141.40625" xlink:href="#t"/>
<use x="204.882812" xlink:href="#n"/>
<use x="256.982422" xlink:href="#y"/>
</g>
</g>
<g clip-path="url(#a)">
<defs>
<path id="as" d="m2.9844 54.688h9.5156l17.094-45.891 17.094 45.891h9.5156l-20.516-54.688h-12.203z"/>
<path id="ak" d="m30.609 48.391q-7.2188 0-11.422-5.6406t-4.2031-15.453 4.1719-15.453q4.1875-5.6406 11.453-5.6406 7.1875 0 11.375 5.6562 4.2031 5.6719 4.2031 15.438 0 9.7188-4.2031 15.406-4.1875 5.6875-11.375 5.6875zm0 7.6094q11.719 0 18.406-7.625 6.7031-7.6094 6.7031-21.078 0-13.422-6.7031-21.078-6.6875-7.6406-18.406-7.6406-11.766 0-18.438 7.6406-6.6562 7.6562-6.6562 21.078 0 13.469 6.6562 21.078 6.6719 7.625 18.438 7.625z"/>
</defs>
<g transform="translate(86.021 562.76) scale(.1 -.1)">
<use xlink:href="#as"/>
<use x="59.179688" xlink:href="#ak"/>
<use x="120.361328" xlink:href="#e"/>
</g>
</g>
<g clip-path="url(#a)">
<g transform="translate(106.36 562.76) scale(.1 -.1)">
<use xlink:href="#q"/>
<use x="63.476562" xlink:href="#d"/>
<use x="125" xlink:href="#h"/>
</g>
</g>
<g clip-path="url(#a)">
<defs>
<path id="am" d="m59.516 10.406v19.578h-16.109v8.1094h25.875v-31.312q-5.7031-4.0469-12.594-6.125-6.875-2.0781-14.688-2.0781-17.094 0-26.75 9.9844-9.6406 10-9.6406 27.812 0 17.875 9.6406 27.859 9.6562 9.9844 26.75 9.9844 7.125 0 13.547-1.7656 6.4219-1.75 11.844-5.1719v-10.5q-5.4688 4.6406-11.625 6.9844t-12.938 2.3438q-13.391 0-20.109-7.4688-6.7031-7.4688-6.7031-22.266 0-14.75 6.7031-22.219 6.7188-7.4688 20.109-7.4688 5.2188 0 9.3125 0.90625 4.1094 0.90625 7.375 2.8125z"/>
<path id="z" d="m45.406 27.984q0 9.7656-4.0312 15.125-4.0156 5.375-11.297 5.375-7.2188 0-11.25-5.375-4.0312-5.3594-4.0312-15.125 0-9.7188 4.0312-15.094t11.25-5.375q7.2812 0 11.297 5.375 4.0312 5.375 4.0312 15.094zm8.9844-21.203q0-13.953-6.2031-20.766-6.1875-6.8125-18.984-6.8125-4.7344 0-8.9375 0.70312t-8.1562 2.1719v8.7344q3.9531-2.1406 7.8125-3.1562 3.8594-1.0312 7.8594-1.0312 8.8438 0 13.234 4.6094t4.3906 13.938v4.4531q-2.7812-4.8438-7.125-7.2344t-10.406-2.3906q-10.047 0-16.203 7.6562-6.1562 7.6719-6.1562 20.328 0 12.688 6.1562 20.344 6.1562 7.6719 16.203 7.6719 6.0625 0 10.406-2.3906t7.125-7.2188v8.2969h8.9844z"/>
</defs>
<g transform="translate(113.12 562.76) scale(.1 -.1)">
<use xlink:href="#am"/>
<use x="77.490234" xlink:href="#d"/>
<use x="139.013672" xlink:href="#z"/>
<use x="202.490234" xlink:href="#d"/>
<use x="264.013672" xlink:href="#e"/>
<use x="327.392578" xlink:href="#n"/>
<use x="379.492188" xlink:href="#y"/>
<use x="418.701172" xlink:href="#g"/>
<use x="479.980469" xlink:href="#e"/>
<use x="543.359375" xlink:href="#q"/>
</g>
</g>
<g clip-path="url(#a)">
<defs>
<path id="x" d="m5.5156 54.688h42.672v-8.2031l-33.781-39.312h33.781v-7.1719h-43.891v8.2031l33.797 39.312h-32.578z"/>
<path id="r" d="m8.5 21.578v33.109h8.9844v-32.766q0-7.7656 3.0156-11.656 3.0312-3.875 9.0938-3.875 7.2656 0 11.484 4.6406 4.2344 4.6406 4.2344 12.656v31h8.9844v-54.688h-8.9844v8.4062q-3.2656-4.9844-7.5938-7.4062-4.3125-2.4219-10.031-2.4219-9.4219 0-14.312 5.8594-4.875 5.8594-4.875 17.141z"/>
</defs>
<g transform="translate(167.36 562.76) scale(.1 -.1)">
<use xlink:href="#x"/>
<use x="52.490234" xlink:href="#r"/>
</g>
</g>
<g clip-path="url(#a)">
<defs>
<path id="at" d="m18.109 8.2031v-29h-9.0312v75.484h9.0312v-8.2969q2.8438 4.875 7.1562 7.2344 4.3281 2.375 10.328 2.375 9.9688 0 16.188-7.9062 6.2344-7.9062 6.2344-20.797t-6.2344-20.812q-6.2188-7.9062-16.188-7.9062-6 0-10.328 2.375-4.3125 2.375-7.1562 7.25zm30.578 19.094q0 9.9062-4.0781 15.547t-11.203 5.6406q-7.1406 0-11.219-5.6406t-4.0781-15.547 4.0781-15.547 11.219-5.6406q7.125 0 11.203 5.6406t4.0781 15.547z"/>
<path id="aa" d="m48.781 52.594v-8.4062q-3.8125 2.1094-7.6406 3.1562t-7.7344 1.0469q-8.75 0-13.594-5.5469-4.8281-5.5312-4.8281-15.547t4.8281-15.562q4.8438-5.5312 13.594-5.5312 3.9062 0 7.7344 1.0469t7.6406 3.1562v-8.3125q-3.7656-1.75-7.7969-2.625-4.0156-0.89062-8.5625-0.89062-12.359 0-19.641 7.7656-7.2656 7.7656-7.2656 20.953 0 13.375 7.3438 21.031 7.3594 7.6719 20.156 7.6719 4.1406 0 8.0938-0.85938 3.9531-0.84375 7.6719-2.5469z"/>
<path id="s" d="m54.891 33.016v-33.016h-8.9844v32.719q0 7.7656-3.0312 11.609-3.0312 3.8594-9.0781 3.8594-7.2812 0-11.484-4.6406-4.2031-4.625-4.2031-12.641v-30.906h-9.0312v75.984h9.0312v-29.797q3.2344 4.9375 7.5938 7.375 4.375 2.4375 10.094 2.4375 9.4219 0 14.25-5.8281 4.8438-5.8281 4.8438-17.156z"/>
</defs>
<g transform="translate(183.6 562.76) scale(.1 -.1)">
<use xlink:href="#n"/>
<use x="52.099609" xlink:href="#at"/>
<use x="115.576172" xlink:href="#i"/>
<use x="154.439453" xlink:href="#d"/>
<use x="215.962891" xlink:href="#aa"/>
<use x="270.943359" xlink:href="#s"/>
<use x="334.322266" xlink:href="#d"/>
<use x="395.845703" xlink:href="#e"/>
</g>
</g>
<g clip-path="url(#a)">
<defs>
<path id="aq" d="m11.719 12.406h10.297v-8.4062l-8-15.625h-6.2969l4 15.625z"/>
</defs>
<g transform="translate(242.09 562.76) scale(.1 -.1)">
<use xlink:href="#aq"/>
</g>
</g>
<g clip-path="url(#a)">
<g transform="translate(278.85 562.76) scale(.1 -.1)">
<use xlink:href="#n"/>
<use x="52.099609" xlink:href="#ak"/>
</g>
</g>
<g clip-path="url(#a)">
<g transform="translate(317.61 562.76) scale(.1 -.1)">
<use xlink:href="#q"/>
<use x="63.476562" xlink:href="#g"/>
<use x="124.755859" xlink:href="#n"/>
<use x="176.855469" xlink:href="#n"/>
</g>
</g>
<g clip-path="url(#a)">
<g transform="translate(370 562.76) scale(.1 -.1)">
<use xlink:href="#f"/>
<use x="27.783203" xlink:href="#aa"/>
<use x="82.763672" xlink:href="#s"/>
</g>
</g>
<g clip-path="url(#a)">
<g transform="translate(419.85 562.76) scale(.1 -.1)">
<use xlink:href="#f"/>
<use x="27.783203" xlink:href="#s"/>
<use x="91.162109" xlink:href="#h"/>
</g>
</g>
<g clip-path="url(#a)">
<g transform="translate(467.99 562.76) scale(.1 -.1)">
<use xlink:href="#d"/>
<use x="61.523438" xlink:href="#f"/>
<use x="89.306641" xlink:href="#e"/>
<use x="152.685547" xlink:href="#h"/>
<use x="250.097656" xlink:href="#g"/>
<use x="311.376953" xlink:href="#j"/>
</g>
</g>
<g clip-path="url(#a)">
<g transform="translate(525.33 562.76) scale(.1 -.1)">
<use xlink:href="#z"/>
<use x="63.476562" xlink:href="#j"/>
<use x="91.259766" xlink:href="#g"/>
<use x="152.539062" xlink:href="#r"/>
<use x="215.917969" xlink:href="#t"/>
<use x="279.394531" xlink:href="#y"/>
<use x="318.603516" xlink:href="#d"/>
</g>
</g>
<g clip-path="url(#a)">
<g transform="translate(594.59 562.76) scale(.1 -.1)">
<use xlink:href="#q"/>
<use x="63.476562" xlink:href="#g"/>
<use x="124.755859" xlink:href="#i"/>
<use x="165.869141" xlink:href="#f"/>
<use x="193.652344" xlink:href="#e"/>
</g>
</g>
<g clip-path="url(#a)">
<g transform="translate(668.46 562.76) scale(.1 -.1)">
<use xlink:href="#x"/>
<use x="52.490234" xlink:href="#r"/>
</g>
</g>
<g clip-path="url(#a)">
<g transform="translate(731.37 562.76) scale(.1 -.1)">
<use xlink:href="#ad"/>
<use x="53.962891" xlink:href="#d"/>
<use x="115.486328" xlink:href="#f"/>
<use x="143.269531" xlink:href="#t"/>
<use x="206.746094" xlink:href="#d"/>
</g>
</g>
<g clip-path="url(#a)">
<g transform="translate(803.35 562.76) scale(.1 -.1)">
<use xlink:href="#z"/>
<use x="63.476562" xlink:href="#d"/>
<use x="125" xlink:href="#s"/>
<use x="188.378906" xlink:href="#d"/>
<use x="249.902344" xlink:href="#e"/>
</g>
</g>
<g clip-path="url(#a)">
<g transform="translate(891.17 562.76) scale(.1 -.1)">
<use xlink:href="#x"/>
<use x="52.490234" xlink:href="#r"/>
</g>
</g>
<g clip-path="url(#a)">
<defs>
<path id="ar" d="m8.5 21.578v33.109h8.9844v-32.766q0-7.7656 3.0156-11.656 3.0312-3.875 9.0938-3.875 7.2656 0 11.484 4.6406 4.2344 4.6406 4.2344 12.656v31h8.9844v-54.688h-8.9844v8.4062q-3.2656-4.9844-7.5938-7.4062-4.3125-2.4219-10.031-2.4219-9.4219 0-14.312 5.8594-4.875 5.8594-4.875 17.141zm22.609 34.422m4.4844 19.781h9.9062v-9.8594h-9.9062zm-19.094 0h9.9062v-9.8594h-9.9062z"/>
</defs>
<g transform="translate(959.13 562.76) scale(.1 -.1)">
<use xlink:href="#h"/>
<use x="97.412109" xlink:href="#ar"/>
<use x="160.791016" xlink:href="#n"/>
<use x="212.890625" xlink:href="#n"/>
<use x="264.990234" xlink:href="#d"/>
<use x="326.513672" xlink:href="#e"/>
</g>
</g>
<g clip-path="url(#a)">
<defs>
<path id="k" d="m10.688 12.406h10.312v-12.406h-10.312z"/>
</defs>
<g transform="translate(1062.4 562.76) scale(.1 -.1)">
<use xlink:href="#k"/>
</g>
</g>
<g clip-path="url(#a)">
<defs>
<path id="c" d="m12.406 8.2969h16.109v55.625l-17.531-3.5156v8.9844l17.438 3.5156h9.8594v-64.609h16.109v-8.2969h-41.984z"/>
</defs>
<g transform="translate(328.56 29.426) scale(.1 -.1)">
<use xlink:href="#c"/>
<use x="63.623047" xlink:href="#k"/>
<use x="95.410156" xlink:href="#c"/>
</g>
</g>
<g clip-path="url(#a)">
<defs>
<path id="m" d="m19.188 8.2969h34.422v-8.2969h-46.281v8.2969q5.6094 5.8125 15.297 15.594 9.7031 9.7969 12.188 12.641 4.7344 5.3125 6.6094 9 1.8906 3.6875 1.8906 7.25 0 5.8125-4.0781 9.4688-4.0781 3.6719-10.625 3.6719-4.6406 0-9.7969-1.6094-5.1406-1.6094-11-4.8906v9.9688q5.9531 2.3906 11.125 3.6094 5.1875 1.2188 9.4844 1.2188 11.328 0 18.062-5.6719 6.7344-5.6562 6.7344-15.125 0-4.5-1.6875-8.5312-1.6719-4.0156-6.125-9.4844-1.2188-1.4219-7.7656-8.1875-6.5312-6.7656-18.453-18.922z"/>
</defs>
<g transform="translate(106.64 163.91) scale(.1 -.1)">
<use xlink:href="#c"/>
<use x="63.623047" xlink:href="#k"/>
<use x="95.410156" xlink:href="#m"/>
</g>
</g>
<g clip-path="url(#a)">
<defs>
<path id="w" d="m40.578 39.312q7.0781-1.5156 11.047-6.3125 3.9844-4.7812 3.9844-11.812 0-10.781-7.4219-16.703-7.4219-5.9062-21.094-5.9062-4.5781 0-9.4375 0.90625t-10.031 2.7188v9.5156q4.0938-2.3906 8.9688-3.6094 4.8906-1.2188 10.219-1.2188 9.2656 0 14.125 3.6562t4.8594 10.641q0 6.4531-4.5156 10.078-4.5156 3.6406-12.562 3.6406h-8.5v8.1094h8.8906q7.2656 0 11.125 2.9062t3.8594 8.375q0 5.6094-3.9844 8.6094-3.9688 3.0156-11.391 3.0156-4.0625 0-8.7031-0.89062-4.6406-0.875-10.203-2.7188v8.7812q5.625 1.5625 10.531 2.3438t9.25 0.78125q11.234 0 17.766-5.1094 6.5469-5.0938 6.5469-13.781 0-6.0625-3.4688-10.234t-9.8594-5.7812z"/>
</defs>
<g transform="translate(298.83 431.26) scale(.1 -.1)">
<use xlink:href="#c"/>
<use x="63.623047" xlink:href="#k"/>
<use x="95.410156" xlink:href="#w"/>
</g>
</g>
<g clip-path="url(#a)">
<defs>
<path id="v" d="m37.797 64.312-24.906-38.922h24.906zm-2.5938 8.5938h12.406v-47.516h10.406v-8.2031h-10.406v-17.188h-9.8125v17.188h-32.906v9.5156z"/>
</defs>
<g transform="translate(673.04 297.93) scale(.1 -.1)">
<use xlink:href="#c"/>
<use x="63.623047" xlink:href="#k"/>
<use x="95.410156" xlink:href="#v"/>
</g>
</g>
<g clip-path="url(#a)">
<defs>
<path id="ah" d="m8.2031 72.906h46.875v-4.2031l-26.469-68.703h-10.297l24.906 64.594h-35.016z"/>
</defs>
<g transform="translate(369.36 431.26) scale(.1 -.1)">
<use xlink:href="#c"/>
<use x="63.623047" xlink:href="#k"/>
<use x="95.410156" xlink:href="#ah"/>
</g>
</g>
<g clip-path="url(#a)">
<defs>
<path id="ag" d="m31.781 34.625q-7.0312 0-11.062-3.7656-4.0156-3.7656-4.0156-10.344 0-6.5938 4.0156-10.359 4.0312-3.7656 11.062-3.7656t11.078 3.7812q4.0625 3.7969 4.0625 10.344 0 6.5781-4.0312 10.344-4.0156 3.7656-11.109 3.7656zm-9.8594 4.1875q-6.3438 1.5625-9.8906 5.9062-3.5312 4.3594-3.5312 10.609 0 8.7344 6.2188 13.812 6.2344 5.0781 17.062 5.0781 10.891 0 17.094-5.0781t6.2031-13.812q0-6.25-3.5469-10.609-3.5312-4.3438-9.8281-5.9062 7.125-1.6562 11.094-6.5 3.9844-4.8281 3.9844-11.797 0-10.609-6.4688-16.281-6.4688-5.6562-18.531-5.6562-12.047 0-18.531 5.6562-6.4688 5.6719-6.4688 16.281 0 6.9688 4 11.797 4.0156 4.8438 11.141 6.5zm-3.6094 15.578q0-5.6562 3.5312-8.8281 3.5469-3.1719 9.9375-3.1719 6.3594 0 9.9375 3.1719 3.5938 3.1719 3.5938 8.8281 0 5.6719-3.5938 8.8438-3.5781 3.1719-9.9375 3.1719-6.3906 0-9.9375-3.1719-3.5312-3.1719-3.5312-8.8438z"/>
</defs>
<g transform="translate(421.32 431.26) scale(.1 -.1)">
<use xlink:href="#c"/>
<use x="63.623047" xlink:href="#k"/>
<use x="95.410156" xlink:href="#ag"/>
</g>
</g>
<g clip-path="url(#a)">
<defs>
<path id="af" d="m10.984 1.5156v8.9844q3.7188-1.7656 7.5156-2.6875 3.8125-0.92188 7.4844-0.92188 9.7656 0 14.906 6.5625 5.1562 6.5625 5.8906 19.953-2.8281-4.2031-7.1875-6.4531-4.3438-2.25-9.6094-2.25-10.938 0-17.312 6.6094-6.375 6.625-6.375 18.109 0 11.219 6.6406 18 6.6406 6.7969 17.672 6.7969 12.656 0 19.312-9.7031 6.6719-9.6875 6.6719-28.141 0-17.234-8.1875-27.516-8.1719-10.281-21.984-10.281-3.7188 0-7.5312 0.73438-3.7969 0.73438-7.9062 2.2031zm19.625 30.906q6.6406 0 10.516 4.5312 3.8906 4.5469 3.8906 12.469 0 7.8594-3.8906 12.422-3.875 4.5625-10.516 4.5625t-10.516-4.5625-3.875-12.422q0-7.9219 3.875-12.469 3.875-4.5312 10.516-4.5312z"/>
</defs>
<g transform="translate(477 431.26) scale(.1 -.1)">
<use xlink:href="#c"/>
<use x="63.623047" xlink:href="#k"/>
<use x="95.410156" xlink:href="#af"/>
</g>
</g>
<g clip-path="url(#a)">
<defs>
<path id="aj" d="m31.781 66.406q-7.6094 0-11.453-7.5-3.8281-7.4844-3.8281-22.531 0-14.984 3.8281-22.484 3.8438-7.5 11.453-7.5 7.6719 0 11.5 7.5 3.8438 7.5 3.8438 22.484 0 15.047-3.8438 22.531-3.8281 7.5-11.5 7.5zm0 7.8125q12.266 0 18.734-9.7031 6.4688-9.6875 6.4688-28.141 0-18.406-6.4688-28.109-6.4688-9.6875-18.734-9.6875-12.25 0-18.719 9.6875-6.4688 9.7031-6.4688 28.109 0 18.453 6.4688 28.141 6.4688 9.7031 18.719 9.7031z"/>
</defs>
<g transform="translate(533.21 431.26) scale(.1 -.1)">
<use xlink:href="#c"/>
<use x="63.623047" xlink:href="#k"/>
<use x="95.410156" xlink:href="#c"/>
<use x="159.033203" xlink:href="#aj"/>
</g>
</g>
<g clip-path="url(#a)">
<g transform="translate(596.31 431.26) scale(.1 -.1)">
<use xlink:href="#c"/>
<use x="63.623047" xlink:href="#k"/>
<use x="95.410156" xlink:href="#c"/>
<use x="159.033203" xlink:href="#c"/>
</g>
</g>
<g clip-path="url(#a)">
<g transform="translate(734.89 431.26) scale(.1 -.1)">
<use xlink:href="#c"/>
<use x="63.623047" xlink:href="#k"/>
<use x="95.410156" xlink:href="#c"/>
<use x="159.033203" xlink:href="#m"/>
</g>
</g>
<g clip-path="url(#a)">
<g transform="translate(885.83 431.26) scale(.1 -.1)">
<use xlink:href="#c"/>
<use x="63.623047" xlink:href="#k"/>
<use x="95.410156" xlink:href="#c"/>
<use x="159.033203" xlink:href="#w"/>
</g>
</g>
<g clip-path="url(#a)">
<g transform="translate(967.49 431.26) scale(.1 -.1)">
<use xlink:href="#c"/>
<use x="63.623047" xlink:href="#k"/>
<use x="95.410156" xlink:href="#c"/>
<use x="159.033203" xlink:href="#v"/>
</g>
</g>
<g clip-path="url(#a)">
<defs>
<path id="ai" d="m10.797 72.906h38.719v-8.3125h-29.688v-17.859q2.1406 0.73438 4.2812 1.0938 2.1562 0.35938 4.3125 0.35938 12.203 0 19.328-6.6875 7.1406-6.6875 7.1406-18.109 0-11.766-7.3281-18.297-7.3281-6.5156-20.656-6.5156-4.5938 0-9.3594 0.78125-4.75 0.78125-9.8281 2.3438v9.9219q4.3906-2.3906 9.0781-3.5625t9.9062-1.1719q8.4531 0 13.375 4.4375 4.9375 4.4375 4.9375 12.062 0 7.6094-4.9375 12.047-4.9219 4.4531-13.375 4.4531-3.9531 0-7.8906-0.875-3.9219-0.875-8.0156-2.7344z"/>
</defs>
<g transform="translate(39.534 431.26) scale(.1 -.1)">
<use xlink:href="#c"/>
<use x="63.623047" xlink:href="#k"/>
<use x="95.410156" xlink:href="#c"/>
<use x="159.033203" xlink:href="#ai"/>
</g>
</g>
<g clip-path="url(#a)">
<defs>
<path id="ap" d="m33.016 40.375q-6.6406 0-10.531-4.5469-3.875-4.5312-3.875-12.438 0-7.8594 3.875-12.438 3.8906-4.5625 10.531-4.5625t10.516 4.5625q3.875 4.5781 3.875 12.438 0 7.9062-3.875 12.438-3.875 4.5469-10.516 4.5469zm19.578 30.922v-8.9844q-3.7188 1.75-7.5 2.6719-3.7812 0.9375-7.5 0.9375-9.7656 0-14.922-6.5938-5.1406-6.5938-5.875-19.922 2.875 4.25 7.2188 6.5156 4.3594 2.2656 9.5781 2.2656 10.984 0 17.359-6.6719 6.375-6.6562 6.375-18.125 0-11.234-6.6406-18.031-6.6406-6.7812-17.672-6.7812-12.656 0-19.344 9.6875-6.6875 9.7031-6.6875 28.109 0 17.281 8.2031 27.562t22.016 10.281q3.7188 0 7.5-0.73438t7.8906-2.1875z"/>
</defs>
<g transform="translate(50.669 431.26) scale(.1 -.1)">
<use xlink:href="#c"/>
<use x="63.623047" xlink:href="#k"/>
<use x="95.410156" xlink:href="#c"/>
<use x="159.033203" xlink:href="#ap"/>
</g>
</g>
<g clip-path="url(#a)">
<g transform="translate(65.517 431.26) scale(.1 -.1)">
<use xlink:href="#c"/>
<use x="63.623047" xlink:href="#k"/>
<use x="95.410156" xlink:href="#c"/>
<use x="159.033203" xlink:href="#ah"/>
</g>
</g>
<g clip-path="url(#a)">
<g transform="translate(107.58 297.93) scale(.1 -.1)">
<use xlink:href="#c"/>
<use x="63.623047" xlink:href="#k"/>
<use x="95.410156" xlink:href="#c"/>
<use x="159.033203" xlink:href="#ag"/>
</g>
</g>
<g clip-path="url(#a)">
<g transform="translate(162.02 431.26) scale(.1 -.1)">
<use xlink:href="#c"/>
<use x="63.623047" xlink:href="#k"/>
<use x="95.410156" xlink:href="#c"/>
<use x="159.033203" xlink:href="#af"/>
</g>
</g>
<g clip-path="url(#a)">
<g transform="translate(195.43 431.26) scale(.1 -.1)">
<use xlink:href="#c"/>
<use x="63.623047" xlink:href="#k"/>
<use x="95.410156" xlink:href="#m"/>
<use x="159.033203" xlink:href="#aj"/>
</g>
</g>
<g clip-path="url(#a)">
<g transform="translate(84.076 431.26) scale(.1 -.1)">
<use xlink:href="#c"/>
<use x="63.623047" xlink:href="#k"/>
<use x="95.410156" xlink:href="#m"/>
<use x="159.033203" xlink:href="#c"/>
</g>
</g>
<g clip-path="url(#a)">
<g transform="translate(106.35 431.26) scale(.1 -.1)">
<use xlink:href="#c"/>
<use x="63.623047" xlink:href="#k"/>
<use x="95.410156" xlink:href="#m"/>
<use x="159.033203" xlink:href="#m"/>
</g>
</g>
<g clip-path="url(#a)">
<g transform="translate(132.33 431.26) scale(.1 -.1)">
<use xlink:href="#c"/>
<use x="63.623047" xlink:href="#k"/>
<use x="95.410156" xlink:href="#m"/>
<use x="159.033203" xlink:href="#w"/>
</g>
</g>
<g clip-path="url(#a)">
<g transform="translate(232.55 431.26) scale(.1 -.1)">
<use xlink:href="#c"/>
<use x="63.623047" xlink:href="#k"/>
<use x="95.410156" xlink:href="#m"/>
<use x="159.033203" xlink:href="#v"/>
</g>
</g>
<g clip-path="url(#a)">
<g transform="translate(1052.9 431.26) scale(.1 -.1)">
<use xlink:href="#c"/>
<use x="63.623047" xlink:href="#k"/>
<use x="95.410156" xlink:href="#m"/>
<use x="159.033203" xlink:href="#ai"/>
</g>
</g>
<defs>
<clipPath id="a">
<rect width="1114.7" height="586.67"/>
</clipPath>
</defs>
</svg>
