<?xml version="1.0" encoding="UTF-8"?>
<!DOCTYPE svg  PUBLIC '-//W3C//DTD SVG 1.1//EN'  'http://www.w3.org/Graphics/SVG/1.1/DTD/svg11.dtd'>
<svg width="1216pt" height="640pt" version="1.1" viewBox="0 0 1216 640" xmlns="http://www.w3.org/2000/svg" xmlns:xlink="http://www.w3.org/1999/xlink">
<defs>
<style type="text/css">*{stroke-linecap:butt;stroke-linejoin:round;}</style>
</defs>
<path d="m0 640h1216v-640h-1216z" fill="#fff"/>
<g fill="none" stroke="#000">
<path d="m346.56 29.091-291.29 486.57" clip-path="url(#a)"/>
<path d="m346.56 29.091-140.52 195.51" clip-path="url(#a)"/>
<path d="m346.56 29.091 420.99 97.853" clip-path="url(#a)"/>
<path d="m346.56 29.091 10.821 486.57" clip-path="url(#a)"/>
<path d="m55.273 515.66v95.248" clip-path="url(#a)"/>
<path d="m206.04 224.6-110.72 97.41" clip-path="url(#a)"/>
<path d="m206.04 224.6-22.029 194.49" clip-path="url(#a)"/>
<path d="m206.04 224.6 67.231 291.06" clip-path="url(#a)"/>
<path d="m206.04 224.6 65.515 291.06" clip-path="url(#a)"/>
<path d="m767.55 126.94-362.11 388.72" clip-path="url(#a)"/>
<path d="m767.55 126.94-268.55 292.14" clip-path="url(#a)"/>
<path d="m767.55 126.94-69.863 97.656" clip-path="url(#a)"/>
<path d="m767.55 126.94 307.35 388.72" clip-path="url(#a)"/>
<path d="m767.55 126.94 393.17 388.72" clip-path="url(#a)"/>
<path d="m405.45 515.66v95.248" clip-path="url(#a)"/>
<path d="m499 419.09-42.055 96.573" clip-path="url(#a)"/>
<path d="m499 419.09 42.055 96.573" clip-path="url(#a)"/>
<path d="m697.69 224.6-33.043 194.49" clip-path="url(#a)"/>
<path d="m697.69 224.6 189.68 97.41" clip-path="url(#a)"/>
<path d="m697.69 224.6-156.63 291.06" clip-path="url(#a)" stroke-dasharray="3.7,1.6"/>
<path d="m1074.9 515.66v95.248" clip-path="url(#a)"/>
<path d="m664.65 419.09-32.614 96.573" clip-path="url(#a)"/>
<path d="m664.65 419.09 32.614 96.573" clip-path="url(#a)"/>
<path d="m887.37 322.01-121.45 193.65" clip-path="url(#a)"/>
<path d="m887.37 322.01-49.351 193.65" clip-path="url(#a)"/>
<path d="m887.37 322.01 65.658 97.079" clip-path="url(#a)"/>
<path d="m887.37 322.01 105.14 193.65" clip-path="url(#a)"/>
<path d="m765.92 515.66v95.248" clip-path="url(#a)"/>
<path d="m838.02 515.66v95.248" clip-path="url(#a)"/>
<path d="m953.03 419.09 39.481 96.573" clip-path="url(#a)" stroke-dasharray="3.7,1.6"/>
<path d="m953.03 419.09-39.481 96.573" clip-path="url(#a)"/>
<path d="m992.51 515.66v95.248" clip-path="url(#a)"/>
<path d="m913.54 515.66v95.248" clip-path="url(#a)"/>
<path d="m632.03 515.66v95.248" clip-path="url(#a)"/>
<path d="m697.26 515.66v95.248" clip-path="url(#a)"/>
<path d="m456.94 515.66v95.248" clip-path="url(#a)"/>
<path d="m541.05 515.66-29.181 95.248" clip-path="url(#a)"/>
<path d="m541.05 515.66 29.181 95.248" clip-path="url(#a)"/>
<path d="m95.325 322.01-22.887 97.079" clip-path="url(#a)"/>
<path d="m95.325 322.01 22.887 97.079" clip-path="url(#a)"/>
<path d="m184.01 419.09-15.449 96.573" clip-path="url(#a)"/>
<path d="m184.01 419.09 15.449 96.573" clip-path="url(#a)"/>
<path d="m273.27 515.66-39.481 95.248" clip-path="url(#a)"/>
<path d="m273.27 515.66 39.481 95.248" clip-path="url(#a)"/>
<path d="m271.56 515.66v95.248" clip-path="url(#a)"/>
<path d="m168.56 515.66v95.248" clip-path="url(#a)"/>
<path d="m199.46 515.66v95.248" clip-path="url(#a)"/>
<path d="m72.438 419.09-6.8662 96.573" clip-path="url(#a)"/>
<path d="m72.438 419.09 6.8662 96.573" clip-path="url(#a)"/>
<path d="m118.21 419.09-21.743 96.573" clip-path="url(#a)"/>
<path d="m118.21 419.09-1.1444 96.573" clip-path="url(#a)"/>
<path d="m118.21 419.09 22.887 96.573" clip-path="url(#a)"/>
<path d="m96.47 515.66v95.248" clip-path="url(#a)"/>
<path d="m117.07 515.66v95.248" clip-path="url(#a)"/>
<path d="m141.1 515.66v95.248" clip-path="url(#a)"/>
<path d="m65.572 515.66v95.248" clip-path="url(#a)"/>
<path d="m79.304 515.66v95.248" clip-path="url(#a)"/>
<path d="m357.38 515.66v95.248" clip-path="url(#a)"/>
<path d="m1160.7 515.66v95.248" clip-path="url(#a)"/>
</g>
<path d="m205.15 277.51 2.2896-3.8245q1.2328-2.0592-0.82644-3.292l-6.6431-3.9769q-2.0592-1.2328-3.292 0.82644l-2.2896 3.8245q-1.2328 2.0592 0.82644 3.292l6.6431 3.9769q2.0592 1.2328 3.292-0.82644z" clip-path="url(#a)" fill="#fff" stroke="#fff"/>
<g clip-path="url(#a)">
<defs>
<path id="ak" d="m9.8125 72.906h9.8594v-64.609h35.5v-8.2969h-45.359z"/>
</defs>
<g transform="translate(201.67 275.42) rotate(-59.093) scale(.08 -.08)">
<use xlink:href="#ak"/>
</g>
</g>
<path d="m279.64 132.95 3.5113-4.8853q1.4007-1.9488-0.54813-3.3496l-6.2871-4.5188q-1.9488-1.4007-3.3496 0.54813l-3.5113 4.8853q-1.4007 1.9488 0.54813 3.3496l6.2871 4.5188q1.9488 1.4007 3.3496-0.54813z" clip-path="url(#a)" fill="#fff" stroke="#fff"/>
<g clip-path="url(#a)">
<defs>
<path id="ab" d="m9.8125 72.906h9.8594v-29.891h35.844v29.891h9.8594v-72.906h-9.8594v34.719h-35.844v-34.719h-9.8594z"/>
</defs>
<g transform="translate(276.34 130.58) rotate(-54.294) scale(.08 -.08)">
<use xlink:href="#ab"/>
</g>
</g>
<path d="m552.71 83.445 5.86 1.3621q2.3377 0.54336 2.881-1.7943l1.7529-7.5415q0.54336-2.3377-1.7943-2.881l-5.86-1.3621q-2.3377-0.54336-2.881 1.7943l-1.7529 7.5415q-0.54336 2.3377 1.7943 2.881z" clip-path="url(#a)" fill="#fff" stroke="#fff"/>
<g clip-path="url(#a)">
<g transform="translate(553.63 79.486) rotate(13.085) scale(.08 -.08)">
<use xlink:href="#ab"/>
</g>
</g>
<path d="m345.64 269.59 0.13018 5.8536q0.053363 2.3994 2.4528 2.346l7.7406-0.17215q2.3994-0.053363 2.346-2.4528l-0.13018-5.8536q-0.053364-2.3994-2.4528-2.346l-7.7406 0.17215q-2.3994 0.053363-2.346 2.4528z" clip-path="url(#a)" fill="#fff" stroke="#fff"/>
<g clip-path="url(#a)">
<defs>
<path id="z" d="m8.6875 72.906h9.9219v-44.297q0-11.719 4.2344-16.875 4.25-5.1406 13.781-5.1406 9.4688 0 13.719 5.1406 4.25 5.1562 4.25 16.875v44.297h9.9062v-45.516q0-14.25-7.0625-21.531-7.0469-7.2812-20.812-7.2812-13.828 0-20.891 7.2812-7.0469 7.2812-7.0469 21.531z"/>
</defs>
<g transform="translate(349.7 269.5) rotate(88.726) scale(.08 -.08)">
<use xlink:href="#z"/>
</g>
</g>
<path d="m49.001 546.38v33.808q0 2.4 2.4 2.4h7.7425q2.4 0 2.4-2.4v-33.808q0-2.4-2.4-2.4h-7.7425q-2.4 0-2.4 2.4z" clip-path="url(#a)" fill="#fff" stroke="#fff"/>
<g clip-path="url(#a)">
<defs>
<path id="l" d="m-0.29688 72.906h61.672v-8.3125h-25.875v-64.594h-9.9062v64.594h-25.891z"/>
<path id="d" d="m56.203 29.594v-4.3906h-41.312q0.59375-9.2812 5.5938-14.141t13.938-4.8594q5.1719 0 10.031 1.2656t9.6562 3.8125v-8.5q-4.8438-2.0469-9.9219-3.125t-10.297-1.0781q-13.094 0-20.734 7.6094-7.6406 7.625-7.6406 20.625 0 13.422 7.25 21.297 7.25 7.8906 19.562 7.8906 11.031 0 17.453-7.1094 6.4219-7.0938 6.4219-19.297zm-8.9844 2.6406q-0.09375 7.3594-4.125 11.75-4.0312 4.4062-10.672 4.4062-7.5156 0-12.031-4.25t-5.2031-11.969z"/>
<path id="i" d="m41.109 46.297q-1.5156 0.875-3.2969 1.2812-1.7812 0.42188-3.9219 0.42188-7.625 0-11.703-4.9531t-4.0781-14.234v-28.812h-9.0312v54.688h9.0312v-8.5q2.8438 4.9844 7.375 7.3906 4.5469 2.4219 11.047 2.4219 0.92188 0 2.0469-0.125 1.125-0.10938 2.4844-0.35938z"/>
<path id="k" d="m52 44.188q3.375 6.0625 8.0625 8.9375t11.031 2.875q8.5469 0 13.188-5.9844 4.6406-5.9688 4.6406-17v-33.016h-9.0312v32.719q0 7.8594-2.7969 11.656-2.7812 3.8125-8.4844 3.8125-6.9844 0-11.047-4.6406-4.0469-4.625-4.0469-12.641v-30.906h-9.0312v32.719q0 7.9062-2.7812 11.688t-8.5938 3.7812q-6.8906 0-10.953-4.6562-4.0469-4.6562-4.0469-12.625v-30.906h-9.0312v54.688h9.0312v-8.5q3.0781 5.0312 7.375 7.4219t10.203 2.3906q5.9688 0 10.141-3.0312 4.1719-3.0156 6.1719-8.7812z"/>
<path id="g" d="m9.4219 54.688h8.9844v-54.688h-8.9844zm0 21.297h8.9844v-11.391h-8.9844z"/>
<path id="e" d="m54.891 33.016v-33.016h-8.9844v32.719q0 7.7656-3.0312 11.609-3.0312 3.8594-9.0781 3.8594-7.2812 0-11.484-4.6406-4.2031-4.625-4.2031-12.641v-30.906h-9.0312v54.688h9.0312v-8.5q3.2344 4.9375 7.5938 7.375 4.375 2.4375 10.094 2.4375 9.4219 0 14.25-5.8281 4.8438-5.8281 4.8438-17.156z"/>
<path id="h" d="m34.281 27.484q-10.891 0-15.094-2.4844t-4.2031-8.5q0-4.7812 3.1562-7.5938 3.1562-2.7969 8.5625-2.7969 7.4844 0 12 5.2969t4.5156 14.078v2zm17.922 3.7188v-31.203h-8.9844v8.2969q-3.0781-4.9688-7.6719-7.3438t-11.234-2.375q-8.3906 0-13.359 4.7188-4.9531 4.7188-4.9531 12.625 0 9.2188 6.1719 13.906 6.1875 4.6875 18.438 4.6875h12.609v0.89062q0 6.2031-4.0781 9.5938t-11.453 3.3906q-4.6875 0-9.1406-1.125-4.4375-1.125-8.5312-3.375v8.3125q4.9219 1.9062 9.5625 2.8438 4.6406 0.95312 9.0312 0.95312 11.875 0 17.734-6.1562 5.8594-6.1406 5.8594-18.641z"/>
<path id="j" d="m9.4219 75.984h8.9844v-75.984h-8.9844z"/>
</defs>
<g transform="translate(53.065 546.38) rotate(90) scale(.08 -.08)">
<use xlink:href="#l"/>
<use x="44.083984" xlink:href="#d"/>
<use x="105.607422" xlink:href="#i"/>
<use x="144.970703" xlink:href="#k"/>
<use x="242.382812" xlink:href="#g"/>
<use x="270.166016" xlink:href="#e"/>
<use x="333.544922" xlink:href="#h"/>
<use x="394.824219" xlink:href="#j"/>
</g>
</g>
<path d="m152.77 279.82 4.1087-3.6148q1.8019-1.5853 0.21658-3.3872l-5.1143-5.813q-1.5853-1.8019-3.3872-0.21658l-4.1087 3.6148q-1.8019 1.5853-0.21658 3.3872l5.1143 5.813q1.5853 1.8019 3.3872 0.21658z" clip-path="url(#a)" fill="#fff" stroke="#fff"/>
<g clip-path="url(#a)">
<defs>
<path id="o" d="m34.188 63.188-13.391-36.281h26.812zm-5.5781 9.7188h11.188l27.781-72.906h-10.25l-6.6406 18.703h-32.859l-6.6406-18.703h-10.406z"/>
</defs>
<g transform="translate(150.09 276.77) rotate(-41.342) scale(.08 -.08)">
<use xlink:href="#o"/>
</g>
</g>
<path d="m200.95 325.27 0.61591-5.4377q0.27011-2.3848-2.1146-2.6549l-7.6933-0.87139q-2.3848-0.27011-2.6549 2.1146l-0.61591 5.4377q-0.27011 2.3848 2.1146 2.6549l7.6933 0.87139q2.3848 0.27011 2.6549-2.1146z" clip-path="url(#a)" fill="#fff" stroke="#fff"/>
<g clip-path="url(#a)">
<g transform="translate(196.91 324.81) rotate(-83.538) scale(.08 -.08)">
<use xlink:href="#o"/>
</g>
</g>
<path d="m233.01 369.19 1.0856 4.7q0.54015 2.3384 2.8786 1.7983l7.5439-1.7425q2.3384-0.54015 1.7983-2.8786l-1.0856-4.7q-0.54015-2.3384-2.8786-1.7983l-7.5439 1.7425q-2.3384 0.54014-1.7983 2.8786z" clip-path="url(#a)" fill="#fff" stroke="#fff"/>
<g clip-path="url(#a)">
<defs>
<path id="s" d="m19.672 64.797v-27.391h12.406q6.8906 0 10.641 3.5625 3.7656 3.5625 3.7656 10.156 0 6.5469-3.7656 10.109-3.75 3.5625-10.641 3.5625zm-9.8594 8.1094h22.266q12.266 0 18.531-5.5469 6.2812-5.5469 6.2812-16.234 0-10.797-6.2812-16.312-6.2656-5.5156-18.531-5.5156h-12.406v-29.297h-9.8594z"/>
</defs>
<g transform="translate(236.96 368.28) rotate(76.994) scale(.08 -.08)">
<use xlink:href="#s"/>
</g>
</g>
<path d="m232.01 368.5 1.3527 6.0096q0.52703 2.3414 2.8684 1.8144l7.5535-1.7002q2.3414-0.52703 1.8144-2.8684l-1.3527-6.0096q-0.52703-2.3414-2.8684-1.8144l-7.5535 1.7002q-2.3414 0.52703-1.8144 2.8684z" clip-path="url(#a)" fill="#fff" stroke="#fff"/>
<g clip-path="url(#a)">
<defs>
<path id="al" d="m19.672 64.797v-56.688h11.922q15.094 0 22.094 6.8281 7 6.8438 7 21.594 0 14.641-7 21.453t-22.094 6.8125zm-9.8594 8.1094h20.266q21.188 0 31.094-8.8125 9.9219-8.8125 9.9219-27.562 0-18.859-9.9688-27.703-9.9531-8.8281-31.047-8.8281h-20.266z"/>
</defs>
<g transform="translate(235.97 367.61) rotate(77.315) scale(.08 -.08)">
<use xlink:href="#al"/>
</g>
</g>
<path d="m588.99 327.83 4.1988-4.5073q1.6359-1.7561-0.12023-3.392l-5.6653-5.2774q-1.7561-1.6359-3.392 0.12023l-4.1988 4.5073q-1.6359 1.7561 0.12023 3.392l5.6653 5.2774q1.7561 1.6359 3.392-0.12023z" clip-path="url(#a)" fill="#fff" stroke="#fff"/>
<g clip-path="url(#a)">
<g transform="translate(586.02 325.06) rotate(-47.03) scale(.08 -.08)">
<use xlink:href="#al"/>
</g>
</g>
<path d="m636.04 279.27 3.7035-4.0289q1.6242-1.7669-0.14268-3.3911l-5.7001-5.2398q-1.7669-1.6242-3.3911 0.14268l-3.7035 4.0289q-1.6242 1.7669 0.14268 3.3911l5.7001 5.2398q1.7669 1.6242 3.3911-0.14268z" clip-path="url(#a)" fill="#fff" stroke="#fff"/>
<g clip-path="url(#a)">
<g transform="translate(633.05 276.52) rotate(-47.409) scale(.08 -.08)">
<use xlink:href="#o"/>
</g>
</g>
<path d="m736.13 181.65 3.1841-4.4508q1.3964-1.9519-0.55552-3.3483l-6.297-4.5049q-1.9519-1.3964-3.3483 0.55552l-3.1841 4.4508q-1.3964 1.9519 0.55552 3.3483l6.297 4.5049q1.9519 1.3964 3.3483-0.55552z" clip-path="url(#a)" fill="#fff" stroke="#fff"/>
<g clip-path="url(#a)">
<g transform="translate(732.82 179.28) rotate(-54.42) scale(.08 -.08)">
<use xlink:href="#o"/>
</g>
</g>
<path d="m914.81 323.3 2.9918 3.7839q1.4885 1.8826 3.3712 0.39409l6.0734-4.8021q1.8826-1.4885 0.39409-3.3712l-2.9918-3.7839q-1.4885-1.8826-3.3712-0.39409l-6.0734 4.8021q-1.8826 1.4885-0.39409 3.3712z" clip-path="url(#a)" fill="#fff" stroke="#fff"/>
<g clip-path="url(#a)">
<g transform="translate(918 320.78) rotate(51.668) scale(.08 -.08)">
<use xlink:href="#s"/>
</g>
</g>
<path d="m957.65 323.7 4.1636 4.1164q1.7067 1.6874 3.3941-0.019346l5.4435-5.5059q1.6874-1.7067-0.019346-3.3941l-4.1636-4.1164q-1.7067-1.6874-3.3941 0.019347l-5.4435 5.5059q-1.6874 1.7067 0.019346 3.3941z" clip-path="url(#a)" fill="#fff" stroke="#fff"/>
<g clip-path="url(#a)">
<g transform="translate(960.51 320.81) rotate(44.673) scale(.08 -.08)">
<use xlink:href="#z"/>
</g>
</g>
<path d="m399.18 546.38v33.808q0 2.4 2.4 2.4h7.7425q2.4 0 2.4-2.4v-33.808q0-2.4-2.4-2.4h-7.7425q-2.4 0-2.4 2.4z" clip-path="url(#a)" fill="#fff" stroke="#fff"/>
<g clip-path="url(#a)">
<g transform="translate(403.24 546.38) rotate(90) scale(.08 -.08)">
<use xlink:href="#l"/>
<use x="44.083984" xlink:href="#d"/>
<use x="105.607422" xlink:href="#i"/>
<use x="144.970703" xlink:href="#k"/>
<use x="242.382812" xlink:href="#g"/>
<use x="270.166016" xlink:href="#e"/>
<use x="333.544922" xlink:href="#h"/>
<use x="394.824219" xlink:href="#j"/>
</g>
</g>
<path d="m482.8 471.99 1.8371-4.2186q0.95823-2.2004-1.2422-3.1586l-7.0986-3.0913q-2.2004-0.95823-3.1586 1.2422l-1.8371 4.2186q-0.95823 2.2004 1.2422 3.1586l7.0986 3.0913q2.2004 0.95823 3.1586-1.2422z" clip-path="url(#a)" fill="#fff" stroke="#fff"/>
<g clip-path="url(#a)">
<defs>
<path id="t" d="m9.8125 72.906h41.891v-8.3125h-32.031v-21.484h28.906v-8.2969h-28.906v-34.812h-9.8594z"/>
</defs>
<g transform="translate(479.08 470.37) rotate(-66.468) scale(.08 -.08)">
<use xlink:href="#t"/>
</g>
</g>
<path d="m513.16 467.32 2.2304 5.1217q0.95823 2.2004 3.1586 1.2422l7.0986-3.0913q2.2004-0.95823 1.2422-3.1586l-2.2304-5.1217q-0.95823-2.2004-3.1586-1.2422l-7.0986 3.0913q-2.2004 0.95823-1.2422 3.1586z" clip-path="url(#a)" fill="#fff" stroke="#fff"/>
<g clip-path="url(#a)">
<defs>
<path id="q" d="m64.406 67.281v-10.391q-4.9844 4.6406-10.625 6.9219-5.6406 2.2969-11.984 2.2969-12.5 0-19.141-7.6406t-6.6406-22.094q0-14.406 6.6406-22.047t19.141-7.6406q6.3438 0 11.984 2.2969t10.625 6.9375v-10.312q-5.1719-3.5156-10.969-5.2812-5.7812-1.75-12.219-1.75-16.562 0-26.094 10.125-9.5156 10.141-9.5156 27.672 0 17.578 9.5156 27.703 9.5312 10.141 26.094 10.141 6.5312 0 12.312-1.7344 5.7969-1.7344 10.875-5.2031z"/>
</defs>
<g transform="translate(516.89 465.7) rotate(66.468) scale(.08 -.08)">
<use xlink:href="#q"/>
</g>
</g>
<path d="m686.95 325.27 0.80797-4.7556q0.402-2.3661-1.9641-2.7681l-7.6331-1.2969q-2.3661-0.402-2.7681 1.9641l-0.80797 4.7556q-0.402 2.3661 1.9641 2.7681l7.6331 1.2969q2.3661 0.402 2.7681-1.9641z" clip-path="url(#a)" fill="#fff" stroke="#fff"/>
<g clip-path="url(#a)">
<g transform="translate(682.94 324.59) rotate(-80.358) scale(.08 -.08)">
<use xlink:href="#s"/>
</g>
</g>
<path d="m787.23 277.63 4.8681 2.5q2.1349 1.0964 3.2313-1.0385l3.537-6.8874q1.0964-2.1349-1.0385-3.2313l-4.8681-2.5q-2.1349-1.0964-3.2313 1.0385l-3.537 6.8874q-1.0964 2.1349 1.0385 3.2313z" clip-path="url(#a)" fill="#fff" stroke="#fff"/>
<g clip-path="url(#a)">
<g transform="translate(789.09 274.02) rotate(27.183) scale(.08 -.08)">
<use xlink:href="#o"/>
</g>
</g>
<path d="m623.6 375.51 2.5933-4.819q1.1373-2.1134-0.97608-3.2507l-6.8179-3.6691q-2.1134-1.1373-3.2507 0.97608l-2.5933 4.819q-1.1373 2.1134 0.97608 3.2507l6.8179 3.6691q2.1134 1.1373 3.2507-0.97608z" clip-path="url(#a)" fill="#fff" stroke="#fff"/>
<g clip-path="url(#a)">
<g transform="translate(620.02 373.59) rotate(-61.713) scale(.08 -.08)">
<use xlink:href="#o"/>
</g>
</g>
<path d="m1068.6 546.38v33.808q0 2.4 2.4 2.4h7.7425q2.4 0 2.4-2.4v-33.808q0-2.4-2.4-2.4h-7.7425q-2.4 0-2.4 2.4z" clip-path="url(#a)" fill="#fff" stroke="#fff"/>
<g clip-path="url(#a)">
<g transform="translate(1072.7 546.38) rotate(90) scale(.08 -.08)">
<use xlink:href="#l"/>
<use x="44.083984" xlink:href="#d"/>
<use x="105.607422" xlink:href="#i"/>
<use x="144.970703" xlink:href="#k"/>
<use x="242.382812" xlink:href="#g"/>
<use x="270.166016" xlink:href="#e"/>
<use x="333.544922" xlink:href="#h"/>
<use x="394.824219" xlink:href="#j"/>
</g>
</g>
<path d="m653.54 471.56 1.4722-4.3594q0.76791-2.2738-1.5059-3.0417l-7.3355-2.4773q-2.2738-0.76791-3.0417 1.5059l-1.4722 4.3594q-0.76791 2.2738 1.5059 3.0417l7.3355 2.4773q2.2738 0.76791 3.0417-1.5059z" clip-path="url(#a)" fill="#fff" stroke="#fff"/>
<g clip-path="url(#a)">
<g transform="translate(649.69 470.26) rotate(-71.339) scale(.08 -.08)">
<use xlink:href="#t"/>
</g>
</g>
<path d="m674.12 466.74 1.7874 5.2926q0.76791 2.2738 3.0417 1.5059l7.3355-2.4773q2.2738-0.76791 1.5059-3.0417l-1.7874-5.2926q-0.76791-2.2738-3.0417-1.5059l-7.3355 2.4773q-2.2738 0.76791-1.5059 3.0417z" clip-path="url(#a)" fill="#fff" stroke="#fff"/>
<g clip-path="url(#a)">
<g transform="translate(677.97 465.44) rotate(71.339) scale(.08 -.08)">
<use xlink:href="#q"/>
</g>
</g>
<path d="m830.48 424.52 2.9534-4.7093q1.2751-2.0332-0.75813-3.3084l-6.5593-4.1136q-2.0332-1.2751-3.3084 0.75813l-2.9534 4.7093q-1.2751 2.0332 0.75813 3.3084l6.5593 4.1136q2.0332 1.2751 3.3084-0.75813z" clip-path="url(#a)" fill="#fff" stroke="#fff"/>
<g clip-path="url(#a)">
<defs>
<path id="aa" d="m44.391 34.188q3.1719-1.0781 6.1719-4.5938t6.0312-9.6719l10.016-19.922h-10.609l-9.3125 18.703q-3.625 7.3281-7.0156 9.7188t-9.25 2.3906h-10.75v-30.812h-9.8594v72.906h22.266q12.5 0 18.656-5.2344 6.1562-5.2188 6.1562-15.766 0-6.8906-3.2031-11.438-3.2031-4.5312-9.2969-6.2812zm-24.719 30.609v-25.875h12.406q7.125 0 10.766 3.2969t3.6406 9.6875-3.6406 9.6406-10.766 3.25z"/>
</defs>
<g transform="translate(827.04 422.36) rotate(-57.907) scale(.08 -.08)">
<use xlink:href="#aa"/>
</g>
</g>
<path d="m868.2 422.61 1.1363-4.4587q0.59268-2.3257-1.733-2.9183l-7.5027-1.912q-2.3257-0.59268-2.9183 1.733l-1.1363 4.4587q-0.59268 2.3257 1.733 2.9183l7.5027 1.912q2.3257 0.59268 2.9183-1.733z" clip-path="url(#a)" fill="#fff" stroke="#fff"/>
<g clip-path="url(#a)">
<g transform="translate(864.26 421.61) rotate(-75.703) scale(.08 -.08)">
<use xlink:href="#t"/>
</g>
</g>
<path d="m913.59 371.97 2.832 4.1872q1.3446 1.988 3.3326 0.64345l6.4134-4.3376q1.988-1.3446 0.64345-3.3326l-2.832-4.1872q-1.3446-1.988-3.3326-0.64345l-6.4134 4.3376q-1.988 1.3446-0.64345 3.3326z" clip-path="url(#a)" fill="#fff" stroke="#fff"/>
<g clip-path="url(#a)">
<defs>
<path id="au" d="m9.8125 72.906h46.094v-8.3125h-36.234v-21.578h34.719v-8.2969h-34.719v-26.422h37.109v-8.2969h-46.969z"/>
</defs>
<g transform="translate(916.95 369.69) rotate(55.928) scale(.08 -.08)">
<use xlink:href="#au"/>
</g>
</g>
<path d="m933.09 419.37 2.6654 4.9094q1.1451 2.1092 3.2543 0.96406l6.8043-3.6942q2.1092-1.1451 0.96406-3.2543l-2.6654-4.9094q-1.1451-2.1092-3.2543-0.96406l-6.8043 3.6942q-2.1092 1.1451-0.96406 3.2543z" clip-path="url(#a)" fill="#fff" stroke="#fff"/>
<g clip-path="url(#a)">
<g transform="translate(936.66 417.43) rotate(61.501) scale(.08 -.08)">
<use xlink:href="#q"/>
</g>
</g>
<path d="m759.65 546.38v33.808q0 2.4 2.4 2.4h7.7425q2.4 0 2.4-2.4v-33.808q0-2.4-2.4-2.4h-7.7425q-2.4 0-2.4 2.4z" clip-path="url(#a)" fill="#fff" stroke="#fff"/>
<g clip-path="url(#a)">
<g transform="translate(763.71 546.38) rotate(90) scale(.08 -.08)">
<use xlink:href="#l"/>
<use x="44.083984" xlink:href="#d"/>
<use x="105.607422" xlink:href="#i"/>
<use x="144.970703" xlink:href="#k"/>
<use x="242.382812" xlink:href="#g"/>
<use x="270.166016" xlink:href="#e"/>
<use x="333.544922" xlink:href="#h"/>
<use x="394.824219" xlink:href="#j"/>
</g>
</g>
<path d="m831.75 546.38v33.808q0 2.4 2.4 2.4h7.7425q2.4 0 2.4-2.4v-33.808q0-2.4-2.4-2.4h-7.7425q-2.4 0-2.4 2.4z" clip-path="url(#a)" fill="#fff" stroke="#fff"/>
<g clip-path="url(#a)">
<g transform="translate(835.81 546.38) rotate(90) scale(.08 -.08)">
<use xlink:href="#l"/>
<use x="44.083984" xlink:href="#d"/>
<use x="105.607422" xlink:href="#i"/>
<use x="144.970703" xlink:href="#k"/>
<use x="242.382812" xlink:href="#g"/>
<use x="270.166016" xlink:href="#e"/>
<use x="333.544922" xlink:href="#h"/>
<use x="394.824219" xlink:href="#j"/>
</g>
</g>
<path d="m965.93 467.22 2.0709 5.0655q0.9082 2.2215 3.1297 1.3133l7.1667-2.9299q2.2215-0.9082 1.3133-3.1297l-2.0709-5.0655q-0.9082-2.2215-3.1297-1.3133l-7.1667 2.9299q-2.2215 0.9082-1.3133 3.1297z" clip-path="url(#a)" fill="#fff" stroke="#fff"/>
<g clip-path="url(#a)">
<g transform="translate(969.69 465.68) rotate(67.764) scale(.08 -.08)">
<use xlink:href="#o"/>
</g>
</g>
<path d="m938.13 472.1 1.9219-4.7011q0.9082-2.2215-1.3133-3.1297l-7.1667-2.9299q-2.2215-0.9082-3.1297 1.3133l-1.9219 4.7011q-0.9082 2.2215 1.3133 3.1297l7.1667 2.9299q2.2215 0.9082 3.1297-1.3133z" clip-path="url(#a)" fill="#fff" stroke="#fff"/>
<g clip-path="url(#a)">
<defs>
<path id="ap" d="m53.516 70.516v-9.625q-5.6094 2.6875-10.594 4-4.9844 1.3281-9.625 1.3281-8.0469 0-12.422-3.125t-4.375-8.8906q0-4.8438 2.9062-7.3125 2.9062-2.4531 11.016-3.9688l5.9531-1.2188q11.031-2.1094 16.281-7.4062t5.25-14.172q0-10.609-7.1094-16.078-7.0938-5.4688-20.812-5.4688-5.1719 0-11.016 1.1719-5.8281 1.1719-12.078 3.4688v10.156q6-3.3594 11.766-5.0781 5.7656-1.7031 11.328-1.7031 8.4375 0 13.031 3.3125 4.5938 3.3281 4.5938 9.4844 0 5.3594-3.2969 8.3906t-10.812 4.5469l-6.0156 1.1719q-11.031 2.1875-15.969 6.875-4.9219 4.6875-4.9219 13.047 0 9.6719 6.8125 15.234t18.766 5.5625q5.1406 0 10.453-0.9375 5.3281-0.92188 10.891-2.7656z"/>
</defs>
<g transform="translate(934.37 470.56) rotate(-67.764) scale(.08 -.08)">
<use xlink:href="#ap"/>
</g>
</g>
<path d="m986.23 546.38v33.808q0 2.4 2.4 2.4h7.7425q2.4 0 2.4-2.4v-33.808q0-2.4-2.4-2.4h-7.7425q-2.4 0-2.4 2.4z" clip-path="url(#a)" fill="#fff" stroke="#fff"/>
<g clip-path="url(#a)">
<g transform="translate(990.3 546.38) rotate(90) scale(.08 -.08)">
<use xlink:href="#l"/>
<use x="44.083984" xlink:href="#d"/>
<use x="105.607422" xlink:href="#i"/>
<use x="144.970703" xlink:href="#k"/>
<use x="242.382812" xlink:href="#g"/>
<use x="270.166016" xlink:href="#e"/>
<use x="333.544922" xlink:href="#h"/>
<use x="394.824219" xlink:href="#j"/>
</g>
</g>
<path d="m907.27 546.38v33.808q0 2.4 2.4 2.4h7.7425q2.4 0 2.4-2.4v-33.808q0-2.4-2.4-2.4h-7.7425q-2.4 0-2.4 2.4z" clip-path="url(#a)" fill="#fff" stroke="#fff"/>
<g clip-path="url(#a)">
<g transform="translate(911.34 546.38) rotate(90) scale(.08 -.08)">
<use xlink:href="#l"/>
<use x="44.083984" xlink:href="#d"/>
<use x="105.607422" xlink:href="#i"/>
<use x="144.970703" xlink:href="#k"/>
<use x="242.382812" xlink:href="#g"/>
<use x="270.166016" xlink:href="#e"/>
<use x="333.544922" xlink:href="#h"/>
<use x="394.824219" xlink:href="#j"/>
</g>
</g>
<path d="m625.76 546.38v33.808q0 2.4 2.4 2.4h7.7425q2.4 0 2.4-2.4v-33.808q0-2.4-2.4-2.4h-7.7425q-2.4 0-2.4 2.4z" clip-path="url(#a)" fill="#fff" stroke="#fff"/>
<g clip-path="url(#a)">
<g transform="translate(629.82 546.38) rotate(90) scale(.08 -.08)">
<use xlink:href="#l"/>
<use x="44.083984" xlink:href="#d"/>
<use x="105.607422" xlink:href="#i"/>
<use x="144.970703" xlink:href="#k"/>
<use x="242.382812" xlink:href="#g"/>
<use x="270.166016" xlink:href="#e"/>
<use x="333.544922" xlink:href="#h"/>
<use x="394.824219" xlink:href="#j"/>
</g>
</g>
<path d="m690.99 546.38v33.808q0 2.4 2.4 2.4h7.7425q2.4 0 2.4-2.4v-33.808q0-2.4-2.4-2.4h-7.7425q-2.4 0-2.4 2.4z" clip-path="url(#a)" fill="#fff" stroke="#fff"/>
<g clip-path="url(#a)">
<g transform="translate(695.05 546.38) rotate(90) scale(.08 -.08)">
<use xlink:href="#l"/>
<use x="44.083984" xlink:href="#d"/>
<use x="105.607422" xlink:href="#i"/>
<use x="144.970703" xlink:href="#k"/>
<use x="242.382812" xlink:href="#g"/>
<use x="270.166016" xlink:href="#e"/>
<use x="333.544922" xlink:href="#h"/>
<use x="394.824219" xlink:href="#j"/>
</g>
</g>
<path d="m450.67 546.38v33.808q0 2.4 2.4 2.4h7.7425q2.4 0 2.4-2.4v-33.808q0-2.4-2.4-2.4h-7.7425q-2.4 0-2.4 2.4z" clip-path="url(#a)" fill="#fff" stroke="#fff"/>
<g clip-path="url(#a)">
<g transform="translate(454.74 546.38) rotate(90) scale(.08 -.08)">
<use xlink:href="#l"/>
<use x="44.083984" xlink:href="#d"/>
<use x="105.607422" xlink:href="#i"/>
<use x="144.970703" xlink:href="#k"/>
<use x="242.382812" xlink:href="#g"/>
<use x="270.166016" xlink:href="#e"/>
<use x="333.544922" xlink:href="#h"/>
<use x="394.824219" xlink:href="#j"/>
</g>
</g>
<path d="m527.51 581.28 9.9033-32.324q0.70304-2.2947-1.5917-2.9978l-7.4029-2.268q-2.2947-0.70304-2.9978 1.5917l-9.9033 32.324q-0.70304 2.2947 1.5917 2.9978l7.4029 2.268q2.2947 0.70304 2.9978-1.5917z" clip-path="url(#a)" fill="#fff" stroke="#fff"/>
<g clip-path="url(#a)">
<g transform="translate(523.62 580.09) rotate(-72.966) scale(.08 -.08)">
<use xlink:href="#l"/>
<use x="44.083984" xlink:href="#d"/>
<use x="105.607422" xlink:href="#i"/>
<use x="144.970703" xlink:href="#k"/>
<use x="242.382812" xlink:href="#g"/>
<use x="270.166016" xlink:href="#e"/>
<use x="333.544922" xlink:href="#h"/>
<use x="394.824219" xlink:href="#j"/>
</g>
</g>
<path d="m544.7 548.96 9.9033 32.324q0.70304 2.2947 2.9978 1.5917l7.4029-2.268q2.2947-0.70304 1.5917-2.9978l-9.9033-32.324q-0.70304-2.2947-2.9978-1.5917l-7.4029 2.268q-2.2947 0.70304-1.5917 2.9978z" clip-path="url(#a)" fill="#fff" stroke="#fff"/>
<g clip-path="url(#a)">
<g transform="translate(548.58 547.77) rotate(72.966) scale(.08 -.08)">
<use xlink:href="#l"/>
<use x="44.083984" xlink:href="#d"/>
<use x="105.607422" xlink:href="#i"/>
<use x="144.970703" xlink:href="#k"/>
<use x="242.382812" xlink:href="#g"/>
<use x="270.166016" xlink:href="#e"/>
<use x="333.544922" xlink:href="#h"/>
<use x="394.824219" xlink:href="#j"/>
</g>
</g>
<path d="m89.432 374.34 1.1069-4.695q0.55072-2.336-1.7852-2.8867l-7.5359-1.7767q-2.336-0.55072-2.8867 1.7852l-1.1069 4.695q-0.55072 2.336 1.7852 2.8867l7.5359 1.7767q2.336 0.55072 2.8867-1.7852z" clip-path="url(#a)" fill="#fff" stroke="#fff"/>
<g clip-path="url(#a)">
<g transform="translate(85.477 373.4) rotate(-76.734) scale(.08 -.08)">
<use xlink:href="#s"/>
</g>
</g>
<path d="m100.1 369.61 1.1212 4.7559q0.55072 2.336 2.8867 1.7852l7.5359-1.7767q2.336-0.55072 1.7852-2.8867l-1.1212-4.7559q-0.55072-2.336-2.8867-1.7852l-7.5359 1.7767q-2.336 0.55072-1.7852 2.8867z" clip-path="url(#a)" fill="#fff" stroke="#fff"/>
<g clip-path="url(#a)">
<g transform="translate(104.06 368.68) rotate(76.734) scale(.08 -.08)">
<use xlink:href="#l"/>
</g>
</g>
<path d="m182.12 470.64 0.72683-4.5435q0.37911-2.3699-1.9908-2.749l-7.6453-1.223q-2.3699-0.37911-2.749 1.9908l-0.72683 4.5435q-0.37911 2.3699 1.9908 2.749l7.6453 1.223q2.3699 0.37911 2.749-1.9908z" clip-path="url(#a)" fill="#fff" stroke="#fff"/>
<g clip-path="url(#a)">
<g transform="translate(178.11 470) rotate(-80.911) scale(.08 -.08)">
<use xlink:href="#t"/>
</g>
</g>
<path d="m185.1 465.61 0.88242 5.5161q0.37911 2.3699 2.749 1.9908l7.6453-1.223q2.3699-0.37911 1.9908-2.749l-0.88242-5.5161q-0.37911-2.3699-2.749-1.9908l-7.6453 1.223q-2.3699 0.37911-1.9908 2.749z" clip-path="url(#a)" fill="#fff" stroke="#fff"/>
<g clip-path="url(#a)">
<g transform="translate(189.12 464.97) rotate(80.911) scale(.08 -.08)">
<use xlink:href="#q"/>
</g>
</g>
<path d="m252.85 581.3 12.945-31.231q0.91899-2.2171-1.2981-3.1361l-7.1524-2.9647q-2.2171-0.91899-3.1361 1.2981l-12.945 31.231q-0.91899 2.2171 1.2981 3.1361l7.1524 2.9647q2.2171 0.91899 3.1361-1.2981z" clip-path="url(#a)" fill="#fff" stroke="#fff"/>
<g clip-path="url(#a)">
<g transform="translate(249.1 579.75) rotate(-67.486) scale(.08 -.08)">
<use xlink:href="#l"/>
<use x="44.083984" xlink:href="#d"/>
<use x="105.607422" xlink:href="#i"/>
<use x="144.970703" xlink:href="#k"/>
<use x="242.382812" xlink:href="#g"/>
<use x="270.166016" xlink:href="#e"/>
<use x="333.544922" xlink:href="#h"/>
<use x="394.824219" xlink:href="#j"/>
</g>
</g>
<path d="m280.75 550.07 12.945 31.231q0.91899 2.2171 3.1361 1.2981l7.1524-2.9647q2.2171-0.91899 1.2981-3.1361l-12.945-31.231q-0.91899-2.2171-3.1361-1.2981l-7.1524 2.9647q-2.2171 0.91899-1.2981 3.1361z" clip-path="url(#a)" fill="#fff" stroke="#fff"/>
<g clip-path="url(#a)">
<g transform="translate(284.5 548.52) rotate(67.486) scale(.08 -.08)">
<use xlink:href="#l"/>
<use x="44.083984" xlink:href="#d"/>
<use x="105.607422" xlink:href="#i"/>
<use x="144.970703" xlink:href="#k"/>
<use x="242.382812" xlink:href="#g"/>
<use x="270.166016" xlink:href="#e"/>
<use x="333.544922" xlink:href="#h"/>
<use x="394.824219" xlink:href="#j"/>
</g>
</g>
<path d="m265.29 546.38v33.808q0 2.4 2.4 2.4h7.7425q2.4 0 2.4-2.4v-33.808q0-2.4-2.4-2.4h-7.7425q-2.4 0-2.4 2.4z" clip-path="url(#a)" fill="#fff" stroke="#fff"/>
<g clip-path="url(#a)">
<g transform="translate(269.35 546.38) rotate(90) scale(.08 -.08)">
<use xlink:href="#l"/>
<use x="44.083984" xlink:href="#d"/>
<use x="105.607422" xlink:href="#i"/>
<use x="144.970703" xlink:href="#k"/>
<use x="242.382812" xlink:href="#g"/>
<use x="270.166016" xlink:href="#e"/>
<use x="333.544922" xlink:href="#h"/>
<use x="394.824219" xlink:href="#j"/>
</g>
</g>
<path d="m162.29 546.38v33.808q0 2.4 2.4 2.4h7.7425q2.4 0 2.4-2.4v-33.808q0-2.4-2.4-2.4h-7.7425q-2.4 0-2.4 2.4z" clip-path="url(#a)" fill="#fff" stroke="#fff"/>
<g clip-path="url(#a)">
<g transform="translate(166.36 546.38) rotate(90) scale(.08 -.08)">
<use xlink:href="#l"/>
<use x="44.083984" xlink:href="#d"/>
<use x="105.607422" xlink:href="#i"/>
<use x="144.970703" xlink:href="#k"/>
<use x="242.382812" xlink:href="#g"/>
<use x="270.166016" xlink:href="#e"/>
<use x="333.544922" xlink:href="#h"/>
<use x="394.824219" xlink:href="#j"/>
</g>
</g>
<path d="m193.19 546.38v33.808q0 2.4 2.4 2.4h7.7425q2.4 0 2.4-2.4v-33.808q0-2.4-2.4-2.4h-7.7425q-2.4 0-2.4 2.4z" clip-path="url(#a)" fill="#fff" stroke="#fff"/>
<g clip-path="url(#a)">
<g transform="translate(197.25 546.38) rotate(90) scale(.08 -.08)">
<use xlink:href="#l"/>
<use x="44.083984" xlink:href="#d"/>
<use x="105.607422" xlink:href="#i"/>
<use x="144.970703" xlink:href="#k"/>
<use x="242.382812" xlink:href="#g"/>
<use x="270.166016" xlink:href="#e"/>
<use x="333.544922" xlink:href="#h"/>
<use x="394.824219" xlink:href="#j"/>
</g>
</g>
<path d="m75.063 470.59 0.39422-5.5448q0.17021-2.394-2.2238-2.5642l-7.723-0.54909q-2.394-0.17021-2.5642 2.2238l-0.39422 5.5448q-0.17021 2.394 2.2238 2.5642l7.723 0.54909q2.394 0.17021 2.5642-2.2238z" clip-path="url(#a)" fill="#fff" stroke="#fff"/>
<g clip-path="url(#a)">
<g transform="translate(71.01 470.3) rotate(-85.933) scale(.08 -.08)">
<use xlink:href="#aa"/>
</g>
</g>
<path d="m69.418 465.03 0.39617 5.5722q0.17021 2.394 2.5642 2.2238l7.723-0.54909q2.394-0.17021 2.2238-2.5642l-0.39617-5.5722q-0.17021-2.394-2.5642-2.2238l-7.723 0.5491q-2.394 0.17021-2.2238 2.5642z" clip-path="url(#a)" fill="#fff" stroke="#fff"/>
<g clip-path="url(#a)">
<g transform="translate(73.471 464.75) rotate(85.933) scale(.08 -.08)">
<use xlink:href="#q"/>
</g>
</g>
<path d="m112.85 471.46 1.221-5.423q0.52715-2.3414-1.8142-2.8685l-7.5534-1.7006q-2.3414-0.52715-2.8685 1.8142l-1.221 5.423q-0.52715 2.3414 1.8142 2.8685l7.5534 1.7006q2.3414 0.52715 2.8685-1.8142z" clip-path="url(#a)" fill="#fff" stroke="#fff"/>
<g clip-path="url(#a)">
<g transform="translate(108.88 470.57) rotate(-77.312) scale(.08 -.08)">
<use xlink:href="#aa"/>
</g>
</g>
<path d="m123.87 470.6 0.074618-6.2971q0.028438-2.3998-2.3714-2.4283l-7.742-0.09174q-2.3998-0.028438-2.4283 2.3714l-0.074619 6.2971q-0.028437 2.3998 2.3714 2.4283l7.742 0.09174q2.3998 0.028437 2.4283-2.3714z" clip-path="url(#a)" fill="#fff" stroke="#fff"/>
<g clip-path="url(#a)">
<defs>
<path id="as" d="m39.406 66.219q-10.75 0-17.078-8.0156-6.3125-8-6.3125-21.828 0-13.766 6.3125-21.781 6.3281-8 17.078-8 10.734 0 17.016 8 6.2812 8.0156 6.2812 21.781 0 13.828-6.2812 21.828-6.2812 8.0156-17.016 8.0156zm13.812-64.906 13-14.203h-11.922l-10.797 11.672q-1.6094-0.09375-2.4688-0.14062-0.84375-0.0625-1.625-0.0625-15.375 0-24.594 10.281-9.2031 10.281-9.2031 27.516 0 17.281 9.2031 27.562 9.2188 10.281 24.594 10.281 15.328 0 24.5-10.281 9.1875-10.281 9.1875-27.562 0-12.688-5.1094-21.734-5.0938-9.0312-14.766-13.328z"/>
</defs>
<g transform="translate(119.81 470.55) rotate(-89.321) scale(.08 -.08)">
<use xlink:href="#as"/>
</g>
</g>
<path d="m122.91 466.1 1.2882 5.4357q0.55346 2.3353 2.8888 1.7819l7.5338-1.7855q2.3353-0.55346 1.7819-2.8888l-1.2882-5.4357q-0.55346-2.3353-2.8888-1.7819l-7.5338 1.7855q-2.3353 0.55346-1.7819 2.8888z" clip-path="url(#a)" fill="#fff" stroke="#fff"/>
<g clip-path="url(#a)">
<g transform="translate(126.86 465.17) rotate(76.667) scale(.08 -.08)">
<use xlink:href="#q"/>
</g>
</g>
<path d="m90.199 546.38v33.808q0 2.4 2.4 2.4h7.7425q2.4 0 2.4-2.4v-33.808q0-2.4-2.4-2.4h-7.7425q-2.4 0-2.4 2.4z" clip-path="url(#a)" fill="#fff" stroke="#fff"/>
<g clip-path="url(#a)">
<g transform="translate(94.262 546.38) rotate(90) scale(.08 -.08)">
<use xlink:href="#l"/>
<use x="44.083984" xlink:href="#d"/>
<use x="105.607422" xlink:href="#i"/>
<use x="144.970703" xlink:href="#k"/>
<use x="242.382812" xlink:href="#g"/>
<use x="270.166016" xlink:href="#e"/>
<use x="333.544922" xlink:href="#h"/>
<use x="394.824219" xlink:href="#j"/>
</g>
</g>
<path d="m110.8 546.38v33.808q0 2.4 2.4 2.4h7.7425q2.4 0 2.4-2.4v-33.808q0-2.4-2.4-2.4h-7.7425q-2.4 0-2.4 2.4z" clip-path="url(#a)" fill="#fff" stroke="#fff"/>
<g clip-path="url(#a)">
<g transform="translate(114.86 546.38) rotate(90) scale(.08 -.08)">
<use xlink:href="#l"/>
<use x="44.083984" xlink:href="#d"/>
<use x="105.607422" xlink:href="#i"/>
<use x="144.970703" xlink:href="#k"/>
<use x="242.382812" xlink:href="#g"/>
<use x="270.166016" xlink:href="#e"/>
<use x="333.544922" xlink:href="#h"/>
<use x="394.824219" xlink:href="#j"/>
</g>
</g>
<path d="m134.83 546.38v33.808q0 2.4 2.4 2.4h7.7425q2.4 0 2.4-2.4v-33.808q0-2.4-2.4-2.4h-7.7425q-2.4 0-2.4 2.4z" clip-path="url(#a)" fill="#fff" stroke="#fff"/>
<g clip-path="url(#a)">
<g transform="translate(138.89 546.38) rotate(90) scale(.08 -.08)">
<use xlink:href="#l"/>
<use x="44.083984" xlink:href="#d"/>
<use x="105.607422" xlink:href="#i"/>
<use x="144.970703" xlink:href="#k"/>
<use x="242.382812" xlink:href="#g"/>
<use x="270.166016" xlink:href="#e"/>
<use x="333.544922" xlink:href="#h"/>
<use x="394.824219" xlink:href="#j"/>
</g>
</g>
<path d="m59.301 546.38v33.808q0 2.4 2.4 2.4h7.7425q2.4 0 2.4-2.4v-33.808q0-2.4-2.4-2.4h-7.7425q-2.4 0-2.4 2.4z" clip-path="url(#a)" fill="#fff" stroke="#fff"/>
<g clip-path="url(#a)">
<g transform="translate(63.364 546.38) rotate(90) scale(.08 -.08)">
<use xlink:href="#l"/>
<use x="44.083984" xlink:href="#d"/>
<use x="105.607422" xlink:href="#i"/>
<use x="144.970703" xlink:href="#k"/>
<use x="242.382812" xlink:href="#g"/>
<use x="270.166016" xlink:href="#e"/>
<use x="333.544922" xlink:href="#h"/>
<use x="394.824219" xlink:href="#j"/>
</g>
</g>
<path d="m73.033 546.38v33.808q0 2.4 2.4 2.4h7.7425q2.4 0 2.4-2.4v-33.808q0-2.4-2.4-2.4h-7.7425q-2.4 0-2.4 2.4z" clip-path="url(#a)" fill="#fff" stroke="#fff"/>
<g clip-path="url(#a)">
<g transform="translate(77.097 546.38) rotate(90) scale(.08 -.08)">
<use xlink:href="#l"/>
<use x="44.083984" xlink:href="#d"/>
<use x="105.607422" xlink:href="#i"/>
<use x="144.970703" xlink:href="#k"/>
<use x="242.382812" xlink:href="#g"/>
<use x="270.166016" xlink:href="#e"/>
<use x="333.544922" xlink:href="#h"/>
<use x="394.824219" xlink:href="#j"/>
</g>
</g>
<path d="m351.11 546.38v33.808q0 2.4 2.4 2.4h7.7425q2.4 0 2.4-2.4v-33.808q0-2.4-2.4-2.4h-7.7425q-2.4 0-2.4 2.4z" clip-path="url(#a)" fill="#fff" stroke="#fff"/>
<g clip-path="url(#a)">
<g transform="translate(355.18 546.38) rotate(90) scale(.08 -.08)">
<use xlink:href="#l"/>
<use x="44.083984" xlink:href="#d"/>
<use x="105.607422" xlink:href="#i"/>
<use x="144.970703" xlink:href="#k"/>
<use x="242.382812" xlink:href="#g"/>
<use x="270.166016" xlink:href="#e"/>
<use x="333.544922" xlink:href="#h"/>
<use x="394.824219" xlink:href="#j"/>
</g>
</g>
<path d="m1154.5 546.38v33.808q0 2.4 2.4 2.4h7.7425q2.4 0 2.4-2.4v-33.808q0-2.4-2.4-2.4h-7.7425q-2.4 0-2.4 2.4z" clip-path="url(#a)" fill="#fff" stroke="#fff"/>
<g clip-path="url(#a)">
<g transform="translate(1158.5 546.38) rotate(90) scale(.08 -.08)">
<use xlink:href="#l"/>
<use x="44.083984" xlink:href="#d"/>
<use x="105.607422" xlink:href="#i"/>
<use x="144.970703" xlink:href="#k"/>
<use x="242.382812" xlink:href="#g"/>
<use x="270.166016" xlink:href="#e"/>
<use x="333.544922" xlink:href="#h"/>
<use x="394.824219" xlink:href="#j"/>
</g>
</g>
<defs>
<path id="b" d="m0 8.6603c2.2967 0 4.4997-0.9125 6.1237-2.5365 1.624-1.624 2.5365-3.827 2.5365-6.1237s-0.9125-4.4997-2.5365-6.1237c-1.624-1.624-3.827-2.5365-6.1237-2.5365s-4.4997 0.9125-6.1237 2.5365c-1.624 1.624-2.5365 3.827-2.5365 6.1237s0.9125 4.4997 2.5365 6.1237c1.624 1.624 3.827 2.5365 6.1237 2.5365z"/>
</defs>
<g clip-path="url(#a)">
<use x="55.272727" y="610.909091" fill="#ffffff" stroke="#ffffff" xlink:href="#b"/>
</g>
<g clip-path="url(#a)">
<use x="65.571993" y="610.909091" fill="#ffffff" stroke="#ffffff" xlink:href="#b"/>
</g>
<g clip-path="url(#a)">
<use x="79.304348" y="610.909091" fill="#ffffff" stroke="#ffffff" xlink:href="#b"/>
</g>
<g clip-path="url(#a)">
<use x="96.469791" y="610.909091" fill="#ffffff" stroke="#ffffff" xlink:href="#b"/>
</g>
<g clip-path="url(#a)">
<use x="117.068323" y="610.909091" fill="#ffffff" stroke="#ffffff" xlink:href="#b"/>
</g>
<g clip-path="url(#a)">
<use x="141.099944" y="610.909091" fill="#ffffff" stroke="#ffffff" xlink:href="#b"/>
</g>
<g clip-path="url(#a)">
<use x="168.564653" y="610.909091" fill="#ffffff" stroke="#ffffff" xlink:href="#b"/>
</g>
<g clip-path="url(#a)">
<use x="199.462451" y="610.909091" fill="#ffffff" stroke="#ffffff" xlink:href="#b"/>
</g>
<g clip-path="url(#a)">
<use x="233.793337" y="610.909091" fill="#ffffff" stroke="#ffffff" xlink:href="#b"/>
</g>
<g clip-path="url(#a)">
<use x="271.557312" y="610.909091" fill="#ffffff" stroke="#ffffff" xlink:href="#b"/>
</g>
<g clip-path="url(#a)">
<use x="312.754376" y="610.909091" fill="#ffffff" stroke="#ffffff" xlink:href="#b"/>
</g>
<g clip-path="url(#a)">
<use x="357.384529" y="610.909091" fill="#ffffff" stroke="#ffffff" xlink:href="#b"/>
</g>
<g clip-path="url(#a)">
<use x="405.44777" y="610.909091" fill="#ffffff" stroke="#ffffff" xlink:href="#b"/>
</g>
<g clip-path="url(#a)">
<use x="456.944099" y="610.909091" fill="#ffffff" stroke="#ffffff" xlink:href="#b"/>
</g>
<g clip-path="url(#a)">
<use x="511.873518" y="610.909091" fill="#ffffff" stroke="#ffffff" xlink:href="#b"/>
</g>
<g clip-path="url(#a)">
<use x="570.236025" y="610.909091" fill="#ffffff" stroke="#ffffff" xlink:href="#b"/>
</g>
<g clip-path="url(#a)">
<use x="632.031621" y="610.909091" fill="#ffffff" stroke="#ffffff" xlink:href="#b"/>
</g>
<g clip-path="url(#a)">
<use x="697.260305" y="610.909091" fill="#ffffff" stroke="#ffffff" xlink:href="#b"/>
</g>
<g clip-path="url(#a)">
<use x="765.922078" y="610.909091" fill="#ffffff" stroke="#ffffff" xlink:href="#b"/>
</g>
<g clip-path="url(#a)">
<use x="838.01694" y="610.909091" fill="#ffffff" stroke="#ffffff" xlink:href="#b"/>
</g>
<g clip-path="url(#a)">
<use x="913.54489" y="610.909091" fill="#ffffff" stroke="#ffffff" xlink:href="#b"/>
</g>
<g clip-path="url(#a)">
<use x="992.505929" y="610.909091" fill="#ffffff" stroke="#ffffff" xlink:href="#b"/>
</g>
<g clip-path="url(#a)">
<use x="1074.900056" y="610.909091" fill="#ffffff" stroke="#ffffff" xlink:href="#b"/>
</g>
<g clip-path="url(#a)">
<use x="1160.727273" y="610.909091" fill="#ffffff" stroke="#ffffff" xlink:href="#b"/>
</g>
<g clip-path="url(#a)">
<use x="346.563147" y="29.090909" fill="#ffffff" stroke="#ffffff" xlink:href="#b"/>
</g>
<g clip-path="url(#a)">
<use x="55.272727" y="515.661385" fill="#ffffff" stroke="#ffffff" xlink:href="#b"/>
</g>
<g clip-path="url(#a)">
<use x="206.042537" y="224.599832" fill="#ffffff" stroke="#ffffff" xlink:href="#b"/>
</g>
<g clip-path="url(#a)">
<use x="767.552795" y="126.943784" fill="#ffffff" stroke="#ffffff" xlink:href="#b"/>
</g>
<g clip-path="url(#a)">
<use x="405.44777" y="515.661385" fill="#ffffff" stroke="#ffffff" xlink:href="#b"/>
</g>
<g clip-path="url(#a)">
<use x="498.999435" y="419.088678" fill="#ffffff" stroke="#ffffff" xlink:href="#b"/>
</g>
<g clip-path="url(#a)">
<use x="697.689441" y="224.599832" fill="#ffffff" stroke="#ffffff" xlink:href="#b"/>
</g>
<g clip-path="url(#a)">
<use x="1074.900056" y="515.661385" fill="#ffffff" stroke="#ffffff" xlink:href="#b"/>
</g>
<g clip-path="url(#a)">
<use x="664.645963" y="419.088678" fill="#ffffff" stroke="#ffffff" xlink:href="#b"/>
</g>
<g clip-path="url(#a)">
<use x="887.367589" y="322.009456" fill="#ffffff" stroke="#ffffff" xlink:href="#b"/>
</g>
<g clip-path="url(#a)">
<use x="765.922078" y="515.661385" fill="#ffffff" stroke="#ffffff" xlink:href="#b"/>
</g>
<g clip-path="url(#a)">
<use x="838.01694" y="515.661385" fill="#ffffff" stroke="#ffffff" xlink:href="#b"/>
</g>
<g clip-path="url(#a)">
<use x="953.025409" y="419.088678" fill="#ffffff" stroke="#ffffff" xlink:href="#b"/>
</g>
<g clip-path="url(#a)">
<use x="992.505929" y="515.661385" fill="#ffffff" stroke="#ffffff" xlink:href="#b"/>
</g>
<g clip-path="url(#a)">
<use x="913.54489" y="515.661385" fill="#ffffff" stroke="#ffffff" xlink:href="#b"/>
</g>
<g clip-path="url(#a)">
<use x="632.031621" y="515.661385" fill="#ffffff" stroke="#ffffff" xlink:href="#b"/>
</g>
<g clip-path="url(#a)">
<use x="697.260305" y="515.661385" fill="#ffffff" stroke="#ffffff" xlink:href="#b"/>
</g>
<g clip-path="url(#a)">
<use x="456.944099" y="515.661385" fill="#ffffff" stroke="#ffffff" xlink:href="#b"/>
</g>
<g clip-path="url(#a)">
<use x="541.054771" y="515.661385" fill="#ffffff" stroke="#ffffff" xlink:href="#b"/>
</g>
<g clip-path="url(#a)">
<use x="95.325428" y="322.009456" fill="#ffffff" stroke="#ffffff" xlink:href="#b"/>
</g>
<g clip-path="url(#a)">
<use x="184.013552" y="419.088678" fill="#ffffff" stroke="#ffffff" xlink:href="#b"/>
</g>
<g clip-path="url(#a)">
<use x="273.273857" y="515.661385" fill="#ffffff" stroke="#ffffff" xlink:href="#b"/>
</g>
<g clip-path="url(#a)">
<use x="271.557312" y="515.661385" fill="#ffffff" stroke="#ffffff" xlink:href="#b"/>
</g>
<g clip-path="url(#a)">
<use x="168.564653" y="515.661385" fill="#ffffff" stroke="#ffffff" xlink:href="#b"/>
</g>
<g clip-path="url(#a)">
<use x="199.462451" y="515.661385" fill="#ffffff" stroke="#ffffff" xlink:href="#b"/>
</g>
<g clip-path="url(#a)">
<use x="72.438171" y="419.088678" fill="#ffffff" stroke="#ffffff" xlink:href="#b"/>
</g>
<g clip-path="url(#a)">
<use x="118.212686" y="419.088678" fill="#ffffff" stroke="#ffffff" xlink:href="#b"/>
</g>
<g clip-path="url(#a)">
<use x="96.469791" y="515.661385" fill="#ffffff" stroke="#ffffff" xlink:href="#b"/>
</g>
<g clip-path="url(#a)">
<use x="117.068323" y="515.661385" fill="#ffffff" stroke="#ffffff" xlink:href="#b"/>
</g>
<g clip-path="url(#a)">
<use x="141.099944" y="515.661385" fill="#ffffff" stroke="#ffffff" xlink:href="#b"/>
</g>
<g clip-path="url(#a)">
<use x="65.571993" y="515.661385" fill="#ffffff" stroke="#ffffff" xlink:href="#b"/>
</g>
<g clip-path="url(#a)">
<use x="79.304348" y="515.661385" fill="#ffffff" stroke="#ffffff" xlink:href="#b"/>
</g>
<g clip-path="url(#a)">
<use x="357.384529" y="515.661385" fill="#ffffff" stroke="#ffffff" xlink:href="#b"/>
</g>
<g clip-path="url(#a)">
<use x="1160.727273" y="515.661385" fill="#ffffff" stroke="#ffffff" xlink:href="#b"/>
</g>
<g clip-path="url(#a)">
<defs>
<path id="an" d="m3.3281 72.906h9.9531l15.328-61.625 15.281 61.625h11.094l15.328-61.625 15.281 61.625h10.016l-18.312-72.906h-12.406l-15.375 63.281-15.531-63.281h-12.406z"/>
</defs>
<g transform="translate(41.209 613.67) scale(.1 -.1)">
<use xlink:href="#an"/>
<use x="93.001953" xlink:href="#d"/>
<use x="154.525391" xlink:href="#e"/>
<use x="217.904297" xlink:href="#e"/>
</g>
</g>
<g clip-path="url(#a)">
<g transform="translate(59.313 613.67) scale(.1 -.1)">
<use xlink:href="#g"/>
<use x="27.783203" xlink:href="#k"/>
</g>
</g>
<g clip-path="url(#a)">
<defs>
<path id="ao" d="m28.609 0-27.828 72.906h10.297l23.109-61.375 23.141 61.375h10.25l-27.781-72.906z"/>
<path id="ai" d="m8.5 21.578v33.109h8.9844v-32.766q0-7.7656 3.0156-11.656 3.0312-3.875 9.0938-3.875 7.2656 0 11.484 4.6406 4.2344 4.6406 4.2344 12.656v31h8.9844v-54.688h-8.9844v8.4062q-3.2656-4.9844-7.5938-7.4062-4.3125-2.4219-10.031-2.4219-9.4219 0-14.312 5.8594-4.875 5.8594-4.875 17.141z"/>
<path id="bb" d="m37.109 75.984v-7.4844h-8.5938q-4.8281 0-6.7188-1.9531-1.875-1.9531-1.875-7.0312v-4.8281h14.797v-6.9844h-14.797v-47.703h-9.0312v47.703h-8.5938v6.9844h8.5938v3.8125q0 9.125 4.25 13.297 4.25 4.1875 13.469 4.1875z"/>
</defs>
<g transform="translate(61.757 613.67) scale(.1 -.1)">
<use xlink:href="#ao"/>
<use x="60.658203" xlink:href="#d"/>
<use x="122.181641" xlink:href="#i"/>
<use x="163.294922" xlink:href="#j"/>
<use x="191.078125" xlink:href="#h"/>
<use x="252.357422" xlink:href="#ai"/>
<use x="315.736328" xlink:href="#bb"/>
</g>
</g>
<g clip-path="url(#a)">
<defs>
<path id="ay" d="m2.9844 54.688h9.5156l17.094-45.891 17.094 45.891h9.5156l-20.516-54.688h-12.203z"/>
<path id="x" d="m30.609 48.391q-7.2188 0-11.422-5.6406t-4.2031-15.453 4.1719-15.453q4.1875-5.6406 11.453-5.6406 7.1875 0 11.375 5.6562 4.2031 5.6719 4.2031 15.438 0 9.7188-4.2031 15.406-4.1875 5.6875-11.375 5.6875zm0 7.6094q11.719 0 18.406-7.625 6.7031-7.6094 6.7031-21.078 0-13.422-6.7031-21.078-6.6875-7.6406-18.406-7.6406-11.766 0-18.438 7.6406-6.6562 7.6562-6.6562 21.078 0 13.469 6.6562 21.078 6.6719 7.625 18.438 7.625z"/>
</defs>
<g transform="translate(87.282 613.67) scale(.1 -.1)">
<use xlink:href="#ay"/>
<use x="59.179688" xlink:href="#x"/>
<use x="120.361328" xlink:href="#e"/>
</g>
</g>
<g clip-path="url(#a)">
<defs>
<path id="n" d="m40.578 39.312q7.0781-1.5156 11.047-6.3125 3.9844-4.7812 3.9844-11.812 0-10.781-7.4219-16.703-7.4219-5.9062-21.094-5.9062-4.5781 0-9.4375 0.90625t-10.031 2.7188v9.5156q4.0938-2.3906 8.9688-3.6094 4.8906-1.2188 10.219-1.2188 9.2656 0 14.125 3.6562t4.8594 10.641q0 6.4531-4.5156 10.078-4.5156 3.6406-12.562 3.6406h-8.5v8.1094h8.8906q7.2656 0 11.125 2.9062t3.8594 8.375q0 5.6094-3.9844 8.6094-3.9688 3.0156-11.391 3.0156-4.0625 0-8.7031-0.89062-4.6406-0.875-10.203-2.7188v8.7812q5.625 1.5625 10.531 2.3438t9.25 0.78125q11.234 0 17.766-5.1094 6.5469-5.0938 6.5469-13.781 0-6.0625-3.4688-10.234t-9.8594-5.7812z"/>
</defs>
<g transform="translate(113.89 613.67) scale(.1 -.1)">
<use xlink:href="#n"/>
</g>
</g>
<g clip-path="url(#a)">
<defs>
<path id="aj" d="m45.406 27.984q0 9.7656-4.0312 15.125-4.0156 5.375-11.297 5.375-7.2188 0-11.25-5.375-4.0312-5.3594-4.0312-15.125 0-9.7188 4.0312-15.094t11.25-5.375q7.2812 0 11.297 5.375 4.0312 5.375 4.0312 15.094zm8.9844-21.203q0-13.953-6.2031-20.766-6.1875-6.8125-18.984-6.8125-4.7344 0-8.9375 0.70312t-8.1562 2.1719v8.7344q3.9531-2.1406 7.8125-3.1562 3.8594-1.0312 7.8594-1.0312 8.8438 0 13.234 4.6094t4.3906 13.938v4.4531q-2.7812-4.8438-7.125-7.2344t-10.406-2.3906q-10.047 0-16.203 7.6562-6.1562 7.6719-6.1562 20.328 0 12.688 6.1562 20.344 6.1562 7.6719 16.203 7.6719 6.0625 0 10.406-2.3906t7.125-7.2188v8.2969h8.9844z"/>
</defs>
<g transform="translate(126.39 613.67) scale(.1 -.1)">
<use xlink:href="#l"/>
<use x="44.583984" xlink:href="#h"/>
<use x="105.863281" xlink:href="#aj"/>
<use x="169.339844" xlink:href="#d"/>
<use x="230.863281" xlink:href="#e"/>
</g>
</g>
<g clip-path="url(#a)">
<defs>
<path id="y" d="m45.406 46.391v29.594h8.9844v-75.984h-8.9844v8.2031q-2.8281-4.875-7.1562-7.25-4.3125-2.375-10.375-2.375-9.9062 0-16.141 7.9062-6.2188 7.9219-6.2188 20.812t6.2188 20.797q6.2344 7.9062 16.141 7.9062 6.0625 0 10.375-2.375 4.3281-2.3594 7.1562-7.2344zm-30.609-19.094q0-9.9062 4.0781-15.547t11.203-5.6406 11.219 5.6406q4.1094 5.6406 4.1094 15.547t-4.1094 15.547q-4.0938 5.6406-11.219 5.6406t-11.203-5.6406-4.0781-15.547z"/>
<path id="w" d="m44.281 53.078v-8.5q-3.7969 1.9531-7.9062 2.9219-4.0938 0.98438-8.5 0.98438-6.6875 0-10.031-2.0469t-3.3438-6.1562q0-3.125 2.3906-4.9062t9.625-3.3906l3.0781-0.6875q9.5625-2.0469 13.594-5.7812t4.0312-10.422q0-7.625-6.0312-12.078-6.0312-4.4375-16.578-4.4375-4.3906 0-9.1562 0.85938t-10.031 2.5625v9.2812q4.9844-2.5938 9.8125-3.8906 4.8281-1.2812 9.5781-1.2812 6.3438 0 9.75 2.1719 3.4219 2.1719 3.4219 6.125 0 3.6562-2.4688 5.6094-2.4531 1.9531-10.812 3.7656l-3.125 0.73438q-8.3438 1.75-12.062 5.3906-3.7031 3.6406-3.7031 9.9844 0 7.7188 5.4688 11.906 5.4688 4.2031 15.531 4.2031 4.9688 0 9.3594-0.73438 4.4062-0.71875 8.1094-2.1875z"/>
</defs>
<g transform="translate(159.72 613.67) scale(.1 -.1)">
<use xlink:href="#y"/>
<use x="63.476562" xlink:href="#h"/>
<use x="124.755859" xlink:href="#w"/>
</g>
</g>
<g clip-path="url(#a)">
<defs>
<path id="p" d="m54.891 33.016v-33.016h-8.9844v32.719q0 7.7656-3.0312 11.609-3.0312 3.8594-9.0781 3.8594-7.2812 0-11.484-4.6406-4.2031-4.625-4.2031-12.641v-30.906h-9.0312v75.984h9.0312v-29.797q3.2344 4.9375 7.5938 7.375 4.375 2.4375 10.094 2.4375 9.4219 0 14.25-5.8281 4.8438-5.8281 4.8438-17.156z"/>
</defs>
<g transform="translate(171.84 613.67) scale(.1 -.1)">
<use xlink:href="#z"/>
<use x="73.193359" xlink:href="#e"/>
<use x="136.572266" xlink:href="#aj"/>
<use x="200.048828" xlink:href="#d"/>
<use x="261.572266" xlink:href="#p"/>
<use x="324.951172" xlink:href="#d"/>
<use x="386.474609" xlink:href="#ai"/>
<use x="449.853516" xlink:href="#d"/>
<use x="511.376953" xlink:href="#i"/>
</g>
</g>
<g clip-path="url(#a)">
<defs>
<path id="r" d="m48.781 52.594v-8.4062q-3.8125 2.1094-7.6406 3.1562t-7.7344 1.0469q-8.75 0-13.594-5.5469-4.8281-5.5312-4.8281-15.547t4.8281-15.562q4.8438-5.5312 13.594-5.5312 3.9062 0 7.7344 1.0469t7.6406 3.1562v-8.3125q-3.7656-1.75-7.7969-2.625-4.0156-0.89062-8.5625-0.89062-12.359 0-19.641 7.7656-7.2656 7.7656-7.2656 20.953 0 13.375 7.3438 21.031 7.3594 7.6719 20.156 7.6719 4.1406 0 8.0938-0.85938 3.9531-0.84375 7.6719-2.5469z"/>
</defs>
<g transform="translate(223.88 613.67) scale(.1 -.1)">
<use xlink:href="#w"/>
<use x="52.099609" xlink:href="#g"/>
<use x="79.882812" xlink:href="#r"/>
<use x="134.863281" xlink:href="#p"/>
</g>
</g>
<g clip-path="url(#a)">
<defs>
<path id="v" d="m18.312 70.219v-15.531h18.5v-6.9844h-18.5v-29.688q0-6.6875 1.8281-8.5938t7.4531-1.9062h9.2188v-7.5156h-9.2188q-10.406 0-14.359 3.875-3.9531 3.8906-3.9531 14.141v29.688h-6.5938v6.9844h6.5938v15.531z"/>
</defs>
<g transform="translate(259.12 613.67) scale(.1 -.1)">
<use xlink:href="#e"/>
<use x="63.378906" xlink:href="#g"/>
<use x="91.162109" xlink:href="#r"/>
<use x="146.142578" xlink:href="#p"/>
<use x="209.521484" xlink:href="#v"/>
</g>
</g>
<g clip-path="url(#a)">
<defs>
<path id="ax" d="m5.5156 54.688h42.672v-8.2031l-33.781-39.312h33.781v-7.1719h-43.891v8.2031l33.797 39.312h-32.578z"/>
</defs>
<g transform="translate(297.45 613.67) scale(.1 -.1)">
<use xlink:href="#ax"/>
<use x="52.490234" xlink:href="#d"/>
<use x="114.013672" xlink:href="#g"/>
<use x="141.796875" xlink:href="#aj"/>
<use x="205.273438" xlink:href="#v"/>
<use x="244.482422" xlink:href="#d"/>
</g>
</g>
<g clip-path="url(#a)">
<defs>
<path id="av" d="m11.719 12.406h10.297v-8.4062l-8-15.625h-6.2969l4 15.625z"/>
</defs>
<g transform="translate(355.8 613.67) scale(.1 -.1)">
<use xlink:href="#av"/>
</g>
</g>
<g clip-path="url(#a)">
<g transform="translate(393.93 613.67) scale(.1 -.1)">
<use xlink:href="#w"/>
<use x="52.099609" xlink:href="#x"/>
<use x="113.28125" xlink:href="#j"/>
<use x="141.064453" xlink:href="#j"/>
<use x="168.847656" xlink:href="#d"/>
</g>
</g>
<g clip-path="url(#a)">
<g transform="translate(449.3 613.67) scale(.1 -.1)">
<use xlink:href="#y"/>
<use x="63.476562" xlink:href="#g"/>
<use x="91.259766" xlink:href="#d"/>
</g>
</g>
<g clip-path="url(#a)">
<defs>
<path id="aq" d="m9.4219 51.703 22.906-20.406v-4l-22.906-20.406v9.3281l14.703 13.078-14.703 13.094z"/>
<path id="am" d="m48.688 27.297q0 9.9062-4.0781 15.547t-11.203 5.6406q-7.1406 0-11.219-5.6406t-4.0781-15.547 4.0781-15.547 11.219-5.6406q7.125 0 11.203 5.6406t4.0781 15.547zm-30.578 19.094q2.8438 4.875 7.1562 7.2344 4.3281 2.375 10.328 2.375 9.9688 0 16.188-7.9062 6.2344-7.9062 6.2344-20.797t-6.2344-20.812q-6.2188-7.9062-16.188-7.9062-6 0-10.328 2.375-4.3125 2.375-7.1562 7.25v-8.2031h-9.0312v75.984h9.0312z"/>
</defs>
<g transform="translate(487.06 613.67) scale(.1 -.1)">
<use xlink:href="#aq"/>
<use x="39.990234" xlink:href="#o"/>
<use x="108.398438" xlink:href="#am"/>
<use x="171.875" xlink:href="#i"/>
<use x="212.988281" xlink:href="#h"/>
<use x="274.267578" xlink:href="#p"/>
<use x="337.646484" xlink:href="#h"/>
<use x="398.925781" xlink:href="#k"/>
</g>
</g>
<g clip-path="url(#a)">
<defs>
<path id="ar" d="m30.609 51.703v-9.3125l-14.688-13.094 14.688-13.078v-9.3281l-22.891 20.406v4z"/>
</defs>
<g transform="translate(550.53 613.67) scale(.1 -.1)">
<use xlink:href="#ak"/>
<use x="55.712891" xlink:href="#g"/>
<use x="83.496094" xlink:href="#e"/>
<use x="146.875" xlink:href="#r"/>
<use x="201.855469" xlink:href="#x"/>
<use x="263.037109" xlink:href="#j"/>
<use x="290.820312" xlink:href="#e"/>
<use x="354.199219" xlink:href="#ar"/>
</g>
</g>
<g clip-path="url(#a)">
<g transform="translate(624.39 613.67) scale(.1 -.1)">
<use xlink:href="#y"/>
<use x="63.476562" xlink:href="#g"/>
<use x="91.259766" xlink:href="#d"/>
</g>
</g>
<g clip-path="url(#a)">
<defs>
<path id="ba" d="m9.0781 75.984h9.0312v-44.875l26.812 23.578h11.469l-29-25.578 30.234-29.109h-11.719l-27.797 26.703v-26.703h-9.0312z"/>
</defs>
<g transform="translate(673.15 613.67) scale(.1 -.1)">
<use xlink:href="#ab"/>
<use x="75.195312" xlink:href="#d"/>
<use x="136.71875" xlink:href="#g"/>
<use x="164.501953" xlink:href="#k"/>
<use x="261.914062" xlink:href="#ba"/>
<use x="316.199219" xlink:href="#d"/>
<use x="377.722656" xlink:href="#p"/>
<use x="441.101562" xlink:href="#i"/>
</g>
</g>
<g clip-path="url(#a)">
<g transform="translate(753.77 613.67) scale(.1 -.1)">
<use xlink:href="#e"/>
<use x="63.378906" xlink:href="#h"/>
<use x="124.658203" xlink:href="#r"/>
<use x="179.638672" xlink:href="#p"/>
</g>
</g>
<g clip-path="url(#a)">
<g transform="translate(828.6 613.67) scale(.1 -.1)">
<use xlink:href="#y"/>
<use x="63.476562" xlink:href="#d"/>
<use x="125" xlink:href="#e"/>
</g>
</g>
<g clip-path="url(#a)">
<defs>
<path id="az" d="m18.109 8.2031v-29h-9.0312v75.484h9.0312v-8.2969q2.8438 4.875 7.1562 7.2344 4.3281 2.375 10.328 2.375 9.9688 0 16.188-7.9062 6.2344-7.9062 6.2344-20.797t-6.2344-20.812q-6.2188-7.9062-16.188-7.9062-6 0-10.328 2.375-4.3125 2.375-7.1562 7.25zm30.578 19.094q0 9.9062-4.0781 15.547t-11.203 5.6406q-7.1406 0-11.219-5.6406t-4.0781-15.547 4.0781-15.547 11.219-5.6406q7.125 0 11.203 5.6406t4.0781 15.547z"/>
<path id="aw" d="m34.281 27.484q-10.891 0-15.094-2.4844t-4.2031-8.5q0-4.7812 3.1562-7.5938 3.1562-2.7969 8.5625-2.7969 7.4844 0 12 5.2969t4.5156 14.078v2zm17.922 3.7188v-31.203h-8.9844v8.2969q-3.0781-4.9688-7.6719-7.3438t-11.234-2.375q-8.3906 0-13.359 4.7188-4.9531 4.7188-4.9531 12.625 0 9.2188 6.1719 13.906 6.1875 4.6875 18.438 4.6875h12.609v0.89062q0 6.2031-4.0781 9.5938t-11.453 3.3906q-4.6875 0-9.1406-1.125-4.4375-1.125-8.5312-3.375v8.3125q4.9219 1.9062 9.5625 2.8438 4.6406 0.95312 9.0312 0.95312 11.875 0 17.734-6.1562 5.8594-6.1406 5.8594-18.641zm-18.609 44.578h9.9062v-9.8594h-9.9062zm-19.094 0h9.9062v-9.8594h-9.9062z"/>
</defs>
<g transform="translate(879.9 613.67) scale(.1 -.1)">
<use xlink:href="#d"/>
<use x="61.523438" xlink:href="#ai"/>
<use x="124.902344" xlink:href="#i"/>
<use x="163.765625" xlink:href="#x"/>
<use x="224.947266" xlink:href="#az"/>
<use x="288.423828" xlink:href="#aw"/>
<use x="349.703125" xlink:href="#g"/>
<use x="377.486328" xlink:href="#w"/>
<use x="429.585938" xlink:href="#r"/>
<use x="484.566406" xlink:href="#p"/>
<use x="547.945312" xlink:href="#d"/>
<use x="609.46875" xlink:href="#e"/>
</g>
</g>
<g clip-path="url(#a)">
<defs>
<path id="at" d="m9.8125 72.906h14.703l18.594-49.609 18.703 49.609h14.703v-72.906h-9.625v64.016l-18.797-50h-9.9062l-18.797 50v-64.016h-9.5781z"/>
</defs>
<g transform="translate(973.85 613.67) scale(.1 -.1)">
<use xlink:href="#at"/>
<use x="86.279297" xlink:href="#d"/>
<use x="147.802734" xlink:href="#d"/>
<use x="209.326172" xlink:href="#i"/>
<use x="248.189453" xlink:href="#d"/>
<use x="309.712891" xlink:href="#e"/>
</g>
</g>
<g clip-path="url(#a)">
<g transform="translate(1053.5 613.67) scale(.1 -.1)">
<use xlink:href="#h"/>
<use x="61.279297" xlink:href="#e"/>
<use x="124.658203" xlink:href="#v"/>
<use x="163.867188" xlink:href="#i"/>
<use x="202.730469" xlink:href="#d"/>
<use x="264.253906" xlink:href="#v"/>
<use x="303.462891" xlink:href="#d"/>
<use x="364.986328" xlink:href="#e"/>
</g>
</g>
<g clip-path="url(#a)">
<defs>
<path id="f" d="m10.688 12.406h10.312v-12.406h-10.312z"/>
</defs>
<g transform="translate(1159.1 613.67) scale(.1 -.1)">
<use xlink:href="#f"/>
</g>
</g>
<g clip-path="url(#a)">
<defs>
<path id="c" d="m12.406 8.2969h16.109v55.625l-17.531-3.5156v8.9844l17.438 3.5156h9.8594v-64.609h16.109v-8.2969h-41.984z"/>
</defs>
<g transform="translate(338.61 31.85) scale(.1 -.1)">
<use xlink:href="#c"/>
<use x="63.623047" xlink:href="#f"/>
<use x="95.410156" xlink:href="#c"/>
</g>
</g>
<g clip-path="url(#a)">
<defs>
<path id="m" d="m19.188 8.2969h34.422v-8.2969h-46.281v8.2969q5.6094 5.8125 15.297 15.594 9.7031 9.7969 12.188 12.641 4.7344 5.3125 6.6094 9 1.8906 3.6875 1.8906 7.25 0 5.8125-4.0781 9.4688-4.0781 3.6719-10.625 3.6719-4.6406 0-9.7969-1.6094-5.1406-1.6094-11-4.8906v9.9688q5.9531 2.3906 11.125 3.6094 5.1875 1.2188 9.4844 1.2188 11.328 0 18.062-5.6719 6.7344-5.6562 6.7344-15.125 0-4.5-1.6875-8.5312-1.6719-4.0156-6.125-9.4844-1.2188-1.4219-7.7656-8.1875-6.5312-6.7656-18.453-18.922z"/>
</defs>
<g transform="translate(47.321 518.42) scale(.1 -.1)">
<use xlink:href="#c"/>
<use x="63.623047" xlink:href="#f"/>
<use x="95.410156" xlink:href="#m"/>
</g>
</g>
<g clip-path="url(#a)">
<g transform="translate(198.09 227.36) scale(.1 -.1)">
<use xlink:href="#c"/>
<use x="63.623047" xlink:href="#f"/>
<use x="95.410156" xlink:href="#n"/>
</g>
</g>
<g clip-path="url(#a)">
<defs>
<path id="u" d="m37.797 64.312-24.906-38.922h24.906zm-2.5938 8.5938h12.406v-47.516h10.406v-8.2031h-10.406v-17.188h-9.8125v17.188h-32.906v9.5156z"/>
</defs>
<g transform="translate(759.6 129.7) scale(.1 -.1)">
<use xlink:href="#c"/>
<use x="63.623047" xlink:href="#f"/>
<use x="95.410156" xlink:href="#u"/>
</g>
</g>
<g clip-path="url(#a)">
<defs>
<path id="ae" d="m8.2031 72.906h46.875v-4.2031l-26.469-68.703h-10.297l24.906 64.594h-35.016z"/>
</defs>
<g transform="translate(397.5 518.42) scale(.1 -.1)">
<use xlink:href="#c"/>
<use x="63.623047" xlink:href="#f"/>
<use x="95.410156" xlink:href="#ae"/>
</g>
</g>
<g clip-path="url(#a)">
<defs>
<path id="ad" d="m31.781 34.625q-7.0312 0-11.062-3.7656-4.0156-3.7656-4.0156-10.344 0-6.5938 4.0156-10.359 4.0312-3.7656 11.062-3.7656t11.078 3.7812q4.0625 3.7969 4.0625 10.344 0 6.5781-4.0312 10.344-4.0156 3.7656-11.109 3.7656zm-9.8594 4.1875q-6.3438 1.5625-9.8906 5.9062-3.5312 4.3594-3.5312 10.609 0 8.7344 6.2188 13.812 6.2344 5.0781 17.062 5.0781 10.891 0 17.094-5.0781t6.2031-13.812q0-6.25-3.5469-10.609-3.5312-4.3438-9.8281-5.9062 7.125-1.6562 11.094-6.5 3.9844-4.8281 3.9844-11.797 0-10.609-6.4688-16.281-6.4688-5.6562-18.531-5.6562-12.047 0-18.531 5.6562-6.4688 5.6719-6.4688 16.281 0 6.9688 4 11.797 4.0156 4.8438 11.141 6.5zm-3.6094 15.578q0-5.6562 3.5312-8.8281 3.5469-3.1719 9.9375-3.1719 6.3594 0 9.9375 3.1719 3.5938 3.1719 3.5938 8.8281 0 5.6719-3.5938 8.8438-3.5781 3.1719-9.9375 3.1719-6.3906 0-9.9375-3.1719-3.5312-3.1719-3.5312-8.8438z"/>
</defs>
<g transform="translate(491.05 421.85) scale(.1 -.1)">
<use xlink:href="#c"/>
<use x="63.623047" xlink:href="#f"/>
<use x="95.410156" xlink:href="#ad"/>
</g>
</g>
<g clip-path="url(#a)">
<defs>
<path id="ac" d="m10.984 1.5156v8.9844q3.7188-1.7656 7.5156-2.6875 3.8125-0.92188 7.4844-0.92188 9.7656 0 14.906 6.5625 5.1562 6.5625 5.8906 19.953-2.8281-4.2031-7.1875-6.4531-4.3438-2.25-9.6094-2.25-10.938 0-17.312 6.6094-6.375 6.625-6.375 18.109 0 11.219 6.6406 18 6.6406 6.7969 17.672 6.7969 12.656 0 19.312-9.7031 6.6719-9.6875 6.6719-28.141 0-17.234-8.1875-27.516-8.1719-10.281-21.984-10.281-3.7188 0-7.5312 0.73438-3.7969 0.73438-7.9062 2.2031zm19.625 30.906q6.6406 0 10.516 4.5312 3.8906 4.5469 3.8906 12.469 0 7.8594-3.8906 12.422-3.875 4.5625-10.516 4.5625t-10.516-4.5625-3.875-12.422q0-7.9219 3.875-12.469 3.875-4.5312 10.516-4.5312z"/>
</defs>
<g transform="translate(689.74 227.36) scale(.1 -.1)">
<use xlink:href="#c"/>
<use x="63.623047" xlink:href="#f"/>
<use x="95.410156" xlink:href="#ac"/>
</g>
</g>
<g clip-path="url(#a)">
<defs>
<path id="ah" d="m31.781 66.406q-7.6094 0-11.453-7.5-3.8281-7.4844-3.8281-22.531 0-14.984 3.8281-22.484 3.8438-7.5 11.453-7.5 7.6719 0 11.5 7.5 3.8438 7.5 3.8438 22.484 0 15.047-3.8438 22.531-3.8281 7.5-11.5 7.5zm0 7.8125q12.266 0 18.734-9.7031 6.4688-9.6875 6.4688-28.141 0-18.406-6.4688-28.109-6.4688-9.6875-18.734-9.6875-12.25 0-18.719 9.6875-6.4688 9.7031-6.4688 28.109 0 18.453 6.4688 28.141 6.4688 9.7031 18.719 9.7031z"/>
</defs>
<g transform="translate(1063.8 518.42) scale(.1 -.1)">
<use xlink:href="#c"/>
<use x="63.623047" xlink:href="#f"/>
<use x="95.410156" xlink:href="#c"/>
<use x="159.033203" xlink:href="#ah"/>
</g>
</g>
<g clip-path="url(#a)">
<g transform="translate(653.51 421.85) scale(.1 -.1)">
<use xlink:href="#c"/>
<use x="63.623047" xlink:href="#f"/>
<use x="95.410156" xlink:href="#c"/>
<use x="159.033203" xlink:href="#c"/>
</g>
</g>
<g clip-path="url(#a)">
<g transform="translate(876.23 324.77) scale(.1 -.1)">
<use xlink:href="#c"/>
<use x="63.623047" xlink:href="#f"/>
<use x="95.410156" xlink:href="#c"/>
<use x="159.033203" xlink:href="#m"/>
</g>
</g>
<g clip-path="url(#a)">
<g transform="translate(754.79 518.42) scale(.1 -.1)">
<use xlink:href="#c"/>
<use x="63.623047" xlink:href="#f"/>
<use x="95.410156" xlink:href="#c"/>
<use x="159.033203" xlink:href="#n"/>
</g>
</g>
<g clip-path="url(#a)">
<g transform="translate(826.88 518.42) scale(.1 -.1)">
<use xlink:href="#c"/>
<use x="63.623047" xlink:href="#f"/>
<use x="95.410156" xlink:href="#c"/>
<use x="159.033203" xlink:href="#u"/>
</g>
</g>
<g clip-path="url(#a)">
<defs>
<path id="ag" d="m10.797 72.906h38.719v-8.3125h-29.688v-17.859q2.1406 0.73438 4.2812 1.0938 2.1562 0.35938 4.3125 0.35938 12.203 0 19.328-6.6875 7.1406-6.6875 7.1406-18.109 0-11.766-7.3281-18.297-7.3281-6.5156-20.656-6.5156-4.5938 0-9.3594 0.78125-4.75 0.78125-9.8281 2.3438v9.9219q4.3906-2.3906 9.0781-3.5625t9.9062-1.1719q8.4531 0 13.375 4.4375 4.9375 4.4375 4.9375 12.062 0 7.6094-4.9375 12.047-4.9219 4.4531-13.375 4.4531-3.9531 0-7.8906-0.875-3.9219-0.875-8.0156-2.7344z"/>
</defs>
<g transform="translate(941.89 421.85) scale(.1 -.1)">
<use xlink:href="#c"/>
<use x="63.623047" xlink:href="#f"/>
<use x="95.410156" xlink:href="#c"/>
<use x="159.033203" xlink:href="#ag"/>
</g>
</g>
<g clip-path="url(#a)">
<defs>
<path id="af" d="m33.016 40.375q-6.6406 0-10.531-4.5469-3.875-4.5312-3.875-12.438 0-7.8594 3.875-12.438 3.8906-4.5625 10.531-4.5625t10.516 4.5625q3.875 4.5781 3.875 12.438 0 7.9062-3.875 12.438-3.875 4.5469-10.516 4.5469zm19.578 30.922v-8.9844q-3.7188 1.75-7.5 2.6719-3.7812 0.9375-7.5 0.9375-9.7656 0-14.922-6.5938-5.1406-6.5938-5.875-19.922 2.875 4.25 7.2188 6.5156 4.3594 2.2656 9.5781 2.2656 10.984 0 17.359-6.6719 6.375-6.6562 6.375-18.125 0-11.234-6.6406-18.031-6.6406-6.7812-17.672-6.7812-12.656 0-19.344 9.6875-6.6875 9.7031-6.6875 28.109 0 17.281 8.2031 27.562t22.016 10.281q3.7188 0 7.5-0.73438t7.8906-2.1875z"/>
</defs>
<g transform="translate(981.37 518.42) scale(.1 -.1)">
<use xlink:href="#c"/>
<use x="63.623047" xlink:href="#f"/>
<use x="95.410156" xlink:href="#c"/>
<use x="159.033203" xlink:href="#af"/>
</g>
</g>
<g clip-path="url(#a)">
<g transform="translate(902.41 518.42) scale(.1 -.1)">
<use xlink:href="#c"/>
<use x="63.623047" xlink:href="#f"/>
<use x="95.410156" xlink:href="#c"/>
<use x="159.033203" xlink:href="#ae"/>
</g>
</g>
<g clip-path="url(#a)">
<g transform="translate(620.9 518.42) scale(.1 -.1)">
<use xlink:href="#c"/>
<use x="63.623047" xlink:href="#f"/>
<use x="95.410156" xlink:href="#c"/>
<use x="159.033203" xlink:href="#ad"/>
</g>
</g>
<g clip-path="url(#a)">
<g transform="translate(686.13 518.42) scale(.1 -.1)">
<use xlink:href="#c"/>
<use x="63.623047" xlink:href="#f"/>
<use x="95.410156" xlink:href="#c"/>
<use x="159.033203" xlink:href="#ac"/>
</g>
</g>
<g clip-path="url(#a)">
<g transform="translate(445.81 518.42) scale(.1 -.1)">
<use xlink:href="#c"/>
<use x="63.623047" xlink:href="#f"/>
<use x="95.410156" xlink:href="#m"/>
<use x="159.033203" xlink:href="#ah"/>
</g>
</g>
<g clip-path="url(#a)">
<g transform="translate(529.92 518.42) scale(.1 -.1)">
<use xlink:href="#c"/>
<use x="63.623047" xlink:href="#f"/>
<use x="95.410156" xlink:href="#m"/>
<use x="159.033203" xlink:href="#c"/>
</g>
</g>
<g clip-path="url(#a)">
<g transform="translate(84.193 324.77) scale(.1 -.1)">
<use xlink:href="#c"/>
<use x="63.623047" xlink:href="#f"/>
<use x="95.410156" xlink:href="#m"/>
<use x="159.033203" xlink:href="#m"/>
</g>
</g>
<g clip-path="url(#a)">
<g transform="translate(172.88 421.85) scale(.1 -.1)">
<use xlink:href="#c"/>
<use x="63.623047" xlink:href="#f"/>
<use x="95.410156" xlink:href="#m"/>
<use x="159.033203" xlink:href="#n"/>
</g>
</g>
<g clip-path="url(#a)">
<g transform="translate(262.14 518.42) scale(.1 -.1)">
<use xlink:href="#c"/>
<use x="63.623047" xlink:href="#f"/>
<use x="95.410156" xlink:href="#m"/>
<use x="159.033203" xlink:href="#u"/>
</g>
</g>
<g clip-path="url(#a)">
<g transform="translate(260.42 518.42) scale(.1 -.1)">
<use xlink:href="#c"/>
<use x="63.623047" xlink:href="#f"/>
<use x="95.410156" xlink:href="#m"/>
<use x="159.033203" xlink:href="#ag"/>
</g>
</g>
<g clip-path="url(#a)">
<g transform="translate(157.43 518.42) scale(.1 -.1)">
<use xlink:href="#c"/>
<use x="63.623047" xlink:href="#f"/>
<use x="95.410156" xlink:href="#m"/>
<use x="159.033203" xlink:href="#af"/>
</g>
</g>
<g clip-path="url(#a)">
<g transform="translate(188.33 518.42) scale(.1 -.1)">
<use xlink:href="#c"/>
<use x="63.623047" xlink:href="#f"/>
<use x="95.410156" xlink:href="#m"/>
<use x="159.033203" xlink:href="#ae"/>
</g>
</g>
<g clip-path="url(#a)">
<g transform="translate(61.305 421.85) scale(.1 -.1)">
<use xlink:href="#c"/>
<use x="63.623047" xlink:href="#f"/>
<use x="95.410156" xlink:href="#m"/>
<use x="159.033203" xlink:href="#ad"/>
</g>
</g>
<g clip-path="url(#a)">
<g transform="translate(107.08 421.85) scale(.1 -.1)">
<use xlink:href="#c"/>
<use x="63.623047" xlink:href="#f"/>
<use x="95.410156" xlink:href="#m"/>
<use x="159.033203" xlink:href="#ac"/>
</g>
</g>
<g clip-path="url(#a)">
<g transform="translate(85.337 518.42) scale(.1 -.1)">
<use xlink:href="#c"/>
<use x="63.623047" xlink:href="#f"/>
<use x="95.410156" xlink:href="#n"/>
<use x="159.033203" xlink:href="#ah"/>
</g>
</g>
<g clip-path="url(#a)">
<g transform="translate(105.94 518.42) scale(.1 -.1)">
<use xlink:href="#c"/>
<use x="63.623047" xlink:href="#f"/>
<use x="95.410156" xlink:href="#n"/>
<use x="159.033203" xlink:href="#c"/>
</g>
</g>
<g clip-path="url(#a)">
<g transform="translate(129.97 518.42) scale(.1 -.1)">
<use xlink:href="#c"/>
<use x="63.623047" xlink:href="#f"/>
<use x="95.410156" xlink:href="#n"/>
<use x="159.033203" xlink:href="#m"/>
</g>
</g>
<g clip-path="url(#a)">
<g transform="translate(54.439 518.42) scale(.1 -.1)">
<use xlink:href="#c"/>
<use x="63.623047" xlink:href="#f"/>
<use x="95.410156" xlink:href="#n"/>
<use x="159.033203" xlink:href="#n"/>
</g>
</g>
<g clip-path="url(#a)">
<g transform="translate(68.172 518.42) scale(.1 -.1)">
<use xlink:href="#c"/>
<use x="63.623047" xlink:href="#f"/>
<use x="95.410156" xlink:href="#n"/>
<use x="159.033203" xlink:href="#u"/>
</g>
</g>
<g clip-path="url(#a)">
<g transform="translate(346.25 518.42) scale(.1 -.1)">
<use xlink:href="#c"/>
<use x="63.623047" xlink:href="#f"/>
<use x="95.410156" xlink:href="#n"/>
<use x="159.033203" xlink:href="#ag"/>
</g>
</g>
<g clip-path="url(#a)">
<g transform="translate(1149.6 518.42) scale(.1 -.1)">
<use xlink:href="#c"/>
<use x="63.623047" xlink:href="#f"/>
<use x="95.410156" xlink:href="#n"/>
<use x="159.033203" xlink:href="#af"/>
</g>
</g>
<defs>
<clipPath id="a">
<rect width="1216" height="640"/>
</clipPath>
</defs>
</svg>
