<?xml version="1.0" encoding="UTF-8"?>
<!DOCTYPE svg  PUBLIC '-//W3C//DTD SVG 1.1//EN'  'http://www.w3.org/Graphics/SVG/1.1/DTD/svg11.dtd'>
<svg width="2077.3pt" height="1093.3pt" version="1.1" viewBox="0 0 2077.3 1093.3" xmlns="http://www.w3.org/2000/svg" xmlns:xlink="http://www.w3.org/1999/xlink">
<defs>
<style type="text/css">*{stroke-linecap:butt;stroke-linejoin:round;}</style>
</defs>
<path d="m0 1093.3h2077.3v-1093.3h-2077.3z" fill="#fff"/>
<g fill="none" stroke="#000">
<path d="m379.45 50.472v151.38" clip-path="url(#a)"/>
<path d="m379.45 201.85 465.86 147.31" clip-path="url(#a)"/>
<path d="m379.45 201.85-100.67 705.11" clip-path="url(#a)"/>
<path d="m379.45 201.85-54.617 705.11" clip-path="url(#a)"/>
<path d="m379.45 201.85-192.78 705.11" clip-path="url(#a)"/>
<path d="m379.45 201.85-146.72 705.11" clip-path="url(#a)"/>
<path d="m379.45 201.85-8.5627 705.11" clip-path="url(#a)"/>
<path d="m379.45 201.85 37.491 705.11" clip-path="url(#a)"/>
<path d="m845.31 349.15-704.69 557.8" clip-path="url(#a)"/>
<path d="m845.31 349.15-297.88 284.1" clip-path="url(#a)"/>
<path d="m845.31 349.15-201.94 284.1" clip-path="url(#a)"/>
<path d="m845.31 349.15 32.169 557.8" clip-path="url(#a)"/>
<path d="m845.31 349.15 245.86 143.65" clip-path="url(#a)"/>
<path d="m845.31 349.15 935.98 284.1" clip-path="url(#a)"/>
<path d="m845.31 349.15-750.75 557.8" clip-path="url(#a)"/>
<path d="m845.31 349.15-13.885 557.8" clip-path="url(#a)"/>
<path d="m845.31 349.15 78.222 557.8" clip-path="url(#a)"/>
<path d="m845.31 349.15 676.92 557.8" clip-path="url(#a)"/>
<path d="m278.78 906.96v135.91" clip-path="url(#a)"/>
<path d="m324.83 906.96v135.91" clip-path="url(#a)"/>
<path d="m140.62 906.96v135.91" clip-path="url(#a)"/>
<path d="m547.43 633.25-61.405 137.8" clip-path="url(#a)"/>
<path d="m547.43 633.25 7.6756 273.7" clip-path="url(#a)"/>
<path d="m547.43 633.25 53.73 273.7" clip-path="url(#a)"/>
<path d="m643.37 633.25 3.8378 273.7" clip-path="url(#a)"/>
<path d="m643.37 633.25 84.432 137.8" clip-path="url(#a)"/>
<path d="m643.37 633.25-88.27 273.7" clip-path="url(#a)" stroke-dasharray="3.7,1.6"/>
<path d="m877.48 906.96v135.91" clip-path="url(#a)"/>
<path d="m1091.2 492.8-121.58 414.15" clip-path="url(#a)"/>
<path d="m1091.2 492.8-75.528 414.15" clip-path="url(#a)"/>
<path d="m1091.2 492.8-29.474 414.15" clip-path="url(#a)"/>
<path d="m1091.2 492.8 210.01 140.45" clip-path="url(#a)"/>
<path d="m1091.2 492.8 16.579 414.15" clip-path="url(#a)"/>
<path d="m1781.3 633.25 201.49 409.61" clip-path="url(#a)"/>
<path d="m1781.3 633.25-213 273.7" clip-path="url(#a)"/>
<path d="m1781.3 633.25-120.89 273.7" clip-path="url(#a)"/>
<path d="m1781.3 633.25-28.784 137.8" clip-path="url(#a)"/>
<path d="m1781.3 633.25 63.324 273.7" clip-path="url(#a)"/>
<path d="m1781.3 633.25-166.95 273.7" clip-path="url(#a)"/>
<path d="m1781.3 633.25 109.38 273.7" clip-path="url(#a)"/>
<path d="m1781.3 633.25 155.43 273.7" clip-path="url(#a)"/>
<path d="m1568.3 906.96v135.91" clip-path="url(#a)"/>
<path d="m1660.4 906.96v135.91" clip-path="url(#a)"/>
<path d="m1752.5 771.05-46.054 135.91" clip-path="url(#a)"/>
<path d="m1752.5 771.05v135.91" clip-path="url(#a)"/>
<path d="m1752.5 771.05 46.054 135.91" clip-path="url(#a)"/>
<path d="m1844.6 906.96v135.91" clip-path="url(#a)"/>
<path d="m1706.4 906.96v135.91" clip-path="url(#a)"/>
<path d="m1752.5 906.96v135.91" clip-path="url(#a)"/>
<path d="m1798.6 906.96v135.91" clip-path="url(#a)"/>
<path d="m969.59 906.96v135.91" clip-path="url(#a)"/>
<path d="m1015.6 906.96v135.91" clip-path="url(#a)"/>
<path d="m1061.7 906.96v135.91" clip-path="url(#a)"/>
<path d="m1301.2 633.25-147.37 273.7" clip-path="url(#a)"/>
<path d="m1301.2 633.25-101.32 273.7" clip-path="url(#a)"/>
<path d="m1301.2 633.25 36.843 273.7" clip-path="url(#a)"/>
<path d="m1301.2 633.25 36.843 137.8" clip-path="url(#a)"/>
<path d="m1301.2 633.25 175 273.7" clip-path="url(#a)"/>
<path d="m1153.8 906.96v135.91" clip-path="url(#a)"/>
<path d="m1199.9 906.96v135.91" clip-path="url(#a)"/>
<path d="m1338 906.96-92.108 135.91" clip-path="url(#a)"/>
<path d="m1338 906.96 92.108 135.91" clip-path="url(#a)"/>
<path d="m1338 771.05-46.054 135.91" clip-path="url(#a)"/>
<path d="m1338 771.05v135.91" clip-path="url(#a)"/>
<path d="m1338 771.05 46.054 135.91" clip-path="url(#a)"/>
<path d="m1476.2 906.96v135.91" clip-path="url(#a)"/>
<path d="m1292 906.96v135.91" clip-path="url(#a)"/>
<path d="m1338 906.96v135.91" clip-path="url(#a)"/>
<path d="m1384.1 906.96v135.91" clip-path="url(#a)"/>
<path d="m647.21 906.96v135.91" clip-path="url(#a)"/>
<path d="m727.8 771.05-34.54 135.91" clip-path="url(#a)"/>
<path d="m727.8 771.05 34.54 135.91" clip-path="url(#a)"/>
<path d="m693.26 906.96v135.91" clip-path="url(#a)"/>
<path d="m762.34 906.96-23.027 135.91" clip-path="url(#a)"/>
<path d="m762.34 906.96 23.027 135.91" clip-path="url(#a)"/>
<path d="m486.02 771.05-23.027 135.91" clip-path="url(#a)"/>
<path d="m486.02 771.05 23.027 135.91" clip-path="url(#a)"/>
<path d="m555.1 906.96v135.91" clip-path="url(#a)"/>
<path d="m601.15 906.96v135.91" clip-path="url(#a)"/>
<path d="m462.99 906.96v135.91" clip-path="url(#a)"/>
<path d="m509.05 906.96v135.91" clip-path="url(#a)"/>
<path d="m94.562 906.96v135.91" clip-path="url(#a)"/>
<path d="m186.67 906.96v135.91" clip-path="url(#a)"/>
<path d="m232.72 906.96v135.91" clip-path="url(#a)"/>
<path d="m370.89 906.96v135.91" clip-path="url(#a)"/>
<path d="m416.94 906.96v135.91" clip-path="url(#a)"/>
<path d="m831.42 906.96v135.91" clip-path="url(#a)"/>
<path d="m923.53 906.96v135.91" clip-path="url(#a)"/>
<path d="m1107.7 906.96v135.91" clip-path="url(#a)"/>
<path d="m1522.2 906.96v135.91" clip-path="url(#a)"/>
<path d="m1614.3 906.96v135.91" clip-path="url(#a)"/>
<path d="m1890.7 906.96v135.91" clip-path="url(#a)"/>
<path d="m1936.7 906.96v135.91" clip-path="url(#a)"/>
</g>
<path d="m373.18 123.15v6.0162q0 2.4 2.4 2.4h7.7425q2.4 0 2.4-2.4v-6.0162q0-2.4-2.4-2.4h-7.7425q-2.4 0-2.4 2.4z" clip-path="url(#a)" fill="#fff" stroke="#fff"/>
<g clip-path="url(#a)">
<defs>
<path id="x" d="m9.8125 72.906h9.8594v-29.891h35.844v29.891h9.8594v-72.906h-9.8594v34.719h-35.844v-34.719h-9.8594z"/>
</defs>
<g transform="translate(377.24 123.15) rotate(90) scale(.08 -.08)">
<use xlink:href="#x"/>
</g>
</g>
<path d="m607.88 280.65 5.2179 1.6499q2.2883 0.72358 3.0119-1.5648l2.3343-7.3822q0.72358-2.2883-1.5648-3.0119l-5.2179-1.6499q-2.2883-0.72358-3.0119 1.5648l-2.3343 7.3822q-0.72358 2.2883 1.5648 3.0119z" clip-path="url(#a)" fill="#fff" stroke="#fff"/>
<g clip-path="url(#a)">
<defs>
<path id="q" d="m34.188 63.188-13.391-36.281h26.812zm-5.5781 9.7188h11.188l27.781-72.906h-10.25l-6.6406 18.703h-32.859l-6.6406-18.703h-10.406z"/>
</defs>
<g transform="translate(609.1 276.78) rotate(17.547) scale(.08 -.08)">
<use xlink:href="#q"/>
</g>
</g>
<path d="m334.98 557.68 0.68179-4.7753q0.33922-2.3759-2.0367-2.7151l-7.6648-1.0943q-2.3759-0.33922-2.7151 2.0367l-0.68179 4.7753q-0.33922 2.3759 2.0367 2.7151l7.6648 1.0943q2.3759 0.33922 2.7151-2.0367z" clip-path="url(#a)" fill="#fff" stroke="#fff"/>
<g clip-path="url(#a)">
<defs>
<path id="v" d="m19.672 64.797v-27.391h12.406q6.8906 0 10.641 3.5625 3.7656 3.5625 3.7656 10.156 0 6.5469-3.7656 10.109-3.75 3.5625-10.641 3.5625zm-9.8594 8.1094h22.266q12.266 0 18.531-5.5469 6.2812-5.5469 6.2812-16.234 0-10.797-6.2812-16.312-6.2656-5.5156-18.531-5.5156h-12.406v-29.297h-9.8594z"/>
</defs>
<g transform="translate(330.96 557.1) rotate(-81.875) scale(.08 -.08)">
<use xlink:href="#v"/>
</g>
</g>
<path d="m358.18 557.61 0.42263-5.4562q0.18534-2.3928-2.2075-2.5782l-7.7194-0.59793q-2.3928-0.18534-2.5782 2.2075l-0.42263 5.4562q-0.18534 2.3928 2.2075 2.5782l7.7194 0.59793q2.3928 0.18534 2.5782-2.2075z" clip-path="url(#a)" fill="#fff" stroke="#fff"/>
<g clip-path="url(#a)">
<g transform="translate(354.13 557.3) rotate(-85.571) scale(.08 -.08)">
<use xlink:href="#q"/>
</g>
</g>
<path d="m288.34 558.88 1.5441-5.6477q0.63294-2.315-1.6821-2.948l-7.4684-2.0419q-2.315-0.63294-2.948 1.6821l-1.5441 5.6477q-0.63294 2.315 1.6821 2.948l7.4684 2.0419q2.315 0.63294 2.948-1.6821z" clip-path="url(#a)" fill="#fff" stroke="#fff"/>
<g clip-path="url(#a)">
<defs>
<path id="p" d="m8.6875 72.906h9.9219v-44.297q0-11.719 4.2344-16.875 4.25-5.1406 13.781-5.1406 9.4688 0 13.719 5.1406 4.25 5.1562 4.25 16.875v44.297h9.9062v-45.516q0-14.25-7.0625-21.531-7.0469-7.2812-20.812-7.2812-13.828 0-20.891 7.2812-7.0469 7.2812-7.0469 21.531z"/>
</defs>
<g transform="translate(284.42 557.81) rotate(-74.709) scale(.08 -.08)">
<use xlink:href="#p"/>
</g>
</g>
<path d="m311.63 558.55 1.1928-5.7322q0.48894-2.3497-1.8607-2.8386l-7.5801-1.5773q-2.3497-0.48894-2.8386 1.8607l-1.1928 5.7322q-0.48894 2.3497 1.8607 2.8386l7.5801 1.5773q2.3497 0.48894 2.8386-1.8607z" clip-path="url(#a)" fill="#fff" stroke="#fff"/>
<g clip-path="url(#a)">
<g transform="translate(307.65 557.72) rotate(-78.245) scale(.08 -.08)">
<use xlink:href="#p"/>
</g>
</g>
<path d="m381.4 557.4 0.071097-5.8546q0.029144-2.3998-2.3707-2.429l-7.7419-0.094016q-2.3998-0.029144-2.429 2.3707l-0.071097 5.8546q-0.029143 2.3998 2.3707 2.429l7.7419 0.094017q2.3998 0.029143 2.429-2.3707z" clip-path="url(#a)" fill="#fff" stroke="#fff"/>
<g clip-path="url(#a)">
<g transform="translate(377.34 557.36) rotate(-89.304) scale(.08 -.08)">
<use xlink:href="#p"/>
</g>
</g>
<path d="m391.78 551.81 0.31088 5.8467q0.12743 2.3966 2.524 2.2692l7.7316-0.41109q2.3966-0.12743 2.2692-2.524l-0.31088-5.8467q-0.12743-2.3966-2.524-2.2692l-7.7316 0.41109q-2.3966 0.12743-2.2692 2.524z" clip-path="url(#a)" fill="#fff" stroke="#fff"/>
<g clip-path="url(#a)">
<g transform="translate(395.83 551.6) rotate(86.956) scale(.08 -.08)">
<use xlink:href="#p"/>
</g>
</g>
<path d="m494.5 634.84 4.7173-3.734q1.8818-1.4896 0.39226-3.3714l-4.8054-6.0708q-1.4896-1.8818-3.3714-0.39226l-4.7173 3.734q-1.8818 1.4896-0.39226 3.3714l4.8054 6.0708q1.4896 1.8818 3.3714 0.39226z" clip-path="url(#a)" fill="#fff" stroke="#fff"/>
<g clip-path="url(#a)">
<g transform="translate(491.97 631.65) rotate(-38.363) scale(.08 -.08)">
<use xlink:href="#x"/>
</g>
</g>
<path d="m698.52 497.82 4.3537-4.1522q1.7368-1.6564 0.080367-3.3932l-5.3436-5.6029q-1.6564-1.7368-3.3932-0.080368l-4.3537 4.1522q-1.7368 1.6564-0.080367 3.3932l5.3436 5.6029q1.6564 1.7368 3.3932 0.080367z" clip-path="url(#a)" fill="#fff" stroke="#fff"/>
<g clip-path="url(#a)">
<g transform="translate(695.71 494.88) rotate(-43.643) scale(.08 -.08)">
<use xlink:href="#x"/>
</g>
</g>
<path d="m747.71 497.29 3.4856-4.9037q1.3905-1.9562-0.56572-3.3466l-6.3107-4.4857q-1.9562-1.3905-3.3466 0.56572l-3.4856 4.9037q-1.3905 1.9562 0.56572 3.3466l6.3107 4.4857q1.9562 1.3905 3.3466-0.56572z" clip-path="url(#a)" fill="#fff" stroke="#fff"/>
<g clip-path="url(#a)">
<g transform="translate(744.4 494.93) rotate(-54.595) scale(.08 -.08)">
<use xlink:href="#x"/>
</g>
</g>
<path d="m855 626.19 0.25664 4.4501q0.13818 2.396 2.5342 2.2578l7.7297-0.44577q2.396-0.13818 2.2578-2.5342l-0.25664-4.4501q-0.13818-2.396-2.5342-2.2578l-7.7297 0.44577q-2.396 0.13818-2.2578 2.5342z" clip-path="url(#a)" fill="#fff" stroke="#fff"/>
<g clip-path="url(#a)">
<defs>
<path id="ak" d="m9.8125 72.906h9.8594v-64.609h35.5v-8.2969h-45.359z"/>
</defs>
<g transform="translate(859.06 625.96) rotate(86.699) scale(.08 -.08)">
<use xlink:href="#ak"/>
</g>
</g>
<path d="m962.48 424.88 5.1946 3.0351q2.0722 1.2108 3.283-0.86146l3.9059-6.6851q1.2108-2.0722-0.86146-3.283l-5.1946-3.0351q-2.0722-1.2108-3.283 0.86146l-3.9059 6.6851q-1.2108 2.0722 0.86146 3.283z" clip-path="url(#a)" fill="#fff" stroke="#fff"/>
<g clip-path="url(#a)">
<g transform="translate(964.53 421.37) rotate(30.297) scale(.08 -.08)">
<use xlink:href="#x"/>
</g>
</g>
<path d="m1308.6 496.33 5.7569 1.7474q2.2965 0.69708 2.9936-1.5995l2.2488-7.4087q0.69708-2.2965-1.5995-2.9936l-5.7569-1.7474q-2.2965-0.69708-2.9936 1.5995l-2.2488 7.4087q-0.69708 2.2965 1.5995 2.9936z" clip-path="url(#a)" fill="#fff" stroke="#fff"/>
<g clip-path="url(#a)">
<g transform="translate(1309.8 492.44) rotate(16.885) scale(.08 -.08)">
<use xlink:href="#x"/>
</g>
</g>
<path d="m471.33 634.83 4.6998-3.4919q1.9265-1.4314 0.49511-3.3578l-4.6176-6.2148q-1.4314-1.9265-3.3578-0.49511l-4.6998 3.4919q-1.9265 1.4314-0.49511 3.3578l4.6176 6.2148q1.4314 1.9265 3.3578 0.49511z" clip-path="url(#a)" fill="#fff" stroke="#fff"/>
<g clip-path="url(#a)">
<g transform="translate(468.9 631.57) rotate(-36.612) scale(.08 -.08)">
<use xlink:href="#p"/>
</g>
</g>
<path d="m844.56 631.14 0.1457-5.8532q0.059724-2.3993-2.3395-2.459l-7.7401-0.19267q-2.3993-0.059725-2.459 2.3395l-0.1457 5.8532q-0.059724 2.3993 2.3395 2.459l7.7401 0.19267q2.3993 0.059724 2.459-2.3395z" clip-path="url(#a)" fill="#fff" stroke="#fff"/>
<g clip-path="url(#a)">
<g transform="translate(840.5 631.04) rotate(-88.574) scale(.08 -.08)">
<use xlink:href="#p"/>
</g>
</g>
<path d="m877.8 626.03 0.81311 5.7983q0.3333 2.3767 2.71 2.0434l7.6675-1.0752q2.3767-0.3333 2.0434-2.71l-0.81311-5.7983q-0.3333-2.3767-2.71-2.0434l-7.6675 1.0752q-2.3767 0.3333-2.0434 2.71z" clip-path="url(#a)" fill="#fff" stroke="#fff"/>
<g clip-path="url(#a)">
<g transform="translate(881.83 625.46) rotate(82.017) scale(.08 -.08)">
<use xlink:href="#p"/>
</g>
</g>
<path d="m1177.5 631.03 4.5186 3.7234q1.8522 1.5262 3.3784-0.32594l4.9237-5.9752q1.5262-1.8522-0.32594-3.3784l-4.5186-3.7234q-1.8522-1.5262-3.3784 0.32594l-4.9237 5.9752q-1.5262 1.8522 0.32594 3.3784z" clip-path="url(#a)" fill="#fff" stroke="#fff"/>
<g clip-path="url(#a)">
<g transform="translate(1180.1 627.9) rotate(39.489) scale(.08 -.08)">
<use xlink:href="#p"/>
</g>
</g>
<path d="m272.51 957.27v35.285q0 2.4 2.4 2.4h7.7425q2.4 0 2.4-2.4v-35.285q0-2.4-2.4-2.4h-7.7425q-2.4 0-2.4 2.4z" clip-path="url(#a)" fill="#fff" stroke="#fff"/>
<g clip-path="url(#a)">
<defs>
<path id="k" d="m-0.29688 72.906h61.672v-8.3125h-25.875v-64.594h-9.9062v64.594h-25.891z"/>
<path id="d" d="m56.203 29.594v-4.3906h-41.312q0.59375-9.2812 5.5938-14.141t13.938-4.8594q5.1719 0 10.031 1.2656t9.6562 3.8125v-8.5q-4.8438-2.0469-9.9219-3.125t-10.297-1.0781q-13.094 0-20.734 7.6094-7.6406 7.625-7.6406 20.625 0 13.422 7.25 21.297 7.25 7.8906 19.562 7.8906 11.031 0 17.453-7.1094 6.4219-7.0938 6.4219-19.297zm-8.9844 2.6406q-0.09375 7.3594-4.125 11.75-4.0312 4.4062-10.672 4.4062-7.5156 0-12.031-4.25t-5.2031-11.969z"/>
<path id="g" d="m41.109 46.297q-1.5156 0.875-3.2969 1.2812-1.7812 0.42188-3.9219 0.42188-7.625 0-11.703-4.9531t-4.0781-14.234v-28.812h-9.0312v54.688h9.0312v-8.5q2.8438 4.9844 7.375 7.3906 4.5469 2.4219 11.047 2.4219 0.92188 0 2.0469-0.125 1.125-0.10938 2.4844-0.35938z"/>
<path id="l" d="m52 44.188q3.375 6.0625 8.0625 8.9375t11.031 2.875q8.5469 0 13.188-5.9844 4.6406-5.9688 4.6406-17v-33.016h-9.0312v32.719q0 7.8594-2.7969 11.656-2.7812 3.8125-8.4844 3.8125-6.9844 0-11.047-4.6406-4.0469-4.625-4.0469-12.641v-30.906h-9.0312v32.719q0 7.9062-2.7812 11.688t-8.5938 3.7812q-6.8906 0-10.953-4.6562-4.0469-4.6562-4.0469-12.625v-30.906h-9.0312v54.688h9.0312v-8.5q3.0781 5.0312 7.375 7.4219t10.203 2.3906q5.9688 0 10.141-3.0312 4.1719-3.0156 6.1719-8.7812z"/>
<path id="h" d="m9.4219 54.688h8.9844v-54.688h-8.9844zm0 21.297h8.9844v-11.391h-8.9844z"/>
<path id="e" d="m54.891 33.016v-33.016h-8.9844v32.719q0 7.7656-3.0312 11.609-3.0312 3.8594-9.0781 3.8594-7.2812 0-11.484-4.6406-4.2031-4.625-4.2031-12.641v-30.906h-9.0312v54.688h9.0312v-8.5q3.2344 4.9375 7.5938 7.375 4.375 2.4375 10.094 2.4375 9.4219 0 14.25-5.8281 4.8438-5.8281 4.8438-17.156z"/>
<path id="i" d="m34.281 27.484q-10.891 0-15.094-2.4844t-4.2031-8.5q0-4.7812 3.1562-7.5938 3.1562-2.7969 8.5625-2.7969 7.4844 0 12 5.2969t4.5156 14.078v2zm17.922 3.7188v-31.203h-8.9844v8.2969q-3.0781-4.9688-7.6719-7.3438t-11.234-2.375q-8.3906 0-13.359 4.7188-4.9531 4.7188-4.9531 12.625 0 9.2188 6.1719 13.906 6.1875 4.6875 18.438 4.6875h12.609v0.89062q0 6.2031-4.0781 9.5938t-11.453 3.3906q-4.6875 0-9.1406-1.125-4.4375-1.125-8.5312-3.375v8.3125q4.9219 1.9062 9.5625 2.8438 4.6406 0.95312 9.0312 0.95312 11.875 0 17.734-6.1562 5.8594-6.1406 5.8594-18.641z"/>
<path id="j" d="m9.4219 75.984h8.9844v-75.984h-8.9844z"/>
</defs>
<g transform="translate(276.57 957.27) rotate(90) scale(.08 -.08)">
<use xlink:href="#k"/>
<use x="60.818359" xlink:href="#d"/>
<use x="122.341797" xlink:href="#g"/>
<use x="163.439453" xlink:href="#l"/>
<use x="260.851562" xlink:href="#h"/>
<use x="288.634766" xlink:href="#e"/>
<use x="352.013672" xlink:href="#i"/>
<use x="413.292969" xlink:href="#j"/>
</g>
</g>
<path d="m318.56 957.27v35.285q0 2.4 2.4 2.4h7.7425q2.4 0 2.4-2.4v-35.285q0-2.4-2.4-2.4h-7.7425q-2.4 0-2.4 2.4z" clip-path="url(#a)" fill="#fff" stroke="#fff"/>
<g clip-path="url(#a)">
<g transform="translate(322.62 957.27) rotate(90) scale(.08 -.08)">
<use xlink:href="#k"/>
<use x="60.818359" xlink:href="#d"/>
<use x="122.341797" xlink:href="#g"/>
<use x="163.439453" xlink:href="#l"/>
<use x="260.851562" xlink:href="#h"/>
<use x="288.634766" xlink:href="#e"/>
<use x="352.013672" xlink:href="#i"/>
<use x="413.292969" xlink:href="#j"/>
</g>
</g>
<path d="m134.35 957.27v35.285q0 2.4 2.4 2.4h7.7425q2.4 0 2.4-2.4v-35.285q0-2.4-2.4-2.4h-7.7425q-2.4 0-2.4 2.4z" clip-path="url(#a)" fill="#fff" stroke="#fff"/>
<g clip-path="url(#a)">
<g transform="translate(138.41 957.27) rotate(90) scale(.08 -.08)">
<use xlink:href="#k"/>
<use x="60.818359" xlink:href="#d"/>
<use x="122.341797" xlink:href="#g"/>
<use x="163.439453" xlink:href="#l"/>
<use x="260.851562" xlink:href="#h"/>
<use x="288.634766" xlink:href="#e"/>
<use x="352.013672" xlink:href="#i"/>
<use x="413.292969" xlink:href="#j"/>
</g>
</g>
<path d="m521.34 707.2 2.2275-4.9986q0.97689-2.1922-1.2153-3.1691l-7.0721-3.1515q-2.1922-0.97689-3.1691 1.2153l-2.2275 4.9986q-0.97689 2.1922 1.2153 3.1691l7.0721 3.1515q2.1922 0.97689 3.1691-1.2153z" clip-path="url(#a)" fill="#fff" stroke="#fff"/>
<g clip-path="url(#a)">
<g transform="translate(517.63 705.55) rotate(-65.981) scale(.08 -.08)">
<use xlink:href="#q"/>
</g>
</g>
<path d="m544.93 767.87 0.13522 4.8219q0.067279 2.3991 2.4663 2.3318l7.7395-0.21704q2.3991-0.067278 2.3318-2.4663l-0.13522-4.8219q-0.067278-2.3991-2.4663-2.3318l-7.7395 0.21704q-2.3991 0.067279-2.3318 2.4663z" clip-path="url(#a)" fill="#fff" stroke="#fff"/>
<g clip-path="url(#a)">
<g transform="translate(548.99 767.76) rotate(88.394) scale(.08 -.08)">
<use xlink:href="#v"/>
</g>
</g>
<path d="m567.54 768.29 1.1866 6.0446q0.46231 2.3551 2.8174 1.8927l7.5975-1.4914q2.3551-0.46231 1.8927-2.8174l-1.1866-6.0446q-0.46231-2.3551-2.8174-1.8927l-7.5975 1.4914q-2.3551 0.46231-1.8927 2.8174z" clip-path="url(#a)" fill="#fff" stroke="#fff"/>
<g clip-path="url(#a)">
<defs>
<path id="am" d="m19.672 64.797v-56.688h11.922q15.094 0 22.094 6.8281 7 6.8438 7 21.594 0 14.641-7 21.453t-22.094 6.8125zm-9.8594 8.1094h20.266q21.188 0 31.094-8.8125 9.9219-8.8125 9.9219-27.562 0-18.859-9.9688-27.703-9.9531-8.8281-31.047-8.8281h-20.266z"/>
</defs>
<g transform="translate(571.53 767.51) rotate(78.894) scale(.08 -.08)">
<use xlink:href="#am"/>
</g>
</g>
<path d="m638.98 767.41 0.077936 5.5582q0.03365 2.3998 2.4334 2.3661l7.7417-0.10855q2.3998-0.033649 2.3661-2.4334l-0.077937-5.5582q-0.033649-2.3998-2.4334-2.3661l-7.7417 0.10855q-2.3998 0.033649-2.3661 2.4334z" clip-path="url(#a)" fill="#fff" stroke="#fff"/>
<g clip-path="url(#a)">
<defs>
<path id="ac" d="m44.391 34.188q3.1719-1.0781 6.1719-4.5938t6.0312-9.6719l10.016-19.922h-10.609l-9.3125 18.703q-3.625 7.3281-7.0156 9.7188t-9.25 2.3906h-10.75v-30.812h-9.8594v72.906h22.266q12.5 0 18.656-5.2344 6.1562-5.2188 6.1562-15.766 0-6.8906-3.2031-11.438-3.2031-4.5312-9.2969-6.2812zm-24.719 30.609v-25.875h12.406q7.125 0 10.766 3.2969t3.6406 9.6875-3.6406 9.6406-10.766 3.25z"/>
</defs>
<g transform="translate(643.04 767.36) rotate(89.197) scale(.08 -.08)">
<use xlink:href="#ac"/>
</g>
</g>
<path d="m678.81 703.09 2.8591 4.6662q1.2539 2.0464 3.3003 0.79251l6.6018-4.0451q2.0464-1.2539 0.79251-3.3003l-2.8591-4.6662q-1.2539-2.0464-3.3003-0.79251l-6.6018 4.0451q-2.0464 1.2539-0.79251 3.3003z" clip-path="url(#a)" fill="#fff" stroke="#fff"/>
<g clip-path="url(#a)">
<g transform="translate(682.28 700.97) rotate(58.503) scale(.08 -.08)">
<use xlink:href="#q"/>
</g>
</g>
<path d="m604.46 774.32 1.4806-4.5909q0.73665-2.2842-1.5475-3.0208l-7.3688-2.3765q-2.2842-0.73665-3.0208 1.5475l-1.4806 4.5909q-0.73665 2.2842 1.5475 3.0208l7.3688 2.3765q2.2842 0.73665 3.0208-1.5475z" clip-path="url(#a)" fill="#fff" stroke="#fff"/>
<g clip-path="url(#a)">
<g transform="translate(600.6 773.08) rotate(-72.125) scale(.08 -.08)">
<use xlink:href="#v"/>
</g>
</g>
<path d="m871.21 957.27v35.285q0 2.4 2.4 2.4h7.7425q2.4 0 2.4-2.4v-35.285q0-2.4-2.4-2.4h-7.7425q-2.4 0-2.4 2.4z" clip-path="url(#a)" fill="#fff" stroke="#fff"/>
<g clip-path="url(#a)">
<g transform="translate(875.27 957.27) rotate(90) scale(.08 -.08)">
<use xlink:href="#k"/>
<use x="60.818359" xlink:href="#d"/>
<use x="122.341797" xlink:href="#g"/>
<use x="163.439453" xlink:href="#l"/>
<use x="260.851562" xlink:href="#h"/>
<use x="288.634766" xlink:href="#e"/>
<use x="352.013672" xlink:href="#i"/>
<use x="413.292969" xlink:href="#j"/>
</g>
</g>
<path d="m1035.6 704.27 1.5415-5.2509q0.67604-2.3028-1.6268-2.9789l-7.429-2.1809q-2.3028-0.67604-2.9789 1.6268l-1.5415 5.2509q-0.67604 2.3028 1.6268 2.9789l7.429 2.1809q2.3028 0.67604 2.9789-1.6268z" clip-path="url(#a)" fill="#fff" stroke="#fff"/>
<g clip-path="url(#a)">
<g transform="translate(1031.7 703.13) rotate(-73.639) scale(.08 -.08)">
<use xlink:href="#q"/>
</g>
</g>
<path d="m1059 704.03 1.1052-6.06q0.43058-2.3611-1.9305-2.7916l-7.6169-1.3891q-2.3611-0.43058-2.7916 1.9305l-1.1052 6.0601q-0.43058 2.3611 1.9305 2.7916l7.6169 1.3891q2.3611 0.43058 2.7916-1.9305z" clip-path="url(#a)" fill="#fff" stroke="#fff"/>
<g clip-path="url(#a)">
<g transform="translate(1055 703.31) rotate(-79.665) scale(.08 -.08)">
<use xlink:href="#am"/>
</g>
</g>
<path d="m1082.5 702.73 0.34243-4.8116q0.17037-2.3939-2.2236-2.5643l-7.723-0.54963q-2.3939-0.17037-2.5643 2.2236l-0.34243 4.8116q-0.17037 2.3939 2.2236 2.5643l7.723 0.54963q2.3939 0.17037 2.5643-2.2236z" clip-path="url(#a)" fill="#fff" stroke="#fff"/>
<g clip-path="url(#a)">
<g transform="translate(1078.5 702.44) rotate(-85.929) scale(.08 -.08)">
<use xlink:href="#v"/>
</g>
</g>
<path d="m1190.4 566.72 4.5489 3.0423q1.995 1.3342 3.3292-0.66075l4.3042-6.4358q1.3342-1.995-0.66075-3.3292l-4.5489-3.0423q-1.995-1.3342-3.3292 0.66075l-4.3042 6.4358q-1.3342 1.995 0.66075 3.3292z" clip-path="url(#a)" fill="#fff" stroke="#fff"/>
<g clip-path="url(#a)">
<g transform="translate(1192.7 563.34) rotate(33.774) scale(.08 -.08)">
<use xlink:href="#q"/>
</g>
</g>
<path d="m1093.1 697.21 0.2342 5.8503q0.096 2.3981 2.4941 2.3021l7.7363-0.3097q2.3981-0.096 2.3021-2.4941l-0.2342-5.8503q-0.096-2.3981-2.4941-2.3021l-7.7363 0.3097q-2.3981 0.096-2.3021 2.4941z" clip-path="url(#a)" fill="#fff" stroke="#fff"/>
<g clip-path="url(#a)">
<g transform="translate(1097.1 697.04) rotate(87.708) scale(.08 -.08)">
<use xlink:href="#p"/>
</g>
</g>
<path d="m1875.3 838.66 2.1291 4.3284q1.0593 2.1536 3.2129 1.0942l6.9475-3.4175q2.1536-1.0593 1.0942-3.2129l-2.1291-4.3284q-1.0593-2.1536-3.2129-1.0942l-6.9475 3.4175q-2.1536 1.0593-1.0942 3.2129z" clip-path="url(#a)" fill="#fff" stroke="#fff"/>
<g clip-path="url(#a)">
<g transform="translate(1879 836.87) rotate(63.807) scale(.08 -.08)">
<use xlink:href="#v"/>
</g>
</g>
<path d="m1677.8 776.4 3.807-4.892q1.474-1.894-0.42007-3.368l-6.1103-4.7551q-1.894-1.474-3.368 0.42007l-3.807 4.892q-1.474 1.894 0.42007 3.368l6.1103 4.7551q1.894 1.474 3.368-0.42007z" clip-path="url(#a)" fill="#fff" stroke="#fff"/>
<g clip-path="url(#a)">
<defs>
<path id="ar" d="m59.516 10.406v19.578h-16.109v8.1094h25.875v-31.312q-5.7031-4.0469-12.594-6.125-6.875-2.0781-14.688-2.0781-17.094 0-26.75 9.9844-9.6406 10-9.6406 27.812 0 17.875 9.6406 27.859 9.6562 9.9844 26.75 9.9844 7.125 0 13.547-1.7656 6.4219-1.75 11.844-5.1719v-10.5q-5.4688 4.6406-11.625 6.9844t-12.938 2.3438q-13.391 0-20.109-7.4688-6.7031-7.4688-6.7031-22.266 0-14.75 6.7031-22.219 6.7188-7.4688 20.109-7.4688 5.2188 0 9.3125 0.90625 4.1094 0.90625 7.375 2.8125z"/>
</defs>
<g transform="translate(1674.6 773.91) rotate(-52.109) scale(.08 -.08)">
<use xlink:href="#ar"/>
</g>
</g>
<path d="m1725.5 775.14 2.2111-5.0059q0.96968-2.1954-1.2257-3.1651l-7.0824-3.1282q-2.1954-0.96968-3.1651 1.2257l-2.2111 5.0059q-0.96968 2.1954 1.2257 3.1651l7.0824 3.1282q2.1954 0.96968 3.1651-1.2257z" clip-path="url(#a)" fill="#fff" stroke="#fff"/>
<g clip-path="url(#a)">
<g transform="translate(1721.8 773.5) rotate(-66.169) scale(.08 -.08)">
<use xlink:href="#q"/>
</g>
</g>
<path d="m1772.5 706.11 1.119-5.3569q0.49073-2.3493-1.8586-2.84l-7.5789-1.5831q-2.3493-0.49073-2.84 1.8586l-1.119 5.3569q-0.49073 2.3493 1.8586 2.84l7.5789 1.5831q2.3493 0.49073 2.84-1.8586z" clip-path="url(#a)" fill="#fff" stroke="#fff"/>
<g clip-path="url(#a)">
<g transform="translate(1768.5 705.28) rotate(-78.201) scale(.08 -.08)">
<use xlink:href="#q"/>
</g>
</g>
<path d="m1806.1 768.52 1.3885 6.0015q0.54098 2.3382 2.8792 1.7973l7.5432-1.7452q2.3382-0.54098 1.7973-2.8792l-1.3885-6.0015q-0.54098-2.3382-2.8792-1.7973l-7.5432 1.7452q-2.3382 0.54098-1.7973 2.8792z" clip-path="url(#a)" fill="#fff" stroke="#fff"/>
<g clip-path="url(#a)">
<g transform="translate(1810.1 767.6) rotate(76.973) scale(.08 -.08)">
<use xlink:href="#am"/>
</g>
</g>
<path d="m1701.6 775.87 3.0489-4.9985q1.2498-2.0489-0.79918-3.2987l-6.6099-4.0317q-2.0489-1.2498-3.2987 0.79918l-3.0489 4.9985q-1.2498 2.0489 0.79918 3.2987l6.6099 4.0317q2.0489 1.2498 3.2987-0.79918z" clip-path="url(#a)" fill="#fff" stroke="#fff"/>
<g clip-path="url(#a)">
<g transform="translate(1698.2 773.75) rotate(-58.619) scale(.08 -.08)">
<use xlink:href="#p"/>
</g>
</g>
<path d="m1829.1 769.71 2.1727 5.4369q0.89062 2.2286 3.1192 1.338l7.1897-2.8732q2.2286-0.89062 1.338-3.1192l-2.1727-5.4369q-0.89062-2.2286-3.1192-1.338l-7.1897 2.8732q-2.2286 0.89062-1.338 3.1192z" clip-path="url(#a)" fill="#fff" stroke="#fff"/>
<g clip-path="url(#a)">
<g transform="translate(1832.8 768.21) rotate(68.217) scale(.08 -.08)">
<use xlink:href="#p"/>
</g>
</g>
<path d="m1852.1 770.66 2.8913 5.0913q1.1852 2.087 3.2721 0.9018l6.7326-3.8234q2.087-1.1852 0.9018-3.2721l-2.8913-5.0913q-1.1852-2.087-3.2721-0.9018l-6.7326 3.8234q-2.087 1.1852-0.9018 3.2721z" clip-path="url(#a)" fill="#fff" stroke="#fff"/>
<g clip-path="url(#a)">
<g transform="translate(1855.6 768.65) rotate(60.408) scale(.08 -.08)">
<use xlink:href="#p"/>
</g>
</g>
<path d="m1562 957.27v35.285q0 2.4 2.4 2.4h7.7425q2.4 0 2.4-2.4v-35.285q0-2.4-2.4-2.4h-7.7425q-2.4 0-2.4 2.4z" clip-path="url(#a)" fill="#fff" stroke="#fff"/>
<g clip-path="url(#a)">
<g transform="translate(1566.1 957.27) rotate(90) scale(.08 -.08)">
<use xlink:href="#k"/>
<use x="60.818359" xlink:href="#d"/>
<use x="122.341797" xlink:href="#g"/>
<use x="163.439453" xlink:href="#l"/>
<use x="260.851562" xlink:href="#h"/>
<use x="288.634766" xlink:href="#e"/>
<use x="352.013672" xlink:href="#i"/>
<use x="413.292969" xlink:href="#j"/>
</g>
</g>
<path d="m1654.1 957.27v35.285q0 2.4 2.4 2.4h7.7425q2.4 0 2.4-2.4v-35.285q0-2.4-2.4-2.4h-7.7425q-2.4 0-2.4 2.4z" clip-path="url(#a)" fill="#fff" stroke="#fff"/>
<g clip-path="url(#a)">
<g transform="translate(1658.2 957.27) rotate(90) scale(.08 -.08)">
<use xlink:href="#k"/>
<use x="60.818359" xlink:href="#d"/>
<use x="122.341797" xlink:href="#g"/>
<use x="163.439453" xlink:href="#l"/>
<use x="260.851562" xlink:href="#h"/>
<use x="288.634766" xlink:href="#e"/>
<use x="352.013672" xlink:href="#i"/>
<use x="413.292969" xlink:href="#j"/>
</g>
</g>
<path d="m1734.5 843.65 1.784-5.2647q0.77026-2.273-1.5028-3.0433l-7.3329-2.4849q-2.273-0.77026-3.0433 1.5028l-1.784 5.2647q-0.77026 2.273 1.5028 3.0433l7.3329 2.4849q2.273 0.77026 3.0433-1.5028z" clip-path="url(#a)" fill="#fff" stroke="#fff"/>
<g clip-path="url(#a)">
<g transform="translate(1730.7 842.34) rotate(-71.28) scale(.08 -.08)">
<use xlink:href="#ac"/>
</g>
</g>
<path d="m1746.2 836.48v5.055q0 2.4 2.4 2.4h7.7425q2.4 0 2.4-2.4v-5.055q0-2.4-2.4-2.4h-7.7425q-2.4 0-2.4 2.4z" clip-path="url(#a)" fill="#fff" stroke="#fff"/>
<g clip-path="url(#a)">
<defs>
<path id="ad" d="m9.8125 72.906h46.094v-8.3125h-36.234v-21.578h34.719v-8.2969h-34.719v-26.422h37.109v-8.2969h-46.969z"/>
</defs>
<g transform="translate(1750.3 836.48) rotate(90) scale(.08 -.08)">
<use xlink:href="#ad"/>
</g>
</g>
<path d="m1768.7 838.37 1.7929 5.2907q0.77026 2.273 3.0433 1.5028l7.3329-2.4849q2.273-0.77026 1.5028-3.0433l-1.7929-5.2907q-0.77026-2.273-3.0433-1.5028l-7.3329 2.4849q-2.273 0.77026-1.5028 3.0433z" clip-path="url(#a)" fill="#fff" stroke="#fff"/>
<g clip-path="url(#a)">
<defs>
<path id="aa" d="m64.406 67.281v-10.391q-4.9844 4.6406-10.625 6.9219-5.6406 2.2969-11.984 2.2969-12.5 0-19.141-7.6406t-6.6406-22.094q0-14.406 6.6406-22.047t19.141-7.6406q6.3438 0 11.984 2.2969t10.625 6.9375v-10.312q-5.1719-3.5156-10.969-5.2812-5.7812-1.75-12.219-1.75-16.562 0-26.094 10.125-9.5156 10.141-9.5156 27.672 0 17.578 9.5156 27.703 9.5312 10.141 26.094 10.141 6.5312 0 12.312-1.7344 5.7969-1.7344 10.875-5.2031z"/>
</defs>
<g transform="translate(1772.5 837.07) rotate(71.28) scale(.08 -.08)">
<use xlink:href="#aa"/>
</g>
</g>
<path d="m1838.3 957.27v35.285q0 2.4 2.4 2.4h7.7425q2.4 0 2.4-2.4v-35.285q0-2.4-2.4-2.4h-7.7425q-2.4 0-2.4 2.4z" clip-path="url(#a)" fill="#fff" stroke="#fff"/>
<g clip-path="url(#a)">
<g transform="translate(1842.4 957.27) rotate(90) scale(.08 -.08)">
<use xlink:href="#k"/>
<use x="60.818359" xlink:href="#d"/>
<use x="122.341797" xlink:href="#g"/>
<use x="163.439453" xlink:href="#l"/>
<use x="260.851562" xlink:href="#h"/>
<use x="288.634766" xlink:href="#e"/>
<use x="352.013672" xlink:href="#i"/>
<use x="413.292969" xlink:href="#j"/>
</g>
</g>
<path d="m1700.2 957.27v35.285q0 2.4 2.4 2.4h7.7425q2.4 0 2.4-2.4v-35.285q0-2.4-2.4-2.4h-7.7425q-2.4 0-2.4 2.4z" clip-path="url(#a)" fill="#fff" stroke="#fff"/>
<g clip-path="url(#a)">
<g transform="translate(1704.2 957.27) rotate(90) scale(.08 -.08)">
<use xlink:href="#k"/>
<use x="60.818359" xlink:href="#d"/>
<use x="122.341797" xlink:href="#g"/>
<use x="163.439453" xlink:href="#l"/>
<use x="260.851562" xlink:href="#h"/>
<use x="288.634766" xlink:href="#e"/>
<use x="352.013672" xlink:href="#i"/>
<use x="413.292969" xlink:href="#j"/>
</g>
</g>
<path d="m1746.2 957.27v35.285q0 2.4 2.4 2.4h7.7425q2.4 0 2.4-2.4v-35.285q0-2.4-2.4-2.4h-7.7425q-2.4 0-2.4 2.4z" clip-path="url(#a)" fill="#fff" stroke="#fff"/>
<g clip-path="url(#a)">
<g transform="translate(1750.3 957.27) rotate(90) scale(.08 -.08)">
<use xlink:href="#k"/>
<use x="60.818359" xlink:href="#d"/>
<use x="122.341797" xlink:href="#g"/>
<use x="163.439453" xlink:href="#l"/>
<use x="260.851562" xlink:href="#h"/>
<use x="288.634766" xlink:href="#e"/>
<use x="352.013672" xlink:href="#i"/>
<use x="413.292969" xlink:href="#j"/>
</g>
</g>
<path d="m1792.3 957.27v35.285q0 2.4 2.4 2.4h7.7425q2.4 0 2.4-2.4v-35.285q0-2.4-2.4-2.4h-7.7425q-2.4 0-2.4 2.4z" clip-path="url(#a)" fill="#fff" stroke="#fff"/>
<g clip-path="url(#a)">
<g transform="translate(1796.3 957.27) rotate(90) scale(.08 -.08)">
<use xlink:href="#k"/>
<use x="60.818359" xlink:href="#d"/>
<use x="122.341797" xlink:href="#g"/>
<use x="163.439453" xlink:href="#l"/>
<use x="260.851562" xlink:href="#h"/>
<use x="288.634766" xlink:href="#e"/>
<use x="352.013672" xlink:href="#i"/>
<use x="413.292969" xlink:href="#j"/>
</g>
</g>
<path d="m963.31 957.27v35.285q0 2.4 2.4 2.4h7.7425q2.4 0 2.4-2.4v-35.285q0-2.4-2.4-2.4h-7.7425q-2.4 0-2.4 2.4z" clip-path="url(#a)" fill="#fff" stroke="#fff"/>
<g clip-path="url(#a)">
<g transform="translate(967.38 957.27) rotate(90) scale(.08 -.08)">
<use xlink:href="#k"/>
<use x="60.818359" xlink:href="#d"/>
<use x="122.341797" xlink:href="#g"/>
<use x="163.439453" xlink:href="#l"/>
<use x="260.851562" xlink:href="#h"/>
<use x="288.634766" xlink:href="#e"/>
<use x="352.013672" xlink:href="#i"/>
<use x="413.292969" xlink:href="#j"/>
</g>
</g>
<path d="m1009.4 957.27v35.285q0 2.4 2.4 2.4h7.7425q2.4 0 2.4-2.4v-35.285q0-2.4-2.4-2.4h-7.7425q-2.4 0-2.4 2.4z" clip-path="url(#a)" fill="#fff" stroke="#fff"/>
<g clip-path="url(#a)">
<g transform="translate(1013.4 957.27) rotate(90) scale(.08 -.08)">
<use xlink:href="#k"/>
<use x="60.818359" xlink:href="#d"/>
<use x="122.341797" xlink:href="#g"/>
<use x="163.439453" xlink:href="#l"/>
<use x="260.851562" xlink:href="#h"/>
<use x="288.634766" xlink:href="#e"/>
<use x="352.013672" xlink:href="#i"/>
<use x="413.292969" xlink:href="#j"/>
</g>
</g>
<path d="m1055.4 957.27v35.285q0 2.4 2.4 2.4h7.7425q2.4 0 2.4-2.4v-35.285q0-2.4-2.4-2.4h-7.7425q-2.4 0-2.4 2.4z" clip-path="url(#a)" fill="#fff" stroke="#fff"/>
<g clip-path="url(#a)">
<g transform="translate(1059.5 957.27) rotate(90) scale(.08 -.08)">
<use xlink:href="#k"/>
<use x="60.818359" xlink:href="#d"/>
<use x="122.341797" xlink:href="#g"/>
<use x="163.439453" xlink:href="#l"/>
<use x="260.851562" xlink:href="#h"/>
<use x="288.634766" xlink:href="#e"/>
<use x="352.013672" xlink:href="#i"/>
<use x="413.292969" xlink:href="#j"/>
</g>
</g>
<path d="m1231.7 775.52 2.6353-4.8944q1.1378-2.1131-0.97534-3.251l-6.8171-3.6706q-2.1131-1.1378-3.251 0.97534l-2.6353 4.8944q-1.1378 2.1131 0.97534 3.251l6.8171 3.6706q2.1131 1.1378 3.251-0.97534z" clip-path="url(#a)" fill="#fff" stroke="#fff"/>
<g clip-path="url(#a)">
<g transform="translate(1228.1 773.6) rotate(-61.7) scale(.08 -.08)">
<use xlink:href="#ac"/>
</g>
</g>
<path d="m1255.4 774.85 1.8998-5.1322q0.83317-2.2507-1.4176-3.0839l-7.261-2.6879q-2.2507-0.83317-3.0839 1.4176l-1.8998 5.1322q-0.83317 2.2507 1.4176 3.0839l7.261 2.6879q2.2507 0.83317 3.0839-1.4176z" clip-path="url(#a)" fill="#fff" stroke="#fff"/>
<g clip-path="url(#a)">
<g transform="translate(1251.6 773.44) rotate(-69.687) scale(.08 -.08)">
<use xlink:href="#q"/>
</g>
</g>
<path d="m1313.1 768.55 0.64352 4.7806q0.32018 2.3785 2.6987 2.0584l7.6733-1.0329q2.3785-0.32018 2.0584-2.6987l-0.64352-4.7806q-0.32018-2.3785-2.6987-2.0584l-7.6733 1.0329q-2.3785 0.32018-2.0584 2.6987z" clip-path="url(#a)" fill="#fff" stroke="#fff"/>
<g clip-path="url(#a)">
<g transform="translate(1317.1 768.01) rotate(82.333) scale(.08 -.08)">
<use xlink:href="#v"/>
</g>
</g>
<path d="m1312.8 701.13 1.4135 5.2868q0.61992 2.3186 2.9385 1.6986l7.4798-1.9999q2.3186-0.61992 1.6986-2.9385l-1.4135-5.2868q-0.61992-2.3186-2.9385-1.6986l-7.4798 1.9999q-2.3186 0.61992-1.6986 2.9385z" clip-path="url(#a)" fill="#fff" stroke="#fff"/>
<g clip-path="url(#a)">
<g transform="translate(1316.8 700.08) rotate(75.031) scale(.08 -.08)">
<use xlink:href="#q"/>
</g>
</g>
<path d="m1382.2 771.54 2.4787 3.8766q1.2929 2.022 3.3149 0.72914l6.5231-4.1708q2.022-1.2929 0.72914-3.3149l-2.4787-3.8766q-1.2929-2.022-3.3149-0.72914l-6.5231 4.1708q-2.022 1.2929-0.72914 3.3149z" clip-path="url(#a)" fill="#fff" stroke="#fff"/>
<g clip-path="url(#a)">
<defs>
<path id="bb" d="m9.8125 72.906h41.891v-8.3125h-32.031v-21.484h28.906v-8.2969h-28.906v-34.812h-9.8594z"/>
</defs>
<g transform="translate(1385.6 769.36) rotate(57.405) scale(.08 -.08)">
<use xlink:href="#bb"/>
</g>
</g>
<path d="m1147.5 957.27v35.285q0 2.4 2.4 2.4h7.7425q2.4 0 2.4-2.4v-35.285q0-2.4-2.4-2.4h-7.7425q-2.4 0-2.4 2.4z" clip-path="url(#a)" fill="#fff" stroke="#fff"/>
<g clip-path="url(#a)">
<g transform="translate(1151.6 957.27) rotate(90) scale(.08 -.08)">
<use xlink:href="#k"/>
<use x="60.818359" xlink:href="#d"/>
<use x="122.341797" xlink:href="#g"/>
<use x="163.439453" xlink:href="#l"/>
<use x="260.851562" xlink:href="#h"/>
<use x="288.634766" xlink:href="#e"/>
<use x="352.013672" xlink:href="#i"/>
<use x="413.292969" xlink:href="#j"/>
</g>
</g>
<path d="m1193.6 957.27v35.285q0 2.4 2.4 2.4h7.7425q2.4 0 2.4-2.4v-35.285q0-2.4-2.4-2.4h-7.7425q-2.4 0-2.4 2.4z" clip-path="url(#a)" fill="#fff" stroke="#fff"/>
<g clip-path="url(#a)">
<g transform="translate(1197.6 957.27) rotate(90) scale(.08 -.08)">
<use xlink:href="#k"/>
<use x="60.818359" xlink:href="#d"/>
<use x="122.341797" xlink:href="#g"/>
<use x="163.439453" xlink:href="#l"/>
<use x="260.851562" xlink:href="#h"/>
<use x="288.634766" xlink:href="#e"/>
<use x="352.013672" xlink:href="#i"/>
<use x="413.292969" xlink:href="#j"/>
</g>
</g>
<path d="m1287.3 993.03 19.796-29.209q1.3465-1.9867-0.64026-3.3332l-6.4092-4.3437q-1.9867-1.3465-3.3332 0.64026l-19.796 29.209q-1.3465 1.9867 0.64025 3.3332l6.4092 4.3437q1.9867 1.3465 3.3332-0.64025z" clip-path="url(#a)" fill="#fff" stroke="#fff"/>
<g clip-path="url(#a)">
<g transform="translate(1283.9 990.75) rotate(-55.873) scale(.08 -.08)">
<use xlink:href="#k"/>
<use x="60.818359" xlink:href="#d"/>
<use x="122.341797" xlink:href="#g"/>
<use x="163.439453" xlink:href="#l"/>
<use x="260.851562" xlink:href="#h"/>
<use x="288.634766" xlink:href="#e"/>
<use x="352.013672" xlink:href="#i"/>
<use x="413.292969" xlink:href="#j"/>
</g>
</g>
<path d="m1369 963.82 19.796 29.209q1.3465 1.9867 3.3332 0.64025l6.4092-4.3437q1.9867-1.3465 0.64025-3.3332l-19.796-29.209q-1.3465-1.9867-3.3332-0.64026l-6.4092 4.3437q-1.9867 1.3465-0.64026 3.3332z" clip-path="url(#a)" fill="#fff" stroke="#fff"/>
<g clip-path="url(#a)">
<g transform="translate(1372.3 961.54) rotate(55.873) scale(.08 -.08)">
<use xlink:href="#k"/>
<use x="60.818359" xlink:href="#d"/>
<use x="122.341797" xlink:href="#g"/>
<use x="163.439453" xlink:href="#l"/>
<use x="260.851562" xlink:href="#h"/>
<use x="288.634766" xlink:href="#e"/>
<use x="352.013672" xlink:href="#i"/>
<use x="413.292969" xlink:href="#j"/>
</g>
</g>
<path d="m1320 843.65 1.784-5.2647q0.77026-2.273-1.5028-3.0433l-7.3329-2.4849q-2.273-0.77026-3.0433 1.5028l-1.784 5.2647q-0.77026 2.273 1.5028 3.0433l7.3329 2.4849q2.273 0.77026 3.0433-1.5028z" clip-path="url(#a)" fill="#fff" stroke="#fff"/>
<g clip-path="url(#a)">
<g transform="translate(1316.2 842.34) rotate(-71.28) scale(.08 -.08)">
<use xlink:href="#ac"/>
</g>
</g>
<path d="m1331.7 836.48v5.055q0 2.4 2.4 2.4h7.7425q2.4 0 2.4-2.4v-5.055q0-2.4-2.4-2.4h-7.7425q-2.4 0-2.4 2.4z" clip-path="url(#a)" fill="#fff" stroke="#fff"/>
<g clip-path="url(#a)">
<g transform="translate(1335.8 836.48) rotate(90) scale(.08 -.08)">
<use xlink:href="#ad"/>
</g>
</g>
<path d="m1354.2 838.37 1.7929 5.2907q0.77026 2.273 3.0433 1.5028l7.3329-2.4849q2.273-0.77026 1.5028-3.0433l-1.7929-5.2907q-0.77026-2.273-3.0433-1.5028l-7.3329 2.4849q-2.273 0.77026-1.5028 3.0433z" clip-path="url(#a)" fill="#fff" stroke="#fff"/>
<g clip-path="url(#a)">
<g transform="translate(1358.1 837.07) rotate(71.28) scale(.08 -.08)">
<use xlink:href="#aa"/>
</g>
</g>
<path d="m1469.9 957.27v35.285q0 2.4 2.4 2.4h7.7425q2.4 0 2.4-2.4v-35.285q0-2.4-2.4-2.4h-7.7425q-2.4 0-2.4 2.4z" clip-path="url(#a)" fill="#fff" stroke="#fff"/>
<g clip-path="url(#a)">
<g transform="translate(1474 957.27) rotate(90) scale(.08 -.08)">
<use xlink:href="#k"/>
<use x="60.818359" xlink:href="#d"/>
<use x="122.341797" xlink:href="#g"/>
<use x="163.439453" xlink:href="#l"/>
<use x="260.851562" xlink:href="#h"/>
<use x="288.634766" xlink:href="#e"/>
<use x="352.013672" xlink:href="#i"/>
<use x="413.292969" xlink:href="#j"/>
</g>
</g>
<path d="m1285.7 957.27v35.285q0 2.4 2.4 2.4h7.7425q2.4 0 2.4-2.4v-35.285q0-2.4-2.4-2.4h-7.7425q-2.4 0-2.4 2.4z" clip-path="url(#a)" fill="#fff" stroke="#fff"/>
<g clip-path="url(#a)">
<g transform="translate(1289.8 957.27) rotate(90) scale(.08 -.08)">
<use xlink:href="#k"/>
<use x="60.818359" xlink:href="#d"/>
<use x="122.341797" xlink:href="#g"/>
<use x="163.439453" xlink:href="#l"/>
<use x="260.851562" xlink:href="#h"/>
<use x="288.634766" xlink:href="#e"/>
<use x="352.013672" xlink:href="#i"/>
<use x="413.292969" xlink:href="#j"/>
</g>
</g>
<path d="m1331.7 957.27v35.285q0 2.4 2.4 2.4h7.7425q2.4 0 2.4-2.4v-35.285q0-2.4-2.4-2.4h-7.7425q-2.4 0-2.4 2.4z" clip-path="url(#a)" fill="#fff" stroke="#fff"/>
<g clip-path="url(#a)">
<g transform="translate(1335.8 957.27) rotate(90) scale(.08 -.08)">
<use xlink:href="#k"/>
<use x="60.818359" xlink:href="#d"/>
<use x="122.341797" xlink:href="#g"/>
<use x="163.439453" xlink:href="#l"/>
<use x="260.851562" xlink:href="#h"/>
<use x="288.634766" xlink:href="#e"/>
<use x="352.013672" xlink:href="#i"/>
<use x="413.292969" xlink:href="#j"/>
</g>
</g>
<path d="m1377.8 957.27v35.285q0 2.4 2.4 2.4h7.7425q2.4 0 2.4-2.4v-35.285q0-2.4-2.4-2.4h-7.7425q-2.4 0-2.4 2.4z" clip-path="url(#a)" fill="#fff" stroke="#fff"/>
<g clip-path="url(#a)">
<g transform="translate(1381.9 957.27) rotate(90) scale(.08 -.08)">
<use xlink:href="#k"/>
<use x="60.818359" xlink:href="#d"/>
<use x="122.341797" xlink:href="#g"/>
<use x="163.439453" xlink:href="#l"/>
<use x="260.851562" xlink:href="#h"/>
<use x="288.634766" xlink:href="#e"/>
<use x="352.013672" xlink:href="#i"/>
<use x="413.292969" xlink:href="#j"/>
</g>
</g>
<path d="m640.94 957.27v35.285q0 2.4 2.4 2.4h7.7425q2.4 0 2.4-2.4v-35.285q0-2.4-2.4-2.4h-7.7425q-2.4 0-2.4 2.4z" clip-path="url(#a)" fill="#fff" stroke="#fff"/>
<g clip-path="url(#a)">
<g transform="translate(645 957.27) rotate(90) scale(.08 -.08)">
<use xlink:href="#k"/>
<use x="60.818359" xlink:href="#d"/>
<use x="122.341797" xlink:href="#g"/>
<use x="163.439453" xlink:href="#l"/>
<use x="260.851562" xlink:href="#h"/>
<use x="288.634766" xlink:href="#e"/>
<use x="352.013672" xlink:href="#i"/>
<use x="413.292969" xlink:href="#j"/>
</g>
</g>
<path d="m715.99 843 1.2451-4.8992q0.59116-2.3261-1.7349-2.9172l-7.5039-1.9071q-2.3261-0.59116-2.9172 1.7349l-1.2451 4.8992q-0.59117 2.3261 1.7349 2.9172l7.5039 1.9071q2.3261 0.59116 2.9172-1.7349z" clip-path="url(#a)" fill="#fff" stroke="#fff"/>
<g clip-path="url(#a)">
<g transform="translate(712.05 842) rotate(-75.74) scale(.08 -.08)">
<use xlink:href="#ad"/>
</g>
</g>
<path d="m738.31 837.84 1.376 5.4141q0.59117 2.3261 2.9172 1.7349l7.5039-1.9071q2.3261-0.59117 1.7349-2.9172l-1.376-5.4141q-0.59116-2.3261-2.9172-1.7349l-7.5039 1.9071q-2.3261 0.59117-1.7349 2.9172z" clip-path="url(#a)" fill="#fff" stroke="#fff"/>
<g clip-path="url(#a)">
<g transform="translate(742.25 836.84) rotate(75.74) scale(.08 -.08)">
<use xlink:href="#aa"/>
</g>
</g>
<path d="m686.99 957.27v35.285q0 2.4 2.4 2.4h7.7425q2.4 0 2.4-2.4v-35.285q0-2.4-2.4-2.4h-7.7425q-2.4 0-2.4 2.4z" clip-path="url(#a)" fill="#fff" stroke="#fff"/>
<g clip-path="url(#a)">
<g transform="translate(691.06 957.27) rotate(90) scale(.08 -.08)">
<use xlink:href="#k"/>
<use x="60.818359" xlink:href="#d"/>
<use x="122.341797" xlink:href="#g"/>
<use x="163.439453" xlink:href="#l"/>
<use x="260.851562" xlink:href="#h"/>
<use x="288.634766" xlink:href="#e"/>
<use x="352.013672" xlink:href="#i"/>
<use x="413.292969" xlink:href="#j"/>
</g>
</g>
<path d="m754.07 993.35 5.8944-34.789q0.40092-2.3663-1.9654-2.7672l-7.6337-1.2934q-2.3663-0.40092-2.7672 1.9654l-5.8944 34.789q-0.40092 2.3663 1.9654 2.7672l7.6337 1.2934q2.3663 0.40093 2.7672-1.9654z" clip-path="url(#a)" fill="#fff" stroke="#fff"/>
<g clip-path="url(#a)">
<g transform="translate(750.06 992.67) rotate(-80.384) scale(.08 -.08)">
<use xlink:href="#k"/>
<use x="60.818359" xlink:href="#d"/>
<use x="122.341797" xlink:href="#g"/>
<use x="163.439453" xlink:href="#l"/>
<use x="260.851562" xlink:href="#h"/>
<use x="288.634766" xlink:href="#e"/>
<use x="352.013672" xlink:href="#i"/>
<use x="413.292969" xlink:href="#j"/>
</g>
</g>
<path d="m764.73 958.56 5.8944 34.789q0.40092 2.3663 2.7672 1.9654l7.6337-1.2934q2.3663-0.40092 1.9654-2.7672l-5.8944-34.789q-0.40092-2.3663-2.7672-1.9654l-7.6337 1.2934q-2.3663 0.40092-1.9654 2.7672z" clip-path="url(#a)" fill="#fff" stroke="#fff"/>
<g clip-path="url(#a)">
<g transform="translate(768.73 957.88) rotate(80.384) scale(.08 -.08)">
<use xlink:href="#k"/>
<use x="60.818359" xlink:href="#d"/>
<use x="122.341797" xlink:href="#g"/>
<use x="163.439453" xlink:href="#l"/>
<use x="260.851562" xlink:href="#h"/>
<use x="288.634766" xlink:href="#e"/>
<use x="352.013672" xlink:href="#i"/>
<use x="413.292969" xlink:href="#j"/>
</g>
</g>
<path d="m480.27 842.54 0.84445-4.984q0.40093-2.3663-1.9654-2.7672l-7.6337-1.2934q-2.3663-0.40092-2.7672 1.9654l-0.84445 4.984q-0.40092 2.3663 1.9654 2.7672l7.6337 1.2934q2.3663 0.40092 2.7672-1.9654z" clip-path="url(#a)" fill="#fff" stroke="#fff"/>
<g clip-path="url(#a)">
<g transform="translate(476.26 841.86) rotate(-80.384) scale(.08 -.08)">
<use xlink:href="#ad"/>
</g>
</g>
<path d="m490.88 837.3 0.9332 5.5078q0.40093 2.3663 2.7672 1.9654l7.6337-1.2934q2.3663-0.40092 1.9654-2.7672l-0.9332-5.5078q-0.40092-2.3663-2.7672-1.9654l-7.6337 1.2934q-2.3663 0.40092-1.9654 2.7672z" clip-path="url(#a)" fill="#fff" stroke="#fff"/>
<g clip-path="url(#a)">
<g transform="translate(494.89 836.62) rotate(80.384) scale(.08 -.08)">
<use xlink:href="#aa"/>
</g>
</g>
<path d="m548.83 957.27v35.285q0 2.4 2.4 2.4h7.7425q2.4 0 2.4-2.4v-35.285q0-2.4-2.4-2.4h-7.7425q-2.4 0-2.4 2.4z" clip-path="url(#a)" fill="#fff" stroke="#fff"/>
<g clip-path="url(#a)">
<g transform="translate(552.89 957.27) rotate(90) scale(.08 -.08)">
<use xlink:href="#k"/>
<use x="60.818359" xlink:href="#d"/>
<use x="122.341797" xlink:href="#g"/>
<use x="163.439453" xlink:href="#l"/>
<use x="260.851562" xlink:href="#h"/>
<use x="288.634766" xlink:href="#e"/>
<use x="352.013672" xlink:href="#i"/>
<use x="413.292969" xlink:href="#j"/>
</g>
</g>
<path d="m594.88 957.27v35.285q0 2.4 2.4 2.4h7.7425q2.4 0 2.4-2.4v-35.285q0-2.4-2.4-2.4h-7.7425q-2.4 0-2.4 2.4z" clip-path="url(#a)" fill="#fff" stroke="#fff"/>
<g clip-path="url(#a)">
<g transform="translate(598.95 957.27) rotate(90) scale(.08 -.08)">
<use xlink:href="#k"/>
<use x="60.818359" xlink:href="#d"/>
<use x="122.341797" xlink:href="#g"/>
<use x="163.439453" xlink:href="#l"/>
<use x="260.851562" xlink:href="#h"/>
<use x="288.634766" xlink:href="#e"/>
<use x="352.013672" xlink:href="#i"/>
<use x="413.292969" xlink:href="#j"/>
</g>
</g>
<path d="m456.72 957.27v35.285q0 2.4 2.4 2.4h7.7425q2.4 0 2.4-2.4v-35.285q0-2.4-2.4-2.4h-7.7425q-2.4 0-2.4 2.4z" clip-path="url(#a)" fill="#fff" stroke="#fff"/>
<g clip-path="url(#a)">
<g transform="translate(460.79 957.27) rotate(90) scale(.08 -.08)">
<use xlink:href="#k"/>
<use x="60.818359" xlink:href="#d"/>
<use x="122.341797" xlink:href="#g"/>
<use x="163.439453" xlink:href="#l"/>
<use x="260.851562" xlink:href="#h"/>
<use x="288.634766" xlink:href="#e"/>
<use x="352.013672" xlink:href="#i"/>
<use x="413.292969" xlink:href="#j"/>
</g>
</g>
<path d="m502.78 957.27v35.285q0 2.4 2.4 2.4h7.7425q2.4 0 2.4-2.4v-35.285q0-2.4-2.4-2.4h-7.7425q-2.4 0-2.4 2.4z" clip-path="url(#a)" fill="#fff" stroke="#fff"/>
<g clip-path="url(#a)">
<g transform="translate(506.84 957.27) rotate(90) scale(.08 -.08)">
<use xlink:href="#k"/>
<use x="60.818359" xlink:href="#d"/>
<use x="122.341797" xlink:href="#g"/>
<use x="163.439453" xlink:href="#l"/>
<use x="260.851562" xlink:href="#h"/>
<use x="288.634766" xlink:href="#e"/>
<use x="352.013672" xlink:href="#i"/>
<use x="413.292969" xlink:href="#j"/>
</g>
</g>
<path d="m88.291 957.27v35.285q0 2.4 2.4 2.4h7.7425q2.4 0 2.4-2.4v-35.285q0-2.4-2.4-2.4h-7.7425q-2.4 0-2.4 2.4z" clip-path="url(#a)" fill="#fff" stroke="#fff"/>
<g clip-path="url(#a)">
<g transform="translate(92.355 957.27) rotate(90) scale(.08 -.08)">
<use xlink:href="#k"/>
<use x="60.818359" xlink:href="#d"/>
<use x="122.341797" xlink:href="#g"/>
<use x="163.439453" xlink:href="#l"/>
<use x="260.851562" xlink:href="#h"/>
<use x="288.634766" xlink:href="#e"/>
<use x="352.013672" xlink:href="#i"/>
<use x="413.292969" xlink:href="#j"/>
</g>
</g>
<path d="m180.4 957.27v35.285q0 2.4 2.4 2.4h7.7425q2.4 0 2.4-2.4v-35.285q0-2.4-2.4-2.4h-7.7425q-2.4 0-2.4 2.4z" clip-path="url(#a)" fill="#fff" stroke="#fff"/>
<g clip-path="url(#a)">
<g transform="translate(184.46 957.27) rotate(90) scale(.08 -.08)">
<use xlink:href="#k"/>
<use x="60.818359" xlink:href="#d"/>
<use x="122.341797" xlink:href="#g"/>
<use x="163.439453" xlink:href="#l"/>
<use x="260.851562" xlink:href="#h"/>
<use x="288.634766" xlink:href="#e"/>
<use x="352.013672" xlink:href="#i"/>
<use x="413.292969" xlink:href="#j"/>
</g>
</g>
<path d="m226.45 957.27v35.285q0 2.4 2.4 2.4h7.7425q2.4 0 2.4-2.4v-35.285q0-2.4-2.4-2.4h-7.7425q-2.4 0-2.4 2.4z" clip-path="url(#a)" fill="#fff" stroke="#fff"/>
<g clip-path="url(#a)">
<g transform="translate(230.52 957.27) rotate(90) scale(.08 -.08)">
<use xlink:href="#k"/>
<use x="60.818359" xlink:href="#d"/>
<use x="122.341797" xlink:href="#g"/>
<use x="163.439453" xlink:href="#l"/>
<use x="260.851562" xlink:href="#h"/>
<use x="288.634766" xlink:href="#e"/>
<use x="352.013672" xlink:href="#i"/>
<use x="413.292969" xlink:href="#j"/>
</g>
</g>
<path d="m364.61 957.27v35.285q0 2.4 2.4 2.4h7.7425q2.4 0 2.4-2.4v-35.285q0-2.4-2.4-2.4h-7.7425q-2.4 0-2.4 2.4z" clip-path="url(#a)" fill="#fff" stroke="#fff"/>
<g clip-path="url(#a)">
<g transform="translate(368.68 957.27) rotate(90) scale(.08 -.08)">
<use xlink:href="#k"/>
<use x="60.818359" xlink:href="#d"/>
<use x="122.341797" xlink:href="#g"/>
<use x="163.439453" xlink:href="#l"/>
<use x="260.851562" xlink:href="#h"/>
<use x="288.634766" xlink:href="#e"/>
<use x="352.013672" xlink:href="#i"/>
<use x="413.292969" xlink:href="#j"/>
</g>
</g>
<path d="m410.67 957.27v35.285q0 2.4 2.4 2.4h7.7425q2.4 0 2.4-2.4v-35.285q0-2.4-2.4-2.4h-7.7425q-2.4 0-2.4 2.4z" clip-path="url(#a)" fill="#fff" stroke="#fff"/>
<g clip-path="url(#a)">
<g transform="translate(414.73 957.27) rotate(90) scale(.08 -.08)">
<use xlink:href="#k"/>
<use x="60.818359" xlink:href="#d"/>
<use x="122.341797" xlink:href="#g"/>
<use x="163.439453" xlink:href="#l"/>
<use x="260.851562" xlink:href="#h"/>
<use x="288.634766" xlink:href="#e"/>
<use x="352.013672" xlink:href="#i"/>
<use x="413.292969" xlink:href="#j"/>
</g>
</g>
<path d="m825.15 957.27v35.285q0 2.4 2.4 2.4h7.7425q2.4 0 2.4-2.4v-35.285q0-2.4-2.4-2.4h-7.7425q-2.4 0-2.4 2.4z" clip-path="url(#a)" fill="#fff" stroke="#fff"/>
<g clip-path="url(#a)">
<g transform="translate(829.22 957.27) rotate(90) scale(.08 -.08)">
<use xlink:href="#k"/>
<use x="60.818359" xlink:href="#d"/>
<use x="122.341797" xlink:href="#g"/>
<use x="163.439453" xlink:href="#l"/>
<use x="260.851562" xlink:href="#h"/>
<use x="288.634766" xlink:href="#e"/>
<use x="352.013672" xlink:href="#i"/>
<use x="413.292969" xlink:href="#j"/>
</g>
</g>
<path d="m917.26 957.27v35.285q0 2.4 2.4 2.4h7.7425q2.4 0 2.4-2.4v-35.285q0-2.4-2.4-2.4h-7.7425q-2.4 0-2.4 2.4z" clip-path="url(#a)" fill="#fff" stroke="#fff"/>
<g clip-path="url(#a)">
<g transform="translate(921.32 957.27) rotate(90) scale(.08 -.08)">
<use xlink:href="#k"/>
<use x="60.818359" xlink:href="#d"/>
<use x="122.341797" xlink:href="#g"/>
<use x="163.439453" xlink:href="#l"/>
<use x="260.851562" xlink:href="#h"/>
<use x="288.634766" xlink:href="#e"/>
<use x="352.013672" xlink:href="#i"/>
<use x="413.292969" xlink:href="#j"/>
</g>
</g>
<path d="m1101.5 957.27v35.285q0 2.4 2.4 2.4h7.7425q2.4 0 2.4-2.4v-35.285q0-2.4-2.4-2.4h-7.7425q-2.4 0-2.4 2.4z" clip-path="url(#a)" fill="#fff" stroke="#fff"/>
<g clip-path="url(#a)">
<g transform="translate(1105.5 957.27) rotate(90) scale(.08 -.08)">
<use xlink:href="#k"/>
<use x="60.818359" xlink:href="#d"/>
<use x="122.341797" xlink:href="#g"/>
<use x="163.439453" xlink:href="#l"/>
<use x="260.851562" xlink:href="#h"/>
<use x="288.634766" xlink:href="#e"/>
<use x="352.013672" xlink:href="#i"/>
<use x="413.292969" xlink:href="#j"/>
</g>
</g>
<path d="m1516 957.27v35.285q0 2.4 2.4 2.4h7.7425q2.4 0 2.4-2.4v-35.285q0-2.4-2.4-2.4h-7.7425q-2.4 0-2.4 2.4z" clip-path="url(#a)" fill="#fff" stroke="#fff"/>
<g clip-path="url(#a)">
<g transform="translate(1520 957.27) rotate(90) scale(.08 -.08)">
<use xlink:href="#k"/>
<use x="60.818359" xlink:href="#d"/>
<use x="122.341797" xlink:href="#g"/>
<use x="163.439453" xlink:href="#l"/>
<use x="260.851562" xlink:href="#h"/>
<use x="288.634766" xlink:href="#e"/>
<use x="352.013672" xlink:href="#i"/>
<use x="413.292969" xlink:href="#j"/>
</g>
</g>
<path d="m1608.1 957.27v35.285q0 2.4 2.4 2.4h7.7425q2.4 0 2.4-2.4v-35.285q0-2.4-2.4-2.4h-7.7425q-2.4 0-2.4 2.4z" clip-path="url(#a)" fill="#fff" stroke="#fff"/>
<g clip-path="url(#a)">
<g transform="translate(1612.1 957.27) rotate(90) scale(.08 -.08)">
<use xlink:href="#k"/>
<use x="60.818359" xlink:href="#d"/>
<use x="122.341797" xlink:href="#g"/>
<use x="163.439453" xlink:href="#l"/>
<use x="260.851562" xlink:href="#h"/>
<use x="288.634766" xlink:href="#e"/>
<use x="352.013672" xlink:href="#i"/>
<use x="413.292969" xlink:href="#j"/>
</g>
</g>
<path d="m1884.4 957.27v35.285q0 2.4 2.4 2.4h7.7425q2.4 0 2.4-2.4v-35.285q0-2.4-2.4-2.4h-7.7425q-2.4 0-2.4 2.4z" clip-path="url(#a)" fill="#fff" stroke="#fff"/>
<g clip-path="url(#a)">
<g transform="translate(1888.5 957.27) rotate(90) scale(.08 -.08)">
<use xlink:href="#k"/>
<use x="60.818359" xlink:href="#d"/>
<use x="122.341797" xlink:href="#g"/>
<use x="163.439453" xlink:href="#l"/>
<use x="260.851562" xlink:href="#h"/>
<use x="288.634766" xlink:href="#e"/>
<use x="352.013672" xlink:href="#i"/>
<use x="413.292969" xlink:href="#j"/>
</g>
</g>
<path d="m1930.4 957.27v35.285q0 2.4 2.4 2.4h7.7425q2.4 0 2.4-2.4v-35.285q0-2.4-2.4-2.4h-7.7425q-2.4 0-2.4 2.4z" clip-path="url(#a)" fill="#fff" stroke="#fff"/>
<g clip-path="url(#a)">
<g transform="translate(1934.5 957.27) rotate(90) scale(.08 -.08)">
<use xlink:href="#k"/>
<use x="60.818359" xlink:href="#d"/>
<use x="122.341797" xlink:href="#g"/>
<use x="163.439453" xlink:href="#l"/>
<use x="260.851562" xlink:href="#h"/>
<use x="288.634766" xlink:href="#e"/>
<use x="352.013672" xlink:href="#i"/>
<use x="413.292969" xlink:href="#j"/>
</g>
</g>
<defs>
<path id="b" d="m0 8.6603c2.2967 0 4.4997-0.9125 6.1237-2.5365 1.624-1.624 2.5365-3.827 2.5365-6.1237s-0.9125-4.4997-2.5365-6.1237c-1.624-1.624-3.827-2.5365-6.1237-2.5365s-4.4997 0.9125-6.1237 2.5365c-1.624 1.624-2.5365 3.827-2.5365 6.1237s0.9125 4.4997 2.5365 6.1237c1.624 1.624 3.827 2.5365 6.1237 2.5365z"/>
</defs>
<g clip-path="url(#a)">
<use x="94.562479" y="1042.86128" fill="#ffffff" stroke="#ffffff" xlink:href="#b"/>
</g>
<g clip-path="url(#a)">
<use x="140.616342" y="1042.86128" fill="#ffffff" stroke="#ffffff" xlink:href="#b"/>
</g>
<g clip-path="url(#a)">
<use x="186.670205" y="1042.86128" fill="#ffffff" stroke="#ffffff" xlink:href="#b"/>
</g>
<g clip-path="url(#a)">
<use x="232.724067" y="1042.86128" fill="#ffffff" stroke="#ffffff" xlink:href="#b"/>
</g>
<g clip-path="url(#a)">
<use x="278.77793" y="1042.86128" fill="#ffffff" stroke="#ffffff" xlink:href="#b"/>
</g>
<g clip-path="url(#a)">
<use x="324.831793" y="1042.86128" fill="#ffffff" stroke="#ffffff" xlink:href="#b"/>
</g>
<g clip-path="url(#a)">
<use x="370.885656" y="1042.86128" fill="#ffffff" stroke="#ffffff" xlink:href="#b"/>
</g>
<g clip-path="url(#a)">
<use x="416.939519" y="1042.86128" fill="#ffffff" stroke="#ffffff" xlink:href="#b"/>
</g>
<g clip-path="url(#a)">
<use x="462.993382" y="1042.86128" fill="#ffffff" stroke="#ffffff" xlink:href="#b"/>
</g>
<g clip-path="url(#a)">
<use x="509.047244" y="1042.86128" fill="#ffffff" stroke="#ffffff" xlink:href="#b"/>
</g>
<g clip-path="url(#a)">
<use x="555.101107" y="1042.86128" fill="#ffffff" stroke="#ffffff" xlink:href="#b"/>
</g>
<g clip-path="url(#a)">
<use x="601.15497" y="1042.86128" fill="#ffffff" stroke="#ffffff" xlink:href="#b"/>
</g>
<g clip-path="url(#a)">
<use x="647.208833" y="1042.86128" fill="#ffffff" stroke="#ffffff" xlink:href="#b"/>
</g>
<g clip-path="url(#a)">
<use x="693.262696" y="1042.86128" fill="#ffffff" stroke="#ffffff" xlink:href="#b"/>
</g>
<g clip-path="url(#a)">
<use x="739.316558" y="1042.86128" fill="#ffffff" stroke="#ffffff" xlink:href="#b"/>
</g>
<g clip-path="url(#a)">
<use x="785.370421" y="1042.86128" fill="#ffffff" stroke="#ffffff" xlink:href="#b"/>
</g>
<g clip-path="url(#a)">
<use x="831.424284" y="1042.86128" fill="#ffffff" stroke="#ffffff" xlink:href="#b"/>
</g>
<g clip-path="url(#a)">
<use x="877.478147" y="1042.86128" fill="#ffffff" stroke="#ffffff" xlink:href="#b"/>
</g>
<g clip-path="url(#a)">
<use x="923.53201" y="1042.86128" fill="#ffffff" stroke="#ffffff" xlink:href="#b"/>
</g>
<g clip-path="url(#a)">
<use x="969.585872" y="1042.86128" fill="#ffffff" stroke="#ffffff" xlink:href="#b"/>
</g>
<g clip-path="url(#a)">
<use x="1015.639735" y="1042.86128" fill="#ffffff" stroke="#ffffff" xlink:href="#b"/>
</g>
<g clip-path="url(#a)">
<use x="1061.693598" y="1042.86128" fill="#ffffff" stroke="#ffffff" xlink:href="#b"/>
</g>
<g clip-path="url(#a)">
<use x="1107.747461" y="1042.86128" fill="#ffffff" stroke="#ffffff" xlink:href="#b"/>
</g>
<g clip-path="url(#a)">
<use x="1153.801324" y="1042.86128" fill="#ffffff" stroke="#ffffff" xlink:href="#b"/>
</g>
<g clip-path="url(#a)">
<use x="1199.855187" y="1042.86128" fill="#ffffff" stroke="#ffffff" xlink:href="#b"/>
</g>
<g clip-path="url(#a)">
<use x="1245.909049" y="1042.86128" fill="#ffffff" stroke="#ffffff" xlink:href="#b"/>
</g>
<g clip-path="url(#a)">
<use x="1291.962912" y="1042.86128" fill="#ffffff" stroke="#ffffff" xlink:href="#b"/>
</g>
<g clip-path="url(#a)">
<use x="1338.016775" y="1042.86128" fill="#ffffff" stroke="#ffffff" xlink:href="#b"/>
</g>
<g clip-path="url(#a)">
<use x="1384.070638" y="1042.86128" fill="#ffffff" stroke="#ffffff" xlink:href="#b"/>
</g>
<g clip-path="url(#a)">
<use x="1430.124501" y="1042.86128" fill="#ffffff" stroke="#ffffff" xlink:href="#b"/>
</g>
<g clip-path="url(#a)">
<use x="1476.178363" y="1042.86128" fill="#ffffff" stroke="#ffffff" xlink:href="#b"/>
</g>
<g clip-path="url(#a)">
<use x="1522.232226" y="1042.86128" fill="#ffffff" stroke="#ffffff" xlink:href="#b"/>
</g>
<g clip-path="url(#a)">
<use x="1568.286089" y="1042.86128" fill="#ffffff" stroke="#ffffff" xlink:href="#b"/>
</g>
<g clip-path="url(#a)">
<use x="1614.339952" y="1042.86128" fill="#ffffff" stroke="#ffffff" xlink:href="#b"/>
</g>
<g clip-path="url(#a)">
<use x="1660.393815" y="1042.86128" fill="#ffffff" stroke="#ffffff" xlink:href="#b"/>
</g>
<g clip-path="url(#a)">
<use x="1706.447677" y="1042.86128" fill="#ffffff" stroke="#ffffff" xlink:href="#b"/>
</g>
<g clip-path="url(#a)">
<use x="1752.50154" y="1042.86128" fill="#ffffff" stroke="#ffffff" xlink:href="#b"/>
</g>
<g clip-path="url(#a)">
<use x="1798.555403" y="1042.86128" fill="#ffffff" stroke="#ffffff" xlink:href="#b"/>
</g>
<g clip-path="url(#a)">
<use x="1844.609266" y="1042.86128" fill="#ffffff" stroke="#ffffff" xlink:href="#b"/>
</g>
<g clip-path="url(#a)">
<use x="1890.663129" y="1042.86128" fill="#ffffff" stroke="#ffffff" xlink:href="#b"/>
</g>
<g clip-path="url(#a)">
<use x="1936.716992" y="1042.86128" fill="#ffffff" stroke="#ffffff" xlink:href="#b"/>
</g>
<g clip-path="url(#a)">
<use x="379.448385" y="50.472053" fill="#ffffff" stroke="#ffffff" xlink:href="#b"/>
</g>
<g clip-path="url(#a)">
<use x="379.448385" y="201.847105" fill="#ffffff" stroke="#ffffff" xlink:href="#b"/>
</g>
<g clip-path="url(#a)">
<use x="845.309524" y="349.153613" fill="#ffffff" stroke="#ffffff" xlink:href="#b"/>
</g>
<g clip-path="url(#a)">
<use x="278.77793" y="906.955491" fill="#ffffff" stroke="#ffffff" xlink:href="#b"/>
</g>
<g clip-path="url(#a)">
<use x="324.831793" y="906.955491" fill="#ffffff" stroke="#ffffff" xlink:href="#b"/>
</g>
<g clip-path="url(#a)">
<use x="140.616342" y="906.955491" fill="#ffffff" stroke="#ffffff" xlink:href="#b"/>
</g>
<g clip-path="url(#a)">
<use x="547.425463" y="633.253315" fill="#ffffff" stroke="#ffffff" xlink:href="#b"/>
</g>
<g clip-path="url(#a)">
<use x="643.371011" y="633.253315" fill="#ffffff" stroke="#ffffff" xlink:href="#b"/>
</g>
<g clip-path="url(#a)">
<use x="877.478147" y="906.955491" fill="#ffffff" stroke="#ffffff" xlink:href="#b"/>
</g>
<g clip-path="url(#a)">
<use x="1091.16807" y="492.803554" fill="#ffffff" stroke="#ffffff" xlink:href="#b"/>
</g>
<g clip-path="url(#a)">
<use x="1781.285205" y="633.253315" fill="#ffffff" stroke="#ffffff" xlink:href="#b"/>
</g>
<g clip-path="url(#a)">
<use x="1982.770854" y="1042.86128" fill="#ffffff" stroke="#ffffff" xlink:href="#b"/>
</g>
<g clip-path="url(#a)">
<use x="1568.286089" y="906.955491" fill="#ffffff" stroke="#ffffff" xlink:href="#b"/>
</g>
<g clip-path="url(#a)">
<use x="1660.393815" y="906.955491" fill="#ffffff" stroke="#ffffff" xlink:href="#b"/>
</g>
<g clip-path="url(#a)">
<use x="1752.50154" y="771.049703" fill="#ffffff" stroke="#ffffff" xlink:href="#b"/>
</g>
<g clip-path="url(#a)">
<use x="1844.609266" y="906.955491" fill="#ffffff" stroke="#ffffff" xlink:href="#b"/>
</g>
<g clip-path="url(#a)">
<use x="1706.447677" y="906.955491" fill="#ffffff" stroke="#ffffff" xlink:href="#b"/>
</g>
<g clip-path="url(#a)">
<use x="1752.50154" y="906.955491" fill="#ffffff" stroke="#ffffff" xlink:href="#b"/>
</g>
<g clip-path="url(#a)">
<use x="1798.555403" y="906.955491" fill="#ffffff" stroke="#ffffff" xlink:href="#b"/>
</g>
<g clip-path="url(#a)">
<use x="969.585872" y="906.955491" fill="#ffffff" stroke="#ffffff" xlink:href="#b"/>
</g>
<g clip-path="url(#a)">
<use x="1015.639735" y="906.955491" fill="#ffffff" stroke="#ffffff" xlink:href="#b"/>
</g>
<g clip-path="url(#a)">
<use x="1061.693598" y="906.955491" fill="#ffffff" stroke="#ffffff" xlink:href="#b"/>
</g>
<g clip-path="url(#a)">
<use x="1301.173685" y="633.253315" fill="#ffffff" stroke="#ffffff" xlink:href="#b"/>
</g>
<g clip-path="url(#a)">
<use x="1153.801324" y="906.955491" fill="#ffffff" stroke="#ffffff" xlink:href="#b"/>
</g>
<g clip-path="url(#a)">
<use x="1199.855187" y="906.955491" fill="#ffffff" stroke="#ffffff" xlink:href="#b"/>
</g>
<g clip-path="url(#a)">
<use x="1338.016775" y="906.955491" fill="#ffffff" stroke="#ffffff" xlink:href="#b"/>
</g>
<g clip-path="url(#a)">
<use x="1338.016775" y="771.049703" fill="#ffffff" stroke="#ffffff" xlink:href="#b"/>
</g>
<g clip-path="url(#a)">
<use x="1476.178363" y="906.955491" fill="#ffffff" stroke="#ffffff" xlink:href="#b"/>
</g>
<g clip-path="url(#a)">
<use x="1291.962912" y="906.955491" fill="#ffffff" stroke="#ffffff" xlink:href="#b"/>
</g>
<g clip-path="url(#a)">
<use x="1338.016775" y="906.955491" fill="#ffffff" stroke="#ffffff" xlink:href="#b"/>
</g>
<g clip-path="url(#a)">
<use x="1384.070638" y="906.955491" fill="#ffffff" stroke="#ffffff" xlink:href="#b"/>
</g>
<g clip-path="url(#a)">
<use x="647.208833" y="906.955491" fill="#ffffff" stroke="#ffffff" xlink:href="#b"/>
</g>
<g clip-path="url(#a)">
<use x="727.803093" y="771.049703" fill="#ffffff" stroke="#ffffff" xlink:href="#b"/>
</g>
<g clip-path="url(#a)">
<use x="693.262696" y="906.955491" fill="#ffffff" stroke="#ffffff" xlink:href="#b"/>
</g>
<g clip-path="url(#a)">
<use x="762.34349" y="906.955491" fill="#ffffff" stroke="#ffffff" xlink:href="#b"/>
</g>
<g clip-path="url(#a)">
<use x="486.020313" y="771.049703" fill="#ffffff" stroke="#ffffff" xlink:href="#b"/>
</g>
<g clip-path="url(#a)">
<use x="555.101107" y="906.955491" fill="#ffffff" stroke="#ffffff" xlink:href="#b"/>
</g>
<g clip-path="url(#a)">
<use x="601.15497" y="906.955491" fill="#ffffff" stroke="#ffffff" xlink:href="#b"/>
</g>
<g clip-path="url(#a)">
<use x="462.993382" y="906.955491" fill="#ffffff" stroke="#ffffff" xlink:href="#b"/>
</g>
<g clip-path="url(#a)">
<use x="509.047244" y="906.955491" fill="#ffffff" stroke="#ffffff" xlink:href="#b"/>
</g>
<g clip-path="url(#a)">
<use x="94.562479" y="906.955491" fill="#ffffff" stroke="#ffffff" xlink:href="#b"/>
</g>
<g clip-path="url(#a)">
<use x="186.670205" y="906.955491" fill="#ffffff" stroke="#ffffff" xlink:href="#b"/>
</g>
<g clip-path="url(#a)">
<use x="232.724067" y="906.955491" fill="#ffffff" stroke="#ffffff" xlink:href="#b"/>
</g>
<g clip-path="url(#a)">
<use x="370.885656" y="906.955491" fill="#ffffff" stroke="#ffffff" xlink:href="#b"/>
</g>
<g clip-path="url(#a)">
<use x="416.939519" y="906.955491" fill="#ffffff" stroke="#ffffff" xlink:href="#b"/>
</g>
<g clip-path="url(#a)">
<use x="831.424284" y="906.955491" fill="#ffffff" stroke="#ffffff" xlink:href="#b"/>
</g>
<g clip-path="url(#a)">
<use x="923.53201" y="906.955491" fill="#ffffff" stroke="#ffffff" xlink:href="#b"/>
</g>
<g clip-path="url(#a)">
<use x="1107.747461" y="906.955491" fill="#ffffff" stroke="#ffffff" xlink:href="#b"/>
</g>
<g clip-path="url(#a)">
<use x="1522.232226" y="906.955491" fill="#ffffff" stroke="#ffffff" xlink:href="#b"/>
</g>
<g clip-path="url(#a)">
<use x="1614.339952" y="906.955491" fill="#ffffff" stroke="#ffffff" xlink:href="#b"/>
</g>
<g clip-path="url(#a)">
<use x="1890.663129" y="906.955491" fill="#ffffff" stroke="#ffffff" xlink:href="#b"/>
</g>
<g clip-path="url(#a)">
<use x="1936.716992" y="906.955491" fill="#ffffff" stroke="#ffffff" xlink:href="#b"/>
</g>
<g clip-path="url(#a)">
<defs>
<path id="as" d="m9.4219 51.703 22.906-20.406v-4l-22.906-20.406v9.3281l14.703 13.078-14.703 13.094zm21.188 0 22.906-20.406v-4l-22.906-20.406v9.3281l14.703 13.078-14.703 13.094z"/>
</defs>
<g transform="translate(91.503 1045.6) scale(.1 -.1)">
<use xlink:href="#as"/>
</g>
</g>
<g clip-path="url(#a)">
<defs>
<path id="u" d="m54.891 33.016v-33.016h-8.9844v32.719q0 7.7656-3.0312 11.609-3.0312 3.8594-9.0781 3.8594-7.2812 0-11.484-4.6406-4.2031-4.625-4.2031-12.641v-30.906h-9.0312v75.984h9.0312v-29.797q3.2344 4.9375 7.5938 7.375 4.375 2.4375 10.094 2.4375 9.4219 0 14.25-5.8281 4.8438-5.8281 4.8438-17.156z"/>
</defs>
<g transform="translate(134.03 1045.6) scale(.1 -.1)">
<use xlink:href="#q"/>
<use x="68.408203" xlink:href="#u"/>
</g>
</g>
<g clip-path="url(#a)">
<defs>
<path id="an" d="m15.094 12.406h9.9062v-12.406h-9.9062zm0 60.5h9.9062v-31.984l-0.96875-17.438h-7.9219l-1.0156 17.438z"/>
</defs>
<g transform="translate(184.67 1045.6) scale(.1 -.1)">
<use xlink:href="#an"/>
</g>
</g>
<g clip-path="url(#a)">
<defs>
<path id="at" d="m51.812 51.703v-9.3125l-14.703-13.094 14.703-13.078v-9.3281l-22.906 20.406v4zm-21.203 0v-9.3125l-14.688-13.094 14.688-13.078v-9.3281l-22.891 20.406v4z"/>
</defs>
<g transform="translate(229.66 1045.6) scale(.1 -.1)">
<use xlink:href="#at"/>
</g>
</g>
<g clip-path="url(#a)">
<defs>
<path id="t" d="m44.281 53.078v-8.5q-3.7969 1.9531-7.9062 2.9219-4.0938 0.98438-8.5 0.98438-6.6875 0-10.031-2.0469t-3.3438-6.1562q0-3.125 2.3906-4.9062t9.625-3.3906l3.0781-0.6875q9.5625-2.0469 13.594-5.7812t4.0312-10.422q0-7.625-6.0312-12.078-6.0312-4.4375-16.578-4.4375-4.3906 0-9.1562 0.85938t-10.031 2.5625v9.2812q4.9844-2.5938 9.8125-3.8906 4.8281-1.2812 9.5781-1.2812 6.3438 0 9.75 2.1719 3.4219 2.1719 3.4219 6.125 0 3.6562-2.4688 5.6094-2.4531 1.9531-10.812 3.7656l-3.125 0.73438q-8.3438 1.75-12.062 5.3906-3.7031 3.6406-3.7031 9.9844 0 7.7188 5.4688 11.906 5.4688 4.2031 15.531 4.2031 4.9688 0 9.3594-0.73438 4.4062-0.71875 8.1094-2.1875z"/>
<path id="av" d="m45.406 27.984q0 9.7656-4.0312 15.125-4.0156 5.375-11.297 5.375-7.2188 0-11.25-5.375-4.0312-5.3594-4.0312-15.125 0-9.7188 4.0312-15.094t11.25-5.375q7.2812 0 11.297 5.375 4.0312 5.375 4.0312 15.094zm8.9844-21.203q0-13.953-6.2031-20.766-6.1875-6.8125-18.984-6.8125-4.7344 0-8.9375 0.70312t-8.1562 2.1719v8.7344q3.9531-2.1406 7.8125-3.1562 3.8594-1.0312 7.8594-1.0312 8.8438 0 13.234 4.6094t4.3906 13.938v4.4531q-2.7812-4.8438-7.125-7.2344t-10.406-2.3906q-10.047 0-16.203 7.6562-6.1562 7.6719-6.1562 20.328 0 12.688 6.1562 20.344 6.1562 7.6719 16.203 7.6719 6.0625 0 10.406-2.3906t7.125-7.2188v8.2969h8.9844z"/>
<path id="w" d="m18.312 70.219v-15.531h18.5v-6.9844h-18.5v-29.688q0-6.6875 1.8281-8.5938t7.4531-1.9062h9.2188v-7.5156h-9.2188q-10.406 0-14.359 3.875-3.9531 3.8906-3.9531 14.141v29.688h-6.5938v6.9844h6.5938v15.531z"/>
</defs>
<g transform="translate(264.9 1045.6) scale(.1 -.1)">
<use xlink:href="#t"/>
<use x="52.099609" xlink:href="#i"/>
<use x="113.378906" xlink:href="#av"/>
<use x="176.855469" xlink:href="#w"/>
<use x="216.064453" xlink:href="#d"/>
</g>
</g>
<g clip-path="url(#a)">
<g transform="translate(319.7 1045.6) scale(.1 -.1)">
<use xlink:href="#d"/>
<use x="61.523438" xlink:href="#g"/>
</g>
</g>
<g clip-path="url(#a)">
<defs>
<path id="ag" d="m11.719 12.406h10.297v-8.4062l-8-15.625h-6.2969l4 15.625z"/>
</defs>
<g transform="translate(369.3 1045.6) scale(.1 -.1)">
<use xlink:href="#ag"/>
</g>
</g>
<g clip-path="url(#a)">
<g transform="translate(413.88 1045.6) scale(.1 -.1)">
<use xlink:href="#as"/>
</g>
</g>
<g clip-path="url(#a)">
<defs>
<path id="ai" d="m45.406 46.391v29.594h8.9844v-75.984h-8.9844v8.2031q-2.8281-4.875-7.1562-7.25-4.3125-2.375-10.375-2.375-9.9062 0-16.141 7.9062-6.2188 7.9219-6.2188 20.812t6.2188 20.797q6.2344 7.9062 16.141 7.9062 6.0625 0 10.375-2.375 4.3281-2.3594 7.1562-7.2344zm-30.609-19.094q0-9.9062 4.0781-15.547t11.203-5.6406 11.219 5.6406q4.1094 5.6406 4.1094 15.547t-4.1094 15.547q-4.0938 5.6406-11.219 5.6406t-11.203-5.6406-4.0781-15.547z"/>
</defs>
<g transform="translate(454.15 1045.6) scale(.1 -.1)">
<use xlink:href="#ai"/>
<use x="63.476562" xlink:href="#i"/>
<use x="124.755859" xlink:href="#t"/>
</g>
</g>
<g clip-path="url(#a)">
<g transform="translate(499.47 1045.6) scale(.1 -.1)">
<use xlink:href="#k"/>
<use x="61.037109" xlink:href="#h"/>
<use x="88.820312" xlink:href="#d"/>
<use x="150.34375" xlink:href="#g"/>
</g>
</g>
<g clip-path="url(#a)">
<defs>
<path id="aw" d="m37.109 75.984v-7.4844h-8.5938q-4.8281 0-6.7188-1.9531-1.875-1.9531-1.875-7.0312v-4.8281h14.797v-6.9844h-14.797v-47.703h-9.0312v47.703h-8.5938v6.9844h8.5938v3.8125q0 9.125 4.25 13.297 4.25 4.1875 13.469 4.1875z"/>
<path id="bd" d="m34.281 27.484q-10.891 0-15.094-2.4844t-4.2031-8.5q0-4.7812 3.1562-7.5938 3.1562-2.7969 8.5625-2.7969 7.4844 0 12 5.2969t4.5156 14.078v2zm17.922 3.7188v-31.203h-8.9844v8.2969q-3.0781-4.9688-7.6719-7.3438t-11.234-2.375q-8.3906 0-13.359 4.7188-4.9531 4.7188-4.9531 12.625 0 9.2188 6.1719 13.906 6.1875 4.6875 18.438 4.6875h12.609v0.89062q0 6.2031-4.0781 9.5938t-11.453 3.3906q-4.6875 0-9.1406-1.125-4.4375-1.125-8.5312-3.375v8.3125q4.9219 1.9062 9.5625 2.8438 4.6406 0.95312 9.0312 0.95312 11.875 0 17.734-6.1562 5.8594-6.1406 5.8594-18.641zm-18.609 44.578h9.9062v-9.8594h-9.9062zm-19.094 0h9.9062v-9.8594h-9.9062z"/>
</defs>
<g transform="translate(543.09 1045.6) scale(.1 -.1)">
<use xlink:href="#aw"/>
<use x="35.205078" xlink:href="#bd"/>
<use x="96.484375" xlink:href="#u"/>
<use x="159.863281" xlink:href="#g"/>
<use x="200.976562" xlink:href="#w"/>
</g>
</g>
<g clip-path="url(#a)">
<defs>
<path id="z" d="m48.781 52.594v-8.4062q-3.8125 2.1094-7.6406 3.1562t-7.7344 1.0469q-8.75 0-13.594-5.5469-4.8281-5.5312-4.8281-15.547t4.8281-15.562q4.8438-5.5312 13.594-5.5312 3.9062 0 7.7344 1.0469t7.6406 3.1562v-8.3125q-3.7656-1.75-7.7969-2.625-4.0156-0.89062-8.5625-0.89062-12.359 0-19.641 7.7656-7.2656 7.7656-7.2656 20.953 0 13.375 7.3438 21.031 7.3594 7.6719 20.156 7.6719 4.1406 0 8.0938-0.85938 3.9531-0.84375 7.6719-2.5469z"/>
</defs>
<g transform="translate(578.48 1045.6) scale(.1 -.1)">
<use xlink:href="#t"/>
<use x="52.099609" xlink:href="#z"/>
<use x="107.080078" xlink:href="#u"/>
<use x="170.458984" xlink:href="#e"/>
<use x="233.837891" xlink:href="#d"/>
<use x="295.361328" xlink:href="#j"/>
<use x="323.144531" xlink:href="#j"/>
<use x="350.927734" xlink:href="#d"/>
<use x="412.451172" xlink:href="#g"/>
</g>
</g>
<g clip-path="url(#a)">
<g transform="translate(640.15 1045.6) scale(.1 -.1)">
<use xlink:href="#i"/>
<use x="61.279297" xlink:href="#j"/>
<use x="89.0625" xlink:href="#t"/>
</g>
</g>
<g clip-path="url(#a)">
<g transform="translate(685.62 1045.6) scale(.1 -.1)">
<use xlink:href="#ai"/>
<use x="63.476562" xlink:href="#h"/>
<use x="91.259766" xlink:href="#d"/>
</g>
</g>
<g clip-path="url(#a)">
<defs>
<path id="ay" d="m9.4219 51.703 22.906-20.406v-4l-22.906-20.406v9.3281l14.703 13.078-14.703 13.094z"/>
<path id="aq" d="m48.688 27.297q0 9.9062-4.0781 15.547t-11.203 5.6406q-7.1406 0-11.219-5.6406t-4.0781-15.547 4.0781-15.547 11.219-5.6406q7.125 0 11.203 5.6406t4.0781 15.547zm-30.578 19.094q2.8438 4.875 7.1562 7.2344 4.3281 2.375 10.328 2.375 9.9688 0 16.188-7.9062 6.2344-7.9062 6.2344-20.797t-6.2344-20.812q-6.2188-7.9062-16.188-7.9062-6 0-10.328 2.375-4.3125 2.375-7.1562 7.25v-8.2031h-9.0312v75.984h9.0312z"/>
</defs>
<g transform="translate(714.5 1045.6) scale(.1 -.1)">
<use xlink:href="#ay"/>
<use x="39.990234" xlink:href="#q"/>
<use x="108.398438" xlink:href="#aq"/>
<use x="171.875" xlink:href="#g"/>
<use x="212.988281" xlink:href="#i"/>
<use x="274.267578" xlink:href="#u"/>
<use x="337.646484" xlink:href="#i"/>
<use x="398.925781" xlink:href="#l"/>
</g>
</g>
<g clip-path="url(#a)">
<defs>
<path id="ah" d="m30.609 48.391q-7.2188 0-11.422-5.6406t-4.2031-15.453 4.1719-15.453q4.1875-5.6406 11.453-5.6406 7.1875 0 11.375 5.6562 4.2031 5.6719 4.2031 15.438 0 9.7188-4.2031 15.406-4.1875 5.6875-11.375 5.6875zm0 7.6094q11.719 0 18.406-7.625 6.7031-7.6094 6.7031-21.078 0-13.422-6.7031-21.078-6.6875-7.6406-18.406-7.6406-11.766 0-18.438 7.6406-6.6562 7.6562-6.6562 21.078 0 13.469 6.6562 21.078 6.6719 7.625 18.438 7.625z"/>
<path id="az" d="m30.609 51.703v-9.3125l-14.688-13.094 14.688-13.078v-9.3281l-22.891 20.406v4z"/>
</defs>
<g transform="translate(765.66 1045.6) scale(.1 -.1)">
<use xlink:href="#ak"/>
<use x="55.712891" xlink:href="#h"/>
<use x="83.496094" xlink:href="#e"/>
<use x="146.875" xlink:href="#z"/>
<use x="201.855469" xlink:href="#ah"/>
<use x="263.037109" xlink:href="#j"/>
<use x="290.820312" xlink:href="#e"/>
<use x="354.199219" xlink:href="#az"/>
</g>
</g>
<g clip-path="url(#a)">
<g transform="translate(829.42 1045.6) scale(.1 -.1)">
<use xlink:href="#an"/>
</g>
</g>
<g clip-path="url(#a)">
<defs>
<path id="ba" d="m9.8125 72.906h13.281l32.328-60.984v60.984h9.5625v-72.906h-13.281l-32.312 60.984v-60.984h-9.5781z"/>
<path id="au" d="m8.5 21.578v33.109h8.9844v-32.766q0-7.7656 3.0156-11.656 3.0312-3.875 9.0938-3.875 7.2656 0 11.484 4.6406 4.2344 4.6406 4.2344 12.656v31h8.9844v-54.688h-8.9844v8.4062q-3.2656-4.9844-7.5938-7.4062-4.3125-2.4219-10.031-2.4219-9.4219 0-14.312 5.8594-4.875 5.8594-4.875 17.141z"/>
</defs>
<g transform="translate(867.4 1045.6) scale(.1 -.1)">
<use xlink:href="#ba"/>
<use x="74.804688" xlink:href="#au"/>
<use x="138.183594" xlink:href="#e"/>
</g>
</g>
<g clip-path="url(#a)">
<g transform="translate(921.94 1045.6) scale(.1 -.1)">
<use xlink:href="#ag"/>
</g>
</g>
<g clip-path="url(#a)">
<defs>
<path id="ap" d="m4.2031 54.688h8.9844l11.234-42.672 11.172 42.672h10.594l11.234-42.672 11.188 42.672h8.9844l-14.312-54.688h-10.594l-11.766 44.828-11.812-44.828h-10.609z"/>
</defs>
<g transform="translate(962.05 1045.6) scale(.1 -.1)">
<use xlink:href="#ap"/>
<use x="81.787109" xlink:href="#h"/>
<use x="109.570312" xlink:href="#g"/>
</g>
</g>
<g clip-path="url(#a)">
<g transform="translate(999.47 1045.6) scale(.1 -.1)">
<use xlink:href="#ap"/>
<use x="81.787109" xlink:href="#ah"/>
<use x="142.96875" xlink:href="#j"/>
<use x="170.751953" xlink:href="#j"/>
<use x="198.535156" xlink:href="#d"/>
<use x="260.058594" xlink:href="#e"/>
</g>
</g>
<g clip-path="url(#a)">
<g transform="translate(1046.6 1045.6) scale(.1 -.1)">
<use xlink:href="#t"/>
<use x="52.099609" xlink:href="#d"/>
<use x="113.623047" xlink:href="#u"/>
<use x="177.001953" xlink:href="#d"/>
<use x="238.525391" xlink:href="#e"/>
</g>
</g>
<g clip-path="url(#a)">
<g transform="translate(1106.2 1045.6) scale(.1 -.1)">
<use xlink:href="#ag"/>
</g>
</g>
<g clip-path="url(#a)">
<g transform="translate(1147.6 1045.6) scale(.1 -.1)">
<use xlink:href="#ah"/>
<use x="61.181641" xlink:href="#aq"/>
</g>
</g>
<g clip-path="url(#a)">
<g transform="translate(1194.2 1045.6) scale(.1 -.1)">
<use xlink:href="#d"/>
<use x="61.523438" xlink:href="#t"/>
</g>
</g>
<g clip-path="url(#a)">
<g transform="translate(1236 1045.6) scale(.1 -.1)">
<use xlink:href="#t"/>
<use x="52.099609" xlink:href="#h"/>
<use x="79.882812" xlink:href="#z"/>
<use x="134.863281" xlink:href="#u"/>
</g>
</g>
<g clip-path="url(#a)">
<g transform="translate(1279.1 1045.6) scale(.1 -.1)">
<use xlink:href="#h"/>
<use x="27.783203" xlink:href="#u"/>
<use x="91.162109" xlink:href="#g"/>
<use x="132.244141" xlink:href="#d"/>
<use x="193.767578" xlink:href="#e"/>
</g>
</g>
<g clip-path="url(#a)">
<defs>
<path id="ax" d="m53.516 70.516v-9.625q-5.6094 2.6875-10.594 4-4.9844 1.3281-9.625 1.3281-8.0469 0-12.422-3.125t-4.375-8.8906q0-4.8438 2.9062-7.3125 2.9062-2.4531 11.016-3.9688l5.9531-1.2188q11.031-2.1094 16.281-7.4062t5.25-14.172q0-10.609-7.1094-16.078-7.0938-5.4688-20.812-5.4688-5.1719 0-11.016 1.1719-5.8281 1.1719-12.078 3.4688v10.156q6-3.3594 11.766-5.0781 5.7656-1.7031 11.328-1.7031 8.4375 0 13.031 3.3125 4.5938 3.3281 4.5938 9.4844 0 5.3594-3.2969 8.3906t-10.812 4.5469l-6.0156 1.1719q-11.031 2.1875-15.969 6.875-4.9219 4.6875-4.9219 13.047 0 9.6719 6.8125 15.234t18.766 5.5625q5.1406 0 10.453-0.9375 5.3281-0.92188 10.891-2.7656z"/>
<path id="bf" d="m18.109 8.2031v-29h-9.0312v75.484h9.0312v-8.2969q2.8438 4.875 7.1562 7.2344 4.3281 2.375 10.328 2.375 9.9688 0 16.188-7.9062 6.2344-7.9062 6.2344-20.797t-6.2344-20.812q-6.2188-7.9062-16.188-7.9062-6 0-10.328 2.375-4.3125 2.375-7.1562 7.25zm30.578 19.094q0 9.9062-4.0781 15.547t-11.203 5.6406q-7.1406 0-11.219-5.6406t-4.0781-15.547 4.0781-15.547 11.219-5.6406q7.125 0 11.203 5.6406t4.0781 15.547z"/>
<path id="ao" d="m5.5156 54.688h42.672v-8.2031l-33.781-39.312h33.781v-7.1719h-43.891v8.2031l33.797 39.312h-32.578z"/>
</defs>
<g transform="translate(1325.7 1045.6) scale(.1 -.1)">
<use xlink:href="#ax"/>
<use x="63.476562" xlink:href="#bf"/>
<use x="126.953125" xlink:href="#h"/>
<use x="154.736328" xlink:href="#w"/>
<use x="193.945312" xlink:href="#ao"/>
</g>
</g>
<g clip-path="url(#a)">
<defs>
<path id="bg" d="m9.0781 75.984h9.0312v-44.875l26.812 23.578h11.469l-29-25.578 30.234-29.109h-11.719l-27.797 26.703v-26.703h-9.0312z"/>
</defs>
<g transform="translate(1367.2 1045.6) scale(.1 -.1)">
<use xlink:href="#bg"/>
<use x="57.863281" xlink:href="#au"/>
<use x="121.242188" xlink:href="#av"/>
<use x="184.71875" xlink:href="#d"/>
<use x="246.242188" xlink:href="#j"/>
<use x="274.025391" xlink:href="#e"/>
</g>
</g>
<g clip-path="url(#a)">
<g transform="translate(1405.4 1045.6) scale(.1 -.1)">
<use xlink:href="#d"/>
<use x="61.523438" xlink:href="#e"/>
<use x="124.902344" xlink:href="#w"/>
<use x="164.111328" xlink:href="#ao"/>
<use x="216.601562" xlink:href="#h"/>
<use x="244.384766" xlink:href="#d"/>
<use x="305.908203" xlink:href="#u"/>
<use x="369.287109" xlink:href="#d"/>
<use x="430.810547" xlink:href="#e"/>
</g>
</g>
<g clip-path="url(#a)">
<g transform="translate(1465.5 1045.6) scale(.1 -.1)">
<use xlink:href="#ap"/>
<use x="81.787109" xlink:href="#h"/>
<use x="109.570312" xlink:href="#g"/>
<use x="150.667969" xlink:href="#ai"/>
</g>
</g>
<g clip-path="url(#a)">
<defs>
<path id="f" d="m10.688 12.406h10.312v-12.406h-10.312z"/>
</defs>
<g transform="translate(1520.6 1045.6) scale(.1 -.1)">
<use xlink:href="#f"/>
</g>
</g>
<g clip-path="url(#a)">
<defs>
<path id="aj" d="m9.8125 72.906h14.703l18.594-49.609 18.703 49.609h14.703v-72.906h-9.625v64.016l-18.797-50h-9.9062l-18.797 50v-64.016h-9.5781z"/>
</defs>
<g transform="translate(1549.8 1045.6) scale(.1 -.1)">
<use xlink:href="#aj"/>
<use x="86.279297" xlink:href="#d"/>
<use x="147.802734" xlink:href="#h"/>
<use x="175.585938" xlink:href="#t"/>
<use x="227.685547" xlink:href="#w"/>
<use x="266.894531" xlink:href="#d"/>
<use x="328.417969" xlink:href="#g"/>
</g>
</g>
<g clip-path="url(#a)">
<g transform="translate(1612.8 1045.6) scale(.1 -.1)">
<use xlink:href="#ag"/>
</g>
</g>
<g clip-path="url(#a)">
<g transform="translate(1631.4 1045.6) scale(.1 -.1)">
<use xlink:href="#aj"/>
<use x="86.279297" xlink:href="#i"/>
<use x="147.558594" xlink:href="#e"/>
<use x="210.9375" xlink:href="#e"/>
<use x="274.316406" xlink:href="#t"/>
<use x="326.416016" xlink:href="#z"/>
<use x="381.396484" xlink:href="#u"/>
<use x="444.775391" xlink:href="#i"/>
<use x="506.054688" xlink:href="#aw"/>
<use x="541.244141" xlink:href="#w"/>
</g>
</g>
<g clip-path="url(#a)">
<g transform="translate(1700.2 1045.6) scale(.1 -.1)">
<use xlink:href="#i"/>
<use x="61.279297" xlink:href="#e"/>
</g>
</g>
<g clip-path="url(#a)">
<g transform="translate(1743.7 1045.6) scale(.1 -.1)">
<use xlink:href="#ai"/>
<use x="63.476562" xlink:href="#i"/>
<use x="124.755859" xlink:href="#t"/>
</g>
</g>
<g clip-path="url(#a)">
<defs>
<path id="bc" d="m8.5 21.578v33.109h8.9844v-32.766q0-7.7656 3.0156-11.656 3.0312-3.875 9.0938-3.875 7.2656 0 11.484 4.6406 4.2344 4.6406 4.2344 12.656v31h8.9844v-54.688h-8.9844v8.4062q-3.2656-4.9844-7.5938-7.4062-4.3125-2.4219-10.031-2.4219-9.4219 0-14.312 5.8594-4.875 5.8594-4.875 17.141zm22.609 34.422m4.4844 19.781h9.9062v-9.8594h-9.9062zm-19.094 0h9.9062v-9.8594h-9.9062z"/>
</defs>
<g transform="translate(1775.3 1045.6) scale(.1 -.1)">
<use xlink:href="#ar"/>
<use x="77.490234" xlink:href="#d"/>
<use x="139.013672" xlink:href="#t"/>
<use x="191.113281" xlink:href="#z"/>
<use x="246.09375" xlink:href="#u"/>
<use x="309.472656" xlink:href="#bc"/>
<use x="372.851562" xlink:href="#w"/>
<use x="412.060547" xlink:href="#ao"/>
</g>
</g>
<g clip-path="url(#a)">
<defs>
<path id="be" d="m2.9844 54.688h9.5156l17.094-45.891 17.094 45.891h9.5156l-20.516-54.688h-12.203z"/>
</defs>
<g transform="translate(1830.3 1045.6) scale(.1 -.1)">
<use xlink:href="#be"/>
<use x="59.179688" xlink:href="#ah"/>
<use x="120.361328" xlink:href="#g"/>
<use x="161.458984" xlink:href="#e"/>
<use x="224.837891" xlink:href="#d"/>
</g>
</g>
<g clip-path="url(#a)">
<g transform="translate(1888.7 1045.6) scale(.1 -.1)">
<use xlink:href="#an"/>
</g>
</g>
<g clip-path="url(#a)">
<g transform="translate(1933.7 1045.6) scale(.1 -.1)">
<use xlink:href="#at"/>
</g>
</g>
<g clip-path="url(#a)">
<defs>
<path id="c" d="m12.406 8.2969h16.109v55.625l-17.531-3.5156v8.9844l17.438 3.5156h9.8594v-64.609h16.109v-8.2969h-41.984z"/>
</defs>
<g transform="translate(371.5 53.231) scale(.1 -.1)">
<use xlink:href="#c"/>
<use x="63.623047" xlink:href="#f"/>
<use x="95.410156" xlink:href="#c"/>
</g>
</g>
<g clip-path="url(#a)">
<defs>
<path id="s" d="m19.188 8.2969h34.422v-8.2969h-46.281v8.2969q5.6094 5.8125 15.297 15.594 9.7031 9.7969 12.188 12.641 4.7344 5.3125 6.6094 9 1.8906 3.6875 1.8906 7.25 0 5.8125-4.0781 9.4688-4.0781 3.6719-10.625 3.6719-4.6406 0-9.7969-1.6094-5.1406-1.6094-11-4.8906v9.9688q5.9531 2.3906 11.125 3.6094 5.1875 1.2188 9.4844 1.2188 11.328 0 18.062-5.6719 6.7344-5.6562 6.7344-15.125 0-4.5-1.6875-8.5312-1.6719-4.0156-6.125-9.4844-1.2188-1.4219-7.7656-8.1875-6.5312-6.7656-18.453-18.922z"/>
</defs>
<g transform="translate(371.5 204.61) scale(.1 -.1)">
<use xlink:href="#c"/>
<use x="63.623047" xlink:href="#f"/>
<use x="95.410156" xlink:href="#s"/>
</g>
</g>
<g clip-path="url(#a)">
<defs>
<path id="r" d="m33.016 40.375q-6.6406 0-10.531-4.5469-3.875-4.5312-3.875-12.438 0-7.8594 3.875-12.438 3.8906-4.5625 10.531-4.5625t10.516 4.5625q3.875 4.5781 3.875 12.438 0 7.9062-3.875 12.438-3.875 4.5469-10.516 4.5469zm19.578 30.922v-8.9844q-3.7188 1.75-7.5 2.6719-3.7812 0.9375-7.5 0.9375-9.7656 0-14.922-6.5938-5.1406-6.5938-5.875-19.922 2.875 4.25 7.2188 6.5156 4.3594 2.2656 9.5781 2.2656 10.984 0 17.359-6.6719 6.375-6.6562 6.375-18.125 0-11.234-6.6406-18.031-6.6406-6.7812-17.672-6.7812-12.656 0-19.344 9.6875-6.6875 9.7031-6.6875 28.109 0 17.281 8.2031 27.562t22.016 10.281q3.7188 0 7.5-0.73438t7.8906-2.1875z"/>
</defs>
<g transform="translate(837.36 351.91) scale(.1 -.1)">
<use xlink:href="#c"/>
<use x="63.623047" xlink:href="#f"/>
<use x="95.410156" xlink:href="#r"/>
</g>
</g>
<g clip-path="url(#a)">
<defs>
<path id="ab" d="m8.2031 72.906h46.875v-4.2031l-26.469-68.703h-10.297l24.906 64.594h-35.016z"/>
</defs>
<g transform="translate(270.83 909.71) scale(.1 -.1)">
<use xlink:href="#c"/>
<use x="63.623047" xlink:href="#f"/>
<use x="95.410156" xlink:href="#ab"/>
</g>
</g>
<g clip-path="url(#a)">
<defs>
<path id="y" d="m31.781 34.625q-7.0312 0-11.062-3.7656-4.0156-3.7656-4.0156-10.344 0-6.5938 4.0156-10.359 4.0312-3.7656 11.062-3.7656t11.078 3.7812q4.0625 3.7969 4.0625 10.344 0 6.5781-4.0312 10.344-4.0156 3.7656-11.109 3.7656zm-9.8594 4.1875q-6.3438 1.5625-9.8906 5.9062-3.5312 4.3594-3.5312 10.609 0 8.7344 6.2188 13.812 6.2344 5.0781 17.062 5.0781 10.891 0 17.094-5.0781t6.2031-13.812q0-6.25-3.5469-10.609-3.5312-4.3438-9.8281-5.9062 7.125-1.6562 11.094-6.5 3.9844-4.8281 3.9844-11.797 0-10.609-6.4688-16.281-6.4688-5.6562-18.531-5.6562-12.047 0-18.531 5.6562-6.4688 5.6719-6.4688 16.281 0 6.9688 4 11.797 4.0156 4.8438 11.141 6.5zm-3.6094 15.578q0-5.6562 3.5312-8.8281 3.5469-3.1719 9.9375-3.1719 6.3594 0 9.9375 3.1719 3.5938 3.1719 3.5938 8.8281 0 5.6719-3.5938 8.8438-3.5781 3.1719-9.9375 3.1719-6.3906 0-9.9375-3.1719-3.5312-3.1719-3.5312-8.8438z"/>
</defs>
<g transform="translate(316.88 909.71) scale(.1 -.1)">
<use xlink:href="#c"/>
<use x="63.623047" xlink:href="#f"/>
<use x="95.410156" xlink:href="#y"/>
</g>
</g>
<g clip-path="url(#a)">
<defs>
<path id="n" d="m40.578 39.312q7.0781-1.5156 11.047-6.3125 3.9844-4.7812 3.9844-11.812 0-10.781-7.4219-16.703-7.4219-5.9062-21.094-5.9062-4.5781 0-9.4375 0.90625t-10.031 2.7188v9.5156q4.0938-2.3906 8.9688-3.6094 4.8906-1.2188 10.219-1.2188 9.2656 0 14.125 3.6562t4.8594 10.641q0 6.4531-4.5156 10.078-4.5156 3.6406-12.562 3.6406h-8.5v8.1094h8.8906q7.2656 0 11.125 2.9062t3.8594 8.375q0 5.6094-3.9844 8.6094-3.9688 3.0156-11.391 3.0156-4.0625 0-8.7031-0.89062-4.6406-0.875-10.203-2.7188v8.7812q5.625 1.5625 10.531 2.3438t9.25 0.78125q11.234 0 17.766-5.1094 6.5469-5.0938 6.5469-13.781 0-6.0625-3.4688-10.234t-9.8594-5.7812z"/>
</defs>
<g transform="translate(129.48 909.71) scale(.1 -.1)">
<use xlink:href="#c"/>
<use x="63.623047" xlink:href="#f"/>
<use x="95.410156" xlink:href="#c"/>
<use x="159.033203" xlink:href="#n"/>
</g>
</g>
<g clip-path="url(#a)">
<defs>
<path id="m" d="m37.797 64.312-24.906-38.922h24.906zm-2.5938 8.5938h12.406v-47.516h10.406v-8.2031h-10.406v-17.188h-9.8125v17.188h-32.906v9.5156z"/>
</defs>
<g transform="translate(536.29 636.01) scale(.1 -.1)">
<use xlink:href="#c"/>
<use x="63.623047" xlink:href="#f"/>
<use x="95.410156" xlink:href="#c"/>
<use x="159.033203" xlink:href="#m"/>
</g>
</g>
<g clip-path="url(#a)">
<defs>
<path id="o" d="m10.797 72.906h38.719v-8.3125h-29.688v-17.859q2.1406 0.73438 4.2812 1.0938 2.1562 0.35938 4.3125 0.35938 12.203 0 19.328-6.6875 7.1406-6.6875 7.1406-18.109 0-11.766-7.3281-18.297-7.3281-6.5156-20.656-6.5156-4.5938 0-9.3594 0.78125-4.75 0.78125-9.8281 2.3438v9.9219q4.3906-2.3906 9.0781-3.5625t9.9062-1.1719q8.4531 0 13.375 4.4375 4.9375 4.4375 4.9375 12.062 0 7.6094-4.9375 12.047-4.9219 4.4531-13.375 4.4531-3.9531 0-7.8906-0.875-3.9219-0.875-8.0156-2.7344z"/>
</defs>
<g transform="translate(632.24 636.01) scale(.1 -.1)">
<use xlink:href="#c"/>
<use x="63.623047" xlink:href="#f"/>
<use x="95.410156" xlink:href="#c"/>
<use x="159.033203" xlink:href="#o"/>
</g>
</g>
<g clip-path="url(#a)">
<g transform="translate(866.35 909.71) scale(.1 -.1)">
<use xlink:href="#c"/>
<use x="63.623047" xlink:href="#f"/>
<use x="95.410156" xlink:href="#c"/>
<use x="159.033203" xlink:href="#r"/>
</g>
</g>
<g clip-path="url(#a)">
<g transform="translate(1080 495.56) scale(.1 -.1)">
<use xlink:href="#c"/>
<use x="63.623047" xlink:href="#f"/>
<use x="95.410156" xlink:href="#c"/>
<use x="159.033203" xlink:href="#ab"/>
</g>
</g>
<g clip-path="url(#a)">
<g transform="translate(1770.2 636.01) scale(.1 -.1)">
<use xlink:href="#c"/>
<use x="63.623047" xlink:href="#f"/>
<use x="95.410156" xlink:href="#c"/>
<use x="159.033203" xlink:href="#y"/>
</g>
</g>
<g clip-path="url(#a)">
<defs>
<path id="al" d="m9.8125 72.906h9.8594v-72.906h-9.8594z"/>
</defs>
<g transform="translate(1961.7 1045.6) scale(.1 -.1)">
<use xlink:href="#al"/>
<use x="29.492188" xlink:href="#aj"/>
<use x="115.771484" xlink:href="#v"/>
<use x="176.074219" xlink:href="#ak"/>
<use x="231.787109" xlink:href="#al"/>
<use x="261.279297" xlink:href="#aa"/>
<use x="331.103516" xlink:href="#al"/>
<use x="360.595703" xlink:href="#k"/>
</g>
</g>
<g clip-path="url(#a)">
<g transform="translate(1557.2 909.71) scale(.1 -.1)">
<use xlink:href="#c"/>
<use x="63.623047" xlink:href="#f"/>
<use x="95.410156" xlink:href="#s"/>
<use x="159.033203" xlink:href="#n"/>
</g>
</g>
<g clip-path="url(#a)">
<g transform="translate(1649.3 909.71) scale(.1 -.1)">
<use xlink:href="#c"/>
<use x="63.623047" xlink:href="#f"/>
<use x="95.410156" xlink:href="#s"/>
<use x="159.033203" xlink:href="#m"/>
</g>
</g>
<g clip-path="url(#a)">
<g transform="translate(1741.4 773.81) scale(.1 -.1)">
<use xlink:href="#c"/>
<use x="63.623047" xlink:href="#f"/>
<use x="95.410156" xlink:href="#s"/>
<use x="159.033203" xlink:href="#o"/>
</g>
</g>
<g clip-path="url(#a)">
<g transform="translate(1833.5 909.71) scale(.1 -.1)">
<use xlink:href="#c"/>
<use x="63.623047" xlink:href="#f"/>
<use x="95.410156" xlink:href="#s"/>
<use x="159.033203" xlink:href="#r"/>
</g>
</g>
<g clip-path="url(#a)">
<g transform="translate(1695.3 909.71) scale(.1 -.1)">
<use xlink:href="#c"/>
<use x="63.623047" xlink:href="#f"/>
<use x="95.410156" xlink:href="#s"/>
<use x="159.033203" xlink:href="#y"/>
</g>
</g>
<g clip-path="url(#a)">
<defs>
<path id="ae" d="m10.984 1.5156v8.9844q3.7188-1.7656 7.5156-2.6875 3.8125-0.92188 7.4844-0.92188 9.7656 0 14.906 6.5625 5.1562 6.5625 5.8906 19.953-2.8281-4.2031-7.1875-6.4531-4.3438-2.25-9.6094-2.25-10.938 0-17.312 6.6094-6.375 6.625-6.375 18.109 0 11.219 6.6406 18 6.6406 6.7969 17.672 6.7969 12.656 0 19.312-9.7031 6.6719-9.6875 6.6719-28.141 0-17.234-8.1875-27.516-8.1719-10.281-21.984-10.281-3.7188 0-7.5312 0.73438-3.7969 0.73438-7.9062 2.2031zm19.625 30.906q6.6406 0 10.516 4.5312 3.8906 4.5469 3.8906 12.469 0 7.8594-3.8906 12.422-3.875 4.5625-10.516 4.5625t-10.516-4.5625-3.875-12.422q0-7.9219 3.875-12.469 3.875-4.5312 10.516-4.5312z"/>
</defs>
<g transform="translate(1741.4 909.71) scale(.1 -.1)">
<use xlink:href="#c"/>
<use x="63.623047" xlink:href="#f"/>
<use x="95.410156" xlink:href="#s"/>
<use x="159.033203" xlink:href="#ae"/>
</g>
</g>
<g clip-path="url(#a)">
<defs>
<path id="af" d="m31.781 66.406q-7.6094 0-11.453-7.5-3.8281-7.4844-3.8281-22.531 0-14.984 3.8281-22.484 3.8438-7.5 11.453-7.5 7.6719 0 11.5 7.5 3.8438 7.5 3.8438 22.484 0 15.047-3.8438 22.531-3.8281 7.5-11.5 7.5zm0 7.8125q12.266 0 18.734-9.7031 6.4688-9.6875 6.4688-28.141 0-18.406-6.4688-28.109-6.4688-9.6875-18.734-9.6875-12.25 0-18.719 9.6875-6.4688 9.7031-6.4688 28.109 0 18.453 6.4688 28.141 6.4688 9.7031 18.719 9.7031z"/>
</defs>
<g transform="translate(1787.4 909.71) scale(.1 -.1)">
<use xlink:href="#c"/>
<use x="63.623047" xlink:href="#f"/>
<use x="95.410156" xlink:href="#n"/>
<use x="159.033203" xlink:href="#af"/>
</g>
</g>
<g clip-path="url(#a)">
<g transform="translate(958.45 909.71) scale(.1 -.1)">
<use xlink:href="#c"/>
<use x="63.623047" xlink:href="#f"/>
<use x="95.410156" xlink:href="#n"/>
<use x="159.033203" xlink:href="#c"/>
</g>
</g>
<g clip-path="url(#a)">
<g transform="translate(1004.5 909.71) scale(.1 -.1)">
<use xlink:href="#c"/>
<use x="63.623047" xlink:href="#f"/>
<use x="95.410156" xlink:href="#n"/>
<use x="159.033203" xlink:href="#s"/>
</g>
</g>
<g clip-path="url(#a)">
<g transform="translate(1050.6 909.71) scale(.1 -.1)">
<use xlink:href="#c"/>
<use x="63.623047" xlink:href="#f"/>
<use x="95.410156" xlink:href="#n"/>
<use x="159.033203" xlink:href="#n"/>
</g>
</g>
<g clip-path="url(#a)">
<g transform="translate(1290 636.01) scale(.1 -.1)">
<use xlink:href="#c"/>
<use x="63.623047" xlink:href="#f"/>
<use x="95.410156" xlink:href="#n"/>
<use x="159.033203" xlink:href="#m"/>
</g>
</g>
<g clip-path="url(#a)">
<g transform="translate(1142.7 909.71) scale(.1 -.1)">
<use xlink:href="#c"/>
<use x="63.623047" xlink:href="#f"/>
<use x="95.410156" xlink:href="#n"/>
<use x="159.033203" xlink:href="#r"/>
</g>
</g>
<g clip-path="url(#a)">
<g transform="translate(1188.7 909.71) scale(.1 -.1)">
<use xlink:href="#c"/>
<use x="63.623047" xlink:href="#f"/>
<use x="95.410156" xlink:href="#n"/>
<use x="159.033203" xlink:href="#ab"/>
</g>
</g>
<g clip-path="url(#a)">
<g transform="translate(1326.9 909.71) scale(.1 -.1)">
<use xlink:href="#c"/>
<use x="63.623047" xlink:href="#f"/>
<use x="95.410156" xlink:href="#n"/>
<use x="159.033203" xlink:href="#y"/>
</g>
</g>
<g clip-path="url(#a)">
<g transform="translate(1326.9 773.81) scale(.1 -.1)">
<use xlink:href="#c"/>
<use x="63.623047" xlink:href="#f"/>
<use x="95.410156" xlink:href="#n"/>
<use x="159.033203" xlink:href="#ae"/>
</g>
</g>
<g clip-path="url(#a)">
<g transform="translate(1465 909.71) scale(.1 -.1)">
<use xlink:href="#c"/>
<use x="63.623047" xlink:href="#f"/>
<use x="95.410156" xlink:href="#m"/>
<use x="159.033203" xlink:href="#af"/>
</g>
</g>
<g clip-path="url(#a)">
<g transform="translate(1280.8 909.71) scale(.1 -.1)">
<use xlink:href="#c"/>
<use x="63.623047" xlink:href="#f"/>
<use x="95.410156" xlink:href="#m"/>
<use x="159.033203" xlink:href="#c"/>
</g>
</g>
<g clip-path="url(#a)">
<g transform="translate(1326.9 909.71) scale(.1 -.1)">
<use xlink:href="#c"/>
<use x="63.623047" xlink:href="#f"/>
<use x="95.410156" xlink:href="#m"/>
<use x="159.033203" xlink:href="#s"/>
</g>
</g>
<g clip-path="url(#a)">
<g transform="translate(1372.9 909.71) scale(.1 -.1)">
<use xlink:href="#c"/>
<use x="63.623047" xlink:href="#f"/>
<use x="95.410156" xlink:href="#m"/>
<use x="159.033203" xlink:href="#n"/>
</g>
</g>
<g clip-path="url(#a)">
<g transform="translate(636.08 909.71) scale(.1 -.1)">
<use xlink:href="#c"/>
<use x="63.623047" xlink:href="#f"/>
<use x="95.410156" xlink:href="#m"/>
<use x="159.033203" xlink:href="#m"/>
</g>
</g>
<g clip-path="url(#a)">
<g transform="translate(716.67 773.81) scale(.1 -.1)">
<use xlink:href="#c"/>
<use x="63.623047" xlink:href="#f"/>
<use x="95.410156" xlink:href="#m"/>
<use x="159.033203" xlink:href="#o"/>
</g>
</g>
<g clip-path="url(#a)">
<g transform="translate(682.13 909.71) scale(.1 -.1)">
<use xlink:href="#c"/>
<use x="63.623047" xlink:href="#f"/>
<use x="95.410156" xlink:href="#m"/>
<use x="159.033203" xlink:href="#r"/>
</g>
</g>
<g clip-path="url(#a)">
<g transform="translate(751.21 909.71) scale(.1 -.1)">
<use xlink:href="#c"/>
<use x="63.623047" xlink:href="#f"/>
<use x="95.410156" xlink:href="#m"/>
<use x="159.033203" xlink:href="#ab"/>
</g>
</g>
<g clip-path="url(#a)">
<g transform="translate(474.89 773.81) scale(.1 -.1)">
<use xlink:href="#c"/>
<use x="63.623047" xlink:href="#f"/>
<use x="95.410156" xlink:href="#m"/>
<use x="159.033203" xlink:href="#y"/>
</g>
</g>
<g clip-path="url(#a)">
<g transform="translate(543.97 909.71) scale(.1 -.1)">
<use xlink:href="#c"/>
<use x="63.623047" xlink:href="#f"/>
<use x="95.410156" xlink:href="#m"/>
<use x="159.033203" xlink:href="#ae"/>
</g>
</g>
<g clip-path="url(#a)">
<g transform="translate(590.02 909.71) scale(.1 -.1)">
<use xlink:href="#c"/>
<use x="63.623047" xlink:href="#f"/>
<use x="95.410156" xlink:href="#o"/>
<use x="159.033203" xlink:href="#af"/>
</g>
</g>
<g clip-path="url(#a)">
<g transform="translate(451.86 909.71) scale(.1 -.1)">
<use xlink:href="#c"/>
<use x="63.623047" xlink:href="#f"/>
<use x="95.410156" xlink:href="#o"/>
<use x="159.033203" xlink:href="#c"/>
</g>
</g>
<g clip-path="url(#a)">
<g transform="translate(497.91 909.71) scale(.1 -.1)">
<use xlink:href="#c"/>
<use x="63.623047" xlink:href="#f"/>
<use x="95.410156" xlink:href="#o"/>
<use x="159.033203" xlink:href="#s"/>
</g>
</g>
<g clip-path="url(#a)">
<g transform="translate(83.43 909.71) scale(.1 -.1)">
<use xlink:href="#c"/>
<use x="63.623047" xlink:href="#f"/>
<use x="95.410156" xlink:href="#o"/>
<use x="159.033203" xlink:href="#n"/>
</g>
</g>
<g clip-path="url(#a)">
<g transform="translate(175.54 909.71) scale(.1 -.1)">
<use xlink:href="#c"/>
<use x="63.623047" xlink:href="#f"/>
<use x="95.410156" xlink:href="#o"/>
<use x="159.033203" xlink:href="#m"/>
</g>
</g>
<g clip-path="url(#a)">
<g transform="translate(221.59 909.71) scale(.1 -.1)">
<use xlink:href="#c"/>
<use x="63.623047" xlink:href="#f"/>
<use x="95.410156" xlink:href="#o"/>
<use x="159.033203" xlink:href="#o"/>
</g>
</g>
<g clip-path="url(#a)">
<g transform="translate(359.75 909.71) scale(.1 -.1)">
<use xlink:href="#c"/>
<use x="63.623047" xlink:href="#f"/>
<use x="95.410156" xlink:href="#o"/>
<use x="159.033203" xlink:href="#r"/>
</g>
</g>
<g clip-path="url(#a)">
<g transform="translate(405.81 909.71) scale(.1 -.1)">
<use xlink:href="#c"/>
<use x="63.623047" xlink:href="#f"/>
<use x="95.410156" xlink:href="#o"/>
<use x="159.033203" xlink:href="#ab"/>
</g>
</g>
<g clip-path="url(#a)">
<g transform="translate(820.29 909.71) scale(.1 -.1)">
<use xlink:href="#c"/>
<use x="63.623047" xlink:href="#f"/>
<use x="95.410156" xlink:href="#o"/>
<use x="159.033203" xlink:href="#y"/>
</g>
</g>
<g clip-path="url(#a)">
<g transform="translate(912.4 909.71) scale(.1 -.1)">
<use xlink:href="#c"/>
<use x="63.623047" xlink:href="#f"/>
<use x="95.410156" xlink:href="#o"/>
<use x="159.033203" xlink:href="#ae"/>
</g>
</g>
<g clip-path="url(#a)">
<g transform="translate(1096.6 909.71) scale(.1 -.1)">
<use xlink:href="#c"/>
<use x="63.623047" xlink:href="#f"/>
<use x="95.410156" xlink:href="#r"/>
<use x="159.033203" xlink:href="#af"/>
</g>
</g>
<g clip-path="url(#a)">
<g transform="translate(1511.1 909.71) scale(.1 -.1)">
<use xlink:href="#c"/>
<use x="63.623047" xlink:href="#f"/>
<use x="95.410156" xlink:href="#r"/>
<use x="159.033203" xlink:href="#c"/>
</g>
</g>
<g clip-path="url(#a)">
<g transform="translate(1603.2 909.71) scale(.1 -.1)">
<use xlink:href="#c"/>
<use x="63.623047" xlink:href="#f"/>
<use x="95.410156" xlink:href="#r"/>
<use x="159.033203" xlink:href="#s"/>
</g>
</g>
<g clip-path="url(#a)">
<g transform="translate(1879.5 909.71) scale(.1 -.1)">
<use xlink:href="#c"/>
<use x="63.623047" xlink:href="#f"/>
<use x="95.410156" xlink:href="#r"/>
<use x="159.033203" xlink:href="#n"/>
</g>
</g>
<g clip-path="url(#a)">
<g transform="translate(1925.6 909.71) scale(.1 -.1)">
<use xlink:href="#c"/>
<use x="63.623047" xlink:href="#f"/>
<use x="95.410156" xlink:href="#r"/>
<use x="159.033203" xlink:href="#m"/>
</g>
</g>
<defs>
<clipPath id="a">
<rect width="2077.3" height="1093.3"/>
</clipPath>
</defs>
</svg>
