<?xml version="1.0" encoding="UTF-8"?>
<!DOCTYPE svg  PUBLIC '-//W3C//DTD SVG 1.1//EN'  'http://www.w3.org/Graphics/SVG/1.1/DTD/svg11.dtd'>
<svg width="456pt" height="240pt" version="1.1" viewBox="0 0 456 240" xmlns="http://www.w3.org/2000/svg" xmlns:xlink="http://www.w3.org/1999/xlink">
<defs>
<style type="text/css">*{stroke-linecap:butt;stroke-linejoin:round;}</style>
</defs>
<path d="m0 240h456v-240h-456z" fill="#fff"/>
<g fill="none" stroke="#000">
<path d="m206.76 10.909-4.0943 55.016" clip-path="url(#a)"/>
<path d="m206.76 10.909-40.175 164.39" clip-path="url(#a)"/>
<path d="m206.76 10.909 44.269 55.016" clip-path="url(#a)"/>
<path d="m202.67 65.925-170.42 109.37" clip-path="url(#a)"/>
<path d="m202.67 65.925-128.2 109.37" clip-path="url(#a)"/>
<path d="m202.67 65.925-89.818 54.829" clip-path="url(#a)"/>
<path d="m202.67 65.925 155.84 109.37" clip-path="url(#a)"/>
<path d="m202.67 65.925 232.61 109.37" clip-path="url(#a)"/>
<path d="m166.59 175.3v53.795" clip-path="url(#a)"/>
<path d="m251.03 65.925 38.384 54.829" clip-path="url(#a)"/>
<path d="m251.03 65.925v54.829" clip-path="url(#a)"/>
<path d="m251.03 120.75-30.707 54.543" clip-path="url(#a)"/>
<path d="m251.03 120.75 30.707 54.543" clip-path="url(#a)"/>
<path d="m220.32 175.3v53.795" clip-path="url(#a)"/>
<path d="m281.74 175.3v53.795" clip-path="url(#a)"/>
<path d="m32.242 175.3-11.515 53.795" clip-path="url(#a)"/>
<path d="m32.242 175.3 11.515 53.795" clip-path="url(#a)"/>
<path d="m74.465 175.3v53.795" clip-path="url(#a)"/>
<path d="m112.85 120.75 7.6768 54.543" clip-path="url(#a)"/>
<path d="m112.85 120.75v54.543" clip-path="url(#a)"/>
<path d="m358.51 175.3v53.795" clip-path="url(#a)"/>
<path d="m112.85 175.3v53.795" clip-path="url(#a)"/>
<path d="m435.27 175.3v53.795" clip-path="url(#a)"/>
</g>
<path d="m210.74 41.882 0.4465-5.9997q0.17812-2.3934-2.2153-2.5715l-7.7211-0.57461q-2.3934-0.17812-2.5715 2.2153l-0.4465 5.9997q-0.17812 2.3934 2.2153 2.5715l7.7211 0.57461q2.3934 0.17812 2.5715-2.2153z" clip-path="url(#a)" fill="#fff" stroke="#fff"/>
<g clip-path="url(#a)">
<defs>
<path id="w" d="m9.8125 72.906h9.8594v-29.891h35.844v29.891h9.8594v-72.906h-9.8594v34.719h-35.844v-34.719h-9.8594z"/>
</defs>
<g transform="translate(206.69 41.581) rotate(-85.744) scale(.08 -.08)">
<use xlink:href="#w"/>
</g>
</g>
<path d="m192.24 96.757 1.0582-4.3301q0.56977-2.3314-1.7616-2.9012l-7.5211-1.8381q-2.3314-0.56977-2.9012 1.7616l-1.0582 4.3301q-0.56977 2.3314 1.7616 2.9012l7.5211 1.8381q2.3314 0.56977 2.9012-1.7616z" clip-path="url(#a)" fill="#fff" stroke="#fff"/>
<g clip-path="url(#a)">
<defs>
<path id="p" d="m9.8125 72.906h9.8594v-64.609h35.5v-8.2969h-45.359z"/>
</defs>
<g transform="translate(188.29 95.792) rotate(-76.267) scale(.08 -.08)">
<use xlink:href="#p"/>
</g>
</g>
<path d="m222.12 40.005 3.7717 4.6872q1.5046 1.8698 3.3744 0.36523l6.0321-4.8539q1.8698-1.5046 0.36523-3.3744l-3.7717-4.6872q-1.5046-1.8698-3.3744-0.36523l-6.0321 4.8539q-1.8698 1.5046-0.36523 3.3744z" clip-path="url(#a)" fill="#fff" stroke="#fff"/>
<g clip-path="url(#a)">
<g transform="translate(225.29 37.457) rotate(51.177) scale(.08 -.08)">
<use xlink:href="#w"/>
</g>
</g>
<path d="m118.54 127.37 4.6056-2.9557q2.0198-1.2963 0.72358-3.3161l-4.1818-6.5161q-1.2963-2.0198-3.3161-0.72358l-4.6056 2.9557q-2.0198 1.2963-0.72358 3.3161l4.1818 6.5161q1.2963 2.0198 3.3161 0.72358z" clip-path="url(#a)" fill="#fff" stroke="#fff"/>
<g clip-path="url(#a)">
<defs>
<path id="s" d="m34.188 63.188-13.391-36.281h26.812zm-5.5781 9.7188h11.188l27.781-72.906h-10.25l-6.6406 18.703h-32.859l-6.6406-18.703h-10.406z"/>
</defs>
<g transform="translate(116.34 123.95) rotate(-32.691) scale(.08 -.08)">
<use xlink:href="#s"/>
</g>
</g>
<path d="m140.89 126.87 3.5005-2.9863q1.8258-1.5577 0.26818-3.3835l-5.0251-5.8902q-1.5577-1.8258-3.3835-0.26818l-3.5005 2.9863q-1.8258 1.5577-0.26818 3.3835l5.0251 5.8902q1.5577 1.8258 3.3835 0.26818z" clip-path="url(#a)" fill="#fff" stroke="#fff"/>
<g clip-path="url(#a)">
<defs>
<path id="x" d="m9.8125 72.906h41.891v-8.3125h-32.031v-21.484h28.906v-8.2969h-28.906v-34.812h-9.8594z"/>
</defs>
<g transform="translate(138.25 123.78) rotate(-40.468) scale(.08 -.08)">
<use xlink:href="#x"/>
</g>
</g>
<path d="m158.69 100.12 4.671-2.8514q2.0485-1.2505 0.798-3.299l-4.0341-6.6085q-1.2505-2.0485-3.299-0.798l-4.671 2.8514q-2.0485 1.2505-0.798 3.299l4.0341 6.6085q1.2505 2.0485 3.299 0.798z" clip-path="url(#a)" fill="#fff" stroke="#fff"/>
<g clip-path="url(#a)">
<g transform="translate(156.57 96.649) rotate(-31.402) scale(.08 -.08)">
<use xlink:href="#s"/>
</g>
</g>
<path d="m275.01 124.36 3.9484 2.7711q1.9645 1.3787 3.3432-0.58575l4.4478-6.3375q1.3787-1.9645-0.58575-3.3432l-3.9484-2.7711q-1.9645-1.3787-3.3432 0.58575l-4.4478 6.3375q-1.3787 1.9645 0.58575 3.3432z" clip-path="url(#a)" fill="#fff" stroke="#fff"/>
<g clip-path="url(#a)">
<defs>
<path id="o" d="m19.672 64.797v-27.391h12.406q6.8906 0 10.641 3.5625 3.7656 3.5625 3.7656 10.156 0 6.5469-3.7656 10.109-3.75 3.5625-10.641 3.5625zm-9.8594 8.1094h22.266q12.266 0 18.531-5.5469 6.2812-5.5469 6.2812-16.234 0-10.797-6.2812-16.312-6.2656-5.5156-18.531-5.5156h-12.406v-29.297h-9.8594z"/>
</defs>
<g transform="translate(277.34 121.03) rotate(35.062) scale(.08 -.08)">
<use xlink:href="#o"/>
</g>
</g>
<path d="m313.65 125.04 5.2985 2.4914q2.1719 1.0212 3.1931-1.1507l3.2945-7.0066q1.0212-2.1719-1.1507-3.1931l-5.2985-2.4914q-2.1719-1.0212-3.1931 1.1507l-3.2945 7.0066q-1.0212 2.1719 1.1507 3.1931z" clip-path="url(#a)" fill="#fff" stroke="#fff"/>
<g clip-path="url(#a)">
<defs>
<path id="ab" d="m8.6875 72.906h9.9219v-44.297q0-11.719 4.2344-16.875 4.25-5.1406 13.781-5.1406 9.4688 0 13.719 5.1406 4.25 5.1562 4.25 16.875v44.297h9.9062v-45.516q0-14.25-7.0625-21.531-7.0469-7.2812-20.812-7.2812-13.828 0-20.891 7.2812-7.0469 7.2812-7.0469 21.531z"/>
</defs>
<g transform="translate(315.38 121.36) rotate(25.183) scale(.08 -.08)">
<use xlink:href="#ab"/>
</g>
</g>
<path d="m160.31 185.29v33.808q0 2.4 2.4 2.4h7.7425q2.4 0 2.4-2.4v-33.808q0-2.4-2.4-2.4h-7.7425q-2.4 0-2.4 2.4z" clip-path="url(#a)" fill="#fff" stroke="#fff"/>
<g clip-path="url(#a)">
<defs>
<path id="i" d="m-0.29688 72.906h61.672v-8.3125h-25.875v-64.594h-9.9062v64.594h-25.891z"/>
<path id="d" d="m56.203 29.594v-4.3906h-41.312q0.59375-9.2812 5.5938-14.141t13.938-4.8594q5.1719 0 10.031 1.2656t9.6562 3.8125v-8.5q-4.8438-2.0469-9.9219-3.125t-10.297-1.0781q-13.094 0-20.734 7.6094-7.6406 7.625-7.6406 20.625 0 13.422 7.25 21.297 7.25 7.8906 19.562 7.8906 11.031 0 17.453-7.1094 6.4219-7.0938 6.4219-19.297zm-8.9844 2.6406q-0.09375 7.3594-4.125 11.75-4.0312 4.4062-10.672 4.4062-7.5156 0-12.031-4.25t-5.2031-11.969z"/>
<path id="h" d="m41.109 46.297q-1.5156 0.875-3.2969 1.2812-1.7812 0.42188-3.9219 0.42188-7.625 0-11.703-4.9531t-4.0781-14.234v-28.812h-9.0312v54.688h9.0312v-8.5q2.8438 4.9844 7.375 7.3906 4.5469 2.4219 11.047 2.4219 0.92188 0 2.0469-0.125 1.125-0.10938 2.4844-0.35938z"/>
<path id="j" d="m52 44.188q3.375 6.0625 8.0625 8.9375t11.031 2.875q8.5469 0 13.188-5.9844 4.6406-5.9688 4.6406-17v-33.016h-9.0312v32.719q0 7.8594-2.7969 11.656-2.7812 3.8125-8.4844 3.8125-6.9844 0-11.047-4.6406-4.0469-4.625-4.0469-12.641v-30.906h-9.0312v32.719q0 7.9062-2.7812 11.688t-8.5938 3.7812q-6.8906 0-10.953-4.6562-4.0469-4.6562-4.0469-12.625v-30.906h-9.0312v54.688h9.0312v-8.5q3.0781 5.0312 7.375 7.4219t10.203 2.3906q5.9688 0 10.141-3.0312 4.1719-3.0156 6.1719-8.7812z"/>
<path id="l" d="m9.4219 54.688h8.9844v-54.688h-8.9844zm0 21.297h8.9844v-11.391h-8.9844z"/>
<path id="g" d="m54.891 33.016v-33.016h-8.9844v32.719q0 7.7656-3.0312 11.609-3.0312 3.8594-9.0781 3.8594-7.2812 0-11.484-4.6406-4.2031-4.625-4.2031-12.641v-30.906h-9.0312v54.688h9.0312v-8.5q3.2344 4.9375 7.5938 7.375 4.375 2.4375 10.094 2.4375 9.4219 0 14.25-5.8281 4.8438-5.8281 4.8438-17.156z"/>
<path id="e" d="m34.281 27.484q-10.891 0-15.094-2.4844t-4.2031-8.5q0-4.7812 3.1562-7.5938 3.1562-2.7969 8.5625-2.7969 7.4844 0 12 5.2969t4.5156 14.078v2zm17.922 3.7188v-31.203h-8.9844v8.2969q-3.0781-4.9688-7.6719-7.3438t-11.234-2.375q-8.3906 0-13.359 4.7188-4.9531 4.7188-4.9531 12.625 0 9.2188 6.1719 13.906 6.1875 4.6875 18.438 4.6875h12.609v0.89062q0 6.2031-4.0781 9.5938t-11.453 3.3906q-4.6875 0-9.1406-1.125-4.4375-1.125-8.5312-3.375v8.3125q4.9219 1.9062 9.5625 2.8438 4.6406 0.95312 9.0312 0.95312 11.875 0 17.734-6.1562 5.8594-6.1406 5.8594-18.641z"/>
<path id="k" d="m9.4219 75.984h8.9844v-75.984h-8.9844z"/>
</defs>
<g transform="translate(164.38 185.29) rotate(90) scale(.08 -.08)">
<use xlink:href="#i"/>
<use x="44.083984" xlink:href="#d"/>
<use x="105.607422" xlink:href="#h"/>
<use x="144.970703" xlink:href="#j"/>
<use x="242.382812" xlink:href="#l"/>
<use x="270.166016" xlink:href="#g"/>
<use x="333.544922" xlink:href="#e"/>
<use x="394.824219" xlink:href="#k"/>
</g>
</g>
<path d="m263.52 94.694 3.1385 4.4831q1.3764 1.9661 3.3425 0.5897l6.3427-4.4403q1.9661-1.3764 0.5897-3.3425l-3.1385-4.4831q-1.3764-1.9661-3.3425-0.5897l-6.3427 4.4403q-1.9661 1.3764-0.5897 3.3425z" clip-path="url(#a)" fill="#fff" stroke="#fff"/>
<g clip-path="url(#a)">
<g transform="translate(266.84 92.364) rotate(55.005) scale(.08 -.08)">
<use xlink:href="#s"/>
</g>
</g>
<path d="m244.76 90.927v4.8238q0 2.4 2.4 2.4h7.7425q2.4 0 2.4-2.4v-4.8238q0-2.4-2.4-2.4h-7.7425q-2.4 0-2.4 2.4z" clip-path="url(#a)" fill="#fff" stroke="#fff"/>
<g clip-path="url(#a)">
<g transform="translate(248.82 90.927) rotate(90) scale(.08 -.08)">
<use xlink:href="#o"/>
</g>
</g>
<path d="m240.01 153.11 2.2573-4.0095q1.1774-2.0913-0.91394-3.2687l-6.7468-3.7984q-2.0913-1.1774-3.2687 0.91394l-2.2573 4.0095q-1.1774 2.0913 0.91394 3.2687l6.7468 3.7984q2.0913 1.1774 3.2687-0.91394z" clip-path="url(#a)" fill="#fff" stroke="#fff"/>
<g clip-path="url(#a)">
<g transform="translate(236.47 151.11) rotate(-60.621) scale(.08 -.08)">
<use xlink:href="#x"/>
</g>
</g>
<path d="m259.55 148.67 2.7405 4.8678q1.1774 2.0913 3.2687 0.91394l6.7468-3.7984q2.0913-1.1774 0.91394-3.2687l-2.7405-4.8678q-1.1774-2.0913-3.2687-0.91394l-6.7468 3.7984q-2.0913 1.1774-0.91394 3.2687z" clip-path="url(#a)" fill="#fff" stroke="#fff"/>
<g clip-path="url(#a)">
<defs>
<path id="q" d="m64.406 67.281v-10.391q-4.9844 4.6406-10.625 6.9219-5.6406 2.2969-11.984 2.2969-12.5 0-19.141-7.6406t-6.6406-22.094q0-14.406 6.6406-22.047t19.141-7.6406q6.3438 0 11.984 2.2969t10.625 6.9375v-10.312q-5.1719-3.5156-10.969-5.2812-5.7812-1.75-12.219-1.75-16.562 0-26.094 10.125-9.5156 10.141-9.5156 27.672 0 17.578 9.5156 27.703 9.5312 10.141 26.094 10.141 6.5312 0 12.312-1.7344 5.7969-1.7344 10.875-5.2031z"/>
</defs>
<g transform="translate(263.09 146.67) rotate(60.621) scale(.08 -.08)">
<use xlink:href="#q"/>
</g>
</g>
<path d="m214.05 185.29v33.808q0 2.4 2.4 2.4h7.7425q2.4 0 2.4-2.4v-33.808q0-2.4-2.4-2.4h-7.7425q-2.4 0-2.4 2.4z" clip-path="url(#a)" fill="#fff" stroke="#fff"/>
<g clip-path="url(#a)">
<g transform="translate(218.12 185.29) rotate(90) scale(.08 -.08)">
<use xlink:href="#i"/>
<use x="44.083984" xlink:href="#d"/>
<use x="105.607422" xlink:href="#h"/>
<use x="144.970703" xlink:href="#j"/>
<use x="242.382812" xlink:href="#l"/>
<use x="270.166016" xlink:href="#g"/>
<use x="333.544922" xlink:href="#e"/>
<use x="394.824219" xlink:href="#k"/>
</g>
</g>
<path d="m275.47 185.29v33.808q0 2.4 2.4 2.4h7.7425q2.4 0 2.4-2.4v-33.808q0-2.4-2.4-2.4h-7.7425q-2.4 0-2.4 2.4z" clip-path="url(#a)" fill="#fff" stroke="#fff"/>
<g clip-path="url(#a)">
<g transform="translate(279.53 185.29) rotate(90) scale(.08 -.08)">
<use xlink:href="#i"/>
<use x="44.083984" xlink:href="#d"/>
<use x="105.607422" xlink:href="#h"/>
<use x="144.970703" xlink:href="#j"/>
<use x="242.382812" xlink:href="#l"/>
<use x="270.166016" xlink:href="#g"/>
<use x="333.544922" xlink:href="#e"/>
<use x="394.824219" xlink:href="#k"/>
</g>
</g>
<path d="m29.079 220.04 7.0765-33.059q0.50236-2.3468-1.8445-2.8492l-7.571-1.6206q-2.3468-0.50236-2.8492 1.8445l-7.0765 33.059q-0.50236 2.3468 1.8445 2.8492l7.571 1.6206q2.3468 0.50236 2.8492-1.8445z" clip-path="url(#a)" fill="#fff" stroke="#fff"/>
<g clip-path="url(#a)">
<g transform="translate(25.105 219.19) rotate(-77.918) scale(.08 -.08)">
<use xlink:href="#i"/>
<use x="44.083984" xlink:href="#d"/>
<use x="105.607422" xlink:href="#h"/>
<use x="144.970703" xlink:href="#j"/>
<use x="242.382812" xlink:href="#l"/>
<use x="270.166016" xlink:href="#g"/>
<use x="333.544922" xlink:href="#e"/>
<use x="394.824219" xlink:href="#k"/>
</g>
</g>
<path d="m28.329 186.98 7.0765 33.059q0.50236 2.3468 2.8492 1.8445l7.571-1.6206q2.3468-0.50236 1.8445-2.8492l-7.0765-33.059q-0.50236-2.3468-2.8492-1.8445l-7.571 1.6206q-2.3468 0.50236-1.8445 2.8492z" clip-path="url(#a)" fill="#fff" stroke="#fff"/>
<g clip-path="url(#a)">
<g transform="translate(32.303 186.13) rotate(77.918) scale(.08 -.08)">
<use xlink:href="#i"/>
<use x="44.083984" xlink:href="#d"/>
<use x="105.607422" xlink:href="#h"/>
<use x="144.970703" xlink:href="#j"/>
<use x="242.382812" xlink:href="#l"/>
<use x="270.166016" xlink:href="#g"/>
<use x="333.544922" xlink:href="#e"/>
<use x="394.824219" xlink:href="#k"/>
</g>
</g>
<path d="m68.193 185.29v33.808q0 2.4 2.4 2.4h7.7425q2.4 0 2.4-2.4v-33.808q0-2.4-2.4-2.4h-7.7425q-2.4 0-2.4 2.4z" clip-path="url(#a)" fill="#fff" stroke="#fff"/>
<g clip-path="url(#a)">
<g transform="translate(72.257 185.29) rotate(90) scale(.08 -.08)">
<use xlink:href="#i"/>
<use x="44.083984" xlink:href="#d"/>
<use x="105.607422" xlink:href="#h"/>
<use x="144.970703" xlink:href="#j"/>
<use x="242.382812" xlink:href="#l"/>
<use x="270.166016" xlink:href="#g"/>
<use x="333.544922" xlink:href="#e"/>
<use x="394.824219" xlink:href="#k"/>
</g>
</g>
<path d="m110.09 146.13 0.77858 5.5317q0.3345 2.3766 2.7111 2.0421l7.6669-1.0791q2.3766-0.3345 2.0421-2.7111l-0.77858-5.5317q-0.3345-2.3766-2.7111-2.0421l-7.6669 1.0791q-2.3766 0.3345-2.0421 2.7111z" clip-path="url(#a)" fill="#fff" stroke="#fff"/>
<g clip-path="url(#a)">
<g transform="translate(114.11 145.57) rotate(81.988) scale(.08 -.08)">
<use xlink:href="#q"/>
</g>
</g>
<path d="m106.58 144.88v6.2975q0 2.4 2.4 2.4h7.7425q2.4 0 2.4-2.4v-6.2975q0-2.4-2.4-2.4h-7.7425q-2.4 0-2.4 2.4z" clip-path="url(#a)" fill="#fff" stroke="#fff"/>
<g clip-path="url(#a)">
<defs>
<path id="ad" d="m39.406 66.219q-10.75 0-17.078-8.0156-6.3125-8-6.3125-21.828 0-13.766 6.3125-21.781 6.3281-8 17.078-8 10.734 0 17.016 8 6.2812 8.0156 6.2812 21.781 0 13.828-6.2812 21.828-6.2812 8.0156-17.016 8.0156zm13.812-64.906 13-14.203h-11.922l-10.797 11.672q-1.6094-0.09375-2.4688-0.14062-0.84375-0.0625-1.625-0.0625-15.375 0-24.594 10.281-9.2031 10.281-9.2031 27.516 0 17.281 9.2031 27.562 9.2188 10.281 24.594 10.281 15.328 0 24.5-10.281 9.1875-10.281 9.1875-27.562 0-12.688-5.1094-21.734-5.0938-9.0312-14.766-13.328z"/>
</defs>
<g transform="translate(110.64 144.88) rotate(90) scale(.08 -.08)">
<use xlink:href="#ad"/>
</g>
</g>
<path d="m352.23 185.29v33.808q0 2.4 2.4 2.4h7.7425q2.4 0 2.4-2.4v-33.808q0-2.4-2.4-2.4h-7.7425q-2.4 0-2.4 2.4z" clip-path="url(#a)" fill="#fff" stroke="#fff"/>
<g clip-path="url(#a)">
<g transform="translate(356.3 185.29) rotate(90) scale(.08 -.08)">
<use xlink:href="#i"/>
<use x="44.083984" xlink:href="#d"/>
<use x="105.607422" xlink:href="#h"/>
<use x="144.970703" xlink:href="#j"/>
<use x="242.382812" xlink:href="#l"/>
<use x="270.166016" xlink:href="#g"/>
<use x="333.544922" xlink:href="#e"/>
<use x="394.824219" xlink:href="#k"/>
</g>
</g>
<path d="m106.58 185.29v33.808q0 2.4 2.4 2.4h7.7425q2.4 0 2.4-2.4v-33.808q0-2.4-2.4-2.4h-7.7425q-2.4 0-2.4 2.4z" clip-path="url(#a)" fill="#fff" stroke="#fff"/>
<g clip-path="url(#a)">
<g transform="translate(110.64 185.29) rotate(90) scale(.08 -.08)">
<use xlink:href="#i"/>
<use x="44.083984" xlink:href="#d"/>
<use x="105.607422" xlink:href="#h"/>
<use x="144.970703" xlink:href="#j"/>
<use x="242.382812" xlink:href="#l"/>
<use x="270.166016" xlink:href="#g"/>
<use x="333.544922" xlink:href="#e"/>
<use x="394.824219" xlink:href="#k"/>
</g>
</g>
<path d="m429 185.29v33.808q0 2.4 2.4 2.4h7.7425q2.4 0 2.4-2.4v-33.808q0-2.4-2.4-2.4h-7.7425q-2.4 0-2.4 2.4z" clip-path="url(#a)" fill="#fff" stroke="#fff"/>
<g clip-path="url(#a)">
<g transform="translate(433.07 185.29) rotate(90) scale(.08 -.08)">
<use xlink:href="#i"/>
<use x="44.083984" xlink:href="#d"/>
<use x="105.607422" xlink:href="#h"/>
<use x="144.970703" xlink:href="#j"/>
<use x="242.382812" xlink:href="#l"/>
<use x="270.166016" xlink:href="#g"/>
<use x="333.544922" xlink:href="#e"/>
<use x="394.824219" xlink:href="#k"/>
</g>
</g>
<defs>
<path id="b" d="m0 8.6603c2.2967 0 4.4997-0.9125 6.1237-2.5365 1.624-1.624 2.5365-3.827 2.5365-6.1237s-0.9125-4.4997-2.5365-6.1237c-1.624-1.624-3.827-2.5365-6.1237-2.5365s-4.4997 0.9125-6.1237 2.5365c-1.624 1.624-2.5365 3.827-2.5365 6.1237s0.9125 4.4997 2.5365 6.1237c1.624 1.624 3.827 2.5365 6.1237 2.5365z"/>
</defs>
<g clip-path="url(#a)" fill="#ffffff" stroke="#ffffff">
<use x="20.727273" y="229.090909" xlink:href="#b"/>
<use x="43.757576" y="229.090909" xlink:href="#b"/>
<use x="74.464646" y="229.090909" xlink:href="#b"/>
<use x="112.848485" y="229.090909" xlink:href="#b"/>
<use x="166.585859" y="229.090909" xlink:href="#b"/>
<use x="220.323232" y="229.090909" xlink:href="#b"/>
<use x="281.737374" y="229.090909" xlink:href="#b"/>
<use x="358.505051" y="229.090909" xlink:href="#b"/>
<use x="435.272727" y="229.090909" xlink:href="#b"/>
<use x="289.414141" y="120.753546" xlink:href="#b"/>
<use x="120.525253" y="175.296398" xlink:href="#b"/>
<use x="206.760943" y="10.909091" xlink:href="#b"/>
<use x="202.666667" y="65.924621" xlink:href="#b"/>
<use x="166.585859" y="175.296398" xlink:href="#b"/>
<use x="251.030303" y="65.924621" xlink:href="#b"/>
<use x="251.030303" y="120.753546" xlink:href="#b"/>
<use x="220.323232" y="175.296398" xlink:href="#b"/>
<use x="281.737374" y="175.296398" xlink:href="#b"/>
<use x="32.242424" y="175.296398" xlink:href="#b"/>
<use x="74.464646" y="175.296398" xlink:href="#b"/>
<use x="112.848485" y="120.753546" xlink:href="#b"/>
<use x="358.505051" y="175.296398" xlink:href="#b"/>
<use x="112.848485" y="175.296398" xlink:href="#b"/>
<use x="435.272727" y="175.296398" xlink:href="#b"/>
</g>
<g clip-path="url(#a)">
<defs>
<path id="ae" d="m9.8125 72.906h13.281l32.328-60.984v60.984h9.5625v-72.906h-13.281l-32.312 60.984v-60.984h-9.5781z"/>
<path id="r" d="m45.406 46.391v29.594h8.9844v-75.984h-8.9844v8.2031q-2.8281-4.875-7.1562-7.25-4.3125-2.375-10.375-2.375-9.9062 0-16.141 7.9062-6.2188 7.9219-6.2188 20.812t6.2188 20.797q6.2344 7.9062 16.141 7.9062 6.0625 0 10.375-2.375 4.3281-2.3594 7.1562-7.2344zm-30.609-19.094q0-9.9062 4.0781-15.547t11.203-5.6406 11.219 5.6406q4.1094 5.6406 4.1094 15.547t-4.1094 15.547q-4.0938 5.6406-11.219 5.6406t-11.203-5.6406-4.0781-15.547z"/>
</defs>
<g transform="translate(10.736 231.85) scale(.1 -.1)">
<use xlink:href="#ae"/>
<use x="74.804688" xlink:href="#d"/>
<use x="136.328125" xlink:href="#r"/>
</g>
</g>
<g clip-path="url(#a)">
<g transform="translate(31.565 231.85) scale(.1 -.1)">
<use xlink:href="#p"/>
<use x="55.712891" xlink:href="#e"/>
<use x="116.992188" xlink:href="#g"/>
<use x="180.371094" xlink:href="#r"/>
</g>
</g>
<g clip-path="url(#a)">
<defs>
<path id="n" d="m54.891 33.016v-33.016h-8.9844v32.719q0 7.7656-3.0312 11.609-3.0312 3.8594-9.0781 3.8594-7.2812 0-11.484-4.6406-4.2031-4.625-4.2031-12.641v-30.906h-9.0312v75.984h9.0312v-29.797q3.2344 4.9375 7.5938 7.375 4.375 2.4375 10.094 2.4375 9.4219 0 14.25-5.8281 4.8438-5.8281 4.8438-17.156z"/>
<path id="t" d="m18.312 70.219v-15.531h18.5v-6.9844h-18.5v-29.688q0-6.6875 1.8281-8.5938t7.4531-1.9062h9.2188v-7.5156h-9.2188q-10.406 0-14.359 3.875-3.9531 3.8906-3.9531 14.141v29.688h-6.5938v6.9844h6.5938v15.531z"/>
</defs>
<g transform="translate(61.235 231.85) scale(.1 -.1)">
<use xlink:href="#n"/>
<use x="63.378906" xlink:href="#e"/>
<use x="124.658203" xlink:href="#t"/>
<use x="163.867188" xlink:href="#t"/>
<use x="203.076172" xlink:href="#d"/>
</g>
</g>
<g clip-path="url(#a)">
<defs>
<path id="u" d="m48.781 52.594v-8.4062q-3.8125 2.1094-7.6406 3.1562t-7.7344 1.0469q-8.75 0-13.594-5.5469-4.8281-5.5312-4.8281-15.547t4.8281-15.562q4.8438-5.5312 13.594-5.5312 3.9062 0 7.7344 1.0469t7.6406 3.1562v-8.3125q-3.7656-1.75-7.7969-2.625-4.0156-0.89062-8.5625-0.89062-12.359 0-19.641 7.7656-7.2656 7.7656-7.2656 20.953 0 13.375 7.3438 21.031 7.3594 7.6719 20.156 7.6719 4.1406 0 8.0938-0.85938 3.9531-0.84375 7.6719-2.5469z"/>
</defs>
<g transform="translate(92.751 231.85) scale(.1 -.1)">
<use xlink:href="#j"/>
<use x="97.412109" xlink:href="#e"/>
<use x="158.691406" xlink:href="#g"/>
<use x="222.070312" xlink:href="#u"/>
<use x="277.050781" xlink:href="#n"/>
<use x="340.429688" xlink:href="#d"/>
</g>
</g>
<g clip-path="url(#a)">
<defs>
<path id="an" d="m4.2031 54.688h8.9844l11.234-42.672 11.172 42.672h10.594l11.234-42.672 11.188 42.672h8.9844l-14.312-54.688h-10.594l-11.766 44.828-11.812-44.828h-10.609z"/>
<path id="am" d="m34.281 27.484q-10.891 0-15.094-2.4844t-4.2031-8.5q0-4.7812 3.1562-7.5938 3.1562-2.7969 8.5625-2.7969 7.4844 0 12 5.2969t4.5156 14.078v2zm17.922 3.7188v-31.203h-8.9844v8.2969q-3.0781-4.9688-7.6719-7.3438t-11.234-2.375q-8.3906 0-13.359 4.7188-4.9531 4.7188-4.9531 12.625 0 9.2188 6.1719 13.906 6.1875 4.6875 18.438 4.6875h12.609v0.89062q0 6.2031-4.0781 9.5938t-11.453 3.3906q-4.6875 0-9.1406-1.125-4.4375-1.125-8.5312-3.375v8.3125q4.9219 1.9062 9.5625 2.8438 4.6406 0.95312 9.0312 0.95312 11.875 0 17.734-6.1562 5.8594-6.1406 5.8594-18.641zm-18.609 44.578h9.9062v-9.8594h-9.9062zm-19.094 0h9.9062v-9.8594h-9.9062z"/>
</defs>
<g transform="translate(144.9 231.85) scale(.1 -.1)">
<use xlink:href="#an"/>
<use x="81.787109" xlink:href="#am"/>
<use x="143.066406" xlink:href="#n"/>
<use x="206.445312" xlink:href="#h"/>
<use x="245.308594" xlink:href="#d"/>
<use x="306.832031" xlink:href="#g"/>
<use x="370.210938" xlink:href="#r"/>
</g>
</g>
<g clip-path="url(#a)">
<defs>
<path id="aa" d="m44.281 53.078v-8.5q-3.7969 1.9531-7.9062 2.9219-4.0938 0.98438-8.5 0.98438-6.6875 0-10.031-2.0469t-3.3438-6.1562q0-3.125 2.3906-4.9062t9.625-3.3906l3.0781-0.6875q9.5625-2.0469 13.594-5.7812t4.0312-10.422q0-7.625-6.0312-12.078-6.0312-4.4375-16.578-4.4375-4.3906 0-9.1562 0.85938t-10.031 2.5625v9.2812q4.9844-2.5938 9.8125-3.8906 4.8281-1.2812 9.5781-1.2812 6.3438 0 9.75 2.1719 3.4219 2.1719 3.4219 6.125 0 3.6562-2.4688 5.6094-2.4531 1.9531-10.812 3.7656l-3.125 0.73438q-8.3438 1.75-12.062 5.3906-3.7031 3.6406-3.7031 9.9844 0 7.7188 5.4688 11.906 5.4688 4.2031 15.531 4.2031 4.9688 0 9.3594-0.73438 4.4062-0.71875 8.1094-2.1875z"/>
</defs>
<g transform="translate(211.47 231.85) scale(.1 -.1)">
<use xlink:href="#r"/>
<use x="63.476562" xlink:href="#d"/>
<use x="125" xlink:href="#aa"/>
</g>
</g>
<g clip-path="url(#a)">
<defs>
<path id="ac" d="m53.516 70.516v-9.625q-5.6094 2.6875-10.594 4-4.9844 1.3281-9.625 1.3281-8.0469 0-12.422-3.125t-4.375-8.8906q0-4.8438 2.9062-7.3125 2.9062-2.4531 11.016-3.9688l5.9531-1.2188q11.031-2.1094 16.281-7.4062t5.25-14.172q0-10.609-7.1094-16.078-7.0938-5.4688-20.812-5.4688-5.1719 0-11.016 1.1719-5.8281 1.1719-12.078 3.4688v10.156q6-3.3594 11.766-5.0781 5.7656-1.7031 11.328-1.7031 8.4375 0 13.031 3.3125 4.5938 3.3281 4.5938 9.4844 0 5.3594-3.2969 8.3906t-10.812 4.5469l-6.0156 1.1719q-11.031 2.1875-15.969 6.875-4.9219 4.6875-4.9219 13.047 0 9.6719 6.8125 15.234t18.766 5.5625q5.1406 0 10.453-0.9375 5.3281-0.92188 10.891-2.7656z"/>
<path id="aq" d="m37.109 75.984v-7.4844h-8.5938q-4.8281 0-6.7188-1.9531-1.875-1.9531-1.875-7.0312v-4.8281h14.797v-6.9844h-14.797v-47.703h-9.0312v47.703h-8.5938v6.9844h8.5938v3.8125q0 9.125 4.25 13.297 4.25 4.1875 13.469 4.1875z"/>
</defs>
<g transform="translate(263.83 231.85) scale(.1 -.1)">
<use xlink:href="#ac"/>
<use x="63.476562" xlink:href="#u"/>
<use x="118.457031" xlink:href="#n"/>
<use x="181.835938" xlink:href="#k"/>
<use x="209.619141" xlink:href="#e"/>
<use x="270.898438" xlink:href="#aq"/>
<use x="306.103516" xlink:href="#aa"/>
</g>
</g>
<g clip-path="url(#a)">
<defs>
<path id="ap" d="m18.109 8.2031v-29h-9.0312v75.484h9.0312v-8.2969q2.8438 4.875 7.1562 7.2344 4.3281 2.375 10.328 2.375 9.9688 0 16.188-7.9062 6.2344-7.9062 6.2344-20.797t-6.2344-20.812q-6.2188-7.9062-16.188-7.9062-6 0-10.328 2.375-4.3125 2.375-7.1562 7.25zm30.578 19.094q0 9.9062-4.0781 15.547t-11.203 5.6406q-7.1406 0-11.219-5.6406t-4.0781-15.547 4.0781-15.547 11.219-5.6406q7.125 0 11.203 5.6406t4.0781 15.547z"/>
<path id="ao" d="m8.5 21.578v33.109h8.9844v-32.766q0-7.7656 3.0156-11.656 3.0312-3.875 9.0938-3.875 7.2656 0 11.484 4.6406 4.2344 4.6406 4.2344 12.656v31h8.9844v-54.688h-8.9844v8.4062q-3.2656-4.9844-7.5938-7.4062-4.3125-2.4219-10.031-2.4219-9.4219 0-14.312 5.8594-4.875 5.8594-4.875 17.141z"/>
</defs>
<g transform="translate(332.22 231.85) scale(.1 -.1)">
<use xlink:href="#n"/>
<use x="63.378906" xlink:href="#e"/>
<use x="124.658203" xlink:href="#h"/>
<use x="165.771484" xlink:href="#ap"/>
<use x="229.248047" xlink:href="#ao"/>
<use x="292.626953" xlink:href="#g"/>
<use x="356.005859" xlink:href="#l"/>
<use x="383.789062" xlink:href="#d"/>
<use x="445.3125" xlink:href="#h"/>
<use x="486.425781" xlink:href="#t"/>
</g>
</g>
<g clip-path="url(#a)">
<defs>
<path id="f" d="m10.688 12.406h10.312v-12.406h-10.312z"/>
</defs>
<g transform="translate(433.68 231.85) scale(.1 -.1)">
<use xlink:href="#f"/>
</g>
</g>
<g clip-path="url(#a)">
<defs>
<path id="m" d="m9.8125 72.906h9.8594v-72.906h-9.8594z"/>
<path id="v" d="m9.8125 72.906h14.703l18.594-49.609 18.703 49.609h14.703v-72.906h-9.625v64.016l-18.797-50h-9.9062l-18.797 50v-64.016h-9.5781z"/>
</defs>
<g transform="translate(268.33 123.51) scale(.1 -.1)">
<use xlink:href="#m"/>
<use x="29.492188" xlink:href="#v"/>
<use x="115.771484" xlink:href="#o"/>
<use x="176.074219" xlink:href="#p"/>
<use x="231.787109" xlink:href="#m"/>
<use x="261.279297" xlink:href="#q"/>
<use x="331.103516" xlink:href="#m"/>
<use x="360.595703" xlink:href="#i"/>
</g>
</g>
<g clip-path="url(#a)">
<g transform="translate(99.44 178.06) scale(.1 -.1)">
<use xlink:href="#m"/>
<use x="29.492188" xlink:href="#v"/>
<use x="115.771484" xlink:href="#o"/>
<use x="176.074219" xlink:href="#p"/>
<use x="231.787109" xlink:href="#m"/>
<use x="261.279297" xlink:href="#q"/>
<use x="331.103516" xlink:href="#m"/>
<use x="360.595703" xlink:href="#i"/>
</g>
</g>
<g clip-path="url(#a)">
<defs>
<path id="c" d="m12.406 8.2969h16.109v55.625l-17.531-3.5156v8.9844l17.438 3.5156h9.8594v-64.609h16.109v-8.2969h-41.984z"/>
</defs>
<g transform="translate(198.81 13.668) scale(.1 -.1)">
<use xlink:href="#c"/>
<use x="63.623047" xlink:href="#f"/>
<use x="95.410156" xlink:href="#c"/>
</g>
</g>
<g clip-path="url(#a)">
<defs>
<path id="z" d="m19.188 8.2969h34.422v-8.2969h-46.281v8.2969q5.6094 5.8125 15.297 15.594 9.7031 9.7969 12.188 12.641 4.7344 5.3125 6.6094 9 1.8906 3.6875 1.8906 7.25 0 5.8125-4.0781 9.4688-4.0781 3.6719-10.625 3.6719-4.6406 0-9.7969-1.6094-5.1406-1.6094-11-4.8906v9.9688q5.9531 2.3906 11.125 3.6094 5.1875 1.2188 9.4844 1.2188 11.328 0 18.062-5.6719 6.7344-5.6562 6.7344-15.125 0-4.5-1.6875-8.5312-1.6719-4.0156-6.125-9.4844-1.2188-1.4219-7.7656-8.1875-6.5312-6.7656-18.453-18.922z"/>
</defs>
<g transform="translate(194.72 68.684) scale(.1 -.1)">
<use xlink:href="#c"/>
<use x="63.623047" xlink:href="#f"/>
<use x="95.410156" xlink:href="#z"/>
</g>
</g>
<g clip-path="url(#a)">
<defs>
<path id="y" d="m40.578 39.312q7.0781-1.5156 11.047-6.3125 3.9844-4.7812 3.9844-11.812 0-10.781-7.4219-16.703-7.4219-5.9062-21.094-5.9062-4.5781 0-9.4375 0.90625t-10.031 2.7188v9.5156q4.0938-2.3906 8.9688-3.6094 4.8906-1.2188 10.219-1.2188 9.2656 0 14.125 3.6562t4.8594 10.641q0 6.4531-4.5156 10.078-4.5156 3.6406-12.562 3.6406h-8.5v8.1094h8.8906q7.2656 0 11.125 2.9062t3.8594 8.375q0 5.6094-3.9844 8.6094-3.9688 3.0156-11.391 3.0156-4.0625 0-8.7031-0.89062-4.6406-0.875-10.203-2.7188v8.7812q5.625 1.5625 10.531 2.3438t9.25 0.78125q11.234 0 17.766-5.1094 6.5469-5.0938 6.5469-13.781 0-6.0625-3.4688-10.234t-9.8594-5.7812z"/>
</defs>
<g transform="translate(158.63 178.06) scale(.1 -.1)">
<use xlink:href="#c"/>
<use x="63.623047" xlink:href="#f"/>
<use x="95.410156" xlink:href="#y"/>
</g>
</g>
<g clip-path="url(#a)">
<defs>
<path id="ak" d="m37.797 64.312-24.906-38.922h24.906zm-2.5938 8.5938h12.406v-47.516h10.406v-8.2031h-10.406v-17.188h-9.8125v17.188h-32.906v9.5156z"/>
</defs>
<g transform="translate(243.08 68.684) scale(.1 -.1)">
<use xlink:href="#c"/>
<use x="63.623047" xlink:href="#f"/>
<use x="95.410156" xlink:href="#ak"/>
</g>
</g>
<g clip-path="url(#a)">
<defs>
<path id="ah" d="m8.2031 72.906h46.875v-4.2031l-26.469-68.703h-10.297l24.906 64.594h-35.016z"/>
</defs>
<g transform="translate(243.08 123.51) scale(.1 -.1)">
<use xlink:href="#c"/>
<use x="63.623047" xlink:href="#f"/>
<use x="95.410156" xlink:href="#ah"/>
</g>
</g>
<g clip-path="url(#a)">
<defs>
<path id="ag" d="m31.781 34.625q-7.0312 0-11.062-3.7656-4.0156-3.7656-4.0156-10.344 0-6.5938 4.0156-10.359 4.0312-3.7656 11.062-3.7656t11.078 3.7812q4.0625 3.7969 4.0625 10.344 0 6.5781-4.0312 10.344-4.0156 3.7656-11.109 3.7656zm-9.8594 4.1875q-6.3438 1.5625-9.8906 5.9062-3.5312 4.3594-3.5312 10.609 0 8.7344 6.2188 13.812 6.2344 5.0781 17.062 5.0781 10.891 0 17.094-5.0781t6.2031-13.812q0-6.25-3.5469-10.609-3.5312-4.3438-9.8281-5.9062 7.125-1.6562 11.094-6.5 3.9844-4.8281 3.9844-11.797 0-10.609-6.4688-16.281-6.4688-5.6562-18.531-5.6562-12.047 0-18.531 5.6562-6.4688 5.6719-6.4688 16.281 0 6.9688 4 11.797 4.0156 4.8438 11.141 6.5zm-3.6094 15.578q0-5.6562 3.5312-8.8281 3.5469-3.1719 9.9375-3.1719 6.3594 0 9.9375 3.1719 3.5938 3.1719 3.5938 8.8281 0 5.6719-3.5938 8.8438-3.5781 3.1719-9.9375 3.1719-6.3906 0-9.9375-3.1719-3.5312-3.1719-3.5312-8.8438z"/>
</defs>
<g transform="translate(212.37 178.06) scale(.1 -.1)">
<use xlink:href="#c"/>
<use x="63.623047" xlink:href="#f"/>
<use x="95.410156" xlink:href="#ag"/>
</g>
</g>
<g clip-path="url(#a)">
<defs>
<path id="af" d="m10.984 1.5156v8.9844q3.7188-1.7656 7.5156-2.6875 3.8125-0.92188 7.4844-0.92188 9.7656 0 14.906 6.5625 5.1562 6.5625 5.8906 19.953-2.8281-4.2031-7.1875-6.4531-4.3438-2.25-9.6094-2.25-10.938 0-17.312 6.6094-6.375 6.625-6.375 18.109 0 11.219 6.6406 18 6.6406 6.7969 17.672 6.7969 12.656 0 19.312-9.7031 6.6719-9.6875 6.6719-28.141 0-17.234-8.1875-27.516-8.1719-10.281-21.984-10.281-3.7188 0-7.5312 0.73438-3.7969 0.73438-7.9062 2.2031zm19.625 30.906q6.6406 0 10.516 4.5312 3.8906 4.5469 3.8906 12.469 0 7.8594-3.8906 12.422-3.875 4.5625-10.516 4.5625t-10.516-4.5625-3.875-12.422q0-7.9219 3.875-12.469 3.875-4.5312 10.516-4.5312z"/>
</defs>
<g transform="translate(273.79 178.06) scale(.1 -.1)">
<use xlink:href="#c"/>
<use x="63.623047" xlink:href="#f"/>
<use x="95.410156" xlink:href="#af"/>
</g>
</g>
<g clip-path="url(#a)">
<defs>
<path id="al" d="m31.781 66.406q-7.6094 0-11.453-7.5-3.8281-7.4844-3.8281-22.531 0-14.984 3.8281-22.484 3.8438-7.5 11.453-7.5 7.6719 0 11.5 7.5 3.8438 7.5 3.8438 22.484 0 15.047-3.8438 22.531-3.8281 7.5-11.5 7.5zm0 7.8125q12.266 0 18.734-9.7031 6.4688-9.6875 6.4688-28.141 0-18.406-6.4688-28.109-6.4688-9.6875-18.734-9.6875-12.25 0-18.719 9.6875-6.4688 9.7031-6.4688 28.109 0 18.453 6.4688 28.141 6.4688 9.7031 18.719 9.7031z"/>
</defs>
<g transform="translate(21.11 178.06) scale(.1 -.1)">
<use xlink:href="#c"/>
<use x="63.623047" xlink:href="#f"/>
<use x="95.410156" xlink:href="#c"/>
<use x="159.033203" xlink:href="#al"/>
</g>
</g>
<g clip-path="url(#a)">
<g transform="translate(63.332 178.06) scale(.1 -.1)">
<use xlink:href="#c"/>
<use x="63.623047" xlink:href="#f"/>
<use x="95.410156" xlink:href="#c"/>
<use x="159.033203" xlink:href="#c"/>
</g>
</g>
<g clip-path="url(#a)">
<g transform="translate(101.72 123.51) scale(.1 -.1)">
<use xlink:href="#c"/>
<use x="63.623047" xlink:href="#f"/>
<use x="95.410156" xlink:href="#c"/>
<use x="159.033203" xlink:href="#z"/>
</g>
</g>
<g clip-path="url(#a)">
<g transform="translate(347.37 178.06) scale(.1 -.1)">
<use xlink:href="#c"/>
<use x="63.623047" xlink:href="#f"/>
<use x="95.410156" xlink:href="#c"/>
<use x="159.033203" xlink:href="#y"/>
</g>
</g>
<g clip-path="url(#a)">
<defs>
<path id="aj" d="m10.797 72.906h38.719v-8.3125h-29.688v-17.859q2.1406 0.73438 4.2812 1.0938 2.1562 0.35938 4.3125 0.35938 12.203 0 19.328-6.6875 7.1406-6.6875 7.1406-18.109 0-11.766-7.3281-18.297-7.3281-6.5156-20.656-6.5156-4.5938 0-9.3594 0.78125-4.75 0.78125-9.8281 2.3438v9.9219q4.3906-2.3906 9.0781-3.5625t9.9062-1.1719q8.4531 0 13.375 4.4375 4.9375 4.4375 4.9375 12.062 0 7.6094-4.9375 12.047-4.9219 4.4531-13.375 4.4531-3.9531 0-7.8906-0.875-3.9219-0.875-8.0156-2.7344z"/>
</defs>
<g transform="translate(101.72 178.06) scale(.1 -.1)">
<use xlink:href="#c"/>
<use x="63.623047" xlink:href="#f"/>
<use x="95.410156" xlink:href="#c"/>
<use x="159.033203" xlink:href="#aj"/>
</g>
</g>
<g clip-path="url(#a)">
<defs>
<path id="ai" d="m33.016 40.375q-6.6406 0-10.531-4.5469-3.875-4.5312-3.875-12.438 0-7.8594 3.875-12.438 3.8906-4.5625 10.531-4.5625t10.516 4.5625q3.875 4.5781 3.875 12.438 0 7.9062-3.875 12.438-3.875 4.5469-10.516 4.5469zm19.578 30.922v-8.9844q-3.7188 1.75-7.5 2.6719-3.7812 0.9375-7.5 0.9375-9.7656 0-14.922-6.5938-5.1406-6.5938-5.875-19.922 2.875 4.25 7.2188 6.5156 4.3594 2.2656 9.5781 2.2656 10.984 0 17.359-6.6719 6.375-6.6562 6.375-18.125 0-11.234-6.6406-18.031-6.6406-6.7812-17.672-6.7812-12.656 0-19.344 9.6875-6.6875 9.7031-6.6875 28.109 0 17.281 8.2031 27.562t22.016 10.281q3.7188 0 7.5-0.73438t7.8906-2.1875z"/>
</defs>
<g transform="translate(424.14 178.06) scale(.1 -.1)">
<use xlink:href="#c"/>
<use x="63.623047" xlink:href="#f"/>
<use x="95.410156" xlink:href="#c"/>
<use x="159.033203" xlink:href="#ai"/>
</g>
</g>
<defs>
<clipPath id="a">
<rect width="456" height="240"/>
</clipPath>
</defs>
</svg>
