<?xml version="1.0" encoding="UTF-8"?>
<!DOCTYPE svg  PUBLIC '-//W3C//DTD SVG 1.1//EN'  'http://www.w3.org/Graphics/SVG/1.1/DTD/svg11.dtd'>
<svg width="912pt" height="480pt" version="1.1" viewBox="0 0 912 480" xmlns="http://www.w3.org/2000/svg" xmlns:xlink="http://www.w3.org/1999/xlink">
<defs>
<style type="text/css">*{stroke-linecap:butt;stroke-linejoin:round;white-space:pre;}</style>
</defs>
<path d="m0 480h912v-480h-912z" fill="#fff"/>
<g fill="none" stroke="#000">
<path d="m574.35 22.923v89.903" clip-path="url(#a)"/>
<path d="m574.35 112.83-334.15 87.9" clip-path="url(#a)"/>
<path d="m574.35 112.83 52.212 259.2" clip-path="url(#a)"/>
<path d="m574.35 112.83 100.94 259.2" clip-path="url(#a)"/>
<path d="m574.35 112.83 222.77 174.14" clip-path="url(#a)"/>
<path d="m574.35 112.83-45.25 259.2" clip-path="url(#a)"/>
<path d="m574.35 112.83 3.4808 259.2" clip-path="url(#a)"/>
<path d="m240.19 200.73-198.4 171.3" clip-path="url(#a)"/>
<path d="m240.19 200.73-27.846 171.3" clip-path="url(#a)"/>
<path d="m240.19 200.73-100.94 171.3" clip-path="url(#a)"/>
<path d="m240.19 200.73-52.212 171.3" clip-path="url(#a)"/>
<path d="m240.19 200.73 20.885 86.239" clip-path="url(#a)"/>
<path d="m240.19 200.73 215.81 86.239" clip-path="url(#a)"/>
<path d="m240.19 200.73 142.71 171.3" clip-path="url(#a)"/>
<path d="m626.56 372.02v85.056" clip-path="url(#a)"/>
<path d="m675.29 372.02v85.056" clip-path="url(#a)"/>
<path d="m797.12 286.96-73.096 85.056" clip-path="url(#a)"/>
<path d="m797.12 286.96-24.365 85.056" clip-path="url(#a)"/>
<path d="m797.12 286.96 24.365 85.056" clip-path="url(#a)"/>
<path d="m797.12 286.96 73.096 85.056" clip-path="url(#a)"/>
<path d="m724.02 372.02v85.056" clip-path="url(#a)"/>
<path d="m772.75 372.02v85.056" clip-path="url(#a)"/>
<path d="m41.788 372.02v85.056" clip-path="url(#a)"/>
<path d="m212.35 372.02-121.83 85.056" clip-path="url(#a)"/>
<path d="m212.35 372.02 121.83 85.056" clip-path="url(#a)"/>
<path d="m139.25 372.02v85.056" clip-path="url(#a)"/>
<path d="m187.98 372.02v85.056" clip-path="url(#a)"/>
<path d="m261.08 286.96-24.365 85.056" clip-path="url(#a)"/>
<path d="m261.08 286.96 24.365 85.056" clip-path="url(#a)"/>
<path d="m456 286.96-24.365 85.056" clip-path="url(#a)"/>
<path d="m456 286.96 24.365 85.056" clip-path="url(#a)"/>
<path d="m382.9 372.02v85.056" clip-path="url(#a)"/>
<path d="m431.63 372.02v85.056" clip-path="url(#a)"/>
<path d="m480.37 372.02v85.056" clip-path="url(#a)"/>
<path d="m236.71 372.02v85.056" clip-path="url(#a)"/>
<path d="m285.44 372.02v85.056" clip-path="url(#a)"/>
<path d="m529.1 372.02v85.056" clip-path="url(#a)"/>
<path d="m577.83 372.02v85.056" clip-path="url(#a)"/>
<path d="m821.48 372.02v85.056" clip-path="url(#a)"/>
<path d="m870.21 372.02v85.056" clip-path="url(#a)"/>
</g>
<path d="m568.08 64.866v6.0162q0 2.4 2.4 2.4h7.7425q2.4 0 2.4-2.4v-6.0162q0-2.4-2.4-2.4h-7.7425q-2.4 0-2.4 2.4z" clip-path="url(#a)" fill="#fff" stroke="#fff"/>
<g clip-path="url(#a)">
<defs>
<path id="al" d="m9.8125 72.906h9.8594v-29.891h35.844v29.891h9.8594v-72.906h-9.8594v34.719h-35.844v-34.719h-9.8594z"/>
</defs>
<g transform="translate(572.14 64.866) rotate(90) scale(.08 -.08)">
<use xlink:href="#al"/>
</g>
</g>
<path d="m406.22 163.54 5.2925-1.3922q2.321-0.61055 1.7105-2.9316l-1.9697-7.4878q-0.61055-2.321-2.9316-1.7105l-5.2925 1.3922q-2.321 0.61055-1.7105 2.9316l1.9697 7.4878q0.61055 2.321 2.9316 1.7105z" clip-path="url(#a)" fill="#fff" stroke="#fff"/>
<g clip-path="url(#a)">
<defs>
<path id="p" d="m34.188 63.188-13.391-36.281h26.812zm-5.5781 9.7188h11.188l27.781-72.906h-10.25l-6.6406 18.703h-32.859l-6.6406-18.703h-10.406z"/>
</defs>
<g transform="translate(405.18 159.61) rotate(-14.738) scale(.08 -.08)">
<use xlink:href="#p"/>
</g>
</g>
<path d="m593.83 241.3 0.95255 4.7288q0.47393 2.3527 2.8267 1.8788l7.59-1.5289q2.3527-0.47393 1.8788-2.8267l-0.95255-4.7288q-0.47393-2.3527-2.8267-1.8788l-7.59 1.5289q-2.3527 0.47393-1.8788 2.8267z" clip-path="url(#a)" fill="#fff" stroke="#fff"/>
<g clip-path="url(#a)">
<defs>
<path id="aa" d="m19.672 64.797v-27.391h12.406q6.8906 0 10.641 3.5625 3.7656 3.5625 3.7656 10.156 0 6.5469-3.7656 10.109-3.75 3.5625-10.641 3.5625zm-9.8594 8.1094h22.266q12.266 0 18.531-5.5469 6.2812-5.5469 6.2812-16.234 0-10.797-6.2812-16.312-6.2656-5.5156-18.531-5.5156h-12.406v-29.297h-9.8594z"/>
</defs>
<g transform="translate(597.81 240.49) rotate(78.611) scale(.08 -.08)">
<use xlink:href="#aa"/>
</g>
</g>
<path d="m617.86 241.83 2.2354 5.7401q0.87095 2.2364 3.1073 1.3654l7.2147-2.8097q2.2364-0.87095 1.3654-3.1073l-2.2354-5.7401q-0.87095-2.2364-3.1073-1.3654l-7.2147 2.8097q-2.2364 0.87095-1.3654 3.1073z" clip-path="url(#a)" fill="#fff" stroke="#fff"/>
<g clip-path="url(#a)">
<defs>
<path id="ab" d="m19.672 64.797v-56.688h11.922q15.094 0 22.094 6.8281 7 6.8438 7 21.594 0 14.641-7 21.453t-22.094 6.8125zm-9.8594 8.1094h20.266q21.188 0 31.094-8.8125 9.9219-8.8125 9.9219-27.562 0-18.859-9.9688-27.703-9.9531-8.8281-31.047-8.8281h-20.266z"/>
</defs>
<g transform="translate(621.64 240.35) rotate(68.722) scale(.08 -.08)">
<use xlink:href="#ab"/>
</g>
</g>
<path d="m679.71 203.15 4.3115 3.3703q1.8908 1.4781 3.3689-0.41277l4.7683-6.0999q1.4781-1.8908-0.41277-3.3689l-4.3115-3.3703q-1.8908-1.4781-3.3689 0.41277l-4.7683 6.0999q-1.4781 1.8908 0.41277 3.3689z" clip-path="url(#a)" fill="#fff" stroke="#fff"/>
<g clip-path="url(#a)">
<g transform="translate(682.22 199.95) rotate(38.015) scale(.08 -.08)">
<use xlink:href="#p"/>
</g>
</g>
<path d="m557.4 246.39 1.0069-5.7678q0.41275-2.3642-1.9515-2.777l-7.6271-1.3315q-2.3642-0.41275-2.777 1.9515l-1.0069 5.7678q-0.41275 2.3642 1.9515 2.777l7.6271 1.3315q2.3642 0.41275 2.777-1.9515z" clip-path="url(#a)" fill="#fff" stroke="#fff"/>
<g clip-path="url(#a)">
<defs>
<path id="o" d="m8.6875 72.906h9.9219v-44.297q0-11.719 4.2344-16.875 4.25-5.1406 13.781-5.1406 9.4688 0 13.719 5.1406 4.25 5.1562 4.25 16.875v44.297h9.9062v-45.516q0-14.25-7.0625-21.531-7.0469-7.2812-20.812-7.2812-13.828 0-20.891 7.2812-7.0469 7.2812-7.0469 21.531z"/>
</defs>
<g transform="translate(553.39 245.69) rotate(-80.097) scale(.08 -.08)">
<use xlink:href="#o"/>
</g>
</g>
<path d="m569.78 239.58 0.078621 5.8545q0.032227 2.3998 2.432 2.3676l7.7418-0.10397q2.3998-0.032227 2.3676-2.432l-0.07862-5.8545q-0.032228-2.3998-2.432-2.3676l-7.7418 0.10397q-2.3998 0.032227-2.3676 2.432z" clip-path="url(#a)" fill="#fff" stroke="#fff"/>
<g clip-path="url(#a)">
<g transform="translate(573.84 239.53) rotate(89.231) scale(.08 -.08)">
<use xlink:href="#o"/>
</g>
</g>
<path d="m143.02 292.91 4.1423-3.5763q1.8166-1.5684 0.24821-3.385l-5.0597-5.8605q-1.5684-1.8166-3.385-0.24821l-4.1423 3.5763q-1.8166 1.5684-0.24821 3.385l5.0597 5.8605q1.5684 1.8166 3.385 0.24821z" clip-path="url(#a)" fill="#fff" stroke="#fff"/>
<g clip-path="url(#a)">
<g transform="translate(140.36 289.83) rotate(-40.806) scale(.08 -.08)">
<use xlink:href="#p"/>
</g>
</g>
<path d="m232.07 289.76 0.774-4.7612q0.3851-2.3689-1.9838-2.754l-7.6422-1.2423q-2.3689-0.3851-2.754 1.9838l-0.774 4.7612q-0.3851 2.3689 1.9838 2.754l7.6422 1.2423q2.3689 0.3851 2.754-1.9838z" clip-path="url(#a)" fill="#fff" stroke="#fff"/>
<g clip-path="url(#a)">
<g transform="translate(228.06 289.11) rotate(-80.767) scale(.08 -.08)">
<use xlink:href="#aa"/>
</g>
</g>
<path d="m193.73 291.91 2.7784-4.7148q1.2185-2.0677-0.84922-3.2862l-6.6705-3.9308q-2.0677-1.2185-3.2862 0.84922l-2.7784 4.7148q-1.2185 2.0677 0.84922 3.2862l6.6705 3.9308q2.0677 1.2185 3.2862-0.84922z" clip-path="url(#a)" fill="#fff" stroke="#fff"/>
<g clip-path="url(#a)">
<g transform="translate(190.23 289.85) rotate(-59.49) scale(.08 -.08)">
<use xlink:href="#p"/>
</g>
</g>
<path d="m219.19 291.15 1.796-5.8924q0.69975-2.2957-1.596-2.9955l-7.4061-2.2574q-2.2957-0.69975-2.9955 1.596l-1.796 5.8924q-0.69975 2.2957 1.596 2.9955l7.4061 2.2574q2.2957 0.69975 2.9955-1.596z" clip-path="url(#a)" fill="#fff" stroke="#fff"/>
<g clip-path="url(#a)">
<g transform="translate(215.3 289.96) rotate(-73.049) scale(.08 -.08)">
<use xlink:href="#ab"/>
</g>
</g>
<path d="m243.9 242.66 1.288 5.3188q0.56488 2.3326 2.8975 1.7677l7.525-1.8223q2.3326-0.56488 1.7677-2.8975l-1.288-5.3188q-0.56488-2.3326-2.8975-1.7677l-7.525 1.8223q-2.3326 0.56488-1.7677 2.8975z" clip-path="url(#a)" fill="#fff" stroke="#fff"/>
<g clip-path="url(#a)">
<g transform="translate(247.84 241.71) rotate(76.387) scale(.08 -.08)">
<use xlink:href="#p"/>
</g>
</g>
<path d="m342.89 248.52 5.7562 2.3002q2.2286 0.89059 3.1192-1.3381l2.8731-7.1897q0.89059-2.2286-1.3381-3.1192l-5.7562-2.3002q-2.2286-0.89059-3.1192 1.3381l-2.8731 7.1897q-0.89059 2.2286 1.3381 3.1192z" clip-path="url(#a)" fill="#fff" stroke="#fff"/>
<g clip-path="url(#a)">
<defs>
<path id="am" d="m59.516 10.406v19.578h-16.109v8.1094h25.875v-31.312q-5.7031-4.0469-12.594-6.125-6.875-2.0781-14.688-2.0781-17.094 0-26.75 9.9844-9.6406 10-9.6406 27.812 0 17.875 9.6406 27.859 9.6562 9.9844 26.75 9.9844 7.125 0 13.547-1.7656 6.4219-1.75 11.844-5.1719v-10.5q-5.4688 4.6406-11.625 6.9844t-12.938 2.3438q-13.391 0-20.109-7.4688-6.7031-7.4688-6.7031-22.266 0-14.75 6.7031-22.219 6.7188-7.4688 20.109-7.4688 5.2188 0 9.3125 0.90625 4.1094 0.90625 7.375 2.8125z"/>
</defs>
<g transform="translate(344.4 244.75) rotate(21.782) scale(.08 -.08)">
<use xlink:href="#am"/>
</g>
</g>
<path d="m304.86 288.14 3.7477 4.4984q1.5362 1.8439 3.3801 0.30769l5.9485-4.9559q1.8439-1.5362 0.30769-3.3801l-3.7477-4.4984q-1.5362-1.8439-3.3801-0.30769l-5.9485 4.9559q-1.8439 1.5362-0.30769 3.3801z" clip-path="url(#a)" fill="#fff" stroke="#fff"/>
<g clip-path="url(#a)">
<g transform="translate(307.98 285.54) rotate(50.201) scale(.08 -.08)">
<use xlink:href="#o"/>
</g>
</g>
<path d="m620.29 396.91v35.285q0 2.4 2.4 2.4h7.7425q2.4 0 2.4-2.4v-35.285q0-2.4-2.4-2.4h-7.7425q-2.4 0-2.4 2.4z" clip-path="url(#a)" fill="#fff" stroke="#fff"/>
<g clip-path="url(#a)">
<defs>
<path id="l" d="m-0.29688 72.906h61.672v-8.3125h-25.875v-64.594h-9.9062v64.594h-25.891z"/>
<path id="d" d="m56.203 29.594v-4.3906h-41.312q0.59375-9.2812 5.5938-14.141t13.938-4.8594q5.1719 0 10.031 1.2656t9.6562 3.8125v-8.5q-4.8438-2.0469-9.9219-3.125t-10.297-1.0781q-13.094 0-20.734 7.6094-7.6406 7.625-7.6406 20.625 0 13.422 7.25 21.297 7.25 7.8906 19.562 7.8906 11.031 0 17.453-7.1094 6.4219-7.0938 6.4219-19.297zm-8.9844 2.6406q-0.09375 7.3594-4.125 11.75-4.0312 4.4062-10.672 4.4062-7.5156 0-12.031-4.25t-5.2031-11.969z"/>
<path id="e" d="m41.109 46.297q-1.5156 0.875-3.2969 1.2812-1.7812 0.42188-3.9219 0.42188-7.625 0-11.703-4.9531t-4.0781-14.234v-28.812h-9.0312v54.688h9.0312v-8.5q2.8438 4.9844 7.375 7.3906 4.5469 2.4219 11.047 2.4219 0.92188 0 2.0469-0.125 1.125-0.10938 2.4844-0.35938z"/>
<path id="j" d="m52 44.188q3.375 6.0625 8.0625 8.9375t11.031 2.875q8.5469 0 13.188-5.9844 4.6406-5.9688 4.6406-17v-33.016h-9.0312v32.719q0 7.8594-2.7969 11.656-2.7812 3.8125-8.4844 3.8125-6.9844 0-11.047-4.6406-4.0469-4.625-4.0469-12.641v-30.906h-9.0312v32.719q0 7.9062-2.7812 11.688t-8.5938 3.7812q-6.8906 0-10.953-4.6562-4.0469-4.6562-4.0469-12.625v-30.906h-9.0312v54.688h9.0312v-8.5q3.0781 5.0312 7.375 7.4219t10.203 2.3906q5.9688 0 10.141-3.0312 4.1719-3.0156 6.1719-8.7812z"/>
<path id="i" d="m9.4219 54.688h8.9844v-54.688h-8.9844zm0 21.297h8.9844v-11.391h-8.9844z"/>
<path id="g" d="m54.891 33.016v-33.016h-8.9844v32.719q0 7.7656-3.0312 11.609-3.0312 3.8594-9.0781 3.8594-7.2812 0-11.484-4.6406-4.2031-4.625-4.2031-12.641v-30.906h-9.0312v54.688h9.0312v-8.5q3.2344 4.9375 7.5938 7.375 4.375 2.4375 10.094 2.4375 9.4219 0 14.25-5.8281 4.8438-5.8281 4.8438-17.156z"/>
<path id="h" d="m34.281 27.484q-10.891 0-15.094-2.4844t-4.2031-8.5q0-4.7812 3.1562-7.5938 3.1562-2.7969 8.5625-2.7969 7.4844 0 12 5.2969t4.5156 14.078v2zm17.922 3.7188v-31.203h-8.9844v8.2969q-3.0781-4.9688-7.6719-7.3438t-11.234-2.375q-8.3906 0-13.359 4.7188-4.9531 4.7188-4.9531 12.625 0 9.2188 6.1719 13.906 6.1875 4.6875 18.438 4.6875h12.609v0.89062q0 6.2031-4.0781 9.5938t-11.453 3.3906q-4.6875 0-9.1406-1.125-4.4375-1.125-8.5312-3.375v8.3125q4.9219 1.9062 9.5625 2.8438 4.6406 0.95312 9.0312 0.95312 11.875 0 17.734-6.1562 5.8594-6.1406 5.8594-18.641z"/>
<path id="k" d="m9.4219 75.984h8.9844v-75.984h-8.9844z"/>
</defs>
<g transform="translate(624.35 396.91) rotate(90) scale(.08 -.08)">
<use xlink:href="#l"/>
<use x="60.818359" xlink:href="#d"/>
<use x="122.341797" xlink:href="#e"/>
<use x="163.439453" xlink:href="#j"/>
<use x="260.851562" xlink:href="#i"/>
<use x="288.634766" xlink:href="#g"/>
<use x="352.013672" xlink:href="#h"/>
<use x="413.292969" xlink:href="#k"/>
</g>
</g>
<path d="m669.02 396.91v35.285q0 2.4 2.4 2.4h7.7425q2.4 0 2.4-2.4v-35.285q0-2.4-2.4-2.4h-7.7425q-2.4 0-2.4 2.4z" clip-path="url(#a)" fill="#fff" stroke="#fff"/>
<g clip-path="url(#a)">
<g transform="translate(673.08 396.91) rotate(90) scale(.08 -.08)">
<use xlink:href="#l"/>
<use x="60.818359" xlink:href="#d"/>
<use x="122.341797" xlink:href="#e"/>
<use x="163.439453" xlink:href="#j"/>
<use x="260.851562" xlink:href="#i"/>
<use x="288.634766" xlink:href="#g"/>
<use x="352.013672" xlink:href="#h"/>
<use x="413.292969" xlink:href="#k"/>
</g>
</g>
<path d="m763.68 335.5 3.2947-3.8338q1.5643-1.8202-0.25594-3.3844l-5.872-5.0464q-1.8202-1.5643-3.3844 0.25594l-3.2947 3.8338q-1.5643 1.8202 0.25594 3.3844l5.872 5.0464q1.8202 1.5643 3.3844-0.25594z" clip-path="url(#a)" fill="#fff" stroke="#fff"/>
<g clip-path="url(#a)">
<defs>
<path id="t" d="m9.8125 72.906h46.094v-8.3125h-36.234v-21.578h34.719v-8.2969h-34.719v-26.422h37.109v-8.2969h-46.969z"/>
</defs>
<g transform="translate(760.59 332.85) rotate(-49.325) scale(.08 -.08)">
<use xlink:href="#t"/>
</g>
</g>
<path d="m790.19 333.91 1.5384-5.3702q0.66093-2.3072-1.6463-2.9681l-7.4431-2.1322q-2.3072-0.66093-2.9681 1.6463l-1.5384 5.3702q-0.66093 2.3072 1.6463 2.9681l7.4431 2.1322q2.3072 0.66093 2.9681-1.6463z" clip-path="url(#a)" fill="#fff" stroke="#fff"/>
<g clip-path="url(#a)">
<defs>
<path id="u" d="m64.406 67.281v-10.391q-4.9844 4.6406-10.625 6.9219-5.6406 2.2969-11.984 2.2969-12.5 0-19.141-7.6406t-6.6406-22.094q0-14.406 6.6406-22.047t19.141-7.6406q6.3438 0 11.984 2.2969t10.625 6.9375v-10.312q-5.1719-3.5156-10.969-5.2812-5.7812-1.75-12.219-1.75-16.562 0-26.094 10.125-9.5156 10.141-9.5156 27.672 0 17.578 9.5156 27.703 9.5312 10.141 26.094 10.141 6.5312 0 12.312-1.7344 5.7969-1.7344 10.875-5.2031z"/>
</defs>
<g transform="translate(786.29 332.79) rotate(-74.015) scale(.08 -.08)">
<use xlink:href="#u"/>
</g>
</g>
<path d="m802.46 328.41 1.6124 5.6286q0.66093 2.3072 2.9681 1.6463l7.4431-2.1322q2.3072-0.66093 1.6463-2.9681l-1.6124-5.6286q-0.66093-2.3072-2.9681-1.6463l-7.4431 2.1322q-2.3072 0.66093-1.6463 2.9681z" clip-path="url(#a)" fill="#fff" stroke="#fff"/>
<g clip-path="url(#a)">
<g transform="translate(806.37 327.29) rotate(74.015) scale(.08 -.08)">
<use xlink:href="#o"/>
</g>
</g>
<path d="m827 331.36 3.8161 4.4405q1.5643 1.8202 3.3844 0.25594l5.872-5.0464q1.8202-1.5643 0.25594-3.3844l-3.8161-4.4405q-1.5643-1.8202-3.3844-0.25594l-5.872 5.0464q-1.8202 1.5643-0.25594 3.3844z" clip-path="url(#a)" fill="#fff" stroke="#fff"/>
<g clip-path="url(#a)">
<g transform="translate(830.08 328.71) rotate(49.325) scale(.08 -.08)">
<use xlink:href="#o"/>
</g>
</g>
<path d="m717.75 396.91v35.285q0 2.4 2.4 2.4h7.7425q2.4 0 2.4-2.4v-35.285q0-2.4-2.4-2.4h-7.7425q-2.4 0-2.4 2.4z" clip-path="url(#a)" fill="#fff" stroke="#fff"/>
<g clip-path="url(#a)">
<g transform="translate(721.81 396.91) rotate(90) scale(.08 -.08)">
<use xlink:href="#l"/>
<use x="60.818359" xlink:href="#d"/>
<use x="122.341797" xlink:href="#e"/>
<use x="163.439453" xlink:href="#j"/>
<use x="260.851562" xlink:href="#i"/>
<use x="288.634766" xlink:href="#g"/>
<use x="352.013672" xlink:href="#h"/>
<use x="413.292969" xlink:href="#k"/>
</g>
</g>
<path d="m766.48 396.91v35.285q0 2.4 2.4 2.4h7.7425q2.4 0 2.4-2.4v-35.285q0-2.4-2.4-2.4h-7.7425q-2.4 0-2.4 2.4z" clip-path="url(#a)" fill="#fff" stroke="#fff"/>
<g clip-path="url(#a)">
<g transform="translate(770.54 396.91) rotate(90) scale(.08 -.08)">
<use xlink:href="#l"/>
<use x="60.818359" xlink:href="#d"/>
<use x="122.341797" xlink:href="#e"/>
<use x="163.439453" xlink:href="#j"/>
<use x="260.851562" xlink:href="#i"/>
<use x="288.634766" xlink:href="#g"/>
<use x="352.013672" xlink:href="#h"/>
<use x="413.292969" xlink:href="#k"/>
</g>
</g>
<path d="m35.516 396.91v35.285q0 2.4 2.4 2.4h7.7425q2.4 0 2.4-2.4v-35.285q0-2.4-2.4-2.4h-7.7425q-2.4 0-2.4 2.4z" clip-path="url(#a)" fill="#fff" stroke="#fff"/>
<g clip-path="url(#a)">
<g transform="translate(39.58 396.91) rotate(90) scale(.08 -.08)">
<use xlink:href="#l"/>
<use x="60.818359" xlink:href="#d"/>
<use x="122.341797" xlink:href="#e"/>
<use x="163.439453" xlink:href="#j"/>
<use x="260.851562" xlink:href="#i"/>
<use x="288.634766" xlink:href="#g"/>
<use x="352.013672" xlink:href="#h"/>
<use x="413.292969" xlink:href="#k"/>
</g>
</g>
<path d="m140.56 429.79 28.931-20.199q1.9678-1.3739 0.59396-3.3417l-4.4322-6.3484q-1.3739-1.9678-3.3417-0.59396l-28.931 20.199q-1.9678 1.3739-0.59396 3.3417l4.4322 6.3484q1.3739 1.9678 3.3417 0.59396z" clip-path="url(#a)" fill="#fff" stroke="#fff"/>
<g clip-path="url(#a)">
<g transform="translate(138.23 426.46) rotate(-34.922) scale(.08 -.08)">
<use xlink:href="#l"/>
<use x="60.818359" xlink:href="#d"/>
<use x="122.341797" xlink:href="#e"/>
<use x="163.439453" xlink:href="#j"/>
<use x="260.851562" xlink:href="#i"/>
<use x="288.634766" xlink:href="#g"/>
<use x="352.013672" xlink:href="#h"/>
<use x="413.292969" xlink:href="#k"/>
</g>
</g>
<path d="m255.2 409.59 28.931 20.199q1.9678 1.3739 3.3417-0.59396l4.4322-6.3484q1.3739-1.9678-0.59396-3.3417l-28.931-20.199q-1.9678-1.3739-3.3417 0.59396l-4.4322 6.3484q-1.3739 1.9678 0.59396 3.3417z" clip-path="url(#a)" fill="#fff" stroke="#fff"/>
<g clip-path="url(#a)">
<g transform="translate(257.53 406.26) rotate(34.922) scale(.08 -.08)">
<use xlink:href="#l"/>
<use x="60.818359" xlink:href="#d"/>
<use x="122.341797" xlink:href="#e"/>
<use x="163.439453" xlink:href="#j"/>
<use x="260.851562" xlink:href="#i"/>
<use x="288.634766" xlink:href="#g"/>
<use x="352.013672" xlink:href="#h"/>
<use x="413.292969" xlink:href="#k"/>
</g>
</g>
<path d="m132.98 396.91v35.285q0 2.4 2.4 2.4h7.7425q2.4 0 2.4-2.4v-35.285q0-2.4-2.4-2.4h-7.7425q-2.4 0-2.4 2.4z" clip-path="url(#a)" fill="#fff" stroke="#fff"/>
<g clip-path="url(#a)">
<g transform="translate(137.04 396.91) rotate(90) scale(.08 -.08)">
<use xlink:href="#l"/>
<use x="60.818359" xlink:href="#d"/>
<use x="122.341797" xlink:href="#e"/>
<use x="163.439453" xlink:href="#j"/>
<use x="260.851562" xlink:href="#i"/>
<use x="288.634766" xlink:href="#g"/>
<use x="352.013672" xlink:href="#h"/>
<use x="413.292969" xlink:href="#k"/>
</g>
</g>
<path d="m181.71 396.91v35.285q0 2.4 2.4 2.4h7.7425q2.4 0 2.4-2.4v-35.285q0-2.4-2.4-2.4h-7.7425q-2.4 0-2.4 2.4z" clip-path="url(#a)" fill="#fff" stroke="#fff"/>
<g clip-path="url(#a)">
<g transform="translate(185.77 396.91) rotate(90) scale(.08 -.08)">
<use xlink:href="#l"/>
<use x="60.818359" xlink:href="#d"/>
<use x="122.341797" xlink:href="#e"/>
<use x="163.439453" xlink:href="#j"/>
<use x="260.851562" xlink:href="#i"/>
<use x="288.634766" xlink:href="#g"/>
<use x="352.013672" xlink:href="#h"/>
<use x="413.292969" xlink:href="#k"/>
</g>
</g>
<path d="m254.23 333.65 1.3921-4.8595q0.66093-2.3072-1.6463-2.9681l-7.4431-2.1322q-2.3072-0.66093-2.9681 1.6463l-1.3921 4.8595q-0.66093 2.3072 1.6463 2.9681l7.4431 2.1322q2.3072 0.66093 2.9681-1.6463z" clip-path="url(#a)" fill="#fff" stroke="#fff"/>
<g clip-path="url(#a)">
<g transform="translate(250.32 332.53) rotate(-74.015) scale(.08 -.08)">
<use xlink:href="#t"/>
</g>
</g>
<path d="m266.46 328.53 1.5384 5.3702q0.66093 2.3072 2.9681 1.6463l7.4431-2.1322q2.3072-0.66093 1.6463-2.9681l-1.5384-5.3702q-0.66093-2.3072-2.9681-1.6463l-7.4431 2.1322q-2.3072 0.66093-1.6463 2.9681z" clip-path="url(#a)" fill="#fff" stroke="#fff"/>
<g clip-path="url(#a)">
<g transform="translate(270.37 327.42) rotate(74.015) scale(.08 -.08)">
<use xlink:href="#u"/>
</g>
</g>
<path d="m449.15 333.65 1.3921-4.8595q0.66093-2.3072-1.6463-2.9681l-7.4431-2.1322q-2.3072-0.66093-2.9681 1.6463l-1.3921 4.8595q-0.66093 2.3072 1.6463 2.9681l7.4431 2.1322q2.3072 0.66093 2.9681-1.6463z" clip-path="url(#a)" fill="#fff" stroke="#fff"/>
<g clip-path="url(#a)">
<g transform="translate(445.24 332.53) rotate(-74.015) scale(.08 -.08)">
<use xlink:href="#t"/>
</g>
</g>
<path d="m461.38 328.53 1.5384 5.3702q0.66093 2.3072 2.9681 1.6463l7.4431-2.1322q2.3072-0.66093 1.6463-2.9681l-1.5384-5.3702q-0.66093-2.3072-2.9681-1.6463l-7.4431 2.1322q-2.3072 0.66093-1.6463 2.9681z" clip-path="url(#a)" fill="#fff" stroke="#fff"/>
<g clip-path="url(#a)">
<g transform="translate(465.29 327.42) rotate(74.015) scale(.08 -.08)">
<use xlink:href="#u"/>
</g>
</g>
<path d="m376.63 396.91v35.285q0 2.4 2.4 2.4h7.7425q2.4 0 2.4-2.4v-35.285q0-2.4-2.4-2.4h-7.7425q-2.4 0-2.4 2.4z" clip-path="url(#a)" fill="#fff" stroke="#fff"/>
<g clip-path="url(#a)">
<g transform="translate(380.7 396.91) rotate(90) scale(.08 -.08)">
<use xlink:href="#l"/>
<use x="60.818359" xlink:href="#d"/>
<use x="122.341797" xlink:href="#e"/>
<use x="163.439453" xlink:href="#j"/>
<use x="260.851562" xlink:href="#i"/>
<use x="288.634766" xlink:href="#g"/>
<use x="352.013672" xlink:href="#h"/>
<use x="413.292969" xlink:href="#k"/>
</g>
</g>
<path d="m425.36 396.91v35.285q0 2.4 2.4 2.4h7.7425q2.4 0 2.4-2.4v-35.285q0-2.4-2.4-2.4h-7.7425q-2.4 0-2.4 2.4z" clip-path="url(#a)" fill="#fff" stroke="#fff"/>
<g clip-path="url(#a)">
<g transform="translate(429.43 396.91) rotate(90) scale(.08 -.08)">
<use xlink:href="#l"/>
<use x="60.818359" xlink:href="#d"/>
<use x="122.341797" xlink:href="#e"/>
<use x="163.439453" xlink:href="#j"/>
<use x="260.851562" xlink:href="#i"/>
<use x="288.634766" xlink:href="#g"/>
<use x="352.013672" xlink:href="#h"/>
<use x="413.292969" xlink:href="#k"/>
</g>
</g>
<path d="m474.09 396.91v35.285q0 2.4 2.4 2.4h7.7425q2.4 0 2.4-2.4v-35.285q0-2.4-2.4-2.4h-7.7425q-2.4 0-2.4 2.4z" clip-path="url(#a)" fill="#fff" stroke="#fff"/>
<g clip-path="url(#a)">
<g transform="translate(478.16 396.91) rotate(90) scale(.08 -.08)">
<use xlink:href="#l"/>
<use x="60.818359" xlink:href="#d"/>
<use x="122.341797" xlink:href="#e"/>
<use x="163.439453" xlink:href="#j"/>
<use x="260.851562" xlink:href="#i"/>
<use x="288.634766" xlink:href="#g"/>
<use x="352.013672" xlink:href="#h"/>
<use x="413.292969" xlink:href="#k"/>
</g>
</g>
<path d="m230.44 396.91v35.285q0 2.4 2.4 2.4h7.7425q2.4 0 2.4-2.4v-35.285q0-2.4-2.4-2.4h-7.7425q-2.4 0-2.4 2.4z" clip-path="url(#a)" fill="#fff" stroke="#fff"/>
<g clip-path="url(#a)">
<g transform="translate(234.5 396.91) rotate(90) scale(.08 -.08)">
<use xlink:href="#l"/>
<use x="60.818359" xlink:href="#d"/>
<use x="122.341797" xlink:href="#e"/>
<use x="163.439453" xlink:href="#j"/>
<use x="260.851562" xlink:href="#i"/>
<use x="288.634766" xlink:href="#g"/>
<use x="352.013672" xlink:href="#h"/>
<use x="413.292969" xlink:href="#k"/>
</g>
</g>
<path d="m279.17 396.91v35.285q0 2.4 2.4 2.4h7.7425q2.4 0 2.4-2.4v-35.285q0-2.4-2.4-2.4h-7.7425q-2.4 0-2.4 2.4z" clip-path="url(#a)" fill="#fff" stroke="#fff"/>
<g clip-path="url(#a)">
<g transform="translate(283.23 396.91) rotate(90) scale(.08 -.08)">
<use xlink:href="#l"/>
<use x="60.818359" xlink:href="#d"/>
<use x="122.341797" xlink:href="#e"/>
<use x="163.439453" xlink:href="#j"/>
<use x="260.851562" xlink:href="#i"/>
<use x="288.634766" xlink:href="#g"/>
<use x="352.013672" xlink:href="#h"/>
<use x="413.292969" xlink:href="#k"/>
</g>
</g>
<path d="m522.83 396.91v35.285q0 2.4 2.4 2.4h7.7425q2.4 0 2.4-2.4v-35.285q0-2.4-2.4-2.4h-7.7425q-2.4 0-2.4 2.4z" clip-path="url(#a)" fill="#fff" stroke="#fff"/>
<g clip-path="url(#a)">
<g transform="translate(526.89 396.91) rotate(90) scale(.08 -.08)">
<use xlink:href="#l"/>
<use x="60.818359" xlink:href="#d"/>
<use x="122.341797" xlink:href="#e"/>
<use x="163.439453" xlink:href="#j"/>
<use x="260.851562" xlink:href="#i"/>
<use x="288.634766" xlink:href="#g"/>
<use x="352.013672" xlink:href="#h"/>
<use x="413.292969" xlink:href="#k"/>
</g>
</g>
<path d="m571.56 396.91v35.285q0 2.4 2.4 2.4h7.7425q2.4 0 2.4-2.4v-35.285q0-2.4-2.4-2.4h-7.7425q-2.4 0-2.4 2.4z" clip-path="url(#a)" fill="#fff" stroke="#fff"/>
<g clip-path="url(#a)">
<g transform="translate(575.62 396.91) rotate(90) scale(.08 -.08)">
<use xlink:href="#l"/>
<use x="60.818359" xlink:href="#d"/>
<use x="122.341797" xlink:href="#e"/>
<use x="163.439453" xlink:href="#j"/>
<use x="260.851562" xlink:href="#i"/>
<use x="288.634766" xlink:href="#g"/>
<use x="352.013672" xlink:href="#h"/>
<use x="413.292969" xlink:href="#k"/>
</g>
</g>
<path d="m815.21 396.91v35.285q0 2.4 2.4 2.4h7.7425q2.4 0 2.4-2.4v-35.285q0-2.4-2.4-2.4h-7.7425q-2.4 0-2.4 2.4z" clip-path="url(#a)" fill="#fff" stroke="#fff"/>
<g clip-path="url(#a)">
<g transform="translate(819.27 396.91) rotate(90) scale(.08 -.08)">
<use xlink:href="#l"/>
<use x="60.818359" xlink:href="#d"/>
<use x="122.341797" xlink:href="#e"/>
<use x="163.439453" xlink:href="#j"/>
<use x="260.851562" xlink:href="#i"/>
<use x="288.634766" xlink:href="#g"/>
<use x="352.013672" xlink:href="#h"/>
<use x="413.292969" xlink:href="#k"/>
</g>
</g>
<path d="m863.94 396.91v35.285q0 2.4 2.4 2.4h7.7425q2.4 0 2.4-2.4v-35.285q0-2.4-2.4-2.4h-7.7425q-2.4 0-2.4 2.4z" clip-path="url(#a)" fill="#fff" stroke="#fff"/>
<g clip-path="url(#a)">
<g transform="translate(868 396.91) rotate(90) scale(.08 -.08)">
<use xlink:href="#l"/>
<use x="60.818359" xlink:href="#d"/>
<use x="122.341797" xlink:href="#e"/>
<use x="163.439453" xlink:href="#j"/>
<use x="260.851562" xlink:href="#i"/>
<use x="288.634766" xlink:href="#g"/>
<use x="352.013672" xlink:href="#h"/>
<use x="413.292969" xlink:href="#k"/>
</g>
</g>
<defs>
<path id="b" d="m0 8.6603c2.2967 0 4.4997-0.9125 6.1237-2.5365 1.624-1.624 2.5365-3.827 2.5365-6.1237s-0.9125-4.4997-2.5365-6.1237c-1.624-1.624-3.827-2.5365-6.1237-2.5365s-4.4997 0.9125-6.1237 2.5365c-1.624 1.624-2.5365 3.827-2.5365 6.1237s0.9125 4.4997 2.5365 6.1237c1.624 1.624 3.827 2.5365 6.1237 2.5365z"/>
</defs>
<g clip-path="url(#a)">
<use x="41.78772" y="457.076908" fill="#ffffff" stroke="#ffffff" xlink:href="#b"/>
</g>
<g clip-path="url(#a)">
<use x="90.518577" y="457.076908" fill="#ffffff" stroke="#ffffff" xlink:href="#b"/>
</g>
<g clip-path="url(#a)">
<use x="139.249433" y="457.076908" fill="#ffffff" stroke="#ffffff" xlink:href="#b"/>
</g>
<g clip-path="url(#a)">
<use x="187.98029" y="457.076908" fill="#ffffff" stroke="#ffffff" xlink:href="#b"/>
</g>
<g clip-path="url(#a)">
<use x="236.711146" y="457.076908" fill="#ffffff" stroke="#ffffff" xlink:href="#b"/>
</g>
<g clip-path="url(#a)">
<use x="285.442003" y="457.076908" fill="#ffffff" stroke="#ffffff" xlink:href="#b"/>
</g>
<g clip-path="url(#a)">
<use x="334.172859" y="457.076908" fill="#ffffff" stroke="#ffffff" xlink:href="#b"/>
</g>
<g clip-path="url(#a)">
<use x="382.903715" y="457.076908" fill="#ffffff" stroke="#ffffff" xlink:href="#b"/>
</g>
<g clip-path="url(#a)">
<use x="431.634572" y="457.076908" fill="#ffffff" stroke="#ffffff" xlink:href="#b"/>
</g>
<g clip-path="url(#a)">
<use x="480.365428" y="457.076908" fill="#ffffff" stroke="#ffffff" xlink:href="#b"/>
</g>
<g clip-path="url(#a)">
<use x="529.096285" y="457.076908" fill="#ffffff" stroke="#ffffff" xlink:href="#b"/>
</g>
<g clip-path="url(#a)">
<use x="577.827141" y="457.076908" fill="#ffffff" stroke="#ffffff" xlink:href="#b"/>
</g>
<g clip-path="url(#a)">
<use x="626.557997" y="457.076908" fill="#ffffff" stroke="#ffffff" xlink:href="#b"/>
</g>
<g clip-path="url(#a)">
<use x="675.288854" y="457.076908" fill="#ffffff" stroke="#ffffff" xlink:href="#b"/>
</g>
<g clip-path="url(#a)">
<use x="724.01971" y="457.076908" fill="#ffffff" stroke="#ffffff" xlink:href="#b"/>
</g>
<g clip-path="url(#a)">
<use x="772.750567" y="457.076908" fill="#ffffff" stroke="#ffffff" xlink:href="#b"/>
</g>
<g clip-path="url(#a)">
<use x="821.481423" y="457.076908" fill="#ffffff" stroke="#ffffff" xlink:href="#b"/>
</g>
<g clip-path="url(#a)">
<use x="870.21228" y="457.076908" fill="#ffffff" stroke="#ffffff" xlink:href="#b"/>
</g>
<g clip-path="url(#a)">
<use x="574.346366" y="22.923092" fill="#ffffff" stroke="#ffffff" xlink:href="#b"/>
</g>
<g clip-path="url(#a)">
<use x="574.346366" y="112.82576" fill="#ffffff" stroke="#ffffff" xlink:href="#b"/>
</g>
<g clip-path="url(#a)">
<use x="240.191922" y="200.72561" fill="#ffffff" stroke="#ffffff" xlink:href="#b"/>
</g>
<g clip-path="url(#a)">
<use x="626.557997" y="372.020883" fill="#ffffff" stroke="#ffffff" xlink:href="#b"/>
</g>
<g clip-path="url(#a)">
<use x="675.288854" y="372.020883" fill="#ffffff" stroke="#ffffff" xlink:href="#b"/>
</g>
<g clip-path="url(#a)">
<use x="797.115995" y="286.964858" fill="#ffffff" stroke="#ffffff" xlink:href="#b"/>
</g>
<g clip-path="url(#a)">
<use x="724.01971" y="372.020883" fill="#ffffff" stroke="#ffffff" xlink:href="#b"/>
</g>
<g clip-path="url(#a)">
<use x="772.750567" y="372.020883" fill="#ffffff" stroke="#ffffff" xlink:href="#b"/>
</g>
<g clip-path="url(#a)">
<use x="41.78772" y="372.020883" fill="#ffffff" stroke="#ffffff" xlink:href="#b"/>
</g>
<g clip-path="url(#a)">
<use x="212.345718" y="372.020883" fill="#ffffff" stroke="#ffffff" xlink:href="#b"/>
</g>
<g clip-path="url(#a)">
<use x="139.249433" y="372.020883" fill="#ffffff" stroke="#ffffff" xlink:href="#b"/>
</g>
<g clip-path="url(#a)">
<use x="187.98029" y="372.020883" fill="#ffffff" stroke="#ffffff" xlink:href="#b"/>
</g>
<g clip-path="url(#a)">
<use x="261.076574" y="286.964858" fill="#ffffff" stroke="#ffffff" xlink:href="#b"/>
</g>
<g clip-path="url(#a)">
<use x="456" y="286.964858" fill="#ffffff" stroke="#ffffff" xlink:href="#b"/>
</g>
<g clip-path="url(#a)">
<use x="382.903715" y="372.020883" fill="#ffffff" stroke="#ffffff" xlink:href="#b"/>
</g>
<g clip-path="url(#a)">
<use x="431.634572" y="372.020883" fill="#ffffff" stroke="#ffffff" xlink:href="#b"/>
</g>
<g clip-path="url(#a)">
<use x="480.365428" y="372.020883" fill="#ffffff" stroke="#ffffff" xlink:href="#b"/>
</g>
<g clip-path="url(#a)">
<use x="236.711146" y="372.020883" fill="#ffffff" stroke="#ffffff" xlink:href="#b"/>
</g>
<g clip-path="url(#a)">
<use x="285.442003" y="372.020883" fill="#ffffff" stroke="#ffffff" xlink:href="#b"/>
</g>
<g clip-path="url(#a)">
<use x="529.096285" y="372.020883" fill="#ffffff" stroke="#ffffff" xlink:href="#b"/>
</g>
<g clip-path="url(#a)">
<use x="577.827141" y="372.020883" fill="#ffffff" stroke="#ffffff" xlink:href="#b"/>
</g>
<g clip-path="url(#a)">
<use x="821.481423" y="372.020883" fill="#ffffff" stroke="#ffffff" xlink:href="#b"/>
</g>
<g clip-path="url(#a)">
<use x="870.21228" y="372.020883" fill="#ffffff" stroke="#ffffff" xlink:href="#b"/>
</g>
<g clip-path="url(#a)">
<defs>
<path id="s" d="m9.8125 72.906h9.8594v-72.906h-9.8594z"/>
<path id="z" d="m48.781 52.594v-8.4062q-3.8125 2.1094-7.6406 3.1562t-7.7344 1.0469q-8.75 0-13.594-5.5469-4.8281-5.5312-4.8281-15.547t4.8281-15.562q4.8438-5.5312 13.594-5.5312 3.9062 0 7.7344 1.0469t7.6406 3.1562v-8.3125q-3.7656-1.75-7.7969-2.625-4.0156-0.89062-8.5625-0.89062-12.359 0-19.641 7.7656-7.2656 7.7656-7.2656 20.953 0 13.375 7.3438 21.031 7.3594 7.6719 20.156 7.6719 4.1406 0 8.0938-0.85938 3.9531-0.84375 7.6719-2.5469z"/>
<path id="r" d="m54.891 33.016v-33.016h-8.9844v32.719q0 7.7656-3.0312 11.609-3.0312 3.8594-9.0781 3.8594-7.2812 0-11.484-4.6406-4.2031-4.625-4.2031-12.641v-30.906h-9.0312v75.984h9.0312v-29.797q3.2344 4.9375 7.5938 7.375 4.375 2.4375 10.094 2.4375 9.4219 0 14.25-5.8281 4.8438-5.8281 4.8438-17.156z"/>
</defs>
<g transform="translate(34.395 459.84) scale(.1 -.1)">
<use xlink:href="#s"/>
<use x="29.492188" xlink:href="#z"/>
<use x="84.472656" xlink:href="#r"/>
</g>
</g>
<g clip-path="url(#a)">
<defs>
<path id="au" d="m37.109 75.984v-7.4844h-8.5938q-4.8281 0-6.7188-1.9531-1.875-1.9531-1.875-7.0312v-4.8281h14.797v-6.9844h-14.797v-47.703h-9.0312v47.703h-8.5938v6.9844h8.5938v3.8125q0 9.125 4.25 13.297 4.25 4.1875 13.469 4.1875z"/>
<path id="y" d="m30.609 48.391q-7.2188 0-11.422-5.6406t-4.2031-15.453 4.1719-15.453q4.1875-5.6406 11.453-5.6406 7.1875 0 11.375 5.6562 4.2031 5.6719 4.2031 15.438 0 9.7188-4.2031 15.406-4.1875 5.6875-11.375 5.6875zm0 7.6094q11.719 0 18.406-7.625 6.7031-7.6094 6.7031-21.078 0-13.422-6.7031-21.078-6.6875-7.6406-18.406-7.6406-11.766 0-18.438 7.6406-6.6562 7.6562-6.6562 21.078 0 13.469 6.6562 21.078 6.6719 7.625 18.438 7.625z"/>
<path id="q" d="m45.406 46.391v29.594h8.9844v-75.984h-8.9844v8.2031q-2.8281-4.875-7.1562-7.25-4.3125-2.375-10.375-2.375-9.9062 0-16.141 7.9062-6.2188 7.9219-6.2188 20.812t6.2188 20.797q6.2344 7.9062 16.141 7.9062 6.0625 0 10.375-2.375 4.3281-2.3594 7.1562-7.2344zm-30.609-19.094q0-9.9062 4.0781-15.547t11.203-5.6406 11.219 5.6406q4.1094 5.6406 4.1094 15.547t-4.1094 15.547q-4.0938 5.6406-11.219 5.6406t-11.203-5.6406-4.0781-15.547z"/>
</defs>
<g transform="translate(72.263 459.84) scale(.1 -.1)">
<use xlink:href="#au"/>
<use x="35.205078" xlink:href="#y"/>
<use x="96.386719" xlink:href="#e"/>
<use x="137.484375" xlink:href="#q"/>
<use x="200.960938" xlink:href="#d"/>
<use x="262.484375" xlink:href="#e"/>
<use x="303.566406" xlink:href="#d"/>
</g>
</g>
<g clip-path="url(#a)">
<g transform="translate(125.19 459.84) scale(.1 -.1)">
<use xlink:href="#s"/>
<use x="29.492188" xlink:href="#r"/>
<use x="92.871094" xlink:href="#g"/>
<use x="156.25" xlink:href="#d"/>
<use x="217.773438" xlink:href="#g"/>
</g>
</g>
<g clip-path="url(#a)">
<defs>
<path id="n" d="m18.312 70.219v-15.531h18.5v-6.9844h-18.5v-29.688q0-6.6875 1.8281-8.5938t7.4531-1.9062h9.2188v-7.5156h-9.2188q-10.406 0-14.359 3.875-3.9531 3.8906-3.9531 14.141v29.688h-6.5938v6.9844h6.5938v15.531z"/>
</defs>
<g transform="translate(175.54 459.84) scale(.1 -.1)">
<use xlink:href="#g"/>
<use x="63.378906" xlink:href="#i"/>
<use x="91.162109" xlink:href="#z"/>
<use x="146.142578" xlink:href="#r"/>
<use x="209.521484" xlink:href="#n"/>
</g>
</g>
<g clip-path="url(#a)">
<g transform="translate(230.01 459.84) scale(.1 -.1)">
<use xlink:href="#s"/>
<use x="29.492188" xlink:href="#r"/>
<use x="92.871094" xlink:href="#e"/>
</g>
</g>
<g clip-path="url(#a)">
<defs>
<path id="ah" d="m3.3281 72.906h9.9531l15.328-61.625 15.281 61.625h11.094l15.328-61.625 15.281 61.625h10.016l-18.312-72.906h-12.406l-15.375 63.281-15.531-63.281h-12.406z"/>
</defs>
<g transform="translate(273.43 459.84) scale(.1 -.1)">
<use xlink:href="#ah"/>
<use x="98.798828" xlink:href="#y"/>
<use x="159.980469" xlink:href="#e"/>
<use x="201.09375" xlink:href="#n"/>
</g>
</g>
<g clip-path="url(#a)">
<defs>
<path id="ag" d="m48.688 27.297q0 9.9062-4.0781 15.547t-11.203 5.6406q-7.1406 0-11.219-5.6406t-4.0781-15.547 4.0781-15.547 11.219-5.6406q7.125 0 11.203 5.6406t4.0781 15.547zm-30.578 19.094q2.8438 4.875 7.1562 7.2344 4.3281 2.375 10.328 2.375 9.9688 0 16.188-7.9062 6.2344-7.9062 6.2344-20.797t-6.2344-20.812q-6.2188-7.9062-16.188-7.9062-6 0-10.328 2.375-4.3125 2.375-7.1562 7.25v-8.2031h-9.0312v75.984h9.0312z"/>
</defs>
<g transform="translate(327.93 459.84) scale(.1 -.1)">
<use xlink:href="#h"/>
<use x="61.279297" xlink:href="#ag"/>
</g>
</g>
<g clip-path="url(#a)">
<defs>
<path id="af" d="m11.719 12.406h10.297v-8.4062l-8-15.625h-6.2969l4 15.625z"/>
</defs>
<g transform="translate(381.31 459.84) scale(.1 -.1)">
<use xlink:href="#af"/>
</g>
</g>
<g clip-path="url(#a)">
<defs>
<path id="ai" d="m9.8125 72.906h14.703l18.594-49.609 18.703 49.609h14.703v-72.906h-9.625v64.016l-18.797-50h-9.9062l-18.797 50v-64.016h-9.5781z"/>
<path id="as" d="m44.281 53.078v-8.5q-3.7969 1.9531-7.9062 2.9219-4.0938 0.98438-8.5 0.98438-6.6875 0-10.031-2.0469t-3.3438-6.1562q0-3.125 2.3906-4.9062t9.625-3.3906l3.0781-0.6875q9.5625-2.0469 13.594-5.7812t4.0312-10.422q0-7.625-6.0312-12.078-6.0312-4.4375-16.578-4.4375-4.3906 0-9.1562 0.85938t-10.031 2.5625v9.2812q4.9844-2.5938 9.8125-3.8906 4.8281-1.2812 9.5781-1.2812 6.3438 0 9.75 2.1719 3.4219 2.1719 3.4219 6.125 0 3.6562-2.4688 5.6094-2.4531 1.9531-10.812 3.7656l-3.125 0.73438q-8.3438 1.75-12.062 5.3906-3.7031 3.6406-3.7031 9.9844 0 7.7188 5.4688 11.906 5.4688 4.2031 15.531 4.2031 4.9688 0 9.3594-0.73438 4.4062-0.71875 8.1094-2.1875z"/>
</defs>
<g transform="translate(413.16 459.84) scale(.1 -.1)">
<use xlink:href="#ai"/>
<use x="86.279297" xlink:href="#d"/>
<use x="147.802734" xlink:href="#i"/>
<use x="175.585938" xlink:href="#as"/>
<use x="227.685547" xlink:href="#n"/>
<use x="266.894531" xlink:href="#d"/>
<use x="328.417969" xlink:href="#e"/>
</g>
</g>
<g clip-path="url(#a)">
<defs>
<path id="aj" d="m9.8125 72.906h9.8594v-64.609h35.5v-8.2969h-45.359z"/>
</defs>
<g transform="translate(468.17 459.84) scale(.1 -.1)">
<use xlink:href="#aj"/>
<use x="55.712891" xlink:href="#h"/>
<use x="116.992188" xlink:href="#g"/>
<use x="180.371094" xlink:href="#q"/>
</g>
</g>
<g clip-path="url(#a)">
<defs>
<path id="aq" d="m51.812 51.703v-9.3125l-14.703-13.094 14.703-13.078v-9.3281l-22.906 20.406v4zm-21.203 0v-9.3125l-14.688-13.094 14.688-13.078v-9.3281l-22.891 20.406v4z"/>
</defs>
<g transform="translate(526.04 459.84) scale(.1 -.1)">
<use xlink:href="#aq"/>
</g>
</g>
<g clip-path="url(#a)">
<g transform="translate(576.24 459.84) scale(.1 -.1)">
<use xlink:href="#af"/>
</g>
</g>
<g clip-path="url(#a)">
<defs>
<path id="ar" d="m4.2031 54.688h8.9844l11.234-42.672 11.172 42.672h10.594l11.234-42.672 11.188 42.672h8.9844l-14.312-54.688h-10.594l-11.766 44.828-11.812-44.828h-10.609z"/>
</defs>
<g transform="translate(602.6 459.84) scale(.1 -.1)">
<use xlink:href="#d"/>
<use x="61.523438" xlink:href="#e"/>
<use x="102.636719" xlink:href="#ar"/>
<use x="184.423828" xlink:href="#i"/>
<use x="212.207031" xlink:href="#q"/>
<use x="275.683594" xlink:href="#d"/>
<use x="337.207031" xlink:href="#e"/>
<use x="378.320312" xlink:href="#n"/>
<use x="417.529297" xlink:href="#d"/>
</g>
</g>
<g clip-path="url(#a)">
<defs>
<path id="at" d="m9.0781 75.984h9.0312v-44.875l26.812 23.578h11.469l-29-25.578 30.234-29.109h-11.719l-27.797 26.703v-26.703h-9.0312z"/>
</defs>
<g transform="translate(665.98 459.84) scale(.1 -.1)">
<use xlink:href="#at"/>
<use x="57.894531" xlink:href="#h"/>
<use x="119.173828" xlink:href="#k"/>
<use x="146.957031" xlink:href="#n"/>
</g>
</g>
<g clip-path="url(#a)">
<g transform="translate(715.71 459.84) scale(.1 -.1)">
<use xlink:href="#q"/>
<use x="63.476562" xlink:href="#d"/>
<use x="125" xlink:href="#e"/>
</g>
</g>
<g clip-path="url(#a)">
<defs>
<path id="ak" d="m9.8125 72.906h9.8594v-30.812l32.719 30.812h12.703l-36.188-33.984 38.766-38.922h-12.984l-35.016 35.109v-35.109h-9.8594z"/>
</defs>
<g transform="translate(739.08 459.84) scale(.1 -.1)">
<use xlink:href="#ak"/>
<use x="65.498047" xlink:href="#y"/>
<use x="126.679688" xlink:href="#j"/>
<use x="224.091797" xlink:href="#j"/>
<use x="321.503906" xlink:href="#h"/>
<use x="382.783203" xlink:href="#g"/>
<use x="446.162109" xlink:href="#q"/>
<use x="509.638672" xlink:href="#h"/>
<use x="570.917969" xlink:href="#g"/>
<use x="634.296875" xlink:href="#n"/>
</g>
</g>
<g clip-path="url(#a)">
<defs>
<path id="f" d="m10.688 12.406h10.312v-12.406h-10.312z"/>
</defs>
<g transform="translate(819.89 459.84) scale(.1 -.1)">
<use xlink:href="#f"/>
</g>
</g>
<g clip-path="url(#a)">
<defs>
<path id="ap" d="m9.4219 51.703 22.906-20.406v-4l-22.906-20.406v9.3281l14.703 13.078-14.703 13.094zm21.188 0 22.906-20.406v-4l-22.906-20.406v9.3281l14.703 13.078-14.703 13.094z"/>
</defs>
<g transform="translate(867.15 459.84) scale(.1 -.1)">
<use xlink:href="#ap"/>
</g>
</g>
<g clip-path="url(#a)">
<defs>
<path id="c" d="m12.406 8.2969h16.109v55.625l-17.531-3.5156v8.9844l17.438 3.5156h9.8594v-64.609h16.109v-8.2969h-41.984z"/>
</defs>
<g transform="translate(566.39 25.682) scale(.1 -.1)">
<use xlink:href="#c"/>
<use x="63.623047" xlink:href="#f"/>
<use x="95.410156" xlink:href="#c"/>
</g>
</g>
<g clip-path="url(#a)">
<defs>
<path id="m" d="m19.188 8.2969h34.422v-8.2969h-46.281v8.2969q5.6094 5.8125 15.297 15.594 9.7031 9.7969 12.188 12.641 4.7344 5.3125 6.6094 9 1.8906 3.6875 1.8906 7.25 0 5.8125-4.0781 9.4688-4.0781 3.6719-10.625 3.6719-4.6406 0-9.7969-1.6094-5.1406-1.6094-11-4.8906v9.9688q5.9531 2.3906 11.125 3.6094 5.1875 1.2188 9.4844 1.2188 11.328 0 18.062-5.6719 6.7344-5.6562 6.7344-15.125 0-4.5-1.6875-8.5312-1.6719-4.0156-6.125-9.4844-1.2188-1.4219-7.7656-8.1875-6.5312-6.7656-18.453-18.922z"/>
</defs>
<g transform="translate(566.39 115.59) scale(.1 -.1)">
<use xlink:href="#c"/>
<use x="63.623047" xlink:href="#f"/>
<use x="95.410156" xlink:href="#m"/>
</g>
</g>
<g clip-path="url(#a)">
<defs>
<path id="x" d="m10.797 72.906h38.719v-8.3125h-29.688v-17.859q2.1406 0.73438 4.2812 1.0938 2.1562 0.35938 4.3125 0.35938 12.203 0 19.328-6.6875 7.1406-6.6875 7.1406-18.109 0-11.766-7.3281-18.297-7.3281-6.5156-20.656-6.5156-4.5938 0-9.3594 0.78125-4.75 0.78125-9.8281 2.3438v9.9219q4.3906-2.3906 9.0781-3.5625t9.9062-1.1719q8.4531 0 13.375 4.4375 4.9375 4.4375 4.9375 12.062 0 7.6094-4.9375 12.047-4.9219 4.4531-13.375 4.4531-3.9531 0-7.8906-0.875-3.9219-0.875-8.0156-2.7344z"/>
</defs>
<g transform="translate(232.24 203.48) scale(.1 -.1)">
<use xlink:href="#c"/>
<use x="63.623047" xlink:href="#f"/>
<use x="95.410156" xlink:href="#x"/>
</g>
</g>
<g clip-path="url(#a)">
<defs>
<path id="w" d="m33.016 40.375q-6.6406 0-10.531-4.5469-3.875-4.5312-3.875-12.438 0-7.8594 3.875-12.438 3.8906-4.5625 10.531-4.5625t10.516 4.5625q3.875 4.5781 3.875 12.438 0 7.9062-3.875 12.438-3.875 4.5469-10.516 4.5469zm19.578 30.922v-8.9844q-3.7188 1.75-7.5 2.6719-3.7812 0.9375-7.5 0.9375-9.7656 0-14.922-6.5938-5.1406-6.5938-5.875-19.922 2.875 4.25 7.2188 6.5156 4.3594 2.2656 9.5781 2.2656 10.984 0 17.359-6.6719 6.375-6.6562 6.375-18.125 0-11.234-6.6406-18.031-6.6406-6.7812-17.672-6.7812-12.656 0-19.344 9.6875-6.6875 9.7031-6.6875 28.109 0 17.281 8.2031 27.562t22.016 10.281q3.7188 0 7.5-0.73438t7.8906-2.1875z"/>
</defs>
<g transform="translate(618.61 374.78) scale(.1 -.1)">
<use xlink:href="#c"/>
<use x="63.623047" xlink:href="#f"/>
<use x="95.410156" xlink:href="#w"/>
</g>
</g>
<g clip-path="url(#a)">
<defs>
<path id="v" d="m8.2031 72.906h46.875v-4.2031l-26.469-68.703h-10.297l24.906 64.594h-35.016z"/>
</defs>
<g transform="translate(667.34 374.78) scale(.1 -.1)">
<use xlink:href="#c"/>
<use x="63.623047" xlink:href="#f"/>
<use x="95.410156" xlink:href="#v"/>
</g>
</g>
<g clip-path="url(#a)">
<defs>
<path id="ac" d="m31.781 34.625q-7.0312 0-11.062-3.7656-4.0156-3.7656-4.0156-10.344 0-6.5938 4.0156-10.359 4.0312-3.7656 11.062-3.7656t11.078 3.7812q4.0625 3.7969 4.0625 10.344 0 6.5781-4.0312 10.344-4.0156 3.7656-11.109 3.7656zm-9.8594 4.1875q-6.3438 1.5625-9.8906 5.9062-3.5312 4.3594-3.5312 10.609 0 8.7344 6.2188 13.812 6.2344 5.0781 17.062 5.0781 10.891 0 17.094-5.0781t6.2031-13.812q0-6.25-3.5469-10.609-3.5312-4.3438-9.8281-5.9062 7.125-1.6562 11.094-6.5 3.9844-4.8281 3.9844-11.797 0-10.609-6.4688-16.281-6.4688-5.6562-18.531-5.6562-12.047 0-18.531 5.6562-6.4688 5.6719-6.4688 16.281 0 6.9688 4 11.797 4.0156 4.8438 11.141 6.5zm-3.6094 15.578q0-5.6562 3.5312-8.8281 3.5469-3.1719 9.9375-3.1719 6.3594 0 9.9375 3.1719 3.5938 3.1719 3.5938 8.8281 0 5.6719-3.5938 8.8438-3.5781 3.1719-9.9375 3.1719-6.3906 0-9.9375-3.1719-3.5312-3.1719-3.5312-8.8438z"/>
</defs>
<g transform="translate(789.16 289.72) scale(.1 -.1)">
<use xlink:href="#c"/>
<use x="63.623047" xlink:href="#f"/>
<use x="95.410156" xlink:href="#ac"/>
</g>
</g>
<g clip-path="url(#a)">
<g transform="translate(712.89 374.78) scale(.1 -.1)">
<use xlink:href="#c"/>
<use x="63.623047" xlink:href="#f"/>
<use x="95.410156" xlink:href="#c"/>
<use x="159.033203" xlink:href="#c"/>
</g>
</g>
<g clip-path="url(#a)">
<g transform="translate(761.62 374.78) scale(.1 -.1)">
<use xlink:href="#c"/>
<use x="63.623047" xlink:href="#f"/>
<use x="95.410156" xlink:href="#c"/>
<use x="159.033203" xlink:href="#m"/>
</g>
</g>
<g clip-path="url(#a)">
<defs>
<path id="ae" d="m40.578 39.312q7.0781-1.5156 11.047-6.3125 3.9844-4.7812 3.9844-11.812 0-10.781-7.4219-16.703-7.4219-5.9062-21.094-5.9062-4.5781 0-9.4375 0.90625t-10.031 2.7188v9.5156q4.0938-2.3906 8.9688-3.6094 4.8906-1.2188 10.219-1.2188 9.2656 0 14.125 3.6562t4.8594 10.641q0 6.4531-4.5156 10.078-4.5156 3.6406-12.562 3.6406h-8.5v8.1094h8.8906q7.2656 0 11.125 2.9062t3.8594 8.375q0 5.6094-3.9844 8.6094-3.9688 3.0156-11.391 3.0156-4.0625 0-8.7031-0.89062-4.6406-0.875-10.203-2.7188v8.7812q5.625 1.5625 10.531 2.3438t9.25 0.78125q11.234 0 17.766-5.1094 6.5469-5.0938 6.5469-13.781 0-6.0625-3.4688-10.234t-9.8594-5.7812z"/>
</defs>
<g transform="translate(30.655 374.78) scale(.1 -.1)">
<use xlink:href="#c"/>
<use x="63.623047" xlink:href="#f"/>
<use x="95.410156" xlink:href="#c"/>
<use x="159.033203" xlink:href="#ae"/>
</g>
</g>
<g clip-path="url(#a)">
<defs>
<path id="ad" d="m37.797 64.312-24.906-38.922h24.906zm-2.5938 8.5938h12.406v-47.516h10.406v-8.2031h-10.406v-17.188h-9.8125v17.188h-32.906v9.5156z"/>
</defs>
<g transform="translate(201.21 374.78) scale(.1 -.1)">
<use xlink:href="#c"/>
<use x="63.623047" xlink:href="#f"/>
<use x="95.410156" xlink:href="#c"/>
<use x="159.033203" xlink:href="#ad"/>
</g>
</g>
<g clip-path="url(#a)">
<g transform="translate(128.12 374.78) scale(.1 -.1)">
<use xlink:href="#c"/>
<use x="63.623047" xlink:href="#f"/>
<use x="95.410156" xlink:href="#c"/>
<use x="159.033203" xlink:href="#x"/>
</g>
</g>
<g clip-path="url(#a)">
<g transform="translate(176.85 374.78) scale(.1 -.1)">
<use xlink:href="#c"/>
<use x="63.623047" xlink:href="#f"/>
<use x="95.410156" xlink:href="#c"/>
<use x="159.033203" xlink:href="#w"/>
</g>
</g>
<g clip-path="url(#a)">
<g transform="translate(249.94 289.72) scale(.1 -.1)">
<use xlink:href="#c"/>
<use x="63.623047" xlink:href="#f"/>
<use x="95.410156" xlink:href="#c"/>
<use x="159.033203" xlink:href="#v"/>
</g>
</g>
<g clip-path="url(#a)">
<g transform="translate(444.87 289.72) scale(.1 -.1)">
<use xlink:href="#c"/>
<use x="63.623047" xlink:href="#f"/>
<use x="95.410156" xlink:href="#c"/>
<use x="159.033203" xlink:href="#ac"/>
</g>
</g>
<g clip-path="url(#a)">
<defs>
<path id="an" d="m10.984 1.5156v8.9844q3.7188-1.7656 7.5156-2.6875 3.8125-0.92188 7.4844-0.92188 9.7656 0 14.906 6.5625 5.1562 6.5625 5.8906 19.953-2.8281-4.2031-7.1875-6.4531-4.3438-2.25-9.6094-2.25-10.938 0-17.312 6.6094-6.375 6.625-6.375 18.109 0 11.219 6.6406 18 6.6406 6.7969 17.672 6.7969 12.656 0 19.312-9.7031 6.6719-9.6875 6.6719-28.141 0-17.234-8.1875-27.516-8.1719-10.281-21.984-10.281-3.7188 0-7.5312 0.73438-3.7969 0.73438-7.9062 2.2031zm19.625 30.906q6.6406 0 10.516 4.5312 3.8906 4.5469 3.8906 12.469 0 7.8594-3.8906 12.422-3.875 4.5625-10.516 4.5625t-10.516-4.5625-3.875-12.422q0-7.9219 3.875-12.469 3.875-4.5312 10.516-4.5312z"/>
</defs>
<g transform="translate(371.77 374.78) scale(.1 -.1)">
<use xlink:href="#c"/>
<use x="63.623047" xlink:href="#f"/>
<use x="95.410156" xlink:href="#c"/>
<use x="159.033203" xlink:href="#an"/>
</g>
</g>
<g clip-path="url(#a)">
<defs>
<path id="ao" d="m31.781 66.406q-7.6094 0-11.453-7.5-3.8281-7.4844-3.8281-22.531 0-14.984 3.8281-22.484 3.8438-7.5 11.453-7.5 7.6719 0 11.5 7.5 3.8438 7.5 3.8438 22.484 0 15.047-3.8438 22.531-3.8281 7.5-11.5 7.5zm0 7.8125q12.266 0 18.734-9.7031 6.4688-9.6875 6.4688-28.141 0-18.406-6.4688-28.109-6.4688-9.6875-18.734-9.6875-12.25 0-18.719 9.6875-6.4688 9.7031-6.4688 28.109 0 18.453 6.4688 28.141 6.4688 9.7031 18.719 9.7031z"/>
</defs>
<g transform="translate(420.5 374.78) scale(.1 -.1)">
<use xlink:href="#c"/>
<use x="63.623047" xlink:href="#f"/>
<use x="95.410156" xlink:href="#m"/>
<use x="159.033203" xlink:href="#ao"/>
</g>
</g>
<g clip-path="url(#a)">
<g transform="translate(469.23 374.78) scale(.1 -.1)">
<use xlink:href="#c"/>
<use x="63.623047" xlink:href="#f"/>
<use x="95.410156" xlink:href="#m"/>
<use x="159.033203" xlink:href="#c"/>
</g>
</g>
<g clip-path="url(#a)">
<g transform="translate(225.58 374.78) scale(.1 -.1)">
<use xlink:href="#c"/>
<use x="63.623047" xlink:href="#f"/>
<use x="95.410156" xlink:href="#m"/>
<use x="159.033203" xlink:href="#m"/>
</g>
</g>
<g clip-path="url(#a)">
<g transform="translate(274.31 374.78) scale(.1 -.1)">
<use xlink:href="#c"/>
<use x="63.623047" xlink:href="#f"/>
<use x="95.410156" xlink:href="#m"/>
<use x="159.033203" xlink:href="#ae"/>
</g>
</g>
<g clip-path="url(#a)">
<g transform="translate(517.96 374.78) scale(.1 -.1)">
<use xlink:href="#c"/>
<use x="63.623047" xlink:href="#f"/>
<use x="95.410156" xlink:href="#m"/>
<use x="159.033203" xlink:href="#ad"/>
</g>
</g>
<g clip-path="url(#a)">
<g transform="translate(566.69 374.78) scale(.1 -.1)">
<use xlink:href="#c"/>
<use x="63.623047" xlink:href="#f"/>
<use x="95.410156" xlink:href="#m"/>
<use x="159.033203" xlink:href="#x"/>
</g>
</g>
<g clip-path="url(#a)">
<g transform="translate(810.35 374.78) scale(.1 -.1)">
<use xlink:href="#c"/>
<use x="63.623047" xlink:href="#f"/>
<use x="95.410156" xlink:href="#m"/>
<use x="159.033203" xlink:href="#w"/>
</g>
</g>
<g clip-path="url(#a)">
<g transform="translate(859.08 374.78) scale(.1 -.1)">
<use xlink:href="#c"/>
<use x="63.623047" xlink:href="#f"/>
<use x="95.410156" xlink:href="#m"/>
<use x="159.033203" xlink:href="#v"/>
</g>
</g>
<defs>
<clipPath id="a">
<rect width="912" height="480"/>
</clipPath>
</defs>
</svg>
