<?xml version="1.0" encoding="UTF-8"?>
<!DOCTYPE svg  PUBLIC '-//W3C//DTD SVG 1.1//EN'  'http://www.w3.org/Graphics/SVG/1.1/DTD/svg11.dtd'>
<svg width="1722.7pt" height="906.67pt" version="1.1" viewBox="0 0 1722.7 906.67" xmlns="http://www.w3.org/2000/svg" xmlns:xlink="http://www.w3.org/1999/xlink">
<defs>
<style type="text/css">*{stroke-linecap:butt;stroke-linejoin:round;}</style>
</defs>
<path d="m0 906.67h1722.7v-906.67h-1722.7z" fill="#fff"/>
<g fill="none" stroke="#000">
<path d="m158.04 41.734-79.567 747.34" clip-path="url(#a)"/>
<path d="m158.04 41.734 79.567 92.597" clip-path="url(#a)"/>
<path d="m78.475 789.07v75.86" clip-path="url(#a)"/>
<path d="m237.61 134.33-111.69 654.74" clip-path="url(#a)"/>
<path d="m237.61 134.33-64.242 654.74" clip-path="url(#a)"/>
<path d="m237.61 134.33-16.796 654.74" clip-path="url(#a)"/>
<path d="m237.61 134.33 192.73 89.684" clip-path="url(#a)"/>
<path d="m125.92 789.07v75.86" clip-path="url(#a)"/>
<path d="m173.37 789.07v75.86" clip-path="url(#a)"/>
<path d="m220.81 789.07v75.86" clip-path="url(#a)"/>
<path d="m430.34 224.02-162.08 565.06" clip-path="url(#a)"/>
<path d="m430.34 224.02-114.63 565.06" clip-path="url(#a)"/>
<path d="m430.34 224.02 343.89 86.983" clip-path="url(#a)"/>
<path d="m430.34 224.02-67.185 565.06" clip-path="url(#a)"/>
<path d="m268.26 789.07v75.86" clip-path="url(#a)"/>
<path d="m315.7 789.07v75.86" clip-path="url(#a)"/>
<path d="m774.23 311-458.52 478.07" clip-path="url(#a)" stroke-dasharray="3.7,1.6"/>
<path d="m774.23 311-363.63 478.07" clip-path="url(#a)"/>
<path d="m774.23 311-221.29 325.3" clip-path="url(#a)"/>
<path d="m774.23 311 283.95 84.495" clip-path="url(#a)"/>
<path d="m774.23 311 205.72 478.07" clip-path="url(#a)"/>
<path d="m774.23 311 253.17 478.07" clip-path="url(#a)"/>
<path d="m774.23 311 300.61 478.07" clip-path="url(#a)"/>
<path d="m410.6 789.07v75.86" clip-path="url(#a)"/>
<path d="m552.93 636.3-94.892 152.78" clip-path="url(#a)"/>
<path d="m552.93 636.3v76.916" clip-path="url(#a)"/>
<path d="m552.93 636.3 94.892 152.78" clip-path="url(#a)"/>
<path d="m1058.2 395.49-291.74 240.8" clip-path="url(#a)"/>
<path d="m1058.2 395.49 64.105 393.58" clip-path="url(#a)"/>
<path d="m1058.2 395.49 227.64 82.224" clip-path="url(#a)"/>
<path d="m979.95 789.07v75.86" clip-path="url(#a)"/>
<path d="m1027.4 789.07v75.86" clip-path="url(#a)"/>
<path d="m766.44 636.3-71.169 152.78" clip-path="url(#a)"/>
<path d="m766.44 636.3-23.723 152.78" clip-path="url(#a)"/>
<path d="m766.44 636.3 94.892 76.916" clip-path="url(#a)"/>
<path d="m1122.3 789.07v75.86" clip-path="url(#a)"/>
<path d="m1285.8 477.72-116.08 311.36" clip-path="url(#a)"/>
<path d="m1285.8 477.72-68.639 311.36" clip-path="url(#a)"/>
<path d="m1285.8 477.72-21.193 311.36" clip-path="url(#a)"/>
<path d="m1285.8 477.72 179.66 80.183" clip-path="url(#a)"/>
<path d="m1285.8 477.72 26.253 311.36" clip-path="url(#a)"/>
<path d="m1169.7 789.07v75.86" clip-path="url(#a)"/>
<path d="m1217.2 789.07v75.86" clip-path="url(#a)"/>
<path d="m1264.6 789.07v75.86" clip-path="url(#a)"/>
<path d="m1465.5 557.9-200.85 231.17" clip-path="url(#a)" stroke-dasharray="3.7,1.6"/>
<path d="m1465.5 557.9-105.96 231.17" clip-path="url(#a)"/>
<path d="m1465.5 557.9-3.1631 78.397" clip-path="url(#a)"/>
<path d="m1465.5 557.9 131.27 231.17" clip-path="url(#a)"/>
<path d="m1465.5 557.9 178.71 231.17" clip-path="url(#a)"/>
<path d="m1359.5 789.07v75.86" clip-path="url(#a)"/>
<path d="m1462.3 636.3-55.354 152.78" clip-path="url(#a)"/>
<path d="m1462.3 636.3-7.9077 152.78" clip-path="url(#a)"/>
<path d="m1462.3 636.3 63.261 76.916" clip-path="url(#a)"/>
<path d="m1596.7 789.07v75.86" clip-path="url(#a)"/>
<path d="m1407 789.07v75.86" clip-path="url(#a)"/>
<path d="m1454.4 789.07v75.86" clip-path="url(#a)"/>
<path d="m1525.6 713.21-23.723 75.86" clip-path="url(#a)"/>
<path d="m1525.6 713.21 23.723 75.86" clip-path="url(#a)"/>
<path d="m1501.9 789.07v75.86" clip-path="url(#a)"/>
<path d="m1549.3 789.07v75.86" clip-path="url(#a)"/>
<path d="m695.27 789.07v75.86" clip-path="url(#a)"/>
<path d="m742.72 789.07v75.86" clip-path="url(#a)"/>
<path d="m861.33 713.21-71.169 75.86" clip-path="url(#a)"/>
<path d="m861.33 713.21-23.723 75.86" clip-path="url(#a)"/>
<path d="m861.33 713.21 23.723 75.86" clip-path="url(#a)"/>
<path d="m861.33 713.21 71.169 75.86" clip-path="url(#a)"/>
<path d="m790.16 789.07v75.86" clip-path="url(#a)"/>
<path d="m837.61 789.07v75.86" clip-path="url(#a)"/>
<path d="m885.06 789.07v75.86" clip-path="url(#a)"/>
<path d="m932.5 789.07v75.86" clip-path="url(#a)"/>
<path d="m458.04 789.07v75.86" clip-path="url(#a)"/>
<path d="m552.93 713.21-47.446 75.86" clip-path="url(#a)"/>
<path d="m552.93 713.21v75.86" clip-path="url(#a)"/>
<path d="m552.93 713.21 47.446 75.86" clip-path="url(#a)"/>
<path d="m647.83 789.07v75.86" clip-path="url(#a)"/>
<path d="m505.49 789.07v75.86" clip-path="url(#a)"/>
<path d="m552.93 789.07v75.86" clip-path="url(#a)"/>
<path d="m600.38 789.07v75.86" clip-path="url(#a)"/>
<path d="m363.15 789.07v75.86" clip-path="url(#a)"/>
<path d="m1074.8 789.07v75.86" clip-path="url(#a)"/>
<path d="m1312.1 789.07v75.86" clip-path="url(#a)"/>
<path d="m1644.2 789.07v75.86" clip-path="url(#a)"/>
</g>
<path d="m124.26 418.28 0.47191-4.4324q0.25408-2.3865-2.1324-2.6406l-7.699-0.81969q-2.3865-0.25408-2.6406 2.1324l-0.47191 4.4324q-0.25408 2.3865 2.1324 2.6406l7.699 0.81969q2.3865 0.25408 2.6406-2.1324z" clip-path="url(#a)" fill="#fff" stroke="#fff"/>
<g clip-path="url(#a)">
<defs>
<path id="as" d="m9.8125 72.906h9.8594v-64.609h35.5v-8.2969h-45.359z"/>
</defs>
<g transform="translate(120.22 417.85) rotate(-83.923) scale(.08 -.08)">
<use xlink:href="#as"/>
</g>
</g>
<path d="m191.11 89.838 3.921 4.563q1.5641 1.8203 3.3844 0.25614l5.8723-5.046q1.8203-1.5641 0.25614-3.3844l-3.921-4.563q-1.5641-1.8203-3.3844-0.25614l-5.8723 5.046q-1.8203 1.5641-0.25614 3.3844z" clip-path="url(#a)" fill="#fff" stroke="#fff"/>
<g clip-path="url(#a)">
<defs>
<path id="an" d="m9.8125 72.906h9.8594v-29.891h35.844v29.891h9.8594v-72.906h-9.8594v34.719h-35.844v-34.719h-9.8594z"/>
</defs>
<g transform="translate(194.19 87.189) rotate(49.328) scale(.08 -.08)">
<use xlink:href="#an"/>
</g>
</g>
<path d="m72.204 809.36v35.285q0 2.4 2.4 2.4h7.7425q2.4 0 2.4-2.4v-35.285q0-2.4-2.4-2.4h-7.7425q-2.4 0-2.4 2.4z" clip-path="url(#a)" fill="#fff" stroke="#fff"/>
<g clip-path="url(#a)">
<defs>
<path id="l" d="m-0.29688 72.906h61.672v-8.3125h-25.875v-64.594h-9.9062v64.594h-25.891z"/>
<path id="c" d="m56.203 29.594v-4.3906h-41.312q0.59375-9.2812 5.5938-14.141t13.938-4.8594q5.1719 0 10.031 1.2656t9.6562 3.8125v-8.5q-4.8438-2.0469-9.9219-3.125t-10.297-1.0781q-13.094 0-20.734 7.6094-7.6406 7.625-7.6406 20.625 0 13.422 7.25 21.297 7.25 7.8906 19.562 7.8906 11.031 0 17.453-7.1094 6.4219-7.0938 6.4219-19.297zm-8.9844 2.6406q-0.09375 7.3594-4.125 11.75-4.0312 4.4062-10.672 4.4062-7.5156 0-12.031-4.25t-5.2031-11.969z"/>
<path id="h" d="m41.109 46.297q-1.5156 0.875-3.2969 1.2812-1.7812 0.42188-3.9219 0.42188-7.625 0-11.703-4.9531t-4.0781-14.234v-28.812h-9.0312v54.688h9.0312v-8.5q2.8438 4.9844 7.375 7.3906 4.5469 2.4219 11.047 2.4219 0.92188 0 2.0469-0.125 1.125-0.10938 2.4844-0.35938z"/>
<path id="k" d="m52 44.188q3.375 6.0625 8.0625 8.9375t11.031 2.875q8.5469 0 13.188-5.9844 4.6406-5.9688 4.6406-17v-33.016h-9.0312v32.719q0 7.8594-2.7969 11.656-2.7812 3.8125-8.4844 3.8125-6.9844 0-11.047-4.6406-4.0469-4.625-4.0469-12.641v-30.906h-9.0312v32.719q0 7.9062-2.7812 11.688t-8.5938 3.7812q-6.8906 0-10.953-4.6562-4.0469-4.6562-4.0469-12.625v-30.906h-9.0312v54.688h9.0312v-8.5q3.0781 5.0312 7.375 7.4219t10.203 2.3906q5.9688 0 10.141-3.0312 4.1719-3.0156 6.1719-8.7812z"/>
<path id="e" d="m9.4219 54.688h8.9844v-54.688h-8.9844zm0 21.297h8.9844v-11.391h-8.9844z"/>
<path id="f" d="m54.891 33.016v-33.016h-8.9844v32.719q0 7.7656-3.0312 11.609-3.0312 3.8594-9.0781 3.8594-7.2812 0-11.484-4.6406-4.2031-4.625-4.2031-12.641v-30.906h-9.0312v54.688h9.0312v-8.5q3.2344 4.9375 7.5938 7.375 4.375 2.4375 10.094 2.4375 9.4219 0 14.25-5.8281 4.8438-5.8281 4.8438-17.156z"/>
<path id="j" d="m34.281 27.484q-10.891 0-15.094-2.4844t-4.2031-8.5q0-4.7812 3.1562-7.5938 3.1562-2.7969 8.5625-2.7969 7.4844 0 12 5.2969t4.5156 14.078v2zm17.922 3.7188v-31.203h-8.9844v8.2969q-3.0781-4.9688-7.6719-7.3438t-11.234-2.375q-8.3906 0-13.359 4.7188-4.9531 4.7188-4.9531 12.625 0 9.2188 6.1719 13.906 6.1875 4.6875 18.438 4.6875h12.609v0.89062q0 6.2031-4.0781 9.5938t-11.453 3.3906q-4.6875 0-9.1406-1.125-4.4375-1.125-8.5312-3.375v8.3125q4.9219 1.9062 9.5625 2.8438 4.6406 0.95312 9.0312 0.95312 11.875 0 17.734-6.1562 5.8594-6.1406 5.8594-18.641z"/>
<path id="i" d="m9.4219 75.984h8.9844v-75.984h-8.9844z"/>
</defs>
<g transform="translate(76.267 809.36) rotate(90) scale(.08 -.08)">
<use xlink:href="#l"/>
<use x="60.818359" xlink:href="#c"/>
<use x="122.341797" xlink:href="#h"/>
<use x="163.439453" xlink:href="#k"/>
<use x="260.851562" xlink:href="#e"/>
<use x="288.634766" xlink:href="#f"/>
<use x="352.013672" xlink:href="#j"/>
<use x="413.292969" xlink:href="#i"/>
</g>
</g>
<path d="m187.56 465.02 0.77372-4.5357q0.40357-2.3658-1.9623-2.7694l-7.6323-1.3019q-2.3658-0.40357-2.7694 1.9623l-0.77372 4.5357q-0.40357 2.3658 1.9623 2.7694l7.6323 1.3019q2.3658 0.40357 2.7694-1.9623z" clip-path="url(#a)" fill="#fff" stroke="#fff"/>
<g clip-path="url(#a)">
<defs>
<path id="ao" d="m9.8125 72.906h41.891v-8.3125h-32.031v-21.484h28.906v-8.2969h-28.906v-34.812h-9.8594z"/>
</defs>
<g transform="translate(183.55 464.34) rotate(-80.319) scale(.08 -.08)">
<use xlink:href="#ao"/>
</g>
</g>
<path d="m211.48 464.84 0.49594-5.0545q0.23436-2.3885-2.1542-2.6229l-7.7055-0.75605q-2.3885-0.23436-2.6229 2.1542l-0.49594 5.0545q-0.23436 2.3885 2.1542 2.6229l7.7055 0.75605q2.3885 0.23436 2.6229-2.1542z" clip-path="url(#a)" fill="#fff" stroke="#fff"/>
<g clip-path="url(#a)">
<defs>
<path id="ak" d="m53.516 70.516v-9.625q-5.6094 2.6875-10.594 4-4.9844 1.3281-9.625 1.3281-8.0469 0-12.422-3.125t-4.375-8.8906q0-4.8438 2.9062-7.3125 2.9062-2.4531 11.016-3.9688l5.9531-1.2188q11.031-2.1094 16.281-7.4062t5.25-14.172q0-10.609-7.1094-16.078-7.0938-5.4688-20.812-5.4688-5.1719 0-11.016 1.1719-5.8281 1.1719-12.078 3.4688v10.156q6-3.3594 11.766-5.0781 5.7656-1.7031 11.328-1.7031 8.4375 0 13.031 3.3125 4.5938 3.3281 4.5938 9.4844 0 5.3594-3.2969 8.3906t-10.812 4.5469l-6.0156 1.1719q-11.031 2.1875-15.969 6.875-4.9219 4.6875-4.9219 13.047 0 9.6719 6.8125 15.234t18.766 5.5625q5.1406 0 10.453-0.9375 5.3281-0.92188 10.891-2.7656z"/>
</defs>
<g transform="translate(207.44 464.44) rotate(-84.396) scale(.08 -.08)">
<use xlink:href="#ak"/>
</g>
</g>
<path d="m235.4 464.96 0.15897-6.1967q0.061547-2.3992-2.3377-2.4608l-7.74-0.19856q-2.3992-0.061547-2.4608 2.3377l-0.15897 6.1967q-0.061548 2.3992 2.3377 2.4608l7.74 0.19856q2.3992 0.061547 2.4608-2.3377z" clip-path="url(#a)" fill="#fff" stroke="#fff"/>
<g clip-path="url(#a)">
<defs>
<path id="au" d="m59.516 10.406v19.578h-16.109v8.1094h25.875v-31.312q-5.7031-4.0469-12.594-6.125-6.875-2.0781-14.688-2.0781-17.094 0-26.75 9.9844-9.6406 10-9.6406 27.812 0 17.875 9.6406 27.859 9.6562 9.9844 26.75 9.9844 7.125 0 13.547-1.7656 6.4219-1.75 11.844-5.1719v-10.5q-5.4688 4.6406-11.625 6.9844t-12.938 2.3438q-13.391 0-20.109-7.4688-6.7031-7.4688-6.7031-22.266 0-14.75 6.7031-22.219 6.7188-7.4688 20.109-7.4688 5.2188 0 9.3125 0.90625 4.1094 0.90625 7.375 2.8125z"/>
</defs>
<g transform="translate(231.34 464.86) rotate(-88.53) scale(.08 -.08)">
<use xlink:href="#au"/>
</g>
</g>
<path d="m328.85 183.7 4.9616 2.3089q2.1759 1.0126 3.1885-1.1634l3.2666-7.0197q1.0126-2.1759-1.1634-3.1885l-4.9616-2.3089q-2.1759-1.0126-3.1885 1.1634l-3.2666 7.0197q-1.0126 2.1759 1.1634 3.1885z" clip-path="url(#a)" fill="#fff" stroke="#fff"/>
<g clip-path="url(#a)">
<defs>
<path id="t" d="m34.188 63.188-13.391-36.281h26.812zm-5.5781 9.7188h11.188l27.781-72.906h-10.25l-6.6406 18.703h-32.859l-6.6406-18.703h-10.406z"/>
</defs>
<g transform="translate(330.56 180.02) rotate(24.955) scale(.08 -.08)">
<use xlink:href="#t"/>
</g>
</g>
<path d="m119.65 809.36v35.285q0 2.4 2.4 2.4h7.7425q2.4 0 2.4-2.4v-35.285q0-2.4-2.4-2.4h-7.7425q-2.4 0-2.4 2.4z" clip-path="url(#a)" fill="#fff" stroke="#fff"/>
<g clip-path="url(#a)">
<g transform="translate(123.71 809.36) rotate(90) scale(.08 -.08)">
<use xlink:href="#l"/>
<use x="60.818359" xlink:href="#c"/>
<use x="122.341797" xlink:href="#h"/>
<use x="163.439453" xlink:href="#k"/>
<use x="260.851562" xlink:href="#e"/>
<use x="288.634766" xlink:href="#f"/>
<use x="352.013672" xlink:href="#j"/>
<use x="413.292969" xlink:href="#i"/>
</g>
</g>
<path d="m167.1 809.36v35.285q0 2.4 2.4 2.4h7.7425q2.4 0 2.4-2.4v-35.285q0-2.4-2.4-2.4h-7.7425q-2.4 0-2.4 2.4z" clip-path="url(#a)" fill="#fff" stroke="#fff"/>
<g clip-path="url(#a)">
<g transform="translate(171.16 809.36) rotate(90) scale(.08 -.08)">
<use xlink:href="#l"/>
<use x="60.818359" xlink:href="#c"/>
<use x="122.341797" xlink:href="#h"/>
<use x="163.439453" xlink:href="#k"/>
<use x="260.851562" xlink:href="#e"/>
<use x="288.634766" xlink:href="#f"/>
<use x="352.013672" xlink:href="#j"/>
<use x="413.292969" xlink:href="#i"/>
</g>
</g>
<path d="m214.54 809.36v35.285q0 2.4 2.4 2.4h7.7425q2.4 0 2.4-2.4v-35.285q0-2.4-2.4-2.4h-7.7425q-2.4 0-2.4 2.4z" clip-path="url(#a)" fill="#fff" stroke="#fff"/>
<g clip-path="url(#a)">
<g transform="translate(218.61 809.36) rotate(90) scale(.08 -.08)">
<use xlink:href="#l"/>
<use x="60.818359" xlink:href="#c"/>
<use x="122.341797" xlink:href="#h"/>
<use x="163.439453" xlink:href="#k"/>
<use x="260.851562" xlink:href="#e"/>
<use x="288.634766" xlink:href="#f"/>
<use x="352.013672" xlink:href="#j"/>
<use x="413.292969" xlink:href="#i"/>
</g>
</g>
<path d="m354.63 510.7 1.3937-4.8591q0.66172-2.307-1.6453-2.9687l-7.4424-2.1347q-2.307-0.66172-2.9687 1.6453l-1.3937 4.8591q-0.66172 2.307 1.6453 2.9687l7.4424 2.1347q2.307 0.66172 2.9687-1.6453z" clip-path="url(#a)" fill="#fff" stroke="#fff"/>
<g clip-path="url(#a)">
<defs>
<path id="q" d="m9.8125 72.906h46.094v-8.3125h-36.234v-21.578h34.719v-8.2969h-34.719v-26.422h37.109v-8.2969h-46.969z"/>
</defs>
<g transform="translate(350.72 509.58) rotate(-73.995) scale(.08 -.08)">
<use xlink:href="#q"/>
</g>
</g>
<path d="m378.61 510.53 1.1106-5.4747q0.47716-2.3521-1.8749-2.8292l-7.5879-1.5393q-2.3521-0.47716-2.8292 1.8749l-1.1106 5.4747q-0.47716 2.3521 1.8749 2.8292l7.5879 1.5393q2.3521 0.47716 2.8292-1.8749z" clip-path="url(#a)" fill="#fff" stroke="#fff"/>
<g clip-path="url(#a)">
<defs>
<path id="p" d="m64.406 67.281v-10.391q-4.9844 4.6406-10.625 6.9219-5.6406 2.2969-11.984 2.2969-12.5 0-19.141-7.6406t-6.6406-22.094q0-14.406 6.6406-22.047t19.141-7.6406q6.3438 0 11.984 2.2969t10.625 6.9375v-10.312q-5.1719-3.5156-10.969-5.2812-5.7812-1.75-12.219-1.75-16.562 0-26.094 10.125-9.5156 10.141-9.5156 27.672 0 17.578 9.5156 27.703 9.5312 10.141 26.094 10.141 6.5312 0 12.312-1.7344 5.7969-1.7344 10.875-5.2031z"/>
</defs>
<g transform="translate(374.63 509.72) rotate(-78.532) scale(.08 -.08)">
<use xlink:href="#p"/>
</g>
</g>
<path d="m598.29 272.97 4.9007 1.2396q2.3267 0.58852 2.9152-1.7382l1.8986-7.5061q0.58852-2.3267-1.7382-2.9152l-4.9007-1.2396q-2.3267-0.58852-2.9152 1.7382l-1.8986 7.5061q-0.58852 2.3267 1.7382 2.9152z" clip-path="url(#a)" fill="#fff" stroke="#fff"/>
<g clip-path="url(#a)">
<g transform="translate(599.29 269.03) rotate(14.195) scale(.08 -.08)">
<use xlink:href="#q"/>
</g>
</g>
<path d="m402.62 510.19 0.69129-5.814q0.28336-2.3832-2.0999-2.6666l-7.6883-0.91414q-2.3832-0.28336-2.6666 2.0998l-0.69129 5.814q-0.28336 2.3832 2.0998 2.6666l7.6883 0.91414q2.3832 0.28336 2.6666-2.0999z" clip-path="url(#a)" fill="#fff" stroke="#fff"/>
<g clip-path="url(#a)">
<defs>
<path id="ad" d="m8.6875 72.906h9.9219v-44.297q0-11.719 4.2344-16.875 4.25-5.1406 13.781-5.1406 9.4688 0 13.719 5.1406 4.25 5.1562 4.25 16.875v44.297h9.9062v-45.516q0-14.25-7.0625-21.531-7.0469-7.2812-20.812-7.2812-13.828 0-20.891 7.2812-7.0469 7.2812-7.0469 21.531z"/>
</defs>
<g transform="translate(398.59 509.71) rotate(-83.219) scale(.08 -.08)">
<use xlink:href="#ad"/>
</g>
</g>
<path d="m261.99 809.36v35.285q0 2.4 2.4 2.4h7.7425q2.4 0 2.4-2.4v-35.285q0-2.4-2.4-2.4h-7.7425q-2.4 0-2.4 2.4z" clip-path="url(#a)" fill="#fff" stroke="#fff"/>
<g clip-path="url(#a)">
<g transform="translate(266.05 809.36) rotate(90) scale(.08 -.08)">
<use xlink:href="#l"/>
<use x="60.818359" xlink:href="#c"/>
<use x="122.341797" xlink:href="#h"/>
<use x="163.439453" xlink:href="#k"/>
<use x="260.851562" xlink:href="#e"/>
<use x="288.634766" xlink:href="#f"/>
<use x="352.013672" xlink:href="#j"/>
<use x="413.292969" xlink:href="#i"/>
</g>
</g>
<path d="m309.43 809.36v35.285q0 2.4 2.4 2.4h7.7425q2.4 0 2.4-2.4v-35.285q0-2.4-2.4-2.4h-7.7425q-2.4 0-2.4 2.4z" clip-path="url(#a)" fill="#fff" stroke="#fff"/>
<g clip-path="url(#a)">
<g transform="translate(313.5 809.36) rotate(90) scale(.08 -.08)">
<use xlink:href="#l"/>
<use x="60.818359" xlink:href="#c"/>
<use x="122.341797" xlink:href="#h"/>
<use x="163.439453" xlink:href="#k"/>
<use x="260.851562" xlink:href="#e"/>
<use x="288.634766" xlink:href="#f"/>
<use x="352.013672" xlink:href="#j"/>
<use x="413.292969" xlink:href="#i"/>
</g>
</g>
<path d="m547.6 556.35 3.788-3.9496q1.6613-1.7321-0.070831-3.3934l-5.5878-5.3593q-1.7321-1.6613-3.3934 0.070831l-3.788 3.9496q-1.6613 1.7321 0.070831 3.3934l5.5878 5.3593q1.7321 1.6613 3.3934-0.070831z" clip-path="url(#a)" fill="#fff" stroke="#fff"/>
<g clip-path="url(#a)">
<g transform="translate(544.67 553.54) rotate(-46.196) scale(.08 -.08)">
<use xlink:href="#t"/>
</g>
</g>
<path d="m595.72 556.04 3.3652-4.4243q1.4529-1.9102-0.45727-3.3632l-6.1624-4.6873q-1.9102-1.4529-3.3632 0.45727l-3.3652 4.4243q-1.4529 1.9102 0.45727 3.3632l6.1624 4.6873q1.9102 1.4529 3.3632-0.45727z" clip-path="url(#a)" fill="#fff" stroke="#fff"/>
<g clip-path="url(#a)">
<defs>
<path id="ae" d="m44.391 34.188q3.1719-1.0781 6.1719-4.5938t6.0312-9.6719l10.016-19.922h-10.609l-9.3125 18.703q-3.625 7.3281-7.0156 9.7188t-9.25 2.3906h-10.75v-30.812h-9.8594v72.906h22.266q12.5 0 18.656-5.2344 6.1562-5.2188 6.1562-15.766 0-6.8906-3.2031-11.438-3.2031-4.5312-9.2969-6.2812zm-24.719 30.609v-25.875h12.406q7.125 0 10.766 3.2969t3.6406 9.6875-3.6406 9.6406-10.766 3.25z"/>
</defs>
<g transform="translate(592.49 553.58) rotate(-52.743) scale(.08 -.08)">
<use xlink:href="#ae"/>
</g>
</g>
<path d="m667.23 479.44 3.0781-4.5248q1.3499-1.9844-0.63444-3.3343l-6.4016-4.3549q-1.9844-1.3499-3.3343 0.63444l-3.0781 4.5248q-1.3499 1.9844 0.63444 3.3343l6.4016 4.3549q1.9844 1.3499 3.3343-0.63444z" clip-path="url(#a)" fill="#fff" stroke="#fff"/>
<g clip-path="url(#a)">
<g transform="translate(663.87 477.15) rotate(-55.773) scale(.08 -.08)">
<use xlink:href="#t"/>
</g>
</g>
<path d="m911.79 358.48 5.2452 1.5608q2.3003 0.6845 2.9848-1.6158l2.2082-7.4209q0.6845-2.3003-1.6158-2.9848l-5.2452-1.5608q-2.3003-0.6845-2.9848 1.6158l-2.2082 7.4209q-0.6845 2.3003 1.6158 2.9848z" clip-path="url(#a)" fill="#fff" stroke="#fff"/>
<g clip-path="url(#a)">
<g transform="translate(912.95 354.58) rotate(16.571) scale(.08 -.08)">
<use xlink:href="#t"/>
</g>
</g>
<path d="m870.37 550.3 1.9067 4.4309q0.94864 2.2046 3.1532 1.2559l7.112-3.0604q2.2046-0.94864 1.2559-3.1532l-1.9067-4.4309q-0.94864-2.2046-3.1532-1.2559l-7.112 3.0604q-2.2046 0.94864-1.2559 3.1532z" clip-path="url(#a)" fill="#fff" stroke="#fff"/>
<g clip-path="url(#a)">
<defs>
<path id="ar" d="m19.672 64.797v-27.391h12.406q6.8906 0 10.641 3.5625 3.7656 3.5625 3.7656 10.156 0 6.5469-3.7656 10.109-3.75 3.5625-10.641 3.5625zm-9.8594 8.1094h22.266q12.266 0 18.531-5.5469 6.2812-5.5469 6.2812-16.234 0-10.797-6.2812-16.312-6.2656-5.5156-18.531-5.5156h-12.406v-29.297h-9.8594z"/>
</defs>
<g transform="translate(874.11 548.69) rotate(66.717) scale(.08 -.08)">
<use xlink:href="#ar"/>
</g>
</g>
<path d="m894.19 550.94 2.1533 4.0663q1.1232 2.121 3.2441 0.9978l6.8423-3.6234q2.121-1.1232 0.9978-3.2441l-2.1533-4.0663q-1.1232-2.121-3.2441-0.9978l-6.8423 3.6234q-2.121 1.1232-0.9978 3.2441z" clip-path="url(#a)" fill="#fff" stroke="#fff"/>
<g clip-path="url(#a)">
<g transform="translate(897.78 549.04) rotate(62.096) scale(.08 -.08)">
<use xlink:href="#ao"/>
</g>
</g>
<path d="m917.67 550.9 3.1167 4.9566q1.2775 2.0317 3.3093 0.75418l6.5544-4.1214q2.0317-1.2775 0.75418-3.3093l-3.1167-4.9566q-1.2775-2.0317-3.3093-0.75418l-6.5544 4.1214q-2.0317 1.2775-0.75418 3.3093z" clip-path="url(#a)" fill="#fff" stroke="#fff"/>
<g clip-path="url(#a)">
<g transform="translate(921.11 548.73) rotate(57.838) scale(.08 -.08)">
<use xlink:href="#ad"/>
</g>
</g>
<path d="m404.33 809.36v35.285q0 2.4 2.4 2.4h7.7425q2.4 0 2.4-2.4v-35.285q0-2.4-2.4-2.4h-7.7425q-2.4 0-2.4 2.4z" clip-path="url(#a)" fill="#fff" stroke="#fff"/>
<g clip-path="url(#a)">
<g transform="translate(408.39 809.36) rotate(90) scale(.08 -.08)">
<use xlink:href="#l"/>
<use x="60.818359" xlink:href="#c"/>
<use x="122.341797" xlink:href="#h"/>
<use x="163.439453" xlink:href="#k"/>
<use x="260.851562" xlink:href="#e"/>
<use x="288.634766" xlink:href="#f"/>
<use x="352.013672" xlink:href="#j"/>
<use x="413.292969" xlink:href="#i"/>
</g>
</g>
<path d="m509.48 718.14 2.6672-4.2941q1.2663-2.0387-0.77244-3.305l-6.5771-4.0851q-2.0387-1.2663-3.305 0.77244l-2.6672 4.2941q-1.2663 2.0387 0.77244 3.305l6.5771 4.0851q2.0387 1.2663 3.305-0.77244z" clip-path="url(#a)" fill="#fff" stroke="#fff"/>
<g clip-path="url(#a)">
<g transform="translate(506.03 716) rotate(-58.155) scale(.08 -.08)">
<use xlink:href="#q"/>
</g>
</g>
<path d="m546.66 672.23v5.055q0 2.4 2.4 2.4h7.7425q2.4 0 2.4-2.4v-5.055q0-2.4-2.4-2.4h-7.7425q-2.4 0-2.4 2.4z" clip-path="url(#a)" fill="#fff" stroke="#fff"/>
<g clip-path="url(#a)">
<g transform="translate(550.73 672.23) rotate(90) scale(.08 -.08)">
<use xlink:href="#q"/>
</g>
</g>
<path d="m593.58 713.62 2.9475 4.7454q1.2663 2.0387 3.305 0.77244l6.5771-4.0851q2.0387-1.2663 0.77244-3.305l-2.9475-4.7454q-1.2663-2.0387-3.305-0.77244l-6.5771 4.0851q-2.0387 1.2663-0.77244 3.305z" clip-path="url(#a)" fill="#fff" stroke="#fff"/>
<g clip-path="url(#a)">
<g transform="translate(597.03 711.48) rotate(58.155) scale(.08 -.08)">
<use xlink:href="#p"/>
</g>
</g>
<path d="m914.15 522.51 4.3082-3.556q1.8509-1.5278 0.32316-3.3787l-4.9286-5.9712q-1.5278-1.8509-3.3787-0.32316l-4.3082 3.556q-1.8509 1.5278-0.32316 3.3787l4.9286 5.9712q1.5278 1.8509 3.3787 0.32316z" clip-path="url(#a)" fill="#fff" stroke="#fff"/>
<g clip-path="url(#a)">
<g transform="translate(911.56 519.38) rotate(-39.536) scale(.08 -.08)">
<use xlink:href="#p"/>
</g>
</g>
<path d="m1083.6 590.34 0.96214 5.9072q0.38582 2.3688 2.7546 1.983l7.6418-1.2447q2.3688-0.38582 1.983-2.7546l-0.96214-5.9072q-0.38582-2.3688-2.7546-1.983l-7.6418 1.2447q-2.3688 0.38582-1.983 2.7546z" clip-path="url(#a)" fill="#fff" stroke="#fff"/>
<g clip-path="url(#a)">
<defs>
<path id="af" d="m9.8125 72.906h13.281l32.328-60.984v60.984h9.5625v-72.906h-13.281l-32.312 60.984v-60.984h-9.5781z"/>
</defs>
<g transform="translate(1087.6 589.68) rotate(80.749) scale(.08 -.08)">
<use xlink:href="#af"/>
</g>
</g>
<path d="m1167.2 441.55 5.254 1.8978q2.2573 0.81534 3.0726-1.4419l2.6303-7.282q0.81534-2.2573-1.4419-3.0726l-5.254-1.8978q-2.2573-0.81534-3.0726 1.4419l-2.6303 7.282q-0.81534 2.2573 1.4419 3.0726z" clip-path="url(#a)" fill="#fff" stroke="#fff"/>
<g clip-path="url(#a)">
<g transform="translate(1168.6 437.73) rotate(19.86) scale(.08 -.08)">
<use xlink:href="#p"/>
</g>
</g>
<path d="m973.68 809.36v35.285q0 2.4 2.4 2.4h7.7425q2.4 0 2.4-2.4v-35.285q0-2.4-2.4-2.4h-7.7425q-2.4 0-2.4 2.4z" clip-path="url(#a)" fill="#fff" stroke="#fff"/>
<g clip-path="url(#a)">
<g transform="translate(977.74 809.36) rotate(90) scale(.08 -.08)">
<use xlink:href="#l"/>
<use x="60.818359" xlink:href="#c"/>
<use x="122.341797" xlink:href="#h"/>
<use x="163.439453" xlink:href="#k"/>
<use x="260.851562" xlink:href="#e"/>
<use x="288.634766" xlink:href="#f"/>
<use x="352.013672" xlink:href="#j"/>
<use x="413.292969" xlink:href="#i"/>
</g>
</g>
<path d="m1021.1 809.36v35.285q0 2.4 2.4 2.4h7.7425q2.4 0 2.4-2.4v-35.285q0-2.4-2.4-2.4h-7.7425q-2.4 0-2.4 2.4z" clip-path="url(#a)" fill="#fff" stroke="#fff"/>
<g clip-path="url(#a)">
<g transform="translate(1025.2 809.36) rotate(90) scale(.08 -.08)">
<use xlink:href="#l"/>
<use x="60.818359" xlink:href="#c"/>
<use x="122.341797" xlink:href="#h"/>
<use x="163.439453" xlink:href="#k"/>
<use x="260.851562" xlink:href="#e"/>
<use x="288.634766" xlink:href="#f"/>
<use x="352.013672" xlink:href="#j"/>
<use x="413.292969" xlink:href="#i"/>
</g>
</g>
<path d="m735.47 717.62 2.1346-4.5822q1.0134-2.1755-1.1621-3.189l-7.0183-3.2694q-2.1755-1.0134-3.189 1.1621l-2.1346 4.5822q-1.0134 2.1755 1.1621 3.189l7.0183 3.2694q2.1755 1.0134 3.189-1.1621z" clip-path="url(#a)" fill="#fff" stroke="#fff"/>
<g clip-path="url(#a)">
<g transform="translate(731.79 715.91) rotate(-65.022) scale(.08 -.08)">
<use xlink:href="#q"/>
</g>
</g>
<path d="m760.35 716.41 0.85716-5.5201q0.36826-2.3716-2.0033-2.7398l-7.6508-1.188q-2.3716-0.36826-2.7398 2.0033l-0.85716 5.5201q-0.36826 2.3716 2.0033 2.7398l7.6508 1.188q2.3716 0.36826 2.7398-2.0033z" clip-path="url(#a)" fill="#fff" stroke="#fff"/>
<g clip-path="url(#a)">
<g transform="translate(756.33 715.78) rotate(-81.174) scale(.08 -.08)">
<use xlink:href="#p"/>
</g>
</g>
<path d="m807.97 678.03 3.927 3.1831q1.8644 1.5112 3.3757-0.3532l4.8753-6.0148q1.5112-1.8644-0.3532-3.3757l-3.927-3.1831q-1.8644-1.5112-3.3757 0.3532l-4.8753 6.0148q-1.5112 1.8644 0.3532 3.3757z" clip-path="url(#a)" fill="#fff" stroke="#fff"/>
<g clip-path="url(#a)">
<g transform="translate(810.53 674.88) rotate(39.027) scale(.08 -.08)">
<use xlink:href="#q"/>
</g>
</g>
<path d="m1116 809.36v35.285q0 2.4 2.4 2.4h7.7425q2.4 0 2.4-2.4v-35.285q0-2.4-2.4-2.4h-7.7425q-2.4 0-2.4 2.4z" clip-path="url(#a)" fill="#fff" stroke="#fff"/>
<g clip-path="url(#a)">
<g transform="translate(1120.1 809.36) rotate(90) scale(.08 -.08)">
<use xlink:href="#l"/>
<use x="60.818359" xlink:href="#c"/>
<use x="122.341797" xlink:href="#h"/>
<use x="163.439453" xlink:href="#k"/>
<use x="260.851562" xlink:href="#e"/>
<use x="288.634766" xlink:href="#f"/>
<use x="352.013672" xlink:href="#j"/>
<use x="413.292969" xlink:href="#i"/>
</g>
</g>
<path d="m1232.8 637.95 1.7659-4.7365q0.83843-2.2488-1.4104-3.0872l-7.2547-2.7048q-2.2488-0.83843-3.0872 1.4104l-1.7659 4.7365q-0.83843 2.2488 1.4104 3.0872l7.2547 2.7048q2.2488 0.83843 3.0872-1.4104z" clip-path="url(#a)" fill="#fff" stroke="#fff"/>
<g clip-path="url(#a)">
<g transform="translate(1229 636.53) rotate(-69.553) scale(.08 -.08)">
<use xlink:href="#q"/>
</g>
</g>
<path d="m1257.1 637.21 1.0882-4.9365q0.51668-2.3437-1.827-2.8604l-7.561-1.6668q-2.3437-0.51668-2.8604 1.827l-1.0882 4.9365q-0.51668 2.3437 1.827 2.8604l7.561 1.6668q2.3437 0.51668 2.8604-1.827z" clip-path="url(#a)" fill="#fff" stroke="#fff"/>
<g clip-path="url(#a)">
<g transform="translate(1253.1 636.34) rotate(-77.568) scale(.08 -.08)">
<use xlink:href="#q"/>
</g>
</g>
<path d="m1281.3 636.61 0.37935-5.5734q0.16298-2.3945-2.2315-2.5574l-7.7246-0.52578q-2.3945-0.16298-2.5574 2.2315l-0.37935 5.5734q-0.16298 2.3945 2.2315 2.5574l7.7246 0.52578q2.3945 0.16298 2.5574-2.2315z" clip-path="url(#a)" fill="#fff" stroke="#fff"/>
<g clip-path="url(#a)">
<g transform="translate(1277.2 636.33) rotate(-86.106) scale(.08 -.08)">
<use xlink:href="#p"/>
</g>
</g>
<path d="m1370.8 522.51 4.6161 2.0602q2.1916 0.97812 3.1698-1.2135l3.1555-7.0703q0.97812-2.1916-1.2135-3.1698l-4.6161-2.0602q-2.1916-0.97812-3.1698 1.2135l-3.1555 7.0703q-0.97812 2.1916 1.2135 3.1698z" clip-path="url(#a)" fill="#fff" stroke="#fff"/>
<g clip-path="url(#a)">
<g transform="translate(1372.4 518.79) rotate(24.051) scale(.08 -.08)">
<use xlink:href="#q"/>
</g>
</g>
<path d="m1292.4 631 0.49195 5.8343q0.20165 2.3915 2.5932 2.1899l7.7151-0.65054q2.3915-0.20165 2.1899-2.5932l-0.49195-5.8343q-0.20165-2.3915-2.5932-2.1899l-7.7151 0.65054q-2.3915 0.20165-2.1899 2.5932z" clip-path="url(#a)" fill="#fff" stroke="#fff"/>
<g clip-path="url(#a)">
<g transform="translate(1296.5 630.66) rotate(85.18) scale(.08 -.08)">
<use xlink:href="#ad"/>
</g>
</g>
<path d="m1163.5 809.36v35.285q0 2.4 2.4 2.4h7.7425q2.4 0 2.4-2.4v-35.285q0-2.4-2.4-2.4h-7.7425q-2.4 0-2.4 2.4z" clip-path="url(#a)" fill="#fff" stroke="#fff"/>
<g clip-path="url(#a)">
<g transform="translate(1167.5 809.36) rotate(90) scale(.08 -.08)">
<use xlink:href="#l"/>
<use x="60.818359" xlink:href="#c"/>
<use x="122.341797" xlink:href="#h"/>
<use x="163.439453" xlink:href="#k"/>
<use x="260.851562" xlink:href="#e"/>
<use x="288.634766" xlink:href="#f"/>
<use x="352.013672" xlink:href="#j"/>
<use x="413.292969" xlink:href="#i"/>
</g>
</g>
<path d="m1210.9 809.36v35.285q0 2.4 2.4 2.4h7.7425q2.4 0 2.4-2.4v-35.285q0-2.4-2.4-2.4h-7.7425q-2.4 0-2.4 2.4z" clip-path="url(#a)" fill="#fff" stroke="#fff"/>
<g clip-path="url(#a)">
<g transform="translate(1215 809.36) rotate(90) scale(.08 -.08)">
<use xlink:href="#l"/>
<use x="60.818359" xlink:href="#c"/>
<use x="122.341797" xlink:href="#h"/>
<use x="163.439453" xlink:href="#k"/>
<use x="260.851562" xlink:href="#e"/>
<use x="288.634766" xlink:href="#f"/>
<use x="352.013672" xlink:href="#j"/>
<use x="413.292969" xlink:href="#i"/>
</g>
</g>
<path d="m1258.4 809.36v35.285q0 2.4 2.4 2.4h7.7425q2.4 0 2.4-2.4v-35.285q0-2.4-2.4-2.4h-7.7425q-2.4 0-2.4 2.4z" clip-path="url(#a)" fill="#fff" stroke="#fff"/>
<g clip-path="url(#a)">
<g transform="translate(1262.4 809.36) rotate(90) scale(.08 -.08)">
<use xlink:href="#l"/>
<use x="60.818359" xlink:href="#c"/>
<use x="122.341797" xlink:href="#h"/>
<use x="163.439453" xlink:href="#k"/>
<use x="260.851562" xlink:href="#e"/>
<use x="288.634766" xlink:href="#f"/>
<use x="352.013672" xlink:href="#j"/>
<use x="413.292969" xlink:href="#i"/>
</g>
</g>
<path d="m1368 679.67 3.5893-4.131q1.5741-1.8117-0.2376-3.3858l-5.8446-5.0781q-1.8117-1.5741-3.3858 0.2376l-3.5893 4.131q-1.5741 1.8117 0.2376 3.3858l5.8446 5.0781q1.8117 1.5741 3.3858-0.2376z" clip-path="url(#a)" fill="#fff" stroke="#fff"/>
<g clip-path="url(#a)">
<g transform="translate(1364.9 677) rotate(-49.014) scale(.08 -.08)">
<use xlink:href="#t"/>
</g>
</g>
<path d="m1417 678.63 2.3162-5.0532q1-2.1817-1.1817-3.1818l-7.0383-3.2262q-2.1817-1-3.1818 1.1817l-2.3162 5.0532q-1 2.1817 1.1817 3.1818l7.0383 3.2262q2.1817 1 3.1818-1.1817z" clip-path="url(#a)" fill="#fff" stroke="#fff"/>
<g clip-path="url(#a)">
<g transform="translate(1413.3 676.93) rotate(-65.375) scale(.08 -.08)">
<use xlink:href="#ae"/>
</g>
</g>
<path d="m1470.1 600.09 0.22062-5.4681q0.096754-2.398-2.3013-2.4948l-7.7362-0.31213q-2.398-0.096754-2.4948 2.3013l-0.22062 5.4681q-0.096754 2.398 2.3013 2.4948l7.7362 0.31213q2.398 0.096754 2.4948-2.3013z" clip-path="url(#a)" fill="#fff" stroke="#fff"/>
<g clip-path="url(#a)">
<g transform="translate(1466 599.92) rotate(-87.69) scale(.08 -.08)">
<use xlink:href="#t"/>
</g>
</g>
<path d="m1524.4 674.37 2.5078 4.4164q1.1851 2.087 3.2721 0.90194l6.7328-3.8231q2.087-1.1851 0.90194-3.2721l-2.5078-4.4164q-1.1851-2.087-3.2721-0.90194l-6.7328 3.8231q-2.087 1.1851-0.90194 3.2721z" clip-path="url(#a)" fill="#fff" stroke="#fff"/>
<g clip-path="url(#a)">
<g transform="translate(1527.9 672.37) rotate(60.411) scale(.08 -.08)">
<use xlink:href="#ak"/>
</g>
</g>
<path d="m1548.1 675.01 3.581 4.6322q1.4679 1.8988 3.3667 0.43088l6.1255-4.7355q1.8988-1.4679 0.43088-3.3667l-3.581-4.6322q-1.4679-1.8988-3.3667-0.43088l-6.1255 4.7355q-1.8988 1.4679-0.43088 3.3667z" clip-path="url(#a)" fill="#fff" stroke="#fff"/>
<g clip-path="url(#a)">
<g transform="translate(1551.3 672.52) rotate(52.293) scale(.08 -.08)">
<use xlink:href="#ad"/>
</g>
</g>
<path d="m1353.2 809.36v35.285q0 2.4 2.4 2.4h7.7425q2.4 0 2.4-2.4v-35.285q0-2.4-2.4-2.4h-7.7425q-2.4 0-2.4 2.4z" clip-path="url(#a)" fill="#fff" stroke="#fff"/>
<g clip-path="url(#a)">
<g transform="translate(1357.3 809.36) rotate(90) scale(.08 -.08)">
<use xlink:href="#l"/>
<use x="60.818359" xlink:href="#c"/>
<use x="122.341797" xlink:href="#h"/>
<use x="163.439453" xlink:href="#k"/>
<use x="260.851562" xlink:href="#e"/>
<use x="288.634766" xlink:href="#f"/>
<use x="352.013672" xlink:href="#j"/>
<use x="413.292969" xlink:href="#i"/>
</g>
</g>
<path d="m1439.7 717.2 1.722-4.7527q0.81756-2.2565-1.4389-3.074l-7.2794-2.6375q-2.2565-0.81756-3.074 1.4389l-1.722 4.7527q-0.81756 2.2565 1.4389 3.074l7.2794 2.6375q2.2565 0.81756 3.074-1.4389z" clip-path="url(#a)" fill="#fff" stroke="#fff"/>
<g clip-path="url(#a)">
<g transform="translate(1435.9 715.81) rotate(-70.084) scale(.08 -.08)">
<use xlink:href="#q"/>
</g>
</g>
<path d="m1464.5 715.8 0.28876-5.5788q0.12406-2.3968-2.2727-2.5208l-7.7322-0.40022q-2.3968-0.12406-2.5208 2.2727l-0.28876 5.5788q-0.12406 2.3968 2.2727 2.5208l7.7322 0.40022q2.3968 0.12406 2.5208-2.2727z" clip-path="url(#a)" fill="#fff" stroke="#fff"/>
<g clip-path="url(#a)">
<g transform="translate(1460.4 715.59) rotate(-87.037) scale(.08 -.08)">
<use xlink:href="#p"/>
</g>
</g>
<path d="m1487.5 676.79 3.2111 3.9041q1.5245 1.8536 3.3781 0.32905l5.9798-4.9182q1.8536-1.5245 0.32905-3.3781l-3.2111-3.9041q-1.5245-1.8536-3.3781-0.32905l-5.9798 4.9182q-1.8536 1.5245-0.32905 3.3781z" clip-path="url(#a)" fill="#fff" stroke="#fff"/>
<g clip-path="url(#a)">
<g transform="translate(1490.6 674.2) rotate(50.563) scale(.08 -.08)">
<use xlink:href="#q"/>
</g>
</g>
<path d="m1590.5 809.36v35.285q0 2.4 2.4 2.4h7.7425q2.4 0 2.4-2.4v-35.285q0-2.4-2.4-2.4h-7.7425q-2.4 0-2.4 2.4z" clip-path="url(#a)" fill="#fff" stroke="#fff"/>
<g clip-path="url(#a)">
<g transform="translate(1594.5 809.36) rotate(90) scale(.08 -.08)">
<use xlink:href="#l"/>
<use x="60.818359" xlink:href="#c"/>
<use x="122.341797" xlink:href="#h"/>
<use x="163.439453" xlink:href="#k"/>
<use x="260.851562" xlink:href="#e"/>
<use x="288.634766" xlink:href="#f"/>
<use x="352.013672" xlink:href="#j"/>
<use x="413.292969" xlink:href="#i"/>
</g>
</g>
<path d="m1400.7 809.36v35.285q0 2.4 2.4 2.4h7.7425q2.4 0 2.4-2.4v-35.285q0-2.4-2.4-2.4h-7.7425q-2.4 0-2.4 2.4z" clip-path="url(#a)" fill="#fff" stroke="#fff"/>
<g clip-path="url(#a)">
<g transform="translate(1404.8 809.36) rotate(90) scale(.08 -.08)">
<use xlink:href="#l"/>
<use x="60.818359" xlink:href="#c"/>
<use x="122.341797" xlink:href="#h"/>
<use x="163.439453" xlink:href="#k"/>
<use x="260.851562" xlink:href="#e"/>
<use x="288.634766" xlink:href="#f"/>
<use x="352.013672" xlink:href="#j"/>
<use x="413.292969" xlink:href="#i"/>
</g>
</g>
<path d="m1448.1 809.36v35.285q0 2.4 2.4 2.4h7.7425q2.4 0 2.4-2.4v-35.285q0-2.4-2.4-2.4h-7.7425q-2.4 0-2.4 2.4z" clip-path="url(#a)" fill="#fff" stroke="#fff"/>
<g clip-path="url(#a)">
<g transform="translate(1452.2 809.36) rotate(90) scale(.08 -.08)">
<use xlink:href="#l"/>
<use x="60.818359" xlink:href="#c"/>
<use x="122.341797" xlink:href="#h"/>
<use x="163.439453" xlink:href="#k"/>
<use x="260.851562" xlink:href="#e"/>
<use x="288.634766" xlink:href="#f"/>
<use x="352.013672" xlink:href="#j"/>
<use x="413.292969" xlink:href="#i"/>
</g>
</g>
<path d="m1518.9 755.67 1.6591-5.3054q0.71632-2.2906-1.5743-3.0069l-7.3896-2.3109q-2.2906-0.71632-3.0069 1.5743l-1.6591 5.3054q-0.71632 2.2906 1.5743 3.0069l7.3896 2.3109q2.2906 0.71632 3.0069-1.5743z" clip-path="url(#a)" fill="#fff" stroke="#fff"/>
<g clip-path="url(#a)">
<g transform="translate(1515 754.45) rotate(-72.635) scale(.08 -.08)">
<use xlink:href="#ae"/>
</g>
</g>
<path d="m1530.6 750.35 1.6673 5.3316q0.71632 2.2906 3.0069 1.5743l7.3896-2.3109q2.2906-0.71632 1.5743-3.0069l-1.6673-5.3316q-0.71632-2.2906-3.0069-1.5743l-7.3896 2.3109q-2.2906 0.71632-1.5743 3.0069z" clip-path="url(#a)" fill="#fff" stroke="#fff"/>
<g clip-path="url(#a)">
<g transform="translate(1534.5 749.14) rotate(72.635) scale(.08 -.08)">
<use xlink:href="#p"/>
</g>
</g>
<path d="m1495.6 809.36v35.285q0 2.4 2.4 2.4h7.7425q2.4 0 2.4-2.4v-35.285q0-2.4-2.4-2.4h-7.7425q-2.4 0-2.4 2.4z" clip-path="url(#a)" fill="#fff" stroke="#fff"/>
<g clip-path="url(#a)">
<g transform="translate(1499.6 809.36) rotate(90) scale(.08 -.08)">
<use xlink:href="#l"/>
<use x="60.818359" xlink:href="#c"/>
<use x="122.341797" xlink:href="#h"/>
<use x="163.439453" xlink:href="#k"/>
<use x="260.851562" xlink:href="#e"/>
<use x="288.634766" xlink:href="#f"/>
<use x="352.013672" xlink:href="#j"/>
<use x="413.292969" xlink:href="#i"/>
</g>
</g>
<path d="m1543 809.36v35.285q0 2.4 2.4 2.4h7.7425q2.4 0 2.4-2.4v-35.285q0-2.4-2.4-2.4h-7.7425q-2.4 0-2.4 2.4z" clip-path="url(#a)" fill="#fff" stroke="#fff"/>
<g clip-path="url(#a)">
<g transform="translate(1547.1 809.36) rotate(90) scale(.08 -.08)">
<use xlink:href="#l"/>
<use x="60.818359" xlink:href="#c"/>
<use x="122.341797" xlink:href="#h"/>
<use x="163.439453" xlink:href="#k"/>
<use x="260.851562" xlink:href="#e"/>
<use x="288.634766" xlink:href="#f"/>
<use x="352.013672" xlink:href="#j"/>
<use x="413.292969" xlink:href="#i"/>
</g>
</g>
<path d="m689 809.36v35.285q0 2.4 2.4 2.4h7.7425q2.4 0 2.4-2.4v-35.285q0-2.4-2.4-2.4h-7.7425q-2.4 0-2.4 2.4z" clip-path="url(#a)" fill="#fff" stroke="#fff"/>
<g clip-path="url(#a)">
<g transform="translate(693.06 809.36) rotate(90) scale(.08 -.08)">
<use xlink:href="#l"/>
<use x="60.818359" xlink:href="#c"/>
<use x="122.341797" xlink:href="#h"/>
<use x="163.439453" xlink:href="#k"/>
<use x="260.851562" xlink:href="#e"/>
<use x="288.634766" xlink:href="#f"/>
<use x="352.013672" xlink:href="#j"/>
<use x="413.292969" xlink:href="#i"/>
</g>
</g>
<path d="m736.45 809.36v35.285q0 2.4 2.4 2.4h7.7425q2.4 0 2.4-2.4v-35.285q0-2.4-2.4-2.4h-7.7425q-2.4 0-2.4 2.4z" clip-path="url(#a)" fill="#fff" stroke="#fff"/>
<g clip-path="url(#a)">
<g transform="translate(740.51 809.36) rotate(90) scale(.08 -.08)">
<use xlink:href="#l"/>
<use x="60.818359" xlink:href="#c"/>
<use x="122.341797" xlink:href="#h"/>
<use x="163.439453" xlink:href="#k"/>
<use x="260.851562" xlink:href="#e"/>
<use x="288.634766" xlink:href="#f"/>
<use x="352.013672" xlink:href="#j"/>
<use x="413.292969" xlink:href="#i"/>
</g>
</g>
<path d="m828.42 757.46 3.8033-4.054q1.6421-1.7503-0.10824-3.3924l-5.6466-5.2974q-1.7503-1.6421-3.3924 0.10824l-3.8033 4.054q-1.6421 1.7503 0.10824 3.3924l5.6466 5.2974q1.7503 1.6421 3.3924-0.10824z" clip-path="url(#a)" fill="#fff" stroke="#fff"/>
<g clip-path="url(#a)">
<g transform="translate(825.46 754.68) rotate(-46.828) scale(.08 -.08)">
<use xlink:href="#ae"/>
</g>
</g>
<path d="m854.62 755.68 1.6673-5.3316q0.71632-2.2906-1.5743-3.0069l-7.3896-2.3109q-2.2906-0.71632-3.0069 1.5743l-1.6673 5.3316q-0.71632 2.2906 1.5743 3.0069l7.3896 2.3109q2.2906 0.71632 3.0069-1.5743z" clip-path="url(#a)" fill="#fff" stroke="#fff"/>
<g clip-path="url(#a)">
<g transform="translate(850.75 754.47) rotate(-72.635) scale(.08 -.08)">
<use xlink:href="#p"/>
</g>
</g>
<path d="m866.32 750.16 1.7863 5.7122q0.71632 2.2906 3.0069 1.5743l7.3896-2.3109q2.2906-0.71632 1.5743-3.0069l-1.7863-5.7122q-0.71632-2.2906-3.0069-1.5743l-7.3896 2.3109q-2.2906 0.71632-1.5743 3.0069z" clip-path="url(#a)" fill="#fff" stroke="#fff"/>
<g clip-path="url(#a)">
<g transform="translate(870.19 748.95) rotate(72.635) scale(.08 -.08)">
<use xlink:href="#af"/>
</g>
</g>
<path d="m890.43 753.4 3.8221 4.074q1.6421 1.7503 3.3924 0.10824l5.6466-5.2974q1.7503-1.6421 0.10824-3.3924l-3.8221-4.074q-1.6421-1.7503-3.3924-0.10824l-5.6466 5.2974q-1.7503 1.6421-0.10824 3.3924z" clip-path="url(#a)" fill="#fff" stroke="#fff"/>
<g clip-path="url(#a)">
<g transform="translate(893.4 750.62) rotate(46.828) scale(.08 -.08)">
<use xlink:href="#p"/>
</g>
</g>
<path d="m783.89 809.36v35.285q0 2.4 2.4 2.4h7.7425q2.4 0 2.4-2.4v-35.285q0-2.4-2.4-2.4h-7.7425q-2.4 0-2.4 2.4z" clip-path="url(#a)" fill="#fff" stroke="#fff"/>
<g clip-path="url(#a)">
<g transform="translate(787.96 809.36) rotate(90) scale(.08 -.08)">
<use xlink:href="#l"/>
<use x="60.818359" xlink:href="#c"/>
<use x="122.341797" xlink:href="#h"/>
<use x="163.439453" xlink:href="#k"/>
<use x="260.851562" xlink:href="#e"/>
<use x="288.634766" xlink:href="#f"/>
<use x="352.013672" xlink:href="#j"/>
<use x="413.292969" xlink:href="#i"/>
</g>
</g>
<path d="m831.34 809.36v35.285q0 2.4 2.4 2.4h7.7425q2.4 0 2.4-2.4v-35.285q0-2.4-2.4-2.4h-7.7425q-2.4 0-2.4 2.4z" clip-path="url(#a)" fill="#fff" stroke="#fff"/>
<g clip-path="url(#a)">
<g transform="translate(835.4 809.36) rotate(90) scale(.08 -.08)">
<use xlink:href="#l"/>
<use x="60.818359" xlink:href="#c"/>
<use x="122.341797" xlink:href="#h"/>
<use x="163.439453" xlink:href="#k"/>
<use x="260.851562" xlink:href="#e"/>
<use x="288.634766" xlink:href="#f"/>
<use x="352.013672" xlink:href="#j"/>
<use x="413.292969" xlink:href="#i"/>
</g>
</g>
<path d="m878.79 809.36v35.285q0 2.4 2.4 2.4h7.7425q2.4 0 2.4-2.4v-35.285q0-2.4-2.4-2.4h-7.7425q-2.4 0-2.4 2.4z" clip-path="url(#a)" fill="#fff" stroke="#fff"/>
<g clip-path="url(#a)">
<g transform="translate(882.85 809.36) rotate(90) scale(.08 -.08)">
<use xlink:href="#l"/>
<use x="60.818359" xlink:href="#c"/>
<use x="122.341797" xlink:href="#h"/>
<use x="163.439453" xlink:href="#k"/>
<use x="260.851562" xlink:href="#e"/>
<use x="288.634766" xlink:href="#f"/>
<use x="352.013672" xlink:href="#j"/>
<use x="413.292969" xlink:href="#i"/>
</g>
</g>
<path d="m926.23 809.36v35.285q0 2.4 2.4 2.4h7.7425q2.4 0 2.4-2.4v-35.285q0-2.4-2.4-2.4h-7.7425q-2.4 0-2.4 2.4z" clip-path="url(#a)" fill="#fff" stroke="#fff"/>
<g clip-path="url(#a)">
<g transform="translate(930.29 809.36) rotate(90) scale(.08 -.08)">
<use xlink:href="#l"/>
<use x="60.818359" xlink:href="#c"/>
<use x="122.341797" xlink:href="#h"/>
<use x="163.439453" xlink:href="#k"/>
<use x="260.851562" xlink:href="#e"/>
<use x="288.634766" xlink:href="#f"/>
<use x="352.013672" xlink:href="#j"/>
<use x="413.292969" xlink:href="#i"/>
</g>
</g>
<path d="m451.77 809.36v35.285q0 2.4 2.4 2.4h7.7425q2.4 0 2.4-2.4v-35.285q0-2.4-2.4-2.4h-7.7425q-2.4 0-2.4 2.4z" clip-path="url(#a)" fill="#fff" stroke="#fff"/>
<g clip-path="url(#a)">
<g transform="translate(455.84 809.36) rotate(90) scale(.08 -.08)">
<use xlink:href="#l"/>
<use x="60.818359" xlink:href="#c"/>
<use x="122.341797" xlink:href="#h"/>
<use x="163.439453" xlink:href="#k"/>
<use x="260.851562" xlink:href="#e"/>
<use x="288.634766" xlink:href="#f"/>
<use x="352.013672" xlink:href="#j"/>
<use x="413.292969" xlink:href="#i"/>
</g>
</g>
<path d="m533.05 756.84 2.9622-4.7362q1.2726-2.0348-0.76215-3.3074l-6.5643-4.1056q-2.0348-1.2726-3.3074 0.76215l-2.9622 4.7362q-1.2726 2.0348 0.76215 3.3074l6.5643 4.1056q2.0348 1.2726 3.3074-0.76215z" clip-path="url(#a)" fill="#fff" stroke="#fff"/>
<g clip-path="url(#a)">
<g transform="translate(529.6 754.68) rotate(-57.977) scale(.08 -.08)">
<use xlink:href="#p"/>
</g>
</g>
<path d="m546.66 748.15v5.985q0 2.4 2.4 2.4h7.7425q2.4 0 2.4-2.4v-5.985q0-2.4-2.4-2.4h-7.7425q-2.4 0-2.4 2.4z" clip-path="url(#a)" fill="#fff" stroke="#fff"/>
<g clip-path="url(#a)">
<g transform="translate(550.73 748.15) rotate(90) scale(.08 -.08)">
<use xlink:href="#af"/>
</g>
</g>
<path d="m569.86 752.1 2.9622 4.7362q1.2726 2.0348 3.3074 0.76215l6.5643-4.1056q2.0348-1.2726 0.76215-3.3074l-2.9622-4.7362q-1.2726-2.0348-3.3074-0.76215l-6.5643 4.1056q-2.0348 1.2726-0.76215 3.3074z" clip-path="url(#a)" fill="#fff" stroke="#fff"/>
<g clip-path="url(#a)">
<g transform="translate(573.3 749.94) rotate(57.977) scale(.08 -.08)">
<use xlink:href="#p"/>
</g>
</g>
<path d="m641.56 809.36v35.285q0 2.4 2.4 2.4h7.7425q2.4 0 2.4-2.4v-35.285q0-2.4-2.4-2.4h-7.7425q-2.4 0-2.4 2.4z" clip-path="url(#a)" fill="#fff" stroke="#fff"/>
<g clip-path="url(#a)">
<g transform="translate(645.62 809.36) rotate(90) scale(.08 -.08)">
<use xlink:href="#l"/>
<use x="60.818359" xlink:href="#c"/>
<use x="122.341797" xlink:href="#h"/>
<use x="163.439453" xlink:href="#k"/>
<use x="260.851562" xlink:href="#e"/>
<use x="288.634766" xlink:href="#f"/>
<use x="352.013672" xlink:href="#j"/>
<use x="413.292969" xlink:href="#i"/>
</g>
</g>
<path d="m499.22 809.36v35.285q0 2.4 2.4 2.4h7.7425q2.4 0 2.4-2.4v-35.285q0-2.4-2.4-2.4h-7.7425q-2.4 0-2.4 2.4z" clip-path="url(#a)" fill="#fff" stroke="#fff"/>
<g clip-path="url(#a)">
<g transform="translate(503.28 809.36) rotate(90) scale(.08 -.08)">
<use xlink:href="#l"/>
<use x="60.818359" xlink:href="#c"/>
<use x="122.341797" xlink:href="#h"/>
<use x="163.439453" xlink:href="#k"/>
<use x="260.851562" xlink:href="#e"/>
<use x="288.634766" xlink:href="#f"/>
<use x="352.013672" xlink:href="#j"/>
<use x="413.292969" xlink:href="#i"/>
</g>
</g>
<path d="m546.66 809.36v35.285q0 2.4 2.4 2.4h7.7425q2.4 0 2.4-2.4v-35.285q0-2.4-2.4-2.4h-7.7425q-2.4 0-2.4 2.4z" clip-path="url(#a)" fill="#fff" stroke="#fff"/>
<g clip-path="url(#a)">
<g transform="translate(550.73 809.36) rotate(90) scale(.08 -.08)">
<use xlink:href="#l"/>
<use x="60.818359" xlink:href="#c"/>
<use x="122.341797" xlink:href="#h"/>
<use x="163.439453" xlink:href="#k"/>
<use x="260.851562" xlink:href="#e"/>
<use x="288.634766" xlink:href="#f"/>
<use x="352.013672" xlink:href="#j"/>
<use x="413.292969" xlink:href="#i"/>
</g>
</g>
<path d="m594.11 809.36v35.285q0 2.4 2.4 2.4h7.7425q2.4 0 2.4-2.4v-35.285q0-2.4-2.4-2.4h-7.7425q-2.4 0-2.4 2.4z" clip-path="url(#a)" fill="#fff" stroke="#fff"/>
<g clip-path="url(#a)">
<g transform="translate(598.17 809.36) rotate(90) scale(.08 -.08)">
<use xlink:href="#l"/>
<use x="60.818359" xlink:href="#c"/>
<use x="122.341797" xlink:href="#h"/>
<use x="163.439453" xlink:href="#k"/>
<use x="260.851562" xlink:href="#e"/>
<use x="288.634766" xlink:href="#f"/>
<use x="352.013672" xlink:href="#j"/>
<use x="413.292969" xlink:href="#i"/>
</g>
</g>
<path d="m356.88 809.36v35.285q0 2.4 2.4 2.4h7.7425q2.4 0 2.4-2.4v-35.285q0-2.4-2.4-2.4h-7.7425q-2.4 0-2.4 2.4z" clip-path="url(#a)" fill="#fff" stroke="#fff"/>
<g clip-path="url(#a)">
<g transform="translate(360.94 809.36) rotate(90) scale(.08 -.08)">
<use xlink:href="#l"/>
<use x="60.818359" xlink:href="#c"/>
<use x="122.341797" xlink:href="#h"/>
<use x="163.439453" xlink:href="#k"/>
<use x="260.851562" xlink:href="#e"/>
<use x="288.634766" xlink:href="#f"/>
<use x="352.013672" xlink:href="#j"/>
<use x="413.292969" xlink:href="#i"/>
</g>
</g>
<path d="m1068.6 809.36v35.285q0 2.4 2.4 2.4h7.7425q2.4 0 2.4-2.4v-35.285q0-2.4-2.4-2.4h-7.7425q-2.4 0-2.4 2.4z" clip-path="url(#a)" fill="#fff" stroke="#fff"/>
<g clip-path="url(#a)">
<g transform="translate(1072.6 809.36) rotate(90) scale(.08 -.08)">
<use xlink:href="#l"/>
<use x="60.818359" xlink:href="#c"/>
<use x="122.341797" xlink:href="#h"/>
<use x="163.439453" xlink:href="#k"/>
<use x="260.851562" xlink:href="#e"/>
<use x="288.634766" xlink:href="#f"/>
<use x="352.013672" xlink:href="#j"/>
<use x="413.292969" xlink:href="#i"/>
</g>
</g>
<path d="m1305.8 809.36v35.285q0 2.4 2.4 2.4h7.7425q2.4 0 2.4-2.4v-35.285q0-2.4-2.4-2.4h-7.7425q-2.4 0-2.4 2.4z" clip-path="url(#a)" fill="#fff" stroke="#fff"/>
<g clip-path="url(#a)">
<g transform="translate(1309.9 809.36) rotate(90) scale(.08 -.08)">
<use xlink:href="#l"/>
<use x="60.818359" xlink:href="#c"/>
<use x="122.341797" xlink:href="#h"/>
<use x="163.439453" xlink:href="#k"/>
<use x="260.851562" xlink:href="#e"/>
<use x="288.634766" xlink:href="#f"/>
<use x="352.013672" xlink:href="#j"/>
<use x="413.292969" xlink:href="#i"/>
</g>
</g>
<path d="m1637.9 809.36v35.285q0 2.4 2.4 2.4h7.7425q2.4 0 2.4-2.4v-35.285q0-2.4-2.4-2.4h-7.7425q-2.4 0-2.4 2.4z" clip-path="url(#a)" fill="#fff" stroke="#fff"/>
<g clip-path="url(#a)">
<g transform="translate(1642 809.36) rotate(90) scale(.08 -.08)">
<use xlink:href="#l"/>
<use x="60.818359" xlink:href="#c"/>
<use x="122.341797" xlink:href="#h"/>
<use x="163.439453" xlink:href="#k"/>
<use x="260.851562" xlink:href="#e"/>
<use x="288.634766" xlink:href="#f"/>
<use x="352.013672" xlink:href="#j"/>
<use x="413.292969" xlink:href="#i"/>
</g>
</g>
<defs>
<path id="b" d="m0 8.6603c2.2967 0 4.4997-0.9125 6.1237-2.5365 1.624-1.624 2.5365-3.827 2.5365-6.1237s-0.9125-4.4997-2.5365-6.1237c-1.624-1.624-3.827-2.5365-6.1237-2.5365s-4.4997 0.9125-6.1237 2.5365c-1.624 1.624-2.5365 3.827-2.5365 6.1237s0.9125 4.4997 2.5365 6.1237c1.624 1.624 3.827 2.5365 6.1237 2.5365z"/>
</defs>
<g clip-path="url(#a)">
<use x="78.474766" y="864.932835" fill="#ffffff" stroke="#ffffff" xlink:href="#b"/>
</g>
<g clip-path="url(#a)">
<use x="125.92074" y="864.932835" fill="#ffffff" stroke="#ffffff" xlink:href="#b"/>
</g>
<g clip-path="url(#a)">
<use x="173.366714" y="864.932835" fill="#ffffff" stroke="#ffffff" xlink:href="#b"/>
</g>
<g clip-path="url(#a)">
<use x="220.812688" y="864.932835" fill="#ffffff" stroke="#ffffff" xlink:href="#b"/>
</g>
<g clip-path="url(#a)">
<use x="268.258661" y="864.932835" fill="#ffffff" stroke="#ffffff" xlink:href="#b"/>
</g>
<g clip-path="url(#a)">
<use x="315.704635" y="864.932835" fill="#ffffff" stroke="#ffffff" xlink:href="#b"/>
</g>
<g clip-path="url(#a)">
<use x="363.150609" y="864.932835" fill="#ffffff" stroke="#ffffff" xlink:href="#b"/>
</g>
<g clip-path="url(#a)">
<use x="410.596583" y="864.932835" fill="#ffffff" stroke="#ffffff" xlink:href="#b"/>
</g>
<g clip-path="url(#a)">
<use x="458.042556" y="864.932835" fill="#ffffff" stroke="#ffffff" xlink:href="#b"/>
</g>
<g clip-path="url(#a)">
<use x="505.48853" y="864.932835" fill="#ffffff" stroke="#ffffff" xlink:href="#b"/>
</g>
<g clip-path="url(#a)">
<use x="552.934504" y="864.932835" fill="#ffffff" stroke="#ffffff" xlink:href="#b"/>
</g>
<g clip-path="url(#a)">
<use x="600.380478" y="864.932835" fill="#ffffff" stroke="#ffffff" xlink:href="#b"/>
</g>
<g clip-path="url(#a)">
<use x="647.826451" y="864.932835" fill="#ffffff" stroke="#ffffff" xlink:href="#b"/>
</g>
<g clip-path="url(#a)">
<use x="695.272425" y="864.932835" fill="#ffffff" stroke="#ffffff" xlink:href="#b"/>
</g>
<g clip-path="url(#a)">
<use x="742.718399" y="864.932835" fill="#ffffff" stroke="#ffffff" xlink:href="#b"/>
</g>
<g clip-path="url(#a)">
<use x="790.164373" y="864.932835" fill="#ffffff" stroke="#ffffff" xlink:href="#b"/>
</g>
<g clip-path="url(#a)">
<use x="837.610346" y="864.932835" fill="#ffffff" stroke="#ffffff" xlink:href="#b"/>
</g>
<g clip-path="url(#a)">
<use x="885.05632" y="864.932835" fill="#ffffff" stroke="#ffffff" xlink:href="#b"/>
</g>
<g clip-path="url(#a)">
<use x="932.502294" y="864.932835" fill="#ffffff" stroke="#ffffff" xlink:href="#b"/>
</g>
<g clip-path="url(#a)">
<use x="979.948268" y="864.932835" fill="#ffffff" stroke="#ffffff" xlink:href="#b"/>
</g>
<g clip-path="url(#a)">
<use x="1027.394241" y="864.932835" fill="#ffffff" stroke="#ffffff" xlink:href="#b"/>
</g>
<g clip-path="url(#a)">
<use x="1074.840215" y="864.932835" fill="#ffffff" stroke="#ffffff" xlink:href="#b"/>
</g>
<g clip-path="url(#a)">
<use x="1122.286189" y="864.932835" fill="#ffffff" stroke="#ffffff" xlink:href="#b"/>
</g>
<g clip-path="url(#a)">
<use x="1169.732163" y="864.932835" fill="#ffffff" stroke="#ffffff" xlink:href="#b"/>
</g>
<g clip-path="url(#a)">
<use x="1217.178137" y="864.932835" fill="#ffffff" stroke="#ffffff" xlink:href="#b"/>
</g>
<g clip-path="url(#a)">
<use x="1264.62411" y="864.932835" fill="#ffffff" stroke="#ffffff" xlink:href="#b"/>
</g>
<g clip-path="url(#a)">
<use x="1312.070084" y="864.932835" fill="#ffffff" stroke="#ffffff" xlink:href="#b"/>
</g>
<g clip-path="url(#a)">
<use x="1359.516058" y="864.932835" fill="#ffffff" stroke="#ffffff" xlink:href="#b"/>
</g>
<g clip-path="url(#a)">
<use x="1406.962032" y="864.932835" fill="#ffffff" stroke="#ffffff" xlink:href="#b"/>
</g>
<g clip-path="url(#a)">
<use x="1454.408005" y="864.932835" fill="#ffffff" stroke="#ffffff" xlink:href="#b"/>
</g>
<g clip-path="url(#a)">
<use x="1501.853979" y="864.932835" fill="#ffffff" stroke="#ffffff" xlink:href="#b"/>
</g>
<g clip-path="url(#a)">
<use x="1549.299953" y="864.932835" fill="#ffffff" stroke="#ffffff" xlink:href="#b"/>
</g>
<g clip-path="url(#a)">
<use x="1596.745927" y="864.932835" fill="#ffffff" stroke="#ffffff" xlink:href="#b"/>
</g>
<g clip-path="url(#a)">
<use x="1644.1919" y="864.932835" fill="#ffffff" stroke="#ffffff" xlink:href="#b"/>
</g>
<g clip-path="url(#a)">
<use x="158.041853" y="41.733832" fill="#ffffff" stroke="#ffffff" xlink:href="#b"/>
</g>
<g clip-path="url(#a)">
<use x="78.474766" y="789.072628" fill="#ffffff" stroke="#ffffff" xlink:href="#b"/>
</g>
<g clip-path="url(#a)">
<use x="237.608939" y="134.330829" fill="#ffffff" stroke="#ffffff" xlink:href="#b"/>
</g>
<g clip-path="url(#a)">
<use x="125.92074" y="789.072628" fill="#ffffff" stroke="#ffffff" xlink:href="#b"/>
</g>
<g clip-path="url(#a)">
<use x="173.366714" y="789.072628" fill="#ffffff" stroke="#ffffff" xlink:href="#b"/>
</g>
<g clip-path="url(#a)">
<use x="220.812688" y="789.072628" fill="#ffffff" stroke="#ffffff" xlink:href="#b"/>
</g>
<g clip-path="url(#a)">
<use x="430.335614" y="224.015253" fill="#ffffff" stroke="#ffffff" xlink:href="#b"/>
</g>
<g clip-path="url(#a)">
<use x="268.258661" y="789.072628" fill="#ffffff" stroke="#ffffff" xlink:href="#b"/>
</g>
<g clip-path="url(#a)">
<use x="315.704635" y="789.072628" fill="#ffffff" stroke="#ffffff" xlink:href="#b"/>
</g>
<g clip-path="url(#a)">
<use x="774.22855" y="310.998727" fill="#ffffff" stroke="#ffffff" xlink:href="#b"/>
</g>
<g clip-path="url(#a)">
<use x="410.596583" y="789.072628" fill="#ffffff" stroke="#ffffff" xlink:href="#b"/>
</g>
<g clip-path="url(#a)">
<use x="552.934504" y="636.296916" fill="#ffffff" stroke="#ffffff" xlink:href="#b"/>
</g>
<g clip-path="url(#a)">
<use x="1058.181407" y="395.493603" fill="#ffffff" stroke="#ffffff" xlink:href="#b"/>
</g>
<g clip-path="url(#a)">
<use x="979.948268" y="789.072628" fill="#ffffff" stroke="#ffffff" xlink:href="#b"/>
</g>
<g clip-path="url(#a)">
<use x="1027.394241" y="789.072628" fill="#ffffff" stroke="#ffffff" xlink:href="#b"/>
</g>
<g clip-path="url(#a)">
<use x="766.441386" y="636.296916" fill="#ffffff" stroke="#ffffff" xlink:href="#b"/>
</g>
<g clip-path="url(#a)">
<use x="1122.286189" y="789.072628" fill="#ffffff" stroke="#ffffff" xlink:href="#b"/>
</g>
<g clip-path="url(#a)">
<use x="1285.816645" y="477.717489" fill="#ffffff" stroke="#ffffff" xlink:href="#b"/>
</g>
<g clip-path="url(#a)">
<use x="1169.732163" y="789.072628" fill="#ffffff" stroke="#ffffff" xlink:href="#b"/>
</g>
<g clip-path="url(#a)">
<use x="1217.178137" y="789.072628" fill="#ffffff" stroke="#ffffff" xlink:href="#b"/>
</g>
<g clip-path="url(#a)">
<use x="1264.62411" y="789.072628" fill="#ffffff" stroke="#ffffff" xlink:href="#b"/>
</g>
<g clip-path="url(#a)">
<use x="1465.478733" y="557.900344" fill="#ffffff" stroke="#ffffff" xlink:href="#b"/>
</g>
<g clip-path="url(#a)">
<use x="1359.516058" y="789.072628" fill="#ffffff" stroke="#ffffff" xlink:href="#b"/>
</g>
<g clip-path="url(#a)">
<use x="1462.315668" y="636.296916" fill="#ffffff" stroke="#ffffff" xlink:href="#b"/>
</g>
<g clip-path="url(#a)">
<use x="1596.745927" y="789.072628" fill="#ffffff" stroke="#ffffff" xlink:href="#b"/>
</g>
<g clip-path="url(#a)">
<use x="1406.962032" y="789.072628" fill="#ffffff" stroke="#ffffff" xlink:href="#b"/>
</g>
<g clip-path="url(#a)">
<use x="1454.408005" y="789.072628" fill="#ffffff" stroke="#ffffff" xlink:href="#b"/>
</g>
<g clip-path="url(#a)">
<use x="1525.576966" y="713.212422" fill="#ffffff" stroke="#ffffff" xlink:href="#b"/>
</g>
<g clip-path="url(#a)">
<use x="1501.853979" y="789.072628" fill="#ffffff" stroke="#ffffff" xlink:href="#b"/>
</g>
<g clip-path="url(#a)">
<use x="1549.299953" y="789.072628" fill="#ffffff" stroke="#ffffff" xlink:href="#b"/>
</g>
<g clip-path="url(#a)">
<use x="695.272425" y="789.072628" fill="#ffffff" stroke="#ffffff" xlink:href="#b"/>
</g>
<g clip-path="url(#a)">
<use x="742.718399" y="789.072628" fill="#ffffff" stroke="#ffffff" xlink:href="#b"/>
</g>
<g clip-path="url(#a)">
<use x="861.333333" y="713.212422" fill="#ffffff" stroke="#ffffff" xlink:href="#b"/>
</g>
<g clip-path="url(#a)">
<use x="790.164373" y="789.072628" fill="#ffffff" stroke="#ffffff" xlink:href="#b"/>
</g>
<g clip-path="url(#a)">
<use x="837.610346" y="789.072628" fill="#ffffff" stroke="#ffffff" xlink:href="#b"/>
</g>
<g clip-path="url(#a)">
<use x="885.05632" y="789.072628" fill="#ffffff" stroke="#ffffff" xlink:href="#b"/>
</g>
<g clip-path="url(#a)">
<use x="932.502294" y="789.072628" fill="#ffffff" stroke="#ffffff" xlink:href="#b"/>
</g>
<g clip-path="url(#a)">
<use x="458.042556" y="789.072628" fill="#ffffff" stroke="#ffffff" xlink:href="#b"/>
</g>
<g clip-path="url(#a)">
<use x="552.934504" y="713.212422" fill="#ffffff" stroke="#ffffff" xlink:href="#b"/>
</g>
<g clip-path="url(#a)">
<use x="647.826451" y="789.072628" fill="#ffffff" stroke="#ffffff" xlink:href="#b"/>
</g>
<g clip-path="url(#a)">
<use x="505.48853" y="789.072628" fill="#ffffff" stroke="#ffffff" xlink:href="#b"/>
</g>
<g clip-path="url(#a)">
<use x="552.934504" y="789.072628" fill="#ffffff" stroke="#ffffff" xlink:href="#b"/>
</g>
<g clip-path="url(#a)">
<use x="600.380478" y="789.072628" fill="#ffffff" stroke="#ffffff" xlink:href="#b"/>
</g>
<g clip-path="url(#a)">
<use x="363.150609" y="789.072628" fill="#ffffff" stroke="#ffffff" xlink:href="#b"/>
</g>
<g clip-path="url(#a)">
<use x="1074.840215" y="789.072628" fill="#ffffff" stroke="#ffffff" xlink:href="#b"/>
</g>
<g clip-path="url(#a)">
<use x="1312.070084" y="789.072628" fill="#ffffff" stroke="#ffffff" xlink:href="#b"/>
</g>
<g clip-path="url(#a)">
<use x="1644.1919" y="789.072628" fill="#ffffff" stroke="#ffffff" xlink:href="#b"/>
</g>
<g clip-path="url(#a)">
<defs>
<path id="av" d="m19.672 64.797v-56.688h11.922q15.094 0 22.094 6.8281 7 6.8438 7 21.594 0 14.641-7 21.453t-22.094 6.8125zm-9.8594 8.1094h20.266q21.188 0 31.094-8.8125 9.9219-8.8125 9.9219-27.562 0-18.859-9.9688-27.703-9.9531-8.8281-31.047-8.8281h-20.266z"/>
</defs>
<g transform="translate(65.211 867.69) scale(.1 -.1)">
<use xlink:href="#av"/>
<use x="77.001953" xlink:href="#c"/>
<use x="138.525391" xlink:href="#f"/>
<use x="201.904297" xlink:href="#f"/>
</g>
</g>
<g clip-path="url(#a)">
<defs>
<path id="s" d="m44.281 53.078v-8.5q-3.7969 1.9531-7.9062 2.9219-4.0938 0.98438-8.5 0.98438-6.6875 0-10.031-2.0469t-3.3438-6.1562q0-3.125 2.3906-4.9062t9.625-3.3906l3.0781-0.6875q9.5625-2.0469 13.594-5.7812t4.0312-10.422q0-7.625-6.0312-12.078-6.0312-4.4375-16.578-4.4375-4.3906 0-9.1562 0.85938t-10.031 2.5625v9.2812q4.9844-2.5938 9.8125-3.8906 4.8281-1.2812 9.5781-1.2812 6.3438 0 9.75 2.1719 3.4219 2.1719 3.4219 6.125 0 3.6562-2.4688 5.6094-2.4531 1.9531-10.812 3.7656l-3.125 0.73438q-8.3438 1.75-12.062 5.3906-3.7031 3.6406-3.7031 9.9844 0 7.7188 5.4688 11.906 5.4688 4.2031 15.531 4.2031 4.9688 0 9.3594-0.73438 4.4062-0.71875 8.1094-2.1875z"/>
</defs>
<g transform="translate(120.24 867.69) scale(.1 -.1)">
<use xlink:href="#c"/>
<use x="61.523438" xlink:href="#s"/>
</g>
</g>
<g clip-path="url(#a)">
<defs>
<path id="ab" d="m4.2031 54.688h8.9844l11.234-42.672 11.172 42.672h10.594l11.234-42.672 11.188 42.672h8.9844l-14.312-54.688h-10.594l-11.766 44.828-11.812-44.828h-10.609z"/>
</defs>
<g transform="translate(164.16 867.69) scale(.1 -.1)">
<use xlink:href="#ab"/>
<use x="81.787109" xlink:href="#j"/>
<use x="143.066406" xlink:href="#h"/>
</g>
</g>
<g clip-path="url(#a)">
<defs>
<path id="ai" d="m9.0781 75.984h9.0312v-44.875l26.812 23.578h11.469l-29-25.578 30.234-29.109h-11.719l-27.797 26.703v-26.703h-9.0312z"/>
<path id="w" d="m48.781 52.594v-8.4062q-3.8125 2.1094-7.6406 3.1562t-7.7344 1.0469q-8.75 0-13.594-5.5469-4.8281-5.5312-4.8281-15.547t4.8281-15.562q4.8438-5.5312 13.594-5.5312 3.9062 0 7.7344 1.0469t7.6406 3.1562v-8.3125q-3.7656-1.75-7.7969-2.625-4.0156-0.89062-8.5625-0.89062-12.359 0-19.641 7.7656-7.2656 7.7656-7.2656 20.953 0 13.375 7.3438 21.031 7.3594 7.6719 20.156 7.6719 4.1406 0 8.0938-0.85938 3.9531-0.84375 7.6719-2.5469z"/>
<path id="v" d="m54.891 33.016v-33.016h-8.9844v32.719q0 7.7656-3.0312 11.609-3.0312 3.8594-9.0781 3.8594-7.2812 0-11.484-4.6406-4.2031-4.625-4.2031-12.641v-30.906h-9.0312v75.984h9.0312v-29.797q3.2344 4.9375 7.5938 7.375 4.375 2.4375 10.094 2.4375 9.4219 0 14.25-5.8281 4.8438-5.8281 4.8438-17.156z"/>
</defs>
<g transform="translate(201.69 867.69) scale(.1 -.1)">
<use xlink:href="#ab"/>
<use x="81.787109" xlink:href="#e"/>
<use x="109.570312" xlink:href="#h"/>
<use x="150.683594" xlink:href="#ai"/>
<use x="208.59375" xlink:href="#i"/>
<use x="236.376953" xlink:href="#e"/>
<use x="264.160156" xlink:href="#w"/>
<use x="319.140625" xlink:href="#v"/>
</g>
</g>
<g clip-path="url(#a)">
<g transform="translate(260.62 867.69) scale(.1 -.1)">
<use xlink:href="#c"/>
<use x="61.523438" xlink:href="#e"/>
<use x="89.306641" xlink:href="#f"/>
</g>
</g>
<g clip-path="url(#a)">
<defs>
<path id="am" d="m9.8125 72.906h14.703l18.594-49.609 18.703 49.609h14.703v-72.906h-9.625v64.016l-18.797-50h-9.9062l-18.797 50v-64.016h-9.5781z"/>
<path id="x" d="m8.5 21.578v33.109h8.9844v-32.766q0-7.7656 3.0156-11.656 3.0312-3.875 9.0938-3.875 7.2656 0 11.484 4.6406 4.2344 4.6406 4.2344 12.656v31h8.9844v-54.688h-8.9844v8.4062q-3.2656-4.9844-7.5938-7.4062-4.3125-2.4219-10.031-2.4219-9.4219 0-14.312 5.8594-4.875 5.8594-4.875 17.141z"/>
</defs>
<g transform="translate(294.5 867.69) scale(.1 -.1)">
<use xlink:href="#am"/>
<use x="86.279297" xlink:href="#x"/>
<use x="149.658203" xlink:href="#s"/>
<use x="201.757812" xlink:href="#c"/>
<use x="263.28125" xlink:href="#x"/>
<use x="326.660156" xlink:href="#k"/>
</g>
</g>
<g clip-path="url(#a)">
<defs>
<path id="al" d="m11.719 12.406h10.297v-8.4062l-8-15.625h-6.2969l4 15.625z"/>
</defs>
<g transform="translate(361.56 867.69) scale(.1 -.1)">
<use xlink:href="#al"/>
</g>
</g>
<g clip-path="url(#a)">
<defs>
<path id="ba" d="m30.609 48.391q-7.2188 0-11.422-5.6406t-4.2031-15.453 4.1719-15.453q4.1875-5.6406 11.453-5.6406 7.1875 0 11.375 5.6562 4.2031 5.6719 4.2031 15.438 0 9.7188-4.2031 15.406-4.1875 5.6875-11.375 5.6875zm0 7.6094q11.719 0 18.406-7.625 6.7031-7.6094 6.7031-21.078 0-13.422-6.7031-21.078-6.6875-7.6406-18.406-7.6406-11.766 0-18.438 7.6406-6.6562 7.6562-6.6562 21.078 0 13.469 6.6562 21.078 6.6719 7.625 18.438 7.625z"/>
</defs>
<g transform="translate(396.83 867.69) scale(.1 -.1)">
<use xlink:href="#ab"/>
<use x="81.787109" xlink:href="#ba"/>
<use x="142.96875" xlink:href="#h"/>
<use x="184.082031" xlink:href="#e"/>
<use x="211.865234" xlink:href="#f"/>
</g>
</g>
<g clip-path="url(#a)">
<g transform="translate(447.33 867.69) scale(.1 -.1)">
<use xlink:href="#c"/>
<use x="61.523438" xlink:href="#e"/>
<use x="89.306641" xlink:href="#f"/>
<use x="152.685547" xlink:href="#c"/>
</g>
</g>
<g clip-path="url(#a)">
<defs>
<path id="r" d="m18.312 70.219v-15.531h18.5v-6.9844h-18.5v-29.688q0-6.6875 1.8281-8.5938t7.4531-1.9062h9.2188v-7.5156h-9.2188q-10.406 0-14.359 3.875-3.9531 3.8906-3.9531 14.141v29.688h-6.5938v6.9844h6.5938v15.531z"/>
<path id="aj" d="m45.406 27.984q0 9.7656-4.0312 15.125-4.0156 5.375-11.297 5.375-7.2188 0-11.25-5.375-4.0312-5.3594-4.0312-15.125 0-9.7188 4.0312-15.094t11.25-5.375q7.2812 0 11.297 5.375 4.0312 5.375 4.0312 15.094zm8.9844-21.203q0-13.953-6.2031-20.766-6.1875-6.8125-18.984-6.8125-4.7344 0-8.9375 0.70312t-8.1562 2.1719v8.7344q3.9531-2.1406 7.8125-3.1562 3.8594-1.0312 7.8594-1.0312 8.8438 0 13.234 4.6094t4.3906 13.938v4.4531q-2.7812-4.8438-7.125-7.2344t-10.406-2.3906q-10.047 0-16.203 7.6562-6.1562 7.6719-6.1562 20.328 0 12.688 6.1562 20.344 6.1562 7.6719 16.203 7.6719 6.0625 0 10.406-2.3906t7.125-7.2188v8.2969h8.9844z"/>
</defs>
<g transform="translate(478.34 867.69) scale(.1 -.1)">
<use xlink:href="#c"/>
<use x="61.523438" xlink:href="#e"/>
<use x="89.306641" xlink:href="#f"/>
<use x="152.685547" xlink:href="#s"/>
<use x="204.785156" xlink:href="#e"/>
<use x="232.568359" xlink:href="#w"/>
<use x="287.548828" xlink:href="#v"/>
<use x="350.927734" xlink:href="#r"/>
<use x="390.136719" xlink:href="#e"/>
<use x="417.919922" xlink:href="#aj"/>
<use x="481.396484" xlink:href="#c"/>
</g>
</g>
<g clip-path="url(#a)">
<defs>
<path id="ac" d="m45.406 46.391v29.594h8.9844v-75.984h-8.9844v8.2031q-2.8281-4.875-7.1562-7.25-4.3125-2.375-10.375-2.375-9.9062 0-16.141 7.9062-6.2188 7.9219-6.2188 20.812t6.2188 20.797q6.2344 7.9062 16.141 7.9062 6.0625 0 10.375-2.375 4.3281-2.3594 7.1562-7.2344zm-30.609-19.094q0-9.9062 4.0781-15.547t11.203-5.6406 11.219 5.6406q4.1094 5.6406 4.1094 15.547t-4.1094 15.547q-4.0938 5.6406-11.219 5.6406t-11.203-5.6406-4.0781-15.547z"/>
</defs>
<g transform="translate(543.42 867.69) scale(.1 -.1)">
<use xlink:href="#x"/>
<use x="63.378906" xlink:href="#f"/>
<use x="126.757812" xlink:href="#ac"/>
</g>
</g>
<g clip-path="url(#a)">
<defs>
<path id="bb" d="m37.109 75.984v-7.4844h-8.5938q-4.8281 0-6.7188-1.9531-1.875-1.9531-1.875-7.0312v-4.8281h14.797v-6.9844h-14.797v-47.703h-9.0312v47.703h-8.5938v6.9844h8.5938v3.8125q0 9.125 4.25 13.297 4.25 4.1875 13.469 4.1875z"/>
<path id="aq" d="m48.688 27.297q0 9.9062-4.0781 15.547t-11.203 5.6406q-7.1406 0-11.219-5.6406t-4.0781-15.547 4.0781-15.547 11.219-5.6406q7.125 0 11.203 5.6406t4.0781 15.547zm-30.578 19.094q2.8438 4.875 7.1562 7.2344 4.3281 2.375 10.328 2.375 9.9688 0 16.188-7.9062 6.2344-7.9062 6.2344-20.797t-6.2344-20.812q-6.2188-7.9062-16.188-7.9062-6 0-10.328 2.375-4.3125 2.375-7.1562 7.25v-8.2031h-9.0312v75.984h9.0312z"/>
</defs>
<g transform="translate(575.04 867.69) scale(.1 -.1)">
<use xlink:href="#bb"/>
<use x="35.205078" xlink:href="#h"/>
<use x="76.287109" xlink:href="#c"/>
<use x="137.810547" xlink:href="#e"/>
<use x="165.59375" xlink:href="#aj"/>
<use x="229.070312" xlink:href="#c"/>
<use x="290.59375" xlink:href="#aq"/>
<use x="354.070312" xlink:href="#e"/>
<use x="381.853516" xlink:href="#aj"/>
<use x="445.330078" xlink:href="#c"/>
</g>
</g>
<g clip-path="url(#a)">
<g transform="translate(634.66 867.69) scale(.1 -.1)">
<use xlink:href="#an"/>
<use x="75.195312" xlink:href="#j"/>
<use x="136.474609" xlink:href="#f"/>
<use x="199.853516" xlink:href="#ac"/>
</g>
</g>
<g clip-path="url(#a)">
<g transform="translate(686.35 867.69) scale(.1 -.1)">
<use xlink:href="#j"/>
<use x="61.279297" xlink:href="#i"/>
<use x="89.0625" xlink:href="#i"/>
<use x="116.845703" xlink:href="#c"/>
</g>
</g>
<g clip-path="url(#a)">
<defs>
<path id="ay" d="m34.281 27.484q-10.891 0-15.094-2.4844t-4.2031-8.5q0-4.7812 3.1562-7.5938 3.1562-2.7969 8.5625-2.7969 7.4844 0 12 5.2969t4.5156 14.078v2zm17.922 3.7188v-31.203h-8.9844v8.2969q-3.0781-4.9688-7.6719-7.3438t-11.234-2.375q-8.3906 0-13.359 4.7188-4.9531 4.7188-4.9531 12.625 0 9.2188 6.1719 13.906 6.1875 4.6875 18.438 4.6875h12.609v0.89062q0 6.2031-4.0781 9.5938t-11.453 3.3906q-4.6875 0-9.1406-1.125-4.4375-1.125-8.5312-3.375v8.3125q4.9219 1.9062 9.5625 2.8438 4.6406 0.95312 9.0312 0.95312 11.875 0 17.734-6.1562 5.8594-6.1406 5.8594-18.641zm-18.609 44.578h9.9062v-9.8594h-9.9062zm-19.094 0h9.9062v-9.8594h-9.9062z"/>
<path id="ap" d="m5.5156 54.688h42.672v-8.2031l-33.781-39.312h33.781v-7.1719h-43.891v8.2031l33.797 39.312h-32.578z"/>
</defs>
<g transform="translate(722.9 867.69) scale(.1 -.1)">
<use xlink:href="#ak"/>
<use x="63.476562" xlink:href="#w"/>
<use x="118.457031" xlink:href="#v"/>
<use x="181.835938" xlink:href="#ay"/>
<use x="243.115234" xlink:href="#r"/>
<use x="282.324219" xlink:href="#ap"/>
<use x="334.814453" xlink:href="#c"/>
</g>
</g>
<g clip-path="url(#a)">
<g transform="translate(781.86 867.69) scale(.1 -.1)">
<use xlink:href="#ac"/>
<use x="63.476562" xlink:href="#c"/>
<use x="125" xlink:href="#h"/>
</g>
</g>
<g clip-path="url(#a)">
<g transform="translate(823.62 867.69) scale(.1 -.1)">
<use xlink:href="#af"/>
<use x="74.804688" xlink:href="#j"/>
<use x="136.083984" xlink:href="#r"/>
<use x="175.292969" xlink:href="#x"/>
<use x="238.671875" xlink:href="#h"/>
</g>
</g>
<g clip-path="url(#a)">
<g transform="translate(875.54 867.69) scale(.1 -.1)">
<use xlink:href="#x"/>
<use x="63.378906" xlink:href="#f"/>
<use x="126.757812" xlink:href="#ac"/>
</g>
</g>
<g clip-path="url(#a)">
<defs>
<path id="at" d="m9.8125 72.906h9.8594v-30.812l32.719 30.812h12.703l-36.188-33.984 38.766-38.922h-12.984l-35.016 35.109v-35.109h-9.8594z"/>
</defs>
<g transform="translate(918.32 867.69) scale(.1 -.1)">
<use xlink:href="#at"/>
<use x="65.498047" xlink:href="#x"/>
<use x="128.876953" xlink:href="#f"/>
<use x="192.255859" xlink:href="#s"/>
<use x="244.355469" xlink:href="#r"/>
</g>
</g>
<g clip-path="url(#a)">
<defs>
<path id="az" d="m2.9844 54.688h9.5156l17.094-45.891 17.094 45.891h9.5156l-20.516-54.688h-12.203z"/>
</defs>
<g transform="translate(957.7 867.69) scale(.1 -.1)">
<use xlink:href="#az"/>
<use x="59.179688" xlink:href="#c"/>
<use x="120.703125" xlink:href="#h"/>
<use x="161.785156" xlink:href="#c"/>
<use x="223.308594" xlink:href="#e"/>
<use x="251.091797" xlink:href="#f"/>
<use x="314.470703" xlink:href="#e"/>
<use x="342.253906" xlink:href="#aj"/>
<use x="405.730469" xlink:href="#r"/>
</g>
</g>
<g clip-path="url(#a)">
<g transform="translate(1014.2 867.69) scale(.1 -.1)">
<use xlink:href="#v"/>
<use x="63.378906" xlink:href="#j"/>
<use x="124.658203" xlink:href="#r"/>
<use x="163.867188" xlink:href="#r"/>
<use x="203.076172" xlink:href="#c"/>
</g>
</g>
<g clip-path="url(#a)">
<g transform="translate(1073.3 867.69) scale(.1 -.1)">
<use xlink:href="#al"/>
</g>
</g>
<g clip-path="url(#a)">
<g transform="translate(1109.8 867.69) scale(.1 -.1)">
<use xlink:href="#s"/>
<use x="52.099609" xlink:href="#j"/>
<use x="113.378906" xlink:href="#k"/>
<use x="210.791016" xlink:href="#r"/>
</g>
</g>
<g clip-path="url(#a)">
<g transform="translate(1152.9 867.69) scale(.1 -.1)">
<use xlink:href="#j"/>
<use x="61.279297" xlink:href="#i"/>
<use x="89.0625" xlink:href="#i"/>
<use x="116.845703" xlink:href="#c"/>
<use x="178.369141" xlink:href="#h"/>
<use x="219.482422" xlink:href="#i"/>
<use x="247.265625" xlink:href="#c"/>
<use x="308.789062" xlink:href="#e"/>
</g>
</g>
<g clip-path="url(#a)">
<defs>
<path id="ax" d="m8.5 21.578v33.109h8.9844v-32.766q0-7.7656 3.0156-11.656 3.0312-3.875 9.0938-3.875 7.2656 0 11.484 4.6406 4.2344 4.6406 4.2344 12.656v31h8.9844v-54.688h-8.9844v8.4062q-3.2656-4.9844-7.5938-7.4062-4.3125-2.4219-10.031-2.4219-9.4219 0-14.312 5.8594-4.875 5.8594-4.875 17.141zm22.609 34.422m4.4844 19.781h9.9062v-9.8594h-9.9062zm-19.094 0h9.9062v-9.8594h-9.9062z"/>
</defs>
<g transform="translate(1179 867.69) scale(.1 -.1)">
<use xlink:href="#ai"/>
<use x="57.863281" xlink:href="#ax"/>
<use x="121.242188" xlink:href="#f"/>
<use x="184.621094" xlink:href="#s"/>
<use x="236.720703" xlink:href="#r"/>
<use x="275.929688" xlink:href="#i"/>
<use x="303.712891" xlink:href="#c"/>
<use x="365.236328" xlink:href="#h"/>
<use x="406.349609" xlink:href="#e"/>
<use x="434.132812" xlink:href="#s"/>
<use x="486.232422" xlink:href="#w"/>
<use x="541.212891" xlink:href="#v"/>
<use x="604.591797" xlink:href="#c"/>
<use x="666.115234" xlink:href="#k"/>
</g>
</g>
<g clip-path="url(#a)">
<defs>
<path id="aw" d="m19.672 34.812v-26.703h15.828q7.9531 0 11.781 3.2969 3.8438 3.2969 3.8438 10.078 0 6.8438-3.8438 10.078-3.8281 3.25-11.781 3.25zm0 29.984v-21.969h14.609q7.2188 0 10.75 2.7031 3.5469 2.7188 3.5469 8.2812 0 5.5156-3.5469 8.25-3.5312 2.7344-10.75 2.7344zm-9.8594 8.1094h25.203q11.281 0 17.375-4.6875 6.1094-4.6875 6.1094-13.328 0-6.7031-3.125-10.656t-9.1875-4.9219q7.2812-1.5625 11.312-6.5312 4.0312-4.9531 4.0312-12.375 0-9.7656-6.6406-15.094-6.6406-5.3125-18.906-5.3125h-26.172z"/>
</defs>
<g transform="translate(1244.6 867.69) scale(.1 -.1)">
<use xlink:href="#aw"/>
<use x="68.603516" xlink:href="#c"/>
<use x="130.126953" xlink:href="#e"/>
<use x="157.910156" xlink:href="#ab"/>
<use x="239.697266" xlink:href="#c"/>
<use x="301.220703" xlink:href="#h"/>
<use x="342.333984" xlink:href="#ai"/>
</g>
</g>
<g clip-path="url(#a)">
<g transform="translate(1310.5 867.69) scale(.1 -.1)">
<use xlink:href="#al"/>
</g>
</g>
<g clip-path="url(#a)">
<g transform="translate(1339.4 867.69) scale(.1 -.1)">
<use xlink:href="#ab"/>
<use x="81.787109" xlink:href="#c"/>
<use x="143.310547" xlink:href="#i"/>
<use x="171.09375" xlink:href="#w"/>
<use x="226.074219" xlink:href="#v"/>
<use x="289.453125" xlink:href="#c"/>
<use x="350.976562" xlink:href="#s"/>
</g>
</g>
<g clip-path="url(#a)">
<g transform="translate(1398.1 867.69) scale(.1 -.1)">
<use xlink:href="#ac"/>
<use x="63.476562" xlink:href="#j"/>
<use x="124.755859" xlink:href="#s"/>
</g>
</g>
<g clip-path="url(#a)">
<g transform="translate(1438 867.69) scale(.1 -.1)">
<use xlink:href="#t"/>
<use x="68.392578" xlink:href="#r"/>
<use x="107.601562" xlink:href="#c"/>
<use x="169.125" xlink:href="#i"/>
<use x="196.908203" xlink:href="#e"/>
<use x="224.691406" xlink:href="#c"/>
<use x="286.214844" xlink:href="#h"/>
</g>
</g>
<g clip-path="url(#a)">
<g transform="translate(1488.5 867.69) scale(.1 -.1)">
<use xlink:href="#c"/>
<use x="61.523438" xlink:href="#e"/>
<use x="89.306641" xlink:href="#f"/>
<use x="152.685547" xlink:href="#c"/>
<use x="214.208984" xlink:href="#s"/>
</g>
</g>
<g clip-path="url(#a)">
<g transform="translate(1532.8 867.69) scale(.1 -.1)">
<use xlink:href="#am"/>
<use x="86.279297" xlink:href="#j"/>
<use x="147.558594" xlink:href="#i"/>
<use x="175.341797" xlink:href="#c"/>
<use x="236.865234" xlink:href="#h"/>
<use x="277.978516" xlink:href="#s"/>
</g>
</g>
<g clip-path="url(#a)">
<g transform="translate(1563.2 867.69) scale(.1 -.1)">
<use xlink:href="#ai"/>
<use x="57.863281" xlink:href="#c"/>
<use x="119.386719" xlink:href="#f"/>
<use x="182.765625" xlink:href="#f"/>
<use x="246.144531" xlink:href="#ap"/>
<use x="298.634766" xlink:href="#c"/>
<use x="360.158203" xlink:href="#e"/>
<use x="387.941406" xlink:href="#w"/>
<use x="442.921875" xlink:href="#v"/>
<use x="506.300781" xlink:href="#f"/>
<use x="569.679688" xlink:href="#c"/>
<use x="631.203125" xlink:href="#r"/>
</g>
</g>
<g clip-path="url(#a)">
<defs>
<path id="g" d="m10.688 12.406h10.312v-12.406h-10.312z"/>
</defs>
<g transform="translate(1642.6 867.69) scale(.1 -.1)">
<use xlink:href="#g"/>
</g>
</g>
<g clip-path="url(#a)">
<defs>
<path id="d" d="m12.406 8.2969h16.109v55.625l-17.531-3.5156v8.9844l17.438 3.5156h9.8594v-64.609h16.109v-8.2969h-41.984z"/>
</defs>
<g transform="translate(150.09 44.493) scale(.1 -.1)">
<use xlink:href="#d"/>
<use x="63.623047" xlink:href="#g"/>
<use x="95.410156" xlink:href="#d"/>
</g>
</g>
<g clip-path="url(#a)">
<defs>
<path id="o" d="m19.188 8.2969h34.422v-8.2969h-46.281v8.2969q5.6094 5.8125 15.297 15.594 9.7031 9.7969 12.188 12.641 4.7344 5.3125 6.6094 9 1.8906 3.6875 1.8906 7.25 0 5.8125-4.0781 9.4688-4.0781 3.6719-10.625 3.6719-4.6406 0-9.7969-1.6094-5.1406-1.6094-11-4.8906v9.9688q5.9531 2.3906 11.125 3.6094 5.1875 1.2188 9.4844 1.2188 11.328 0 18.062-5.6719 6.7344-5.6562 6.7344-15.125 0-4.5-1.6875-8.5312-1.6719-4.0156-6.125-9.4844-1.2188-1.4219-7.7656-8.1875-6.5312-6.7656-18.453-18.922z"/>
</defs>
<g transform="translate(70.523 791.83) scale(.1 -.1)">
<use xlink:href="#d"/>
<use x="63.623047" xlink:href="#g"/>
<use x="95.410156" xlink:href="#o"/>
</g>
</g>
<g clip-path="url(#a)">
<defs>
<path id="m" d="m40.578 39.312q7.0781-1.5156 11.047-6.3125 3.9844-4.7812 3.9844-11.812 0-10.781-7.4219-16.703-7.4219-5.9062-21.094-5.9062-4.5781 0-9.4375 0.90625t-10.031 2.7188v9.5156q4.0938-2.3906 8.9688-3.6094 4.8906-1.2188 10.219-1.2188 9.2656 0 14.125 3.6562t4.8594 10.641q0 6.4531-4.5156 10.078-4.5156 3.6406-12.562 3.6406h-8.5v8.1094h8.8906q7.2656 0 11.125 2.9062t3.8594 8.375q0 5.6094-3.9844 8.6094-3.9688 3.0156-11.391 3.0156-4.0625 0-8.7031-0.89062-4.6406-0.875-10.203-2.7188v8.7812q5.625 1.5625 10.531 2.3438t9.25 0.78125q11.234 0 17.766-5.1094 6.5469-5.0938 6.5469-13.781 0-6.0625-3.4688-10.234t-9.8594-5.7812z"/>
</defs>
<g transform="translate(229.66 137.09) scale(.1 -.1)">
<use xlink:href="#d"/>
<use x="63.623047" xlink:href="#g"/>
<use x="95.410156" xlink:href="#m"/>
</g>
</g>
<g clip-path="url(#a)">
<defs>
<path id="u" d="m10.797 72.906h38.719v-8.3125h-29.688v-17.859q2.1406 0.73438 4.2812 1.0938 2.1562 0.35938 4.3125 0.35938 12.203 0 19.328-6.6875 7.1406-6.6875 7.1406-18.109 0-11.766-7.3281-18.297-7.3281-6.5156-20.656-6.5156-4.5938 0-9.3594 0.78125-4.75 0.78125-9.8281 2.3438v9.9219q4.3906-2.3906 9.0781-3.5625t9.9062-1.1719q8.4531 0 13.375 4.4375 4.9375 4.4375 4.9375 12.062 0 7.6094-4.9375 12.047-4.9219 4.4531-13.375 4.4531-3.9531 0-7.8906-0.875-3.9219-0.875-8.0156-2.7344z"/>
</defs>
<g transform="translate(117.97 791.83) scale(.1 -.1)">
<use xlink:href="#d"/>
<use x="63.623047" xlink:href="#g"/>
<use x="95.410156" xlink:href="#u"/>
</g>
</g>
<g clip-path="url(#a)">
<defs>
<path id="ah" d="m33.016 40.375q-6.6406 0-10.531-4.5469-3.875-4.5312-3.875-12.438 0-7.8594 3.875-12.438 3.8906-4.5625 10.531-4.5625t10.516 4.5625q3.875 4.5781 3.875 12.438 0 7.9062-3.875 12.438-3.875 4.5469-10.516 4.5469zm19.578 30.922v-8.9844q-3.7188 1.75-7.5 2.6719-3.7812 0.9375-7.5 0.9375-9.7656 0-14.922-6.5938-5.1406-6.5938-5.875-19.922 2.875 4.25 7.2188 6.5156 4.3594 2.2656 9.5781 2.2656 10.984 0 17.359-6.6719 6.375-6.6562 6.375-18.125 0-11.234-6.6406-18.031-6.6406-6.7812-17.672-6.7812-12.656 0-19.344 9.6875-6.6875 9.7031-6.6875 28.109 0 17.281 8.2031 27.562t22.016 10.281q3.7188 0 7.5-0.73438t7.8906-2.1875z"/>
</defs>
<g transform="translate(165.42 791.83) scale(.1 -.1)">
<use xlink:href="#d"/>
<use x="63.623047" xlink:href="#g"/>
<use x="95.410156" xlink:href="#ah"/>
</g>
</g>
<g clip-path="url(#a)">
<defs>
<path id="z" d="m8.2031 72.906h46.875v-4.2031l-26.469-68.703h-10.297l24.906 64.594h-35.016z"/>
</defs>
<g transform="translate(212.86 791.83) scale(.1 -.1)">
<use xlink:href="#d"/>
<use x="63.623047" xlink:href="#g"/>
<use x="95.410156" xlink:href="#z"/>
</g>
</g>
<g clip-path="url(#a)">
<defs>
<path id="ag" d="m31.781 34.625q-7.0312 0-11.062-3.7656-4.0156-3.7656-4.0156-10.344 0-6.5938 4.0156-10.359 4.0312-3.7656 11.062-3.7656t11.078 3.7812q4.0625 3.7969 4.0625 10.344 0 6.5781-4.0312 10.344-4.0156 3.7656-11.109 3.7656zm-9.8594 4.1875q-6.3438 1.5625-9.8906 5.9062-3.5312 4.3594-3.5312 10.609 0 8.7344 6.2188 13.812 6.2344 5.0781 17.062 5.0781 10.891 0 17.094-5.0781t6.2031-13.812q0-6.25-3.5469-10.609-3.5312-4.3438-9.8281-5.9062 7.125-1.6562 11.094-6.5 3.9844-4.8281 3.9844-11.797 0-10.609-6.4688-16.281-6.4688-5.6562-18.531-5.6562-12.047 0-18.531 5.6562-6.4688 5.6719-6.4688 16.281 0 6.9688 4 11.797 4.0156 4.8438 11.141 6.5zm-3.6094 15.578q0-5.6562 3.5312-8.8281 3.5469-3.1719 9.9375-3.1719 6.3594 0 9.9375 3.1719 3.5938 3.1719 3.5938 8.8281 0 5.6719-3.5938 8.8438-3.5781 3.1719-9.9375 3.1719-6.3906 0-9.9375-3.1719-3.5312-3.1719-3.5312-8.8438z"/>
</defs>
<g transform="translate(422.38 226.77) scale(.1 -.1)">
<use xlink:href="#d"/>
<use x="63.623047" xlink:href="#g"/>
<use x="95.410156" xlink:href="#ag"/>
</g>
</g>
<g clip-path="url(#a)">
<defs>
<path id="y" d="m10.984 1.5156v8.9844q3.7188-1.7656 7.5156-2.6875 3.8125-0.92188 7.4844-0.92188 9.7656 0 14.906 6.5625 5.1562 6.5625 5.8906 19.953-2.8281-4.2031-7.1875-6.4531-4.3438-2.25-9.6094-2.25-10.938 0-17.312 6.6094-6.375 6.625-6.375 18.109 0 11.219 6.6406 18 6.6406 6.7969 17.672 6.7969 12.656 0 19.312-9.7031 6.6719-9.6875 6.6719-28.141 0-17.234-8.1875-27.516-8.1719-10.281-21.984-10.281-3.7188 0-7.5312 0.73438-3.7969 0.73438-7.9062 2.2031zm19.625 30.906q6.6406 0 10.516 4.5312 3.8906 4.5469 3.8906 12.469 0 7.8594-3.8906 12.422-3.875 4.5625-10.516 4.5625t-10.516-4.5625-3.875-12.422q0-7.9219 3.875-12.469 3.875-4.5312 10.516-4.5312z"/>
</defs>
<g transform="translate(260.31 791.83) scale(.1 -.1)">
<use xlink:href="#d"/>
<use x="63.623047" xlink:href="#g"/>
<use x="95.410156" xlink:href="#y"/>
</g>
</g>
<g clip-path="url(#a)">
<defs>
<path id="aa" d="m31.781 66.406q-7.6094 0-11.453-7.5-3.8281-7.4844-3.8281-22.531 0-14.984 3.8281-22.484 3.8438-7.5 11.453-7.5 7.6719 0 11.5 7.5 3.8438 7.5 3.8438 22.484 0 15.047-3.8438 22.531-3.8281 7.5-11.5 7.5zm0 7.8125q12.266 0 18.734-9.7031 6.4688-9.6875 6.4688-28.141 0-18.406-6.4688-28.109-6.4688-9.6875-18.734-9.6875-12.25 0-18.719 9.6875-6.4688 9.7031-6.4688 28.109 0 18.453 6.4688 28.141 6.4688 9.7031 18.719 9.7031z"/>
</defs>
<g transform="translate(304.57 791.83) scale(.1 -.1)">
<use xlink:href="#d"/>
<use x="63.623047" xlink:href="#g"/>
<use x="95.410156" xlink:href="#d"/>
<use x="159.033203" xlink:href="#aa"/>
</g>
</g>
<g clip-path="url(#a)">
<g transform="translate(763.1 313.76) scale(.1 -.1)">
<use xlink:href="#d"/>
<use x="63.623047" xlink:href="#g"/>
<use x="95.410156" xlink:href="#d"/>
<use x="159.033203" xlink:href="#d"/>
</g>
</g>
<g clip-path="url(#a)">
<g transform="translate(399.46 791.83) scale(.1 -.1)">
<use xlink:href="#d"/>
<use x="63.623047" xlink:href="#g"/>
<use x="95.410156" xlink:href="#d"/>
<use x="159.033203" xlink:href="#m"/>
</g>
</g>
<g clip-path="url(#a)">
<defs>
<path id="n" d="m37.797 64.312-24.906-38.922h24.906zm-2.5938 8.5938h12.406v-47.516h10.406v-8.2031h-10.406v-17.188h-9.8125v17.188h-32.906v9.5156z"/>
</defs>
<g transform="translate(541.8 639.06) scale(.1 -.1)">
<use xlink:href="#d"/>
<use x="63.623047" xlink:href="#g"/>
<use x="95.410156" xlink:href="#d"/>
<use x="159.033203" xlink:href="#n"/>
</g>
</g>
<g clip-path="url(#a)">
<g transform="translate(1047 398.25) scale(.1 -.1)">
<use xlink:href="#d"/>
<use x="63.623047" xlink:href="#g"/>
<use x="95.410156" xlink:href="#d"/>
<use x="159.033203" xlink:href="#u"/>
</g>
</g>
<g clip-path="url(#a)">
<g transform="translate(968.82 791.83) scale(.1 -.1)">
<use xlink:href="#d"/>
<use x="63.623047" xlink:href="#g"/>
<use x="95.410156" xlink:href="#d"/>
<use x="159.033203" xlink:href="#ah"/>
</g>
</g>
<g clip-path="url(#a)">
<g transform="translate(1016.3 791.83) scale(.1 -.1)">
<use xlink:href="#d"/>
<use x="63.623047" xlink:href="#g"/>
<use x="95.410156" xlink:href="#d"/>
<use x="159.033203" xlink:href="#z"/>
</g>
</g>
<g clip-path="url(#a)">
<g transform="translate(755.31 639.06) scale(.1 -.1)">
<use xlink:href="#d"/>
<use x="63.623047" xlink:href="#g"/>
<use x="95.410156" xlink:href="#d"/>
<use x="159.033203" xlink:href="#y"/>
</g>
</g>
<g clip-path="url(#a)">
<g transform="translate(1111.2 791.83) scale(.1 -.1)">
<use xlink:href="#d"/>
<use x="63.623047" xlink:href="#g"/>
<use x="95.410156" xlink:href="#o"/>
<use x="159.033203" xlink:href="#aa"/>
</g>
</g>
<g clip-path="url(#a)">
<g transform="translate(1274.7 480.48) scale(.1 -.1)">
<use xlink:href="#d"/>
<use x="63.623047" xlink:href="#g"/>
<use x="95.410156" xlink:href="#o"/>
<use x="159.033203" xlink:href="#d"/>
</g>
</g>
<g clip-path="url(#a)">
<g transform="translate(1158.6 791.83) scale(.1 -.1)">
<use xlink:href="#d"/>
<use x="63.623047" xlink:href="#g"/>
<use x="95.410156" xlink:href="#o"/>
<use x="159.033203" xlink:href="#o"/>
</g>
</g>
<g clip-path="url(#a)">
<g transform="translate(1206 791.83) scale(.1 -.1)">
<use xlink:href="#d"/>
<use x="63.623047" xlink:href="#g"/>
<use x="95.410156" xlink:href="#o"/>
<use x="159.033203" xlink:href="#m"/>
</g>
</g>
<g clip-path="url(#a)">
<g transform="translate(1253.5 791.83) scale(.1 -.1)">
<use xlink:href="#d"/>
<use x="63.623047" xlink:href="#g"/>
<use x="95.410156" xlink:href="#o"/>
<use x="159.033203" xlink:href="#n"/>
</g>
</g>
<g clip-path="url(#a)">
<g transform="translate(1454.3 560.66) scale(.1 -.1)">
<use xlink:href="#d"/>
<use x="63.623047" xlink:href="#g"/>
<use x="95.410156" xlink:href="#o"/>
<use x="159.033203" xlink:href="#u"/>
</g>
</g>
<g clip-path="url(#a)">
<g transform="translate(1348.4 791.83) scale(.1 -.1)">
<use xlink:href="#d"/>
<use x="63.623047" xlink:href="#g"/>
<use x="95.410156" xlink:href="#o"/>
<use x="159.033203" xlink:href="#z"/>
</g>
</g>
<g clip-path="url(#a)">
<g transform="translate(1451.2 639.06) scale(.1 -.1)">
<use xlink:href="#d"/>
<use x="63.623047" xlink:href="#g"/>
<use x="95.410156" xlink:href="#o"/>
<use x="159.033203" xlink:href="#ag"/>
</g>
</g>
<g clip-path="url(#a)">
<g transform="translate(1585.6 791.83) scale(.1 -.1)">
<use xlink:href="#d"/>
<use x="63.623047" xlink:href="#g"/>
<use x="95.410156" xlink:href="#o"/>
<use x="159.033203" xlink:href="#y"/>
</g>
</g>
<g clip-path="url(#a)">
<g transform="translate(1395.8 791.83) scale(.1 -.1)">
<use xlink:href="#d"/>
<use x="63.623047" xlink:href="#g"/>
<use x="95.410156" xlink:href="#m"/>
<use x="159.033203" xlink:href="#aa"/>
</g>
</g>
<g clip-path="url(#a)">
<g transform="translate(1443.3 791.83) scale(.1 -.1)">
<use xlink:href="#d"/>
<use x="63.623047" xlink:href="#g"/>
<use x="95.410156" xlink:href="#m"/>
<use x="159.033203" xlink:href="#d"/>
</g>
</g>
<g clip-path="url(#a)">
<g transform="translate(1514.4 715.97) scale(.1 -.1)">
<use xlink:href="#d"/>
<use x="63.623047" xlink:href="#g"/>
<use x="95.410156" xlink:href="#m"/>
<use x="159.033203" xlink:href="#o"/>
</g>
</g>
<g clip-path="url(#a)">
<g transform="translate(1490.7 791.83) scale(.1 -.1)">
<use xlink:href="#d"/>
<use x="63.623047" xlink:href="#g"/>
<use x="95.410156" xlink:href="#m"/>
<use x="159.033203" xlink:href="#m"/>
</g>
</g>
<g clip-path="url(#a)">
<g transform="translate(1538.2 791.83) scale(.1 -.1)">
<use xlink:href="#d"/>
<use x="63.623047" xlink:href="#g"/>
<use x="95.410156" xlink:href="#m"/>
<use x="159.033203" xlink:href="#n"/>
</g>
</g>
<g clip-path="url(#a)">
<g transform="translate(684.14 791.83) scale(.1 -.1)">
<use xlink:href="#d"/>
<use x="63.623047" xlink:href="#g"/>
<use x="95.410156" xlink:href="#m"/>
<use x="159.033203" xlink:href="#u"/>
</g>
</g>
<g clip-path="url(#a)">
<g transform="translate(731.59 791.83) scale(.1 -.1)">
<use xlink:href="#d"/>
<use x="63.623047" xlink:href="#g"/>
<use x="95.410156" xlink:href="#m"/>
<use x="159.033203" xlink:href="#ah"/>
</g>
</g>
<g clip-path="url(#a)">
<g transform="translate(850.2 715.97) scale(.1 -.1)">
<use xlink:href="#d"/>
<use x="63.623047" xlink:href="#g"/>
<use x="95.410156" xlink:href="#m"/>
<use x="159.033203" xlink:href="#z"/>
</g>
</g>
<g clip-path="url(#a)">
<g transform="translate(779.03 791.83) scale(.1 -.1)">
<use xlink:href="#d"/>
<use x="63.623047" xlink:href="#g"/>
<use x="95.410156" xlink:href="#m"/>
<use x="159.033203" xlink:href="#ag"/>
</g>
</g>
<g clip-path="url(#a)">
<g transform="translate(826.48 791.83) scale(.1 -.1)">
<use xlink:href="#d"/>
<use x="63.623047" xlink:href="#g"/>
<use x="95.410156" xlink:href="#m"/>
<use x="159.033203" xlink:href="#y"/>
</g>
</g>
<g clip-path="url(#a)">
<g transform="translate(873.92 791.83) scale(.1 -.1)">
<use xlink:href="#d"/>
<use x="63.623047" xlink:href="#g"/>
<use x="95.410156" xlink:href="#n"/>
<use x="159.033203" xlink:href="#aa"/>
</g>
</g>
<g clip-path="url(#a)">
<g transform="translate(921.37 791.83) scale(.1 -.1)">
<use xlink:href="#d"/>
<use x="63.623047" xlink:href="#g"/>
<use x="95.410156" xlink:href="#n"/>
<use x="159.033203" xlink:href="#d"/>
</g>
</g>
<g clip-path="url(#a)">
<g transform="translate(446.91 791.83) scale(.1 -.1)">
<use xlink:href="#d"/>
<use x="63.623047" xlink:href="#g"/>
<use x="95.410156" xlink:href="#n"/>
<use x="159.033203" xlink:href="#o"/>
</g>
</g>
<g clip-path="url(#a)">
<g transform="translate(541.8 715.97) scale(.1 -.1)">
<use xlink:href="#d"/>
<use x="63.623047" xlink:href="#g"/>
<use x="95.410156" xlink:href="#n"/>
<use x="159.033203" xlink:href="#m"/>
</g>
</g>
<g clip-path="url(#a)">
<g transform="translate(636.69 791.83) scale(.1 -.1)">
<use xlink:href="#d"/>
<use x="63.623047" xlink:href="#g"/>
<use x="95.410156" xlink:href="#n"/>
<use x="159.033203" xlink:href="#n"/>
</g>
</g>
<g clip-path="url(#a)">
<g transform="translate(494.36 791.83) scale(.1 -.1)">
<use xlink:href="#d"/>
<use x="63.623047" xlink:href="#g"/>
<use x="95.410156" xlink:href="#n"/>
<use x="159.033203" xlink:href="#u"/>
</g>
</g>
<g clip-path="url(#a)">
<g transform="translate(541.8 791.83) scale(.1 -.1)">
<use xlink:href="#d"/>
<use x="63.623047" xlink:href="#g"/>
<use x="95.410156" xlink:href="#n"/>
<use x="159.033203" xlink:href="#ah"/>
</g>
</g>
<g clip-path="url(#a)">
<g transform="translate(589.25 791.83) scale(.1 -.1)">
<use xlink:href="#d"/>
<use x="63.623047" xlink:href="#g"/>
<use x="95.410156" xlink:href="#n"/>
<use x="159.033203" xlink:href="#z"/>
</g>
</g>
<g clip-path="url(#a)">
<g transform="translate(352.02 791.83) scale(.1 -.1)">
<use xlink:href="#d"/>
<use x="63.623047" xlink:href="#g"/>
<use x="95.410156" xlink:href="#n"/>
<use x="159.033203" xlink:href="#ag"/>
</g>
</g>
<g clip-path="url(#a)">
<g transform="translate(1063.7 791.83) scale(.1 -.1)">
<use xlink:href="#d"/>
<use x="63.623047" xlink:href="#g"/>
<use x="95.410156" xlink:href="#n"/>
<use x="159.033203" xlink:href="#y"/>
</g>
</g>
<g clip-path="url(#a)">
<g transform="translate(1300.9 791.83) scale(.1 -.1)">
<use xlink:href="#d"/>
<use x="63.623047" xlink:href="#g"/>
<use x="95.410156" xlink:href="#u"/>
<use x="159.033203" xlink:href="#aa"/>
</g>
</g>
<g clip-path="url(#a)">
<g transform="translate(1633.1 791.83) scale(.1 -.1)">
<use xlink:href="#d"/>
<use x="63.623047" xlink:href="#g"/>
<use x="95.410156" xlink:href="#u"/>
<use x="159.033203" xlink:href="#d"/>
</g>
</g>
<defs>
<clipPath id="a">
<rect width="1722.7" height="906.67"/>
</clipPath>
</defs>
</svg>
