<?xml version="1.0" encoding="UTF-8"?>
<!DOCTYPE svg  PUBLIC '-//W3C//DTD SVG 1.1//EN'  'http://www.w3.org/Graphics/SVG/1.1/DTD/svg11.dtd'>
<svg width="1722.7pt" height="906.67pt" version="1.1" viewBox="0 0 1722.7 906.67" xmlns="http://www.w3.org/2000/svg" xmlns:xlink="http://www.w3.org/1999/xlink">
<defs>
<style type="text/css">*{stroke-linecap:butt;stroke-linejoin:round;}</style>
</defs>
<path d="m0 906.67h1722.7v-906.67h-1722.7z" fill="#fff"/>
<g fill="none" stroke="#000">
<path d="m158.1 41.68-79.621 755.34" clip-path="url(#a)"/>
<path d="m158.1 41.68 79.621 85.763" clip-path="url(#a)"/>
<path d="m78.475 797.02v67.967" clip-path="url(#a)"/>
<path d="m237.72 127.44-111.8 669.58" clip-path="url(#a)"/>
<path d="m237.72 127.44-64.35 669.58" clip-path="url(#a)"/>
<path d="m237.72 127.44-16.905 669.58" clip-path="url(#a)"/>
<path d="m237.72 127.44 193.05 82.962" clip-path="url(#a)"/>
<path d="m125.92 797.02v67.967" clip-path="url(#a)"/>
<path d="m173.37 797.02v67.967" clip-path="url(#a)"/>
<path d="m220.81 797.02v67.967" clip-path="url(#a)"/>
<path d="m430.77 210.41-162.51 586.62" clip-path="url(#a)"/>
<path d="m430.77 210.41-115.06 586.62" clip-path="url(#a)"/>
<path d="m430.77 210.41 345.19 80.353" clip-path="url(#a)"/>
<path d="m430.77 210.41-67.618 586.62" clip-path="url(#a)"/>
<path d="m268.26 797.02v67.967" clip-path="url(#a)"/>
<path d="m315.7 797.02v67.967" clip-path="url(#a)"/>
<path d="m775.96 290.76-460.26 506.26" clip-path="url(#a)" stroke-dasharray="3.7,1.6"/>
<path d="m775.96 290.76-365.36 506.26" clip-path="url(#a)"/>
<path d="m775.96 290.76-212.48 299.14" clip-path="url(#a)"/>
<path d="m775.96 290.76 283.8 77.933" clip-path="url(#a)"/>
<path d="m775.96 290.76 203.99 506.26" clip-path="url(#a)"/>
<path d="m775.96 290.76 251.43 506.26" clip-path="url(#a)"/>
<path d="m775.96 290.76 298.88 506.26" clip-path="url(#a)"/>
<path d="m410.6 797.02v67.967" clip-path="url(#a)"/>
<path d="m563.48 589.9-105.44 207.12" clip-path="url(#a)"/>
<path d="m563.48 589.9 21.087 70.239" clip-path="url(#a)"/>
<path d="m563.48 589.9 84.348 207.12" clip-path="url(#a)"/>
<path d="m1059.8 368.69-293.32 291.45" clip-path="url(#a)"/>
<path d="m1059.8 368.69 62.523 428.33" clip-path="url(#a)"/>
<path d="m1059.8 368.69 230.8 75.703" clip-path="url(#a)"/>
<path d="m979.95 797.02v67.967" clip-path="url(#a)"/>
<path d="m1027.4 797.02v67.967" clip-path="url(#a)"/>
<path d="m766.44 660.14-71.169 136.88" clip-path="url(#a)"/>
<path d="m766.44 660.14-23.723 136.88" clip-path="url(#a)"/>
<path d="m766.44 660.14 94.892 68.912" clip-path="url(#a)"/>
<path d="m1122.3 797.02v67.967" clip-path="url(#a)"/>
<path d="m1290.6 444.39-120.83 352.63" clip-path="url(#a)"/>
<path d="m1290.6 444.39-49.66 284.66" clip-path="url(#a)"/>
<path d="m1290.6 444.39-25.937 352.63" clip-path="url(#a)"/>
<path d="m1290.6 444.39 174.92 73.668" clip-path="url(#a)"/>
<path d="m1290.6 444.39 21.509 352.63" clip-path="url(#a)"/>
<path d="m1169.7 797.02v67.967" clip-path="url(#a)"/>
<path d="m1240.9 729.05 23.723 67.967" clip-path="url(#a)" stroke-dasharray="3.7,1.6"/>
<path d="m1240.9 729.05-23.723 67.967" clip-path="url(#a)"/>
<path d="m1264.6 797.02v67.967" clip-path="url(#a)"/>
<path d="m1465.5 518.06-200.85 278.96" clip-path="url(#a)" stroke-dasharray="3.7,1.6"/>
<path d="m1465.5 518.06-105.96 278.96" clip-path="url(#a)"/>
<path d="m1465.5 518.06-3.1631 71.84" clip-path="url(#a)"/>
<path d="m1465.5 518.06 131.27 278.96" clip-path="url(#a)"/>
<path d="m1465.5 518.06 178.71 278.96" clip-path="url(#a)"/>
<path d="m1359.5 797.02v67.967" clip-path="url(#a)"/>
<path d="m1462.3 589.9-55.354 207.12" clip-path="url(#a)"/>
<path d="m1462.3 589.9-7.9077 207.12" clip-path="url(#a)"/>
<path d="m1462.3 589.9 63.261 70.239" clip-path="url(#a)"/>
<path d="m1596.7 797.02v67.967" clip-path="url(#a)"/>
<path d="m1407 797.02v67.967" clip-path="url(#a)"/>
<path d="m1454.4 797.02v67.967" clip-path="url(#a)"/>
<path d="m1525.6 660.14-23.723 136.88" clip-path="url(#a)"/>
<path d="m1525.6 660.14 23.723 68.912" clip-path="url(#a)"/>
<path d="m1501.9 797.02v67.967" clip-path="url(#a)"/>
<path d="m1549.3 729.05v67.967" clip-path="url(#a)"/>
<path d="m1549.3 797.02v67.967" clip-path="url(#a)"/>
<path d="m1217.2 797.02v67.967" clip-path="url(#a)"/>
<path d="m695.27 797.02v67.967" clip-path="url(#a)"/>
<path d="m742.72 797.02v67.967" clip-path="url(#a)"/>
<path d="m861.33 729.05-71.169 67.967" clip-path="url(#a)"/>
<path d="m861.33 729.05-23.723 67.967" clip-path="url(#a)"/>
<path d="m861.33 729.05 23.723 67.967" clip-path="url(#a)"/>
<path d="m861.33 729.05 71.169 67.967" clip-path="url(#a)"/>
<path d="m790.16 797.02v67.967" clip-path="url(#a)"/>
<path d="m837.61 797.02v67.967" clip-path="url(#a)"/>
<path d="m885.06 797.02v67.967" clip-path="url(#a)"/>
<path d="m932.5 797.02v67.967" clip-path="url(#a)"/>
<path d="m458.04 797.02v67.967" clip-path="url(#a)"/>
<path d="m584.57 660.14-31.631 136.88" clip-path="url(#a)"/>
<path d="m584.57 660.14-7.9077 68.912" clip-path="url(#a)"/>
<path d="m584.57 660.14 39.538 68.912" clip-path="url(#a)"/>
<path d="m647.83 797.02v67.967" clip-path="url(#a)"/>
<path d="m552.93 797.02v67.967" clip-path="url(#a)"/>
<path d="m576.66 729.05 71.169 67.967" clip-path="url(#a)" stroke-dasharray="3.7,1.6"/>
<path d="m576.66 729.05-71.169 67.967" clip-path="url(#a)"/>
<path d="m624.1 729.05 23.723 67.967" clip-path="url(#a)" stroke-dasharray="3.7,1.6"/>
<path d="m624.1 729.05-23.723 67.967" clip-path="url(#a)"/>
<path d="m600.38 797.02v67.967" clip-path="url(#a)"/>
<path d="m505.49 797.02v67.967" clip-path="url(#a)"/>
<path d="m363.15 797.02v67.967" clip-path="url(#a)"/>
<path d="m1074.8 797.02v67.967" clip-path="url(#a)"/>
<path d="m1312.1 797.02v67.967" clip-path="url(#a)"/>
<path d="m1644.2 797.02v67.967" clip-path="url(#a)"/>
</g>
<path d="m124.29 422.22 0.46728-4.4329q0.25159-2.3868-2.1352-2.6384l-7.6998-0.81165q-2.3868-0.25159-2.6384 2.1352l-0.46728 4.4329q-0.25159 2.3868 2.1352 2.6384l7.6998 0.81165q2.3868 0.25159 2.6384-2.1352z" clip-path="url(#a)" fill="#fff" stroke="#fff"/>
<g clip-path="url(#a)">
<defs>
<path id="aq" d="m9.8125 72.906h9.8594v-64.609h35.5v-8.2969h-45.359z"/>
</defs>
<g transform="translate(120.25 421.8) rotate(-83.983) scale(.08 -.08)">
<use xlink:href="#aq"/>
</g>
</g>
<path d="m191.26 86.624 4.0933 4.4091q1.6329 1.7589 3.3918 0.12597l5.6742-5.2678q1.7589-1.6329 0.12597-3.3918l-4.0933-4.4091q-1.6329-1.7589-3.3918-0.12597l-5.6742 5.2678q-1.7589 1.6329-0.12597 3.3918z" clip-path="url(#a)" fill="#fff" stroke="#fff"/>
<g clip-path="url(#a)">
<defs>
<path id="ah" d="m9.8125 72.906h9.8594v-29.891h35.844v29.891h9.8594v-72.906h-9.8594v34.719h-35.844v-34.719h-9.8594z"/>
</defs>
<g transform="translate(194.24 83.859) rotate(47.127) scale(.08 -.08)">
<use xlink:href="#ah"/>
</g>
</g>
<path d="m72.204 813.36v35.285q0 2.4 2.4 2.4h7.7425q2.4 0 2.4-2.4v-35.285q0-2.4-2.4-2.4h-7.7425q-2.4 0-2.4 2.4z" clip-path="url(#a)" fill="#fff" stroke="#fff"/>
<g clip-path="url(#a)">
<defs>
<path id="l" d="m-0.29688 72.906h61.672v-8.3125h-25.875v-64.594h-9.9062v64.594h-25.891z"/>
<path id="c" d="m56.203 29.594v-4.3906h-41.312q0.59375-9.2812 5.5938-14.141t13.938-4.8594q5.1719 0 10.031 1.2656t9.6562 3.8125v-8.5q-4.8438-2.0469-9.9219-3.125t-10.297-1.0781q-13.094 0-20.734 7.6094-7.6406 7.625-7.6406 20.625 0 13.422 7.25 21.297 7.25 7.8906 19.562 7.8906 11.031 0 17.453-7.1094 6.4219-7.0938 6.4219-19.297zm-8.9844 2.6406q-0.09375 7.3594-4.125 11.75-4.0312 4.4062-10.672 4.4062-7.5156 0-12.031-4.25t-5.2031-11.969z"/>
<path id="h" d="m41.109 46.297q-1.5156 0.875-3.2969 1.2812-1.7812 0.42188-3.9219 0.42188-7.625 0-11.703-4.9531t-4.0781-14.234v-28.812h-9.0312v54.688h9.0312v-8.5q2.8438 4.9844 7.375 7.3906 4.5469 2.4219 11.047 2.4219 0.92188 0 2.0469-0.125 1.125-0.10938 2.4844-0.35938z"/>
<path id="k" d="m52 44.188q3.375 6.0625 8.0625 8.9375t11.031 2.875q8.5469 0 13.188-5.9844 4.6406-5.9688 4.6406-17v-33.016h-9.0312v32.719q0 7.8594-2.7969 11.656-2.7812 3.8125-8.4844 3.8125-6.9844 0-11.047-4.6406-4.0469-4.625-4.0469-12.641v-30.906h-9.0312v32.719q0 7.9062-2.7812 11.688t-8.5938 3.7812q-6.8906 0-10.953-4.6562-4.0469-4.6562-4.0469-12.625v-30.906h-9.0312v54.688h9.0312v-8.5q3.0781 5.0312 7.375 7.4219t10.203 2.3906q5.9688 0 10.141-3.0312 4.1719-3.0156 6.1719-8.7812z"/>
<path id="f" d="m9.4219 54.688h8.9844v-54.688h-8.9844zm0 21.297h8.9844v-11.391h-8.9844z"/>
<path id="g" d="m54.891 33.016v-33.016h-8.9844v32.719q0 7.7656-3.0312 11.609-3.0312 3.8594-9.0781 3.8594-7.2812 0-11.484-4.6406-4.2031-4.625-4.2031-12.641v-30.906h-9.0312v54.688h9.0312v-8.5q3.2344 4.9375 7.5938 7.375 4.375 2.4375 10.094 2.4375 9.4219 0 14.25-5.8281 4.8438-5.8281 4.8438-17.156z"/>
<path id="j" d="m34.281 27.484q-10.891 0-15.094-2.4844t-4.2031-8.5q0-4.7812 3.1562-7.5938 3.1562-2.7969 8.5625-2.7969 7.4844 0 12 5.2969t4.5156 14.078v2zm17.922 3.7188v-31.203h-8.9844v8.2969q-3.0781-4.9688-7.6719-7.3438t-11.234-2.375q-8.3906 0-13.359 4.7188-4.9531 4.7188-4.9531 12.625 0 9.2188 6.1719 13.906 6.1875 4.6875 18.438 4.6875h12.609v0.89062q0 6.2031-4.0781 9.5938t-11.453 3.3906q-4.6875 0-9.1406-1.125-4.4375-1.125-8.5312-3.375v8.3125q4.9219 1.9062 9.5625 2.8438 4.6406 0.95312 9.0312 0.95312 11.875 0 17.734-6.1562 5.8594-6.1406 5.8594-18.641z"/>
<path id="i" d="m9.4219 75.984h8.9844v-75.984h-8.9844z"/>
</defs>
<g transform="translate(76.267 813.36) rotate(90) scale(.08 -.08)">
<use xlink:href="#l"/>
<use x="60.818359" xlink:href="#c"/>
<use x="122.341797" xlink:href="#h"/>
<use x="163.439453" xlink:href="#k"/>
<use x="260.851562" xlink:href="#f"/>
<use x="288.634766" xlink:href="#g"/>
<use x="352.013672" xlink:href="#j"/>
<use x="413.292969" xlink:href="#i"/>
</g>
</g>
<path d="m187.63 465.53 0.75776-4.5384q0.39525-2.3672-1.972-2.7625l-7.6368-1.2751q-2.3672-0.39525-2.7625 1.972l-0.75776 4.5384q-0.39525 2.3672 1.972 2.7625l7.6368 1.2751q2.3672 0.39525 2.7625-1.972z" clip-path="url(#a)" fill="#fff" stroke="#fff"/>
<g clip-path="url(#a)">
<defs>
<path id="z" d="m9.8125 72.906h41.891v-8.3125h-32.031v-21.484h28.906v-8.2969h-28.906v-34.812h-9.8594z"/>
</defs>
<g transform="translate(183.62 464.86) rotate(-80.521) scale(.08 -.08)">
<use xlink:href="#z"/>
</g>
</g>
<path d="m211.54 465.36 0.48586-5.0555q0.2296-2.389-2.1594-2.6186l-7.707-0.74069q-2.389-0.2296-2.6186 2.1594l-0.48586 5.0555q-0.2296 2.389 2.1594 2.6186l7.707 0.74069q2.389 0.2296 2.6186-2.1594z" clip-path="url(#a)" fill="#fff" stroke="#fff"/>
<g clip-path="url(#a)">
<defs>
<path id="x" d="m53.516 70.516v-9.625q-5.6094 2.6875-10.594 4-4.9844 1.3281-9.625 1.3281-8.0469 0-12.422-3.125t-4.375-8.8906q0-4.8438 2.9062-7.3125 2.9062-2.4531 11.016-3.9688l5.9531-1.2188q11.031-2.1094 16.281-7.4062t5.25-14.172q0-10.609-7.1094-16.078-7.0938-5.4688-20.812-5.4688-5.1719 0-11.016 1.1719-5.8281 1.1719-12.078 3.4688v10.156q6-3.3594 11.766-5.0781 5.7656-1.7031 11.328-1.7031 8.4375 0 13.031 3.3125 4.5938 3.3281 4.5938 9.4844 0 5.3594-3.2969 8.3906t-10.812 4.5469l-6.0156 1.1719q-11.031 2.1875-15.969 6.875-4.9219 4.6875-4.9219 13.047 0 9.6719 6.8125 15.234t18.766 5.5625q5.1406 0 10.453-0.9375 5.3281-0.92188 10.891-2.7656z"/>
</defs>
<g transform="translate(207.5 464.97) rotate(-84.51) scale(.08 -.08)">
<use xlink:href="#x"/>
</g>
</g>
<path d="m235.46 465.49 0.15645-6.1968q0.060572-2.3992-2.3387-2.4598l-7.74-0.19541q-2.3992-0.060572-2.4598 2.3387l-0.15645 6.1968q-0.060572 2.3992 2.3387 2.4598l7.74 0.19541q2.3992 0.060572 2.4598-2.3387z" clip-path="url(#a)" fill="#fff" stroke="#fff"/>
<g clip-path="url(#a)">
<defs>
<path id="av" d="m59.516 10.406v19.578h-16.109v8.1094h25.875v-31.312q-5.7031-4.0469-12.594-6.125-6.875-2.0781-14.688-2.0781-17.094 0-26.75 9.9844-9.6406 10-9.6406 27.812 0 17.875 9.6406 27.859 9.6562 9.9844 26.75 9.9844 7.125 0 13.547-1.7656 6.4219-1.75 11.844-5.1719v-10.5q-5.4688 4.6406-11.625 6.9844t-12.938 2.3438q-13.391 0-20.109-7.4688-6.7031-7.4688-6.7031-22.266 0-14.75 6.7031-22.219 6.7188-7.4688 20.109-7.4688 5.2188 0 9.3125 0.90625 4.1094 0.90625 7.375 2.8125z"/>
</defs>
<g transform="translate(231.39 465.39) rotate(-88.554) scale(.08 -.08)">
<use xlink:href="#av"/>
</g>
</g>
<path d="m329.25 173.61 5.0279 2.1607q2.205 0.94758 3.1526-1.2574l3.0569-7.1135q0.94758-2.205-1.2574-3.1526l-5.0279-2.1607q-2.205-0.94758-3.1526 1.2574l-3.0569 7.1135q-0.94758 2.205 1.2574 3.1526z" clip-path="url(#a)" fill="#fff" stroke="#fff"/>
<g clip-path="url(#a)">
<defs>
<path id="q" d="m34.188 63.188-13.391-36.281h26.812zm-5.5781 9.7188h11.188l27.781-72.906h-10.25l-6.6406 18.703h-32.859l-6.6406-18.703h-10.406z"/>
</defs>
<g transform="translate(330.86 169.87) rotate(23.255) scale(.08 -.08)">
<use xlink:href="#q"/>
</g>
</g>
<path d="m119.65 813.36v35.285q0 2.4 2.4 2.4h7.7425q2.4 0 2.4-2.4v-35.285q0-2.4-2.4-2.4h-7.7425q-2.4 0-2.4 2.4z" clip-path="url(#a)" fill="#fff" stroke="#fff"/>
<g clip-path="url(#a)">
<g transform="translate(123.71 813.36) rotate(90) scale(.08 -.08)">
<use xlink:href="#l"/>
<use x="60.818359" xlink:href="#c"/>
<use x="122.341797" xlink:href="#h"/>
<use x="163.439453" xlink:href="#k"/>
<use x="260.851562" xlink:href="#f"/>
<use x="288.634766" xlink:href="#g"/>
<use x="352.013672" xlink:href="#j"/>
<use x="413.292969" xlink:href="#i"/>
</g>
</g>
<path d="m167.1 813.36v35.285q0 2.4 2.4 2.4h7.7425q2.4 0 2.4-2.4v-35.285q0-2.4-2.4-2.4h-7.7425q-2.4 0-2.4 2.4z" clip-path="url(#a)" fill="#fff" stroke="#fff"/>
<g clip-path="url(#a)">
<g transform="translate(171.16 813.36) rotate(90) scale(.08 -.08)">
<use xlink:href="#l"/>
<use x="60.818359" xlink:href="#c"/>
<use x="122.341797" xlink:href="#h"/>
<use x="163.439453" xlink:href="#k"/>
<use x="260.851562" xlink:href="#f"/>
<use x="288.634766" xlink:href="#g"/>
<use x="352.013672" xlink:href="#j"/>
<use x="413.292969" xlink:href="#i"/>
</g>
</g>
<path d="m214.54 813.36v35.285q0 2.4 2.4 2.4h7.7425q2.4 0 2.4-2.4v-35.285q0-2.4-2.4-2.4h-7.7425q-2.4 0-2.4 2.4z" clip-path="url(#a)" fill="#fff" stroke="#fff"/>
<g clip-path="url(#a)">
<g transform="translate(218.61 813.36) rotate(90) scale(.08 -.08)">
<use xlink:href="#l"/>
<use x="60.818359" xlink:href="#c"/>
<use x="122.341797" xlink:href="#h"/>
<use x="163.439453" xlink:href="#k"/>
<use x="260.851562" xlink:href="#f"/>
<use x="288.634766" xlink:href="#g"/>
<use x="352.013672" xlink:href="#j"/>
<use x="413.292969" xlink:href="#i"/>
</g>
</g>
<path d="m354.94 507.6 1.2284-4.4342q0.64074-2.3129-1.6721-2.9536l-7.4615-2.0671q-2.3129-0.64074-2.9536 1.6721l-1.2284 4.4342q-0.64074 2.3129 1.6721 2.9536l7.4615 2.0671q2.3129 0.64074 2.9536-1.6721z" clip-path="url(#a)" fill="#fff" stroke="#fff"/>
<g clip-path="url(#a)">
<g transform="translate(351.03 506.52) rotate(-74.516) scale(.08 -.08)">
<use xlink:href="#z"/>
</g>
</g>
<path d="m378.85 507.66 1.0752-5.4818q0.46196-2.3551-1.8932-2.8171l-7.5977-1.4903q-2.3551-0.46196-2.8171 1.8932l-1.0752 5.4818q-0.46196 2.3551 1.8932 2.8171l7.5977 1.4903q2.3551 0.46196 2.8171-1.8932z" clip-path="url(#a)" fill="#fff" stroke="#fff"/>
<g clip-path="url(#a)">
<defs>
<path id="t" d="m64.406 67.281v-10.391q-4.9844 4.6406-10.625 6.9219-5.6406 2.2969-11.984 2.2969-12.5 0-19.141-7.6406t-6.6406-22.094q0-14.406 6.6406-22.047t19.141-7.6406q6.3438 0 11.984 2.2969t10.625 6.9375v-10.312q-5.1719-3.5156-10.969-5.2812-5.7812-1.75-12.219-1.75-16.562 0-26.094 10.125-9.5156 10.141-9.5156 27.672 0 17.578 9.5156 27.703 9.5312 10.141 26.094 10.141 6.5312 0 12.312-1.7344 5.7969-1.7344 10.875-5.2031z"/>
</defs>
<g transform="translate(374.87 506.88) rotate(-78.902) scale(.08 -.08)">
<use xlink:href="#t"/>
</g>
</g>
<path d="m599.48 256.12 4.9234 1.146q2.3375 0.54412 2.8816-1.7934l1.7553-7.5409q0.54412-2.3375-1.7934-2.8816l-4.9234-1.146q-2.3375-0.54412-2.8816 1.7934l-1.7553 7.5409q-0.54412 2.3375 1.7934 2.8816z" clip-path="url(#a)" fill="#fff" stroke="#fff"/>
<g clip-path="url(#a)">
<defs>
<path id="u" d="m9.8125 72.906h46.094v-8.3125h-36.234v-21.578h34.719v-8.2969h-34.719v-26.422h37.109v-8.2969h-46.969z"/>
</defs>
<g transform="translate(600.4 252.16) rotate(13.104) scale(.08 -.08)">
<use xlink:href="#u"/>
</g>
</g>
<path d="m402.85 507.34 0.67046-5.8165q0.27482-2.3842-2.1094-2.659l-7.6916-0.88659q-2.3842-0.27482-2.659 2.1094l-0.67046 5.8165q-0.27482 2.3842 2.1094 2.659l7.6916 0.88659q2.3842 0.27482 2.659-2.1094z" clip-path="url(#a)" fill="#fff" stroke="#fff"/>
<g clip-path="url(#a)">
<defs>
<path id="af" d="m8.6875 72.906h9.9219v-44.297q0-11.719 4.2344-16.875 4.25-5.1406 13.781-5.1406 9.4688 0 13.719 5.1406 4.25 5.1562 4.25 16.875v44.297h9.9062v-45.516q0-14.25-7.0625-21.531-7.0469-7.2812-20.812-7.2812-13.828 0-20.891 7.2812-7.0469 7.2812-7.0469 21.531z"/>
</defs>
<g transform="translate(398.82 506.87) rotate(-83.425) scale(.08 -.08)">
<use xlink:href="#af"/>
</g>
</g>
<path d="m261.99 813.36v35.285q0 2.4 2.4 2.4h7.7425q2.4 0 2.4-2.4v-35.285q0-2.4-2.4-2.4h-7.7425q-2.4 0-2.4 2.4z" clip-path="url(#a)" fill="#fff" stroke="#fff"/>
<g clip-path="url(#a)">
<g transform="translate(266.05 813.36) rotate(90) scale(.08 -.08)">
<use xlink:href="#l"/>
<use x="60.818359" xlink:href="#c"/>
<use x="122.341797" xlink:href="#h"/>
<use x="163.439453" xlink:href="#k"/>
<use x="260.851562" xlink:href="#f"/>
<use x="288.634766" xlink:href="#g"/>
<use x="352.013672" xlink:href="#j"/>
<use x="413.292969" xlink:href="#i"/>
</g>
</g>
<path d="m309.43 813.36v35.285q0 2.4 2.4 2.4h7.7425q2.4 0 2.4-2.4v-35.285q0-2.4-2.4-2.4h-7.7425q-2.4 0-2.4 2.4z" clip-path="url(#a)" fill="#fff" stroke="#fff"/>
<g clip-path="url(#a)">
<g transform="translate(313.5 813.36) rotate(90) scale(.08 -.08)">
<use xlink:href="#l"/>
<use x="60.818359" xlink:href="#c"/>
<use x="122.341797" xlink:href="#h"/>
<use x="163.439453" xlink:href="#k"/>
<use x="260.851562" xlink:href="#f"/>
<use x="288.634766" xlink:href="#g"/>
<use x="352.013672" xlink:href="#j"/>
<use x="413.292969" xlink:href="#i"/>
</g>
</g>
<path d="m548.63 550.13 3.6813-4.0493q1.6144-1.7758-0.16138-3.3903l-5.7289-5.2083q-1.7758-1.6144-3.3903 0.16138l-3.6813 4.0493q-1.6144 1.7758 0.16138 3.3903l5.7289 5.2083q1.7758 1.6144 3.3903-0.16138z" clip-path="url(#a)" fill="#fff" stroke="#fff"/>
<g clip-path="url(#a)">
<g transform="translate(545.63 547.4) rotate(-47.725) scale(.08 -.08)">
<use xlink:href="#q"/>
</g>
</g>
<path d="m596.74 549.81 3.253-4.5075q1.4045-1.9461-0.54163-3.3506l-6.2783-4.531q-1.9461-1.4045-3.3506 0.54163l-3.253 4.5075q-1.4045 1.9461 0.54163 3.3506l6.2783 4.531q1.9461 1.4045 3.3506-0.54163z" clip-path="url(#a)" fill="#fff" stroke="#fff"/>
<g clip-path="url(#a)">
<defs>
<path id="ag" d="m44.391 34.188q3.1719-1.0781 6.1719-4.5938t6.0312-9.6719l10.016-19.922h-10.609l-9.3125 18.703q-3.625 7.3281-7.0156 9.7188t-9.25 2.3906h-10.75v-30.812h-9.8594v72.906h22.266q12.5 0 18.656-5.2344 6.1562-5.2188 6.1562-15.766 0-6.8906-3.2031-11.438-3.2031-4.5312-9.2969-6.2812zm-24.719 30.609v-25.875h12.406q7.125 0 10.766 3.2969t3.6406 9.6875-3.6406 9.6406-10.766 3.25z"/>
</defs>
<g transform="translate(593.44 547.43) rotate(-54.182) scale(.08 -.08)">
<use xlink:href="#ag"/>
</g>
</g>
<path d="m673.25 446.19 3.169-4.4615q1.3898-1.9566-0.56683-3.3464l-6.3122-4.4836q-1.9566-1.3898-3.3464 0.56683l-3.169 4.4615q-1.3898 1.9566 0.56683 3.3464l6.3122 4.4836q1.9566 1.3898 3.3464-0.56683z" clip-path="url(#a)" fill="#fff" stroke="#fff"/>
<g clip-path="url(#a)">
<g transform="translate(669.93 443.84) rotate(-54.614) scale(.08 -.08)">
<use xlink:href="#q"/>
</g>
</g>
<path d="m913.56 335.05 5.2772 1.4491q2.3143 0.63552 2.9498-1.6788l2.0502-7.4661q0.63552-2.3143-1.6788-2.9498l-5.2772-1.4491q-2.3143-0.63552-2.9498 1.6788l-2.0502 7.4661q-0.63552 2.3143 1.6788 2.9498z" clip-path="url(#a)" fill="#fff" stroke="#fff"/>
<g clip-path="url(#a)">
<g transform="translate(914.64 331.13) rotate(15.355) scale(.08 -.08)">
<use xlink:href="#q"/>
</g>
</g>
<path d="m871.24 544 1.8028 4.4742q0.89696 2.2261 3.123 1.3291l7.1815-2.8936q2.2261-0.89696 1.3291-3.123l-1.8028-4.4742q-0.89696-2.2261-3.123-1.3291l-7.1815 2.8936q-2.2261 0.89696-1.3291 3.123z" clip-path="url(#a)" fill="#fff" stroke="#fff"/>
<g clip-path="url(#a)">
<defs>
<path id="ao" d="m19.672 64.797v-27.391h12.406q6.8906 0 10.641 3.5625 3.7656 3.5625 3.7656 10.156 0 6.5469-3.7656 10.109-3.75 3.5625-10.641 3.5625zm-9.8594 8.1094h22.266q12.266 0 18.531-5.5469 6.2812-5.5469 6.2812-16.234 0-10.797-6.2812-16.312-6.2656-5.5156-18.531-5.5156h-12.406v-29.297h-9.8594z"/>
</defs>
<g transform="translate(875.01 542.48) rotate(68.054) scale(.08 -.08)">
<use xlink:href="#ao"/>
</g>
</g>
<path d="m895.04 544.62 2.0467 4.121q1.0675 2.1495 3.217 1.082l6.9344-3.4439q2.1495-1.0675 1.082-3.217l-2.0467-4.121q-1.0675-2.1495-3.217-1.082l-6.9344 3.4439q-2.1495 1.0675-1.082 3.217z" clip-path="url(#a)" fill="#fff" stroke="#fff"/>
<g clip-path="url(#a)">
<g transform="translate(898.68 542.81) rotate(63.589) scale(.08 -.08)">
<use xlink:href="#z"/>
</g>
</g>
<path d="m918.51 544.56 2.9766 5.0419q1.2201 2.0667 3.2868 0.8466l6.6673-3.9361q2.0667-1.2201 0.8466-3.2868l-2.9766-5.0419q-1.2201-2.0667-3.2868-0.8466l-6.6673 3.9361q-2.0667 1.2201-0.8466 3.2868z" clip-path="url(#a)" fill="#fff" stroke="#fff"/>
<g clip-path="url(#a)">
<g transform="translate(922.01 542.49) rotate(59.444) scale(.08 -.08)">
<use xlink:href="#af"/>
</g>
</g>
<path d="m404.33 813.36v35.285q0 2.4 2.4 2.4h7.7425q2.4 0 2.4-2.4v-35.285q0-2.4-2.4-2.4h-7.7425q-2.4 0-2.4 2.4z" clip-path="url(#a)" fill="#fff" stroke="#fff"/>
<g clip-path="url(#a)">
<g transform="translate(408.39 813.36) rotate(90) scale(.08 -.08)">
<use xlink:href="#l"/>
<use x="60.818359" xlink:href="#c"/>
<use x="122.341797" xlink:href="#h"/>
<use x="163.439453" xlink:href="#k"/>
<use x="260.851562" xlink:href="#f"/>
<use x="288.634766" xlink:href="#g"/>
<use x="352.013672" xlink:href="#j"/>
<use x="413.292969" xlink:href="#i"/>
</g>
</g>
<path d="m515.31 698.36 2.0874-4.1005q1.0888-2.1388-1.05-3.2276l-6.8999-3.5125q-2.1388-1.0888-3.2276 1.05l-2.0874 4.1005q-1.0888 2.1388 1.05 3.2276l6.8999 3.5125q2.1388 1.0888 3.2276-1.05z" clip-path="url(#a)" fill="#fff" stroke="#fff"/>
<g clip-path="url(#a)">
<g transform="translate(511.68 696.51) rotate(-63.021) scale(.08 -.08)">
<use xlink:href="#z"/>
</g>
</g>
<path d="m567.29 624.4 1.4535 4.8415q0.6901 2.2986 2.9887 1.6086l7.4155-2.2263q2.2986-0.69009 1.6086-2.9887l-1.4535-4.8415q-0.69009-2.2986-2.9887-1.6086l-7.4155 2.2263q-2.2986 0.6901-1.6086 2.9887z" clip-path="url(#a)" fill="#fff" stroke="#fff"/>
<g clip-path="url(#a)">
<g transform="translate(571.18 623.24) rotate(73.289) scale(.08 -.08)">
<use xlink:href="#u"/>
</g>
</g>
<path d="m598.79 693.24 2.107 5.1737q0.90521 2.2227 3.128 1.3175l7.1707-2.9202q2.2227-0.90521 1.3175-3.128l-2.107-5.1737q-0.90521-2.2227-3.128-1.3175l-7.1707 2.9202q-2.2227 0.90521-1.3175 3.128z" clip-path="url(#a)" fill="#fff" stroke="#fff"/>
<g clip-path="url(#a)">
<g transform="translate(602.55 691.71) rotate(67.842) scale(.08 -.08)">
<use xlink:href="#t"/>
</g>
</g>
<path d="m915.54 520.83 3.9627-3.9374q1.7025-1.6916 0.010859-3.3941l-5.4572-5.4923q-1.6916-1.7025-3.3941-0.01086l-3.9627 3.9374q-1.7025 1.6916-0.010859 3.3941l5.4572 5.4923q1.6916 1.7025 3.3941 0.01086z" clip-path="url(#a)" fill="#fff" stroke="#fff"/>
<g clip-path="url(#a)">
<g transform="translate(912.68 517.95) rotate(-44.817) scale(.08 -.08)">
<use xlink:href="#t"/>
</g>
</g>
<path d="m1084.4 580.8 0.86447 5.9222q0.34665 2.3748 2.7215 2.0282l7.6613-1.1183q2.3748-0.34665 2.0282-2.7215l-0.86447-5.9222q-0.34665-2.3748-2.7215-2.0282l-7.6613 1.1183q-2.3748 0.34665-2.0282 2.7215z" clip-path="url(#a)" fill="#fff" stroke="#fff"/>
<g clip-path="url(#a)">
<defs>
<path id="am" d="m9.8125 72.906h13.281l32.328-60.984v60.984h9.5625v-72.906h-13.281l-32.312 60.984v-60.984h-9.5781z"/>
</defs>
<g transform="translate(1088.4 580.21) rotate(81.695) scale(.08 -.08)">
<use xlink:href="#am"/>
</g>
</g>
<path d="m1170.6 411.63 5.308 1.7411q2.2805 0.748 3.0285-1.5325l2.4131-7.3569q0.748-2.2805-1.5325-3.0285l-5.308-1.7411q-2.2805-0.748-3.0285 1.5325l-2.4131 7.3569q-0.748 2.2805 1.5325 3.0285z" clip-path="url(#a)" fill="#fff" stroke="#fff"/>
<g clip-path="url(#a)">
<g transform="translate(1171.8 407.77) rotate(18.16) scale(.08 -.08)">
<use xlink:href="#t"/>
</g>
</g>
<path d="m973.68 813.36v35.285q0 2.4 2.4 2.4h7.7425q2.4 0 2.4-2.4v-35.285q0-2.4-2.4-2.4h-7.7425q-2.4 0-2.4 2.4z" clip-path="url(#a)" fill="#fff" stroke="#fff"/>
<g clip-path="url(#a)">
<g transform="translate(977.74 813.36) rotate(90) scale(.08 -.08)">
<use xlink:href="#l"/>
<use x="60.818359" xlink:href="#c"/>
<use x="122.341797" xlink:href="#h"/>
<use x="163.439453" xlink:href="#k"/>
<use x="260.851562" xlink:href="#f"/>
<use x="288.634766" xlink:href="#g"/>
<use x="352.013672" xlink:href="#j"/>
<use x="413.292969" xlink:href="#i"/>
</g>
</g>
<path d="m1021.1 813.36v35.285q0 2.4 2.4 2.4h7.7425q2.4 0 2.4-2.4v-35.285q0-2.4-2.4-2.4h-7.7425q-2.4 0-2.4 2.4z" clip-path="url(#a)" fill="#fff" stroke="#fff"/>
<g clip-path="url(#a)">
<g transform="translate(1025.2 813.36) rotate(90) scale(.08 -.08)">
<use xlink:href="#l"/>
<use x="60.818359" xlink:href="#c"/>
<use x="122.341797" xlink:href="#h"/>
<use x="163.439453" xlink:href="#k"/>
<use x="260.851562" xlink:href="#f"/>
<use x="288.634766" xlink:href="#g"/>
<use x="352.013672" xlink:href="#j"/>
<use x="413.292969" xlink:href="#i"/>
</g>
</g>
<path d="m734.97 734.27 2.9051-5.5874q1.1071-2.1294-1.0222-3.2365l-6.8694-3.5717q-2.1294-1.1071-3.2365 1.0222l-2.9051 5.5874q-1.1071 2.1294 1.0222 3.2365l6.8694 3.5717q2.1294 1.1071 3.2365-1.0222z" clip-path="url(#a)" fill="#fff" stroke="#fff"/>
<g clip-path="url(#a)">
<defs>
<path id="at" d="m39.406 66.219q-10.75 0-17.078-8.0156-6.3125-8-6.3125-21.828 0-13.766 6.3125-21.781 6.3281-8 17.078-8 10.734 0 17.016 8 6.2812 8.0156 6.2812 21.781 0 13.828-6.2812 21.828-6.2812 8.0156-17.016 8.0156zm13.812-64.906 13-14.203h-11.922l-10.797 11.672q-1.6094-0.09375-2.4688-0.14062-0.84375-0.0625-1.625-0.0625-15.375 0-24.594 10.281-9.2031 10.281-9.2031 27.516 0 17.281 9.2031 27.562 9.2188 10.281 24.594 10.281 15.328 0 24.5-10.281 9.1875-10.281 9.1875-27.562 0-12.688-5.1094-21.734-5.0938-9.0312-14.766-13.328z"/>
</defs>
<g transform="translate(731.36 732.39) rotate(-62.528) scale(.08 -.08)">
<use xlink:href="#at"/>
</g>
</g>
<path d="m760.28 732.4 0.95395-5.5042q0.40984-2.3647-1.9549-2.7746l-7.6288-1.3222q-2.3647-0.40984-2.7746 1.9549l-0.95395 5.5042q-0.40984 2.3647 1.9549 2.7746l7.6288 1.3222q2.3647 0.40984 2.7746-1.9549z" clip-path="url(#a)" fill="#fff" stroke="#fff"/>
<g clip-path="url(#a)">
<g transform="translate(756.28 731.71) rotate(-80.168) scale(.08 -.08)">
<use xlink:href="#t"/>
</g>
</g>
<path d="m808.16 698.19 4.0902 2.9704q1.9419 1.4103 3.3522-0.53167l4.5496-6.2648q1.4103-1.9419-0.53166-3.3522l-4.0902-2.9704q-1.9419-1.4103-3.3522 0.53167l-4.5496 6.2648q-1.4103 1.9419 0.53167 3.3522z" clip-path="url(#a)" fill="#fff" stroke="#fff"/>
<g clip-path="url(#a)">
<g transform="translate(810.55 694.9) rotate(35.988) scale(.08 -.08)">
<use xlink:href="#u"/>
</g>
</g>
<path d="m1116 813.36v35.285q0 2.4 2.4 2.4h7.7425q2.4 0 2.4-2.4v-35.285q0-2.4-2.4-2.4h-7.7425q-2.4 0-2.4 2.4z" clip-path="url(#a)" fill="#fff" stroke="#fff"/>
<g clip-path="url(#a)">
<g transform="translate(1120.1 813.36) rotate(90) scale(.08 -.08)">
<use xlink:href="#l"/>
<use x="60.818359" xlink:href="#c"/>
<use x="122.341797" xlink:href="#h"/>
<use x="163.439453" xlink:href="#k"/>
<use x="260.851562" xlink:href="#f"/>
<use x="288.634766" xlink:href="#g"/>
<use x="352.013672" xlink:href="#j"/>
<use x="413.292969" xlink:href="#i"/>
</g>
</g>
<path d="m1235.3 625.13 1.6386-4.7821q0.77797-2.2704-1.4924-3.0484l-7.3244-2.5098q-2.2704-0.77797-3.0484 1.4924l-1.6386 4.7821q-0.77797 2.2704 1.4924 3.0484l7.3244 2.5098q2.2704 0.77797 3.0484-1.4924z" clip-path="url(#a)" fill="#fff" stroke="#fff"/>
<g clip-path="url(#a)">
<g transform="translate(1231.4 623.81) rotate(-71.086) scale(.08 -.08)">
<use xlink:href="#u"/>
</g>
</g>
<path d="m1271.5 590.29 0.86875-4.9798q0.41246-2.3643-1.9518-2.7768l-7.6273-1.3306q-2.3643-0.41246-2.7768 1.9518l-0.86875 4.9798q-0.41246 2.3643 1.9518 2.7768l7.6273 1.3306q2.3643 0.41246 2.7768-1.9518z" clip-path="url(#a)" fill="#fff" stroke="#fff"/>
<g clip-path="url(#a)">
<g transform="translate(1267.5 589.59) rotate(-80.104) scale(.08 -.08)">
<use xlink:href="#u"/>
</g>
</g>
<path d="m1283.6 623.95 0.40978-5.5712q0.17605-2.3935-2.2175-2.5696l-7.7216-0.56796q-2.3935-0.17605-2.5696 2.2175l-0.40978 5.5712q-0.17605 2.3935 2.2175 2.5696l7.7216 0.56796q2.3935 0.17605 2.5696-2.2175z" clip-path="url(#a)" fill="#fff" stroke="#fff"/>
<g clip-path="url(#a)">
<g transform="translate(1279.6 623.65) rotate(-85.793) scale(.08 -.08)">
<use xlink:href="#t"/>
</g>
</g>
<path d="m1373.3 486.03 4.6587 1.9621q2.2118 0.93154 3.1434-1.2803l3.0052-7.1355q0.93154-2.2118-1.2803-3.1434l-4.6587-1.9621q-2.2118-0.93154-3.1434 1.2803l-3.0052 7.1355q-0.93154 2.2118 1.2803 3.1434z" clip-path="url(#a)" fill="#fff" stroke="#fff"/>
<g clip-path="url(#a)">
<g transform="translate(1374.8 482.28) rotate(22.839) scale(.08 -.08)">
<use xlink:href="#u"/>
</g>
</g>
<path d="m1294.9 618.17 0.35647 5.8441q0.14612 2.3955 2.5417 2.2494l7.7281-0.47139q2.3955-0.14612 2.2494-2.5417l-0.35647-5.8441q-0.14612-2.3955-2.5417-2.2494l-7.7281 0.47139q-2.3955 0.14612-2.2494 2.5417z" clip-path="url(#a)" fill="#fff" stroke="#fff"/>
<g clip-path="url(#a)">
<g transform="translate(1298.9 617.92) rotate(86.51) scale(.08 -.08)">
<use xlink:href="#af"/>
</g>
</g>
<path d="m1163.5 813.36v35.285q0 2.4 2.4 2.4h7.7425q2.4 0 2.4-2.4v-35.285q0-2.4-2.4-2.4h-7.7425q-2.4 0-2.4 2.4z" clip-path="url(#a)" fill="#fff" stroke="#fff"/>
<g clip-path="url(#a)">
<g transform="translate(1167.5 813.36) rotate(90) scale(.08 -.08)">
<use xlink:href="#l"/>
<use x="60.818359" xlink:href="#c"/>
<use x="122.341797" xlink:href="#h"/>
<use x="163.439453" xlink:href="#k"/>
<use x="260.851562" xlink:href="#f"/>
<use x="288.634766" xlink:href="#g"/>
<use x="352.013672" xlink:href="#j"/>
<use x="413.292969" xlink:href="#i"/>
</g>
</g>
<path d="m1245.9 762.52 1.8034 5.1668q0.7909 2.2659 3.0568 1.475l7.31-2.5515q2.2659-0.7909 1.475-3.0568l-1.8034-5.1668q-0.7909-2.2659-3.0568-1.475l-7.31 2.5515q-2.2659 0.7909-1.475 3.0568z" clip-path="url(#a)" fill="#fff" stroke="#fff"/>
<g clip-path="url(#a)">
<g transform="translate(1249.8 761.18) rotate(70.759) scale(.08 -.08)">
<use xlink:href="#q"/>
</g>
</g>
<path d="m1234.1 767.5 1.6737-4.7951q0.7909-2.2659-1.475-3.0568l-7.31-2.5515q-2.2659-0.7909-3.0568 1.475l-1.6737 4.7951q-0.7909 2.2659 1.475 3.0568l7.31 2.5515q2.2659 0.7909 3.0568-1.475z" clip-path="url(#a)" fill="#fff" stroke="#fff"/>
<g clip-path="url(#a)">
<g transform="translate(1230.3 766.16) rotate(-70.759) scale(.08 -.08)">
<use xlink:href="#x"/>
</g>
</g>
<path d="m1258.4 813.36v35.285q0 2.4 2.4 2.4h7.7425q2.4 0 2.4-2.4v-35.285q0-2.4-2.4-2.4h-7.7425q-2.4 0-2.4 2.4z" clip-path="url(#a)" fill="#fff" stroke="#fff"/>
<g clip-path="url(#a)">
<g transform="translate(1262.4 813.36) rotate(90) scale(.08 -.08)">
<use xlink:href="#l"/>
<use x="60.818359" xlink:href="#c"/>
<use x="122.341797" xlink:href="#h"/>
<use x="163.439453" xlink:href="#k"/>
<use x="260.851562" xlink:href="#f"/>
<use x="288.634766" xlink:href="#g"/>
<use x="352.013672" xlink:href="#j"/>
<use x="413.292969" xlink:href="#i"/>
</g>
</g>
<path d="m1368.5 663.43 3.1977-4.4411q1.4024-1.9477-0.54531-3.35l-6.2833-4.524q-1.9477-1.4024-3.35 0.54531l-3.1977 4.4411q-1.4024 1.9477 0.54531 3.35l6.2833 4.524q1.9477 1.4024 3.35-0.54531z" clip-path="url(#a)" fill="#fff" stroke="#fff"/>
<g clip-path="url(#a)">
<g transform="translate(1365.2 661.05) rotate(-54.245) scale(.08 -.08)">
<use xlink:href="#q"/>
</g>
</g>
<path d="m1417.4 662.37 1.9739-5.1965q0.85223-2.2436-1.3914-3.0958l-7.2379-2.7493q-2.2436-0.85223-3.0958 1.3914l-1.9739 5.1965q-0.85223 2.2436 1.3914 3.0958l7.2379 2.7493q2.2436 0.85223 3.0958-1.3914z" clip-path="url(#a)" fill="#fff" stroke="#fff"/>
<g clip-path="url(#a)">
<g transform="translate(1413.6 660.92) rotate(-69.201) scale(.08 -.08)">
<use xlink:href="#ag"/>
</g>
</g>
<path d="m1470 556.99 0.24072-5.4672q0.10557-2.3977-2.2921-2.5032l-7.735-0.34057q-2.3977-0.10557-2.5032 2.2921l-0.24072 5.4672q-0.10557 2.3977 2.2921 2.5032l7.735 0.34057q2.3977 0.10557 2.5032-2.2921z" clip-path="url(#a)" fill="#fff" stroke="#fff"/>
<g clip-path="url(#a)">
<g transform="translate(1466 556.81) rotate(-87.479) scale(.08 -.08)">
<use xlink:href="#q"/>
</g>
</g>
<path d="m1524.4 657.91 2.1624 4.5954q1.0219 2.1716 3.1935 1.1497l7.0056-3.2966q2.1716-1.0219 1.1497-3.1935l-2.1624-4.5954q-1.0219-2.1716-3.1935-1.1497l-7.0056 3.2966q-2.1716 1.0219-1.1497 3.1935z" clip-path="url(#a)" fill="#fff" stroke="#fff"/>
<g clip-path="url(#a)">
<g transform="translate(1528 656.18) rotate(64.8) scale(.08 -.08)">
<use xlink:href="#x"/>
</g>
</g>
<path d="m1548 658.46 3.1584 4.9301q1.2947 2.0209 3.3155 0.72621l6.5194-4.1766q2.0209-1.2947 0.72621-3.3155l-3.1584-4.9301q-1.2947-2.0209-3.3155-0.72621l-6.5194 4.1766q-2.0209 1.2947-0.72621 3.3155z" clip-path="url(#a)" fill="#fff" stroke="#fff"/>
<g clip-path="url(#a)">
<g transform="translate(1551.4 656.27) rotate(57.355) scale(.08 -.08)">
<use xlink:href="#af"/>
</g>
</g>
<path d="m1353.2 813.36v35.285q0 2.4 2.4 2.4h7.7425q2.4 0 2.4-2.4v-35.285q0-2.4-2.4-2.4h-7.7425q-2.4 0-2.4 2.4z" clip-path="url(#a)" fill="#fff" stroke="#fff"/>
<g clip-path="url(#a)">
<g transform="translate(1357.3 813.36) rotate(90) scale(.08 -.08)">
<use xlink:href="#l"/>
<use x="60.818359" xlink:href="#c"/>
<use x="122.341797" xlink:href="#h"/>
<use x="163.439453" xlink:href="#k"/>
<use x="260.851562" xlink:href="#f"/>
<use x="288.634766" xlink:href="#g"/>
<use x="352.013672" xlink:href="#j"/>
<use x="413.292969" xlink:href="#i"/>
</g>
</g>
<path d="m1440.1 697.3 1.188-4.4452q0.61966-2.3186-1.699-2.9383l-7.48-1.9991q-2.3186-0.61967-2.9383 1.699l-1.188 4.4452q-0.61967 2.3186 1.699 2.9383l7.48 1.9991q2.3186 0.61967 2.9383-1.699z" clip-path="url(#a)" fill="#fff" stroke="#fff"/>
<g clip-path="url(#a)">
<g transform="translate(1436.2 696.25) rotate(-75.037) scale(.08 -.08)">
<use xlink:href="#z"/>
</g>
</g>
<path d="m1464.5 696.49 0.21312-5.5822q0.091564-2.3983-2.3067-2.4898l-7.7369-0.29539q-2.3983-0.091564-2.4898 2.3067l-0.21312 5.5822q-0.091564 2.3983 2.3067 2.4898l7.7369 0.29539q2.3983 0.091564 2.4898-2.3067z" clip-path="url(#a)" fill="#fff" stroke="#fff"/>
<g clip-path="url(#a)">
<g transform="translate(1460.5 696.34) rotate(-87.814) scale(.08 -.08)">
<use xlink:href="#t"/>
</g>
</g>
<path d="m1487.6 627.34 3.383 3.7561q1.6062 1.7833 3.3895 0.17717l5.7531-5.1815q1.7833-1.6062 0.17717-3.3895l-3.383-3.7561q-1.6062-1.7833-3.3895-0.17717l-5.7531 5.1815q-1.7833 1.6062-0.17717 3.3895z" clip-path="url(#a)" fill="#fff" stroke="#fff"/>
<g clip-path="url(#a)">
<g transform="translate(1490.6 624.62) rotate(47.992) scale(.08 -.08)">
<use xlink:href="#u"/>
</g>
</g>
<path d="m1590.5 813.36v35.285q0 2.4 2.4 2.4h7.7425q2.4 0 2.4-2.4v-35.285q0-2.4-2.4-2.4h-7.7425q-2.4 0-2.4 2.4z" clip-path="url(#a)" fill="#fff" stroke="#fff"/>
<g clip-path="url(#a)">
<g transform="translate(1594.5 813.36) rotate(90) scale(.08 -.08)">
<use xlink:href="#l"/>
<use x="60.818359" xlink:href="#c"/>
<use x="122.341797" xlink:href="#h"/>
<use x="163.439453" xlink:href="#k"/>
<use x="260.851562" xlink:href="#f"/>
<use x="288.634766" xlink:href="#g"/>
<use x="352.013672" xlink:href="#j"/>
<use x="413.292969" xlink:href="#i"/>
</g>
</g>
<path d="m1400.7 813.36v35.285q0 2.4 2.4 2.4h7.7425q2.4 0 2.4-2.4v-35.285q0-2.4-2.4-2.4h-7.7425q-2.4 0-2.4 2.4z" clip-path="url(#a)" fill="#fff" stroke="#fff"/>
<g clip-path="url(#a)">
<g transform="translate(1404.8 813.36) rotate(90) scale(.08 -.08)">
<use xlink:href="#l"/>
<use x="60.818359" xlink:href="#c"/>
<use x="122.341797" xlink:href="#h"/>
<use x="163.439453" xlink:href="#k"/>
<use x="260.851562" xlink:href="#f"/>
<use x="288.634766" xlink:href="#g"/>
<use x="352.013672" xlink:href="#j"/>
<use x="413.292969" xlink:href="#i"/>
</g>
</g>
<path d="m1448.1 813.36v35.285q0 2.4 2.4 2.4h7.7425q2.4 0 2.4-2.4v-35.285q0-2.4-2.4-2.4h-7.7425q-2.4 0-2.4 2.4z" clip-path="url(#a)" fill="#fff" stroke="#fff"/>
<g clip-path="url(#a)">
<g transform="translate(1452.2 813.36) rotate(90) scale(.08 -.08)">
<use xlink:href="#l"/>
<use x="60.818359" xlink:href="#c"/>
<use x="122.341797" xlink:href="#h"/>
<use x="163.439453" xlink:href="#k"/>
<use x="260.851562" xlink:href="#f"/>
<use x="288.634766" xlink:href="#g"/>
<use x="352.013672" xlink:href="#j"/>
<use x="413.292969" xlink:href="#i"/>
</g>
</g>
<path d="m1519.4 732.39 0.94925-5.4771q0.40984-2.3647-1.9549-2.7746l-7.6288-1.3222q-2.3647-0.40984-2.7746 1.9549l-0.94925 5.4771q-0.40984 2.3647 1.9549 2.7746l7.6288 1.3222q2.3647 0.40984 2.7746-1.9549z" clip-path="url(#a)" fill="#fff" stroke="#fff"/>
<g clip-path="url(#a)">
<g transform="translate(1515.4 731.7) rotate(-80.168) scale(.08 -.08)">
<use xlink:href="#ag"/>
</g>
</g>
<path d="m1530.6 694 1.8183 5.282q0.7812 2.2693 3.0505 1.4881l7.3209-2.5202q2.2693-0.7812 1.4881-3.0505l-1.8183-5.282q-0.7812-2.2693-3.0505-1.4881l-7.3209 2.5202q-2.2693 0.7812-1.4881 3.0505z" clip-path="url(#a)" fill="#fff" stroke="#fff"/>
<g clip-path="url(#a)">
<g transform="translate(1534.4 692.67) rotate(71.004) scale(.08 -.08)">
<use xlink:href="#t"/>
</g>
</g>
<path d="m1495.6 813.36v35.285q0 2.4 2.4 2.4h7.7425q2.4 0 2.4-2.4v-35.285q0-2.4-2.4-2.4h-7.7425q-2.4 0-2.4 2.4z" clip-path="url(#a)" fill="#fff" stroke="#fff"/>
<g clip-path="url(#a)">
<g transform="translate(1499.6 813.36) rotate(90) scale(.08 -.08)">
<use xlink:href="#l"/>
<use x="60.818359" xlink:href="#c"/>
<use x="122.341797" xlink:href="#h"/>
<use x="163.439453" xlink:href="#k"/>
<use x="260.851562" xlink:href="#f"/>
<use x="288.634766" xlink:href="#g"/>
<use x="352.013672" xlink:href="#j"/>
<use x="413.292969" xlink:href="#i"/>
</g>
</g>
<path d="m1542.9 756.54v12.991q0 2.4 2.4 2.4h8q2.4 0 2.4-2.4v-12.991q0-2.4-2.4-2.4h-8q-2.4 0-2.4 2.4z" clip-path="url(#a)" fill="#fff" stroke="#fff"/>
<g clip-path="url(#a)">
<defs>
<path id="ba" d="m21 76.422v-100h-8.2969v100z"/>
</defs>
<g transform="translate(1547.2 756.54) rotate(90) scale(.08 -.08)">
<use xlink:href="#q"/>
<use x="68.408203" xlink:href="#ba"/>
<use x="102.099609" xlink:href="#ao"/>
</g>
</g>
<path d="m1543 813.36v35.285q0 2.4 2.4 2.4h7.7425q2.4 0 2.4-2.4v-35.285q0-2.4-2.4-2.4h-7.7425q-2.4 0-2.4 2.4z" clip-path="url(#a)" fill="#fff" stroke="#fff"/>
<g clip-path="url(#a)">
<g transform="translate(1547.1 813.36) rotate(90) scale(.08 -.08)">
<use xlink:href="#l"/>
<use x="60.818359" xlink:href="#c"/>
<use x="122.341797" xlink:href="#h"/>
<use x="163.439453" xlink:href="#k"/>
<use x="260.851562" xlink:href="#f"/>
<use x="288.634766" xlink:href="#g"/>
<use x="352.013672" xlink:href="#j"/>
<use x="413.292969" xlink:href="#i"/>
</g>
</g>
<path d="m1210.9 813.36v35.285q0 2.4 2.4 2.4h7.7425q2.4 0 2.4-2.4v-35.285q0-2.4-2.4-2.4h-7.7425q-2.4 0-2.4 2.4z" clip-path="url(#a)" fill="#fff" stroke="#fff"/>
<g clip-path="url(#a)">
<g transform="translate(1215 813.36) rotate(90) scale(.08 -.08)">
<use xlink:href="#l"/>
<use x="60.818359" xlink:href="#c"/>
<use x="122.341797" xlink:href="#h"/>
<use x="163.439453" xlink:href="#k"/>
<use x="260.851562" xlink:href="#f"/>
<use x="288.634766" xlink:href="#g"/>
<use x="352.013672" xlink:href="#j"/>
<use x="413.292969" xlink:href="#i"/>
</g>
</g>
<path d="m689 813.36v35.285q0 2.4 2.4 2.4h7.7425q2.4 0 2.4-2.4v-35.285q0-2.4-2.4-2.4h-7.7425q-2.4 0-2.4 2.4z" clip-path="url(#a)" fill="#fff" stroke="#fff"/>
<g clip-path="url(#a)">
<g transform="translate(693.06 813.36) rotate(90) scale(.08 -.08)">
<use xlink:href="#l"/>
<use x="60.818359" xlink:href="#c"/>
<use x="122.341797" xlink:href="#h"/>
<use x="163.439453" xlink:href="#k"/>
<use x="260.851562" xlink:href="#f"/>
<use x="288.634766" xlink:href="#g"/>
<use x="352.013672" xlink:href="#j"/>
<use x="413.292969" xlink:href="#i"/>
</g>
</g>
<path d="m736.45 813.36v35.285q0 2.4 2.4 2.4h7.7425q2.4 0 2.4-2.4v-35.285q0-2.4-2.4-2.4h-7.7425q-2.4 0-2.4 2.4z" clip-path="url(#a)" fill="#fff" stroke="#fff"/>
<g clip-path="url(#a)">
<g transform="translate(740.51 813.36) rotate(90) scale(.08 -.08)">
<use xlink:href="#l"/>
<use x="60.818359" xlink:href="#c"/>
<use x="122.341797" xlink:href="#h"/>
<use x="163.439453" xlink:href="#k"/>
<use x="260.851562" xlink:href="#f"/>
<use x="288.634766" xlink:href="#g"/>
<use x="352.013672" xlink:href="#j"/>
<use x="413.292969" xlink:href="#i"/>
</g>
</g>
<path d="m828.07 769.49 4.02-3.8392q1.7357-1.6576 0.078092-3.3932l-5.3474-5.5993q-1.6576-1.7357-3.3932-0.078092l-4.02 3.8392q-1.7357 1.6576-0.078092 3.3932l5.3474 5.5993q1.6576 1.7357 3.3932 0.078093z" clip-path="url(#a)" fill="#fff" stroke="#fff"/>
<g clip-path="url(#a)">
<g transform="translate(825.26 766.55) rotate(-43.682) scale(.08 -.08)">
<use xlink:href="#ag"/>
</g>
</g>
<path d="m854.47 767.74 1.8409-5.2742q0.7909-2.2659-1.475-3.0568l-7.31-2.5515q-2.2659-0.7909-3.0568 1.475l-1.8409 5.2742q-0.7909 2.2659 1.475 3.0568l7.31 2.5515q2.2659 0.7909 3.0568-1.475z" clip-path="url(#a)" fill="#fff" stroke="#fff"/>
<g clip-path="url(#a)">
<g transform="translate(850.64 766.4) rotate(-70.759) scale(.08 -.08)">
<use xlink:href="#t"/>
</g>
</g>
<path d="m866.29 762.28 1.9723 5.6507q0.7909 2.2659 3.0568 1.475l7.31-2.5515q2.2659-0.7909 1.475-3.0568l-1.9723-5.6507q-0.7909-2.2659-3.0568-1.475l-7.31 2.5515q-2.2659 0.7909-1.475 3.0568z" clip-path="url(#a)" fill="#fff" stroke="#fff"/>
<g clip-path="url(#a)">
<g transform="translate(870.12 760.94) rotate(70.759) scale(.08 -.08)">
<use xlink:href="#am"/>
</g>
</g>
<path d="m890.57 765.64 4.0399 3.8581q1.7357 1.6576 3.3932-0.078092l5.3474-5.5993q1.6576-1.7357-0.078092-3.3932l-4.0399-3.8581q-1.7357-1.6576-3.3932 0.078092l-5.3474 5.5993q-1.6576 1.7357 0.078093 3.3932z" clip-path="url(#a)" fill="#fff" stroke="#fff"/>
<g clip-path="url(#a)">
<g transform="translate(893.37 762.7) rotate(43.682) scale(.08 -.08)">
<use xlink:href="#t"/>
</g>
</g>
<path d="m783.89 813.36v35.285q0 2.4 2.4 2.4h7.7425q2.4 0 2.4-2.4v-35.285q0-2.4-2.4-2.4h-7.7425q-2.4 0-2.4 2.4z" clip-path="url(#a)" fill="#fff" stroke="#fff"/>
<g clip-path="url(#a)">
<g transform="translate(787.96 813.36) rotate(90) scale(.08 -.08)">
<use xlink:href="#l"/>
<use x="60.818359" xlink:href="#c"/>
<use x="122.341797" xlink:href="#h"/>
<use x="163.439453" xlink:href="#k"/>
<use x="260.851562" xlink:href="#f"/>
<use x="288.634766" xlink:href="#g"/>
<use x="352.013672" xlink:href="#j"/>
<use x="413.292969" xlink:href="#i"/>
</g>
</g>
<path d="m831.34 813.36v35.285q0 2.4 2.4 2.4h7.7425q2.4 0 2.4-2.4v-35.285q0-2.4-2.4-2.4h-7.7425q-2.4 0-2.4 2.4z" clip-path="url(#a)" fill="#fff" stroke="#fff"/>
<g clip-path="url(#a)">
<g transform="translate(835.4 813.36) rotate(90) scale(.08 -.08)">
<use xlink:href="#l"/>
<use x="60.818359" xlink:href="#c"/>
<use x="122.341797" xlink:href="#h"/>
<use x="163.439453" xlink:href="#k"/>
<use x="260.851562" xlink:href="#f"/>
<use x="288.634766" xlink:href="#g"/>
<use x="352.013672" xlink:href="#j"/>
<use x="413.292969" xlink:href="#i"/>
</g>
</g>
<path d="m878.79 813.36v35.285q0 2.4 2.4 2.4h7.7425q2.4 0 2.4-2.4v-35.285q0-2.4-2.4-2.4h-7.7425q-2.4 0-2.4 2.4z" clip-path="url(#a)" fill="#fff" stroke="#fff"/>
<g clip-path="url(#a)">
<g transform="translate(882.85 813.36) rotate(90) scale(.08 -.08)">
<use xlink:href="#l"/>
<use x="60.818359" xlink:href="#c"/>
<use x="122.341797" xlink:href="#h"/>
<use x="163.439453" xlink:href="#k"/>
<use x="260.851562" xlink:href="#f"/>
<use x="288.634766" xlink:href="#g"/>
<use x="352.013672" xlink:href="#j"/>
<use x="413.292969" xlink:href="#i"/>
</g>
</g>
<path d="m926.23 813.36v35.285q0 2.4 2.4 2.4h7.7425q2.4 0 2.4-2.4v-35.285q0-2.4-2.4-2.4h-7.7425q-2.4 0-2.4 2.4z" clip-path="url(#a)" fill="#fff" stroke="#fff"/>
<g clip-path="url(#a)">
<g transform="translate(930.29 813.36) rotate(90) scale(.08 -.08)">
<use xlink:href="#l"/>
<use x="60.818359" xlink:href="#c"/>
<use x="122.341797" xlink:href="#h"/>
<use x="163.439453" xlink:href="#k"/>
<use x="260.851562" xlink:href="#f"/>
<use x="288.634766" xlink:href="#g"/>
<use x="352.013672" xlink:href="#j"/>
<use x="413.292969" xlink:href="#i"/>
</g>
</g>
<path d="m451.77 813.36v35.285q0 2.4 2.4 2.4h7.7425q2.4 0 2.4-2.4v-35.285q0-2.4-2.4-2.4h-7.7425q-2.4 0-2.4 2.4z" clip-path="url(#a)" fill="#fff" stroke="#fff"/>
<g clip-path="url(#a)">
<g transform="translate(455.84 813.36) rotate(90) scale(.08 -.08)">
<use xlink:href="#l"/>
<use x="60.818359" xlink:href="#c"/>
<use x="122.341797" xlink:href="#h"/>
<use x="163.439453" xlink:href="#k"/>
<use x="260.851562" xlink:href="#f"/>
<use x="288.634766" xlink:href="#g"/>
<use x="352.013672" xlink:href="#j"/>
<use x="413.292969" xlink:href="#i"/>
</g>
</g>
<path d="m574.36 732.16 1.0036-4.343q0.54036-2.3384-1.798-2.8787l-7.5437-1.7432q-2.3384-0.54036-2.8787 1.798l-1.0036 4.343q-0.54036 2.3384 1.798 2.8787l7.5437 1.7432q2.3384 0.54036 2.8787-1.798z" clip-path="url(#a)" fill="#fff" stroke="#fff"/>
<g clip-path="url(#a)">
<g transform="translate(570.4 731.25) rotate(-76.988) scale(.08 -.08)">
<use xlink:href="#aq"/>
</g>
</g>
<path d="m586.5 698.3 0.68586-5.977q0.2736-2.3844-2.1108-2.658l-7.692-0.88266q-2.3844-0.2736-2.658 2.1108l-0.68586 5.977q-0.2736 2.3844 2.1108 2.658l7.692 0.88266q2.3844 0.2736 2.658-2.1108z" clip-path="url(#a)" fill="#fff" stroke="#fff"/>
<g clip-path="url(#a)">
<g transform="translate(582.46 697.84) rotate(-83.454) scale(.08 -.08)">
<use xlink:href="#ah"/>
</g>
</g>
<path d="m597.4 695.11 2.994 5.2183q1.1944 2.0817 3.2761 0.88733l6.7157-3.8531q2.0817-1.1944 0.88733-3.2761l-2.994-5.2183q-1.1944-2.0817-3.2761-0.88733l-6.7157 3.8531q-2.0817 1.1944-0.88733 3.2761z" clip-path="url(#a)" fill="#fff" stroke="#fff"/>
<g clip-path="url(#a)">
<g transform="translate(600.92 693.09) rotate(60.155) scale(.08 -.08)">
<use xlink:href="#ah"/>
</g>
</g>
<path d="m641.56 813.36v35.285q0 2.4 2.4 2.4h7.7425q2.4 0 2.4-2.4v-35.285q0-2.4-2.4-2.4h-7.7425q-2.4 0-2.4 2.4z" clip-path="url(#a)" fill="#fff" stroke="#fff"/>
<g clip-path="url(#a)">
<g transform="translate(645.62 813.36) rotate(90) scale(.08 -.08)">
<use xlink:href="#l"/>
<use x="60.818359" xlink:href="#c"/>
<use x="122.341797" xlink:href="#h"/>
<use x="163.439453" xlink:href="#k"/>
<use x="260.851562" xlink:href="#f"/>
<use x="288.634766" xlink:href="#g"/>
<use x="352.013672" xlink:href="#j"/>
<use x="413.292969" xlink:href="#i"/>
</g>
</g>
<path d="m546.66 813.36v35.285q0 2.4 2.4 2.4h7.7425q2.4 0 2.4-2.4v-35.285q0-2.4-2.4-2.4h-7.7425q-2.4 0-2.4 2.4z" clip-path="url(#a)" fill="#fff" stroke="#fff"/>
<g clip-path="url(#a)">
<g transform="translate(550.73 813.36) rotate(90) scale(.08 -.08)">
<use xlink:href="#l"/>
<use x="60.818359" xlink:href="#c"/>
<use x="122.341797" xlink:href="#h"/>
<use x="163.439453" xlink:href="#k"/>
<use x="260.851562" xlink:href="#f"/>
<use x="288.634766" xlink:href="#g"/>
<use x="352.013672" xlink:href="#j"/>
<use x="413.292969" xlink:href="#i"/>
</g>
</g>
<path d="m605.93 765.68 3.9576 3.7796q1.7357 1.6576 3.3932-0.078092l5.3474-5.5993q1.6576-1.7357-0.078092-3.3932l-3.9577-3.7796q-1.7357-1.6576-3.3932 0.078093l-5.3474 5.5993q-1.6576 1.7357 0.078093 3.3932z" clip-path="url(#a)" fill="#fff" stroke="#fff"/>
<g clip-path="url(#a)">
<g transform="translate(608.74 762.74) rotate(43.682) scale(.08 -.08)">
<use xlink:href="#q"/>
</g>
</g>
<path d="m543.57 769.33 3.6729-3.5076q1.7357-1.6576 0.078092-3.3932l-5.3474-5.5993q-1.6576-1.7357-3.3932-0.078092l-3.6729 3.5076q-1.7357 1.6576-0.078093 3.3932l5.3474 5.5993q1.6576 1.7357 3.3932 0.078092z" clip-path="url(#a)" fill="#fff" stroke="#fff"/>
<g clip-path="url(#a)">
<g transform="translate(540.76 766.39) rotate(-43.682) scale(.08 -.08)">
<use xlink:href="#x"/>
</g>
</g>
<path d="m629.14 762.52 1.8034 5.1668q0.7909 2.2659 3.0568 1.475l7.31-2.5515q2.2659-0.7909 1.475-3.0568l-1.8034-5.1668q-0.7909-2.2659-3.0568-1.475l-7.31 2.5515q-2.2659 0.7909-1.475 3.0568z" clip-path="url(#a)" fill="#fff" stroke="#fff"/>
<g clip-path="url(#a)">
<g transform="translate(632.98 761.18) rotate(70.759) scale(.08 -.08)">
<use xlink:href="#q"/>
</g>
</g>
<path d="m617.33 767.5 1.6737-4.7951q0.7909-2.2659-1.475-3.0568l-7.31-2.5515q-2.2659-0.7909-3.0568 1.475l-1.6737 4.7951q-0.7909 2.2659 1.475 3.0568l7.31 2.5515q2.2659 0.7909 3.0568-1.475z" clip-path="url(#a)" fill="#fff" stroke="#fff"/>
<g clip-path="url(#a)">
<g transform="translate(613.49 766.16) rotate(-70.759) scale(.08 -.08)">
<use xlink:href="#x"/>
</g>
</g>
<path d="m594.11 813.36v35.285q0 2.4 2.4 2.4h7.7425q2.4 0 2.4-2.4v-35.285q0-2.4-2.4-2.4h-7.7425q-2.4 0-2.4 2.4z" clip-path="url(#a)" fill="#fff" stroke="#fff"/>
<g clip-path="url(#a)">
<g transform="translate(598.17 813.36) rotate(90) scale(.08 -.08)">
<use xlink:href="#l"/>
<use x="60.818359" xlink:href="#c"/>
<use x="122.341797" xlink:href="#h"/>
<use x="163.439453" xlink:href="#k"/>
<use x="260.851562" xlink:href="#f"/>
<use x="288.634766" xlink:href="#g"/>
<use x="352.013672" xlink:href="#j"/>
<use x="413.292969" xlink:href="#i"/>
</g>
</g>
<path d="m499.22 813.36v35.285q0 2.4 2.4 2.4h7.7425q2.4 0 2.4-2.4v-35.285q0-2.4-2.4-2.4h-7.7425q-2.4 0-2.4 2.4z" clip-path="url(#a)" fill="#fff" stroke="#fff"/>
<g clip-path="url(#a)">
<g transform="translate(503.28 813.36) rotate(90) scale(.08 -.08)">
<use xlink:href="#l"/>
<use x="60.818359" xlink:href="#c"/>
<use x="122.341797" xlink:href="#h"/>
<use x="163.439453" xlink:href="#k"/>
<use x="260.851562" xlink:href="#f"/>
<use x="288.634766" xlink:href="#g"/>
<use x="352.013672" xlink:href="#j"/>
<use x="413.292969" xlink:href="#i"/>
</g>
</g>
<path d="m356.88 813.36v35.285q0 2.4 2.4 2.4h7.7425q2.4 0 2.4-2.4v-35.285q0-2.4-2.4-2.4h-7.7425q-2.4 0-2.4 2.4z" clip-path="url(#a)" fill="#fff" stroke="#fff"/>
<g clip-path="url(#a)">
<g transform="translate(360.94 813.36) rotate(90) scale(.08 -.08)">
<use xlink:href="#l"/>
<use x="60.818359" xlink:href="#c"/>
<use x="122.341797" xlink:href="#h"/>
<use x="163.439453" xlink:href="#k"/>
<use x="260.851562" xlink:href="#f"/>
<use x="288.634766" xlink:href="#g"/>
<use x="352.013672" xlink:href="#j"/>
<use x="413.292969" xlink:href="#i"/>
</g>
</g>
<path d="m1068.6 813.36v35.285q0 2.4 2.4 2.4h7.7425q2.4 0 2.4-2.4v-35.285q0-2.4-2.4-2.4h-7.7425q-2.4 0-2.4 2.4z" clip-path="url(#a)" fill="#fff" stroke="#fff"/>
<g clip-path="url(#a)">
<g transform="translate(1072.6 813.36) rotate(90) scale(.08 -.08)">
<use xlink:href="#l"/>
<use x="60.818359" xlink:href="#c"/>
<use x="122.341797" xlink:href="#h"/>
<use x="163.439453" xlink:href="#k"/>
<use x="260.851562" xlink:href="#f"/>
<use x="288.634766" xlink:href="#g"/>
<use x="352.013672" xlink:href="#j"/>
<use x="413.292969" xlink:href="#i"/>
</g>
</g>
<path d="m1305.8 813.36v35.285q0 2.4 2.4 2.4h7.7425q2.4 0 2.4-2.4v-35.285q0-2.4-2.4-2.4h-7.7425q-2.4 0-2.4 2.4z" clip-path="url(#a)" fill="#fff" stroke="#fff"/>
<g clip-path="url(#a)">
<g transform="translate(1309.9 813.36) rotate(90) scale(.08 -.08)">
<use xlink:href="#l"/>
<use x="60.818359" xlink:href="#c"/>
<use x="122.341797" xlink:href="#h"/>
<use x="163.439453" xlink:href="#k"/>
<use x="260.851562" xlink:href="#f"/>
<use x="288.634766" xlink:href="#g"/>
<use x="352.013672" xlink:href="#j"/>
<use x="413.292969" xlink:href="#i"/>
</g>
</g>
<path d="m1637.9 813.36v35.285q0 2.4 2.4 2.4h7.7425q2.4 0 2.4-2.4v-35.285q0-2.4-2.4-2.4h-7.7425q-2.4 0-2.4 2.4z" clip-path="url(#a)" fill="#fff" stroke="#fff"/>
<g clip-path="url(#a)">
<g transform="translate(1642 813.36) rotate(90) scale(.08 -.08)">
<use xlink:href="#l"/>
<use x="60.818359" xlink:href="#c"/>
<use x="122.341797" xlink:href="#h"/>
<use x="163.439453" xlink:href="#k"/>
<use x="260.851562" xlink:href="#f"/>
<use x="288.634766" xlink:href="#g"/>
<use x="352.013672" xlink:href="#j"/>
<use x="413.292969" xlink:href="#i"/>
</g>
</g>
<defs>
<path id="b" d="m0 8.6603c2.2967 0 4.4997-0.9125 6.1237-2.5365 1.624-1.624 2.5365-3.827 2.5365-6.1237s-0.9125-4.4997-2.5365-6.1237c-1.624-1.624-3.827-2.5365-6.1237-2.5365s-4.4997 0.9125-6.1237 2.5365c-1.624 1.624-2.5365 3.827-2.5365 6.1237s0.9125 4.4997 2.5365 6.1237c1.624 1.624 3.827 2.5365 6.1237 2.5365z"/>
</defs>
<g clip-path="url(#a)">
<use x="78.474766" y="864.98712" fill="#ffffff" stroke="#ffffff" xlink:href="#b"/>
</g>
<g clip-path="url(#a)">
<use x="125.92074" y="864.98712" fill="#ffffff" stroke="#ffffff" xlink:href="#b"/>
</g>
<g clip-path="url(#a)">
<use x="173.366714" y="864.98712" fill="#ffffff" stroke="#ffffff" xlink:href="#b"/>
</g>
<g clip-path="url(#a)">
<use x="220.812688" y="864.98712" fill="#ffffff" stroke="#ffffff" xlink:href="#b"/>
</g>
<g clip-path="url(#a)">
<use x="268.258661" y="864.98712" fill="#ffffff" stroke="#ffffff" xlink:href="#b"/>
</g>
<g clip-path="url(#a)">
<use x="315.704635" y="864.98712" fill="#ffffff" stroke="#ffffff" xlink:href="#b"/>
</g>
<g clip-path="url(#a)">
<use x="363.150609" y="864.98712" fill="#ffffff" stroke="#ffffff" xlink:href="#b"/>
</g>
<g clip-path="url(#a)">
<use x="410.596583" y="864.98712" fill="#ffffff" stroke="#ffffff" xlink:href="#b"/>
</g>
<g clip-path="url(#a)">
<use x="458.042556" y="864.98712" fill="#ffffff" stroke="#ffffff" xlink:href="#b"/>
</g>
<g clip-path="url(#a)">
<use x="505.48853" y="864.98712" fill="#ffffff" stroke="#ffffff" xlink:href="#b"/>
</g>
<g clip-path="url(#a)">
<use x="552.934504" y="864.98712" fill="#ffffff" stroke="#ffffff" xlink:href="#b"/>
</g>
<g clip-path="url(#a)">
<use x="600.380478" y="864.98712" fill="#ffffff" stroke="#ffffff" xlink:href="#b"/>
</g>
<g clip-path="url(#a)">
<use x="647.826451" y="864.98712" fill="#ffffff" stroke="#ffffff" xlink:href="#b"/>
</g>
<g clip-path="url(#a)">
<use x="695.272425" y="864.98712" fill="#ffffff" stroke="#ffffff" xlink:href="#b"/>
</g>
<g clip-path="url(#a)">
<use x="742.718399" y="864.98712" fill="#ffffff" stroke="#ffffff" xlink:href="#b"/>
</g>
<g clip-path="url(#a)">
<use x="790.164373" y="864.98712" fill="#ffffff" stroke="#ffffff" xlink:href="#b"/>
</g>
<g clip-path="url(#a)">
<use x="837.610346" y="864.98712" fill="#ffffff" stroke="#ffffff" xlink:href="#b"/>
</g>
<g clip-path="url(#a)">
<use x="885.05632" y="864.98712" fill="#ffffff" stroke="#ffffff" xlink:href="#b"/>
</g>
<g clip-path="url(#a)">
<use x="932.502294" y="864.98712" fill="#ffffff" stroke="#ffffff" xlink:href="#b"/>
</g>
<g clip-path="url(#a)">
<use x="979.948268" y="864.98712" fill="#ffffff" stroke="#ffffff" xlink:href="#b"/>
</g>
<g clip-path="url(#a)">
<use x="1027.394241" y="864.98712" fill="#ffffff" stroke="#ffffff" xlink:href="#b"/>
</g>
<g clip-path="url(#a)">
<use x="1074.840215" y="864.98712" fill="#ffffff" stroke="#ffffff" xlink:href="#b"/>
</g>
<g clip-path="url(#a)">
<use x="1122.286189" y="864.98712" fill="#ffffff" stroke="#ffffff" xlink:href="#b"/>
</g>
<g clip-path="url(#a)">
<use x="1169.732163" y="864.98712" fill="#ffffff" stroke="#ffffff" xlink:href="#b"/>
</g>
<g clip-path="url(#a)">
<use x="1217.178137" y="864.98712" fill="#ffffff" stroke="#ffffff" xlink:href="#b"/>
</g>
<g clip-path="url(#a)">
<use x="1264.62411" y="864.98712" fill="#ffffff" stroke="#ffffff" xlink:href="#b"/>
</g>
<g clip-path="url(#a)">
<use x="1312.070084" y="864.98712" fill="#ffffff" stroke="#ffffff" xlink:href="#b"/>
</g>
<g clip-path="url(#a)">
<use x="1359.516058" y="864.98712" fill="#ffffff" stroke="#ffffff" xlink:href="#b"/>
</g>
<g clip-path="url(#a)">
<use x="1406.962032" y="864.98712" fill="#ffffff" stroke="#ffffff" xlink:href="#b"/>
</g>
<g clip-path="url(#a)">
<use x="1454.408005" y="864.98712" fill="#ffffff" stroke="#ffffff" xlink:href="#b"/>
</g>
<g clip-path="url(#a)">
<use x="1501.853979" y="864.98712" fill="#ffffff" stroke="#ffffff" xlink:href="#b"/>
</g>
<g clip-path="url(#a)">
<use x="1549.299953" y="864.98712" fill="#ffffff" stroke="#ffffff" xlink:href="#b"/>
</g>
<g clip-path="url(#a)">
<use x="1596.745927" y="864.98712" fill="#ffffff" stroke="#ffffff" xlink:href="#b"/>
</g>
<g clip-path="url(#a)">
<use x="1644.1919" y="864.98712" fill="#ffffff" stroke="#ffffff" xlink:href="#b"/>
</g>
<g clip-path="url(#a)">
<use x="158.095982" y="41.679547" fill="#ffffff" stroke="#ffffff" xlink:href="#b"/>
</g>
<g clip-path="url(#a)">
<use x="78.474766" y="797.020265" fill="#ffffff" stroke="#ffffff" xlink:href="#b"/>
</g>
<g clip-path="url(#a)">
<use x="237.717198" y="127.443028" fill="#ffffff" stroke="#ffffff" xlink:href="#b"/>
</g>
<g clip-path="url(#a)">
<use x="125.92074" y="797.020265" fill="#ffffff" stroke="#ffffff" xlink:href="#b"/>
</g>
<g clip-path="url(#a)">
<use x="173.366714" y="797.020265" fill="#ffffff" stroke="#ffffff" xlink:href="#b"/>
</g>
<g clip-path="url(#a)">
<use x="220.812688" y="797.020265" fill="#ffffff" stroke="#ffffff" xlink:href="#b"/>
</g>
<g clip-path="url(#a)">
<use x="430.768653" y="210.405189" fill="#ffffff" stroke="#ffffff" xlink:href="#b"/>
</g>
<g clip-path="url(#a)">
<use x="268.258661" y="797.020265" fill="#ffffff" stroke="#ffffff" xlink:href="#b"/>
</g>
<g clip-path="url(#a)">
<use x="315.704635" y="797.020265" fill="#ffffff" stroke="#ffffff" xlink:href="#b"/>
</g>
<g clip-path="url(#a)">
<use x="775.960705" y="290.757833" fill="#ffffff" stroke="#ffffff" xlink:href="#b"/>
</g>
<g clip-path="url(#a)">
<use x="410.596583" y="797.020265" fill="#ffffff" stroke="#ffffff" xlink:href="#b"/>
</g>
<g clip-path="url(#a)">
<use x="563.478054" y="589.901753" fill="#ffffff" stroke="#ffffff" xlink:href="#b"/>
</g>
<g clip-path="url(#a)">
<use x="1059.762939" y="368.690566" fill="#ffffff" stroke="#ffffff" xlink:href="#b"/>
</g>
<g clip-path="url(#a)">
<use x="979.948268" y="797.020265" fill="#ffffff" stroke="#ffffff" xlink:href="#b"/>
</g>
<g clip-path="url(#a)">
<use x="1027.394241" y="797.020265" fill="#ffffff" stroke="#ffffff" xlink:href="#b"/>
</g>
<g clip-path="url(#a)">
<use x="766.441386" y="660.141061" fill="#ffffff" stroke="#ffffff" xlink:href="#b"/>
</g>
<g clip-path="url(#a)">
<use x="1122.286189" y="797.020265" fill="#ffffff" stroke="#ffffff" xlink:href="#b"/>
</g>
<g clip-path="url(#a)">
<use x="1290.561243" y="444.393641" fill="#ffffff" stroke="#ffffff" xlink:href="#b"/>
</g>
<g clip-path="url(#a)">
<use x="1169.732163" y="797.020265" fill="#ffffff" stroke="#ffffff" xlink:href="#b"/>
</g>
<g clip-path="url(#a)">
<use x="1240.901123" y="729.05341" fill="#ffffff" stroke="#ffffff" xlink:href="#b"/>
</g>
<g clip-path="url(#a)">
<use x="1264.62411" y="797.020265" fill="#ffffff" stroke="#ffffff" xlink:href="#b"/>
</g>
<g clip-path="url(#a)">
<use x="1465.478733" y="518.062027" fill="#ffffff" stroke="#ffffff" xlink:href="#b"/>
</g>
<g clip-path="url(#a)">
<use x="1359.516058" y="797.020265" fill="#ffffff" stroke="#ffffff" xlink:href="#b"/>
</g>
<g clip-path="url(#a)">
<use x="1462.315668" y="589.901753" fill="#ffffff" stroke="#ffffff" xlink:href="#b"/>
</g>
<g clip-path="url(#a)">
<use x="1596.745927" y="797.020265" fill="#ffffff" stroke="#ffffff" xlink:href="#b"/>
</g>
<g clip-path="url(#a)">
<use x="1406.962032" y="797.020265" fill="#ffffff" stroke="#ffffff" xlink:href="#b"/>
</g>
<g clip-path="url(#a)">
<use x="1454.408005" y="797.020265" fill="#ffffff" stroke="#ffffff" xlink:href="#b"/>
</g>
<g clip-path="url(#a)">
<use x="1525.576966" y="660.141061" fill="#ffffff" stroke="#ffffff" xlink:href="#b"/>
</g>
<g clip-path="url(#a)">
<use x="1501.853979" y="797.020265" fill="#ffffff" stroke="#ffffff" xlink:href="#b"/>
</g>
<g clip-path="url(#a)">
<use x="1549.299953" y="729.05341" fill="#ffffff" stroke="#ffffff" xlink:href="#b"/>
</g>
<g clip-path="url(#a)">
<use x="1549.299953" y="797.020265" fill="#ffffff" stroke="#ffffff" xlink:href="#b"/>
</g>
<g clip-path="url(#a)">
<use x="1217.178137" y="797.020265" fill="#ffffff" stroke="#ffffff" xlink:href="#b"/>
</g>
<g clip-path="url(#a)">
<use x="695.272425" y="797.020265" fill="#ffffff" stroke="#ffffff" xlink:href="#b"/>
</g>
<g clip-path="url(#a)">
<use x="742.718399" y="797.020265" fill="#ffffff" stroke="#ffffff" xlink:href="#b"/>
</g>
<g clip-path="url(#a)">
<use x="861.333333" y="729.05341" fill="#ffffff" stroke="#ffffff" xlink:href="#b"/>
</g>
<g clip-path="url(#a)">
<use x="790.164373" y="797.020265" fill="#ffffff" stroke="#ffffff" xlink:href="#b"/>
</g>
<g clip-path="url(#a)">
<use x="837.610346" y="797.020265" fill="#ffffff" stroke="#ffffff" xlink:href="#b"/>
</g>
<g clip-path="url(#a)">
<use x="885.05632" y="797.020265" fill="#ffffff" stroke="#ffffff" xlink:href="#b"/>
</g>
<g clip-path="url(#a)">
<use x="932.502294" y="797.020265" fill="#ffffff" stroke="#ffffff" xlink:href="#b"/>
</g>
<g clip-path="url(#a)">
<use x="458.042556" y="797.020265" fill="#ffffff" stroke="#ffffff" xlink:href="#b"/>
</g>
<g clip-path="url(#a)">
<use x="584.565153" y="660.141061" fill="#ffffff" stroke="#ffffff" xlink:href="#b"/>
</g>
<g clip-path="url(#a)">
<use x="647.826451" y="797.020265" fill="#ffffff" stroke="#ffffff" xlink:href="#b"/>
</g>
<g clip-path="url(#a)">
<use x="552.934504" y="797.020265" fill="#ffffff" stroke="#ffffff" xlink:href="#b"/>
</g>
<g clip-path="url(#a)">
<use x="576.657491" y="729.05341" fill="#ffffff" stroke="#ffffff" xlink:href="#b"/>
</g>
<g clip-path="url(#a)">
<use x="624.103465" y="729.05341" fill="#ffffff" stroke="#ffffff" xlink:href="#b"/>
</g>
<g clip-path="url(#a)">
<use x="600.380478" y="797.020265" fill="#ffffff" stroke="#ffffff" xlink:href="#b"/>
</g>
<g clip-path="url(#a)">
<use x="505.48853" y="797.020265" fill="#ffffff" stroke="#ffffff" xlink:href="#b"/>
</g>
<g clip-path="url(#a)">
<use x="363.150609" y="797.020265" fill="#ffffff" stroke="#ffffff" xlink:href="#b"/>
</g>
<g clip-path="url(#a)">
<use x="1074.840215" y="797.020265" fill="#ffffff" stroke="#ffffff" xlink:href="#b"/>
</g>
<g clip-path="url(#a)">
<use x="1312.070084" y="797.020265" fill="#ffffff" stroke="#ffffff" xlink:href="#b"/>
</g>
<g clip-path="url(#a)">
<use x="1644.1919" y="797.020265" fill="#ffffff" stroke="#ffffff" xlink:href="#b"/>
</g>
<g clip-path="url(#a)">
<defs>
<path id="aw" d="m19.672 64.797v-56.688h11.922q15.094 0 22.094 6.8281 7 6.8438 7 21.594 0 14.641-7 21.453t-22.094 6.8125zm-9.8594 8.1094h20.266q21.188 0 31.094-8.8125 9.9219-8.8125 9.9219-27.562 0-18.859-9.9688-27.703-9.9531-8.8281-31.047-8.8281h-20.266z"/>
</defs>
<g transform="translate(65.211 867.75) scale(.1 -.1)">
<use xlink:href="#aw"/>
<use x="77.001953" xlink:href="#c"/>
<use x="138.525391" xlink:href="#g"/>
<use x="201.904297" xlink:href="#g"/>
</g>
</g>
<g clip-path="url(#a)">
<defs>
<path id="s" d="m44.281 53.078v-8.5q-3.7969 1.9531-7.9062 2.9219-4.0938 0.98438-8.5 0.98438-6.6875 0-10.031-2.0469t-3.3438-6.1562q0-3.125 2.3906-4.9062t9.625-3.3906l3.0781-0.6875q9.5625-2.0469 13.594-5.7812t4.0312-10.422q0-7.625-6.0312-12.078-6.0312-4.4375-16.578-4.4375-4.3906 0-9.1562 0.85938t-10.031 2.5625v9.2812q4.9844-2.5938 9.8125-3.8906 4.8281-1.2812 9.5781-1.2812 6.3438 0 9.75 2.1719 3.4219 2.1719 3.4219 6.125 0 3.6562-2.4688 5.6094-2.4531 1.9531-10.812 3.7656l-3.125 0.73438q-8.3438 1.75-12.062 5.3906-3.7031 3.6406-3.7031 9.9844 0 7.7188 5.4688 11.906 5.4688 4.2031 15.531 4.2031 4.9688 0 9.3594-0.73438 4.4062-0.71875 8.1094-2.1875z"/>
</defs>
<g transform="translate(120.24 867.75) scale(.1 -.1)">
<use xlink:href="#c"/>
<use x="61.523438" xlink:href="#s"/>
</g>
</g>
<g clip-path="url(#a)">
<defs>
<path id="ad" d="m4.2031 54.688h8.9844l11.234-42.672 11.172 42.672h10.594l11.234-42.672 11.188 42.672h8.9844l-14.312-54.688h-10.594l-11.766 44.828-11.812-44.828h-10.609z"/>
</defs>
<g transform="translate(164.16 867.75) scale(.1 -.1)">
<use xlink:href="#ad"/>
<use x="81.787109" xlink:href="#j"/>
<use x="143.066406" xlink:href="#h"/>
</g>
</g>
<g clip-path="url(#a)">
<defs>
<path id="ak" d="m9.0781 75.984h9.0312v-44.875l26.812 23.578h11.469l-29-25.578 30.234-29.109h-11.719l-27.797 26.703v-26.703h-9.0312z"/>
<path id="w" d="m48.781 52.594v-8.4062q-3.8125 2.1094-7.6406 3.1562t-7.7344 1.0469q-8.75 0-13.594-5.5469-4.8281-5.5312-4.8281-15.547t4.8281-15.562q4.8438-5.5312 13.594-5.5312 3.9062 0 7.7344 1.0469t7.6406 3.1562v-8.3125q-3.7656-1.75-7.7969-2.625-4.0156-0.89062-8.5625-0.89062-12.359 0-19.641 7.7656-7.2656 7.7656-7.2656 20.953 0 13.375 7.3438 21.031 7.3594 7.6719 20.156 7.6719 4.1406 0 8.0938-0.85938 3.9531-0.84375 7.6719-2.5469z"/>
<path id="v" d="m54.891 33.016v-33.016h-8.9844v32.719q0 7.7656-3.0312 11.609-3.0312 3.8594-9.0781 3.8594-7.2812 0-11.484-4.6406-4.2031-4.625-4.2031-12.641v-30.906h-9.0312v75.984h9.0312v-29.797q3.2344 4.9375 7.5938 7.375 4.375 2.4375 10.094 2.4375 9.4219 0 14.25-5.8281 4.8438-5.8281 4.8438-17.156z"/>
</defs>
<g transform="translate(201.69 867.75) scale(.1 -.1)">
<use xlink:href="#ad"/>
<use x="81.787109" xlink:href="#f"/>
<use x="109.570312" xlink:href="#h"/>
<use x="150.683594" xlink:href="#ak"/>
<use x="208.59375" xlink:href="#i"/>
<use x="236.376953" xlink:href="#f"/>
<use x="264.160156" xlink:href="#w"/>
<use x="319.140625" xlink:href="#v"/>
</g>
</g>
<g clip-path="url(#a)">
<g transform="translate(260.62 867.75) scale(.1 -.1)">
<use xlink:href="#c"/>
<use x="61.523438" xlink:href="#f"/>
<use x="89.306641" xlink:href="#g"/>
</g>
</g>
<g clip-path="url(#a)">
<defs>
<path id="ap" d="m9.8125 72.906h14.703l18.594-49.609 18.703 49.609h14.703v-72.906h-9.625v64.016l-18.797-50h-9.9062l-18.797 50v-64.016h-9.5781z"/>
<path id="y" d="m8.5 21.578v33.109h8.9844v-32.766q0-7.7656 3.0156-11.656 3.0312-3.875 9.0938-3.875 7.2656 0 11.484 4.6406 4.2344 4.6406 4.2344 12.656v31h8.9844v-54.688h-8.9844v8.4062q-3.2656-4.9844-7.5938-7.4062-4.3125-2.4219-10.031-2.4219-9.4219 0-14.312 5.8594-4.875 5.8594-4.875 17.141z"/>
</defs>
<g transform="translate(294.5 867.75) scale(.1 -.1)">
<use xlink:href="#ap"/>
<use x="86.279297" xlink:href="#y"/>
<use x="149.658203" xlink:href="#s"/>
<use x="201.757812" xlink:href="#c"/>
<use x="263.28125" xlink:href="#y"/>
<use x="326.660156" xlink:href="#k"/>
</g>
</g>
<g clip-path="url(#a)">
<defs>
<path id="an" d="m11.719 12.406h10.297v-8.4062l-8-15.625h-6.2969l4 15.625z"/>
</defs>
<g transform="translate(361.56 867.75) scale(.1 -.1)">
<use xlink:href="#an"/>
</g>
</g>
<g clip-path="url(#a)">
<defs>
<path id="bc" d="m30.609 48.391q-7.2188 0-11.422-5.6406t-4.2031-15.453 4.1719-15.453q4.1875-5.6406 11.453-5.6406 7.1875 0 11.375 5.6562 4.2031 5.6719 4.2031 15.438 0 9.7188-4.2031 15.406-4.1875 5.6875-11.375 5.6875zm0 7.6094q11.719 0 18.406-7.625 6.7031-7.6094 6.7031-21.078 0-13.422-6.7031-21.078-6.6875-7.6406-18.406-7.6406-11.766 0-18.438 7.6406-6.6562 7.6562-6.6562 21.078 0 13.469 6.6562 21.078 6.6719 7.625 18.438 7.625z"/>
</defs>
<g transform="translate(396.83 867.75) scale(.1 -.1)">
<use xlink:href="#ad"/>
<use x="81.787109" xlink:href="#bc"/>
<use x="142.96875" xlink:href="#h"/>
<use x="184.082031" xlink:href="#f"/>
<use x="211.865234" xlink:href="#g"/>
</g>
</g>
<g clip-path="url(#a)">
<g transform="translate(447.33 867.75) scale(.1 -.1)">
<use xlink:href="#c"/>
<use x="61.523438" xlink:href="#f"/>
<use x="89.306641" xlink:href="#g"/>
<use x="152.685547" xlink:href="#c"/>
</g>
</g>
<g clip-path="url(#a)">
<defs>
<path id="r" d="m18.312 70.219v-15.531h18.5v-6.9844h-18.5v-29.688q0-6.6875 1.8281-8.5938t7.4531-1.9062h9.2188v-7.5156h-9.2188q-10.406 0-14.359 3.875-3.9531 3.8906-3.9531 14.141v29.688h-6.5938v6.9844h6.5938v15.531z"/>
<path id="al" d="m45.406 27.984q0 9.7656-4.0312 15.125-4.0156 5.375-11.297 5.375-7.2188 0-11.25-5.375-4.0312-5.3594-4.0312-15.125 0-9.7188 4.0312-15.094t11.25-5.375q7.2812 0 11.297 5.375 4.0312 5.375 4.0312 15.094zm8.9844-21.203q0-13.953-6.2031-20.766-6.1875-6.8125-18.984-6.8125-4.7344 0-8.9375 0.70312t-8.1562 2.1719v8.7344q3.9531-2.1406 7.8125-3.1562 3.8594-1.0312 7.8594-1.0312 8.8438 0 13.234 4.6094t4.3906 13.938v4.4531q-2.7812-4.8438-7.125-7.2344t-10.406-2.3906q-10.047 0-16.203 7.6562-6.1562 7.6719-6.1562 20.328 0 12.688 6.1562 20.344 6.1562 7.6719 16.203 7.6719 6.0625 0 10.406-2.3906t7.125-7.2188v8.2969h8.9844z"/>
</defs>
<g transform="translate(478.34 867.75) scale(.1 -.1)">
<use xlink:href="#c"/>
<use x="61.523438" xlink:href="#f"/>
<use x="89.306641" xlink:href="#g"/>
<use x="152.685547" xlink:href="#s"/>
<use x="204.785156" xlink:href="#f"/>
<use x="232.568359" xlink:href="#w"/>
<use x="287.548828" xlink:href="#v"/>
<use x="350.927734" xlink:href="#r"/>
<use x="390.136719" xlink:href="#f"/>
<use x="417.919922" xlink:href="#al"/>
<use x="481.396484" xlink:href="#c"/>
</g>
</g>
<g clip-path="url(#a)">
<defs>
<path id="ae" d="m45.406 46.391v29.594h8.9844v-75.984h-8.9844v8.2031q-2.8281-4.875-7.1562-7.25-4.3125-2.375-10.375-2.375-9.9062 0-16.141 7.9062-6.2188 7.9219-6.2188 20.812t6.2188 20.797q6.2344 7.9062 16.141 7.9062 6.0625 0 10.375-2.375 4.3281-2.3594 7.1562-7.2344zm-30.609-19.094q0-9.9062 4.0781-15.547t11.203-5.6406 11.219 5.6406q4.1094 5.6406 4.1094 15.547t-4.1094 15.547q-4.0938 5.6406-11.219 5.6406t-11.203-5.6406-4.0781-15.547z"/>
</defs>
<g transform="translate(543.42 867.75) scale(.1 -.1)">
<use xlink:href="#y"/>
<use x="63.378906" xlink:href="#g"/>
<use x="126.757812" xlink:href="#ae"/>
</g>
</g>
<g clip-path="url(#a)">
<defs>
<path id="bd" d="m37.109 75.984v-7.4844h-8.5938q-4.8281 0-6.7188-1.9531-1.875-1.9531-1.875-7.0312v-4.8281h14.797v-6.9844h-14.797v-47.703h-9.0312v47.703h-8.5938v6.9844h8.5938v3.8125q0 9.125 4.25 13.297 4.25 4.1875 13.469 4.1875z"/>
<path id="as" d="m48.688 27.297q0 9.9062-4.0781 15.547t-11.203 5.6406q-7.1406 0-11.219-5.6406t-4.0781-15.547 4.0781-15.547 11.219-5.6406q7.125 0 11.203 5.6406t4.0781 15.547zm-30.578 19.094q2.8438 4.875 7.1562 7.2344 4.3281 2.375 10.328 2.375 9.9688 0 16.188-7.9062 6.2344-7.9062 6.2344-20.797t-6.2344-20.812q-6.2188-7.9062-16.188-7.9062-6 0-10.328 2.375-4.3125 2.375-7.1562 7.25v-8.2031h-9.0312v75.984h9.0312z"/>
</defs>
<g transform="translate(575.04 867.75) scale(.1 -.1)">
<use xlink:href="#bd"/>
<use x="35.205078" xlink:href="#h"/>
<use x="76.287109" xlink:href="#c"/>
<use x="137.810547" xlink:href="#f"/>
<use x="165.59375" xlink:href="#al"/>
<use x="229.070312" xlink:href="#c"/>
<use x="290.59375" xlink:href="#as"/>
<use x="354.070312" xlink:href="#f"/>
<use x="381.853516" xlink:href="#al"/>
<use x="445.330078" xlink:href="#c"/>
</g>
</g>
<g clip-path="url(#a)">
<g transform="translate(634.66 867.75) scale(.1 -.1)">
<use xlink:href="#ah"/>
<use x="75.195312" xlink:href="#j"/>
<use x="136.474609" xlink:href="#g"/>
<use x="199.853516" xlink:href="#ae"/>
</g>
</g>
<g clip-path="url(#a)">
<g transform="translate(686.35 867.75) scale(.1 -.1)">
<use xlink:href="#j"/>
<use x="61.279297" xlink:href="#i"/>
<use x="89.0625" xlink:href="#i"/>
<use x="116.845703" xlink:href="#c"/>
</g>
</g>
<g clip-path="url(#a)">
<defs>
<path id="az" d="m34.281 27.484q-10.891 0-15.094-2.4844t-4.2031-8.5q0-4.7812 3.1562-7.5938 3.1562-2.7969 8.5625-2.7969 7.4844 0 12 5.2969t4.5156 14.078v2zm17.922 3.7188v-31.203h-8.9844v8.2969q-3.0781-4.9688-7.6719-7.3438t-11.234-2.375q-8.3906 0-13.359 4.7188-4.9531 4.7188-4.9531 12.625 0 9.2188 6.1719 13.906 6.1875 4.6875 18.438 4.6875h12.609v0.89062q0 6.2031-4.0781 9.5938t-11.453 3.3906q-4.6875 0-9.1406-1.125-4.4375-1.125-8.5312-3.375v8.3125q4.9219 1.9062 9.5625 2.8438 4.6406 0.95312 9.0312 0.95312 11.875 0 17.734-6.1562 5.8594-6.1406 5.8594-18.641zm-18.609 44.578h9.9062v-9.8594h-9.9062zm-19.094 0h9.9062v-9.8594h-9.9062z"/>
<path id="ar" d="m5.5156 54.688h42.672v-8.2031l-33.781-39.312h33.781v-7.1719h-43.891v8.2031l33.797 39.312h-32.578z"/>
</defs>
<g transform="translate(722.9 867.75) scale(.1 -.1)">
<use xlink:href="#x"/>
<use x="63.476562" xlink:href="#w"/>
<use x="118.457031" xlink:href="#v"/>
<use x="181.835938" xlink:href="#az"/>
<use x="243.115234" xlink:href="#r"/>
<use x="282.324219" xlink:href="#ar"/>
<use x="334.814453" xlink:href="#c"/>
</g>
</g>
<g clip-path="url(#a)">
<g transform="translate(781.86 867.75) scale(.1 -.1)">
<use xlink:href="#ae"/>
<use x="63.476562" xlink:href="#c"/>
<use x="125" xlink:href="#h"/>
</g>
</g>
<g clip-path="url(#a)">
<g transform="translate(823.62 867.75) scale(.1 -.1)">
<use xlink:href="#am"/>
<use x="74.804688" xlink:href="#j"/>
<use x="136.083984" xlink:href="#r"/>
<use x="175.292969" xlink:href="#y"/>
<use x="238.671875" xlink:href="#h"/>
</g>
</g>
<g clip-path="url(#a)">
<g transform="translate(875.54 867.75) scale(.1 -.1)">
<use xlink:href="#y"/>
<use x="63.378906" xlink:href="#g"/>
<use x="126.757812" xlink:href="#ae"/>
</g>
</g>
<g clip-path="url(#a)">
<defs>
<path id="au" d="m9.8125 72.906h9.8594v-30.812l32.719 30.812h12.703l-36.188-33.984 38.766-38.922h-12.984l-35.016 35.109v-35.109h-9.8594z"/>
</defs>
<g transform="translate(918.32 867.75) scale(.1 -.1)">
<use xlink:href="#au"/>
<use x="65.498047" xlink:href="#y"/>
<use x="128.876953" xlink:href="#g"/>
<use x="192.255859" xlink:href="#s"/>
<use x="244.355469" xlink:href="#r"/>
</g>
</g>
<g clip-path="url(#a)">
<defs>
<path id="bb" d="m2.9844 54.688h9.5156l17.094-45.891 17.094 45.891h9.5156l-20.516-54.688h-12.203z"/>
</defs>
<g transform="translate(957.7 867.75) scale(.1 -.1)">
<use xlink:href="#bb"/>
<use x="59.179688" xlink:href="#c"/>
<use x="120.703125" xlink:href="#h"/>
<use x="161.785156" xlink:href="#c"/>
<use x="223.308594" xlink:href="#f"/>
<use x="251.091797" xlink:href="#g"/>
<use x="314.470703" xlink:href="#f"/>
<use x="342.253906" xlink:href="#al"/>
<use x="405.730469" xlink:href="#r"/>
</g>
</g>
<g clip-path="url(#a)">
<g transform="translate(1014.2 867.75) scale(.1 -.1)">
<use xlink:href="#v"/>
<use x="63.378906" xlink:href="#j"/>
<use x="124.658203" xlink:href="#r"/>
<use x="163.867188" xlink:href="#r"/>
<use x="203.076172" xlink:href="#c"/>
</g>
</g>
<g clip-path="url(#a)">
<g transform="translate(1073.3 867.75) scale(.1 -.1)">
<use xlink:href="#an"/>
</g>
</g>
<g clip-path="url(#a)">
<g transform="translate(1109.8 867.75) scale(.1 -.1)">
<use xlink:href="#s"/>
<use x="52.099609" xlink:href="#j"/>
<use x="113.378906" xlink:href="#k"/>
<use x="210.791016" xlink:href="#r"/>
</g>
</g>
<g clip-path="url(#a)">
<g transform="translate(1152.9 867.75) scale(.1 -.1)">
<use xlink:href="#j"/>
<use x="61.279297" xlink:href="#i"/>
<use x="89.0625" xlink:href="#i"/>
<use x="116.845703" xlink:href="#c"/>
<use x="178.369141" xlink:href="#h"/>
<use x="219.482422" xlink:href="#i"/>
<use x="247.265625" xlink:href="#c"/>
<use x="308.789062" xlink:href="#f"/>
</g>
</g>
<g clip-path="url(#a)">
<defs>
<path id="ay" d="m8.5 21.578v33.109h8.9844v-32.766q0-7.7656 3.0156-11.656 3.0312-3.875 9.0938-3.875 7.2656 0 11.484 4.6406 4.2344 4.6406 4.2344 12.656v31h8.9844v-54.688h-8.9844v8.4062q-3.2656-4.9844-7.5938-7.4062-4.3125-2.4219-10.031-2.4219-9.4219 0-14.312 5.8594-4.875 5.8594-4.875 17.141zm22.609 34.422m4.4844 19.781h9.9062v-9.8594h-9.9062zm-19.094 0h9.9062v-9.8594h-9.9062z"/>
</defs>
<g transform="translate(1179 867.75) scale(.1 -.1)">
<use xlink:href="#ak"/>
<use x="57.863281" xlink:href="#ay"/>
<use x="121.242188" xlink:href="#g"/>
<use x="184.621094" xlink:href="#s"/>
<use x="236.720703" xlink:href="#r"/>
<use x="275.929688" xlink:href="#i"/>
<use x="303.712891" xlink:href="#c"/>
<use x="365.236328" xlink:href="#h"/>
<use x="406.349609" xlink:href="#f"/>
<use x="434.132812" xlink:href="#s"/>
<use x="486.232422" xlink:href="#w"/>
<use x="541.212891" xlink:href="#v"/>
<use x="604.591797" xlink:href="#c"/>
<use x="666.115234" xlink:href="#k"/>
</g>
</g>
<g clip-path="url(#a)">
<defs>
<path id="ax" d="m19.672 34.812v-26.703h15.828q7.9531 0 11.781 3.2969 3.8438 3.2969 3.8438 10.078 0 6.8438-3.8438 10.078-3.8281 3.25-11.781 3.25zm0 29.984v-21.969h14.609q7.2188 0 10.75 2.7031 3.5469 2.7188 3.5469 8.2812 0 5.5156-3.5469 8.25-3.5312 2.7344-10.75 2.7344zm-9.8594 8.1094h25.203q11.281 0 17.375-4.6875 6.1094-4.6875 6.1094-13.328 0-6.7031-3.125-10.656t-9.1875-4.9219q7.2812-1.5625 11.312-6.5312 4.0312-4.9531 4.0312-12.375 0-9.7656-6.6406-15.094-6.6406-5.3125-18.906-5.3125h-26.172z"/>
</defs>
<g transform="translate(1244.6 867.75) scale(.1 -.1)">
<use xlink:href="#ax"/>
<use x="68.603516" xlink:href="#c"/>
<use x="130.126953" xlink:href="#f"/>
<use x="157.910156" xlink:href="#ad"/>
<use x="239.697266" xlink:href="#c"/>
<use x="301.220703" xlink:href="#h"/>
<use x="342.333984" xlink:href="#ak"/>
</g>
</g>
<g clip-path="url(#a)">
<g transform="translate(1310.5 867.75) scale(.1 -.1)">
<use xlink:href="#an"/>
</g>
</g>
<g clip-path="url(#a)">
<g transform="translate(1339.4 867.75) scale(.1 -.1)">
<use xlink:href="#ad"/>
<use x="81.787109" xlink:href="#c"/>
<use x="143.310547" xlink:href="#i"/>
<use x="171.09375" xlink:href="#w"/>
<use x="226.074219" xlink:href="#v"/>
<use x="289.453125" xlink:href="#c"/>
<use x="350.976562" xlink:href="#s"/>
</g>
</g>
<g clip-path="url(#a)">
<g transform="translate(1398.1 867.75) scale(.1 -.1)">
<use xlink:href="#ae"/>
<use x="63.476562" xlink:href="#j"/>
<use x="124.755859" xlink:href="#s"/>
</g>
</g>
<g clip-path="url(#a)">
<g transform="translate(1438 867.75) scale(.1 -.1)">
<use xlink:href="#q"/>
<use x="68.392578" xlink:href="#r"/>
<use x="107.601562" xlink:href="#c"/>
<use x="169.125" xlink:href="#i"/>
<use x="196.908203" xlink:href="#f"/>
<use x="224.691406" xlink:href="#c"/>
<use x="286.214844" xlink:href="#h"/>
</g>
</g>
<g clip-path="url(#a)">
<g transform="translate(1488.5 867.75) scale(.1 -.1)">
<use xlink:href="#c"/>
<use x="61.523438" xlink:href="#f"/>
<use x="89.306641" xlink:href="#g"/>
<use x="152.685547" xlink:href="#c"/>
<use x="214.208984" xlink:href="#s"/>
</g>
</g>
<g clip-path="url(#a)">
<g transform="translate(1532.8 867.75) scale(.1 -.1)">
<use xlink:href="#ap"/>
<use x="86.279297" xlink:href="#j"/>
<use x="147.558594" xlink:href="#i"/>
<use x="175.341797" xlink:href="#c"/>
<use x="236.865234" xlink:href="#h"/>
<use x="277.978516" xlink:href="#s"/>
</g>
</g>
<g clip-path="url(#a)">
<g transform="translate(1563.2 867.75) scale(.1 -.1)">
<use xlink:href="#ak"/>
<use x="57.863281" xlink:href="#c"/>
<use x="119.386719" xlink:href="#g"/>
<use x="182.765625" xlink:href="#g"/>
<use x="246.144531" xlink:href="#ar"/>
<use x="298.634766" xlink:href="#c"/>
<use x="360.158203" xlink:href="#f"/>
<use x="387.941406" xlink:href="#w"/>
<use x="442.921875" xlink:href="#v"/>
<use x="506.300781" xlink:href="#g"/>
<use x="569.679688" xlink:href="#c"/>
<use x="631.203125" xlink:href="#r"/>
</g>
</g>
<g clip-path="url(#a)">
<defs>
<path id="e" d="m10.688 12.406h10.312v-12.406h-10.312z"/>
</defs>
<g transform="translate(1642.6 867.75) scale(.1 -.1)">
<use xlink:href="#e"/>
</g>
</g>
<g clip-path="url(#a)">
<defs>
<path id="d" d="m12.406 8.2969h16.109v55.625l-17.531-3.5156v8.9844l17.438 3.5156h9.8594v-64.609h16.109v-8.2969h-41.984z"/>
</defs>
<g transform="translate(150.14 44.439) scale(.1 -.1)">
<use xlink:href="#d"/>
<use x="63.623047" xlink:href="#e"/>
<use x="95.410156" xlink:href="#d"/>
</g>
</g>
<g clip-path="url(#a)">
<defs>
<path id="o" d="m19.188 8.2969h34.422v-8.2969h-46.281v8.2969q5.6094 5.8125 15.297 15.594 9.7031 9.7969 12.188 12.641 4.7344 5.3125 6.6094 9 1.8906 3.6875 1.8906 7.25 0 5.8125-4.0781 9.4688-4.0781 3.6719-10.625 3.6719-4.6406 0-9.7969-1.6094-5.1406-1.6094-11-4.8906v9.9688q5.9531 2.3906 11.125 3.6094 5.1875 1.2188 9.4844 1.2188 11.328 0 18.062-5.6719 6.7344-5.6562 6.7344-15.125 0-4.5-1.6875-8.5312-1.6719-4.0156-6.125-9.4844-1.2188-1.4219-7.7656-8.1875-6.5312-6.7656-18.453-18.922z"/>
</defs>
<g transform="translate(70.523 799.78) scale(.1 -.1)">
<use xlink:href="#d"/>
<use x="63.623047" xlink:href="#e"/>
<use x="95.410156" xlink:href="#o"/>
</g>
</g>
<g clip-path="url(#a)">
<defs>
<path id="m" d="m40.578 39.312q7.0781-1.5156 11.047-6.3125 3.9844-4.7812 3.9844-11.812 0-10.781-7.4219-16.703-7.4219-5.9062-21.094-5.9062-4.5781 0-9.4375 0.90625t-10.031 2.7188v9.5156q4.0938-2.3906 8.9688-3.6094 4.8906-1.2188 10.219-1.2188 9.2656 0 14.125 3.6562t4.8594 10.641q0 6.4531-4.5156 10.078-4.5156 3.6406-12.562 3.6406h-8.5v8.1094h8.8906q7.2656 0 11.125 2.9062t3.8594 8.375q0 5.6094-3.9844 8.6094-3.9688 3.0156-11.391 3.0156-4.0625 0-8.7031-0.89062-4.6406-0.875-10.203-2.7188v8.7812q5.625 1.5625 10.531 2.3438t9.25 0.78125q11.234 0 17.766-5.1094 6.5469-5.0938 6.5469-13.781 0-6.0625-3.4688-10.234t-9.8594-5.7812z"/>
</defs>
<g transform="translate(229.77 130.2) scale(.1 -.1)">
<use xlink:href="#d"/>
<use x="63.623047" xlink:href="#e"/>
<use x="95.410156" xlink:href="#m"/>
</g>
</g>
<g clip-path="url(#a)">
<defs>
<path id="p" d="m10.797 72.906h38.719v-8.3125h-29.688v-17.859q2.1406 0.73438 4.2812 1.0938 2.1562 0.35938 4.3125 0.35938 12.203 0 19.328-6.6875 7.1406-6.6875 7.1406-18.109 0-11.766-7.3281-18.297-7.3281-6.5156-20.656-6.5156-4.5938 0-9.3594 0.78125-4.75 0.78125-9.8281 2.3438v9.9219q4.3906-2.3906 9.0781-3.5625t9.9062-1.1719q8.4531 0 13.375 4.4375 4.9375 4.4375 4.9375 12.062 0 7.6094-4.9375 12.047-4.9219 4.4531-13.375 4.4531-3.9531 0-7.8906-0.875-3.9219-0.875-8.0156-2.7344z"/>
</defs>
<g transform="translate(117.97 799.78) scale(.1 -.1)">
<use xlink:href="#d"/>
<use x="63.623047" xlink:href="#e"/>
<use x="95.410156" xlink:href="#p"/>
</g>
</g>
<g clip-path="url(#a)">
<defs>
<path id="aj" d="m33.016 40.375q-6.6406 0-10.531-4.5469-3.875-4.5312-3.875-12.438 0-7.8594 3.875-12.438 3.8906-4.5625 10.531-4.5625t10.516 4.5625q3.875 4.5781 3.875 12.438 0 7.9062-3.875 12.438-3.875 4.5469-10.516 4.5469zm19.578 30.922v-8.9844q-3.7188 1.75-7.5 2.6719-3.7812 0.9375-7.5 0.9375-9.7656 0-14.922-6.5938-5.1406-6.5938-5.875-19.922 2.875 4.25 7.2188 6.5156 4.3594 2.2656 9.5781 2.2656 10.984 0 17.359-6.6719 6.375-6.6562 6.375-18.125 0-11.234-6.6406-18.031-6.6406-6.7812-17.672-6.7812-12.656 0-19.344 9.6875-6.6875 9.7031-6.6875 28.109 0 17.281 8.2031 27.562t22.016 10.281q3.7188 0 7.5-0.73438t7.8906-2.1875z"/>
</defs>
<g transform="translate(165.42 799.78) scale(.1 -.1)">
<use xlink:href="#d"/>
<use x="63.623047" xlink:href="#e"/>
<use x="95.410156" xlink:href="#aj"/>
</g>
</g>
<g clip-path="url(#a)">
<defs>
<path id="ab" d="m8.2031 72.906h46.875v-4.2031l-26.469-68.703h-10.297l24.906 64.594h-35.016z"/>
</defs>
<g transform="translate(212.86 799.78) scale(.1 -.1)">
<use xlink:href="#d"/>
<use x="63.623047" xlink:href="#e"/>
<use x="95.410156" xlink:href="#ab"/>
</g>
</g>
<g clip-path="url(#a)">
<defs>
<path id="ai" d="m31.781 34.625q-7.0312 0-11.062-3.7656-4.0156-3.7656-4.0156-10.344 0-6.5938 4.0156-10.359 4.0312-3.7656 11.062-3.7656t11.078 3.7812q4.0625 3.7969 4.0625 10.344 0 6.5781-4.0312 10.344-4.0156 3.7656-11.109 3.7656zm-9.8594 4.1875q-6.3438 1.5625-9.8906 5.9062-3.5312 4.3594-3.5312 10.609 0 8.7344 6.2188 13.812 6.2344 5.0781 17.062 5.0781 10.891 0 17.094-5.0781t6.2031-13.812q0-6.25-3.5469-10.609-3.5312-4.3438-9.8281-5.9062 7.125-1.6562 11.094-6.5 3.9844-4.8281 3.9844-11.797 0-10.609-6.4688-16.281-6.4688-5.6562-18.531-5.6562-12.047 0-18.531 5.6562-6.4688 5.6719-6.4688 16.281 0 6.9688 4 11.797 4.0156 4.8438 11.141 6.5zm-3.6094 15.578q0-5.6562 3.5312-8.8281 3.5469-3.1719 9.9375-3.1719 6.3594 0 9.9375 3.1719 3.5938 3.1719 3.5938 8.8281 0 5.6719-3.5938 8.8438-3.5781 3.1719-9.9375 3.1719-6.3906 0-9.9375-3.1719-3.5312-3.1719-3.5312-8.8438z"/>
</defs>
<g transform="translate(422.82 213.16) scale(.1 -.1)">
<use xlink:href="#d"/>
<use x="63.623047" xlink:href="#e"/>
<use x="95.410156" xlink:href="#ai"/>
</g>
</g>
<g clip-path="url(#a)">
<defs>
<path id="aa" d="m10.984 1.5156v8.9844q3.7188-1.7656 7.5156-2.6875 3.8125-0.92188 7.4844-0.92188 9.7656 0 14.906 6.5625 5.1562 6.5625 5.8906 19.953-2.8281-4.2031-7.1875-6.4531-4.3438-2.25-9.6094-2.25-10.938 0-17.312 6.6094-6.375 6.625-6.375 18.109 0 11.219 6.6406 18 6.6406 6.7969 17.672 6.7969 12.656 0 19.312-9.7031 6.6719-9.6875 6.6719-28.141 0-17.234-8.1875-27.516-8.1719-10.281-21.984-10.281-3.7188 0-7.5312 0.73438-3.7969 0.73438-7.9062 2.2031zm19.625 30.906q6.6406 0 10.516 4.5312 3.8906 4.5469 3.8906 12.469 0 7.8594-3.8906 12.422-3.875 4.5625-10.516 4.5625t-10.516-4.5625-3.875-12.422q0-7.9219 3.875-12.469 3.875-4.5312 10.516-4.5312z"/>
</defs>
<g transform="translate(260.31 799.78) scale(.1 -.1)">
<use xlink:href="#d"/>
<use x="63.623047" xlink:href="#e"/>
<use x="95.410156" xlink:href="#aa"/>
</g>
</g>
<g clip-path="url(#a)">
<defs>
<path id="ac" d="m31.781 66.406q-7.6094 0-11.453-7.5-3.8281-7.4844-3.8281-22.531 0-14.984 3.8281-22.484 3.8438-7.5 11.453-7.5 7.6719 0 11.5 7.5 3.8438 7.5 3.8438 22.484 0 15.047-3.8438 22.531-3.8281 7.5-11.5 7.5zm0 7.8125q12.266 0 18.734-9.7031 6.4688-9.6875 6.4688-28.141 0-18.406-6.4688-28.109-6.4688-9.6875-18.734-9.6875-12.25 0-18.719 9.6875-6.4688 9.7031-6.4688 28.109 0 18.453 6.4688 28.141 6.4688 9.7031 18.719 9.7031z"/>
</defs>
<g transform="translate(304.57 799.78) scale(.1 -.1)">
<use xlink:href="#d"/>
<use x="63.623047" xlink:href="#e"/>
<use x="95.410156" xlink:href="#d"/>
<use x="159.033203" xlink:href="#ac"/>
</g>
</g>
<g clip-path="url(#a)">
<g transform="translate(764.83 293.52) scale(.1 -.1)">
<use xlink:href="#d"/>
<use x="63.623047" xlink:href="#e"/>
<use x="95.410156" xlink:href="#d"/>
<use x="159.033203" xlink:href="#d"/>
</g>
</g>
<g clip-path="url(#a)">
<g transform="translate(399.46 799.78) scale(.1 -.1)">
<use xlink:href="#d"/>
<use x="63.623047" xlink:href="#e"/>
<use x="95.410156" xlink:href="#d"/>
<use x="159.033203" xlink:href="#m"/>
</g>
</g>
<g clip-path="url(#a)">
<defs>
<path id="n" d="m37.797 64.312-24.906-38.922h24.906zm-2.5938 8.5938h12.406v-47.516h10.406v-8.2031h-10.406v-17.188h-9.8125v17.188h-32.906v9.5156z"/>
</defs>
<g transform="translate(552.35 592.66) scale(.1 -.1)">
<use xlink:href="#d"/>
<use x="63.623047" xlink:href="#e"/>
<use x="95.410156" xlink:href="#d"/>
<use x="159.033203" xlink:href="#n"/>
</g>
</g>
<g clip-path="url(#a)">
<g transform="translate(1048.6 371.45) scale(.1 -.1)">
<use xlink:href="#d"/>
<use x="63.623047" xlink:href="#e"/>
<use x="95.410156" xlink:href="#d"/>
<use x="159.033203" xlink:href="#p"/>
</g>
</g>
<g clip-path="url(#a)">
<g transform="translate(968.82 799.78) scale(.1 -.1)">
<use xlink:href="#d"/>
<use x="63.623047" xlink:href="#e"/>
<use x="95.410156" xlink:href="#d"/>
<use x="159.033203" xlink:href="#aj"/>
</g>
</g>
<g clip-path="url(#a)">
<g transform="translate(1016.3 799.78) scale(.1 -.1)">
<use xlink:href="#d"/>
<use x="63.623047" xlink:href="#e"/>
<use x="95.410156" xlink:href="#d"/>
<use x="159.033203" xlink:href="#ab"/>
</g>
</g>
<g clip-path="url(#a)">
<g transform="translate(755.31 662.9) scale(.1 -.1)">
<use xlink:href="#d"/>
<use x="63.623047" xlink:href="#e"/>
<use x="95.410156" xlink:href="#d"/>
<use x="159.033203" xlink:href="#aa"/>
</g>
</g>
<g clip-path="url(#a)">
<g transform="translate(1111.2 799.78) scale(.1 -.1)">
<use xlink:href="#d"/>
<use x="63.623047" xlink:href="#e"/>
<use x="95.410156" xlink:href="#o"/>
<use x="159.033203" xlink:href="#ac"/>
</g>
</g>
<g clip-path="url(#a)">
<g transform="translate(1279.4 447.15) scale(.1 -.1)">
<use xlink:href="#d"/>
<use x="63.623047" xlink:href="#e"/>
<use x="95.410156" xlink:href="#o"/>
<use x="159.033203" xlink:href="#d"/>
</g>
</g>
<g clip-path="url(#a)">
<g transform="translate(1158.6 799.78) scale(.1 -.1)">
<use xlink:href="#d"/>
<use x="63.623047" xlink:href="#e"/>
<use x="95.410156" xlink:href="#o"/>
<use x="159.033203" xlink:href="#o"/>
</g>
</g>
<g clip-path="url(#a)">
<g transform="translate(1229.8 731.81) scale(.1 -.1)">
<use xlink:href="#d"/>
<use x="63.623047" xlink:href="#e"/>
<use x="95.410156" xlink:href="#o"/>
<use x="159.033203" xlink:href="#m"/>
</g>
</g>
<g clip-path="url(#a)">
<g transform="translate(1253.5 799.78) scale(.1 -.1)">
<use xlink:href="#d"/>
<use x="63.623047" xlink:href="#e"/>
<use x="95.410156" xlink:href="#o"/>
<use x="159.033203" xlink:href="#n"/>
</g>
</g>
<g clip-path="url(#a)">
<g transform="translate(1454.3 520.82) scale(.1 -.1)">
<use xlink:href="#d"/>
<use x="63.623047" xlink:href="#e"/>
<use x="95.410156" xlink:href="#o"/>
<use x="159.033203" xlink:href="#p"/>
</g>
</g>
<g clip-path="url(#a)">
<g transform="translate(1348.4 799.78) scale(.1 -.1)">
<use xlink:href="#d"/>
<use x="63.623047" xlink:href="#e"/>
<use x="95.410156" xlink:href="#o"/>
<use x="159.033203" xlink:href="#ab"/>
</g>
</g>
<g clip-path="url(#a)">
<g transform="translate(1451.2 592.66) scale(.1 -.1)">
<use xlink:href="#d"/>
<use x="63.623047" xlink:href="#e"/>
<use x="95.410156" xlink:href="#o"/>
<use x="159.033203" xlink:href="#ai"/>
</g>
</g>
<g clip-path="url(#a)">
<g transform="translate(1585.6 799.78) scale(.1 -.1)">
<use xlink:href="#d"/>
<use x="63.623047" xlink:href="#e"/>
<use x="95.410156" xlink:href="#o"/>
<use x="159.033203" xlink:href="#aa"/>
</g>
</g>
<g clip-path="url(#a)">
<g transform="translate(1395.8 799.78) scale(.1 -.1)">
<use xlink:href="#d"/>
<use x="63.623047" xlink:href="#e"/>
<use x="95.410156" xlink:href="#m"/>
<use x="159.033203" xlink:href="#ac"/>
</g>
</g>
<g clip-path="url(#a)">
<g transform="translate(1443.3 799.78) scale(.1 -.1)">
<use xlink:href="#d"/>
<use x="63.623047" xlink:href="#e"/>
<use x="95.410156" xlink:href="#m"/>
<use x="159.033203" xlink:href="#d"/>
</g>
</g>
<g clip-path="url(#a)">
<g transform="translate(1514.4 662.9) scale(.1 -.1)">
<use xlink:href="#d"/>
<use x="63.623047" xlink:href="#e"/>
<use x="95.410156" xlink:href="#m"/>
<use x="159.033203" xlink:href="#o"/>
</g>
</g>
<g clip-path="url(#a)">
<g transform="translate(1490.7 799.78) scale(.1 -.1)">
<use xlink:href="#d"/>
<use x="63.623047" xlink:href="#e"/>
<use x="95.410156" xlink:href="#m"/>
<use x="159.033203" xlink:href="#m"/>
</g>
</g>
<g clip-path="url(#a)">
<g transform="translate(1538.2 731.81) scale(.1 -.1)">
<use xlink:href="#d"/>
<use x="63.623047" xlink:href="#e"/>
<use x="95.410156" xlink:href="#m"/>
<use x="159.033203" xlink:href="#n"/>
</g>
</g>
<g clip-path="url(#a)">
<g transform="translate(1538.2 799.78) scale(.1 -.1)">
<use xlink:href="#d"/>
<use x="63.623047" xlink:href="#e"/>
<use x="95.410156" xlink:href="#m"/>
<use x="159.033203" xlink:href="#p"/>
</g>
</g>
<g clip-path="url(#a)">
<g transform="translate(1206 799.78) scale(.1 -.1)">
<use xlink:href="#d"/>
<use x="63.623047" xlink:href="#e"/>
<use x="95.410156" xlink:href="#m"/>
<use x="159.033203" xlink:href="#aj"/>
</g>
</g>
<g clip-path="url(#a)">
<g transform="translate(684.14 799.78) scale(.1 -.1)">
<use xlink:href="#d"/>
<use x="63.623047" xlink:href="#e"/>
<use x="95.410156" xlink:href="#m"/>
<use x="159.033203" xlink:href="#ab"/>
</g>
</g>
<g clip-path="url(#a)">
<g transform="translate(731.59 799.78) scale(.1 -.1)">
<use xlink:href="#d"/>
<use x="63.623047" xlink:href="#e"/>
<use x="95.410156" xlink:href="#m"/>
<use x="159.033203" xlink:href="#ai"/>
</g>
</g>
<g clip-path="url(#a)">
<g transform="translate(850.2 731.81) scale(.1 -.1)">
<use xlink:href="#d"/>
<use x="63.623047" xlink:href="#e"/>
<use x="95.410156" xlink:href="#m"/>
<use x="159.033203" xlink:href="#aa"/>
</g>
</g>
<g clip-path="url(#a)">
<g transform="translate(779.03 799.78) scale(.1 -.1)">
<use xlink:href="#d"/>
<use x="63.623047" xlink:href="#e"/>
<use x="95.410156" xlink:href="#n"/>
<use x="159.033203" xlink:href="#ac"/>
</g>
</g>
<g clip-path="url(#a)">
<g transform="translate(826.48 799.78) scale(.1 -.1)">
<use xlink:href="#d"/>
<use x="63.623047" xlink:href="#e"/>
<use x="95.410156" xlink:href="#n"/>
<use x="159.033203" xlink:href="#d"/>
</g>
</g>
<g clip-path="url(#a)">
<g transform="translate(873.92 799.78) scale(.1 -.1)">
<use xlink:href="#d"/>
<use x="63.623047" xlink:href="#e"/>
<use x="95.410156" xlink:href="#n"/>
<use x="159.033203" xlink:href="#o"/>
</g>
</g>
<g clip-path="url(#a)">
<g transform="translate(921.37 799.78) scale(.1 -.1)">
<use xlink:href="#d"/>
<use x="63.623047" xlink:href="#e"/>
<use x="95.410156" xlink:href="#n"/>
<use x="159.033203" xlink:href="#m"/>
</g>
</g>
<g clip-path="url(#a)">
<g transform="translate(446.91 799.78) scale(.1 -.1)">
<use xlink:href="#d"/>
<use x="63.623047" xlink:href="#e"/>
<use x="95.410156" xlink:href="#n"/>
<use x="159.033203" xlink:href="#n"/>
</g>
</g>
<g clip-path="url(#a)">
<g transform="translate(573.43 662.9) scale(.1 -.1)">
<use xlink:href="#d"/>
<use x="63.623047" xlink:href="#e"/>
<use x="95.410156" xlink:href="#n"/>
<use x="159.033203" xlink:href="#p"/>
</g>
</g>
<g clip-path="url(#a)">
<g transform="translate(636.69 799.78) scale(.1 -.1)">
<use xlink:href="#d"/>
<use x="63.623047" xlink:href="#e"/>
<use x="95.410156" xlink:href="#n"/>
<use x="159.033203" xlink:href="#aj"/>
</g>
</g>
<g clip-path="url(#a)">
<g transform="translate(541.8 799.78) scale(.1 -.1)">
<use xlink:href="#d"/>
<use x="63.623047" xlink:href="#e"/>
<use x="95.410156" xlink:href="#n"/>
<use x="159.033203" xlink:href="#ab"/>
</g>
</g>
<g clip-path="url(#a)">
<g transform="translate(565.52 731.81) scale(.1 -.1)">
<use xlink:href="#d"/>
<use x="63.623047" xlink:href="#e"/>
<use x="95.410156" xlink:href="#n"/>
<use x="159.033203" xlink:href="#ai"/>
</g>
</g>
<g clip-path="url(#a)">
<g transform="translate(612.97 731.81) scale(.1 -.1)">
<use xlink:href="#d"/>
<use x="63.623047" xlink:href="#e"/>
<use x="95.410156" xlink:href="#n"/>
<use x="159.033203" xlink:href="#aa"/>
</g>
</g>
<g clip-path="url(#a)">
<g transform="translate(589.25 799.78) scale(.1 -.1)">
<use xlink:href="#d"/>
<use x="63.623047" xlink:href="#e"/>
<use x="95.410156" xlink:href="#p"/>
<use x="159.033203" xlink:href="#ac"/>
</g>
</g>
<g clip-path="url(#a)">
<g transform="translate(494.36 799.78) scale(.1 -.1)">
<use xlink:href="#d"/>
<use x="63.623047" xlink:href="#e"/>
<use x="95.410156" xlink:href="#p"/>
<use x="159.033203" xlink:href="#d"/>
</g>
</g>
<g clip-path="url(#a)">
<g transform="translate(352.02 799.78) scale(.1 -.1)">
<use xlink:href="#d"/>
<use x="63.623047" xlink:href="#e"/>
<use x="95.410156" xlink:href="#p"/>
<use x="159.033203" xlink:href="#o"/>
</g>
</g>
<g clip-path="url(#a)">
<g transform="translate(1063.7 799.78) scale(.1 -.1)">
<use xlink:href="#d"/>
<use x="63.623047" xlink:href="#e"/>
<use x="95.410156" xlink:href="#p"/>
<use x="159.033203" xlink:href="#m"/>
</g>
</g>
<g clip-path="url(#a)">
<g transform="translate(1300.9 799.78) scale(.1 -.1)">
<use xlink:href="#d"/>
<use x="63.623047" xlink:href="#e"/>
<use x="95.410156" xlink:href="#p"/>
<use x="159.033203" xlink:href="#n"/>
</g>
</g>
<g clip-path="url(#a)">
<g transform="translate(1633.1 799.78) scale(.1 -.1)">
<use xlink:href="#d"/>
<use x="63.623047" xlink:href="#e"/>
<use x="95.410156" xlink:href="#p"/>
<use x="159.033203" xlink:href="#p"/>
</g>
</g>
<defs>
<clipPath id="a">
<rect width="1722.7" height="906.67"/>
</clipPath>
</defs>
</svg>
