<?xml version="1.0" encoding="UTF-8"?>
<!DOCTYPE svg  PUBLIC '-//W3C//DTD SVG 1.1//EN'  'http://www.w3.org/Graphics/SVG/1.1/DTD/svg11.dtd'>
<svg width="1114.7pt" height="586.67pt" version="1.1" viewBox="0 0 1114.7 586.67" xmlns="http://www.w3.org/2000/svg" xmlns:xlink="http://www.w3.org/1999/xlink">
<defs>
<style type="text/css">*{stroke-linecap:butt;stroke-linejoin:round;}</style>
</defs>
<path d="m0 586.67h1114.7v-586.67h-1114.7z" fill="#fff"/>
<g fill="none" stroke="#000">
<path d="m160.74 26.667v67.289" clip-path="url(#a)"/>
<path d="m160.74 93.956-97.699 334.55" clip-path="url(#a)"/>
<path d="m160.74 93.956-54.394 400.75" clip-path="url(#a)"/>
<path d="m160.74 93.956 152.09 67.193" clip-path="url(#a)"/>
<path d="m63.039 428.5-12.373 66.203" clip-path="url(#a)"/>
<path d="m63.039 428.5-1.2373 66.203" clip-path="url(#a)"/>
<path d="m63.039 428.5 13.61 66.203" clip-path="url(#a)"/>
<path d="m106.34 494.71-11.136 65.295" clip-path="url(#a)"/>
<path d="m106.34 494.71 11.136 65.295" clip-path="url(#a)"/>
<path d="m312.83 161.15-169.37 333.56" clip-path="url(#a)"/>
<path d="m312.83 161.15-69.148 333.56" clip-path="url(#a)"/>
<path d="m312.83 161.15-28.318 333.56" clip-path="url(#a)"/>
<path d="m312.83 161.15-91.419 267.35" clip-path="url(#a)"/>
<path d="m312.83 161.15 342.03 67.081" clip-path="url(#a)"/>
<path d="m312.83 161.15 16.225 333.56" clip-path="url(#a)"/>
<path d="m143.46 494.71v65.295" clip-path="url(#a)"/>
<path d="m243.68 494.71v65.295" clip-path="url(#a)"/>
<path d="m284.51 494.71v65.295" clip-path="url(#a)"/>
<path d="m221.41 428.5 63.101 66.203" clip-path="url(#a)" stroke-dasharray="3.7,1.6"/>
<path d="m221.41 428.5-48.254 66.203" clip-path="url(#a)"/>
<path d="m221.41 428.5-14.847 66.203" clip-path="url(#a)"/>
<path d="m654.86 228.23-370.34 266.48" clip-path="url(#a)" stroke-dasharray="3.7,1.6"/>
<path d="m654.86 228.23-277.55 266.48" clip-path="url(#a)"/>
<path d="m654.86 228.23-197.74 200.27" clip-path="url(#a)"/>
<path d="m654.86 228.23-78.965 200.27" clip-path="url(#a)"/>
<path d="m654.86 228.23 191.69 66.946" clip-path="url(#a)"/>
<path d="m654.86 228.23 323.77 266.48" clip-path="url(#a)"/>
<path d="m654.86 228.23 409.14 266.48" clip-path="url(#a)"/>
<path d="m377.31 494.71v65.295" clip-path="url(#a)"/>
<path d="m457.11 428.5-27.839 66.203" clip-path="url(#a)"/>
<path d="m457.11 428.5 27.839 66.203" clip-path="url(#a)"/>
<path d="m575.89 428.5-31.551 66.203" clip-path="url(#a)"/>
<path d="m575.89 428.5 31.551 66.203" clip-path="url(#a)"/>
<path d="m846.55 295.18-50.419 66.777" clip-path="url(#a)"/>
<path d="m846.55 295.18 50.419 199.53" clip-path="url(#a)"/>
<path d="m978.63 494.71v65.295" clip-path="url(#a)"/>
<path d="m796.13 361.95-51.347 132.75" clip-path="url(#a)"/>
<path d="m796.13 361.95-10.517 66.55" clip-path="url(#a)"/>
<path d="m796.13 361.95 61.864 66.55" clip-path="url(#a)"/>
<path d="m896.97 494.71v65.295" clip-path="url(#a)"/>
<path d="m744.78 494.71v65.295" clip-path="url(#a)"/>
<path d="m785.61 428.5 111.36 66.203" clip-path="url(#a)" stroke-dasharray="3.7,1.6"/>
<path d="m785.61 428.5-111.36 66.203" clip-path="url(#a)"/>
<path d="m857.99 428.5 38.974 66.203" clip-path="url(#a)" stroke-dasharray="3.7,1.6"/>
<path d="m857.99 428.5-38.974 66.203" clip-path="url(#a)"/>
<path d="m819.02 494.71v65.295" clip-path="url(#a)"/>
<path d="m674.26 494.71v65.295" clip-path="url(#a)"/>
<path d="m544.34 494.71v65.295" clip-path="url(#a)"/>
<path d="m607.44 494.71v65.295" clip-path="url(#a)"/>
<path d="m429.27 494.71v65.295" clip-path="url(#a)"/>
<path d="m484.95 494.71v65.295" clip-path="url(#a)"/>
<path d="m173.16 494.71v65.295" clip-path="url(#a)"/>
<path d="m206.56 494.71v65.295" clip-path="url(#a)"/>
<path d="m50.667 494.71v65.295" clip-path="url(#a)"/>
<path d="m61.802 494.71v65.295" clip-path="url(#a)"/>
<path d="m76.65 494.71v65.295" clip-path="url(#a)"/>
<path d="m329.05 494.71v65.295" clip-path="url(#a)"/>
<path d="m1064 494.71v65.295" clip-path="url(#a)"/>
</g>
<path d="m154.47 57.303v6.0162q0 2.4 2.4 2.4h7.7425q2.4 0 2.4-2.4v-6.0162q0-2.4-2.4-2.4h-7.7425q-2.4 0-2.4 2.4z" clip-path="url(#a)" fill="#fff" stroke="#fff"/>
<g clip-path="url(#a)">
<defs>
<path id="w" d="m9.8125 72.906h9.8594v-29.891h35.844v29.891h9.8594v-72.906h-9.8594v34.719h-35.844v-34.719h-9.8594z"/>
</defs>
<g transform="translate(158.53 57.303) rotate(90) scale(.08 -.08)">
<use xlink:href="#w"/>
</g>
</g>
<path d="m117.14 265.61 1.5341-5.2531q0.67278-2.3038-1.631-2.9766l-7.4321-2.1704q-2.3038-0.67278-2.9766 1.631l-1.5341 5.2531q-0.67278 2.3038 1.631 2.9766l7.4321 2.1704q2.3038 0.67278 2.9766-1.631z" clip-path="url(#a)" fill="#fff" stroke="#fff"/>
<g clip-path="url(#a)">
<defs>
<path id="o" d="m34.188 63.188-13.391-36.281h26.812zm-5.5781 9.7188h11.188l27.781-72.906h-10.25l-6.6406 18.703h-32.859l-6.6406-18.703h-10.406z"/>
</defs>
<g transform="translate(113.24 264.47) rotate(-73.72) scale(.08 -.08)">
<use xlink:href="#o"/>
</g>
</g>
<path d="m139.41 297.69 0.68308-5.0326q0.32279-2.3782-2.0554-2.701l-7.6722-1.0413q-2.3782-0.32279-2.701 2.0554l-0.68308 5.0326q-0.32279 2.3782 2.0554 2.701l7.6722 1.0413q2.3782 0.32279 2.701-2.0554z" clip-path="url(#a)" fill="#fff" stroke="#fff"/>
<g clip-path="url(#a)">
<defs>
<path id="v" d="m53.516 70.516v-9.625q-5.6094 2.6875-10.594 4-4.9844 1.3281-9.625 1.3281-8.0469 0-12.422-3.125t-4.375-8.8906q0-4.8438 2.9062-7.3125 2.9062-2.4531 11.016-3.9688l5.9531-1.2188q11.031-2.1094 16.281-7.4062t5.25-14.172q0-10.609-7.1094-16.078-7.0938-5.4688-20.812-5.4688-5.1719 0-11.016 1.1719-5.8281 1.1719-12.078 3.4688v10.156q6-3.3594 11.766-5.0781 5.7656-1.7031 11.328-1.7031 8.4375 0 13.031 3.3125 4.5938 3.3281 4.5938 9.4844 0 5.3594-3.2969 8.3906t-10.812 4.5469l-6.0156 1.1719q-11.031 2.1875-15.969 6.875-4.9219 4.6875-4.9219 13.047 0 9.6719 6.8125 15.234t18.766 5.5625q5.1406 0 10.453-0.9375 5.3281-0.92188 10.891-2.7656z"/>
</defs>
<g transform="translate(135.39 297.14) rotate(-82.27) scale(.08 -.08)">
<use xlink:href="#v"/>
</g>
</g>
<path d="m231.75 132.18 5.0058 2.2115q2.1953 0.96986 3.1652-1.2254l3.1288-7.0821q0.96987-2.1953-1.2254-3.1652l-5.0058-2.2115q-2.1953-0.96987-3.1652 1.2254l-3.1288 7.0821q-0.96987 2.1953 1.2254 3.1652z" clip-path="url(#a)" fill="#fff" stroke="#fff"/>
<g clip-path="url(#a)">
<g transform="translate(233.39 128.47) rotate(23.835) scale(.08 -.08)">
<use xlink:href="#o"/>
</g>
</g>
<path d="m62.507 465.49 1.0212-5.4641q0.44091-2.3592-1.9182-2.8001l-7.6107-1.4224q-2.3592-0.44091-2.8001 1.9182l-1.0212 5.4641q-0.44091 2.3592 1.9182 2.8001l7.6107 1.4224q2.3592 0.44091 2.8001-1.9182z" clip-path="url(#a)" fill="#fff" stroke="#fff"/>
<g clip-path="url(#a)">
<defs>
<path id="ab" d="m44.391 34.188q3.1719-1.0781 6.1719-4.5938t6.0312-9.6719l10.016-19.922h-10.609l-9.3125 18.703q-3.625 7.3281-7.0156 9.7188t-9.25 2.3906h-10.75v-30.812h-9.8594v72.906h22.266q12.5 0 18.656-5.2344 6.1562-5.2188 6.1562-15.766 0-6.8906-3.2031-11.438-3.2031-4.5312-9.2969-6.2812zm-24.719 30.609v-25.875h12.406q7.125 0 10.766 3.2969t3.6406 9.6875-3.6406 9.6406-10.766 3.25z"/>
</defs>
<g transform="translate(58.512 464.74) rotate(-79.414) scale(.08 -.08)">
<use xlink:href="#ab"/>
</g>
</g>
<path d="m68.648 464.02 0.085979-4.6004q0.044846-2.3996-2.3547-2.4444l-7.7411-0.14468q-2.3996-0.044847-2.4444 2.3547l-0.085979 4.6004q-0.044846 2.3996 2.3547 2.4444l7.7411 0.14468q2.3996 0.044846 2.4444-2.3547z" clip-path="url(#a)" fill="#fff" stroke="#fff"/>
<g clip-path="url(#a)">
<defs>
<path id="ac" d="m9.8125 72.906h41.891v-8.3125h-32.031v-21.484h28.906v-8.2969h-28.906v-34.812h-9.8594z"/>
</defs>
<g transform="translate(64.585 463.95) rotate(-88.929) scale(.08 -.08)">
<use xlink:href="#ac"/>
</g>
</g>
<path d="m63.139 460.13 1.1249 5.4718q0.48329 2.3508 2.8341 1.8675l7.5839-1.5591q2.3508-0.48329 1.8675-2.8341l-1.1249-5.4718q-0.48329-2.3508-2.8341-1.8675l-7.5839 1.5591q-2.3508 0.48329-1.8675 2.8341z" clip-path="url(#a)" fill="#fff" stroke="#fff"/>
<g clip-path="url(#a)">
<defs>
<path id="q" d="m64.406 67.281v-10.391q-4.9844 4.6406-10.625 6.9219-5.6406 2.2969-11.984 2.2969-12.5 0-19.141-7.6406t-6.6406-22.094q0-14.406 6.6406-22.047t19.141-7.6406q6.3438 0 11.984 2.2969t10.625 6.9375v-10.312q-5.1719-3.5156-10.969-5.2812-5.7812-1.75-12.219-1.75-16.562 0-26.094 10.125-9.5156 10.141-9.5156 27.672 0 17.578 9.5156 27.703 9.5312 10.141 26.094 10.141 6.5312 0 12.312-1.7344 5.7969-1.7344 10.875-5.2031z"/>
</defs>
<g transform="translate(67.12 459.31) rotate(78.383) scale(.08 -.08)">
<use xlink:href="#q"/>
</g>
</g>
<path d="m104.12 545.07 5.6836-33.326q0.40348-2.3658-1.9624-2.7693l-7.6323-1.3016q-2.3658-0.40348-2.7693 1.9624l-5.6836 33.326q-0.40348 2.3658 1.9624 2.7693l7.6323 1.3016q2.3658 0.40348 2.7693-1.9624z" clip-path="url(#a)" fill="#fff" stroke="#fff"/>
<g clip-path="url(#a)">
<defs>
<path id="l" d="m-0.29688 72.906h61.672v-8.3125h-25.875v-64.594h-9.9062v64.594h-25.891z"/>
<path id="c" d="m56.203 29.594v-4.3906h-41.312q0.59375-9.2812 5.5938-14.141t13.938-4.8594q5.1719 0 10.031 1.2656t9.6562 3.8125v-8.5q-4.8438-2.0469-9.9219-3.125t-10.297-1.0781q-13.094 0-20.734 7.6094-7.6406 7.625-7.6406 20.625 0 13.422 7.25 21.297 7.25 7.8906 19.562 7.8906 11.031 0 17.453-7.1094 6.4219-7.0938 6.4219-19.297zm-8.9844 2.6406q-0.09375 7.3594-4.125 11.75-4.0312 4.4062-10.672 4.4062-7.5156 0-12.031-4.25t-5.2031-11.969z"/>
<path id="i" d="m41.109 46.297q-1.5156 0.875-3.2969 1.2812-1.7812 0.42188-3.9219 0.42188-7.625 0-11.703-4.9531t-4.0781-14.234v-28.812h-9.0312v54.688h9.0312v-8.5q2.8438 4.9844 7.375 7.3906 4.5469 2.4219 11.047 2.4219 0.92188 0 2.0469-0.125 1.125-0.10938 2.4844-0.35938z"/>
<path id="k" d="m52 44.188q3.375 6.0625 8.0625 8.9375t11.031 2.875q8.5469 0 13.188-5.9844 4.6406-5.9688 4.6406-17v-33.016h-9.0312v32.719q0 7.8594-2.7969 11.656-2.7812 3.8125-8.4844 3.8125-6.9844 0-11.047-4.6406-4.0469-4.625-4.0469-12.641v-30.906h-9.0312v32.719q0 7.9062-2.7812 11.688t-8.5938 3.7812q-6.8906 0-10.953-4.6562-4.0469-4.6562-4.0469-12.625v-30.906h-9.0312v54.688h9.0312v-8.5q3.0781 5.0312 7.375 7.4219t10.203 2.3906q5.9688 0 10.141-3.0312 4.1719-3.0156 6.1719-8.7812z"/>
<path id="h" d="m9.4219 54.688h8.9844v-54.688h-8.9844zm0 21.297h8.9844v-11.391h-8.9844z"/>
<path id="f" d="m54.891 33.016v-33.016h-8.9844v32.719q0 7.7656-3.0312 11.609-3.0312 3.8594-9.0781 3.8594-7.2812 0-11.484-4.6406-4.2031-4.625-4.2031-12.641v-30.906h-9.0312v54.688h9.0312v-8.5q3.2344 4.9375 7.5938 7.375 4.375 2.4375 10.094 2.4375 9.4219 0 14.25-5.8281 4.8438-5.8281 4.8438-17.156z"/>
<path id="g" d="m34.281 27.484q-10.891 0-15.094-2.4844t-4.2031-8.5q0-4.7812 3.1562-7.5938 3.1562-2.7969 8.5625-2.7969 7.4844 0 12 5.2969t4.5156 14.078v2zm17.922 3.7188v-31.203h-8.9844v8.2969q-3.0781-4.9688-7.6719-7.3438t-11.234-2.375q-8.3906 0-13.359 4.7188-4.9531 4.7188-4.9531 12.625 0 9.2188 6.1719 13.906 6.1875 4.6875 18.438 4.6875h12.609v0.89062q0 6.2031-4.0781 9.5938t-11.453 3.3906q-4.6875 0-9.1406-1.125-4.4375-1.125-8.5312-3.375v8.3125q4.9219 1.9062 9.5625 2.8438 4.6406 0.95312 9.0312 0.95312 11.875 0 17.734-6.1562 5.8594-6.1406 5.8594-18.641z"/>
<path id="j" d="m9.4219 75.984h8.9844v-75.984h-8.9844z"/>
</defs>
<g transform="translate(100.11 544.39) rotate(-80.322) scale(.08 -.08)">
<use xlink:href="#l"/>
<use x="44.083984" xlink:href="#c"/>
<use x="105.607422" xlink:href="#i"/>
<use x="144.970703" xlink:href="#k"/>
<use x="242.382812" xlink:href="#h"/>
<use x="270.166016" xlink:href="#f"/>
<use x="333.544922" xlink:href="#g"/>
<use x="394.824219" xlink:href="#j"/>
</g>
</g>
<path d="m102.89 511.74 5.6836 33.326q0.40348 2.3658 2.7693 1.9624l7.6323-1.3016q2.3658-0.40348 1.9624-2.7693l-5.6836-33.326q-0.40348-2.3658-2.7693-1.9624l-7.6323 1.3016q-2.3658 0.40348-1.9624 2.7693z" clip-path="url(#a)" fill="#fff" stroke="#fff"/>
<g clip-path="url(#a)">
<g transform="translate(106.89 511.06) rotate(80.322) scale(.08 -.08)">
<use xlink:href="#l"/>
<use x="44.083984" xlink:href="#c"/>
<use x="105.607422" xlink:href="#i"/>
<use x="144.970703" xlink:href="#k"/>
<use x="242.382812" xlink:href="#h"/>
<use x="270.166016" xlink:href="#f"/>
<use x="333.544922" xlink:href="#g"/>
<use x="394.824219" xlink:href="#j"/>
</g>
</g>
<path d="m232.7 332.82 2.0832-4.1027q1.0866-2.1399-1.0534-3.2265l-6.9035-3.5054q-2.1399-1.0866-3.2265 1.0534l-2.0832 4.1027q-1.0866 2.1399 1.0534 3.2265l6.9035 3.5054q2.1399 1.0866 3.2265-1.0534z" clip-path="url(#a)" fill="#fff" stroke="#fff"/>
<g clip-path="url(#a)">
<g transform="translate(229.07 330.98) rotate(-63.08) scale(.08 -.08)">
<use xlink:href="#ac"/>
</g>
</g>
<path d="m283.88 331.68 1.0261-4.9498q0.48717-2.35-1.8629-2.8372l-7.5813-1.5716q-2.35-0.48717-2.8372 1.8629l-1.0261 4.9498q-0.48717 2.35 1.8629 2.8372l7.5813 1.5716q2.35 0.48717 2.8372-1.8629z" clip-path="url(#a)" fill="#fff" stroke="#fff"/>
<g clip-path="url(#a)">
<defs>
<path id="x" d="m9.8125 72.906h46.094v-8.3125h-36.234v-21.578h34.719v-8.2969h-34.719v-26.422h37.109v-8.2969h-46.969z"/>
</defs>
<g transform="translate(279.9 330.85) rotate(-78.288) scale(.08 -.08)">
<use xlink:href="#x"/>
</g>
</g>
<path d="m304.68 331.24 0.47255-5.5662q0.20302-2.3914-2.1884-2.5944l-7.7147-0.65495q-2.3914-0.20302-2.5944 2.1884l-0.47255 5.5662q-0.20302 2.3914 2.1884 2.5944l7.7147 0.65495q2.3914 0.20302 2.5944-2.1884z" clip-path="url(#a)" fill="#fff" stroke="#fff"/>
<g clip-path="url(#a)">
<g transform="translate(300.63 330.9) rotate(-85.147) scale(.08 -.08)">
<use xlink:href="#q"/>
</g>
</g>
<path d="m272.24 299.25 1.6355-4.7831q0.77652-2.2709-1.4944-3.0474l-7.326-2.5051q-2.2709-0.77652-3.0474 1.4944l-1.6355 4.7831q-0.77652 2.2709 1.4944 3.0474l7.326 2.5051q2.2709 0.77652 3.0474-1.4944z" clip-path="url(#a)" fill="#fff" stroke="#fff"/>
<g clip-path="url(#a)">
<g transform="translate(268.39 297.93) rotate(-71.122) scale(.08 -.08)">
<use xlink:href="#x"/>
</g>
</g>
<path d="m480.16 200.36 4.9605 0.97288q2.3551 0.4619 2.817-1.8932l1.4901-7.5978q0.4619-2.3551-1.8932-2.817l-4.9605-0.97288q-2.3551-0.4619-2.817 1.8932l-1.4901 7.5978q-0.4619 2.3551 1.8932 2.817z" clip-path="url(#a)" fill="#fff" stroke="#fff"/>
<g clip-path="url(#a)">
<g transform="translate(480.94 196.37) rotate(11.096) scale(.08 -.08)">
<use xlink:href="#x"/>
</g>
</g>
<path d="m314.54 325.31 0.28446 5.8481q0.1166 2.3972 2.5138 2.2806l7.7334-0.37616q2.3972-0.1166 2.2806-2.5138l-0.28446-5.8481q-0.1166-2.3972-2.5138-2.2806l-7.7334 0.37616q-2.3972 0.1166-2.2806 2.5138z" clip-path="url(#a)" fill="#fff" stroke="#fff"/>
<g clip-path="url(#a)">
<defs>
<path id="ai" d="m8.6875 72.906h9.9219v-44.297q0-11.719 4.2344-16.875 4.25-5.1406 13.781-5.1406 9.4688 0 13.719 5.1406 4.25 5.1562 4.25 16.875v44.297h9.9062v-45.516q0-14.25-7.0625-21.531-7.0469-7.2812-20.812-7.2812-13.828 0-20.891 7.2812-7.0469 7.2812-7.0469 21.531z"/>
</defs>
<g transform="translate(318.6 325.11) rotate(87.215) scale(.08 -.08)">
<use xlink:href="#ai"/>
</g>
</g>
<path d="m137.19 510.45v33.808q0 2.4 2.4 2.4h7.7425q2.4 0 2.4-2.4v-33.808q0-2.4-2.4-2.4h-7.7425q-2.4 0-2.4 2.4z" clip-path="url(#a)" fill="#fff" stroke="#fff"/>
<g clip-path="url(#a)">
<g transform="translate(141.26 510.45) rotate(90) scale(.08 -.08)">
<use xlink:href="#l"/>
<use x="44.083984" xlink:href="#c"/>
<use x="105.607422" xlink:href="#i"/>
<use x="144.970703" xlink:href="#k"/>
<use x="242.382812" xlink:href="#h"/>
<use x="270.166016" xlink:href="#f"/>
<use x="333.544922" xlink:href="#g"/>
<use x="394.824219" xlink:href="#j"/>
</g>
</g>
<path d="m237.41 510.45v33.808q0 2.4 2.4 2.4h7.7425q2.4 0 2.4-2.4v-33.808q0-2.4-2.4-2.4h-7.7425q-2.4 0-2.4 2.4z" clip-path="url(#a)" fill="#fff" stroke="#fff"/>
<g clip-path="url(#a)">
<g transform="translate(241.48 510.45) rotate(90) scale(.08 -.08)">
<use xlink:href="#l"/>
<use x="44.083984" xlink:href="#c"/>
<use x="105.607422" xlink:href="#i"/>
<use x="144.970703" xlink:href="#k"/>
<use x="242.382812" xlink:href="#h"/>
<use x="270.166016" xlink:href="#f"/>
<use x="333.544922" xlink:href="#g"/>
<use x="394.824219" xlink:href="#j"/>
</g>
</g>
<path d="m278.24 510.45v33.808q0 2.4 2.4 2.4h7.7425q2.4 0 2.4-2.4v-33.808q0-2.4-2.4-2.4h-7.7425q-2.4 0-2.4 2.4z" clip-path="url(#a)" fill="#fff" stroke="#fff"/>
<g clip-path="url(#a)">
<g transform="translate(282.31 510.45) rotate(90) scale(.08 -.08)">
<use xlink:href="#l"/>
<use x="44.083984" xlink:href="#c"/>
<use x="105.607422" xlink:href="#i"/>
<use x="144.970703" xlink:href="#k"/>
<use x="242.382812" xlink:href="#h"/>
<use x="270.166016" xlink:href="#f"/>
<use x="333.544922" xlink:href="#g"/>
<use x="394.824219" xlink:href="#j"/>
</g>
</g>
<path d="m246.53 463.95 3.7757 3.9613q1.6559 1.7373 3.3931 0.081392l5.6045-5.3419q1.7373-1.6559 0.081393-3.3931l-3.7757-3.9613q-1.6559-1.7373-3.3931-0.081392l-5.6045 5.3419q-1.7373 1.6559-0.081392 3.3931z" clip-path="url(#a)" fill="#fff" stroke="#fff"/>
<g clip-path="url(#a)">
<g transform="translate(249.48 461.15) rotate(46.374) scale(.08 -.08)">
<use xlink:href="#o"/>
</g>
</g>
<path d="m200.54 467.79 3.6284-4.978q1.4136-1.9395-0.52584-3.3531l-6.2569-4.5605q-1.9395-1.4136-3.3531 0.52584l-3.6284 4.978q-1.4136 1.9395 0.52584 3.3531l6.2569 4.5605q1.9395 1.4136 3.3531-0.52584z" clip-path="url(#a)" fill="#fff" stroke="#fff"/>
<g clip-path="url(#a)">
<defs>
<path id="aj" d="m19.672 64.797v-56.688h11.922q15.094 0 22.094 6.8281 7 6.8438 7 21.594 0 14.641-7 21.453t-22.094 6.8125zm-9.8594 8.1094h20.266q21.188 0 31.094-8.8125 9.9219-8.8125 9.9219-27.562 0-18.859-9.9688-27.703-9.9531-8.8281-31.047-8.8281h-20.266z"/>
</defs>
<g transform="translate(197.25 465.39) rotate(-53.912) scale(.08 -.08)">
<use xlink:href="#aj"/>
</g>
</g>
<path d="m219.55 465.45 1.1114-4.9557q0.5252-2.3418-1.8166-2.867l-7.5548-1.6943q-2.3418-0.5252-2.867 1.8166l-1.1114 4.9557q-0.5252 2.3418 1.8166 2.867l7.5548 1.6943q2.3418 0.5252 2.867-1.8166z" clip-path="url(#a)" fill="#fff" stroke="#fff"/>
<g clip-path="url(#a)">
<g transform="translate(215.59 464.56) rotate(-77.359) scale(.08 -.08)">
<use xlink:href="#v"/>
</g>
</g>
<path d="m471.13 368.16 4.4421-3.1962q1.9481-1.4017 0.54638-3.3498l-4.522-6.2847q-1.4017-1.9481-3.3498-0.54638l-4.4421 3.1962q-1.9481 1.4017-0.54638 3.3498l4.522 6.2847q1.4017 1.9481 3.3498 0.54638z" clip-path="url(#a)" fill="#fff" stroke="#fff"/>
<g clip-path="url(#a)">
<g transform="translate(468.75 364.86) rotate(-35.736) scale(.08 -.08)">
<use xlink:href="#o"/>
</g>
</g>
<path d="m518.42 367.92 4.0098-3.8498q1.7312-1.6622 0.069069-3.3934l-5.3622-5.585q-1.6622-1.7312-3.3934-0.06907l-4.0098 3.8498q-1.7312 1.6622-0.06907 3.3934l5.3622 5.585q1.6622 1.7312 3.3934 0.06907z" clip-path="url(#a)" fill="#fff" stroke="#fff"/>
<g clip-path="url(#a)">
<g transform="translate(515.61 364.98) rotate(-43.834) scale(.08 -.08)">
<use xlink:href="#ab"/>
</g>
</g>
<path d="m558.53 334.72 3.845-3.8941q1.6862-1.7078-0.021562-3.394l-5.5094-5.4399q-1.7078-1.6862-3.394 0.021563l-3.845 3.8941q-1.6862 1.7078 0.021562 3.394l5.5094 5.4399q1.7078 1.6862 3.394-0.021562z" clip-path="url(#a)" fill="#fff" stroke="#fff"/>
<g clip-path="url(#a)">
<g transform="translate(555.63 331.86) rotate(-45.364) scale(.08 -.08)">
<use xlink:href="#o"/>
</g>
</g>
<path d="m620.08 333.53 2.2595-5.7306q0.88033-2.2327-1.3524-3.113l-7.2028-2.84q-2.2327-0.88033-3.113 1.3524l-2.2595 5.7306q-0.88033 2.2327 1.3524 3.113l7.2028 2.84q2.2327 0.88033 3.113-1.3524z" clip-path="url(#a)" fill="#fff" stroke="#fff"/>
<g clip-path="url(#a)">
<g transform="translate(616.3 332.04) rotate(-68.481) scale(.08 -.08)">
<use xlink:href="#aj"/>
</g>
</g>
<path d="m746.05 266.72 5.1665 1.8043q2.2658 0.7913 3.0571-1.4745l2.5528-7.3096q0.7913-2.2658-1.4745-3.0571l-5.1665-1.8043q-2.2658-0.7913-3.0571 1.4745l-2.5528 7.3096q-0.7913 2.2658 1.4745 3.0571z" clip-path="url(#a)" fill="#fff" stroke="#fff"/>
<g clip-path="url(#a)">
<g transform="translate(747.39 262.88) rotate(19.251) scale(.08 -.08)">
<use xlink:href="#o"/>
</g>
</g>
<path d="m810.9 364.78 3.7245 3.0654q1.8531 1.5252 3.3782-0.32792l4.9202-5.9781q1.5252-1.8531-0.32792-3.3782l-3.7245-3.0654q-1.8531-1.5252-3.3782 0.32792l-4.9202 5.9781q-1.5252 1.8531 0.32792 3.3782z" clip-path="url(#a)" fill="#fff" stroke="#fff"/>
<g clip-path="url(#a)">
<defs>
<path id="ap" d="m19.672 64.797v-27.391h12.406q6.8906 0 10.641 3.5625 3.7656 3.5625 3.7656 10.156 0 6.5469-3.7656 10.109-3.75 3.5625-10.641 3.5625zm-9.8594 8.1094h22.266q12.266 0 18.531-5.5469 6.2812-5.5469 6.2812-16.234 0-10.797-6.2812-16.312-6.2656-5.5156-18.531-5.5156h-12.406v-29.297h-9.8594z"/>
</defs>
<g transform="translate(813.48 361.64) rotate(39.456) scale(.08 -.08)">
<use xlink:href="#ap"/>
</g>
</g>
<path d="m853.55 365.12 4.9062 3.1954q2.0111 1.3098 3.3209-0.70125l4.2255-6.4878q1.3098-2.0111-0.70125-3.3209l-4.9062-3.1954q-2.0111-1.3098-3.3209 0.70125l-4.2255 6.4878q-1.3098 2.0111 0.70125 3.3209z" clip-path="url(#a)" fill="#fff" stroke="#fff"/>
<g clip-path="url(#a)">
<g transform="translate(855.77 361.72) rotate(33.076) scale(.08 -.08)">
<use xlink:href="#ai"/>
</g>
</g>
<path d="m371.04 510.45v33.808q0 2.4 2.4 2.4h7.7425q2.4 0 2.4-2.4v-33.808q0-2.4-2.4-2.4h-7.7425q-2.4 0-2.4 2.4z" clip-path="url(#a)" fill="#fff" stroke="#fff"/>
<g clip-path="url(#a)">
<g transform="translate(375.1 510.45) rotate(90) scale(.08 -.08)">
<use xlink:href="#l"/>
<use x="44.083984" xlink:href="#c"/>
<use x="105.607422" xlink:href="#i"/>
<use x="144.970703" xlink:href="#k"/>
<use x="242.382812" xlink:href="#h"/>
<use x="270.166016" xlink:href="#f"/>
<use x="333.544922" xlink:href="#g"/>
<use x="394.824219" xlink:href="#j"/>
</g>
</g>
<path d="m448.08 466.16 1.7836-4.2415q0.93031-2.2124-1.282-3.1427l-7.1372-3.0012q-2.2124-0.93031-3.1427 1.282l-1.7836 4.2415q-0.93031 2.2124 1.282 3.1427l7.1372 3.0012q2.2124 0.93031 3.1427-1.282z" clip-path="url(#a)" fill="#fff" stroke="#fff"/>
<g clip-path="url(#a)">
<g transform="translate(444.34 464.58) rotate(-67.193) scale(.08 -.08)">
<use xlink:href="#ac"/>
</g>
</g>
<path d="m464.17 461.46 2.1654 5.1495q0.93031 2.2124 3.1427 1.282l7.1372-3.0012q2.2124-0.93031 1.282-3.1427l-2.1654-5.1495q-0.93031-2.2124-3.1427-1.282l-7.1372 3.0012q-2.2124 0.93031-1.282 3.1427z" clip-path="url(#a)" fill="#fff" stroke="#fff"/>
<g clip-path="url(#a)">
<g transform="translate(467.92 459.88) rotate(67.193) scale(.08 -.08)">
<use xlink:href="#q"/>
</g>
</g>
<path d="m564.58 466.81 2.3915-5.018q1.0325-2.1665-1.134-3.1991l-6.9894-3.3309q-2.1665-1.0325-3.1991 1.134l-2.3915 5.018q-1.0325 2.1665 1.134 3.1991l6.9894 3.3309q2.1665 1.0325 3.1991-1.134z" clip-path="url(#a)" fill="#fff" stroke="#fff"/>
<g clip-path="url(#a)">
<g transform="translate(560.91 465.06) rotate(-64.519) scale(.08 -.08)">
<use xlink:href="#ab"/>
</g>
</g>
<path d="m584.81 461.78 2.4033 5.0429q1.0325 2.1665 3.1991 1.134l6.9894-3.3309q2.1665-1.0325 1.134-3.1991l-2.4033-5.0429q-1.0325-2.1665-3.1991-1.134l-6.9894 3.3309q-2.1665 1.0325-1.134 3.1991z" clip-path="url(#a)" fill="#fff" stroke="#fff"/>
<g clip-path="url(#a)">
<g transform="translate(588.47 460.03) rotate(64.519) scale(.08 -.08)">
<use xlink:href="#q"/>
</g>
</g>
<path d="m824.82 334.36 3.046-4.0342q1.4462-1.9154-0.46918-3.3615l-6.179-4.6654q-1.9154-1.4462-3.3615 0.46918l-3.046 4.0342q-1.4462 1.9154 0.46918 3.3615l6.179 4.6654q1.9154 1.4462 3.3615-0.46918z" clip-path="url(#a)" fill="#fff" stroke="#fff"/>
<g clip-path="url(#a)">
<g transform="translate(821.58 331.91) rotate(-52.946) scale(.08 -.08)">
<use xlink:href="#x"/>
</g>
</g>
<path d="m864.99 393.77 1.3686 5.416q0.58798 2.3269 2.9148 1.7389l7.5066-1.8968q2.3269-0.58797 1.7389-2.9148l-1.3686-5.416q-0.58797-2.3269-2.9148-1.7389l-7.5066 1.8968q-2.3269 0.58797-1.7389 2.9148z" clip-path="url(#a)" fill="#fff" stroke="#fff"/>
<g clip-path="url(#a)">
<g transform="translate(868.93 392.77) rotate(75.819) scale(.08 -.08)">
<use xlink:href="#q"/>
</g>
</g>
<path d="m972.36 510.45v33.808q0 2.4 2.4 2.4h7.7425q2.4 0 2.4-2.4v-33.808q0-2.4-2.4-2.4h-7.7425q-2.4 0-2.4 2.4z" clip-path="url(#a)" fill="#fff" stroke="#fff"/>
<g clip-path="url(#a)">
<g transform="translate(976.42 510.45) rotate(90) scale(.08 -.08)">
<use xlink:href="#l"/>
<use x="44.083984" xlink:href="#c"/>
<use x="105.607422" xlink:href="#i"/>
<use x="144.970703" xlink:href="#k"/>
<use x="242.382812" xlink:href="#h"/>
<use x="270.166016" xlink:href="#f"/>
<use x="333.544922" xlink:href="#g"/>
<use x="394.824219" xlink:href="#j"/>
</g>
</g>
<path d="m775.5 432.67 1.608-4.1574q0.86578-2.2384-1.3726-3.1042l-7.2212-2.793q-2.2384-0.86578-3.1042 1.3726l-1.608 4.1574q-0.86578 2.2384 1.3726 3.1042l7.2212 2.793q2.2384 0.86578 3.1042-1.3726z" clip-path="url(#a)" fill="#fff" stroke="#fff"/>
<g clip-path="url(#a)">
<defs>
<path id="ar" d="m9.8125 72.906h9.8594v-64.609h35.5v-8.2969h-45.359z"/>
</defs>
<g transform="translate(771.71 431.2) rotate(-68.854) scale(.08 -.08)">
<use xlink:href="#ar"/>
</g>
</g>
<path d="m796.6 399.18 0.93909-5.9425q0.37462-2.3706-1.996-2.7452l-7.6476-1.2085q-2.3706-0.37462-2.7452 1.996l-0.93909 5.9425q-0.37462 2.3706 1.996 2.7452l7.6476 1.2085q2.3706 0.37462 2.7452-1.996z" clip-path="url(#a)" fill="#fff" stroke="#fff"/>
<g clip-path="url(#a)">
<g transform="translate(792.58 398.54) rotate(-81.02) scale(.08 -.08)">
<use xlink:href="#w"/>
</g>
</g>
<path d="m820.42 397.29 4.0962 4.4064q1.634 1.7578 3.3919 0.12378l5.6708-5.2715q1.7578-1.634 0.12378-3.3919l-4.0962-4.4064q-1.634-1.7578-3.3919-0.12378l-5.6708 5.2715q-1.7578 1.634-0.12378 3.3919z" clip-path="url(#a)" fill="#fff" stroke="#fff"/>
<g clip-path="url(#a)">
<g transform="translate(823.4 394.53) rotate(47.09) scale(.08 -.08)">
<use xlink:href="#w"/>
</g>
</g>
<path d="m890.7 510.45v33.808q0 2.4 2.4 2.4h7.7425q2.4 0 2.4-2.4v-33.808q0-2.4-2.4-2.4h-7.7425q-2.4 0-2.4 2.4z" clip-path="url(#a)" fill="#fff" stroke="#fff"/>
<g clip-path="url(#a)">
<g transform="translate(894.76 510.45) rotate(90) scale(.08 -.08)">
<use xlink:href="#l"/>
<use x="44.083984" xlink:href="#c"/>
<use x="105.607422" xlink:href="#i"/>
<use x="144.970703" xlink:href="#k"/>
<use x="242.382812" xlink:href="#h"/>
<use x="270.166016" xlink:href="#f"/>
<use x="333.544922" xlink:href="#g"/>
<use x="394.824219" xlink:href="#j"/>
</g>
</g>
<path d="m738.51 510.45v33.808q0 2.4 2.4 2.4h7.7425q2.4 0 2.4-2.4v-33.808q0-2.4-2.4-2.4h-7.7425q-2.4 0-2.4 2.4z" clip-path="url(#a)" fill="#fff" stroke="#fff"/>
<g clip-path="url(#a)">
<g transform="translate(742.57 510.45) rotate(90) scale(.08 -.08)">
<use xlink:href="#l"/>
<use x="44.083984" xlink:href="#c"/>
<use x="105.607422" xlink:href="#i"/>
<use x="144.970703" xlink:href="#k"/>
<use x="242.382812" xlink:href="#h"/>
<use x="270.166016" xlink:href="#f"/>
<use x="333.544922" xlink:href="#g"/>
<use x="394.824219" xlink:href="#j"/>
</g>
</g>
<path d="m835.73 465.6 4.704 2.7966q2.063 1.2265 3.2894-0.83648l3.9566-6.6552q1.2265-2.063-0.83649-3.2894l-4.704-2.7966q-2.063-1.2265-3.2894 0.83648l-3.9566 6.6552q-1.2265 2.063 0.83648 3.2894z" clip-path="url(#a)" fill="#fff" stroke="#fff"/>
<g clip-path="url(#a)">
<g transform="translate(837.81 462.1) rotate(30.732) scale(.08 -.08)">
<use xlink:href="#o"/>
</g>
</g>
<path d="m730.96 468.29 4.3655-2.5954q2.063-1.2265 0.83649-3.2894l-3.9566-6.6552q-1.2265-2.063-3.2894-0.83649l-4.3655 2.5954q-2.063 1.2265-0.83649 3.2894l3.9566 6.6552q1.2265 2.063 3.2894 0.83648z" clip-path="url(#a)" fill="#fff" stroke="#fff"/>
<g clip-path="url(#a)">
<g transform="translate(728.88 464.8) rotate(-30.732) scale(.08 -.08)">
<use xlink:href="#v"/>
</g>
</g>
<path d="m870.69 462.43 2.7763 4.716q1.2176 2.0682 3.2858 0.85064l6.6721-3.928q2.0682-1.2176 0.85064-3.2858l-2.7763-4.716q-1.2176-2.0682-3.2858-0.85064l-6.6721 3.928q-2.0682 1.2176-0.85064 3.2858z" clip-path="url(#a)" fill="#fff" stroke="#fff"/>
<g clip-path="url(#a)">
<g transform="translate(874.19 460.37) rotate(59.514) scale(.08 -.08)">
<use xlink:href="#o"/>
</g>
</g>
<path d="m842.62 466.97 2.5766-4.3766q1.2176-2.0682-0.85064-3.2858l-6.6721-3.928q-2.0682-1.2176-3.2858 0.85064l-2.5766 4.3766q-1.2176 2.0682 0.85064 3.2858l6.6721 3.928q2.0682 1.2176 3.2858-0.85064z" clip-path="url(#a)" fill="#fff" stroke="#fff"/>
<g clip-path="url(#a)">
<g transform="translate(839.12 464.91) rotate(-59.514) scale(.08 -.08)">
<use xlink:href="#v"/>
</g>
</g>
<path d="m812.75 510.45v33.808q0 2.4 2.4 2.4h7.7425q2.4 0 2.4-2.4v-33.808q0-2.4-2.4-2.4h-7.7425q-2.4 0-2.4 2.4z" clip-path="url(#a)" fill="#fff" stroke="#fff"/>
<g clip-path="url(#a)">
<g transform="translate(816.81 510.45) rotate(90) scale(.08 -.08)">
<use xlink:href="#l"/>
<use x="44.083984" xlink:href="#c"/>
<use x="105.607422" xlink:href="#i"/>
<use x="144.970703" xlink:href="#k"/>
<use x="242.382812" xlink:href="#h"/>
<use x="270.166016" xlink:href="#f"/>
<use x="333.544922" xlink:href="#g"/>
<use x="394.824219" xlink:href="#j"/>
</g>
</g>
<path d="m667.99 510.45v33.808q0 2.4 2.4 2.4h7.7425q2.4 0 2.4-2.4v-33.808q0-2.4-2.4-2.4h-7.7425q-2.4 0-2.4 2.4z" clip-path="url(#a)" fill="#fff" stroke="#fff"/>
<g clip-path="url(#a)">
<g transform="translate(672.05 510.45) rotate(90) scale(.08 -.08)">
<use xlink:href="#l"/>
<use x="44.083984" xlink:href="#c"/>
<use x="105.607422" xlink:href="#i"/>
<use x="144.970703" xlink:href="#k"/>
<use x="242.382812" xlink:href="#h"/>
<use x="270.166016" xlink:href="#f"/>
<use x="333.544922" xlink:href="#g"/>
<use x="394.824219" xlink:href="#j"/>
</g>
</g>
<path d="m538.07 510.45v33.808q0 2.4 2.4 2.4h7.7425q2.4 0 2.4-2.4v-33.808q0-2.4-2.4-2.4h-7.7425q-2.4 0-2.4 2.4z" clip-path="url(#a)" fill="#fff" stroke="#fff"/>
<g clip-path="url(#a)">
<g transform="translate(542.13 510.45) rotate(90) scale(.08 -.08)">
<use xlink:href="#l"/>
<use x="44.083984" xlink:href="#c"/>
<use x="105.607422" xlink:href="#i"/>
<use x="144.970703" xlink:href="#k"/>
<use x="242.382812" xlink:href="#h"/>
<use x="270.166016" xlink:href="#f"/>
<use x="333.544922" xlink:href="#g"/>
<use x="394.824219" xlink:href="#j"/>
</g>
</g>
<path d="m601.17 510.45v33.808q0 2.4 2.4 2.4h7.7425q2.4 0 2.4-2.4v-33.808q0-2.4-2.4-2.4h-7.7425q-2.4 0-2.4 2.4z" clip-path="url(#a)" fill="#fff" stroke="#fff"/>
<g clip-path="url(#a)">
<g transform="translate(605.24 510.45) rotate(90) scale(.08 -.08)">
<use xlink:href="#l"/>
<use x="44.083984" xlink:href="#c"/>
<use x="105.607422" xlink:href="#i"/>
<use x="144.970703" xlink:href="#k"/>
<use x="242.382812" xlink:href="#h"/>
<use x="270.166016" xlink:href="#f"/>
<use x="333.544922" xlink:href="#g"/>
<use x="394.824219" xlink:href="#j"/>
</g>
</g>
<path d="m423 510.45v33.808q0 2.4 2.4 2.4h7.7425q2.4 0 2.4-2.4v-33.808q0-2.4-2.4-2.4h-7.7425q-2.4 0-2.4 2.4z" clip-path="url(#a)" fill="#fff" stroke="#fff"/>
<g clip-path="url(#a)">
<g transform="translate(427.07 510.45) rotate(90) scale(.08 -.08)">
<use xlink:href="#l"/>
<use x="44.083984" xlink:href="#c"/>
<use x="105.607422" xlink:href="#i"/>
<use x="144.970703" xlink:href="#k"/>
<use x="242.382812" xlink:href="#h"/>
<use x="270.166016" xlink:href="#f"/>
<use x="333.544922" xlink:href="#g"/>
<use x="394.824219" xlink:href="#j"/>
</g>
</g>
<path d="m478.68 510.45v33.808q0 2.4 2.4 2.4h7.7425q2.4 0 2.4-2.4v-33.808q0-2.4-2.4-2.4h-7.7425q-2.4 0-2.4 2.4z" clip-path="url(#a)" fill="#fff" stroke="#fff"/>
<g clip-path="url(#a)">
<g transform="translate(482.74 510.45) rotate(90) scale(.08 -.08)">
<use xlink:href="#l"/>
<use x="44.083984" xlink:href="#c"/>
<use x="105.607422" xlink:href="#i"/>
<use x="144.970703" xlink:href="#k"/>
<use x="242.382812" xlink:href="#h"/>
<use x="270.166016" xlink:href="#f"/>
<use x="333.544922" xlink:href="#g"/>
<use x="394.824219" xlink:href="#j"/>
</g>
</g>
<path d="m166.89 510.45v33.808q0 2.4 2.4 2.4h7.7425q2.4 0 2.4-2.4v-33.808q0-2.4-2.4-2.4h-7.7425q-2.4 0-2.4 2.4z" clip-path="url(#a)" fill="#fff" stroke="#fff"/>
<g clip-path="url(#a)">
<g transform="translate(170.95 510.45) rotate(90) scale(.08 -.08)">
<use xlink:href="#l"/>
<use x="44.083984" xlink:href="#c"/>
<use x="105.607422" xlink:href="#i"/>
<use x="144.970703" xlink:href="#k"/>
<use x="242.382812" xlink:href="#h"/>
<use x="270.166016" xlink:href="#f"/>
<use x="333.544922" xlink:href="#g"/>
<use x="394.824219" xlink:href="#j"/>
</g>
</g>
<path d="m200.29 510.45v33.808q0 2.4 2.4 2.4h7.7425q2.4 0 2.4-2.4v-33.808q0-2.4-2.4-2.4h-7.7425q-2.4 0-2.4 2.4z" clip-path="url(#a)" fill="#fff" stroke="#fff"/>
<g clip-path="url(#a)">
<g transform="translate(204.36 510.45) rotate(90) scale(.08 -.08)">
<use xlink:href="#l"/>
<use x="44.083984" xlink:href="#c"/>
<use x="105.607422" xlink:href="#i"/>
<use x="144.970703" xlink:href="#k"/>
<use x="242.382812" xlink:href="#h"/>
<use x="270.166016" xlink:href="#f"/>
<use x="333.544922" xlink:href="#g"/>
<use x="394.824219" xlink:href="#j"/>
</g>
</g>
<path d="m44.395 510.45v33.808q0 2.4 2.4 2.4h7.7425q2.4 0 2.4-2.4v-33.808q0-2.4-2.4-2.4h-7.7425q-2.4 0-2.4 2.4z" clip-path="url(#a)" fill="#fff" stroke="#fff"/>
<g clip-path="url(#a)">
<g transform="translate(48.459 510.45) rotate(90) scale(.08 -.08)">
<use xlink:href="#l"/>
<use x="44.083984" xlink:href="#c"/>
<use x="105.607422" xlink:href="#i"/>
<use x="144.970703" xlink:href="#k"/>
<use x="242.382812" xlink:href="#h"/>
<use x="270.166016" xlink:href="#f"/>
<use x="333.544922" xlink:href="#g"/>
<use x="394.824219" xlink:href="#j"/>
</g>
</g>
<path d="m55.531 510.45v33.808q0 2.4 2.4 2.4h7.7425q2.4 0 2.4-2.4v-33.808q0-2.4-2.4-2.4h-7.7425q-2.4 0-2.4 2.4z" clip-path="url(#a)" fill="#fff" stroke="#fff"/>
<g clip-path="url(#a)">
<g transform="translate(59.595 510.45) rotate(90) scale(.08 -.08)">
<use xlink:href="#l"/>
<use x="44.083984" xlink:href="#c"/>
<use x="105.607422" xlink:href="#i"/>
<use x="144.970703" xlink:href="#k"/>
<use x="242.382812" xlink:href="#h"/>
<use x="270.166016" xlink:href="#f"/>
<use x="333.544922" xlink:href="#g"/>
<use x="394.824219" xlink:href="#j"/>
</g>
</g>
<path d="m70.378 510.45v33.808q0 2.4 2.4 2.4h7.7425q2.4 0 2.4-2.4v-33.808q0-2.4-2.4-2.4h-7.7425q-2.4 0-2.4 2.4z" clip-path="url(#a)" fill="#fff" stroke="#fff"/>
<g clip-path="url(#a)">
<g transform="translate(74.442 510.45) rotate(90) scale(.08 -.08)">
<use xlink:href="#l"/>
<use x="44.083984" xlink:href="#c"/>
<use x="105.607422" xlink:href="#i"/>
<use x="144.970703" xlink:href="#k"/>
<use x="242.382812" xlink:href="#h"/>
<use x="270.166016" xlink:href="#f"/>
<use x="333.544922" xlink:href="#g"/>
<use x="394.824219" xlink:href="#j"/>
</g>
</g>
<path d="m322.78 510.45v33.808q0 2.4 2.4 2.4h7.7425q2.4 0 2.4-2.4v-33.808q0-2.4-2.4-2.4h-7.7425q-2.4 0-2.4 2.4z" clip-path="url(#a)" fill="#fff" stroke="#fff"/>
<g clip-path="url(#a)">
<g transform="translate(326.85 510.45) rotate(90) scale(.08 -.08)">
<use xlink:href="#l"/>
<use x="44.083984" xlink:href="#c"/>
<use x="105.607422" xlink:href="#i"/>
<use x="144.970703" xlink:href="#k"/>
<use x="242.382812" xlink:href="#h"/>
<use x="270.166016" xlink:href="#f"/>
<use x="333.544922" xlink:href="#g"/>
<use x="394.824219" xlink:href="#j"/>
</g>
</g>
<path d="m1057.7 510.45v33.808q0 2.4 2.4 2.4h7.7425q2.4 0 2.4-2.4v-33.808q0-2.4-2.4-2.4h-7.7425q-2.4 0-2.4 2.4z" clip-path="url(#a)" fill="#fff" stroke="#fff"/>
<g clip-path="url(#a)">
<g transform="translate(1061.8 510.45) rotate(90) scale(.08 -.08)">
<use xlink:href="#l"/>
<use x="44.083984" xlink:href="#c"/>
<use x="105.607422" xlink:href="#i"/>
<use x="144.970703" xlink:href="#k"/>
<use x="242.382812" xlink:href="#h"/>
<use x="270.166016" xlink:href="#f"/>
<use x="333.544922" xlink:href="#g"/>
<use x="394.824219" xlink:href="#j"/>
</g>
</g>
<defs>
<path id="b" d="m0 8.6603c2.2967 0 4.4997-0.9125 6.1237-2.5365 1.624-1.624 2.5365-3.827 2.5365-6.1237s-0.9125-4.4997-2.5365-6.1237c-1.624-1.624-3.827-2.5365-6.1237-2.5365s-4.4997 0.9125-6.1237 2.5365c-1.624 1.624-2.5365 3.827-2.5365 6.1237s0.9125 4.4997 2.5365 6.1237c1.624 1.624 3.827 2.5365 6.1237 2.5365z"/>
</defs>
<g clip-path="url(#a)" fill="#ffffff" stroke="#ffffff">
<use x="50.666667" y="560" xlink:href="#b"/>
<use x="61.802198" y="560" xlink:href="#b"/>
<use x="76.649573" y="560" xlink:href="#b"/>
<use x="95.208791" y="560" xlink:href="#b"/>
<use x="117.479853" y="560" xlink:href="#b"/>
<use x="143.462759" y="560" xlink:href="#b"/>
<use x="173.157509" y="560" xlink:href="#b"/>
<use x="206.564103" y="560" xlink:href="#b"/>
<use x="243.68254" y="560" xlink:href="#b"/>
<use x="284.512821" y="560" xlink:href="#b"/>
<use x="329.054945" y="560" xlink:href="#b"/>
<use x="377.308913" y="560" xlink:href="#b"/>
<use x="429.274725" y="560" xlink:href="#b"/>
<use x="484.952381" y="560" xlink:href="#b"/>
<use x="544.34188" y="560" xlink:href="#b"/>
<use x="607.443223" y="560" xlink:href="#b"/>
<use x="674.25641" y="560" xlink:href="#b"/>
<use x="744.781441" y="560" xlink:href="#b"/>
<use x="819.018315" y="560" xlink:href="#b"/>
<use x="896.967033" y="560" xlink:href="#b"/>
<use x="978.627595" y="560" xlink:href="#b"/>
<use x="1064" y="560" xlink:href="#b"/>
<use x="160.738053" y="26.666667" xlink:href="#b"/>
<use x="160.738053" y="93.956064" xlink:href="#b"/>
<use x="63.039479" y="428.502306" xlink:href="#b"/>
<use x="106.344322" y="494.705313" xlink:href="#b"/>
<use x="312.830358" y="161.149075" xlink:href="#b"/>
<use x="143.462759" y="494.705313" xlink:href="#b"/>
<use x="243.68254" y="494.705313" xlink:href="#b"/>
<use x="284.512821" y="494.705313" xlink:href="#b"/>
<use x="221.411477" y="428.502306" xlink:href="#b"/>
<use x="654.857608" y="228.229669" xlink:href="#b"/>
<use x="377.308913" y="494.705313" xlink:href="#b"/>
<use x="457.113553" y="428.502306" xlink:href="#b"/>
<use x="575.892552" y="428.502306" xlink:href="#b"/>
<use x="846.547823" y="295.175335" xlink:href="#b"/>
<use x="978.627595" y="494.705313" xlink:href="#b"/>
<use x="796.128612" y="361.95207" xlink:href="#b"/>
<use x="896.967033" y="494.705313" xlink:href="#b"/>
<use x="744.781441" y="494.705313" xlink:href="#b"/>
<use x="785.611722" y="428.502306" xlink:href="#b"/>
<use x="857.992674" y="428.502306" xlink:href="#b"/>
<use x="819.018315" y="494.705313" xlink:href="#b"/>
<use x="674.25641" y="494.705313" xlink:href="#b"/>
<use x="544.34188" y="494.705313" xlink:href="#b"/>
<use x="607.443223" y="494.705313" xlink:href="#b"/>
<use x="429.274725" y="494.705313" xlink:href="#b"/>
<use x="484.952381" y="494.705313" xlink:href="#b"/>
<use x="173.157509" y="494.705313" xlink:href="#b"/>
<use x="206.564103" y="494.705313" xlink:href="#b"/>
<use x="50.666667" y="494.705313" xlink:href="#b"/>
<use x="61.802198" y="494.705313" xlink:href="#b"/>
<use x="76.649573" y="494.705313" xlink:href="#b"/>
<use x="329.054945" y="494.705313" xlink:href="#b"/>
<use x="1064" y="494.705313" xlink:href="#b"/>
</g>
<g clip-path="url(#a)">
<defs>
<path id="aq" d="m9.8125 72.906h13.281l32.328-60.984v60.984h9.5625v-72.906h-13.281l-32.312 60.984v-60.984h-9.5781z"/>
<path id="aa" d="m48.688 27.297q0 9.9062-4.0781 15.547t-11.203 5.6406q-7.1406 0-11.219-5.6406t-4.0781-15.547 4.0781-15.547 11.219-5.6406q7.125 0 11.203 5.6406t4.0781 15.547zm-30.578 19.094q2.8438 4.875 7.1562 7.2344 4.3281 2.375 10.328 2.375 9.9688 0 16.188-7.9062 6.2344-7.9062 6.2344-20.797t-6.2344-20.812q-6.2188-7.9062-16.188-7.9062-6 0-10.328 2.375-4.3125 2.375-7.1562 7.25v-8.2031h-9.0312v75.984h9.0312z"/>
</defs>
<g transform="translate(34.43 562.76) scale(.1 -.1)">
<use xlink:href="#aq"/>
<use x="74.804688" xlink:href="#c"/>
<use x="136.328125" xlink:href="#aa"/>
<use x="199.804688" xlink:href="#c"/>
<use x="261.328125" xlink:href="#f"/>
</g>
</g>
<g clip-path="url(#a)">
<defs>
<path id="t" d="m45.406 46.391v29.594h8.9844v-75.984h-8.9844v8.2031q-2.8281-4.875-7.1562-7.25-4.3125-2.375-10.375-2.375-9.9062 0-16.141 7.9062-6.2188 7.9219-6.2188 20.812t6.2188 20.797q6.2344 7.9062 16.141 7.9062 6.0625 0 10.375-2.375 4.3281-2.3594 7.1562-7.2344zm-30.609-19.094q0-9.9062 4.0781-15.547t11.203-5.6406 11.219 5.6406q4.1094 5.6406 4.1094 15.547t-4.1094 15.547q-4.0938 5.6406-11.219 5.6406t-11.203-5.6406-4.0781-15.547z"/>
</defs>
<g transform="translate(53.496 562.76) scale(.1 -.1)">
<use xlink:href="#t"/>
<use x="63.476562" xlink:href="#c"/>
<use x="125" xlink:href="#i"/>
</g>
</g>
<g clip-path="url(#a)">
<defs>
<path id="as" d="m9.8125 72.906h9.8594v-30.812l32.719 30.812h12.703l-36.188-33.984 38.766-38.922h-12.984l-35.016 35.109v-35.109h-9.8594z"/>
<path id="au" d="m8.5 21.578v33.109h8.9844v-32.766q0-7.7656 3.0156-11.656 3.0312-3.875 9.0938-3.875 7.2656 0 11.484 4.6406 4.2344 4.6406 4.2344 12.656v31h8.9844v-54.688h-8.9844v8.4062q-3.2656-4.9844-7.5938-7.4062-4.3125-2.4219-10.031-2.4219-9.4219 0-14.312 5.8594-4.875 5.8594-4.875 17.141zm22.609 34.422m4.4844 19.781h9.9062v-9.8594h-9.9062zm-19.094 0h9.9062v-9.8594h-9.9062z"/>
<path id="u" d="m48.781 52.594v-8.4062q-3.8125 2.1094-7.6406 3.1562t-7.7344 1.0469q-8.75 0-13.594-5.5469-4.8281-5.5312-4.8281-15.547t4.8281-15.562q4.8438-5.5312 13.594-5.5312 3.9062 0 7.7344 1.0469t7.6406 3.1562v-8.3125q-3.7656-1.75-7.7969-2.625-4.0156-0.89062-8.5625-0.89062-12.359 0-19.641 7.7656-7.2656 7.7656-7.2656 20.953 0 13.375 7.3438 21.031 7.3594 7.6719 20.156 7.6719 4.1406 0 8.0938-0.85938 3.9531-0.84375 7.6719-2.5469z"/>
<path id="s" d="m54.891 33.016v-33.016h-8.9844v32.719q0 7.7656-3.0312 11.609-3.0312 3.8594-9.0781 3.8594-7.2812 0-11.484-4.6406-4.2031-4.625-4.2031-12.641v-30.906h-9.0312v75.984h9.0312v-29.797q3.2344 4.9375 7.5938 7.375 4.375 2.4375 10.094 2.4375 9.4219 0 14.25-5.8281 4.8438-5.8281 4.8438-17.156z"/>
</defs>
<g transform="translate(61.457 562.76) scale(.1 -.1)">
<use xlink:href="#as"/>
<use x="60.576172" xlink:href="#au"/>
<use x="123.955078" xlink:href="#u"/>
<use x="178.935547" xlink:href="#s"/>
<use x="242.314453" xlink:href="#c"/>
</g>
</g>
<g clip-path="url(#a)">
<defs>
<path id="av" d="m30.609 48.391q-7.2188 0-11.422-5.6406t-4.2031-15.453 4.1719-15.453q4.1875-5.6406 11.453-5.6406 7.1875 0 11.375 5.6562 4.2031 5.6719 4.2031 15.438 0 9.7188-4.2031 15.406-4.1875 5.6875-11.375 5.6875zm0 7.6094q11.719 0 18.406-7.625 6.7031-7.6094 6.7031-21.078 0-13.422-6.7031-21.078-6.6875-7.6406-18.406-7.6406-11.766 0-18.438 7.6406-6.6562 7.6562-6.6562 21.078 0 13.469 6.6562 21.078 6.6719 7.625 18.438 7.625zm4.6094 19.781h9.9062v-9.8594h-9.9062zm-19.094 0h9.9062v-9.8594h-9.9062z"/>
<path id="an" d="m37.109 75.984v-7.4844h-8.5938q-4.8281 0-6.7188-1.9531-1.875-1.9531-1.875-7.0312v-4.8281h14.797v-6.9844h-14.797v-47.703h-9.0312v47.703h-8.5938v6.9844h8.5938v3.8125q0 9.125 4.25 13.297 4.25 4.1875 13.469 4.1875z"/>
<path id="r" d="m18.312 70.219v-15.531h18.5v-6.9844h-18.5v-29.688q0-6.6875 1.8281-8.5938t7.4531-1.9062h9.2188v-7.5156h-9.2188q-10.406 0-14.359 3.875-3.9531 3.8906-3.9531 14.141v29.688h-6.5938v6.9844h6.5938v15.531z"/>
</defs>
<g transform="translate(77.347 562.76) scale(.1 -.1)">
<use xlink:href="#av"/>
<use x="61.181641" xlink:href="#an"/>
<use x="96.386719" xlink:href="#an"/>
<use x="131.591797" xlink:href="#f"/>
<use x="194.970703" xlink:href="#c"/>
<use x="256.494141" xlink:href="#r"/>
<use x="295.703125" xlink:href="#c"/>
</g>
</g>
<g clip-path="url(#a)">
<defs>
<path id="p" d="m44.281 53.078v-8.5q-3.7969 1.9531-7.9062 2.9219-4.0938 0.98438-8.5 0.98438-6.6875 0-10.031-2.0469t-3.3438-6.1562q0-3.125 2.3906-4.9062t9.625-3.3906l3.0781-0.6875q9.5625-2.0469 13.594-5.7812t4.0312-10.422q0-7.625-6.0312-12.078-6.0312-4.4375-16.578-4.4375-4.3906 0-9.1562 0.85938t-10.031 2.5625v9.2812q4.9844-2.5938 9.8125-3.8906 4.8281-1.2812 9.5781-1.2812 6.3438 0 9.75 2.1719 3.4219 2.1719 3.4219 6.125 0 3.6562-2.4688 5.6094-2.4531 1.9531-10.812 3.7656l-3.125 0.73438q-8.3438 1.75-12.062 5.3906-3.7031 3.6406-3.7031 9.9844 0 7.7188 5.4688 11.906 5.4688 4.2031 15.531 4.2031 4.9688 0 9.3594-0.73438 4.4062-0.71875 8.1094-2.1875z"/>
</defs>
<g transform="translate(107.57 562.76) scale(.1 -.1)">
<use xlink:href="#p"/>
<use x="52.099609" xlink:href="#h"/>
<use x="79.882812" xlink:href="#u"/>
<use x="134.863281" xlink:href="#s"/>
</g>
</g>
<g clip-path="url(#a)">
<g transform="translate(135.83 562.76) scale(.1 -.1)">
<use xlink:href="#c"/>
<use x="61.523438" xlink:href="#h"/>
<use x="89.306641" xlink:href="#f"/>
</g>
</g>
<g clip-path="url(#a)">
<defs>
<path id="ax" d="m14.797 27.297q0-9.9062 4.0781-15.547t11.203-5.6406 11.219 5.6406q4.1094 5.6406 4.1094 15.547t-4.1094 15.547q-4.0938 5.6406-11.219 5.6406t-11.203-5.6406-4.0781-15.547zm30.609-19.094q-2.8281-4.875-7.1562-7.25-4.3125-2.375-10.375-2.375-9.9062 0-16.141 7.9062-6.2188 7.9219-6.2188 20.812t6.2188 20.797q6.2344 7.9062 16.141 7.9062 6.0625 0 10.375-2.375 4.3281-2.3594 7.1562-7.2344v8.2969h8.9844v-75.484h-8.9844z"/>
<path id="am" d="m8.5 21.578v33.109h8.9844v-32.766q0-7.7656 3.0156-11.656 3.0312-3.875 9.0938-3.875 7.2656 0 11.484 4.6406 4.2344 4.6406 4.2344 12.656v31h8.9844v-54.688h-8.9844v8.4062q-3.2656-4.9844-7.5938-7.4062-4.3125-2.4219-10.031-2.4219-9.4219 0-14.312 5.8594-4.875 5.8594-4.875 17.141z"/>
</defs>
<g transform="translate(152.62 562.76) scale(.1 -.1)">
<use xlink:href="#aa"/>
<use x="63.476562" xlink:href="#c"/>
<use x="125" xlink:href="#ax"/>
<use x="188.476562" xlink:href="#am"/>
<use x="251.855469" xlink:href="#c"/>
<use x="313.378906" xlink:href="#k"/>
</g>
</g>
<g clip-path="url(#a)">
<defs>
<path id="bb" d="m45.406 27.984q0 9.7656-4.0312 15.125-4.0156 5.375-11.297 5.375-7.2188 0-11.25-5.375-4.0312-5.3594-4.0312-15.125 0-9.7188 4.0312-15.094t11.25-5.375q7.2812 0 11.297 5.375 4.0312 5.375 4.0312 15.094zm8.9844-21.203q0-13.953-6.2031-20.766-6.1875-6.8125-18.984-6.8125-4.7344 0-8.9375 0.70312t-8.1562 2.1719v8.7344q3.9531-2.1406 7.8125-3.1562 3.8594-1.0312 7.8594-1.0312 8.8438 0 13.234 4.6094t4.3906 13.938v4.4531q-2.7812-4.8438-7.125-7.2344t-10.406-2.3906q-10.047 0-16.203 7.6562-6.1562 7.6719-6.1562 20.328 0 12.688 6.1562 20.344 6.1562 7.6719 16.203 7.6719 6.0625 0 10.406-2.3906t7.125-7.2188v8.2969h8.9844z"/>
</defs>
<g transform="translate(171.19 562.76) scale(.1 -.1)">
<use xlink:href="#c"/>
<use x="61.523438" xlink:href="#h"/>
<use x="89.306641" xlink:href="#f"/>
<use x="152.685547" xlink:href="#bb"/>
<use x="216.162109" xlink:href="#c"/>
<use x="277.685547" xlink:href="#i"/>
<use x="318.798828" xlink:href="#h"/>
<use x="346.582031" xlink:href="#u"/>
<use x="401.5625" xlink:href="#s"/>
<use x="464.941406" xlink:href="#r"/>
<use x="504.150391" xlink:href="#c"/>
<use x="565.673828" xlink:href="#r"/>
<use x="604.882812" xlink:href="#c"/>
<use x="666.40625" xlink:href="#i"/>
</g>
</g>
<g clip-path="url(#a)">
<defs>
<path id="ak" d="m19.672 34.812v-26.703h15.828q7.9531 0 11.781 3.2969 3.8438 3.2969 3.8438 10.078 0 6.8438-3.8438 10.078-3.8281 3.25-11.781 3.25zm0 29.984v-21.969h14.609q7.2188 0 10.75 2.7031 3.5469 2.7188 3.5469 8.2812 0 5.5156-3.5469 8.25-3.5312 2.7344-10.75 2.7344zm-9.8594 8.1094h25.203q11.281 0 17.375-4.6875 6.1094-4.6875 6.1094-13.328 0-6.7031-3.125-10.656t-9.1875-4.9219q7.2812-1.5625 11.312-6.5312 4.0312-4.9531 4.0312-12.375 0-9.7656-6.6406-15.094-6.6406-5.3125-18.906-5.3125h-26.172z"/>
</defs>
<g transform="translate(230.94 562.76) scale(.1 -.1)">
<use xlink:href="#ak"/>
<use x="68.603516" xlink:href="#g"/>
<use x="129.882812" xlink:href="#t"/>
<use x="193.359375" xlink:href="#c"/>
</g>
</g>
<g clip-path="url(#a)">
<g transform="translate(274.39 562.76) scale(.1 -.1)">
<use xlink:href="#p"/>
<use x="52.099609" xlink:href="#g"/>
<use x="113.378906" xlink:href="#g"/>
<use x="174.658203" xlink:href="#j"/>
</g>
</g>
<g clip-path="url(#a)">
<defs>
<path id="at" d="m11.719 12.406h10.297v-8.4062l-8-15.625h-6.2969l4 15.625z"/>
</defs>
<g transform="translate(327.47 562.76) scale(.1 -.1)">
<use xlink:href="#at"/>
</g>
</g>
<g clip-path="url(#a)">
<defs>
<path id="al" d="m4.2031 54.688h8.9844l11.234-42.672 11.172 42.672h10.594l11.234-42.672 11.188 42.672h8.9844l-14.312-54.688h-10.594l-11.766 44.828-11.812-44.828h-10.609z"/>
<path id="az" d="m30.609 48.391q-7.2188 0-11.422-5.6406t-4.2031-15.453 4.1719-15.453q4.1875-5.6406 11.453-5.6406 7.1875 0 11.375 5.6562 4.2031 5.6719 4.2031 15.438 0 9.7188-4.2031 15.406-4.1875 5.6875-11.375 5.6875zm0 7.6094q11.719 0 18.406-7.625 6.7031-7.6094 6.7031-21.078 0-13.422-6.7031-21.078-6.6875-7.6406-18.406-7.6406-11.766 0-18.438 7.6406-6.6562 7.6562-6.6562 21.078 0 13.469 6.6562 21.078 6.6719 7.625 18.438 7.625z"/>
</defs>
<g transform="translate(363.55 562.76) scale(.1 -.1)">
<use xlink:href="#al"/>
<use x="81.787109" xlink:href="#az"/>
<use x="142.96875" xlink:href="#i"/>
<use x="184.082031" xlink:href="#h"/>
<use x="211.865234" xlink:href="#f"/>
</g>
</g>
<g clip-path="url(#a)">
<g transform="translate(421.63 562.76) scale(.1 -.1)">
<use xlink:href="#t"/>
<use x="63.476562" xlink:href="#h"/>
<use x="91.259766" xlink:href="#c"/>
</g>
</g>
<g clip-path="url(#a)">
<defs>
<path id="aw" d="m34.281 27.484q-10.891 0-15.094-2.4844t-4.2031-8.5q0-4.7812 3.1562-7.5938 3.1562-2.7969 8.5625-2.7969 7.4844 0 12 5.2969t4.5156 14.078v2zm17.922 3.7188v-31.203h-8.9844v8.2969q-3.0781-4.9688-7.6719-7.3438t-11.234-2.375q-8.3906 0-13.359 4.7188-4.9531 4.7188-4.9531 12.625 0 9.2188 6.1719 13.906 6.1875 4.6875 18.438 4.6875h12.609v0.89062q0 6.2031-4.0781 9.5938t-11.453 3.3906q-4.6875 0-9.1406-1.125-4.4375-1.125-8.5312-3.375v8.3125q4.9219 1.9062 9.5625 2.8438 4.6406 0.95312 9.0312 0.95312 11.875 0 17.734-6.1562 5.8594-6.1406 5.8594-18.641zm-18.609 44.578h9.9062v-9.8594h-9.9062zm-19.094 0h9.9062v-9.8594h-9.9062z"/>
</defs>
<g transform="translate(468.71 562.76) scale(.1 -.1)">
<use xlink:href="#w"/>
<use x="75.195312" xlink:href="#aw"/>
<use x="136.474609" xlink:href="#s"/>
<use x="199.853516" xlink:href="#f"/>
<use x="263.232422" xlink:href="#c"/>
</g>
</g>
<g clip-path="url(#a)">
<g transform="translate(532.19 562.76) scale(.1 -.1)">
<use xlink:href="#f"/>
<use x="63.378906" xlink:href="#g"/>
<use x="124.658203" xlink:href="#u"/>
<use x="179.638672" xlink:href="#s"/>
</g>
</g>
<g clip-path="url(#a)">
<g transform="translate(585.66 562.76) scale(.1 -.1)">
<use xlink:href="#ak"/>
<use x="68.603516" xlink:href="#c"/>
<use x="130.126953" xlink:href="#j"/>
<use x="157.910156" xlink:href="#h"/>
<use x="185.693359" xlink:href="#c"/>
<use x="247.216797" xlink:href="#aa"/>
<use x="310.693359" xlink:href="#c"/>
<use x="372.216797" xlink:href="#f"/>
</g>
</g>
<g clip-path="url(#a)">
<defs>
<path id="ba" d="m9.0781 75.984h9.0312v-44.875l26.812 23.578h11.469l-29-25.578 30.234-29.109h-11.719l-27.797 26.703v-26.703h-9.0312z"/>
</defs>
<g transform="translate(659.35 562.76) scale(.1 -.1)">
<use xlink:href="#ba"/>
<use x="56.160156" xlink:href="#g"/>
<use x="117.439453" xlink:href="#j"/>
<use x="145.222656" xlink:href="#r"/>
<use x="184.431641" xlink:href="#c"/>
<use x="245.955078" xlink:href="#p"/>
</g>
</g>
<g clip-path="url(#a)">
<g transform="translate(735.27 562.76) scale(.1 -.1)">
<use xlink:href="#am"/>
<use x="63.378906" xlink:href="#f"/>
<use x="126.757812" xlink:href="#t"/>
</g>
</g>
<g clip-path="url(#a)">
<g transform="translate(799.35 562.76) scale(.1 -.1)">
<use xlink:href="#al"/>
<use x="81.787109" xlink:href="#g"/>
<use x="143.066406" xlink:href="#i"/>
<use x="182.429688" xlink:href="#k"/>
<use x="279.841797" xlink:href="#c"/>
<use x="341.365234" xlink:href="#p"/>
</g>
</g>
<g clip-path="url(#a)">
<defs>
<path id="ao" d="m3.3281 72.906h9.9531l15.328-61.625 15.281 61.625h11.094l15.328-61.625 15.281 61.625h10.016l-18.312-72.906h-12.406l-15.375 63.281-15.531-63.281h-12.406z"/>
</defs>
<g transform="translate(878.94 562.76) scale(.1 -.1)">
<use xlink:href="#ao"/>
<use x="92.501953" xlink:href="#g"/>
<use x="153.78125" xlink:href="#p"/>
<use x="205.880859" xlink:href="#p"/>
<use x="257.980469" xlink:href="#c"/>
<use x="319.503906" xlink:href="#i"/>
</g>
</g>
<g clip-path="url(#a)">
<defs>
<path id="ay" d="m18.109 8.2031v-29h-9.0312v75.484h9.0312v-8.2969q2.8438 4.875 7.1562 7.2344 4.3281 2.375 10.328 2.375 9.9688 0 16.188-7.9062 6.2344-7.9062 6.2344-20.797t-6.2344-20.812q-6.2188-7.9062-16.188-7.9062-6 0-10.328 2.375-4.3125 2.375-7.1562 7.25zm30.578 19.094q0 9.9062-4.0781 15.547t-11.203 5.6406q-7.1406 0-11.219-5.6406t-4.0781-15.547 4.0781-15.547 11.219-5.6406q7.125 0 11.203 5.6406t4.0781 15.547z"/>
</defs>
<g transform="translate(952.15 562.76) scale(.1 -.1)">
<use xlink:href="#p"/>
<use x="52.099609" xlink:href="#ay"/>
<use x="115.576172" xlink:href="#c"/>
<use x="177.099609" xlink:href="#f"/>
<use x="240.478516" xlink:href="#t"/>
<use x="303.955078" xlink:href="#c"/>
<use x="365.478516" xlink:href="#r"/>
<use x="404.6875" xlink:href="#c"/>
<use x="466.210938" xlink:href="#f"/>
</g>
</g>
<g clip-path="url(#a)">
<defs>
<path id="e" d="m10.688 12.406h10.312v-12.406h-10.312z"/>
</defs>
<g transform="translate(1062.4 562.76) scale(.1 -.1)">
<use xlink:href="#e"/>
</g>
</g>
<g clip-path="url(#a)">
<defs>
<path id="d" d="m12.406 8.2969h16.109v55.625l-17.531-3.5156v8.9844l17.438 3.5156h9.8594v-64.609h16.109v-8.2969h-41.984z"/>
</defs>
<g transform="translate(152.79 29.426) scale(.1 -.1)">
<use xlink:href="#d"/>
<use x="63.623047" xlink:href="#e"/>
<use x="95.410156" xlink:href="#d"/>
</g>
</g>
<g clip-path="url(#a)">
<defs>
<path id="m" d="m19.188 8.2969h34.422v-8.2969h-46.281v8.2969q5.6094 5.8125 15.297 15.594 9.7031 9.7969 12.188 12.641 4.7344 5.3125 6.6094 9 1.8906 3.6875 1.8906 7.25 0 5.8125-4.0781 9.4688-4.0781 3.6719-10.625 3.6719-4.6406 0-9.7969-1.6094-5.1406-1.6094-11-4.8906v9.9688q5.9531 2.3906 11.125 3.6094 5.1875 1.2188 9.4844 1.2188 11.328 0 18.062-5.6719 6.7344-5.6562 6.7344-15.125 0-4.5-1.6875-8.5312-1.6719-4.0156-6.125-9.4844-1.2188-1.4219-7.7656-8.1875-6.5312-6.7656-18.453-18.922z"/>
</defs>
<g transform="translate(152.79 96.715) scale(.1 -.1)">
<use xlink:href="#d"/>
<use x="63.623047" xlink:href="#e"/>
<use x="95.410156" xlink:href="#m"/>
</g>
</g>
<g clip-path="url(#a)">
<defs>
<path id="z" d="m37.797 64.312-24.906-38.922h24.906zm-2.5938 8.5938h12.406v-47.516h10.406v-8.2031h-10.406v-17.188h-9.8125v17.188h-32.906v9.5156z"/>
</defs>
<g transform="translate(55.088 431.26) scale(.1 -.1)">
<use xlink:href="#d"/>
<use x="63.623047" xlink:href="#e"/>
<use x="95.410156" xlink:href="#z"/>
</g>
</g>
<g clip-path="url(#a)">
<defs>
<path id="y" d="m10.797 72.906h38.719v-8.3125h-29.688v-17.859q2.1406 0.73438 4.2812 1.0938 2.1562 0.35938 4.3125 0.35938 12.203 0 19.328-6.6875 7.1406-6.6875 7.1406-18.109 0-11.766-7.3281-18.297-7.3281-6.5156-20.656-6.5156-4.5938 0-9.3594 0.78125-4.75 0.78125-9.8281 2.3438v9.9219q4.3906-2.3906 9.0781-3.5625t9.9062-1.1719q8.4531 0 13.375 4.4375 4.9375 4.4375 4.9375 12.062 0 7.6094-4.9375 12.047-4.9219 4.4531-13.375 4.4531-3.9531 0-7.8906-0.875-3.9219-0.875-8.0156-2.7344z"/>
</defs>
<g transform="translate(98.393 497.46) scale(.1 -.1)">
<use xlink:href="#d"/>
<use x="63.623047" xlink:href="#e"/>
<use x="95.410156" xlink:href="#y"/>
</g>
</g>
<g clip-path="url(#a)">
<defs>
<path id="ag" d="m33.016 40.375q-6.6406 0-10.531-4.5469-3.875-4.5312-3.875-12.438 0-7.8594 3.875-12.438 3.8906-4.5625 10.531-4.5625t10.516 4.5625q3.875 4.5781 3.875 12.438 0 7.9062-3.875 12.438-3.875 4.5469-10.516 4.5469zm19.578 30.922v-8.9844q-3.7188 1.75-7.5 2.6719-3.7812 0.9375-7.5 0.9375-9.7656 0-14.922-6.5938-5.1406-6.5938-5.875-19.922 2.875 4.25 7.2188 6.5156 4.3594 2.2656 9.5781 2.2656 10.984 0 17.359-6.6719 6.375-6.6562 6.375-18.125 0-11.234-6.6406-18.031-6.6406-6.7812-17.672-6.7812-12.656 0-19.344 9.6875-6.6875 9.7031-6.6875 28.109 0 17.281 8.2031 27.562t22.016 10.281q3.7188 0 7.5-0.73438t7.8906-2.1875z"/>
</defs>
<g transform="translate(304.88 163.91) scale(.1 -.1)">
<use xlink:href="#d"/>
<use x="63.623047" xlink:href="#e"/>
<use x="95.410156" xlink:href="#ag"/>
</g>
</g>
<g clip-path="url(#a)">
<defs>
<path id="af" d="m8.2031 72.906h46.875v-4.2031l-26.469-68.703h-10.297l24.906 64.594h-35.016z"/>
</defs>
<g transform="translate(135.51 497.46) scale(.1 -.1)">
<use xlink:href="#d"/>
<use x="63.623047" xlink:href="#e"/>
<use x="95.410156" xlink:href="#af"/>
</g>
</g>
<g clip-path="url(#a)">
<defs>
<path id="ae" d="m31.781 34.625q-7.0312 0-11.062-3.7656-4.0156-3.7656-4.0156-10.344 0-6.5938 4.0156-10.359 4.0312-3.7656 11.062-3.7656t11.078 3.7812q4.0625 3.7969 4.0625 10.344 0 6.5781-4.0312 10.344-4.0156 3.7656-11.109 3.7656zm-9.8594 4.1875q-6.3438 1.5625-9.8906 5.9062-3.5312 4.3594-3.5312 10.609 0 8.7344 6.2188 13.812 6.2344 5.0781 17.062 5.0781 10.891 0 17.094-5.0781t6.2031-13.812q0-6.25-3.5469-10.609-3.5312-4.3438-9.8281-5.9062 7.125-1.6562 11.094-6.5 3.9844-4.8281 3.9844-11.797 0-10.609-6.4688-16.281-6.4688-5.6562-18.531-5.6562-12.047 0-18.531 5.6562-6.4688 5.6719-6.4688 16.281 0 6.9688 4 11.797 4.0156 4.8438 11.141 6.5zm-3.6094 15.578q0-5.6562 3.5312-8.8281 3.5469-3.1719 9.9375-3.1719 6.3594 0 9.9375 3.1719 3.5938 3.1719 3.5938 8.8281 0 5.6719-3.5938 8.8438-3.5781 3.1719-9.9375 3.1719-6.3906 0-9.9375-3.1719-3.5312-3.1719-3.5312-8.8438z"/>
</defs>
<g transform="translate(235.73 497.46) scale(.1 -.1)">
<use xlink:href="#d"/>
<use x="63.623047" xlink:href="#e"/>
<use x="95.410156" xlink:href="#ae"/>
</g>
</g>
<g clip-path="url(#a)">
<defs>
<path id="ad" d="m10.984 1.5156v8.9844q3.7188-1.7656 7.5156-2.6875 3.8125-0.92188 7.4844-0.92188 9.7656 0 14.906 6.5625 5.1562 6.5625 5.8906 19.953-2.8281-4.2031-7.1875-6.4531-4.3438-2.25-9.6094-2.25-10.938 0-17.312 6.6094-6.375 6.625-6.375 18.109 0 11.219 6.6406 18 6.6406 6.7969 17.672 6.7969 12.656 0 19.312-9.7031 6.6719-9.6875 6.6719-28.141 0-17.234-8.1875-27.516-8.1719-10.281-21.984-10.281-3.7188 0-7.5312 0.73438-3.7969 0.73438-7.9062 2.2031zm19.625 30.906q6.6406 0 10.516 4.5312 3.8906 4.5469 3.8906 12.469 0 7.8594-3.8906 12.422-3.875 4.5625-10.516 4.5625t-10.516-4.5625-3.875-12.422q0-7.9219 3.875-12.469 3.875-4.5312 10.516-4.5312z"/>
</defs>
<g transform="translate(276.56 497.46) scale(.1 -.1)">
<use xlink:href="#d"/>
<use x="63.623047" xlink:href="#e"/>
<use x="95.410156" xlink:href="#ad"/>
</g>
</g>
<g clip-path="url(#a)">
<defs>
<path id="ah" d="m31.781 66.406q-7.6094 0-11.453-7.5-3.8281-7.4844-3.8281-22.531 0-14.984 3.8281-22.484 3.8438-7.5 11.453-7.5 7.6719 0 11.5 7.5 3.8438 7.5 3.8438 22.484 0 15.047-3.8438 22.531-3.8281 7.5-11.5 7.5zm0 7.8125q12.266 0 18.734-9.7031 6.4688-9.6875 6.4688-28.141 0-18.406-6.4688-28.109-6.4688-9.6875-18.734-9.6875-12.25 0-18.719 9.6875-6.4688 9.7031-6.4688 28.109 0 18.453 6.4688 28.141 6.4688 9.7031 18.719 9.7031z"/>
</defs>
<g transform="translate(210.28 431.26) scale(.1 -.1)">
<use xlink:href="#d"/>
<use x="63.623047" xlink:href="#e"/>
<use x="95.410156" xlink:href="#d"/>
<use x="159.033203" xlink:href="#ah"/>
</g>
</g>
<g clip-path="url(#a)">
<g transform="translate(643.72 230.99) scale(.1 -.1)">
<use xlink:href="#d"/>
<use x="63.623047" xlink:href="#e"/>
<use x="95.410156" xlink:href="#d"/>
<use x="159.033203" xlink:href="#d"/>
</g>
</g>
<g clip-path="url(#a)">
<defs>
<path id="n" d="m40.578 39.312q7.0781-1.5156 11.047-6.3125 3.9844-4.7812 3.9844-11.812 0-10.781-7.4219-16.703-7.4219-5.9062-21.094-5.9062-4.5781 0-9.4375 0.90625t-10.031 2.7188v9.5156q4.0938-2.3906 8.9688-3.6094 4.8906-1.2188 10.219-1.2188 9.2656 0 14.125 3.6562t4.8594 10.641q0 6.4531-4.5156 10.078-4.5156 3.6406-12.562 3.6406h-8.5v8.1094h8.8906q7.2656 0 11.125 2.9062t3.8594 8.375q0 5.6094-3.9844 8.6094-3.9688 3.0156-11.391 3.0156-4.0625 0-8.7031-0.89062-4.6406-0.875-10.203-2.7188v8.7812q5.625 1.5625 10.531 2.3438t9.25 0.78125q11.234 0 17.766-5.1094 6.5469-5.0938 6.5469-13.781 0-6.0625-3.4688-10.234t-9.8594-5.7812z"/>
</defs>
<g transform="translate(366.18 497.46) scale(.1 -.1)">
<use xlink:href="#d"/>
<use x="63.623047" xlink:href="#e"/>
<use x="95.410156" xlink:href="#d"/>
<use x="159.033203" xlink:href="#n"/>
</g>
</g>
<g clip-path="url(#a)">
<g transform="translate(445.98 431.26) scale(.1 -.1)">
<use xlink:href="#d"/>
<use x="63.623047" xlink:href="#e"/>
<use x="95.410156" xlink:href="#d"/>
<use x="159.033203" xlink:href="#z"/>
</g>
</g>
<g clip-path="url(#a)">
<g transform="translate(564.76 431.26) scale(.1 -.1)">
<use xlink:href="#d"/>
<use x="63.623047" xlink:href="#e"/>
<use x="95.410156" xlink:href="#d"/>
<use x="159.033203" xlink:href="#y"/>
</g>
</g>
<g clip-path="url(#a)">
<g transform="translate(835.42 297.93) scale(.1 -.1)">
<use xlink:href="#d"/>
<use x="63.623047" xlink:href="#e"/>
<use x="95.410156" xlink:href="#d"/>
<use x="159.033203" xlink:href="#ag"/>
</g>
</g>
<g clip-path="url(#a)">
<g transform="translate(967.49 497.46) scale(.1 -.1)">
<use xlink:href="#d"/>
<use x="63.623047" xlink:href="#e"/>
<use x="95.410156" xlink:href="#d"/>
<use x="159.033203" xlink:href="#af"/>
</g>
</g>
<g clip-path="url(#a)">
<g transform="translate(785 364.71) scale(.1 -.1)">
<use xlink:href="#d"/>
<use x="63.623047" xlink:href="#e"/>
<use x="95.410156" xlink:href="#d"/>
<use x="159.033203" xlink:href="#ae"/>
</g>
</g>
<g clip-path="url(#a)">
<g transform="translate(885.83 497.46) scale(.1 -.1)">
<use xlink:href="#d"/>
<use x="63.623047" xlink:href="#e"/>
<use x="95.410156" xlink:href="#d"/>
<use x="159.033203" xlink:href="#ad"/>
</g>
</g>
<g clip-path="url(#a)">
<g transform="translate(733.65 497.46) scale(.1 -.1)">
<use xlink:href="#d"/>
<use x="63.623047" xlink:href="#e"/>
<use x="95.410156" xlink:href="#m"/>
<use x="159.033203" xlink:href="#ah"/>
</g>
</g>
<g clip-path="url(#a)">
<g transform="translate(774.48 431.26) scale(.1 -.1)">
<use xlink:href="#d"/>
<use x="63.623047" xlink:href="#e"/>
<use x="95.410156" xlink:href="#m"/>
<use x="159.033203" xlink:href="#d"/>
</g>
</g>
<g clip-path="url(#a)">
<g transform="translate(846.86 431.26) scale(.1 -.1)">
<use xlink:href="#d"/>
<use x="63.623047" xlink:href="#e"/>
<use x="95.410156" xlink:href="#m"/>
<use x="159.033203" xlink:href="#m"/>
</g>
</g>
<g clip-path="url(#a)">
<g transform="translate(807.89 497.46) scale(.1 -.1)">
<use xlink:href="#d"/>
<use x="63.623047" xlink:href="#e"/>
<use x="95.410156" xlink:href="#m"/>
<use x="159.033203" xlink:href="#n"/>
</g>
</g>
<g clip-path="url(#a)">
<g transform="translate(663.12 497.46) scale(.1 -.1)">
<use xlink:href="#d"/>
<use x="63.623047" xlink:href="#e"/>
<use x="95.410156" xlink:href="#m"/>
<use x="159.033203" xlink:href="#z"/>
</g>
</g>
<g clip-path="url(#a)">
<g transform="translate(533.21 497.46) scale(.1 -.1)">
<use xlink:href="#d"/>
<use x="63.623047" xlink:href="#e"/>
<use x="95.410156" xlink:href="#m"/>
<use x="159.033203" xlink:href="#y"/>
</g>
</g>
<g clip-path="url(#a)">
<g transform="translate(596.31 497.46) scale(.1 -.1)">
<use xlink:href="#d"/>
<use x="63.623047" xlink:href="#e"/>
<use x="95.410156" xlink:href="#m"/>
<use x="159.033203" xlink:href="#ag"/>
</g>
</g>
<g clip-path="url(#a)">
<g transform="translate(418.14 497.46) scale(.1 -.1)">
<use xlink:href="#d"/>
<use x="63.623047" xlink:href="#e"/>
<use x="95.410156" xlink:href="#m"/>
<use x="159.033203" xlink:href="#af"/>
</g>
</g>
<g clip-path="url(#a)">
<g transform="translate(473.82 497.46) scale(.1 -.1)">
<use xlink:href="#d"/>
<use x="63.623047" xlink:href="#e"/>
<use x="95.410156" xlink:href="#m"/>
<use x="159.033203" xlink:href="#ae"/>
</g>
</g>
<g clip-path="url(#a)">
<g transform="translate(162.02 497.46) scale(.1 -.1)">
<use xlink:href="#d"/>
<use x="63.623047" xlink:href="#e"/>
<use x="95.410156" xlink:href="#m"/>
<use x="159.033203" xlink:href="#ad"/>
</g>
</g>
<g clip-path="url(#a)">
<g transform="translate(195.43 497.46) scale(.1 -.1)">
<use xlink:href="#d"/>
<use x="63.623047" xlink:href="#e"/>
<use x="95.410156" xlink:href="#n"/>
<use x="159.033203" xlink:href="#ah"/>
</g>
</g>
<g clip-path="url(#a)">
<g transform="translate(39.534 497.46) scale(.1 -.1)">
<use xlink:href="#d"/>
<use x="63.623047" xlink:href="#e"/>
<use x="95.410156" xlink:href="#n"/>
<use x="159.033203" xlink:href="#d"/>
</g>
</g>
<g clip-path="url(#a)">
<g transform="translate(50.669 497.46) scale(.1 -.1)">
<use xlink:href="#d"/>
<use x="63.623047" xlink:href="#e"/>
<use x="95.410156" xlink:href="#n"/>
<use x="159.033203" xlink:href="#m"/>
</g>
</g>
<g clip-path="url(#a)">
<g transform="translate(65.517 497.46) scale(.1 -.1)">
<use xlink:href="#d"/>
<use x="63.623047" xlink:href="#e"/>
<use x="95.410156" xlink:href="#n"/>
<use x="159.033203" xlink:href="#n"/>
</g>
</g>
<g clip-path="url(#a)">
<g transform="translate(317.92 497.46) scale(.1 -.1)">
<use xlink:href="#d"/>
<use x="63.623047" xlink:href="#e"/>
<use x="95.410156" xlink:href="#n"/>
<use x="159.033203" xlink:href="#z"/>
</g>
</g>
<g clip-path="url(#a)">
<g transform="translate(1052.9 497.46) scale(.1 -.1)">
<use xlink:href="#d"/>
<use x="63.623047" xlink:href="#e"/>
<use x="95.410156" xlink:href="#n"/>
<use x="159.033203" xlink:href="#y"/>
</g>
</g>
<defs>
<clipPath id="a">
<rect width="1114.7" height="586.67"/>
</clipPath>
</defs>
</svg>
