<?xml version="1.0" encoding="UTF-8"?>
<!DOCTYPE svg  PUBLIC '-//W3C//DTD SVG 1.1//EN'  'http://www.w3.org/Graphics/SVG/1.1/DTD/svg11.dtd'>
<svg width="1368pt" height="720pt" version="1.1" viewBox="0 0 1368 720" xmlns="http://www.w3.org/2000/svg" xmlns:xlink="http://www.w3.org/1999/xlink">
<defs>
<style type="text/css">*{stroke-linecap:butt;stroke-linejoin:round;}</style>
</defs>
<path d="m0 720h1368v-720h-1368z" fill="#fff"/>
<g fill="none" stroke="#000">
<path d="m367.99 33.502-177.08 291.06" clip-path="url(#a)"/>
<path d="m367.99 33.502 29.121 563.57" clip-path="url(#a)"/>
<path d="m367.99 33.502 147.96 99.605" clip-path="url(#a)"/>
<path d="m190.9 324.56-128.5 272.51" clip-path="url(#a)"/>
<path d="m190.9 324.56 38.85 272.51" clip-path="url(#a)"/>
<path d="m190.9 324.56-8.9654 92.417" clip-path="url(#a)"/>
<path d="m190.9 324.56 98.619 92.417" clip-path="url(#a)"/>
<path d="m397.11 597.07v89.427" clip-path="url(#a)"/>
<path d="m515.95 133.11-71.026 463.96" clip-path="url(#a)"/>
<path d="m515.95 133.11 0.69731 374.54" clip-path="url(#a)"/>
<path d="m515.95 133.11 96.328 374.54" clip-path="url(#a)"/>
<path d="m515.95 133.11 284.1 96.928" clip-path="url(#a)"/>
<path d="m515.95 133.11-310.1 463.96" clip-path="url(#a)" stroke-dasharray="3.7,1.6"/>
<path d="m444.92 597.07v89.427" clip-path="url(#a)"/>
<path d="m516.65 507.65-23.908 89.427" clip-path="url(#a)"/>
<path d="m516.65 507.65 23.908 89.427" clip-path="url(#a)"/>
<path d="m612.28 507.65-23.908 89.427" clip-path="url(#a)"/>
<path d="m612.28 507.65 23.908 89.427" clip-path="url(#a)"/>
<path d="m800.05 230.04-116.05 367.04" clip-path="url(#a)"/>
<path d="m800.05 230.04-68.237 367.04" clip-path="url(#a)"/>
<path d="m800.05 230.04 204.71 94.522" clip-path="url(#a)"/>
<path d="m800.05 230.04-20.421 367.04" clip-path="url(#a)"/>
<path d="m684 597.07v89.427" clip-path="url(#a)"/>
<path d="m731.82 597.07v89.427" clip-path="url(#a)"/>
<path d="m1004.8 324.56-272.95 272.51" clip-path="url(#a)" stroke-dasharray="3.7,1.6"/>
<path d="m1004.8 324.56-177.32 272.51" clip-path="url(#a)"/>
<path d="m1004.8 324.56-129.5 272.51" clip-path="url(#a)"/>
<path d="m1004.8 324.56 25.9 92.417" clip-path="url(#a)"/>
<path d="m1004.8 324.56 253.02 272.51" clip-path="url(#a)"/>
<path d="m1004.8 324.56 300.84 272.51" clip-path="url(#a)"/>
<path d="m827.45 597.07v89.427" clip-path="url(#a)"/>
<path d="m875.26 597.07v89.427" clip-path="url(#a)"/>
<path d="m1030.7 416.97-107.58 180.1" clip-path="url(#a)"/>
<path d="m1030.7 416.97-11.954 90.671" clip-path="url(#a)"/>
<path d="m1030.7 416.97-11.954 180.1" clip-path="url(#a)"/>
<path d="m1030.7 416.97 131.49 90.671" clip-path="url(#a)"/>
<path d="m1257.8 597.07v89.427" clip-path="url(#a)"/>
<path d="m923.08 597.07v89.427" clip-path="url(#a)"/>
<path d="m1018.7 507.65-47.815 89.427" clip-path="url(#a)"/>
<path d="m1018.7 507.65 47.815 89.427" clip-path="url(#a)"/>
<path d="m1018.7 597.07v89.427" clip-path="url(#a)"/>
<path d="m1162.2 507.65-47.815 89.427" clip-path="url(#a)"/>
<path d="m1162.2 507.65v89.427" clip-path="url(#a)"/>
<path d="m1162.2 507.65 47.815 89.427" clip-path="url(#a)"/>
<path d="m1114.3 597.07v89.427" clip-path="url(#a)"/>
<path d="m1162.2 597.07v89.427" clip-path="url(#a)"/>
<path d="m1210 597.07v89.427" clip-path="url(#a)"/>
<path d="m970.89 597.07v89.427" clip-path="url(#a)"/>
<path d="m1066.5 597.07v89.427" clip-path="url(#a)"/>
<path d="m588.37 597.07v89.427" clip-path="url(#a)"/>
<path d="m636.18 597.07v89.427" clip-path="url(#a)"/>
<path d="m492.74 597.07v89.427" clip-path="url(#a)"/>
<path d="m540.55 597.07v89.427" clip-path="url(#a)"/>
<path d="m62.4 597.07v89.427" clip-path="url(#a)"/>
<path d="m229.75 597.07-119.54 89.427" clip-path="url(#a)"/>
<path d="m229.75 597.07 119.54 89.427" clip-path="url(#a)"/>
<path d="m181.94 416.97v90.671" clip-path="url(#a)"/>
<path d="m289.52 416.97-11.954 90.671" clip-path="url(#a)"/>
<path d="m289.52 416.97 11.954 180.1" clip-path="url(#a)"/>
<path d="m277.57 507.65 23.908 89.427" clip-path="url(#a)" stroke-dasharray="3.7,1.6"/>
<path d="m277.57 507.65-23.908 89.427" clip-path="url(#a)"/>
<path d="m301.48 597.07v89.427" clip-path="url(#a)"/>
<path d="m253.66 597.07v89.427" clip-path="url(#a)"/>
<path d="m181.94 507.65-23.908 89.427" clip-path="url(#a)"/>
<path d="m181.94 507.65 23.908 89.427" clip-path="url(#a)"/>
<path d="m158.03 597.07v89.427" clip-path="url(#a)"/>
<path d="m205.85 597.07v89.427" clip-path="url(#a)"/>
<path d="m779.63 597.07v89.427" clip-path="url(#a)"/>
<path d="m1305.6 597.07v89.427" clip-path="url(#a)"/>
</g>
<path d="m283.24 184.86 3.1271-5.1397q1.2475-2.0503-0.80288-3.2978l-6.6145-4.0243q-2.0503-1.2475-3.2978 0.80288l-3.1271 5.1397q-1.2475 2.0503 0.80288 3.2978l6.6145 4.0243q2.0503 1.2475 3.2978-0.80288z" clip-path="url(#a)" fill="#fff" stroke="#fff"/>
<g clip-path="url(#a)">
<defs>
<path id="aa" d="m9.8125 72.906h9.8594v-29.891h35.844v29.891h9.8594v-72.906h-9.8594v34.719h-35.844v-34.719h-9.8594z"/>
</defs>
<g transform="translate(279.77 182.75) rotate(-58.683) scale(.08 -.08)">
<use xlink:href="#aa"/>
</g>
</g>
<path d="m376.17 313.38 0.23002 4.4516q0.12385 2.3968 2.5206 2.273l7.7322-0.39954q2.3968-0.12385 2.273-2.5207l-0.23002-4.4516q-0.12385-2.3968-2.5207-2.273l-7.7322 0.39954q-2.3968 0.12385-2.273 2.5206z" clip-path="url(#a)" fill="#fff" stroke="#fff"/>
<g clip-path="url(#a)">
<defs>
<path id="ao" d="m9.8125 72.906h9.8594v-64.609h35.5v-8.2969h-45.359z"/>
</defs>
<g transform="translate(380.23 313.17) rotate(87.042) scale(.08 -.08)">
<use xlink:href="#ao"/>
</g>
</g>
<path d="m435.97 86.827 4.9908 3.3597q1.9909 1.3402 3.3312-0.65067l4.3237-6.4228q1.3402-1.9909-0.65067-3.3312l-4.9908-3.3597q-1.9909-1.3402-3.3312 0.65067l-4.3237 6.4228q-1.3402 1.9909 0.65067 3.3312z" clip-path="url(#a)" fill="#fff" stroke="#fff"/>
<g clip-path="url(#a)">
<g transform="translate(438.24 83.456) rotate(33.948) scale(.08 -.08)">
<use xlink:href="#aa"/>
</g>
</g>
<path d="m131.16 465.96 2.3341-4.9498q1.0236-2.1708-1.1471-3.1944l-7.003-3.3022q-2.1708-1.0236-3.1944 1.1471l-2.3341 4.9498q-1.0236 2.1708 1.1471 3.1944l7.003 3.3022q2.1708 1.0236 3.1944-1.1471z" clip-path="url(#a)" fill="#fff" stroke="#fff"/>
<g clip-path="url(#a)">
<defs>
<path id="n" d="m34.188 63.188-13.391-36.281h26.812zm-5.5781 9.7188h11.188l27.781-72.906h-10.25l-6.6406 18.703h-32.859l-6.6406-18.703h-10.406z"/>
</defs>
<g transform="translate(127.48 464.23) rotate(-64.754) scale(.08 -.08)">
<use xlink:href="#n"/>
</g>
</g>
<path d="m203.78 459.31 0.6808 4.7755q0.33872 2.376 2.7147 2.0373l7.665-1.0927q2.376-0.33872 2.0373-2.7147l-0.6808-4.7755q-0.33872-2.376-2.7147-2.0373l-7.665 1.0927q-2.376 0.33872-2.0373 2.7147z" clip-path="url(#a)" fill="#fff" stroke="#fff"/>
<g clip-path="url(#a)">
<defs>
<path id="y" d="m19.672 64.797v-27.391h12.406q6.8906 0 10.641 3.5625 3.7656 3.5625 3.7656 10.156 0 6.5469-3.7656 10.109-3.75 3.5625-10.641 3.5625zm-9.8594 8.1094h22.266q12.266 0 18.531-5.5469 6.2812-5.5469 6.2812-16.234 0-10.797-6.2812-16.312-6.2656-5.5156-18.531-5.5156h-12.406v-29.297h-9.8594z"/>
</defs>
<g transform="translate(207.8 458.74) rotate(81.886) scale(.08 -.08)">
<use xlink:href="#y"/>
</g>
</g>
<path d="m192.4 374.1 0.52841-5.4469q0.23174-2.3888-2.157-2.6205l-7.7063-0.7476q-2.3888-0.23174-2.6205 2.157l-0.52841 5.4469q-0.23174 2.3888 2.157 2.6205l7.7063 0.7476q2.3888 0.23174 2.6205-2.157z" clip-path="url(#a)" fill="#fff" stroke="#fff"/>
<g clip-path="url(#a)">
<g transform="translate(188.35 373.7) rotate(-84.459) scale(.08 -.08)">
<use xlink:href="#n"/>
</g>
</g>
<path d="m233.93 373.47 3.9932 3.742q1.7512 1.6411 3.3923-0.11014l5.2942-5.6496q1.6411-1.7512-0.11014-3.3923l-3.9932-3.742q-1.7512-1.6411-3.3923 0.11014l-5.2942 5.6496q-1.6411 1.7512 0.11014 3.3923z" clip-path="url(#a)" fill="#fff" stroke="#fff"/>
<g clip-path="url(#a)">
<g transform="translate(236.71 370.51) rotate(43.14) scale(.08 -.08)">
<use xlink:href="#n"/>
</g>
</g>
<path d="m390.84 624.14v35.285q0 2.4 2.4 2.4h7.7425q2.4 0 2.4-2.4v-35.285q0-2.4-2.4-2.4h-7.7425q-2.4 0-2.4 2.4z" clip-path="url(#a)" fill="#fff" stroke="#fff"/>
<g clip-path="url(#a)">
<defs>
<path id="l" d="m-0.29688 72.906h61.672v-8.3125h-25.875v-64.594h-9.9062v64.594h-25.891z"/>
<path id="c" d="m56.203 29.594v-4.3906h-41.312q0.59375-9.2812 5.5938-14.141t13.938-4.8594q5.1719 0 10.031 1.2656t9.6562 3.8125v-8.5q-4.8438-2.0469-9.9219-3.125t-10.297-1.0781q-13.094 0-20.734 7.6094-7.6406 7.625-7.6406 20.625 0 13.422 7.25 21.297 7.25 7.8906 19.562 7.8906 11.031 0 17.453-7.1094 6.4219-7.0938 6.4219-19.297zm-8.9844 2.6406q-0.09375 7.3594-4.125 11.75-4.0312 4.4062-10.672 4.4062-7.5156 0-12.031-4.25t-5.2031-11.969z"/>
<path id="g" d="m41.109 46.297q-1.5156 0.875-3.2969 1.2812-1.7812 0.42188-3.9219 0.42188-7.625 0-11.703-4.9531t-4.0781-14.234v-28.812h-9.0312v54.688h9.0312v-8.5q2.8438 4.9844 7.375 7.3906 4.5469 2.4219 11.047 2.4219 0.92188 0 2.0469-0.125 1.125-0.10938 2.4844-0.35938z"/>
<path id="k" d="m52 44.188q3.375 6.0625 8.0625 8.9375t11.031 2.875q8.5469 0 13.188-5.9844 4.6406-5.9688 4.6406-17v-33.016h-9.0312v32.719q0 7.8594-2.7969 11.656-2.7812 3.8125-8.4844 3.8125-6.9844 0-11.047-4.6406-4.0469-4.625-4.0469-12.641v-30.906h-9.0312v32.719q0 7.9062-2.7812 11.688t-8.5938 3.7812q-6.8906 0-10.953-4.6562-4.0469-4.6562-4.0469-12.625v-30.906h-9.0312v54.688h9.0312v-8.5q3.0781 5.0312 7.375 7.4219t10.203 2.3906q5.9688 0 10.141-3.0312 4.1719-3.0156 6.1719-8.7812z"/>
<path id="h" d="m9.4219 54.688h8.9844v-54.688h-8.9844zm0 21.297h8.9844v-11.391h-8.9844z"/>
<path id="f" d="m54.891 33.016v-33.016h-8.9844v32.719q0 7.7656-3.0312 11.609-3.0312 3.8594-9.0781 3.8594-7.2812 0-11.484-4.6406-4.2031-4.625-4.2031-12.641v-30.906h-9.0312v54.688h9.0312v-8.5q3.2344 4.9375 7.5938 7.375 4.375 2.4375 10.094 2.4375 9.4219 0 14.25-5.8281 4.8438-5.8281 4.8438-17.156z"/>
<path id="i" d="m34.281 27.484q-10.891 0-15.094-2.4844t-4.2031-8.5q0-4.7812 3.1562-7.5938 3.1562-2.7969 8.5625-2.7969 7.4844 0 12 5.2969t4.5156 14.078v2zm17.922 3.7188v-31.203h-8.9844v8.2969q-3.0781-4.9688-7.6719-7.3438t-11.234-2.375q-8.3906 0-13.359 4.7188-4.9531 4.7188-4.9531 12.625 0 9.2188 6.1719 13.906 6.1875 4.6875 18.438 4.6875h12.609v0.89062q0 6.2031-4.0781 9.5938t-11.453 3.3906q-4.6875 0-9.1406-1.125-4.4375-1.125-8.5312-3.375v8.3125q4.9219 1.9062 9.5625 2.8438 4.6406 0.95312 9.0312 0.95312 11.875 0 17.734-6.1562 5.8594-6.1406 5.8594-18.641z"/>
<path id="j" d="m9.4219 75.984h8.9844v-75.984h-8.9844z"/>
</defs>
<g transform="translate(394.9 624.14) rotate(90) scale(.08 -.08)">
<use xlink:href="#l"/>
<use x="60.818359" xlink:href="#c"/>
<use x="122.341797" xlink:href="#g"/>
<use x="163.439453" xlink:href="#k"/>
<use x="260.851562" xlink:href="#h"/>
<use x="288.634766" xlink:href="#f"/>
<use x="352.013672" xlink:href="#i"/>
<use x="413.292969" xlink:href="#j"/>
</g>
</g>
<path d="m486.27 368.42 0.72994-4.7682q0.36317-2.3724-2.0092-2.7355l-7.6533-1.1716q-2.3724-0.36317-2.7355 2.0092l-0.72994 4.7682q-0.36317 2.3724 2.0092 2.7355l7.6533 1.1716q2.3724 0.36317 2.7355-2.0092z" clip-path="url(#a)" fill="#fff" stroke="#fff"/>
<g clip-path="url(#a)">
<g transform="translate(482.25 367.81) rotate(-81.296) scale(.08 -.08)">
<use xlink:href="#y"/>
</g>
</g>
<path d="m510.02 317.31 0.011469 6.16q0.004468 2.4 2.4045 2.3955l7.7425-0.014415q2.4-0.004468 2.3955-2.4045l-0.011468-6.16q-0.004469-2.4-2.4045-2.3955l-7.7425 0.014415q-2.4 0.004468-2.3955 2.4045z" clip-path="url(#a)" fill="#fff" stroke="#fff"/>
<g clip-path="url(#a)">
<defs>
<path id="ap" d="m19.672 64.797v-56.688h11.922q15.094 0 22.094 6.8281 7 6.8438 7 21.594 0 14.641-7 21.453t-22.094 6.8125zm-9.8594 8.1094h20.266q21.188 0 31.094-8.8125 9.9219-8.8125 9.9219-27.562 0-18.859-9.9688-27.703-9.9531-8.8281-31.047-8.8281h-20.266z"/>
</defs>
<g transform="translate(514.08 317.3) rotate(89.893) scale(.08 -.08)">
<use xlink:href="#ap"/>
</g>
</g>
<path d="m557.36 319.29 1.3631 5.3q0.5978 2.3244 2.9222 1.7266l7.4985-1.9285q2.3244-0.59781 1.7266-2.9222l-1.3631-5.3q-0.59781-2.3244-2.9222-1.7266l-7.4985 1.9285q-2.3244 0.59781-1.7266 2.9222z" clip-path="url(#a)" fill="#fff" stroke="#fff"/>
<g clip-path="url(#a)">
<g transform="translate(561.29 318.28) rotate(75.577) scale(.08 -.08)">
<use xlink:href="#n"/>
</g>
</g>
<path d="m653.39 186.62 5.1794 1.7671q2.2714 0.77495 3.0464-1.4965l2.5-7.3278q0.77496-2.2714-1.4965-3.0464l-5.1794-1.7671q-2.2714-0.77495-3.0464 1.4965l-2.5 7.3278q-0.77495 2.2714 1.4965 3.0464z" clip-path="url(#a)" fill="#fff" stroke="#fff"/>
<g clip-path="url(#a)">
<g transform="translate(654.7 182.78) rotate(18.838) scale(.08 -.08)">
<use xlink:href="#n"/>
</g>
</g>
<path d="m364.59 370.85 3.041-4.5498q1.3336-1.9953-0.6617-3.329l-6.4371-4.3024q-1.9953-1.3336-3.329 0.6617l-3.041 4.5498q-1.3336 1.9953 0.6617 3.329l6.4371 4.3024q1.9953 1.3336 3.329-0.6617z" clip-path="url(#a)" fill="#fff" stroke="#fff"/>
<g clip-path="url(#a)">
<g transform="translate(361.21 368.59) rotate(-56.242) scale(.08 -.08)">
<use xlink:href="#n"/>
</g>
</g>
<path d="m438.65 624.14v35.285q0 2.4 2.4 2.4h7.7425q2.4 0 2.4-2.4v-35.285q0-2.4-2.4-2.4h-7.7425q-2.4 0-2.4 2.4z" clip-path="url(#a)" fill="#fff" stroke="#fff"/>
<g clip-path="url(#a)">
<g transform="translate(442.72 624.14) rotate(90) scale(.08 -.08)">
<use xlink:href="#l"/>
<use x="60.818359" xlink:href="#c"/>
<use x="122.341797" xlink:href="#g"/>
<use x="163.439453" xlink:href="#k"/>
<use x="260.851562" xlink:href="#h"/>
<use x="288.634766" xlink:href="#f"/>
<use x="352.013672" xlink:href="#i"/>
<use x="413.292969" xlink:href="#j"/>
</g>
</g>
<path d="m510.03 556.66 1.4357-5.3702q0.61986-2.3186-1.6987-2.9384l-7.4798-1.9997q-2.3186-0.61986-2.9384 1.6987l-1.4357 5.3702q-0.61986 2.3186 1.6987 2.9384l7.4798 1.9997q2.3186 0.61986 2.9384-1.6987z" clip-path="url(#a)" fill="#fff" stroke="#fff"/>
<g clip-path="url(#a)">
<defs>
<path id="x" d="m44.391 34.188q3.1719-1.0781 6.1719-4.5938t6.0312-9.6719l10.016-19.922h-10.609l-9.3125 18.703q-3.625 7.3281-7.0156 9.7188t-9.25 2.3906h-10.75v-30.812h-9.8594v72.906h22.266q12.5 0 18.656-5.2344 6.1562-5.2188 6.1562-15.766 0-6.8906-3.2031-11.438-3.2031-4.5312-9.2969-6.2812zm-24.719 30.609v-25.875h12.406q7.125 0 10.766 3.2969t3.6406 9.6875-3.6406 9.6406-10.766 3.25z"/>
</defs>
<g transform="translate(506.11 555.61) rotate(-75.032) scale(.08 -.08)">
<use xlink:href="#x"/>
</g>
</g>
<path d="m521.82 551.28 1.4428 5.3967q0.61986 2.3186 2.9384 1.6987l7.4798-1.9997q2.3186-0.61986 1.6987-2.9384l-1.4428-5.3967q-0.61986-2.3186-2.9384-1.6987l-7.4798 1.9997q-2.3186 0.61986-1.6987 2.9384z" clip-path="url(#a)" fill="#fff" stroke="#fff"/>
<g clip-path="url(#a)">
<defs>
<path id="r" d="m64.406 67.281v-10.391q-4.9844 4.6406-10.625 6.9219-5.6406 2.2969-11.984 2.2969-12.5 0-19.141-7.6406t-6.6406-22.094q0-14.406 6.6406-22.047t19.141-7.6406q6.3438 0 11.984 2.2969t10.625 6.9375v-10.312q-5.1719-3.5156-10.969-5.2812-5.7812-1.75-12.219-1.75-16.562 0-26.094 10.125-9.5156 10.141-9.5156 27.672 0 17.578 9.5156 27.703 9.5312 10.141 26.094 10.141 6.5312 0 12.312-1.7344 5.7969-1.7344 10.875-5.2031z"/>
</defs>
<g transform="translate(525.75 550.23) rotate(75.032) scale(.08 -.08)">
<use xlink:href="#r"/>
</g>
</g>
<path d="m605.66 556.66 1.4357-5.3702q0.61986-2.3186-1.6987-2.9384l-7.4798-1.9997q-2.3186-0.61986-2.9384 1.6987l-1.4357 5.3702q-0.61986 2.3186 1.6987 2.9384l7.4798 1.9997q2.3186 0.61986 2.9384-1.6987z" clip-path="url(#a)" fill="#fff" stroke="#fff"/>
<g clip-path="url(#a)">
<g transform="translate(601.74 555.61) rotate(-75.032) scale(.08 -.08)">
<use xlink:href="#x"/>
</g>
</g>
<path d="m617.45 551.28 1.4428 5.3967q0.61986 2.3186 2.9384 1.6987l7.4798-1.9997q2.3186-0.61986 1.6987-2.9384l-1.4428-5.3967q-0.61986-2.3186-2.9384-1.6987l-7.4798 1.9997q-2.3186 0.61986-1.6987 2.9384z" clip-path="url(#a)" fill="#fff" stroke="#fff"/>
<g clip-path="url(#a)">
<g transform="translate(621.38 550.23) rotate(75.032) scale(.08 -.08)">
<use xlink:href="#r"/>
</g>
</g>
<path d="m747.31 417.64 1.3872-4.3872q0.72354-2.2883-1.5648-3.0119l-7.3823-2.3342q-2.2883-0.72354-3.0119 1.5648l-1.3872 4.3872q-0.72354 2.2883 1.5648 3.0119l7.3823 2.3342q2.2883 0.72354 3.0119-1.5648z" clip-path="url(#a)" fill="#fff" stroke="#fff"/>
<g clip-path="url(#a)">
<defs>
<path id="ag" d="m9.8125 72.906h41.891v-8.3125h-32.031v-21.484h28.906v-8.2969h-28.906v-34.812h-9.8594z"/>
</defs>
<g transform="translate(743.44 416.41) rotate(-72.454) scale(.08 -.08)">
<use xlink:href="#ag"/>
</g>
</g>
<path d="m771.59 417.45 1.0211-5.4921q0.43867-2.3596-1.9209-2.7982l-7.6121-1.4152q-2.3596-0.43867-2.7982 1.9209l-1.0211 5.4921q-0.43867 2.3596 1.9209 2.7982l7.6121 1.4152q2.3596 0.43867 2.7982-1.9209z" clip-path="url(#a)" fill="#fff" stroke="#fff"/>
<g clip-path="url(#a)">
<g transform="translate(767.59 416.7) rotate(-79.468) scale(.08 -.08)">
<use xlink:href="#r"/>
</g>
</g>
<path d="m897.48 281.93 4.5894 2.1191q2.1789 1.0061 3.185-1.1728l3.2457-7.0293q1.0061-2.1789-1.1728-3.185l-4.5894-2.1191q-2.1789-1.0061-3.185 1.1728l-3.2457 7.0293q-1.0061 2.1789 1.1728 3.185z" clip-path="url(#a)" fill="#fff" stroke="#fff"/>
<g clip-path="url(#a)">
<defs>
<path id="ah" d="m9.8125 72.906h46.094v-8.3125h-36.234v-21.578h34.719v-8.2969h-34.719v-26.422h37.109v-8.2969h-46.969z"/>
</defs>
<g transform="translate(899.19 278.24) rotate(24.785) scale(.08 -.08)">
<use xlink:href="#ah"/>
</g>
</g>
<path d="m795.94 416.82 0.32526-5.846q0.13332-2.3963-2.263-2.5296l-7.7305-0.43011q-2.3963-0.13333-2.5296 2.263l-0.32526 5.846q-0.13332 2.3963 2.263 2.5296l7.7305 0.43011q2.3963 0.13332 2.5296-2.263z" clip-path="url(#a)" fill="#fff" stroke="#fff"/>
<g clip-path="url(#a)">
<defs>
<path id="am" d="m8.6875 72.906h9.9219v-44.297q0-11.719 4.2344-16.875 4.25-5.1406 13.781-5.1406 9.4688 0 13.719 5.1406 4.25 5.1562 4.25 16.875v44.297h9.9062v-45.516q0-14.25-7.0625-21.531-7.0469-7.2812-20.812-7.2812-13.828 0-20.891 7.2812-7.0469 7.2812-7.0469 21.531z"/>
</defs>
<g transform="translate(791.88 416.6) rotate(-86.815) scale(.08 -.08)">
<use xlink:href="#am"/>
</g>
</g>
<path d="m677.73 624.14v35.285q0 2.4 2.4 2.4h7.7425q2.4 0 2.4-2.4v-35.285q0-2.4-2.4-2.4h-7.7425q-2.4 0-2.4 2.4z" clip-path="url(#a)" fill="#fff" stroke="#fff"/>
<g clip-path="url(#a)">
<g transform="translate(681.79 624.14) rotate(90) scale(.08 -.08)">
<use xlink:href="#l"/>
<use x="60.818359" xlink:href="#c"/>
<use x="122.341797" xlink:href="#g"/>
<use x="163.439453" xlink:href="#k"/>
<use x="260.851562" xlink:href="#h"/>
<use x="288.634766" xlink:href="#f"/>
<use x="352.013672" xlink:href="#i"/>
<use x="413.292969" xlink:href="#j"/>
</g>
</g>
<path d="m725.54 624.14v35.285q0 2.4 2.4 2.4h7.7425q2.4 0 2.4-2.4v-35.285q0-2.4-2.4-2.4h-7.7425q-2.4 0-2.4 2.4z" clip-path="url(#a)" fill="#fff" stroke="#fff"/>
<g clip-path="url(#a)">
<g transform="translate(729.61 624.14) rotate(90) scale(.08 -.08)">
<use xlink:href="#l"/>
<use x="60.818359" xlink:href="#c"/>
<use x="122.341797" xlink:href="#g"/>
<use x="163.439453" xlink:href="#k"/>
<use x="260.851562" xlink:href="#h"/>
<use x="288.634766" xlink:href="#f"/>
<use x="352.013672" xlink:href="#i"/>
<use x="413.292969" xlink:href="#j"/>
</g>
</g>
<path d="m870.78 467.19 3.8727-3.8666q1.6984-1.6957 0.002691-3.3941l-5.4704-5.4791q-1.6957-1.6984-3.3941-0.002691l-3.8727 3.8666q-1.6984 1.6957-0.00269 3.3941l5.4704 5.4791q1.6957 1.6984 3.3941 0.002691z" clip-path="url(#a)" fill="#fff" stroke="#fff"/>
<g clip-path="url(#a)">
<g transform="translate(867.91 464.31) rotate(-44.955) scale(.08 -.08)">
<use xlink:href="#n"/>
</g>
</g>
<path d="m919.84 466.56 3.0316-4.6593q1.3089-2.0117-0.70274-3.3206l-6.4897-4.2226q-2.0117-1.3089-3.3206 0.70274l-3.0316 4.6593q-1.3089 2.0117 0.70274 3.3206l6.4897 4.2226q2.0117 1.3089 3.3206-0.70274z" clip-path="url(#a)" fill="#fff" stroke="#fff"/>
<g clip-path="url(#a)">
<g transform="translate(916.44 464.35) rotate(-56.949) scale(.08 -.08)">
<use xlink:href="#x"/>
</g>
</g>
<path d="m944.5 465.98 2.3488-4.9428q1.0301-2.1677-1.1376-3.1978l-6.9931-3.3231q-2.1677-1.0301-3.1978 1.1376l-2.3488 4.9428q-1.0301 2.1677 1.1376 3.1978l6.9931 3.3231q2.1677 1.0301 3.1978-1.1376z" clip-path="url(#a)" fill="#fff" stroke="#fff"/>
<g clip-path="url(#a)">
<g transform="translate(940.83 464.23) rotate(-64.583) scale(.08 -.08)">
<use xlink:href="#n"/>
</g>
</g>
<path d="m1010.9 369.82 1.4768 5.2695q0.64765 2.311 2.9586 1.6633l7.4553-2.0894q2.311-0.64765 1.6633-2.9586l-1.4768-5.2695q-0.64765-2.311-2.9586-1.6633l-7.4553 2.0894q-2.311 0.64765-1.6633 2.9586z" clip-path="url(#a)" fill="#fff" stroke="#fff"/>
<g clip-path="url(#a)">
<g transform="translate(1014.8 368.73) rotate(74.344) scale(.08 -.08)">
<use xlink:href="#n"/>
</g>
</g>
<path d="m1125 463.31 3.2821 3.535q1.633 1.7588 3.3918 0.12579l5.6739-5.2681q1.7588-1.633 0.12579-3.3918l-3.2821-3.535q-1.633-1.7588-3.3918-0.12579l-5.6739 5.2681q-1.7588 1.633-0.12579 3.3918z" clip-path="url(#a)" fill="#fff" stroke="#fff"/>
<g clip-path="url(#a)">
<g transform="translate(1128 460.55) rotate(47.124) scale(.08 -.08)">
<use xlink:href="#y"/>
</g>
</g>
<path d="m1148.8 463.5 4.3393 3.9308q1.7787 1.6113 3.39-0.16747l5.198-5.7382q1.6113-1.7787-0.16747-3.39l-4.3393-3.9308q-1.7787-1.6113-3.39 0.16747l-5.198 5.7382q-1.6113 1.7787 0.16747 3.39z" clip-path="url(#a)" fill="#fff" stroke="#fff"/>
<g clip-path="url(#a)">
<g transform="translate(1151.5 460.49) rotate(42.172) scale(.08 -.08)">
<use xlink:href="#am"/>
</g>
</g>
<path d="m821.17 624.14v35.285q0 2.4 2.4 2.4h7.7425q2.4 0 2.4-2.4v-35.285q0-2.4-2.4-2.4h-7.7425q-2.4 0-2.4 2.4z" clip-path="url(#a)" fill="#fff" stroke="#fff"/>
<g clip-path="url(#a)">
<g transform="translate(825.24 624.14) rotate(90) scale(.08 -.08)">
<use xlink:href="#l"/>
<use x="60.818359" xlink:href="#c"/>
<use x="122.341797" xlink:href="#g"/>
<use x="163.439453" xlink:href="#k"/>
<use x="260.851562" xlink:href="#h"/>
<use x="288.634766" xlink:href="#f"/>
<use x="352.013672" xlink:href="#i"/>
<use x="413.292969" xlink:href="#j"/>
</g>
</g>
<path d="m868.99 624.14v35.285q0 2.4 2.4 2.4h7.7425q2.4 0 2.4-2.4v-35.285q0-2.4-2.4-2.4h-7.7425q-2.4 0-2.4 2.4z" clip-path="url(#a)" fill="#fff" stroke="#fff"/>
<g clip-path="url(#a)">
<g transform="translate(873.05 624.14) rotate(90) scale(.08 -.08)">
<use xlink:href="#l"/>
<use x="60.818359" xlink:href="#c"/>
<use x="122.341797" xlink:href="#g"/>
<use x="163.439453" xlink:href="#k"/>
<use x="260.851562" xlink:href="#h"/>
<use x="288.634766" xlink:href="#f"/>
<use x="352.013672" xlink:href="#i"/>
<use x="413.292969" xlink:href="#j"/>
</g>
</g>
<path d="m980.83 512.63 2.8507-4.7721q1.2308-2.0604-0.82957-3.2912l-6.6468-3.9706q-2.0604-1.2308-3.2912 0.82957l-2.8507 4.7721q-1.2308 2.0604 0.82957 3.2912l6.6468 3.9706q2.0604 1.2308 3.2912-0.82957z" clip-path="url(#a)" fill="#fff" stroke="#fff"/>
<g clip-path="url(#a)">
<g transform="translate(977.34 510.54) rotate(-59.147) scale(.08 -.08)">
<use xlink:href="#x"/>
</g>
</g>
<path d="m1030.6 465.52 0.6305-4.7824q0.3137-2.3794-2.0657-2.6931l-7.6761-1.012q-2.3794-0.3137-2.6931 2.0657l-0.6305 4.7824q-0.3137 2.3794 2.0657 2.6931l7.6761 1.012q2.3794 0.3137 2.6931-2.0657z" clip-path="url(#a)" fill="#fff" stroke="#fff"/>
<g clip-path="url(#a)">
<g transform="translate(1026.6 464.99) rotate(-82.49) scale(.08 -.08)">
<use xlink:href="#y"/>
</g>
</g>
<path d="m1030.7 510.51 0.40797-6.1465q0.15895-2.3947-2.2358-2.5537l-7.7255-0.51278q-2.3947-0.15895-2.5537 2.2358l-0.40797 6.1465q-0.15895 2.3947 2.2358 2.5537l7.7255 0.51278q2.3947 0.15895 2.5537-2.2358z" clip-path="url(#a)" fill="#fff" stroke="#fff"/>
<g clip-path="url(#a)">
<g transform="translate(1026.7 510.24) rotate(-86.203) scale(.08 -.08)">
<use xlink:href="#ap"/>
</g>
</g>
<path d="m1090.6 465.92 4.5053 3.1066q1.9758 1.3624 3.3382-0.61339l4.3952-6.374q1.3624-1.9758-0.61339-3.3382l-4.5053-3.1066q-1.9758-1.3624-3.3382 0.61339l-4.3952 6.374q-1.3624 1.9758 0.61339 3.3382z" clip-path="url(#a)" fill="#fff" stroke="#fff"/>
<g clip-path="url(#a)">
<g transform="translate(1092.9 462.57) rotate(34.588) scale(.08 -.08)">
<use xlink:href="#n"/>
</g>
</g>
<path d="m1251.5 624.14v35.285q0 2.4 2.4 2.4h7.7425q2.4 0 2.4-2.4v-35.285q0-2.4-2.4-2.4h-7.7425q-2.4 0-2.4 2.4z" clip-path="url(#a)" fill="#fff" stroke="#fff"/>
<g clip-path="url(#a)">
<g transform="translate(1255.6 624.14) rotate(90) scale(.08 -.08)">
<use xlink:href="#l"/>
<use x="60.818359" xlink:href="#c"/>
<use x="122.341797" xlink:href="#g"/>
<use x="163.439453" xlink:href="#k"/>
<use x="260.851562" xlink:href="#h"/>
<use x="288.634766" xlink:href="#f"/>
<use x="352.013672" xlink:href="#i"/>
<use x="413.292969" xlink:href="#j"/>
</g>
</g>
<path d="m916.81 624.14v35.285q0 2.4 2.4 2.4h7.7425q2.4 0 2.4-2.4v-35.285q0-2.4-2.4-2.4h-7.7425q-2.4 0-2.4 2.4z" clip-path="url(#a)" fill="#fff" stroke="#fff"/>
<g clip-path="url(#a)">
<g transform="translate(920.87 624.14) rotate(90) scale(.08 -.08)">
<use xlink:href="#l"/>
<use x="60.818359" xlink:href="#c"/>
<use x="122.341797" xlink:href="#g"/>
<use x="163.439453" xlink:href="#k"/>
<use x="260.851562" xlink:href="#h"/>
<use x="288.634766" xlink:href="#f"/>
<use x="352.013672" xlink:href="#i"/>
<use x="413.292969" xlink:href="#j"/>
</g>
</g>
<path d="m999.25 557.34 2.1696-4.0576q1.1316-2.1165-0.98481-3.2481l-6.8278-3.6507q-2.1165-1.1316-3.2481 0.98481l-2.1696 4.0576q-1.1316 2.1165 0.98481 3.2481l6.8278 3.6507q2.1165 1.1316 3.2481-0.98481z" clip-path="url(#a)" fill="#fff" stroke="#fff"/>
<g clip-path="url(#a)">
<g transform="translate(995.66 555.43) rotate(-61.867) scale(.08 -.08)">
<use xlink:href="#ag"/>
</g>
</g>
<path d="m1035.8 552.85 2.634 4.9263q1.1316 2.1165 3.2481 0.98481l6.8278-3.6507q2.1165-1.1316 0.98481-3.2481l-2.634-4.9263q-1.1316-2.1165-3.2481-0.98481l-6.8278 3.6507q-2.1165 1.1316-0.98481 3.2481z" clip-path="url(#a)" fill="#fff" stroke="#fff"/>
<g clip-path="url(#a)">
<g transform="translate(1039.4 550.94) rotate(61.867) scale(.08 -.08)">
<use xlink:href="#r"/>
</g>
</g>
<path d="m1012.4 624.14v35.285q0 2.4 2.4 2.4h7.7425q2.4 0 2.4-2.4v-35.285q0-2.4-2.4-2.4h-7.7425q-2.4 0-2.4 2.4z" clip-path="url(#a)" fill="#fff" stroke="#fff"/>
<g clip-path="url(#a)">
<g transform="translate(1016.5 624.14) rotate(90) scale(.08 -.08)">
<use xlink:href="#l"/>
<use x="60.818359" xlink:href="#c"/>
<use x="122.341797" xlink:href="#g"/>
<use x="163.439453" xlink:href="#k"/>
<use x="260.851562" xlink:href="#h"/>
<use x="288.634766" xlink:href="#f"/>
<use x="352.013672" xlink:href="#i"/>
<use x="413.292969" xlink:href="#j"/>
</g>
</g>
<path d="m1142.5 557.77 2.6211-4.902q1.1316-2.1165-0.98481-3.2481l-6.8278-3.6507q-2.1165-1.1316-3.2481 0.98481l-2.6211 4.902q-1.1316 2.1165 0.98481 3.2481l6.8278 3.6507q2.1165 1.1316 3.2481-0.98481z" clip-path="url(#a)" fill="#fff" stroke="#fff"/>
<g clip-path="url(#a)">
<g transform="translate(1138.9 555.85) rotate(-61.867) scale(.08 -.08)">
<use xlink:href="#x"/>
</g>
</g>
<path d="m1155.9 549.83v5.055q0 2.4 2.4 2.4h7.7425q2.4 0 2.4-2.4v-5.055q0-2.4-2.4-2.4h-7.7425q-2.4 0-2.4 2.4z" clip-path="url(#a)" fill="#fff" stroke="#fff"/>
<g clip-path="url(#a)">
<g transform="translate(1159.9 549.83) rotate(90) scale(.08 -.08)">
<use xlink:href="#ah"/>
</g>
</g>
<path d="m1179.2 552.85 2.634 4.9263q1.1316 2.1165 3.2481 0.98481l6.8278-3.6507q2.1165-1.1316 0.98481-3.2481l-2.634-4.9263q-1.1316-2.1165-3.2481-0.98481l-6.8278 3.6507q-2.1165 1.1316-0.98481 3.2481z" clip-path="url(#a)" fill="#fff" stroke="#fff"/>
<g clip-path="url(#a)">
<g transform="translate(1182.8 550.94) rotate(61.867) scale(.08 -.08)">
<use xlink:href="#r"/>
</g>
</g>
<path d="m1108.1 624.14v35.285q0 2.4 2.4 2.4h7.7425q2.4 0 2.4-2.4v-35.285q0-2.4-2.4-2.4h-7.7425q-2.4 0-2.4 2.4z" clip-path="url(#a)" fill="#fff" stroke="#fff"/>
<g clip-path="url(#a)">
<g transform="translate(1112.1 624.14) rotate(90) scale(.08 -.08)">
<use xlink:href="#l"/>
<use x="60.818359" xlink:href="#c"/>
<use x="122.341797" xlink:href="#g"/>
<use x="163.439453" xlink:href="#k"/>
<use x="260.851562" xlink:href="#h"/>
<use x="288.634766" xlink:href="#f"/>
<use x="352.013672" xlink:href="#i"/>
<use x="413.292969" xlink:href="#j"/>
</g>
</g>
<path d="m1155.9 624.14v35.285q0 2.4 2.4 2.4h7.7425q2.4 0 2.4-2.4v-35.285q0-2.4-2.4-2.4h-7.7425q-2.4 0-2.4 2.4z" clip-path="url(#a)" fill="#fff" stroke="#fff"/>
<g clip-path="url(#a)">
<g transform="translate(1159.9 624.14) rotate(90) scale(.08 -.08)">
<use xlink:href="#l"/>
<use x="60.818359" xlink:href="#c"/>
<use x="122.341797" xlink:href="#g"/>
<use x="163.439453" xlink:href="#k"/>
<use x="260.851562" xlink:href="#h"/>
<use x="288.634766" xlink:href="#f"/>
<use x="352.013672" xlink:href="#i"/>
<use x="413.292969" xlink:href="#j"/>
</g>
</g>
<path d="m1203.7 624.14v35.285q0 2.4 2.4 2.4h7.7425q2.4 0 2.4-2.4v-35.285q0-2.4-2.4-2.4h-7.7425q-2.4 0-2.4 2.4z" clip-path="url(#a)" fill="#fff" stroke="#fff"/>
<g clip-path="url(#a)">
<g transform="translate(1207.8 624.14) rotate(90) scale(.08 -.08)">
<use xlink:href="#l"/>
<use x="60.818359" xlink:href="#c"/>
<use x="122.341797" xlink:href="#g"/>
<use x="163.439453" xlink:href="#k"/>
<use x="260.851562" xlink:href="#h"/>
<use x="288.634766" xlink:href="#f"/>
<use x="352.013672" xlink:href="#i"/>
<use x="413.292969" xlink:href="#j"/>
</g>
</g>
<path d="m964.62 624.14v35.285q0 2.4 2.4 2.4h7.7425q2.4 0 2.4-2.4v-35.285q0-2.4-2.4-2.4h-7.7425q-2.4 0-2.4 2.4z" clip-path="url(#a)" fill="#fff" stroke="#fff"/>
<g clip-path="url(#a)">
<g transform="translate(968.68 624.14) rotate(90) scale(.08 -.08)">
<use xlink:href="#l"/>
<use x="60.818359" xlink:href="#c"/>
<use x="122.341797" xlink:href="#g"/>
<use x="163.439453" xlink:href="#k"/>
<use x="260.851562" xlink:href="#h"/>
<use x="288.634766" xlink:href="#f"/>
<use x="352.013672" xlink:href="#i"/>
<use x="413.292969" xlink:href="#j"/>
</g>
</g>
<path d="m1060.3 624.14v35.285q0 2.4 2.4 2.4h7.7425q2.4 0 2.4-2.4v-35.285q0-2.4-2.4-2.4h-7.7425q-2.4 0-2.4 2.4z" clip-path="url(#a)" fill="#fff" stroke="#fff"/>
<g clip-path="url(#a)">
<g transform="translate(1064.3 624.14) rotate(90) scale(.08 -.08)">
<use xlink:href="#l"/>
<use x="60.818359" xlink:href="#c"/>
<use x="122.341797" xlink:href="#g"/>
<use x="163.439453" xlink:href="#k"/>
<use x="260.851562" xlink:href="#h"/>
<use x="288.634766" xlink:href="#f"/>
<use x="352.013672" xlink:href="#i"/>
<use x="413.292969" xlink:href="#j"/>
</g>
</g>
<path d="m582.1 624.14v35.285q0 2.4 2.4 2.4h7.7425q2.4 0 2.4-2.4v-35.285q0-2.4-2.4-2.4h-7.7425q-2.4 0-2.4 2.4z" clip-path="url(#a)" fill="#fff" stroke="#fff"/>
<g clip-path="url(#a)">
<g transform="translate(586.16 624.14) rotate(90) scale(.08 -.08)">
<use xlink:href="#l"/>
<use x="60.818359" xlink:href="#c"/>
<use x="122.341797" xlink:href="#g"/>
<use x="163.439453" xlink:href="#k"/>
<use x="260.851562" xlink:href="#h"/>
<use x="288.634766" xlink:href="#f"/>
<use x="352.013672" xlink:href="#i"/>
<use x="413.292969" xlink:href="#j"/>
</g>
</g>
<path d="m629.91 624.14v35.285q0 2.4 2.4 2.4h7.7425q2.4 0 2.4-2.4v-35.285q0-2.4-2.4-2.4h-7.7425q-2.4 0-2.4 2.4z" clip-path="url(#a)" fill="#fff" stroke="#fff"/>
<g clip-path="url(#a)">
<g transform="translate(633.98 624.14) rotate(90) scale(.08 -.08)">
<use xlink:href="#l"/>
<use x="60.818359" xlink:href="#c"/>
<use x="122.341797" xlink:href="#g"/>
<use x="163.439453" xlink:href="#k"/>
<use x="260.851562" xlink:href="#h"/>
<use x="288.634766" xlink:href="#f"/>
<use x="352.013672" xlink:href="#i"/>
<use x="413.292969" xlink:href="#j"/>
</g>
</g>
<path d="m486.47 624.14v35.285q0 2.4 2.4 2.4h7.7425q2.4 0 2.4-2.4v-35.285q0-2.4-2.4-2.4h-7.7425q-2.4 0-2.4 2.4z" clip-path="url(#a)" fill="#fff" stroke="#fff"/>
<g clip-path="url(#a)">
<g transform="translate(490.53 624.14) rotate(90) scale(.08 -.08)">
<use xlink:href="#l"/>
<use x="60.818359" xlink:href="#c"/>
<use x="122.341797" xlink:href="#g"/>
<use x="163.439453" xlink:href="#k"/>
<use x="260.851562" xlink:href="#h"/>
<use x="288.634766" xlink:href="#f"/>
<use x="352.013672" xlink:href="#i"/>
<use x="413.292969" xlink:href="#j"/>
</g>
</g>
<path d="m534.28 624.14v35.285q0 2.4 2.4 2.4h7.7425q2.4 0 2.4-2.4v-35.285q0-2.4-2.4-2.4h-7.7425q-2.4 0-2.4 2.4z" clip-path="url(#a)" fill="#fff" stroke="#fff"/>
<g clip-path="url(#a)">
<g transform="translate(538.35 624.14) rotate(90) scale(.08 -.08)">
<use xlink:href="#l"/>
<use x="60.818359" xlink:href="#c"/>
<use x="122.341797" xlink:href="#g"/>
<use x="163.439453" xlink:href="#k"/>
<use x="260.851562" xlink:href="#h"/>
<use x="288.634766" xlink:href="#f"/>
<use x="352.013672" xlink:href="#i"/>
<use x="413.292969" xlink:href="#j"/>
</g>
</g>
<path d="m56.129 624.14v35.285q0 2.4 2.4 2.4h7.7425q2.4 0 2.4-2.4v-35.285q0-2.4-2.4-2.4h-7.7425q-2.4 0-2.4 2.4z" clip-path="url(#a)" fill="#fff" stroke="#fff"/>
<g clip-path="url(#a)">
<g transform="translate(60.192 624.14) rotate(90) scale(.08 -.08)">
<use xlink:href="#l"/>
<use x="60.818359" xlink:href="#c"/>
<use x="122.341797" xlink:href="#g"/>
<use x="163.439453" xlink:href="#k"/>
<use x="260.851562" xlink:href="#h"/>
<use x="288.634766" xlink:href="#f"/>
<use x="352.013672" xlink:href="#i"/>
<use x="413.292969" xlink:href="#j"/>
</g>
</g>
<path d="m159.61 657.37 28.254-21.137q1.9218-1.4377 0.48409-3.3594l-4.638-6.1997q-1.4377-1.9218-3.3594-0.48409l-28.254 21.137q-1.9218 1.4377-0.48409 3.3594l4.638 6.1997q1.4377 1.9218 3.3594 0.48409z" clip-path="url(#a)" fill="#fff" stroke="#fff"/>
<g clip-path="url(#a)">
<g transform="translate(157.18 654.12) rotate(-36.8) scale(.08 -.08)">
<use xlink:href="#l"/>
<use x="60.818359" xlink:href="#c"/>
<use x="122.341797" xlink:href="#g"/>
<use x="163.439453" xlink:href="#k"/>
<use x="260.851562" xlink:href="#h"/>
<use x="288.634766" xlink:href="#f"/>
<use x="352.013672" xlink:href="#i"/>
<use x="413.292969" xlink:href="#j"/>
</g>
</g>
<path d="m271.64 636.24 28.254 21.137q1.9218 1.4377 3.3594-0.48409l4.638-6.1997q1.4377-1.9218-0.48409-3.3594l-28.254-21.137q-1.9218-1.4377-3.3594 0.48409l-4.638 6.1997q-1.4377 1.9218 0.48409 3.3594z" clip-path="url(#a)" fill="#fff" stroke="#fff"/>
<g clip-path="url(#a)">
<g transform="translate(274.07 632.98) rotate(36.8) scale(.08 -.08)">
<use xlink:href="#l"/>
<use x="60.818359" xlink:href="#c"/>
<use x="122.341797" xlink:href="#g"/>
<use x="163.439453" xlink:href="#k"/>
<use x="260.851562" xlink:href="#h"/>
<use x="288.634766" xlink:href="#f"/>
<use x="352.013672" xlink:href="#i"/>
<use x="413.292969" xlink:href="#j"/>
</g>
</g>
<path d="m175.54 455.81v12.991q0 2.4 2.4 2.4h8q2.4 0 2.4-2.4v-12.991q0-2.4-2.4-2.4h-8q-2.4 0-2.4 2.4z" clip-path="url(#a)" fill="#fff" stroke="#fff"/>
<g clip-path="url(#a)">
<defs>
<path id="as" d="m21 76.422v-100h-8.2969v100z"/>
</defs>
<g transform="translate(179.82 455.81) rotate(90) scale(.08 -.08)">
<use xlink:href="#n"/>
<use x="68.408203" xlink:href="#as"/>
<use x="102.099609" xlink:href="#y"/>
</g>
</g>
<path d="m289.43 465.64 0.66072-5.0116q0.3137-2.3794-2.0657-2.6931l-7.6761-1.012q-2.3794-0.3137-2.6931 2.0657l-0.66072 5.0116q-0.3137 2.3794 2.0657 2.6931l7.6761 1.012q2.3794 0.3137 2.6931-2.0657z" clip-path="url(#a)" fill="#fff" stroke="#fff"/>
<g clip-path="url(#a)">
<g transform="translate(285.4 465.1) rotate(-82.49) scale(.08 -.08)">
<use xlink:href="#ah"/>
</g>
</g>
<path d="m289.06 504.65 0.36997 5.574q0.15895 2.3947 2.5537 2.2358l7.7255-0.51278q2.3947-0.15895 2.2358-2.5537l-0.36997-5.574q-0.15895-2.3947-2.5537-2.2358l-7.7255 0.51278q-2.3947 0.15895-2.2358 2.5537z" clip-path="url(#a)" fill="#fff" stroke="#fff"/>
<g clip-path="url(#a)">
<g transform="translate(293.11 504.38) rotate(86.203) scale(.08 -.08)">
<use xlink:href="#r"/>
</g>
</g>
<path d="m282.76 551.33 1.4134 5.2868q0.61986 2.3186 2.9384 1.6987l7.4798-1.9997q2.3186-0.61986 1.6987-2.9384l-1.4134-5.2868q-0.61986-2.3186-2.9384-1.6987l-7.4798 1.9997q-2.3186 0.61986-1.6987 2.9384z" clip-path="url(#a)" fill="#fff" stroke="#fff"/>
<g clip-path="url(#a)">
<g transform="translate(286.68 550.29) rotate(75.032) scale(.08 -.08)">
<use xlink:href="#n"/>
</g>
</g>
<path d="m270.09 560.41 3.4212-12.797q0.61986-2.3186-1.6987-2.9384l-7.7286-2.0662q-2.3186-0.61986-2.9384 1.6987l-3.4212 12.797q-0.61986 2.3186 1.6987 2.9384l7.7286 2.0662q2.3186 0.61986 2.9384-1.6987z" clip-path="url(#a)" fill="#fff" stroke="#fff"/>
<g clip-path="url(#a)">
<defs>
<path id="an" d="m53.516 70.516v-9.625q-5.6094 2.6875-10.594 4-4.9844 1.3281-9.625 1.3281-8.0469 0-12.422-3.125t-4.375-8.8906q0-4.8438 2.9062-7.3125 2.9062-2.4531 11.016-3.9688l5.9531-1.2188q11.031-2.1094 16.281-7.4062t5.25-14.172q0-10.609-7.1094-16.078-7.0938-5.4688-20.812-5.4688-5.1719 0-11.016 1.1719-5.8281 1.1719-12.078 3.4688v10.156q6-3.3594 11.766-5.0781 5.7656-1.7031 11.328-1.7031 8.4375 0 13.031 3.3125 4.5938 3.3281 4.5938 9.4844 0 5.3594-3.2969 8.3906t-10.812 4.5469l-6.0156 1.1719q-11.031 2.1875-15.969 6.875-4.9219 4.6875-4.9219 13.047 0 9.6719 6.8125 15.234t18.766 5.5625q5.1406 0 10.453-0.9375 5.3281-0.92188 10.891-2.7656z"/>
</defs>
<g transform="translate(265.95 559.3) rotate(-75.032) scale(.08 -.08)">
<use xlink:href="#n"/>
<use x="68.408203" xlink:href="#as"/>
<use x="102.099609" xlink:href="#an"/>
</g>
</g>
<path d="m295.21 624.14v35.285q0 2.4 2.4 2.4h7.7425q2.4 0 2.4-2.4v-35.285q0-2.4-2.4-2.4h-7.7425q-2.4 0-2.4 2.4z" clip-path="url(#a)" fill="#fff" stroke="#fff"/>
<g clip-path="url(#a)">
<g transform="translate(299.27 624.14) rotate(90) scale(.08 -.08)">
<use xlink:href="#l"/>
<use x="60.818359" xlink:href="#c"/>
<use x="122.341797" xlink:href="#g"/>
<use x="163.439453" xlink:href="#k"/>
<use x="260.851562" xlink:href="#h"/>
<use x="288.634766" xlink:href="#f"/>
<use x="352.013672" xlink:href="#i"/>
<use x="413.292969" xlink:href="#j"/>
</g>
</g>
<path d="m247.39 624.14v35.285q0 2.4 2.4 2.4h7.7425q2.4 0 2.4-2.4v-35.285q0-2.4-2.4-2.4h-7.7425q-2.4 0-2.4 2.4z" clip-path="url(#a)" fill="#fff" stroke="#fff"/>
<g clip-path="url(#a)">
<g transform="translate(251.45 624.14) rotate(90) scale(.08 -.08)">
<use xlink:href="#l"/>
<use x="60.818359" xlink:href="#c"/>
<use x="122.341797" xlink:href="#g"/>
<use x="163.439453" xlink:href="#k"/>
<use x="260.851562" xlink:href="#h"/>
<use x="288.634766" xlink:href="#f"/>
<use x="352.013672" xlink:href="#i"/>
<use x="413.292969" xlink:href="#j"/>
</g>
</g>
<path d="m175.45 556.2 1.1884-4.4451q0.61986-2.3186-1.6987-2.9384l-7.4798-1.9997q-2.3186-0.61986-2.9384 1.6987l-1.1884 4.4451q-0.61986 2.3186 1.6987 2.9384l7.4798 1.9997q2.3186 0.61986 2.9384-1.6987z" clip-path="url(#a)" fill="#fff" stroke="#fff"/>
<g clip-path="url(#a)">
<g transform="translate(171.52 555.15) rotate(-75.032) scale(.08 -.08)">
<use xlink:href="#ag"/>
</g>
</g>
<path d="m187.11 551.28 1.4428 5.3967q0.61986 2.3186 2.9384 1.6987l7.4798-1.9997q2.3186-0.61986 1.6987-2.9384l-1.4428-5.3967q-0.61986-2.3186-2.9384-1.6987l-7.4798 1.9997q-2.3186 0.61986-1.6987 2.9384z" clip-path="url(#a)" fill="#fff" stroke="#fff"/>
<g clip-path="url(#a)">
<g transform="translate(191.04 550.23) rotate(75.032) scale(.08 -.08)">
<use xlink:href="#r"/>
</g>
</g>
<path d="m151.76 624.14v35.285q0 2.4 2.4 2.4h7.7425q2.4 0 2.4-2.4v-35.285q0-2.4-2.4-2.4h-7.7425q-2.4 0-2.4 2.4z" clip-path="url(#a)" fill="#fff" stroke="#fff"/>
<g clip-path="url(#a)">
<g transform="translate(155.82 624.14) rotate(90) scale(.08 -.08)">
<use xlink:href="#l"/>
<use x="60.818359" xlink:href="#c"/>
<use x="122.341797" xlink:href="#g"/>
<use x="163.439453" xlink:href="#k"/>
<use x="260.851562" xlink:href="#h"/>
<use x="288.634766" xlink:href="#f"/>
<use x="352.013672" xlink:href="#i"/>
<use x="413.292969" xlink:href="#j"/>
</g>
</g>
<path d="m199.57 624.14v35.285q0 2.4 2.4 2.4h7.7425q2.4 0 2.4-2.4v-35.285q0-2.4-2.4-2.4h-7.7425q-2.4 0-2.4 2.4z" clip-path="url(#a)" fill="#fff" stroke="#fff"/>
<g clip-path="url(#a)">
<g transform="translate(203.64 624.14) rotate(90) scale(.08 -.08)">
<use xlink:href="#l"/>
<use x="60.818359" xlink:href="#c"/>
<use x="122.341797" xlink:href="#g"/>
<use x="163.439453" xlink:href="#k"/>
<use x="260.851562" xlink:href="#h"/>
<use x="288.634766" xlink:href="#f"/>
<use x="352.013672" xlink:href="#i"/>
<use x="413.292969" xlink:href="#j"/>
</g>
</g>
<path d="m773.36 624.14v35.285q0 2.4 2.4 2.4h7.7425q2.4 0 2.4-2.4v-35.285q0-2.4-2.4-2.4h-7.7425q-2.4 0-2.4 2.4z" clip-path="url(#a)" fill="#fff" stroke="#fff"/>
<g clip-path="url(#a)">
<g transform="translate(777.42 624.14) rotate(90) scale(.08 -.08)">
<use xlink:href="#l"/>
<use x="60.818359" xlink:href="#c"/>
<use x="122.341797" xlink:href="#g"/>
<use x="163.439453" xlink:href="#k"/>
<use x="260.851562" xlink:href="#h"/>
<use x="288.634766" xlink:href="#f"/>
<use x="352.013672" xlink:href="#i"/>
<use x="413.292969" xlink:href="#j"/>
</g>
</g>
<path d="m1299.3 624.14v35.285q0 2.4 2.4 2.4h7.7425q2.4 0 2.4-2.4v-35.285q0-2.4-2.4-2.4h-7.7425q-2.4 0-2.4 2.4z" clip-path="url(#a)" fill="#fff" stroke="#fff"/>
<g clip-path="url(#a)">
<g transform="translate(1303.4 624.14) rotate(90) scale(.08 -.08)">
<use xlink:href="#l"/>
<use x="60.818359" xlink:href="#c"/>
<use x="122.341797" xlink:href="#g"/>
<use x="163.439453" xlink:href="#k"/>
<use x="260.851562" xlink:href="#h"/>
<use x="288.634766" xlink:href="#f"/>
<use x="352.013672" xlink:href="#i"/>
<use x="413.292969" xlink:href="#j"/>
</g>
</g>
<defs>
<path id="b" d="m0 8.6603c2.2967 0 4.4997-0.9125 6.1237-2.5365 1.624-1.624 2.5365-3.827 2.5365-6.1237s-0.9125-4.4997-2.5365-6.1237c-1.624-1.624-3.827-2.5365-6.1237-2.5365s-4.4997 0.9125-6.1237 2.5365c-1.624 1.624-2.5365 3.827-2.5365 6.1237s0.9125 4.4997 2.5365 6.1237c1.624 1.624 3.827 2.5365 6.1237 2.5365z"/>
</defs>
<g clip-path="url(#a)">
<use x="62.399762" y="686.49827" fill="#ffffff" stroke="#ffffff" xlink:href="#b"/>
</g>
<g clip-path="url(#a)">
<use x="110.215165" y="686.49827" fill="#ffffff" stroke="#ffffff" xlink:href="#b"/>
</g>
<g clip-path="url(#a)">
<use x="158.030568" y="686.49827" fill="#ffffff" stroke="#ffffff" xlink:href="#b"/>
</g>
<g clip-path="url(#a)">
<use x="205.845971" y="686.49827" fill="#ffffff" stroke="#ffffff" xlink:href="#b"/>
</g>
<g clip-path="url(#a)">
<use x="253.661374" y="686.49827" fill="#ffffff" stroke="#ffffff" xlink:href="#b"/>
</g>
<g clip-path="url(#a)">
<use x="301.476777" y="686.49827" fill="#ffffff" stroke="#ffffff" xlink:href="#b"/>
</g>
<g clip-path="url(#a)">
<use x="349.29218" y="686.49827" fill="#ffffff" stroke="#ffffff" xlink:href="#b"/>
</g>
<g clip-path="url(#a)">
<use x="397.107583" y="686.49827" fill="#ffffff" stroke="#ffffff" xlink:href="#b"/>
</g>
<g clip-path="url(#a)">
<use x="444.922985" y="686.49827" fill="#ffffff" stroke="#ffffff" xlink:href="#b"/>
</g>
<g clip-path="url(#a)">
<use x="492.738388" y="686.49827" fill="#ffffff" stroke="#ffffff" xlink:href="#b"/>
</g>
<g clip-path="url(#a)">
<use x="540.553791" y="686.49827" fill="#ffffff" stroke="#ffffff" xlink:href="#b"/>
</g>
<g clip-path="url(#a)">
<use x="588.369194" y="686.49827" fill="#ffffff" stroke="#ffffff" xlink:href="#b"/>
</g>
<g clip-path="url(#a)">
<use x="636.184597" y="686.49827" fill="#ffffff" stroke="#ffffff" xlink:href="#b"/>
</g>
<g clip-path="url(#a)">
<use x="684" y="686.49827" fill="#ffffff" stroke="#ffffff" xlink:href="#b"/>
</g>
<g clip-path="url(#a)">
<use x="731.815403" y="686.49827" fill="#ffffff" stroke="#ffffff" xlink:href="#b"/>
</g>
<g clip-path="url(#a)">
<use x="779.630806" y="686.49827" fill="#ffffff" stroke="#ffffff" xlink:href="#b"/>
</g>
<g clip-path="url(#a)">
<use x="827.446209" y="686.49827" fill="#ffffff" stroke="#ffffff" xlink:href="#b"/>
</g>
<g clip-path="url(#a)">
<use x="875.261612" y="686.49827" fill="#ffffff" stroke="#ffffff" xlink:href="#b"/>
</g>
<g clip-path="url(#a)">
<use x="923.077015" y="686.49827" fill="#ffffff" stroke="#ffffff" xlink:href="#b"/>
</g>
<g clip-path="url(#a)">
<use x="970.892417" y="686.49827" fill="#ffffff" stroke="#ffffff" xlink:href="#b"/>
</g>
<g clip-path="url(#a)">
<use x="1018.70782" y="686.49827" fill="#ffffff" stroke="#ffffff" xlink:href="#b"/>
</g>
<g clip-path="url(#a)">
<use x="1066.523223" y="686.49827" fill="#ffffff" stroke="#ffffff" xlink:href="#b"/>
</g>
<g clip-path="url(#a)">
<use x="1114.338626" y="686.49827" fill="#ffffff" stroke="#ffffff" xlink:href="#b"/>
</g>
<g clip-path="url(#a)">
<use x="1162.154029" y="686.49827" fill="#ffffff" stroke="#ffffff" xlink:href="#b"/>
</g>
<g clip-path="url(#a)">
<use x="1209.969432" y="686.49827" fill="#ffffff" stroke="#ffffff" xlink:href="#b"/>
</g>
<g clip-path="url(#a)">
<use x="1257.784835" y="686.49827" fill="#ffffff" stroke="#ffffff" xlink:href="#b"/>
</g>
<g clip-path="url(#a)">
<use x="1305.600238" y="686.49827" fill="#ffffff" stroke="#ffffff" xlink:href="#b"/>
</g>
<g clip-path="url(#a)">
<use x="367.986674" y="33.50173" fill="#ffffff" stroke="#ffffff" xlink:href="#b"/>
</g>
<g clip-path="url(#a)">
<use x="190.903657" y="324.557831" fill="#ffffff" stroke="#ffffff" xlink:href="#b"/>
</g>
<g clip-path="url(#a)">
<use x="397.107583" y="597.071655" fill="#ffffff" stroke="#ffffff" xlink:href="#b"/>
</g>
<g clip-path="url(#a)">
<use x="515.948782" y="133.10719" fill="#ffffff" stroke="#ffffff" xlink:href="#b"/>
</g>
<g clip-path="url(#a)">
<use x="444.922985" y="597.071655" fill="#ffffff" stroke="#ffffff" xlink:href="#b"/>
</g>
<g clip-path="url(#a)">
<use x="516.64609" y="507.645039" fill="#ffffff" stroke="#ffffff" xlink:href="#b"/>
</g>
<g clip-path="url(#a)">
<use x="612.276896" y="507.645039" fill="#ffffff" stroke="#ffffff" xlink:href="#b"/>
</g>
<g clip-path="url(#a)">
<use x="800.051967" y="230.035529" fill="#ffffff" stroke="#ffffff" xlink:href="#b"/>
</g>
<g clip-path="url(#a)">
<use x="684" y="597.071655" fill="#ffffff" stroke="#ffffff" xlink:href="#b"/>
</g>
<g clip-path="url(#a)">
<use x="731.815403" y="597.071655" fill="#ffffff" stroke="#ffffff" xlink:href="#b"/>
</g>
<g clip-path="url(#a)">
<use x="1004.761661" y="324.557831" fill="#ffffff" stroke="#ffffff" xlink:href="#b"/>
</g>
<g clip-path="url(#a)">
<use x="827.446209" y="597.071655" fill="#ffffff" stroke="#ffffff" xlink:href="#b"/>
</g>
<g clip-path="url(#a)">
<use x="875.261612" y="597.071655" fill="#ffffff" stroke="#ffffff" xlink:href="#b"/>
</g>
<g clip-path="url(#a)">
<use x="1030.661671" y="416.974401" fill="#ffffff" stroke="#ffffff" xlink:href="#b"/>
</g>
<g clip-path="url(#a)">
<use x="1257.784835" y="597.071655" fill="#ffffff" stroke="#ffffff" xlink:href="#b"/>
</g>
<g clip-path="url(#a)">
<use x="923.077015" y="597.071655" fill="#ffffff" stroke="#ffffff" xlink:href="#b"/>
</g>
<g clip-path="url(#a)">
<use x="1018.70782" y="507.645039" fill="#ffffff" stroke="#ffffff" xlink:href="#b"/>
</g>
<g clip-path="url(#a)">
<use x="1018.70782" y="597.071655" fill="#ffffff" stroke="#ffffff" xlink:href="#b"/>
</g>
<g clip-path="url(#a)">
<use x="1162.154029" y="507.645039" fill="#ffffff" stroke="#ffffff" xlink:href="#b"/>
</g>
<g clip-path="url(#a)">
<use x="1114.338626" y="597.071655" fill="#ffffff" stroke="#ffffff" xlink:href="#b"/>
</g>
<g clip-path="url(#a)">
<use x="1162.154029" y="597.071655" fill="#ffffff" stroke="#ffffff" xlink:href="#b"/>
</g>
<g clip-path="url(#a)">
<use x="1209.969432" y="597.071655" fill="#ffffff" stroke="#ffffff" xlink:href="#b"/>
</g>
<g clip-path="url(#a)">
<use x="970.892417" y="597.071655" fill="#ffffff" stroke="#ffffff" xlink:href="#b"/>
</g>
<g clip-path="url(#a)">
<use x="1066.523223" y="597.071655" fill="#ffffff" stroke="#ffffff" xlink:href="#b"/>
</g>
<g clip-path="url(#a)">
<use x="588.369194" y="597.071655" fill="#ffffff" stroke="#ffffff" xlink:href="#b"/>
</g>
<g clip-path="url(#a)">
<use x="636.184597" y="597.071655" fill="#ffffff" stroke="#ffffff" xlink:href="#b"/>
</g>
<g clip-path="url(#a)">
<use x="492.738388" y="597.071655" fill="#ffffff" stroke="#ffffff" xlink:href="#b"/>
</g>
<g clip-path="url(#a)">
<use x="540.553791" y="597.071655" fill="#ffffff" stroke="#ffffff" xlink:href="#b"/>
</g>
<g clip-path="url(#a)">
<use x="62.399762" y="597.071655" fill="#ffffff" stroke="#ffffff" xlink:href="#b"/>
</g>
<g clip-path="url(#a)">
<use x="229.753672" y="597.071655" fill="#ffffff" stroke="#ffffff" xlink:href="#b"/>
</g>
<g clip-path="url(#a)">
<use x="181.938269" y="416.974401" fill="#ffffff" stroke="#ffffff" xlink:href="#b"/>
</g>
<g clip-path="url(#a)">
<use x="289.522926" y="416.974401" fill="#ffffff" stroke="#ffffff" xlink:href="#b"/>
</g>
<g clip-path="url(#a)">
<use x="277.569075" y="507.645039" fill="#ffffff" stroke="#ffffff" xlink:href="#b"/>
</g>
<g clip-path="url(#a)">
<use x="301.476777" y="597.071655" fill="#ffffff" stroke="#ffffff" xlink:href="#b"/>
</g>
<g clip-path="url(#a)">
<use x="253.661374" y="597.071655" fill="#ffffff" stroke="#ffffff" xlink:href="#b"/>
</g>
<g clip-path="url(#a)">
<use x="181.938269" y="507.645039" fill="#ffffff" stroke="#ffffff" xlink:href="#b"/>
</g>
<g clip-path="url(#a)">
<use x="158.030568" y="597.071655" fill="#ffffff" stroke="#ffffff" xlink:href="#b"/>
</g>
<g clip-path="url(#a)">
<use x="205.845971" y="597.071655" fill="#ffffff" stroke="#ffffff" xlink:href="#b"/>
</g>
<g clip-path="url(#a)">
<use x="779.630806" y="597.071655" fill="#ffffff" stroke="#ffffff" xlink:href="#b"/>
</g>
<g clip-path="url(#a)">
<use x="1305.600238" y="597.071655" fill="#ffffff" stroke="#ffffff" xlink:href="#b"/>
</g>
<g clip-path="url(#a)">
<g transform="translate(52.119 689.26) scale(.1 -.1)">
<use xlink:href="#aa"/>
<use x="75.195312" xlink:href="#h"/>
<use x="102.978516" xlink:href="#c"/>
<use x="164.501953" xlink:href="#g"/>
</g>
</g>
<g clip-path="url(#a)">
<defs>
<path id="w" d="m48.781 52.594v-8.4062q-3.8125 2.1094-7.6406 3.1562t-7.7344 1.0469q-8.75 0-13.594-5.5469-4.8281-5.5312-4.8281-15.547t4.8281-15.562q4.8438-5.5312 13.594-5.5312 3.9062 0 7.7344 1.0469t7.6406 3.1562v-8.3125q-3.7656-1.75-7.7969-2.625-4.0156-0.89062-8.5625-0.89062-12.359 0-19.641 7.7656-7.2656 7.7656-7.2656 20.953 0 13.375 7.3438 21.031 7.3594 7.6719 20.156 7.6719 4.1406 0 8.0938-0.85938 3.9531-0.84375 7.6719-2.5469z"/>
<path id="v" d="m54.891 33.016v-33.016h-8.9844v32.719q0 7.7656-3.0312 11.609-3.0312 3.8594-9.0781 3.8594-7.2812 0-11.484-4.6406-4.2031-4.625-4.2031-12.641v-30.906h-9.0312v75.984h9.0312v-29.797q3.2344 4.9375 7.5938 7.375 4.375 2.4375 10.094 2.4375 9.4219 0 14.25-5.8281 4.8438-5.8281 4.8438-17.156z"/>
<path id="p" d="m18.312 70.219v-15.531h18.5v-6.9844h-18.5v-29.688q0-6.6875 1.8281-8.5938t7.4531-1.9062h9.2188v-7.5156h-9.2188q-10.406 0-14.359 3.875-3.9531 3.8906-3.9531 14.141v29.688h-6.5938v6.9844h6.5938v15.531z"/>
</defs>
<g transform="translate(91.326 689.26) scale(.1 -.1)">
<use xlink:href="#k"/>
<use x="97.412109" xlink:href="#i"/>
<use x="158.691406" xlink:href="#w"/>
<use x="213.671875" xlink:href="#v"/>
<use x="277.050781" xlink:href="#p"/>
<use x="316.259766" xlink:href="#c"/>
</g>
</g>
<g clip-path="url(#a)">
<defs>
<path id="q" d="m45.406 46.391v29.594h8.9844v-75.984h-8.9844v8.2031q-2.8281-4.875-7.1562-7.25-4.3125-2.375-10.375-2.375-9.9062 0-16.141 7.9062-6.2188 7.9219-6.2188 20.812t6.2188 20.797q6.2344 7.9062 16.141 7.9062 6.0625 0 10.375-2.375 4.3281-2.3594 7.1562-7.2344zm-30.609-19.094q0-9.9062 4.0781-15.547t11.203-5.6406 11.219 5.6406q4.1094 5.6406 4.1094 15.547t-4.1094 15.547q-4.0938 5.6406-11.219 5.6406t-11.203-5.6406-4.0781-15.547z"/>
</defs>
<g transform="translate(149.72 689.26) scale(.1 -.1)">
<use xlink:href="#q"/>
<use x="63.476562" xlink:href="#c"/>
<use x="125" xlink:href="#g"/>
</g>
</g>
<g clip-path="url(#a)">
<defs>
<path id="au" d="m9.8125 72.906h9.8594v-30.812l32.719 30.812h12.703l-36.188-33.984 38.766-38.922h-12.984l-35.016 35.109v-35.109h-9.8594z"/>
<path id="ay" d="m18.109 8.2031v-29h-9.0312v75.484h9.0312v-8.2969q2.8438 4.875 7.1562 7.2344 4.3281 2.375 10.328 2.375 9.9688 0 16.188-7.9062 6.2344-7.9062 6.2344-20.797t-6.2344-20.812q-6.2188-7.9062-16.188-7.9062-6 0-10.328 2.375-4.3125 2.375-7.1562 7.25zm30.578 19.094q0 9.9062-4.0781 15.547t-11.203 5.6406q-7.1406 0-11.219-5.6406t-4.0781-15.547 4.0781-15.547 11.219-5.6406q7.125 0 11.203 5.6406t4.0781 15.547z"/>
<path id="ar" d="m34.281 27.484q-10.891 0-15.094-2.4844t-4.2031-8.5q0-4.7812 3.1562-7.5938 3.1562-2.7969 8.5625-2.7969 7.4844 0 12 5.2969t4.5156 14.078v2zm17.922 3.7188v-31.203h-8.9844v8.2969q-3.0781-4.9688-7.6719-7.3438t-11.234-2.375q-8.3906 0-13.359 4.7188-4.9531 4.7188-4.9531 12.625 0 9.2188 6.1719 13.906 6.1875 4.6875 18.438 4.6875h12.609v0.89062q0 6.2031-4.0781 9.5938t-11.453 3.3906q-4.6875 0-9.1406-1.125-4.4375-1.125-8.5312-3.375v8.3125q4.9219 1.9062 9.5625 2.8438 4.6406 0.95312 9.0312 0.95312 11.875 0 17.734-6.1562 5.8594-6.1406 5.8594-18.641zm-18.609 44.578h9.9062v-9.8594h-9.9062zm-19.094 0h9.9062v-9.8594h-9.9062z"/>
</defs>
<g transform="translate(186.75 689.26) scale(.1 -.1)">
<use xlink:href="#au"/>
<use x="65.560547" xlink:href="#i"/>
<use x="126.839844" xlink:href="#ay"/>
<use x="190.316406" xlink:href="#h"/>
<use x="218.099609" xlink:href="#p"/>
<use x="257.308594" xlink:href="#ar"/>
<use x="318.587891" xlink:href="#f"/>
</g>
</g>
<g clip-path="url(#a)">
<defs>
<path id="z" d="m44.281 53.078v-8.5q-3.7969 1.9531-7.9062 2.9219-4.0938 0.98438-8.5 0.98438-6.6875 0-10.031-2.0469t-3.3438-6.1562q0-3.125 2.3906-4.9062t9.625-3.3906l3.0781-0.6875q9.5625-2.0469 13.594-5.7812t4.0312-10.422q0-7.625-6.0312-12.078-6.0312-4.4375-16.578-4.4375-4.3906 0-9.1562 0.85938t-10.031 2.5625v9.2812q4.9844-2.5938 9.8125-3.8906 4.8281-1.2812 9.5781-1.2812 6.3438 0 9.75 2.1719 3.4219 2.1719 3.4219 6.125 0 3.6562-2.4688 5.6094-2.4531 1.9531-10.812 3.7656l-3.125 0.73438q-8.3438 1.75-12.062 5.3906-3.7031 3.6406-3.7031 9.9844 0 7.7188 5.4688 11.906 5.4688 4.2031 15.531 4.2031 4.9688 0 9.3594-0.73438 4.4062-0.71875 8.1094-2.1875z"/>
</defs>
<g transform="translate(243.42 689.26) scale(.1 -.1)">
<use xlink:href="#z"/>
<use x="52.099609" xlink:href="#c"/>
<use x="113.623047" xlink:href="#h"/>
<use x="141.40625" xlink:href="#f"/>
</g>
</g>
<g clip-path="url(#a)">
<defs>
<path id="aq" d="m19.672 34.812v-26.703h15.828q7.9531 0 11.781 3.2969 3.8438 3.2969 3.8438 10.078 0 6.8438-3.8438 10.078-3.8281 3.25-11.781 3.25zm0 29.984v-21.969h14.609q7.2188 0 10.75 2.7031 3.5469 2.7188 3.5469 8.2812 0 5.5156-3.5469 8.25-3.5312 2.7344-10.75 2.7344zm-9.8594 8.1094h25.203q11.281 0 17.375-4.6875 6.1094-4.6875 6.1094-13.328 0-6.7031-3.125-10.656t-9.1875-4.9219q7.2812-1.5625 11.312-6.5312 4.0312-4.9531 4.0312-12.375 0-9.7656-6.6406-15.094-6.6406-5.3125-18.906-5.3125h-26.172z"/>
<path id="aj" d="m9.0781 75.984h9.0312v-44.875l26.812 23.578h11.469l-29-25.578 30.234-29.109h-11.719l-27.797 26.703v-26.703h-9.0312z"/>
</defs>
<g transform="translate(281.68 689.26) scale(.1 -.1)">
<use xlink:href="#aq"/>
<use x="68.603516" xlink:href="#c"/>
<use x="130.126953" xlink:href="#z"/>
<use x="182.226562" xlink:href="#p"/>
<use x="221.435547" xlink:href="#c"/>
<use x="282.958984" xlink:href="#w"/>
<use x="337.939453" xlink:href="#aj"/>
</g>
</g>
<g clip-path="url(#a)">
<defs>
<path id="t" d="m8.5 21.578v33.109h8.9844v-32.766q0-7.7656 3.0156-11.656 3.0312-3.875 9.0938-3.875 7.2656 0 11.484 4.6406 4.2344 4.6406 4.2344 12.656v31h8.9844v-54.688h-8.9844v8.4062q-3.2656-4.9844-7.5938-7.4062-4.3125-2.4219-10.031-2.4219-9.4219 0-14.312 5.8594-4.875 5.8594-4.875 17.141z"/>
<path id="at" d="m37.109 75.984v-7.4844h-8.5938q-4.8281 0-6.7188-1.9531-1.875-1.9531-1.875-7.0312v-4.8281h14.797v-6.9844h-14.797v-47.703h-9.0312v47.703h-8.5938v6.9844h8.5938v3.8125q0 9.125 4.25 13.297 4.25 4.1875 13.469 4.1875z"/>
</defs>
<g transform="translate(341.3 689.26) scale(.1 -.1)">
<use xlink:href="#i"/>
<use x="61.279297" xlink:href="#t"/>
<use x="124.658203" xlink:href="#at"/>
</g>
</g>
<g clip-path="url(#a)">
<g transform="translate(387.6 689.26) scale(.1 -.1)">
<use xlink:href="#t"/>
<use x="63.378906" xlink:href="#f"/>
<use x="126.757812" xlink:href="#q"/>
</g>
</g>
<g clip-path="url(#a)">
<defs>
<path id="al" d="m48.688 27.297q0 9.9062-4.0781 15.547t-11.203 5.6406q-7.1406 0-11.219-5.6406t-4.0781-15.547 4.0781-15.547 11.219-5.6406q7.125 0 11.203 5.6406t4.0781 15.547zm-30.578 19.094q2.8438 4.875 7.1562 7.2344 4.3281 2.375 10.328 2.375 9.9688 0 16.188-7.9062 6.2344-7.9062 6.2344-20.797t-6.2344-20.812q-6.2188-7.9062-16.188-7.9062-6 0-10.328 2.375-4.3125 2.375-7.1562 7.25v-8.2031h-9.0312v75.984h9.0312z"/>
</defs>
<g transform="translate(416.34 689.26) scale(.1 -.1)">
<use xlink:href="#al"/>
<use x="63.476562" xlink:href="#c"/>
<use x="125" xlink:href="#g"/>
<use x="166.082031" xlink:href="#c"/>
<use x="227.605469" xlink:href="#w"/>
<use x="282.585938" xlink:href="#v"/>
<use x="345.964844" xlink:href="#f"/>
<use x="409.34375" xlink:href="#c"/>
<use x="470.867188" xlink:href="#p"/>
<use x="510.076172" xlink:href="#c"/>
</g>
</g>
<g clip-path="url(#a)">
<g transform="translate(484.52 689.26) scale(.1 -.1)">
<use xlink:href="#k"/>
<use x="97.412109" xlink:href="#h"/>
<use x="125.195312" xlink:href="#p"/>
</g>
</g>
<g clip-path="url(#a)">
<g transform="translate(529.18 689.26) scale(.1 -.1)">
<use xlink:href="#aa"/>
<use x="75.195312" xlink:href="#h"/>
<use x="102.978516" xlink:href="#j"/>
<use x="130.761719" xlink:href="#at"/>
<use x="165.966797" xlink:href="#c"/>
</g>
</g>
<g clip-path="url(#a)">
<g transform="translate(579.51 689.26) scale(.1 -.1)">
<use xlink:href="#q"/>
<use x="63.476562" xlink:href="#c"/>
<use x="125" xlink:href="#z"/>
</g>
</g>
<g clip-path="url(#a)">
<defs>
<path id="u" d="m30.609 48.391q-7.2188 0-11.422-5.6406t-4.2031-15.453 4.1719-15.453q4.1875-5.6406 11.453-5.6406 7.1875 0 11.375 5.6562 4.2031 5.6719 4.2031 15.438 0 9.7188-4.2031 15.406-4.1875 5.6875-11.375 5.6875zm0 7.6094q11.719 0 18.406-7.625 6.7031-7.6094 6.7031-21.078 0-13.422-6.7031-21.078-6.6875-7.6406-18.406-7.6406-11.766 0-18.438 7.6406-6.6562 7.6562-6.6562 21.078 0 13.469 6.6562 21.078 6.6719 7.625 18.438 7.625z"/>
</defs>
<g transform="translate(600.54 689.26) scale(.1 -.1)">
<use xlink:href="#r"/>
<use x="69.824219" xlink:href="#v"/>
<use x="133.203125" xlink:href="#g"/>
<use x="174.285156" xlink:href="#u"/>
<use x="235.466797" xlink:href="#f"/>
<use x="298.845703" xlink:href="#u"/>
<use x="360.027344" xlink:href="#k"/>
<use x="457.439453" xlink:href="#c"/>
<use x="518.962891" xlink:href="#p"/>
<use x="558.171875" xlink:href="#c"/>
<use x="619.695312" xlink:href="#g"/>
<use x="660.808594" xlink:href="#z"/>
</g>
</g>
<g clip-path="url(#a)">
<g transform="translate(676.36 689.26) scale(.1 -.1)">
<use xlink:href="#q"/>
<use x="63.476562" xlink:href="#h"/>
<use x="91.259766" xlink:href="#c"/>
</g>
</g>
<g clip-path="url(#a)">
<defs>
<path id="ak" d="m45.406 27.984q0 9.7656-4.0312 15.125-4.0156 5.375-11.297 5.375-7.2188 0-11.25-5.375-4.0312-5.3594-4.0312-15.125 0-9.7188 4.0312-15.094t11.25-5.375q7.2812 0 11.297 5.375 4.0312 5.375 4.0312 15.094zm8.9844-21.203q0-13.953-6.2031-20.766-6.1875-6.8125-18.984-6.8125-4.7344 0-8.9375 0.70312t-8.1562 2.1719v8.7344q3.9531-2.1406 7.8125-3.1562 3.8594-1.0312 7.8594-1.0312 8.8438 0 13.234 4.6094t4.3906 13.938v4.4531q-2.7812-4.8438-7.125-7.2344t-10.406-2.3906q-10.047 0-16.203 7.6562-6.1562 7.6719-6.1562 20.328 0 12.688 6.1562 20.344 6.1562 7.6719 16.203 7.6719 6.0625 0 10.406-2.3906t7.125-7.2188v8.2969h8.9844z"/>
</defs>
<g transform="translate(716.55 689.26) scale(.1 -.1)">
<use xlink:href="#ao"/>
<use x="55.712891" xlink:href="#ar"/>
<use x="116.992188" xlink:href="#f"/>
<use x="180.371094" xlink:href="#ak"/>
<use x="243.847656" xlink:href="#c"/>
</g>
</g>
<g clip-path="url(#a)">
<defs>
<path id="av" d="m11.719 12.406h10.297v-8.4062l-8-15.625h-6.2969l4 15.625z"/>
</defs>
<g transform="translate(778.04 689.26) scale(.1 -.1)">
<use xlink:href="#av"/>
</g>
</g>
<g clip-path="url(#a)">
<g transform="translate(819.81 689.26) scale(.1 -.1)">
<use xlink:href="#q"/>
<use x="63.476562" xlink:href="#h"/>
<use x="91.259766" xlink:href="#c"/>
</g>
</g>
<g clip-path="url(#a)">
<g transform="translate(870.13 689.26) scale(.1 -.1)">
<use xlink:href="#c"/>
<use x="61.523438" xlink:href="#g"/>
</g>
</g>
<g clip-path="url(#a)">
<g transform="translate(908.76 689.26) scale(.1 -.1)">
<use xlink:href="#q"/>
<use x="63.476562" xlink:href="#t"/>
<use x="126.855469" xlink:href="#g"/>
<use x="167.9375" xlink:href="#w"/>
<use x="222.917969" xlink:href="#v"/>
</g>
</g>
<g clip-path="url(#a)">
<g transform="translate(963.25 689.26) scale(.1 -.1)">
<use xlink:href="#q"/>
<use x="63.476562" xlink:href="#h"/>
<use x="91.259766" xlink:href="#c"/>
</g>
</g>
<g clip-path="url(#a)">
<defs>
<path id="ax" d="m2.9844 54.688h9.5156l17.094-45.891 17.094 45.891h9.5156l-20.516-54.688h-12.203z"/>
</defs>
<g transform="translate(976.71 689.26) scale(.1 -.1)">
<use xlink:href="#ax"/>
<use x="59.179688" xlink:href="#u"/>
<use x="120.361328" xlink:href="#g"/>
<use x="161.474609" xlink:href="#i"/>
<use x="222.753906" xlink:href="#t"/>
<use x="286.132812" xlink:href="#z"/>
<use x="338.232422" xlink:href="#ak"/>
<use x="401.708984" xlink:href="#c"/>
<use x="463.232422" xlink:href="#v"/>
<use x="526.611328" xlink:href="#c"/>
<use x="588.134766" xlink:href="#f"/>
<use x="651.513672" xlink:href="#q"/>
<use x="714.990234" xlink:href="#c"/>
<use x="776.513672" xlink:href="#f"/>
</g>
</g>
<g clip-path="url(#a)">
<g transform="translate(1027.1 689.26) scale(.1 -.1)">
<use xlink:href="#aq"/>
<use x="68.603516" xlink:href="#c"/>
<use x="130.126953" xlink:href="#u"/>
<use x="191.308594" xlink:href="#al"/>
<use x="254.785156" xlink:href="#i"/>
<use x="316.064453" xlink:href="#w"/>
<use x="371.044922" xlink:href="#v"/>
<use x="434.423828" xlink:href="#p"/>
<use x="473.632812" xlink:href="#t"/>
<use x="537.011719" xlink:href="#f"/>
<use x="600.390625" xlink:href="#ak"/>
<use x="663.867188" xlink:href="#c"/>
<use x="725.390625" xlink:href="#f"/>
</g>
</g>
<g clip-path="url(#a)">
<g transform="translate(1106 689.26) scale(.1 -.1)">
<use xlink:href="#q"/>
<use x="63.476562" xlink:href="#c"/>
<use x="125" xlink:href="#g"/>
</g>
</g>
<g clip-path="url(#a)">
<g transform="translate(1141.3 689.26) scale(.1 -.1)">
<use xlink:href="#an"/>
<use x="63.476562" xlink:href="#p"/>
<use x="102.685547" xlink:href="#t"/>
<use x="166.064453" xlink:href="#f"/>
<use x="229.443359" xlink:href="#q"/>
<use x="292.919922" xlink:href="#c"/>
<use x="354.443359" xlink:href="#f"/>
</g>
</g>
<g clip-path="url(#a)">
<defs>
<path id="aw" d="m4.2031 54.688h8.9844l11.234-42.672 11.172 42.672h10.594l11.234-42.672 11.188 42.672h8.9844l-14.312-54.688h-10.594l-11.766 44.828-11.812-44.828h-10.609z"/>
</defs>
<g transform="translate(1194 689.26) scale(.1 -.1)">
<use xlink:href="#aw"/>
<use x="81.787109" xlink:href="#h"/>
<use x="109.570312" xlink:href="#f"/>
<use x="172.949219" xlink:href="#aj"/>
<use x="230.8125" xlink:href="#c"/>
<use x="292.335938" xlink:href="#j"/>
</g>
</g>
<g clip-path="url(#a)">
<g transform="translate(1227.3 689.26) scale(.1 -.1)">
<use xlink:href="#aj"/>
<use x="57.863281" xlink:href="#u"/>
<use x="119.044922" xlink:href="#f"/>
<use x="182.423828" xlink:href="#p"/>
<use x="221.632812" xlink:href="#g"/>
<use x="262.714844" xlink:href="#u"/>
<use x="323.896484" xlink:href="#j"/>
<use x="351.679688" xlink:href="#j"/>
<use x="379.462891" xlink:href="#h"/>
<use x="407.246094" xlink:href="#c"/>
<use x="468.769531" xlink:href="#g"/>
<use x="509.882812" xlink:href="#p"/>
<use x="549.091797" xlink:href="#c"/>
</g>
</g>
<g clip-path="url(#a)">
<defs>
<path id="e" d="m10.688 12.406h10.312v-12.406h-10.312z"/>
</defs>
<g transform="translate(1304 689.26) scale(.1 -.1)">
<use xlink:href="#e"/>
</g>
</g>
<g clip-path="url(#a)">
<defs>
<path id="d" d="m12.406 8.2969h16.109v55.625l-17.531-3.5156v8.9844l17.438 3.5156h9.8594v-64.609h16.109v-8.2969h-41.984z"/>
</defs>
<g transform="translate(360.04 36.261) scale(.1 -.1)">
<use xlink:href="#d"/>
<use x="63.623047" xlink:href="#e"/>
<use x="95.410156" xlink:href="#d"/>
</g>
</g>
<g clip-path="url(#a)">
<defs>
<path id="m" d="m19.188 8.2969h34.422v-8.2969h-46.281v8.2969q5.6094 5.8125 15.297 15.594 9.7031 9.7969 12.188 12.641 4.7344 5.3125 6.6094 9 1.8906 3.6875 1.8906 7.25 0 5.8125-4.0781 9.4688-4.0781 3.6719-10.625 3.6719-4.6406 0-9.7969-1.6094-5.1406-1.6094-11-4.8906v9.9688q5.9531 2.3906 11.125 3.6094 5.1875 1.2188 9.4844 1.2188 11.328 0 18.062-5.6719 6.7344-5.6562 6.7344-15.125 0-4.5-1.6875-8.5312-1.6719-4.0156-6.125-9.4844-1.2188-1.4219-7.7656-8.1875-6.5312-6.7656-18.453-18.922z"/>
</defs>
<g transform="translate(182.95 327.32) scale(.1 -.1)">
<use xlink:href="#d"/>
<use x="63.623047" xlink:href="#e"/>
<use x="95.410156" xlink:href="#m"/>
</g>
</g>
<g clip-path="url(#a)">
<defs>
<path id="o" d="m40.578 39.312q7.0781-1.5156 11.047-6.3125 3.9844-4.7812 3.9844-11.812 0-10.781-7.4219-16.703-7.4219-5.9062-21.094-5.9062-4.5781 0-9.4375 0.90625t-10.031 2.7188v9.5156q4.0938-2.3906 8.9688-3.6094 4.8906-1.2188 10.219-1.2188 9.2656 0 14.125 3.6562t4.8594 10.641q0 6.4531-4.5156 10.078-4.5156 3.6406-12.562 3.6406h-8.5v8.1094h8.8906q7.2656 0 11.125 2.9062t3.8594 8.375q0 5.6094-3.9844 8.6094-3.9688 3.0156-11.391 3.0156-4.0625 0-8.7031-0.89062-4.6406-0.875-10.203-2.7188v8.7812q5.625 1.5625 10.531 2.3438t9.25 0.78125q11.234 0 17.766-5.1094 6.5469-5.0938 6.5469-13.781 0-6.0625-3.4688-10.234t-9.8594-5.7812z"/>
</defs>
<g transform="translate(389.16 599.83) scale(.1 -.1)">
<use xlink:href="#d"/>
<use x="63.623047" xlink:href="#e"/>
<use x="95.410156" xlink:href="#o"/>
</g>
</g>
<g clip-path="url(#a)">
<defs>
<path id="s" d="m37.797 64.312-24.906-38.922h24.906zm-2.5938 8.5938h12.406v-47.516h10.406v-8.2031h-10.406v-17.188h-9.8125v17.188h-32.906v9.5156z"/>
</defs>
<g transform="translate(508 135.87) scale(.1 -.1)">
<use xlink:href="#d"/>
<use x="63.623047" xlink:href="#e"/>
<use x="95.410156" xlink:href="#s"/>
</g>
</g>
<g clip-path="url(#a)">
<defs>
<path id="ae" d="m33.016 40.375q-6.6406 0-10.531-4.5469-3.875-4.5312-3.875-12.438 0-7.8594 3.875-12.438 3.8906-4.5625 10.531-4.5625t10.516 4.5625q3.875 4.5781 3.875 12.438 0 7.9062-3.875 12.438-3.875 4.5469-10.516 4.5469zm19.578 30.922v-8.9844q-3.7188 1.75-7.5 2.6719-3.7812 0.9375-7.5 0.9375-9.7656 0-14.922-6.5938-5.1406-6.5938-5.875-19.922 2.875 4.25 7.2188 6.5156 4.3594 2.2656 9.5781 2.2656 10.984 0 17.359-6.6719 6.375-6.6562 6.375-18.125 0-11.234-6.6406-18.031-6.6406-6.7812-17.672-6.7812-12.656 0-19.344 9.6875-6.6875 9.7031-6.6875 28.109 0 17.281 8.2031 27.562t22.016 10.281q3.7188 0 7.5-0.73438t7.8906-2.1875z"/>
</defs>
<g transform="translate(436.97 599.83) scale(.1 -.1)">
<use xlink:href="#d"/>
<use x="63.623047" xlink:href="#e"/>
<use x="95.410156" xlink:href="#ae"/>
</g>
</g>
<g clip-path="url(#a)">
<defs>
<path id="ad" d="m8.2031 72.906h46.875v-4.2031l-26.469-68.703h-10.297l24.906 64.594h-35.016z"/>
</defs>
<g transform="translate(508.69 510.4) scale(.1 -.1)">
<use xlink:href="#d"/>
<use x="63.623047" xlink:href="#e"/>
<use x="95.410156" xlink:href="#ad"/>
</g>
</g>
<g clip-path="url(#a)">
<defs>
<path id="ac" d="m31.781 34.625q-7.0312 0-11.062-3.7656-4.0156-3.7656-4.0156-10.344 0-6.5938 4.0156-10.359 4.0312-3.7656 11.062-3.7656t11.078 3.7812q4.0625 3.7969 4.0625 10.344 0 6.5781-4.0312 10.344-4.0156 3.7656-11.109 3.7656zm-9.8594 4.1875q-6.3438 1.5625-9.8906 5.9062-3.5312 4.3594-3.5312 10.609 0 8.7344 6.2188 13.812 6.2344 5.0781 17.062 5.0781 10.891 0 17.094-5.0781t6.2031-13.812q0-6.25-3.5469-10.609-3.5312-4.3438-9.8281-5.9062 7.125-1.6562 11.094-6.5 3.9844-4.8281 3.9844-11.797 0-10.609-6.4688-16.281-6.4688-5.6562-18.531-5.6562-12.047 0-18.531 5.6562-6.4688 5.6719-6.4688 16.281 0 6.9688 4 11.797 4.0156 4.8438 11.141 6.5zm-3.6094 15.578q0-5.6562 3.5312-8.8281 3.5469-3.1719 9.9375-3.1719 6.3594 0 9.9375 3.1719 3.5938 3.1719 3.5938 8.8281 0 5.6719-3.5938 8.8438-3.5781 3.1719-9.9375 3.1719-6.3906 0-9.9375-3.1719-3.5312-3.1719-3.5312-8.8438z"/>
</defs>
<g transform="translate(604.33 510.4) scale(.1 -.1)">
<use xlink:href="#d"/>
<use x="63.623047" xlink:href="#e"/>
<use x="95.410156" xlink:href="#ac"/>
</g>
</g>
<g clip-path="url(#a)">
<defs>
<path id="ab" d="m10.984 1.5156v8.9844q3.7188-1.7656 7.5156-2.6875 3.8125-0.92188 7.4844-0.92188 9.7656 0 14.906 6.5625 5.1562 6.5625 5.8906 19.953-2.8281-4.2031-7.1875-6.4531-4.3438-2.25-9.6094-2.25-10.938 0-17.312 6.6094-6.375 6.625-6.375 18.109 0 11.219 6.6406 18 6.6406 6.7969 17.672 6.7969 12.656 0 19.312-9.7031 6.6719-9.6875 6.6719-28.141 0-17.234-8.1875-27.516-8.1719-10.281-21.984-10.281-3.7188 0-7.5312 0.73438-3.7969 0.73438-7.9062 2.2031zm19.625 30.906q6.6406 0 10.516 4.5312 3.8906 4.5469 3.8906 12.469 0 7.8594-3.8906 12.422-3.875 4.5625-10.516 4.5625t-10.516-4.5625-3.875-12.422q0-7.9219 3.875-12.469 3.875-4.5312 10.516-4.5312z"/>
</defs>
<g transform="translate(792.1 232.79) scale(.1 -.1)">
<use xlink:href="#d"/>
<use x="63.623047" xlink:href="#e"/>
<use x="95.410156" xlink:href="#ab"/>
</g>
</g>
<g clip-path="url(#a)">
<defs>
<path id="af" d="m31.781 66.406q-7.6094 0-11.453-7.5-3.8281-7.4844-3.8281-22.531 0-14.984 3.8281-22.484 3.8438-7.5 11.453-7.5 7.6719 0 11.5 7.5 3.8438 7.5 3.8438 22.484 0 15.047-3.8438 22.531-3.8281 7.5-11.5 7.5zm0 7.8125q12.266 0 18.734-9.7031 6.4688-9.6875 6.4688-28.141 0-18.406-6.4688-28.109-6.4688-9.6875-18.734-9.6875-12.25 0-18.719 9.6875-6.4688 9.7031-6.4688 28.109 0 18.453 6.4688 28.141 6.4688 9.7031 18.719 9.7031z"/>
</defs>
<g transform="translate(672.87 599.83) scale(.1 -.1)">
<use xlink:href="#d"/>
<use x="63.623047" xlink:href="#e"/>
<use x="95.410156" xlink:href="#d"/>
<use x="159.033203" xlink:href="#af"/>
</g>
</g>
<g clip-path="url(#a)">
<g transform="translate(720.68 599.83) scale(.1 -.1)">
<use xlink:href="#d"/>
<use x="63.623047" xlink:href="#e"/>
<use x="95.410156" xlink:href="#d"/>
<use x="159.033203" xlink:href="#d"/>
</g>
</g>
<g clip-path="url(#a)">
<g transform="translate(993.63 327.32) scale(.1 -.1)">
<use xlink:href="#d"/>
<use x="63.623047" xlink:href="#e"/>
<use x="95.410156" xlink:href="#d"/>
<use x="159.033203" xlink:href="#m"/>
</g>
</g>
<g clip-path="url(#a)">
<g transform="translate(816.31 599.83) scale(.1 -.1)">
<use xlink:href="#d"/>
<use x="63.623047" xlink:href="#e"/>
<use x="95.410156" xlink:href="#d"/>
<use x="159.033203" xlink:href="#s"/>
</g>
</g>
<g clip-path="url(#a)">
<defs>
<path id="ai" d="m10.797 72.906h38.719v-8.3125h-29.688v-17.859q2.1406 0.73438 4.2812 1.0938 2.1562 0.35938 4.3125 0.35938 12.203 0 19.328-6.6875 7.1406-6.6875 7.1406-18.109 0-11.766-7.3281-18.297-7.3281-6.5156-20.656-6.5156-4.5938 0-9.3594 0.78125-4.75 0.78125-9.8281 2.3438v9.9219q4.3906-2.3906 9.0781-3.5625t9.9062-1.1719q8.4531 0 13.375 4.4375 4.9375 4.4375 4.9375 12.062 0 7.6094-4.9375 12.047-4.9219 4.4531-13.375 4.4531-3.9531 0-7.8906-0.875-3.9219-0.875-8.0156-2.7344z"/>
</defs>
<g transform="translate(864.13 599.83) scale(.1 -.1)">
<use xlink:href="#d"/>
<use x="63.623047" xlink:href="#e"/>
<use x="95.410156" xlink:href="#d"/>
<use x="159.033203" xlink:href="#ai"/>
</g>
</g>
<g clip-path="url(#a)">
<g transform="translate(1019.5 419.73) scale(.1 -.1)">
<use xlink:href="#d"/>
<use x="63.623047" xlink:href="#e"/>
<use x="95.410156" xlink:href="#d"/>
<use x="159.033203" xlink:href="#ae"/>
</g>
</g>
<g clip-path="url(#a)">
<g transform="translate(1246.7 599.83) scale(.1 -.1)">
<use xlink:href="#d"/>
<use x="63.623047" xlink:href="#e"/>
<use x="95.410156" xlink:href="#d"/>
<use x="159.033203" xlink:href="#ad"/>
</g>
</g>
<g clip-path="url(#a)">
<g transform="translate(911.94 599.83) scale(.1 -.1)">
<use xlink:href="#d"/>
<use x="63.623047" xlink:href="#e"/>
<use x="95.410156" xlink:href="#d"/>
<use x="159.033203" xlink:href="#ac"/>
</g>
</g>
<g clip-path="url(#a)">
<g transform="translate(1007.6 510.4) scale(.1 -.1)">
<use xlink:href="#d"/>
<use x="63.623047" xlink:href="#e"/>
<use x="95.410156" xlink:href="#d"/>
<use x="159.033203" xlink:href="#ab"/>
</g>
</g>
<g clip-path="url(#a)">
<g transform="translate(1007.6 599.83) scale(.1 -.1)">
<use xlink:href="#d"/>
<use x="63.623047" xlink:href="#e"/>
<use x="95.410156" xlink:href="#m"/>
<use x="159.033203" xlink:href="#af"/>
</g>
</g>
<g clip-path="url(#a)">
<g transform="translate(1151 510.4) scale(.1 -.1)">
<use xlink:href="#d"/>
<use x="63.623047" xlink:href="#e"/>
<use x="95.410156" xlink:href="#m"/>
<use x="159.033203" xlink:href="#d"/>
</g>
</g>
<g clip-path="url(#a)">
<g transform="translate(1103.2 599.83) scale(.1 -.1)">
<use xlink:href="#d"/>
<use x="63.623047" xlink:href="#e"/>
<use x="95.410156" xlink:href="#m"/>
<use x="159.033203" xlink:href="#m"/>
</g>
</g>
<g clip-path="url(#a)">
<g transform="translate(1151 599.83) scale(.1 -.1)">
<use xlink:href="#d"/>
<use x="63.623047" xlink:href="#e"/>
<use x="95.410156" xlink:href="#m"/>
<use x="159.033203" xlink:href="#o"/>
</g>
</g>
<g clip-path="url(#a)">
<g transform="translate(1198.8 599.83) scale(.1 -.1)">
<use xlink:href="#d"/>
<use x="63.623047" xlink:href="#e"/>
<use x="95.410156" xlink:href="#m"/>
<use x="159.033203" xlink:href="#s"/>
</g>
</g>
<g clip-path="url(#a)">
<g transform="translate(959.76 599.83) scale(.1 -.1)">
<use xlink:href="#d"/>
<use x="63.623047" xlink:href="#e"/>
<use x="95.410156" xlink:href="#m"/>
<use x="159.033203" xlink:href="#ai"/>
</g>
</g>
<g clip-path="url(#a)">
<g transform="translate(1055.4 599.83) scale(.1 -.1)">
<use xlink:href="#d"/>
<use x="63.623047" xlink:href="#e"/>
<use x="95.410156" xlink:href="#m"/>
<use x="159.033203" xlink:href="#ae"/>
</g>
</g>
<g clip-path="url(#a)">
<g transform="translate(577.24 599.83) scale(.1 -.1)">
<use xlink:href="#d"/>
<use x="63.623047" xlink:href="#e"/>
<use x="95.410156" xlink:href="#m"/>
<use x="159.033203" xlink:href="#ad"/>
</g>
</g>
<g clip-path="url(#a)">
<g transform="translate(625.05 599.83) scale(.1 -.1)">
<use xlink:href="#d"/>
<use x="63.623047" xlink:href="#e"/>
<use x="95.410156" xlink:href="#m"/>
<use x="159.033203" xlink:href="#ac"/>
</g>
</g>
<g clip-path="url(#a)">
<g transform="translate(481.61 599.83) scale(.1 -.1)">
<use xlink:href="#d"/>
<use x="63.623047" xlink:href="#e"/>
<use x="95.410156" xlink:href="#m"/>
<use x="159.033203" xlink:href="#ab"/>
</g>
</g>
<g clip-path="url(#a)">
<g transform="translate(529.42 599.83) scale(.1 -.1)">
<use xlink:href="#d"/>
<use x="63.623047" xlink:href="#e"/>
<use x="95.410156" xlink:href="#o"/>
<use x="159.033203" xlink:href="#af"/>
</g>
</g>
<g clip-path="url(#a)">
<g transform="translate(51.267 599.83) scale(.1 -.1)">
<use xlink:href="#d"/>
<use x="63.623047" xlink:href="#e"/>
<use x="95.410156" xlink:href="#o"/>
<use x="159.033203" xlink:href="#d"/>
</g>
</g>
<g clip-path="url(#a)">
<g transform="translate(218.62 599.83) scale(.1 -.1)">
<use xlink:href="#d"/>
<use x="63.623047" xlink:href="#e"/>
<use x="95.410156" xlink:href="#o"/>
<use x="159.033203" xlink:href="#m"/>
</g>
</g>
<g clip-path="url(#a)">
<g transform="translate(170.81 419.73) scale(.1 -.1)">
<use xlink:href="#d"/>
<use x="63.623047" xlink:href="#e"/>
<use x="95.410156" xlink:href="#o"/>
<use x="159.033203" xlink:href="#o"/>
</g>
</g>
<g clip-path="url(#a)">
<g transform="translate(278.39 419.73) scale(.1 -.1)">
<use xlink:href="#d"/>
<use x="63.623047" xlink:href="#e"/>
<use x="95.410156" xlink:href="#o"/>
<use x="159.033203" xlink:href="#s"/>
</g>
</g>
<g clip-path="url(#a)">
<g transform="translate(266.44 510.4) scale(.1 -.1)">
<use xlink:href="#d"/>
<use x="63.623047" xlink:href="#e"/>
<use x="95.410156" xlink:href="#o"/>
<use x="159.033203" xlink:href="#ai"/>
</g>
</g>
<g clip-path="url(#a)">
<g transform="translate(290.34 599.83) scale(.1 -.1)">
<use xlink:href="#d"/>
<use x="63.623047" xlink:href="#e"/>
<use x="95.410156" xlink:href="#o"/>
<use x="159.033203" xlink:href="#ae"/>
</g>
</g>
<g clip-path="url(#a)">
<g transform="translate(242.53 599.83) scale(.1 -.1)">
<use xlink:href="#d"/>
<use x="63.623047" xlink:href="#e"/>
<use x="95.410156" xlink:href="#o"/>
<use x="159.033203" xlink:href="#ad"/>
</g>
</g>
<g clip-path="url(#a)">
<g transform="translate(170.81 510.4) scale(.1 -.1)">
<use xlink:href="#d"/>
<use x="63.623047" xlink:href="#e"/>
<use x="95.410156" xlink:href="#o"/>
<use x="159.033203" xlink:href="#ac"/>
</g>
</g>
<g clip-path="url(#a)">
<g transform="translate(146.9 599.83) scale(.1 -.1)">
<use xlink:href="#d"/>
<use x="63.623047" xlink:href="#e"/>
<use x="95.410156" xlink:href="#o"/>
<use x="159.033203" xlink:href="#ab"/>
</g>
</g>
<g clip-path="url(#a)">
<g transform="translate(194.71 599.83) scale(.1 -.1)">
<use xlink:href="#d"/>
<use x="63.623047" xlink:href="#e"/>
<use x="95.410156" xlink:href="#s"/>
<use x="159.033203" xlink:href="#af"/>
</g>
</g>
<g clip-path="url(#a)">
<g transform="translate(768.5 599.83) scale(.1 -.1)">
<use xlink:href="#d"/>
<use x="63.623047" xlink:href="#e"/>
<use x="95.410156" xlink:href="#s"/>
<use x="159.033203" xlink:href="#d"/>
</g>
</g>
<g clip-path="url(#a)">
<g transform="translate(1294.5 599.83) scale(.1 -.1)">
<use xlink:href="#d"/>
<use x="63.623047" xlink:href="#e"/>
<use x="95.410156" xlink:href="#s"/>
<use x="159.033203" xlink:href="#m"/>
</g>
</g>
<defs>
<clipPath id="a">
<rect width="1368" height="720"/>
</clipPath>
</defs>
</svg>
