<?xml version="1.0" encoding="UTF-8"?>
<!DOCTYPE svg  PUBLIC '-//W3C//DTD SVG 1.1//EN'  'http://www.w3.org/Graphics/SVG/1.1/DTD/svg11.dtd'>
<svg width="1874.7pt" height="986.67pt" version="1.1" viewBox="0 0 1874.7 986.67" xmlns="http://www.w3.org/2000/svg" xmlns:xlink="http://www.w3.org/1999/xlink">
<defs>
<style type="text/css">*{stroke-linecap:butt;stroke-linejoin:round;white-space:pre;}</style>
</defs>
<path d="m0 986.67h1874.7v-986.67h-1874.7z" fill="#fff"/>
<g fill="none" stroke="#000">
<path d="m353.01 45.436v109.96" clip-path="url(#a)"/>
<path d="m353.01 155.4 551.84 106.65" clip-path="url(#a)"/>
<path d="m353.01 155.4-136.58 692.82" clip-path="url(#a)"/>
<path d="m353.01 155.4-136.58 692.82" clip-path="url(#a)"/>
<path d="m353.01 155.4-223.97 692.82" clip-path="url(#a)"/>
<path d="m353.01 155.4-49.201 692.82" clip-path="url(#a)"/>
<path d="m353.01 155.4-5.5104 692.82" clip-path="url(#a)"/>
<path d="m904.86 262.05 132.96 204.41" clip-path="url(#a)"/>
<path d="m904.86 262.05-251.52 586.17" clip-path="url(#a)"/>
<path d="m904.86 262.05-164.14 398.85" clip-path="url(#a)"/>
<path d="m904.86 262.05 228.37 103.6" clip-path="url(#a)"/>
<path d="m904.86 262.05 54.32 586.17" clip-path="url(#a)"/>
<path d="m216.43 848.22-43.691 93.013" clip-path="url(#a)"/>
<path d="m216.43 848.22 43.691 93.013" clip-path="url(#a)"/>
<path d="m216.43 848.22v93.013" clip-path="url(#a)"/>
<path d="m1037.8 466.46-952.47 381.75" clip-path="url(#a)"/>
<path d="m1037.8 466.46 751.49 474.77" clip-path="url(#a)"/>
<path d="m1037.8 466.46 200.98 98.313" clip-path="url(#a)"/>
<path d="m653.34 848.22v93.013" clip-path="url(#a)"/>
<path d="m740.72 660.9-43.691 187.32" clip-path="url(#a)"/>
<path d="m740.72 660.9 43.691 94.306" clip-path="url(#a)"/>
<path d="m740.72 660.9 131.07 187.32" clip-path="url(#a)"/>
<path d="m740.72 660.9 174.76 187.32" clip-path="url(#a)"/>
<path d="m740.72 660.9-305.84 187.32" clip-path="url(#a)" stroke-dasharray="3.7,1.6"/>
<path d="m1133.2 365.65-130.36 482.57" clip-path="url(#a)"/>
<path d="m1133.2 365.65-21.13 482.57" clip-path="url(#a)"/>
<path d="m1133.2 365.65 63.391 100.82" clip-path="url(#a)"/>
<path d="m1133.2 365.65 88.097 482.57" clip-path="url(#a)"/>
<path d="m1002.9 848.22v93.013" clip-path="url(#a)"/>
<path d="m1112.1 848.22-65.537 93.013" clip-path="url(#a)"/>
<path d="m1112.1 848.22 65.537 93.013" clip-path="url(#a)"/>
<path d="m1196.6 466.46-106.37 381.75" clip-path="url(#a)"/>
<path d="m1196.6 466.46-62.676 381.75" clip-path="url(#a)"/>
<path d="m1196.6 466.46 169.04 98.313" clip-path="url(#a)"/>
<path d="m1090.3 848.22v93.013" clip-path="url(#a)"/>
<path d="m1133.9 848.22v93.013" clip-path="url(#a)"/>
<path d="m1365.7 564.78-231.72 283.44" clip-path="url(#a)" stroke-dasharray="3.7,1.6"/>
<path d="m1365.7 564.78-100.65 283.44" clip-path="url(#a)"/>
<path d="m1365.7 564.78 127.17 96.122" clip-path="url(#a)"/>
<path d="m1365.7 564.78 205.19 283.44" clip-path="url(#a)"/>
<path d="m1265 848.22v93.013" clip-path="url(#a)"/>
<path d="m1492.8 660.9-162.28 94.306" clip-path="url(#a)"/>
<path d="m1492.8 660.9-53.053 187.32" clip-path="url(#a)"/>
<path d="m1492.8 660.9 34.329 187.32" clip-path="url(#a)"/>
<path d="m1492.8 660.9 121.71 187.32" clip-path="url(#a)"/>
<path d="m1492.8 660.9-96.745 187.32" clip-path="url(#a)"/>
<path d="m1492.8 660.9-9.3624 187.32" clip-path="url(#a)"/>
<path d="m1492.8 660.9 165.4 187.32" clip-path="url(#a)"/>
<path d="m1570.9 848.22v93.013" clip-path="url(#a)"/>
<path d="m1330.6 755.21-21.846 93.013" clip-path="url(#a)"/>
<path d="m1330.6 755.21 21.846 93.013" clip-path="url(#a)"/>
<path d="m1439.8 848.22v93.013" clip-path="url(#a)"/>
<path d="m1527.2 848.22v93.013" clip-path="url(#a)"/>
<path d="m1614.5 848.22v93.013" clip-path="url(#a)"/>
<path d="m1308.7 848.22v93.013" clip-path="url(#a)"/>
<path d="m1352.4 848.22v93.013" clip-path="url(#a)"/>
<path d="m697.03 848.22v93.013" clip-path="url(#a)"/>
<path d="m784.41 755.21-43.691 93.013" clip-path="url(#a)"/>
<path d="m784.41 755.21v93.013" clip-path="url(#a)"/>
<path d="m784.41 755.21 43.691 93.013" clip-path="url(#a)"/>
<path d="m871.8 848.22v93.013" clip-path="url(#a)"/>
<path d="m915.49 848.22v93.013" clip-path="url(#a)"/>
<path d="m740.72 848.22v93.013" clip-path="url(#a)"/>
<path d="m784.41 848.22v93.013" clip-path="url(#a)"/>
<path d="m828.11 848.22v93.013" clip-path="url(#a)"/>
<path d="m85.357 848.22v93.013" clip-path="url(#a)"/>
<path d="m1238.8 564.78 506.82 376.45" clip-path="url(#a)"/>
<path d="m1238.8 564.78-506.82 96.122" clip-path="url(#a)"/>
<path d="m731.99 660.9 969.94 280.33" clip-path="url(#a)"/>
<path d="m731.99 660.9-340.79 187.32" clip-path="url(#a)"/>
<path d="m731.99 660.9-297.1 187.32" clip-path="url(#a)"/>
<path d="m731.99 660.9-209.72 94.306" clip-path="url(#a)"/>
<path d="m731.99 660.9-122.33 187.32" clip-path="url(#a)"/>
<path d="m391.19 848.22v93.013" clip-path="url(#a)"/>
<path d="m434.89 848.22v93.013" clip-path="url(#a)"/>
<path d="m522.27 755.21-43.691 93.013" clip-path="url(#a)"/>
<path d="m522.27 755.21v93.013" clip-path="url(#a)"/>
<path d="m522.27 755.21 43.691 93.013" clip-path="url(#a)"/>
<path d="m609.65 848.22v93.013" clip-path="url(#a)"/>
<path d="m478.58 848.22v93.013" clip-path="url(#a)"/>
<path d="m522.27 848.22v93.013" clip-path="url(#a)"/>
<path d="m565.96 848.22v93.013" clip-path="url(#a)"/>
<path d="m129.05 848.22v93.013" clip-path="url(#a)"/>
<path d="m303.81 848.22v93.013" clip-path="url(#a)"/>
<path d="m347.5 848.22v93.013" clip-path="url(#a)"/>
<path d="m959.18 848.22v93.013" clip-path="url(#a)"/>
<path d="m1221.3 848.22v93.013" clip-path="url(#a)"/>
<path d="m1396.1 848.22v93.013" clip-path="url(#a)"/>
<path d="m1483.5 848.22v93.013" clip-path="url(#a)"/>
<path d="m1658.2 848.22v93.013" clip-path="url(#a)"/>
</g>
<path d="m346.74 97.409v6.0162q0 2.4 2.4 2.4h7.7425q2.4 0 2.4-2.4v-6.0162q0-2.4-2.4-2.4h-7.7425q-2.4 0-2.4 2.4z" clip-path="url(#a)" fill="#fff" stroke="#fff"/>
<g clip-path="url(#a)">
<defs>
<path id="am" d="m9.8125 72.906h9.8594v-29.891h35.844v29.891h9.8594v-72.906h-9.8594v34.719h-35.844v-34.719h-9.8594z"/>
</defs>
<g transform="translate(350.81 97.409) rotate(90) scale(.08 -.08)">
<use xlink:href="#am"/>
</g>
</g>
<path d="m625.06 214.36 5.3731 1.0384q2.3564 0.4554 2.8118-1.901l1.4691-7.6018q0.4554-2.3564-1.901-2.8118l-5.3731-1.0384q-2.3564-0.4554-2.8118 1.901l-1.4691 7.6018q-0.4554 2.3564 1.901 2.8118z" clip-path="url(#a)" fill="#fff" stroke="#fff"/>
<g clip-path="url(#a)">
<defs>
<path id="q" d="m34.188 63.188-13.391-36.281h26.812zm-5.5781 9.7188h11.188l27.781-72.906h-10.25l-6.6406 18.703h-32.859l-6.6406-18.703h-10.406z"/>
</defs>
<g transform="translate(625.83 210.37) rotate(10.938) scale(.08 -.08)">
<use xlink:href="#q"/>
</g>
</g>
<path d="m290.41 505.39 0.933-4.7327q0.46421-2.3547-1.8905-2.8189l-7.5963-1.4975q-2.3547-0.46421-2.8189 1.8905l-0.933 4.7327q-0.46421 2.3547 1.8905 2.8189l7.5963 1.4975q2.3547 0.46421 2.8189-1.8905z" clip-path="url(#a)" fill="#fff" stroke="#fff"/>
<g clip-path="url(#a)">
<defs>
<path id="af" d="m19.672 64.797v-27.391h12.406q6.8906 0 10.641 3.5625 3.7656 3.5625 3.7656 10.156 0 6.5469-3.7656 10.109-3.75 3.5625-10.641 3.5625zm-9.8594 8.1094h22.266q12.266 0 18.531-5.5469 6.2812-5.5469 6.2812-16.234 0-10.797-6.2812-16.312-6.2656-5.5156-18.531-5.5156h-12.406v-29.297h-9.8594z"/>
</defs>
<g transform="translate(286.42 504.6) rotate(-78.848) scale(.08 -.08)">
<use xlink:href="#af"/>
</g>
</g>
<path d="m290.35 505.71 1.0585-5.3692q0.4642-2.3547-1.8905-2.8189l-7.5963-1.4975q-2.3547-0.46421-2.8189 1.8905l-1.0585 5.3692q-0.46421 2.3547 1.8905 2.8189l7.5963 1.4975q2.3547 0.46421 2.8189-1.8905z" clip-path="url(#a)" fill="#fff" stroke="#fff"/>
<g clip-path="url(#a)">
<g transform="translate(286.36 504.92) rotate(-78.848) scale(.08 -.08)">
<use xlink:href="#q"/>
</g>
</g>
<path d="m246.1 506.52 1.801-5.5711q0.73823-2.2836-1.5454-3.0219l-7.3671-2.3816q-2.2836-0.73823-3.0219 1.5454l-1.801 5.5711q-0.73823 2.2836 1.5454 3.0219l7.3671 2.3816q2.2836 0.73823 3.0219-1.5454z" clip-path="url(#a)" fill="#fff" stroke="#fff"/>
<g clip-path="url(#a)">
<defs>
<path id="x" d="m8.6875 72.906h9.9219v-44.297q0-11.719 4.2344-16.875 4.25-5.1406 13.781-5.1406 9.4688 0 13.719 5.1406 4.25 5.1562 4.25 16.875v44.297h9.9062v-45.516q0-14.25-7.0625-21.531-7.0469-7.2812-20.812-7.2812-13.828 0-20.891 7.2812-7.0469 7.2812-7.0469 21.531z"/>
</defs>
<g transform="translate(242.23 505.27) rotate(-72.086) scale(.08 -.08)">
<use xlink:href="#x"/>
</g>
</g>
<path d="m334.46 505.17 0.41476-5.8403q0.17001-2.394-2.224-2.564l-7.723-0.54846q-2.394-0.17001-2.564 2.224l-0.41476 5.8403q-0.17001 2.394 2.224 2.564l7.723 0.54846q2.394 0.17001 2.564-2.224z" clip-path="url(#a)" fill="#fff" stroke="#fff"/>
<g clip-path="url(#a)">
<g transform="translate(330.41 504.88) rotate(-85.938) scale(.08 -.08)">
<use xlink:href="#x"/>
</g>
</g>
<path d="m356.51 504.79 0.046566-5.8548q0.019088-2.3999-2.3808-2.419l-7.7423-0.061578q-2.3999-0.019088-2.419 2.3808l-0.046566 5.8548q-0.019088 2.3999 2.3808 2.419l7.7423 0.061578q2.3999 0.019088 2.419-2.3808z" clip-path="url(#a)" fill="#fff" stroke="#fff"/>
<g clip-path="url(#a)">
<g transform="translate(352.44 504.75) rotate(-89.544) scale(.08 -.08)">
<use xlink:href="#x"/>
</g>
</g>
<path d="m964.44 365.15 3.2804 5.0432q1.3086 2.0118 3.3205 0.70321l6.4903-4.2217q2.0118-1.3086 0.70321-3.3205l-3.2804-5.0432q-1.3086-2.0118-3.3205-0.70322l-6.4903 4.2217q-2.0118 1.3086-0.70322 3.3205z" clip-path="url(#a)" fill="#fff" stroke="#fff"/>
<g clip-path="url(#a)">
<g transform="translate(967.85 362.94) rotate(56.958) scale(.08 -.08)">
<use xlink:href="#am"/>
</g>
</g>
<path d="m783.98 559.65 1.7577-4.0963q0.94637-2.2055-1.2592-3.1519l-7.1152-3.053q-2.2055-0.94637-3.1519 1.2592l-1.7577 4.0963q-0.94637 2.2055 1.2592 3.1519l7.1152 3.053q2.2055 0.94637 3.1519-1.2592z" clip-path="url(#a)" fill="#fff" stroke="#fff"/>
<g clip-path="url(#a)">
<defs>
<path id="al" d="m9.8125 72.906h9.8594v-64.609h35.5v-8.2969h-45.359z"/>
</defs>
<g transform="translate(780.25 558.05) rotate(-66.776) scale(.08 -.08)">
<use xlink:href="#al"/>
</g>
</g>
<path d="m827.45 466.64 2.2895-5.5636q0.91334-2.2194-1.3061-3.1328l-7.1599-2.9465q-2.2194-0.91334-3.1328 1.3061l-2.2895 5.5636q-0.91334 2.2194 1.3061 3.1328l7.1599 2.9465q2.2194 0.91334 3.1328-1.3061z" clip-path="url(#a)" fill="#fff" stroke="#fff"/>
<g clip-path="url(#a)">
<g transform="translate(823.69 465.1) rotate(-67.632) scale(.08 -.08)">
<use xlink:href="#am"/>
</g>
</g>
<path d="m1013.7 318.32 5.4788 2.4855q2.1856 0.9915 3.1771-1.1941l3.1986-7.0509q0.9915-2.1856-1.1941-3.1771l-5.4788-2.4855q-2.1856-0.9915-3.1771 1.1941l-3.1986 7.0509q-0.9915 2.1856 1.1941 3.1771z" clip-path="url(#a)" fill="#fff" stroke="#fff"/>
<g clip-path="url(#a)">
<g transform="translate(1015.4 314.62) rotate(24.401) scale(.08 -.08)">
<use xlink:href="#am"/>
</g>
</g>
<path d="m925.5 552.8 0.54027 5.83q0.22146 2.3898 2.6112 2.1683l7.7095-0.71443q2.3898-0.22146 2.1683-2.6112l-0.54027-5.83q-0.22146-2.3898-2.6112-2.1683l-7.7095 0.71443q-2.3898 0.22146-2.1683 2.6112z" clip-path="url(#a)" fill="#fff" stroke="#fff"/>
<g clip-path="url(#a)">
<g transform="translate(929.55 552.42) rotate(84.706) scale(.08 -.08)">
<use xlink:href="#x"/>
</g>
</g>
<path d="m192.76 913.36 15.002-31.937q1.0204-2.1723-1.1519-3.1927l-7.0079-3.2918q-2.1723-1.0204-3.1927 1.1519l-15.002 31.937q-1.0204 2.1723 1.1519 3.1927l7.0079 3.2918q2.1723 1.0204 3.1927-1.1519z" clip-path="url(#a)" fill="#fff" stroke="#fff"/>
<g clip-path="url(#a)">
<defs>
<path id="k" d="m-0.29688 72.906h61.672v-8.3125h-25.875v-64.594h-9.9062v64.594h-25.891z"/>
<path id="c" d="m56.203 29.594v-4.3906h-41.312q0.59375-9.2812 5.5938-14.141t13.938-4.8594q5.1719 0 10.031 1.2656t9.6562 3.8125v-8.5q-4.8438-2.0469-9.9219-3.125t-10.297-1.0781q-13.094 0-20.734 7.6094-7.6406 7.625-7.6406 20.625 0 13.422 7.25 21.297 7.25 7.8906 19.562 7.8906 11.031 0 17.453-7.1094 6.4219-7.0938 6.4219-19.297zm-8.9844 2.6406q-0.09375 7.3594-4.125 11.75-4.0312 4.4062-10.672 4.4062-7.5156 0-12.031-4.25t-5.2031-11.969z"/>
<path id="g" d="m41.109 46.297q-1.5156 0.875-3.2969 1.2812-1.7812 0.42188-3.9219 0.42188-7.625 0-11.703-4.9531t-4.0781-14.234v-28.812h-9.0312v54.688h9.0312v-8.5q2.8438 4.9844 7.375 7.3906 4.5469 2.4219 11.047 2.4219 0.92188 0 2.0469-0.125 1.125-0.10938 2.4844-0.35938z"/>
<path id="l" d="m52 44.188q3.375 6.0625 8.0625 8.9375t11.031 2.875q8.5469 0 13.188-5.9844 4.6406-5.9688 4.6406-17v-33.016h-9.0312v32.719q0 7.8594-2.7969 11.656-2.7812 3.8125-8.4844 3.8125-6.9844 0-11.047-4.6406-4.0469-4.625-4.0469-12.641v-30.906h-9.0312v32.719q0 7.9062-2.7812 11.688t-8.5938 3.7812q-6.8906 0-10.953-4.6562-4.0469-4.6562-4.0469-12.625v-30.906h-9.0312v54.688h9.0312v-8.5q3.0781 5.0312 7.375 7.4219t10.203 2.3906q5.9688 0 10.141-3.0312 4.1719-3.0156 6.1719-8.7812z"/>
<path id="h" d="m9.4219 54.688h8.9844v-54.688h-8.9844zm0 21.297h8.9844v-11.391h-8.9844z"/>
<path id="e" d="m54.891 33.016v-33.016h-8.9844v32.719q0 7.7656-3.0312 11.609-3.0312 3.8594-9.0781 3.8594-7.2812 0-11.484-4.6406-4.2031-4.625-4.2031-12.641v-30.906h-9.0312v54.688h9.0312v-8.5q3.2344 4.9375 7.5938 7.375 4.375 2.4375 10.094 2.4375 9.4219 0 14.25-5.8281 4.8438-5.8281 4.8438-17.156z"/>
<path id="i" d="m34.281 27.484q-10.891 0-15.094-2.4844t-4.2031-8.5q0-4.7812 3.1562-7.5938 3.1562-2.7969 8.5625-2.7969 7.4844 0 12 5.2969t4.5156 14.078v2zm17.922 3.7188v-31.203h-8.9844v8.2969q-3.0781-4.9688-7.6719-7.3438t-11.234-2.375q-8.3906 0-13.359 4.7188-4.9531 4.7188-4.9531 12.625 0 9.2188 6.1719 13.906 6.1875 4.6875 18.438 4.6875h12.609v0.89062q0 6.2031-4.0781 9.5938t-11.453 3.3906q-4.6875 0-9.1406-1.125-4.4375-1.125-8.5312-3.375v8.3125q4.9219 1.9062 9.5625 2.8438 4.6406 0.95312 9.0312 0.95312 11.875 0 17.734-6.1562 5.8594-6.1406 5.8594-18.641z"/>
<path id="j" d="m9.4219 75.984h8.9844v-75.984h-8.9844z"/>
</defs>
<g transform="translate(189.08 911.63) rotate(-64.839) scale(.08 -.08)">
<use xlink:href="#k"/>
<use x="60.818359" xlink:href="#c"/>
<use x="122.341797" xlink:href="#g"/>
<use x="163.439453" xlink:href="#l"/>
<use x="260.851562" xlink:href="#h"/>
<use x="288.634766" xlink:href="#e"/>
<use x="352.013672" xlink:href="#i"/>
<use x="413.292969" xlink:href="#j"/>
</g>
</g>
<path d="m225.1 881.42 15.002 31.937q1.0204 2.1723 3.1927 1.1519l7.0079-3.2918q2.1723-1.0204 1.1519-3.1927l-15.002-31.937q-1.0204-2.1723-3.1927-1.1519l-7.0079 3.2918q-2.1723 1.0204-1.1519 3.1927z" clip-path="url(#a)" fill="#fff" stroke="#fff"/>
<g clip-path="url(#a)">
<g transform="translate(228.78 879.69) rotate(64.839) scale(.08 -.08)">
<use xlink:href="#k"/>
<use x="60.818359" xlink:href="#c"/>
<use x="122.341797" xlink:href="#g"/>
<use x="163.439453" xlink:href="#l"/>
<use x="260.851562" xlink:href="#h"/>
<use x="288.634766" xlink:href="#e"/>
<use x="352.013672" xlink:href="#i"/>
<use x="413.292969" xlink:href="#j"/>
</g>
</g>
<path d="m210.16 877.08v35.285q0 2.4 2.4 2.4h7.7425q2.4 0 2.4-2.4v-35.285q0-2.4-2.4-2.4h-7.7425q-2.4 0-2.4 2.4z" clip-path="url(#a)" fill="#fff" stroke="#fff"/>
<g clip-path="url(#a)">
<g transform="translate(214.22 877.08) rotate(90) scale(.08 -.08)">
<use xlink:href="#k"/>
<use x="60.818359" xlink:href="#c"/>
<use x="122.341797" xlink:href="#g"/>
<use x="163.439453" xlink:href="#l"/>
<use x="260.851562" xlink:href="#h"/>
<use x="288.634766" xlink:href="#e"/>
<use x="352.013672" xlink:href="#i"/>
<use x="413.292969" xlink:href="#j"/>
</g>
</g>
<path d="m561.38 664.18 5.0797-2.036q2.2277-0.89288 1.3348-3.1206l-2.8805-7.1867q-0.89288-2.2277-3.1206-1.3348l-5.0797 2.036q-2.2277 0.89288-1.3348 3.1206l2.8805 7.1867q0.89288 2.2277 3.1206 1.3348z" clip-path="url(#a)" fill="#fff" stroke="#fff"/>
<g clip-path="url(#a)">
<g transform="translate(559.87 660.41) rotate(-21.841) scale(.08 -.08)">
<use xlink:href="#q"/>
</g>
</g>
<path d="m1408.1 707.79 4.2937 2.7126q2.029 1.2819 3.3109-0.74714l4.1353-6.5456q1.2819-2.029-0.74714-3.3109l-4.2937-2.7126q-2.029-1.2819-3.3109 0.74714l-4.1353 6.5456q-1.2819 2.029 0.74714 3.3109z" clip-path="url(#a)" fill="#fff" stroke="#fff"/>
<g clip-path="url(#a)">
<defs>
<path id="y" d="m53.516 70.516v-9.625q-5.6094 2.6875-10.594 4-4.9844 1.3281-9.625 1.3281-8.0469 0-12.422-3.125t-4.375-8.8906q0-4.8438 2.9062-7.3125 2.9062-2.4531 11.016-3.9688l5.9531-1.2188q11.031-2.1094 16.281-7.4062t5.25-14.172q0-10.609-7.1094-16.078-7.0938-5.4688-20.812-5.4688-5.1719 0-11.016 1.1719-5.8281 1.1719-12.078 3.4688v10.156q6-3.3594 11.766-5.0781 5.7656-1.7031 11.328-1.7031 8.4375 0 13.031 3.3125 4.5938 3.3281 4.5938 9.4844 0 5.3594-3.2969 8.3906t-10.812 4.5469l-6.0156 1.1719q-11.031 2.1875-15.969 6.875-4.9219 4.6875-4.9219 13.047 0 9.6719 6.8125 15.234t18.766 5.5625q5.1406 0 10.453-0.9375 5.3281-0.92188 10.891-2.7656z"/>
</defs>
<g transform="translate(1410.2 704.36) rotate(32.283) scale(.08 -.08)">
<use xlink:href="#y"/>
</g>
</g>
<path d="m1133.1 520.05 4.9159 2.4047q2.1559 1.0546 3.2105-1.1013l3.4022-6.955q1.0546-2.1559-1.1013-3.2105l-4.9159-2.4047q-2.1559-1.0546-3.2105 1.1013l-3.4022 6.955q-1.0546 2.1559 1.1013 3.2105z" clip-path="url(#a)" fill="#fff" stroke="#fff"/>
<g clip-path="url(#a)">
<g transform="translate(1134.9 516.4) rotate(26.066) scale(.08 -.08)">
<use xlink:href="#q"/>
</g>
</g>
<path d="m647.07 877.08v35.285q0 2.4 2.4 2.4h7.7425q2.4 0 2.4-2.4v-35.285q0-2.4-2.4-2.4h-7.7425q-2.4 0-2.4 2.4z" clip-path="url(#a)" fill="#fff" stroke="#fff"/>
<g clip-path="url(#a)">
<g transform="translate(651.13 877.08) rotate(90) scale(.08 -.08)">
<use xlink:href="#k"/>
<use x="60.818359" xlink:href="#c"/>
<use x="122.341797" xlink:href="#g"/>
<use x="163.439453" xlink:href="#l"/>
<use x="260.851562" xlink:href="#h"/>
<use x="288.634766" xlink:href="#e"/>
<use x="352.013672" xlink:href="#i"/>
<use x="413.292969" xlink:href="#j"/>
</g>
</g>
<path d="m724.29 758.98 1.3992-5.999q0.54515-2.3373-1.7921-2.8824l-7.5401-1.7587q-2.3373-0.54515-2.8824 1.7921l-1.3992 5.999q-0.54515 2.3373 1.7921 2.8824l7.5401 1.7587q2.3373 0.54515 2.8824-1.7921z" clip-path="url(#a)" fill="#fff" stroke="#fff"/>
<g clip-path="url(#a)">
<defs>
<path id="as" d="m19.672 64.797v-56.688h11.922q15.094 0 22.094 6.8281 7 6.8438 7 21.594 0 14.641-7 21.453t-22.094 6.8125zm-9.8594 8.1094h20.266q21.188 0 31.094-8.8125 9.9219-8.8125 9.9219-27.562 0-18.859-9.9688-27.703-9.9531-8.8281-31.047-8.8281h-20.266z"/>
</defs>
<g transform="translate(720.33 758.06) rotate(-76.871) scale(.08 -.08)">
<use xlink:href="#as"/>
</g>
</g>
<path d="m755.73 708.21 2.3005 4.9655q1.0089 2.1777 3.1865 1.1688l7.0252-3.2547q2.1776-1.0089 1.1688-3.1865l-2.3005-4.9655q-1.0089-2.1776-3.1865-1.1688l-7.0252 3.2547q-2.1776 1.0089-1.1688 3.1865z" clip-path="url(#a)" fill="#fff" stroke="#fff"/>
<g clip-path="url(#a)">
<g transform="translate(759.42 706.5) rotate(65.142) scale(.08 -.08)">
<use xlink:href="#q"/>
</g>
</g>
<path d="m799.67 756.07 2.9117 4.1612q1.376 1.9664 3.3424 0.59045l6.3437-4.4389q1.9664-1.376 0.59045-3.3424l-2.9117-4.1612q-1.376-1.9664-3.3424-0.59045l-6.3437 4.4389q-1.9664 1.376-0.59045 3.3424z" clip-path="url(#a)" fill="#fff" stroke="#fff"/>
<g clip-path="url(#a)">
<g transform="translate(803 753.74) rotate(55.018) scale(.08 -.08)">
<use xlink:href="#y"/>
</g>
</g>
<path d="m821.95 757.15 3.1389 3.3644q1.6372 1.7548 3.3921 0.11762l5.6612-5.2818q1.7548-1.6372 0.11761-3.3921l-3.1389-3.3644q-1.6372-1.7548-3.3921-0.11762l-5.6612 5.2818q-1.7548 1.6372-0.11762 3.3921z" clip-path="url(#a)" fill="#fff" stroke="#fff"/>
<g clip-path="url(#a)">
<defs>
<path id="ar" d="m9.8125 72.906h41.891v-8.3125h-32.031v-21.484h28.906v-8.2969h-28.906v-34.812h-9.8594z"/>
</defs>
<g transform="translate(824.92 754.38) rotate(46.986) scale(.08 -.08)">
<use xlink:href="#ar"/>
</g>
</g>
<path d="m588.75 761.34 4.6667-2.8583q2.0466-1.2535 0.79311-3.3001l-4.0439-6.6025q-1.2535-2.0466-3.3001-0.79311l-4.6667 2.8583q-2.0466 1.2535-0.79311 3.3001l4.0439 6.6025q1.2535 2.0466 3.3001 0.79311z" clip-path="url(#a)" fill="#fff" stroke="#fff"/>
<g clip-path="url(#a)">
<g transform="translate(586.62 757.87) rotate(-31.487) scale(.08 -.08)">
<use xlink:href="#q"/>
</g>
</g>
<path d="m1073.4 611.21 1.4272-5.2831q0.62589-2.317-1.6911-2.9428l-7.4746-2.0191q-2.317-0.62589-2.9428 1.6911l-1.4272 5.2831q-0.62589 2.317 1.6911 2.9428l7.4746 2.0191q2.317 0.62589 2.9428-1.6911z" clip-path="url(#a)" fill="#fff" stroke="#fff"/>
<g clip-path="url(#a)">
<g transform="translate(1069.5 610.15) rotate(-74.883) scale(.08 -.08)">
<use xlink:href="#q"/>
</g>
</g>
<path d="m1128.8 609.74 0.22217-5.0739q0.10499-2.3977-2.2927-2.5027l-7.7351-0.3387q-2.3977-0.10499-2.5027 2.2927l-0.22217 5.0739q-0.10499 2.3977 2.2927 2.5027l7.7351 0.3387q2.3977 0.10499 2.5027-2.2927z" clip-path="url(#a)" fill="#fff" stroke="#fff"/>
<g clip-path="url(#a)">
<g transform="translate(1124.8 609.57) rotate(-87.493) scale(.08 -.08)">
<use xlink:href="#y"/>
</g>
</g>
<path d="m1158.2 417.08 2.913 4.6328q1.2775 2.0317 3.3093 0.75421l6.5545-4.1213q2.0317-1.2775 0.75421-3.3093l-2.913-4.6328q-1.2775-2.0317-3.3093-0.75421l-6.5545 4.1213q-2.0317 1.2775-0.75421 3.3093z" clip-path="url(#a)" fill="#fff" stroke="#fff"/>
<g clip-path="url(#a)">
<g transform="translate(1161.6 414.92) rotate(57.839) scale(.08 -.08)">
<use xlink:href="#q"/>
</g>
</g>
<path d="m1170.6 605.18 1.0515 5.7598q0.43102 2.361 2.792 1.93l7.6166-1.3905q2.361-0.43102 1.93-2.792l-1.0515-5.7598q-0.43102-2.361-2.792-1.93l-7.6166 1.3905q-2.361 0.43102-1.93 2.792z" clip-path="url(#a)" fill="#fff" stroke="#fff"/>
<g clip-path="url(#a)">
<g transform="translate(1174.6 604.45) rotate(79.654) scale(.08 -.08)">
<use xlink:href="#x"/>
</g>
</g>
<path d="m996.6 877.08v35.285q0 2.4 2.4 2.4h7.7425q2.4 0 2.4-2.4v-35.285q0-2.4-2.4-2.4h-7.7425q-2.4 0-2.4 2.4z" clip-path="url(#a)" fill="#fff" stroke="#fff"/>
<g clip-path="url(#a)">
<g transform="translate(1000.7 877.08) rotate(90) scale(.08 -.08)">
<use xlink:href="#k"/>
<use x="60.818359" xlink:href="#c"/>
<use x="122.341797" xlink:href="#g"/>
<use x="163.439453" xlink:href="#l"/>
<use x="260.851562" xlink:href="#h"/>
<use x="288.634766" xlink:href="#e"/>
<use x="352.013672" xlink:href="#i"/>
<use x="413.292969" xlink:href="#j"/>
</g>
</g>
<path d="m1074.3 912.76 20.324-28.844q1.3824-1.9619-0.57955-3.3443l-6.3292-4.4596q-1.9619-1.3824-3.3443 0.57955l-20.324 28.844q-1.3824 1.9619 0.57955 3.3443l6.3292 4.4596q1.9619 1.3824 3.3443-0.57955z" clip-path="url(#a)" fill="#fff" stroke="#fff"/>
<g clip-path="url(#a)">
<g transform="translate(1071 910.42) rotate(-54.831) scale(.08 -.08)">
<use xlink:href="#k"/>
<use x="60.818359" xlink:href="#c"/>
<use x="122.341797" xlink:href="#g"/>
<use x="163.439453" xlink:href="#l"/>
<use x="260.851562" xlink:href="#h"/>
<use x="288.634766" xlink:href="#e"/>
<use x="352.013672" xlink:href="#i"/>
<use x="413.292969" xlink:href="#j"/>
</g>
</g>
<path d="m1129.6 883.91 20.324 28.844q1.3824 1.9619 3.3443 0.57955l6.3292-4.4596q1.9619-1.3824 0.57955-3.3443l-20.324-28.844q-1.3824-1.9619-3.3443-0.57955l-6.3292 4.4596q-1.9619 1.3824-0.57955 3.3443z" clip-path="url(#a)" fill="#fff" stroke="#fff"/>
<g clip-path="url(#a)">
<g transform="translate(1132.9 881.57) rotate(54.831) scale(.08 -.08)">
<use xlink:href="#k"/>
<use x="60.818359" xlink:href="#c"/>
<use x="122.341797" xlink:href="#g"/>
<use x="163.439453" xlink:href="#l"/>
<use x="260.851562" xlink:href="#h"/>
<use x="288.634766" xlink:href="#e"/>
<use x="352.013672" xlink:href="#i"/>
<use x="413.292969" xlink:href="#j"/>
</g>
</g>
<path d="m1148.8 661.46 1.3568-4.8695q0.64417-2.3119-1.6678-2.9561l-7.4584-2.0781q-2.3119-0.64417-2.9561 1.6678l-1.3568 4.8695q-0.64417 2.3119 1.6678 2.9561l7.4584 2.0781q2.3119 0.64417 2.9561-1.6678z" clip-path="url(#a)" fill="#fff" stroke="#fff"/>
<g clip-path="url(#a)">
<defs>
<path id="aa" d="m9.8125 72.906h46.094v-8.3125h-36.234v-21.578h34.719v-8.2969h-34.719v-26.422h37.109v-8.2969h-46.969z"/>
</defs>
<g transform="translate(1144.9 660.37) rotate(-74.431) scale(.08 -.08)">
<use xlink:href="#aa"/>
</g>
</g>
<path d="m1171 661.11 0.90503-5.5125q0.38882-2.3683-1.9795-2.7571l-7.6402-1.2544q-2.3683-0.38882-2.7571 1.9795l-0.90503 5.5124q-0.38882 2.3683 1.9795 2.7571l7.6402 1.2544q2.3683 0.38882 2.7571-1.9795z" clip-path="url(#a)" fill="#fff" stroke="#fff"/>
<g clip-path="url(#a)">
<defs>
<path id="p" d="m64.406 67.281v-10.391q-4.9844 4.6406-10.625 6.9219-5.6406 2.2969-11.984 2.2969-12.5 0-19.141-7.6406t-6.6406-22.094q0-14.406 6.6406-22.047t19.141-7.6406q6.3438 0 11.984 2.2969t10.625 6.9375v-10.312q-5.1719-3.5156-10.969-5.2812-5.7812-1.75-12.219-1.75-16.562 0-26.094 10.125-9.5156 10.141-9.5156 27.672 0 17.578 9.5156 27.703 9.5312 10.141 26.094 10.141 6.5312 0 12.312-1.7344 5.7969-1.7344 10.875-5.2031z"/>
</defs>
<g transform="translate(1167 660.45) rotate(-80.676) scale(.08 -.08)">
<use xlink:href="#p"/>
</g>
</g>
<path d="m1275.8 519.77 4.3697 2.5414q2.0746 1.2066 3.2812-0.86807l3.8925-6.6929q1.2066-2.0746-0.86807-3.2812l-4.3697-2.5414q-2.0746-1.2066-3.2812 0.86807l-3.8925 6.6929q-1.2066 2.0746 0.86807 3.2812z" clip-path="url(#a)" fill="#fff" stroke="#fff"/>
<g clip-path="url(#a)">
<g transform="translate(1277.8 516.26) rotate(30.182) scale(.08 -.08)">
<use xlink:href="#aa"/>
</g>
</g>
<path d="m1084 877.08v35.285q0 2.4 2.4 2.4h7.7425q2.4 0 2.4-2.4v-35.285q0-2.4-2.4-2.4h-7.7425q-2.4 0-2.4 2.4z" clip-path="url(#a)" fill="#fff" stroke="#fff"/>
<g clip-path="url(#a)">
<g transform="translate(1088 877.08) rotate(90) scale(.08 -.08)">
<use xlink:href="#k"/>
<use x="60.818359" xlink:href="#c"/>
<use x="122.341797" xlink:href="#g"/>
<use x="163.439453" xlink:href="#l"/>
<use x="260.851562" xlink:href="#h"/>
<use x="288.634766" xlink:href="#e"/>
<use x="352.013672" xlink:href="#i"/>
<use x="413.292969" xlink:href="#j"/>
</g>
</g>
<path d="m1127.7 877.08v35.285q0 2.4 2.4 2.4h7.7425q2.4 0 2.4-2.4v-35.285q0-2.4-2.4-2.4h-7.7425q-2.4 0-2.4 2.4z" clip-path="url(#a)" fill="#fff" stroke="#fff"/>
<g clip-path="url(#a)">
<g transform="translate(1131.7 877.08) rotate(90) scale(.08 -.08)">
<use xlink:href="#k"/>
<use x="60.818359" xlink:href="#c"/>
<use x="122.341797" xlink:href="#g"/>
<use x="163.439453" xlink:href="#l"/>
<use x="260.851562" xlink:href="#h"/>
<use x="288.634766" xlink:href="#e"/>
<use x="352.013672" xlink:href="#i"/>
<use x="413.292969" xlink:href="#j"/>
</g>
</g>
<path d="m1252.9 712.58 3.4637-4.2369q1.519-1.8581-0.33907-3.3771l-5.9943-4.9005q-1.8581-1.519-3.3771 0.33907l-3.4637 4.2369q-1.519 1.8581 0.33907 3.3771l5.9943 4.9005q1.8581 1.519 3.3771-0.33907z" clip-path="url(#a)" fill="#fff" stroke="#fff"/>
<g clip-path="url(#a)">
<g transform="translate(1249.8 710.01) rotate(-50.733) scale(.08 -.08)">
<use xlink:href="#q"/>
</g>
</g>
<path d="m1320.3 711.21 1.86-5.2383q0.80308-2.2617-1.4586-3.0647l-7.2962-2.5908q-2.2617-0.80308-3.0647 1.4586l-1.86 5.2383q-0.80308 2.2617 1.4586 3.0647l7.2962 2.5908q2.2617 0.80308 3.0647-1.4586z" clip-path="url(#a)" fill="#fff" stroke="#fff"/>
<g clip-path="url(#a)">
<defs>
<path id="aj" d="m44.391 34.188q3.1719-1.0781 6.1719-4.5938t6.0312-9.6719l10.016-19.922h-10.609l-9.3125 18.703q-3.625 7.3281-7.0156 9.7188t-9.25 2.3906h-10.75v-30.812h-9.8594v72.906h22.266q12.5 0 18.656-5.2344 6.1562-5.2188 6.1562-15.766 0-6.8906-3.2031-11.438-3.2031-4.5312-9.2969-6.2812zm-24.719 30.609v-25.875h12.406q7.125 0 10.766 3.2969t3.6406 9.6875-3.6406 9.6406-10.766 3.25z"/>
</defs>
<g transform="translate(1316.5 709.86) rotate(-70.451) scale(.08 -.08)">
<use xlink:href="#aj"/>
</g>
</g>
<path d="m1423.3 616.19 4.3657 3.2998q1.9146 1.4472 3.3618-0.46746l4.6686-6.1766q1.4472-1.9146-0.46746-3.3618l-4.3657-3.2998q-1.9146-1.4472-3.3618 0.46746l-4.6686 6.1766q-1.4472 1.9146 0.46746 3.3618z" clip-path="url(#a)" fill="#fff" stroke="#fff"/>
<g clip-path="url(#a)">
<g transform="translate(1425.7 612.95) rotate(37.084) scale(.08 -.08)">
<use xlink:href="#q"/>
</g>
</g>
<path d="m1461.7 708.12 2.9782 4.1139q1.4074 1.9441 3.3514 0.53669l6.2716-4.5402q1.9441-1.4074 0.53669-3.3514l-2.9782-4.1139q-1.4074-1.9441-3.3514-0.53669l-6.2716 4.5402q-1.9441 1.4074-0.53669 3.3514z" clip-path="url(#a)" fill="#fff" stroke="#fff"/>
<g clip-path="url(#a)">
<g transform="translate(1465 705.73) rotate(54.098) scale(.08 -.08)">
<use xlink:href="#y"/>
</g>
</g>
<path d="m1258.7 877.08v35.285q0 2.4 2.4 2.4h7.7425q2.4 0 2.4-2.4v-35.285q0-2.4-2.4-2.4h-7.7425q-2.4 0-2.4 2.4z" clip-path="url(#a)" fill="#fff" stroke="#fff"/>
<g clip-path="url(#a)">
<g transform="translate(1262.8 877.08) rotate(90) scale(.08 -.08)">
<use xlink:href="#k"/>
<use x="60.818359" xlink:href="#c"/>
<use x="122.341797" xlink:href="#g"/>
<use x="163.439453" xlink:href="#l"/>
<use x="260.851562" xlink:href="#h"/>
<use x="288.634766" xlink:href="#e"/>
<use x="352.013672" xlink:href="#i"/>
<use x="413.292969" xlink:href="#j"/>
</g>
</g>
<path d="m1412.4 714.88 4.8299-2.8068q2.0751-1.2059 0.86918-3.2809l-3.8902-6.6942q-1.2059-2.0751-3.2809-0.86918l-4.8299 2.8068q-2.0751 1.2059-0.86918 3.2809l3.8902 6.6942q1.2059 2.0751 3.2809 0.86918z" clip-path="url(#a)" fill="#fff" stroke="#fff"/>
<g clip-path="url(#a)">
<g transform="translate(1410.4 711.36) rotate(-30.162) scale(.08 -.08)">
<use xlink:href="#p"/>
</g>
</g>
<path d="m1471.6 758.95 1.5223-5.3748q0.65402-2.3092-1.6552-2.9632l-7.4495-2.1099q-2.3092-0.65402-2.9632 1.6552l-1.5223 5.3748q-0.65402 2.3092 1.6552 2.9632l7.4495 2.1099q2.3092 0.65402 2.9632-1.6552z" clip-path="url(#a)" fill="#fff" stroke="#fff"/>
<g clip-path="url(#a)">
<g transform="translate(1467.7 757.85) rotate(-74.187) scale(.08 -.08)">
<use xlink:href="#p"/>
</g>
</g>
<path d="m1503.3 752.94 1.007 5.4947q0.43263 2.3607 2.7933 1.9281l7.6157-1.3957q2.3607-0.43263 1.9281-2.7933l-1.007-5.4947q-0.43263-2.3607-2.7933-1.9281l-7.6157 1.3957q-2.3607 0.43263-1.9281 2.7933z" clip-path="url(#a)" fill="#fff" stroke="#fff"/>
<g clip-path="url(#a)">
<g transform="translate(1507.3 752.21) rotate(79.615) scale(.08 -.08)">
<use xlink:href="#p"/>
</g>
</g>
<path d="m1546.9 755.63 3.0436 4.6843q1.3076 2.0125 3.3201 0.70487l6.4924-4.2184q2.0125-1.3076 0.70487-3.3201l-3.0436-4.6843q-1.3076-2.0125-3.3201-0.70487l-6.4924 4.2184q-2.0125 1.3076-0.70487 3.3201z" clip-path="url(#a)" fill="#fff" stroke="#fff"/>
<g clip-path="url(#a)">
<g transform="translate(1550.3 753.42) rotate(56.986) scale(.08 -.08)">
<use xlink:href="#p"/>
</g>
</g>
<path d="m1448.7 760.04 2.6868-5.2022q1.1013-2.1324-1.0311-3.2337l-6.8792-3.5529q-2.1324-1.1013-3.2337 1.0311l-2.6868 5.2022q-1.1013 2.1324 1.0311 3.2337l6.8792 3.5529q2.1324 1.1013 3.2337-1.0311z" clip-path="url(#a)" fill="#fff" stroke="#fff"/>
<g clip-path="url(#a)">
<g transform="translate(1445.1 758.17) rotate(-62.685) scale(.08 -.08)">
<use xlink:href="#x"/>
</g>
</g>
<path d="m1494.3 757.8 0.29227-5.8477q0.1198-2.397-2.2772-2.5168l-7.7328-0.3865q-2.397-0.1198-2.5168 2.2772l-0.29227 5.8477q-0.1198 2.397 2.2772 2.5168l7.7328 0.3865q2.397 0.1198 2.5168-2.2772z" clip-path="url(#a)" fill="#fff" stroke="#fff"/>
<g clip-path="url(#a)">
<g transform="translate(1490.2 757.59) rotate(-87.139) scale(.08 -.08)">
<use xlink:href="#x"/>
</g>
</g>
<path d="m1568.9 756.51 3.8754 4.3889q1.5885 1.799 3.3876 0.21049l5.8038-5.1247q1.799-1.5885 0.21049-3.3876l-3.8754-4.3889q-1.5885-1.799-3.3876-0.21049l-5.8038 5.1247q-1.799 1.5885-0.21049 3.3876z" clip-path="url(#a)" fill="#fff" stroke="#fff"/>
<g clip-path="url(#a)">
<g transform="translate(1571.9 753.83) rotate(48.556) scale(.08 -.08)">
<use xlink:href="#x"/>
</g>
</g>
<path d="m1564.6 877.08v35.285q0 2.4 2.4 2.4h7.7425q2.4 0 2.4-2.4v-35.285q0-2.4-2.4-2.4h-7.7425q-2.4 0-2.4 2.4z" clip-path="url(#a)" fill="#fff" stroke="#fff"/>
<g clip-path="url(#a)">
<g transform="translate(1568.6 877.08) rotate(90) scale(.08 -.08)">
<use xlink:href="#k"/>
<use x="60.818359" xlink:href="#c"/>
<use x="122.341797" xlink:href="#g"/>
<use x="163.439453" xlink:href="#l"/>
<use x="260.851562" xlink:href="#h"/>
<use x="288.634766" xlink:href="#e"/>
<use x="352.013672" xlink:href="#i"/>
<use x="413.292969" xlink:href="#j"/>
</g>
</g>
<path d="m1325.2 805.61 1.1558-4.9211q0.54875-2.3364-1.7877-2.8852l-7.5374-1.7703q-2.3364-0.54875-2.8852 1.7877l-1.1558 4.9211q-0.54875 2.3364 1.7877 2.8852l7.5374 1.7703q2.3364 0.54875 2.8852-1.7877z" clip-path="url(#a)" fill="#fff" stroke="#fff"/>
<g clip-path="url(#a)">
<g transform="translate(1321.2 804.68) rotate(-76.783) scale(.08 -.08)">
<use xlink:href="#aa"/>
</g>
</g>
<path d="m1334.7 800.43 1.2773 5.4383q0.54875 2.3364 2.8852 1.7877l7.5374-1.7703q2.3364-0.54875 1.7877-2.8852l-1.2773-5.4383q-0.54875-2.3364-2.8852-1.7877l-7.5374 1.7703q-2.3364 0.54875-1.7877 2.8852z" clip-path="url(#a)" fill="#fff" stroke="#fff"/>
<g clip-path="url(#a)">
<g transform="translate(1338.7 799.5) rotate(76.783) scale(.08 -.08)">
<use xlink:href="#p"/>
</g>
</g>
<path d="m1433.5 877.08v35.285q0 2.4 2.4 2.4h7.7425q2.4 0 2.4-2.4v-35.285q0-2.4-2.4-2.4h-7.7425q-2.4 0-2.4 2.4z" clip-path="url(#a)" fill="#fff" stroke="#fff"/>
<g clip-path="url(#a)">
<g transform="translate(1437.6 877.08) rotate(90) scale(.08 -.08)">
<use xlink:href="#k"/>
<use x="60.818359" xlink:href="#c"/>
<use x="122.341797" xlink:href="#g"/>
<use x="163.439453" xlink:href="#l"/>
<use x="260.851562" xlink:href="#h"/>
<use x="288.634766" xlink:href="#e"/>
<use x="352.013672" xlink:href="#i"/>
<use x="413.292969" xlink:href="#j"/>
</g>
</g>
<path d="m1520.9 877.08v35.285q0 2.4 2.4 2.4h7.7425q2.4 0 2.4-2.4v-35.285q0-2.4-2.4-2.4h-7.7425q-2.4 0-2.4 2.4z" clip-path="url(#a)" fill="#fff" stroke="#fff"/>
<g clip-path="url(#a)">
<g transform="translate(1525 877.08) rotate(90) scale(.08 -.08)">
<use xlink:href="#k"/>
<use x="60.818359" xlink:href="#c"/>
<use x="122.341797" xlink:href="#g"/>
<use x="163.439453" xlink:href="#l"/>
<use x="260.851562" xlink:href="#h"/>
<use x="288.634766" xlink:href="#e"/>
<use x="352.013672" xlink:href="#i"/>
<use x="413.292969" xlink:href="#j"/>
</g>
</g>
<path d="m1608.3 877.08v35.285q0 2.4 2.4 2.4h7.7425q2.4 0 2.4-2.4v-35.285q0-2.4-2.4-2.4h-7.7425q-2.4 0-2.4 2.4z" clip-path="url(#a)" fill="#fff" stroke="#fff"/>
<g clip-path="url(#a)">
<g transform="translate(1612.3 877.08) rotate(90) scale(.08 -.08)">
<use xlink:href="#k"/>
<use x="60.818359" xlink:href="#c"/>
<use x="122.341797" xlink:href="#g"/>
<use x="163.439453" xlink:href="#l"/>
<use x="260.851562" xlink:href="#h"/>
<use x="288.634766" xlink:href="#e"/>
<use x="352.013672" xlink:href="#i"/>
<use x="413.292969" xlink:href="#j"/>
</g>
</g>
<path d="m1302.4 877.08v35.285q0 2.4 2.4 2.4h7.7425q2.4 0 2.4-2.4v-35.285q0-2.4-2.4-2.4h-7.7425q-2.4 0-2.4 2.4z" clip-path="url(#a)" fill="#fff" stroke="#fff"/>
<g clip-path="url(#a)">
<g transform="translate(1306.5 877.08) rotate(90) scale(.08 -.08)">
<use xlink:href="#k"/>
<use x="60.818359" xlink:href="#c"/>
<use x="122.341797" xlink:href="#g"/>
<use x="163.439453" xlink:href="#l"/>
<use x="260.851562" xlink:href="#h"/>
<use x="288.634766" xlink:href="#e"/>
<use x="352.013672" xlink:href="#i"/>
<use x="413.292969" xlink:href="#j"/>
</g>
</g>
<path d="m1346.1 877.08v35.285q0 2.4 2.4 2.4h7.7425q2.4 0 2.4-2.4v-35.285q0-2.4-2.4-2.4h-7.7425q-2.4 0-2.4 2.4z" clip-path="url(#a)" fill="#fff" stroke="#fff"/>
<g clip-path="url(#a)">
<g transform="translate(1350.2 877.08) rotate(90) scale(.08 -.08)">
<use xlink:href="#k"/>
<use x="60.818359" xlink:href="#c"/>
<use x="122.341797" xlink:href="#g"/>
<use x="163.439453" xlink:href="#l"/>
<use x="260.851562" xlink:href="#h"/>
<use x="288.634766" xlink:href="#e"/>
<use x="352.013672" xlink:href="#i"/>
<use x="413.292969" xlink:href="#j"/>
</g>
</g>
<path d="m690.76 877.08v35.285q0 2.4 2.4 2.4h7.7425q2.4 0 2.4-2.4v-35.285q0-2.4-2.4-2.4h-7.7425q-2.4 0-2.4 2.4z" clip-path="url(#a)" fill="#fff" stroke="#fff"/>
<g clip-path="url(#a)">
<g transform="translate(694.82 877.08) rotate(90) scale(.08 -.08)">
<use xlink:href="#k"/>
<use x="60.818359" xlink:href="#c"/>
<use x="122.341797" xlink:href="#g"/>
<use x="163.439453" xlink:href="#l"/>
<use x="260.851562" xlink:href="#h"/>
<use x="288.634766" xlink:href="#e"/>
<use x="352.013672" xlink:href="#i"/>
<use x="413.292969" xlink:href="#j"/>
</g>
</g>
<path d="m767.06 806.89 2.3634-5.0313q1.0204-2.1723-1.1519-3.1927l-7.0079-3.2918q-2.1723-1.0204-3.1927 1.1519l-2.3634 5.0313q-1.0204 2.1723 1.1519 3.1927l7.0079 3.2918q2.1723 1.0204 3.1927-1.1519z" clip-path="url(#a)" fill="#fff" stroke="#fff"/>
<g clip-path="url(#a)">
<g transform="translate(763.39 805.17) rotate(-64.839) scale(.08 -.08)">
<use xlink:href="#aj"/>
</g>
</g>
<path d="m778.14 799.18v5.055q0 2.4 2.4 2.4h7.7425q2.4 0 2.4-2.4v-5.055q0-2.4-2.4-2.4h-7.7425q-2.4 0-2.4 2.4z" clip-path="url(#a)" fill="#fff" stroke="#fff"/>
<g clip-path="url(#a)">
<g transform="translate(782.21 799.18) rotate(90) scale(.08 -.08)">
<use xlink:href="#aa"/>
</g>
</g>
<path d="m799.4 801.85 2.3751 5.0562q1.0204 2.1723 3.1927 1.1519l7.0079-3.2918q2.1723-1.0204 1.1519-3.1927l-2.3751-5.0562q-1.0204-2.1723-3.1927-1.1519l-7.0079 3.2918q-2.1723 1.0204-1.1519 3.1927z" clip-path="url(#a)" fill="#fff" stroke="#fff"/>
<g clip-path="url(#a)">
<g transform="translate(803.07 800.12) rotate(64.839) scale(.08 -.08)">
<use xlink:href="#p"/>
</g>
</g>
<path d="m865.53 877.08v35.285q0 2.4 2.4 2.4h7.7425q2.4 0 2.4-2.4v-35.285q0-2.4-2.4-2.4h-7.7425q-2.4 0-2.4 2.4z" clip-path="url(#a)" fill="#fff" stroke="#fff"/>
<g clip-path="url(#a)">
<g transform="translate(869.59 877.08) rotate(90) scale(.08 -.08)">
<use xlink:href="#k"/>
<use x="60.818359" xlink:href="#c"/>
<use x="122.341797" xlink:href="#g"/>
<use x="163.439453" xlink:href="#l"/>
<use x="260.851562" xlink:href="#h"/>
<use x="288.634766" xlink:href="#e"/>
<use x="352.013672" xlink:href="#i"/>
<use x="413.292969" xlink:href="#j"/>
</g>
</g>
<path d="m909.22 877.08v35.285q0 2.4 2.4 2.4h7.7425q2.4 0 2.4-2.4v-35.285q0-2.4-2.4-2.4h-7.7425q-2.4 0-2.4 2.4z" clip-path="url(#a)" fill="#fff" stroke="#fff"/>
<g clip-path="url(#a)">
<g transform="translate(913.28 877.08) rotate(90) scale(.08 -.08)">
<use xlink:href="#k"/>
<use x="60.818359" xlink:href="#c"/>
<use x="122.341797" xlink:href="#g"/>
<use x="163.439453" xlink:href="#l"/>
<use x="260.851562" xlink:href="#h"/>
<use x="288.634766" xlink:href="#e"/>
<use x="352.013672" xlink:href="#i"/>
<use x="413.292969" xlink:href="#j"/>
</g>
</g>
<path d="m734.45 877.08v35.285q0 2.4 2.4 2.4h7.7425q2.4 0 2.4-2.4v-35.285q0-2.4-2.4-2.4h-7.7425q-2.4 0-2.4 2.4z" clip-path="url(#a)" fill="#fff" stroke="#fff"/>
<g clip-path="url(#a)">
<g transform="translate(738.52 877.08) rotate(90) scale(.08 -.08)">
<use xlink:href="#k"/>
<use x="60.818359" xlink:href="#c"/>
<use x="122.341797" xlink:href="#g"/>
<use x="163.439453" xlink:href="#l"/>
<use x="260.851562" xlink:href="#h"/>
<use x="288.634766" xlink:href="#e"/>
<use x="352.013672" xlink:href="#i"/>
<use x="413.292969" xlink:href="#j"/>
</g>
</g>
<path d="m778.14 877.08v35.285q0 2.4 2.4 2.4h7.7425q2.4 0 2.4-2.4v-35.285q0-2.4-2.4-2.4h-7.7425q-2.4 0-2.4 2.4z" clip-path="url(#a)" fill="#fff" stroke="#fff"/>
<g clip-path="url(#a)">
<g transform="translate(782.21 877.08) rotate(90) scale(.08 -.08)">
<use xlink:href="#k"/>
<use x="60.818359" xlink:href="#c"/>
<use x="122.341797" xlink:href="#g"/>
<use x="163.439453" xlink:href="#l"/>
<use x="260.851562" xlink:href="#h"/>
<use x="288.634766" xlink:href="#e"/>
<use x="352.013672" xlink:href="#i"/>
<use x="413.292969" xlink:href="#j"/>
</g>
</g>
<path d="m821.83 877.08v35.285q0 2.4 2.4 2.4h7.7425q2.4 0 2.4-2.4v-35.285q0-2.4-2.4-2.4h-7.7425q-2.4 0-2.4 2.4z" clip-path="url(#a)" fill="#fff" stroke="#fff"/>
<g clip-path="url(#a)">
<g transform="translate(825.9 877.08) rotate(90) scale(.08 -.08)">
<use xlink:href="#k"/>
<use x="60.818359" xlink:href="#c"/>
<use x="122.341797" xlink:href="#g"/>
<use x="163.439453" xlink:href="#l"/>
<use x="260.851562" xlink:href="#h"/>
<use x="288.634766" xlink:href="#e"/>
<use x="352.013672" xlink:href="#i"/>
<use x="413.292969" xlink:href="#j"/>
</g>
</g>
<path d="m79.086 877.08v35.285q0 2.4 2.4 2.4h7.7425q2.4 0 2.4-2.4v-35.285q0-2.4-2.4-2.4h-7.7425q-2.4 0-2.4 2.4z" clip-path="url(#a)" fill="#fff" stroke="#fff"/>
<g clip-path="url(#a)">
<g transform="translate(83.15 877.08) rotate(90) scale(.08 -.08)">
<use xlink:href="#k"/>
<use x="60.818359" xlink:href="#c"/>
<use x="122.341797" xlink:href="#g"/>
<use x="163.439453" xlink:href="#l"/>
<use x="260.851562" xlink:href="#h"/>
<use x="288.634766" xlink:href="#e"/>
<use x="352.013672" xlink:href="#i"/>
<use x="413.292969" xlink:href="#j"/>
</g>
</g>
<path d="m1486.2 756.37 4.4845 3.331q1.9267 1.4311 3.3577-0.49557l4.6167-6.2155q1.4311-1.9267-0.49557-3.3577l-4.4845-3.331q-1.9267-1.4311-3.3577 0.49557l-4.6167 6.2155q-1.4311 1.9267 0.49557 3.3577z" clip-path="url(#a)" fill="#fff" stroke="#fff"/>
<g clip-path="url(#a)">
<g transform="translate(1488.7 753.11) rotate(36.604) scale(.08 -.08)">
<use xlink:href="#p"/>
</g>
</g>
<path d="m984.08 619.47 4.9665-0.94194q2.358-0.44721 1.9108-2.8052l-1.4427-7.6069q-0.44721-2.358-2.8052-1.9108l-4.9665 0.94194q-2.358 0.44721-1.9108 2.8052l1.4427 7.6069q0.44721 2.358 2.8052 1.9108z" clip-path="url(#a)" fill="#fff" stroke="#fff"/>
<g clip-path="url(#a)">
<g transform="translate(983.32 615.48) rotate(-10.739) scale(.08 -.08)">
<use xlink:href="#aa"/>
</g>
</g>
<path d="m1212.6 806.33 5.2573 1.5195q2.3056 0.66637 2.972-1.6393l2.1497-7.4381q0.66637-2.3056-1.6393-2.972l-5.2573-1.5195q-2.3056-0.66637-2.972 1.6393l-2.1497 7.4381q-0.66637 2.3056 1.6393 2.972z" clip-path="url(#a)" fill="#fff" stroke="#fff"/>
<g clip-path="url(#a)">
<g transform="translate(1213.7 802.43) rotate(16.12) scale(.08 -.08)">
<use xlink:href="#q"/>
</g>
</g>
<path d="m562.18 761.39 4.8714-2.6776q2.1032-1.1561 0.94716-3.2593l-3.7295-6.7851q-1.1561-2.1032-3.2593-0.94716l-4.8714 2.6776q-2.1032 1.1561-0.94716 3.2593l3.7295 6.7851q1.1561 2.1032 3.2593 0.94716z" clip-path="url(#a)" fill="#fff" stroke="#fff"/>
<g clip-path="url(#a)">
<g transform="translate(560.22 757.83) rotate(-28.796) scale(.08 -.08)">
<use xlink:href="#aj"/>
</g>
</g>
<path d="m584.47 761.32 4.6292-2.9187q2.0302-1.28 0.75016-3.3102l-4.1294-6.5494q-1.28-2.0302-3.3102-0.75016l-4.6292 2.9187q-2.0302 1.28-0.75016 3.3102l4.1294 6.5494q1.28 2.0302 3.3102 0.75016z" clip-path="url(#a)" fill="#fff" stroke="#fff"/>
<g clip-path="url(#a)">
<g transform="translate(582.3 757.89) rotate(-32.231) scale(.08 -.08)">
<use xlink:href="#q"/>
</g>
</g>
<path d="m627.2 714.89 4.9911-2.2444q2.1889-0.9843 1.2046-3.1732l-3.1754-7.0614q-0.9843-2.1889-3.1732-1.2046l-4.9911 2.2444q-2.1889 0.9843-1.2046 3.1732l3.1754 7.0614q0.9843 2.1889 3.1732 1.2046z" clip-path="url(#a)" fill="#fff" stroke="#fff"/>
<g clip-path="url(#a)">
<g transform="translate(625.54 711.19) rotate(-24.213) scale(.08 -.08)">
<use xlink:href="#q"/>
</g>
</g>
<path d="m674.68 760.11 2.7771-4.2522q1.3123-2.0094-0.6971-3.3218l-6.4825-4.2336q-2.0094-1.3123-3.3218 0.6971l-2.7771 4.2522q-1.3123 2.0094 0.6971 3.3218l6.4825 4.2336q2.0094 1.3123 3.3218-0.6971z" clip-path="url(#a)" fill="#fff" stroke="#fff"/>
<g clip-path="url(#a)">
<g transform="translate(671.28 757.89) rotate(-56.852) scale(.08 -.08)">
<use xlink:href="#y"/>
</g>
</g>
<path d="m384.92 877.08v35.285q0 2.4 2.4 2.4h7.7425q2.4 0 2.4-2.4v-35.285q0-2.4-2.4-2.4h-7.7425q-2.4 0-2.4 2.4z" clip-path="url(#a)" fill="#fff" stroke="#fff"/>
<g clip-path="url(#a)">
<g transform="translate(388.99 877.08) rotate(90) scale(.08 -.08)">
<use xlink:href="#k"/>
<use x="60.818359" xlink:href="#c"/>
<use x="122.341797" xlink:href="#g"/>
<use x="163.439453" xlink:href="#l"/>
<use x="260.851562" xlink:href="#h"/>
<use x="288.634766" xlink:href="#e"/>
<use x="352.013672" xlink:href="#i"/>
<use x="413.292969" xlink:href="#j"/>
</g>
</g>
<path d="m428.61 877.08v35.285q0 2.4 2.4 2.4h7.7425q2.4 0 2.4-2.4v-35.285q0-2.4-2.4-2.4h-7.7425q-2.4 0-2.4 2.4z" clip-path="url(#a)" fill="#fff" stroke="#fff"/>
<g clip-path="url(#a)">
<g transform="translate(432.68 877.08) rotate(90) scale(.08 -.08)">
<use xlink:href="#k"/>
<use x="60.818359" xlink:href="#c"/>
<use x="122.341797" xlink:href="#g"/>
<use x="163.439453" xlink:href="#l"/>
<use x="260.851562" xlink:href="#h"/>
<use x="288.634766" xlink:href="#e"/>
<use x="352.013672" xlink:href="#i"/>
<use x="413.292969" xlink:href="#j"/>
</g>
</g>
<path d="m504.92 806.89 2.3634-5.0313q1.0204-2.1723-1.1519-3.1927l-7.0079-3.2918q-2.1723-1.0204-3.1927 1.1519l-2.3634 5.0313q-1.0204 2.1723 1.1519 3.1927l7.0079 3.2918q2.1723 1.0204 3.1927-1.1519z" clip-path="url(#a)" fill="#fff" stroke="#fff"/>
<g clip-path="url(#a)">
<g transform="translate(501.24 805.17) rotate(-64.839) scale(.08 -.08)">
<use xlink:href="#aj"/>
</g>
</g>
<path d="m516 799.18v5.055q0 2.4 2.4 2.4h7.7425q2.4 0 2.4-2.4v-5.055q0-2.4-2.4-2.4h-7.7425q-2.4 0-2.4 2.4z" clip-path="url(#a)" fill="#fff" stroke="#fff"/>
<g clip-path="url(#a)">
<g transform="translate(520.06 799.18) rotate(90) scale(.08 -.08)">
<use xlink:href="#aa"/>
</g>
</g>
<path d="m537.25 801.85 2.3751 5.0562q1.0204 2.1723 3.1927 1.1519l7.0079-3.2918q2.1723-1.0204 1.1519-3.1927l-2.3751-5.0562q-1.0204-2.1723-3.1927-1.1519l-7.0079 3.2918q-2.1723 1.0204-1.1519 3.1927z" clip-path="url(#a)" fill="#fff" stroke="#fff"/>
<g clip-path="url(#a)">
<g transform="translate(540.93 800.12) rotate(64.839) scale(.08 -.08)">
<use xlink:href="#p"/>
</g>
</g>
<path d="m603.38 877.08v35.285q0 2.4 2.4 2.4h7.7425q2.4 0 2.4-2.4v-35.285q0-2.4-2.4-2.4h-7.7425q-2.4 0-2.4 2.4z" clip-path="url(#a)" fill="#fff" stroke="#fff"/>
<g clip-path="url(#a)">
<g transform="translate(607.44 877.08) rotate(90) scale(.08 -.08)">
<use xlink:href="#k"/>
<use x="60.818359" xlink:href="#c"/>
<use x="122.341797" xlink:href="#g"/>
<use x="163.439453" xlink:href="#l"/>
<use x="260.851562" xlink:href="#h"/>
<use x="288.634766" xlink:href="#e"/>
<use x="352.013672" xlink:href="#i"/>
<use x="413.292969" xlink:href="#j"/>
</g>
</g>
<path d="m472.31 877.08v35.285q0 2.4 2.4 2.4h7.7425q2.4 0 2.4-2.4v-35.285q0-2.4-2.4-2.4h-7.7425q-2.4 0-2.4 2.4z" clip-path="url(#a)" fill="#fff" stroke="#fff"/>
<g clip-path="url(#a)">
<g transform="translate(476.37 877.08) rotate(90) scale(.08 -.08)">
<use xlink:href="#k"/>
<use x="60.818359" xlink:href="#c"/>
<use x="122.341797" xlink:href="#g"/>
<use x="163.439453" xlink:href="#l"/>
<use x="260.851562" xlink:href="#h"/>
<use x="288.634766" xlink:href="#e"/>
<use x="352.013672" xlink:href="#i"/>
<use x="413.292969" xlink:href="#j"/>
</g>
</g>
<path d="m516 877.08v35.285q0 2.4 2.4 2.4h7.7425q2.4 0 2.4-2.4v-35.285q0-2.4-2.4-2.4h-7.7425q-2.4 0-2.4 2.4z" clip-path="url(#a)" fill="#fff" stroke="#fff"/>
<g clip-path="url(#a)">
<g transform="translate(520.06 877.08) rotate(90) scale(.08 -.08)">
<use xlink:href="#k"/>
<use x="60.818359" xlink:href="#c"/>
<use x="122.341797" xlink:href="#g"/>
<use x="163.439453" xlink:href="#l"/>
<use x="260.851562" xlink:href="#h"/>
<use x="288.634766" xlink:href="#e"/>
<use x="352.013672" xlink:href="#i"/>
<use x="413.292969" xlink:href="#j"/>
</g>
</g>
<path d="m559.69 877.08v35.285q0 2.4 2.4 2.4h7.7425q2.4 0 2.4-2.4v-35.285q0-2.4-2.4-2.4h-7.7425q-2.4 0-2.4 2.4z" clip-path="url(#a)" fill="#fff" stroke="#fff"/>
<g clip-path="url(#a)">
<g transform="translate(563.75 877.08) rotate(90) scale(.08 -.08)">
<use xlink:href="#k"/>
<use x="60.818359" xlink:href="#c"/>
<use x="122.341797" xlink:href="#g"/>
<use x="163.439453" xlink:href="#l"/>
<use x="260.851562" xlink:href="#h"/>
<use x="288.634766" xlink:href="#e"/>
<use x="352.013672" xlink:href="#i"/>
<use x="413.292969" xlink:href="#j"/>
</g>
</g>
<path d="m122.78 877.08v35.285q0 2.4 2.4 2.4h7.7425q2.4 0 2.4-2.4v-35.285q0-2.4-2.4-2.4h-7.7425q-2.4 0-2.4 2.4z" clip-path="url(#a)" fill="#fff" stroke="#fff"/>
<g clip-path="url(#a)">
<g transform="translate(126.84 877.08) rotate(90) scale(.08 -.08)">
<use xlink:href="#k"/>
<use x="60.818359" xlink:href="#c"/>
<use x="122.341797" xlink:href="#g"/>
<use x="163.439453" xlink:href="#l"/>
<use x="260.851562" xlink:href="#h"/>
<use x="288.634766" xlink:href="#e"/>
<use x="352.013672" xlink:href="#i"/>
<use x="413.292969" xlink:href="#j"/>
</g>
</g>
<path d="m297.54 877.08v35.285q0 2.4 2.4 2.4h7.7425q2.4 0 2.4-2.4v-35.285q0-2.4-2.4-2.4h-7.7425q-2.4 0-2.4 2.4z" clip-path="url(#a)" fill="#fff" stroke="#fff"/>
<g clip-path="url(#a)">
<g transform="translate(301.61 877.08) rotate(90) scale(.08 -.08)">
<use xlink:href="#k"/>
<use x="60.818359" xlink:href="#c"/>
<use x="122.341797" xlink:href="#g"/>
<use x="163.439453" xlink:href="#l"/>
<use x="260.851562" xlink:href="#h"/>
<use x="288.634766" xlink:href="#e"/>
<use x="352.013672" xlink:href="#i"/>
<use x="413.292969" xlink:href="#j"/>
</g>
</g>
<path d="m341.23 877.08v35.285q0 2.4 2.4 2.4h7.7425q2.4 0 2.4-2.4v-35.285q0-2.4-2.4-2.4h-7.7425q-2.4 0-2.4 2.4z" clip-path="url(#a)" fill="#fff" stroke="#fff"/>
<g clip-path="url(#a)">
<g transform="translate(345.3 877.08) rotate(90) scale(.08 -.08)">
<use xlink:href="#k"/>
<use x="60.818359" xlink:href="#c"/>
<use x="122.341797" xlink:href="#g"/>
<use x="163.439453" xlink:href="#l"/>
<use x="260.851562" xlink:href="#h"/>
<use x="288.634766" xlink:href="#e"/>
<use x="352.013672" xlink:href="#i"/>
<use x="413.292969" xlink:href="#j"/>
</g>
</g>
<path d="m952.91 877.08v35.285q0 2.4 2.4 2.4h7.7425q2.4 0 2.4-2.4v-35.285q0-2.4-2.4-2.4h-7.7425q-2.4 0-2.4 2.4z" clip-path="url(#a)" fill="#fff" stroke="#fff"/>
<g clip-path="url(#a)">
<g transform="translate(956.97 877.08) rotate(90) scale(.08 -.08)">
<use xlink:href="#k"/>
<use x="60.818359" xlink:href="#c"/>
<use x="122.341797" xlink:href="#g"/>
<use x="163.439453" xlink:href="#l"/>
<use x="260.851562" xlink:href="#h"/>
<use x="288.634766" xlink:href="#e"/>
<use x="352.013672" xlink:href="#i"/>
<use x="413.292969" xlink:href="#j"/>
</g>
</g>
<path d="m1215.1 877.08v35.285q0 2.4 2.4 2.4h7.7425q2.4 0 2.4-2.4v-35.285q0-2.4-2.4-2.4h-7.7425q-2.4 0-2.4 2.4z" clip-path="url(#a)" fill="#fff" stroke="#fff"/>
<g clip-path="url(#a)">
<g transform="translate(1219.1 877.08) rotate(90) scale(.08 -.08)">
<use xlink:href="#k"/>
<use x="60.818359" xlink:href="#c"/>
<use x="122.341797" xlink:href="#g"/>
<use x="163.439453" xlink:href="#l"/>
<use x="260.851562" xlink:href="#h"/>
<use x="288.634766" xlink:href="#e"/>
<use x="352.013672" xlink:href="#i"/>
<use x="413.292969" xlink:href="#j"/>
</g>
</g>
<path d="m1389.8 877.08v35.285q0 2.4 2.4 2.4h7.7425q2.4 0 2.4-2.4v-35.285q0-2.4-2.4-2.4h-7.7425q-2.4 0-2.4 2.4z" clip-path="url(#a)" fill="#fff" stroke="#fff"/>
<g clip-path="url(#a)">
<g transform="translate(1393.9 877.08) rotate(90) scale(.08 -.08)">
<use xlink:href="#k"/>
<use x="60.818359" xlink:href="#c"/>
<use x="122.341797" xlink:href="#g"/>
<use x="163.439453" xlink:href="#l"/>
<use x="260.851562" xlink:href="#h"/>
<use x="288.634766" xlink:href="#e"/>
<use x="352.013672" xlink:href="#i"/>
<use x="413.292969" xlink:href="#j"/>
</g>
</g>
<path d="m1477.2 877.08v35.285q0 2.4 2.4 2.4h7.7425q2.4 0 2.4-2.4v-35.285q0-2.4-2.4-2.4h-7.7425q-2.4 0-2.4 2.4z" clip-path="url(#a)" fill="#fff" stroke="#fff"/>
<g clip-path="url(#a)">
<g transform="translate(1481.3 877.08) rotate(90) scale(.08 -.08)">
<use xlink:href="#k"/>
<use x="60.818359" xlink:href="#c"/>
<use x="122.341797" xlink:href="#g"/>
<use x="163.439453" xlink:href="#l"/>
<use x="260.851562" xlink:href="#h"/>
<use x="288.634766" xlink:href="#e"/>
<use x="352.013672" xlink:href="#i"/>
<use x="413.292969" xlink:href="#j"/>
</g>
</g>
<path d="m1652 877.08v35.285q0 2.4 2.4 2.4h7.7425q2.4 0 2.4-2.4v-35.285q0-2.4-2.4-2.4h-7.7425q-2.4 0-2.4 2.4z" clip-path="url(#a)" fill="#fff" stroke="#fff"/>
<g clip-path="url(#a)">
<g transform="translate(1656 877.08) rotate(90) scale(.08 -.08)">
<use xlink:href="#k"/>
<use x="60.818359" xlink:href="#c"/>
<use x="122.341797" xlink:href="#g"/>
<use x="163.439453" xlink:href="#l"/>
<use x="260.851562" xlink:href="#h"/>
<use x="288.634766" xlink:href="#e"/>
<use x="352.013672" xlink:href="#i"/>
<use x="413.292969" xlink:href="#j"/>
</g>
</g>
<defs>
<path id="b" d="m0 8.6603c2.2967 0 4.4997-0.9125 6.1237-2.5365 1.624-1.624 2.5365-3.827 2.5365-6.1237s-0.9125-4.4997-2.5365-6.1237c-1.624-1.624-3.827-2.5365-6.1237-2.5365s-4.4997 0.9125-6.1237 2.5365c-1.624 1.624-2.5365 3.827-2.5365 6.1237s0.9125 4.4997 2.5365 6.1237c1.624 1.624 3.827 2.5365 6.1237 2.5365z"/>
</defs>
<g clip-path="url(#a)">
<use x="85.357443" y="941.230376" fill="#ffffff" stroke="#ffffff" xlink:href="#b"/>
</g>
<g clip-path="url(#a)">
<use x="129.048515" y="941.230376" fill="#ffffff" stroke="#ffffff" xlink:href="#b"/>
</g>
<g clip-path="url(#a)">
<use x="172.739586" y="941.230376" fill="#ffffff" stroke="#ffffff" xlink:href="#b"/>
</g>
<g clip-path="url(#a)">
<use x="216.430657" y="941.230376" fill="#ffffff" stroke="#ffffff" xlink:href="#b"/>
</g>
<g clip-path="url(#a)">
<use x="260.121728" y="941.230376" fill="#ffffff" stroke="#ffffff" xlink:href="#b"/>
</g>
<g clip-path="url(#a)">
<use x="303.8128" y="941.230376" fill="#ffffff" stroke="#ffffff" xlink:href="#b"/>
</g>
<g clip-path="url(#a)">
<use x="347.503871" y="941.230376" fill="#ffffff" stroke="#ffffff" xlink:href="#b"/>
</g>
<g clip-path="url(#a)">
<use x="391.194942" y="941.230376" fill="#ffffff" stroke="#ffffff" xlink:href="#b"/>
</g>
<g clip-path="url(#a)">
<use x="434.886014" y="941.230376" fill="#ffffff" stroke="#ffffff" xlink:href="#b"/>
</g>
<g clip-path="url(#a)">
<use x="478.577085" y="941.230376" fill="#ffffff" stroke="#ffffff" xlink:href="#b"/>
</g>
<g clip-path="url(#a)">
<use x="522.268156" y="941.230376" fill="#ffffff" stroke="#ffffff" xlink:href="#b"/>
</g>
<g clip-path="url(#a)">
<use x="565.959227" y="941.230376" fill="#ffffff" stroke="#ffffff" xlink:href="#b"/>
</g>
<g clip-path="url(#a)">
<use x="609.650299" y="941.230376" fill="#ffffff" stroke="#ffffff" xlink:href="#b"/>
</g>
<g clip-path="url(#a)">
<use x="653.34137" y="941.230376" fill="#ffffff" stroke="#ffffff" xlink:href="#b"/>
</g>
<g clip-path="url(#a)">
<use x="697.032441" y="941.230376" fill="#ffffff" stroke="#ffffff" xlink:href="#b"/>
</g>
<g clip-path="url(#a)">
<use x="740.723513" y="941.230376" fill="#ffffff" stroke="#ffffff" xlink:href="#b"/>
</g>
<g clip-path="url(#a)">
<use x="784.414584" y="941.230376" fill="#ffffff" stroke="#ffffff" xlink:href="#b"/>
</g>
<g clip-path="url(#a)">
<use x="828.105655" y="941.230376" fill="#ffffff" stroke="#ffffff" xlink:href="#b"/>
</g>
<g clip-path="url(#a)">
<use x="871.796726" y="941.230376" fill="#ffffff" stroke="#ffffff" xlink:href="#b"/>
</g>
<g clip-path="url(#a)">
<use x="915.487798" y="941.230376" fill="#ffffff" stroke="#ffffff" xlink:href="#b"/>
</g>
<g clip-path="url(#a)">
<use x="959.178869" y="941.230376" fill="#ffffff" stroke="#ffffff" xlink:href="#b"/>
</g>
<g clip-path="url(#a)">
<use x="1002.86994" y="941.230376" fill="#ffffff" stroke="#ffffff" xlink:href="#b"/>
</g>
<g clip-path="url(#a)">
<use x="1046.561012" y="941.230376" fill="#ffffff" stroke="#ffffff" xlink:href="#b"/>
</g>
<g clip-path="url(#a)">
<use x="1090.252083" y="941.230376" fill="#ffffff" stroke="#ffffff" xlink:href="#b"/>
</g>
<g clip-path="url(#a)">
<use x="1133.943154" y="941.230376" fill="#ffffff" stroke="#ffffff" xlink:href="#b"/>
</g>
<g clip-path="url(#a)">
<use x="1177.634225" y="941.230376" fill="#ffffff" stroke="#ffffff" xlink:href="#b"/>
</g>
<g clip-path="url(#a)">
<use x="1221.325297" y="941.230376" fill="#ffffff" stroke="#ffffff" xlink:href="#b"/>
</g>
<g clip-path="url(#a)">
<use x="1265.016368" y="941.230376" fill="#ffffff" stroke="#ffffff" xlink:href="#b"/>
</g>
<g clip-path="url(#a)">
<use x="1308.707439" y="941.230376" fill="#ffffff" stroke="#ffffff" xlink:href="#b"/>
</g>
<g clip-path="url(#a)">
<use x="1352.398511" y="941.230376" fill="#ffffff" stroke="#ffffff" xlink:href="#b"/>
</g>
<g clip-path="url(#a)">
<use x="1396.089582" y="941.230376" fill="#ffffff" stroke="#ffffff" xlink:href="#b"/>
</g>
<g clip-path="url(#a)">
<use x="1439.780653" y="941.230376" fill="#ffffff" stroke="#ffffff" xlink:href="#b"/>
</g>
<g clip-path="url(#a)">
<use x="1483.471724" y="941.230376" fill="#ffffff" stroke="#ffffff" xlink:href="#b"/>
</g>
<g clip-path="url(#a)">
<use x="1527.162796" y="941.230376" fill="#ffffff" stroke="#ffffff" xlink:href="#b"/>
</g>
<g clip-path="url(#a)">
<use x="1570.853867" y="941.230376" fill="#ffffff" stroke="#ffffff" xlink:href="#b"/>
</g>
<g clip-path="url(#a)">
<use x="1614.544938" y="941.230376" fill="#ffffff" stroke="#ffffff" xlink:href="#b"/>
</g>
<g clip-path="url(#a)">
<use x="1658.236009" y="941.230376" fill="#ffffff" stroke="#ffffff" xlink:href="#b"/>
</g>
<g clip-path="url(#a)">
<use x="353.014234" y="45.436291" fill="#ffffff" stroke="#ffffff" xlink:href="#b"/>
</g>
<g clip-path="url(#a)">
<use x="353.014234" y="155.398726" fill="#ffffff" stroke="#ffffff" xlink:href="#b"/>
</g>
<g clip-path="url(#a)">
<use x="904.858904" y="262.049517" fill="#ffffff" stroke="#ffffff" xlink:href="#b"/>
</g>
<g clip-path="url(#a)">
<use x="216.430657" y="848.217868" fill="#ffffff" stroke="#ffffff" xlink:href="#b"/>
</g>
<g clip-path="url(#a)">
<use x="216.430657" y="848.217868" fill="#ffffff" stroke="#ffffff" xlink:href="#b"/>
</g>
<g clip-path="url(#a)">
<use x="1037.822797" y="466.464068" fill="#ffffff" stroke="#ffffff" xlink:href="#b"/>
</g>
<g clip-path="url(#a)">
<use x="653.34137" y="848.217868" fill="#ffffff" stroke="#ffffff" xlink:href="#b"/>
</g>
<g clip-path="url(#a)">
<use x="740.723513" y="660.898947" fill="#ffffff" stroke="#ffffff" xlink:href="#b"/>
</g>
<g clip-path="url(#a)">
<use x="1133.227973" y="365.649027" fill="#ffffff" stroke="#ffffff" xlink:href="#b"/>
</g>
<g clip-path="url(#a)">
<use x="1002.86994" y="848.217868" fill="#ffffff" stroke="#ffffff" xlink:href="#b"/>
</g>
<g clip-path="url(#a)">
<use x="1112.097618" y="848.217868" fill="#ffffff" stroke="#ffffff" xlink:href="#b"/>
</g>
<g clip-path="url(#a)">
<use x="1196.619036" y="466.464068" fill="#ffffff" stroke="#ffffff" xlink:href="#b"/>
</g>
<g clip-path="url(#a)">
<use x="1090.252083" y="848.217868" fill="#ffffff" stroke="#ffffff" xlink:href="#b"/>
</g>
<g clip-path="url(#a)">
<use x="1133.943154" y="848.217868" fill="#ffffff" stroke="#ffffff" xlink:href="#b"/>
</g>
<g clip-path="url(#a)">
<use x="1365.661871" y="564.776593" fill="#ffffff" stroke="#ffffff" xlink:href="#b"/>
</g>
<g clip-path="url(#a)">
<use x="1265.016368" y="848.217868" fill="#ffffff" stroke="#ffffff" xlink:href="#b"/>
</g>
<g clip-path="url(#a)">
<use x="1492.834097" y="660.898947" fill="#ffffff" stroke="#ffffff" xlink:href="#b"/>
</g>
<g clip-path="url(#a)">
<use x="1570.853867" y="848.217868" fill="#ffffff" stroke="#ffffff" xlink:href="#b"/>
</g>
<g clip-path="url(#a)">
<use x="1330.552975" y="755.205361" fill="#ffffff" stroke="#ffffff" xlink:href="#b"/>
</g>
<g clip-path="url(#a)">
<use x="1439.780653" y="848.217868" fill="#ffffff" stroke="#ffffff" xlink:href="#b"/>
</g>
<g clip-path="url(#a)">
<use x="1527.162796" y="848.217868" fill="#ffffff" stroke="#ffffff" xlink:href="#b"/>
</g>
<g clip-path="url(#a)">
<use x="1614.544938" y="848.217868" fill="#ffffff" stroke="#ffffff" xlink:href="#b"/>
</g>
<g clip-path="url(#a)">
<use x="1308.707439" y="848.217868" fill="#ffffff" stroke="#ffffff" xlink:href="#b"/>
</g>
<g clip-path="url(#a)">
<use x="1352.398511" y="848.217868" fill="#ffffff" stroke="#ffffff" xlink:href="#b"/>
</g>
<g clip-path="url(#a)">
<use x="697.032441" y="848.217868" fill="#ffffff" stroke="#ffffff" xlink:href="#b"/>
</g>
<g clip-path="url(#a)">
<use x="784.414584" y="755.205361" fill="#ffffff" stroke="#ffffff" xlink:href="#b"/>
</g>
<g clip-path="url(#a)">
<use x="871.796726" y="848.217868" fill="#ffffff" stroke="#ffffff" xlink:href="#b"/>
</g>
<g clip-path="url(#a)">
<use x="915.487798" y="848.217868" fill="#ffffff" stroke="#ffffff" xlink:href="#b"/>
</g>
<g clip-path="url(#a)">
<use x="740.723513" y="848.217868" fill="#ffffff" stroke="#ffffff" xlink:href="#b"/>
</g>
<g clip-path="url(#a)">
<use x="784.414584" y="848.217868" fill="#ffffff" stroke="#ffffff" xlink:href="#b"/>
</g>
<g clip-path="url(#a)">
<use x="828.105655" y="848.217868" fill="#ffffff" stroke="#ffffff" xlink:href="#b"/>
</g>
<g clip-path="url(#a)">
<use x="85.357443" y="848.217868" fill="#ffffff" stroke="#ffffff" xlink:href="#b"/>
</g>
<g clip-path="url(#a)">
<use x="1789.309223" y="941.230376" fill="#ffffff" stroke="#ffffff" xlink:href="#b"/>
</g>
<g clip-path="url(#a)">
<use x="1238.801725" y="564.776593" fill="#ffffff" stroke="#ffffff" xlink:href="#b"/>
</g>
<g clip-path="url(#a)">
<use x="1745.618152" y="941.230376" fill="#ffffff" stroke="#ffffff" xlink:href="#b"/>
</g>
<g clip-path="url(#a)">
<use x="731.985298" y="660.898947" fill="#ffffff" stroke="#ffffff" xlink:href="#b"/>
</g>
<g clip-path="url(#a)">
<use x="1701.927081" y="941.230376" fill="#ffffff" stroke="#ffffff" xlink:href="#b"/>
</g>
<g clip-path="url(#a)">
<use x="391.194942" y="848.217868" fill="#ffffff" stroke="#ffffff" xlink:href="#b"/>
</g>
<g clip-path="url(#a)">
<use x="434.886014" y="848.217868" fill="#ffffff" stroke="#ffffff" xlink:href="#b"/>
</g>
<g clip-path="url(#a)">
<use x="522.268156" y="755.205361" fill="#ffffff" stroke="#ffffff" xlink:href="#b"/>
</g>
<g clip-path="url(#a)">
<use x="609.650299" y="848.217868" fill="#ffffff" stroke="#ffffff" xlink:href="#b"/>
</g>
<g clip-path="url(#a)">
<use x="478.577085" y="848.217868" fill="#ffffff" stroke="#ffffff" xlink:href="#b"/>
</g>
<g clip-path="url(#a)">
<use x="522.268156" y="848.217868" fill="#ffffff" stroke="#ffffff" xlink:href="#b"/>
</g>
<g clip-path="url(#a)">
<use x="565.959227" y="848.217868" fill="#ffffff" stroke="#ffffff" xlink:href="#b"/>
</g>
<g clip-path="url(#a)">
<use x="129.048515" y="848.217868" fill="#ffffff" stroke="#ffffff" xlink:href="#b"/>
</g>
<g clip-path="url(#a)">
<use x="303.8128" y="848.217868" fill="#ffffff" stroke="#ffffff" xlink:href="#b"/>
</g>
<g clip-path="url(#a)">
<use x="347.503871" y="848.217868" fill="#ffffff" stroke="#ffffff" xlink:href="#b"/>
</g>
<g clip-path="url(#a)">
<use x="959.178869" y="848.217868" fill="#ffffff" stroke="#ffffff" xlink:href="#b"/>
</g>
<g clip-path="url(#a)">
<use x="1221.325297" y="848.217868" fill="#ffffff" stroke="#ffffff" xlink:href="#b"/>
</g>
<g clip-path="url(#a)">
<use x="1396.089582" y="848.217868" fill="#ffffff" stroke="#ffffff" xlink:href="#b"/>
</g>
<g clip-path="url(#a)">
<use x="1483.471724" y="848.217868" fill="#ffffff" stroke="#ffffff" xlink:href="#b"/>
</g>
<g clip-path="url(#a)">
<use x="1658.236009" y="848.217868" fill="#ffffff" stroke="#ffffff" xlink:href="#b"/>
</g>
<g clip-path="url(#a)">
<defs>
<path id="o" d="m18.312 70.219v-15.531h18.5v-6.9844h-18.5v-29.688q0-6.6875 1.8281-8.5938t7.4531-1.9062h9.2188v-7.5156h-9.2188q-10.406 0-14.359 3.875-3.9531 3.8906-3.9531 14.141v29.688h-6.5938v6.9844h6.5938v15.531z"/>
<path id="u" d="m44.281 53.078v-8.5q-3.7969 1.9531-7.9062 2.9219-4.0938 0.98438-8.5 0.98438-6.6875 0-10.031-2.0469t-3.3438-6.1562q0-3.125 2.3906-4.9062t9.625-3.3906l3.0781-0.6875q9.5625-2.0469 13.594-5.7812t4.0312-10.422q0-7.625-6.0312-12.078-6.0312-4.4375-16.578-4.4375-4.3906 0-9.1562 0.85938t-10.031 2.5625v9.2812q4.9844-2.5938 9.8125-3.8906 4.8281-1.2812 9.5781-1.2812 6.3438 0 9.75 2.1719 3.4219 2.1719 3.4219 6.125 0 3.6562-2.4688 5.6094-2.4531 1.9531-10.812 3.7656l-3.125 0.73438q-8.3438 1.75-12.062 5.3906-3.7031 3.6406-3.7031 9.9844 0 7.7188 5.4688 11.906 5.4688 4.2031 15.531 4.2031 4.9688 0 9.3594-0.73438 4.4062-0.71875 8.1094-2.1875z"/>
</defs>
<g transform="translate(65.293 943.99) scale(.1 -.1)">
<use xlink:href="#as"/>
<use x="77.001953" xlink:href="#g"/>
<use x="118.115234" xlink:href="#h"/>
<use x="145.898438" xlink:href="#o"/>
<use x="185.107422" xlink:href="#o"/>
<use x="224.316406" xlink:href="#c"/>
<use x="285.839844" xlink:href="#e"/>
<use x="349.21875" xlink:href="#u"/>
</g>
</g>
<g clip-path="url(#a)">
<defs>
<path id="ai" d="m11.719 12.406h10.297v-8.4062l-8-15.625h-6.2969l4 15.625z"/>
</defs>
<g transform="translate(127.46 943.99) scale(.1 -.1)">
<use xlink:href="#ai"/>
</g>
</g>
<g clip-path="url(#a)">
<defs>
<path id="ac" d="m37.109 75.984v-7.4844h-8.5938q-4.8281 0-6.7188-1.9531-1.875-1.9531-1.875-7.0312v-4.8281h14.797v-6.9844h-14.797v-47.703h-9.0312v47.703h-8.5938v6.9844h8.5938v3.8125q0 9.125 4.25 13.297 4.25 4.1875 13.469 4.1875z"/>
<path id="t" d="m8.5 21.578v33.109h8.9844v-32.766q0-7.7656 3.0156-11.656 3.0312-3.875 9.0938-3.875 7.2656 0 11.484 4.6406 4.2344 4.6406 4.2344 12.656v31h8.9844v-54.688h-8.9844v8.4062q-3.2656-4.9844-7.5938-7.4062-4.3125-2.4219-10.031-2.4219-9.4219 0-14.312 5.8594-4.875 5.8594-4.875 17.141z"/>
<path id="w" d="m54.891 33.016v-33.016h-8.9844v32.719q0 7.7656-3.0312 11.609-3.0312 3.8594-9.0781 3.8594-7.2812 0-11.484-4.6406-4.2031-4.625-4.2031-12.641v-30.906h-9.0312v75.984h9.0312v-29.797q3.2344 4.9375 7.5938 7.375 4.375 2.4375 10.094 2.4375 9.4219 0 14.25-5.8281 4.8438-5.8281 4.8438-17.156z"/>
</defs>
<g transform="translate(162.59 943.99) scale(.1 -.1)">
<use xlink:href="#ac"/>
<use x="35.205078" xlink:href="#t"/>
<use x="98.583984" xlink:href="#w"/>
<use x="161.962891" xlink:href="#g"/>
</g>
</g>
<g clip-path="url(#a)">
<defs>
<path id="ab" d="m30.609 48.391q-7.2188 0-11.422-5.6406t-4.2031-15.453 4.1719-15.453q4.1875-5.6406 11.453-5.6406 7.1875 0 11.375 5.6562 4.2031 5.6719 4.2031 15.438 0 9.7188-4.2031 15.406-4.1875 5.6875-11.375 5.6875zm0 7.6094q11.719 0 18.406-7.625 6.7031-7.6094 6.7031-21.078 0-13.422-6.7031-21.078-6.6875-7.6406-18.406-7.6406-11.766 0-18.438 7.6406-6.6562 7.6562-6.6562 21.078 0 13.469 6.6562 21.078 6.6719 7.625 18.438 7.625z"/>
</defs>
<g transform="translate(198.25 943.99) scale(.1 -.1)">
<use xlink:href="#p"/>
<use x="69.824219" xlink:href="#ab"/>
<use x="131.005859" xlink:href="#e"/>
<use x="194.384766" xlink:href="#u"/>
<use x="246.484375" xlink:href="#c"/>
<use x="308.007812" xlink:href="#h"/>
<use x="335.791016" xlink:href="#j"/>
</g>
</g>
<g clip-path="url(#a)">
<g transform="translate(251.29 943.99) scale(.1 -.1)">
<use xlink:href="#ac"/>
<use x="35.205078" xlink:href="#ab"/>
<use x="96.386719" xlink:href="#g"/>
<use x="137.5" xlink:href="#o"/>
</g>
</g>
<g clip-path="url(#a)">
<g transform="translate(302.22 943.99) scale(.1 -.1)">
<use xlink:href="#ai"/>
</g>
</g>
<g clip-path="url(#a)">
<defs>
<path id="ax" d="m9.4219 51.703 22.906-20.406v-4l-22.906-20.406v9.3281l14.703 13.078-14.703 13.094zm21.188 0 22.906-20.406v-4l-22.906-20.406v9.3281l14.703 13.078-14.703 13.094z"/>
</defs>
<g transform="translate(344.44 943.99) scale(.1 -.1)">
<use xlink:href="#ax"/>
</g>
</g>
<g clip-path="url(#a)">
<defs>
<path id="ad" d="m45.406 46.391v29.594h8.9844v-75.984h-8.9844v8.2031q-2.8281-4.875-7.1562-7.25-4.3125-2.375-10.375-2.375-9.9062 0-16.141 7.9062-6.2188 7.9219-6.2188 20.812t6.2188 20.797q6.2344 7.9062 16.141 7.9062 6.0625 0 10.375-2.375 4.3281-2.3594 7.1562-7.2344zm-30.609-19.094q0-9.9062 4.0781-15.547t11.203-5.6406 11.219 5.6406q4.1094 5.6406 4.1094 15.547t-4.1094 15.547q-4.0938 5.6406-11.219 5.6406t-11.203-5.6406-4.0781-15.547z"/>
</defs>
<g transform="translate(376.64 943.99) scale(.1 -.1)">
<use xlink:href="#ad"/>
<use x="63.476562" xlink:href="#c"/>
<use x="125" xlink:href="#g"/>
<use x="166.082031" xlink:href="#c"/>
<use x="227.605469" xlink:href="#e"/>
</g>
</g>
<g clip-path="url(#a)">
<defs>
<path id="ap" d="m19.672 34.812v-26.703h15.828q7.9531 0 11.781 3.2969 3.8438 3.2969 3.8438 10.078 0 6.8438-3.8438 10.078-3.8281 3.25-11.781 3.25zm0 29.984v-21.969h14.609q7.2188 0 10.75 2.7031 3.5469 2.7188 3.5469 8.2812 0 5.5156-3.5469 8.25-3.5312 2.7344-10.75 2.7344zm-9.8594 8.1094h25.203q11.281 0 17.375-4.6875 6.1094-4.6875 6.1094-13.328 0-6.7031-3.125-10.656t-9.1875-4.9219q7.2812-1.5625 11.312-6.5312 4.0312-4.9531 4.0312-12.375 0-9.7656-6.6406-15.094-6.6406-5.3125-18.906-5.3125h-26.172z"/>
<path id="ae" d="m48.781 52.594v-8.4062q-3.8125 2.1094-7.6406 3.1562t-7.7344 1.0469q-8.75 0-13.594-5.5469-4.8281-5.5312-4.8281-15.547t4.8281-15.562q4.8438-5.5312 13.594-5.5312 3.9062 0 7.7344 1.0469t7.6406 3.1562v-8.3125q-3.7656-1.75-7.7969-2.625-4.0156-0.89062-8.5625-0.89062-12.359 0-19.641 7.7656-7.2656 7.7656-7.2656 20.953 0 13.375 7.3438 21.031 7.3594 7.6719 20.156 7.6719 4.1406 0 8.0938-0.85938 3.9531-0.84375 7.6719-2.5469z"/>
</defs>
<g transform="translate(401.64 943.99) scale(.1 -.1)">
<use xlink:href="#ap"/>
<use x="68.603516" xlink:href="#i"/>
<use x="129.882812" xlink:href="#t"/>
<use x="193.261719" xlink:href="#ae"/>
<use x="248.242188" xlink:href="#w"/>
<use x="311.621094" xlink:href="#ac"/>
<use x="346.826172" xlink:href="#j"/>
<use x="374.609375" xlink:href="#ab"/>
<use x="435.791016" xlink:href="#u"/>
<use x="487.890625" xlink:href="#u"/>
<use x="539.990234" xlink:href="#c"/>
<use x="601.513672" xlink:href="#e"/>
</g>
</g>
<g clip-path="url(#a)">
<g transform="translate(465.15 943.99) scale(.1 -.1)">
<use xlink:href="#t"/>
<use x="63.378906" xlink:href="#e"/>
<use x="126.757812" xlink:href="#o"/>
<use x="165.966797" xlink:href="#c"/>
<use x="227.490234" xlink:href="#g"/>
</g>
</g>
<g clip-path="url(#a)">
<g transform="translate(512.85 943.99) scale(.1 -.1)">
<use xlink:href="#ad"/>
<use x="63.476562" xlink:href="#c"/>
<use x="125" xlink:href="#e"/>
</g>
</g>
<g clip-path="url(#a)">
<g transform="translate(535.08 943.99) scale(.1 -.1)">
<use xlink:href="#ap"/>
<use x="68.603516" xlink:href="#g"/>
<use x="109.716797" xlink:href="#t"/>
<use x="173.095703" xlink:href="#u"/>
<use x="225.195312" xlink:href="#o"/>
<use x="264.404297" xlink:href="#ac"/>
<use x="299.609375" xlink:href="#j"/>
<use x="327.392578" xlink:href="#ab"/>
<use x="388.574219" xlink:href="#u"/>
<use x="440.673828" xlink:href="#u"/>
<use x="492.773438" xlink:href="#c"/>
<use x="554.296875" xlink:href="#e"/>
</g>
</g>
<g clip-path="url(#a)">
<g transform="translate(592.59 943.99) scale(.1 -.1)">
<use xlink:href="#u"/>
<use x="52.099609" xlink:href="#o"/>
<use x="91.308594" xlink:href="#c"/>
<use x="152.832031" xlink:href="#w"/>
<use x="216.210938" xlink:href="#c"/>
<use x="277.734375" xlink:href="#e"/>
</g>
</g>
<g clip-path="url(#a)">
<g transform="translate(643.83 943.99) scale(.1 -.1)">
<use xlink:href="#t"/>
<use x="63.378906" xlink:href="#e"/>
<use x="126.757812" xlink:href="#ad"/>
</g>
</g>
<g clip-path="url(#a)">
<defs>
<path id="av" d="m48.688 27.297q0 9.9062-4.0781 15.547t-11.203 5.6406q-7.1406 0-11.219-5.6406t-4.0781-15.547 4.0781-15.547 11.219-5.6406q7.125 0 11.203 5.6406t4.0781 15.547zm-30.578 19.094q2.8438 4.875 7.1562 7.2344 4.3281 2.375 10.328 2.375 9.9688 0 16.188-7.9062 6.2344-7.9062 6.2344-20.797t-6.2344-20.812q-6.2188-7.9062-16.188-7.9062-6 0-10.328 2.375-4.3125 2.375-7.1562 7.25v-8.2031h-9.0312v75.984h9.0312z"/>
</defs>
<g transform="translate(667.76 943.99) scale(.1 -.1)">
<use xlink:href="#t"/>
<use x="63.378906" xlink:href="#e"/>
<use x="126.757812" xlink:href="#l"/>
<use x="224.169922" xlink:href="#h"/>
<use x="251.953125" xlink:href="#o"/>
<use x="291.162109" xlink:href="#o"/>
<use x="330.371094" xlink:href="#c"/>
<use x="391.894531" xlink:href="#j"/>
<use x="419.677734" xlink:href="#av"/>
<use x="483.154297" xlink:href="#i"/>
<use x="544.433594" xlink:href="#g"/>
</g>
</g>
<g clip-path="url(#a)">
<g transform="translate(734.49 943.99) scale(.1 -.1)">
<use xlink:href="#i"/>
<use x="61.279297" xlink:href="#e"/>
</g>
</g>
<g clip-path="url(#a)">
<g transform="translate(776.77 943.99) scale(.1 -.1)">
<use xlink:href="#ad"/>
<use x="63.476562" xlink:href="#h"/>
<use x="91.259766" xlink:href="#c"/>
</g>
</g>
<g clip-path="url(#a)">
<defs>
<path id="ba" d="m9.0781 75.984h9.0312v-44.875l26.812 23.578h11.469l-29-25.578 30.234-29.109h-11.719l-27.797 26.703v-26.703h-9.0312z"/>
</defs>
<g transform="translate(786.08 943.99) scale(.1 -.1)">
<use xlink:href="#y"/>
<use x="63.476562" xlink:href="#ae"/>
<use x="118.457031" xlink:href="#w"/>
<use x="181.835938" xlink:href="#t"/>
<use x="245.214844" xlink:href="#j"/>
<use x="272.998047" xlink:href="#o"/>
<use x="312.207031" xlink:href="#c"/>
<use x="373.730469" xlink:href="#g"/>
<use x="414.84375" xlink:href="#ba"/>
<use x="472.753906" xlink:href="#e"/>
<use x="536.132812" xlink:href="#ab"/>
<use x="597.314453" xlink:href="#ae"/>
<use x="652.294922" xlink:href="#w"/>
<use x="715.673828" xlink:href="#c"/>
<use x="777.197266" xlink:href="#e"/>
</g>
</g>
<g clip-path="url(#a)">
<defs>
<path id="aq" d="m45.406 27.984q0 9.7656-4.0312 15.125-4.0156 5.375-11.297 5.375-7.2188 0-11.25-5.375-4.0312-5.3594-4.0312-15.125 0-9.7188 4.0312-15.094t11.25-5.375q7.2812 0 11.297 5.375 4.0312 5.375 4.0312 15.094zm8.9844-21.203q0-13.953-6.2031-20.766-6.1875-6.8125-18.984-6.8125-4.7344 0-8.9375 0.70312t-8.1562 2.1719v8.7344q3.9531-2.1406 7.8125-3.1562 3.8594-1.0312 7.8594-1.0312 8.8438 0 13.234 4.6094t4.3906 13.938v4.4531q-2.7812-4.8438-7.125-7.2344t-10.406-2.3906q-10.047 0-16.203 7.6562-6.1562 7.6719-6.1562 20.328 0 12.688 6.1562 20.344 6.1562 7.6719 16.203 7.6719 6.0625 0 10.406-2.3906t7.125-7.2188v8.2969h8.9844z"/>
</defs>
<g transform="translate(850.54 943.99) scale(.1 -.1)">
<use xlink:href="#aq"/>
<use x="63.476562" xlink:href="#c"/>
<use x="125" xlink:href="#w"/>
<use x="188.378906" xlink:href="#c"/>
<use x="249.902344" xlink:href="#ac"/>
<use x="285.091797" xlink:href="#o"/>
<use x="324.300781" xlink:href="#c"/>
<use x="385.824219" xlink:href="#o"/>
</g>
</g>
<g clip-path="url(#a)">
<g transform="translate(905.15 943.99) scale(.1 -.1)">
<use xlink:href="#u"/>
<use x="52.099609" xlink:href="#h"/>
<use x="79.882812" xlink:href="#e"/>
<use x="143.261719" xlink:href="#ad"/>
</g>
</g>
<g clip-path="url(#a)">
<defs>
<path id="f" d="m10.688 12.406h10.312v-12.406h-10.312z"/>
</defs>
<g transform="translate(957.59 943.99) scale(.1 -.1)">
<use xlink:href="#f"/>
</g>
</g>
<g clip-path="url(#a)">
<g transform="translate(995.23 943.99) scale(.1 -.1)">
<use xlink:href="#y"/>
<use x="63.476562" xlink:href="#h"/>
<use x="91.259766" xlink:href="#c"/>
</g>
</g>
<g clip-path="url(#a)">
<g transform="translate(1026.5 943.99) scale(.1 -.1)">
<use xlink:href="#l"/>
<use x="97.412109" xlink:href="#i"/>
<use x="158.691406" xlink:href="#ae"/>
<use x="213.671875" xlink:href="#w"/>
<use x="277.050781" xlink:href="#c"/>
<use x="338.574219" xlink:href="#e"/>
</g>
</g>
<g clip-path="url(#a)">
<defs>
<path id="az" d="m2.9844 54.688h9.5156l17.094-45.891 17.094 45.891h9.5156l-20.516-54.688h-12.203z"/>
</defs>
<g transform="translate(1080.8 943.99) scale(.1 -.1)">
<use xlink:href="#az"/>
<use x="59.179688" xlink:href="#h"/>
<use x="86.962891" xlink:href="#c"/>
<use x="148.486328" xlink:href="#g"/>
</g>
</g>
<g clip-path="url(#a)">
<g transform="translate(1112.7 943.99) scale(.1 -.1)">
<use xlink:href="#ar"/>
<use x="57.378906" xlink:href="#i"/>
<use x="118.658203" xlink:href="#l"/>
<use x="216.070312" xlink:href="#h"/>
<use x="243.853516" xlink:href="#j"/>
<use x="271.636719" xlink:href="#h"/>
<use x="299.419922" xlink:href="#c"/>
<use x="360.943359" xlink:href="#e"/>
</g>
</g>
<g clip-path="url(#a)">
<g transform="translate(1168.8 943.99) scale(.1 -.1)">
<use xlink:href="#i"/>
<use x="61.279297" xlink:href="#t"/>
<use x="124.658203" xlink:href="#u"/>
</g>
</g>
<g clip-path="url(#a)">
<g transform="translate(1219.7 943.99) scale(.1 -.1)">
<use xlink:href="#ai"/>
</g>
</g>
<g clip-path="url(#a)">
<defs>
<path id="au" d="m4.2031 54.688h8.9844l11.234-42.672 11.172 42.672h10.594l11.234-42.672 11.188 42.672h8.9844l-14.312-54.688h-10.594l-11.766 44.828-11.812-44.828h-10.609z"/>
<path id="at" d="m5.5156 54.688h42.672v-8.2031l-33.781-39.312h33.781v-7.1719h-43.891v8.2031l33.797 39.312h-32.578z"/>
</defs>
<g transform="translate(1252.1 943.99) scale(.1 -.1)">
<use xlink:href="#au"/>
<use x="81.787109" xlink:href="#ab"/>
<use x="142.96875" xlink:href="#at"/>
<use x="195.458984" xlink:href="#t"/>
</g>
</g>
<g clip-path="url(#a)">
<g transform="translate(1301.1 943.99) scale(.1 -.1)">
<use xlink:href="#ad"/>
<use x="63.476562" xlink:href="#h"/>
<use x="91.259766" xlink:href="#c"/>
</g>
</g>
<g clip-path="url(#a)">
<g transform="translate(1335.6 943.99) scale(.1 -.1)">
<use xlink:href="#ap"/>
<use x="68.603516" xlink:href="#t"/>
<use x="131.982422" xlink:href="#o"/>
<use x="171.191406" xlink:href="#o"/>
<use x="210.400391" xlink:href="#c"/>
<use x="271.923828" xlink:href="#e"/>
</g>
</g>
<g clip-path="url(#a)">
<g transform="translate(1394.5 943.99) scale(.1 -.1)">
<use xlink:href="#ai"/>
</g>
</g>
<g clip-path="url(#a)">
<g transform="translate(1413.6 943.99) scale(.1 -.1)">
<use xlink:href="#af"/>
<use x="60.302734" xlink:href="#j"/>
<use x="88.085938" xlink:href="#i"/>
<use x="149.365234" xlink:href="#o"/>
<use x="188.574219" xlink:href="#o"/>
<use x="227.783203" xlink:href="#ac"/>
<use x="262.988281" xlink:href="#h"/>
<use x="290.771484" xlink:href="#u"/>
<use x="342.871094" xlink:href="#ae"/>
<use x="397.851562" xlink:href="#w"/>
<use x="461.230469" xlink:href="#c"/>
</g>
</g>
<g clip-path="url(#a)">
<g transform="translate(1481.9 943.99) scale(.1 -.1)">
<use xlink:href="#ai"/>
</g>
</g>
<g clip-path="url(#a)">
<defs>
<path id="ak" d="m9.8125 72.906h14.703l18.594-49.609 18.703 49.609h14.703v-72.906h-9.625v64.016l-18.797-50h-9.9062l-18.797 50v-64.016h-9.5781z"/>
</defs>
<g transform="translate(1496.3 943.99) scale(.1 -.1)">
<use xlink:href="#ak"/>
<use x="86.279297" xlink:href="#c"/>
<use x="147.802734" xlink:href="#c"/>
<use x="209.326172" xlink:href="#g"/>
<use x="250.439453" xlink:href="#at"/>
<use x="302.929688" xlink:href="#t"/>
<use x="366.308594" xlink:href="#e"/>
<use x="429.6875" xlink:href="#aq"/>
<use x="493.164062" xlink:href="#c"/>
<use x="554.6875" xlink:href="#e"/>
</g>
</g>
<g clip-path="url(#a)">
<defs>
<path id="aw" d="m30.609 48.391q-7.2188 0-11.422-5.6406t-4.2031-15.453 4.1719-15.453q4.1875-5.6406 11.453-5.6406 7.1875 0 11.375 5.6562 4.2031 5.6719 4.2031 15.438 0 9.7188-4.2031 15.406-4.1875 5.6875-11.375 5.6875zm0 7.6094q11.719 0 18.406-7.625 6.7031-7.6094 6.7031-21.078 0-13.422-6.7031-21.078-6.6875-7.6406-18.406-7.6406-11.766 0-18.438 7.6406-6.6562 7.6562-6.6562 21.078 0 13.469 6.6562 21.078 6.6719 7.625 18.438 7.625zm4.6094 19.781h9.9062v-9.8594h-9.9062zm-19.094 0h9.9062v-9.8594h-9.9062z"/>
</defs>
<g transform="translate(1550.1 943.99) scale(.1 -.1)">
<use xlink:href="#aq"/>
<use x="63.476562" xlink:href="#c"/>
<use x="125" xlink:href="#w"/>
<use x="188.378906" xlink:href="#aw"/>
<use x="249.560547" xlink:href="#g"/>
<use x="290.642578" xlink:href="#c"/>
<use x="352.166016" xlink:href="#e"/>
</g>
</g>
<g clip-path="url(#a)">
<g transform="translate(1603.1 943.99) scale(.1 -.1)">
<use xlink:href="#t"/>
<use x="63.378906" xlink:href="#u"/>
<use x="115.478516" xlink:href="#au"/>
<use x="197.125" xlink:href="#f"/>
</g>
</g>
<g clip-path="url(#a)">
<defs>
<path id="ay" d="m51.812 51.703v-9.3125l-14.703-13.094 14.703-13.078v-9.3281l-22.906 20.406v4zm-21.203 0v-9.3125l-14.688-13.094 14.688-13.078v-9.3281l-22.891 20.406v4z"/>
</defs>
<g transform="translate(1655.2 943.99) scale(.1 -.1)">
<use xlink:href="#ay"/>
</g>
</g>
<g clip-path="url(#a)">
<defs>
<path id="d" d="m12.406 8.2969h16.109v55.625l-17.531-3.5156v8.9844l17.438 3.5156h9.8594v-64.609h16.109v-8.2969h-41.984z"/>
</defs>
<g transform="translate(345.06 48.196) scale(.1 -.1)">
<use xlink:href="#d"/>
<use x="63.623047" xlink:href="#f"/>
<use x="95.410156" xlink:href="#d"/>
</g>
</g>
<g clip-path="url(#a)">
<defs>
<path id="n" d="m19.188 8.2969h34.422v-8.2969h-46.281v8.2969q5.6094 5.8125 15.297 15.594 9.7031 9.7969 12.188 12.641 4.7344 5.3125 6.6094 9 1.8906 3.6875 1.8906 7.25 0 5.8125-4.0781 9.4688-4.0781 3.6719-10.625 3.6719-4.6406 0-9.7969-1.6094-5.1406-1.6094-11-4.8906v9.9688q5.9531 2.3906 11.125 3.6094 5.1875 1.2188 9.4844 1.2188 11.328 0 18.062-5.6719 6.7344-5.6562 6.7344-15.125 0-4.5-1.6875-8.5312-1.6719-4.0156-6.125-9.4844-1.2188-1.4219-7.7656-8.1875-6.5312-6.7656-18.453-18.922z"/>
</defs>
<g transform="translate(345.06 158.16) scale(.1 -.1)">
<use xlink:href="#d"/>
<use x="63.623047" xlink:href="#f"/>
<use x="95.410156" xlink:href="#n"/>
</g>
</g>
<g clip-path="url(#a)">
<defs>
<path id="s" d="m37.797 64.312-24.906-38.922h24.906zm-2.5938 8.5938h12.406v-47.516h10.406v-8.2031h-10.406v-17.188h-9.8125v17.188h-32.906v9.5156z"/>
</defs>
<g transform="translate(896.91 264.81) scale(.1 -.1)">
<use xlink:href="#d"/>
<use x="63.623047" xlink:href="#f"/>
<use x="95.410156" xlink:href="#s"/>
</g>
</g>
<g clip-path="url(#a)">
<defs>
<path id="m" d="m10.797 72.906h38.719v-8.3125h-29.688v-17.859q2.1406 0.73438 4.2812 1.0938 2.1562 0.35938 4.3125 0.35938 12.203 0 19.328-6.6875 7.1406-6.6875 7.1406-18.109 0-11.766-7.3281-18.297-7.3281-6.5156-20.656-6.5156-4.5938 0-9.3594 0.78125-4.75 0.78125-9.8281 2.3438v9.9219q4.3906-2.3906 9.0781-3.5625t9.9062-1.1719q8.4531 0 13.375 4.4375 4.9375 4.4375 4.9375 12.062 0 7.6094-4.9375 12.047-4.9219 4.4531-13.375 4.4531-3.9531 0-7.8906-0.875-3.9219-0.875-8.0156-2.7344z"/>
</defs>
<g transform="translate(208.48 850.98) scale(.1 -.1)">
<use xlink:href="#d"/>
<use x="63.623047" xlink:href="#f"/>
<use x="95.410156" xlink:href="#m"/>
</g>
</g>
<g clip-path="url(#a)">
<defs>
<path id="z" d="m33.016 40.375q-6.6406 0-10.531-4.5469-3.875-4.5312-3.875-12.438 0-7.8594 3.875-12.438 3.8906-4.5625 10.531-4.5625t10.516 4.5625q3.875 4.5781 3.875 12.438 0 7.9062-3.875 12.438-3.875 4.5469-10.516 4.5469zm19.578 30.922v-8.9844q-3.7188 1.75-7.5 2.6719-3.7812 0.9375-7.5 0.9375-9.7656 0-14.922-6.5938-5.1406-6.5938-5.875-19.922 2.875 4.25 7.2188 6.5156 4.3594 2.2656 9.5781 2.2656 10.984 0 17.359-6.6719 6.375-6.6562 6.375-18.125 0-11.234-6.6406-18.031-6.6406-6.7812-17.672-6.7812-12.656 0-19.344 9.6875-6.6875 9.7031-6.6875 28.109 0 17.281 8.2031 27.562t22.016 10.281q3.7188 0 7.5-0.73438t7.8906-2.1875z"/>
</defs>
<g transform="translate(208.48 850.98) scale(.1 -.1)">
<use xlink:href="#d"/>
<use x="63.623047" xlink:href="#f"/>
<use x="95.410156" xlink:href="#z"/>
</g>
</g>
<g clip-path="url(#a)">
<defs>
<path id="ah" d="m31.781 66.406q-7.6094 0-11.453-7.5-3.8281-7.4844-3.8281-22.531 0-14.984 3.8281-22.484 3.8438-7.5 11.453-7.5 7.6719 0 11.5 7.5 3.8438 7.5 3.8438 22.484 0 15.047-3.8438 22.531-3.8281 7.5-11.5 7.5zm0 7.8125q12.266 0 18.734-9.7031 6.4688-9.6875 6.4688-28.141 0-18.406-6.4688-28.109-6.4688-9.6875-18.734-9.6875-12.25 0-18.719 9.6875-6.4688 9.7031-6.4688 28.109 0 18.453 6.4688 28.141 6.4688 9.7031 18.719 9.7031z"/>
</defs>
<g transform="translate(1026.7 469.22) scale(.1 -.1)">
<use xlink:href="#d"/>
<use x="63.623047" xlink:href="#f"/>
<use x="95.410156" xlink:href="#d"/>
<use x="159.033203" xlink:href="#ah"/>
</g>
</g>
<g clip-path="url(#a)">
<g transform="translate(642.21 850.98) scale(.1 -.1)">
<use xlink:href="#d"/>
<use x="63.623047" xlink:href="#f"/>
<use x="95.410156" xlink:href="#d"/>
<use x="159.033203" xlink:href="#d"/>
</g>
</g>
<g clip-path="url(#a)">
<g transform="translate(729.59 663.66) scale(.1 -.1)">
<use xlink:href="#d"/>
<use x="63.623047" xlink:href="#f"/>
<use x="95.410156" xlink:href="#d"/>
<use x="159.033203" xlink:href="#n"/>
</g>
</g>
<g clip-path="url(#a)">
<defs>
<path id="r" d="m40.578 39.312q7.0781-1.5156 11.047-6.3125 3.9844-4.7812 3.9844-11.812 0-10.781-7.4219-16.703-7.4219-5.9062-21.094-5.9062-4.5781 0-9.4375 0.90625t-10.031 2.7188v9.5156q4.0938-2.3906 8.9688-3.6094 4.8906-1.2188 10.219-1.2188 9.2656 0 14.125 3.6562t4.8594 10.641q0 6.4531-4.5156 10.078-4.5156 3.6406-12.562 3.6406h-8.5v8.1094h8.8906q7.2656 0 11.125 2.9062t3.8594 8.375q0 5.6094-3.9844 8.6094-3.9688 3.0156-11.391 3.0156-4.0625 0-8.7031-0.89062-4.6406-0.875-10.203-2.7188v8.7812q5.625 1.5625 10.531 2.3438t9.25 0.78125q11.234 0 17.766-5.1094 6.5469-5.0938 6.5469-13.781 0-6.0625-3.4688-10.234t-9.8594-5.7812z"/>
</defs>
<g transform="translate(1122.1 368.41) scale(.1 -.1)">
<use xlink:href="#d"/>
<use x="63.623047" xlink:href="#f"/>
<use x="95.410156" xlink:href="#d"/>
<use x="159.033203" xlink:href="#r"/>
</g>
</g>
<g clip-path="url(#a)">
<g transform="translate(991.74 850.98) scale(.1 -.1)">
<use xlink:href="#d"/>
<use x="63.623047" xlink:href="#f"/>
<use x="95.410156" xlink:href="#d"/>
<use x="159.033203" xlink:href="#m"/>
</g>
</g>
<g clip-path="url(#a)">
<g transform="translate(1101 850.98) scale(.1 -.1)">
<use xlink:href="#d"/>
<use x="63.623047" xlink:href="#f"/>
<use x="95.410156" xlink:href="#d"/>
<use x="159.033203" xlink:href="#z"/>
</g>
</g>
<g clip-path="url(#a)">
<defs>
<path id="ag" d="m8.2031 72.906h46.875v-4.2031l-26.469-68.703h-10.297l24.906 64.594h-35.016z"/>
</defs>
<g transform="translate(1185.5 469.22) scale(.1 -.1)">
<use xlink:href="#d"/>
<use x="63.623047" xlink:href="#f"/>
<use x="95.410156" xlink:href="#d"/>
<use x="159.033203" xlink:href="#ag"/>
</g>
</g>
<g clip-path="url(#a)">
<defs>
<path id="an" d="m10.984 1.5156v8.9844q3.7188-1.7656 7.5156-2.6875 3.8125-0.92188 7.4844-0.92188 9.7656 0 14.906 6.5625 5.1562 6.5625 5.8906 19.953-2.8281-4.2031-7.1875-6.4531-4.3438-2.25-9.6094-2.25-10.938 0-17.312 6.6094-6.375 6.625-6.375 18.109 0 11.219 6.6406 18 6.6406 6.7969 17.672 6.7969 12.656 0 19.312-9.7031 6.6719-9.6875 6.6719-28.141 0-17.234-8.1875-27.516-8.1719-10.281-21.984-10.281-3.7188 0-7.5312 0.73438-3.7969 0.73438-7.9062 2.2031zm19.625 30.906q6.6406 0 10.516 4.5312 3.8906 4.5469 3.8906 12.469 0 7.8594-3.8906 12.422-3.875 4.5625-10.516 4.5625t-10.516-4.5625-3.875-12.422q0-7.9219 3.875-12.469 3.875-4.5312 10.516-4.5312z"/>
</defs>
<g transform="translate(1079.1 850.98) scale(.1 -.1)">
<use xlink:href="#d"/>
<use x="63.623047" xlink:href="#f"/>
<use x="95.410156" xlink:href="#d"/>
<use x="159.033203" xlink:href="#an"/>
</g>
</g>
<g clip-path="url(#a)">
<g transform="translate(1122.8 850.98) scale(.1 -.1)">
<use xlink:href="#d"/>
<use x="63.623047" xlink:href="#f"/>
<use x="95.410156" xlink:href="#n"/>
<use x="159.033203" xlink:href="#ah"/>
</g>
</g>
<g clip-path="url(#a)">
<g transform="translate(1354.5 567.54) scale(.1 -.1)">
<use xlink:href="#d"/>
<use x="63.623047" xlink:href="#f"/>
<use x="95.410156" xlink:href="#n"/>
<use x="159.033203" xlink:href="#d"/>
</g>
</g>
<g clip-path="url(#a)">
<g transform="translate(1253.9 850.98) scale(.1 -.1)">
<use xlink:href="#d"/>
<use x="63.623047" xlink:href="#f"/>
<use x="95.410156" xlink:href="#n"/>
<use x="159.033203" xlink:href="#n"/>
</g>
</g>
<g clip-path="url(#a)">
<g transform="translate(1481.7 663.66) scale(.1 -.1)">
<use xlink:href="#d"/>
<use x="63.623047" xlink:href="#f"/>
<use x="95.410156" xlink:href="#n"/>
<use x="159.033203" xlink:href="#r"/>
</g>
</g>
<g clip-path="url(#a)">
<g transform="translate(1559.7 850.98) scale(.1 -.1)">
<use xlink:href="#d"/>
<use x="63.623047" xlink:href="#f"/>
<use x="95.410156" xlink:href="#n"/>
<use x="159.033203" xlink:href="#s"/>
</g>
</g>
<g clip-path="url(#a)">
<g transform="translate(1319.4 757.96) scale(.1 -.1)">
<use xlink:href="#d"/>
<use x="63.623047" xlink:href="#f"/>
<use x="95.410156" xlink:href="#n"/>
<use x="159.033203" xlink:href="#m"/>
</g>
</g>
<g clip-path="url(#a)">
<g transform="translate(1428.6 850.98) scale(.1 -.1)">
<use xlink:href="#d"/>
<use x="63.623047" xlink:href="#f"/>
<use x="95.410156" xlink:href="#n"/>
<use x="159.033203" xlink:href="#z"/>
</g>
</g>
<g clip-path="url(#a)">
<g transform="translate(1516 850.98) scale(.1 -.1)">
<use xlink:href="#d"/>
<use x="63.623047" xlink:href="#f"/>
<use x="95.410156" xlink:href="#n"/>
<use x="159.033203" xlink:href="#ag"/>
</g>
</g>
<g clip-path="url(#a)">
<defs>
<path id="ao" d="m31.781 34.625q-7.0312 0-11.062-3.7656-4.0156-3.7656-4.0156-10.344 0-6.5938 4.0156-10.359 4.0312-3.7656 11.062-3.7656t11.078 3.7812q4.0625 3.7969 4.0625 10.344 0 6.5781-4.0312 10.344-4.0156 3.7656-11.109 3.7656zm-9.8594 4.1875q-6.3438 1.5625-9.8906 5.9062-3.5312 4.3594-3.5312 10.609 0 8.7344 6.2188 13.812 6.2344 5.0781 17.062 5.0781 10.891 0 17.094-5.0781t6.2031-13.812q0-6.25-3.5469-10.609-3.5312-4.3438-9.8281-5.9062 7.125-1.6562 11.094-6.5 3.9844-4.8281 3.9844-11.797 0-10.609-6.4688-16.281-6.4688-5.6562-18.531-5.6562-12.047 0-18.531 5.6562-6.4688 5.6719-6.4688 16.281 0 6.9688 4 11.797 4.0156 4.8438 11.141 6.5zm-3.6094 15.578q0-5.6562 3.5312-8.8281 3.5469-3.1719 9.9375-3.1719 6.3594 0 9.9375 3.1719 3.5938 3.1719 3.5938 8.8281 0 5.6719-3.5938 8.8438-3.5781 3.1719-9.9375 3.1719-6.3906 0-9.9375-3.1719-3.5312-3.1719-3.5312-8.8438z"/>
</defs>
<g transform="translate(1603.4 850.98) scale(.1 -.1)">
<use xlink:href="#d"/>
<use x="63.623047" xlink:href="#f"/>
<use x="95.410156" xlink:href="#n"/>
<use x="159.033203" xlink:href="#ao"/>
</g>
</g>
<g clip-path="url(#a)">
<g transform="translate(1297.6 850.98) scale(.1 -.1)">
<use xlink:href="#d"/>
<use x="63.623047" xlink:href="#f"/>
<use x="95.410156" xlink:href="#r"/>
<use x="159.033203" xlink:href="#d"/>
</g>
</g>
<g clip-path="url(#a)">
<g transform="translate(1341.3 850.98) scale(.1 -.1)">
<use xlink:href="#d"/>
<use x="63.623047" xlink:href="#f"/>
<use x="95.410156" xlink:href="#r"/>
<use x="159.033203" xlink:href="#n"/>
</g>
</g>
<g clip-path="url(#a)">
<g transform="translate(685.9 850.98) scale(.1 -.1)">
<use xlink:href="#d"/>
<use x="63.623047" xlink:href="#f"/>
<use x="95.410156" xlink:href="#r"/>
<use x="159.033203" xlink:href="#r"/>
</g>
</g>
<g clip-path="url(#a)">
<g transform="translate(773.28 757.96) scale(.1 -.1)">
<use xlink:href="#d"/>
<use x="63.623047" xlink:href="#f"/>
<use x="95.410156" xlink:href="#r"/>
<use x="159.033203" xlink:href="#s"/>
</g>
</g>
<g clip-path="url(#a)">
<g transform="translate(860.66 850.98) scale(.1 -.1)">
<use xlink:href="#d"/>
<use x="63.623047" xlink:href="#f"/>
<use x="95.410156" xlink:href="#r"/>
<use x="159.033203" xlink:href="#m"/>
</g>
</g>
<g clip-path="url(#a)">
<g transform="translate(904.35 850.98) scale(.1 -.1)">
<use xlink:href="#d"/>
<use x="63.623047" xlink:href="#f"/>
<use x="95.410156" xlink:href="#r"/>
<use x="159.033203" xlink:href="#z"/>
</g>
</g>
<g clip-path="url(#a)">
<g transform="translate(729.59 850.98) scale(.1 -.1)">
<use xlink:href="#d"/>
<use x="63.623047" xlink:href="#f"/>
<use x="95.410156" xlink:href="#r"/>
<use x="159.033203" xlink:href="#ag"/>
</g>
</g>
<g clip-path="url(#a)">
<g transform="translate(773.28 850.98) scale(.1 -.1)">
<use xlink:href="#d"/>
<use x="63.623047" xlink:href="#f"/>
<use x="95.410156" xlink:href="#r"/>
<use x="159.033203" xlink:href="#ao"/>
</g>
</g>
<g clip-path="url(#a)">
<g transform="translate(816.97 850.98) scale(.1 -.1)">
<use xlink:href="#d"/>
<use x="63.623047" xlink:href="#f"/>
<use x="95.410156" xlink:href="#r"/>
<use x="159.033203" xlink:href="#an"/>
</g>
</g>
<g clip-path="url(#a)">
<g transform="translate(74.225 850.98) scale(.1 -.1)">
<use xlink:href="#d"/>
<use x="63.623047" xlink:href="#f"/>
<use x="95.410156" xlink:href="#s"/>
<use x="159.033203" xlink:href="#ah"/>
</g>
</g>
<g clip-path="url(#a)">
<defs>
<path id="v" d="m9.8125 72.906h9.8594v-72.906h-9.8594z"/>
</defs>
<g transform="translate(1768.2 943.99) scale(.1 -.1)">
<use xlink:href="#v"/>
<use x="29.492188" xlink:href="#ak"/>
<use x="115.771484" xlink:href="#af"/>
<use x="176.074219" xlink:href="#al"/>
<use x="231.787109" xlink:href="#v"/>
<use x="261.279297" xlink:href="#p"/>
<use x="331.103516" xlink:href="#v"/>
<use x="360.595703" xlink:href="#k"/>
</g>
</g>
<g clip-path="url(#a)">
<g transform="translate(1227.7 567.54) scale(.1 -.1)">
<use xlink:href="#d"/>
<use x="63.623047" xlink:href="#f"/>
<use x="95.410156" xlink:href="#s"/>
<use x="159.033203" xlink:href="#n"/>
</g>
</g>
<g clip-path="url(#a)">
<g transform="translate(1724.5 943.99) scale(.1 -.1)">
<use xlink:href="#v"/>
<use x="29.492188" xlink:href="#ak"/>
<use x="115.771484" xlink:href="#af"/>
<use x="176.074219" xlink:href="#al"/>
<use x="231.787109" xlink:href="#v"/>
<use x="261.279297" xlink:href="#p"/>
<use x="331.103516" xlink:href="#v"/>
<use x="360.595703" xlink:href="#k"/>
</g>
</g>
<g clip-path="url(#a)">
<g transform="translate(720.85 663.66) scale(.1 -.1)">
<use xlink:href="#d"/>
<use x="63.623047" xlink:href="#f"/>
<use x="95.410156" xlink:href="#s"/>
<use x="159.033203" xlink:href="#s"/>
</g>
</g>
<g clip-path="url(#a)">
<g transform="translate(1680.8 943.99) scale(.1 -.1)">
<use xlink:href="#v"/>
<use x="29.492188" xlink:href="#ak"/>
<use x="115.771484" xlink:href="#af"/>
<use x="176.074219" xlink:href="#al"/>
<use x="231.787109" xlink:href="#v"/>
<use x="261.279297" xlink:href="#p"/>
<use x="331.103516" xlink:href="#v"/>
<use x="360.595703" xlink:href="#k"/>
</g>
</g>
<g clip-path="url(#a)">
<g transform="translate(380.06 850.98) scale(.1 -.1)">
<use xlink:href="#d"/>
<use x="63.623047" xlink:href="#f"/>
<use x="95.410156" xlink:href="#s"/>
<use x="159.033203" xlink:href="#z"/>
</g>
</g>
<g clip-path="url(#a)">
<g transform="translate(423.75 850.98) scale(.1 -.1)">
<use xlink:href="#d"/>
<use x="63.623047" xlink:href="#f"/>
<use x="95.410156" xlink:href="#s"/>
<use x="159.033203" xlink:href="#ag"/>
</g>
</g>
<g clip-path="url(#a)">
<g transform="translate(511.14 757.96) scale(.1 -.1)">
<use xlink:href="#d"/>
<use x="63.623047" xlink:href="#f"/>
<use x="95.410156" xlink:href="#s"/>
<use x="159.033203" xlink:href="#ao"/>
</g>
</g>
<g clip-path="url(#a)">
<g transform="translate(598.52 850.98) scale(.1 -.1)">
<use xlink:href="#d"/>
<use x="63.623047" xlink:href="#f"/>
<use x="95.410156" xlink:href="#s"/>
<use x="159.033203" xlink:href="#an"/>
</g>
</g>
<g clip-path="url(#a)">
<g transform="translate(467.44 850.98) scale(.1 -.1)">
<use xlink:href="#d"/>
<use x="63.623047" xlink:href="#f"/>
<use x="95.410156" xlink:href="#m"/>
<use x="159.033203" xlink:href="#ah"/>
</g>
</g>
<g clip-path="url(#a)">
<g transform="translate(511.14 850.98) scale(.1 -.1)">
<use xlink:href="#d"/>
<use x="63.623047" xlink:href="#f"/>
<use x="95.410156" xlink:href="#m"/>
<use x="159.033203" xlink:href="#d"/>
</g>
</g>
<g clip-path="url(#a)">
<g transform="translate(554.83 850.98) scale(.1 -.1)">
<use xlink:href="#d"/>
<use x="63.623047" xlink:href="#f"/>
<use x="95.410156" xlink:href="#m"/>
<use x="159.033203" xlink:href="#n"/>
</g>
</g>
<g clip-path="url(#a)">
<g transform="translate(117.92 850.98) scale(.1 -.1)">
<use xlink:href="#d"/>
<use x="63.623047" xlink:href="#f"/>
<use x="95.410156" xlink:href="#m"/>
<use x="159.033203" xlink:href="#r"/>
</g>
</g>
<g clip-path="url(#a)">
<g transform="translate(292.68 850.98) scale(.1 -.1)">
<use xlink:href="#d"/>
<use x="63.623047" xlink:href="#f"/>
<use x="95.410156" xlink:href="#m"/>
<use x="159.033203" xlink:href="#s"/>
</g>
</g>
<g clip-path="url(#a)">
<g transform="translate(336.37 850.98) scale(.1 -.1)">
<use xlink:href="#d"/>
<use x="63.623047" xlink:href="#f"/>
<use x="95.410156" xlink:href="#m"/>
<use x="159.033203" xlink:href="#m"/>
</g>
</g>
<g clip-path="url(#a)">
<g transform="translate(948.05 850.98) scale(.1 -.1)">
<use xlink:href="#d"/>
<use x="63.623047" xlink:href="#f"/>
<use x="95.410156" xlink:href="#m"/>
<use x="159.033203" xlink:href="#z"/>
</g>
</g>
<g clip-path="url(#a)">
<g transform="translate(1210.2 850.98) scale(.1 -.1)">
<use xlink:href="#d"/>
<use x="63.623047" xlink:href="#f"/>
<use x="95.410156" xlink:href="#m"/>
<use x="159.033203" xlink:href="#ag"/>
</g>
</g>
<g clip-path="url(#a)">
<g transform="translate(1385 850.98) scale(.1 -.1)">
<use xlink:href="#d"/>
<use x="63.623047" xlink:href="#f"/>
<use x="95.410156" xlink:href="#m"/>
<use x="159.033203" xlink:href="#ao"/>
</g>
</g>
<g clip-path="url(#a)">
<g transform="translate(1472.3 850.98) scale(.1 -.1)">
<use xlink:href="#d"/>
<use x="63.623047" xlink:href="#f"/>
<use x="95.410156" xlink:href="#m"/>
<use x="159.033203" xlink:href="#an"/>
</g>
</g>
<g clip-path="url(#a)">
<g transform="translate(1647.1 850.98) scale(.1 -.1)">
<use xlink:href="#d"/>
<use x="63.623047" xlink:href="#f"/>
<use x="95.410156" xlink:href="#z"/>
<use x="159.033203" xlink:href="#ah"/>
</g>
</g>
<defs>
<clipPath id="a">
<rect width="1874.7" height="986.67"/>
</clipPath>
</defs>
</svg>
