<?xml version="1.0" encoding="UTF-8"?>
<!DOCTYPE svg  PUBLIC '-//W3C//DTD SVG 1.1//EN'  'http://www.w3.org/Graphics/SVG/1.1/DTD/svg11.dtd'>
<svg width="1520pt" height="800pt" version="1.1" viewBox="0 0 1520 800" xmlns="http://www.w3.org/2000/svg" xmlns:xlink="http://www.w3.org/1999/xlink">
<defs>
<style type="text/css">*{stroke-linecap:butt;stroke-linejoin:round;white-space:pre;}</style>
</defs>
<path d="m0 800h1520v-800h-1520z" fill="#fff"/>
<g fill="none" stroke="#000">
<path d="m317.49 37.138v110.7" clip-path="url(#a)"/>
<path d="m317.49 147.84 323.71 107.72" clip-path="url(#a)"/>
<path d="m317.49 147.84-75.537 515.64" clip-path="url(#a)"/>
<path d="m317.49 147.84-32.367 515.64" clip-path="url(#a)"/>
<path d="m317.49 147.84-161.88 515.64" clip-path="url(#a)"/>
<path d="m317.49 147.84-118.71 515.64" clip-path="url(#a)"/>
<path d="m317.49 147.84 10.804 515.64" clip-path="url(#a)"/>
<path d="m317.49 147.84 53.975 515.64" clip-path="url(#a)"/>
<path d="m641.2 255.56 140.38 308.53" clip-path="url(#a)"/>
<path d="m641.2 255.56 176.36 207.76" clip-path="url(#a)"/>
<path d="m641.2 255.56 222.73 105.05" clip-path="url(#a)"/>
<path d="m641.2 255.56-571.93 407.91" clip-path="url(#a)"/>
<path d="m641.2 255.56 32.458 407.91" clip-path="url(#a)"/>
<path d="m241.95 663.48v99.386" clip-path="url(#a)"/>
<path d="m285.12 663.48v99.386" clip-path="url(#a)"/>
<path d="m781.59 564.09 669.15 198.77" clip-path="url(#a)"/>
<path d="m781.59 564.09-669.15 99.386" clip-path="url(#a)"/>
<path d="m817.56 463.32 590 299.54" clip-path="url(#a)"/>
<path d="m817.56 463.32-359.76 100.77" clip-path="url(#a)"/>
<path d="m817.56 463.32-230.24 100.77" clip-path="url(#a)"/>
<path d="m863.93 360.61-147.1 302.86" clip-path="url(#a)"/>
<path d="m863.93 360.61-103.93 302.86" clip-path="url(#a)"/>
<path d="m863.93 360.61-60.759 302.86" clip-path="url(#a)"/>
<path d="m863.93 360.61-17.588 302.86" clip-path="url(#a)"/>
<path d="m863.93 360.61 303.79 102.71" clip-path="url(#a)"/>
<path d="m863.93 360.61 25.583 302.86" clip-path="url(#a)"/>
<path d="m716.83 663.48v99.386" clip-path="url(#a)"/>
<path d="m760 663.48v99.386" clip-path="url(#a)"/>
<path d="m803.17 663.48v99.386" clip-path="url(#a)"/>
<path d="m846.34 663.48v99.386" clip-path="url(#a)"/>
<path d="m1167.7 463.32 196.67 299.54" clip-path="url(#a)"/>
<path d="m1167.7 463.32-235.04 200.16" clip-path="url(#a)"/>
<path d="m1167.7 463.32-191.87 200.16" clip-path="url(#a)"/>
<path d="m1167.7 463.32-105.53 100.77" clip-path="url(#a)"/>
<path d="m1167.7 463.32-19.187 200.16" clip-path="url(#a)"/>
<path d="m1167.7 463.32 23.984 200.16" clip-path="url(#a)"/>
<path d="m1167.7 463.32 67.154 200.16" clip-path="url(#a)"/>
<path d="m1167.7 463.32 110.33 200.16" clip-path="url(#a)"/>
<path d="m1167.7 463.32 153.5 200.16" clip-path="url(#a)"/>
<path d="m932.68 663.48v99.386" clip-path="url(#a)"/>
<path d="m975.85 663.48v99.386" clip-path="url(#a)"/>
<path d="m1062.2 564.09-43.171 99.386" clip-path="url(#a)"/>
<path d="m1062.2 564.09v99.386" clip-path="url(#a)"/>
<path d="m1062.2 564.09 43.171 99.386" clip-path="url(#a)"/>
<path d="m1148.5 663.48v99.386" clip-path="url(#a)"/>
<path d="m1191.7 663.48v99.386" clip-path="url(#a)"/>
<path d="m1019 663.48v99.386" clip-path="url(#a)"/>
<path d="m1062.2 663.48v99.386" clip-path="url(#a)"/>
<path d="m1105.4 663.48v99.386" clip-path="url(#a)"/>
<path d="m457.8 564.09-43.171 99.386" clip-path="url(#a)"/>
<path d="m457.8 564.09v99.386" clip-path="url(#a)"/>
<path d="m457.8 564.09 43.171 99.386" clip-path="url(#a)"/>
<path d="m587.32 564.09-43.171 99.386" clip-path="url(#a)"/>
<path d="m587.32 564.09v99.386" clip-path="url(#a)"/>
<path d="m587.32 564.09 43.171 99.386" clip-path="url(#a)"/>
<path d="m544.15 663.48v99.386" clip-path="url(#a)"/>
<path d="m587.32 663.48v99.386" clip-path="url(#a)"/>
<path d="m630.49 663.48v99.386" clip-path="url(#a)"/>
<path d="m414.63 663.48v99.386" clip-path="url(#a)"/>
<path d="m457.8 663.48v99.386" clip-path="url(#a)"/>
<path d="m500.98 663.48v99.386" clip-path="url(#a)"/>
<path d="m112.44 663.48v99.386" clip-path="url(#a)"/>
<path d="m69.268 663.48v99.386" clip-path="url(#a)"/>
<path d="m155.61 663.48v99.386" clip-path="url(#a)"/>
<path d="m198.78 663.48v99.386" clip-path="url(#a)"/>
<path d="m328.29 663.48v99.386" clip-path="url(#a)"/>
<path d="m371.46 663.48v99.386" clip-path="url(#a)"/>
<path d="m673.66 663.48v99.386" clip-path="url(#a)"/>
<path d="m889.51 663.48v99.386" clip-path="url(#a)"/>
<path d="m1234.9 663.48v99.386" clip-path="url(#a)"/>
<path d="m1278 663.48v99.386" clip-path="url(#a)"/>
<path d="m1321.2 663.48v99.386" clip-path="url(#a)"/>
</g>
<path d="m311.22 89.48v6.0162q0 2.4 2.4 2.4h7.7425q2.4 0 2.4-2.4v-6.0162q0-2.4-2.4-2.4h-7.7425q-2.4 0-2.4 2.4z" clip-path="url(#a)" fill="#fff" stroke="#fff"/>
<g clip-path="url(#a)">
<defs>
<path id="v" d="m9.8125 72.906h9.8594v-29.891h35.844v29.891h9.8594v-72.906h-9.8594v34.719h-35.844v-34.719h-9.8594z"/>
</defs>
<g transform="translate(315.28 89.48) rotate(90) scale(.08 -.08)">
<use xlink:href="#v"/>
</g>
</g>
<path d="m474.77 206.79 5.1925 1.728q2.2772 0.7578 3.035-1.5194l2.4447-7.3464q0.7578-2.2772-1.5194-3.035l-5.1925-1.728q-2.2772-0.7578-3.035 1.5194l-2.4447 7.3464q-0.7578 2.2772 1.5194 3.035z" clip-path="url(#a)" fill="#fff" stroke="#fff"/>
<g clip-path="url(#a)">
<defs>
<path id="p" d="m34.188 63.188-13.391-36.281h26.812zm-5.5781 9.7188h11.188l27.781-72.906h-10.25l-6.6406 18.703h-32.859l-6.6406-18.703h-10.406z"/>
</defs>
<g transform="translate(476.05 202.93) rotate(18.406) scale(.08 -.08)">
<use xlink:href="#p"/>
</g>
</g>
<path d="m285.58 408.95 0.69918-4.7728q0.34787-2.3747-2.0268-2.7225l-7.6607-1.1222q-2.3747-0.34787-2.7225 2.0268l-0.69918 4.7728q-0.34787 2.3747 2.0268 2.7225l7.6607 1.1222q2.3747 0.34787 2.7225-2.0268z" clip-path="url(#a)" fill="#fff" stroke="#fff"/>
<g clip-path="url(#a)">
<defs>
<path id="u" d="m19.672 64.797v-27.391h12.406q6.8906 0 10.641 3.5625 3.7656 3.5625 3.7656 10.156 0 6.5469-3.7656 10.109-3.75 3.5625-10.641 3.5625zm-9.8594 8.1094h22.266q12.266 0 18.531-5.5469 6.2812-5.5469 6.2812-16.234 0-10.797-6.2812-16.312-6.2656-5.5156-18.531-5.5156h-12.406v-29.297h-9.8594z"/>
</defs>
<g transform="translate(281.55 408.36) rotate(-81.666) scale(.08 -.08)">
<use xlink:href="#u"/>
</g>
</g>
<path d="m307.39 408.78 0.34283-5.4618q0.15035-2.3953-2.2449-2.5456l-7.7273-0.48504q-2.3953-0.15035-2.5456 2.2449l-0.34284 5.4618q-0.15035 2.3953 2.2449 2.5456l7.7273 0.48504q2.3953 0.15035 2.5456-2.2449z" clip-path="url(#a)" fill="#fff" stroke="#fff"/>
<g clip-path="url(#a)">
<g transform="translate(303.34 408.53) rotate(-86.408) scale(.08 -.08)">
<use xlink:href="#p"/>
</g>
</g>
<path d="m241.66 410.33 1.7537-5.5862q0.71886-2.2898-1.571-3.0087l-7.387-2.3191q-2.2898-0.71886-3.0087 1.571l-1.7537 5.5862q-0.71886 2.2898 1.571 3.0087l7.387 2.3191q2.2898 0.71886 3.0087-1.571z" clip-path="url(#a)" fill="#fff" stroke="#fff"/>
<g clip-path="url(#a)">
<defs>
<path id="q" d="m8.6875 72.906h9.9219v-44.297q0-11.719 4.2344-16.875 4.25-5.1406 13.781-5.1406 9.4688 0 13.719 5.1406 4.25 5.1562 4.25 16.875v44.297h9.9062v-45.516q0-14.25-7.0625-21.531-7.0469-7.2812-20.812-7.2812-13.828 0-20.891 7.2812-7.0469 7.2812-7.0469 21.531z"/>
</defs>
<g transform="translate(237.78 409.11) rotate(-72.571) scale(.08 -.08)">
<use xlink:href="#q"/>
</g>
</g>
<path d="m263.59 409.92 1.3136-5.7058q0.53843-2.3388-1.8004-2.8773l-7.5451-1.737q-2.3388-0.53844-2.8773 1.8004l-1.3136 5.7058q-0.53843 2.3388 1.8004 2.8773l7.5451 1.737q2.3388 0.53844 2.8773-1.8004z" clip-path="url(#a)" fill="#fff" stroke="#fff"/>
<g clip-path="url(#a)">
<g transform="translate(259.63 409) rotate(-77.035) scale(.08 -.08)">
<use xlink:href="#q"/>
</g>
</g>
<path d="m316.56 402.86 0.12265 5.8537q0.050276 2.3995 2.4498 2.3492l7.7408-0.16219q2.3995-0.050276 2.3492-2.4498l-0.12265-5.8537q-0.050276-2.3995-2.4497-2.3492l-7.7408 0.16219q-2.3995 0.050276-2.3492 2.4497z" clip-path="url(#a)" fill="#fff" stroke="#fff"/>
<g clip-path="url(#a)">
<g transform="translate(320.62 402.78) rotate(88.8) scale(.08 -.08)">
<use xlink:href="#q"/>
</g>
</g>
<path d="m337.93 403.4 0.60955 5.8232q0.24986 2.387 2.6368 2.1371l7.7004-0.80605q2.387-0.24986 2.1371-2.6368l-0.60955-5.8232q-0.24986-2.387-2.6368-2.1371l-7.7004 0.80605q-2.387 0.24986-2.1371 2.6368z" clip-path="url(#a)" fill="#fff" stroke="#fff"/>
<g clip-path="url(#a)">
<g transform="translate(341.98 402.97) rotate(84.024) scale(.08 -.08)">
<use xlink:href="#q"/>
</g>
</g>
<path d="m704.44 409.68 2.4917 5.476q0.99398 2.1845 3.1785 1.1905l7.0473-3.2066q2.1845-0.99398 1.1905-3.1785l-2.4917-5.476q-0.99398-2.1845-3.1785-1.1905l-7.0473 3.2066q-2.1845 0.99398-1.1905 3.1785z" clip-path="url(#a)" fill="#fff" stroke="#fff"/>
<g clip-path="url(#a)">
<g transform="translate(708.14 408) rotate(65.534) scale(.08 -.08)">
<use xlink:href="#v"/>
</g>
</g>
<path d="m722.65 361.21 3.8934 4.5866q1.5532 1.8297 3.3828 0.27652l5.9026-5.0105q1.8297-1.5532 0.27652-3.3828l-3.8934-4.5866q-1.5532-1.8297-3.3828-0.27652l-5.9026 5.0105q-1.8297 1.5532-0.27652 3.3828z" clip-path="url(#a)" fill="#fff" stroke="#fff"/>
<g clip-path="url(#a)">
<g transform="translate(725.75 358.58) rotate(49.673) scale(.08 -.08)">
<use xlink:href="#v"/>
</g>
</g>
<path d="m747.17 312.47 5.4414 2.5664q2.1707 1.0238 3.1945-1.1469l3.3028-7.0027q1.0238-2.1707-1.1469-3.1945l-5.4414-2.5664q-2.1707-1.0238-3.1945 1.1469l-3.3028 7.0027q-1.0238 2.1707 1.1469 3.1945z" clip-path="url(#a)" fill="#fff" stroke="#fff"/>
<g clip-path="url(#a)">
<g transform="translate(748.9 308.8) rotate(25.251) scale(.08 -.08)">
<use xlink:href="#v"/>
</g>
</g>
<path d="m356.49 466.32 4.7668-3.3998q1.9539-1.3936 0.56035-3.3475l-4.4958-6.3035q-1.3936-1.9539-3.3475-0.56035l-4.7668 3.3998q-1.9539 1.3936-0.56035 3.3475l4.4958 6.3035q1.3936 1.9539 3.3475 0.56035z" clip-path="url(#a)" fill="#fff" stroke="#fff"/>
<g clip-path="url(#a)">
<g transform="translate(354.13 463.02) rotate(-35.497) scale(.08 -.08)">
<use xlink:href="#q"/>
</g>
</g>
<path d="m650.95 457.1 0.46442 5.8366q0.19037 2.3924 2.5828 2.2021l7.7181-0.61414q2.3924-0.19037 2.2021-2.5828l-0.46442-5.8366q-0.19037-2.3924-2.5828-2.2021l-7.7181 0.61413q-2.3924 0.19037-2.2021 2.5828z" clip-path="url(#a)" fill="#fff" stroke="#fff"/>
<g clip-path="url(#a)">
<g transform="translate(655 456.77) rotate(85.451) scale(.08 -.08)">
<use xlink:href="#q"/>
</g>
</g>
<path d="m235.68 695.53v35.285q0 2.4 2.4 2.4h7.7425q2.4 0 2.4-2.4v-35.285q0-2.4-2.4-2.4h-7.7425q-2.4 0-2.4 2.4z" clip-path="url(#a)" fill="#fff" stroke="#fff"/>
<g clip-path="url(#a)">
<defs>
<path id="j" d="m-0.29688 72.906h61.672v-8.3125h-25.875v-64.594h-9.9062v64.594h-25.891z"/>
<path id="d" d="m56.203 29.594v-4.3906h-41.312q0.59375-9.2812 5.5938-14.141t13.938-4.8594q5.1719 0 10.031 1.2656t9.6562 3.8125v-8.5q-4.8438-2.0469-9.9219-3.125t-10.297-1.0781q-13.094 0-20.734 7.6094-7.6406 7.625-7.6406 20.625 0 13.422 7.25 21.297 7.25 7.8906 19.562 7.8906 11.031 0 17.453-7.1094 6.4219-7.0938 6.4219-19.297zm-8.9844 2.6406q-0.09375 7.3594-4.125 11.75-4.0312 4.4062-10.672 4.4062-7.5156 0-12.031-4.25t-5.2031-11.969z"/>
<path id="h" d="m41.109 46.297q-1.5156 0.875-3.2969 1.2812-1.7812 0.42188-3.9219 0.42188-7.625 0-11.703-4.9531t-4.0781-14.234v-28.812h-9.0312v54.688h9.0312v-8.5q2.8438 4.9844 7.375 7.3906 4.5469 2.4219 11.047 2.4219 0.92188 0 2.0469-0.125 1.125-0.10938 2.4844-0.35938z"/>
<path id="l" d="m52 44.188q3.375 6.0625 8.0625 8.9375t11.031 2.875q8.5469 0 13.188-5.9844 4.6406-5.9688 4.6406-17v-33.016h-9.0312v32.719q0 7.8594-2.7969 11.656-2.7812 3.8125-8.4844 3.8125-6.9844 0-11.047-4.6406-4.0469-4.625-4.0469-12.641v-30.906h-9.0312v32.719q0 7.9062-2.7812 11.688t-8.5938 3.7812q-6.8906 0-10.953-4.6562-4.0469-4.6562-4.0469-12.625v-30.906h-9.0312v54.688h9.0312v-8.5q3.0781 5.0312 7.375 7.4219t10.203 2.3906q5.9688 0 10.141-3.0312 4.1719-3.0156 6.1719-8.7812z"/>
<path id="g" d="m9.4219 54.688h8.9844v-54.688h-8.9844zm0 21.297h8.9844v-11.391h-8.9844z"/>
<path id="e" d="m54.891 33.016v-33.016h-8.9844v32.719q0 7.7656-3.0312 11.609-3.0312 3.8594-9.0781 3.8594-7.2812 0-11.484-4.6406-4.2031-4.625-4.2031-12.641v-30.906h-9.0312v54.688h9.0312v-8.5q3.2344 4.9375 7.5938 7.375 4.375 2.4375 10.094 2.4375 9.4219 0 14.25-5.8281 4.8438-5.8281 4.8438-17.156z"/>
<path id="k" d="m34.281 27.484q-10.891 0-15.094-2.4844t-4.2031-8.5q0-4.7812 3.1562-7.5938 3.1562-2.7969 8.5625-2.7969 7.4844 0 12 5.2969t4.5156 14.078v2zm17.922 3.7188v-31.203h-8.9844v8.2969q-3.0781-4.9688-7.6719-7.3438t-11.234-2.375q-8.3906 0-13.359 4.7188-4.9531 4.7188-4.9531 12.625 0 9.2188 6.1719 13.906 6.1875 4.6875 18.438 4.6875h12.609v0.89062q0 6.2031-4.0781 9.5938t-11.453 3.3906q-4.6875 0-9.1406-1.125-4.4375-1.125-8.5312-3.375v8.3125q4.9219 1.9062 9.5625 2.8438 4.6406 0.95312 9.0312 0.95312 11.875 0 17.734-6.1562 5.8594-6.1406 5.8594-18.641z"/>
<path id="i" d="m9.4219 75.984h8.9844v-75.984h-8.9844z"/>
</defs>
<g transform="translate(239.74 695.53) rotate(90) scale(.08 -.08)">
<use xlink:href="#j"/>
<use x="60.818359" xlink:href="#d"/>
<use x="122.341797" xlink:href="#h"/>
<use x="163.439453" xlink:href="#l"/>
<use x="260.851562" xlink:href="#g"/>
<use x="288.634766" xlink:href="#e"/>
<use x="352.013672" xlink:href="#k"/>
<use x="413.292969" xlink:href="#i"/>
</g>
</g>
<path d="m278.85 695.53v35.285q0 2.4 2.4 2.4h7.7425q2.4 0 2.4-2.4v-35.285q0-2.4-2.4-2.4h-7.7425q-2.4 0-2.4 2.4z" clip-path="url(#a)" fill="#fff" stroke="#fff"/>
<g clip-path="url(#a)">
<g transform="translate(282.91 695.53) rotate(90) scale(.08 -.08)">
<use xlink:href="#j"/>
<use x="60.818359" xlink:href="#d"/>
<use x="122.341797" xlink:href="#h"/>
<use x="163.439453" xlink:href="#l"/>
<use x="260.851562" xlink:href="#g"/>
<use x="288.634766" xlink:href="#e"/>
<use x="352.013672" xlink:href="#k"/>
<use x="413.292969" xlink:href="#i"/>
</g>
</g>
<path d="m1111.9 668.76 4.8685 1.4462q2.3006 0.68342 2.9841-1.6172l2.2047-7.422q0.68342-2.3006-1.6172-2.9841l-4.8685-1.4462q-2.3006-0.68342-2.9841 1.6172l-2.2047 7.422q-0.68342 2.3006 1.6172 2.9841z" clip-path="url(#a)" fill="#fff" stroke="#fff"/>
<g clip-path="url(#a)">
<defs>
<path id="ah" d="m53.516 70.516v-9.625q-5.6094 2.6875-10.594 4-4.9844 1.3281-9.625 1.3281-8.0469 0-12.422-3.125t-4.375-8.8906q0-4.8438 2.9062-7.3125 2.9062-2.4531 11.016-3.9688l5.9531-1.2188q11.031-2.1094 16.281-7.4062t5.25-14.172q0-10.609-7.1094-16.078-7.0938-5.4688-20.812-5.4688-5.1719 0-11.016 1.1719-5.8281 1.1719-12.078 3.4688v10.156q6-3.3594 11.766-5.0781 5.7656-1.7031 11.328-1.7031 8.4375 0 13.031 3.3125 4.5938 3.3281 4.5938 9.4844 0 5.3594-3.2969 8.3906t-10.812 4.5469l-6.0156 1.1719q-11.031 2.1875-15.969 6.875-4.9219 4.6875-4.9219 13.047 0 9.6719 6.8125 15.234t18.766 5.5625q5.1406 0 10.453-0.9375 5.3281-0.92188 10.891-2.7656z"/>
</defs>
<g transform="translate(1113.1 664.87) rotate(16.544) scale(.08 -.08)">
<use xlink:href="#ah"/>
</g>
</g>
<path d="m445.23 620.39 5.4131-0.804q2.374-0.3526 2.0214-2.7266l-1.1375-7.6585q-0.3526-2.374-2.7266-2.0214l-5.4131 0.804q-2.374 0.3526-2.0214 2.7266l1.1375 7.6585q0.3526 2.374 2.7266 2.0214z" clip-path="url(#a)" fill="#fff" stroke="#fff"/>
<g clip-path="url(#a)">
<g transform="translate(444.63 616.37) rotate(-8.4482) scale(.08 -.08)">
<use xlink:href="#p"/>
</g>
</g>
<path d="m1107.5 617.53 4.5285 2.2991q2.14 1.0865 3.2265-1.0535l3.505-6.9037q1.0865-2.14-1.0535-3.2265l-4.5285-2.2991q-2.14-1.0865-3.2265 1.0535l-3.505 6.9037q-1.0865 2.14 1.0535 3.2265z" clip-path="url(#a)" fill="#fff" stroke="#fff"/>
<g clip-path="url(#a)">
<g transform="translate(1109.3 613.91) rotate(26.917) scale(.08 -.08)">
<use xlink:href="#ah"/>
</g>
</g>
<path d="m636.74 520.48 5.2697-1.4761q2.3111-0.64733 1.6637-2.9584l-2.0883-7.4555q-0.64733-2.3111-2.9584-1.6637l-5.2697 1.4761q-2.3111 0.64733-1.6637 2.9584l2.0883 7.4555q0.64733 2.3111 2.9584 1.6637z" clip-path="url(#a)" fill="#fff" stroke="#fff"/>
<g clip-path="url(#a)">
<g transform="translate(635.64 516.57) rotate(-15.648) scale(.08 -.08)">
<use xlink:href="#p"/>
</g>
</g>
<path d="m702.45 520.55 5.0134-2.1942q2.1986-0.96226 1.2364-3.1609l-3.1043-7.0929q-0.96226-2.1986-3.1609-1.2364l-5.0134 2.1942q-2.1986 0.96226-1.2364 3.1609l3.1043 7.0929q0.96226 2.1986 3.1609 1.2364z" clip-path="url(#a)" fill="#fff" stroke="#fff"/>
<g clip-path="url(#a)">
<g transform="translate(700.82 516.82) rotate(-23.637) scale(.08 -.08)">
<use xlink:href="#p"/>
</g>
</g>
<path d="m794.83 517.24 2.3909-4.9226q1.0485-2.1588-1.1103-3.2074l-6.9645-3.3826q-2.1588-1.0485-3.2074 1.1103l-2.3909 4.9226q-1.0485 2.1588 1.1103 3.2074l6.9645 3.3826q2.1588 1.0485 3.2074-1.1103z" clip-path="url(#a)" fill="#fff" stroke="#fff"/>
<g clip-path="url(#a)">
<g transform="translate(791.17 515.47) rotate(-64.094) scale(.08 -.08)">
<use xlink:href="#p"/>
</g>
</g>
<path d="m817.15 516.25 1.4935-4.3521q0.77898-2.2701-1.4911-3.049l-7.3233-2.513q-2.2701-0.77898-3.049 1.4911l-1.4935 4.3521q-0.77898 2.2701 1.4911 3.049l7.3233 2.513q2.2701 0.77898 3.049-1.4911z" clip-path="url(#a)" fill="#fff" stroke="#fff"/>
<g clip-path="url(#a)">
<defs>
<path id="ap" d="m9.8125 72.906h41.891v-8.3125h-32.031v-21.484h28.906v-8.2969h-28.906v-34.812h-9.8594z"/>
</defs>
<g transform="translate(813.31 514.94) rotate(-71.06) scale(.08 -.08)">
<use xlink:href="#ap"/>
</g>
</g>
<path d="m839.16 515.96 1.0764-5.3656q0.47207-2.3531-1.881-2.8252l-7.5912-1.5229q-2.3531-0.47207-2.8252 1.881l-1.0764 5.3656q-0.47207 2.3531 1.881 2.8252l7.5912 1.5229q2.3531 0.47207 2.8252-1.881z" clip-path="url(#a)" fill="#fff" stroke="#fff"/>
<g clip-path="url(#a)">
<g transform="translate(835.18 515.16) rotate(-78.656) scale(.08 -.08)">
<use xlink:href="#p"/>
</g>
</g>
<path d="m861.25 514.94 0.29444-5.0702q0.13914-2.396-2.2568-2.5351l-7.7295-0.44887q-2.396-0.13914-2.5351 2.2568l-0.29444 5.0702q-0.13914 2.396 2.2568 2.5351l7.7295 0.44887q2.396 0.13914 2.5351-2.2568z" clip-path="url(#a)" fill="#fff" stroke="#fff"/>
<g clip-path="url(#a)">
<g transform="translate(857.19 514.71) rotate(-86.676) scale(.08 -.08)">
<use xlink:href="#ah"/>
</g>
</g>
<path d="m1011.2 417.03 5.1842 1.7527q2.2736 0.76867 3.0422-1.5049l2.4798-7.3346q0.76867-2.2736-1.5049-3.0422l-5.1842-1.7527q-2.2736-0.76867-3.0422 1.5049l-2.4798 7.3346q-0.76867 2.2736 1.5049 3.0422z" clip-path="url(#a)" fill="#fff" stroke="#fff"/>
<g clip-path="url(#a)">
<g transform="translate(1012.5 413.18) rotate(18.68) scale(.08 -.08)">
<use xlink:href="#p"/>
</g>
</g>
<path d="m870.23 509.65 0.49281 5.8342q0.20201 2.3915 2.5935 2.1895l7.715-0.65168q2.3915-0.20201 2.1895-2.5935l-0.49281-5.8342q-0.20201-2.3915-2.5935-2.1895l-7.715 0.65168q-2.3915 0.20201-2.1895 2.5935z" clip-path="url(#a)" fill="#fff" stroke="#fff"/>
<g clip-path="url(#a)">
<g transform="translate(874.27 509.31) rotate(85.172) scale(.08 -.08)">
<use xlink:href="#q"/>
</g>
</g>
<path d="m710.56 695.53v35.285q0 2.4 2.4 2.4h7.7425q2.4 0 2.4-2.4v-35.285q0-2.4-2.4-2.4h-7.7425q-2.4 0-2.4 2.4z" clip-path="url(#a)" fill="#fff" stroke="#fff"/>
<g clip-path="url(#a)">
<g transform="translate(714.62 695.53) rotate(90) scale(.08 -.08)">
<use xlink:href="#j"/>
<use x="60.818359" xlink:href="#d"/>
<use x="122.341797" xlink:href="#h"/>
<use x="163.439453" xlink:href="#l"/>
<use x="260.851562" xlink:href="#g"/>
<use x="288.634766" xlink:href="#e"/>
<use x="352.013672" xlink:href="#k"/>
<use x="413.292969" xlink:href="#i"/>
</g>
</g>
<path d="m753.73 695.53v35.285q0 2.4 2.4 2.4h7.7425q2.4 0 2.4-2.4v-35.285q0-2.4-2.4-2.4h-7.7425q-2.4 0-2.4 2.4z" clip-path="url(#a)" fill="#fff" stroke="#fff"/>
<g clip-path="url(#a)">
<g transform="translate(757.79 695.53) rotate(90) scale(.08 -.08)">
<use xlink:href="#j"/>
<use x="60.818359" xlink:href="#d"/>
<use x="122.341797" xlink:href="#h"/>
<use x="163.439453" xlink:href="#l"/>
<use x="260.851562" xlink:href="#g"/>
<use x="288.634766" xlink:href="#e"/>
<use x="352.013672" xlink:href="#k"/>
<use x="413.292969" xlink:href="#i"/>
</g>
</g>
<path d="m796.9 695.53v35.285q0 2.4 2.4 2.4h7.7425q2.4 0 2.4-2.4v-35.285q0-2.4-2.4-2.4h-7.7425q-2.4 0-2.4 2.4z" clip-path="url(#a)" fill="#fff" stroke="#fff"/>
<g clip-path="url(#a)">
<g transform="translate(800.96 695.53) rotate(90) scale(.08 -.08)">
<use xlink:href="#j"/>
<use x="60.818359" xlink:href="#d"/>
<use x="122.341797" xlink:href="#h"/>
<use x="163.439453" xlink:href="#l"/>
<use x="260.851562" xlink:href="#g"/>
<use x="288.634766" xlink:href="#e"/>
<use x="352.013672" xlink:href="#k"/>
<use x="413.292969" xlink:href="#i"/>
</g>
</g>
<path d="m840.07 695.53v35.285q0 2.4 2.4 2.4h7.7425q2.4 0 2.4-2.4v-35.285q0-2.4-2.4-2.4h-7.7425q-2.4 0-2.4 2.4z" clip-path="url(#a)" fill="#fff" stroke="#fff"/>
<g clip-path="url(#a)">
<g transform="translate(844.13 695.53) rotate(90) scale(.08 -.08)">
<use xlink:href="#j"/>
<use x="60.818359" xlink:href="#d"/>
<use x="122.341797" xlink:href="#h"/>
<use x="163.439453" xlink:href="#l"/>
<use x="260.851562" xlink:href="#g"/>
<use x="288.634766" xlink:href="#e"/>
<use x="352.013672" xlink:href="#k"/>
<use x="413.292969" xlink:href="#i"/>
</g>
</g>
<path d="m1259.3 614.25 3.0035 4.5746q1.3172 2.0062 3.3234 0.68902l6.4722-4.2494q2.0062-1.3172 0.68902-3.3234l-3.0035-4.5746q-1.3172-2.0062-3.3234-0.68902l-6.4722 4.2494q-2.0062 1.3172-0.68902 3.3234z" clip-path="url(#a)" fill="#fff" stroke="#fff"/>
<g clip-path="url(#a)">
<g transform="translate(1262.7 612.02) rotate(56.713) scale(.08 -.08)">
<use xlink:href="#p"/>
</g>
</g>
<path d="m1052.2 569.95 4.1665-3.5481q1.8272-1.556 0.2712-3.3833l-5.0198-5.8947q-1.556-1.8272-3.3833-0.2712l-4.1665 3.5481q-1.8272 1.556-0.2712 3.3833l5.0198 5.8947q1.556 1.8272 3.3833 0.2712z" clip-path="url(#a)" fill="#fff" stroke="#fff"/>
<g clip-path="url(#a)">
<g transform="translate(1049.6 566.85) rotate(-40.417) scale(.08 -.08)">
<use xlink:href="#p"/>
</g>
</g>
<path d="m1074.2 569.96 4.2628-4.4468q1.6608-1.7325-0.071718-3.3934l-5.5892-5.3579q-1.7325-1.6608-3.3934 0.071719l-4.2628 4.4468q-1.6608 1.7325 0.071718 3.3934l5.5892 5.3579q1.7325 1.6608 3.3934-0.071718z" clip-path="url(#a)" fill="#fff" stroke="#fff"/>
<g clip-path="url(#a)">
<defs>
<path id="ar" d="m19.672 64.797v-56.688h11.922q15.094 0 22.094 6.8281 7 6.8438 7 21.594 0 14.641-7 21.453t-22.094 6.8125zm-9.8594 8.1094h20.266q21.188 0 31.094-8.8125 9.9219-8.8125 9.9219-27.562 0-18.859-9.9688-27.703-9.9531-8.8281-31.047-8.8281h-20.266z"/>
</defs>
<g transform="translate(1071.3 567.15) rotate(-46.211) scale(.08 -.08)">
<use xlink:href="#ar"/>
</g>
</g>
<path d="m1117.3 520.13 3.9579-3.7794q1.7357-1.6575 0.078285-3.3932l-5.347-5.5996q-1.6575-1.7357-3.3932-0.078285l-3.9579 3.7794q-1.7357 1.6575-0.078285 3.3932l5.347 5.5996q1.6575 1.7357 3.3932 0.078285z" clip-path="url(#a)" fill="#fff" stroke="#fff"/>
<g clip-path="url(#a)">
<g transform="translate(1114.5 517.19) rotate(-43.678) scale(.08 -.08)">
<use xlink:href="#p"/>
</g>
</g>
<path d="m1164.2 566.29 0.43907-4.5803q0.22902-2.389-2.16-2.6181l-7.7072-0.73881q-2.389-0.22902-2.6181 2.16l-0.43907 4.5803q-0.22902 2.389 2.16 2.6181l7.7072 0.73881q2.389 0.22902 2.6181-2.16z" clip-path="url(#a)" fill="#fff" stroke="#fff"/>
<g clip-path="url(#a)">
<g transform="translate(1160.1 565.9) rotate(-84.524) scale(.08 -.08)">
<use xlink:href="#ap"/>
</g>
</g>
<path d="m1173.2 561.75 0.5739 4.7895q0.28554 2.383 2.6685 2.0974l7.6875-0.92116q2.383-0.28554 2.0974-2.6685l-0.5739-4.7895q-0.28554-2.383-2.6685-2.0974l-7.6875 0.92116q-2.383 0.28554-2.0974 2.6685z" clip-path="url(#a)" fill="#fff" stroke="#fff"/>
<g clip-path="url(#a)">
<g transform="translate(1177.2 561.27) rotate(83.167) scale(.08 -.08)">
<use xlink:href="#u"/>
</g>
</g>
<path d="m1194.4 562.62 1.8624 5.5509q0.76341 2.2753 3.0388 1.5119l7.3404-2.4628q2.2753-0.76341 1.5119-3.0388l-1.8624-5.5509q-0.76341-2.2753-3.0388-1.5119l-7.3404 2.4628q-2.2753 0.76341-1.5119 3.0388z" clip-path="url(#a)" fill="#fff" stroke="#fff"/>
<g clip-path="url(#a)">
<g transform="translate(1198.3 561.32) rotate(71.453) scale(.08 -.08)">
<use xlink:href="#q"/>
</g>
</g>
<path d="m1216 563.86 2.8263 5.1276q1.1585 2.1019 3.2604 0.94332l6.7807-3.7375q2.1019-1.1585 0.94332-3.2604l-2.8263-5.1276q-1.1585-2.1019-3.2604-0.94332l-6.7807 3.7375q-2.1019 1.1585-0.94332 3.2604z" clip-path="url(#a)" fill="#fff" stroke="#fff"/>
<g clip-path="url(#a)">
<g transform="translate(1219.5 561.9) rotate(61.137) scale(.08 -.08)">
<use xlink:href="#q"/>
</g>
</g>
<path d="m1237.7 564.89 3.563 4.6461q1.4605 1.9045 3.365 0.44396l6.1439-4.7116q1.9045-1.4605 0.44396-3.365l-3.563-4.6461q-1.4605-1.9045-3.365-0.44396l-6.1439 4.7116q-1.9045 1.4605-0.44396 3.365z" clip-path="url(#a)" fill="#fff" stroke="#fff"/>
<g clip-path="url(#a)">
<g transform="translate(1240.9 562.42) rotate(52.516) scale(.08 -.08)">
<use xlink:href="#q"/>
</g>
</g>
<path d="m926.41 695.53v35.285q0 2.4 2.4 2.4h7.7425q2.4 0 2.4-2.4v-35.285q0-2.4-2.4-2.4h-7.7425q-2.4 0-2.4 2.4z" clip-path="url(#a)" fill="#fff" stroke="#fff"/>
<g clip-path="url(#a)">
<g transform="translate(930.48 695.53) rotate(90) scale(.08 -.08)">
<use xlink:href="#j"/>
<use x="60.818359" xlink:href="#d"/>
<use x="122.341797" xlink:href="#h"/>
<use x="163.439453" xlink:href="#l"/>
<use x="260.851562" xlink:href="#g"/>
<use x="288.634766" xlink:href="#e"/>
<use x="352.013672" xlink:href="#k"/>
<use x="413.292969" xlink:href="#i"/>
</g>
</g>
<path d="m969.58 695.53v35.285q0 2.4 2.4 2.4h7.7425q2.4 0 2.4-2.4v-35.285q0-2.4-2.4-2.4h-7.7425q-2.4 0-2.4 2.4z" clip-path="url(#a)" fill="#fff" stroke="#fff"/>
<g clip-path="url(#a)">
<g transform="translate(973.65 695.53) rotate(90) scale(.08 -.08)">
<use xlink:href="#j"/>
<use x="60.818359" xlink:href="#d"/>
<use x="122.341797" xlink:href="#h"/>
<use x="163.439453" xlink:href="#l"/>
<use x="260.851562" xlink:href="#g"/>
<use x="288.634766" xlink:href="#e"/>
<use x="352.013672" xlink:href="#k"/>
<use x="413.292969" xlink:href="#i"/>
</g>
</g>
<path d="m1045.3 618.83 2.2147-5.0985q0.95618-2.2013-1.2451-3.1575l-7.1015-3.0847q-2.2013-0.95618-3.1575 1.2451l-2.2147 5.0985q-0.95618 2.2013 1.2451 3.1575l7.1015 3.0847q2.2013 0.95618 3.1575-1.2451z" clip-path="url(#a)" fill="#fff" stroke="#fff"/>
<g clip-path="url(#a)">
<defs>
<path id="ai" d="m44.391 34.188q3.1719-1.0781 6.1719-4.5938t6.0312-9.6719l10.016-19.922h-10.609l-9.3125 18.703q-3.625 7.3281-7.0156 9.7188t-9.25 2.3906h-10.75v-30.812h-9.8594v72.906h22.266q12.5 0 18.656-5.2344 6.1562-5.2188 6.1562-15.766 0-6.8906-3.2031-11.438-3.2031-4.5312-9.2969-6.2812zm-24.719 30.609v-25.875h12.406q7.125 0 10.766 3.2969t3.6406 9.6875-3.6406 9.6406-10.766 3.25z"/>
</defs>
<g transform="translate(1041.5 617.21) rotate(-66.521) scale(.08 -.08)">
<use xlink:href="#ai"/>
</g>
</g>
<path d="m1055.9 611.25v5.055q0 2.4 2.4 2.4h7.7425q2.4 0 2.4-2.4v-5.055q0-2.4-2.4-2.4h-7.7425q-2.4 0-2.4 2.4z" clip-path="url(#a)" fill="#fff" stroke="#fff"/>
<g clip-path="url(#a)">
<defs>
<path id="aq" d="m9.8125 72.906h46.094v-8.3125h-36.234v-21.578h34.719v-8.2969h-34.719v-26.422h37.109v-8.2969h-46.969z"/>
</defs>
<g transform="translate(1060 611.25) rotate(90) scale(.08 -.08)">
<use xlink:href="#aq"/>
</g>
</g>
<path d="m1076.9 613.72 2.2256 5.1238q0.95618 2.2013 3.1575 1.2451l7.1015-3.0847q2.2013-0.95618 1.2451-3.1575l-2.2256-5.1238q-0.95618-2.2013-3.1575-1.2451l-7.1015 3.0847q-2.2013 0.95618-1.2451 3.1575z" clip-path="url(#a)" fill="#fff" stroke="#fff"/>
<g clip-path="url(#a)">
<defs>
<path id="t" d="m64.406 67.281v-10.391q-4.9844 4.6406-10.625 6.9219-5.6406 2.2969-11.984 2.2969-12.5 0-19.141-7.6406t-6.6406-22.094q0-14.406 6.6406-22.047t19.141-7.6406q6.3438 0 11.984 2.2969t10.625 6.9375v-10.312q-5.1719-3.5156-10.969-5.2812-5.7812-1.75-12.219-1.75-16.562 0-26.094 10.125-9.5156 10.141-9.5156 27.672 0 17.578 9.5156 27.703 9.5312 10.141 26.094 10.141 6.5312 0 12.312-1.7344 5.7969-1.7344 10.875-5.2031z"/>
</defs>
<g transform="translate(1080.6 612.1) rotate(66.521) scale(.08 -.08)">
<use xlink:href="#t"/>
</g>
</g>
<path d="m1142.3 695.53v35.285q0 2.4 2.4 2.4h7.7425q2.4 0 2.4-2.4v-35.285q0-2.4-2.4-2.4h-7.7425q-2.4 0-2.4 2.4z" clip-path="url(#a)" fill="#fff" stroke="#fff"/>
<g clip-path="url(#a)">
<g transform="translate(1146.3 695.53) rotate(90) scale(.08 -.08)">
<use xlink:href="#j"/>
<use x="60.818359" xlink:href="#d"/>
<use x="122.341797" xlink:href="#h"/>
<use x="163.439453" xlink:href="#l"/>
<use x="260.851562" xlink:href="#g"/>
<use x="288.634766" xlink:href="#e"/>
<use x="352.013672" xlink:href="#k"/>
<use x="413.292969" xlink:href="#i"/>
</g>
</g>
<path d="m1185.4 695.53v35.285q0 2.4 2.4 2.4h7.7425q2.4 0 2.4-2.4v-35.285q0-2.4-2.4-2.4h-7.7425q-2.4 0-2.4 2.4z" clip-path="url(#a)" fill="#fff" stroke="#fff"/>
<g clip-path="url(#a)">
<g transform="translate(1189.5 695.53) rotate(90) scale(.08 -.08)">
<use xlink:href="#j"/>
<use x="60.818359" xlink:href="#d"/>
<use x="122.341797" xlink:href="#h"/>
<use x="163.439453" xlink:href="#l"/>
<use x="260.851562" xlink:href="#g"/>
<use x="288.634766" xlink:href="#e"/>
<use x="352.013672" xlink:href="#k"/>
<use x="413.292969" xlink:href="#i"/>
</g>
</g>
<path d="m1012.8 695.53v35.285q0 2.4 2.4 2.4h7.7425q2.4 0 2.4-2.4v-35.285q0-2.4-2.4-2.4h-7.7425q-2.4 0-2.4 2.4z" clip-path="url(#a)" fill="#fff" stroke="#fff"/>
<g clip-path="url(#a)">
<g transform="translate(1016.8 695.53) rotate(90) scale(.08 -.08)">
<use xlink:href="#j"/>
<use x="60.818359" xlink:href="#d"/>
<use x="122.341797" xlink:href="#h"/>
<use x="163.439453" xlink:href="#l"/>
<use x="260.851562" xlink:href="#g"/>
<use x="288.634766" xlink:href="#e"/>
<use x="352.013672" xlink:href="#k"/>
<use x="413.292969" xlink:href="#i"/>
</g>
</g>
<path d="m1055.9 695.53v35.285q0 2.4 2.4 2.4h7.7425q2.4 0 2.4-2.4v-35.285q0-2.4-2.4-2.4h-7.7425q-2.4 0-2.4 2.4z" clip-path="url(#a)" fill="#fff" stroke="#fff"/>
<g clip-path="url(#a)">
<g transform="translate(1060 695.53) rotate(90) scale(.08 -.08)">
<use xlink:href="#j"/>
<use x="60.818359" xlink:href="#d"/>
<use x="122.341797" xlink:href="#h"/>
<use x="163.439453" xlink:href="#l"/>
<use x="260.851562" xlink:href="#g"/>
<use x="288.634766" xlink:href="#e"/>
<use x="352.013672" xlink:href="#k"/>
<use x="413.292969" xlink:href="#i"/>
</g>
</g>
<path d="m1099.1 695.53v35.285q0 2.4 2.4 2.4h7.7425q2.4 0 2.4-2.4v-35.285q0-2.4-2.4-2.4h-7.7425q-2.4 0-2.4 2.4z" clip-path="url(#a)" fill="#fff" stroke="#fff"/>
<g clip-path="url(#a)">
<g transform="translate(1103.2 695.53) rotate(90) scale(.08 -.08)">
<use xlink:href="#j"/>
<use x="60.818359" xlink:href="#d"/>
<use x="122.341797" xlink:href="#h"/>
<use x="163.439453" xlink:href="#l"/>
<use x="260.851562" xlink:href="#g"/>
<use x="288.634766" xlink:href="#e"/>
<use x="352.013672" xlink:href="#k"/>
<use x="413.292969" xlink:href="#i"/>
</g>
</g>
<path d="m440.86 618.84 2.2256-5.1238q0.95618-2.2013-1.2451-3.1575l-7.1015-3.0847q-2.2013-0.95618-3.1575 1.2451l-2.2256 5.1238q-0.95618 2.2013 1.2451 3.1575l7.1015 3.0847q2.2013 0.95618 3.1575-1.2451z" clip-path="url(#a)" fill="#fff" stroke="#fff"/>
<g clip-path="url(#a)">
<g transform="translate(437.13 617.22) rotate(-66.521) scale(.08 -.08)">
<use xlink:href="#t"/>
</g>
</g>
<path d="m451.53 610.79v5.985q0 2.4 2.4 2.4h7.7425q2.4 0 2.4-2.4v-5.985q0-2.4-2.4-2.4h-7.7425q-2.4 0-2.4 2.4z" clip-path="url(#a)" fill="#fff" stroke="#fff"/>
<g clip-path="url(#a)">
<defs>
<path id="ao" d="m9.8125 72.906h13.281l32.328-60.984v60.984h9.5625v-72.906h-13.281l-32.312 60.984v-60.984h-9.5781z"/>
</defs>
<g transform="translate(455.6 610.79) rotate(90) scale(.08 -.08)">
<use xlink:href="#ao"/>
</g>
</g>
<path d="m472.53 613.72 2.2256 5.1238q0.95618 2.2013 3.1575 1.2451l7.1015-3.0847q2.2013-0.95618 1.2451-3.1575l-2.2256-5.1238q-0.95618-2.2013-3.1575-1.2451l-7.1015 3.0847q-2.2013 0.95618-1.2451 3.1575z" clip-path="url(#a)" fill="#fff" stroke="#fff"/>
<g clip-path="url(#a)">
<g transform="translate(476.25 612.1) rotate(66.521) scale(.08 -.08)">
<use xlink:href="#t"/>
</g>
</g>
<path d="m570.38 618.83 2.2147-5.0985q0.95618-2.2013-1.2451-3.1575l-7.1015-3.0847q-2.2013-0.95618-3.1575 1.2451l-2.2147 5.0985q-0.95618 2.2013 1.2451 3.1575l7.1015 3.0847q2.2013 0.95618 3.1575-1.2451z" clip-path="url(#a)" fill="#fff" stroke="#fff"/>
<g clip-path="url(#a)">
<g transform="translate(566.65 617.21) rotate(-66.521) scale(.08 -.08)">
<use xlink:href="#ai"/>
</g>
</g>
<path d="m581.05 611.25v5.055q0 2.4 2.4 2.4h7.7425q2.4 0 2.4-2.4v-5.055q0-2.4-2.4-2.4h-7.7425q-2.4 0-2.4 2.4z" clip-path="url(#a)" fill="#fff" stroke="#fff"/>
<g clip-path="url(#a)">
<g transform="translate(585.11 611.25) rotate(90) scale(.08 -.08)">
<use xlink:href="#aq"/>
</g>
</g>
<path d="m602.04 613.72 2.2256 5.1238q0.95618 2.2013 3.1575 1.2451l7.1015-3.0847q2.2013-0.95618 1.2451-3.1575l-2.2256-5.1238q-0.95618-2.2013-3.1575-1.2451l-7.1015 3.0847q-2.2013 0.95618-1.2451 3.1575z" clip-path="url(#a)" fill="#fff" stroke="#fff"/>
<g clip-path="url(#a)">
<g transform="translate(605.76 612.1) rotate(66.521) scale(.08 -.08)">
<use xlink:href="#t"/>
</g>
</g>
<path d="m537.88 695.53v35.285q0 2.4 2.4 2.4h7.7425q2.4 0 2.4-2.4v-35.285q0-2.4-2.4-2.4h-7.7425q-2.4 0-2.4 2.4z" clip-path="url(#a)" fill="#fff" stroke="#fff"/>
<g clip-path="url(#a)">
<g transform="translate(541.94 695.53) rotate(90) scale(.08 -.08)">
<use xlink:href="#j"/>
<use x="60.818359" xlink:href="#d"/>
<use x="122.341797" xlink:href="#h"/>
<use x="163.439453" xlink:href="#l"/>
<use x="260.851562" xlink:href="#g"/>
<use x="288.634766" xlink:href="#e"/>
<use x="352.013672" xlink:href="#k"/>
<use x="413.292969" xlink:href="#i"/>
</g>
</g>
<path d="m581.05 695.53v35.285q0 2.4 2.4 2.4h7.7425q2.4 0 2.4-2.4v-35.285q0-2.4-2.4-2.4h-7.7425q-2.4 0-2.4 2.4z" clip-path="url(#a)" fill="#fff" stroke="#fff"/>
<g clip-path="url(#a)">
<g transform="translate(585.11 695.53) rotate(90) scale(.08 -.08)">
<use xlink:href="#j"/>
<use x="60.818359" xlink:href="#d"/>
<use x="122.341797" xlink:href="#h"/>
<use x="163.439453" xlink:href="#l"/>
<use x="260.851562" xlink:href="#g"/>
<use x="288.634766" xlink:href="#e"/>
<use x="352.013672" xlink:href="#k"/>
<use x="413.292969" xlink:href="#i"/>
</g>
</g>
<path d="m624.22 695.53v35.285q0 2.4 2.4 2.4h7.7425q2.4 0 2.4-2.4v-35.285q0-2.4-2.4-2.4h-7.7425q-2.4 0-2.4 2.4z" clip-path="url(#a)" fill="#fff" stroke="#fff"/>
<g clip-path="url(#a)">
<g transform="translate(628.28 695.53) rotate(90) scale(.08 -.08)">
<use xlink:href="#j"/>
<use x="60.818359" xlink:href="#d"/>
<use x="122.341797" xlink:href="#h"/>
<use x="163.439453" xlink:href="#l"/>
<use x="260.851562" xlink:href="#g"/>
<use x="288.634766" xlink:href="#e"/>
<use x="352.013672" xlink:href="#k"/>
<use x="413.292969" xlink:href="#i"/>
</g>
</g>
<path d="m408.36 695.53v35.285q0 2.4 2.4 2.4h7.7425q2.4 0 2.4-2.4v-35.285q0-2.4-2.4-2.4h-7.7425q-2.4 0-2.4 2.4z" clip-path="url(#a)" fill="#fff" stroke="#fff"/>
<g clip-path="url(#a)">
<g transform="translate(412.43 695.53) rotate(90) scale(.08 -.08)">
<use xlink:href="#j"/>
<use x="60.818359" xlink:href="#d"/>
<use x="122.341797" xlink:href="#h"/>
<use x="163.439453" xlink:href="#l"/>
<use x="260.851562" xlink:href="#g"/>
<use x="288.634766" xlink:href="#e"/>
<use x="352.013672" xlink:href="#k"/>
<use x="413.292969" xlink:href="#i"/>
</g>
</g>
<path d="m451.53 695.53v35.285q0 2.4 2.4 2.4h7.7425q2.4 0 2.4-2.4v-35.285q0-2.4-2.4-2.4h-7.7425q-2.4 0-2.4 2.4z" clip-path="url(#a)" fill="#fff" stroke="#fff"/>
<g clip-path="url(#a)">
<g transform="translate(455.6 695.53) rotate(90) scale(.08 -.08)">
<use xlink:href="#j"/>
<use x="60.818359" xlink:href="#d"/>
<use x="122.341797" xlink:href="#h"/>
<use x="163.439453" xlink:href="#l"/>
<use x="260.851562" xlink:href="#g"/>
<use x="288.634766" xlink:href="#e"/>
<use x="352.013672" xlink:href="#k"/>
<use x="413.292969" xlink:href="#i"/>
</g>
</g>
<path d="m494.7 695.53v35.285q0 2.4 2.4 2.4h7.7425q2.4 0 2.4-2.4v-35.285q0-2.4-2.4-2.4h-7.7425q-2.4 0-2.4 2.4z" clip-path="url(#a)" fill="#fff" stroke="#fff"/>
<g clip-path="url(#a)">
<g transform="translate(498.77 695.53) rotate(90) scale(.08 -.08)">
<use xlink:href="#j"/>
<use x="60.818359" xlink:href="#d"/>
<use x="122.341797" xlink:href="#h"/>
<use x="163.439453" xlink:href="#l"/>
<use x="260.851562" xlink:href="#g"/>
<use x="288.634766" xlink:href="#e"/>
<use x="352.013672" xlink:href="#k"/>
<use x="413.292969" xlink:href="#i"/>
</g>
</g>
<path d="m106.17 695.53v35.285q0 2.4 2.4 2.4h7.7425q2.4 0 2.4-2.4v-35.285q0-2.4-2.4-2.4h-7.7425q-2.4 0-2.4 2.4z" clip-path="url(#a)" fill="#fff" stroke="#fff"/>
<g clip-path="url(#a)">
<g transform="translate(110.23 695.53) rotate(90) scale(.08 -.08)">
<use xlink:href="#j"/>
<use x="60.818359" xlink:href="#d"/>
<use x="122.341797" xlink:href="#h"/>
<use x="163.439453" xlink:href="#l"/>
<use x="260.851562" xlink:href="#g"/>
<use x="288.634766" xlink:href="#e"/>
<use x="352.013672" xlink:href="#k"/>
<use x="413.292969" xlink:href="#i"/>
</g>
</g>
<path d="m62.997 695.53v35.285q0 2.4 2.4 2.4h7.7425q2.4 0 2.4-2.4v-35.285q0-2.4-2.4-2.4h-7.7425q-2.4 0-2.4 2.4z" clip-path="url(#a)" fill="#fff" stroke="#fff"/>
<g clip-path="url(#a)">
<g transform="translate(67.061 695.53) rotate(90) scale(.08 -.08)">
<use xlink:href="#j"/>
<use x="60.818359" xlink:href="#d"/>
<use x="122.341797" xlink:href="#h"/>
<use x="163.439453" xlink:href="#l"/>
<use x="260.851562" xlink:href="#g"/>
<use x="288.634766" xlink:href="#e"/>
<use x="352.013672" xlink:href="#k"/>
<use x="413.292969" xlink:href="#i"/>
</g>
</g>
<path d="m149.34 695.53v35.285q0 2.4 2.4 2.4h7.7425q2.4 0 2.4-2.4v-35.285q0-2.4-2.4-2.4h-7.7425q-2.4 0-2.4 2.4z" clip-path="url(#a)" fill="#fff" stroke="#fff"/>
<g clip-path="url(#a)">
<g transform="translate(153.4 695.53) rotate(90) scale(.08 -.08)">
<use xlink:href="#j"/>
<use x="60.818359" xlink:href="#d"/>
<use x="122.341797" xlink:href="#h"/>
<use x="163.439453" xlink:href="#l"/>
<use x="260.851562" xlink:href="#g"/>
<use x="288.634766" xlink:href="#e"/>
<use x="352.013672" xlink:href="#k"/>
<use x="413.292969" xlink:href="#i"/>
</g>
</g>
<path d="m192.51 695.53v35.285q0 2.4 2.4 2.4h7.7425q2.4 0 2.4-2.4v-35.285q0-2.4-2.4-2.4h-7.7425q-2.4 0-2.4 2.4z" clip-path="url(#a)" fill="#fff" stroke="#fff"/>
<g clip-path="url(#a)">
<g transform="translate(196.57 695.53) rotate(90) scale(.08 -.08)">
<use xlink:href="#j"/>
<use x="60.818359" xlink:href="#d"/>
<use x="122.341797" xlink:href="#h"/>
<use x="163.439453" xlink:href="#l"/>
<use x="260.851562" xlink:href="#g"/>
<use x="288.634766" xlink:href="#e"/>
<use x="352.013672" xlink:href="#k"/>
<use x="413.292969" xlink:href="#i"/>
</g>
</g>
<path d="m322.02 695.53v35.285q0 2.4 2.4 2.4h7.7425q2.4 0 2.4-2.4v-35.285q0-2.4-2.4-2.4h-7.7425q-2.4 0-2.4 2.4z" clip-path="url(#a)" fill="#fff" stroke="#fff"/>
<g clip-path="url(#a)">
<g transform="translate(326.09 695.53) rotate(90) scale(.08 -.08)">
<use xlink:href="#j"/>
<use x="60.818359" xlink:href="#d"/>
<use x="122.341797" xlink:href="#h"/>
<use x="163.439453" xlink:href="#l"/>
<use x="260.851562" xlink:href="#g"/>
<use x="288.634766" xlink:href="#e"/>
<use x="352.013672" xlink:href="#k"/>
<use x="413.292969" xlink:href="#i"/>
</g>
</g>
<path d="m365.19 695.53v35.285q0 2.4 2.4 2.4h7.7425q2.4 0 2.4-2.4v-35.285q0-2.4-2.4-2.4h-7.7425q-2.4 0-2.4 2.4z" clip-path="url(#a)" fill="#fff" stroke="#fff"/>
<g clip-path="url(#a)">
<g transform="translate(369.26 695.53) rotate(90) scale(.08 -.08)">
<use xlink:href="#j"/>
<use x="60.818359" xlink:href="#d"/>
<use x="122.341797" xlink:href="#h"/>
<use x="163.439453" xlink:href="#l"/>
<use x="260.851562" xlink:href="#g"/>
<use x="288.634766" xlink:href="#e"/>
<use x="352.013672" xlink:href="#k"/>
<use x="413.292969" xlink:href="#i"/>
</g>
</g>
<path d="m667.39 695.53v35.285q0 2.4 2.4 2.4h7.7425q2.4 0 2.4-2.4v-35.285q0-2.4-2.4-2.4h-7.7425q-2.4 0-2.4 2.4z" clip-path="url(#a)" fill="#fff" stroke="#fff"/>
<g clip-path="url(#a)">
<g transform="translate(671.45 695.53) rotate(90) scale(.08 -.08)">
<use xlink:href="#j"/>
<use x="60.818359" xlink:href="#d"/>
<use x="122.341797" xlink:href="#h"/>
<use x="163.439453" xlink:href="#l"/>
<use x="260.851562" xlink:href="#g"/>
<use x="288.634766" xlink:href="#e"/>
<use x="352.013672" xlink:href="#k"/>
<use x="413.292969" xlink:href="#i"/>
</g>
</g>
<path d="m883.24 695.53v35.285q0 2.4 2.4 2.4h7.7425q2.4 0 2.4-2.4v-35.285q0-2.4-2.4-2.4h-7.7425q-2.4 0-2.4 2.4z" clip-path="url(#a)" fill="#fff" stroke="#fff"/>
<g clip-path="url(#a)">
<g transform="translate(887.3 695.53) rotate(90) scale(.08 -.08)">
<use xlink:href="#j"/>
<use x="60.818359" xlink:href="#d"/>
<use x="122.341797" xlink:href="#h"/>
<use x="163.439453" xlink:href="#l"/>
<use x="260.851562" xlink:href="#g"/>
<use x="288.634766" xlink:href="#e"/>
<use x="352.013672" xlink:href="#k"/>
<use x="413.292969" xlink:href="#i"/>
</g>
</g>
<path d="m1228.6 695.53v35.285q0 2.4 2.4 2.4h7.7425q2.4 0 2.4-2.4v-35.285q0-2.4-2.4-2.4h-7.7425q-2.4 0-2.4 2.4z" clip-path="url(#a)" fill="#fff" stroke="#fff"/>
<g clip-path="url(#a)">
<g transform="translate(1232.7 695.53) rotate(90) scale(.08 -.08)">
<use xlink:href="#j"/>
<use x="60.818359" xlink:href="#d"/>
<use x="122.341797" xlink:href="#h"/>
<use x="163.439453" xlink:href="#l"/>
<use x="260.851562" xlink:href="#g"/>
<use x="288.634766" xlink:href="#e"/>
<use x="352.013672" xlink:href="#k"/>
<use x="413.292969" xlink:href="#i"/>
</g>
</g>
<path d="m1271.8 695.53v35.285q0 2.4 2.4 2.4h7.7425q2.4 0 2.4-2.4v-35.285q0-2.4-2.4-2.4h-7.7425q-2.4 0-2.4 2.4z" clip-path="url(#a)" fill="#fff" stroke="#fff"/>
<g clip-path="url(#a)">
<g transform="translate(1275.8 695.53) rotate(90) scale(.08 -.08)">
<use xlink:href="#j"/>
<use x="60.818359" xlink:href="#d"/>
<use x="122.341797" xlink:href="#h"/>
<use x="163.439453" xlink:href="#l"/>
<use x="260.851562" xlink:href="#g"/>
<use x="288.634766" xlink:href="#e"/>
<use x="352.013672" xlink:href="#k"/>
<use x="413.292969" xlink:href="#i"/>
</g>
</g>
<path d="m1314.9 695.53v35.285q0 2.4 2.4 2.4h7.7425q2.4 0 2.4-2.4v-35.285q0-2.4-2.4-2.4h-7.7425q-2.4 0-2.4 2.4z" clip-path="url(#a)" fill="#fff" stroke="#fff"/>
<g clip-path="url(#a)">
<g transform="translate(1319 695.53) rotate(90) scale(.08 -.08)">
<use xlink:href="#j"/>
<use x="60.818359" xlink:href="#d"/>
<use x="122.341797" xlink:href="#h"/>
<use x="163.439453" xlink:href="#l"/>
<use x="260.851562" xlink:href="#g"/>
<use x="288.634766" xlink:href="#e"/>
<use x="352.013672" xlink:href="#k"/>
<use x="413.292969" xlink:href="#i"/>
</g>
</g>
<defs>
<path id="b" d="m0 8.6603c2.2967 0 4.4997-0.9125 6.1237-2.5365 1.624-1.624 2.5365-3.827 2.5365-6.1237s-0.9125-4.4997-2.5365-6.1237c-1.624-1.624-3.827-2.5365-6.1237-2.5365s-4.4997 0.9125-6.1237 2.5365c-1.624 1.624-2.5365 3.827-2.5365 6.1237s0.9125 4.4997 2.5365 6.1237c1.624 1.624 3.827 2.5365 6.1237 2.5365z"/>
</defs>
<g clip-path="url(#a)">
<use x="69.268005" y="762.861723" fill="#ffffff" stroke="#ffffff" xlink:href="#b"/>
</g>
<g clip-path="url(#a)">
<use x="112.438755" y="762.861723" fill="#ffffff" stroke="#ffffff" xlink:href="#b"/>
</g>
<g clip-path="url(#a)">
<use x="155.609505" y="762.861723" fill="#ffffff" stroke="#ffffff" xlink:href="#b"/>
</g>
<g clip-path="url(#a)">
<use x="198.780254" y="762.861723" fill="#ffffff" stroke="#ffffff" xlink:href="#b"/>
</g>
<g clip-path="url(#a)">
<use x="241.951004" y="762.861723" fill="#ffffff" stroke="#ffffff" xlink:href="#b"/>
</g>
<g clip-path="url(#a)">
<use x="285.121754" y="762.861723" fill="#ffffff" stroke="#ffffff" xlink:href="#b"/>
</g>
<g clip-path="url(#a)">
<use x="328.292503" y="762.861723" fill="#ffffff" stroke="#ffffff" xlink:href="#b"/>
</g>
<g clip-path="url(#a)">
<use x="371.463253" y="762.861723" fill="#ffffff" stroke="#ffffff" xlink:href="#b"/>
</g>
<g clip-path="url(#a)">
<use x="414.634003" y="762.861723" fill="#ffffff" stroke="#ffffff" xlink:href="#b"/>
</g>
<g clip-path="url(#a)">
<use x="457.804752" y="762.861723" fill="#ffffff" stroke="#ffffff" xlink:href="#b"/>
</g>
<g clip-path="url(#a)">
<use x="500.975502" y="762.861723" fill="#ffffff" stroke="#ffffff" xlink:href="#b"/>
</g>
<g clip-path="url(#a)">
<use x="544.146252" y="762.861723" fill="#ffffff" stroke="#ffffff" xlink:href="#b"/>
</g>
<g clip-path="url(#a)">
<use x="587.317001" y="762.861723" fill="#ffffff" stroke="#ffffff" xlink:href="#b"/>
</g>
<g clip-path="url(#a)">
<use x="630.487751" y="762.861723" fill="#ffffff" stroke="#ffffff" xlink:href="#b"/>
</g>
<g clip-path="url(#a)">
<use x="673.658501" y="762.861723" fill="#ffffff" stroke="#ffffff" xlink:href="#b"/>
</g>
<g clip-path="url(#a)">
<use x="716.82925" y="762.861723" fill="#ffffff" stroke="#ffffff" xlink:href="#b"/>
</g>
<g clip-path="url(#a)">
<use x="760" y="762.861723" fill="#ffffff" stroke="#ffffff" xlink:href="#b"/>
</g>
<g clip-path="url(#a)">
<use x="803.17075" y="762.861723" fill="#ffffff" stroke="#ffffff" xlink:href="#b"/>
</g>
<g clip-path="url(#a)">
<use x="846.341499" y="762.861723" fill="#ffffff" stroke="#ffffff" xlink:href="#b"/>
</g>
<g clip-path="url(#a)">
<use x="889.512249" y="762.861723" fill="#ffffff" stroke="#ffffff" xlink:href="#b"/>
</g>
<g clip-path="url(#a)">
<use x="932.682999" y="762.861723" fill="#ffffff" stroke="#ffffff" xlink:href="#b"/>
</g>
<g clip-path="url(#a)">
<use x="975.853748" y="762.861723" fill="#ffffff" stroke="#ffffff" xlink:href="#b"/>
</g>
<g clip-path="url(#a)">
<use x="1019.024498" y="762.861723" fill="#ffffff" stroke="#ffffff" xlink:href="#b"/>
</g>
<g clip-path="url(#a)">
<use x="1062.195248" y="762.861723" fill="#ffffff" stroke="#ffffff" xlink:href="#b"/>
</g>
<g clip-path="url(#a)">
<use x="1105.365997" y="762.861723" fill="#ffffff" stroke="#ffffff" xlink:href="#b"/>
</g>
<g clip-path="url(#a)">
<use x="1148.536747" y="762.861723" fill="#ffffff" stroke="#ffffff" xlink:href="#b"/>
</g>
<g clip-path="url(#a)">
<use x="1191.707497" y="762.861723" fill="#ffffff" stroke="#ffffff" xlink:href="#b"/>
</g>
<g clip-path="url(#a)">
<use x="1234.878246" y="762.861723" fill="#ffffff" stroke="#ffffff" xlink:href="#b"/>
</g>
<g clip-path="url(#a)">
<use x="1278.048996" y="762.861723" fill="#ffffff" stroke="#ffffff" xlink:href="#b"/>
</g>
<g clip-path="url(#a)">
<use x="1321.219746" y="762.861723" fill="#ffffff" stroke="#ffffff" xlink:href="#b"/>
</g>
<g clip-path="url(#a)">
<use x="317.488395" y="37.138277" fill="#ffffff" stroke="#ffffff" xlink:href="#b"/>
</g>
<g clip-path="url(#a)">
<use x="317.488395" y="147.837206" fill="#ffffff" stroke="#ffffff" xlink:href="#b"/>
</g>
<g clip-path="url(#a)">
<use x="641.200493" y="255.560852" fill="#ffffff" stroke="#ffffff" xlink:href="#b"/>
</g>
<g clip-path="url(#a)">
<use x="241.951004" y="663.475298" fill="#ffffff" stroke="#ffffff" xlink:href="#b"/>
</g>
<g clip-path="url(#a)">
<use x="285.121754" y="663.475298" fill="#ffffff" stroke="#ffffff" xlink:href="#b"/>
</g>
<g clip-path="url(#a)">
<use x="781.585375" y="564.088873" fill="#ffffff" stroke="#ffffff" xlink:href="#b"/>
</g>
<g clip-path="url(#a)">
<use x="817.561" y="463.319874" fill="#ffffff" stroke="#ffffff" xlink:href="#b"/>
</g>
<g clip-path="url(#a)">
<use x="863.929583" y="360.610491" fill="#ffffff" stroke="#ffffff" xlink:href="#b"/>
</g>
<g clip-path="url(#a)">
<use x="716.82925" y="663.475298" fill="#ffffff" stroke="#ffffff" xlink:href="#b"/>
</g>
<g clip-path="url(#a)">
<use x="760" y="663.475298" fill="#ffffff" stroke="#ffffff" xlink:href="#b"/>
</g>
<g clip-path="url(#a)">
<use x="803.17075" y="663.475298" fill="#ffffff" stroke="#ffffff" xlink:href="#b"/>
</g>
<g clip-path="url(#a)">
<use x="846.341499" y="663.475298" fill="#ffffff" stroke="#ffffff" xlink:href="#b"/>
</g>
<g clip-path="url(#a)">
<use x="1167.723747" y="463.319874" fill="#ffffff" stroke="#ffffff" xlink:href="#b"/>
</g>
<g clip-path="url(#a)">
<use x="1364.390495" y="762.861723" fill="#ffffff" stroke="#ffffff" xlink:href="#b"/>
</g>
<g clip-path="url(#a)">
<use x="932.682999" y="663.475298" fill="#ffffff" stroke="#ffffff" xlink:href="#b"/>
</g>
<g clip-path="url(#a)">
<use x="975.853748" y="663.475298" fill="#ffffff" stroke="#ffffff" xlink:href="#b"/>
</g>
<g clip-path="url(#a)">
<use x="1062.195248" y="564.088873" fill="#ffffff" stroke="#ffffff" xlink:href="#b"/>
</g>
<g clip-path="url(#a)">
<use x="1148.536747" y="663.475298" fill="#ffffff" stroke="#ffffff" xlink:href="#b"/>
</g>
<g clip-path="url(#a)">
<use x="1191.707497" y="663.475298" fill="#ffffff" stroke="#ffffff" xlink:href="#b"/>
</g>
<g clip-path="url(#a)">
<use x="1019.024498" y="663.475298" fill="#ffffff" stroke="#ffffff" xlink:href="#b"/>
</g>
<g clip-path="url(#a)">
<use x="1062.195248" y="663.475298" fill="#ffffff" stroke="#ffffff" xlink:href="#b"/>
</g>
<g clip-path="url(#a)">
<use x="1105.365997" y="663.475298" fill="#ffffff" stroke="#ffffff" xlink:href="#b"/>
</g>
<g clip-path="url(#a)">
<use x="1407.561245" y="762.861723" fill="#ffffff" stroke="#ffffff" xlink:href="#b"/>
</g>
<g clip-path="url(#a)">
<use x="457.804752" y="564.088873" fill="#ffffff" stroke="#ffffff" xlink:href="#b"/>
</g>
<g clip-path="url(#a)">
<use x="587.317001" y="564.088873" fill="#ffffff" stroke="#ffffff" xlink:href="#b"/>
</g>
<g clip-path="url(#a)">
<use x="544.146252" y="663.475298" fill="#ffffff" stroke="#ffffff" xlink:href="#b"/>
</g>
<g clip-path="url(#a)">
<use x="587.317001" y="663.475298" fill="#ffffff" stroke="#ffffff" xlink:href="#b"/>
</g>
<g clip-path="url(#a)">
<use x="630.487751" y="663.475298" fill="#ffffff" stroke="#ffffff" xlink:href="#b"/>
</g>
<g clip-path="url(#a)">
<use x="414.634003" y="663.475298" fill="#ffffff" stroke="#ffffff" xlink:href="#b"/>
</g>
<g clip-path="url(#a)">
<use x="457.804752" y="663.475298" fill="#ffffff" stroke="#ffffff" xlink:href="#b"/>
</g>
<g clip-path="url(#a)">
<use x="500.975502" y="663.475298" fill="#ffffff" stroke="#ffffff" xlink:href="#b"/>
</g>
<g clip-path="url(#a)">
<use x="1450.731995" y="762.861723" fill="#ffffff" stroke="#ffffff" xlink:href="#b"/>
</g>
<g clip-path="url(#a)">
<use x="112.438755" y="663.475298" fill="#ffffff" stroke="#ffffff" xlink:href="#b"/>
</g>
<g clip-path="url(#a)">
<use x="69.268005" y="663.475298" fill="#ffffff" stroke="#ffffff" xlink:href="#b"/>
</g>
<g clip-path="url(#a)">
<use x="155.609505" y="663.475298" fill="#ffffff" stroke="#ffffff" xlink:href="#b"/>
</g>
<g clip-path="url(#a)">
<use x="198.780254" y="663.475298" fill="#ffffff" stroke="#ffffff" xlink:href="#b"/>
</g>
<g clip-path="url(#a)">
<use x="328.292503" y="663.475298" fill="#ffffff" stroke="#ffffff" xlink:href="#b"/>
</g>
<g clip-path="url(#a)">
<use x="371.463253" y="663.475298" fill="#ffffff" stroke="#ffffff" xlink:href="#b"/>
</g>
<g clip-path="url(#a)">
<use x="673.658501" y="663.475298" fill="#ffffff" stroke="#ffffff" xlink:href="#b"/>
</g>
<g clip-path="url(#a)">
<use x="889.512249" y="663.475298" fill="#ffffff" stroke="#ffffff" xlink:href="#b"/>
</g>
<g clip-path="url(#a)">
<use x="1234.878246" y="663.475298" fill="#ffffff" stroke="#ffffff" xlink:href="#b"/>
</g>
<g clip-path="url(#a)">
<use x="1278.048996" y="663.475298" fill="#ffffff" stroke="#ffffff" xlink:href="#b"/>
</g>
<g clip-path="url(#a)">
<use x="1321.219746" y="663.475298" fill="#ffffff" stroke="#ffffff" xlink:href="#b"/>
</g>
<g clip-path="url(#a)">
<defs>
<path id="am" d="m9.4219 51.703 22.906-20.406v-4l-22.906-20.406v9.3281l14.703 13.078-14.703 13.094zm21.188 0 22.906-20.406v-4l-22.906-20.406v9.3281l14.703 13.078-14.703 13.094z"/>
</defs>
<g transform="translate(66.209 765.62) scale(.1 -.1)">
<use xlink:href="#am"/>
</g>
</g>
<g clip-path="url(#a)">
<defs>
<path id="av" d="m3.3281 72.906h9.9531l15.328-61.625 15.281 61.625h11.094l15.328-61.625 15.281 61.625h10.016l-18.312-72.906h-12.406l-15.375 63.281-15.531-63.281h-12.406z"/>
</defs>
<g transform="translate(103.03 765.62) scale(.1 -.1)">
<use xlink:href="#av"/>
<use x="98.845703" xlink:href="#g"/>
<use x="126.628906" xlink:href="#d"/>
</g>
</g>
<g clip-path="url(#a)">
<defs>
<path id="al" d="m15.094 12.406h9.9062v-12.406h-9.9062zm0 60.5h9.9062v-31.984l-0.96875-17.438h-7.9219l-1.0156 17.438z"/>
</defs>
<g transform="translate(153.6 765.62) scale(.1 -.1)">
<use xlink:href="#al"/>
</g>
</g>
<g clip-path="url(#a)">
<defs>
<path id="au" d="m51.812 51.703v-9.3125l-14.703-13.094 14.703-13.078v-9.3281l-22.906 20.406v4zm-21.203 0v-9.3125l-14.688-13.094 14.688-13.078v-9.3281l-22.891 20.406v4z"/>
</defs>
<g transform="translate(195.72 765.62) scale(.1 -.1)">
<use xlink:href="#au"/>
</g>
</g>
<g clip-path="url(#a)">
<defs>
<path id="bc" d="m37.109 75.984v-7.4844h-8.5938q-4.8281 0-6.7188-1.9531-1.875-1.9531-1.875-7.0312v-4.8281h14.797v-6.9844h-14.797v-47.703h-9.0312v47.703h-8.5938v6.9844h8.5938v3.8125q0 9.125 4.25 13.297 4.25 4.1875 13.469 4.1875z"/>
</defs>
<g transform="translate(233.67 765.62) scale(.1 -.1)">
<use xlink:href="#h"/>
<use x="41.113281" xlink:href="#g"/>
<use x="68.896484" xlink:href="#d"/>
<use x="130.419922" xlink:href="#bc"/>
</g>
</g>
<g clip-path="url(#a)">
<defs>
<path id="z" d="m45.406 46.391v29.594h8.9844v-75.984h-8.9844v8.2031q-2.8281-4.875-7.1562-7.25-4.3125-2.375-10.375-2.375-9.9062 0-16.141 7.9062-6.2188 7.9219-6.2188 20.812t6.2188 20.797q6.2344 7.9062 16.141 7.9062 6.0625 0 10.375-2.375 4.3281-2.3594 7.1562-7.2344zm-30.609-19.094q0-9.9062 4.0781-15.547t11.203-5.6406 11.219 5.6406q4.1094 5.6406 4.1094 15.547t-4.1094 15.547q-4.0938 5.6406-11.219 5.6406t-11.203-5.6406-4.0781-15.547z"/>
</defs>
<g transform="translate(275.13 765.62) scale(.1 -.1)">
<use xlink:href="#ao"/>
<use x="74.804688" xlink:href="#d"/>
<use x="136.328125" xlink:href="#z"/>
</g>
</g>
<g clip-path="url(#a)">
<defs>
<path id="as" d="m11.719 12.406h10.297v-8.4062l-8-15.625h-6.2969l4 15.625z"/>
</defs>
<g transform="translate(326.7 765.62) scale(.1 -.1)">
<use xlink:href="#as"/>
</g>
</g>
<g clip-path="url(#a)">
<g transform="translate(368.4 765.62) scale(.1 -.1)">
<use xlink:href="#am"/>
</g>
</g>
<g clip-path="url(#a)">
<defs>
<path id="ba" d="m30.609 48.391q-7.2188 0-11.422-5.6406t-4.2031-15.453 4.1719-15.453q4.1875-5.6406 11.453-5.6406 7.1875 0 11.375 5.6562 4.2031 5.6719 4.2031 15.438 0 9.7188-4.2031 15.406-4.1875 5.6875-11.375 5.6875zm0 7.6094q11.719 0 18.406-7.625 6.7031-7.6094 6.7031-21.078 0-13.422-6.7031-21.078-6.6875-7.6406-18.406-7.6406-11.766 0-18.438 7.6406-6.6562 7.6562-6.6562 21.078 0 13.469 6.6562 21.078 6.6719 7.625 18.438 7.625z"/>
<path id="ag" d="m48.781 52.594v-8.4062q-3.8125 2.1094-7.6406 3.1562t-7.7344 1.0469q-8.75 0-13.594-5.5469-4.8281-5.5312-4.8281-15.547t4.8281-15.562q4.8438-5.5312 13.594-5.5312 3.9062 0 7.7344 1.0469t7.6406 3.1562v-8.3125q-3.7656-1.75-7.7969-2.625-4.0156-0.89062-8.5625-0.89062-12.359 0-19.641 7.7656-7.2656 7.7656-7.2656 20.953 0 13.375 7.3438 21.031 7.3594 7.6719 20.156 7.6719 4.1406 0 8.0938-0.85938 3.9531-0.84375 7.6719-2.5469z"/>
<path id="af" d="m54.891 33.016v-33.016h-8.9844v32.719q0 7.7656-3.0312 11.609-3.0312 3.8594-9.0781 3.8594-7.2812 0-11.484-4.6406-4.2031-4.625-4.2031-12.641v-30.906h-9.0312v75.984h9.0312v-29.797q3.2344 4.9375 7.5938 7.375 4.375 2.4375 10.094 2.4375 9.4219 0 14.25-5.8281 4.8438-5.8281 4.8438-17.156z"/>
</defs>
<g transform="translate(395.94 765.62) scale(.1 -.1)">
<use xlink:href="#ai"/>
<use x="69.419922" xlink:href="#ba"/>
<use x="130.601562" xlink:href="#ag"/>
<use x="185.582031" xlink:href="#af"/>
<use x="248.960938" xlink:href="#d"/>
<use x="310.484375" xlink:href="#e"/>
</g>
</g>
<g clip-path="url(#a)">
<defs>
<path id="ae" d="m8.5 21.578v33.109h8.9844v-32.766q0-7.7656 3.0156-11.656 3.0312-3.875 9.0938-3.875 7.2656 0 11.484 4.6406 4.2344 4.6406 4.2344 12.656v31h8.9844v-54.688h-8.9844v8.4062q-3.2656-4.9844-7.5938-7.4062-4.3125-2.4219-10.031-2.4219-9.4219 0-14.312 5.8594-4.875 5.8594-4.875 17.141z"/>
</defs>
<g transform="translate(448.29 765.62) scale(.1 -.1)">
<use xlink:href="#ae"/>
<use x="63.378906" xlink:href="#e"/>
<use x="126.757812" xlink:href="#z"/>
</g>
</g>
<g clip-path="url(#a)">
<g transform="translate(492.76 765.62) scale(.1 -.1)">
<use xlink:href="#v"/>
<use x="75.195312" xlink:href="#k"/>
<use x="136.474609" xlink:href="#g"/>
</g>
</g>
<g clip-path="url(#a)">
<g transform="translate(539.59 765.62) scale(.1 -.1)">
<use xlink:href="#g"/>
<use x="27.783203" xlink:href="#e"/>
</g>
</g>
<g clip-path="url(#a)">
<defs>
<path id="y" d="m44.281 53.078v-8.5q-3.7969 1.9531-7.9062 2.9219-4.0938 0.98438-8.5 0.98438-6.6875 0-10.031-2.0469t-3.3438-6.1562q0-3.125 2.3906-4.9062t9.625-3.3906l3.0781-0.6875q9.5625-2.0469 13.594-5.7812t4.0312-10.422q0-7.625-6.0312-12.078-6.0312-4.4375-16.578-4.4375-4.3906 0-9.1562 0.85938t-10.031 2.5625v9.2812q4.9844-2.5938 9.8125-3.8906 4.8281-1.2812 9.5781-1.2812 6.3438 0 9.75 2.1719 3.4219 2.1719 3.4219 6.125 0 3.6562-2.4688 5.6094-2.4531 1.9531-10.812 3.7656l-3.125 0.73438q-8.3438 1.75-12.062 5.3906-3.7031 3.6406-3.7031 9.9844 0 7.7188 5.4688 11.906 5.4688 4.2031 15.531 4.2031 4.9688 0 9.3594-0.73438 4.4062-0.71875 8.1094-2.1875z"/>
<path id="an" d="m48.688 27.297q0 9.9062-4.0781 15.547t-11.203 5.6406q-7.1406 0-11.219-5.6406t-4.0781-15.547 4.0781-15.547 11.219-5.6406q7.125 0 11.203 5.6406t4.0781 15.547zm-30.578 19.094q2.8438 4.875 7.1562 7.2344 4.3281 2.375 10.328 2.375 9.9688 0 16.188-7.9062 6.2344-7.9062 6.2344-20.797t-6.2344-20.812q-6.2188-7.9062-16.188-7.9062-6 0-10.328 2.375-4.3125 2.375-7.1562 7.25v-8.2031h-9.0312v75.984h9.0312z"/>
</defs>
<g transform="translate(562.52 765.62) scale(.1 -.1)">
<use xlink:href="#z"/>
<use x="63.476562" xlink:href="#d"/>
<use x="125" xlink:href="#h"/>
<use x="166.113281" xlink:href="#y"/>
<use x="218.212891" xlink:href="#d"/>
<use x="279.736328" xlink:href="#i"/>
<use x="307.519531" xlink:href="#an"/>
<use x="370.996094" xlink:href="#d"/>
<use x="432.519531" xlink:href="#e"/>
</g>
</g>
<g clip-path="url(#a)">
<defs>
<path id="aw" d="m39.406 66.219q-10.75 0-17.078-8.0156-6.3125-8-6.3125-21.828 0-13.766 6.3125-21.781 6.3281-8 17.078-8 10.734 0 17.016 8 6.2812 8.0156 6.2812 21.781 0 13.828-6.2812 21.828-6.2812 8.0156-17.016 8.0156zm0 8q15.328 0 24.5-10.281 9.1875-10.281 9.1875-27.562 0-17.234-9.1875-27.516-9.1719-10.281-24.5-10.281-15.375 0-24.594 10.25-9.2031 10.266-9.2031 27.547t9.2031 27.562q9.2188 10.281 24.594 10.281z"/>
<path id="bb" d="m45.406 27.984q0 9.7656-4.0312 15.125-4.0156 5.375-11.297 5.375-7.2188 0-11.25-5.375-4.0312-5.3594-4.0312-15.125 0-9.7188 4.0312-15.094t11.25-5.375q7.2812 0 11.297 5.375 4.0312 5.375 4.0312 15.094zm8.9844-21.203q0-13.953-6.2031-20.766-6.1875-6.8125-18.984-6.8125-4.7344 0-8.9375 0.70312t-8.1562 2.1719v8.7344q3.9531-2.1406 7.8125-3.1562 3.8594-1.0312 7.8594-1.0312 8.8438 0 13.234 4.6094t4.3906 13.938v4.4531q-2.7812-4.8438-7.125-7.2344t-10.406-2.3906q-10.047 0-16.203 7.6562-6.1562 7.6719-6.1562 20.328 0 12.688 6.1562 20.344 6.1562 7.6719 16.203 7.6719 6.0625 0 10.406-2.3906t7.125-7.2188v8.2969h8.9844z"/>
</defs>
<g transform="translate(608.64 765.62) scale(.1 -.1)">
<use xlink:href="#aw"/>
<use x="78.710938" xlink:href="#h"/>
<use x="119.808594" xlink:href="#z"/>
<use x="183.285156" xlink:href="#e"/>
<use x="246.664062" xlink:href="#ae"/>
<use x="310.042969" xlink:href="#e"/>
<use x="373.421875" xlink:href="#bb"/>
</g>
</g>
<g clip-path="url(#a)">
<g transform="translate(671.65 765.62) scale(.1 -.1)">
<use xlink:href="#al"/>
</g>
</g>
<g clip-path="url(#a)">
<g transform="translate(709.92 765.62) scale(.1 -.1)">
<use xlink:href="#ar"/>
<use x="77.001953" xlink:href="#k"/>
</g>
</g>
<g clip-path="url(#a)">
<defs>
<path id="x" d="m18.312 70.219v-15.531h18.5v-6.9844h-18.5v-29.688q0-6.6875 1.8281-8.5938t7.4531-1.9062h9.2188v-7.5156h-9.2188q-10.406 0-14.359 3.875-3.9531 3.8906-3.9531 14.141v29.688h-6.5938v6.9844h6.5938v15.531z"/>
</defs>
<g transform="translate(754.05 765.62) scale(.1 -.1)">
<use xlink:href="#g"/>
<use x="27.783203" xlink:href="#y"/>
<use x="79.882812" xlink:href="#x"/>
</g>
</g>
<g clip-path="url(#a)">
<defs>
<path id="ay" d="m17.922 72.906v-27.109h-8.2969v27.109z"/>
</defs>
<g transform="translate(799.19 765.62) scale(.1 -.1)">
<use xlink:href="#ay"/>
<use x="27.490234" xlink:href="#y"/>
</g>
</g>
<g clip-path="url(#a)">
<defs>
<path id="at" d="m34.281 27.484q-10.891 0-15.094-2.4844t-4.2031-8.5q0-4.7812 3.1562-7.5938 3.1562-2.7969 8.5625-2.7969 7.4844 0 12 5.2969t4.5156 14.078v2zm17.922 3.7188v-31.203h-8.9844v8.2969q-3.0781-4.9688-7.6719-7.3438t-11.234-2.375q-8.3906 0-13.359 4.7188-4.9531 4.7188-4.9531 12.625 0 9.2188 6.1719 13.906 6.1875 4.6875 18.438 4.6875h12.609v0.89062q0 6.2031-4.0781 9.5938t-11.453 3.3906q-4.6875 0-9.1406-1.125-4.4375-1.125-8.5312-3.375v8.3125q4.9219 1.9062 9.5625 2.8438 4.6406 0.95312 9.0312 0.95312 11.875 0 17.734-6.1562 5.8594-6.1406 5.8594-18.641zm-18.609 44.578h9.9062v-9.8594h-9.9062zm-19.094 0h9.9062v-9.8594h-9.9062z"/>
</defs>
<g transform="translate(830.57 765.62) scale(.1 -.1)">
<use xlink:href="#h"/>
<use x="41.113281" xlink:href="#at"/>
<use x="102.392578" xlink:href="#x"/>
<use x="141.601562" xlink:href="#i"/>
<use x="169.384766" xlink:href="#g"/>
<use x="197.167969" xlink:href="#ag"/>
<use x="252.148438" xlink:href="#af"/>
</g>
</g>
<g clip-path="url(#a)">
<g transform="translate(887.92 765.62) scale(.1 -.1)">
<use xlink:href="#as"/>
</g>
</g>
<g clip-path="url(#a)">
<g transform="translate(925.61 765.62) scale(.1 -.1)">
<use xlink:href="#y"/>
<use x="52.099609" xlink:href="#g"/>
<use x="79.882812" xlink:href="#d"/>
</g>
</g>
<g clip-path="url(#a)">
<g transform="translate(963.42 765.62) scale(.1 -.1)">
<use xlink:href="#e"/>
<use x="63.378906" xlink:href="#g"/>
<use x="91.162109" xlink:href="#ag"/>
<use x="146.142578" xlink:href="#af"/>
<use x="209.521484" xlink:href="#x"/>
</g>
</g>
<g clip-path="url(#a)">
<g transform="translate(1014.5 765.62) scale(.1 -.1)">
<use xlink:href="#g"/>
<use x="27.783203" xlink:href="#e"/>
</g>
</g>
<g clip-path="url(#a)">
<g transform="translate(1036.3 765.62) scale(.1 -.1)">
<use xlink:href="#z"/>
<use x="63.476562" xlink:href="#d"/>
<use x="125" xlink:href="#e"/>
<use x="188.378906" xlink:href="#y"/>
<use x="240.478516" xlink:href="#d"/>
<use x="302.001953" xlink:href="#i"/>
<use x="329.785156" xlink:href="#an"/>
<use x="393.261719" xlink:href="#d"/>
<use x="454.785156" xlink:href="#e"/>
</g>
</g>
<g clip-path="url(#a)">
<defs>
<path id="ax" d="m19.672 34.812v-26.703h15.828q7.9531 0 11.781 3.2969 3.8438 3.2969 3.8438 10.078 0 6.8438-3.8438 10.078-3.8281 3.25-11.781 3.25zm0 29.984v-21.969h14.609q7.2188 0 10.75 2.7031 3.5469 2.7188 3.5469 8.2812 0 5.5156-3.5469 8.25-3.5312 2.7344-10.75 2.7344zm-9.8594 8.1094h25.203q11.281 0 17.375-4.6875 6.1094-4.6875 6.1094-13.328 0-6.7031-3.125-10.656t-9.1875-4.9219q7.2812-1.5625 11.312-6.5312 4.0312-4.9531 4.0312-12.375 0-9.7656-6.6406-15.094-6.6406-5.3125-18.906-5.3125h-26.172z"/>
</defs>
<g transform="translate(1084.1 765.62) scale(.1 -.1)">
<use xlink:href="#ax"/>
<use x="68.603516" xlink:href="#d"/>
<use x="130.126953" xlink:href="#af"/>
<use x="193.505859" xlink:href="#at"/>
<use x="254.785156" xlink:href="#i"/>
<use x="282.568359" xlink:href="#x"/>
<use x="321.777344" xlink:href="#d"/>
<use x="383.300781" xlink:href="#h"/>
</g>
</g>
<g clip-path="url(#a)">
<defs>
<path id="az" d="m5.5156 54.688h42.672v-8.2031l-33.781-39.312h33.781v-7.1719h-43.891v8.2031l33.797 39.312h-32.578z"/>
</defs>
<g transform="translate(1142.7 765.62) scale(.1 -.1)">
<use xlink:href="#az"/>
<use x="52.490234" xlink:href="#ae"/>
</g>
</g>
<g clip-path="url(#a)">
<g transform="translate(1183.4 765.62) scale(.1 -.1)">
<use xlink:href="#x"/>
<use x="39.208984" xlink:href="#ae"/>
<use x="102.587891" xlink:href="#e"/>
</g>
</g>
<g clip-path="url(#a)">
<g transform="translate(1232.9 765.62) scale(.1 -.1)">
<use xlink:href="#al"/>
</g>
</g>
<g clip-path="url(#a)">
<g transform="translate(1275 765.62) scale(.1 -.1)">
<use xlink:href="#au"/>
</g>
</g>
<g clip-path="url(#a)">
<g transform="translate(1318.2 765.62) scale(.1 -.1)">
<use xlink:href="#am"/>
</g>
</g>
<g clip-path="url(#a)">
<defs>
<path id="c" d="m12.406 8.2969h16.109v55.625l-17.531-3.5156v8.9844l17.438 3.5156h9.8594v-64.609h16.109v-8.2969h-41.984z"/>
<path id="f" d="m10.688 12.406h10.312v-12.406h-10.312z"/>
</defs>
<g transform="translate(309.54 39.898) scale(.1 -.1)">
<use xlink:href="#c"/>
<use x="63.623047" xlink:href="#f"/>
<use x="95.410156" xlink:href="#c"/>
</g>
</g>
<g clip-path="url(#a)">
<defs>
<path id="o" d="m19.188 8.2969h34.422v-8.2969h-46.281v8.2969q5.6094 5.8125 15.297 15.594 9.7031 9.7969 12.188 12.641 4.7344 5.3125 6.6094 9 1.8906 3.6875 1.8906 7.25 0 5.8125-4.0781 9.4688-4.0781 3.6719-10.625 3.6719-4.6406 0-9.7969-1.6094-5.1406-1.6094-11-4.8906v9.9688q5.9531 2.3906 11.125 3.6094 5.1875 1.2188 9.4844 1.2188 11.328 0 18.062-5.6719 6.7344-5.6562 6.7344-15.125 0-4.5-1.6875-8.5312-1.6719-4.0156-6.125-9.4844-1.2188-1.4219-7.7656-8.1875-6.5312-6.7656-18.453-18.922z"/>
</defs>
<g transform="translate(309.54 150.6) scale(.1 -.1)">
<use xlink:href="#c"/>
<use x="63.623047" xlink:href="#f"/>
<use x="95.410156" xlink:href="#o"/>
</g>
</g>
<g clip-path="url(#a)">
<defs>
<path id="ac" d="m33.016 40.375q-6.6406 0-10.531-4.5469-3.875-4.5312-3.875-12.438 0-7.8594 3.875-12.438 3.8906-4.5625 10.531-4.5625t10.516 4.5625q3.875 4.5781 3.875 12.438 0 7.9062-3.875 12.438-3.875 4.5469-10.516 4.5469zm19.578 30.922v-8.9844q-3.7188 1.75-7.5 2.6719-3.7812 0.9375-7.5 0.9375-9.7656 0-14.922-6.5938-5.1406-6.5938-5.875-19.922 2.875 4.25 7.2188 6.5156 4.3594 2.2656 9.5781 2.2656 10.984 0 17.359-6.6719 6.375-6.6562 6.375-18.125 0-11.234-6.6406-18.031-6.6406-6.7812-17.672-6.7812-12.656 0-19.344 9.6875-6.6875 9.7031-6.6875 28.109 0 17.281 8.2031 27.562t22.016 10.281q3.7188 0 7.5-0.73438t7.8906-2.1875z"/>
</defs>
<g transform="translate(633.25 258.32) scale(.1 -.1)">
<use xlink:href="#c"/>
<use x="63.623047" xlink:href="#f"/>
<use x="95.410156" xlink:href="#ac"/>
</g>
</g>
<g clip-path="url(#a)">
<defs>
<path id="ab" d="m8.2031 72.906h46.875v-4.2031l-26.469-68.703h-10.297l24.906 64.594h-35.016z"/>
</defs>
<g transform="translate(234 666.23) scale(.1 -.1)">
<use xlink:href="#c"/>
<use x="63.623047" xlink:href="#f"/>
<use x="95.410156" xlink:href="#ab"/>
</g>
</g>
<g clip-path="url(#a)">
<defs>
<path id="w" d="m31.781 34.625q-7.0312 0-11.062-3.7656-4.0156-3.7656-4.0156-10.344 0-6.5938 4.0156-10.359 4.0312-3.7656 11.062-3.7656t11.078 3.7812q4.0625 3.7969 4.0625 10.344 0 6.5781-4.0312 10.344-4.0156 3.7656-11.109 3.7656zm-9.8594 4.1875q-6.3438 1.5625-9.8906 5.9062-3.5312 4.3594-3.5312 10.609 0 8.7344 6.2188 13.812 6.2344 5.0781 17.062 5.0781 10.891 0 17.094-5.0781t6.2031-13.812q0-6.25-3.5469-10.609-3.5312-4.3438-9.8281-5.9062 7.125-1.6562 11.094-6.5 3.9844-4.8281 3.9844-11.797 0-10.609-6.4688-16.281-6.4688-5.6562-18.531-5.6562-12.047 0-18.531 5.6562-6.4688 5.6719-6.4688 16.281 0 6.9688 4 11.797 4.0156 4.8438 11.141 6.5zm-3.6094 15.578q0-5.6562 3.5312-8.8281 3.5469-3.1719 9.9375-3.1719 6.3594 0 9.9375 3.1719 3.5938 3.1719 3.5938 8.8281 0 5.6719-3.5938 8.8438-3.5781 3.1719-9.9375 3.1719-6.3906 0-9.9375-3.1719-3.5312-3.1719-3.5312-8.8438z"/>
</defs>
<g transform="translate(277.17 666.23) scale(.1 -.1)">
<use xlink:href="#c"/>
<use x="63.623047" xlink:href="#f"/>
<use x="95.410156" xlink:href="#w"/>
</g>
</g>
<g clip-path="url(#a)">
<defs>
<path id="n" d="m40.578 39.312q7.0781-1.5156 11.047-6.3125 3.9844-4.7812 3.9844-11.812 0-10.781-7.4219-16.703-7.4219-5.9062-21.094-5.9062-4.5781 0-9.4375 0.90625t-10.031 2.7188v9.5156q4.0938-2.3906 8.9688-3.6094 4.8906-1.2188 10.219-1.2188 9.2656 0 14.125 3.6562t4.8594 10.641q0 6.4531-4.5156 10.078-4.5156 3.6406-12.562 3.6406h-8.5v8.1094h8.8906q7.2656 0 11.125 2.9062t3.8594 8.375q0 5.6094-3.9844 8.6094-3.9688 3.0156-11.391 3.0156-4.0625 0-8.7031-0.89062-4.6406-0.875-10.203-2.7188v8.7812q5.625 1.5625 10.531 2.3438t9.25 0.78125q11.234 0 17.766-5.1094 6.5469-5.0938 6.5469-13.781 0-6.0625-3.4688-10.234t-9.8594-5.7812z"/>
</defs>
<g transform="translate(770.45 566.85) scale(.1 -.1)">
<use xlink:href="#c"/>
<use x="63.623047" xlink:href="#f"/>
<use x="95.410156" xlink:href="#c"/>
<use x="159.033203" xlink:href="#n"/>
</g>
</g>
<g clip-path="url(#a)">
<defs>
<path id="m" d="m37.797 64.312-24.906-38.922h24.906zm-2.5938 8.5938h12.406v-47.516h10.406v-8.2031h-10.406v-17.188h-9.8125v17.188h-32.906v9.5156z"/>
</defs>
<g transform="translate(806.43 466.08) scale(.1 -.1)">
<use xlink:href="#c"/>
<use x="63.623047" xlink:href="#f"/>
<use x="95.410156" xlink:href="#c"/>
<use x="159.033203" xlink:href="#m"/>
</g>
</g>
<g clip-path="url(#a)">
<defs>
<path id="s" d="m10.797 72.906h38.719v-8.3125h-29.688v-17.859q2.1406 0.73438 4.2812 1.0938 2.1562 0.35938 4.3125 0.35938 12.203 0 19.328-6.6875 7.1406-6.6875 7.1406-18.109 0-11.766-7.3281-18.297-7.3281-6.5156-20.656-6.5156-4.5938 0-9.3594 0.78125-4.75 0.78125-9.8281 2.3438v9.9219q4.3906-2.3906 9.0781-3.5625t9.9062-1.1719q8.4531 0 13.375 4.4375 4.9375 4.4375 4.9375 12.062 0 7.6094-4.9375 12.047-4.9219 4.4531-13.375 4.4531-3.9531 0-7.8906-0.875-3.9219-0.875-8.0156-2.7344z"/>
</defs>
<g transform="translate(852.8 363.37) scale(.1 -.1)">
<use xlink:href="#c"/>
<use x="63.623047" xlink:href="#f"/>
<use x="95.410156" xlink:href="#c"/>
<use x="159.033203" xlink:href="#s"/>
</g>
</g>
<g clip-path="url(#a)">
<g transform="translate(705.7 666.23) scale(.1 -.1)">
<use xlink:href="#c"/>
<use x="63.623047" xlink:href="#f"/>
<use x="95.410156" xlink:href="#c"/>
<use x="159.033203" xlink:href="#w"/>
</g>
</g>
<g clip-path="url(#a)">
<defs>
<path id="aa" d="m10.984 1.5156v8.9844q3.7188-1.7656 7.5156-2.6875 3.8125-0.92188 7.4844-0.92188 9.7656 0 14.906 6.5625 5.1562 6.5625 5.8906 19.953-2.8281-4.2031-7.1875-6.4531-4.3438-2.25-9.6094-2.25-10.938 0-17.312 6.6094-6.375 6.625-6.375 18.109 0 11.219 6.6406 18 6.6406 6.7969 17.672 6.7969 12.656 0 19.312-9.7031 6.6719-9.6875 6.6719-28.141 0-17.234-8.1875-27.516-8.1719-10.281-21.984-10.281-3.7188 0-7.5312 0.73438-3.7969 0.73438-7.9062 2.2031zm19.625 30.906q6.6406 0 10.516 4.5312 3.8906 4.5469 3.8906 12.469 0 7.8594-3.8906 12.422-3.875 4.5625-10.516 4.5625t-10.516-4.5625-3.875-12.422q0-7.9219 3.875-12.469 3.875-4.5312 10.516-4.5312z"/>
</defs>
<g transform="translate(748.87 666.23) scale(.1 -.1)">
<use xlink:href="#c"/>
<use x="63.623047" xlink:href="#f"/>
<use x="95.410156" xlink:href="#c"/>
<use x="159.033203" xlink:href="#aa"/>
</g>
</g>
<g clip-path="url(#a)">
<defs>
<path id="ad" d="m31.781 66.406q-7.6094 0-11.453-7.5-3.8281-7.4844-3.8281-22.531 0-14.984 3.8281-22.484 3.8438-7.5 11.453-7.5 7.6719 0 11.5 7.5 3.8438 7.5 3.8438 22.484 0 15.047-3.8438 22.531-3.8281 7.5-11.5 7.5zm0 7.8125q12.266 0 18.734-9.7031 6.4688-9.6875 6.4688-28.141 0-18.406-6.4688-28.109-6.4688-9.6875-18.734-9.6875-12.25 0-18.719 9.6875-6.4688 9.7031-6.4688 28.109 0 18.453 6.4688 28.141 6.4688 9.7031 18.719 9.7031z"/>
</defs>
<g transform="translate(792.04 666.23) scale(.1 -.1)">
<use xlink:href="#c"/>
<use x="63.623047" xlink:href="#f"/>
<use x="95.410156" xlink:href="#o"/>
<use x="159.033203" xlink:href="#ad"/>
</g>
</g>
<g clip-path="url(#a)">
<g transform="translate(835.21 666.23) scale(.1 -.1)">
<use xlink:href="#c"/>
<use x="63.623047" xlink:href="#f"/>
<use x="95.410156" xlink:href="#o"/>
<use x="159.033203" xlink:href="#c"/>
</g>
</g>
<g clip-path="url(#a)">
<g transform="translate(1156.6 466.08) scale(.1 -.1)">
<use xlink:href="#c"/>
<use x="63.623047" xlink:href="#f"/>
<use x="95.410156" xlink:href="#o"/>
<use x="159.033203" xlink:href="#o"/>
</g>
</g>
<g clip-path="url(#a)">
<defs>
<path id="r" d="m9.8125 72.906h9.8594v-72.906h-9.8594z"/>
<path id="aj" d="m9.8125 72.906h14.703l18.594-49.609 18.703 49.609h14.703v-72.906h-9.625v64.016l-18.797-50h-9.9062l-18.797 50v-64.016h-9.5781z"/>
<path id="ak" d="m9.8125 72.906h9.8594v-64.609h35.5v-8.2969h-45.359z"/>
</defs>
<g transform="translate(1343.3 765.62) scale(.1 -.1)">
<use xlink:href="#r"/>
<use x="29.492188" xlink:href="#aj"/>
<use x="115.771484" xlink:href="#u"/>
<use x="176.074219" xlink:href="#ak"/>
<use x="231.787109" xlink:href="#r"/>
<use x="261.279297" xlink:href="#t"/>
<use x="331.103516" xlink:href="#r"/>
<use x="360.595703" xlink:href="#j"/>
</g>
</g>
<g clip-path="url(#a)">
<g transform="translate(921.55 666.23) scale(.1 -.1)">
<use xlink:href="#c"/>
<use x="63.623047" xlink:href="#f"/>
<use x="95.410156" xlink:href="#o"/>
<use x="159.033203" xlink:href="#s"/>
</g>
</g>
<g clip-path="url(#a)">
<g transform="translate(964.72 666.23) scale(.1 -.1)">
<use xlink:href="#c"/>
<use x="63.623047" xlink:href="#f"/>
<use x="95.410156" xlink:href="#o"/>
<use x="159.033203" xlink:href="#ac"/>
</g>
</g>
<g clip-path="url(#a)">
<g transform="translate(1051.1 566.85) scale(.1 -.1)">
<use xlink:href="#c"/>
<use x="63.623047" xlink:href="#f"/>
<use x="95.410156" xlink:href="#o"/>
<use x="159.033203" xlink:href="#ab"/>
</g>
</g>
<g clip-path="url(#a)">
<g transform="translate(1137.4 666.23) scale(.1 -.1)">
<use xlink:href="#c"/>
<use x="63.623047" xlink:href="#f"/>
<use x="95.410156" xlink:href="#o"/>
<use x="159.033203" xlink:href="#w"/>
</g>
</g>
<g clip-path="url(#a)">
<g transform="translate(1180.6 666.23) scale(.1 -.1)">
<use xlink:href="#c"/>
<use x="63.623047" xlink:href="#f"/>
<use x="95.410156" xlink:href="#o"/>
<use x="159.033203" xlink:href="#aa"/>
</g>
</g>
<g clip-path="url(#a)">
<g transform="translate(1007.9 666.23) scale(.1 -.1)">
<use xlink:href="#c"/>
<use x="63.623047" xlink:href="#f"/>
<use x="95.410156" xlink:href="#n"/>
<use x="159.033203" xlink:href="#ad"/>
</g>
</g>
<g clip-path="url(#a)">
<g transform="translate(1051.1 666.23) scale(.1 -.1)">
<use xlink:href="#c"/>
<use x="63.623047" xlink:href="#f"/>
<use x="95.410156" xlink:href="#n"/>
<use x="159.033203" xlink:href="#c"/>
</g>
</g>
<g clip-path="url(#a)">
<g transform="translate(1094.2 666.23) scale(.1 -.1)">
<use xlink:href="#c"/>
<use x="63.623047" xlink:href="#f"/>
<use x="95.410156" xlink:href="#n"/>
<use x="159.033203" xlink:href="#o"/>
</g>
</g>
<g clip-path="url(#a)">
<g transform="translate(1386.5 765.62) scale(.1 -.1)">
<use xlink:href="#r"/>
<use x="29.492188" xlink:href="#aj"/>
<use x="115.771484" xlink:href="#u"/>
<use x="176.074219" xlink:href="#ak"/>
<use x="231.787109" xlink:href="#r"/>
<use x="261.279297" xlink:href="#t"/>
<use x="331.103516" xlink:href="#r"/>
<use x="360.595703" xlink:href="#j"/>
</g>
</g>
<g clip-path="url(#a)">
<g transform="translate(446.67 566.85) scale(.1 -.1)">
<use xlink:href="#c"/>
<use x="63.623047" xlink:href="#f"/>
<use x="95.410156" xlink:href="#n"/>
<use x="159.033203" xlink:href="#m"/>
</g>
</g>
<g clip-path="url(#a)">
<g transform="translate(576.18 566.85) scale(.1 -.1)">
<use xlink:href="#c"/>
<use x="63.623047" xlink:href="#f"/>
<use x="95.410156" xlink:href="#n"/>
<use x="159.033203" xlink:href="#s"/>
</g>
</g>
<g clip-path="url(#a)">
<g transform="translate(533.01 666.23) scale(.1 -.1)">
<use xlink:href="#c"/>
<use x="63.623047" xlink:href="#f"/>
<use x="95.410156" xlink:href="#n"/>
<use x="159.033203" xlink:href="#ac"/>
</g>
</g>
<g clip-path="url(#a)">
<g transform="translate(576.18 666.23) scale(.1 -.1)">
<use xlink:href="#c"/>
<use x="63.623047" xlink:href="#f"/>
<use x="95.410156" xlink:href="#n"/>
<use x="159.033203" xlink:href="#ab"/>
</g>
</g>
<g clip-path="url(#a)">
<g transform="translate(619.35 666.23) scale(.1 -.1)">
<use xlink:href="#c"/>
<use x="63.623047" xlink:href="#f"/>
<use x="95.410156" xlink:href="#n"/>
<use x="159.033203" xlink:href="#w"/>
</g>
</g>
<g clip-path="url(#a)">
<g transform="translate(403.5 666.23) scale(.1 -.1)">
<use xlink:href="#c"/>
<use x="63.623047" xlink:href="#f"/>
<use x="95.410156" xlink:href="#n"/>
<use x="159.033203" xlink:href="#aa"/>
</g>
</g>
<g clip-path="url(#a)">
<g transform="translate(446.67 666.23) scale(.1 -.1)">
<use xlink:href="#c"/>
<use x="63.623047" xlink:href="#f"/>
<use x="95.410156" xlink:href="#m"/>
<use x="159.033203" xlink:href="#ad"/>
</g>
</g>
<g clip-path="url(#a)">
<g transform="translate(489.84 666.23) scale(.1 -.1)">
<use xlink:href="#c"/>
<use x="63.623047" xlink:href="#f"/>
<use x="95.410156" xlink:href="#m"/>
<use x="159.033203" xlink:href="#c"/>
</g>
</g>
<g clip-path="url(#a)">
<g transform="translate(1429.6 765.62) scale(.1 -.1)">
<use xlink:href="#r"/>
<use x="29.492188" xlink:href="#aj"/>
<use x="115.771484" xlink:href="#u"/>
<use x="176.074219" xlink:href="#ak"/>
<use x="231.787109" xlink:href="#r"/>
<use x="261.279297" xlink:href="#t"/>
<use x="331.103516" xlink:href="#r"/>
<use x="360.595703" xlink:href="#j"/>
</g>
</g>
<g clip-path="url(#a)">
<g transform="translate(101.31 666.23) scale(.1 -.1)">
<use xlink:href="#c"/>
<use x="63.623047" xlink:href="#f"/>
<use x="95.410156" xlink:href="#m"/>
<use x="159.033203" xlink:href="#n"/>
</g>
</g>
<g clip-path="url(#a)">
<g transform="translate(58.135 666.23) scale(.1 -.1)">
<use xlink:href="#c"/>
<use x="63.623047" xlink:href="#f"/>
<use x="95.410156" xlink:href="#m"/>
<use x="159.033203" xlink:href="#m"/>
</g>
</g>
<g clip-path="url(#a)">
<g transform="translate(144.48 666.23) scale(.1 -.1)">
<use xlink:href="#c"/>
<use x="63.623047" xlink:href="#f"/>
<use x="95.410156" xlink:href="#m"/>
<use x="159.033203" xlink:href="#s"/>
</g>
</g>
<g clip-path="url(#a)">
<g transform="translate(187.65 666.23) scale(.1 -.1)">
<use xlink:href="#c"/>
<use x="63.623047" xlink:href="#f"/>
<use x="95.410156" xlink:href="#m"/>
<use x="159.033203" xlink:href="#ac"/>
</g>
</g>
<g clip-path="url(#a)">
<g transform="translate(317.16 666.23) scale(.1 -.1)">
<use xlink:href="#c"/>
<use x="63.623047" xlink:href="#f"/>
<use x="95.410156" xlink:href="#m"/>
<use x="159.033203" xlink:href="#ab"/>
</g>
</g>
<g clip-path="url(#a)">
<g transform="translate(360.33 666.23) scale(.1 -.1)">
<use xlink:href="#c"/>
<use x="63.623047" xlink:href="#f"/>
<use x="95.410156" xlink:href="#m"/>
<use x="159.033203" xlink:href="#w"/>
</g>
</g>
<g clip-path="url(#a)">
<g transform="translate(662.53 666.23) scale(.1 -.1)">
<use xlink:href="#c"/>
<use x="63.623047" xlink:href="#f"/>
<use x="95.410156" xlink:href="#m"/>
<use x="159.033203" xlink:href="#aa"/>
</g>
</g>
<g clip-path="url(#a)">
<g transform="translate(878.38 666.23) scale(.1 -.1)">
<use xlink:href="#c"/>
<use x="63.623047" xlink:href="#f"/>
<use x="95.410156" xlink:href="#s"/>
<use x="159.033203" xlink:href="#ad"/>
</g>
</g>
<g clip-path="url(#a)">
<g transform="translate(1223.7 666.23) scale(.1 -.1)">
<use xlink:href="#c"/>
<use x="63.623047" xlink:href="#f"/>
<use x="95.410156" xlink:href="#s"/>
<use x="159.033203" xlink:href="#c"/>
</g>
</g>
<g clip-path="url(#a)">
<g transform="translate(1266.9 666.23) scale(.1 -.1)">
<use xlink:href="#c"/>
<use x="63.623047" xlink:href="#f"/>
<use x="95.410156" xlink:href="#s"/>
<use x="159.033203" xlink:href="#o"/>
</g>
</g>
<g clip-path="url(#a)">
<g transform="translate(1310.1 666.23) scale(.1 -.1)">
<use xlink:href="#c"/>
<use x="63.623047" xlink:href="#f"/>
<use x="95.410156" xlink:href="#s"/>
<use x="159.033203" xlink:href="#n"/>
</g>
</g>
<defs>
<clipPath id="a">
<rect width="1520" height="800"/>
</clipPath>
</defs>
</svg>
