<?xml version="1.0" encoding="UTF-8"?>
<!DOCTYPE svg  PUBLIC '-//W3C//DTD SVG 1.1//EN'  'http://www.w3.org/Graphics/SVG/1.1/DTD/svg11.dtd'>
<svg width="658.67pt" height="346.67pt" version="1.1" viewBox="0 0 658.67 346.67" xmlns="http://www.w3.org/2000/svg" xmlns:xlink="http://www.w3.org/1999/xlink">
<defs>
<style type="text/css">*{stroke-linecap:butt;stroke-linejoin:round;}</style>
</defs>
<path d="m0 346.67h658.67v-346.67h-658.67z" fill="#fff"/>
<g fill="none" stroke="#000">
<path d="m207.31 15.758-140.99 63.592" clip-path="url(#a)"/>
<path d="m207.31 15.758 140.99 127.02" clip-path="url(#a)"/>
<path d="m66.314 79.35 114.72 63.432" clip-path="url(#a)"/>
<path d="m66.314 79.35 114.72 63.432" clip-path="url(#a)"/>
<path d="m66.314 79.35v63.432" clip-path="url(#a)"/>
<path d="m348.3 142.78 280.43 63.217" clip-path="url(#a)"/>
<path d="m348.3 142.78 280.43 63.217" clip-path="url(#a)"/>
<path d="m348.3 142.78v63.217" clip-path="url(#a)"/>
<path d="m348.3 206 280.43 62.887" clip-path="url(#a)"/>
<path d="m348.3 206 45.391 62.887" clip-path="url(#a)"/>
<path d="m348.3 206-217.63 62.887" clip-path="url(#a)" stroke-dasharray="3.7,1.6"/>
<path d="m348.3 206-178.45 62.887" clip-path="url(#a)" stroke-dasharray="3.7,1.6"/>
<path d="m348.3 206-122.49 62.887" clip-path="url(#a)"/>
<path d="m348.3 206-72.128 62.887" clip-path="url(#a)"/>
<path d="m348.3 206-16.167 62.887" clip-path="url(#a)"/>
<path d="m348.3 206 112.54 62.887" clip-path="url(#a)"/>
<path d="m348.3 206 185.29 62.887" clip-path="url(#a)"/>
<path d="m348.3 206 263.64 62.887" clip-path="url(#a)"/>
<path d="m393.69 268.89v62.024" clip-path="url(#a)"/>
<path d="m66.314 142.78-36.375 126.1" clip-path="url(#a)"/>
<path d="m66.314 142.78 36.375 63.217" clip-path="url(#a)"/>
<path d="m29.939 268.89v62.024" clip-path="url(#a)"/>
<path d="m102.69 206-55.961 62.887" clip-path="url(#a)"/>
<path d="m102.69 206-33.577 62.887" clip-path="url(#a)"/>
<path d="m102.69 206-5.5961 62.887" clip-path="url(#a)"/>
<path d="m102.69 206 27.981 62.887" clip-path="url(#a)"/>
<path d="m102.69 206 67.154 62.887" clip-path="url(#a)"/>
<path d="m46.728 268.89v62.024" clip-path="url(#a)"/>
<path d="m69.112 268.89v62.024" clip-path="url(#a)"/>
<path d="m97.093 268.89v62.024" clip-path="url(#a)"/>
<path d="m130.67 268.89v62.024" clip-path="url(#a)"/>
<path d="m169.84 268.89v62.024" clip-path="url(#a)"/>
<path d="m225.8 268.89v62.024" clip-path="url(#a)"/>
<path d="m276.17 268.89v62.024" clip-path="url(#a)"/>
<path d="m332.13 268.89v62.024" clip-path="url(#a)"/>
<path d="m460.84 268.89v62.024" clip-path="url(#a)"/>
<path d="m533.59 268.89v62.024" clip-path="url(#a)"/>
<path d="m611.94 268.89v62.024" clip-path="url(#a)"/>
</g>
<path d="m136.65 54.507 5.4842-2.4736q2.1878-0.98676 1.201-3.1745l-3.1833-7.0578q-0.98676-2.1878-3.1745-1.201l-5.4842 2.4736q-2.1878 0.98676-1.201 3.1745l3.1833 7.0578q0.98676 2.1878 3.1745 1.201z" clip-path="url(#a)" fill="#fff" stroke="#fff"/>
<g clip-path="url(#a)">
<defs>
<path id="v" d="m9.8125 72.906h9.8594v-29.891h35.844v29.891h9.8594v-72.906h-9.8594v34.719h-35.844v-34.719h-9.8594z"/>
</defs>
<g transform="translate(134.98 50.803) rotate(-24.277) scale(.08 -.08)">
<use xlink:href="#v"/>
</g>
</g>
<path d="m271.37 81.915 4.4698 4.027q1.7831 1.6064 3.3895-0.17665l5.1824-5.7523q1.6064-1.7831-0.17665-3.3895l-4.4698-4.027q-1.7831-1.6064-3.3895 0.17665l-5.1824 5.7523q-1.6064 1.7831 0.17665 3.3895z" clip-path="url(#a)" fill="#fff" stroke="#fff"/>
<g clip-path="url(#a)">
<g transform="translate(274.09 78.896) rotate(42.017) scale(.08 -.08)">
<use xlink:href="#v"/>
</g>
</g>
<path d="m118.53 115.39 4.2214 2.3341q2.1003 1.1613 3.2616-0.93901l3.7464-6.7757q1.1613-2.1003-0.93901-3.2616l-4.2214-2.3341q-2.1003-1.1613-3.2616 0.93901l-3.7464 6.7757q-1.1613 2.1003 0.93901 3.2616z" clip-path="url(#a)" fill="#fff" stroke="#fff"/>
<g clip-path="url(#a)">
<defs>
<path id="o" d="m19.672 64.797v-27.391h12.406q6.8906 0 10.641 3.5625 3.7656 3.5625 3.7656 10.156 0 6.5469-3.7656 10.109-3.75 3.5625-10.641 3.5625zm-9.8594 8.1094h22.266q12.266 0 18.531-5.5469 6.2812-5.5469 6.2812-16.234 0-10.797-6.2812-16.312-6.2656-5.5156-18.531-5.5156h-12.406v-29.297h-9.8594z"/>
</defs>
<g transform="translate(120.5 111.83) rotate(28.939) scale(.08 -.08)">
<use xlink:href="#o"/>
</g>
</g>
<path d="m118.25 115.23 4.7892 2.648q2.1003 1.1613 3.2616-0.93901l3.7464-6.7757q1.1613-2.1003-0.93901-3.2616l-4.7892-2.648q-2.1003-1.1613-3.2616 0.93901l-3.7464 6.7757q-1.1613 2.1003 0.93901 3.2616z" clip-path="url(#a)" fill="#fff" stroke="#fff"/>
<g clip-path="url(#a)">
<defs>
<path id="p" d="m34.188 63.188-13.391-36.281h26.812zm-5.5781 9.7188h11.188l27.781-72.906h-10.25l-6.6406 18.703h-32.859l-6.6406-18.703h-10.406z"/>
</defs>
<g transform="translate(120.21 111.67) rotate(28.939) scale(.08 -.08)">
<use xlink:href="#p"/>
</g>
</g>
<path d="m60.043 108.33v5.4725q0 2.4 2.4 2.4h7.7425q2.4 0 2.4-2.4v-5.4725q0-2.4-2.4-2.4h-7.7425q-2.4 0-2.4 2.4z" clip-path="url(#a)" fill="#fff" stroke="#fff"/>
<g clip-path="url(#a)">
<g transform="translate(64.107 108.33) rotate(90) scale(.08 -.08)">
<use xlink:href="#p"/>
</g>
</g>
<path d="m484.78 179.98 4.7057 1.0608q2.3412 0.52778 2.869-1.8135l1.7027-7.553q0.52778-2.3412-1.8135-2.869l-4.7057-1.0608q-2.3412-0.52778-2.869 1.8135l-1.7027 7.553q-0.52778 2.3412 1.8135 2.869z" clip-path="url(#a)" fill="#fff" stroke="#fff"/>
<g clip-path="url(#a)">
<g transform="translate(485.67 176.01) rotate(12.704) scale(.08 -.08)">
<use xlink:href="#o"/>
</g>
</g>
<path d="m484.46 179.91 5.3385 1.2035q2.3412 0.52778 2.869-1.8135l1.7027-7.553q0.52778-2.3412-1.8135-2.869l-5.3385-1.2035q-2.3412-0.52778-2.869 1.8135l-1.7027 7.553q-0.52778 2.3412 1.8135 2.869z" clip-path="url(#a)" fill="#fff" stroke="#fff"/>
<g clip-path="url(#a)">
<g transform="translate(485.36 175.94) rotate(12.704) scale(.08 -.08)">
<use xlink:href="#p"/>
</g>
</g>
<path d="m342.03 171.65v5.4725q0 2.4 2.4 2.4h7.7425q2.4 0 2.4-2.4v-5.4725q0-2.4-2.4-2.4h-7.7425q-2.4 0-2.4 2.4z" clip-path="url(#a)" fill="#fff" stroke="#fff"/>
<g clip-path="url(#a)">
<g transform="translate(346.09 171.65) rotate(90) scale(.08 -.08)">
<use xlink:href="#p"/>
</g>
</g>
<path d="m484.47 242.96 5.3399 1.1975q2.3418 0.52516 2.867-1.8167l1.6942-7.5549q0.52516-2.3418-1.8167-2.867l-5.3399-1.1975q-2.3418-0.52516-2.867 1.8167l-1.6942 7.5549q-0.52516 2.3418 1.8167 2.867z" clip-path="url(#a)" fill="#fff" stroke="#fff"/>
<g clip-path="url(#a)">
<g transform="translate(485.36 239) rotate(12.64) scale(.08 -.08)">
<use xlink:href="#p"/>
</g>
</g>
<path d="m364.09 238.6 3.6279 5.0262q1.4046 1.946 3.3507 0.54141l6.278-4.5314q1.946-1.4046 0.54141-3.3507l-3.6279-5.0262q-1.4046-1.946-3.3507-0.54141l-6.278 4.5314q-1.946 1.4046-0.54141 3.3507z" clip-path="url(#a)" fill="#fff" stroke="#fff"/>
<g clip-path="url(#a)">
<defs>
<path id="aj" d="m59.516 10.406v19.578h-16.109v8.1094h25.875v-31.312q-5.7031-4.0469-12.594-6.125-6.875-2.0781-14.688-2.0781-17.094 0-26.75 9.9844-9.6406 10-9.6406 27.812 0 17.875 9.6406 27.859 9.6562 9.9844 26.75 9.9844 7.125 0 13.547-1.7656 6.4219-1.75 11.844-5.1719v-10.5q-5.4688 4.6406-11.625 6.9844t-12.938 2.3438q-13.391 0-20.109-7.4688-6.7031-7.4688-6.7031-22.266 0-14.75 6.7031-22.219 6.7188-7.4688 20.109-7.4688 5.2188 0 9.3125 0.90625 4.1094 0.90625 7.375 2.8125z"/>
</defs>
<g transform="translate(367.39 236.22) rotate(54.179) scale(.08 -.08)">
<use xlink:href="#aj"/>
</g>
</g>
<path d="m238.6 244.23 5.2574-1.5192q2.3057-0.66626 1.6394-2.9719l-2.1494-7.4382q-0.66626-2.3057-2.9719-1.6394l-5.2574 1.5192q-2.3057 0.66626-1.6394 2.9719l2.1494 7.4382q0.66626 2.3057 2.9719 1.6394z" clip-path="url(#a)" fill="#fff" stroke="#fff"/>
<g clip-path="url(#a)">
<g transform="translate(237.47 240.32) rotate(-16.117) scale(.08 -.08)">
<use xlink:href="#p"/>
</g>
</g>
<path d="m258.88 244.16 4.5495-1.6032q2.2636-0.79767 1.4659-3.0612l-2.5733-7.3024q-0.79767-2.2636-3.0612-1.4659l-4.5495 1.6032q-2.2636 0.79767-1.4659 3.0612l2.5733 7.3024q0.79767 2.2636 3.0612 1.4659z" clip-path="url(#a)" fill="#fff" stroke="#fff"/>
<g clip-path="url(#a)">
<g transform="translate(257.53 240.33) rotate(-19.412) scale(.08 -.08)">
<use xlink:href="#o"/>
</g>
</g>
<path d="m287.31 244.36 5.2087-2.6741q2.1351-1.0961 1.0389-3.2312l-3.5361-6.8878q-1.0961-2.1351-3.2312-1.0389l-5.2087 2.6741q-2.1351 1.0961-1.0389 3.2312l3.5361 6.8878q1.0961 2.1351 3.2312 1.0389z" clip-path="url(#a)" fill="#fff" stroke="#fff"/>
<g clip-path="url(#a)">
<defs>
<path id="q" d="m8.6875 72.906h9.9219v-44.297q0-11.719 4.2344-16.875 4.25-5.1406 13.781-5.1406 9.4688 0 13.719 5.1406 4.25 5.1562 4.25 16.875v44.297h9.9062v-45.516q0-14.25-7.0625-21.531-7.0469-7.2812-20.812-7.2812-13.828 0-20.891 7.2812-7.0469 7.2812-7.0469 21.531z"/>
</defs>
<g transform="translate(285.46 240.74) rotate(-27.175) scale(.08 -.08)">
<use xlink:href="#q"/>
</g>
</g>
<path d="m314.15 244.09 4.4132-3.8477q1.809-1.5772 0.23177-3.3862l-5.0881-5.8358q-1.5772-1.809-3.3862-0.23177l-4.4132 3.8477q-1.809 1.5772-0.23177 3.3862l5.0881 5.8358q1.5772 1.809 3.3862 0.23177z" clip-path="url(#a)" fill="#fff" stroke="#fff"/>
<g clip-path="url(#a)">
<g transform="translate(311.48 241.03) rotate(-41.084) scale(.08 -.08)">
<use xlink:href="#q"/>
</g>
</g>
<path d="m345.56 241.84 1.4578-5.6706q0.59755-2.3244-1.7269-2.922l-7.4987-1.9277q-2.3244-0.59755-2.922 1.7269l-1.4578 5.6706q-0.59755 2.3244 1.7269 2.922l7.4987 1.9277q2.3244 0.59755 2.922-1.7269z" clip-path="url(#a)" fill="#fff" stroke="#fff"/>
<g clip-path="url(#a)">
<g transform="translate(341.62 240.83) rotate(-75.583) scale(.08 -.08)">
<use xlink:href="#q"/>
</g>
</g>
<path d="m398.96 241.49 5.1112 2.856q2.0951 1.1707 3.2658-0.92442l3.7767-6.7589q1.1707-2.0951-0.92442-3.2658l-5.1112-2.856q-2.0951-1.1707-3.2658 0.92442l-3.7767 6.7589q-1.1707 2.0951 0.92442 3.2658z" clip-path="url(#a)" fill="#fff" stroke="#fff"/>
<g clip-path="url(#a)">
<g transform="translate(400.94 237.94) rotate(29.195) scale(.08 -.08)">
<use xlink:href="#q"/>
</g>
</g>
<path d="m436.16 242.44 5.5444 1.8817q2.2727 0.77132 3.044-1.5014l2.4883-7.3318q0.77132-2.2727-1.5014-3.044l-5.5444-1.8817q-2.2727-0.77132-3.044 1.5014l-2.4883 7.3318q-0.77132 2.2727 1.5014 3.044z" clip-path="url(#a)" fill="#fff" stroke="#fff"/>
<g clip-path="url(#a)">
<g transform="translate(437.46 238.59) rotate(18.747) scale(.08 -.08)">
<use xlink:href="#q"/>
</g>
</g>
<path d="m475.82 242.86 5.6952 1.3585q2.3345 0.55685 2.8914-1.7777l1.7964-7.5312q0.55686-2.3345-1.7776-2.8914l-5.6952-1.3585q-2.3345-0.55686-2.8914 1.7776l-1.7964 7.5312q-0.55686 2.3345 1.7776 2.8914z" clip-path="url(#a)" fill="#fff" stroke="#fff"/>
<g clip-path="url(#a)">
<g transform="translate(476.76 238.91) rotate(13.416) scale(.08 -.08)">
<use xlink:href="#q"/>
</g>
</g>
<path d="m387.42 282.99v33.808q0 2.4 2.4 2.4h7.7425q2.4 0 2.4-2.4v-33.808q0-2.4-2.4-2.4h-7.7425q-2.4 0-2.4 2.4z" clip-path="url(#a)" fill="#fff" stroke="#fff"/>
<g clip-path="url(#a)">
<defs>
<path id="e" d="m-0.29688 72.906h61.672v-8.3125h-25.875v-64.594h-9.9062v64.594h-25.891z"/>
<path id="i" d="m56.203 29.594v-4.3906h-41.312q0.59375-9.2812 5.5938-14.141t13.938-4.8594q5.1719 0 10.031 1.2656t9.6562 3.8125v-8.5q-4.8438-2.0469-9.9219-3.125t-10.297-1.0781q-13.094 0-20.734 7.6094-7.6406 7.625-7.6406 20.625 0 13.422 7.25 21.297 7.25 7.8906 19.562 7.8906 11.031 0 17.453-7.1094 6.4219-7.0938 6.4219-19.297zm-8.9844 2.6406q-0.09375 7.3594-4.125 11.75-4.0312 4.4062-10.672 4.4062-7.5156 0-12.031-4.25t-5.2031-11.969z"/>
<path id="l" d="m41.109 46.297q-1.5156 0.875-3.2969 1.2812-1.7812 0.42188-3.9219 0.42188-7.625 0-11.703-4.9531t-4.0781-14.234v-28.812h-9.0312v54.688h9.0312v-8.5q2.8438 4.9844 7.375 7.3906 4.5469 2.4219 11.047 2.4219 0.92188 0 2.0469-0.125 1.125-0.10938 2.4844-0.35938z"/>
<path id="m" d="m52 44.188q3.375 6.0625 8.0625 8.9375t11.031 2.875q8.5469 0 13.188-5.9844 4.6406-5.9688 4.6406-17v-33.016h-9.0312v32.719q0 7.8594-2.7969 11.656-2.7812 3.8125-8.4844 3.8125-6.9844 0-11.047-4.6406-4.0469-4.625-4.0469-12.641v-30.906h-9.0312v32.719q0 7.9062-2.7812 11.688t-8.5938 3.7812q-6.8906 0-10.953-4.6562-4.0469-4.6562-4.0469-12.625v-30.906h-9.0312v54.688h9.0312v-8.5q3.0781 5.0312 7.375 7.4219t10.203 2.3906q5.9688 0 10.141-3.0312 4.1719-3.0156 6.1719-8.7812z"/>
<path id="h" d="m9.4219 54.688h8.9844v-54.688h-8.9844zm0 21.297h8.9844v-11.391h-8.9844z"/>
<path id="f" d="m54.891 33.016v-33.016h-8.9844v32.719q0 7.7656-3.0312 11.609-3.0312 3.8594-9.0781 3.8594-7.2812 0-11.484-4.6406-4.2031-4.625-4.2031-12.641v-30.906h-9.0312v54.688h9.0312v-8.5q3.2344 4.9375 7.5938 7.375 4.375 2.4375 10.094 2.4375 9.4219 0 14.25-5.8281 4.8438-5.8281 4.8438-17.156z"/>
<path id="j" d="m34.281 27.484q-10.891 0-15.094-2.4844t-4.2031-8.5q0-4.7812 3.1562-7.5938 3.1562-2.7969 8.5625-2.7969 7.4844 0 12 5.2969t4.5156 14.078v2zm17.922 3.7188v-31.203h-8.9844v8.2969q-3.0781-4.9688-7.6719-7.3438t-11.234-2.375q-8.3906 0-13.359 4.7188-4.9531 4.7188-4.9531 12.625 0 9.2188 6.1719 13.906 6.1875 4.6875 18.438 4.6875h12.609v0.89062q0 6.2031-4.0781 9.5938t-11.453 3.3906q-4.6875 0-9.1406-1.125-4.4375-1.125-8.5312-3.375v8.3125q4.9219 1.9062 9.5625 2.8438 4.6406 0.95312 9.0312 0.95312 11.875 0 17.734-6.1562 5.8594-6.1406 5.8594-18.641z"/>
<path id="g" d="m9.4219 75.984h8.9844v-75.984h-8.9844z"/>
</defs>
<g transform="translate(391.48 282.99) rotate(90) scale(.08 -.08)">
<use xlink:href="#e"/>
<use x="44.083984" xlink:href="#i"/>
<use x="105.607422" xlink:href="#l"/>
<use x="144.970703" xlink:href="#m"/>
<use x="242.382812" xlink:href="#h"/>
<use x="270.166016" xlink:href="#f"/>
<use x="333.544922" xlink:href="#j"/>
<use x="394.824219" xlink:href="#g"/>
</g>
</g>
<path d="m53.535 209.71 1.2354-4.2829q0.66517-2.306-1.6408-2.9712l-7.4392-2.1459q-2.306-0.66517-2.9712 1.6408l-1.2354 4.2829q-0.66517 2.306 1.6408 2.9712l7.4392 2.1459q2.306 0.66517 2.9712-1.6408z" clip-path="url(#a)" fill="#fff" stroke="#fff"/>
<g clip-path="url(#a)">
<defs>
<path id="r" d="m9.8125 72.906h9.8594v-64.609h35.5v-8.2969h-45.359z"/>
</defs>
<g transform="translate(49.63 208.59) rotate(-73.91) scale(.08 -.08)">
<use xlink:href="#r"/>
</g>
</g>
<path d="m77.566 174.91 3.0005 5.2146q1.197 2.0802 3.2772 0.88326l6.7109-3.8614q2.0802-1.197 0.88326-3.2772l-3.0005-5.2146q-1.197-2.0802-3.2772-0.88326l-6.7109 3.8614q-2.0802 1.197-0.88326 3.2772z" clip-path="url(#a)" fill="#fff" stroke="#fff"/>
<g clip-path="url(#a)">
<g transform="translate(81.088 172.88) rotate(60.084) scale(.08 -.08)">
<use xlink:href="#v"/>
</g>
</g>
<path d="m23.668 282.99v33.808q0 2.4 2.4 2.4h7.7425q2.4 0 2.4-2.4v-33.808q0-2.4-2.4-2.4h-7.7425q-2.4 0-2.4 2.4z" clip-path="url(#a)" fill="#fff" stroke="#fff"/>
<g clip-path="url(#a)">
<g transform="translate(27.732 282.99) rotate(90) scale(.08 -.08)">
<use xlink:href="#e"/>
<use x="44.083984" xlink:href="#i"/>
<use x="105.607422" xlink:href="#l"/>
<use x="144.970703" xlink:href="#m"/>
<use x="242.382812" xlink:href="#h"/>
<use x="270.166016" xlink:href="#f"/>
<use x="333.544922" xlink:href="#j"/>
<use x="394.824219" xlink:href="#g"/>
</g>
</g>
<path d="m77.574 243.65 3.638-4.0882q1.5955-1.7929-0.19744-3.3884l-5.784-5.147q-1.7929-1.5955-3.3884 0.19744l-3.638 4.0882q-1.5955 1.7929 0.19744 3.3884l5.784 5.147q1.7929 1.5955 3.3884-0.19744z" clip-path="url(#a)" fill="#fff" stroke="#fff"/>
<g clip-path="url(#a)">
<g transform="translate(74.539 240.95) rotate(-48.335) scale(.08 -.08)">
<use xlink:href="#p"/>
</g>
</g>
<path d="m89.982 243.11 2.9013-5.434q1.1304-2.1171-0.98674-3.2475l-6.8299-3.6467q-2.1171-1.1304-3.2475 0.98674l-2.9013 5.434q-1.1304 2.1171 0.98674 3.2475l6.8299 3.6467q2.1171 1.1304 3.2475-0.98674z" clip-path="url(#a)" fill="#fff" stroke="#fff"/>
<g clip-path="url(#a)">
<defs>
<path id="ak" d="m19.672 64.797v-56.688h11.922q15.094 0 22.094 6.8281 7 6.8438 7 21.594 0 14.641-7 21.453t-22.094 6.8125zm-9.8594 8.1094h20.266q21.188 0 31.094-8.8125 9.9219-8.8125 9.9219-27.562 0-18.859-9.9688-27.703-9.9531-8.8281-31.047-8.8281h-20.266z"/>
</defs>
<g transform="translate(86.398 241.2) rotate(-61.901) scale(.08 -.08)">
<use xlink:href="#ak"/>
</g>
</g>
<path d="m105.9 240.72 0.48507-5.451q0.21273-2.3906-2.1778-2.6033l-7.712-0.68628q-2.3906-0.21273-2.6033 2.1778l-0.48507 5.451q-0.21273 2.3906 2.1778 2.6033l7.712 0.68628q2.3906 0.21273 2.6033-2.1778z" clip-path="url(#a)" fill="#fff" stroke="#fff"/>
<g clip-path="url(#a)">
<g transform="translate(101.85 240.36) rotate(-84.915) scale(.08 -.08)">
<use xlink:href="#p"/>
</g>
</g>
<path d="m109.84 237.49 2.2247 4.9999q0.97564 2.1927 3.1684 1.2171l7.0739-3.1474q2.1927-0.97564 1.2171-3.1684l-2.2247-4.9999q-0.97564-2.1927-3.1684-1.2171l-7.0739 3.1474q-2.1927 0.97564-1.2171 3.1684z" clip-path="url(#a)" fill="#fff" stroke="#fff"/>
<g clip-path="url(#a)">
<g transform="translate(113.55 235.84) rotate(66.014) scale(.08 -.08)">
<use xlink:href="#p"/>
</g>
</g>
<path d="m130.22 240.37 3.5209 3.2972q1.7518 1.6405 3.3923-0.11131l5.2923-5.6514q1.6405-1.7518-0.11131-3.3923l-3.5209-3.2972q-1.7518-1.6405-3.3923 0.11131l-5.2923 5.6514q-1.6405 1.7518 0.11131 3.3923z" clip-path="url(#a)" fill="#fff" stroke="#fff"/>
<g clip-path="url(#a)">
<g transform="translate(133 237.4) rotate(43.121) scale(.08 -.08)">
<use xlink:href="#o"/>
</g>
</g>
<path d="m40.457 282.99v33.808q0 2.4 2.4 2.4h7.7425q2.4 0 2.4-2.4v-33.808q0-2.4-2.4-2.4h-7.7425q-2.4 0-2.4 2.4z" clip-path="url(#a)" fill="#fff" stroke="#fff"/>
<g clip-path="url(#a)">
<g transform="translate(44.52 282.99) rotate(90) scale(.08 -.08)">
<use xlink:href="#e"/>
<use x="44.083984" xlink:href="#i"/>
<use x="105.607422" xlink:href="#l"/>
<use x="144.970703" xlink:href="#m"/>
<use x="242.382812" xlink:href="#h"/>
<use x="270.166016" xlink:href="#f"/>
<use x="333.544922" xlink:href="#j"/>
<use x="394.824219" xlink:href="#g"/>
</g>
</g>
<path d="m62.841 282.99v33.808q0 2.4 2.4 2.4h7.7425q2.4 0 2.4-2.4v-33.808q0-2.4-2.4-2.4h-7.7425q-2.4 0-2.4 2.4z" clip-path="url(#a)" fill="#fff" stroke="#fff"/>
<g clip-path="url(#a)">
<g transform="translate(66.905 282.99) rotate(90) scale(.08 -.08)">
<use xlink:href="#e"/>
<use x="44.083984" xlink:href="#i"/>
<use x="105.607422" xlink:href="#l"/>
<use x="144.970703" xlink:href="#m"/>
<use x="242.382812" xlink:href="#h"/>
<use x="270.166016" xlink:href="#f"/>
<use x="333.544922" xlink:href="#j"/>
<use x="394.824219" xlink:href="#g"/>
</g>
</g>
<path d="m90.822 282.99v33.808q0 2.4 2.4 2.4h7.7425q2.4 0 2.4-2.4v-33.808q0-2.4-2.4-2.4h-7.7425q-2.4 0-2.4 2.4z" clip-path="url(#a)" fill="#fff" stroke="#fff"/>
<g clip-path="url(#a)">
<g transform="translate(94.886 282.99) rotate(90) scale(.08 -.08)">
<use xlink:href="#e"/>
<use x="44.083984" xlink:href="#i"/>
<use x="105.607422" xlink:href="#l"/>
<use x="144.970703" xlink:href="#m"/>
<use x="242.382812" xlink:href="#h"/>
<use x="270.166016" xlink:href="#f"/>
<use x="333.544922" xlink:href="#j"/>
<use x="394.824219" xlink:href="#g"/>
</g>
</g>
<path d="m124.4 282.99v33.808q0 2.4 2.4 2.4h7.7425q2.4 0 2.4-2.4v-33.808q0-2.4-2.4-2.4h-7.7425q-2.4 0-2.4 2.4z" clip-path="url(#a)" fill="#fff" stroke="#fff"/>
<g clip-path="url(#a)">
<g transform="translate(128.46 282.99) rotate(90) scale(.08 -.08)">
<use xlink:href="#e"/>
<use x="44.083984" xlink:href="#i"/>
<use x="105.607422" xlink:href="#l"/>
<use x="144.970703" xlink:href="#m"/>
<use x="242.382812" xlink:href="#h"/>
<use x="270.166016" xlink:href="#f"/>
<use x="333.544922" xlink:href="#j"/>
<use x="394.824219" xlink:href="#g"/>
</g>
</g>
<path d="m163.57 282.99v33.808q0 2.4 2.4 2.4h7.7425q2.4 0 2.4-2.4v-33.808q0-2.4-2.4-2.4h-7.7425q-2.4 0-2.4 2.4z" clip-path="url(#a)" fill="#fff" stroke="#fff"/>
<g clip-path="url(#a)">
<g transform="translate(167.64 282.99) rotate(90) scale(.08 -.08)">
<use xlink:href="#e"/>
<use x="44.083984" xlink:href="#i"/>
<use x="105.607422" xlink:href="#l"/>
<use x="144.970703" xlink:href="#m"/>
<use x="242.382812" xlink:href="#h"/>
<use x="270.166016" xlink:href="#f"/>
<use x="333.544922" xlink:href="#j"/>
<use x="394.824219" xlink:href="#g"/>
</g>
</g>
<path d="m219.53 282.99v33.808q0 2.4 2.4 2.4h7.7425q2.4 0 2.4-2.4v-33.808q0-2.4-2.4-2.4h-7.7425q-2.4 0-2.4 2.4z" clip-path="url(#a)" fill="#fff" stroke="#fff"/>
<g clip-path="url(#a)">
<g transform="translate(223.6 282.99) rotate(90) scale(.08 -.08)">
<use xlink:href="#e"/>
<use x="44.083984" xlink:href="#i"/>
<use x="105.607422" xlink:href="#l"/>
<use x="144.970703" xlink:href="#m"/>
<use x="242.382812" xlink:href="#h"/>
<use x="270.166016" xlink:href="#f"/>
<use x="333.544922" xlink:href="#j"/>
<use x="394.824219" xlink:href="#g"/>
</g>
</g>
<path d="m269.9 282.99v33.808q0 2.4 2.4 2.4h7.7425q2.4 0 2.4-2.4v-33.808q0-2.4-2.4-2.4h-7.7425q-2.4 0-2.4 2.4z" clip-path="url(#a)" fill="#fff" stroke="#fff"/>
<g clip-path="url(#a)">
<g transform="translate(273.96 282.99) rotate(90) scale(.08 -.08)">
<use xlink:href="#e"/>
<use x="44.083984" xlink:href="#i"/>
<use x="105.607422" xlink:href="#l"/>
<use x="144.970703" xlink:href="#m"/>
<use x="242.382812" xlink:href="#h"/>
<use x="270.166016" xlink:href="#f"/>
<use x="333.544922" xlink:href="#j"/>
<use x="394.824219" xlink:href="#g"/>
</g>
</g>
<path d="m325.86 282.99v33.808q0 2.4 2.4 2.4h7.7425q2.4 0 2.4-2.4v-33.808q0-2.4-2.4-2.4h-7.7425q-2.4 0-2.4 2.4z" clip-path="url(#a)" fill="#fff" stroke="#fff"/>
<g clip-path="url(#a)">
<g transform="translate(329.92 282.99) rotate(90) scale(.08 -.08)">
<use xlink:href="#e"/>
<use x="44.083984" xlink:href="#i"/>
<use x="105.607422" xlink:href="#l"/>
<use x="144.970703" xlink:href="#m"/>
<use x="242.382812" xlink:href="#h"/>
<use x="270.166016" xlink:href="#f"/>
<use x="333.544922" xlink:href="#j"/>
<use x="394.824219" xlink:href="#g"/>
</g>
</g>
<path d="m454.57 282.99v33.808q0 2.4 2.4 2.4h7.7425q2.4 0 2.4-2.4v-33.808q0-2.4-2.4-2.4h-7.7425q-2.4 0-2.4 2.4z" clip-path="url(#a)" fill="#fff" stroke="#fff"/>
<g clip-path="url(#a)">
<g transform="translate(458.64 282.99) rotate(90) scale(.08 -.08)">
<use xlink:href="#e"/>
<use x="44.083984" xlink:href="#i"/>
<use x="105.607422" xlink:href="#l"/>
<use x="144.970703" xlink:href="#m"/>
<use x="242.382812" xlink:href="#h"/>
<use x="270.166016" xlink:href="#f"/>
<use x="333.544922" xlink:href="#j"/>
<use x="394.824219" xlink:href="#g"/>
</g>
</g>
<path d="m527.32 282.99v33.808q0 2.4 2.4 2.4h7.7425q2.4 0 2.4-2.4v-33.808q0-2.4-2.4-2.4h-7.7425q-2.4 0-2.4 2.4z" clip-path="url(#a)" fill="#fff" stroke="#fff"/>
<g clip-path="url(#a)">
<g transform="translate(531.39 282.99) rotate(90) scale(.08 -.08)">
<use xlink:href="#e"/>
<use x="44.083984" xlink:href="#i"/>
<use x="105.607422" xlink:href="#l"/>
<use x="144.970703" xlink:href="#m"/>
<use x="242.382812" xlink:href="#h"/>
<use x="270.166016" xlink:href="#f"/>
<use x="333.544922" xlink:href="#j"/>
<use x="394.824219" xlink:href="#g"/>
</g>
</g>
<path d="m605.67 282.99v33.808q0 2.4 2.4 2.4h7.7425q2.4 0 2.4-2.4v-33.808q0-2.4-2.4-2.4h-7.7425q-2.4 0-2.4 2.4z" clip-path="url(#a)" fill="#fff" stroke="#fff"/>
<g clip-path="url(#a)">
<g transform="translate(609.73 282.99) rotate(90) scale(.08 -.08)">
<use xlink:href="#e"/>
<use x="44.083984" xlink:href="#i"/>
<use x="105.607422" xlink:href="#l"/>
<use x="144.970703" xlink:href="#m"/>
<use x="242.382812" xlink:href="#h"/>
<use x="270.166016" xlink:href="#f"/>
<use x="333.544922" xlink:href="#j"/>
<use x="394.824219" xlink:href="#g"/>
</g>
</g>
<defs>
<path id="b" d="m0 8.6603c2.2967 0 4.4997-0.9125 6.1237-2.5365 1.624-1.624 2.5365-3.827 2.5365-6.1237s-0.9125-4.4997-2.5365-6.1237c-1.624-1.624-3.827-2.5365-6.1237-2.5365s-4.4997 0.9125-6.1237 2.5365c-1.624 1.624-2.5365 3.827-2.5365 6.1237s0.9125 4.4997 2.5365 6.1237c1.624 1.624 3.827 2.5365 6.1237 2.5365z"/>
</defs>
<g clip-path="url(#a)" fill="#ffffff" stroke="#ffffff">
<use x="29.939394" y="330.909091" xlink:href="#b"/>
<use x="46.727839" y="330.909091" xlink:href="#b"/>
<use x="69.112433" y="330.909091" xlink:href="#b"/>
<use x="97.093175" y="330.909091" xlink:href="#b"/>
<use x="130.670065" y="330.909091" xlink:href="#b"/>
<use x="169.843104" y="330.909091" xlink:href="#b"/>
<use x="225.804588" y="330.909091" xlink:href="#b"/>
<use x="276.169924" y="330.909091" xlink:href="#b"/>
<use x="332.131408" y="330.909091" xlink:href="#b"/>
<use x="393.68904" y="330.909091" xlink:href="#b"/>
<use x="460.842821" y="330.909091" xlink:href="#b"/>
<use x="533.59275" y="330.909091" xlink:href="#b"/>
<use x="611.938828" y="330.909091" xlink:href="#b"/>
<use x="628.727273" y="205.998291" xlink:href="#b"/>
<use x="628.727273" y="205.998291" xlink:href="#b"/>
<use x="628.727273" y="268.885102" xlink:href="#b"/>
<use x="181.035401" y="142.781644" xlink:href="#b"/>
<use x="181.035401" y="142.781644" xlink:href="#b"/>
<use x="207.306209" y="15.757576" xlink:href="#b"/>
<use x="66.314359" y="79.349844" xlink:href="#b"/>
<use x="348.298058" y="142.781644" xlink:href="#b"/>
<use x="348.298058" y="205.998291" xlink:href="#b"/>
<use x="393.68904" y="268.885102" xlink:href="#b"/>
<use x="66.314359" y="142.781644" xlink:href="#b"/>
<use x="29.939394" y="268.885102" xlink:href="#b"/>
<use x="102.689323" y="205.998291" xlink:href="#b"/>
<use x="46.727839" y="268.885102" xlink:href="#b"/>
<use x="69.112433" y="268.885102" xlink:href="#b"/>
<use x="97.093175" y="268.885102" xlink:href="#b"/>
<use x="130.670065" y="268.885102" xlink:href="#b"/>
<use x="169.843104" y="268.885102" xlink:href="#b"/>
<use x="225.804588" y="268.885102" xlink:href="#b"/>
<use x="276.169924" y="268.885102" xlink:href="#b"/>
<use x="332.131408" y="268.885102" xlink:href="#b"/>
<use x="460.842821" y="268.885102" xlink:href="#b"/>
<use x="533.59275" y="268.885102" xlink:href="#b"/>
<use x="611.938828" y="268.885102" xlink:href="#b"/>
</g>
<g clip-path="url(#a)">
<defs>
<path id="af" d="m45.406 46.391v29.594h8.9844v-75.984h-8.9844v8.2031q-2.8281-4.875-7.1562-7.25-4.3125-2.375-10.375-2.375-9.9062 0-16.141 7.9062-6.2188 7.9219-6.2188 20.812t6.2188 20.797q6.2344 7.9062 16.141 7.9062 6.0625 0 10.375-2.375 4.3281-2.3594 7.1562-7.2344zm-30.609-19.094q0-9.9062 4.0781-15.547t11.203-5.6406 11.219 5.6406q4.1094 5.6406 4.1094 15.547t-4.1094 15.547q-4.0938 5.6406-11.219 5.6406t-11.203-5.6406-4.0781-15.547z"/>
</defs>
<g transform="translate(19.937 333.67) scale(.1 -.1)">
<use xlink:href="#q"/>
<use x="73.193359" xlink:href="#f"/>
<use x="136.572266" xlink:href="#af"/>
</g>
</g>
<g clip-path="url(#a)">
<defs>
<path id="ah" d="m53.516 70.516v-9.625q-5.6094 2.6875-10.594 4-4.9844 1.3281-9.625 1.3281-8.0469 0-12.422-3.125t-4.375-8.8906q0-4.8438 2.9062-7.3125 2.9062-2.4531 11.016-3.9688l5.9531-1.2188q11.031-2.1094 16.281-7.4062t5.25-14.172q0-10.609-7.1094-16.078-7.0938-5.4688-20.812-5.4688-5.1719 0-11.016 1.1719-5.8281 1.1719-12.078 3.4688v10.156q6-3.3594 11.766-5.0781 5.7656-1.7031 11.328-1.7031 8.4375 0 13.031 3.3125 4.5938 3.3281 4.5938 9.4844 0 5.3594-3.2969 8.3906t-10.812 4.5469l-6.0156 1.1719q-11.031 2.1875-15.969 6.875-4.9219 4.6875-4.9219 13.047 0 9.6719 6.8125 15.234t18.766 5.5625q5.1406 0 10.453-0.9375 5.3281-0.92188 10.891-2.7656z"/>
</defs>
<g transform="translate(39.088 333.67) scale(.1 -.1)">
<use xlink:href="#ah"/>
<use x="63.476562" xlink:href="#h"/>
<use x="91.259766" xlink:href="#i"/>
</g>
</g>
<g clip-path="url(#a)">
<defs>
<path id="ad" d="m4.2031 54.688h8.9844l11.234-42.672 11.172 42.672h10.594l11.234-42.672 11.188 42.672h8.9844l-14.312-54.688h-10.594l-11.766 44.828-11.812-44.828h-10.609z"/>
<path id="ae" d="m30.609 48.391q-7.2188 0-11.422-5.6406t-4.2031-15.453 4.1719-15.453q4.1875-5.6406 11.453-5.6406 7.1875 0 11.375 5.6562 4.2031 5.6719 4.2031 15.438 0 9.7188-4.2031 15.406-4.1875 5.6875-11.375 5.6875zm0 7.6094q11.719 0 18.406-7.625 6.7031-7.6094 6.7031-21.078 0-13.422-6.7031-21.078-6.6875-7.6406-18.406-7.6406-11.766 0-18.438 7.6406-6.6562 7.6562-6.6562 21.078 0 13.469 6.6562 21.078 6.6719 7.625 18.438 7.625z"/>
</defs>
<g transform="translate(52.941 333.67) scale(.1 -.1)">
<use xlink:href="#ad"/>
<use x="81.787109" xlink:href="#ae"/>
<use x="142.96875" xlink:href="#g"/>
<use x="170.751953" xlink:href="#g"/>
<use x="198.535156" xlink:href="#i"/>
<use x="260.058594" xlink:href="#f"/>
</g>
</g>
<g clip-path="url(#a)">
<defs>
<path id="ag" d="m48.781 52.594v-8.4062q-3.8125 2.1094-7.6406 3.1562t-7.7344 1.0469q-8.75 0-13.594-5.5469-4.8281-5.5312-4.8281-15.547t4.8281-15.562q4.8438-5.5312 13.594-5.5312 3.9062 0 7.7344 1.0469t7.6406 3.1562v-8.3125q-3.7656-1.75-7.7969-2.625-4.0156-0.89062-8.5625-0.89062-12.359 0-19.641 7.7656-7.2656 7.7656-7.2656 20.953 0 13.375 7.3438 21.031 7.3594 7.6719 20.156 7.6719 4.1406 0 8.0938-0.85938 3.9531-0.84375 7.6719-2.5469z"/>
<path id="u" d="m54.891 33.016v-33.016h-8.9844v32.719q0 7.7656-3.0312 11.609-3.0312 3.8594-9.0781 3.8594-7.2812 0-11.484-4.6406-4.2031-4.625-4.2031-12.641v-30.906h-9.0312v75.984h9.0312v-29.797q3.2344 4.9375 7.5938 7.375 4.375 2.4375 10.094 2.4375 9.4219 0 14.25-5.8281 4.8438-5.8281 4.8438-17.156z"/>
</defs>
<g transform="translate(84.916 333.67) scale(.1 -.1)">
<use xlink:href="#m"/>
<use x="97.412109" xlink:href="#h"/>
<use x="125.195312" xlink:href="#ag"/>
<use x="180.175781" xlink:href="#u"/>
</g>
</g>
<g clip-path="url(#a)">
<g transform="translate(116.71 333.67) scale(.1 -.1)">
<use xlink:href="#af"/>
<use x="63.476562" xlink:href="#j"/>
<use x="124.755859" xlink:href="#u"/>
<use x="188.134766" xlink:href="#h"/>
<use x="215.917969" xlink:href="#f"/>
</g>
</g>
<g clip-path="url(#a)">
<defs>
<path id="aq" d="m37.109 75.984v-7.4844h-8.5938q-4.8281 0-6.7188-1.9531-1.875-1.9531-1.875-7.0312v-4.8281h14.797v-6.9844h-14.797v-47.703h-9.0312v47.703h-8.5938v6.9844h8.5938v3.8125q0 9.125 4.25 13.297 4.25 4.1875 13.469 4.1875z"/>
<path id="ap" d="m8.5 21.578v33.109h8.9844v-32.766q0-7.7656 3.0156-11.656 3.0312-3.875 9.0938-3.875 7.2656 0 11.484 4.6406 4.2344 4.6406 4.2344 12.656v31h8.9844v-54.688h-8.9844v8.4062q-3.2656-4.9844-7.5938-7.4062-4.3125-2.4219-10.031-2.4219-9.4219 0-14.312 5.8594-4.875 5.8594-4.875 17.141zm22.609 34.422m4.4844 19.781h9.9062v-9.8594h-9.9062zm-19.094 0h9.9062v-9.8594h-9.9062z"/>
</defs>
<g transform="translate(153.56 333.67) scale(.1 -.1)">
<use xlink:href="#aq"/>
<use x="35.205078" xlink:href="#ap"/>
<use x="98.583984" xlink:href="#u"/>
<use x="161.962891" xlink:href="#l"/>
<use x="200.826172" xlink:href="#i"/>
<use x="262.349609" xlink:href="#f"/>
</g>
</g>
<g clip-path="url(#a)">
<defs>
<path id="al" d="m19.094 12.406h9.9062v-12.406h-9.9062zm9.625 7.1719h-9.3281v7.5156q0 4.9375 1.3594 8.1094 1.375 3.1719 5.7656 7.375l4.3906 4.3438q2.7812 2.5938 4.0312 4.8906t1.25 4.6875q0 4.3438-3.2031 7.0312t-8.4688 2.6875q-3.8594 0-8.2344-1.7188-4.3594-1.7031-9.1094-4.9844v9.1875q4.5938 2.7812 9.2969 4.1406 4.7188 1.375 9.75 1.375 8.9844 0 14.422-4.7344 5.4531-4.7344 5.4531-12.5 0-3.7188-1.7656-7.0625-1.75-3.3438-6.1406-7.5312l-4.2969-4.2031q-2.2969-2.2969-3.25-3.5938t-1.3438-2.5156q-0.29688-1.0156-0.4375-2.4844t-0.14062-4z"/>
</defs>
<g transform="translate(223.15 333.67) scale(.1 -.1)">
<use xlink:href="#al"/>
</g>
</g>
<g clip-path="url(#a)">
<defs>
<path id="ac" d="m51.812 51.703v-9.3125l-14.703-13.094 14.703-13.078v-9.3281l-22.906 20.406v4zm-21.203 0v-9.3125l-14.688-13.094 14.688-13.078v-9.3281l-22.891 20.406v4z"/>
</defs>
<g transform="translate(273.11 333.67) scale(.1 -.1)">
<use xlink:href="#ac"/>
</g>
</g>
<g clip-path="url(#a)">
<defs>
<path id="ab" d="m9.4219 51.703 22.906-20.406v-4l-22.906-20.406v9.3281l14.703 13.078-14.703 13.094zm21.188 0 22.906-20.406v-4l-22.906-20.406v9.3281l14.703 13.078-14.703 13.094z"/>
</defs>
<g transform="translate(329.07 333.67) scale(.1 -.1)">
<use xlink:href="#ab"/>
</g>
</g>
<g clip-path="url(#a)">
<defs>
<path id="ai" d="m9.8125 72.906h9.8594v-67.828q0-13.188-5-19.141t-16.094-5.9531h-3.75v8.2969h3.0781q6.5312 0 9.2188 3.6719 2.6875 3.6562 2.6875 13.125z"/>
</defs>
<g transform="translate(377.44 333.67) scale(.1 -.1)">
<use xlink:href="#ai"/>
<use x="29.492188" xlink:href="#j"/>
<use x="90.771484" xlink:href="#ad"/>
<use x="172.558594" xlink:href="#ae"/>
<use x="233.740234" xlink:href="#u"/>
<use x="297.119141" xlink:href="#g"/>
</g>
</g>
<g clip-path="url(#a)">
<defs>
<path id="d" d="m10.688 12.406h10.312v-12.406h-10.312z"/>
</defs>
<g transform="translate(459.25 333.67) scale(.1 -.1)">
<use xlink:href="#d"/>
</g>
</g>
<g clip-path="url(#a)">
<g transform="translate(530.53 333.67) scale(.1 -.1)">
<use xlink:href="#ac"/>
</g>
</g>
<g clip-path="url(#a)">
<g transform="translate(608.88 333.67) scale(.1 -.1)">
<use xlink:href="#ab"/>
</g>
</g>
<g clip-path="url(#a)">
<defs>
<path id="k" d="m9.8125 72.906h9.8594v-72.906h-9.8594z"/>
<path id="s" d="m9.8125 72.906h14.703l18.594-49.609 18.703 49.609h14.703v-72.906h-9.625v64.016l-18.797-50h-9.9062l-18.797 50v-64.016h-9.5781z"/>
<path id="t" d="m64.406 67.281v-10.391q-4.9844 4.6406-10.625 6.9219-5.6406 2.2969-11.984 2.2969-12.5 0-19.141-7.6406t-6.6406-22.094q0-14.406 6.6406-22.047t19.141-7.6406q6.3438 0 11.984 2.2969t10.625 6.9375v-10.312q-5.1719-3.5156-10.969-5.2812-5.7812-1.75-12.219-1.75-16.562 0-26.094 10.125-9.5156 10.141-9.5156 27.672 0 17.578 9.5156 27.703 9.5312 10.141 26.094 10.141 6.5312 0 12.312-1.7344 5.7969-1.7344 10.875-5.2031z"/>
</defs>
<g transform="translate(607.64 208.76) scale(.1 -.1)">
<use xlink:href="#k"/>
<use x="29.492188" xlink:href="#s"/>
<use x="115.771484" xlink:href="#o"/>
<use x="176.074219" xlink:href="#r"/>
<use x="231.787109" xlink:href="#k"/>
<use x="261.279297" xlink:href="#t"/>
<use x="331.103516" xlink:href="#k"/>
<use x="360.595703" xlink:href="#e"/>
</g>
</g>
<g clip-path="url(#a)">
<g transform="translate(607.64 208.76) scale(.1 -.1)">
<use xlink:href="#k"/>
<use x="29.492188" xlink:href="#s"/>
<use x="115.771484" xlink:href="#o"/>
<use x="176.074219" xlink:href="#r"/>
<use x="231.787109" xlink:href="#k"/>
<use x="261.279297" xlink:href="#t"/>
<use x="331.103516" xlink:href="#k"/>
<use x="360.595703" xlink:href="#e"/>
</g>
</g>
<g clip-path="url(#a)">
<g transform="translate(607.64 271.64) scale(.1 -.1)">
<use xlink:href="#k"/>
<use x="29.492188" xlink:href="#s"/>
<use x="115.771484" xlink:href="#o"/>
<use x="176.074219" xlink:href="#r"/>
<use x="231.787109" xlink:href="#k"/>
<use x="261.279297" xlink:href="#t"/>
<use x="331.103516" xlink:href="#k"/>
<use x="360.595703" xlink:href="#e"/>
</g>
</g>
<g clip-path="url(#a)">
<g transform="translate(159.95 145.54) scale(.1 -.1)">
<use xlink:href="#k"/>
<use x="29.492188" xlink:href="#s"/>
<use x="115.771484" xlink:href="#o"/>
<use x="176.074219" xlink:href="#r"/>
<use x="231.787109" xlink:href="#k"/>
<use x="261.279297" xlink:href="#t"/>
<use x="331.103516" xlink:href="#k"/>
<use x="360.595703" xlink:href="#e"/>
</g>
</g>
<g clip-path="url(#a)">
<g transform="translate(159.95 145.54) scale(.1 -.1)">
<use xlink:href="#k"/>
<use x="29.492188" xlink:href="#s"/>
<use x="115.771484" xlink:href="#o"/>
<use x="176.074219" xlink:href="#r"/>
<use x="231.787109" xlink:href="#k"/>
<use x="261.279297" xlink:href="#t"/>
<use x="331.103516" xlink:href="#k"/>
<use x="360.595703" xlink:href="#e"/>
</g>
</g>
<g clip-path="url(#a)">
<defs>
<path id="c" d="m12.406 8.2969h16.109v55.625l-17.531-3.5156v8.9844l17.438 3.5156h9.8594v-64.609h16.109v-8.2969h-41.984z"/>
</defs>
<g transform="translate(199.35 18.517) scale(.1 -.1)">
<use xlink:href="#c"/>
<use x="63.623047" xlink:href="#d"/>
<use x="95.410156" xlink:href="#c"/>
</g>
</g>
<g clip-path="url(#a)">
<defs>
<path id="n" d="m19.188 8.2969h34.422v-8.2969h-46.281v8.2969q5.6094 5.8125 15.297 15.594 9.7031 9.7969 12.188 12.641 4.7344 5.3125 6.6094 9 1.8906 3.6875 1.8906 7.25 0 5.8125-4.0781 9.4688-4.0781 3.6719-10.625 3.6719-4.6406 0-9.7969-1.6094-5.1406-1.6094-11-4.8906v9.9688q5.9531 2.3906 11.125 3.6094 5.1875 1.2188 9.4844 1.2188 11.328 0 18.062-5.6719 6.7344-5.6562 6.7344-15.125 0-4.5-1.6875-8.5312-1.6719-4.0156-6.125-9.4844-1.2188-1.4219-7.7656-8.1875-6.5312-6.7656-18.453-18.922z"/>
</defs>
<g transform="translate(58.363 82.109) scale(.1 -.1)">
<use xlink:href="#c"/>
<use x="63.623047" xlink:href="#d"/>
<use x="95.410156" xlink:href="#n"/>
</g>
</g>
<g clip-path="url(#a)">
<defs>
<path id="x" d="m40.578 39.312q7.0781-1.5156 11.047-6.3125 3.9844-4.7812 3.9844-11.812 0-10.781-7.4219-16.703-7.4219-5.9062-21.094-5.9062-4.5781 0-9.4375 0.90625t-10.031 2.7188v9.5156q4.0938-2.3906 8.9688-3.6094 4.8906-1.2188 10.219-1.2188 9.2656 0 14.125 3.6562t4.8594 10.641q0 6.4531-4.5156 10.078-4.5156 3.6406-12.562 3.6406h-8.5v8.1094h8.8906q7.2656 0 11.125 2.9062t3.8594 8.375q0 5.6094-3.9844 8.6094-3.9688 3.0156-11.391 3.0156-4.0625 0-8.7031-0.89062-4.6406-0.875-10.203-2.7188v8.7812q5.625 1.5625 10.531 2.3438t9.25 0.78125q11.234 0 17.766-5.1094 6.5469-5.0938 6.5469-13.781 0-6.0625-3.4688-10.234t-9.8594-5.7812z"/>
</defs>
<g transform="translate(340.35 145.54) scale(.1 -.1)">
<use xlink:href="#c"/>
<use x="63.623047" xlink:href="#d"/>
<use x="95.410156" xlink:href="#x"/>
</g>
</g>
<g clip-path="url(#a)">
<defs>
<path id="w" d="m10.984 1.5156v8.9844q3.7188-1.7656 7.5156-2.6875 3.8125-0.92188 7.4844-0.92188 9.7656 0 14.906 6.5625 5.1562 6.5625 5.8906 19.953-2.8281-4.2031-7.1875-6.4531-4.3438-2.25-9.6094-2.25-10.938 0-17.312 6.6094-6.375 6.625-6.375 18.109 0 11.219 6.6406 18 6.6406 6.7969 17.672 6.7969 12.656 0 19.312-9.7031 6.6719-9.6875 6.6719-28.141 0-17.234-8.1875-27.516-8.1719-10.281-21.984-10.281-3.7188 0-7.5312 0.73438-3.7969 0.73438-7.9062 2.2031zm19.625 30.906q6.6406 0 10.516 4.5312 3.8906 4.5469 3.8906 12.469 0 7.8594-3.8906 12.422-3.875 4.5625-10.516 4.5625t-10.516-4.5625-3.875-12.422q0-7.9219 3.875-12.469 3.875-4.5312 10.516-4.5312z"/>
</defs>
<g transform="translate(340.35 208.76) scale(.1 -.1)">
<use xlink:href="#c"/>
<use x="63.623047" xlink:href="#d"/>
<use x="95.410156" xlink:href="#w"/>
</g>
</g>
<g clip-path="url(#a)">
<g transform="translate(382.56 271.64) scale(.1 -.1)">
<use xlink:href="#c"/>
<use x="63.623047" xlink:href="#d"/>
<use x="95.410156" xlink:href="#c"/>
<use x="159.033203" xlink:href="#c"/>
</g>
</g>
<g clip-path="url(#a)">
<defs>
<path id="z" d="m8.2031 72.906h46.875v-4.2031l-26.469-68.703h-10.297l24.906 64.594h-35.016z"/>
</defs>
<g transform="translate(55.182 145.54) scale(.1 -.1)">
<use xlink:href="#c"/>
<use x="63.623047" xlink:href="#d"/>
<use x="95.410156" xlink:href="#c"/>
<use x="159.033203" xlink:href="#z"/>
</g>
</g>
<g clip-path="url(#a)">
<defs>
<path id="y" d="m31.781 34.625q-7.0312 0-11.062-3.7656-4.0156-3.7656-4.0156-10.344 0-6.5938 4.0156-10.359 4.0312-3.7656 11.062-3.7656t11.078 3.7812q4.0625 3.7969 4.0625 10.344 0 6.5781-4.0312 10.344-4.0156 3.7656-11.109 3.7656zm-9.8594 4.1875q-6.3438 1.5625-9.8906 5.9062-3.5312 4.3594-3.5312 10.609 0 8.7344 6.2188 13.812 6.2344 5.0781 17.062 5.0781 10.891 0 17.094-5.0781t6.2031-13.812q0-6.25-3.5469-10.609-3.5312-4.3438-9.8281-5.9062 7.125-1.6562 11.094-6.5 3.9844-4.8281 3.9844-11.797 0-10.609-6.4688-16.281-6.4688-5.6562-18.531-5.6562-12.047 0-18.531 5.6562-6.4688 5.6719-6.4688 16.281 0 6.9688 4 11.797 4.0156 4.8438 11.141 6.5zm-3.6094 15.578q0-5.6562 3.5312-8.8281 3.5469-3.1719 9.9375-3.1719 6.3594 0 9.9375 3.1719 3.5938 3.1719 3.5938 8.8281 0 5.6719-3.5938 8.8438-3.5781 3.1719-9.9375 3.1719-6.3906 0-9.9375-3.1719-3.5312-3.1719-3.5312-8.8438z"/>
</defs>
<g transform="translate(18.807 271.64) scale(.1 -.1)">
<use xlink:href="#c"/>
<use x="63.623047" xlink:href="#d"/>
<use x="95.410156" xlink:href="#c"/>
<use x="159.033203" xlink:href="#y"/>
</g>
</g>
<g clip-path="url(#a)">
<g transform="translate(91.557 208.76) scale(.1 -.1)">
<use xlink:href="#c"/>
<use x="63.623047" xlink:href="#d"/>
<use x="95.410156" xlink:href="#c"/>
<use x="159.033203" xlink:href="#w"/>
</g>
</g>
<g clip-path="url(#a)">
<defs>
<path id="aa" d="m31.781 66.406q-7.6094 0-11.453-7.5-3.8281-7.4844-3.8281-22.531 0-14.984 3.8281-22.484 3.8438-7.5 11.453-7.5 7.6719 0 11.5 7.5 3.8438 7.5 3.8438 22.484 0 15.047-3.8438 22.531-3.8281 7.5-11.5 7.5zm0 7.8125q12.266 0 18.734-9.7031 6.4688-9.6875 6.4688-28.141 0-18.406-6.4688-28.109-6.4688-9.6875-18.734-9.6875-12.25 0-18.719 9.6875-6.4688 9.7031-6.4688 28.109 0 18.453 6.4688 28.141 6.4688 9.7031 18.719 9.7031z"/>
</defs>
<g transform="translate(35.595 271.64) scale(.1 -.1)">
<use xlink:href="#c"/>
<use x="63.623047" xlink:href="#d"/>
<use x="95.410156" xlink:href="#n"/>
<use x="159.033203" xlink:href="#aa"/>
</g>
</g>
<g clip-path="url(#a)">
<g transform="translate(57.98 271.64) scale(.1 -.1)">
<use xlink:href="#c"/>
<use x="63.623047" xlink:href="#d"/>
<use x="95.410156" xlink:href="#n"/>
<use x="159.033203" xlink:href="#c"/>
</g>
</g>
<g clip-path="url(#a)">
<g transform="translate(85.96 271.64) scale(.1 -.1)">
<use xlink:href="#c"/>
<use x="63.623047" xlink:href="#d"/>
<use x="95.410156" xlink:href="#n"/>
<use x="159.033203" xlink:href="#n"/>
</g>
</g>
<g clip-path="url(#a)">
<g transform="translate(119.54 271.64) scale(.1 -.1)">
<use xlink:href="#c"/>
<use x="63.623047" xlink:href="#d"/>
<use x="95.410156" xlink:href="#n"/>
<use x="159.033203" xlink:href="#x"/>
</g>
</g>
<g clip-path="url(#a)">
<defs>
<path id="ao" d="m37.797 64.312-24.906-38.922h24.906zm-2.5938 8.5938h12.406v-47.516h10.406v-8.2031h-10.406v-17.188h-9.8125v17.188h-32.906v9.5156z"/>
</defs>
<g transform="translate(158.71 271.64) scale(.1 -.1)">
<use xlink:href="#c"/>
<use x="63.623047" xlink:href="#d"/>
<use x="95.410156" xlink:href="#n"/>
<use x="159.033203" xlink:href="#ao"/>
</g>
</g>
<g clip-path="url(#a)">
<defs>
<path id="an" d="m10.797 72.906h38.719v-8.3125h-29.688v-17.859q2.1406 0.73438 4.2812 1.0938 2.1562 0.35938 4.3125 0.35938 12.203 0 19.328-6.6875 7.1406-6.6875 7.1406-18.109 0-11.766-7.3281-18.297-7.3281-6.5156-20.656-6.5156-4.5938 0-9.3594 0.78125-4.75 0.78125-9.8281 2.3438v9.9219q4.3906-2.3906 9.0781-3.5625t9.9062-1.1719q8.4531 0 13.375 4.4375 4.9375 4.4375 4.9375 12.062 0 7.6094-4.9375 12.047-4.9219 4.4531-13.375 4.4531-3.9531 0-7.8906-0.875-3.9219-0.875-8.0156-2.7344z"/>
</defs>
<g transform="translate(214.67 271.64) scale(.1 -.1)">
<use xlink:href="#c"/>
<use x="63.623047" xlink:href="#d"/>
<use x="95.410156" xlink:href="#n"/>
<use x="159.033203" xlink:href="#an"/>
</g>
</g>
<g clip-path="url(#a)">
<defs>
<path id="am" d="m33.016 40.375q-6.6406 0-10.531-4.5469-3.875-4.5312-3.875-12.438 0-7.8594 3.875-12.438 3.8906-4.5625 10.531-4.5625t10.516 4.5625q3.875 4.5781 3.875 12.438 0 7.9062-3.875 12.438-3.875 4.5469-10.516 4.5469zm19.578 30.922v-8.9844q-3.7188 1.75-7.5 2.6719-3.7812 0.9375-7.5 0.9375-9.7656 0-14.922-6.5938-5.1406-6.5938-5.875-19.922 2.875 4.25 7.2188 6.5156 4.3594 2.2656 9.5781 2.2656 10.984 0 17.359-6.6719 6.375-6.6562 6.375-18.125 0-11.234-6.6406-18.031-6.6406-6.7812-17.672-6.7812-12.656 0-19.344 9.6875-6.6875 9.7031-6.6875 28.109 0 17.281 8.2031 27.562t22.016 10.281q3.7188 0 7.5-0.73438t7.8906-2.1875z"/>
</defs>
<g transform="translate(265.04 271.64) scale(.1 -.1)">
<use xlink:href="#c"/>
<use x="63.623047" xlink:href="#d"/>
<use x="95.410156" xlink:href="#n"/>
<use x="159.033203" xlink:href="#am"/>
</g>
</g>
<g clip-path="url(#a)">
<g transform="translate(321 271.64) scale(.1 -.1)">
<use xlink:href="#c"/>
<use x="63.623047" xlink:href="#d"/>
<use x="95.410156" xlink:href="#n"/>
<use x="159.033203" xlink:href="#z"/>
</g>
</g>
<g clip-path="url(#a)">
<g transform="translate(449.71 271.64) scale(.1 -.1)">
<use xlink:href="#c"/>
<use x="63.623047" xlink:href="#d"/>
<use x="95.410156" xlink:href="#n"/>
<use x="159.033203" xlink:href="#y"/>
</g>
</g>
<g clip-path="url(#a)">
<g transform="translate(522.46 271.64) scale(.1 -.1)">
<use xlink:href="#c"/>
<use x="63.623047" xlink:href="#d"/>
<use x="95.410156" xlink:href="#n"/>
<use x="159.033203" xlink:href="#w"/>
</g>
</g>
<g clip-path="url(#a)">
<g transform="translate(600.81 271.64) scale(.1 -.1)">
<use xlink:href="#c"/>
<use x="63.623047" xlink:href="#d"/>
<use x="95.410156" xlink:href="#x"/>
<use x="159.033203" xlink:href="#aa"/>
</g>
</g>
<defs>
<clipPath id="a">
<rect width="658.67" height="346.67"/>
</clipPath>
</defs>
</svg>
