<?xml version="1.0" encoding="UTF-8"?>
<!DOCTYPE svg  PUBLIC '-//W3C//DTD SVG 1.1//EN'  'http://www.w3.org/Graphics/SVG/1.1/DTD/svg11.dtd'>
<svg width="1266.7pt" height="666.67pt" version="1.1" viewBox="0 0 1266.7 666.67" xmlns="http://www.w3.org/2000/svg" xmlns:xlink="http://www.w3.org/1999/xlink">
<defs>
<style type="text/css">*{stroke-linecap:butt;stroke-linejoin:round;}</style>
</defs>
<path d="m0 666.67h1266.7v-666.67h-1266.7z" fill="#fff"/>
<g fill="none" stroke="#000">
<path d="m484.16 30.303-383.83 122.29" clip-path="url(#a)"/>
<path d="m484.16 30.303-89.068 486.78" clip-path="url(#a)"/>
<path d="m484.16 30.303 1.1011 365.85" clip-path="url(#a)"/>
<path d="m484.16 30.303 477.87 122.29" clip-path="url(#a)"/>
<path d="m484.16 30.303-135.39 486.78" clip-path="url(#a)"/>
<path d="m484.16 30.303 129.32 486.78" clip-path="url(#a)"/>
<path d="m100.33 152.6-42.752 364.49" clip-path="url(#a)"/>
<path d="m100.33 152.6-32.825 364.49" clip-path="url(#a)"/>
<path d="m100.33 152.6-19.589 364.49" clip-path="url(#a)"/>
<path d="m100.33 152.6 98.21 121.98" clip-path="url(#a)"/>
<path d="m100.33 152.6-3.0442 364.49" clip-path="url(#a)"/>
<path d="m395.09 517.09v119.28" clip-path="url(#a)"/>
<path d="m485.26 396.15-40.535 120.94" clip-path="url(#a)"/>
<path d="m485.26 396.15 40.535 120.94" clip-path="url(#a)"/>
<path d="m962.02 152.6-252.58 121.98" clip-path="url(#a)"/>
<path d="m962.02 152.6 5.5149 364.49" clip-path="url(#a)"/>
<path d="m962.02 152.6v243.55" clip-path="url(#a)"/>
<path d="m962.02 152.6 247.07 364.49" clip-path="url(#a)"/>
<path d="m709.44 274.58-33.09 121.57" clip-path="url(#a)"/>
<path d="m709.44 274.58 33.09 242.51" clip-path="url(#a)"/>
<path d="m967.54 517.09-155.52 119.28" clip-path="url(#a)"/>
<path d="m967.54 517.09 155.52 119.28" clip-path="url(#a)"/>
<path d="m962.02 396.15-77.209 120.94" clip-path="url(#a)"/>
<path d="m962.02 396.15-1.103 120.94" clip-path="url(#a)"/>
<path d="m962.02 396.15 78.312 120.94" clip-path="url(#a)"/>
<path d="m884.81 517.09v119.28" clip-path="url(#a)"/>
<path d="m960.92 517.09v119.28" clip-path="url(#a)"/>
<path d="m1040.3 517.09v119.28" clip-path="url(#a)"/>
<path d="m676.35 396.15v120.94" clip-path="url(#a)"/>
<path d="m742.53 517.09v119.28" clip-path="url(#a)"/>
<path d="m676.35 517.09v119.28" clip-path="url(#a)"/>
<path d="m444.72 517.09v119.28" clip-path="url(#a)"/>
<path d="m525.79 517.09-28.126 119.28" clip-path="url(#a)"/>
<path d="m525.79 517.09 28.126 119.28" clip-path="url(#a)"/>
<path d="m57.576 517.09v119.28" clip-path="url(#a)"/>
<path d="m67.503 517.09v119.28" clip-path="url(#a)"/>
<path d="m80.738 517.09v119.28" clip-path="url(#a)"/>
<path d="m198.54 274.58-81.4 242.51" clip-path="url(#a)"/>
<path d="m198.54 274.58-58.238 242.51" clip-path="url(#a)"/>
<path d="m198.54 274.58-16.876 121.57" clip-path="url(#a)"/>
<path d="m198.54 274.58 49.303 242.51" clip-path="url(#a)"/>
<path d="m198.54 274.58 107.21 242.51" clip-path="url(#a)"/>
<path d="m117.14 517.09v119.28" clip-path="url(#a)"/>
<path d="m140.3 517.09v119.28" clip-path="url(#a)"/>
<path d="m181.66 396.15-14.89 120.94" clip-path="url(#a)"/>
<path d="m181.66 396.15 14.89 120.94" clip-path="url(#a)"/>
<path d="m247.84 517.09-18.199 119.28" clip-path="url(#a)"/>
<path d="m247.84 517.09 18.199 119.28" clip-path="url(#a)"/>
<path d="m305.75 517.09v119.28" clip-path="url(#a)"/>
<path d="m166.77 517.09v119.28" clip-path="url(#a)"/>
<path d="m196.55 517.09v119.28" clip-path="url(#a)"/>
<path d="m97.283 517.09v119.28" clip-path="url(#a)"/>
<path d="m348.76 517.09v119.28" clip-path="url(#a)"/>
<path d="m613.48 517.09v119.28" clip-path="url(#a)"/>
<path d="m1209.1 517.09v119.28" clip-path="url(#a)"/>
</g>
<path d="m291.28 98.338 5.7323-1.8264q2.2867-0.72858 1.5582-3.0153l-2.3504-7.3771q-0.72858-2.2867-3.0153-1.5582l-5.7323 1.8264q-2.2867 0.72858-1.5582 3.0153l2.3504 7.3771q0.72858 2.2867 3.0153 1.5582z" clip-path="url(#a)" fill="#fff" stroke="#fff"/>
<g clip-path="url(#a)">
<defs>
<path id="y" d="m9.8125 72.906h9.8594v-29.891h35.844v29.891h9.8594v-72.906h-9.8594v34.719h-35.844v-34.719h-9.8594z"/>
</defs>
<g transform="translate(290.05 94.466) rotate(-17.673) scale(.08 -.08)">
<use xlink:href="#y"/>
</g>
</g>
<path d="m445.39 277.02 0.80228-4.3847q0.43196-2.3608-1.9288-2.7928l-7.6161-1.3935q-2.3608-0.43196-2.7928 1.9288l-0.80228 4.3847q-0.43196 2.3608 1.9288 2.7928l7.6161 1.3935q2.3608 0.43196 2.7928-1.9288z" clip-path="url(#a)" fill="#fff" stroke="#fff"/>
<g clip-path="url(#a)">
<defs>
<path id="ar" d="m9.8125 72.906h9.8594v-64.609h35.5v-8.2969h-45.359z"/>
</defs>
<g transform="translate(441.39 276.28) rotate(-79.631) scale(.08 -.08)">
<use xlink:href="#ar"/>
</g>
</g>
<path d="m478.43 210.24 0.018108 6.0162q0.007223 2.4 2.4072 2.3928l7.7425-0.023304q2.4-0.007223 2.3928-2.4072l-0.018108-6.0162q-0.007224-2.4-2.4072-2.3928l-7.7425 0.023304q-2.4 0.007224-2.3928 2.4072z" clip-path="url(#a)" fill="#fff" stroke="#fff"/>
<g clip-path="url(#a)">
<g transform="translate(482.49 210.23) rotate(89.828) scale(.08 -.08)">
<use xlink:href="#y"/>
</g>
</g>
<path d="m718.62 96.779 5.8284 1.4916q2.3251 0.59502 2.9201-1.7301l1.9196-7.5008q0.59502-2.3251-1.7301-2.9201l-5.8284-1.4916q-2.3251-0.59502-2.9201 1.7301l-1.9196 7.5008q-0.59502 2.3251 1.7301 2.9201z" clip-path="url(#a)" fill="#fff" stroke="#fff"/>
<g clip-path="url(#a)">
<g transform="translate(719.63 92.842) rotate(14.355) scale(.08 -.08)">
<use xlink:href="#y"/>
</g>
</g>
<path d="m421.72 278.2 1.5689-5.6409q0.64312-2.3122-1.6691-2.9553l-7.4593-2.0747q-2.3122-0.64312-2.9553 1.6691l-1.5689 5.6409q-0.64312 2.3122 1.6691 2.9553l7.4593 2.0747q2.3122 0.64312 2.9553-1.6691z" clip-path="url(#a)" fill="#fff" stroke="#fff"/>
<g clip-path="url(#a)">
<defs>
<path id="w" d="m8.6875 72.906h9.9219v-44.297q0-11.719 4.2344-16.875 4.25-5.1406 13.781-5.1406 9.4688 0 13.719 5.1406 4.25 5.1562 4.25 16.875v44.297h9.9062v-45.516q0-14.25-7.0625-21.531-7.0469-7.2812-20.812-7.2812-13.828 0-20.891 7.2812-7.0469 7.2812-7.0469 21.531z"/>
</defs>
<g transform="translate(417.8 277.11) rotate(-74.457) scale(.08 -.08)">
<use xlink:href="#w"/>
</g>
</g>
<path d="m542.01 272.48 1.5033 5.6587q0.61623 2.3195 2.9358 1.7033l7.4829-1.988q2.3195-0.61623 1.7033-2.9358l-1.5033-5.6587q-0.61623-2.3195-2.9358-1.7033l-7.4829 1.988q-2.3195 0.61623-1.7033 2.9358z" clip-path="url(#a)" fill="#fff" stroke="#fff"/>
<g clip-path="url(#a)">
<g transform="translate(545.93 271.43) rotate(75.122) scale(.08 -.08)">
<use xlink:href="#w"/>
</g>
</g>
<path d="m84.861 338.29 0.63751-5.4352q0.27958-2.3837-2.1041-2.6632l-7.6898-0.90195q-2.3837-0.27958-2.6632 2.1041l-0.63751 5.4352q-0.27958 2.3837 2.1041 2.6632l7.6898 0.90195q2.3837 0.27958 2.6632-2.1041z" clip-path="url(#a)" fill="#fff" stroke="#fff"/>
<g clip-path="url(#a)">
<defs>
<path id="n" d="m34.188 63.188-13.391-36.281h26.812zm-5.5781 9.7188h11.188l27.781-72.906h-10.25l-6.6406 18.703h-32.859l-6.6406-18.703h-10.406z"/>
</defs>
<g transform="translate(80.825 337.82) rotate(-83.31) scale(.08 -.08)">
<use xlink:href="#n"/>
</g>
</g>
<path d="m89.945 337.81 0.43266-4.8043q0.21526-2.3903-2.1751-2.6056l-7.7113-0.69445q-2.3903-0.21526-2.6056 2.1751l-0.43266 4.8043q-0.21526 2.3903 2.1751 2.6056l7.7113 0.69445q2.3903 0.21526 2.6056-2.1751z" clip-path="url(#a)" fill="#fff" stroke="#fff"/>
<g clip-path="url(#a)">
<defs>
<path id="r" d="m19.672 64.797v-27.391h12.406q6.8906 0 10.641 3.5625 3.7656 3.5625 3.7656 10.156 0 6.5469-3.7656 10.109-3.75 3.5625-10.641 3.5625zm-9.8594 8.1094h22.266q12.266 0 18.531-5.5469 6.2812-5.5469 6.2812-16.234 0-10.797-6.2812-16.312-6.2656-5.5156-18.531-5.5156h-12.406v-29.297h-9.8594z"/>
</defs>
<g transform="translate(85.897 337.44) rotate(-84.854) scale(.08 -.08)">
<use xlink:href="#r"/>
</g>
</g>
<path d="m96.629 338.27 0.33266-6.1898q0.1288-2.3965-2.2677-2.5253l-7.7313-0.41551q-2.3965-0.1288-2.5253 2.2677l-0.33266 6.1898q-0.1288 2.3965 2.2677 2.5253l7.7313 0.41551q2.3965 0.1288 2.5253-2.2677z" clip-path="url(#a)" fill="#fff" stroke="#fff"/>
<g clip-path="url(#a)">
<defs>
<path id="au" d="m59.516 10.406v19.578h-16.109v8.1094h25.875v-31.312q-5.7031-4.0469-12.594-6.125-6.875-2.0781-14.688-2.0781-17.094 0-26.75 9.9844-9.6406 10-9.6406 27.812 0 17.875 9.6406 27.859 9.6562 9.9844 26.75 9.9844 7.125 0 13.547-1.7656 6.4219-1.75 11.844-5.1719v-10.5q-5.4688 4.6406-11.625 6.9844t-12.938 2.3438q-13.391 0-20.109-7.4688-6.7031-7.4688-6.7031-22.266 0-14.75 6.7031-22.219 6.7188-7.4688 20.109-7.4688 5.2188 0 9.3125 0.90625 4.1094 0.90625 7.375 2.8125z"/>
</defs>
<g transform="translate(92.571 338.05) rotate(-86.924) scale(.08 -.08)">
<use xlink:href="#au"/>
</g>
</g>
<path d="m142.83 215.39 3.4319 4.2627q1.5051 1.8694 3.3745 0.36435l6.0308-4.8554q1.8694-1.5051 0.36435-3.3745l-3.4319-4.2627q-1.5051-1.8694-3.3745-0.36435l-6.0308 4.8554q-1.8694 1.5051-0.36435 3.3745z" clip-path="url(#a)" fill="#fff" stroke="#fff"/>
<g clip-path="url(#a)">
<g transform="translate(146 212.84) rotate(51.162) scale(.08 -.08)">
<use xlink:href="#n"/>
</g>
</g>
<path d="m105.05 337.82 0.048899-5.8548q0.020044-2.3999-2.3799-2.42l-7.7422-0.064663q-2.3999-0.020044-2.42 2.3799l-0.0489 5.8548q-0.020044 2.3999 2.3799 2.42l7.7422 0.064664q2.3999 0.020044 2.42-2.3799z" clip-path="url(#a)" fill="#fff" stroke="#fff"/>
<g clip-path="url(#a)">
<g transform="translate(100.99 337.79) rotate(-89.521) scale(.08 -.08)">
<use xlink:href="#w"/>
</g>
</g>
<path d="m388.82 559.82v33.808q0 2.4 2.4 2.4h7.7425q2.4 0 2.4-2.4v-33.808q0-2.4-2.4-2.4h-7.7425q-2.4 0-2.4 2.4z" clip-path="url(#a)" fill="#fff" stroke="#fff"/>
<g clip-path="url(#a)">
<defs>
<path id="l" d="m-0.29688 72.906h61.672v-8.3125h-25.875v-64.594h-9.9062v64.594h-25.891z"/>
<path id="d" d="m56.203 29.594v-4.3906h-41.312q0.59375-9.2812 5.5938-14.141t13.938-4.8594q5.1719 0 10.031 1.2656t9.6562 3.8125v-8.5q-4.8438-2.0469-9.9219-3.125t-10.297-1.0781q-13.094 0-20.734 7.6094-7.6406 7.625-7.6406 20.625 0 13.422 7.25 21.297 7.25 7.8906 19.562 7.8906 11.031 0 17.453-7.1094 6.4219-7.0938 6.4219-19.297zm-8.9844 2.6406q-0.09375 7.3594-4.125 11.75-4.0312 4.4062-10.672 4.4062-7.5156 0-12.031-4.25t-5.2031-11.969z"/>
<path id="g" d="m41.109 46.297q-1.5156 0.875-3.2969 1.2812-1.7812 0.42188-3.9219 0.42188-7.625 0-11.703-4.9531t-4.0781-14.234v-28.812h-9.0312v54.688h9.0312v-8.5q2.8438 4.9844 7.375 7.3906 4.5469 2.4219 11.047 2.4219 0.92188 0 2.0469-0.125 1.125-0.10938 2.4844-0.35938z"/>
<path id="j" d="m52 44.188q3.375 6.0625 8.0625 8.9375t11.031 2.875q8.5469 0 13.188-5.9844 4.6406-5.9688 4.6406-17v-33.016h-9.0312v32.719q0 7.8594-2.7969 11.656-2.7812 3.8125-8.4844 3.8125-6.9844 0-11.047-4.6406-4.0469-4.625-4.0469-12.641v-30.906h-9.0312v32.719q0 7.9062-2.7812 11.688t-8.5938 3.7812q-6.8906 0-10.953-4.6562-4.0469-4.6562-4.0469-12.625v-30.906h-9.0312v54.688h9.0312v-8.5q3.0781 5.0312 7.375 7.4219t10.203 2.3906q5.9688 0 10.141-3.0312 4.1719-3.0156 6.1719-8.7812z"/>
<path id="f" d="m9.4219 54.688h8.9844v-54.688h-8.9844zm0 21.297h8.9844v-11.391h-8.9844z"/>
<path id="e" d="m54.891 33.016v-33.016h-8.9844v32.719q0 7.7656-3.0312 11.609-3.0312 3.8594-9.0781 3.8594-7.2812 0-11.484-4.6406-4.2031-4.625-4.2031-12.641v-30.906h-9.0312v54.688h9.0312v-8.5q3.2344 4.9375 7.5938 7.375 4.375 2.4375 10.094 2.4375 9.4219 0 14.25-5.8281 4.8438-5.8281 4.8438-17.156z"/>
<path id="i" d="m34.281 27.484q-10.891 0-15.094-2.4844t-4.2031-8.5q0-4.7812 3.1562-7.5938 3.1562-2.7969 8.5625-2.7969 7.4844 0 12 5.2969t4.5156 14.078v2zm17.922 3.7188v-31.203h-8.9844v8.2969q-3.0781-4.9688-7.6719-7.3438t-11.234-2.375q-8.3906 0-13.359 4.7188-4.9531 4.7188-4.9531 12.625 0 9.2188 6.1719 13.906 6.1875 4.6875 18.438 4.6875h12.609v0.89062q0 6.2031-4.0781 9.5938t-11.453 3.3906q-4.6875 0-9.1406-1.125-4.4375-1.125-8.5312-3.375v8.3125q4.9219 1.9062 9.5625 2.8438 4.6406 0.95312 9.0312 0.95312 11.875 0 17.734-6.1562 5.8594-6.1406 5.8594-18.641z"/>
<path id="k" d="m9.4219 75.984h8.9844v-75.984h-8.9844z"/>
</defs>
<g transform="translate(392.88 559.82) rotate(90) scale(.08 -.08)">
<use xlink:href="#l"/>
<use x="44.083984" xlink:href="#d"/>
<use x="105.607422" xlink:href="#g"/>
<use x="144.970703" xlink:href="#j"/>
<use x="242.382812" xlink:href="#f"/>
<use x="270.166016" xlink:href="#e"/>
<use x="333.544922" xlink:href="#i"/>
<use x="394.824219" xlink:href="#k"/>
</g>
</g>
<path d="m470.07 461.21 1.7392-5.1888q0.76272-2.2756-1.5129-3.0383l-7.3411-2.4606q-2.2756-0.76272-3.0383 1.5129l-1.7392 5.1888q-0.76272 2.2756 1.5129 3.0383l7.3411 2.4606q2.2756 0.76272 3.0383-1.5129z" clip-path="url(#a)" fill="#fff" stroke="#fff"/>
<g clip-path="url(#a)">
<g transform="translate(466.21 459.91) rotate(-71.47) scale(.08 -.08)">
<use xlink:href="#n"/>
</g>
</g>
<path d="m498.81 456.32 1.533 4.5737q0.76272 2.2756 3.0383 1.5129l7.3411-2.4606q2.2756-0.76272 1.5129-3.0383l-1.533-4.5737q-0.76272-2.2756-3.0383-1.5129l-7.3411 2.4606q-2.2756 0.76272-1.5129 3.0383z" clip-path="url(#a)" fill="#fff" stroke="#fff"/>
<g clip-path="url(#a)">
<g transform="translate(502.67 455.03) rotate(71.47) scale(.08 -.08)">
<use xlink:href="#r"/>
</g>
</g>
<path d="m835.99 220.43 4.9279-2.3799q2.1612-1.0437 1.1174-3.2049l-3.3671-6.972q-1.0437-2.1612-3.2049-1.1174l-4.9279 2.3799q-2.1612 1.0437-1.1174 3.2049l3.3671 6.972q1.0437 2.1612 3.2049 1.1174z" clip-path="url(#a)" fill="#fff" stroke="#fff"/>
<g clip-path="url(#a)">
<g transform="translate(834.23 216.77) rotate(-25.778) scale(.08 -.08)">
<use xlink:href="#n"/>
</g>
</g>
<path d="m958.47 332.52 0.072977 4.8232q0.036309 2.3997 2.436 2.3634l7.7416-0.11713q2.3997-0.036309 2.3634-2.436l-0.072978-4.8232q-0.036309-2.3997-2.436-2.3634l-7.7416 0.11714q-2.3997 0.036309-2.3634 2.436z" clip-path="url(#a)" fill="#fff" stroke="#fff"/>
<g clip-path="url(#a)">
<g transform="translate(962.54 332.46) rotate(89.133) scale(.08 -.08)">
<use xlink:href="#r"/>
</g>
</g>
<path d="m955.75 271.64v5.4725q0 2.4 2.4 2.4h7.7425q2.4 0 2.4-2.4v-5.4725q0-2.4-2.4-2.4h-7.7425q-2.4 0-2.4 2.4z" clip-path="url(#a)" fill="#fff" stroke="#fff"/>
<g clip-path="url(#a)">
<g transform="translate(959.82 271.64) rotate(90) scale(.08 -.08)">
<use xlink:href="#n"/>
</g>
</g>
<path d="m1078.7 335.94 3.2852 4.8465q1.3466 1.9866 3.3332 0.64l6.4089-4.3442q1.9866-1.3466 0.64-3.3332l-3.2852-4.8465q-1.3466-1.9866-3.3332-0.64l-6.4089 4.3442q-1.9866 1.3466-0.64 3.3332z" clip-path="url(#a)" fill="#fff" stroke="#fff"/>
<g clip-path="url(#a)">
<g transform="translate(1082.1 333.66) rotate(55.869) scale(.08 -.08)">
<use xlink:href="#w"/>
</g>
</g>
<path d="m698.28 339.45 1.3276-4.8776q0.63031-2.3158-1.6854-2.9461l-7.4707-2.0334q-2.3158-0.63031-2.9461 1.6854l-1.3276 4.8776q-0.63031 2.3158 1.6854 2.9461l7.4707 2.0334q2.3158 0.63031 2.9461-1.6854z" clip-path="url(#a)" fill="#fff" stroke="#fff"/>
<g clip-path="url(#a)">
<defs>
<path id="aw" d="m9.8125 72.906h46.094v-8.3125h-36.234v-21.578h34.719v-8.2969h-34.719v-26.422h37.109v-8.2969h-46.969z"/>
</defs>
<g transform="translate(694.36 338.38) rotate(-74.774) scale(.08 -.08)">
<use xlink:href="#aw"/>
</g>
</g>
<path d="m719.39 393.91 0.75523 5.535q0.32447 2.378 2.7024 2.0535l7.6714-1.0467q2.378-0.32447 2.0535-2.7024l-0.75523-5.535q-0.32447-2.378-2.7024-2.0535l-7.6714 1.0467q-2.378 0.32447-2.0535 2.7024z" clip-path="url(#a)" fill="#fff" stroke="#fff"/>
<g clip-path="url(#a)">
<defs>
<path id="ay" d="m64.406 67.281v-10.391q-4.9844 4.6406-10.625 6.9219-5.6406 2.2969-11.984 2.2969-12.5 0-19.141-7.6406t-6.6406-22.094q0-14.406 6.6406-22.047t19.141-7.6406q6.3438 0 11.984 2.2969t10.625 6.9375v-10.312q-5.1719-3.5156-10.969-5.2812-5.7812-1.75-12.219-1.75-16.562 0-26.094 10.125-9.5156 10.141-9.5156 27.672 0 17.578 9.5156 27.703 9.5312 10.141 26.094 10.141 6.5312 0 12.312-1.7344 5.7969-1.7344 10.875-5.2031z"/>
</defs>
<g transform="translate(723.42 393.36) rotate(82.23) scale(.08 -.08)">
<use xlink:href="#ay"/>
</g>
</g>
<path d="m880.18 591.99 26.826-20.574q1.9044-1.4606 0.44382-3.365l-4.7119-6.1437q-1.4606-1.9044-3.365-0.44382l-26.826 20.574q-1.9044 1.4606-0.44382 3.365l4.7119 6.1437q1.4606 1.9044 3.365 0.44382z" clip-path="url(#a)" fill="#fff" stroke="#fff"/>
<g clip-path="url(#a)">
<g transform="translate(877.71 588.76) rotate(-37.486) scale(.08 -.08)">
<use xlink:href="#l"/>
<use x="44.083984" xlink:href="#d"/>
<use x="105.607422" xlink:href="#g"/>
<use x="144.970703" xlink:href="#j"/>
<use x="242.382812" xlink:href="#f"/>
<use x="270.166016" xlink:href="#e"/>
<use x="333.544922" xlink:href="#i"/>
<use x="394.824219" xlink:href="#k"/>
</g>
</g>
<path d="m1028.1 571.41 26.826 20.574q1.9044 1.4606 3.365-0.44382l4.7119-6.1437q1.4606-1.9044-0.44382-3.365l-26.826-20.574q-1.9044-1.4606-3.365 0.44382l-4.7119 6.1437q-1.4606 1.9044 0.44382 3.365z" clip-path="url(#a)" fill="#fff" stroke="#fff"/>
<g clip-path="url(#a)">
<g transform="translate(1030.5 568.19) rotate(37.486) scale(.08 -.08)">
<use xlink:href="#l"/>
<use x="44.083984" xlink:href="#d"/>
<use x="105.607422" xlink:href="#g"/>
<use x="144.970703" xlink:href="#j"/>
<use x="242.382812" xlink:href="#f"/>
<use x="270.166016" xlink:href="#e"/>
<use x="333.544922" xlink:href="#i"/>
<use x="394.824219" xlink:href="#k"/>
</g>
</g>
<path d="m927.23 462.3 2.9448-4.6126q1.2915-2.0229-0.73142-3.3144l-6.5259-4.1663q-2.0229-1.2915-3.3144 0.73142l-2.9448 4.6126q-1.2915 2.0229 0.73142 3.3144l6.5259 4.1663q2.0229 1.2915 3.3144-0.73142z" clip-path="url(#a)" fill="#fff" stroke="#fff"/>
<g clip-path="url(#a)">
<g transform="translate(923.81 460.11) rotate(-57.445) scale(.08 -.08)">
<use xlink:href="#n"/>
</g>
</g>
<path d="m967.71 459.76 0.056179-6.1597q0.021888-2.3999-2.378-2.4218l-7.7422-0.070611q-2.3999-0.021888-2.4218 2.378l-0.05618 6.1597q-0.021888 2.3999 2.378 2.4218l7.7422 0.070611q2.3999 0.021888 2.4218-2.378z" clip-path="url(#a)" fill="#fff" stroke="#fff"/>
<g clip-path="url(#a)">
<defs>
<path id="ax" d="m19.672 64.797v-56.688h11.922q15.094 0 22.094 6.8281 7 6.8438 7 21.594 0 14.641-7 21.453t-22.094 6.8125zm-9.8594 8.1094h20.266q21.188 0 31.094-8.8125 9.9219-8.8125 9.9219-27.562 0-18.859-9.9688-27.703-9.9531-8.8281-31.047-8.8281h-20.266z"/>
</defs>
<g transform="translate(963.65 459.72) rotate(-89.477) scale(.08 -.08)">
<use xlink:href="#ax"/>
</g>
</g>
<path d="m994.6 458 2.6219 4.049q1.3045 2.0145 3.319 0.71002l6.4989-4.2084q2.0145-1.3045 0.71002-3.319l-2.6219-4.049q-1.3045-2.0145-3.319-0.71002l-6.4989 4.2084q-2.0145 1.3045-0.71002 3.319z" clip-path="url(#a)" fill="#fff" stroke="#fff"/>
<g clip-path="url(#a)">
<g transform="translate(998.01 455.79) rotate(57.075) scale(.08 -.08)">
<use xlink:href="#r"/>
</g>
</g>
<path d="m878.54 559.82v33.808q0 2.4 2.4 2.4h7.7425q2.4 0 2.4-2.4v-33.808q0-2.4-2.4-2.4h-7.7425q-2.4 0-2.4 2.4z" clip-path="url(#a)" fill="#fff" stroke="#fff"/>
<g clip-path="url(#a)">
<g transform="translate(882.61 559.82) rotate(90) scale(.08 -.08)">
<use xlink:href="#l"/>
<use x="44.083984" xlink:href="#d"/>
<use x="105.607422" xlink:href="#g"/>
<use x="144.970703" xlink:href="#j"/>
<use x="242.382812" xlink:href="#f"/>
<use x="270.166016" xlink:href="#e"/>
<use x="333.544922" xlink:href="#i"/>
<use x="394.824219" xlink:href="#k"/>
</g>
</g>
<path d="m954.65 559.82v33.808q0 2.4 2.4 2.4h7.7425q2.4 0 2.4-2.4v-33.808q0-2.4-2.4-2.4h-7.7425q-2.4 0-2.4 2.4z" clip-path="url(#a)" fill="#fff" stroke="#fff"/>
<g clip-path="url(#a)">
<g transform="translate(958.71 559.82) rotate(90) scale(.08 -.08)">
<use xlink:href="#l"/>
<use x="44.083984" xlink:href="#d"/>
<use x="105.607422" xlink:href="#g"/>
<use x="144.970703" xlink:href="#j"/>
<use x="242.382812" xlink:href="#f"/>
<use x="270.166016" xlink:href="#e"/>
<use x="333.544922" xlink:href="#i"/>
<use x="394.824219" xlink:href="#k"/>
</g>
</g>
<path d="m1034.1 559.82v33.808q0 2.4 2.4 2.4h7.7425q2.4 0 2.4-2.4v-33.808q0-2.4-2.4-2.4h-7.7425q-2.4 0-2.4 2.4z" clip-path="url(#a)" fill="#fff" stroke="#fff"/>
<g clip-path="url(#a)">
<g transform="translate(1038.1 559.82) rotate(90) scale(.08 -.08)">
<use xlink:href="#l"/>
<use x="44.083984" xlink:href="#d"/>
<use x="105.607422" xlink:href="#g"/>
<use x="144.970703" xlink:href="#j"/>
<use x="242.382812" xlink:href="#f"/>
<use x="270.166016" xlink:href="#e"/>
<use x="333.544922" xlink:href="#i"/>
<use x="394.824219" xlink:href="#k"/>
</g>
</g>
<path d="m669.95 450.12v12.991q0 2.4 2.4 2.4h8q2.4 0 2.4-2.4v-12.991q0-2.4-2.4-2.4h-8q-2.4 0-2.4 2.4z" clip-path="url(#a)" fill="#fff" stroke="#fff"/>
<g clip-path="url(#a)">
<defs>
<path id="ba" d="m21 76.422v-100h-8.2969v100z"/>
</defs>
<g transform="translate(674.24 450.12) rotate(90) scale(.08 -.08)">
<use xlink:href="#n"/>
<use x="68.408203" xlink:href="#ba"/>
<use x="102.099609" xlink:href="#r"/>
</g>
</g>
<path d="m736.26 559.82v33.808q0 2.4 2.4 2.4h7.7425q2.4 0 2.4-2.4v-33.808q0-2.4-2.4-2.4h-7.7425q-2.4 0-2.4 2.4z" clip-path="url(#a)" fill="#fff" stroke="#fff"/>
<g clip-path="url(#a)">
<g transform="translate(740.32 559.82) rotate(90) scale(.08 -.08)">
<use xlink:href="#l"/>
<use x="44.083984" xlink:href="#d"/>
<use x="105.607422" xlink:href="#g"/>
<use x="144.970703" xlink:href="#j"/>
<use x="242.382812" xlink:href="#f"/>
<use x="270.166016" xlink:href="#e"/>
<use x="333.544922" xlink:href="#i"/>
<use x="394.824219" xlink:href="#k"/>
</g>
</g>
<path d="m670.08 559.82v33.808q0 2.4 2.4 2.4h7.7425q2.4 0 2.4-2.4v-33.808q0-2.4-2.4-2.4h-7.7425q-2.4 0-2.4 2.4z" clip-path="url(#a)" fill="#fff" stroke="#fff"/>
<g clip-path="url(#a)">
<g transform="translate(674.14 559.82) rotate(90) scale(.08 -.08)">
<use xlink:href="#l"/>
<use x="44.083984" xlink:href="#d"/>
<use x="105.607422" xlink:href="#g"/>
<use x="144.970703" xlink:href="#j"/>
<use x="242.382812" xlink:href="#f"/>
<use x="270.166016" xlink:href="#e"/>
<use x="333.544922" xlink:href="#i"/>
<use x="394.824219" xlink:href="#k"/>
</g>
</g>
<path d="m438.45 559.82v33.808q0 2.4 2.4 2.4h7.7425q2.4 0 2.4-2.4v-33.808q0-2.4-2.4-2.4h-7.7425q-2.4 0-2.4 2.4z" clip-path="url(#a)" fill="#fff" stroke="#fff"/>
<g clip-path="url(#a)">
<g transform="translate(442.52 559.82) rotate(90) scale(.08 -.08)">
<use xlink:href="#l"/>
<use x="44.083984" xlink:href="#d"/>
<use x="105.607422" xlink:href="#g"/>
<use x="144.970703" xlink:href="#j"/>
<use x="242.382812" xlink:href="#f"/>
<use x="270.166016" xlink:href="#e"/>
<use x="333.544922" xlink:href="#i"/>
<use x="394.824219" xlink:href="#k"/>
</g>
</g>
<path d="m513.95 594.62 7.7592-32.905q0.55083-2.3359-1.7851-2.8868l-7.5358-1.777q-2.3359-0.55082-2.8868 1.7851l-7.7592 32.905q-0.55082 2.3359 1.7851 2.8868l7.5358 1.777q2.3359 0.55082 2.8868-1.7851z" clip-path="url(#a)" fill="#fff" stroke="#fff"/>
<g clip-path="url(#a)">
<g transform="translate(510 593.68) rotate(-76.732) scale(.08 -.08)">
<use xlink:href="#l"/>
<use x="44.083984" xlink:href="#d"/>
<use x="105.607422" xlink:href="#g"/>
<use x="144.970703" xlink:href="#j"/>
<use x="242.382812" xlink:href="#f"/>
<use x="270.166016" xlink:href="#e"/>
<use x="333.544922" xlink:href="#i"/>
<use x="394.824219" xlink:href="#k"/>
</g>
</g>
<path d="m529.87 561.71 7.7592 32.905q0.55082 2.3359 2.8868 1.7851l7.5358-1.777q2.3359-0.55082 1.7851-2.8868l-7.7592-32.905q-0.55082-2.3359-2.8868-1.7851l-7.5358 1.777q-2.3359 0.55082-1.7851 2.8868z" clip-path="url(#a)" fill="#fff" stroke="#fff"/>
<g clip-path="url(#a)">
<g transform="translate(533.83 560.78) rotate(76.732) scale(.08 -.08)">
<use xlink:href="#l"/>
<use x="44.083984" xlink:href="#d"/>
<use x="105.607422" xlink:href="#g"/>
<use x="144.970703" xlink:href="#j"/>
<use x="242.382812" xlink:href="#f"/>
<use x="270.166016" xlink:href="#e"/>
<use x="333.544922" xlink:href="#i"/>
<use x="394.824219" xlink:href="#k"/>
</g>
</g>
<path d="m51.305 559.82v33.808q0 2.4 2.4 2.4h7.7425q2.4 0 2.4-2.4v-33.808q0-2.4-2.4-2.4h-7.7425q-2.4 0-2.4 2.4z" clip-path="url(#a)" fill="#fff" stroke="#fff"/>
<g clip-path="url(#a)">
<g transform="translate(55.368 559.82) rotate(90) scale(.08 -.08)">
<use xlink:href="#l"/>
<use x="44.083984" xlink:href="#d"/>
<use x="105.607422" xlink:href="#g"/>
<use x="144.970703" xlink:href="#j"/>
<use x="242.382812" xlink:href="#f"/>
<use x="270.166016" xlink:href="#e"/>
<use x="333.544922" xlink:href="#i"/>
<use x="394.824219" xlink:href="#k"/>
</g>
</g>
<path d="m61.231 559.82v33.808q0 2.4 2.4 2.4h7.7425q2.4 0 2.4-2.4v-33.808q0-2.4-2.4-2.4h-7.7425q-2.4 0-2.4 2.4z" clip-path="url(#a)" fill="#fff" stroke="#fff"/>
<g clip-path="url(#a)">
<g transform="translate(65.295 559.82) rotate(90) scale(.08 -.08)">
<use xlink:href="#l"/>
<use x="44.083984" xlink:href="#d"/>
<use x="105.607422" xlink:href="#g"/>
<use x="144.970703" xlink:href="#j"/>
<use x="242.382812" xlink:href="#f"/>
<use x="270.166016" xlink:href="#e"/>
<use x="333.544922" xlink:href="#i"/>
<use x="394.824219" xlink:href="#k"/>
</g>
</g>
<path d="m74.467 559.82v33.808q0 2.4 2.4 2.4h7.7425q2.4 0 2.4-2.4v-33.808q0-2.4-2.4-2.4h-7.7425q-2.4 0-2.4 2.4z" clip-path="url(#a)" fill="#fff" stroke="#fff"/>
<g clip-path="url(#a)">
<g transform="translate(78.531 559.82) rotate(90) scale(.08 -.08)">
<use xlink:href="#l"/>
<use x="44.083984" xlink:href="#d"/>
<use x="105.607422" xlink:href="#g"/>
<use x="144.970703" xlink:href="#j"/>
<use x="242.382812" xlink:href="#f"/>
<use x="270.166016" xlink:href="#e"/>
<use x="333.544922" xlink:href="#i"/>
<use x="394.824219" xlink:href="#k"/>
</g>
</g>
<path d="m162.9 400.46 1.7689-5.2698q0.76371-2.2752-1.5115-3.039l-7.34-2.4638q-2.2752-0.76371-3.039 1.5115l-1.7689 5.2698q-0.76371 2.2752 1.5115 3.039l7.34 2.4638q2.2752 0.76371 3.039-1.5115z" clip-path="url(#a)" fill="#fff" stroke="#fff"/>
<g clip-path="url(#a)">
<defs>
<path id="ap" d="m44.391 34.188q3.1719-1.0781 6.1719-4.5938t6.0312-9.6719l10.016-19.922h-10.609l-9.3125 18.703q-3.625 7.3281-7.0156 9.7188t-9.25 2.3906h-10.75v-30.812h-9.8594v72.906h22.266q12.5 0 18.656-5.2344 6.1562-5.2188 6.1562-15.766 0-6.8906-3.2031-11.438-3.2031-4.5312-9.2969-6.2812zm-24.719 30.609v-25.875h12.406q7.125 0 10.766 3.2969t3.6406 9.6875-3.6406 9.6406-10.766 3.25z"/>
</defs>
<g transform="translate(159.05 399.17) rotate(-71.445) scale(.08 -.08)">
<use xlink:href="#ap"/>
</g>
</g>
<path d="m174.88 399.96 1.2779-5.3212q0.56042-2.3337-1.7732-2.8941l-7.5285-1.8079q-2.3337-0.56042-2.8941 1.7732l-1.2779 5.3212q-0.56042 2.3337 1.7732 2.8941l7.5285 1.8079q2.3337 0.56042 2.8941-1.7732z" clip-path="url(#a)" fill="#fff" stroke="#fff"/>
<g clip-path="url(#a)">
<g transform="translate(170.93 399.01) rotate(-76.496) scale(.08 -.08)">
<use xlink:href="#n"/>
</g>
</g>
<path d="m195.93 338.94 0.75244-5.4205q0.32999-2.3772-2.0472-2.7072l-7.669-1.0646q-2.3772-0.32999-2.7072 2.0472l-0.75244 5.4205q-0.32999 2.3772 2.0472 2.7072l7.669 1.0646q2.3772 0.32999 2.7072-2.0472z" clip-path="url(#a)" fill="#fff" stroke="#fff"/>
<g clip-path="url(#a)">
<g transform="translate(191.91 338.38) rotate(-82.097) scale(.08 -.08)">
<use xlink:href="#n"/>
</g>
</g>
<path d="m216.56 394.72 0.96104 4.727q0.47816 2.3519 2.83 1.8737l7.5873-1.5426q2.3519-0.47816 1.8737-2.83l-0.96104-4.727q-0.47816-2.3519-2.83-1.8737l-7.5873 1.5426q-2.3519 0.47816-1.8737 2.83z" clip-path="url(#a)" fill="#fff" stroke="#fff"/>
<g clip-path="url(#a)">
<g transform="translate(220.55 393.91) rotate(78.508) scale(.08 -.08)">
<use xlink:href="#r"/>
</g>
</g>
<path d="m245.48 396.26 1.8605 4.2083q0.97042 2.1951 3.1655 1.2246l7.0814-3.1306q2.1951-0.97042 1.2246-3.1655l-1.8605-4.2083q-0.97042-2.1951-3.1655-1.2246l-7.0814 3.1306q-2.1951 0.97042-1.2246 3.1655z" clip-path="url(#a)" fill="#fff" stroke="#fff"/>
<g clip-path="url(#a)">
<defs>
<path id="av" d="m9.8125 72.906h41.891v-8.3125h-32.031v-21.484h28.906v-8.2969h-28.906v-34.812h-9.8594z"/>
</defs>
<g transform="translate(249.19 394.62) rotate(66.15) scale(.08 -.08)">
<use xlink:href="#av"/>
</g>
</g>
<path d="m110.87 559.82v33.808q0 2.4 2.4 2.4h7.7425q2.4 0 2.4-2.4v-33.808q0-2.4-2.4-2.4h-7.7425q-2.4 0-2.4 2.4z" clip-path="url(#a)" fill="#fff" stroke="#fff"/>
<g clip-path="url(#a)">
<g transform="translate(114.93 559.82) rotate(90) scale(.08 -.08)">
<use xlink:href="#l"/>
<use x="44.083984" xlink:href="#d"/>
<use x="105.607422" xlink:href="#g"/>
<use x="144.970703" xlink:href="#j"/>
<use x="242.382812" xlink:href="#f"/>
<use x="270.166016" xlink:href="#e"/>
<use x="333.544922" xlink:href="#i"/>
<use x="394.824219" xlink:href="#k"/>
</g>
</g>
<path d="m134.03 559.82v33.808q0 2.4 2.4 2.4h7.7425q2.4 0 2.4-2.4v-33.808q0-2.4-2.4-2.4h-7.7425q-2.4 0-2.4 2.4z" clip-path="url(#a)" fill="#fff" stroke="#fff"/>
<g clip-path="url(#a)">
<g transform="translate(138.09 559.82) rotate(90) scale(.08 -.08)">
<use xlink:href="#l"/>
<use x="44.083984" xlink:href="#d"/>
<use x="105.607422" xlink:href="#g"/>
<use x="144.970703" xlink:href="#j"/>
<use x="242.382812" xlink:href="#f"/>
<use x="270.166016" xlink:href="#e"/>
<use x="333.544922" xlink:href="#i"/>
<use x="394.824219" xlink:href="#k"/>
</g>
</g>
<path d="m180.11 460.1 0.66875-5.4315q0.29329-2.382-2.0887-2.6753l-7.6845-0.94615q-2.382-0.29329-2.6753 2.0887l-0.66875 5.4315q-0.29329 2.382 2.0887 2.6753l7.6845 0.94615q2.382 0.29329 2.6753-2.0887z" clip-path="url(#a)" fill="#fff" stroke="#fff"/>
<g clip-path="url(#a)">
<g transform="translate(176.07 459.6) rotate(-82.981) scale(.08 -.08)">
<use xlink:href="#n"/>
</g>
</g>
<path d="m182.59 454.99 0.58947 4.7876q0.29328 2.382 2.6753 2.0887l7.6845-0.94615q2.382-0.29329 2.0887-2.6753l-0.58947-4.7876q-0.29329-2.382-2.6753-2.0887l-7.6845 0.94615q-2.382 0.29329-2.0887 2.6753z" clip-path="url(#a)" fill="#fff" stroke="#fff"/>
<g clip-path="url(#a)">
<g transform="translate(186.62 454.49) rotate(82.981) scale(.08 -.08)">
<use xlink:href="#r"/>
</g>
</g>
<path d="m242.39 594.38 5.0993-33.421q0.362-2.3725-2.0105-2.7345l-7.6539-1.1678q-2.3725-0.362-2.7345 2.0105l-5.0993 33.421q-0.362 2.3725 2.0105 2.7345l7.6539 1.1678q2.3725 0.362 2.7345-2.0105z" clip-path="url(#a)" fill="#fff" stroke="#fff"/>
<g clip-path="url(#a)">
<g transform="translate(238.37 593.77) rotate(-81.325) scale(.08 -.08)">
<use xlink:href="#l"/>
<use x="44.083984" xlink:href="#d"/>
<use x="105.607422" xlink:href="#g"/>
<use x="144.970703" xlink:href="#j"/>
<use x="242.382812" xlink:href="#f"/>
<use x="270.166016" xlink:href="#e"/>
<use x="333.544922" xlink:href="#i"/>
<use x="394.824219" xlink:href="#k"/>
</g>
</g>
<path d="m248.19 560.96 5.0993 33.421q0.362 2.3725 2.7345 2.0105l7.6539-1.1678q2.3725-0.362 2.0105-2.7345l-5.0993-33.421q-0.362-2.3725-2.7345-2.0105l-7.6539 1.1678q-2.3725 0.362-2.0105 2.7345z" clip-path="url(#a)" fill="#fff" stroke="#fff"/>
<g clip-path="url(#a)">
<g transform="translate(252.21 560.35) rotate(81.325) scale(.08 -.08)">
<use xlink:href="#l"/>
<use x="44.083984" xlink:href="#d"/>
<use x="105.607422" xlink:href="#g"/>
<use x="144.970703" xlink:href="#j"/>
<use x="242.382812" xlink:href="#f"/>
<use x="270.166016" xlink:href="#e"/>
<use x="333.544922" xlink:href="#i"/>
<use x="394.824219" xlink:href="#k"/>
</g>
</g>
<path d="m299.48 559.82v33.808q0 2.4 2.4 2.4h7.7425q2.4 0 2.4-2.4v-33.808q0-2.4-2.4-2.4h-7.7425q-2.4 0-2.4 2.4z" clip-path="url(#a)" fill="#fff" stroke="#fff"/>
<g clip-path="url(#a)">
<g transform="translate(303.54 559.82) rotate(90) scale(.08 -.08)">
<use xlink:href="#l"/>
<use x="44.083984" xlink:href="#d"/>
<use x="105.607422" xlink:href="#g"/>
<use x="144.970703" xlink:href="#j"/>
<use x="242.382812" xlink:href="#f"/>
<use x="270.166016" xlink:href="#e"/>
<use x="333.544922" xlink:href="#i"/>
<use x="394.824219" xlink:href="#k"/>
</g>
</g>
<path d="m160.5 559.82v33.808q0 2.4 2.4 2.4h7.7425q2.4 0 2.4-2.4v-33.808q0-2.4-2.4-2.4h-7.7425q-2.4 0-2.4 2.4z" clip-path="url(#a)" fill="#fff" stroke="#fff"/>
<g clip-path="url(#a)">
<g transform="translate(164.56 559.82) rotate(90) scale(.08 -.08)">
<use xlink:href="#l"/>
<use x="44.083984" xlink:href="#d"/>
<use x="105.607422" xlink:href="#g"/>
<use x="144.970703" xlink:href="#j"/>
<use x="242.382812" xlink:href="#f"/>
<use x="270.166016" xlink:href="#e"/>
<use x="333.544922" xlink:href="#i"/>
<use x="394.824219" xlink:href="#k"/>
</g>
</g>
<path d="m190.28 559.82v33.808q0 2.4 2.4 2.4h7.7425q2.4 0 2.4-2.4v-33.808q0-2.4-2.4-2.4h-7.7425q-2.4 0-2.4 2.4z" clip-path="url(#a)" fill="#fff" stroke="#fff"/>
<g clip-path="url(#a)">
<g transform="translate(194.34 559.82) rotate(90) scale(.08 -.08)">
<use xlink:href="#l"/>
<use x="44.083984" xlink:href="#d"/>
<use x="105.607422" xlink:href="#g"/>
<use x="144.970703" xlink:href="#j"/>
<use x="242.382812" xlink:href="#f"/>
<use x="270.166016" xlink:href="#e"/>
<use x="333.544922" xlink:href="#i"/>
<use x="394.824219" xlink:href="#k"/>
</g>
</g>
<path d="m91.012 559.82v33.808q0 2.4 2.4 2.4h7.7425q2.4 0 2.4-2.4v-33.808q0-2.4-2.4-2.4h-7.7425q-2.4 0-2.4 2.4z" clip-path="url(#a)" fill="#fff" stroke="#fff"/>
<g clip-path="url(#a)">
<g transform="translate(95.076 559.82) rotate(90) scale(.08 -.08)">
<use xlink:href="#l"/>
<use x="44.083984" xlink:href="#d"/>
<use x="105.607422" xlink:href="#g"/>
<use x="144.970703" xlink:href="#j"/>
<use x="242.382812" xlink:href="#f"/>
<use x="270.166016" xlink:href="#e"/>
<use x="333.544922" xlink:href="#i"/>
<use x="394.824219" xlink:href="#k"/>
</g>
</g>
<path d="m342.49 559.82v33.808q0 2.4 2.4 2.4h7.7425q2.4 0 2.4-2.4v-33.808q0-2.4-2.4-2.4h-7.7425q-2.4 0-2.4 2.4z" clip-path="url(#a)" fill="#fff" stroke="#fff"/>
<g clip-path="url(#a)">
<g transform="translate(346.56 559.82) rotate(90) scale(.08 -.08)">
<use xlink:href="#l"/>
<use x="44.083984" xlink:href="#d"/>
<use x="105.607422" xlink:href="#g"/>
<use x="144.970703" xlink:href="#j"/>
<use x="242.382812" xlink:href="#f"/>
<use x="270.166016" xlink:href="#e"/>
<use x="333.544922" xlink:href="#i"/>
<use x="394.824219" xlink:href="#k"/>
</g>
</g>
<path d="m607.21 559.82v33.808q0 2.4 2.4 2.4h7.7425q2.4 0 2.4-2.4v-33.808q0-2.4-2.4-2.4h-7.7425q-2.4 0-2.4 2.4z" clip-path="url(#a)" fill="#fff" stroke="#fff"/>
<g clip-path="url(#a)">
<g transform="translate(611.27 559.82) rotate(90) scale(.08 -.08)">
<use xlink:href="#l"/>
<use x="44.083984" xlink:href="#d"/>
<use x="105.607422" xlink:href="#g"/>
<use x="144.970703" xlink:href="#j"/>
<use x="242.382812" xlink:href="#f"/>
<use x="270.166016" xlink:href="#e"/>
<use x="333.544922" xlink:href="#i"/>
<use x="394.824219" xlink:href="#k"/>
</g>
</g>
<path d="m1202.8 559.82v33.808q0 2.4 2.4 2.4h7.7425q2.4 0 2.4-2.4v-33.808q0-2.4-2.4-2.4h-7.7425q-2.4 0-2.4 2.4z" clip-path="url(#a)" fill="#fff" stroke="#fff"/>
<g clip-path="url(#a)">
<g transform="translate(1206.9 559.82) rotate(90) scale(.08 -.08)">
<use xlink:href="#l"/>
<use x="44.083984" xlink:href="#d"/>
<use x="105.607422" xlink:href="#g"/>
<use x="144.970703" xlink:href="#j"/>
<use x="242.382812" xlink:href="#f"/>
<use x="270.166016" xlink:href="#e"/>
<use x="333.544922" xlink:href="#i"/>
<use x="394.824219" xlink:href="#k"/>
</g>
</g>
<defs>
<path id="b" d="m0 8.6603c2.2967 0 4.4997-0.9125 6.1237-2.5365 1.624-1.624 2.5365-3.827 2.5365-6.1237s-0.9125-4.4997-2.5365-6.1237c-1.624-1.624-3.827-2.5365-6.1237-2.5365s-4.4997 0.9125-6.1237 2.5365c-1.624 1.624-2.5365 3.827-2.5365 6.1237s0.9125 4.4997 2.5365 6.1237c1.624 1.624 3.827 2.5365 6.1237 2.5365z"/>
</defs>
<g clip-path="url(#a)" fill="#ffffff" stroke="#ffffff">
<use x="57.575758" y="636.363636" xlink:href="#b"/>
<use x="67.502612" y="636.363636" xlink:href="#b"/>
<use x="80.738419" y="636.363636" xlink:href="#b"/>
<use x="97.283177" y="636.363636" xlink:href="#b"/>
<use x="117.136886" y="636.363636" xlink:href="#b"/>
<use x="140.299547" y="636.363636" xlink:href="#b"/>
<use x="166.77116" y="636.363636" xlink:href="#b"/>
<use x="196.551724" y="636.363636" xlink:href="#b"/>
<use x="229.64124" y="636.363636" xlink:href="#b"/>
<use x="266.039707" y="636.363636" xlink:href="#b"/>
<use x="305.747126" y="636.363636" xlink:href="#b"/>
<use x="348.763497" y="636.363636" xlink:href="#b"/>
<use x="395.088819" y="636.363636" xlink:href="#b"/>
<use x="444.723093" y="636.363636" xlink:href="#b"/>
<use x="497.666318" y="636.363636" xlink:href="#b"/>
<use x="553.918495" y="636.363636" xlink:href="#b"/>
<use x="613.479624" y="636.363636" xlink:href="#b"/>
<use x="676.349704" y="636.363636" xlink:href="#b"/>
<use x="742.528736" y="636.363636" xlink:href="#b"/>
<use x="812.016719" y="636.363636" xlink:href="#b"/>
<use x="884.813654" y="636.363636" xlink:href="#b"/>
<use x="960.91954" y="636.363636" xlink:href="#b"/>
<use x="1040.334378" y="636.363636" xlink:href="#b"/>
<use x="1123.058168" y="636.363636" xlink:href="#b"/>
<use x="1209.090909" y="636.363636" xlink:href="#b"/>
<use x="484.156604" y="30.30303" xlink:href="#b"/>
<use x="100.327412" y="152.595853" xlink:href="#b"/>
<use x="395.088819" y="517.086734" xlink:href="#b"/>
<use x="485.25775" y="396.150559" xlink:href="#b"/>
<use x="962.022524" y="152.595853" xlink:href="#b"/>
<use x="709.43922" y="274.580084" xlink:href="#b"/>
<use x="967.537443" y="517.086734" xlink:href="#b"/>
<use x="962.022524" y="396.150559" xlink:href="#b"/>
<use x="884.813654" y="517.086734" xlink:href="#b"/>
<use x="960.91954" y="517.086734" xlink:href="#b"/>
<use x="1040.334378" y="517.086734" xlink:href="#b"/>
<use x="676.349704" y="396.150559" xlink:href="#b"/>
<use x="742.528736" y="517.086734" xlink:href="#b"/>
<use x="676.349704" y="517.086734" xlink:href="#b"/>
<use x="444.723093" y="517.086734" xlink:href="#b"/>
<use x="525.792407" y="517.086734" xlink:href="#b"/>
<use x="57.575758" y="517.086734" xlink:href="#b"/>
<use x="67.502612" y="517.086734" xlink:href="#b"/>
<use x="80.738419" y="517.086734" xlink:href="#b"/>
<use x="198.537095" y="274.580084" xlink:href="#b"/>
<use x="117.136886" y="517.086734" xlink:href="#b"/>
<use x="140.299547" y="517.086734" xlink:href="#b"/>
<use x="181.661442" y="396.150559" xlink:href="#b"/>
<use x="247.840474" y="517.086734" xlink:href="#b"/>
<use x="305.747126" y="517.086734" xlink:href="#b"/>
<use x="166.77116" y="517.086734" xlink:href="#b"/>
<use x="196.551724" y="517.086734" xlink:href="#b"/>
<use x="97.283177" y="517.086734" xlink:href="#b"/>
<use x="348.763497" y="517.086734" xlink:href="#b"/>
<use x="613.479624" y="517.086734" xlink:href="#b"/>
<use x="1209.090909" y="517.086734" xlink:href="#b"/>
</g>
<g clip-path="url(#a)">
<defs>
<path id="at" d="m9.8125 72.906h9.8594v-72.906h-9.8594z"/>
<path id="t" d="m48.781 52.594v-8.4062q-3.8125 2.1094-7.6406 3.1562t-7.7344 1.0469q-8.75 0-13.594-5.5469-4.8281-5.5312-4.8281-15.547t4.8281-15.562q4.8438-5.5312 13.594-5.5312 3.9062 0 7.7344 1.0469t7.6406 3.1562v-8.3125q-3.7656-1.75-7.7969-2.625-4.0156-0.89062-8.5625-0.89062-12.359 0-19.641 7.7656-7.2656 7.7656-7.2656 20.953 0 13.375 7.3438 21.031 7.3594 7.6719 20.156 7.6719 4.1406 0 8.0938-0.85938 3.9531-0.84375 7.6719-2.5469z"/>
<path id="s" d="m54.891 33.016v-33.016h-8.9844v32.719q0 7.7656-3.0312 11.609-3.0312 3.8594-9.0781 3.8594-7.2812 0-11.484-4.6406-4.2031-4.625-4.2031-12.641v-30.906h-9.0312v75.984h9.0312v-29.797q3.2344 4.9375 7.5938 7.375 4.375 2.4375 10.094 2.4375 9.4219 0 14.25-5.8281 4.8438-5.8281 4.8438-17.156z"/>
</defs>
<g transform="translate(50.183 639.12) scale(.1 -.1)">
<use xlink:href="#at"/>
<use x="29.492188" xlink:href="#t"/>
<use x="84.472656" xlink:href="#s"/>
</g>
</g>
<g clip-path="url(#a)">
<defs>
<path id="bc" d="m2.9844 54.688h9.5156l17.094-45.891 17.094 45.891h9.5156l-20.516-54.688h-12.203z"/>
<path id="u" d="m8.5 21.578v33.109h8.9844v-32.766q0-7.7656 3.0156-11.656 3.0312-3.875 9.0938-3.875 7.2656 0 11.484 4.6406 4.2344 4.6406 4.2344 12.656v31h8.9844v-54.688h-8.9844v8.4062q-3.2656-4.9844-7.5938-7.4062-4.3125-2.4219-10.031-2.4219-9.4219 0-14.312 5.8594-4.875 5.8594-4.875 17.141z"/>
<path id="q" d="m18.312 70.219v-15.531h18.5v-6.9844h-18.5v-29.688q0-6.6875 1.8281-8.5938t7.4531-1.9062h9.2188v-7.5156h-9.2188q-10.406 0-14.359 3.875-3.9531 3.8906-3.9531 14.141v29.688h-6.5938v6.9844h6.5938v15.531z"/>
</defs>
<g transform="translate(41.386 639.12) scale(.1 -.1)">
<use xlink:href="#bc"/>
<use x="59.179688" xlink:href="#d"/>
<use x="120.703125" xlink:href="#g"/>
<use x="160.066406" xlink:href="#j"/>
<use x="257.478516" xlink:href="#u"/>
<use x="320.857422" xlink:href="#q"/>
<use x="360.066406" xlink:href="#d"/>
<use x="421.589844" xlink:href="#q"/>
<use x="460.798828" xlink:href="#d"/>
</g>
</g>
<g clip-path="url(#a)">
<defs>
<path id="ac" d="m8.5 21.578v33.109h8.9844v-32.766q0-7.7656 3.0156-11.656 3.0312-3.875 9.0938-3.875 7.2656 0 11.484 4.6406 4.2344 4.6406 4.2344 12.656v31h8.9844v-54.688h-8.9844v8.4062q-3.2656-4.9844-7.5938-7.4062-4.3125-2.4219-10.031-2.4219-9.4219 0-14.312 5.8594-4.875 5.8594-4.875 17.141zm22.609 34.422m4.4844 19.781h9.9062v-9.8594h-9.9062zm-19.094 0h9.9062v-9.8594h-9.9062z"/>
<path id="ae" d="m48.688 27.297q0 9.9062-4.0781 15.547t-11.203 5.6406q-7.1406 0-11.219-5.6406t-4.0781-15.547 4.0781-15.547 11.219-5.6406q7.125 0 11.203 5.6406t4.0781 15.547zm-30.578 19.094q2.8438 4.875 7.1562 7.2344 4.3281 2.375 10.328 2.375 9.9688 0 16.188-7.9062 6.2344-7.9062 6.2344-20.797t-6.2344-20.812q-6.2188-7.9062-16.188-7.9062-6 0-10.328 2.375-4.3125 2.375-7.1562 7.25v-8.2031h-9.0312v75.984h9.0312z"/>
<path id="v" d="m45.406 27.984q0 9.7656-4.0312 15.125-4.0156 5.375-11.297 5.375-7.2188 0-11.25-5.375-4.0312-5.3594-4.0312-15.125 0-9.7188 4.0312-15.094t11.25-5.375q7.2812 0 11.297 5.375 4.0312 5.375 4.0312 15.094zm8.9844-21.203q0-13.953-6.2031-20.766-6.1875-6.8125-18.984-6.8125-4.7344 0-8.9375 0.70312t-8.1562 2.1719v8.7344q3.9531-2.1406 7.8125-3.1562 3.8594-1.0312 7.8594-1.0312 8.8438 0 13.234 4.6094t4.3906 13.938v4.4531q-2.7812-4.8438-7.125-7.2344t-10.406-2.3906q-10.047 0-16.203 7.6562-6.1562 7.6719-6.1562 20.328 0 12.688 6.1562 20.344 6.1562 7.6719 16.203 7.6719 6.0625 0 10.406-2.3906t7.125-7.2188v8.2969h8.9844z"/>
<path id="p" d="m44.281 53.078v-8.5q-3.7969 1.9531-7.9062 2.9219-4.0938 0.98438-8.5 0.98438-6.6875 0-10.031-2.0469t-3.3438-6.1562q0-3.125 2.3906-4.9062t9.625-3.3906l3.0781-0.6875q9.5625-2.0469 13.594-5.7812t4.0312-10.422q0-7.625-6.0312-12.078-6.0312-4.4375-16.578-4.4375-4.3906 0-9.1562 0.85938t-10.031 2.5625v9.2812q4.9844-2.5938 9.8125-3.8906 4.8281-1.2812 9.5781-1.2812 6.3438 0 9.75 2.1719 3.4219 2.1719 3.4219 6.125 0 3.6562-2.4688 5.6094-2.4531 1.9531-10.812 3.7656l-3.125 0.73438q-8.3438 1.75-12.062 5.3906-3.7031 3.6406-3.7031 9.9844 0 7.7188 5.4688 11.906 5.4688 4.2031 15.531 4.2031 4.9688 0 9.3594-0.73438 4.4062-0.71875 8.1094-2.1875z"/>
</defs>
<g transform="translate(58.927 639.12) scale(.1 -.1)">
<use xlink:href="#ac"/>
<use x="63.378906" xlink:href="#ae"/>
<use x="126.855469" xlink:href="#g"/>
<use x="167.96875" xlink:href="#f"/>
<use x="195.751953" xlink:href="#v"/>
<use x="259.228516" xlink:href="#d"/>
<use x="320.751953" xlink:href="#e"/>
<use x="384.130859" xlink:href="#p"/>
</g>
</g>
<g clip-path="url(#a)">
<defs>
<path id="ai" d="m11.719 12.406h10.297v-8.4062l-8-15.625h-6.2969l4 15.625z"/>
</defs>
<g transform="translate(95.694 639.12) scale(.1 -.1)">
<use xlink:href="#ai"/>
</g>
</g>
<g clip-path="url(#a)">
<defs>
<path id="ad" d="m45.406 46.391v29.594h8.9844v-75.984h-8.9844v8.2031q-2.8281-4.875-7.1562-7.25-4.3125-2.375-10.375-2.375-9.9062 0-16.141 7.9062-6.2188 7.9219-6.2188 20.812t6.2188 20.797q6.2344 7.9062 16.141 7.9062 6.0625 0 10.375-2.375 4.3281-2.3594 7.1562-7.2344zm-30.609-19.094q0-9.9062 4.0781-15.547t11.203-5.6406 11.219 5.6406q4.1094 5.6406 4.1094 15.547t-4.1094 15.547q-4.0938 5.6406-11.219 5.6406t-11.203-5.6406-4.0781-15.547z"/>
</defs>
<g transform="translate(105.69 639.12) scale(.1 -.1)">
<use xlink:href="#ad"/>
<use x="63.476562" xlink:href="#i"/>
<use x="124.755859" xlink:href="#p"/>
<use x="176.855469" xlink:href="#p"/>
</g>
</g>
<g clip-path="url(#a)">
<g transform="translate(130.61 639.12) scale(.1 -.1)">
<use xlink:href="#s"/>
<use x="63.378906" xlink:href="#f"/>
<use x="91.162109" xlink:href="#d"/>
<use x="152.685547" xlink:href="#g"/>
</g>
</g>
<g clip-path="url(#a)">
<g transform="translate(152.7 639.12) scale(.1 -.1)">
<use xlink:href="#u"/>
<use x="63.378906" xlink:href="#e"/>
<use x="126.757812" xlink:href="#p"/>
<use x="178.857422" xlink:href="#d"/>
<use x="240.380859" xlink:href="#g"/>
</g>
</g>
<g clip-path="url(#a)">
<defs>
<path id="ao" d="m53.516 70.516v-9.625q-5.6094 2.6875-10.594 4-4.9844 1.3281-9.625 1.3281-8.0469 0-12.422-3.125t-4.375-8.8906q0-4.8438 2.9062-7.3125 2.9062-2.4531 11.016-3.9688l5.9531-1.2188q11.031-2.1094 16.281-7.4062t5.25-14.172q0-10.609-7.1094-16.078-7.0938-5.4688-20.812-5.4688-5.1719 0-11.016 1.1719-5.8281 1.1719-12.078 3.4688v10.156q6-3.3594 11.766-5.0781 5.7656-1.7031 11.328-1.7031 8.4375 0 13.031 3.3125 4.5938 3.3281 4.5938 9.4844 0 5.3594-3.2969 8.3906t-10.812 4.5469l-6.0156 1.1719q-11.031 2.1875-15.969 6.875-4.9219 4.6875-4.9219 13.047 0 9.6719 6.8125 15.234t18.766 5.5625q5.1406 0 10.453-0.9375 5.3281-0.92188 10.891-2.7656z"/>
<path id="al" d="m18.109 8.2031v-29h-9.0312v75.484h9.0312v-8.2969q2.8438 4.875 7.1562 7.2344 4.3281 2.375 10.328 2.375 9.9688 0 16.188-7.9062 6.2344-7.9062 6.2344-20.797t-6.2344-20.812q-6.2188-7.9062-16.188-7.9062-6 0-10.328 2.375-4.3125 2.375-7.1562 7.25zm30.578 19.094q0 9.9062-4.0781 15.547t-11.203 5.6406q-7.1406 0-11.219-5.6406t-4.0781-15.547 4.0781-15.547 11.219-5.6406q7.125 0 11.203 5.6406t4.0781 15.547z"/>
<path id="ak" d="m5.5156 54.688h42.672v-8.2031l-33.781-39.312h33.781v-7.1719h-43.891v8.2031l33.797 39.312h-32.578z"/>
</defs>
<g transform="translate(165.5 639.12) scale(.1 -.1)">
<use xlink:href="#ao"/>
<use x="63.476562" xlink:href="#al"/>
<use x="126.953125" xlink:href="#i"/>
<use x="188.232422" xlink:href="#ak"/>
<use x="240.722656" xlink:href="#f"/>
<use x="268.505859" xlink:href="#d"/>
<use x="330.029297" xlink:href="#g"/>
<use x="369.392578" xlink:href="#v"/>
<use x="432.869141" xlink:href="#i"/>
<use x="494.148438" xlink:href="#e"/>
<use x="557.527344" xlink:href="#v"/>
</g>
</g>
<g clip-path="url(#a)">
<g transform="translate(219.73 639.12) scale(.1 -.1)">
<use xlink:href="#p"/>
<use x="52.099609" xlink:href="#f"/>
<use x="79.882812" xlink:href="#t"/>
<use x="134.863281" xlink:href="#s"/>
</g>
</g>
<g clip-path="url(#a)">
<g transform="translate(245.81 639.12) scale(.1 -.1)">
<use xlink:href="#d"/>
<use x="61.523438" xlink:href="#e"/>
<use x="124.902344" xlink:href="#ad"/>
<use x="188.378906" xlink:href="#f"/>
<use x="216.162109" xlink:href="#v"/>
<use x="279.638672" xlink:href="#d"/>
<use x="341.162109" xlink:href="#e"/>
</g>
</g>
<g clip-path="url(#a)">
<defs>
<path id="bb" d="m4.2031 54.688h8.9844l11.234-42.672 11.172 42.672h10.594l11.234-42.672 11.188 42.672h8.9844l-14.312-54.688h-10.594l-11.766 44.828-11.812-44.828h-10.609z"/>
</defs>
<g transform="translate(290.27 639.12) scale(.1 -.1)">
<use xlink:href="#bb"/>
<use x="81.787109" xlink:href="#ac"/>
<use x="145.166016" xlink:href="#g"/>
<use x="184.529297" xlink:href="#ad"/>
<use x="248.005859" xlink:href="#d"/>
</g>
</g>
<g clip-path="url(#a)">
<defs>
<path id="az" d="m11.719 51.703h10.297v-12.391h-10.297zm0-39.297h10.297v-8.4062l-8-15.625h-6.2969l4 15.625z"/>
</defs>
<g transform="translate(347.08 639.12) scale(.1 -.1)">
<use xlink:href="#az"/>
</g>
</g>
<g clip-path="url(#a)">
<g transform="translate(383.72 639.12) scale(.1 -.1)">
<use xlink:href="#i"/>
<use x="61.279297" xlink:href="#ae"/>
<use x="124.755859" xlink:href="#d"/>
<use x="186.279297" xlink:href="#g"/>
</g>
</g>
<g clip-path="url(#a)">
<g transform="translate(437.42 639.12) scale(.1 -.1)">
<use xlink:href="#f"/>
<use x="27.783203" xlink:href="#t"/>
<use x="82.763672" xlink:href="#s"/>
</g>
</g>
<g clip-path="url(#a)">
<defs>
<path id="aj" d="m34.281 27.484q-10.891 0-15.094-2.4844t-4.2031-8.5q0-4.7812 3.1562-7.5938 3.1562-2.7969 8.5625-2.7969 7.4844 0 12 5.2969t4.5156 14.078v2zm17.922 3.7188v-31.203h-8.9844v8.2969q-3.0781-4.9688-7.6719-7.3438t-11.234-2.375q-8.3906 0-13.359 4.7188-4.9531 4.7188-4.9531 12.625 0 9.2188 6.1719 13.906 6.1875 4.6875 18.438 4.6875h12.609v0.89062q0 6.2031-4.0781 9.5938t-11.453 3.3906q-4.6875 0-9.1406-1.125-4.4375-1.125-8.5312-3.375v8.3125q4.9219 1.9062 9.5625 2.8438 4.6406 0.95312 9.0312 0.95312 11.875 0 17.734-6.1562 5.8594-6.1406 5.8594-18.641zm-18.609 44.578h9.9062v-9.8594h-9.9062zm-19.094 0h9.9062v-9.8594h-9.9062z"/>
</defs>
<g transform="translate(475.91 639.12) scale(.1 -.1)">
<use xlink:href="#q"/>
<use x="39.208984" xlink:href="#aj"/>
<use x="100.488281" xlink:href="#u"/>
<use x="163.867188" xlink:href="#p"/>
<use x="215.966797" xlink:href="#t"/>
<use x="270.947266" xlink:href="#s"/>
<use x="334.326172" xlink:href="#q"/>
<use x="373.535156" xlink:href="#d"/>
</g>
</g>
<g clip-path="url(#a)">
<g transform="translate(541.74 639.12) scale(.1 -.1)">
<use xlink:href="#j"/>
<use x="97.412109" xlink:href="#f"/>
<use x="125.195312" xlink:href="#t"/>
<use x="180.175781" xlink:href="#s"/>
</g>
</g>
<g clip-path="url(#a)">
<g transform="translate(611.89 639.12) scale(.1 -.1)">
<use xlink:href="#ai"/>
</g>
</g>
<g clip-path="url(#a)">
<defs>
<path id="as" d="m9.8125 72.906h9.8594v-30.812l32.719 30.812h12.703l-36.188-33.984 38.766-38.922h-12.984l-35.016 35.109v-35.109h-9.8594z"/>
</defs>
<g transform="translate(657.34 639.12) scale(.1 -.1)">
<use xlink:href="#as"/>
<use x="63.826172" xlink:href="#i"/>
<use x="125.105469" xlink:href="#al"/>
<use x="188.582031" xlink:href="#f"/>
<use x="216.365234" xlink:href="#q"/>
<use x="255.574219" xlink:href="#aj"/>
<use x="316.853516" xlink:href="#e"/>
</g>
</g>
<g clip-path="url(#a)">
<defs>
<path id="aq" d="m9.8125 72.906h13.281l32.328-60.984v60.984h9.5625v-72.906h-13.281l-32.312 60.984v-60.984h-9.5781z"/>
<path id="am" d="m30.609 48.391q-7.2188 0-11.422-5.6406t-4.2031-15.453 4.1719-15.453q4.1875-5.6406 11.453-5.6406 7.1875 0 11.375 5.6562 4.2031 5.6719 4.2031 15.438 0 9.7188-4.2031 15.406-4.1875 5.6875-11.375 5.6875zm0 7.6094q11.719 0 18.406-7.625 6.7031-7.6094 6.7031-21.078 0-13.422-6.7031-21.078-6.6875-7.6406-18.406-7.6406-11.766 0-18.438 7.6406-6.6562 7.6562-6.6562 21.078 0 13.469 6.6562 21.078 6.6719 7.625 18.438 7.625z"/>
</defs>
<g transform="translate(727.78 639.12) scale(.1 -.1)">
<use xlink:href="#aq"/>
<use x="74.804688" xlink:href="#d"/>
<use x="136.328125" xlink:href="#j"/>
<use x="233.740234" xlink:href="#am"/>
</g>
</g>
<g clip-path="url(#a)">
<g transform="translate(796.71 639.12) scale(.1 -.1)">
<use xlink:href="#p"/>
<use x="52.099609" xlink:href="#d"/>
<use x="113.623047" xlink:href="#q"/>
<use x="152.832031" xlink:href="#ak"/>
<use x="205.322266" xlink:href="#q"/>
<use x="244.53125" xlink:href="#d"/>
</g>
</g>
<g clip-path="url(#a)">
<g transform="translate(868.33 639.12) scale(.1 -.1)">
<use xlink:href="#p"/>
<use x="52.099609" xlink:href="#d"/>
<use x="113.623047" xlink:href="#f"/>
<use x="141.40625" xlink:href="#e"/>
<use x="204.785156" xlink:href="#d"/>
<use x="266.308594" xlink:href="#e"/>
</g>
</g>
<g clip-path="url(#a)">
<defs>
<path id="bd" d="m9.0781 75.984h9.0312v-44.875l26.812 23.578h11.469l-29-25.578 30.234-29.109h-11.719l-27.797 26.703v-26.703h-9.0312z"/>
</defs>
<g transform="translate(942.43 639.12) scale(.1 -.1)">
<use xlink:href="#bd"/>
<use x="54.785156" xlink:href="#ac"/>
<use x="118.164062" xlink:href="#s"/>
<use x="181.542969" xlink:href="#e"/>
<use x="244.921875" xlink:href="#d"/>
<use x="306.445312" xlink:href="#e"/>
</g>
</g>
<g clip-path="url(#a)">
<defs>
<path id="an" d="m37.109 75.984v-7.4844h-8.5938q-4.8281 0-6.7188-1.9531-1.875-1.9531-1.875-7.0312v-4.8281h14.797v-6.9844h-14.797v-47.703h-9.0312v47.703h-8.5938v6.9844h8.5938v3.8125q0 9.125 4.25 13.297 4.25 4.1875 13.469 4.1875z"/>
</defs>
<g transform="translate(1021.6 639.12) scale(.1 -.1)">
<use xlink:href="#n"/>
<use x="68.408203" xlink:href="#u"/>
<use x="131.787109" xlink:href="#p"/>
<use x="183.886719" xlink:href="#an"/>
<use x="219.091797" xlink:href="#k"/>
<use x="246.875" xlink:href="#u"/>
<use x="310.253906" xlink:href="#v"/>
</g>
</g>
<g clip-path="url(#a)">
<g transform="translate(1114.2 639.12) scale(.1 -.1)">
<use xlink:href="#an"/>
<use x="35.205078" xlink:href="#am"/>
<use x="96.386719" xlink:href="#g"/>
<use x="137.5" xlink:href="#q"/>
</g>
</g>
<g clip-path="url(#a)">
<defs>
<path id="h" d="m10.688 12.406h10.312v-12.406h-10.312z"/>
</defs>
<g transform="translate(1207.5 639.12) scale(.1 -.1)">
<use xlink:href="#h"/>
</g>
</g>
<g clip-path="url(#a)">
<defs>
<path id="c" d="m12.406 8.2969h16.109v55.625l-17.531-3.5156v8.9844l17.438 3.5156h9.8594v-64.609h16.109v-8.2969h-41.984z"/>
</defs>
<g transform="translate(476.21 33.062) scale(.1 -.1)">
<use xlink:href="#c"/>
<use x="63.623047" xlink:href="#h"/>
<use x="95.410156" xlink:href="#c"/>
</g>
</g>
<g clip-path="url(#a)">
<defs>
<path id="m" d="m19.188 8.2969h34.422v-8.2969h-46.281v8.2969q5.6094 5.8125 15.297 15.594 9.7031 9.7969 12.188 12.641 4.7344 5.3125 6.6094 9 1.8906 3.6875 1.8906 7.25 0 5.8125-4.0781 9.4688-4.0781 3.6719-10.625 3.6719-4.6406 0-9.7969-1.6094-5.1406-1.6094-11-4.8906v9.9688q5.9531 2.3906 11.125 3.6094 5.1875 1.2188 9.4844 1.2188 11.328 0 18.062-5.6719 6.7344-5.6562 6.7344-15.125 0-4.5-1.6875-8.5312-1.6719-4.0156-6.125-9.4844-1.2188-1.4219-7.7656-8.1875-6.5312-6.7656-18.453-18.922z"/>
</defs>
<g transform="translate(92.376 155.36) scale(.1 -.1)">
<use xlink:href="#c"/>
<use x="63.623047" xlink:href="#h"/>
<use x="95.410156" xlink:href="#m"/>
</g>
</g>
<g clip-path="url(#a)">
<defs>
<path id="o" d="m40.578 39.312q7.0781-1.5156 11.047-6.3125 3.9844-4.7812 3.9844-11.812 0-10.781-7.4219-16.703-7.4219-5.9062-21.094-5.9062-4.5781 0-9.4375 0.90625t-10.031 2.7188v9.5156q4.0938-2.3906 8.9688-3.6094 4.8906-1.2188 10.219-1.2188 9.2656 0 14.125 3.6562t4.8594 10.641q0 6.4531-4.5156 10.078-4.5156 3.6406-12.562 3.6406h-8.5v8.1094h8.8906q7.2656 0 11.125 2.9062t3.8594 8.375q0 5.6094-3.9844 8.6094-3.9688 3.0156-11.391 3.0156-4.0625 0-8.7031-0.89062-4.6406-0.875-10.203-2.7188v8.7812q5.625 1.5625 10.531 2.3438t9.25 0.78125q11.234 0 17.766-5.1094 6.5469-5.0938 6.5469-13.781 0-6.0625-3.4688-10.234t-9.8594-5.7812z"/>
</defs>
<g transform="translate(387.14 519.85) scale(.1 -.1)">
<use xlink:href="#c"/>
<use x="63.623047" xlink:href="#h"/>
<use x="95.410156" xlink:href="#o"/>
</g>
</g>
<g clip-path="url(#a)">
<defs>
<path id="aa" d="m37.797 64.312-24.906-38.922h24.906zm-2.5938 8.5938h12.406v-47.516h10.406v-8.2031h-10.406v-17.188h-9.8125v17.188h-32.906v9.5156z"/>
</defs>
<g transform="translate(477.31 398.91) scale(.1 -.1)">
<use xlink:href="#c"/>
<use x="63.623047" xlink:href="#h"/>
<use x="95.410156" xlink:href="#aa"/>
</g>
</g>
<g clip-path="url(#a)">
<defs>
<path id="x" d="m10.797 72.906h38.719v-8.3125h-29.688v-17.859q2.1406 0.73438 4.2812 1.0938 2.1562 0.35938 4.3125 0.35938 12.203 0 19.328-6.6875 7.1406-6.6875 7.1406-18.109 0-11.766-7.3281-18.297-7.3281-6.5156-20.656-6.5156-4.5938 0-9.3594 0.78125-4.75 0.78125-9.8281 2.3438v9.9219q4.3906-2.3906 9.0781-3.5625t9.9062-1.1719q8.4531 0 13.375 4.4375 4.9375 4.4375 4.9375 12.062 0 7.6094-4.9375 12.047-4.9219 4.4531-13.375 4.4531-3.9531 0-7.8906-0.875-3.9219-0.875-8.0156-2.7344z"/>
</defs>
<g transform="translate(954.07 155.36) scale(.1 -.1)">
<use xlink:href="#c"/>
<use x="63.623047" xlink:href="#h"/>
<use x="95.410156" xlink:href="#x"/>
</g>
</g>
<g clip-path="url(#a)">
<defs>
<path id="z" d="m10.984 1.5156v8.9844q3.7188-1.7656 7.5156-2.6875 3.8125-0.92188 7.4844-0.92188 9.7656 0 14.906 6.5625 5.1562 6.5625 5.8906 19.953-2.8281-4.2031-7.1875-6.4531-4.3438-2.25-9.6094-2.25-10.938 0-17.312 6.6094-6.375 6.625-6.375 18.109 0 11.219 6.6406 18 6.6406 6.7969 17.672 6.7969 12.656 0 19.312-9.7031 6.6719-9.6875 6.6719-28.141 0-17.234-8.1875-27.516-8.1719-10.281-21.984-10.281-3.7188 0-7.5312 0.73438-3.7969 0.73438-7.9062 2.2031zm19.625 30.906q6.6406 0 10.516 4.5312 3.8906 4.5469 3.8906 12.469 0 7.8594-3.8906 12.422-3.875 4.5625-10.516 4.5625t-10.516-4.5625-3.875-12.422q0-7.9219 3.875-12.469 3.875-4.5312 10.516-4.5312z"/>
</defs>
<g transform="translate(701.49 277.34) scale(.1 -.1)">
<use xlink:href="#c"/>
<use x="63.623047" xlink:href="#h"/>
<use x="95.410156" xlink:href="#z"/>
</g>
</g>
<g clip-path="url(#a)">
<defs>
<path id="ab" d="m31.781 66.406q-7.6094 0-11.453-7.5-3.8281-7.4844-3.8281-22.531 0-14.984 3.8281-22.484 3.8438-7.5 11.453-7.5 7.6719 0 11.5 7.5 3.8438 7.5 3.8438 22.484 0 15.047-3.8438 22.531-3.8281 7.5-11.5 7.5zm0 7.8125q12.266 0 18.734-9.7031 6.4688-9.6875 6.4688-28.141 0-18.406-6.4688-28.109-6.4688-9.6875-18.734-9.6875-12.25 0-18.719 9.6875-6.4688 9.7031-6.4688 28.109 0 18.453 6.4688 28.141 6.4688 9.7031 18.719 9.7031z"/>
</defs>
<g transform="translate(956.4 519.85) scale(.1 -.1)">
<use xlink:href="#c"/>
<use x="63.623047" xlink:href="#h"/>
<use x="95.410156" xlink:href="#c"/>
<use x="159.033203" xlink:href="#ab"/>
</g>
</g>
<g clip-path="url(#a)">
<g transform="translate(950.89 398.91) scale(.1 -.1)">
<use xlink:href="#c"/>
<use x="63.623047" xlink:href="#h"/>
<use x="95.410156" xlink:href="#c"/>
<use x="159.033203" xlink:href="#c"/>
</g>
</g>
<g clip-path="url(#a)">
<g transform="translate(873.68 519.85) scale(.1 -.1)">
<use xlink:href="#c"/>
<use x="63.623047" xlink:href="#h"/>
<use x="95.410156" xlink:href="#c"/>
<use x="159.033203" xlink:href="#m"/>
</g>
</g>
<g clip-path="url(#a)">
<g transform="translate(949.79 519.85) scale(.1 -.1)">
<use xlink:href="#c"/>
<use x="63.623047" xlink:href="#h"/>
<use x="95.410156" xlink:href="#c"/>
<use x="159.033203" xlink:href="#o"/>
</g>
</g>
<g clip-path="url(#a)">
<g transform="translate(1029.2 519.85) scale(.1 -.1)">
<use xlink:href="#c"/>
<use x="63.623047" xlink:href="#h"/>
<use x="95.410156" xlink:href="#c"/>
<use x="159.033203" xlink:href="#aa"/>
</g>
</g>
<g clip-path="url(#a)">
<g transform="translate(665.22 398.91) scale(.1 -.1)">
<use xlink:href="#c"/>
<use x="63.623047" xlink:href="#h"/>
<use x="95.410156" xlink:href="#c"/>
<use x="159.033203" xlink:href="#x"/>
</g>
</g>
<g clip-path="url(#a)">
<defs>
<path id="ah" d="m33.016 40.375q-6.6406 0-10.531-4.5469-3.875-4.5312-3.875-12.438 0-7.8594 3.875-12.438 3.8906-4.5625 10.531-4.5625t10.516 4.5625q3.875 4.5781 3.875 12.438 0 7.9062-3.875 12.438-3.875 4.5469-10.516 4.5469zm19.578 30.922v-8.9844q-3.7188 1.75-7.5 2.6719-3.7812 0.9375-7.5 0.9375-9.7656 0-14.922-6.5938-5.1406-6.5938-5.875-19.922 2.875 4.25 7.2188 6.5156 4.3594 2.2656 9.5781 2.2656 10.984 0 17.359-6.6719 6.375-6.6562 6.375-18.125 0-11.234-6.6406-18.031-6.6406-6.7812-17.672-6.7812-12.656 0-19.344 9.6875-6.6875 9.7031-6.6875 28.109 0 17.281 8.2031 27.562t22.016 10.281q3.7188 0 7.5-0.73438t7.8906-2.1875z"/>
</defs>
<g transform="translate(731.4 519.85) scale(.1 -.1)">
<use xlink:href="#c"/>
<use x="63.623047" xlink:href="#h"/>
<use x="95.410156" xlink:href="#c"/>
<use x="159.033203" xlink:href="#ah"/>
</g>
</g>
<g clip-path="url(#a)">
<defs>
<path id="ag" d="m8.2031 72.906h46.875v-4.2031l-26.469-68.703h-10.297l24.906 64.594h-35.016z"/>
</defs>
<g transform="translate(665.22 519.85) scale(.1 -.1)">
<use xlink:href="#c"/>
<use x="63.623047" xlink:href="#h"/>
<use x="95.410156" xlink:href="#c"/>
<use x="159.033203" xlink:href="#ag"/>
</g>
</g>
<g clip-path="url(#a)">
<defs>
<path id="af" d="m31.781 34.625q-7.0312 0-11.062-3.7656-4.0156-3.7656-4.0156-10.344 0-6.5938 4.0156-10.359 4.0312-3.7656 11.062-3.7656t11.078 3.7812q4.0625 3.7969 4.0625 10.344 0 6.5781-4.0312 10.344-4.0156 3.7656-11.109 3.7656zm-9.8594 4.1875q-6.3438 1.5625-9.8906 5.9062-3.5312 4.3594-3.5312 10.609 0 8.7344 6.2188 13.812 6.2344 5.0781 17.062 5.0781 10.891 0 17.094-5.0781t6.2031-13.812q0-6.25-3.5469-10.609-3.5312-4.3438-9.8281-5.9062 7.125-1.6562 11.094-6.5 3.9844-4.8281 3.9844-11.797 0-10.609-6.4688-16.281-6.4688-5.6562-18.531-5.6562-12.047 0-18.531 5.6562-6.4688 5.6719-6.4688 16.281 0 6.9688 4 11.797 4.0156 4.8438 11.141 6.5zm-3.6094 15.578q0-5.6562 3.5312-8.8281 3.5469-3.1719 9.9375-3.1719 6.3594 0 9.9375 3.1719 3.5938 3.1719 3.5938 8.8281 0 5.6719-3.5938 8.8438-3.5781 3.1719-9.9375 3.1719-6.3906 0-9.9375-3.1719-3.5312-3.1719-3.5312-8.8438z"/>
</defs>
<g transform="translate(433.59 519.85) scale(.1 -.1)">
<use xlink:href="#c"/>
<use x="63.623047" xlink:href="#h"/>
<use x="95.410156" xlink:href="#c"/>
<use x="159.033203" xlink:href="#af"/>
</g>
</g>
<g clip-path="url(#a)">
<g transform="translate(514.66 519.85) scale(.1 -.1)">
<use xlink:href="#c"/>
<use x="63.623047" xlink:href="#h"/>
<use x="95.410156" xlink:href="#c"/>
<use x="159.033203" xlink:href="#z"/>
</g>
</g>
<g clip-path="url(#a)">
<g transform="translate(46.443 519.85) scale(.1 -.1)">
<use xlink:href="#c"/>
<use x="63.623047" xlink:href="#h"/>
<use x="95.410156" xlink:href="#m"/>
<use x="159.033203" xlink:href="#ab"/>
</g>
</g>
<g clip-path="url(#a)">
<g transform="translate(56.37 519.85) scale(.1 -.1)">
<use xlink:href="#c"/>
<use x="63.623047" xlink:href="#h"/>
<use x="95.410156" xlink:href="#m"/>
<use x="159.033203" xlink:href="#c"/>
</g>
</g>
<g clip-path="url(#a)">
<g transform="translate(69.606 519.85) scale(.1 -.1)">
<use xlink:href="#c"/>
<use x="63.623047" xlink:href="#h"/>
<use x="95.410156" xlink:href="#m"/>
<use x="159.033203" xlink:href="#m"/>
</g>
</g>
<g clip-path="url(#a)">
<g transform="translate(187.4 277.34) scale(.1 -.1)">
<use xlink:href="#c"/>
<use x="63.623047" xlink:href="#h"/>
<use x="95.410156" xlink:href="#m"/>
<use x="159.033203" xlink:href="#o"/>
</g>
</g>
<g clip-path="url(#a)">
<g transform="translate(106 519.85) scale(.1 -.1)">
<use xlink:href="#c"/>
<use x="63.623047" xlink:href="#h"/>
<use x="95.410156" xlink:href="#m"/>
<use x="159.033203" xlink:href="#x"/>
</g>
</g>
<g clip-path="url(#a)">
<g transform="translate(129.17 519.85) scale(.1 -.1)">
<use xlink:href="#c"/>
<use x="63.623047" xlink:href="#h"/>
<use x="95.410156" xlink:href="#m"/>
<use x="159.033203" xlink:href="#ah"/>
</g>
</g>
<g clip-path="url(#a)">
<g transform="translate(170.53 398.91) scale(.1 -.1)">
<use xlink:href="#c"/>
<use x="63.623047" xlink:href="#h"/>
<use x="95.410156" xlink:href="#m"/>
<use x="159.033203" xlink:href="#ag"/>
</g>
</g>
<g clip-path="url(#a)">
<g transform="translate(236.71 519.85) scale(.1 -.1)">
<use xlink:href="#c"/>
<use x="63.623047" xlink:href="#h"/>
<use x="95.410156" xlink:href="#m"/>
<use x="159.033203" xlink:href="#af"/>
</g>
</g>
<g clip-path="url(#a)">
<g transform="translate(294.61 519.85) scale(.1 -.1)">
<use xlink:href="#c"/>
<use x="63.623047" xlink:href="#h"/>
<use x="95.410156" xlink:href="#m"/>
<use x="159.033203" xlink:href="#z"/>
</g>
</g>
<g clip-path="url(#a)">
<g transform="translate(155.64 519.85) scale(.1 -.1)">
<use xlink:href="#c"/>
<use x="63.623047" xlink:href="#h"/>
<use x="95.410156" xlink:href="#o"/>
<use x="159.033203" xlink:href="#ab"/>
</g>
</g>
<g clip-path="url(#a)">
<g transform="translate(185.42 519.85) scale(.1 -.1)">
<use xlink:href="#c"/>
<use x="63.623047" xlink:href="#h"/>
<use x="95.410156" xlink:href="#o"/>
<use x="159.033203" xlink:href="#c"/>
</g>
</g>
<g clip-path="url(#a)">
<g transform="translate(86.15 519.85) scale(.1 -.1)">
<use xlink:href="#c"/>
<use x="63.623047" xlink:href="#h"/>
<use x="95.410156" xlink:href="#o"/>
<use x="159.033203" xlink:href="#m"/>
</g>
</g>
<g clip-path="url(#a)">
<g transform="translate(337.63 519.85) scale(.1 -.1)">
<use xlink:href="#c"/>
<use x="63.623047" xlink:href="#h"/>
<use x="95.410156" xlink:href="#o"/>
<use x="159.033203" xlink:href="#o"/>
</g>
</g>
<g clip-path="url(#a)">
<g transform="translate(602.35 519.85) scale(.1 -.1)">
<use xlink:href="#c"/>
<use x="63.623047" xlink:href="#h"/>
<use x="95.410156" xlink:href="#o"/>
<use x="159.033203" xlink:href="#aa"/>
</g>
</g>
<g clip-path="url(#a)">
<g transform="translate(1198 519.85) scale(.1 -.1)">
<use xlink:href="#c"/>
<use x="63.623047" xlink:href="#h"/>
<use x="95.410156" xlink:href="#o"/>
<use x="159.033203" xlink:href="#x"/>
</g>
</g>
<defs>
<clipPath id="a">
<rect width="1266.7" height="666.67"/>
</clipPath>
</defs>
</svg>
