<?xml version="1.0" encoding="UTF-8"?>
<!DOCTYPE svg  PUBLIC '-//W3C//DTD SVG 1.1//EN'  'http://www.w3.org/Graphics/SVG/1.1/DTD/svg11.dtd'>
<svg width="1925.3pt" height="1013.3pt" version="1.1" viewBox="0 0 1925.3 1013.3" xmlns="http://www.w3.org/2000/svg" xmlns:xlink="http://www.w3.org/1999/xlink">
<defs>
<style type="text/css">*{stroke-linecap:butt;stroke-linejoin:round;}</style>
</defs>
<path d="m0 1013.3h1925.3v-1013.3h-1925.3z" fill="#fff"/>
<g fill="none" stroke="#000">
<path d="m580.35 46.061v132.82" clip-path="url(#a)"/>
<path d="m580.35 178.88-460.46 264.92" clip-path="url(#a)"/>
<path d="m580.35 178.88-222 264.92" clip-path="url(#a)"/>
<path d="m580.35 178.88 176.2 659.33" clip-path="url(#a)"/>
<path d="m580.35 178.88 232.51 659.33" clip-path="url(#a)"/>
<path d="m580.35 178.88 570.12 132.6" clip-path="url(#a)"/>
<path d="m580.35 178.88-418.5 659.33" clip-path="url(#a)"/>
<path d="m580.35 178.88 122.13 659.33" clip-path="url(#a)"/>
<path d="m119.9 443.8-26.75 132" clip-path="url(#a)"/>
<path d="m119.9 443.8-5.35 394.4" clip-path="url(#a)"/>
<path d="m119.9 443.8 8.1658 394.4" clip-path="url(#a)"/>
<path d="m119.9 443.8 23.934 394.4" clip-path="url(#a)"/>
<path d="m358.35 443.8-176.22 394.4" clip-path="url(#a)"/>
<path d="m358.35 443.8-62.276 132" clip-path="url(#a)"/>
<path d="m358.35 443.8 28.768 394.4" clip-path="url(#a)"/>
<path d="m358.35 443.8 209.73 132" clip-path="url(#a)"/>
<path d="m756.55 838.21v129.07" clip-path="url(#a)"/>
<path d="m812.87 838.21v129.07" clip-path="url(#a)"/>
<path d="m1150.5 311.47-248.62 395.87" clip-path="url(#a)"/>
<path d="m1150.5 311.47-89.061 526.73" clip-path="url(#a)"/>
<path d="m1150.5 311.47 290.09 132.33" clip-path="url(#a)"/>
<path d="m1150.5 311.47 47.599 526.73" clip-path="url(#a)"/>
<path d="m901.85 707.35-30.411 130.86" clip-path="url(#a)"/>
<path d="m901.85 707.35 30.411 130.86" clip-path="url(#a)"/>
<path d="m1061.4 838.21-66.078 129.07" clip-path="url(#a)"/>
<path d="m1061.4 838.21-0.75088 129.07" clip-path="url(#a)"/>
<path d="m1061.4 838.21 66.828 129.07" clip-path="url(#a)"/>
<path d="m1440.6 443.8-170.4 394.4" clip-path="url(#a)"/>
<path d="m1440.6 443.8-57.771 263.54" clip-path="url(#a)"/>
<path d="m1440.6 443.8-19.476 394.4" clip-path="url(#a)"/>
<path d="m1440.6 443.8 247.65 132" clip-path="url(#a)"/>
<path d="m1270.2 838.21v129.07" clip-path="url(#a)"/>
<path d="m1382.8 707.35 38.295 130.86" clip-path="url(#a)" stroke-dasharray="3.7,1.6"/>
<path d="m1382.8 707.35-38.295 130.86" clip-path="url(#a)"/>
<path d="m1421.1 838.21v129.07" clip-path="url(#a)"/>
<path d="m1688.2 575.8-188.28 262.41" clip-path="url(#a)"/>
<path d="m1688.2 575.8-23.09 131.55" clip-path="url(#a)"/>
<path d="m1688.2 575.8 61.76 262.41" clip-path="url(#a)"/>
<path d="m1688.2 575.8 149.61 262.41" clip-path="url(#a)"/>
<path d="m1499.9 838.21v129.07" clip-path="url(#a)"/>
<path d="m1665.1 707.35 84.85 130.86" clip-path="url(#a)" stroke-dasharray="3.7,1.6"/>
<path d="m1665.1 707.35-84.099 130.86" clip-path="url(#a)"/>
<path d="m1665.1 707.35-0.75088 130.86" clip-path="url(#a)"/>
<path d="m1750 838.21v129.07" clip-path="url(#a)"/>
<path d="m1581 838.21v129.07" clip-path="url(#a)"/>
<path d="m1664.4 838.21v129.07" clip-path="url(#a)"/>
<path d="m1344.5 838.21v129.07" clip-path="url(#a)"/>
<path d="m871.43 838.21v129.07" clip-path="url(#a)"/>
<path d="m932.26 838.21v129.07" clip-path="url(#a)"/>
<path d="m182.13 838.21v129.07" clip-path="url(#a)"/>
<path d="m296.07 575.8-65.89 131.55" clip-path="url(#a)"/>
<path d="m296.07 575.8 21.212 262.41" clip-path="url(#a)"/>
<path d="m296.07 575.8 55.002 262.41" clip-path="url(#a)"/>
<path d="m296.07 575.8-10.325 262.41" clip-path="url(#a)"/>
<path d="m387.12 838.21v129.07" clip-path="url(#a)"/>
<path d="m568.08 575.8-101.37 131.55" clip-path="url(#a)"/>
<path d="m568.08 575.8 33.039 262.41" clip-path="url(#a)"/>
<path d="m568.08 575.8 82.597 262.41" clip-path="url(#a)"/>
<path d="m568.08 575.8-14.267 262.41" clip-path="url(#a)"/>
<path d="m466.71 707.35-41.298 259.93" clip-path="url(#a)"/>
<path d="m466.71 707.35 42.049 259.93" clip-path="url(#a)"/>
<path d="m466.71 707.35-0.75088 130.86" clip-path="url(#a)"/>
<path d="m601.12 838.21v129.07" clip-path="url(#a)"/>
<path d="m650.68 838.21v129.07" clip-path="url(#a)"/>
<path d="m230.18 707.35-25.53 259.93" clip-path="url(#a)"/>
<path d="m230.18 707.35 26.281 259.93" clip-path="url(#a)"/>
<path d="m230.18 707.35-0.75088 130.86" clip-path="url(#a)"/>
<path d="m317.28 838.21v129.07" clip-path="url(#a)"/>
<path d="m351.07 838.21v129.07" clip-path="url(#a)"/>
<path d="m93.147 575.8-5.6316 262.41" clip-path="url(#a)"/>
<path d="m93.147 575.8 5.6316 131.55" clip-path="url(#a)"/>
<path d="m114.55 838.21v129.07" clip-path="url(#a)"/>
<path d="m128.06 838.21v129.07" clip-path="url(#a)"/>
<path d="m143.83 838.21v129.07" clip-path="url(#a)"/>
<path d="m87.515 838.21v129.07" clip-path="url(#a)"/>
<path d="m98.778 707.35-4.5053 130.86" clip-path="url(#a)"/>
<path d="m98.778 707.35 4.5053 130.86" clip-path="url(#a)"/>
<path d="m94.273 838.21v129.07" clip-path="url(#a)"/>
<path d="m103.28 838.21v129.07" clip-path="url(#a)"/>
<path d="m161.85 838.21v129.07" clip-path="url(#a)"/>
<path d="m229.43 838.21v129.07" clip-path="url(#a)"/>
<path d="m285.75 838.21v129.07" clip-path="url(#a)"/>
<path d="m465.96 838.21v129.07" clip-path="url(#a)"/>
<path d="m553.81 838.21v129.07" clip-path="url(#a)"/>
<path d="m702.49 838.21v129.07" clip-path="url(#a)"/>
<path d="m1198.1 838.21v129.07" clip-path="url(#a)"/>
<path d="m1837.8 838.21v129.07" clip-path="url(#a)"/>
</g>
<path d="m574.08 109.46v6.0162q0 2.4 2.4 2.4h7.7425q2.4 0 2.4-2.4v-6.0162q0-2.4-2.4-2.4h-7.7425q-2.4 0-2.4 2.4z" clip-path="url(#a)" fill="#fff" stroke="#fff"/>
<g clip-path="url(#a)">
<defs>
<path id="ap" d="m9.8125 72.906h9.8594v-29.891h35.844v29.891h9.8594v-72.906h-9.8594v34.719h-35.844v-34.719h-9.8594z"/>
</defs>
<g transform="translate(578.15 109.46) rotate(90) scale(.08 -.08)">
<use xlink:href="#ap"/>
</g>
</g>
<path d="m350.88 318.14 4.7434-2.7291q2.0803-1.1969 0.88338-3.2771l-3.8612-6.711q-1.1969-2.0803-3.2771-0.88338l-4.7434 2.7291q-2.0803 1.1969-0.88337 3.2771l3.8612 6.711q1.1969 2.0803 3.2771 0.88337z" clip-path="url(#a)" fill="#fff" stroke="#fff"/>
<g clip-path="url(#a)">
<defs>
<path id="u" d="m34.188 63.188-13.391-36.281h26.812zm-5.5781 9.7188h11.188l27.781-72.906h-10.25l-6.6406 18.703h-32.859l-6.6406-18.703h-10.406z"/>
</defs>
<g transform="translate(348.85 314.62) rotate(-29.914) scale(.08 -.08)">
<use xlink:href="#u"/>
</g>
</g>
<path d="m472.4 317.47 3.5149-4.1945q1.5415-1.8395-0.29802-3.381l-5.9343-4.9729q-1.8395-1.5415-3.381 0.29802l-3.5149 4.1945q-1.5415 1.8395 0.29802 3.381l5.9343 4.9729q1.8395 1.5415 3.381-0.29802z" clip-path="url(#a)" fill="#fff" stroke="#fff"/>
<g clip-path="url(#a)">
<g transform="translate(469.29 314.86) rotate(-50.037) scale(.08 -.08)">
<use xlink:href="#u"/>
</g>
</g>
<path d="m661.77 507.83 1.2454 4.6602q0.61963 2.3186 2.9383 1.699l7.48-1.9989q2.3186-0.61963 1.699-2.9383l-1.2454-4.6602q-0.61963-2.3186-2.9383-1.699l-7.48 1.9989q-2.3186 0.61963-1.699 2.9383z" clip-path="url(#a)" fill="#fff" stroke="#fff"/>
<g clip-path="url(#a)">
<defs>
<path id="av" d="m19.672 64.797v-27.391h12.406q6.8906 0 10.641 3.5625 3.7656 3.5625 3.7656 10.156 0 6.5469-3.7656 10.109-3.75 3.5625-10.641 3.5625zm-9.8594 8.1094h22.266q12.266 0 18.531-5.5469 6.2812-5.5469 6.2812-16.234 0-10.797-6.2812-16.312-6.2656-5.5156-18.531-5.5156h-12.406v-29.297h-9.8594z"/>
</defs>
<g transform="translate(665.7 506.78) rotate(75.038) scale(.08 -.08)">
<use xlink:href="#av"/>
</g>
</g>
<path d="m689.79 508.05 1.82 5.161q0.79819 2.2634 3.0616 1.4652l7.3018-2.575q2.2634-0.79818 1.4652-3.0616l-1.82-5.161q-0.79818-2.2634-3.0616-1.4652l-7.3018 2.575q-2.2634 0.79819-1.4652 3.0616z" clip-path="url(#a)" fill="#fff" stroke="#fff"/>
<g clip-path="url(#a)">
<g transform="translate(693.62 506.7) rotate(70.575) scale(.08 -.08)">
<use xlink:href="#u"/>
</g>
</g>
<path d="m861.33 250.66 5.3302 1.2397q2.3376 0.54367 2.8813-1.7939l1.7539-7.5412q0.54367-2.3376-1.7939-2.8813l-5.3302-1.2397q-2.3376-0.54367-2.8813 1.7939l-1.7539 7.5412q-0.54367 2.3376 1.7939 2.8813z" clip-path="url(#a)" fill="#fff" stroke="#fff"/>
<g clip-path="url(#a)">
<g transform="translate(862.25 246.71) rotate(13.093) scale(.08 -.08)">
<use xlink:href="#u"/>
</g>
</g>
<path d="m374.83 514.38 3.1377-4.9433q1.2862-2.0263-0.74012-3.3124l-6.5369-4.1492q-2.0263-1.2862-3.3124 0.74012l-3.1377 4.9433q-1.2862 2.0263 0.74012 3.3124l6.5369 4.1492q2.0263 1.2862 3.3124-0.74012z" clip-path="url(#a)" fill="#fff" stroke="#fff"/>
<g clip-path="url(#a)">
<defs>
<path id="s" d="m8.6875 72.906h9.9219v-44.297q0-11.719 4.2344-16.875 4.25-5.1406 13.781-5.1406 9.4688 0 13.719 5.1406 4.25 5.1562 4.25 16.875v44.297h9.9062v-45.516q0-14.25-7.0625-21.531-7.0469-7.2812-20.812-7.2812-13.828 0-20.891 7.2812-7.0469 7.2812-7.0469 21.531z"/>
</defs>
<g transform="translate(371.4 512.2) rotate(-57.595) scale(.08 -.08)">
<use xlink:href="#s"/>
</g>
</g>
<path d="m634.72 506.81 1.0664 5.7571q0.43714 2.3599 2.797 1.9227l7.613-1.4102q2.3599-0.43714 1.9227-2.797l-1.0664-5.7571q-0.43714-2.3599-2.797-1.9227l-7.613 1.4102q-2.3599 0.43714-1.9227 2.797z" clip-path="url(#a)" fill="#fff" stroke="#fff"/>
<g clip-path="url(#a)">
<g transform="translate(638.72 506.07) rotate(79.506) scale(.08 -.08)">
<use xlink:href="#s"/>
</g>
</g>
<path d="m112.17 513.52 1.004-4.9543q0.47669-2.3522-1.8755-2.8289l-7.5882-1.5378q-2.3522-0.47669-2.8289 1.8755l-1.004 4.9543q-0.47669 2.3522 1.8755 2.8289l7.5882 1.5378q2.3522 0.47669 2.8289-1.8755z" clip-path="url(#a)" fill="#fff" stroke="#fff"/>
<g clip-path="url(#a)">
<defs>
<path id="q" d="m9.8125 72.906h46.094v-8.3125h-36.234v-21.578h34.719v-8.2969h-34.719v-26.422h37.109v-8.2969h-46.969z"/>
</defs>
<g transform="translate(108.18 512.72) rotate(-78.544) scale(.08 -.08)">
<use xlink:href="#q"/>
</g>
</g>
<path d="m123.45 643.87 0.075397-5.5582q0.032552-2.3998-2.3672-2.4323l-7.7418-0.10502q-2.3998-0.032552-2.4323 2.3672l-0.075396 5.5582q-0.032553 2.3998 2.3672 2.4323l7.7418 0.10502q2.3998 0.032552 2.4323-2.3672z" clip-path="url(#a)" fill="#fff" stroke="#fff"/>
<g clip-path="url(#a)">
<defs>
<path id="ai" d="m44.391 34.188q3.1719-1.0781 6.1719-4.5938t6.0312-9.6719l10.016-19.922h-10.609l-9.3125 18.703q-3.625 7.3281-7.0156 9.7188t-9.25 2.3906h-10.75v-30.812h-9.8594v72.906h22.266q12.5 0 18.656-5.2344 6.1562-5.2188 6.1562-15.766 0-6.8906-3.2031-11.438-3.2031-4.5312-9.2969-6.2812zm-24.719 30.609v-25.875h12.406q7.125 0 10.766 3.2969t3.6406 9.6875-3.6406 9.6406-10.766 3.25z"/>
</defs>
<g transform="translate(119.39 643.81) rotate(-89.223) scale(.08 -.08)">
<use xlink:href="#ai"/>
</g>
</g>
<path d="m117.64 637.99 0.13036 6.2962q0.04968 2.3995 2.4492 2.3498l7.7408-0.16027q2.3995-0.04968 2.3498-2.4492l-0.13036-6.2962q-0.04968-2.3995-2.4492-2.3498l-7.7408 0.16027q-2.3995 0.049679-2.3498 2.4492z" clip-path="url(#a)" fill="#fff" stroke="#fff"/>
<g clip-path="url(#a)">
<defs>
<path id="aj" d="m39.406 66.219q-10.75 0-17.078-8.0156-6.3125-8-6.3125-21.828 0-13.766 6.3125-21.781 6.3281-8 17.078-8 10.734 0 17.016 8 6.2812 8.0156 6.2812 21.781 0 13.828-6.2812 21.828-6.2812 8.0156-17.016 8.0156zm13.812-64.906 13-14.203h-11.922l-10.797 11.672q-1.6094-0.09375-2.4688-0.14062-0.84375-0.0625-1.625-0.0625-15.375 0-24.594 10.281-9.2031 10.281-9.2031 27.516 0 17.281 9.2031 27.562 9.2188 10.281 24.594 10.281 15.328 0 24.5-10.281 9.1875-10.281 9.1875-27.562 0-12.688-5.1094-21.734-5.0938-9.0312-14.766-13.328z"/>
</defs>
<g transform="translate(121.71 637.9) rotate(88.814) scale(.08 -.08)">
<use xlink:href="#aj"/>
</g>
</g>
<path d="m125.44 638.6 0.33838 5.576q0.14538 2.3956 2.541 2.2502l7.7283-0.46899q2.3956-0.14538 2.2502-2.541l-0.33838-5.576q-0.14538-2.3956-2.541-2.2502l-7.7283 0.46899q-2.3956 0.14538-2.2502 2.541z" clip-path="url(#a)" fill="#fff" stroke="#fff"/>
<g clip-path="url(#a)">
<defs>
<path id="r" d="m64.406 67.281v-10.391q-4.9844 4.6406-10.625 6.9219-5.6406 2.2969-11.984 2.2969-12.5 0-19.141-7.6406t-6.6406-22.094q0-14.406 6.6406-22.047t19.141-7.6406q6.3438 0 11.984 2.2969t10.625 6.9375v-10.312q-5.1719-3.5156-10.969-5.2812-5.7812-1.75-12.219-1.75-16.562 0-26.094 10.125-9.5156 10.141-9.5156 27.672 0 17.578 9.5156 27.703 9.5312 10.141 26.094 10.141 6.5312 0 12.312-1.7344 5.7969-1.7344 10.875-5.2031z"/>
</defs>
<g transform="translate(129.49 638.35) rotate(86.527) scale(.08 -.08)">
<use xlink:href="#r"/>
</g>
</g>
<path d="m274.83 646.1 2.2676-5.0752q0.97905-2.1912-1.2122-3.1703l-7.069-3.1585q-2.1912-0.97905-3.1703 1.2122l-2.2676 5.0752q-0.97905 2.1912 1.2122 3.1703l7.069 3.1585q2.1912 0.97905 3.1703-1.2122z" clip-path="url(#a)" fill="#fff" stroke="#fff"/>
<g clip-path="url(#a)">
<g transform="translate(271.12 644.44) rotate(-65.925) scale(.08 -.08)">
<use xlink:href="#ai"/>
</g>
</g>
<path d="m331.69 515 2.3836-5.0522q1.0241-2.1705-1.1465-3.1946l-7.0023-3.3037q-2.1705-1.0241-3.1946 1.1465l-2.3836 5.0522q-1.0241 2.1705 1.1465 3.1946l7.0023 3.3037q2.1705 1.0241 3.1946-1.1465z" clip-path="url(#a)" fill="#fff" stroke="#fff"/>
<g clip-path="url(#a)">
<g transform="translate(328.01 513.27) rotate(-64.742) scale(.08 -.08)">
<use xlink:href="#r"/>
</g>
</g>
<path d="m366.26 638.48 0.43539 5.9691q0.17459 2.3936 2.5682 2.219l7.722-0.56325q2.3936-0.17459 2.219-2.5682l-0.43539-5.9691q-0.17459-2.3936-2.5682-2.219l-7.722 0.56325q-2.3936 0.17459-2.219 2.5682z" clip-path="url(#a)" fill="#fff" stroke="#fff"/>
<g clip-path="url(#a)">
<defs>
<path id="an" d="m9.8125 72.906h13.281l32.328-60.984v60.984h9.5625v-72.906h-13.281l-32.312 60.984v-60.984h-9.5781z"/>
</defs>
<g transform="translate(370.31 638.18) rotate(85.828) scale(.08 -.08)">
<use xlink:href="#an"/>
</g>
</g>
<path d="m457.51 513.62 4.7279 2.9755q2.0312 1.2784 3.3096-0.75286l4.124-6.5528q1.2784-2.0312-0.75286-3.3096l-4.7279-2.9755q-2.0312-1.2784-3.3096 0.75286l-4.124 6.5528q-1.2784 2.0312 0.75285 3.3096z" clip-path="url(#a)" fill="#fff" stroke="#fff"/>
<g clip-path="url(#a)">
<g transform="translate(459.67 510.18) rotate(32.185) scale(.08 -.08)">
<use xlink:href="#r"/>
</g>
</g>
<path d="m750.28 885.84v33.808q0 2.4 2.4 2.4h7.7425q2.4 0 2.4-2.4v-33.808q0-2.4-2.4-2.4h-7.7425q-2.4 0-2.4 2.4z" clip-path="url(#a)" fill="#fff" stroke="#fff"/>
<g clip-path="url(#a)">
<defs>
<path id="k" d="m-0.29688 72.906h61.672v-8.3125h-25.875v-64.594h-9.9062v64.594h-25.891z"/>
<path id="d" d="m56.203 29.594v-4.3906h-41.312q0.59375-9.2812 5.5938-14.141t13.938-4.8594q5.1719 0 10.031 1.2656t9.6562 3.8125v-8.5q-4.8438-2.0469-9.9219-3.125t-10.297-1.0781q-13.094 0-20.734 7.6094-7.6406 7.625-7.6406 20.625 0 13.422 7.25 21.297 7.25 7.8906 19.562 7.8906 11.031 0 17.453-7.1094 6.4219-7.0938 6.4219-19.297zm-8.9844 2.6406q-0.09375 7.3594-4.125 11.75-4.0312 4.4062-10.672 4.4062-7.5156 0-12.031-4.25t-5.2031-11.969z"/>
<path id="f" d="m41.109 46.297q-1.5156 0.875-3.2969 1.2812-1.7812 0.42188-3.9219 0.42188-7.625 0-11.703-4.9531t-4.0781-14.234v-28.812h-9.0312v54.688h9.0312v-8.5q2.8438 4.9844 7.375 7.3906 4.5469 2.4219 11.047 2.4219 0.92188 0 2.0469-0.125 1.125-0.10938 2.4844-0.35938z"/>
<path id="l" d="m52 44.188q3.375 6.0625 8.0625 8.9375t11.031 2.875q8.5469 0 13.188-5.9844 4.6406-5.9688 4.6406-17v-33.016h-9.0312v32.719q0 7.8594-2.7969 11.656-2.7812 3.8125-8.4844 3.8125-6.9844 0-11.047-4.6406-4.0469-4.625-4.0469-12.641v-30.906h-9.0312v32.719q0 7.9062-2.7812 11.688t-8.5938 3.7812q-6.8906 0-10.953-4.6562-4.0469-4.6562-4.0469-12.625v-30.906h-9.0312v54.688h9.0312v-8.5q3.0781 5.0312 7.375 7.4219t10.203 2.3906q5.9688 0 10.141-3.0312 4.1719-3.0156 6.1719-8.7812z"/>
<path id="g" d="m9.4219 54.688h8.9844v-54.688h-8.9844zm0 21.297h8.9844v-11.391h-8.9844z"/>
<path id="e" d="m54.891 33.016v-33.016h-8.9844v32.719q0 7.7656-3.0312 11.609-3.0312 3.8594-9.0781 3.8594-7.2812 0-11.484-4.6406-4.2031-4.625-4.2031-12.641v-30.906h-9.0312v54.688h9.0312v-8.5q3.2344 4.9375 7.5938 7.375 4.375 2.4375 10.094 2.4375 9.4219 0 14.25-5.8281 4.8438-5.8281 4.8438-17.156z"/>
<path id="i" d="m34.281 27.484q-10.891 0-15.094-2.4844t-4.2031-8.5q0-4.7812 3.1562-7.5938 3.1562-2.7969 8.5625-2.7969 7.4844 0 12 5.2969t4.5156 14.078v2zm17.922 3.7188v-31.203h-8.9844v8.2969q-3.0781-4.9688-7.6719-7.3438t-11.234-2.375q-8.3906 0-13.359 4.7188-4.9531 4.7188-4.9531 12.625 0 9.2188 6.1719 13.906 6.1875 4.6875 18.438 4.6875h12.609v0.89062q0 6.2031-4.0781 9.5938t-11.453 3.3906q-4.6875 0-9.1406-1.125-4.4375-1.125-8.5312-3.375v8.3125q4.9219 1.9062 9.5625 2.8438 4.6406 0.95312 9.0312 0.95312 11.875 0 17.734-6.1562 5.8594-6.1406 5.8594-18.641z"/>
<path id="j" d="m9.4219 75.984h8.9844v-75.984h-8.9844z"/>
</defs>
<g transform="translate(754.34 885.84) rotate(90) scale(.08 -.08)">
<use xlink:href="#k"/>
<use x="44.083984" xlink:href="#d"/>
<use x="105.607422" xlink:href="#f"/>
<use x="144.970703" xlink:href="#l"/>
<use x="242.382812" xlink:href="#g"/>
<use x="270.166016" xlink:href="#e"/>
<use x="333.544922" xlink:href="#i"/>
<use x="394.824219" xlink:href="#j"/>
</g>
</g>
<path d="m806.59 885.84v33.808q0 2.4 2.4 2.4h7.7425q2.4 0 2.4-2.4v-33.808q0-2.4-2.4-2.4h-7.7425q-2.4 0-2.4 2.4z" clip-path="url(#a)" fill="#fff" stroke="#fff"/>
<g clip-path="url(#a)">
<g transform="translate(810.66 885.84) rotate(90) scale(.08 -.08)">
<use xlink:href="#k"/>
<use x="44.083984" xlink:href="#d"/>
<use x="105.607422" xlink:href="#f"/>
<use x="144.970703" xlink:href="#l"/>
<use x="242.382812" xlink:href="#g"/>
<use x="270.166016" xlink:href="#e"/>
<use x="333.544922" xlink:href="#i"/>
<use x="394.824219" xlink:href="#j"/>
</g>
</g>
<path d="m1030.1 514.89 2.6885-4.2808q1.2764-2.0324-0.75597-3.3089l-6.5566-4.1178q-2.0324-1.2764-3.3089 0.75598l-2.6885 4.2808q-1.2764 2.0324 0.75597 3.3089l6.5566 4.1178q2.0324 1.2764 3.3089-0.75598z" clip-path="url(#a)" fill="#fff" stroke="#fff"/>
<g clip-path="url(#a)">
<g transform="translate(1026.7 512.72) rotate(-57.869) scale(.08 -.08)">
<use xlink:href="#q"/>
</g>
</g>
<path d="m1111.7 578.64 0.93132-5.5081q0.40012-2.3664-1.9663-2.7665l-7.6341-1.2908q-2.3664-0.40012-2.7665 1.9663l-0.93132 5.5081q-0.40012 2.3664 1.9663 2.7665l7.6341 1.2908q2.3664 0.40012 2.7665-1.9663z" clip-path="url(#a)" fill="#fff" stroke="#fff"/>
<g clip-path="url(#a)">
<g transform="translate(1107.6 577.96) rotate(-80.403) scale(.08 -.08)">
<use xlink:href="#r"/>
</g>
</g>
<path d="m1290.6 382.3 4.5991 2.098q2.1835 0.99607 3.1796-1.1875l3.2134-7.0442q0.99607-2.1835-1.1875-3.1796l-4.5991-2.098q-2.1835-0.99607-3.1796 1.1875l-3.2134 7.0442q-0.99607 2.1835 1.1875 3.1796z" clip-path="url(#a)" fill="#fff" stroke="#fff"/>
<g clip-path="url(#a)">
<g transform="translate(1292.3 378.6) rotate(24.521) scale(.08 -.08)">
<use xlink:href="#q"/>
</g>
</g>
<path d="m1167.8 572.49 0.52695 5.8312q0.216 2.3903 2.6063 2.1743l7.7111-0.69682q2.3903-0.216 2.1743-2.6063l-0.52695-5.8312q-0.216-2.3903-2.6063-2.1743l-7.7111 0.69682q-2.3903 0.216-2.1743 2.6063z" clip-path="url(#a)" fill="#fff" stroke="#fff"/>
<g clip-path="url(#a)">
<g transform="translate(1171.8 572.12) rotate(84.836) scale(.08 -.08)">
<use xlink:href="#s"/>
</g>
</g>
<path d="m892.23 776.44 1.0415-4.4818q0.54326-2.3377-1.7944-2.881l-7.5415-1.7526q-2.3377-0.54326-2.881 1.7944l-1.0415 4.4818q-0.54326 2.3377 1.7944 2.881l7.5415 1.7526q2.3377 0.54326 2.881-1.7944z" clip-path="url(#a)" fill="#fff" stroke="#fff"/>
<g clip-path="url(#a)">
<defs>
<path id="ae" d="m9.8125 72.906h41.891v-8.3125h-32.031v-21.484h28.906v-8.2969h-28.906v-34.812h-9.8594z"/>
</defs>
<g transform="translate(888.27 775.52) rotate(-76.917) scale(.08 -.08)">
<use xlink:href="#ae"/>
</g>
</g>
<path d="m910.31 771.48 1.2645 5.4413q0.54326 2.3377 2.881 1.7944l7.5415-1.7526q2.3377-0.54326 1.7944-2.881l-1.2645-5.4413q-0.54326-2.3377-2.881-1.7944l-7.5415 1.7526q-2.3377 0.54326-1.7944 2.881z" clip-path="url(#a)" fill="#fff" stroke="#fff"/>
<g clip-path="url(#a)">
<g transform="translate(914.27 770.56) rotate(76.917) scale(.08 -.08)">
<use xlink:href="#r"/>
</g>
</g>
<path d="m1026.2 920.64 15.407-30.093q1.0937-2.1363-1.0426-3.23l-6.8918-3.5284q-2.1363-1.0937-3.23 1.0426l-15.407 30.093q-1.0937 2.1363 1.0426 3.23l6.8918 3.5284q2.1363 1.0937 3.23-1.0426z" clip-path="url(#a)" fill="#fff" stroke="#fff"/>
<g clip-path="url(#a)">
<g transform="translate(1022.6 918.79) rotate(-62.889) scale(.08 -.08)">
<use xlink:href="#k"/>
<use x="44.083984" xlink:href="#d"/>
<use x="105.607422" xlink:href="#f"/>
<use x="144.970703" xlink:href="#l"/>
<use x="242.382812" xlink:href="#g"/>
<use x="270.166016" xlink:href="#e"/>
<use x="333.544922" xlink:href="#i"/>
<use x="394.824219" xlink:href="#j"/>
</g>
</g>
<path d="m1067.2 919.68 0.19668-33.807q0.013963-2.4-2.386-2.4139l-7.7424-0.045044q-2.4-0.013962-2.4139 2.386l-0.19668 33.807q-0.013963 2.4 2.386 2.4139l7.7424 0.045044q2.4 0.013962 2.4139-2.386z" clip-path="url(#a)" fill="#fff" stroke="#fff"/>
<g clip-path="url(#a)">
<g transform="translate(1063.1 919.66) rotate(-89.667) scale(.08 -.08)">
<use xlink:href="#k"/>
<use x="44.083984" xlink:href="#d"/>
<use x="105.607422" xlink:href="#f"/>
<use x="144.970703" xlink:href="#l"/>
<use x="242.382812" xlink:href="#g"/>
<use x="270.166016" xlink:href="#e"/>
<use x="333.544922" xlink:href="#i"/>
<use x="394.824219" xlink:href="#j"/>
</g>
</g>
<path d="m1081.5 890.61 15.545 30.022q1.1035 2.1312 3.2348 1.0277l6.8755-3.56q2.1312-1.1035 1.0277-3.2348l-15.545-30.022q-1.1035-2.1312-3.2348-1.0277l-6.8755 3.56q-2.1312 1.1035-1.0277 3.2348z" clip-path="url(#a)" fill="#fff" stroke="#fff"/>
<g clip-path="url(#a)">
<g transform="translate(1085.1 888.74) rotate(62.626) scale(.08 -.08)">
<use xlink:href="#k"/>
<use x="44.083984" xlink:href="#d"/>
<use x="105.607422" xlink:href="#f"/>
<use x="144.970703" xlink:href="#l"/>
<use x="242.382812" xlink:href="#g"/>
<use x="270.166016" xlink:href="#e"/>
<use x="333.544922" xlink:href="#i"/>
<use x="394.824219" xlink:href="#j"/>
</g>
</g>
<path d="m1360.2 645.6 1.8249-4.2239q0.95188-2.2032-1.2513-3.155l-7.1075-3.0708q-2.2032-0.95188-3.155 1.2513l-1.8249 4.2239q-0.95188 2.2032 1.2513 3.155l7.1075 3.0708q2.2032 0.95188 3.155-1.2513z" clip-path="url(#a)" fill="#fff" stroke="#fff"/>
<g clip-path="url(#a)">
<g transform="translate(1356.5 643.99) rotate(-66.633) scale(.08 -.08)">
<use xlink:href="#ae"/>
</g>
</g>
<path d="m1417.3 579.39 1.0824-4.9378q0.5139-2.3443-1.8304-2.8582l-7.5629-1.6579q-2.3443-0.5139-2.8582 1.8304l-1.0824 4.9378q-0.5139 2.3443 1.8304 2.8582l7.5629 1.6579q2.3443 0.5139 2.8582-1.8304z" clip-path="url(#a)" fill="#fff" stroke="#fff"/>
<g clip-path="url(#a)">
<g transform="translate(1413.3 578.52) rotate(-77.636) scale(.08 -.08)">
<use xlink:href="#q"/>
</g>
</g>
<path d="m1436.9 644.1 0.27552-5.5795q0.11837-2.3971-2.2787-2.5154l-7.7331-0.38187q-2.3971-0.11837-2.5154 2.2787l-0.27552 5.5795q-0.11837 2.3971 2.2787 2.5154l7.7331 0.38187q2.3971 0.11837 2.5154-2.2787z" clip-path="url(#a)" fill="#fff" stroke="#fff"/>
<g clip-path="url(#a)">
<g transform="translate(1432.9 643.9) rotate(-87.173) scale(.08 -.08)">
<use xlink:href="#r"/>
</g>
</g>
<path d="m1559.2 514.15 4.4609 2.3776q2.1179 1.1288 3.2468-0.9891l3.6417-6.8326q1.1288-2.1179-0.9891-3.2468l-4.4609-2.3776q-2.1179-1.1288-3.2468 0.9891l-3.6417 6.8326q-1.1288 2.1179 0.9891 3.2468z" clip-path="url(#a)" fill="#fff" stroke="#fff"/>
<g clip-path="url(#a)">
<g transform="translate(1561.1 510.56) rotate(28.057) scale(.08 -.08)">
<use xlink:href="#q"/>
</g>
</g>
<path d="m1263.9 885.84v33.808q0 2.4 2.4 2.4h7.7425q2.4 0 2.4-2.4v-33.808q0-2.4-2.4-2.4h-7.7425q-2.4 0-2.4 2.4z" clip-path="url(#a)" fill="#fff" stroke="#fff"/>
<g clip-path="url(#a)">
<g transform="translate(1267.9 885.84) rotate(90) scale(.08 -.08)">
<use xlink:href="#k"/>
<use x="44.083984" xlink:href="#d"/>
<use x="105.607422" xlink:href="#f"/>
<use x="144.970703" xlink:href="#l"/>
<use x="242.382812" xlink:href="#g"/>
<use x="270.166016" xlink:href="#e"/>
<use x="333.544922" xlink:href="#i"/>
<use x="394.824219" xlink:href="#j"/>
</g>
</g>
<path d="m1395.1 771.91 1.537 5.2522q0.67406 2.3034 2.9775 1.6293l7.4309-2.1746q2.3034-0.67406 1.6293-2.9775l-1.537-5.2522q-0.67406-2.3034-2.9775-1.6293l-7.4309 2.1746q-2.3034 0.67406-1.6293 2.9775z" clip-path="url(#a)" fill="#fff" stroke="#fff"/>
<g clip-path="url(#a)">
<g transform="translate(1399 770.77) rotate(73.689) scale(.08 -.08)">
<use xlink:href="#u"/>
</g>
</g>
<path d="m1368.9 776.98 1.4264-4.8743q0.67406-2.3034-1.6293-2.9775l-7.4309-2.1746q-2.3034-0.67406-2.9775 1.6293l-1.4264 4.8743q-0.67406 2.3034 1.6293 2.9775l7.4309 2.1746q2.3034 0.67406 2.9775-1.6293z" clip-path="url(#a)" fill="#fff" stroke="#fff"/>
<g clip-path="url(#a)">
<defs>
<path id="ad" d="m53.516 70.516v-9.625q-5.6094 2.6875-10.594 4-4.9844 1.3281-9.625 1.3281-8.0469 0-12.422-3.125t-4.375-8.8906q0-4.8438 2.9062-7.3125 2.9062-2.4531 11.016-3.9688l5.9531-1.2188q11.031-2.1094 16.281-7.4062t5.25-14.172q0-10.609-7.1094-16.078-7.0938-5.4688-20.812-5.4688-5.1719 0-11.016 1.1719-5.8281 1.1719-12.078 3.4688v10.156q6-3.3594 11.766-5.0781 5.7656-1.7031 11.328-1.7031 8.4375 0 13.031 3.3125 4.5938 3.3281 4.5938 9.4844 0 5.3594-3.2969 8.3906t-10.812 4.5469l-6.0156 1.1719q-11.031 2.1875-15.969 6.875-4.9219 4.6875-4.9219 13.047 0 9.6719 6.8125 15.234t18.766 5.5625q5.1406 0 10.453-0.9375 5.3281-0.92188 10.891-2.7656z"/>
</defs>
<g transform="translate(1365 775.83) rotate(-73.689) scale(.08 -.08)">
<use xlink:href="#ad"/>
</g>
</g>
<path d="m1414.8 885.84v33.808q0 2.4 2.4 2.4h7.7425q2.4 0 2.4-2.4v-33.808q0-2.4-2.4-2.4h-7.7425q-2.4 0-2.4 2.4z" clip-path="url(#a)" fill="#fff" stroke="#fff"/>
<g clip-path="url(#a)">
<g transform="translate(1418.9 885.84) rotate(90) scale(.08 -.08)">
<use xlink:href="#k"/>
<use x="44.083984" xlink:href="#d"/>
<use x="105.607422" xlink:href="#f"/>
<use x="144.970703" xlink:href="#l"/>
<use x="242.382812" xlink:href="#g"/>
<use x="270.166016" xlink:href="#e"/>
<use x="333.544922" xlink:href="#i"/>
<use x="394.824219" xlink:href="#j"/>
</g>
</g>
<path d="m1597.7 712.71 2.9469-4.1071q1.3991-1.95-0.55083-3.3491l-6.2907-4.5137q-1.95-1.3991-3.3491 0.55083l-2.9469 4.1071q-1.3991 1.95 0.55083 3.3491l6.2907 4.5137q1.95 1.3991 3.3491-0.55083z" clip-path="url(#a)" fill="#fff" stroke="#fff"/>
<g clip-path="url(#a)">
<g transform="translate(1594.4 710.34) rotate(-54.34) scale(.08 -.08)">
<use xlink:href="#q"/>
</g>
</g>
<path d="m1682.4 645.15 0.87391-4.9789q0.41491-2.3639-1.949-2.7788l-7.6259-1.3385q-2.3639-0.41491-2.7788 1.949l-0.87391 4.9789q-0.41491 2.3639 1.949 2.7788l7.6259 1.3385q2.3639 0.41491 2.7788-1.949z" clip-path="url(#a)" fill="#fff" stroke="#fff"/>
<g clip-path="url(#a)">
<g transform="translate(1678.4 644.44) rotate(-80.045) scale(.08 -.08)">
<use xlink:href="#q"/>
</g>
</g>
<path d="m1712.3 705.72 1.2798 5.4377q0.54984 2.3362 2.886 1.7863l7.5366-1.7738q2.3362-0.54984 1.7863-2.886l-1.2798-5.4377q-0.54984-2.3362-2.886-1.7863l-7.5366 1.7738q-2.3362 0.54984-1.7863 2.886z" clip-path="url(#a)" fill="#fff" stroke="#fff"/>
<g clip-path="url(#a)">
<g transform="translate(1716.3 704.79) rotate(76.756) scale(.08 -.08)">
<use xlink:href="#r"/>
</g>
</g>
<path d="m1756.1 707.57 2.9 5.0864q1.1887 2.0849 3.2737 0.8962l6.7261-3.8349q2.0849-1.1887 0.8962-3.2737l-2.9-5.0864q-1.1887-2.0849-3.2737-0.8962l-6.7261 3.8349q-2.0849 1.1887-0.8962 3.2737z" clip-path="url(#a)" fill="#fff" stroke="#fff"/>
<g clip-path="url(#a)">
<g transform="translate(1759.6 705.55) rotate(60.31) scale(.08 -.08)">
<use xlink:href="#s"/>
</g>
</g>
<path d="m1493.7 885.84v33.808q0 2.4 2.4 2.4h7.7425q2.4 0 2.4-2.4v-33.808q0-2.4-2.4-2.4h-7.7425q-2.4 0-2.4 2.4z" clip-path="url(#a)" fill="#fff" stroke="#fff"/>
<g clip-path="url(#a)">
<g transform="translate(1497.7 885.84) rotate(90) scale(.08 -.08)">
<use xlink:href="#k"/>
<use x="44.083984" xlink:href="#d"/>
<use x="105.607422" xlink:href="#f"/>
<use x="144.970703" xlink:href="#l"/>
<use x="242.382812" xlink:href="#g"/>
<use x="270.166016" xlink:href="#e"/>
<use x="333.544922" xlink:href="#i"/>
<use x="394.824219" xlink:href="#j"/>
</g>
</g>
<path d="m1700.8 773.89 2.9773 4.5918q1.3057 2.0137 3.3194 0.70804l6.4964-4.2122q2.0137-1.3057 0.70804-3.3194l-2.9773-4.5918q-1.3057-2.0137-3.3194-0.70804l-6.4964 4.2122q-2.0137 1.3057-0.70804 3.3194z" clip-path="url(#a)" fill="#fff" stroke="#fff"/>
<g clip-path="url(#a)">
<g transform="translate(1704.2 771.68) rotate(57.041) scale(.08 -.08)">
<use xlink:href="#u"/>
</g>
</g>
<path d="m1626.9 778.47 2.9586-4.6038q1.2975-2.019-0.72148-3.3165l-6.5134-4.1859q-2.019-1.2975-3.3165 0.72148l-2.9586 4.6038q-1.2975 2.019 0.72148 3.3165l6.5134 4.1859q2.019 1.2975 3.3165-0.72148z" clip-path="url(#a)" fill="#fff" stroke="#fff"/>
<g clip-path="url(#a)">
<g transform="translate(1623.4 776.27) rotate(-57.273) scale(.08 -.08)">
<use xlink:href="#u"/>
</g>
</g>
<path d="m1671 775.35 0.029141-5.0787q0.013771-2.4-2.3862-2.4137l-7.7424-0.044426q-2.4-0.013771-2.4137 2.3862l-0.029142 5.0787q-0.013771 2.4 2.3862 2.4137l7.7424 0.044425q2.4 0.013771 2.4137-2.3862z" clip-path="url(#a)" fill="#fff" stroke="#fff"/>
<g clip-path="url(#a)">
<g transform="translate(1666.9 775.33) rotate(-89.671) scale(.08 -.08)">
<use xlink:href="#ad"/>
</g>
</g>
<path d="m1743.7 885.84v33.808q0 2.4 2.4 2.4h7.7425q2.4 0 2.4-2.4v-33.808q0-2.4-2.4-2.4h-7.7425q-2.4 0-2.4 2.4z" clip-path="url(#a)" fill="#fff" stroke="#fff"/>
<g clip-path="url(#a)">
<g transform="translate(1747.8 885.84) rotate(90) scale(.08 -.08)">
<use xlink:href="#k"/>
<use x="44.083984" xlink:href="#d"/>
<use x="105.607422" xlink:href="#f"/>
<use x="144.970703" xlink:href="#l"/>
<use x="242.382812" xlink:href="#g"/>
<use x="270.166016" xlink:href="#e"/>
<use x="333.544922" xlink:href="#i"/>
<use x="394.824219" xlink:href="#j"/>
</g>
</g>
<path d="m1574.7 885.84v33.808q0 2.4 2.4 2.4h7.7425q2.4 0 2.4-2.4v-33.808q0-2.4-2.4-2.4h-7.7425q-2.4 0-2.4 2.4z" clip-path="url(#a)" fill="#fff" stroke="#fff"/>
<g clip-path="url(#a)">
<g transform="translate(1578.8 885.84) rotate(90) scale(.08 -.08)">
<use xlink:href="#k"/>
<use x="44.083984" xlink:href="#d"/>
<use x="105.607422" xlink:href="#f"/>
<use x="144.970703" xlink:href="#l"/>
<use x="242.382812" xlink:href="#g"/>
<use x="270.166016" xlink:href="#e"/>
<use x="333.544922" xlink:href="#i"/>
<use x="394.824219" xlink:href="#j"/>
</g>
</g>
<path d="m1658.1 885.84v33.808q0 2.4 2.4 2.4h7.7425q2.4 0 2.4-2.4v-33.808q0-2.4-2.4-2.4h-7.7425q-2.4 0-2.4 2.4z" clip-path="url(#a)" fill="#fff" stroke="#fff"/>
<g clip-path="url(#a)">
<g transform="translate(1662.2 885.84) rotate(90) scale(.08 -.08)">
<use xlink:href="#k"/>
<use x="44.083984" xlink:href="#d"/>
<use x="105.607422" xlink:href="#f"/>
<use x="144.970703" xlink:href="#l"/>
<use x="242.382812" xlink:href="#g"/>
<use x="270.166016" xlink:href="#e"/>
<use x="333.544922" xlink:href="#i"/>
<use x="394.824219" xlink:href="#j"/>
</g>
</g>
<path d="m1338.2 885.84v33.808q0 2.4 2.4 2.4h7.7425q2.4 0 2.4-2.4v-33.808q0-2.4-2.4-2.4h-7.7425q-2.4 0-2.4 2.4z" clip-path="url(#a)" fill="#fff" stroke="#fff"/>
<g clip-path="url(#a)">
<g transform="translate(1342.3 885.84) rotate(90) scale(.08 -.08)">
<use xlink:href="#k"/>
<use x="44.083984" xlink:href="#d"/>
<use x="105.607422" xlink:href="#f"/>
<use x="144.970703" xlink:href="#l"/>
<use x="242.382812" xlink:href="#g"/>
<use x="270.166016" xlink:href="#e"/>
<use x="333.544922" xlink:href="#i"/>
<use x="394.824219" xlink:href="#j"/>
</g>
</g>
<path d="m865.16 885.84v33.808q0 2.4 2.4 2.4h7.7425q2.4 0 2.4-2.4v-33.808q0-2.4-2.4-2.4h-7.7425q-2.4 0-2.4 2.4z" clip-path="url(#a)" fill="#fff" stroke="#fff"/>
<g clip-path="url(#a)">
<g transform="translate(869.23 885.84) rotate(90) scale(.08 -.08)">
<use xlink:href="#k"/>
<use x="44.083984" xlink:href="#d"/>
<use x="105.607422" xlink:href="#f"/>
<use x="144.970703" xlink:href="#l"/>
<use x="242.382812" xlink:href="#g"/>
<use x="270.166016" xlink:href="#e"/>
<use x="333.544922" xlink:href="#i"/>
<use x="394.824219" xlink:href="#j"/>
</g>
</g>
<path d="m925.98 885.84v33.808q0 2.4 2.4 2.4h7.7425q2.4 0 2.4-2.4v-33.808q0-2.4-2.4-2.4h-7.7425q-2.4 0-2.4 2.4z" clip-path="url(#a)" fill="#fff" stroke="#fff"/>
<g clip-path="url(#a)">
<g transform="translate(930.05 885.84) rotate(90) scale(.08 -.08)">
<use xlink:href="#k"/>
<use x="44.083984" xlink:href="#d"/>
<use x="105.607422" xlink:href="#f"/>
<use x="144.970703" xlink:href="#l"/>
<use x="242.382812" xlink:href="#g"/>
<use x="270.166016" xlink:href="#e"/>
<use x="333.544922" xlink:href="#i"/>
<use x="394.824219" xlink:href="#j"/>
</g>
</g>
<path d="m175.85 885.84v33.808q0 2.4 2.4 2.4h7.7425q2.4 0 2.4-2.4v-33.808q0-2.4-2.4-2.4h-7.7425q-2.4 0-2.4 2.4z" clip-path="url(#a)" fill="#fff" stroke="#fff"/>
<g clip-path="url(#a)">
<g transform="translate(179.92 885.84) rotate(90) scale(.08 -.08)">
<use xlink:href="#k"/>
<use x="44.083984" xlink:href="#d"/>
<use x="105.607422" xlink:href="#f"/>
<use x="144.970703" xlink:href="#l"/>
<use x="242.382812" xlink:href="#g"/>
<use x="270.166016" xlink:href="#e"/>
<use x="333.544922" xlink:href="#i"/>
<use x="394.824219" xlink:href="#j"/>
</g>
</g>
<path d="m267.32 647.2 2.8203-5.6307q1.0748-2.1459-1.071-3.2207l-6.9227-3.4674q-2.1459-1.0748-3.2207 1.071l-2.8203 5.6307q-1.0748 2.1459 1.071 3.2207l6.9227 3.4674q2.1459 1.0748 3.2207-1.071z" clip-path="url(#a)" fill="#fff" stroke="#fff"/>
<g clip-path="url(#a)">
<g transform="translate(263.69 645.38) rotate(-63.395) scale(.08 -.08)">
<use xlink:href="#aj"/>
</g>
</g>
<path d="m300.22 704.99 0.4073 5.0386q0.19338 2.3922 2.5856 2.1988l7.7173-0.62385q2.3922-0.19338 2.1988-2.5856l-0.4073-5.0386q-0.19338-2.3922-2.5856-2.1988l-7.7173 0.62385q-2.3922 0.19338-2.1988 2.5856z" clip-path="url(#a)" fill="#fff" stroke="#fff"/>
<g clip-path="url(#a)">
<g transform="translate(304.27 704.66) rotate(85.378) scale(.08 -.08)">
<use xlink:href="#q"/>
</g>
</g>
<path d="m316.86 705.56 1.146 5.4674q0.49235 2.349 2.8413 1.8566l7.5778-1.5883q2.349-0.49235 1.8566-2.8413l-1.146-5.4674q-0.49235-2.349-2.8413-1.8566l-7.5778 1.5883q-2.349 0.49235-1.8566 2.8413z" clip-path="url(#a)" fill="#fff" stroke="#fff"/>
<g clip-path="url(#a)">
<g transform="translate(320.84 704.72) rotate(78.162) scale(.08 -.08)">
<use xlink:href="#r"/>
</g>
</g>
<path d="m297.06 710.17 0.23019-5.8505q0.094357-2.3981-2.3038-2.4925l-7.7365-0.3044q-2.3981-0.094356-2.4925 2.3038l-0.23019 5.8505q-0.094356 2.3981 2.3038 2.4925l7.7365 0.3044q2.3981 0.094356 2.4925-2.3038z" clip-path="url(#a)" fill="#fff" stroke="#fff"/>
<g clip-path="url(#a)">
<g transform="translate(293 710.01) rotate(-87.747) scale(.08 -.08)">
<use xlink:href="#s"/>
</g>
</g>
<path d="m380.85 885.84v33.808q0 2.4 2.4 2.4h7.7425q2.4 0 2.4-2.4v-33.808q0-2.4-2.4-2.4h-7.7425q-2.4 0-2.4 2.4z" clip-path="url(#a)" fill="#fff" stroke="#fff"/>
<g clip-path="url(#a)">
<g transform="translate(384.91 885.84) rotate(90) scale(.08 -.08)">
<use xlink:href="#k"/>
<use x="44.083984" xlink:href="#d"/>
<use x="105.607422" xlink:href="#f"/>
<use x="144.970703" xlink:href="#l"/>
<use x="242.382812" xlink:href="#g"/>
<use x="270.166016" xlink:href="#e"/>
<use x="333.544922" xlink:href="#i"/>
<use x="394.824219" xlink:href="#j"/>
</g>
</g>
<path d="m520.44 647.89 3.8439-4.9883q1.4649-1.901-0.43612-3.366l-6.1329-4.7259q-1.901-1.4649-3.366 0.43612l-3.8439 4.9883q-1.4649 1.901 0.43612 3.366l6.1329 4.7259q1.901 1.4649 3.366-0.43612z" clip-path="url(#a)" fill="#fff" stroke="#fff"/>
<g clip-path="url(#a)">
<g transform="translate(517.22 645.41) rotate(-52.383) scale(.08 -.08)">
<use xlink:href="#aj"/>
</g>
</g>
<path d="m578.06 705.28 0.63147 5.0154q0.29981 2.3812 2.681 2.0814l7.6819-0.96719q2.3812-0.29981 2.0814-2.681l-0.63147-5.0154q-0.29981-2.3812-2.681-2.0814l-7.6819 0.96719q-2.3812 0.29981-2.0814 2.681z" clip-path="url(#a)" fill="#fff" stroke="#fff"/>
<g clip-path="url(#a)">
<g transform="translate(582.09 704.77) rotate(82.824) scale(.08 -.08)">
<use xlink:href="#q"/>
</g>
</g>
<path d="m602.56 706.22 1.6772 5.3285q0.72058 2.2893 3.0099 1.5687l7.3853-2.3246q2.2893-0.72058 1.5687-3.0099l-1.6772-5.3285q-0.72058-2.2893-3.0099-1.5687l-7.3853 2.3246q-2.2893 0.72058-1.5687 3.0099z" clip-path="url(#a)" fill="#fff" stroke="#fff"/>
<g clip-path="url(#a)">
<g transform="translate(606.43 705) rotate(72.528) scale(.08 -.08)">
<use xlink:href="#r"/>
</g>
</g>
<path d="m567.05 710.27 0.31786-5.8464q0.13029-2.3965-2.2662-2.5268l-7.7311-0.42033q-2.3965-0.13029-2.5268 2.2662l-0.31786 5.8464q-0.13029 2.3965 2.2662 2.5268l7.7311 0.42033q2.3965 0.13029 2.5268-2.2662z" clip-path="url(#a)" fill="#fff" stroke="#fff"/>
<g clip-path="url(#a)">
<g transform="translate(562.99 710.05) rotate(-86.888) scale(.08 -.08)">
<use xlink:href="#s"/>
</g>
</g>
<path d="m449.6 854.99 5.305-33.389q0.3766-2.3703-1.9937-2.7469l-7.6466-1.2149q-2.3703-0.3766-2.7469 1.9937l-5.305 33.389q-0.3766 2.3703 1.9937 2.7469l7.6466 1.2149q2.3703 0.3766 2.7469-1.9937z" clip-path="url(#a)" fill="#fff" stroke="#fff"/>
<g clip-path="url(#a)">
<g transform="translate(445.59 854.35) rotate(-80.972) scale(.08 -.08)">
<use xlink:href="#k"/>
<use x="44.083984" xlink:href="#d"/>
<use x="105.607422" xlink:href="#f"/>
<use x="144.970703" xlink:href="#l"/>
<use x="242.382812" xlink:href="#g"/>
<use x="270.166016" xlink:href="#e"/>
<use x="333.544922" xlink:href="#i"/>
<use x="394.824219" xlink:href="#j"/>
</g>
</g>
<path d="m478.84 821.62 5.399 33.374q0.38327 2.3692 2.7525 1.9859l7.6431-1.2365q2.3692-0.38327 1.9859-2.7525l-5.399-33.374q-0.38327-2.3692-2.7525-1.9859l-7.6431 1.2365q-2.3692 0.38327-1.9859 2.7525z" clip-path="url(#a)" fill="#fff" stroke="#fff"/>
<g clip-path="url(#a)">
<g transform="translate(482.86 820.98) rotate(80.811) scale(.08 -.08)">
<use xlink:href="#k"/>
<use x="44.083984" xlink:href="#d"/>
<use x="105.607422" xlink:href="#f"/>
<use x="144.970703" xlink:href="#l"/>
<use x="242.382812" xlink:href="#g"/>
<use x="270.166016" xlink:href="#e"/>
<use x="333.544922" xlink:href="#i"/>
<use x="394.824219" xlink:href="#j"/>
</g>
</g>
<path d="m472.59 775.74 0.033596-5.8549q0.013771-2.4-2.3862-2.4137l-7.7424-0.044425q-2.4-0.013771-2.4137 2.3862l-0.033595 5.8549q-0.013771 2.4 2.3862 2.4137l7.7424 0.044426q2.4 0.013771 2.4137-2.3862z" clip-path="url(#a)" fill="#fff" stroke="#fff"/>
<g clip-path="url(#a)">
<g transform="translate(468.53 775.72) rotate(-89.671) scale(.08 -.08)">
<use xlink:href="#s"/>
</g>
</g>
<path d="m594.85 885.84v33.808q0 2.4 2.4 2.4h7.7425q2.4 0 2.4-2.4v-33.808q0-2.4-2.4-2.4h-7.7425q-2.4 0-2.4 2.4z" clip-path="url(#a)" fill="#fff" stroke="#fff"/>
<g clip-path="url(#a)">
<g transform="translate(598.91 885.84) rotate(90) scale(.08 -.08)">
<use xlink:href="#k"/>
<use x="44.083984" xlink:href="#d"/>
<use x="105.607422" xlink:href="#f"/>
<use x="144.970703" xlink:href="#l"/>
<use x="242.382812" xlink:href="#g"/>
<use x="270.166016" xlink:href="#e"/>
<use x="333.544922" xlink:href="#i"/>
<use x="394.824219" xlink:href="#j"/>
</g>
</g>
<path d="m644.4 885.84v33.808q0 2.4 2.4 2.4h7.7425q2.4 0 2.4-2.4v-33.808q0-2.4-2.4-2.4h-7.7425q-2.4 0-2.4 2.4z" clip-path="url(#a)" fill="#fff" stroke="#fff"/>
<g clip-path="url(#a)">
<g transform="translate(648.47 885.84) rotate(90) scale(.08 -.08)">
<use xlink:href="#k"/>
<use x="44.083984" xlink:href="#d"/>
<use x="105.607422" xlink:href="#f"/>
<use x="144.970703" xlink:href="#l"/>
<use x="242.382812" xlink:href="#g"/>
<use x="270.166016" xlink:href="#e"/>
<use x="333.544922" xlink:href="#i"/>
<use x="394.824219" xlink:href="#j"/>
</g>
</g>
<path d="m222.01 854.75 3.3047-33.646q0.2346-2.3885-2.1539-2.6231l-7.7054-0.75682q-2.3885-0.2346-2.6231 2.1539l-3.3047 33.646q-0.2346 2.3885 2.1539 2.6231l7.7054 0.75682q2.3885 0.2346 2.6231-2.1539z" clip-path="url(#a)" fill="#fff" stroke="#fff"/>
<g clip-path="url(#a)">
<g transform="translate(217.96 854.35) rotate(-84.39) scale(.08 -.08)">
<use xlink:href="#k"/>
<use x="44.083984" xlink:href="#d"/>
<use x="105.607422" xlink:href="#f"/>
<use x="144.970703" xlink:href="#l"/>
<use x="242.382812" xlink:href="#g"/>
<use x="270.166016" xlink:href="#e"/>
<use x="333.544922" xlink:href="#i"/>
<use x="394.824219" xlink:href="#j"/>
</g>
</g>
<path d="m235.38 821.12 3.4009 33.636q0.24143 2.3878 2.6293 2.1464l7.7032-0.77886q2.3878-0.24143 2.1464-2.6293l-3.4009-33.636q-0.24143-2.3878-2.6293-2.1464l-7.7032 0.77886q-2.3878 0.24143-2.1464 2.6293z" clip-path="url(#a)" fill="#fff" stroke="#fff"/>
<g clip-path="url(#a)">
<g transform="translate(239.43 820.71) rotate(84.227) scale(.08 -.08)">
<use xlink:href="#k"/>
<use x="44.083984" xlink:href="#d"/>
<use x="105.607422" xlink:href="#f"/>
<use x="144.970703" xlink:href="#l"/>
<use x="242.382812" xlink:href="#g"/>
<use x="270.166016" xlink:href="#e"/>
<use x="333.544922" xlink:href="#i"/>
<use x="394.824219" xlink:href="#j"/>
</g>
</g>
<path d="m236.06 775.74 0.033595-5.8549q0.013771-2.4-2.3862-2.4137l-7.7424-0.044425q-2.4-0.013771-2.4137 2.3862l-0.033596 5.8549q-0.013771 2.4 2.3862 2.4137l7.7424 0.044426q2.4 0.013771 2.4137-2.3862z" clip-path="url(#a)" fill="#fff" stroke="#fff"/>
<g clip-path="url(#a)">
<g transform="translate(232 775.72) rotate(-89.671) scale(.08 -.08)">
<use xlink:href="#s"/>
</g>
</g>
<path d="m311.01 885.84v33.808q0 2.4 2.4 2.4h7.7425q2.4 0 2.4-2.4v-33.808q0-2.4-2.4-2.4h-7.7425q-2.4 0-2.4 2.4z" clip-path="url(#a)" fill="#fff" stroke="#fff"/>
<g clip-path="url(#a)">
<g transform="translate(315.08 885.84) rotate(90) scale(.08 -.08)">
<use xlink:href="#k"/>
<use x="44.083984" xlink:href="#d"/>
<use x="105.607422" xlink:href="#f"/>
<use x="144.970703" xlink:href="#l"/>
<use x="242.382812" xlink:href="#g"/>
<use x="270.166016" xlink:href="#e"/>
<use x="333.544922" xlink:href="#i"/>
<use x="394.824219" xlink:href="#j"/>
</g>
</g>
<path d="m344.8 885.84v33.808q0 2.4 2.4 2.4h7.7425q2.4 0 2.4-2.4v-33.808q0-2.4-2.4-2.4h-7.7425q-2.4 0-2.4 2.4z" clip-path="url(#a)" fill="#fff" stroke="#fff"/>
<g clip-path="url(#a)">
<g transform="translate(348.87 885.84) rotate(90) scale(.08 -.08)">
<use xlink:href="#k"/>
<use x="44.083984" xlink:href="#d"/>
<use x="105.607422" xlink:href="#f"/>
<use x="144.970703" xlink:href="#l"/>
<use x="242.382812" xlink:href="#g"/>
<use x="270.166016" xlink:href="#e"/>
<use x="333.544922" xlink:href="#i"/>
<use x="394.824219" xlink:href="#j"/>
</g>
</g>
<path d="m96.541 709.92 0.11927-5.5575q0.051495-2.3994-2.348-2.4509l-7.7407-0.16612q-2.3994-0.051495-2.4509 2.348l-0.11927 5.5575q-0.051495 2.3994 2.348 2.4509l7.7407 0.16613q2.3994 0.051495 2.4509-2.348z" clip-path="url(#a)" fill="#fff" stroke="#fff"/>
<g clip-path="url(#a)">
<g transform="translate(92.478 709.83) rotate(-88.771) scale(.08 -.08)">
<use xlink:href="#ai"/>
</g>
</g>
<path d="m89.588 639.3 0.21722 5.0741q0.10265 2.3978 2.5005 2.2952l7.7354-0.33116q2.3978-0.10265 2.2952-2.5005l-0.21722-5.0741q-0.10265-2.3978-2.5005-2.2952l-7.7354 0.33116q-2.3978 0.10265-2.2952 2.5005z" clip-path="url(#a)" fill="#fff" stroke="#fff"/>
<g clip-path="url(#a)">
<g transform="translate(93.648 639.13) rotate(87.549) scale(.08 -.08)">
<use xlink:href="#ad"/>
</g>
</g>
<path d="m108.28 885.84v33.808q0 2.4 2.4 2.4h7.7425q2.4 0 2.4-2.4v-33.808q0-2.4-2.4-2.4h-7.7425q-2.4 0-2.4 2.4z" clip-path="url(#a)" fill="#fff" stroke="#fff"/>
<g clip-path="url(#a)">
<g transform="translate(112.34 885.84) rotate(90) scale(.08 -.08)">
<use xlink:href="#k"/>
<use x="44.083984" xlink:href="#d"/>
<use x="105.607422" xlink:href="#f"/>
<use x="144.970703" xlink:href="#l"/>
<use x="242.382812" xlink:href="#g"/>
<use x="270.166016" xlink:href="#e"/>
<use x="333.544922" xlink:href="#i"/>
<use x="394.824219" xlink:href="#j"/>
</g>
</g>
<path d="m121.79 885.84v33.808q0 2.4 2.4 2.4h7.7425q2.4 0 2.4-2.4v-33.808q0-2.4-2.4-2.4h-7.7425q-2.4 0-2.4 2.4z" clip-path="url(#a)" fill="#fff" stroke="#fff"/>
<g clip-path="url(#a)">
<g transform="translate(125.86 885.84) rotate(90) scale(.08 -.08)">
<use xlink:href="#k"/>
<use x="44.083984" xlink:href="#d"/>
<use x="105.607422" xlink:href="#f"/>
<use x="144.970703" xlink:href="#l"/>
<use x="242.382812" xlink:href="#g"/>
<use x="270.166016" xlink:href="#e"/>
<use x="333.544922" xlink:href="#i"/>
<use x="394.824219" xlink:href="#j"/>
</g>
</g>
<path d="m137.56 885.84v33.808q0 2.4 2.4 2.4h7.7425q2.4 0 2.4-2.4v-33.808q0-2.4-2.4-2.4h-7.7425q-2.4 0-2.4 2.4z" clip-path="url(#a)" fill="#fff" stroke="#fff"/>
<g clip-path="url(#a)">
<g transform="translate(141.62 885.84) rotate(90) scale(.08 -.08)">
<use xlink:href="#k"/>
<use x="44.083984" xlink:href="#d"/>
<use x="105.607422" xlink:href="#f"/>
<use x="144.970703" xlink:href="#l"/>
<use x="242.382812" xlink:href="#g"/>
<use x="270.166016" xlink:href="#e"/>
<use x="333.544922" xlink:href="#i"/>
<use x="394.824219" xlink:href="#j"/>
</g>
</g>
<path d="m81.244 885.84v33.808q0 2.4 2.4 2.4h7.7425q2.4 0 2.4-2.4v-33.808q0-2.4-2.4-2.4h-7.7425q-2.4 0-2.4 2.4z" clip-path="url(#a)" fill="#fff" stroke="#fff"/>
<g clip-path="url(#a)">
<g transform="translate(85.308 885.84) rotate(90) scale(.08 -.08)">
<use xlink:href="#k"/>
<use x="44.083984" xlink:href="#d"/>
<use x="105.607422" xlink:href="#f"/>
<use x="144.970703" xlink:href="#l"/>
<use x="242.382812" xlink:href="#g"/>
<use x="270.166016" xlink:href="#e"/>
<use x="333.544922" xlink:href="#i"/>
<use x="394.824219" xlink:href="#j"/>
</g>
</g>
<path d="m102.71 775.29 0.15832-4.5985q0.082578-2.3986-2.316-2.4812l-7.7379-0.2664q-2.3986-0.082578-2.4812 2.316l-0.15832 4.5985q-0.082578 2.3986 2.316 2.4812l7.7379 0.2664q2.3986 0.082578 2.4812-2.316z" clip-path="url(#a)" fill="#fff" stroke="#fff"/>
<g clip-path="url(#a)">
<g transform="translate(98.653 775.15) rotate(-88.028) scale(.08 -.08)">
<use xlink:href="#ae"/>
</g>
</g>
<path d="m94.667 770.2 0.19221 5.5829q0.082578 2.3986 2.4812 2.316l7.7379-0.2664q2.3986-0.082579 2.316-2.4812l-0.19221-5.5829q-0.082578-2.3986-2.4812-2.316l-7.7379 0.2664q-2.3986 0.082579-2.316 2.4812z" clip-path="url(#a)" fill="#fff" stroke="#fff"/>
<g clip-path="url(#a)">
<g transform="translate(98.729 770.06) rotate(88.028) scale(.08 -.08)">
<use xlink:href="#r"/>
</g>
</g>
<path d="m88.002 885.84v33.808q0 2.4 2.4 2.4h7.7425q2.4 0 2.4-2.4v-33.808q0-2.4-2.4-2.4h-7.7425q-2.4 0-2.4 2.4z" clip-path="url(#a)" fill="#fff" stroke="#fff"/>
<g clip-path="url(#a)">
<g transform="translate(92.066 885.84) rotate(90) scale(.08 -.08)">
<use xlink:href="#k"/>
<use x="44.083984" xlink:href="#d"/>
<use x="105.607422" xlink:href="#f"/>
<use x="144.970703" xlink:href="#l"/>
<use x="242.382812" xlink:href="#g"/>
<use x="270.166016" xlink:href="#e"/>
<use x="333.544922" xlink:href="#i"/>
<use x="394.824219" xlink:href="#j"/>
</g>
</g>
<path d="m97.012 885.84v33.808q0 2.4 2.4 2.4h7.7425q2.4 0 2.4-2.4v-33.808q0-2.4-2.4-2.4h-7.7425q-2.4 0-2.4 2.4z" clip-path="url(#a)" fill="#fff" stroke="#fff"/>
<g clip-path="url(#a)">
<g transform="translate(101.08 885.84) rotate(90) scale(.08 -.08)">
<use xlink:href="#k"/>
<use x="44.083984" xlink:href="#d"/>
<use x="105.607422" xlink:href="#f"/>
<use x="144.970703" xlink:href="#l"/>
<use x="242.382812" xlink:href="#g"/>
<use x="270.166016" xlink:href="#e"/>
<use x="333.544922" xlink:href="#i"/>
<use x="394.824219" xlink:href="#j"/>
</g>
</g>
<path d="m155.58 885.84v33.808q0 2.4 2.4 2.4h7.7425q2.4 0 2.4-2.4v-33.808q0-2.4-2.4-2.4h-7.7425q-2.4 0-2.4 2.4z" clip-path="url(#a)" fill="#fff" stroke="#fff"/>
<g clip-path="url(#a)">
<g transform="translate(159.64 885.84) rotate(90) scale(.08 -.08)">
<use xlink:href="#k"/>
<use x="44.083984" xlink:href="#d"/>
<use x="105.607422" xlink:href="#f"/>
<use x="144.970703" xlink:href="#l"/>
<use x="242.382812" xlink:href="#g"/>
<use x="270.166016" xlink:href="#e"/>
<use x="333.544922" xlink:href="#i"/>
<use x="394.824219" xlink:href="#j"/>
</g>
</g>
<path d="m223.16 885.84v33.808q0 2.4 2.4 2.4h7.7425q2.4 0 2.4-2.4v-33.808q0-2.4-2.4-2.4h-7.7425q-2.4 0-2.4 2.4z" clip-path="url(#a)" fill="#fff" stroke="#fff"/>
<g clip-path="url(#a)">
<g transform="translate(227.22 885.84) rotate(90) scale(.08 -.08)">
<use xlink:href="#k"/>
<use x="44.083984" xlink:href="#d"/>
<use x="105.607422" xlink:href="#f"/>
<use x="144.970703" xlink:href="#l"/>
<use x="242.382812" xlink:href="#g"/>
<use x="270.166016" xlink:href="#e"/>
<use x="333.544922" xlink:href="#i"/>
<use x="394.824219" xlink:href="#j"/>
</g>
</g>
<path d="m279.48 885.84v33.808q0 2.4 2.4 2.4h7.7425q2.4 0 2.4-2.4v-33.808q0-2.4-2.4-2.4h-7.7425q-2.4 0-2.4 2.4z" clip-path="url(#a)" fill="#fff" stroke="#fff"/>
<g clip-path="url(#a)">
<g transform="translate(283.54 885.84) rotate(90) scale(.08 -.08)">
<use xlink:href="#k"/>
<use x="44.083984" xlink:href="#d"/>
<use x="105.607422" xlink:href="#f"/>
<use x="144.970703" xlink:href="#l"/>
<use x="242.382812" xlink:href="#g"/>
<use x="270.166016" xlink:href="#e"/>
<use x="333.544922" xlink:href="#i"/>
<use x="394.824219" xlink:href="#j"/>
</g>
</g>
<path d="m459.69 885.84v33.808q0 2.4 2.4 2.4h7.7425q2.4 0 2.4-2.4v-33.808q0-2.4-2.4-2.4h-7.7425q-2.4 0-2.4 2.4z" clip-path="url(#a)" fill="#fff" stroke="#fff"/>
<g clip-path="url(#a)">
<g transform="translate(463.75 885.84) rotate(90) scale(.08 -.08)">
<use xlink:href="#k"/>
<use x="44.083984" xlink:href="#d"/>
<use x="105.607422" xlink:href="#f"/>
<use x="144.970703" xlink:href="#l"/>
<use x="242.382812" xlink:href="#g"/>
<use x="270.166016" xlink:href="#e"/>
<use x="333.544922" xlink:href="#i"/>
<use x="394.824219" xlink:href="#j"/>
</g>
</g>
<path d="m547.54 885.84v33.808q0 2.4 2.4 2.4h7.7425q2.4 0 2.4-2.4v-33.808q0-2.4-2.4-2.4h-7.7425q-2.4 0-2.4 2.4z" clip-path="url(#a)" fill="#fff" stroke="#fff"/>
<g clip-path="url(#a)">
<g transform="translate(551.6 885.84) rotate(90) scale(.08 -.08)">
<use xlink:href="#k"/>
<use x="44.083984" xlink:href="#d"/>
<use x="105.607422" xlink:href="#f"/>
<use x="144.970703" xlink:href="#l"/>
<use x="242.382812" xlink:href="#g"/>
<use x="270.166016" xlink:href="#e"/>
<use x="333.544922" xlink:href="#i"/>
<use x="394.824219" xlink:href="#j"/>
</g>
</g>
<path d="m696.22 885.84v33.808q0 2.4 2.4 2.4h7.7425q2.4 0 2.4-2.4v-33.808q0-2.4-2.4-2.4h-7.7425q-2.4 0-2.4 2.4z" clip-path="url(#a)" fill="#fff" stroke="#fff"/>
<g clip-path="url(#a)">
<g transform="translate(700.28 885.84) rotate(90) scale(.08 -.08)">
<use xlink:href="#k"/>
<use x="44.083984" xlink:href="#d"/>
<use x="105.607422" xlink:href="#f"/>
<use x="144.970703" xlink:href="#l"/>
<use x="242.382812" xlink:href="#g"/>
<use x="270.166016" xlink:href="#e"/>
<use x="333.544922" xlink:href="#i"/>
<use x="394.824219" xlink:href="#j"/>
</g>
</g>
<path d="m1191.8 885.84v33.808q0 2.4 2.4 2.4h7.7425q2.4 0 2.4-2.4v-33.808q0-2.4-2.4-2.4h-7.7425q-2.4 0-2.4 2.4z" clip-path="url(#a)" fill="#fff" stroke="#fff"/>
<g clip-path="url(#a)">
<g transform="translate(1195.9 885.84) rotate(90) scale(.08 -.08)">
<use xlink:href="#k"/>
<use x="44.083984" xlink:href="#d"/>
<use x="105.607422" xlink:href="#f"/>
<use x="144.970703" xlink:href="#l"/>
<use x="242.382812" xlink:href="#g"/>
<use x="270.166016" xlink:href="#e"/>
<use x="333.544922" xlink:href="#i"/>
<use x="394.824219" xlink:href="#j"/>
</g>
</g>
<path d="m1831.5 885.84v33.808q0 2.4 2.4 2.4h7.7425q2.4 0 2.4-2.4v-33.808q0-2.4-2.4-2.4h-7.7425q-2.4 0-2.4 2.4z" clip-path="url(#a)" fill="#fff" stroke="#fff"/>
<g clip-path="url(#a)">
<g transform="translate(1835.6 885.84) rotate(90) scale(.08 -.08)">
<use xlink:href="#k"/>
<use x="44.083984" xlink:href="#d"/>
<use x="105.607422" xlink:href="#f"/>
<use x="144.970703" xlink:href="#l"/>
<use x="242.382812" xlink:href="#g"/>
<use x="270.166016" xlink:href="#e"/>
<use x="333.544922" xlink:href="#i"/>
<use x="394.824219" xlink:href="#j"/>
</g>
</g>
<defs>
<path id="b" d="m0 8.6603c2.2967 0 4.4997-0.9125 6.1237-2.5365 1.624-1.624 2.5365-3.827 2.5365-6.1237s-0.9125-4.4997-2.5365-6.1237c-1.624-1.624-3.827-2.5365-6.1237-2.5365s-4.4997 0.9125-6.1237 2.5365c-1.624 1.624-2.5365 3.827-2.5365 6.1237s0.9125 4.4997 2.5365 6.1237c1.624 1.624 3.827 2.5365 6.1237 2.5365z"/>
</defs>
<g clip-path="url(#a)">
<use x="87.515152" y="967.272727" fill="#ffffff" stroke="#ffffff" xlink:href="#b"/>
</g>
<g clip-path="url(#a)">
<use x="94.273078" y="967.272727" fill="#ffffff" stroke="#ffffff" xlink:href="#b"/>
</g>
<g clip-path="url(#a)">
<use x="103.283647" y="967.272727" fill="#ffffff" stroke="#ffffff" xlink:href="#b"/>
</g>
<g clip-path="url(#a)">
<use x="114.546859" y="967.272727" fill="#ffffff" stroke="#ffffff" xlink:href="#b"/>
</g>
<g clip-path="url(#a)">
<use x="128.062712" y="967.272727" fill="#ffffff" stroke="#ffffff" xlink:href="#b"/>
</g>
<g clip-path="url(#a)">
<use x="143.831208" y="967.272727" fill="#ffffff" stroke="#ffffff" xlink:href="#b"/>
</g>
<g clip-path="url(#a)">
<use x="161.852346" y="967.272727" fill="#ffffff" stroke="#ffffff" xlink:href="#b"/>
</g>
<g clip-path="url(#a)">
<use x="182.126126" y="967.272727" fill="#ffffff" stroke="#ffffff" xlink:href="#b"/>
</g>
<g clip-path="url(#a)">
<use x="204.652549" y="967.272727" fill="#ffffff" stroke="#ffffff" xlink:href="#b"/>
</g>
<g clip-path="url(#a)">
<use x="229.431613" y="967.272727" fill="#ffffff" stroke="#ffffff" xlink:href="#b"/>
</g>
<g clip-path="url(#a)">
<use x="256.46332" y="967.272727" fill="#ffffff" stroke="#ffffff" xlink:href="#b"/>
</g>
<g clip-path="url(#a)">
<use x="285.74767" y="967.272727" fill="#ffffff" stroke="#ffffff" xlink:href="#b"/>
</g>
<g clip-path="url(#a)">
<use x="317.284661" y="967.272727" fill="#ffffff" stroke="#ffffff" xlink:href="#b"/>
</g>
<g clip-path="url(#a)">
<use x="351.074295" y="967.272727" fill="#ffffff" stroke="#ffffff" xlink:href="#b"/>
</g>
<g clip-path="url(#a)">
<use x="387.116571" y="967.272727" fill="#ffffff" stroke="#ffffff" xlink:href="#b"/>
</g>
<g clip-path="url(#a)">
<use x="425.411489" y="967.272727" fill="#ffffff" stroke="#ffffff" xlink:href="#b"/>
</g>
<g clip-path="url(#a)">
<use x="465.95905" y="967.272727" fill="#ffffff" stroke="#ffffff" xlink:href="#b"/>
</g>
<g clip-path="url(#a)">
<use x="508.759253" y="967.272727" fill="#ffffff" stroke="#ffffff" xlink:href="#b"/>
</g>
<g clip-path="url(#a)">
<use x="553.812098" y="967.272727" fill="#ffffff" stroke="#ffffff" xlink:href="#b"/>
</g>
<g clip-path="url(#a)">
<use x="601.117585" y="967.272727" fill="#ffffff" stroke="#ffffff" xlink:href="#b"/>
</g>
<g clip-path="url(#a)">
<use x="650.675715" y="967.272727" fill="#ffffff" stroke="#ffffff" xlink:href="#b"/>
</g>
<g clip-path="url(#a)">
<use x="702.486486" y="967.272727" fill="#ffffff" stroke="#ffffff" xlink:href="#b"/>
</g>
<g clip-path="url(#a)">
<use x="756.549901" y="967.272727" fill="#ffffff" stroke="#ffffff" xlink:href="#b"/>
</g>
<g clip-path="url(#a)">
<use x="812.865957" y="967.272727" fill="#ffffff" stroke="#ffffff" xlink:href="#b"/>
</g>
<g clip-path="url(#a)">
<use x="871.434655" y="967.272727" fill="#ffffff" stroke="#ffffff" xlink:href="#b"/>
</g>
<g clip-path="url(#a)">
<use x="932.255996" y="967.272727" fill="#ffffff" stroke="#ffffff" xlink:href="#b"/>
</g>
<g clip-path="url(#a)">
<use x="995.329979" y="967.272727" fill="#ffffff" stroke="#ffffff" xlink:href="#b"/>
</g>
<g clip-path="url(#a)">
<use x="1060.656605" y="967.272727" fill="#ffffff" stroke="#ffffff" xlink:href="#b"/>
</g>
<g clip-path="url(#a)">
<use x="1128.235872" y="967.272727" fill="#ffffff" stroke="#ffffff" xlink:href="#b"/>
</g>
<g clip-path="url(#a)">
<use x="1198.067782" y="967.272727" fill="#ffffff" stroke="#ffffff" xlink:href="#b"/>
</g>
<g clip-path="url(#a)">
<use x="1270.152334" y="967.272727" fill="#ffffff" stroke="#ffffff" xlink:href="#b"/>
</g>
<g clip-path="url(#a)">
<use x="1344.489528" y="967.272727" fill="#ffffff" stroke="#ffffff" xlink:href="#b"/>
</g>
<g clip-path="url(#a)">
<use x="1421.079365" y="967.272727" fill="#ffffff" stroke="#ffffff" xlink:href="#b"/>
</g>
<g clip-path="url(#a)">
<use x="1499.921844" y="967.272727" fill="#ffffff" stroke="#ffffff" xlink:href="#b"/>
</g>
<g clip-path="url(#a)">
<use x="1581.016965" y="967.272727" fill="#ffffff" stroke="#ffffff" xlink:href="#b"/>
</g>
<g clip-path="url(#a)">
<use x="1664.364728" y="967.272727" fill="#ffffff" stroke="#ffffff" xlink:href="#b"/>
</g>
<g clip-path="url(#a)">
<use x="1749.965134" y="967.272727" fill="#ffffff" stroke="#ffffff" xlink:href="#b"/>
</g>
<g clip-path="url(#a)">
<use x="1837.818182" y="967.272727" fill="#ffffff" stroke="#ffffff" xlink:href="#b"/>
</g>
<g clip-path="url(#a)">
<use x="580.352715" y="46.060606" fill="#ffffff" stroke="#ffffff" xlink:href="#b"/>
</g>
<g clip-path="url(#a)">
<use x="580.352715" y="178.87859" fill="#ffffff" stroke="#ffffff" xlink:href="#b"/>
</g>
<g clip-path="url(#a)">
<use x="119.896884" y="443.80343" fill="#ffffff" stroke="#ffffff" xlink:href="#b"/>
</g>
<g clip-path="url(#a)">
<use x="358.348452" y="443.80343" fill="#ffffff" stroke="#ffffff" xlink:href="#b"/>
</g>
<g clip-path="url(#a)">
<use x="756.549901" y="838.207092" fill="#ffffff" stroke="#ffffff" xlink:href="#b"/>
</g>
<g clip-path="url(#a)">
<use x="812.865957" y="838.207092" fill="#ffffff" stroke="#ffffff" xlink:href="#b"/>
</g>
<g clip-path="url(#a)">
<use x="1150.468982" y="311.474365" fill="#ffffff" stroke="#ffffff" xlink:href="#b"/>
</g>
<g clip-path="url(#a)">
<use x="901.845326" y="707.346012" fill="#ffffff" stroke="#ffffff" xlink:href="#b"/>
</g>
<g clip-path="url(#a)">
<use x="1061.407485" y="838.207092" fill="#ffffff" stroke="#ffffff" xlink:href="#b"/>
</g>
<g clip-path="url(#a)">
<use x="1440.555335" y="443.80343" fill="#ffffff" stroke="#ffffff" xlink:href="#b"/>
</g>
<g clip-path="url(#a)">
<use x="1270.152334" y="838.207092" fill="#ffffff" stroke="#ffffff" xlink:href="#b"/>
</g>
<g clip-path="url(#a)">
<use x="1382.784447" y="707.346012" fill="#ffffff" stroke="#ffffff" xlink:href="#b"/>
</g>
<g clip-path="url(#a)">
<use x="1421.079365" y="838.207092" fill="#ffffff" stroke="#ffffff" xlink:href="#b"/>
</g>
<g clip-path="url(#a)">
<use x="1688.205192" y="575.798577" fill="#ffffff" stroke="#ffffff" xlink:href="#b"/>
</g>
<g clip-path="url(#a)">
<use x="1499.921844" y="838.207092" fill="#ffffff" stroke="#ffffff" xlink:href="#b"/>
</g>
<g clip-path="url(#a)">
<use x="1665.115609" y="707.346012" fill="#ffffff" stroke="#ffffff" xlink:href="#b"/>
</g>
<g clip-path="url(#a)">
<use x="1749.965134" y="838.207092" fill="#ffffff" stroke="#ffffff" xlink:href="#b"/>
</g>
<g clip-path="url(#a)">
<use x="1581.016965" y="838.207092" fill="#ffffff" stroke="#ffffff" xlink:href="#b"/>
</g>
<g clip-path="url(#a)">
<use x="1664.364728" y="838.207092" fill="#ffffff" stroke="#ffffff" xlink:href="#b"/>
</g>
<g clip-path="url(#a)">
<use x="1344.489528" y="838.207092" fill="#ffffff" stroke="#ffffff" xlink:href="#b"/>
</g>
<g clip-path="url(#a)">
<use x="871.434655" y="838.207092" fill="#ffffff" stroke="#ffffff" xlink:href="#b"/>
</g>
<g clip-path="url(#a)">
<use x="932.255996" y="838.207092" fill="#ffffff" stroke="#ffffff" xlink:href="#b"/>
</g>
<g clip-path="url(#a)">
<use x="182.126126" y="838.207092" fill="#ffffff" stroke="#ffffff" xlink:href="#b"/>
</g>
<g clip-path="url(#a)">
<use x="296.07228" y="575.798577" fill="#ffffff" stroke="#ffffff" xlink:href="#b"/>
</g>
<g clip-path="url(#a)">
<use x="387.116571" y="838.207092" fill="#ffffff" stroke="#ffffff" xlink:href="#b"/>
</g>
<g clip-path="url(#a)">
<use x="568.078832" y="575.798577" fill="#ffffff" stroke="#ffffff" xlink:href="#b"/>
</g>
<g clip-path="url(#a)">
<use x="466.709931" y="707.346012" fill="#ffffff" stroke="#ffffff" xlink:href="#b"/>
</g>
<g clip-path="url(#a)">
<use x="601.117585" y="838.207092" fill="#ffffff" stroke="#ffffff" xlink:href="#b"/>
</g>
<g clip-path="url(#a)">
<use x="650.675715" y="838.207092" fill="#ffffff" stroke="#ffffff" xlink:href="#b"/>
</g>
<g clip-path="url(#a)">
<use x="230.182494" y="707.346012" fill="#ffffff" stroke="#ffffff" xlink:href="#b"/>
</g>
<g clip-path="url(#a)">
<use x="317.284661" y="838.207092" fill="#ffffff" stroke="#ffffff" xlink:href="#b"/>
</g>
<g clip-path="url(#a)">
<use x="351.074295" y="838.207092" fill="#ffffff" stroke="#ffffff" xlink:href="#b"/>
</g>
<g clip-path="url(#a)">
<use x="93.146757" y="575.798577" fill="#ffffff" stroke="#ffffff" xlink:href="#b"/>
</g>
<g clip-path="url(#a)">
<use x="114.546859" y="838.207092" fill="#ffffff" stroke="#ffffff" xlink:href="#b"/>
</g>
<g clip-path="url(#a)">
<use x="128.062712" y="838.207092" fill="#ffffff" stroke="#ffffff" xlink:href="#b"/>
</g>
<g clip-path="url(#a)">
<use x="143.831208" y="838.207092" fill="#ffffff" stroke="#ffffff" xlink:href="#b"/>
</g>
<g clip-path="url(#a)">
<use x="87.515152" y="838.207092" fill="#ffffff" stroke="#ffffff" xlink:href="#b"/>
</g>
<g clip-path="url(#a)">
<use x="98.778363" y="707.346012" fill="#ffffff" stroke="#ffffff" xlink:href="#b"/>
</g>
<g clip-path="url(#a)">
<use x="94.273078" y="838.207092" fill="#ffffff" stroke="#ffffff" xlink:href="#b"/>
</g>
<g clip-path="url(#a)">
<use x="103.283647" y="838.207092" fill="#ffffff" stroke="#ffffff" xlink:href="#b"/>
</g>
<g clip-path="url(#a)">
<use x="161.852346" y="838.207092" fill="#ffffff" stroke="#ffffff" xlink:href="#b"/>
</g>
<g clip-path="url(#a)">
<use x="229.431613" y="838.207092" fill="#ffffff" stroke="#ffffff" xlink:href="#b"/>
</g>
<g clip-path="url(#a)">
<use x="285.74767" y="838.207092" fill="#ffffff" stroke="#ffffff" xlink:href="#b"/>
</g>
<g clip-path="url(#a)">
<use x="465.95905" y="838.207092" fill="#ffffff" stroke="#ffffff" xlink:href="#b"/>
</g>
<g clip-path="url(#a)">
<use x="553.812098" y="838.207092" fill="#ffffff" stroke="#ffffff" xlink:href="#b"/>
</g>
<g clip-path="url(#a)">
<use x="702.486486" y="838.207092" fill="#ffffff" stroke="#ffffff" xlink:href="#b"/>
</g>
<g clip-path="url(#a)">
<use x="1198.067782" y="838.207092" fill="#ffffff" stroke="#ffffff" xlink:href="#b"/>
</g>
<g clip-path="url(#a)">
<use x="1837.818182" y="838.207092" fill="#ffffff" stroke="#ffffff" xlink:href="#b"/>
</g>
<g clip-path="url(#a)">
<defs>
<path id="ax" d="m9.8125 72.906h9.8594v-72.906h-9.8594z"/>
</defs>
<g transform="translate(82.871 970.03) scale(.1 -.1)">
<use xlink:href="#ax"/>
<use x="29.492188" xlink:href="#e"/>
</g>
</g>
<g clip-path="url(#a)">
<g transform="translate(81.507 970.03) scale(.1 -.1)">
<use xlink:href="#d"/>
<use x="61.523438" xlink:href="#g"/>
<use x="89.306641" xlink:href="#e"/>
<use x="152.685547" xlink:href="#d"/>
<use x="214.208984" xlink:href="#f"/>
</g>
</g>
<g clip-path="url(#a)">
<defs>
<path id="t" d="m18.312 70.219v-15.531h18.5v-6.9844h-18.5v-29.688q0-6.6875 1.8281-8.5938t7.4531-1.9062h9.2188v-7.5156h-9.2188q-10.406 0-14.359 3.875-3.9531 3.8906-3.9531 14.141v29.688h-6.5938v6.9844h6.5938v15.531z"/>
<path id="be" d="m37.109 75.984v-7.4844h-8.5938q-4.8281 0-6.7188-1.9531-1.875-1.9531-1.875-7.0312v-4.8281h14.797v-6.9844h-14.797v-47.703h-9.0312v47.703h-8.5938v6.9844h8.5938v3.8125q0 9.125 4.25 13.297 4.25 4.1875 13.469 4.1875z"/>
<path id="z" d="m8.5 21.578v33.109h8.9844v-32.766q0-7.7656 3.0156-11.656 3.0312-3.875 9.0938-3.875 7.2656 0 11.484 4.6406 4.2344 4.6406 4.2344 12.656v31h8.9844v-54.688h-8.9844v8.4062q-3.2656-4.9844-7.5938-7.4062-4.3125-2.4219-10.031-2.4219-9.4219 0-14.312 5.8594-4.875 5.8594-4.875 17.141z"/>
<path id="aa" d="m45.406 27.984q0 9.7656-4.0312 15.125-4.0156 5.375-11.297 5.375-7.2188 0-11.25-5.375-4.0312-5.3594-4.0312-15.125 0-9.7188 4.0312-15.094t11.25-5.375q7.2812 0 11.297 5.375 4.0312 5.375 4.0312 15.094zm8.9844-21.203q0-13.953-6.2031-20.766-6.1875-6.8125-18.984-6.8125-4.7344 0-8.9375 0.70312t-8.1562 2.1719v8.7344q3.9531-2.1406 7.8125-3.1562 3.8594-1.0312 7.8594-1.0312 8.8438 0 13.234 4.6094t4.3906 13.938v4.4531q-2.7812-4.8438-7.125-7.2344t-10.406-2.3906q-10.047 0-16.203 7.6562-6.1562 7.6719-6.1562 20.328 0 12.688 6.1562 20.344 6.1562 7.6719 16.203 7.6719 6.0625 0 10.406-2.3906t7.125-7.2188v8.2969h8.9844z"/>
</defs>
<g transform="translate(75.51 970.03) scale(.1 -.1)">
<use xlink:href="#q"/>
<use x="63.183594" xlink:href="#e"/>
<use x="126.5625" xlink:href="#t"/>
<use x="165.771484" xlink:href="#be"/>
<use x="200.976562" xlink:href="#d"/>
<use x="262.5" xlink:href="#f"/>
<use x="301.863281" xlink:href="#e"/>
<use x="365.242188" xlink:href="#z"/>
<use x="428.621094" xlink:href="#e"/>
<use x="492" xlink:href="#aa"/>
</g>
</g>
<g clip-path="url(#a)">
<defs>
<path id="am" d="m2.9844 54.688h9.5156l17.094-45.891 17.094 45.891h9.5156l-20.516-54.688h-12.203z"/>
<path id="at" d="m30.609 48.391q-7.2188 0-11.422-5.6406t-4.2031-15.453 4.1719-15.453q4.1875-5.6406 11.453-5.6406 7.1875 0 11.375 5.6562 4.2031 5.6719 4.2031 15.438 0 9.7188-4.2031 15.406-4.1875 5.6875-11.375 5.6875zm0 7.6094q11.719 0 18.406-7.625 6.7031-7.6094 6.7031-21.078 0-13.422-6.7031-21.078-6.6875-7.6406-18.406-7.6406-11.766 0-18.438 7.6406-6.6562 7.6562-6.6562 21.078 0 13.469 6.6562 21.078 6.6719 7.625 18.438 7.625z"/>
</defs>
<g transform="translate(105.36 970.03) scale(.1 -.1)">
<use xlink:href="#am"/>
<use x="59.179688" xlink:href="#at"/>
<use x="120.361328" xlink:href="#e"/>
</g>
</g>
<g clip-path="url(#a)">
<defs>
<path id="n" d="m40.578 39.312q7.0781-1.5156 11.047-6.3125 3.9844-4.7812 3.9844-11.812 0-10.781-7.4219-16.703-7.4219-5.9062-21.094-5.9062-4.5781 0-9.4375 0.90625t-10.031 2.7188v9.5156q4.0938-2.3906 8.9688-3.6094 4.8906-1.2188 10.219-1.2188 9.2656 0 14.125 3.6562t4.8594 10.641q0 6.4531-4.5156 10.078-4.5156 3.6406-12.562 3.6406h-8.5v8.1094h8.8906q7.2656 0 11.125 2.9062t3.8594 8.375q0 5.6094-3.9844 8.6094-3.9688 3.0156-11.391 3.0156-4.0625 0-8.7031-0.89062-4.6406-0.875-10.203-2.7188v8.7812q5.625 1.5625 10.531 2.3438t9.25 0.78125q11.234 0 17.766-5.1094 6.5469-5.0938 6.5469-13.781 0-6.0625-3.4688-10.234t-9.8594-5.7812z"/>
</defs>
<g transform="translate(124.88 970.03) scale(.1 -.1)">
<use xlink:href="#n"/>
</g>
</g>
<g clip-path="url(#a)">
<defs>
<path id="ao" d="m9.8125 72.906h14.703l18.594-49.609 18.703 49.609h14.703v-72.906h-9.625v64.016l-18.797-50h-9.9062l-18.797 50v-64.016h-9.5781z"/>
</defs>
<g transform="translate(127.42 970.03) scale(.1 -.1)">
<use xlink:href="#ao"/>
<use x="86.279297" xlink:href="#d"/>
<use x="147.802734" xlink:href="#g"/>
<use x="175.585938" xlink:href="#j"/>
<use x="203.369141" xlink:href="#d"/>
<use x="264.892578" xlink:href="#e"/>
</g>
</g>
<g clip-path="url(#a)">
<defs>
<path id="al" d="m11.719 12.406h10.297v-8.4062l-8-15.625h-6.2969l4 15.625z"/>
</defs>
<g transform="translate(160.26 970.03) scale(.1 -.1)">
<use xlink:href="#al"/>
</g>
</g>
<g clip-path="url(#a)">
<g transform="translate(168.7 970.03) scale(.1 -.1)">
<use xlink:href="#z"/>
<use x="63.378906" xlink:href="#e"/>
<use x="126.757812" xlink:href="#t"/>
<use x="165.966797" xlink:href="#d"/>
<use x="227.490234" xlink:href="#f"/>
</g>
</g>
<g clip-path="url(#a)">
<defs>
<path id="w" d="m31.781 34.625q-7.0312 0-11.062-3.7656-4.0156-3.7656-4.0156-10.344 0-6.5938 4.0156-10.359 4.0312-3.7656 11.062-3.7656t11.078 3.7812q4.0625 3.7969 4.0625 10.344 0 6.5781-4.0312 10.344-4.0156 3.7656-11.109 3.7656zm-9.8594 4.1875q-6.3438 1.5625-9.8906 5.9062-3.5312 4.3594-3.5312 10.609 0 8.7344 6.2188 13.812 6.2344 5.0781 17.062 5.0781 10.891 0 17.094-5.0781t6.2031-13.812q0-6.25-3.5469-10.609-3.5312-4.3438-9.8281-5.9062 7.125-1.6562 11.094-6.5 3.9844-4.8281 3.9844-11.797 0-10.609-6.4688-16.281-6.4688-5.6562-18.531-5.6562-12.047 0-18.531 5.6562-6.4688 5.6719-6.4688 16.281 0 6.9688 4 11.797 4.0156 4.8438 11.141 6.5zm-3.6094 15.578q0-5.6562 3.5312-8.8281 3.5469-3.1719 9.9375-3.1719 6.3594 0 9.9375 3.1719 3.5938 3.1719 3.5938 8.8281 0 5.6719-3.5938 8.8438-3.5781 3.1719-9.9375 3.1719-6.3906 0-9.9375-3.1719-3.5312-3.1719-3.5312-8.8438z"/>
</defs>
<g transform="translate(201.47 970.03) scale(.1 -.1)">
<use xlink:href="#w"/>
</g>
</g>
<g clip-path="url(#a)">
<defs>
<path id="ar" d="m25 67.922q-3.9062 0-6.5938-2.7188-2.6875-2.7031-2.6875-6.6094 0-3.8594 2.6875-6.5156t6.5938-2.6562 6.5938 2.6562 2.6875 6.5156-2.7188 6.5938q-2.7031 2.7344-6.5625 2.7344zm0 6.2969q3.125 0 6-1.2031 2.8906-1.1875 4.9844-3.4375 2.25-2.1875 3.375-4.9844 1.125-2.7812 1.125-6 0-6.4375-4.5156-10.906t-11.062-4.4688q-6.5938 0-11 4.3906-4.3906 4.3906-4.3906 10.984 0 6.5469 4.4844 11.078 4.5 4.5469 11 4.5469z"/>
</defs>
<g transform="translate(226.93 970.03) scale(.1 -.1)">
<use xlink:href="#ar"/>
</g>
</g>
<g clip-path="url(#a)">
<defs>
<path id="o" d="m10.797 72.906h38.719v-8.3125h-29.688v-17.859q2.1406 0.73438 4.2812 1.0938 2.1562 0.35938 4.3125 0.35938 12.203 0 19.328-6.6875 7.1406-6.6875 7.1406-18.109 0-11.766-7.3281-18.297-7.3281-6.5156-20.656-6.5156-4.5938 0-9.3594 0.78125-4.75 0.78125-9.8281 2.3438v9.9219q4.3906-2.3906 9.0781-3.5625t9.9062-1.1719q8.4531 0 13.375 4.4375 4.9375 4.4375 4.9375 12.062 0 7.6094-4.9375 12.047-4.9219 4.4531-13.375 4.4531-3.9531 0-7.8906-0.875-3.9219-0.875-8.0156-2.7344z"/>
<path id="x" d="m8.2031 72.906h46.875v-4.2031l-26.469-68.703h-10.297l24.906 64.594h-35.016z"/>
</defs>
<g transform="translate(250.1 970.03) scale(.1 -.1)">
<use xlink:href="#o"/>
<use x="63.623047" xlink:href="#x"/>
</g>
</g>
<g clip-path="url(#a)">
<defs>
<path id="aq" d="m19.094 12.406h9.9062v-12.406h-9.9062zm9.625 7.1719h-9.3281v7.5156q0 4.9375 1.3594 8.1094 1.375 3.1719 5.7656 7.375l4.3906 4.3438q2.7812 2.5938 4.0312 4.8906t1.25 4.6875q0 4.3438-3.2031 7.0312t-8.4688 2.6875q-3.8594 0-8.2344-1.7188-4.3594-1.7031-9.1094-4.9844v9.1875q4.5938 2.7812 9.2969 4.1406 4.7188 1.375 9.75 1.375 8.9844 0 14.422-4.7344 5.4531-4.7344 5.4531-12.5 0-3.7188-1.7656-7.0625-1.75-3.3438-6.1406-7.5312l-4.2969-4.2031q-2.2969-2.2969-3.25-3.5938t-1.3438-2.5156q-0.29688-1.0156-0.4375-2.4844t-0.14062-4z"/>
</defs>
<g transform="translate(283.09 970.03) scale(.1 -.1)">
<use xlink:href="#aq"/>
</g>
</g>
<g clip-path="url(#a)">
<defs>
<path id="ag" d="m44.281 53.078v-8.5q-3.7969 1.9531-7.9062 2.9219-4.0938 0.98438-8.5 0.98438-6.6875 0-10.031-2.0469t-3.3438-6.1562q0-3.125 2.3906-4.9062t9.625-3.3906l3.0781-0.6875q9.5625-2.0469 13.594-5.7812t4.0312-10.422q0-7.625-6.0312-12.078-6.0312-4.4375-16.578-4.4375-4.3906 0-9.1562 0.85938t-10.031 2.5625v9.2812q4.9844-2.5938 9.8125-3.8906 4.8281-1.2812 9.5781-1.2812 6.3438 0 9.75 2.1719 3.4219 2.1719 3.4219 6.125 0 3.6562-2.4688 5.6094-2.4531 1.9531-10.812 3.7656l-3.125 0.73438q-8.3438 1.75-12.062 5.3906-3.7031 3.6406-3.7031 9.9844 0 7.7188 5.4688 11.906 5.4688 4.2031 15.531 4.2031 4.9688 0 9.3594-0.73438 4.4062-0.71875 8.1094-2.1875z"/>
<path id="ba" d="m8.5 21.578v33.109h8.9844v-32.766q0-7.7656 3.0156-11.656 3.0312-3.875 9.0938-3.875 7.2656 0 11.484 4.6406 4.2344 4.6406 4.2344 12.656v31h8.9844v-54.688h-8.9844v8.4062q-3.2656-4.9844-7.5938-7.4062-4.3125-2.4219-10.031-2.4219-9.4219 0-14.312 5.8594-4.875 5.8594-4.875 17.141zm22.609 34.422m4.4844 19.781h9.9062v-9.8594h-9.9062zm-19.094 0h9.9062v-9.8594h-9.9062z"/>
<path id="ab" d="m45.406 46.391v29.594h8.9844v-75.984h-8.9844v8.2031q-2.8281-4.875-7.1562-7.25-4.3125-2.375-10.375-2.375-9.9062 0-16.141 7.9062-6.2188 7.9219-6.2188 20.812t6.2188 20.797q6.2344 7.9062 16.141 7.9062 6.0625 0 10.375-2.375 4.3281-2.3594 7.1562-7.2344zm-30.609-19.094q0-9.9062 4.0781-15.547t11.203-5.6406 11.219 5.6406q4.1094 5.6406 4.1094 15.547t-4.1094 15.547q-4.0938 5.6406-11.219 5.6406t-11.203-5.6406-4.0781-15.547z"/>
<path id="ac" d="m48.781 52.594v-8.4062q-3.8125 2.1094-7.6406 3.1562t-7.7344 1.0469q-8.75 0-13.594-5.5469-4.8281-5.5312-4.8281-15.547t4.8281-15.562q4.8438-5.5312 13.594-5.5312 3.9062 0 7.7344 1.0469t7.6406 3.1562v-8.3125q-3.7656-1.75-7.7969-2.625-4.0156-0.89062-8.5625-0.89062-12.359 0-19.641 7.7656-7.2656 7.7656-7.2656 20.953 0 13.375 7.3438 21.031 7.3594 7.6719 20.156 7.6719 4.1406 0 8.0938-0.85938 3.9531-0.84375 7.6719-2.5469z"/>
<path id="v" d="m54.891 33.016v-33.016h-8.9844v32.719q0 7.7656-3.0312 11.609-3.0312 3.8594-9.0781 3.8594-7.2812 0-11.484-4.6406-4.2031-4.625-4.2031-12.641v-30.906h-9.0312v75.984h9.0312v-29.797q3.2344 4.9375 7.5938 7.375 4.375 2.4375 10.094 2.4375 9.4219 0 14.25-5.8281 4.8438-5.8281 4.8438-17.156z"/>
</defs>
<g transform="translate(294.51 970.03) scale(.1 -.1)">
<use xlink:href="#ag"/>
<use x="52.099609" xlink:href="#ba"/>
<use x="115.478516" xlink:href="#ab"/>
<use x="178.955078" xlink:href="#j"/>
<use x="206.738281" xlink:href="#g"/>
<use x="234.521484" xlink:href="#ac"/>
<use x="289.501953" xlink:href="#v"/>
<use x="352.880859" xlink:href="#d"/>
<use x="414.404297" xlink:href="#f"/>
</g>
</g>
<g clip-path="url(#a)">
<defs>
<path id="az" d="m19.672 34.812v-26.703h15.828q7.9531 0 11.781 3.2969 3.8438 3.2969 3.8438 10.078 0 6.8438-3.8438 10.078-3.8281 3.25-11.781 3.25zm0 29.984v-21.969h14.609q7.2188 0 10.75 2.7031 3.5469 2.7188 3.5469 8.2812 0 5.5156-3.5469 8.25-3.5312 2.7344-10.75 2.7344zm-9.8594 8.1094h25.203q11.281 0 17.375-4.6875 6.1094-4.6875 6.1094-13.328 0-6.7031-3.125-10.656t-9.1875-4.9219q7.2812-1.5625 11.312-6.5312 4.0312-4.9531 4.0312-12.375 0-9.7656-6.6406-15.094-6.6406-5.3125-18.906-5.3125h-26.172z"/>
</defs>
<g transform="translate(336.2 970.03) scale(.1 -.1)">
<use xlink:href="#az"/>
<use x="68.603516" xlink:href="#f"/>
<use x="107.466797" xlink:href="#d"/>
<use x="168.990234" xlink:href="#g"/>
<use x="196.773438" xlink:href="#t"/>
<use x="235.982422" xlink:href="#d"/>
</g>
</g>
<g clip-path="url(#a)">
<g transform="translate(377.6 970.03) scale(.1 -.1)">
<use xlink:href="#z"/>
<use x="63.378906" xlink:href="#e"/>
<use x="126.757812" xlink:href="#ab"/>
</g>
</g>
<g clip-path="url(#a)">
<defs>
<path id="c" d="m12.406 8.2969h16.109v55.625l-17.531-3.5156v8.9844l17.438 3.5156h9.8594v-64.609h16.109v-8.2969h-41.984z"/>
<path id="af" d="m10.984 1.5156v8.9844q3.7188-1.7656 7.5156-2.6875 3.8125-0.92188 7.4844-0.92188 9.7656 0 14.906 6.5625 5.1562 6.5625 5.8906 19.953-2.8281-4.2031-7.1875-6.4531-4.3438-2.25-9.6094-2.25-10.938 0-17.312 6.6094-6.375 6.625-6.375 18.109 0 11.219 6.6406 18 6.6406 6.7969 17.672 6.7969 12.656 0 19.312-9.7031 6.6719-9.6875 6.6719-28.141 0-17.234-8.1875-27.516-8.1719-10.281-21.984-10.281-3.7188 0-7.5312 0.73438-3.7969 0.73438-7.9062 2.2031zm19.625 30.906q6.6406 0 10.516 4.5312 3.8906 4.5469 3.8906 12.469 0 7.8594-3.8906 12.422-3.875 4.5625-10.516 4.5625t-10.516-4.5625-3.875-12.422q0-7.9219 3.875-12.469 3.875-4.5312 10.516-4.5312z"/>
</defs>
<g transform="translate(415.87 970.03) scale(.1 -.1)">
<use xlink:href="#c"/>
<use x="63.623047" xlink:href="#n"/>
<use x="127.246094" xlink:href="#af"/>
</g>
</g>
<g clip-path="url(#a)">
<g transform="translate(463.46 970.03) scale(.1 -.1)">
<use xlink:href="#ar"/>
</g>
</g>
<g clip-path="url(#a)">
<defs>
<path id="m" d="m19.188 8.2969h34.422v-8.2969h-46.281v8.2969q5.6094 5.8125 15.297 15.594 9.7031 9.7969 12.188 12.641 4.7344 5.3125 6.6094 9 1.8906 3.6875 1.8906 7.25 0 5.8125-4.0781 9.4688-4.0781 3.6719-10.625 3.6719-4.6406 0-9.7969-1.6094-5.1406-1.6094-11-4.8906v9.9688q5.9531 2.3906 11.125 3.6094 5.1875 1.2188 9.4844 1.2188 11.328 0 18.062-5.6719 6.7344-5.6562 6.7344-15.125 0-4.5-1.6875-8.5312-1.6719-4.0156-6.125-9.4844-1.2188-1.4219-7.7656-8.1875-6.5312-6.7656-18.453-18.922z"/>
</defs>
<g transform="translate(502.4 970.03) scale(.1 -.1)">
<use xlink:href="#n"/>
<use x="63.623047" xlink:href="#m"/>
</g>
</g>
<g clip-path="url(#a)">
<g transform="translate(551.16 970.03) scale(.1 -.1)">
<use xlink:href="#aq"/>
</g>
</g>
<g clip-path="url(#a)">
<defs>
<path id="as" d="m4.2031 54.688h8.9844l11.234-42.672 11.172 42.672h10.594l11.234-42.672 11.188 42.672h8.9844l-14.312-54.688h-10.594l-11.766 44.828-11.812-44.828h-10.609z"/>
</defs>
<g transform="translate(575.56 970.03) scale(.1 -.1)">
<use xlink:href="#as"/>
<use x="81.787109" xlink:href="#d"/>
<use x="143.310547" xlink:href="#ag"/>
<use x="195.410156" xlink:href="#t"/>
<use x="234.619141" xlink:href="#j"/>
<use x="262.402344" xlink:href="#g"/>
<use x="290.185547" xlink:href="#ac"/>
<use x="345.166016" xlink:href="#v"/>
<use x="408.544922" xlink:href="#d"/>
<use x="470.068359" xlink:href="#f"/>
</g>
</g>
<g clip-path="url(#a)">
<defs>
<path id="aw" d="m9.8125 72.906h9.8594v-64.609h35.5v-8.2969h-45.359z"/>
<path id="bc" d="m34.281 27.484q-10.891 0-15.094-2.4844t-4.2031-8.5q0-4.7812 3.1562-7.5938 3.1562-2.7969 8.5625-2.7969 7.4844 0 12 5.2969t4.5156 14.078v2zm17.922 3.7188v-31.203h-8.9844v8.2969q-3.0781-4.9688-7.6719-7.3438t-11.234-2.375q-8.3906 0-13.359 4.7188-4.9531 4.7188-4.9531 12.625 0 9.2188 6.1719 13.906 6.1875 4.6875 18.438 4.6875h12.609v0.89062q0 6.2031-4.0781 9.5938t-11.453 3.3906q-4.6875 0-9.1406-1.125-4.4375-1.125-8.5312-3.375v8.3125q4.9219 1.9062 9.5625 2.8438 4.6406 0.95312 9.0312 0.95312 11.875 0 17.734-6.1562 5.8594-6.1406 5.8594-18.641zm-18.609 44.578h9.9062v-9.8594h-9.9062zm-19.094 0h9.9062v-9.8594h-9.9062z"/>
</defs>
<g transform="translate(635.41 970.03) scale(.1 -.1)">
<use xlink:href="#aw"/>
<use x="55.712891" xlink:href="#bc"/>
<use x="116.992188" xlink:href="#e"/>
<use x="180.371094" xlink:href="#aa"/>
<use x="243.847656" xlink:href="#d"/>
</g>
</g>
<g clip-path="url(#a)">
<g transform="translate(700.9 970.03) scale(.1 -.1)">
<use xlink:href="#al"/>
</g>
</g>
<g clip-path="url(#a)">
<g transform="translate(732.89 970.03) scale(.1 -.1)">
<use xlink:href="#aa"/>
<use x="63.476562" xlink:href="#d"/>
<use x="125" xlink:href="#as"/>
<use x="206.787109" xlink:href="#i"/>
<use x="268.066406" xlink:href="#v"/>
<use x="331.445312" xlink:href="#f"/>
<use x="372.558594" xlink:href="#t"/>
<use x="411.767578" xlink:href="#d"/>
</g>
</g>
<g clip-path="url(#a)">
<g transform="translate(805.56 970.03) scale(.1 -.1)">
<use xlink:href="#g"/>
<use x="27.783203" xlink:href="#ac"/>
<use x="82.763672" xlink:href="#v"/>
</g>
</g>
<g clip-path="url(#a)">
<g transform="translate(863.79 970.03) scale(.1 -.1)">
<use xlink:href="#ab"/>
<use x="63.476562" xlink:href="#g"/>
<use x="91.259766" xlink:href="#d"/>
</g>
</g>
<g clip-path="url(#a)">
<defs>
<path id="ah" d="m18.109 8.2031v-29h-9.0312v75.484h9.0312v-8.2969q2.8438 4.875 7.1562 7.2344 4.3281 2.375 10.328 2.375 9.9688 0 16.188-7.9062 6.2344-7.9062 6.2344-20.797t-6.2344-20.812q-6.2188-7.9062-16.188-7.9062-6 0-10.328 2.375-4.3125 2.375-7.1562 7.25zm30.578 19.094q0 9.9062-4.0781 15.547t-11.203 5.6406q-7.1406 0-11.219-5.6406t-4.0781-15.547 4.0781-15.547 11.219-5.6406q7.125 0 11.203 5.6406t4.0781 15.547z"/>
<path id="bd" d="m5.5156 54.688h42.672v-8.2031l-33.781-39.312h33.781v-7.1719h-43.891v8.2031l33.797 39.312h-32.578z"/>
</defs>
<g transform="translate(916.86 970.03) scale(.1 -.1)">
<use xlink:href="#ad"/>
<use x="63.476562" xlink:href="#ah"/>
<use x="126.953125" xlink:href="#g"/>
<use x="154.736328" xlink:href="#t"/>
<use x="193.945312" xlink:href="#bd"/>
<use x="246.435547" xlink:href="#d"/>
</g>
</g>
<g clip-path="url(#a)">
<g transform="translate(979.38 970.03) scale(.1 -.1)">
<use xlink:href="#ao"/>
<use x="86.279297" xlink:href="#i"/>
<use x="147.558594" xlink:href="#f"/>
<use x="188.671875" xlink:href="#t"/>
<use x="227.880859" xlink:href="#g"/>
<use x="255.664062" xlink:href="#e"/>
</g>
</g>
<g clip-path="url(#a)">
<g transform="translate(1051.5 970.03) scale(.1 -.1)">
<use xlink:href="#am"/>
<use x="59.179688" xlink:href="#at"/>
<use x="120.361328" xlink:href="#e"/>
</g>
</g>
<g clip-path="url(#a)">
<defs>
<path id="au" d="m9.0781 75.984h9.0312v-44.875l26.812 23.578h11.469l-29-25.578 30.234-29.109h-11.719l-27.797 26.703v-26.703h-9.0312z"/>
</defs>
<g transform="translate(1104.9 970.03) scale(.1 -.1)">
<use xlink:href="#an"/>
<use x="74.804688" xlink:href="#z"/>
<use x="138.183594" xlink:href="#au"/>
<use x="194.34375" xlink:href="#i"/>
<use x="255.623047" xlink:href="#v"/>
<use x="319.001953" xlink:href="#g"/>
<use x="346.785156" xlink:href="#am"/>
<use x="405.964844" xlink:href="#i"/>
</g>
</g>
<g clip-path="url(#a)">
<g transform="translate(1196.5 970.03) scale(.1 -.1)">
<use xlink:href="#al"/>
</g>
</g>
<g clip-path="url(#a)">
<g transform="translate(1261.8 970.03) scale(.1 -.1)">
<use xlink:href="#ab"/>
<use x="63.476562" xlink:href="#d"/>
<use x="125" xlink:href="#f"/>
</g>
</g>
<g clip-path="url(#a)">
<g transform="translate(1329.4 970.03) scale(.1 -.1)">
<use xlink:href="#ap"/>
<use x="75.195312" xlink:href="#i"/>
<use x="136.474609" xlink:href="#z"/>
<use x="199.853516" xlink:href="#ah"/>
<use x="263.330078" xlink:href="#t"/>
</g>
</g>
<g clip-path="url(#a)">
<g transform="translate(1409.5 970.03) scale(.1 -.1)">
<use xlink:href="#g"/>
<use x="27.783203" xlink:href="#e"/>
<use x="91.162109" xlink:href="#ag"/>
<use x="143.261719" xlink:href="#d"/>
<use x="204.785156" xlink:href="#j"/>
</g>
</g>
<g clip-path="url(#a)">
<g transform="translate(1484.5 970.03) scale(.1 -.1)">
<use xlink:href="#ab"/>
<use x="63.476562" xlink:href="#g"/>
<use x="91.259766" xlink:href="#d"/>
<use x="152.783203" xlink:href="#ag"/>
<use x="204.882812" xlink:href="#d"/>
<use x="266.40625" xlink:href="#f"/>
</g>
</g>
<g clip-path="url(#a)">
<g transform="translate(1555 970.03) scale(.1 -.1)">
<use xlink:href="#ae"/>
<use x="50.269531" xlink:href="#f"/>
<use x="91.382812" xlink:href="#i"/>
<use x="152.662109" xlink:href="#e"/>
<use x="216.041016" xlink:href="#au"/>
<use x="273.951172" xlink:href="#f"/>
<use x="312.814453" xlink:href="#d"/>
<use x="374.337891" xlink:href="#g"/>
<use x="402.121094" xlink:href="#ac"/>
<use x="457.101562" xlink:href="#v"/>
</g>
</g>
<g clip-path="url(#a)">
<defs>
<path id="bb" d="m30.609 48.391q-7.2188 0-11.422-5.6406t-4.2031-15.453 4.1719-15.453q4.1875-5.6406 11.453-5.6406 7.1875 0 11.375 5.6562 4.2031 5.6719 4.2031 15.438 0 9.7188-4.2031 15.406-4.1875 5.6875-11.375 5.6875zm0 7.6094q11.719 0 18.406-7.625 6.7031-7.6094 6.7031-21.078 0-13.422-6.7031-21.078-6.6875-7.6406-18.406-7.6406-11.766 0-18.438 7.6406-6.6562 7.6562-6.6562 21.078 0 13.469 6.6562 21.078 6.6719 7.625 18.438 7.625zm4.6094 19.781h9.9062v-9.8594h-9.9062zm-19.094 0h9.9062v-9.8594h-9.9062z"/>
</defs>
<g transform="translate(1632.8 970.03) scale(.1 -.1)">
<use xlink:href="#i"/>
<use x="61.279297" xlink:href="#e"/>
<use x="124.658203" xlink:href="#aa"/>
<use x="188.134766" xlink:href="#d"/>
<use x="249.658203" xlink:href="#v"/>
<use x="313.037109" xlink:href="#bb"/>
<use x="374.21875" xlink:href="#f"/>
<use x="415.332031" xlink:href="#g"/>
<use x="443.115234" xlink:href="#aa"/>
<use x="506.591797" xlink:href="#d"/>
<use x="568.115234" xlink:href="#e"/>
</g>
</g>
<g clip-path="url(#a)">
<defs>
<path id="ay" d="m59.516 10.406v19.578h-16.109v8.1094h25.875v-31.312q-5.7031-4.0469-12.594-6.125-6.875-2.0781-14.688-2.0781-17.094 0-26.75 9.9844-9.6406 10-9.6406 27.812 0 17.875 9.6406 27.859 9.6562 9.9844 26.75 9.9844 7.125 0 13.547-1.7656 6.4219-1.75 11.844-5.1719v-10.5q-5.4688 4.6406-11.625 6.9844t-12.938 2.3438q-13.391 0-20.109-7.4688-6.7031-7.4688-6.7031-22.266 0-14.75 6.7031-22.219 6.7188-7.4688 20.109-7.4688 5.2188 0 9.3125 0.90625 4.1094 0.90625 7.375 2.8125z"/>
</defs>
<g transform="translate(1731.4 970.03) scale(.1 -.1)">
<use xlink:href="#ay"/>
<use x="77.490234" xlink:href="#f"/>
<use x="118.603516" xlink:href="#z"/>
<use x="181.982422" xlink:href="#ah"/>
<use x="245.458984" xlink:href="#ah"/>
<use x="308.935547" xlink:href="#d"/>
</g>
</g>
<g clip-path="url(#a)">
<defs>
<path id="h" d="m10.688 12.406h10.312v-12.406h-10.312z"/>
</defs>
<g transform="translate(1836.2 970.03) scale(.1 -.1)">
<use xlink:href="#h"/>
</g>
</g>
<g clip-path="url(#a)">
<g transform="translate(572.4 48.82) scale(.1 -.1)">
<use xlink:href="#c"/>
<use x="63.623047" xlink:href="#h"/>
<use x="95.410156" xlink:href="#c"/>
</g>
</g>
<g clip-path="url(#a)">
<g transform="translate(572.4 181.64) scale(.1 -.1)">
<use xlink:href="#c"/>
<use x="63.623047" xlink:href="#h"/>
<use x="95.410156" xlink:href="#m"/>
</g>
</g>
<g clip-path="url(#a)">
<defs>
<path id="p" d="m37.797 64.312-24.906-38.922h24.906zm-2.5938 8.5938h12.406v-47.516h10.406v-8.2031h-10.406v-17.188h-9.8125v17.188h-32.906v9.5156z"/>
</defs>
<g transform="translate(111.95 446.56) scale(.1 -.1)">
<use xlink:href="#c"/>
<use x="63.623047" xlink:href="#h"/>
<use x="95.410156" xlink:href="#p"/>
</g>
</g>
<g clip-path="url(#a)">
<g transform="translate(350.4 446.56) scale(.1 -.1)">
<use xlink:href="#c"/>
<use x="63.623047" xlink:href="#h"/>
<use x="95.410156" xlink:href="#o"/>
</g>
</g>
<g clip-path="url(#a)">
<defs>
<path id="y" d="m33.016 40.375q-6.6406 0-10.531-4.5469-3.875-4.5312-3.875-12.438 0-7.8594 3.875-12.438 3.8906-4.5625 10.531-4.5625t10.516 4.5625q3.875 4.5781 3.875 12.438 0 7.9062-3.875 12.438-3.875 4.5469-10.516 4.5469zm19.578 30.922v-8.9844q-3.7188 1.75-7.5 2.6719-3.7812 0.9375-7.5 0.9375-9.7656 0-14.922-6.5938-5.1406-6.5938-5.875-19.922 2.875 4.25 7.2188 6.5156 4.3594 2.2656 9.5781 2.2656 10.984 0 17.359-6.6719 6.375-6.6562 6.375-18.125 0-11.234-6.6406-18.031-6.6406-6.7812-17.672-6.7812-12.656 0-19.344 9.6875-6.6875 9.7031-6.6875 28.109 0 17.281 8.2031 27.562t22.016 10.281q3.7188 0 7.5-0.73438t7.8906-2.1875z"/>
</defs>
<g transform="translate(748.6 840.97) scale(.1 -.1)">
<use xlink:href="#c"/>
<use x="63.623047" xlink:href="#h"/>
<use x="95.410156" xlink:href="#y"/>
</g>
</g>
<g clip-path="url(#a)">
<g transform="translate(804.91 840.97) scale(.1 -.1)">
<use xlink:href="#c"/>
<use x="63.623047" xlink:href="#h"/>
<use x="95.410156" xlink:href="#x"/>
</g>
</g>
<g clip-path="url(#a)">
<g transform="translate(1142.5 314.23) scale(.1 -.1)">
<use xlink:href="#c"/>
<use x="63.623047" xlink:href="#h"/>
<use x="95.410156" xlink:href="#w"/>
</g>
</g>
<g clip-path="url(#a)">
<g transform="translate(890.71 710.11) scale(.1 -.1)">
<use xlink:href="#c"/>
<use x="63.623047" xlink:href="#h"/>
<use x="95.410156" xlink:href="#c"/>
<use x="159.033203" xlink:href="#c"/>
</g>
</g>
<g clip-path="url(#a)">
<g transform="translate(1050.3 840.97) scale(.1 -.1)">
<use xlink:href="#c"/>
<use x="63.623047" xlink:href="#h"/>
<use x="95.410156" xlink:href="#c"/>
<use x="159.033203" xlink:href="#m"/>
</g>
</g>
<g clip-path="url(#a)">
<g transform="translate(1429.4 446.56) scale(.1 -.1)">
<use xlink:href="#c"/>
<use x="63.623047" xlink:href="#h"/>
<use x="95.410156" xlink:href="#c"/>
<use x="159.033203" xlink:href="#n"/>
</g>
</g>
<g clip-path="url(#a)">
<g transform="translate(1259 840.97) scale(.1 -.1)">
<use xlink:href="#c"/>
<use x="63.623047" xlink:href="#h"/>
<use x="95.410156" xlink:href="#c"/>
<use x="159.033203" xlink:href="#o"/>
</g>
</g>
<g clip-path="url(#a)">
<g transform="translate(1371.7 710.11) scale(.1 -.1)">
<use xlink:href="#c"/>
<use x="63.623047" xlink:href="#h"/>
<use x="95.410156" xlink:href="#c"/>
<use x="159.033203" xlink:href="#y"/>
</g>
</g>
<g clip-path="url(#a)">
<g transform="translate(1409.9 840.97) scale(.1 -.1)">
<use xlink:href="#c"/>
<use x="63.623047" xlink:href="#h"/>
<use x="95.410156" xlink:href="#c"/>
<use x="159.033203" xlink:href="#x"/>
</g>
</g>
<g clip-path="url(#a)">
<g transform="translate(1677.1 578.56) scale(.1 -.1)">
<use xlink:href="#c"/>
<use x="63.623047" xlink:href="#h"/>
<use x="95.410156" xlink:href="#c"/>
<use x="159.033203" xlink:href="#w"/>
</g>
</g>
<g clip-path="url(#a)">
<g transform="translate(1488.8 840.97) scale(.1 -.1)">
<use xlink:href="#c"/>
<use x="63.623047" xlink:href="#h"/>
<use x="95.410156" xlink:href="#c"/>
<use x="159.033203" xlink:href="#af"/>
</g>
</g>
<g clip-path="url(#a)">
<defs>
<path id="ak" d="m31.781 66.406q-7.6094 0-11.453-7.5-3.8281-7.4844-3.8281-22.531 0-14.984 3.8281-22.484 3.8438-7.5 11.453-7.5 7.6719 0 11.5 7.5 3.8438 7.5 3.8438 22.484 0 15.047-3.8438 22.531-3.8281 7.5-11.5 7.5zm0 7.8125q12.266 0 18.734-9.7031 6.4688-9.6875 6.4688-28.141 0-18.406-6.4688-28.109-6.4688-9.6875-18.734-9.6875-12.25 0-18.719 9.6875-6.4688 9.7031-6.4688 28.109 0 18.453 6.4688 28.141 6.4688 9.7031 18.719 9.7031z"/>
</defs>
<g transform="translate(1654 710.11) scale(.1 -.1)">
<use xlink:href="#c"/>
<use x="63.623047" xlink:href="#h"/>
<use x="95.410156" xlink:href="#m"/>
<use x="159.033203" xlink:href="#ak"/>
</g>
</g>
<g clip-path="url(#a)">
<g transform="translate(1738.8 840.97) scale(.1 -.1)">
<use xlink:href="#c"/>
<use x="63.623047" xlink:href="#h"/>
<use x="95.410156" xlink:href="#m"/>
<use x="159.033203" xlink:href="#c"/>
</g>
</g>
<g clip-path="url(#a)">
<g transform="translate(1569.9 840.97) scale(.1 -.1)">
<use xlink:href="#c"/>
<use x="63.623047" xlink:href="#h"/>
<use x="95.410156" xlink:href="#m"/>
<use x="159.033203" xlink:href="#m"/>
</g>
</g>
<g clip-path="url(#a)">
<g transform="translate(1653.2 840.97) scale(.1 -.1)">
<use xlink:href="#c"/>
<use x="63.623047" xlink:href="#h"/>
<use x="95.410156" xlink:href="#m"/>
<use x="159.033203" xlink:href="#n"/>
</g>
</g>
<g clip-path="url(#a)">
<g transform="translate(1333.4 840.97) scale(.1 -.1)">
<use xlink:href="#c"/>
<use x="63.623047" xlink:href="#h"/>
<use x="95.410156" xlink:href="#m"/>
<use x="159.033203" xlink:href="#p"/>
</g>
</g>
<g clip-path="url(#a)">
<g transform="translate(860.3 840.97) scale(.1 -.1)">
<use xlink:href="#c"/>
<use x="63.623047" xlink:href="#h"/>
<use x="95.410156" xlink:href="#m"/>
<use x="159.033203" xlink:href="#o"/>
</g>
</g>
<g clip-path="url(#a)">
<g transform="translate(921.12 840.97) scale(.1 -.1)">
<use xlink:href="#c"/>
<use x="63.623047" xlink:href="#h"/>
<use x="95.410156" xlink:href="#m"/>
<use x="159.033203" xlink:href="#y"/>
</g>
</g>
<g clip-path="url(#a)">
<g transform="translate(170.99 840.97) scale(.1 -.1)">
<use xlink:href="#c"/>
<use x="63.623047" xlink:href="#h"/>
<use x="95.410156" xlink:href="#m"/>
<use x="159.033203" xlink:href="#x"/>
</g>
</g>
<g clip-path="url(#a)">
<g transform="translate(284.94 578.56) scale(.1 -.1)">
<use xlink:href="#c"/>
<use x="63.623047" xlink:href="#h"/>
<use x="95.410156" xlink:href="#m"/>
<use x="159.033203" xlink:href="#w"/>
</g>
</g>
<g clip-path="url(#a)">
<g transform="translate(375.98 840.97) scale(.1 -.1)">
<use xlink:href="#c"/>
<use x="63.623047" xlink:href="#h"/>
<use x="95.410156" xlink:href="#m"/>
<use x="159.033203" xlink:href="#af"/>
</g>
</g>
<g clip-path="url(#a)">
<g transform="translate(556.95 578.56) scale(.1 -.1)">
<use xlink:href="#c"/>
<use x="63.623047" xlink:href="#h"/>
<use x="95.410156" xlink:href="#n"/>
<use x="159.033203" xlink:href="#ak"/>
</g>
</g>
<g clip-path="url(#a)">
<g transform="translate(455.58 710.11) scale(.1 -.1)">
<use xlink:href="#c"/>
<use x="63.623047" xlink:href="#h"/>
<use x="95.410156" xlink:href="#n"/>
<use x="159.033203" xlink:href="#c"/>
</g>
</g>
<g clip-path="url(#a)">
<g transform="translate(589.98 840.97) scale(.1 -.1)">
<use xlink:href="#c"/>
<use x="63.623047" xlink:href="#h"/>
<use x="95.410156" xlink:href="#n"/>
<use x="159.033203" xlink:href="#m"/>
</g>
</g>
<g clip-path="url(#a)">
<g transform="translate(639.54 840.97) scale(.1 -.1)">
<use xlink:href="#c"/>
<use x="63.623047" xlink:href="#h"/>
<use x="95.410156" xlink:href="#n"/>
<use x="159.033203" xlink:href="#n"/>
</g>
</g>
<g clip-path="url(#a)">
<g transform="translate(219.05 710.11) scale(.1 -.1)">
<use xlink:href="#c"/>
<use x="63.623047" xlink:href="#h"/>
<use x="95.410156" xlink:href="#n"/>
<use x="159.033203" xlink:href="#y"/>
</g>
</g>
<g clip-path="url(#a)">
<g transform="translate(306.15 840.97) scale(.1 -.1)">
<use xlink:href="#c"/>
<use x="63.623047" xlink:href="#h"/>
<use x="95.410156" xlink:href="#n"/>
<use x="159.033203" xlink:href="#x"/>
</g>
</g>
<g clip-path="url(#a)">
<g transform="translate(339.94 840.97) scale(.1 -.1)">
<use xlink:href="#c"/>
<use x="63.623047" xlink:href="#h"/>
<use x="95.410156" xlink:href="#n"/>
<use x="159.033203" xlink:href="#w"/>
</g>
</g>
<g clip-path="url(#a)">
<g transform="translate(82.014 578.56) scale(.1 -.1)">
<use xlink:href="#c"/>
<use x="63.623047" xlink:href="#h"/>
<use x="95.410156" xlink:href="#p"/>
<use x="159.033203" xlink:href="#c"/>
</g>
</g>
<g clip-path="url(#a)">
<g transform="translate(103.41 840.97) scale(.1 -.1)">
<use xlink:href="#c"/>
<use x="63.623047" xlink:href="#h"/>
<use x="95.410156" xlink:href="#p"/>
<use x="159.033203" xlink:href="#m"/>
</g>
</g>
<g clip-path="url(#a)">
<g transform="translate(116.93 840.97) scale(.1 -.1)">
<use xlink:href="#c"/>
<use x="63.623047" xlink:href="#h"/>
<use x="95.410156" xlink:href="#p"/>
<use x="159.033203" xlink:href="#n"/>
</g>
</g>
<g clip-path="url(#a)">
<g transform="translate(132.7 840.97) scale(.1 -.1)">
<use xlink:href="#c"/>
<use x="63.623047" xlink:href="#h"/>
<use x="95.410156" xlink:href="#p"/>
<use x="159.033203" xlink:href="#p"/>
</g>
</g>
<g clip-path="url(#a)">
<g transform="translate(76.382 840.97) scale(.1 -.1)">
<use xlink:href="#c"/>
<use x="63.623047" xlink:href="#h"/>
<use x="95.410156" xlink:href="#p"/>
<use x="159.033203" xlink:href="#o"/>
</g>
</g>
<g clip-path="url(#a)">
<g transform="translate(87.646 710.11) scale(.1 -.1)">
<use xlink:href="#c"/>
<use x="63.623047" xlink:href="#h"/>
<use x="95.410156" xlink:href="#p"/>
<use x="159.033203" xlink:href="#y"/>
</g>
</g>
<g clip-path="url(#a)">
<g transform="translate(83.14 840.97) scale(.1 -.1)">
<use xlink:href="#c"/>
<use x="63.623047" xlink:href="#h"/>
<use x="95.410156" xlink:href="#p"/>
<use x="159.033203" xlink:href="#x"/>
</g>
</g>
<g clip-path="url(#a)">
<g transform="translate(92.151 840.97) scale(.1 -.1)">
<use xlink:href="#c"/>
<use x="63.623047" xlink:href="#h"/>
<use x="95.410156" xlink:href="#p"/>
<use x="159.033203" xlink:href="#w"/>
</g>
</g>
<g clip-path="url(#a)">
<g transform="translate(150.72 840.97) scale(.1 -.1)">
<use xlink:href="#c"/>
<use x="63.623047" xlink:href="#h"/>
<use x="95.410156" xlink:href="#p"/>
<use x="159.033203" xlink:href="#af"/>
</g>
</g>
<g clip-path="url(#a)">
<g transform="translate(218.3 840.97) scale(.1 -.1)">
<use xlink:href="#c"/>
<use x="63.623047" xlink:href="#h"/>
<use x="95.410156" xlink:href="#o"/>
<use x="159.033203" xlink:href="#ak"/>
</g>
</g>
<g clip-path="url(#a)">
<g transform="translate(274.61 840.97) scale(.1 -.1)">
<use xlink:href="#c"/>
<use x="63.623047" xlink:href="#h"/>
<use x="95.410156" xlink:href="#o"/>
<use x="159.033203" xlink:href="#c"/>
</g>
</g>
<g clip-path="url(#a)">
<g transform="translate(454.83 840.97) scale(.1 -.1)">
<use xlink:href="#c"/>
<use x="63.623047" xlink:href="#h"/>
<use x="95.410156" xlink:href="#o"/>
<use x="159.033203" xlink:href="#m"/>
</g>
</g>
<g clip-path="url(#a)">
<g transform="translate(542.68 840.97) scale(.1 -.1)">
<use xlink:href="#c"/>
<use x="63.623047" xlink:href="#h"/>
<use x="95.410156" xlink:href="#o"/>
<use x="159.033203" xlink:href="#n"/>
</g>
</g>
<g clip-path="url(#a)">
<g transform="translate(691.35 840.97) scale(.1 -.1)">
<use xlink:href="#c"/>
<use x="63.623047" xlink:href="#h"/>
<use x="95.410156" xlink:href="#o"/>
<use x="159.033203" xlink:href="#p"/>
</g>
</g>
<g clip-path="url(#a)">
<g transform="translate(1186.9 840.97) scale(.1 -.1)">
<use xlink:href="#c"/>
<use x="63.623047" xlink:href="#h"/>
<use x="95.410156" xlink:href="#o"/>
<use x="159.033203" xlink:href="#o"/>
</g>
</g>
<g clip-path="url(#a)">
<g transform="translate(1826.7 840.97) scale(.1 -.1)">
<use xlink:href="#c"/>
<use x="63.623047" xlink:href="#h"/>
<use x="95.410156" xlink:href="#o"/>
<use x="159.033203" xlink:href="#y"/>
</g>
</g>
<defs>
<clipPath id="a">
<rect width="1925.3" height="1013.3"/>
</clipPath>
</defs>
</svg>
