<?xml version="1.0" encoding="UTF-8"?>
<!DOCTYPE svg  PUBLIC '-//W3C//DTD SVG 1.1//EN'  'http://www.w3.org/Graphics/SVG/1.1/DTD/svg11.dtd'>
<svg width="1570.7pt" height="826.67pt" version="1.1" viewBox="0 0 1570.7 826.67" xmlns="http://www.w3.org/2000/svg" xmlns:xlink="http://www.w3.org/1999/xlink">
<defs>
<style type="text/css">*{stroke-linecap:butt;stroke-linejoin:round;}</style>
</defs>
<path d="m0 826.67h1570.7v-826.67h-1570.7z" fill="#fff"/>
<g fill="none" stroke="#000">
<path d="m287.67 37.576v126.39" clip-path="url(#a)"/>
<path d="m287.67 163.97-216.28 502.09" clip-path="url(#a)"/>
<path d="m287.67 163.97-208.12 502.09" clip-path="url(#a)"/>
<path d="m287.67 163.97-165.51 251.96" clip-path="url(#a)"/>
<path d="m287.67 163.97-126.53 502.09" clip-path="url(#a)"/>
<path d="m287.67 163.97-13.807 251.96" clip-path="url(#a)"/>
<path d="m287.67 163.97 686.84 126.14" clip-path="url(#a)"/>
<path d="m287.67 163.97-102.05 502.09" clip-path="url(#a)"/>
<path d="m287.67 163.97 145.45 502.09" clip-path="url(#a)"/>
<path d="m71.394 666.06v123.03" clip-path="url(#a)"/>
<path d="m79.553 666.06v123.03" clip-path="url(#a)"/>
<path d="m122.16 415.93-17.225 125.39" clip-path="url(#a)"/>
<path d="m122.16 415.93 17.225 250.13" clip-path="url(#a)"/>
<path d="m161.15 666.06v123.03" clip-path="url(#a)"/>
<path d="m273.87 415.93-61.044 250.13" clip-path="url(#a)"/>
<path d="m273.87 415.93-14.808 125.39" clip-path="url(#a)"/>
<path d="m273.87 415.93 75.851 125.39" clip-path="url(#a)"/>
<path d="m974.51 290.11-273.94 251.21" clip-path="url(#a)"/>
<path d="m974.51 290.11 230.58 125.82" clip-path="url(#a)"/>
<path d="m974.51 290.11 43.365 375.95" clip-path="url(#a)"/>
<path d="m700.57 541.32-221.21 124.74" clip-path="url(#a)"/>
<path d="m700.57 541.32-120.58 124.74" clip-path="url(#a)"/>
<path d="m700.57 541.32-9.0659 124.74" clip-path="url(#a)"/>
<path d="m700.57 541.32 113.32 124.74" clip-path="url(#a)"/>
<path d="m700.57 541.32 178.6 124.74" clip-path="url(#a)"/>
<path d="m700.57 541.32 246.59 124.74" clip-path="url(#a)"/>
<path d="m700.57 541.32-172.25 124.74" clip-path="url(#a)"/>
<path d="m700.57 541.32-66.181 124.74" clip-path="url(#a)"/>
<path d="m700.57 541.32 50.769 124.74" clip-path="url(#a)"/>
<path d="m1205.1 415.93-504.52 125.39" clip-path="url(#a)" stroke-dasharray="3.7,1.6"/>
<path d="m1205.1 415.93 3.1731 125.39" clip-path="url(#a)"/>
<path d="m1205.1 415.93 207.16 250.13" clip-path="url(#a)"/>
<path d="m1205.1 415.93 294.19 250.13" clip-path="url(#a)"/>
<path d="m1208.3 541.32-116.95 124.74" clip-path="url(#a)"/>
<path d="m1208.3 541.32-40.797 124.74" clip-path="url(#a)"/>
<path d="m1208.3 541.32 38.077 124.74" clip-path="url(#a)"/>
<path d="m1208.3 541.32 119.67 124.74" clip-path="url(#a)"/>
<path d="m1412.2 666.06v123.03" clip-path="url(#a)"/>
<path d="m1091.3 666.06v123.03" clip-path="url(#a)"/>
<path d="m1167.5 666.06v123.03" clip-path="url(#a)"/>
<path d="m1246.3 666.06v123.03" clip-path="url(#a)"/>
<path d="m1327.9 666.06v123.03" clip-path="url(#a)"/>
<path d="m479.36 666.06v123.03" clip-path="url(#a)"/>
<path d="m579.99 666.06v123.03" clip-path="url(#a)"/>
<path d="m691.5 666.06v123.03" clip-path="url(#a)"/>
<path d="m813.89 666.06v123.03" clip-path="url(#a)"/>
<path d="m879.17 666.06v123.03" clip-path="url(#a)"/>
<path d="m947.16 666.06v123.03" clip-path="url(#a)"/>
<path d="m212.82 666.06v123.03" clip-path="url(#a)"/>
<path d="m259.06 541.32-16.319 124.74" clip-path="url(#a)"/>
<path d="m259.06 541.32 16.319 124.74" clip-path="url(#a)"/>
<path d="m349.72 541.32-38.983 124.74" clip-path="url(#a)"/>
<path d="m349.72 541.32-0.90659 124.74" clip-path="url(#a)"/>
<path d="m349.72 541.32 39.89 124.74" clip-path="url(#a)"/>
<path d="m310.73 666.06v123.03" clip-path="url(#a)"/>
<path d="m348.81 666.06v123.03" clip-path="url(#a)"/>
<path d="m389.61 666.06v123.03" clip-path="url(#a)"/>
<path d="m242.74 666.06v123.03" clip-path="url(#a)"/>
<path d="m275.38 666.06v123.03" clip-path="url(#a)"/>
<path d="m104.94 541.32-14.505 124.74" clip-path="url(#a)"/>
<path d="m104.94 541.32-0.90659 124.74" clip-path="url(#a)"/>
<path d="m104.94 541.32 15.412 124.74" clip-path="url(#a)"/>
<path d="m139.39 666.06v123.03" clip-path="url(#a)"/>
<path d="m90.432 666.06v123.03" clip-path="url(#a)"/>
<path d="m104.03 666.06v123.03" clip-path="url(#a)"/>
<path d="m120.35 666.06v123.03" clip-path="url(#a)"/>
<path d="m185.62 666.06v123.03" clip-path="url(#a)"/>
<path d="m433.12 666.06v123.03" clip-path="url(#a)"/>
<path d="m528.32 666.06v123.03" clip-path="url(#a)"/>
<path d="m634.39 666.06v123.03" clip-path="url(#a)"/>
<path d="m751.34 666.06v123.03" clip-path="url(#a)"/>
<path d="m1017.9 666.06v123.03" clip-path="url(#a)"/>
<path d="m1499.3 666.06v123.03" clip-path="url(#a)"/>
</g>
<path d="m281.4 97.764v6.0162q0 2.4 2.4 2.4h7.7425q2.4 0 2.4-2.4v-6.0162q0-2.4-2.4-2.4h-7.7425q-2.4 0-2.4 2.4z" clip-path="url(#a)" fill="#fff" stroke="#fff"/>
<g clip-path="url(#a)">
<defs>
<path id="at" d="m9.8125 72.906h9.8594v-29.891h35.844v29.891h9.8594v-72.906h-9.8594v34.719h-35.844v-34.719h-9.8594z"/>
</defs>
<g transform="translate(285.46 97.764) rotate(90) scale(.08 -.08)">
<use xlink:href="#at"/>
</g>
</g>
<path d="m184.21 420.01 2.165-5.026q0.94947-2.2042-1.2547-3.1537l-7.1109-3.063q-2.2042-0.94947-3.1537 1.2547l-2.165 5.026q-0.94947 2.2042 1.2547 3.1537l7.1109 3.063q2.2042 0.94947 3.1537-1.2547z" clip-path="url(#a)" fill="#fff" stroke="#fff"/>
<g clip-path="url(#a)">
<defs>
<path id="r" d="m34.188 63.188-13.391-36.281h26.812zm-5.5781 9.7188h11.188l27.781-72.906h-10.25l-6.6406 18.703h-32.859l-6.6406-18.703h-10.406z"/>
</defs>
<g transform="translate(180.48 418.4) rotate(-66.696) scale(.08 -.08)">
<use xlink:href="#r"/>
</g>
</g>
<path d="m188.43 419.76 1.9447-4.6917q0.91899-2.2171-1.2981-3.1361l-7.1524-2.9647q-2.2171-0.91899-3.1361 1.2981l-1.9447 4.6917q-0.91899 2.2171 1.2981 3.1361l7.1524 2.9647q2.2171 0.91899 3.1361-1.2981z" clip-path="url(#a)" fill="#fff" stroke="#fff"/>
<g clip-path="url(#a)">
<defs>
<path id="am" d="m53.516 70.516v-9.625q-5.6094 2.6875-10.594 4-4.9844 1.3281-9.625 1.3281-8.0469 0-12.422-3.125t-4.375-8.8906q0-4.8438 2.9062-7.3125 2.9062-2.4531 11.016-3.9688l5.9531-1.2188q11.031-2.1094 16.281-7.4062t5.25-14.172q0-10.609-7.1094-16.078-7.0938-5.4688-20.812-5.4688-5.1719 0-11.016 1.1719-5.8281 1.1719-12.078 3.4688v10.156q6-3.3594 11.766-5.0781 5.7656-1.7031 11.328-1.7031 8.4375 0 13.031 3.3125 4.5938 3.3281 4.5938 9.4844 0 5.3594-3.2969 8.3906t-10.812 4.5469l-6.0156 1.1719q-11.031 2.1875-15.969 6.875-4.9219 4.6875-4.9219 13.047 0 9.6719 6.8125 15.234t18.766 5.5625q5.1406 0 10.453-0.9375 5.3281-0.92188 10.891-2.7656z"/>
</defs>
<g transform="translate(184.68 418.21) rotate(-67.486) scale(.08 -.08)">
<use xlink:href="#am"/>
</g>
</g>
<path d="m208.66 295.68 3.0046-4.5739q1.3177-2.0059-0.68826-3.3236l-6.4712-4.2509q-2.0059-1.3177-3.3236 0.68826l-3.0046 4.5739q-1.3177 2.0059 0.68826 3.3236l6.4712 4.2509q2.0059 1.3177 3.3236-0.68826z" clip-path="url(#a)" fill="#fff" stroke="#fff"/>
<g clip-path="url(#a)">
<g transform="translate(205.26 293.45) rotate(-56.7) scale(.08 -.08)">
<use xlink:href="#r"/>
</g>
</g>
<path d="m229.74 419.53 1.5052-5.9733q0.58646-2.3272-1.7408-2.9137l-7.5078-1.8919q-2.3272-0.58646-2.9137 1.7408l-1.5052 5.9733q-0.58646 2.3272 1.7408 2.9137l7.5078 1.8919q2.3272 0.58646 2.9137-1.7408z" clip-path="url(#a)" fill="#fff" stroke="#fff"/>
<g clip-path="url(#a)">
<defs>
<path id="an" d="m19.672 64.797v-56.688h11.922q15.094 0 22.094 6.8281 7 6.8438 7 21.594 0 14.641-7 21.453t-22.094 6.8125zm-9.8594 8.1094h20.266q21.188 0 31.094-8.8125 9.9219-8.8125 9.9219-27.562 0-18.859-9.9688-27.703-9.9531-8.8281-31.047-8.8281h-20.266z"/>
</defs>
<g transform="translate(225.8 418.54) rotate(-75.856) scale(.08 -.08)">
<use xlink:href="#an"/>
</g>
</g>
<path d="m286.88 293.02 0.29943-5.4643q0.13132-2.3964-2.2651-2.5277l-7.7309-0.42363q-2.3964-0.13132-2.5277 2.2651l-0.29943 5.4643q-0.13132 2.3964 2.2651 2.5277l7.7309 0.42363q2.3964 0.13132 2.5277-2.2651z" clip-path="url(#a)" fill="#fff" stroke="#fff"/>
<g clip-path="url(#a)">
<g transform="translate(282.82 292.8) rotate(-86.864) scale(.08 -.08)">
<use xlink:href="#r"/>
</g>
</g>
<path d="m627.27 232.71 5.3825 0.9885q2.3605 0.43352 2.794-1.927l1.3985-7.6151q0.43352-2.3605-1.927-2.794l-5.3825-0.98851q-2.3605-0.43352-2.794 1.927l-1.3985 7.6151q-0.43352 2.3605 1.927 2.794z" clip-path="url(#a)" fill="#fff" stroke="#fff"/>
<g clip-path="url(#a)">
<g transform="translate(628 228.72) rotate(10.407) scale(.08 -.08)">
<use xlink:href="#r"/>
</g>
</g>
<path d="m242.21 419.13 1.1662-5.7377q0.47802-2.3519-1.8739-2.8299l-7.5874-1.5421q-2.3519-0.47802-2.8299 1.8739l-1.1662 5.7377q-0.47802 2.3519 1.8739 2.8299l7.5874 1.5421q2.3519 0.47802 2.8299-1.8739z" clip-path="url(#a)" fill="#fff" stroke="#fff"/>
<g clip-path="url(#a)">
<defs>
<path id="q" d="m8.6875 72.906h9.9219v-44.297q0-11.719 4.2344-16.875 4.25-5.1406 13.781-5.1406 9.4688 0 13.719 5.1406 4.25 5.1562 4.25 16.875v44.297h9.9062v-45.516q0-14.25-7.0625-21.531-7.0469-7.2812-20.812-7.2812-13.828 0-20.891 7.2812-7.0469 7.2812-7.0469 21.531z"/>
</defs>
<g transform="translate(238.23 418.32) rotate(-78.511) scale(.08 -.08)">
<use xlink:href="#q"/>
</g>
</g>
<path d="m353.56 413.95 1.6291 5.6238q0.6678 2.3052 2.973 1.6374l7.4367-2.1543q2.3052-0.6678 1.6374-2.973l-1.6291-5.6238q-0.6678-2.3052-2.973-1.6374l-7.4367 2.1543q-2.3052 0.6678-1.6374 2.973z" clip-path="url(#a)" fill="#fff" stroke="#fff"/>
<g clip-path="url(#a)">
<g transform="translate(357.46 412.82) rotate(73.844) scale(.08 -.08)">
<use xlink:href="#q"/>
</g>
</g>
<path d="m65.123 710.67v33.808q0 2.4 2.4 2.4h7.7425q2.4 0 2.4-2.4v-33.808q0-2.4-2.4-2.4h-7.7425q-2.4 0-2.4 2.4z" clip-path="url(#a)" fill="#fff" stroke="#fff"/>
<g clip-path="url(#a)">
<defs>
<path id="l" d="m-0.29688 72.906h61.672v-8.3125h-25.875v-64.594h-9.9062v64.594h-25.891z"/>
<path id="e" d="m56.203 29.594v-4.3906h-41.312q0.59375-9.2812 5.5938-14.141t13.938-4.8594q5.1719 0 10.031 1.2656t9.6562 3.8125v-8.5q-4.8438-2.0469-9.9219-3.125t-10.297-1.0781q-13.094 0-20.734 7.6094-7.6406 7.625-7.6406 20.625 0 13.422 7.25 21.297 7.25 7.8906 19.562 7.8906 11.031 0 17.453-7.1094 6.4219-7.0938 6.4219-19.297zm-8.9844 2.6406q-0.09375 7.3594-4.125 11.75-4.0312 4.4062-10.672 4.4062-7.5156 0-12.031-4.25t-5.2031-11.969z"/>
<path id="j" d="m41.109 46.297q-1.5156 0.875-3.2969 1.2812-1.7812 0.42188-3.9219 0.42188-7.625 0-11.703-4.9531t-4.0781-14.234v-28.812h-9.0312v54.688h9.0312v-8.5q2.8438 4.9844 7.375 7.3906 4.5469 2.4219 11.047 2.4219 0.92188 0 2.0469-0.125 1.125-0.10938 2.4844-0.35938z"/>
<path id="k" d="m52 44.188q3.375 6.0625 8.0625 8.9375t11.031 2.875q8.5469 0 13.188-5.9844 4.6406-5.9688 4.6406-17v-33.016h-9.0312v32.719q0 7.8594-2.7969 11.656-2.7812 3.8125-8.4844 3.8125-6.9844 0-11.047-4.6406-4.0469-4.625-4.0469-12.641v-30.906h-9.0312v32.719q0 7.9062-2.7812 11.688t-8.5938 3.7812q-6.8906 0-10.953-4.6562-4.0469-4.6562-4.0469-12.625v-30.906h-9.0312v54.688h9.0312v-8.5q3.0781 5.0312 7.375 7.4219t10.203 2.3906q5.9688 0 10.141-3.0312 4.1719-3.0156 6.1719-8.7812z"/>
<path id="h" d="m9.4219 54.688h8.9844v-54.688h-8.9844zm0 21.297h8.9844v-11.391h-8.9844z"/>
<path id="d" d="m54.891 33.016v-33.016h-8.9844v32.719q0 7.7656-3.0312 11.609-3.0312 3.8594-9.0781 3.8594-7.2812 0-11.484-4.6406-4.2031-4.625-4.2031-12.641v-30.906h-9.0312v54.688h9.0312v-8.5q3.2344 4.9375 7.5938 7.375 4.375 2.4375 10.094 2.4375 9.4219 0 14.25-5.8281 4.8438-5.8281 4.8438-17.156z"/>
<path id="g" d="m34.281 27.484q-10.891 0-15.094-2.4844t-4.2031-8.5q0-4.7812 3.1562-7.5938 3.1562-2.7969 8.5625-2.7969 7.4844 0 12 5.2969t4.5156 14.078v2zm17.922 3.7188v-31.203h-8.9844v8.2969q-3.0781-4.9688-7.6719-7.3438t-11.234-2.375q-8.3906 0-13.359 4.7188-4.9531 4.7188-4.9531 12.625 0 9.2188 6.1719 13.906 6.1875 4.6875 18.438 4.6875h12.609v0.89062q0 6.2031-4.0781 9.5938t-11.453 3.3906q-4.6875 0-9.1406-1.125-4.4375-1.125-8.5312-3.375v8.3125q4.9219 1.9062 9.5625 2.8438 4.6406 0.95312 9.0312 0.95312 11.875 0 17.734-6.1562 5.8594-6.1406 5.8594-18.641z"/>
<path id="i" d="m9.4219 75.984h8.9844v-75.984h-8.9844z"/>
</defs>
<g transform="translate(69.186 710.67) rotate(90) scale(.08 -.08)">
<use xlink:href="#l"/>
<use x="44.083984" xlink:href="#e"/>
<use x="105.607422" xlink:href="#j"/>
<use x="144.970703" xlink:href="#k"/>
<use x="242.382812" xlink:href="#h"/>
<use x="270.166016" xlink:href="#d"/>
<use x="333.544922" xlink:href="#g"/>
<use x="394.824219" xlink:href="#i"/>
</g>
</g>
<path d="m73.282 710.67v33.808q0 2.4 2.4 2.4h7.7425q2.4 0 2.4-2.4v-33.808q0-2.4-2.4-2.4h-7.7425q-2.4 0-2.4 2.4z" clip-path="url(#a)" fill="#fff" stroke="#fff"/>
<g clip-path="url(#a)">
<g transform="translate(77.346 710.67) rotate(90) scale(.08 -.08)">
<use xlink:href="#l"/>
<use x="44.083984" xlink:href="#e"/>
<use x="105.607422" xlink:href="#j"/>
<use x="144.970703" xlink:href="#k"/>
<use x="242.382812" xlink:href="#h"/>
<use x="270.166016" xlink:href="#d"/>
<use x="333.544922" xlink:href="#g"/>
<use x="394.824219" xlink:href="#i"/>
</g>
</g>
<path d="m119.33 482.6 0.85703-6.2389q0.32662-2.3777-2.0511-2.7043l-7.6705-1.0537q-2.3777-0.32662-2.7043 2.0511l-0.85703 6.2389q-0.32662 2.3777 2.0511 2.7043l7.6705 1.0537q2.3777 0.32662 2.7043-2.0511z" clip-path="url(#a)" fill="#fff" stroke="#fff"/>
<g clip-path="url(#a)">
<defs>
<path id="ar" d="m39.406 66.219q-10.75 0-17.078-8.0156-6.3125-8-6.3125-21.828 0-13.766 6.3125-21.781 6.3281-8 17.078-8 10.734 0 17.016 8 6.2812 8.0156 6.2812 21.781 0 13.828-6.2812 21.828-6.2812 8.0156-17.016 8.0156zm13.812-64.906 13-14.203h-11.922l-10.797 11.672q-1.6094-0.09375-2.4688-0.14062-0.84375-0.0625-1.625-0.0625-15.375 0-24.594 10.281-9.2031 10.281-9.2031 27.516 0 17.281 9.2031 27.562 9.2188 10.281 24.594 10.281 15.328 0 24.5-10.281 9.1875-10.281 9.1875-27.562 0-12.688-5.1094-21.734-5.0938-9.0312-14.766-13.328z"/>
</defs>
<g transform="translate(115.31 482.05) rotate(-82.178) scale(.08 -.08)">
<use xlink:href="#ar"/>
</g>
</g>
<path d="m124.33 538.64 0.38378 5.5731q0.16488 2.3943 2.5592 2.2294l7.7242-0.53192q2.3943-0.16488 2.2294-2.5592l-0.38378-5.5731q-0.16488-2.3943-2.5592-2.2294l-7.7242 0.53192q-2.3943 0.16488-2.2294 2.5592z" clip-path="url(#a)" fill="#fff" stroke="#fff"/>
<g clip-path="url(#a)">
<defs>
<path id="o" d="m64.406 67.281v-10.391q-4.9844 4.6406-10.625 6.9219-5.6406 2.2969-11.984 2.2969-12.5 0-19.141-7.6406t-6.6406-22.094q0-14.406 6.6406-22.047t19.141-7.6406q6.3438 0 11.984 2.2969t10.625 6.9375v-10.312q-5.1719-3.5156-10.969-5.2812-5.7812-1.75-12.219-1.75-16.562 0-26.094 10.125-9.5156 10.141-9.5156 27.672 0 17.578 9.5156 27.703 9.5312 10.141 26.094 10.141 6.5312 0 12.312-1.7344 5.7969-1.7344 10.875-5.2031z"/>
</defs>
<g transform="translate(128.38 538.36) rotate(86.061) scale(.08 -.08)">
<use xlink:href="#o"/>
</g>
</g>
<path d="m154.88 710.67v33.808q0 2.4 2.4 2.4h7.7425q2.4 0 2.4-2.4v-33.808q0-2.4-2.4-2.4h-7.7425q-2.4 0-2.4 2.4z" clip-path="url(#a)" fill="#fff" stroke="#fff"/>
<g clip-path="url(#a)">
<g transform="translate(158.94 710.67) rotate(90) scale(.08 -.08)">
<use xlink:href="#l"/>
<use x="44.083984" xlink:href="#e"/>
<use x="105.607422" xlink:href="#j"/>
<use x="144.970703" xlink:href="#k"/>
<use x="242.382812" xlink:href="#h"/>
<use x="270.166016" xlink:href="#d"/>
<use x="333.544922" xlink:href="#g"/>
<use x="394.824219" xlink:href="#i"/>
</g>
</g>
<path d="m248.78 545.18 1.3179-5.4003q0.56901-2.3316-1.7626-2.9006l-7.5218-1.8356q-2.3316-0.56901-2.9006 1.7626l-1.3179 5.4003q-0.56901 2.3316 1.7626 2.9006l7.5218 1.8356q2.3316 0.56901 2.9006-1.7626z" clip-path="url(#a)" fill="#fff" stroke="#fff"/>
<g clip-path="url(#a)">
<defs>
<path id="af" d="m44.391 34.188q3.1719-1.0781 6.1719-4.5938t6.0312-9.6719l10.016-19.922h-10.609l-9.3125 18.703q-3.625 7.3281-7.0156 9.7188t-9.25 2.3906h-10.75v-30.812h-9.8594v72.906h22.266q12.5 0 18.656-5.2344 6.1562-5.2188 6.1562-15.766 0-6.8906-3.2031-11.438-3.2031-4.5312-9.2969-6.2812zm-24.719 30.609v-25.875h12.406q7.125 0 10.766 3.2969t3.6406 9.6875-3.6406 9.6406-10.766 3.25z"/>
</defs>
<g transform="translate(244.83 544.22) rotate(-76.285) scale(.08 -.08)">
<use xlink:href="#af"/>
</g>
</g>
<path d="m272.39 481.87 0.59282-5.0201q0.28146-2.3834-2.102-2.6649l-7.6891-0.90799q-2.3834-0.28146-2.6649 2.102l-0.59282 5.0201q-0.28146 2.3834 2.102 2.6649l7.6891 0.90799q2.3834 0.28146 2.6649-2.102z" clip-path="url(#a)" fill="#fff" stroke="#fff"/>
<g clip-path="url(#a)">
<defs>
<path id="u" d="m9.8125 72.906h46.094v-8.3125h-36.234v-21.578h34.719v-8.2969h-34.719v-26.422h37.109v-8.2969h-46.969z"/>
</defs>
<g transform="translate(268.36 481.39) rotate(-83.265) scale(.08 -.08)">
<use xlink:href="#u"/>
</g>
</g>
<path d="m304.98 479.48 2.8913 4.7798q1.2422 2.0535 3.2957 0.81134l6.6248-4.0073q2.0535-1.2422 0.81134-3.2957l-2.8913-4.7798q-1.2422-2.0535-3.2957-0.81134l-6.6248 4.0073q-2.0535 1.2422-0.81134 3.2957z" clip-path="url(#a)" fill="#fff" stroke="#fff"/>
<g clip-path="url(#a)">
<g transform="translate(308.46 477.38) rotate(58.83) scale(.08 -.08)">
<use xlink:href="#o"/>
</g>
</g>
<path d="m839.72 422.23 4.1172-3.7756q1.7688-1.6221 0.14674-3.3909l-5.233-5.7064q-1.6221-1.7688-3.3909-0.14674l-4.1172 3.7756q-1.7688 1.6221-0.14674 3.3909l5.233 5.7064q1.6221 1.7688 3.3909 0.14674z" clip-path="url(#a)" fill="#fff" stroke="#fff"/>
<g clip-path="url(#a)">
<g transform="translate(836.97 419.23) rotate(-42.522) scale(.08 -.08)">
<use xlink:href="#o"/>
</g>
</g>
<path d="m1084.6 357.31 4.4373 2.4214q2.1067 1.1496 3.2564-0.95714l3.7087-6.7965q1.1496-2.1067-0.95714-3.2564l-4.4373-2.4214q-2.1067-1.1496-3.2564 0.95714l-3.7087 6.7965q-1.1496 2.1067 0.95714 3.2564z" clip-path="url(#a)" fill="#fff" stroke="#fff"/>
<g clip-path="url(#a)">
<g transform="translate(1086.5 353.75) rotate(28.62) scale(.08 -.08)">
<use xlink:href="#u"/>
</g>
</g>
<path d="m989.63 475.9 0.67091 5.8164q0.27501 2.3842 2.6592 2.1092l7.6915-0.88719q2.3842-0.27501 2.1092-2.6592l-0.67091-5.8164q-0.27501-2.3842-2.6592-2.1092l-7.6915 0.88719q-2.3842 0.27501-2.1092 2.6592z" clip-path="url(#a)" fill="#fff" stroke="#fff"/>
<g clip-path="url(#a)">
<g transform="translate(993.66 475.43) rotate(83.42) scale(.08 -.08)">
<use xlink:href="#q"/>
</g>
</g>
<path d="m590.61 610.53 4.8659-2.7439q2.0905-1.1789 0.91167-3.2694l-3.803-6.7441q-1.1789-2.0905-3.2694-0.91167l-4.8659 2.7439q-2.0905 1.1789-0.91167 3.2694l3.803 6.7441q1.1789 2.0905 3.2694 0.91167z" clip-path="url(#a)" fill="#fff" stroke="#fff"/>
<g clip-path="url(#a)">
<g transform="translate(588.61 606.99) rotate(-29.419) scale(.08 -.08)">
<use xlink:href="#o"/>
</g>
</g>
<path d="m642.85 610.06 3.8825-4.0165q1.668-1.7256-0.057594-3.3936l-5.5669-5.3811q-1.7256-1.668-3.3936 0.057594l-3.8825 4.0165q-1.668 1.7256 0.057594 3.3936l5.5669 5.3811q1.7256 1.668 3.3936-0.057594z" clip-path="url(#a)" fill="#fff" stroke="#fff"/>
<g clip-path="url(#a)">
<g transform="translate(639.92 607.24) rotate(-45.972) scale(.08 -.08)">
<use xlink:href="#o"/>
</g>
</g>
<path d="m702.09 606.93 0.40493-5.5716q0.17397-2.3937-2.2197-2.5677l-7.7221-0.56123q-2.3937-0.17397-2.5677 2.2197l-0.40493 5.5716q-0.17397 2.3937 2.2197 2.5677l7.7221 0.56123q2.3937 0.17397 2.5677-2.2197z" clip-path="url(#a)" fill="#fff" stroke="#fff"/>
<g clip-path="url(#a)">
<g transform="translate(698.03 606.64) rotate(-85.843) scale(.08 -.08)">
<use xlink:href="#o"/>
</g>
</g>
<path d="m750.71 605.84 3.7563 4.1347q1.6138 1.7764 3.3902 0.16257l5.7307-5.2063q1.7764-1.6138 0.16257-3.3902l-3.7563-4.1347q-1.6138-1.7764-3.3902-0.16257l-5.7307 5.2063q-1.7764 1.6138-0.16257 3.3902z" clip-path="url(#a)" fill="#fff" stroke="#fff"/>
<g clip-path="url(#a)">
<g transform="translate(753.72 603.11) rotate(47.745) scale(.08 -.08)">
<use xlink:href="#o"/>
</g>
</g>
<path d="m783.82 607.12 4.9067 3.427q1.9676 1.3742 3.3418-0.59335l4.4334-6.3476q1.3742-1.9676-0.59335-3.3418l-4.9067-3.427q-1.9676-1.3742-3.3418 0.59335l-4.4334 6.3476q-1.3742 1.9676 0.59335 3.3418z" clip-path="url(#a)" fill="#fff" stroke="#fff"/>
<g clip-path="url(#a)">
<defs>
<path id="ag" d="m9.8125 72.906h13.281l32.328-60.984v60.984h9.5625v-72.906h-13.281l-32.312 60.984v-60.984h-9.5781z"/>
</defs>
<g transform="translate(786.15 603.79) rotate(34.932) scale(.08 -.08)">
<use xlink:href="#ag"/>
</g>
</g>
<path d="m818.54 608.03 4.9848 2.5216q2.1416 1.0833 3.2249-1.0583l3.4949-6.9088q1.0833-2.1416-1.0583-3.2249l-4.9848-2.5216q-2.1416-1.0833-3.2249 1.0583l-3.4949 6.9088q-1.0833 2.1416 1.0583 3.2249z" clip-path="url(#a)" fill="#fff" stroke="#fff"/>
<g clip-path="url(#a)">
<g transform="translate(820.37 604.4) rotate(26.833) scale(.08 -.08)">
<use xlink:href="#o"/>
</g>
</g>
<path d="m615.75 610.49 4.7421-3.4341q1.9438-1.4077 0.53617-3.3515l-4.5412-6.2709q-1.4077-1.9438-3.3515-0.53617l-4.7421 3.4341q-1.9438 1.4077-0.53617 3.3515l4.5412 6.2709q1.4077 1.9438 3.3515 0.53617z" clip-path="url(#a)" fill="#fff" stroke="#fff"/>
<g clip-path="url(#a)">
<g transform="translate(613.36 607.2) rotate(-35.911) scale(.08 -.08)">
<use xlink:href="#q"/>
</g>
</g>
<path d="m671.64 609.22 2.7441-5.1721q1.1248-2.1201-0.99527-3.2449l-6.8395-3.6287q-2.1201-1.1248-3.2449 0.99527l-2.7441 5.1721q-1.1248 2.1201 0.99527 3.2449l6.8395 3.6287q2.1201 1.1248 3.2449-0.99527z" clip-path="url(#a)" fill="#fff" stroke="#fff"/>
<g clip-path="url(#a)">
<g transform="translate(668.05 607.31) rotate(-62.052) scale(.08 -.08)">
<use xlink:href="#q"/>
</g>
</g>
<path d="m719.04 603.35 2.2072 5.423q0.90474 2.2229 3.1277 1.3182l7.1713-2.9187q2.2229-0.90474 1.3182-3.1277l-2.2072-5.423q-0.90473-2.2229-3.1277-1.3182l-7.1713 2.9187q-2.2229 0.90474-1.3182 3.1277z" clip-path="url(#a)" fill="#fff" stroke="#fff"/>
<g clip-path="url(#a)">
<g transform="translate(722.8 601.81) rotate(67.854) scale(.08 -.08)">
<use xlink:href="#q"/>
</g>
</g>
<path d="m951.68 485.37 5.3109-1.32q2.3291-0.57889 1.7502-2.908l-1.8675-7.5139q-0.57889-2.3291-2.908-1.7502l-5.3109 1.32q-2.3291 0.57889-1.7502 2.908l1.8675 7.5139q0.57889 2.3291 2.908 1.7502z" clip-path="url(#a)" fill="#fff" stroke="#fff"/>
<g clip-path="url(#a)">
<g transform="translate(950.7 481.43) rotate(-13.958) scale(.08 -.08)">
<use xlink:href="#r"/>
</g>
</g>
<path d="m1200.3 476.05 0.13844 5.4707q0.060712 2.3992 2.4599 2.3385l7.74-0.19586q2.3992-0.060712 2.3385-2.4599l-0.13844-5.4707q-0.060712-2.3992-2.4599-2.3385l-7.74 0.19586q-2.3992 0.060712-2.3385 2.4599z" clip-path="url(#a)" fill="#fff" stroke="#fff"/>
<g clip-path="url(#a)">
<g transform="translate(1204.4 475.95) rotate(88.55) scale(.08 -.08)">
<use xlink:href="#r"/>
</g>
</g>
<path d="m1302.2 543.04 3.2394 3.9115q1.5308 1.8484 3.3792 0.31759l5.963-4.9385q1.8484-1.5308 0.31759-3.3792l-3.2394-3.9115q-1.5308-1.8484-3.3792-0.31759l-5.963 4.9385q-1.8484 1.5308-0.31759 3.3792z" clip-path="url(#a)" fill="#fff" stroke="#fff"/>
<g clip-path="url(#a)">
<g transform="translate(1305.3 540.45) rotate(50.369) scale(.08 -.08)">
<use xlink:href="#am"/>
</g>
</g>
<path d="m1345.9 543.88 4.4606 3.7926q1.8284 1.5546 3.383-0.27381l5.0153-5.8986q1.5546-1.8284-0.27381-3.3831l-4.4606-3.7926q-1.8284-1.5546-3.383 0.27381l-5.0153 5.8986q-1.5546 1.8284 0.27381 3.383z" clip-path="url(#a)" fill="#fff" stroke="#fff"/>
<g clip-path="url(#a)">
<g transform="translate(1348.5 540.78) rotate(40.373) scale(.08 -.08)">
<use xlink:href="#q"/>
</g>
</g>
<path d="m1152.5 610.01 3.802-4.0552q1.6415-1.7508-0.10934-3.3924l-5.6483-5.2956q-1.7508-1.6415-3.3924 0.10934l-3.802 4.0552q-1.6415 1.7508 0.10934 3.3924l5.6483 5.2956q1.7508 1.6415 3.3924-0.10934z" clip-path="url(#a)" fill="#fff" stroke="#fff"/>
<g clip-path="url(#a)">
<g transform="translate(1149.5 607.23) rotate(-46.846) scale(.08 -.08)">
<use xlink:href="#af"/>
</g>
</g>
<path d="m1193 608.04 1.5714-4.8046q0.74604-2.2811-1.5351-3.0271l-7.3589-2.4068q-2.2811-0.74604-3.0271 1.5351l-1.5714 4.8046q-0.74604 2.2811 1.5351 3.0271l7.3589 2.4068q2.2811 0.74604 3.0271-1.5351z" clip-path="url(#a)" fill="#fff" stroke="#fff"/>
<g clip-path="url(#a)">
<g transform="translate(1189.2 606.78) rotate(-71.89) scale(.08 -.08)">
<use xlink:href="#u"/>
</g>
</g>
<path d="m1220.5 602.85 1.6309 5.3429q0.70068 2.2954 2.9961 1.5948l7.4052-2.2604q2.2954-0.70068 1.5948-2.9961l-1.6309-5.3429q-0.70068-2.2954-2.9961-1.5948l-7.4052 2.2604q-2.2954 0.70068-1.5948 2.9961z" clip-path="url(#a)" fill="#fff" stroke="#fff"/>
<g clip-path="url(#a)">
<g transform="translate(1224.4 601.67) rotate(73.025) scale(.08 -.08)">
<use xlink:href="#o"/>
</g>
</g>
<path d="m1261.8 606.21 3.4995 3.6478q1.6615 1.7319 3.3934 0.070391l5.5871-5.3601q1.7319-1.6615 0.070391-3.3934l-3.4995-3.6478q-1.6615-1.7319-3.3934-0.07039l-5.5871 5.3601q-1.7319 1.6615-0.070391 3.3934z" clip-path="url(#a)" fill="#fff" stroke="#fff"/>
<g clip-path="url(#a)">
<g transform="translate(1264.7 603.4) rotate(46.188) scale(.08 -.08)">
<use xlink:href="#u"/>
</g>
</g>
<path d="m1406 710.67v33.808q0 2.4 2.4 2.4h7.7425q2.4 0 2.4-2.4v-33.808q0-2.4-2.4-2.4h-7.7425q-2.4 0-2.4 2.4z" clip-path="url(#a)" fill="#fff" stroke="#fff"/>
<g clip-path="url(#a)">
<g transform="translate(1410 710.67) rotate(90) scale(.08 -.08)">
<use xlink:href="#l"/>
<use x="44.083984" xlink:href="#e"/>
<use x="105.607422" xlink:href="#j"/>
<use x="144.970703" xlink:href="#k"/>
<use x="242.382812" xlink:href="#h"/>
<use x="270.166016" xlink:href="#d"/>
<use x="333.544922" xlink:href="#g"/>
<use x="394.824219" xlink:href="#i"/>
</g>
</g>
<path d="m1085 710.67v33.808q0 2.4 2.4 2.4h7.7425q2.4 0 2.4-2.4v-33.808q0-2.4-2.4-2.4h-7.7425q-2.4 0-2.4 2.4z" clip-path="url(#a)" fill="#fff" stroke="#fff"/>
<g clip-path="url(#a)">
<g transform="translate(1089.1 710.67) rotate(90) scale(.08 -.08)">
<use xlink:href="#l"/>
<use x="44.083984" xlink:href="#e"/>
<use x="105.607422" xlink:href="#j"/>
<use x="144.970703" xlink:href="#k"/>
<use x="242.382812" xlink:href="#h"/>
<use x="270.166016" xlink:href="#d"/>
<use x="333.544922" xlink:href="#g"/>
<use x="394.824219" xlink:href="#i"/>
</g>
</g>
<path d="m1161.2 710.67v33.808q0 2.4 2.4 2.4h7.7425q2.4 0 2.4-2.4v-33.808q0-2.4-2.4-2.4h-7.7425q-2.4 0-2.4 2.4z" clip-path="url(#a)" fill="#fff" stroke="#fff"/>
<g clip-path="url(#a)">
<g transform="translate(1165.3 710.67) rotate(90) scale(.08 -.08)">
<use xlink:href="#l"/>
<use x="44.083984" xlink:href="#e"/>
<use x="105.607422" xlink:href="#j"/>
<use x="144.970703" xlink:href="#k"/>
<use x="242.382812" xlink:href="#h"/>
<use x="270.166016" xlink:href="#d"/>
<use x="333.544922" xlink:href="#g"/>
<use x="394.824219" xlink:href="#i"/>
</g>
</g>
<path d="m1240.1 710.67v33.808q0 2.4 2.4 2.4h7.7425q2.4 0 2.4-2.4v-33.808q0-2.4-2.4-2.4h-7.7425q-2.4 0-2.4 2.4z" clip-path="url(#a)" fill="#fff" stroke="#fff"/>
<g clip-path="url(#a)">
<g transform="translate(1244.1 710.67) rotate(90) scale(.08 -.08)">
<use xlink:href="#l"/>
<use x="44.083984" xlink:href="#e"/>
<use x="105.607422" xlink:href="#j"/>
<use x="144.970703" xlink:href="#k"/>
<use x="242.382812" xlink:href="#h"/>
<use x="270.166016" xlink:href="#d"/>
<use x="333.544922" xlink:href="#g"/>
<use x="394.824219" xlink:href="#i"/>
</g>
</g>
<path d="m1321.7 710.67v33.808q0 2.4 2.4 2.4h7.7425q2.4 0 2.4-2.4v-33.808q0-2.4-2.4-2.4h-7.7425q-2.4 0-2.4 2.4z" clip-path="url(#a)" fill="#fff" stroke="#fff"/>
<g clip-path="url(#a)">
<g transform="translate(1325.7 710.67) rotate(90) scale(.08 -.08)">
<use xlink:href="#l"/>
<use x="44.083984" xlink:href="#e"/>
<use x="105.607422" xlink:href="#j"/>
<use x="144.970703" xlink:href="#k"/>
<use x="242.382812" xlink:href="#h"/>
<use x="270.166016" xlink:href="#d"/>
<use x="333.544922" xlink:href="#g"/>
<use x="394.824219" xlink:href="#i"/>
</g>
</g>
<path d="m473.09 710.67v33.808q0 2.4 2.4 2.4h7.7425q2.4 0 2.4-2.4v-33.808q0-2.4-2.4-2.4h-7.7425q-2.4 0-2.4 2.4z" clip-path="url(#a)" fill="#fff" stroke="#fff"/>
<g clip-path="url(#a)">
<g transform="translate(477.15 710.67) rotate(90) scale(.08 -.08)">
<use xlink:href="#l"/>
<use x="44.083984" xlink:href="#e"/>
<use x="105.607422" xlink:href="#j"/>
<use x="144.970703" xlink:href="#k"/>
<use x="242.382812" xlink:href="#h"/>
<use x="270.166016" xlink:href="#d"/>
<use x="333.544922" xlink:href="#g"/>
<use x="394.824219" xlink:href="#i"/>
</g>
</g>
<path d="m573.72 710.67v33.808q0 2.4 2.4 2.4h7.7425q2.4 0 2.4-2.4v-33.808q0-2.4-2.4-2.4h-7.7425q-2.4 0-2.4 2.4z" clip-path="url(#a)" fill="#fff" stroke="#fff"/>
<g clip-path="url(#a)">
<g transform="translate(577.78 710.67) rotate(90) scale(.08 -.08)">
<use xlink:href="#l"/>
<use x="44.083984" xlink:href="#e"/>
<use x="105.607422" xlink:href="#j"/>
<use x="144.970703" xlink:href="#k"/>
<use x="242.382812" xlink:href="#h"/>
<use x="270.166016" xlink:href="#d"/>
<use x="333.544922" xlink:href="#g"/>
<use x="394.824219" xlink:href="#i"/>
</g>
</g>
<path d="m685.23 710.67v33.808q0 2.4 2.4 2.4h7.7425q2.4 0 2.4-2.4v-33.808q0-2.4-2.4-2.4h-7.7425q-2.4 0-2.4 2.4z" clip-path="url(#a)" fill="#fff" stroke="#fff"/>
<g clip-path="url(#a)">
<g transform="translate(689.29 710.67) rotate(90) scale(.08 -.08)">
<use xlink:href="#l"/>
<use x="44.083984" xlink:href="#e"/>
<use x="105.607422" xlink:href="#j"/>
<use x="144.970703" xlink:href="#k"/>
<use x="242.382812" xlink:href="#h"/>
<use x="270.166016" xlink:href="#d"/>
<use x="333.544922" xlink:href="#g"/>
<use x="394.824219" xlink:href="#i"/>
</g>
</g>
<path d="m807.62 710.67v33.808q0 2.4 2.4 2.4h7.7425q2.4 0 2.4-2.4v-33.808q0-2.4-2.4-2.4h-7.7425q-2.4 0-2.4 2.4z" clip-path="url(#a)" fill="#fff" stroke="#fff"/>
<g clip-path="url(#a)">
<g transform="translate(811.68 710.67) rotate(90) scale(.08 -.08)">
<use xlink:href="#l"/>
<use x="44.083984" xlink:href="#e"/>
<use x="105.607422" xlink:href="#j"/>
<use x="144.970703" xlink:href="#k"/>
<use x="242.382812" xlink:href="#h"/>
<use x="270.166016" xlink:href="#d"/>
<use x="333.544922" xlink:href="#g"/>
<use x="394.824219" xlink:href="#i"/>
</g>
</g>
<path d="m872.89 710.67v33.808q0 2.4 2.4 2.4h7.7425q2.4 0 2.4-2.4v-33.808q0-2.4-2.4-2.4h-7.7425q-2.4 0-2.4 2.4z" clip-path="url(#a)" fill="#fff" stroke="#fff"/>
<g clip-path="url(#a)">
<g transform="translate(876.96 710.67) rotate(90) scale(.08 -.08)">
<use xlink:href="#l"/>
<use x="44.083984" xlink:href="#e"/>
<use x="105.607422" xlink:href="#j"/>
<use x="144.970703" xlink:href="#k"/>
<use x="242.382812" xlink:href="#h"/>
<use x="270.166016" xlink:href="#d"/>
<use x="333.544922" xlink:href="#g"/>
<use x="394.824219" xlink:href="#i"/>
</g>
</g>
<path d="m940.89 710.67v33.808q0 2.4 2.4 2.4h7.7425q2.4 0 2.4-2.4v-33.808q0-2.4-2.4-2.4h-7.7425q-2.4 0-2.4 2.4z" clip-path="url(#a)" fill="#fff" stroke="#fff"/>
<g clip-path="url(#a)">
<g transform="translate(944.95 710.67) rotate(90) scale(.08 -.08)">
<use xlink:href="#l"/>
<use x="44.083984" xlink:href="#e"/>
<use x="105.607422" xlink:href="#j"/>
<use x="144.970703" xlink:href="#k"/>
<use x="242.382812" xlink:href="#h"/>
<use x="270.166016" xlink:href="#d"/>
<use x="333.544922" xlink:href="#g"/>
<use x="394.824219" xlink:href="#i"/>
</g>
</g>
<path d="m206.55 710.67v33.808q0 2.4 2.4 2.4h7.7425q2.4 0 2.4-2.4v-33.808q0-2.4-2.4-2.4h-7.7425q-2.4 0-2.4 2.4z" clip-path="url(#a)" fill="#fff" stroke="#fff"/>
<g clip-path="url(#a)">
<g transform="translate(210.61 710.67) rotate(90) scale(.08 -.08)">
<use xlink:href="#l"/>
<use x="44.083984" xlink:href="#e"/>
<use x="105.607422" xlink:href="#j"/>
<use x="144.970703" xlink:href="#k"/>
<use x="242.382812" xlink:href="#h"/>
<use x="270.166016" xlink:href="#d"/>
<use x="333.544922" xlink:href="#g"/>
<use x="394.824219" xlink:href="#i"/>
</g>
</g>
<path d="m256.82 606.79 0.59686-4.5624q0.31132-2.3797-2.0684-2.691l-7.6771-1.0043q-2.3797-0.31132-2.691 2.0684l-0.59686 4.5624q-0.31132 2.3797 2.0684 2.691l7.6771 1.0043q2.3797 0.31132 2.691-2.0684z" clip-path="url(#a)" fill="#fff" stroke="#fff"/>
<g clip-path="url(#a)">
<defs>
<path id="au" d="m9.8125 72.906h41.891v-8.3125h-32.031v-21.484h28.906v-8.2969h-28.906v-34.812h-9.8594z"/>
</defs>
<g transform="translate(252.79 606.26) rotate(-82.547) scale(.08 -.08)">
<use xlink:href="#au"/>
</g>
</g>
<path d="m260.64 601.74 0.72463 5.5391q0.31132 2.3797 2.691 2.0684l7.6771-1.0043q2.3797-0.31132 2.0684-2.691l-0.72463-5.5391q-0.31132-2.3797-2.691-2.0684l-7.6771 1.0043q-2.3797 0.31132-2.0684 2.691z" clip-path="url(#a)" fill="#fff" stroke="#fff"/>
<g clip-path="url(#a)">
<g transform="translate(264.67 601.21) rotate(82.547) scale(.08 -.08)">
<use xlink:href="#o"/>
</g>
</g>
<path d="m335.38 608.23 1.6663-5.3319q0.7159-2.2907-1.5748-3.0066l-7.39-2.3095q-2.2907-0.7159-3.0066 1.5748l-1.6663 5.3319q-0.7159 2.2907 1.5748 3.0066l7.39 2.3095q2.2907 0.7159 3.0066-1.5748z" clip-path="url(#a)" fill="#fff" stroke="#fff"/>
<g clip-path="url(#a)">
<g transform="translate(331.5 607.02) rotate(-72.645) scale(.08 -.08)">
<use xlink:href="#o"/>
</g>
</g>
<path d="m355.51 606.73 0.043497-5.9848q0.017443-2.3999-2.3825-2.4174l-7.7423-0.05627q-2.3999-0.017442-2.4174 2.3825l-0.043497 5.9848q-0.017443 2.3999 2.3825 2.4174l7.7423 0.05627q2.3999 0.017443 2.4174-2.3825z" clip-path="url(#a)" fill="#fff" stroke="#fff"/>
<g clip-path="url(#a)">
<g transform="translate(351.45 606.7) rotate(-89.584) scale(.08 -.08)">
<use xlink:href="#ag"/>
</g>
</g>
<path d="m362.84 602.94 1.7015 5.3208q0.73102 2.286 3.017 1.5549l7.3746-2.3583q2.286-0.73102 1.5549-3.017l-1.7015-5.3208q-0.73102-2.286-3.017-1.5549l-7.3746 2.3583q-2.286 0.73102-1.5549 3.017z" clip-path="url(#a)" fill="#fff" stroke="#fff"/>
<g clip-path="url(#a)">
<g transform="translate(366.71 601.7) rotate(72.266) scale(.08 -.08)">
<use xlink:href="#o"/>
</g>
</g>
<path d="m304.46 710.67v33.808q0 2.4 2.4 2.4h7.7425q2.4 0 2.4-2.4v-33.808q0-2.4-2.4-2.4h-7.7425q-2.4 0-2.4 2.4z" clip-path="url(#a)" fill="#fff" stroke="#fff"/>
<g clip-path="url(#a)">
<g transform="translate(308.53 710.67) rotate(90) scale(.08 -.08)">
<use xlink:href="#l"/>
<use x="44.083984" xlink:href="#e"/>
<use x="105.607422" xlink:href="#j"/>
<use x="144.970703" xlink:href="#k"/>
<use x="242.382812" xlink:href="#h"/>
<use x="270.166016" xlink:href="#d"/>
<use x="333.544922" xlink:href="#g"/>
<use x="394.824219" xlink:href="#i"/>
</g>
</g>
<path d="m342.54 710.67v33.808q0 2.4 2.4 2.4h7.7425q2.4 0 2.4-2.4v-33.808q0-2.4-2.4-2.4h-7.7425q-2.4 0-2.4 2.4z" clip-path="url(#a)" fill="#fff" stroke="#fff"/>
<g clip-path="url(#a)">
<g transform="translate(346.6 710.67) rotate(90) scale(.08 -.08)">
<use xlink:href="#l"/>
<use x="44.083984" xlink:href="#e"/>
<use x="105.607422" xlink:href="#j"/>
<use x="144.970703" xlink:href="#k"/>
<use x="242.382812" xlink:href="#h"/>
<use x="270.166016" xlink:href="#d"/>
<use x="333.544922" xlink:href="#g"/>
<use x="394.824219" xlink:href="#i"/>
</g>
</g>
<path d="m383.34 710.67v33.808q0 2.4 2.4 2.4h7.7425q2.4 0 2.4-2.4v-33.808q0-2.4-2.4-2.4h-7.7425q-2.4 0-2.4 2.4z" clip-path="url(#a)" fill="#fff" stroke="#fff"/>
<g clip-path="url(#a)">
<g transform="translate(387.4 710.67) rotate(90) scale(.08 -.08)">
<use xlink:href="#l"/>
<use x="44.083984" xlink:href="#e"/>
<use x="105.607422" xlink:href="#j"/>
<use x="144.970703" xlink:href="#k"/>
<use x="242.382812" xlink:href="#h"/>
<use x="270.166016" xlink:href="#d"/>
<use x="333.544922" xlink:href="#g"/>
<use x="394.824219" xlink:href="#i"/>
</g>
</g>
<path d="m236.47 710.67v33.808q0 2.4 2.4 2.4h7.7425q2.4 0 2.4-2.4v-33.808q0-2.4-2.4-2.4h-7.7425q-2.4 0-2.4 2.4z" clip-path="url(#a)" fill="#fff" stroke="#fff"/>
<g clip-path="url(#a)">
<g transform="translate(240.53 710.67) rotate(90) scale(.08 -.08)">
<use xlink:href="#l"/>
<use x="44.083984" xlink:href="#e"/>
<use x="105.607422" xlink:href="#j"/>
<use x="144.970703" xlink:href="#k"/>
<use x="242.382812" xlink:href="#h"/>
<use x="270.166016" xlink:href="#d"/>
<use x="333.544922" xlink:href="#g"/>
<use x="394.824219" xlink:href="#i"/>
</g>
</g>
<path d="m269.11 710.67v33.808q0 2.4 2.4 2.4h7.7425q2.4 0 2.4-2.4v-33.808q0-2.4-2.4-2.4h-7.7425q-2.4 0-2.4 2.4z" clip-path="url(#a)" fill="#fff" stroke="#fff"/>
<g clip-path="url(#a)">
<g transform="translate(273.17 710.67) rotate(90) scale(.08 -.08)">
<use xlink:href="#l"/>
<use x="44.083984" xlink:href="#e"/>
<use x="105.607422" xlink:href="#j"/>
<use x="144.970703" xlink:href="#k"/>
<use x="242.382812" xlink:href="#h"/>
<use x="270.166016" xlink:href="#d"/>
<use x="333.544922" xlink:href="#g"/>
<use x="394.824219" xlink:href="#i"/>
</g>
</g>
<path d="m103.59 607.19 0.64525-5.5489q0.27722-2.3839-2.1067-2.6612l-7.6907-0.89432q-2.3839-0.27722-2.6612 2.1067l-0.64525 5.5489q-0.27722 2.3839 2.1067 2.6612l7.6907 0.89432q2.3839 0.27722 2.6612-2.1067z" clip-path="url(#a)" fill="#fff" stroke="#fff"/>
<g clip-path="url(#a)">
<g transform="translate(99.555 606.72) rotate(-83.367) scale(.08 -.08)">
<use xlink:href="#o"/>
</g>
</g>
<path d="m110.73 606.73 0.043497-5.9848q0.017442-2.3999-2.3825-2.4174l-7.7423-0.05627q-2.3999-0.017442-2.4174 2.3825l-0.043497 5.9848q-0.017443 2.3999 2.3825 2.4174l7.7423 0.05627q2.3999 0.017443 2.4174-2.3825z" clip-path="url(#a)" fill="#fff" stroke="#fff"/>
<g clip-path="url(#a)">
<g transform="translate(106.67 606.7) rotate(-89.584) scale(.08 -.08)">
<use xlink:href="#ag"/>
</g>
</g>
<path d="m106.08 601.69 0.68499 5.5441q0.29429 2.3819 2.6762 2.0876l7.6841-0.94939q2.3819-0.29429 2.0876-2.6762l-0.68499-5.5441q-0.29429-2.3819-2.6762-2.0876l-7.6841 0.94939q-2.3819 0.29429-2.0876 2.6762z" clip-path="url(#a)" fill="#fff" stroke="#fff"/>
<g clip-path="url(#a)">
<g transform="translate(110.11 601.19) rotate(82.957) scale(.08 -.08)">
<use xlink:href="#o"/>
</g>
</g>
<path d="m133.12 710.67v33.808q0 2.4 2.4 2.4h7.7425q2.4 0 2.4-2.4v-33.808q0-2.4-2.4-2.4h-7.7425q-2.4 0-2.4 2.4z" clip-path="url(#a)" fill="#fff" stroke="#fff"/>
<g clip-path="url(#a)">
<g transform="translate(137.18 710.67) rotate(90) scale(.08 -.08)">
<use xlink:href="#l"/>
<use x="44.083984" xlink:href="#e"/>
<use x="105.607422" xlink:href="#j"/>
<use x="144.970703" xlink:href="#k"/>
<use x="242.382812" xlink:href="#h"/>
<use x="270.166016" xlink:href="#d"/>
<use x="333.544922" xlink:href="#g"/>
<use x="394.824219" xlink:href="#i"/>
</g>
</g>
<path d="m84.161 710.67v33.808q0 2.4 2.4 2.4h7.7425q2.4 0 2.4-2.4v-33.808q0-2.4-2.4-2.4h-7.7425q-2.4 0-2.4 2.4z" clip-path="url(#a)" fill="#fff" stroke="#fff"/>
<g clip-path="url(#a)">
<g transform="translate(88.225 710.67) rotate(90) scale(.08 -.08)">
<use xlink:href="#l"/>
<use x="44.083984" xlink:href="#e"/>
<use x="105.607422" xlink:href="#j"/>
<use x="144.970703" xlink:href="#k"/>
<use x="242.382812" xlink:href="#h"/>
<use x="270.166016" xlink:href="#d"/>
<use x="333.544922" xlink:href="#g"/>
<use x="394.824219" xlink:href="#i"/>
</g>
</g>
<path d="m97.76 710.67v33.808q0 2.4 2.4 2.4h7.7425q2.4 0 2.4-2.4v-33.808q0-2.4-2.4-2.4h-7.7425q-2.4 0-2.4 2.4z" clip-path="url(#a)" fill="#fff" stroke="#fff"/>
<g clip-path="url(#a)">
<g transform="translate(101.82 710.67) rotate(90) scale(.08 -.08)">
<use xlink:href="#l"/>
<use x="44.083984" xlink:href="#e"/>
<use x="105.607422" xlink:href="#j"/>
<use x="144.970703" xlink:href="#k"/>
<use x="242.382812" xlink:href="#h"/>
<use x="270.166016" xlink:href="#d"/>
<use x="333.544922" xlink:href="#g"/>
<use x="394.824219" xlink:href="#i"/>
</g>
</g>
<path d="m114.08 710.67v33.808q0 2.4 2.4 2.4h7.7425q2.4 0 2.4-2.4v-33.808q0-2.4-2.4-2.4h-7.7425q-2.4 0-2.4 2.4z" clip-path="url(#a)" fill="#fff" stroke="#fff"/>
<g clip-path="url(#a)">
<g transform="translate(118.14 710.67) rotate(90) scale(.08 -.08)">
<use xlink:href="#l"/>
<use x="44.083984" xlink:href="#e"/>
<use x="105.607422" xlink:href="#j"/>
<use x="144.970703" xlink:href="#k"/>
<use x="242.382812" xlink:href="#h"/>
<use x="270.166016" xlink:href="#d"/>
<use x="333.544922" xlink:href="#g"/>
<use x="394.824219" xlink:href="#i"/>
</g>
</g>
<path d="m179.35 710.67v33.808q0 2.4 2.4 2.4h7.7425q2.4 0 2.4-2.4v-33.808q0-2.4-2.4-2.4h-7.7425q-2.4 0-2.4 2.4z" clip-path="url(#a)" fill="#fff" stroke="#fff"/>
<g clip-path="url(#a)">
<g transform="translate(183.42 710.67) rotate(90) scale(.08 -.08)">
<use xlink:href="#l"/>
<use x="44.083984" xlink:href="#e"/>
<use x="105.607422" xlink:href="#j"/>
<use x="144.970703" xlink:href="#k"/>
<use x="242.382812" xlink:href="#h"/>
<use x="270.166016" xlink:href="#d"/>
<use x="333.544922" xlink:href="#g"/>
<use x="394.824219" xlink:href="#i"/>
</g>
</g>
<path d="m426.85 710.67v33.808q0 2.4 2.4 2.4h7.7425q2.4 0 2.4-2.4v-33.808q0-2.4-2.4-2.4h-7.7425q-2.4 0-2.4 2.4z" clip-path="url(#a)" fill="#fff" stroke="#fff"/>
<g clip-path="url(#a)">
<g transform="translate(430.92 710.67) rotate(90) scale(.08 -.08)">
<use xlink:href="#l"/>
<use x="44.083984" xlink:href="#e"/>
<use x="105.607422" xlink:href="#j"/>
<use x="144.970703" xlink:href="#k"/>
<use x="242.382812" xlink:href="#h"/>
<use x="270.166016" xlink:href="#d"/>
<use x="333.544922" xlink:href="#g"/>
<use x="394.824219" xlink:href="#i"/>
</g>
</g>
<path d="m522.04 710.67v33.808q0 2.4 2.4 2.4h7.7425q2.4 0 2.4-2.4v-33.808q0-2.4-2.4-2.4h-7.7425q-2.4 0-2.4 2.4z" clip-path="url(#a)" fill="#fff" stroke="#fff"/>
<g clip-path="url(#a)">
<g transform="translate(526.11 710.67) rotate(90) scale(.08 -.08)">
<use xlink:href="#l"/>
<use x="44.083984" xlink:href="#e"/>
<use x="105.607422" xlink:href="#j"/>
<use x="144.970703" xlink:href="#k"/>
<use x="242.382812" xlink:href="#h"/>
<use x="270.166016" xlink:href="#d"/>
<use x="333.544922" xlink:href="#g"/>
<use x="394.824219" xlink:href="#i"/>
</g>
</g>
<path d="m628.11 710.67v33.808q0 2.4 2.4 2.4h7.7425q2.4 0 2.4-2.4v-33.808q0-2.4-2.4-2.4h-7.7425q-2.4 0-2.4 2.4z" clip-path="url(#a)" fill="#fff" stroke="#fff"/>
<g clip-path="url(#a)">
<g transform="translate(632.18 710.67) rotate(90) scale(.08 -.08)">
<use xlink:href="#l"/>
<use x="44.083984" xlink:href="#e"/>
<use x="105.607422" xlink:href="#j"/>
<use x="144.970703" xlink:href="#k"/>
<use x="242.382812" xlink:href="#h"/>
<use x="270.166016" xlink:href="#d"/>
<use x="333.544922" xlink:href="#g"/>
<use x="394.824219" xlink:href="#i"/>
</g>
</g>
<path d="m745.06 710.67v33.808q0 2.4 2.4 2.4h7.7425q2.4 0 2.4-2.4v-33.808q0-2.4-2.4-2.4h-7.7425q-2.4 0-2.4 2.4z" clip-path="url(#a)" fill="#fff" stroke="#fff"/>
<g clip-path="url(#a)">
<g transform="translate(749.13 710.67) rotate(90) scale(.08 -.08)">
<use xlink:href="#l"/>
<use x="44.083984" xlink:href="#e"/>
<use x="105.607422" xlink:href="#j"/>
<use x="144.970703" xlink:href="#k"/>
<use x="242.382812" xlink:href="#h"/>
<use x="270.166016" xlink:href="#d"/>
<use x="333.544922" xlink:href="#g"/>
<use x="394.824219" xlink:href="#i"/>
</g>
</g>
<path d="m1011.6 710.67v33.808q0 2.4 2.4 2.4h7.7425q2.4 0 2.4-2.4v-33.808q0-2.4-2.4-2.4h-7.7425q-2.4 0-2.4 2.4z" clip-path="url(#a)" fill="#fff" stroke="#fff"/>
<g clip-path="url(#a)">
<g transform="translate(1015.7 710.67) rotate(90) scale(.08 -.08)">
<use xlink:href="#l"/>
<use x="44.083984" xlink:href="#e"/>
<use x="105.607422" xlink:href="#j"/>
<use x="144.970703" xlink:href="#k"/>
<use x="242.382812" xlink:href="#h"/>
<use x="270.166016" xlink:href="#d"/>
<use x="333.544922" xlink:href="#g"/>
<use x="394.824219" xlink:href="#i"/>
</g>
</g>
<path d="m1493 710.67v33.808q0 2.4 2.4 2.4h7.7425q2.4 0 2.4-2.4v-33.808q0-2.4-2.4-2.4h-7.7425q-2.4 0-2.4 2.4z" clip-path="url(#a)" fill="#fff" stroke="#fff"/>
<g clip-path="url(#a)">
<g transform="translate(1497.1 710.67) rotate(90) scale(.08 -.08)">
<use xlink:href="#l"/>
<use x="44.083984" xlink:href="#e"/>
<use x="105.607422" xlink:href="#j"/>
<use x="144.970703" xlink:href="#k"/>
<use x="242.382812" xlink:href="#h"/>
<use x="270.166016" xlink:href="#d"/>
<use x="333.544922" xlink:href="#g"/>
<use x="394.824219" xlink:href="#i"/>
</g>
</g>
<defs>
<path id="b" d="m0 8.6603c2.2967 0 4.4997-0.9125 6.1237-2.5365 1.624-1.624 2.5365-3.827 2.5365-6.1237s-0.9125-4.4997-2.5365-6.1237c-1.624-1.624-3.827-2.5365-6.1237-2.5365s-4.4997 0.9125-6.1237 2.5365c-1.624 1.624-2.5365 3.827-2.5365 6.1237s0.9125 4.4997 2.5365 6.1237c1.624 1.624 3.827 2.5365 6.1237 2.5365z"/>
</defs>
<g clip-path="url(#a)">
<use x="71.393939" y="789.090909" fill="#ffffff" stroke="#ffffff" xlink:href="#b"/>
</g>
<g clip-path="url(#a)">
<use x="79.553247" y="789.090909" fill="#ffffff" stroke="#ffffff" xlink:href="#b"/>
</g>
<g clip-path="url(#a)">
<use x="90.432323" y="789.090909" fill="#ffffff" stroke="#ffffff" xlink:href="#b"/>
</g>
<g clip-path="url(#a)">
<use x="104.031169" y="789.090909" fill="#ffffff" stroke="#ffffff" xlink:href="#b"/>
</g>
<g clip-path="url(#a)">
<use x="120.349784" y="789.090909" fill="#ffffff" stroke="#ffffff" xlink:href="#b"/>
</g>
<g clip-path="url(#a)">
<use x="139.388167" y="789.090909" fill="#ffffff" stroke="#ffffff" xlink:href="#b"/>
</g>
<g clip-path="url(#a)">
<use x="161.14632" y="789.090909" fill="#ffffff" stroke="#ffffff" xlink:href="#b"/>
</g>
<g clip-path="url(#a)">
<use x="185.624242" y="789.090909" fill="#ffffff" stroke="#ffffff" xlink:href="#b"/>
</g>
<g clip-path="url(#a)">
<use x="212.821934" y="789.090909" fill="#ffffff" stroke="#ffffff" xlink:href="#b"/>
</g>
<g clip-path="url(#a)">
<use x="242.739394" y="789.090909" fill="#ffffff" stroke="#ffffff" xlink:href="#b"/>
</g>
<g clip-path="url(#a)">
<use x="275.376623" y="789.090909" fill="#ffffff" stroke="#ffffff" xlink:href="#b"/>
</g>
<g clip-path="url(#a)">
<use x="310.733622" y="789.090909" fill="#ffffff" stroke="#ffffff" xlink:href="#b"/>
</g>
<g clip-path="url(#a)">
<use x="348.81039" y="789.090909" fill="#ffffff" stroke="#ffffff" xlink:href="#b"/>
</g>
<g clip-path="url(#a)">
<use x="389.606926" y="789.090909" fill="#ffffff" stroke="#ffffff" xlink:href="#b"/>
</g>
<g clip-path="url(#a)">
<use x="433.123232" y="789.090909" fill="#ffffff" stroke="#ffffff" xlink:href="#b"/>
</g>
<g clip-path="url(#a)">
<use x="479.359307" y="789.090909" fill="#ffffff" stroke="#ffffff" xlink:href="#b"/>
</g>
<g clip-path="url(#a)">
<use x="528.315152" y="789.090909" fill="#ffffff" stroke="#ffffff" xlink:href="#b"/>
</g>
<g clip-path="url(#a)">
<use x="579.990765" y="789.090909" fill="#ffffff" stroke="#ffffff" xlink:href="#b"/>
</g>
<g clip-path="url(#a)">
<use x="634.386147" y="789.090909" fill="#ffffff" stroke="#ffffff" xlink:href="#b"/>
</g>
<g clip-path="url(#a)">
<use x="691.501299" y="789.090909" fill="#ffffff" stroke="#ffffff" xlink:href="#b"/>
</g>
<g clip-path="url(#a)">
<use x="751.336219" y="789.090909" fill="#ffffff" stroke="#ffffff" xlink:href="#b"/>
</g>
<g clip-path="url(#a)">
<use x="813.890909" y="789.090909" fill="#ffffff" stroke="#ffffff" xlink:href="#b"/>
</g>
<g clip-path="url(#a)">
<use x="879.165368" y="789.090909" fill="#ffffff" stroke="#ffffff" xlink:href="#b"/>
</g>
<g clip-path="url(#a)">
<use x="947.159596" y="789.090909" fill="#ffffff" stroke="#ffffff" xlink:href="#b"/>
</g>
<g clip-path="url(#a)">
<use x="1017.873593" y="789.090909" fill="#ffffff" stroke="#ffffff" xlink:href="#b"/>
</g>
<g clip-path="url(#a)">
<use x="1091.307359" y="789.090909" fill="#ffffff" stroke="#ffffff" xlink:href="#b"/>
</g>
<g clip-path="url(#a)">
<use x="1167.460895" y="789.090909" fill="#ffffff" stroke="#ffffff" xlink:href="#b"/>
</g>
<g clip-path="url(#a)">
<use x="1246.334199" y="789.090909" fill="#ffffff" stroke="#ffffff" xlink:href="#b"/>
</g>
<g clip-path="url(#a)">
<use x="1327.927273" y="789.090909" fill="#ffffff" stroke="#ffffff" xlink:href="#b"/>
</g>
<g clip-path="url(#a)">
<use x="1412.240115" y="789.090909" fill="#ffffff" stroke="#ffffff" xlink:href="#b"/>
</g>
<g clip-path="url(#a)">
<use x="1499.272727" y="789.090909" fill="#ffffff" stroke="#ffffff" xlink:href="#b"/>
</g>
<g clip-path="url(#a)">
<use x="287.672246" y="37.575758" fill="#ffffff" stroke="#ffffff" xlink:href="#b"/>
</g>
<g clip-path="url(#a)">
<use x="287.672246" y="163.969054" fill="#ffffff" stroke="#ffffff" xlink:href="#b"/>
</g>
<g clip-path="url(#a)">
<use x="71.393939" y="666.062622" fill="#ffffff" stroke="#ffffff" xlink:href="#b"/>
</g>
<g clip-path="url(#a)">
<use x="79.553247" y="666.062622" fill="#ffffff" stroke="#ffffff" xlink:href="#b"/>
</g>
<g clip-path="url(#a)">
<use x="122.162963" y="415.928881" fill="#ffffff" stroke="#ffffff" xlink:href="#b"/>
</g>
<g clip-path="url(#a)">
<use x="161.14632" y="666.062622" fill="#ffffff" stroke="#ffffff" xlink:href="#b"/>
</g>
<g clip-path="url(#a)">
<use x="273.865641" y="415.928881" fill="#ffffff" stroke="#ffffff" xlink:href="#b"/>
</g>
<g clip-path="url(#a)">
<use x="974.508385" y="290.108116" fill="#ffffff" stroke="#ffffff" xlink:href="#b"/>
</g>
<g clip-path="url(#a)">
<use x="700.567196" y="541.322876" fill="#ffffff" stroke="#ffffff" xlink:href="#b"/>
</g>
<g clip-path="url(#a)">
<use x="1205.084367" y="415.928881" fill="#ffffff" stroke="#ffffff" xlink:href="#b"/>
</g>
<g clip-path="url(#a)">
<use x="1208.257431" y="541.322876" fill="#ffffff" stroke="#ffffff" xlink:href="#b"/>
</g>
<g clip-path="url(#a)">
<use x="1412.240115" y="666.062622" fill="#ffffff" stroke="#ffffff" xlink:href="#b"/>
</g>
<g clip-path="url(#a)">
<use x="1091.307359" y="666.062622" fill="#ffffff" stroke="#ffffff" xlink:href="#b"/>
</g>
<g clip-path="url(#a)">
<use x="1167.460895" y="666.062622" fill="#ffffff" stroke="#ffffff" xlink:href="#b"/>
</g>
<g clip-path="url(#a)">
<use x="1246.334199" y="666.062622" fill="#ffffff" stroke="#ffffff" xlink:href="#b"/>
</g>
<g clip-path="url(#a)">
<use x="1327.927273" y="666.062622" fill="#ffffff" stroke="#ffffff" xlink:href="#b"/>
</g>
<g clip-path="url(#a)">
<use x="479.359307" y="666.062622" fill="#ffffff" stroke="#ffffff" xlink:href="#b"/>
</g>
<g clip-path="url(#a)">
<use x="579.990765" y="666.062622" fill="#ffffff" stroke="#ffffff" xlink:href="#b"/>
</g>
<g clip-path="url(#a)">
<use x="691.501299" y="666.062622" fill="#ffffff" stroke="#ffffff" xlink:href="#b"/>
</g>
<g clip-path="url(#a)">
<use x="813.890909" y="666.062622" fill="#ffffff" stroke="#ffffff" xlink:href="#b"/>
</g>
<g clip-path="url(#a)">
<use x="879.165368" y="666.062622" fill="#ffffff" stroke="#ffffff" xlink:href="#b"/>
</g>
<g clip-path="url(#a)">
<use x="947.159596" y="666.062622" fill="#ffffff" stroke="#ffffff" xlink:href="#b"/>
</g>
<g clip-path="url(#a)">
<use x="212.821934" y="666.062622" fill="#ffffff" stroke="#ffffff" xlink:href="#b"/>
</g>
<g clip-path="url(#a)">
<use x="259.058009" y="541.322876" fill="#ffffff" stroke="#ffffff" xlink:href="#b"/>
</g>
<g clip-path="url(#a)">
<use x="349.716979" y="541.322876" fill="#ffffff" stroke="#ffffff" xlink:href="#b"/>
</g>
<g clip-path="url(#a)">
<use x="310.733622" y="666.062622" fill="#ffffff" stroke="#ffffff" xlink:href="#b"/>
</g>
<g clip-path="url(#a)">
<use x="348.81039" y="666.062622" fill="#ffffff" stroke="#ffffff" xlink:href="#b"/>
</g>
<g clip-path="url(#a)">
<use x="389.606926" y="666.062622" fill="#ffffff" stroke="#ffffff" xlink:href="#b"/>
</g>
<g clip-path="url(#a)">
<use x="242.739394" y="666.062622" fill="#ffffff" stroke="#ffffff" xlink:href="#b"/>
</g>
<g clip-path="url(#a)">
<use x="275.376623" y="666.062622" fill="#ffffff" stroke="#ffffff" xlink:href="#b"/>
</g>
<g clip-path="url(#a)">
<use x="104.937759" y="541.322876" fill="#ffffff" stroke="#ffffff" xlink:href="#b"/>
</g>
<g clip-path="url(#a)">
<use x="139.388167" y="666.062622" fill="#ffffff" stroke="#ffffff" xlink:href="#b"/>
</g>
<g clip-path="url(#a)">
<use x="90.432323" y="666.062622" fill="#ffffff" stroke="#ffffff" xlink:href="#b"/>
</g>
<g clip-path="url(#a)">
<use x="104.031169" y="666.062622" fill="#ffffff" stroke="#ffffff" xlink:href="#b"/>
</g>
<g clip-path="url(#a)">
<use x="120.349784" y="666.062622" fill="#ffffff" stroke="#ffffff" xlink:href="#b"/>
</g>
<g clip-path="url(#a)">
<use x="185.624242" y="666.062622" fill="#ffffff" stroke="#ffffff" xlink:href="#b"/>
</g>
<g clip-path="url(#a)">
<use x="433.123232" y="666.062622" fill="#ffffff" stroke="#ffffff" xlink:href="#b"/>
</g>
<g clip-path="url(#a)">
<use x="528.315152" y="666.062622" fill="#ffffff" stroke="#ffffff" xlink:href="#b"/>
</g>
<g clip-path="url(#a)">
<use x="634.386147" y="666.062622" fill="#ffffff" stroke="#ffffff" xlink:href="#b"/>
</g>
<g clip-path="url(#a)">
<use x="751.336219" y="666.062622" fill="#ffffff" stroke="#ffffff" xlink:href="#b"/>
</g>
<g clip-path="url(#a)">
<use x="1017.873593" y="666.062622" fill="#ffffff" stroke="#ffffff" xlink:href="#b"/>
</g>
<g clip-path="url(#a)">
<use x="1499.272727" y="666.062622" fill="#ffffff" stroke="#ffffff" xlink:href="#b"/>
</g>
<g clip-path="url(#a)">
<defs>
<path id="y" d="m30.609 48.391q-7.2188 0-11.422-5.6406t-4.2031-15.453 4.1719-15.453q4.1875-5.6406 11.453-5.6406 7.1875 0 11.375 5.6562 4.2031 5.6719 4.2031 15.438 0 9.7188-4.2031 15.406-4.1875 5.6875-11.375 5.6875zm0 7.6094q11.719 0 18.406-7.625 6.7031-7.6094 6.7031-21.078 0-13.422-6.7031-21.078-6.6875-7.6406-18.406-7.6406-11.766 0-18.438 7.6406-6.6562 7.6562-6.6562 21.078 0 13.469 6.6562 21.078 6.6719 7.625 18.438 7.625z"/>
<path id="ac" d="m18.312 70.219v-15.531h18.5v-6.9844h-18.5v-29.688q0-6.6875 1.8281-8.5938t7.4531-1.9062h9.2188v-7.5156h-9.2188q-10.406 0-14.359 3.875-3.9531 3.8906-3.9531 14.141v29.688h-6.5938v6.9844h6.5938v15.531z"/>
</defs>
<g transform="translate(60.469 791.85) scale(.1 -.1)">
<use xlink:href="#an"/>
<use x="77.001953" xlink:href="#y"/>
<use x="138.183594" xlink:href="#j"/>
<use x="179.296875" xlink:href="#ac"/>
</g>
</g>
<g clip-path="url(#a)">
<defs>
<path id="ap" d="m45.406 27.984q0 9.7656-4.0312 15.125-4.0156 5.375-11.297 5.375-7.2188 0-11.25-5.375-4.0312-5.3594-4.0312-15.125 0-9.7188 4.0312-15.094t11.25-5.375q7.2812 0 11.297 5.375 4.0312 5.375 4.0312 15.094zm8.9844-21.203q0-13.953-6.2031-20.766-6.1875-6.8125-18.984-6.8125-4.7344 0-8.9375 0.70312t-8.1562 2.1719v8.7344q3.9531-2.1406 7.8125-3.1562 3.8594-1.0312 7.8594-1.0312 8.8438 0 13.234 4.6094t4.3906 13.938v4.4531q-2.7812-4.8438-7.125-7.2344t-10.406-2.3906q-10.047 0-16.203 7.6562-6.1562 7.6719-6.1562 20.328 0 12.688 6.1562 20.344 6.1562 7.6719 16.203 7.6719 6.0625 0 10.406-2.3906t7.125-7.2188v8.2969h8.9844z"/>
</defs>
<g transform="translate(65.681 791.85) scale(.1 -.1)">
<use xlink:href="#i"/>
<use x="27.783203" xlink:href="#g"/>
<use x="89.0625" xlink:href="#ap"/>
<use x="152.539062" xlink:href="#e"/>
<use x="214.0625" xlink:href="#d"/>
</g>
</g>
<g clip-path="url(#a)">
<defs>
<path id="n" d="m40.578 39.312q7.0781-1.5156 11.047-6.3125 3.9844-4.7812 3.9844-11.812 0-10.781-7.4219-16.703-7.4219-5.9062-21.094-5.9062-4.5781 0-9.4375 0.90625t-10.031 2.7188v9.5156q4.0938-2.3906 8.9688-3.6094 4.8906-1.2188 10.219-1.2188 9.2656 0 14.125 3.6562t4.8594 10.641q0 6.4531-4.5156 10.078-4.5156 3.6406-12.562 3.6406h-8.5v8.1094h8.8906q7.2656 0 11.125 2.9062t3.8594 8.375q0 5.6094-3.9844 8.6094-3.9688 3.0156-11.391 3.0156-4.0625 0-8.7031-0.89062-4.6406-0.875-10.203-2.7188v8.7812q5.625 1.5625 10.531 2.3438t9.25 0.78125q11.234 0 17.766-5.1094 6.5469-5.0938 6.5469-13.781 0-6.0625-3.4688-10.234t-9.8594-5.7812z"/>
</defs>
<g transform="translate(87.251 791.85) scale(.1 -.1)">
<use xlink:href="#n"/>
</g>
</g>
<g clip-path="url(#a)">
<defs>
<path id="al" d="m48.688 27.297q0 9.9062-4.0781 15.547t-11.203 5.6406q-7.1406 0-11.219-5.6406t-4.0781-15.547 4.0781-15.547 11.219-5.6406q7.125 0 11.203 5.6406t4.0781 15.547zm-30.578 19.094q2.8438 4.875 7.1562 7.2344 4.3281 2.375 10.328 2.375 9.9688 0 16.188-7.9062 6.2344-7.9062 6.2344-20.797t-6.2344-20.812q-6.2188-7.9062-16.188-7.9062-6 0-10.328 2.375-4.3125 2.375-7.1562 7.25v-8.2031h-9.0312v75.984h9.0312z"/>
<path id="t" d="m44.281 53.078v-8.5q-3.7969 1.9531-7.9062 2.9219-4.0938 0.98438-8.5 0.98438-6.6875 0-10.031-2.0469t-3.3438-6.1562q0-3.125 2.3906-4.9062t9.625-3.3906l3.0781-0.6875q9.5625-2.0469 13.594-5.7812t4.0312-10.422q0-7.625-6.0312-12.078-6.0312-4.4375-16.578-4.4375-4.3906 0-9.1562 0.85938t-10.031 2.5625v9.2812q4.9844-2.5938 9.8125-3.8906 4.8281-1.2812 9.5781-1.2812 6.3438 0 9.75 2.1719 3.4219 2.1719 3.4219 6.125 0 3.6562-2.4688 5.6094-2.4531 1.9531-10.812 3.7656l-3.125 0.73438q-8.3438 1.75-12.062 5.3906-3.7031 3.6406-3.7031 9.9844 0 7.7188 5.4688 11.906 5.4688 4.2031 15.531 4.2031 4.9688 0 9.3594-0.73438 4.4062-0.71875 8.1094-2.1875z"/>
</defs>
<g transform="translate(96.863 791.85) scale(.1 -.1)">
<use xlink:href="#al"/>
<use x="63.476562" xlink:href="#h"/>
<use x="91.259766" xlink:href="#t"/>
</g>
</g>
<g clip-path="url(#a)">
<defs>
<path id="m" d="m37.797 64.312-24.906-38.922h24.906zm-2.5938 8.5938h12.406v-47.516h10.406v-8.2031h-10.406v-17.188h-9.8125v17.188h-32.906v9.5156z"/>
</defs>
<g transform="translate(117.17 791.85) scale(.1 -.1)">
<use xlink:href="#m"/>
</g>
</g>
<g clip-path="url(#a)">
<defs>
<path id="ah" d="m9.8125 72.906h9.8594v-30.812l32.719 30.812h12.703l-36.188-33.984 38.766-38.922h-12.984l-35.016 35.109v-35.109h-9.8594z"/>
<path id="ad" d="m37.109 75.984v-7.4844h-8.5938q-4.8281 0-6.7188-1.9531-1.875-1.9531-1.875-7.0312v-4.8281h14.797v-6.9844h-14.797v-47.703h-9.0312v47.703h-8.5938v6.9844h8.5938v3.8125q0 9.125 4.25 13.297 4.25 4.1875 13.469 4.1875z"/>
</defs>
<g transform="translate(122.89 791.85) scale(.1 -.1)">
<use xlink:href="#ah"/>
<use x="65.576172" xlink:href="#i"/>
<use x="93.359375" xlink:href="#g"/>
<use x="154.638672" xlink:href="#ad"/>
<use x="188.09375" xlink:href="#ac"/>
<use x="227.302734" xlink:href="#e"/>
<use x="288.826172" xlink:href="#j"/>
</g>
</g>
<g clip-path="url(#a)">
<g transform="translate(152.96 791.85) scale(.1 -.1)">
<use xlink:href="#ac"/>
<use x="39.208984" xlink:href="#h"/>
<use x="66.992188" xlink:href="#e"/>
<use x="128.515625" xlink:href="#ad"/>
</g>
</g>
<g clip-path="url(#a)">
<defs>
<path id="s" d="m11.719 12.406h10.297v-8.4062l-8-15.625h-6.2969l4 15.625z"/>
</defs>
<g transform="translate(184.04 791.85) scale(.1 -.1)">
<use xlink:href="#s"/>
</g>
</g>
<g clip-path="url(#a)">
<defs>
<path id="aw" d="m5.5156 54.688h42.672v-8.2031l-33.781-39.312h33.781v-7.1719h-43.891v8.2031l33.797 39.312h-32.578z"/>
<path id="ax" d="m4.2031 54.688h8.9844l11.234-42.672 11.172 42.672h10.594l11.234-42.672 11.188 42.672h8.9844l-14.312-54.688h-10.594l-11.766 44.828-11.812-44.828h-10.609z"/>
<path id="ae" d="m48.781 52.594v-8.4062q-3.8125 2.1094-7.6406 3.1562t-7.7344 1.0469q-8.75 0-13.594-5.5469-4.8281-5.5312-4.8281-15.547t4.8281-15.562q4.8438-5.5312 13.594-5.5312 3.9062 0 7.7344 1.0469t7.6406 3.1562v-8.3125q-3.7656-1.75-7.7969-2.625-4.0156-0.89062-8.5625-0.89062-12.359 0-19.641 7.7656-7.2656 7.7656-7.2656 20.953 0 13.375 7.3438 21.031 7.3594 7.6719 20.156 7.6719 4.1406 0 8.0938-0.85938 3.9531-0.84375 7.6719-2.5469z"/>
<path id="az" d="m54.891 33.016v-33.016h-8.9844v32.719q0 7.7656-3.0312 11.609-3.0312 3.8594-9.0781 3.8594-7.2812 0-11.484-4.6406-4.2031-4.625-4.2031-12.641v-30.906h-9.0312v75.984h9.0312v-29.797q3.2344 4.9375 7.5938 7.375 4.375 2.4375 10.094 2.4375 9.4219 0 14.25-5.8281 4.8438-5.8281 4.8438-17.156z"/>
</defs>
<g transform="translate(189.95 791.85) scale(.1 -.1)">
<use xlink:href="#aw"/>
<use x="52.490234" xlink:href="#ax"/>
<use x="134.277344" xlink:href="#h"/>
<use x="162.060547" xlink:href="#t"/>
<use x="214.160156" xlink:href="#ae"/>
<use x="269.140625" xlink:href="#az"/>
<use x="332.519531" xlink:href="#e"/>
<use x="394.042969" xlink:href="#d"/>
</g>
</g>
<g clip-path="url(#a)">
<defs>
<path id="ak" d="m45.406 46.391v29.594h8.9844v-75.984h-8.9844v8.2031q-2.8281-4.875-7.1562-7.25-4.3125-2.375-10.375-2.375-9.9062 0-16.141 7.9062-6.2188 7.9219-6.2188 20.812t6.2188 20.797q6.2344 7.9062 16.141 7.9062 6.0625 0 10.375-2.375 4.3281-2.3594 7.1562-7.2344zm-30.609-19.094q0-9.9062 4.0781-15.547t11.203-5.6406 11.219 5.6406q4.1094 5.6406 4.1094 15.547t-4.1094 15.547q-4.0938 5.6406-11.219 5.6406t-11.203-5.6406-4.0781-15.547z"/>
</defs>
<g transform="translate(233.32 791.85) scale(.1 -.1)">
<use xlink:href="#ak"/>
<use x="63.476562" xlink:href="#e"/>
<use x="125" xlink:href="#d"/>
</g>
</g>
<g clip-path="url(#a)">
<g transform="translate(260.75 791.85) scale(.1 -.1)">
<use xlink:href="#af"/>
<use x="69.482422" xlink:href="#h"/>
<use x="97.265625" xlink:href="#ad"/>
<use x="132.470703" xlink:href="#ad"/>
<use x="167.675781" xlink:href="#e"/>
<use x="229.199219" xlink:href="#d"/>
</g>
</g>
<g clip-path="url(#a)">
<defs>
<path id="as" d="m19.672 64.797v-27.391h12.406q6.8906 0 10.641 3.5625 3.7656 3.5625 3.7656 10.156 0 6.5469-3.7656 10.109-3.75 3.5625-10.641 3.5625zm-9.8594 8.1094h22.266q12.266 0 18.531-5.5469 6.2812-5.5469 6.2812-16.234 0-10.797-6.2812-16.312-6.2656-5.5156-18.531-5.5156h-12.406v-29.297h-9.8594z"/>
<path id="x" d="m8.5 21.578v33.109h8.9844v-32.766q0-7.7656 3.0156-11.656 3.0312-3.875 9.0938-3.875 7.2656 0 11.484 4.6406 4.2344 4.6406 4.2344 12.656v31h8.9844v-54.688h-8.9844v8.4062q-3.2656-4.9844-7.5938-7.4062-4.3125-2.4219-10.031-2.4219-9.4219 0-14.312 5.8594-4.875 5.8594-4.875 17.141z"/>
</defs>
<g transform="translate(295.9 791.85) scale(.1 -.1)">
<use xlink:href="#as"/>
<use x="55.802734" xlink:href="#g"/>
<use x="117.082031" xlink:href="#ae"/>
<use x="172.0625" xlink:href="#y"/>
<use x="233.244141" xlink:href="#x"/>
</g>
</g>
<g clip-path="url(#a)">
<g transform="translate(339.3 791.85) scale(.1 -.1)">
<use xlink:href="#x"/>
<use x="63.378906" xlink:href="#d"/>
<use x="126.757812" xlink:href="#ak"/>
</g>
</g>
<g clip-path="url(#a)">
<defs>
<path id="aq" d="m28.609 0-27.828 72.906h10.297l23.109-61.375 23.141 61.375h10.25l-27.781-72.906z"/>
</defs>
<g transform="translate(374.11 791.85) scale(.1 -.1)">
<use xlink:href="#aq"/>
<use x="60.658203" xlink:href="#g"/>
<use x="121.9375" xlink:href="#d"/>
<use x="185.316406" xlink:href="#y"/>
<use x="246.498047" xlink:href="#x"/>
</g>
</g>
<g clip-path="url(#a)">
<g transform="translate(431.53 791.85) scale(.1 -.1)">
<use xlink:href="#s"/>
</g>
</g>
<g clip-path="url(#a)">
<defs>
<path id="aj" d="m9.0781 75.984h9.0312v-44.875l26.812 23.578h11.469l-29-25.578 30.234-29.109h-11.719l-27.797 26.703v-26.703h-9.0312z"/>
</defs>
<g transform="translate(464.92 791.85) scale(.1 -.1)">
<use xlink:href="#r"/>
<use x="68.408203" xlink:href="#d"/>
<use x="131.787109" xlink:href="#aj"/>
<use x="186.072266" xlink:href="#e"/>
<use x="247.595703" xlink:href="#j"/>
</g>
</g>
<g clip-path="url(#a)">
<g transform="translate(526.73 791.85) scale(.1 -.1)">
<use xlink:href="#s"/>
</g>
</g>
<g clip-path="url(#a)">
<g transform="translate(558.09 791.85) scale(.1 -.1)">
<use xlink:href="#ah"/>
<use x="63.826172" xlink:href="#g"/>
<use x="125.105469" xlink:href="#d"/>
<use x="188.484375" xlink:href="#y"/>
<use x="249.666016" xlink:href="#d"/>
<use x="313.044922" xlink:href="#e"/>
<use x="374.568359" xlink:href="#d"/>
</g>
</g>
<g clip-path="url(#a)">
<g transform="translate(632.8 791.85) scale(.1 -.1)">
<use xlink:href="#s"/>
</g>
</g>
<g clip-path="url(#a)">
<defs>
<path id="ao" d="m19.672 34.812v-26.703h15.828q7.9531 0 11.781 3.2969 3.8438 3.2969 3.8438 10.078 0 6.8438-3.8438 10.078-3.8281 3.25-11.781 3.25zm0 29.984v-21.969h14.609q7.2188 0 10.75 2.7031 3.5469 2.7188 3.5469 8.2812 0 5.5156-3.5469 8.25-3.5312 2.7344-10.75 2.7344zm-9.8594 8.1094h25.203q11.281 0 17.375-4.6875 6.1094-4.6875 6.1094-13.328 0-6.7031-3.125-10.656t-9.1875-4.9219q7.2812-1.5625 11.312-6.5312 4.0312-4.9531 4.0312-12.375 0-9.7656-6.6406-15.094-6.6406-5.3125-18.906-5.3125h-26.172z"/>
<path id="av" d="m30.609 48.391q-7.2188 0-11.422-5.6406t-4.2031-15.453 4.1719-15.453q4.1875-5.6406 11.453-5.6406 7.1875 0 11.375 5.6562 4.2031 5.6719 4.2031 15.438 0 9.7188-4.2031 15.406-4.1875 5.6875-11.375 5.6875zm0 7.6094q11.719 0 18.406-7.625 6.7031-7.6094 6.7031-21.078 0-13.422-6.7031-21.078-6.6875-7.6406-18.406-7.6406-11.766 0-18.438 7.6406-6.6562 7.6562-6.6562 21.078 0 13.469 6.6562 21.078 6.6719 7.625 18.438 7.625zm4.6094 19.781h9.9062v-9.8594h-9.9062zm-19.094 0h9.9062v-9.8594h-9.9062z"/>
</defs>
<g transform="translate(675.08 791.85) scale(.1 -.1)">
<use xlink:href="#ao"/>
<use x="68.603516" xlink:href="#i"/>
<use x="96.386719" xlink:href="#av"/>
<use x="157.568359" xlink:href="#ae"/>
<use x="212.548828" xlink:href="#aj"/>
<use x="266.833984" xlink:href="#e"/>
</g>
</g>
<g clip-path="url(#a)">
<g transform="translate(749.75 791.85) scale(.1 -.1)">
<use xlink:href="#s"/>
</g>
</g>
<g clip-path="url(#a)">
<g transform="translate(800.49 791.85) scale(.1 -.1)">
<use xlink:href="#u"/>
<use x="63.183594" xlink:href="#h"/>
<use x="90.966797" xlink:href="#t"/>
<use x="143.066406" xlink:href="#e"/>
<use x="204.589844" xlink:href="#d"/>
</g>
</g>
<g clip-path="url(#a)">
<g transform="translate(869.65 791.85) scale(.1 -.1)">
<use xlink:href="#x"/>
<use x="63.378906" xlink:href="#d"/>
<use x="126.757812" xlink:href="#ak"/>
</g>
</g>
<g clip-path="url(#a)">
<g transform="translate(937.87 791.85) scale(.1 -.1)">
<use xlink:href="#ao"/>
<use x="68.603516" xlink:href="#i"/>
<use x="96.386719" xlink:href="#e"/>
<use x="157.910156" xlink:href="#h"/>
</g>
</g>
<g clip-path="url(#a)">
<g transform="translate(1016.3 791.85) scale(.1 -.1)">
<use xlink:href="#s"/>
</g>
</g>
<g clip-path="url(#a)">
<defs>
<path id="ay" d="m2.9844 54.688h9.5156l17.094-45.891 17.094 45.891h9.5156l-20.516-54.688h-12.203z"/>
</defs>
<g transform="translate(1082.1 791.85) scale(.1 -.1)">
<use xlink:href="#ay"/>
<use x="59.179688" xlink:href="#y"/>
<use x="120.361328" xlink:href="#d"/>
</g>
</g>
<g clip-path="url(#a)">
<g transform="translate(1156.9 791.85) scale(.1 -.1)">
<use xlink:href="#ah"/>
<use x="63.826172" xlink:href="#g"/>
<use x="125.105469" xlink:href="#i"/>
<use x="152.888672" xlink:href="#aj"/>
</g>
</g>
<g clip-path="url(#a)">
<g transform="translate(1234.1 791.85) scale(.1 -.1)">
<use xlink:href="#t"/>
<use x="52.099609" xlink:href="#ac"/>
<use x="91.308594" xlink:href="#e"/>
<use x="152.832031" xlink:href="#h"/>
<use x="180.615234" xlink:href="#d"/>
</g>
</g>
<g clip-path="url(#a)">
<g transform="translate(1311.7 791.85) scale(.1 -.1)">
<use xlink:href="#k"/>
<use x="97.412109" xlink:href="#g"/>
<use x="158.691406" xlink:href="#t"/>
<use x="210.791016" xlink:href="#t"/>
<use x="262.890625" xlink:href="#e"/>
</g>
</g>
<g clip-path="url(#a)">
<g transform="translate(1388.5 791.85) scale(.1 -.1)">
<use xlink:href="#x"/>
<use x="63.378906" xlink:href="#k"/>
<use x="160.791016" xlink:href="#ap"/>
<use x="224.267578" xlink:href="#e"/>
<use x="285.791016" xlink:href="#al"/>
<use x="349.267578" xlink:href="#e"/>
<use x="410.791016" xlink:href="#d"/>
</g>
</g>
<g clip-path="url(#a)">
<defs>
<path id="f" d="m10.688 12.406h10.312v-12.406h-10.312z"/>
</defs>
<g transform="translate(1497.7 791.85) scale(.1 -.1)">
<use xlink:href="#f"/>
</g>
</g>
<g clip-path="url(#a)">
<defs>
<path id="c" d="m12.406 8.2969h16.109v55.625l-17.531-3.5156v8.9844l17.438 3.5156h9.8594v-64.609h16.109v-8.2969h-41.984z"/>
</defs>
<g transform="translate(279.72 40.335) scale(.1 -.1)">
<use xlink:href="#c"/>
<use x="63.623047" xlink:href="#f"/>
<use x="95.410156" xlink:href="#c"/>
</g>
</g>
<g clip-path="url(#a)">
<defs>
<path id="p" d="m19.188 8.2969h34.422v-8.2969h-46.281v8.2969q5.6094 5.8125 15.297 15.594 9.7031 9.7969 12.188 12.641 4.7344 5.3125 6.6094 9 1.8906 3.6875 1.8906 7.25 0 5.8125-4.0781 9.4688-4.0781 3.6719-10.625 3.6719-4.6406 0-9.7969-1.6094-5.1406-1.6094-11-4.8906v9.9688q5.9531 2.3906 11.125 3.6094 5.1875 1.2188 9.4844 1.2188 11.328 0 18.062-5.6719 6.7344-5.6562 6.7344-15.125 0-4.5-1.6875-8.5312-1.6719-4.0156-6.125-9.4844-1.2188-1.4219-7.7656-8.1875-6.5312-6.7656-18.453-18.922z"/>
</defs>
<g transform="translate(279.72 166.73) scale(.1 -.1)">
<use xlink:href="#c"/>
<use x="63.623047" xlink:href="#f"/>
<use x="95.410156" xlink:href="#p"/>
</g>
</g>
<g clip-path="url(#a)">
<g transform="translate(63.442 668.82) scale(.1 -.1)">
<use xlink:href="#c"/>
<use x="63.623047" xlink:href="#f"/>
<use x="95.410156" xlink:href="#m"/>
</g>
</g>
<g clip-path="url(#a)">
<defs>
<path id="w" d="m10.797 72.906h38.719v-8.3125h-29.688v-17.859q2.1406 0.73438 4.2812 1.0938 2.1562 0.35938 4.3125 0.35938 12.203 0 19.328-6.6875 7.1406-6.6875 7.1406-18.109 0-11.766-7.3281-18.297-7.3281-6.5156-20.656-6.5156-4.5938 0-9.3594 0.78125-4.75 0.78125-9.8281 2.3438v9.9219q4.3906-2.3906 9.0781-3.5625t9.9062-1.1719q8.4531 0 13.375 4.4375 4.9375 4.4375 4.9375 12.062 0 7.6094-4.9375 12.047-4.9219 4.4531-13.375 4.4531-3.9531 0-7.8906-0.875-3.9219-0.875-8.0156-2.7344z"/>
</defs>
<g transform="translate(71.602 668.82) scale(.1 -.1)">
<use xlink:href="#c"/>
<use x="63.623047" xlink:href="#f"/>
<use x="95.410156" xlink:href="#w"/>
</g>
</g>
<g clip-path="url(#a)">
<defs>
<path id="v" d="m33.016 40.375q-6.6406 0-10.531-4.5469-3.875-4.5312-3.875-12.438 0-7.8594 3.875-12.438 3.8906-4.5625 10.531-4.5625t10.516 4.5625q3.875 4.5781 3.875 12.438 0 7.9062-3.875 12.438-3.875 4.5469-10.516 4.5469zm19.578 30.922v-8.9844q-3.7188 1.75-7.5 2.6719-3.7812 0.9375-7.5 0.9375-9.7656 0-14.922-6.5938-5.1406-6.5938-5.875-19.922 2.875 4.25 7.2188 6.5156 4.3594 2.2656 9.5781 2.2656 10.984 0 17.359-6.6719 6.375-6.6562 6.375-18.125 0-11.234-6.6406-18.031-6.6406-6.7812-17.672-6.7812-12.656 0-19.344 9.6875-6.6875 9.7031-6.6875 28.109 0 17.281 8.2031 27.562t22.016 10.281q3.7188 0 7.5-0.73438t7.8906-2.1875z"/>
</defs>
<g transform="translate(114.21 418.69) scale(.1 -.1)">
<use xlink:href="#c"/>
<use x="63.623047" xlink:href="#f"/>
<use x="95.410156" xlink:href="#v"/>
</g>
</g>
<g clip-path="url(#a)">
<defs>
<path id="ab" d="m8.2031 72.906h46.875v-4.2031l-26.469-68.703h-10.297l24.906 64.594h-35.016z"/>
</defs>
<g transform="translate(153.19 668.82) scale(.1 -.1)">
<use xlink:href="#c"/>
<use x="63.623047" xlink:href="#f"/>
<use x="95.410156" xlink:href="#ab"/>
</g>
</g>
<g clip-path="url(#a)">
<defs>
<path id="aa" d="m31.781 34.625q-7.0312 0-11.062-3.7656-4.0156-3.7656-4.0156-10.344 0-6.5938 4.0156-10.359 4.0312-3.7656 11.062-3.7656t11.078 3.7812q4.0625 3.7969 4.0625 10.344 0 6.5781-4.0312 10.344-4.0156 3.7656-11.109 3.7656zm-9.8594 4.1875q-6.3438 1.5625-9.8906 5.9062-3.5312 4.3594-3.5312 10.609 0 8.7344 6.2188 13.812 6.2344 5.0781 17.062 5.0781 10.891 0 17.094-5.0781t6.2031-13.812q0-6.25-3.5469-10.609-3.5312-4.3438-9.8281-5.9062 7.125-1.6562 11.094-6.5 3.9844-4.8281 3.9844-11.797 0-10.609-6.4688-16.281-6.4688-5.6562-18.531-5.6562-12.047 0-18.531 5.6562-6.4688 5.6719-6.4688 16.281 0 6.9688 4 11.797 4.0156 4.8438 11.141 6.5zm-3.6094 15.578q0-5.6562 3.5312-8.8281 3.5469-3.1719 9.9375-3.1719 6.3594 0 9.9375 3.1719 3.5938 3.1719 3.5938 8.8281 0 5.6719-3.5938 8.8438-3.5781 3.1719-9.9375 3.1719-6.3906 0-9.9375-3.1719-3.5312-3.1719-3.5312-8.8438z"/>
</defs>
<g transform="translate(265.91 418.69) scale(.1 -.1)">
<use xlink:href="#c"/>
<use x="63.623047" xlink:href="#f"/>
<use x="95.410156" xlink:href="#aa"/>
</g>
</g>
<g clip-path="url(#a)">
<defs>
<path id="z" d="m10.984 1.5156v8.9844q3.7188-1.7656 7.5156-2.6875 3.8125-0.92188 7.4844-0.92188 9.7656 0 14.906 6.5625 5.1562 6.5625 5.8906 19.953-2.8281-4.2031-7.1875-6.4531-4.3438-2.25-9.6094-2.25-10.938 0-17.312 6.6094-6.375 6.625-6.375 18.109 0 11.219 6.6406 18 6.6406 6.7969 17.672 6.7969 12.656 0 19.312-9.7031 6.6719-9.6875 6.6719-28.141 0-17.234-8.1875-27.516-8.1719-10.281-21.984-10.281-3.7188 0-7.5312 0.73438-3.7969 0.73438-7.9062 2.2031zm19.625 30.906q6.6406 0 10.516 4.5312 3.8906 4.5469 3.8906 12.469 0 7.8594-3.8906 12.422-3.875 4.5625-10.516 4.5625t-10.516-4.5625-3.875-12.422q0-7.9219 3.875-12.469 3.875-4.5312 10.516-4.5312z"/>
</defs>
<g transform="translate(966.56 292.87) scale(.1 -.1)">
<use xlink:href="#c"/>
<use x="63.623047" xlink:href="#f"/>
<use x="95.410156" xlink:href="#z"/>
</g>
</g>
<g clip-path="url(#a)">
<g transform="translate(689.43 544.08) scale(.1 -.1)">
<use xlink:href="#c"/>
<use x="63.623047" xlink:href="#f"/>
<use x="95.410156" xlink:href="#c"/>
<use x="159.033203" xlink:href="#p"/>
</g>
</g>
<g clip-path="url(#a)">
<g transform="translate(1194 418.69) scale(.1 -.1)">
<use xlink:href="#c"/>
<use x="63.623047" xlink:href="#f"/>
<use x="95.410156" xlink:href="#c"/>
<use x="159.033203" xlink:href="#n"/>
</g>
</g>
<g clip-path="url(#a)">
<g transform="translate(1197.1 544.08) scale(.1 -.1)">
<use xlink:href="#c"/>
<use x="63.623047" xlink:href="#f"/>
<use x="95.410156" xlink:href="#c"/>
<use x="159.033203" xlink:href="#w"/>
</g>
</g>
<g clip-path="url(#a)">
<g transform="translate(1401.1 668.82) scale(.1 -.1)">
<use xlink:href="#c"/>
<use x="63.623047" xlink:href="#f"/>
<use x="95.410156" xlink:href="#c"/>
<use x="159.033203" xlink:href="#v"/>
</g>
</g>
<g clip-path="url(#a)">
<g transform="translate(1080.2 668.82) scale(.1 -.1)">
<use xlink:href="#c"/>
<use x="63.623047" xlink:href="#f"/>
<use x="95.410156" xlink:href="#c"/>
<use x="159.033203" xlink:href="#ab"/>
</g>
</g>
<g clip-path="url(#a)">
<g transform="translate(1156.3 668.82) scale(.1 -.1)">
<use xlink:href="#c"/>
<use x="63.623047" xlink:href="#f"/>
<use x="95.410156" xlink:href="#c"/>
<use x="159.033203" xlink:href="#aa"/>
</g>
</g>
<g clip-path="url(#a)">
<g transform="translate(1235.2 668.82) scale(.1 -.1)">
<use xlink:href="#c"/>
<use x="63.623047" xlink:href="#f"/>
<use x="95.410156" xlink:href="#c"/>
<use x="159.033203" xlink:href="#z"/>
</g>
</g>
<g clip-path="url(#a)">
<defs>
<path id="ai" d="m31.781 66.406q-7.6094 0-11.453-7.5-3.8281-7.4844-3.8281-22.531 0-14.984 3.8281-22.484 3.8438-7.5 11.453-7.5 7.6719 0 11.5 7.5 3.8438 7.5 3.8438 22.484 0 15.047-3.8438 22.531-3.8281 7.5-11.5 7.5zm0 7.8125q12.266 0 18.734-9.7031 6.4688-9.6875 6.4688-28.141 0-18.406-6.4688-28.109-6.4688-9.6875-18.734-9.6875-12.25 0-18.719 9.6875-6.4688 9.7031-6.4688 28.109 0 18.453 6.4688 28.141 6.4688 9.7031 18.719 9.7031z"/>
</defs>
<g transform="translate(1316.8 668.82) scale(.1 -.1)">
<use xlink:href="#c"/>
<use x="63.623047" xlink:href="#f"/>
<use x="95.410156" xlink:href="#p"/>
<use x="159.033203" xlink:href="#ai"/>
</g>
</g>
<g clip-path="url(#a)">
<g transform="translate(468.23 668.82) scale(.1 -.1)">
<use xlink:href="#c"/>
<use x="63.623047" xlink:href="#f"/>
<use x="95.410156" xlink:href="#p"/>
<use x="159.033203" xlink:href="#c"/>
</g>
</g>
<g clip-path="url(#a)">
<g transform="translate(568.86 668.82) scale(.1 -.1)">
<use xlink:href="#c"/>
<use x="63.623047" xlink:href="#f"/>
<use x="95.410156" xlink:href="#p"/>
<use x="159.033203" xlink:href="#p"/>
</g>
</g>
<g clip-path="url(#a)">
<g transform="translate(680.37 668.82) scale(.1 -.1)">
<use xlink:href="#c"/>
<use x="63.623047" xlink:href="#f"/>
<use x="95.410156" xlink:href="#p"/>
<use x="159.033203" xlink:href="#n"/>
</g>
</g>
<g clip-path="url(#a)">
<g transform="translate(802.76 668.82) scale(.1 -.1)">
<use xlink:href="#c"/>
<use x="63.623047" xlink:href="#f"/>
<use x="95.410156" xlink:href="#p"/>
<use x="159.033203" xlink:href="#m"/>
</g>
</g>
<g clip-path="url(#a)">
<g transform="translate(868.03 668.82) scale(.1 -.1)">
<use xlink:href="#c"/>
<use x="63.623047" xlink:href="#f"/>
<use x="95.410156" xlink:href="#p"/>
<use x="159.033203" xlink:href="#w"/>
</g>
</g>
<g clip-path="url(#a)">
<g transform="translate(936.03 668.82) scale(.1 -.1)">
<use xlink:href="#c"/>
<use x="63.623047" xlink:href="#f"/>
<use x="95.410156" xlink:href="#p"/>
<use x="159.033203" xlink:href="#v"/>
</g>
</g>
<g clip-path="url(#a)">
<g transform="translate(201.69 668.82) scale(.1 -.1)">
<use xlink:href="#c"/>
<use x="63.623047" xlink:href="#f"/>
<use x="95.410156" xlink:href="#n"/>
<use x="159.033203" xlink:href="#ai"/>
</g>
</g>
<g clip-path="url(#a)">
<g transform="translate(247.93 544.08) scale(.1 -.1)">
<use xlink:href="#c"/>
<use x="63.623047" xlink:href="#f"/>
<use x="95.410156" xlink:href="#n"/>
<use x="159.033203" xlink:href="#c"/>
</g>
</g>
<g clip-path="url(#a)">
<g transform="translate(338.58 544.08) scale(.1 -.1)">
<use xlink:href="#c"/>
<use x="63.623047" xlink:href="#f"/>
<use x="95.410156" xlink:href="#n"/>
<use x="159.033203" xlink:href="#p"/>
</g>
</g>
<g clip-path="url(#a)">
<g transform="translate(299.6 668.82) scale(.1 -.1)">
<use xlink:href="#c"/>
<use x="63.623047" xlink:href="#f"/>
<use x="95.410156" xlink:href="#n"/>
<use x="159.033203" xlink:href="#n"/>
</g>
</g>
<g clip-path="url(#a)">
<g transform="translate(337.68 668.82) scale(.1 -.1)">
<use xlink:href="#c"/>
<use x="63.623047" xlink:href="#f"/>
<use x="95.410156" xlink:href="#n"/>
<use x="159.033203" xlink:href="#m"/>
</g>
</g>
<g clip-path="url(#a)">
<g transform="translate(378.47 668.82) scale(.1 -.1)">
<use xlink:href="#c"/>
<use x="63.623047" xlink:href="#f"/>
<use x="95.410156" xlink:href="#n"/>
<use x="159.033203" xlink:href="#w"/>
</g>
</g>
<g clip-path="url(#a)">
<g transform="translate(231.61 668.82) scale(.1 -.1)">
<use xlink:href="#c"/>
<use x="63.623047" xlink:href="#f"/>
<use x="95.410156" xlink:href="#n"/>
<use x="159.033203" xlink:href="#v"/>
</g>
</g>
<g clip-path="url(#a)">
<g transform="translate(264.24 668.82) scale(.1 -.1)">
<use xlink:href="#c"/>
<use x="63.623047" xlink:href="#f"/>
<use x="95.410156" xlink:href="#n"/>
<use x="159.033203" xlink:href="#ab"/>
</g>
</g>
<g clip-path="url(#a)">
<g transform="translate(93.805 544.08) scale(.1 -.1)">
<use xlink:href="#c"/>
<use x="63.623047" xlink:href="#f"/>
<use x="95.410156" xlink:href="#n"/>
<use x="159.033203" xlink:href="#aa"/>
</g>
</g>
<g clip-path="url(#a)">
<g transform="translate(128.26 668.82) scale(.1 -.1)">
<use xlink:href="#c"/>
<use x="63.623047" xlink:href="#f"/>
<use x="95.410156" xlink:href="#n"/>
<use x="159.033203" xlink:href="#z"/>
</g>
</g>
<g clip-path="url(#a)">
<g transform="translate(79.3 668.82) scale(.1 -.1)">
<use xlink:href="#c"/>
<use x="63.623047" xlink:href="#f"/>
<use x="95.410156" xlink:href="#m"/>
<use x="159.033203" xlink:href="#ai"/>
</g>
</g>
<g clip-path="url(#a)">
<g transform="translate(92.898 668.82) scale(.1 -.1)">
<use xlink:href="#c"/>
<use x="63.623047" xlink:href="#f"/>
<use x="95.410156" xlink:href="#m"/>
<use x="159.033203" xlink:href="#c"/>
</g>
</g>
<g clip-path="url(#a)">
<g transform="translate(109.22 668.82) scale(.1 -.1)">
<use xlink:href="#c"/>
<use x="63.623047" xlink:href="#f"/>
<use x="95.410156" xlink:href="#m"/>
<use x="159.033203" xlink:href="#p"/>
</g>
</g>
<g clip-path="url(#a)">
<g transform="translate(174.49 668.82) scale(.1 -.1)">
<use xlink:href="#c"/>
<use x="63.623047" xlink:href="#f"/>
<use x="95.410156" xlink:href="#m"/>
<use x="159.033203" xlink:href="#n"/>
</g>
</g>
<g clip-path="url(#a)">
<g transform="translate(421.99 668.82) scale(.1 -.1)">
<use xlink:href="#c"/>
<use x="63.623047" xlink:href="#f"/>
<use x="95.410156" xlink:href="#m"/>
<use x="159.033203" xlink:href="#m"/>
</g>
</g>
<g clip-path="url(#a)">
<g transform="translate(517.18 668.82) scale(.1 -.1)">
<use xlink:href="#c"/>
<use x="63.623047" xlink:href="#f"/>
<use x="95.410156" xlink:href="#m"/>
<use x="159.033203" xlink:href="#w"/>
</g>
</g>
<g clip-path="url(#a)">
<g transform="translate(623.25 668.82) scale(.1 -.1)">
<use xlink:href="#c"/>
<use x="63.623047" xlink:href="#f"/>
<use x="95.410156" xlink:href="#m"/>
<use x="159.033203" xlink:href="#v"/>
</g>
</g>
<g clip-path="url(#a)">
<g transform="translate(740.2 668.82) scale(.1 -.1)">
<use xlink:href="#c"/>
<use x="63.623047" xlink:href="#f"/>
<use x="95.410156" xlink:href="#m"/>
<use x="159.033203" xlink:href="#ab"/>
</g>
</g>
<g clip-path="url(#a)">
<g transform="translate(1006.7 668.82) scale(.1 -.1)">
<use xlink:href="#c"/>
<use x="63.623047" xlink:href="#f"/>
<use x="95.410156" xlink:href="#m"/>
<use x="159.033203" xlink:href="#aa"/>
</g>
</g>
<g clip-path="url(#a)">
<g transform="translate(1488.1 668.82) scale(.1 -.1)">
<use xlink:href="#c"/>
<use x="63.623047" xlink:href="#f"/>
<use x="95.410156" xlink:href="#m"/>
<use x="159.033203" xlink:href="#z"/>
</g>
</g>
<defs>
<clipPath id="a">
<rect width="1570.7" height="826.67"/>
</clipPath>
</defs>
</svg>
