<?xml version="1.0" encoding="UTF-8"?>
<!DOCTYPE svg  PUBLIC '-//W3C//DTD SVG 1.1//EN'  'http://www.w3.org/Graphics/SVG/1.1/DTD/svg11.dtd'>
<svg width="1976pt" height="1040pt" version="1.1" viewBox="0 0 1976 1040" xmlns="http://www.w3.org/2000/svg" xmlns:xlink="http://www.w3.org/1999/xlink">
<defs>
<style type="text/css">*{stroke-linecap:butt;stroke-linejoin:round;white-space:pre;}</style>
</defs>
<path d="m0 1040h1976v-1040h-1976z" fill="#fff"/>
<g fill="none" stroke="#000">
<path d="m1487.3 48.048v143.98" clip-path="url(#a)"/>
<path d="m1487.3 192.03 398.79 799.93" clip-path="url(#a)"/>
<path d="m1487.3 192.03 353.89 799.93" clip-path="url(#a)"/>
<path d="m1487.3 192.03-752.67 140.11" clip-path="url(#a)"/>
<path d="m734.58 332.14-599.71 401.28" clip-path="url(#a)"/>
<path d="m734.58 332.14-375.2 401.28" clip-path="url(#a)"/>
<path d="m734.58 332.14-90.826 136.63" clip-path="url(#a)"/>
<path d="m734.58 332.14 118.72 530.55" clip-path="url(#a)"/>
<path d="m734.58 332.14 279.08 270.22" clip-path="url(#a)"/>
<path d="m734.58 332.14 805.72 270.22" clip-path="url(#a)"/>
<path d="m734.58 332.14-509.91 530.55" clip-path="url(#a)"/>
<path d="m734.58 332.14-240.5 530.55" clip-path="url(#a)"/>
<path d="m734.58 332.14 612.64 530.55" clip-path="url(#a)"/>
<path d="m134.86 733.42-44.902 129.27" clip-path="url(#a)"/>
<path d="m134.86 733.42 44.902 129.27" clip-path="url(#a)"/>
<path d="m134.86 733.42v129.27" clip-path="url(#a)"/>
<path d="m359.37 733.42-89.804 129.27" clip-path="url(#a)"/>
<path d="m359.37 733.42-44.902 129.27" clip-path="url(#a)"/>
<path d="m359.37 733.42v129.27" clip-path="url(#a)"/>
<path d="m359.37 733.42 44.902 129.27" clip-path="url(#a)"/>
<path d="m359.37 733.42 89.804 129.27" clip-path="url(#a)"/>
<path d="m643.75 468.77-44.902 133.59" clip-path="url(#a)"/>
<path d="m643.75 468.77 119.74 393.92" clip-path="url(#a)"/>
<path d="m643.75 468.77 164.64 393.92" clip-path="url(#a)"/>
<path d="m643.75 468.77-239.48 393.92" clip-path="url(#a)" stroke-dasharray="3.7,1.6"/>
<path d="m853.29 862.69v129.27" clip-path="url(#a)"/>
<path d="m1013.7 602.36-115.46 260.33" clip-path="url(#a)"/>
<path d="m1013.7 602.36-70.56 260.33" clip-path="url(#a)"/>
<path d="m1013.7 602.36 64.146 131.06" clip-path="url(#a)"/>
<path d="m1013.7 602.36 198.85 260.33" clip-path="url(#a)"/>
<path d="m1013.7 602.36 243.75 260.33" clip-path="url(#a)"/>
<path d="m1013.7 602.36 288.66 260.33" clip-path="url(#a)"/>
<path d="m1013.7 602.36-609.38 260.33" clip-path="url(#a)" stroke-dasharray="3.7,1.6"/>
<path d="m1540.3 602.36-125.73 131.06" clip-path="url(#a)"/>
<path d="m1540.3 602.36-58.373 260.33" clip-path="url(#a)"/>
<path d="m1540.3 602.36-13.471 260.33" clip-path="url(#a)"/>
<path d="m1540.3 602.36 31.431 260.33" clip-path="url(#a)"/>
<path d="m1540.3 602.36 166.14 131.06" clip-path="url(#a)"/>
<path d="m1414.6 733.42-22.451 129.27" clip-path="url(#a)"/>
<path d="m1414.6 733.42 22.451 129.27" clip-path="url(#a)"/>
<path d="m1481.9 862.69v129.27" clip-path="url(#a)"/>
<path d="m1526.8 862.69v129.27" clip-path="url(#a)"/>
<path d="m1571.7 862.69v129.27" clip-path="url(#a)"/>
<path d="m1706.4 733.42-89.804 129.27" clip-path="url(#a)"/>
<path d="m1706.4 733.42-44.902 129.27" clip-path="url(#a)"/>
<path d="m1706.4 733.42v129.27" clip-path="url(#a)"/>
<path d="m1706.4 733.42 44.902 129.27" clip-path="url(#a)"/>
<path d="m1706.4 733.42 89.804 129.27" clip-path="url(#a)"/>
<path d="m1616.6 862.69v129.27" clip-path="url(#a)"/>
<path d="m1661.5 862.69v129.27" clip-path="url(#a)"/>
<path d="m1392.1 862.69v129.27" clip-path="url(#a)"/>
<path d="m1437 862.69v129.27" clip-path="url(#a)"/>
<path d="m898.2 862.69v129.27" clip-path="url(#a)"/>
<path d="m943.1 862.69v129.27" clip-path="url(#a)"/>
<path d="m1077.8 733.42-89.804 129.27" clip-path="url(#a)"/>
<path d="m1077.8 733.42-44.902 129.27" clip-path="url(#a)"/>
<path d="m1077.8 733.42v129.27" clip-path="url(#a)"/>
<path d="m1077.8 733.42 44.902 129.27" clip-path="url(#a)"/>
<path d="m1077.8 733.42 89.804 129.27" clip-path="url(#a)"/>
<path d="m1212.5 862.69v129.27" clip-path="url(#a)"/>
<path d="m1257.4 862.69v129.27" clip-path="url(#a)"/>
<path d="m1302.3 862.69v129.27" clip-path="url(#a)"/>
<path d="m988 862.69v129.27" clip-path="url(#a)"/>
<path d="m1032.9 862.69v129.27" clip-path="url(#a)"/>
<path d="m1077.8 862.69v129.27" clip-path="url(#a)"/>
<path d="m1122.7 862.69v129.27" clip-path="url(#a)"/>
<path d="m1167.6 862.69v129.27" clip-path="url(#a)"/>
<path d="m598.85 602.36-59.869 260.33" clip-path="url(#a)"/>
<path d="m598.85 602.36-14.967 260.33" clip-path="url(#a)"/>
<path d="m598.85 602.36 74.837 131.06" clip-path="url(#a)"/>
<path d="m763.49 862.69v129.27" clip-path="url(#a)"/>
<path d="m808.39 862.69v129.27" clip-path="url(#a)"/>
<path d="m538.98 862.69v129.27" clip-path="url(#a)"/>
<path d="m583.88 862.69v129.27" clip-path="url(#a)"/>
<path d="m673.69 733.42-44.902 129.27" clip-path="url(#a)"/>
<path d="m673.69 733.42v129.27" clip-path="url(#a)"/>
<path d="m673.69 733.42 44.902 129.27" clip-path="url(#a)"/>
<path d="m628.78 862.69v129.27" clip-path="url(#a)"/>
<path d="m673.69 862.69v129.27" clip-path="url(#a)"/>
<path d="m718.59 862.69v129.27" clip-path="url(#a)"/>
<path d="m269.57 862.69v129.27" clip-path="url(#a)"/>
<path d="m314.47 862.69v129.27" clip-path="url(#a)"/>
<path d="m359.37 862.69v129.27" clip-path="url(#a)"/>
<path d="m404.27 862.69v129.27" clip-path="url(#a)"/>
<path d="m449.18 862.69v129.27" clip-path="url(#a)"/>
<path d="m89.96 862.69v129.27" clip-path="url(#a)"/>
<path d="m179.76 862.69v129.27" clip-path="url(#a)"/>
<path d="m134.86 862.69v129.27" clip-path="url(#a)"/>
<path d="m224.67 862.69v129.27" clip-path="url(#a)"/>
<path d="m494.08 862.69v129.27" clip-path="url(#a)"/>
<path d="m1347.2 862.69v129.27" clip-path="url(#a)"/>
<path d="m1706.4 862.69v129.27" clip-path="url(#a)"/>
<path d="m1751.3 862.69v129.27" clip-path="url(#a)"/>
<path d="m1796.2 862.69v129.27" clip-path="url(#a)"/>
</g>
<path d="m1481 117.03v6.0162q0 2.4 2.4 2.4h7.7425q2.4 0 2.4-2.4v-6.0162q0-2.4-2.4-2.4h-7.7425q-2.4 0-2.4 2.4z" clip-path="url(#a)" fill="#fff" stroke="#fff"/>
<g clip-path="url(#a)">
<defs>
<path id="y" d="m9.8125 72.906h9.8594v-29.891h35.844v29.891h9.8594v-72.906h-9.8594v34.719h-35.844v-34.719h-9.8594z"/>
</defs>
<g transform="translate(1485 117.03) rotate(90) scale(.08 -.08)">
<use xlink:href="#y"/>
</g>
</g>
<path d="m1680 592.63 2.1522 4.317q1.0708 2.1479 3.2187 1.0771l6.9292-3.4544q2.1479-1.0708 1.0771-3.2187l-2.1522-4.317q-1.0708-2.1479-3.2187-1.0771l-6.9292 3.4544q-2.1479 1.0708-1.0771 3.2187z" clip-path="url(#a)" fill="#fff" stroke="#fff"/>
<g clip-path="url(#a)">
<defs>
<path id="x" d="m19.672 64.797v-27.391h12.406q6.8906 0 10.641 3.5625 3.7656 3.5625 3.7656 10.156 0 6.5469-3.7656 10.109-3.75 3.5625-10.641 3.5625zm-9.8594 8.1094h22.266q12.266 0 18.531-5.5469 6.2812-5.5469 6.2812-16.234 0-10.797-6.2812-16.312-6.2656-5.5156-18.531-5.5156h-12.406v-29.297h-9.8594z"/>
</defs>
<g transform="translate(1683.6 590.82) rotate(63.502) scale(.08 -.08)">
<use xlink:href="#x"/>
</g>
</g>
<path d="m1657.4 592.02 2.214 5.0046q0.97098 2.1948 3.1658 1.2238l7.0806-3.1324q2.1948-0.97098 1.2238-3.1658l-2.214-5.0046q-0.97098-2.1948-3.1658-1.2238l-7.0805 3.1324q-2.1948 0.97098-1.2238 3.1658z" clip-path="url(#a)" fill="#fff" stroke="#fff"/>
<g clip-path="url(#a)">
<defs>
<path id="r" d="m34.188 63.188-13.391-36.281h26.812zm-5.5781 9.7188h11.188l27.781-72.906h-10.25l-6.6406 18.703h-32.859l-6.6406-18.703h-10.406z"/>
</defs>
<g transform="translate(1661.1 590.38) rotate(66.135) scale(.08 -.08)">
<use xlink:href="#r"/>
</g>
</g>
<path d="m1109.4 268.75 5.3801-1.0015q2.3595-0.43921 1.9203-2.7987l-1.4169-7.6117q-0.43921-2.3595-2.7987-1.9203l-5.3801 1.0015q-2.3595 0.43921-1.9203 2.7987l1.4169 7.6117q0.43921 2.3595 2.7987 1.9203z" clip-path="url(#a)" fill="#fff" stroke="#fff"/>
<g clip-path="url(#a)">
<g transform="translate(1108.6 264.75) rotate(-10.545) scale(.08 -.08)">
<use xlink:href="#r"/>
</g>
</g>
<path d="m435.71 539.66 5.0001-3.3457q1.9947-1.3347 0.65998-3.3293l-4.3057-6.4348q-1.3347-1.9947-3.3293-0.65998l-5.0001 3.3457q-1.9947 1.3347-0.65998 3.3293l4.3057 6.4348q1.3347 1.9947 3.3293 0.65998z" clip-path="url(#a)" fill="#fff" stroke="#fff"/>
<g clip-path="url(#a)">
<g transform="translate(433.45 536.29) rotate(-33.787) scale(.08 -.08)">
<use xlink:href="#y"/>
</g>
</g>
<path d="m549.5 539.26 4.1089-4.3945q1.6391-1.7531-0.11393-3.3922l-5.6555-5.2879q-1.7531-1.6391-3.3922 0.11393l-4.1089 4.3945q-1.6391 1.7531 0.11393 3.3922l5.6555 5.2879q1.7531 1.6391 3.3922-0.11393z" clip-path="url(#a)" fill="#fff" stroke="#fff"/>
<g clip-path="url(#a)">
<g transform="translate(546.53 536.48) rotate(-46.924) scale(.08 -.08)">
<use xlink:href="#y"/>
</g>
</g>
<path d="m692.72 406.43 3.3306-5.0103q1.3286-1.9987-0.67006-3.3273l-6.4479-4.2862q-1.9987-1.3286-3.3273 0.67006l-3.3306 5.0103q-1.3286 1.9987 0.67006 3.3273l6.4479 4.2862q1.9987 1.3286 3.3273-0.67006z" clip-path="url(#a)" fill="#fff" stroke="#fff"/>
<g clip-path="url(#a)">
<g transform="translate(689.34 404.18) rotate(-56.386) scale(.08 -.08)">
<use xlink:href="#y"/>
</g>
</g>
<path d="m787.33 596.61 0.97335 4.3499q0.52407 2.3421 2.8662 1.818l7.5557-1.6907q2.3421-0.52407 1.818-2.8662l-0.97335-4.3499q-0.52407-2.3421-2.8662-1.818l-7.5557 1.6907q-2.3421 0.52407-1.818 2.8662z" clip-path="url(#a)" fill="#fff" stroke="#fff"/>
<g clip-path="url(#a)">
<defs>
<path id="am" d="m9.8125 72.906h9.8594v-64.609h35.5v-8.2969h-45.359z"/>
</defs>
<g transform="translate(791.29 595.72) rotate(77.387) scale(.08 -.08)">
<use xlink:href="#am"/>
</g>
</g>
<path d="m867.59 469.66 4.3222 4.185q1.7242 1.6695 3.3937-0.05475l5.3858-5.5624q1.6695-1.7242-0.05475-3.3937l-4.3222-4.185q-1.7242-1.6695-3.3937 0.05475l-5.3857 5.5624q-1.6695 1.7242 0.05475 3.3937z" clip-path="url(#a)" fill="#fff" stroke="#fff"/>
<g clip-path="url(#a)">
<g transform="translate(870.42 466.74) rotate(44.076) scale(.08 -.08)">
<use xlink:href="#y"/>
</g>
</g>
<path d="m1132.6 472.24 5.704 1.913q2.2754 0.76313 3.0386-1.5123l2.4619-7.3407q0.76313-2.2754-1.5123-3.0386l-5.704-1.913q-2.2754-0.76313-3.0386 1.5123l-2.4619 7.3407q-0.76313 2.2754 1.5123 3.0386z" clip-path="url(#a)" fill="#fff" stroke="#fff"/>
<g clip-path="url(#a)">
<g transform="translate(1133.9 468.38) rotate(18.54) scale(.08 -.08)">
<use xlink:href="#y"/>
</g>
</g>
<path d="m482.11 603.87 4.0572-4.2214q1.6631-1.7304-0.067313-3.3934l-5.5823-5.3651q-1.7304-1.6631-3.3934 0.067313l-4.0572 4.2214q-1.6631 1.7304 0.067313 3.3934l5.5823 5.3651q1.7304 1.6631 3.3934-0.067312z" clip-path="url(#a)" fill="#fff" stroke="#fff"/>
<g clip-path="url(#a)">
<defs>
<path id="w" d="m8.6875 72.906h9.9219v-44.297q0-11.719 4.2344-16.875 4.25-5.1406 13.781-5.1406 9.4688 0 13.719 5.1406 4.25 5.1562 4.25 16.875v44.297h9.9062v-45.516q0-14.25-7.0625-21.531-7.0469-7.2812-20.812-7.2812-13.828 0-20.891 7.2812-7.0469 7.2812-7.0469 21.531z"/>
</defs>
<g transform="translate(479.18 601.05) rotate(-46.136) scale(.08 -.08)">
<use xlink:href="#w"/>
</g>
</g>
<path d="m618.83 602.67 2.4173-5.3327q0.99087-2.1859-1.195-3.1768l-7.0518-3.1966q-2.1859-0.99087-3.1768 1.195l-2.4173 5.3327q-0.99087 2.1859 1.195 3.1768l7.0518 3.1966q2.1859 0.99087 3.1768-1.195z" clip-path="url(#a)" fill="#fff" stroke="#fff"/>
<g clip-path="url(#a)">
<g transform="translate(615.13 600.99) rotate(-65.615) scale(.08 -.08)">
<use xlink:href="#w"/>
</g>
</g>
<path d="m1034.6 600.24 4.426 3.833q1.8142 1.5711 3.3854-0.2431l5.0686-5.8528q1.5711-1.8142-0.2431-3.3854l-4.426-3.833q-1.8142-1.5711-3.3854 0.2431l-5.0686 5.8528q-1.5712 1.8142 0.2431 3.3854z" clip-path="url(#a)" fill="#fff" stroke="#fff"/>
<g clip-path="url(#a)">
<g transform="translate(1037.2 597.16) rotate(40.893) scale(.08 -.08)">
<use xlink:href="#w"/>
</g>
</g>
<path d="m117.54 802.39 1.5828-4.5567q0.78751-2.2671-1.4796-3.0546l-7.3138-2.5405q-2.2671-0.78751-3.0546 1.4796l-1.5828 4.5567q-0.78751 2.2671 1.4796 3.0546l7.3138 2.5405q2.2671 0.78751 3.0546-1.4796z" clip-path="url(#a)" fill="#fff" stroke="#fff"/>
<g clip-path="url(#a)">
<g transform="translate(113.7 801.06) rotate(-70.845) scale(.08 -.08)">
<use xlink:href="#x"/>
</g>
</g>
<path d="m150.37 797.18 2.034 5.8555q0.78751 2.2671 3.0546 1.4796l7.3138-2.5405q2.2671-0.78751 1.4796-3.0546l-2.034-5.8555q-0.78751-2.2671-3.0546-1.4796l-7.3138 2.5405q-2.2671 0.78751-1.4796 3.0546z" clip-path="url(#a)" fill="#fff" stroke="#fff"/>
<g clip-path="url(#a)">
<defs>
<path id="av" d="m59.516 10.406v19.578h-16.109v8.1094h25.875v-31.312q-5.7031-4.0469-12.594-6.125-6.875-2.0781-14.688-2.0781-17.094 0-26.75 9.9844-9.6406 10-9.6406 27.812 0 17.875 9.6406 27.859 9.6562 9.9844 26.75 9.9844 7.125 0 13.547-1.7656 6.4219-1.75 11.844-5.1719v-10.5q-5.4688 4.6406-11.625 6.9844t-12.938 2.3438q-13.391 0-20.109-7.4688-6.7031-7.4688-6.7031-22.266 0-14.75 6.7031-22.219 6.7188-7.4688 20.109-7.4688 5.2188 0 9.3125 0.90625 4.1094 0.90625 7.375 2.8125z"/>
</defs>
<g transform="translate(154.21 795.85) rotate(70.845) scale(.08 -.08)">
<use xlink:href="#av"/>
</g>
</g>
<path d="m128.59 795.13v5.855q0 2.4 2.4 2.4h7.7425q2.4 0 2.4-2.4v-5.855q0-2.4-2.4-2.4h-7.7425q-2.4 0-2.4 2.4z" clip-path="url(#a)" fill="#fff" stroke="#fff"/>
<g clip-path="url(#a)">
<g transform="translate(132.65 795.13) rotate(90) scale(.08 -.08)">
<use xlink:href="#w"/>
</g>
</g>
<path d="m317.86 804.16 3.5146-5.059q1.3693-1.971-0.60171-3.3404l-6.3586-4.4175q-1.971-1.3693-3.3404 0.60171l-3.5146 5.059q-1.3693 1.971 0.60171 3.3404l6.3586 4.4175q1.971 1.3693 3.3404-0.60171z" clip-path="url(#a)" fill="#fff" stroke="#fff"/>
<g clip-path="url(#a)">
<defs>
<path id="ac" d="m19.672 64.797v-56.688h11.922q15.094 0 22.094 6.8281 7 6.8438 7 21.594 0 14.641-7 21.453t-22.094 6.8125zm-9.8594 8.1094h20.266q21.188 0 31.094-8.8125 9.9219-8.8125 9.9219-27.562 0-18.859-9.9688-27.703-9.9531-8.8281-31.047-8.8281h-20.266z"/>
</defs>
<g transform="translate(314.53 801.84) rotate(-55.211) scale(.08 -.08)">
<use xlink:href="#ac"/>
</g>
</g>
<path d="m341.83 803.02 2.0213-5.8189q0.78751-2.2671-1.4796-3.0546l-7.3138-2.5405q-2.2671-0.78751-3.0546 1.4796l-2.0213 5.8189q-0.78751 2.2671 1.4796 3.0546l7.3138 2.5405q2.2671 0.78751 3.0546-1.4796z" clip-path="url(#a)" fill="#fff" stroke="#fff"/>
<g clip-path="url(#a)">
<g transform="translate(338 801.69) rotate(-70.845) scale(.08 -.08)">
<use xlink:href="#ac"/>
</g>
</g>
<path d="m353.1 795.32v5.4725q0 2.4 2.4 2.4h7.7425q2.4 0 2.4-2.4v-5.4725q0-2.4-2.4-2.4h-7.7425q-2.4 0-2.4 2.4z" clip-path="url(#a)" fill="#fff" stroke="#fff"/>
<g clip-path="url(#a)">
<g transform="translate(357.16 795.32) rotate(90) scale(.08 -.08)">
<use xlink:href="#r"/>
</g>
</g>
<path d="m375 797.53 1.7957 5.1695q0.78751 2.2671 3.0546 1.4796l7.3138-2.5405q2.2671-0.78751 1.4796-3.0546l-1.7957-5.1695q-0.78751-2.2671-3.0546-1.4796l-7.3138 2.5405q-2.2671 0.78751-1.4796 3.0546z" clip-path="url(#a)" fill="#fff" stroke="#fff"/>
<g clip-path="url(#a)">
<g transform="translate(378.84 796.19) rotate(70.845) scale(.08 -.08)">
<use xlink:href="#r"/>
</g>
</g>
<path d="m397.75 799.65 2.7522 3.9616q1.3693 1.971 3.3404 0.60171l6.3586-4.4175q1.971-1.3693 0.60171-3.3404l-2.7522-3.9616q-1.3693-1.971-3.3404-0.60171l-6.3586 4.4175q-1.971 1.3693-0.60171 3.3404z" clip-path="url(#a)" fill="#fff" stroke="#fff"/>
<g clip-path="url(#a)">
<g transform="translate(401.08 797.33) rotate(55.211) scale(.08 -.08)">
<use xlink:href="#x"/>
</g>
</g>
<path d="m626.37 540.15 1.7436-5.1873q0.76466-2.2749-1.5103-3.0396l-7.339-2.4668q-2.2749-0.76466-3.0396 1.5103l-1.7436 5.1873q-0.76466 2.2749 1.5103 3.0396l7.339 2.4668q2.2749 0.76466 3.0396-1.5103z" clip-path="url(#a)" fill="#fff" stroke="#fff"/>
<g clip-path="url(#a)">
<g transform="translate(622.52 538.86) rotate(-71.421) scale(.08 -.08)">
<use xlink:href="#r"/>
</g>
</g>
<path d="m696.95 665.35 1.3382 4.4024q0.69799 2.2963 2.9942 1.5983l7.4078-2.2517q2.2963-0.69799 1.5983-2.9943l-1.3382-4.4024q-0.69799-2.2963-2.9943-1.5983l-7.4078 2.2517q-2.2963 0.69799-1.5983 2.9942z" clip-path="url(#a)" fill="#fff" stroke="#fff"/>
<g clip-path="url(#a)">
<defs>
<path id="an" d="m9.8125 72.906h41.891v-8.3125h-32.031v-21.484h28.906v-8.2969h-28.906v-34.812h-9.8594z"/>
</defs>
<g transform="translate(700.84 664.17) rotate(73.092) scale(.08 -.08)">
<use xlink:href="#an"/>
</g>
</g>
<path d="m719.36 665.92 1.8602 4.4507q0.92551 2.2144 3.1399 1.2889l7.1436-2.9857q2.2144-0.92551 1.2889-3.1399l-1.8602-4.4507q-0.92551-2.2144-3.1399-1.2889l-7.1436 2.9857q-2.2144 0.92551-1.2889 3.1399z" clip-path="url(#a)" fill="#fff" stroke="#fff"/>
<g clip-path="url(#a)">
<g transform="translate(723.1 664.35) rotate(67.317) scale(.08 -.08)">
<use xlink:href="#x"/>
</g>
</g>
<path d="m527.95 671.32 2.8428-4.6762q1.2467-2.0508-0.80403-3.2975l-6.6159-4.022q-2.0508-1.2467-3.2975 0.80403l-2.8428 4.6762q-1.2467 2.0508 0.80403 3.2975l6.6159 4.022q2.0508 1.2467 3.2975-0.80403z" clip-path="url(#a)" fill="#fff" stroke="#fff"/>
<g clip-path="url(#a)">
<g transform="translate(524.48 669.21) rotate(-58.703) scale(.08 -.08)">
<use xlink:href="#r"/>
</g>
</g>
<path d="m847.02 909.68v35.285q0 2.4 2.4 2.4h7.7425q2.4 0 2.4-2.4v-35.285q0-2.4-2.4-2.4h-7.7425q-2.4 0-2.4 2.4z" clip-path="url(#a)" fill="#fff" stroke="#fff"/>
<g clip-path="url(#a)">
<defs>
<path id="k" d="m-0.29688 72.906h61.672v-8.3125h-25.875v-64.594h-9.9062v64.594h-25.891z"/>
<path id="c" d="m56.203 29.594v-4.3906h-41.312q0.59375-9.2812 5.5938-14.141t13.938-4.8594q5.1719 0 10.031 1.2656t9.6562 3.8125v-8.5q-4.8438-2.0469-9.9219-3.125t-10.297-1.0781q-13.094 0-20.734 7.6094-7.6406 7.625-7.6406 20.625 0 13.422 7.25 21.297 7.25 7.8906 19.562 7.8906 11.031 0 17.453-7.1094 6.4219-7.0938 6.4219-19.297zm-8.9844 2.6406q-0.09375 7.3594-4.125 11.75-4.0312 4.4062-10.672 4.4062-7.5156 0-12.031-4.25t-5.2031-11.969z"/>
<path id="i" d="m41.109 46.297q-1.5156 0.875-3.2969 1.2812-1.7812 0.42188-3.9219 0.42188-7.625 0-11.703-4.9531t-4.0781-14.234v-28.812h-9.0312v54.688h9.0312v-8.5q2.8438 4.9844 7.375 7.3906 4.5469 2.4219 11.047 2.4219 0.92188 0 2.0469-0.125 1.125-0.10938 2.4844-0.35938z"/>
<path id="l" d="m52 44.188q3.375 6.0625 8.0625 8.9375t11.031 2.875q8.5469 0 13.188-5.9844 4.6406-5.9688 4.6406-17v-33.016h-9.0312v32.719q0 7.8594-2.7969 11.656-2.7812 3.8125-8.4844 3.8125-6.9844 0-11.047-4.6406-4.0469-4.625-4.0469-12.641v-30.906h-9.0312v32.719q0 7.9062-2.7812 11.688t-8.5938 3.7812q-6.8906 0-10.953-4.6562-4.0469-4.6562-4.0469-12.625v-30.906h-9.0312v54.688h9.0312v-8.5q3.0781 5.0312 7.375 7.4219t10.203 2.3906q5.9688 0 10.141-3.0312 4.1719-3.0156 6.1719-8.7812z"/>
<path id="g" d="m9.4219 54.688h8.9844v-54.688h-8.9844zm0 21.297h8.9844v-11.391h-8.9844z"/>
<path id="f" d="m54.891 33.016v-33.016h-8.9844v32.719q0 7.7656-3.0312 11.609-3.0312 3.8594-9.0781 3.8594-7.2812 0-11.484-4.6406-4.2031-4.625-4.2031-12.641v-30.906h-9.0312v54.688h9.0312v-8.5q3.2344 4.9375 7.5938 7.375 4.375 2.4375 10.094 2.4375 9.4219 0 14.25-5.8281 4.8438-5.8281 4.8438-17.156z"/>
<path id="h" d="m34.281 27.484q-10.891 0-15.094-2.4844t-4.2031-8.5q0-4.7812 3.1562-7.5938 3.1562-2.7969 8.5625-2.7969 7.4844 0 12 5.2969t4.5156 14.078v2zm17.922 3.7188v-31.203h-8.9844v8.2969q-3.0781-4.9688-7.6719-7.3438t-11.234-2.375q-8.3906 0-13.359 4.7188-4.9531 4.7188-4.9531 12.625 0 9.2188 6.1719 13.906 6.1875 4.6875 18.438 4.6875h12.609v0.89062q0 6.2031-4.0781 9.5938t-11.453 3.3906q-4.6875 0-9.1406-1.125-4.4375-1.125-8.5312-3.375v8.3125q4.9219 1.9062 9.5625 2.8438 4.6406 0.95312 9.0312 0.95312 11.875 0 17.734-6.1562 5.8594-6.1406 5.8594-18.641z"/>
<path id="j" d="m9.4219 75.984h8.9844v-75.984h-8.9844z"/>
</defs>
<g transform="translate(851.09 909.68) rotate(90) scale(.08 -.08)">
<use xlink:href="#k"/>
<use x="60.818359" xlink:href="#c"/>
<use x="122.341797" xlink:href="#i"/>
<use x="163.439453" xlink:href="#l"/>
<use x="260.851562" xlink:href="#g"/>
<use x="288.634766" xlink:href="#f"/>
<use x="352.013672" xlink:href="#h"/>
<use x="413.292969" xlink:href="#j"/>
</g>
</g>
<path d="m960.55 737.57 2.2187-5.0025q0.97304-2.1939-1.2209-3.1669l-7.0776-3.1391q-2.1939-0.97304-3.1669 1.2209l-2.2187 5.0025q-0.97304 2.1939 1.2209 3.1669l7.0776 3.1391q2.1939 0.97304 3.1669-1.2209z" clip-path="url(#a)" fill="#fff" stroke="#fff"/>
<g clip-path="url(#a)">
<g transform="translate(956.84 735.92) rotate(-66.082) scale(.08 -.08)">
<use xlink:href="#r"/>
</g>
</g>
<path d="m983.63 737.13 1.6115-5.9455q0.62785-2.3164-1.6886-2.9443l-7.4729-2.0255q-2.3164-0.62785-2.9443 1.6886l-1.6115 5.9455q-0.62785 2.3164 1.6886 2.9443l7.4729 2.0255q2.3164 0.62785 2.9443-1.6886z" clip-path="url(#a)" fill="#fff" stroke="#fff"/>
<g clip-path="url(#a)">
<g transform="translate(979.7 736.07) rotate(-74.835) scale(.08 -.08)">
<use xlink:href="#ac"/>
</g>
</g>
<path d="m1038.9 668.19 2.4057 4.9154q1.055 2.1557 3.2107 1.1006l6.9543-3.4036q2.1557-1.055 1.1006-3.2107l-2.4057-4.9154q-1.055-2.1557-3.2107-1.1006l-6.9543 3.4036q-2.1557 1.055-1.1006 3.2107z" clip-path="url(#a)" fill="#fff" stroke="#fff"/>
<g clip-path="url(#a)">
<g transform="translate(1042.5 666.4) rotate(63.922) scale(.08 -.08)">
<use xlink:href="#r"/>
</g>
</g>
<path d="m1106.6 734.41 2.9281 3.8334q1.4568 1.9073 3.3641 0.45041l6.1529-4.6998q1.9073-1.4568 0.45041-3.3641l-2.9281-3.8334q-1.4568-1.9073-3.3641-0.45041l-6.1529 4.6998q-1.9073 1.4568-0.45041 3.3641z" clip-path="url(#a)" fill="#fff" stroke="#fff"/>
<g clip-path="url(#a)">
<g transform="translate(1109.9 731.94) rotate(52.626) scale(.08 -.08)">
<use xlink:href="#x"/>
</g>
</g>
<path d="m1129.4 735.13 3.1449 3.3588q1.6404 1.7519 3.3923 0.11155l5.6518-5.2919q1.7519-1.6404 0.11155-3.3923l-3.1449-3.3588q-1.6404-1.7519-3.3923-0.11155l-5.6518 5.2919q-1.7519 1.6404-0.11155 3.3923z" clip-path="url(#a)" fill="#fff" stroke="#fff"/>
<g clip-path="url(#a)">
<g transform="translate(1132.4 732.35) rotate(46.883) scale(.08 -.08)">
<use xlink:href="#an"/>
</g>
</g>
<path d="m1151.5 735.12 4.5744 4.1255q1.7822 1.6074 3.3896-0.17489l5.1854-5.7496q1.6074-1.7822-0.17489-3.3896l-4.5744-4.1255q-1.7822-1.6074-3.3896 0.17489l-5.1854 5.7496q-1.6074 1.7822 0.17489 3.3896z" clip-path="url(#a)" fill="#fff" stroke="#fff"/>
<g clip-path="url(#a)">
<g transform="translate(1154.2 732.1) rotate(42.046) scale(.08 -.08)">
<use xlink:href="#ac"/>
</g>
</g>
<path d="m708.91 739.36 5.0325-2.1499q2.207-0.94285 1.2642-3.1499l-3.0417-7.12q-0.94285-2.207-3.1499-1.2642l-5.0325 2.1499q-2.207 0.94285-1.2642 3.1499l3.0417 7.12q0.94285 2.207 3.1499 1.2642z" clip-path="url(#a)" fill="#fff" stroke="#fff"/>
<g clip-path="url(#a)">
<g transform="translate(707.32 735.63) rotate(-23.132) scale(.08 -.08)">
<use xlink:href="#r"/>
</g>
</g>
<path d="m1480.1 674.2 3.7884-3.9492q1.6614-1.732-0.070546-3.3934l-5.5874-5.3598q-1.732-1.6614-3.3934 0.070547l-3.7884 3.9492q-1.6614 1.732 0.070547 3.3934l5.5874 5.3598q1.732 1.6614 3.3934-0.070547z" clip-path="url(#a)" fill="#fff" stroke="#fff"/>
<g clip-path="url(#a)">
<g transform="translate(1477.1 671.39) rotate(-46.191) scale(.08 -.08)">
<use xlink:href="#r"/>
</g>
</g>
<path d="m1516.7 736.37 1.1112-4.9557q0.5251-2.3419-1.8167-2.867l-7.5549-1.694q-2.3419-0.5251-2.867 1.8167l-1.1112 4.9557q-0.5251 2.3419 1.8167 2.867l7.5549 1.694q2.3419 0.5251 2.867-1.8167z" clip-path="url(#a)" fill="#fff" stroke="#fff"/>
<g clip-path="url(#a)">
<defs>
<path id="au" d="m53.516 70.516v-9.625q-5.6094 2.6875-10.594 4-4.9844 1.3281-9.625 1.3281-8.0469 0-12.422-3.125t-4.375-8.8906q0-4.8438 2.9062-7.3125 2.9062-2.4531 11.016-3.9688l5.9531-1.2188q11.031-2.1094 16.281-7.4062t5.25-14.172q0-10.609-7.1094-16.078-7.0938-5.4688-20.812-5.4688-5.1719 0-11.016 1.1719-5.8281 1.1719-12.078 3.4688v10.156q6-3.3594 11.766-5.0781 5.7656-1.7031 11.328-1.7031 8.4375 0 13.031 3.3125 4.5938 3.3281 4.5938 9.4844 0 5.3594-3.2969 8.3906t-10.812 4.5469l-6.0156 1.1719q-11.031 2.1875-15.969 6.875-4.9219 4.6875-4.9219 13.047 0 9.6719 6.8125 15.234t18.766 5.5625q5.1406 0 10.453-0.9375 5.3281-0.92188 10.891-2.7656z"/>
</defs>
<g transform="translate(1512.7 735.48) rotate(-77.362) scale(.08 -.08)">
<use xlink:href="#au"/>
</g>
</g>
<path d="m1539.7 735.58 0.28279-5.4652q0.12402-2.3968-2.2728-2.5208l-7.7322-0.4001q-2.3968-0.12402-2.5208 2.2728l-0.28279 5.4652q-0.12402 2.3968 2.2728 2.5208l7.7322 0.4001q2.3968 0.12402 2.5208-2.2728z" clip-path="url(#a)" fill="#fff" stroke="#fff"/>
<g clip-path="url(#a)">
<g transform="translate(1535.6 735.37) rotate(-87.038) scale(.08 -.08)">
<use xlink:href="#r"/>
</g>
</g>
<path d="m1549.4 730.22 0.73838 6.1156q0.28768 2.3827 2.6704 2.095l7.6867-0.92806q2.3827-0.28768 2.095-2.6704l-0.73838-6.1156q-0.28768-2.3827-2.6704-2.095l-7.6867 0.92806q-2.3827 0.28768-2.095 2.6704z" clip-path="url(#a)" fill="#fff" stroke="#fff"/>
<g clip-path="url(#a)">
<g transform="translate(1553.4 729.73) rotate(83.116) scale(.08 -.08)">
<use xlink:href="#ac"/>
</g>
</g>
<path d="m1617.3 671.12 4.2965 3.3895q1.8843 1.4865 3.3707-0.39778l4.7954-6.0787q1.4865-1.8843-0.39778-3.3707l-4.2965-3.3895q-1.8843-1.4865-3.3707 0.39778l-4.7954 6.0787q-1.4865 1.8843 0.39778 3.3707z" clip-path="url(#a)" fill="#fff" stroke="#fff"/>
<g clip-path="url(#a)">
<g transform="translate(1619.8 667.93) rotate(38.27) scale(.08 -.08)">
<use xlink:href="#r"/>
</g>
</g>
<path d="m1409.1 801.62 0.86501-4.9804q0.41068-2.3646-1.9539-2.7753l-7.6283-1.3249q-2.3646-0.41068-2.7753 1.9539l-0.86501 4.9804q-0.41069 2.3646 1.9539 2.7753l7.6283 1.3249q2.3646 0.41069 2.7753-1.9539z" clip-path="url(#a)" fill="#fff" stroke="#fff"/>
<g clip-path="url(#a)">
<defs>
<path id="u" d="m9.8125 72.906h46.094v-8.3125h-36.234v-21.578h34.719v-8.2969h-34.719v-26.422h37.109v-8.2969h-46.969z"/>
</defs>
<g transform="translate(1405.1 800.92) rotate(-80.147) scale(.08 -.08)">
<use xlink:href="#u"/>
</g>
</g>
<path d="m1419.1 796.37 0.95591 5.5039q0.41068 2.3646 2.7753 1.9539l7.6283-1.3249q2.3646-0.41069 1.9539-2.7753l-0.95591-5.5039q-0.41068-2.3646-2.7753-1.9539l-7.6283 1.3249q-2.3646 0.41068-1.9539 2.7753z" clip-path="url(#a)" fill="#fff" stroke="#fff"/>
<g clip-path="url(#a)">
<defs>
<path id="v" d="m64.406 67.281v-10.391q-4.9844 4.6406-10.625 6.9219-5.6406 2.2969-11.984 2.2969-12.5 0-19.141-7.6406t-6.6406-22.094q0-14.406 6.6406-22.047t19.141-7.6406q6.3438 0 11.984 2.2969t10.625 6.9375v-10.312q-5.1719-3.5156-10.969-5.2812-5.7812-1.75-12.219-1.75-16.562 0-26.094 10.125-9.5156 10.141-9.5156 27.672 0 17.578 9.5156 27.703 9.5312 10.141 26.094 10.141 6.5312 0 12.312-1.7344 5.7969-1.7344 10.875-5.2031z"/>
</defs>
<g transform="translate(1423.1 795.68) rotate(80.147) scale(.08 -.08)">
<use xlink:href="#v"/>
</g>
</g>
<path d="m1475.7 909.68v35.285q0 2.4 2.4 2.4h7.7425q2.4 0 2.4-2.4v-35.285q0-2.4-2.4-2.4h-7.7425q-2.4 0-2.4 2.4z" clip-path="url(#a)" fill="#fff" stroke="#fff"/>
<g clip-path="url(#a)">
<g transform="translate(1479.7 909.68) rotate(90) scale(.08 -.08)">
<use xlink:href="#k"/>
<use x="60.818359" xlink:href="#c"/>
<use x="122.341797" xlink:href="#i"/>
<use x="163.439453" xlink:href="#l"/>
<use x="260.851562" xlink:href="#g"/>
<use x="288.634766" xlink:href="#f"/>
<use x="352.013672" xlink:href="#h"/>
<use x="413.292969" xlink:href="#j"/>
</g>
</g>
<path d="m1520.6 909.68v35.285q0 2.4 2.4 2.4h7.7425q2.4 0 2.4-2.4v-35.285q0-2.4-2.4-2.4h-7.7425q-2.4 0-2.4 2.4z" clip-path="url(#a)" fill="#fff" stroke="#fff"/>
<g clip-path="url(#a)">
<g transform="translate(1524.6 909.68) rotate(90) scale(.08 -.08)">
<use xlink:href="#k"/>
<use x="60.818359" xlink:href="#c"/>
<use x="122.341797" xlink:href="#i"/>
<use x="163.439453" xlink:href="#l"/>
<use x="260.851562" xlink:href="#g"/>
<use x="288.634766" xlink:href="#f"/>
<use x="352.013672" xlink:href="#h"/>
<use x="413.292969" xlink:href="#j"/>
</g>
</g>
<path d="m1565.5 909.68v35.285q0 2.4 2.4 2.4h7.7425q2.4 0 2.4-2.4v-35.285q0-2.4-2.4-2.4h-7.7425q-2.4 0-2.4 2.4z" clip-path="url(#a)" fill="#fff" stroke="#fff"/>
<g clip-path="url(#a)">
<g transform="translate(1569.5 909.68) rotate(90) scale(.08 -.08)">
<use xlink:href="#k"/>
<use x="60.818359" xlink:href="#c"/>
<use x="122.341797" xlink:href="#i"/>
<use x="163.439453" xlink:href="#l"/>
<use x="260.851562" xlink:href="#g"/>
<use x="288.634766" xlink:href="#f"/>
<use x="352.013672" xlink:href="#h"/>
<use x="413.292969" xlink:href="#j"/>
</g>
</g>
<path d="m1665.1 803.91 3.1715-4.5652q1.3693-1.971-0.60171-3.3404l-6.3586-4.4175q-1.971-1.3693-3.3404 0.60171l-3.1715 4.5652q-1.3693 1.971 0.60171 3.3404l6.3586 4.4175q1.971 1.3693 3.3404-0.60171z" clip-path="url(#a)" fill="#fff" stroke="#fff"/>
<g clip-path="url(#a)">
<defs>
<path id="al" d="m44.391 34.188q3.1719-1.0781 6.1719-4.5938t6.0312-9.6719l10.016-19.922h-10.609l-9.3125 18.703q-3.625 7.3281-7.0156 9.7188t-9.25 2.3906h-10.75v-30.812h-9.8594v72.906h22.266q12.5 0 18.656-5.2344 6.1562-5.2188 6.1562-15.766 0-6.8906-3.2031-11.438-3.2031-4.5312-9.2969-6.2812zm-24.719 30.609v-25.875h12.406q7.125 0 10.766 3.2969t3.6406 9.6875-3.6406 9.6406-10.766 3.25z"/>
</defs>
<g transform="translate(1661.8 801.6) rotate(-55.211) scale(.08 -.08)">
<use xlink:href="#al"/>
</g>
</g>
<path d="m1689 802.75 1.833-5.277q0.78751-2.2671-1.4796-3.0546l-7.3138-2.5405q-2.2671-0.78751-3.0546 1.4796l-1.833 5.277q-0.78751 2.2671 1.4796 3.0546l7.3138 2.5405q2.2671 0.78751 3.0546-1.4796z" clip-path="url(#a)" fill="#fff" stroke="#fff"/>
<g clip-path="url(#a)">
<g transform="translate(1685.1 801.42) rotate(-70.845) scale(.08 -.08)">
<use xlink:href="#v"/>
</g>
</g>
<path d="m1700.2 795.13v5.855q0 2.4 2.4 2.4h7.7425q2.4 0 2.4-2.4v-5.855q0-2.4-2.4-2.4h-7.7425q-2.4 0-2.4 2.4z" clip-path="url(#a)" fill="#fff" stroke="#fff"/>
<g clip-path="url(#a)">
<g transform="translate(1704.2 795.13) rotate(90) scale(.08 -.08)">
<use xlink:href="#w"/>
</g>
</g>
<path d="m1722 797.35 1.9212 5.5308q0.78751 2.2671 3.0546 1.4796l7.3138-2.5405q2.2671-0.78751 1.4796-3.0546l-1.9212-5.5308q-0.78751-2.2671-3.0546-1.4796l-7.3138 2.5405q-2.2671 0.78751-1.4796 3.0546z" clip-path="url(#a)" fill="#fff" stroke="#fff"/>
<g clip-path="url(#a)">
<g transform="translate(1725.8 796.01) rotate(70.845) scale(.08 -.08)">
<use xlink:href="#w"/>
</g>
</g>
<path d="m1744.5 799.23 3.3406 4.8085q1.3693 1.971 3.3404 0.60171l6.3586-4.4175q1.971-1.3693 0.60171-3.3404l-3.3406-4.8085q-1.3693-1.971-3.3404-0.60171l-6.3586 4.4175q-1.971 1.3693-0.60171 3.3404z" clip-path="url(#a)" fill="#fff" stroke="#fff"/>
<g clip-path="url(#a)">
<g transform="translate(1747.9 796.91) rotate(55.211) scale(.08 -.08)">
<use xlink:href="#w"/>
</g>
</g>
<path d="m1610.4 909.68v35.285q0 2.4 2.4 2.4h7.7425q2.4 0 2.4-2.4v-35.285q0-2.4-2.4-2.4h-7.7425q-2.4 0-2.4 2.4z" clip-path="url(#a)" fill="#fff" stroke="#fff"/>
<g clip-path="url(#a)">
<g transform="translate(1614.4 909.68) rotate(90) scale(.08 -.08)">
<use xlink:href="#k"/>
<use x="60.818359" xlink:href="#c"/>
<use x="122.341797" xlink:href="#i"/>
<use x="163.439453" xlink:href="#l"/>
<use x="260.851562" xlink:href="#g"/>
<use x="288.634766" xlink:href="#f"/>
<use x="352.013672" xlink:href="#h"/>
<use x="413.292969" xlink:href="#j"/>
</g>
</g>
<path d="m1655.3 909.68v35.285q0 2.4 2.4 2.4h7.7425q2.4 0 2.4-2.4v-35.285q0-2.4-2.4-2.4h-7.7425q-2.4 0-2.4 2.4z" clip-path="url(#a)" fill="#fff" stroke="#fff"/>
<g clip-path="url(#a)">
<g transform="translate(1659.3 909.68) rotate(90) scale(.08 -.08)">
<use xlink:href="#k"/>
<use x="60.818359" xlink:href="#c"/>
<use x="122.341797" xlink:href="#i"/>
<use x="163.439453" xlink:href="#l"/>
<use x="260.851562" xlink:href="#g"/>
<use x="288.634766" xlink:href="#f"/>
<use x="352.013672" xlink:href="#h"/>
<use x="413.292969" xlink:href="#j"/>
</g>
</g>
<path d="m1385.8 909.68v35.285q0 2.4 2.4 2.4h7.7425q2.4 0 2.4-2.4v-35.285q0-2.4-2.4-2.4h-7.7425q-2.4 0-2.4 2.4z" clip-path="url(#a)" fill="#fff" stroke="#fff"/>
<g clip-path="url(#a)">
<g transform="translate(1389.9 909.68) rotate(90) scale(.08 -.08)">
<use xlink:href="#k"/>
<use x="60.818359" xlink:href="#c"/>
<use x="122.341797" xlink:href="#i"/>
<use x="163.439453" xlink:href="#l"/>
<use x="260.851562" xlink:href="#g"/>
<use x="288.634766" xlink:href="#f"/>
<use x="352.013672" xlink:href="#h"/>
<use x="413.292969" xlink:href="#j"/>
</g>
</g>
<path d="m1430.7 909.68v35.285q0 2.4 2.4 2.4h7.7425q2.4 0 2.4-2.4v-35.285q0-2.4-2.4-2.4h-7.7425q-2.4 0-2.4 2.4z" clip-path="url(#a)" fill="#fff" stroke="#fff"/>
<g clip-path="url(#a)">
<g transform="translate(1434.8 909.68) rotate(90) scale(.08 -.08)">
<use xlink:href="#k"/>
<use x="60.818359" xlink:href="#c"/>
<use x="122.341797" xlink:href="#i"/>
<use x="163.439453" xlink:href="#l"/>
<use x="260.851562" xlink:href="#g"/>
<use x="288.634766" xlink:href="#f"/>
<use x="352.013672" xlink:href="#h"/>
<use x="413.292969" xlink:href="#j"/>
</g>
</g>
<path d="m891.92 909.68v35.285q0 2.4 2.4 2.4h7.7425q2.4 0 2.4-2.4v-35.285q0-2.4-2.4-2.4h-7.7425q-2.4 0-2.4 2.4z" clip-path="url(#a)" fill="#fff" stroke="#fff"/>
<g clip-path="url(#a)">
<g transform="translate(895.99 909.68) rotate(90) scale(.08 -.08)">
<use xlink:href="#k"/>
<use x="60.818359" xlink:href="#c"/>
<use x="122.341797" xlink:href="#i"/>
<use x="163.439453" xlink:href="#l"/>
<use x="260.851562" xlink:href="#g"/>
<use x="288.634766" xlink:href="#f"/>
<use x="352.013672" xlink:href="#h"/>
<use x="413.292969" xlink:href="#j"/>
</g>
</g>
<path d="m936.83 909.68v35.285q0 2.4 2.4 2.4h7.7425q2.4 0 2.4-2.4v-35.285q0-2.4-2.4-2.4h-7.7425q-2.4 0-2.4 2.4z" clip-path="url(#a)" fill="#fff" stroke="#fff"/>
<g clip-path="url(#a)">
<g transform="translate(940.89 909.68) rotate(90) scale(.08 -.08)">
<use xlink:href="#k"/>
<use x="60.818359" xlink:href="#c"/>
<use x="122.341797" xlink:href="#i"/>
<use x="163.439453" xlink:href="#l"/>
<use x="260.851562" xlink:href="#g"/>
<use x="288.634766" xlink:href="#f"/>
<use x="352.013672" xlink:href="#h"/>
<use x="413.292969" xlink:href="#j"/>
</g>
</g>
<path d="m1036.5 803.91 3.1715-4.5652q1.3693-1.971-0.60171-3.3404l-6.3586-4.4175q-1.971-1.3693-3.3404 0.60171l-3.1715 4.5652q-1.3693 1.971 0.60171 3.3404l6.3586 4.4175q1.971 1.3693 3.3404-0.60171z" clip-path="url(#a)" fill="#fff" stroke="#fff"/>
<g clip-path="url(#a)">
<g transform="translate(1033.1 801.6) rotate(-55.211) scale(.08 -.08)">
<use xlink:href="#al"/>
</g>
</g>
<path d="m1060.4 802.5 1.6587-4.7751q0.78751-2.2671-1.4796-3.0546l-7.3138-2.5405q-2.2671-0.78751-3.0546 1.4796l-1.6587 4.7751q-0.78751 2.2671 1.4796 3.0546l7.3138 2.5405q2.2671 0.78751 3.0546-1.4796z" clip-path="url(#a)" fill="#fff" stroke="#fff"/>
<g clip-path="url(#a)">
<g transform="translate(1056.6 801.17) rotate(-70.845) scale(.08 -.08)">
<use xlink:href="#u"/>
</g>
</g>
<path d="m1071.5 795.53v5.055q0 2.4 2.4 2.4h7.7425q2.4 0 2.4-2.4v-5.055q0-2.4-2.4-2.4h-7.7425q-2.4 0-2.4 2.4z" clip-path="url(#a)" fill="#fff" stroke="#fff"/>
<g clip-path="url(#a)">
<g transform="translate(1075.6 795.53) rotate(90) scale(.08 -.08)">
<use xlink:href="#u"/>
</g>
</g>
<path d="m1093.5 797.72 1.6587 4.7751q0.78751 2.2671 3.0546 1.4796l7.3138-2.5405q2.2671-0.78751 1.4796-3.0546l-1.6587-4.7751q-0.78751-2.2671-3.0546-1.4796l-7.3138 2.5405q-2.2671 0.78751-1.4796 3.0546z" clip-path="url(#a)" fill="#fff" stroke="#fff"/>
<g clip-path="url(#a)">
<g transform="translate(1097.3 796.39) rotate(70.845) scale(.08 -.08)">
<use xlink:href="#u"/>
</g>
</g>
<path d="m1116 799.34 3.1872 4.5878q1.3693 1.971 3.3404 0.60171l6.3586-4.4175q1.971-1.3693 0.60171-3.3404l-3.1872-4.5878q-1.3693-1.971-3.3404-0.60171l-6.3586 4.4175q-1.971 1.3693-0.60171 3.3404z" clip-path="url(#a)" fill="#fff" stroke="#fff"/>
<g clip-path="url(#a)">
<g transform="translate(1119.3 797.02) rotate(55.211) scale(.08 -.08)">
<use xlink:href="#v"/>
</g>
</g>
<path d="m1206.2 909.68v35.285q0 2.4 2.4 2.4h7.7425q2.4 0 2.4-2.4v-35.285q0-2.4-2.4-2.4h-7.7425q-2.4 0-2.4 2.4z" clip-path="url(#a)" fill="#fff" stroke="#fff"/>
<g clip-path="url(#a)">
<g transform="translate(1210.3 909.68) rotate(90) scale(.08 -.08)">
<use xlink:href="#k"/>
<use x="60.818359" xlink:href="#c"/>
<use x="122.341797" xlink:href="#i"/>
<use x="163.439453" xlink:href="#l"/>
<use x="260.851562" xlink:href="#g"/>
<use x="288.634766" xlink:href="#f"/>
<use x="352.013672" xlink:href="#h"/>
<use x="413.292969" xlink:href="#j"/>
</g>
</g>
<path d="m1251.1 909.68v35.285q0 2.4 2.4 2.4h7.7425q2.4 0 2.4-2.4v-35.285q0-2.4-2.4-2.4h-7.7425q-2.4 0-2.4 2.4z" clip-path="url(#a)" fill="#fff" stroke="#fff"/>
<g clip-path="url(#a)">
<g transform="translate(1255.2 909.68) rotate(90) scale(.08 -.08)">
<use xlink:href="#k"/>
<use x="60.818359" xlink:href="#c"/>
<use x="122.341797" xlink:href="#i"/>
<use x="163.439453" xlink:href="#l"/>
<use x="260.851562" xlink:href="#g"/>
<use x="288.634766" xlink:href="#f"/>
<use x="352.013672" xlink:href="#h"/>
<use x="413.292969" xlink:href="#j"/>
</g>
</g>
<path d="m1296 909.68v35.285q0 2.4 2.4 2.4h7.7425q2.4 0 2.4-2.4v-35.285q0-2.4-2.4-2.4h-7.7425q-2.4 0-2.4 2.4z" clip-path="url(#a)" fill="#fff" stroke="#fff"/>
<g clip-path="url(#a)">
<g transform="translate(1300.1 909.68) rotate(90) scale(.08 -.08)">
<use xlink:href="#k"/>
<use x="60.818359" xlink:href="#c"/>
<use x="122.341797" xlink:href="#i"/>
<use x="163.439453" xlink:href="#l"/>
<use x="260.851562" xlink:href="#g"/>
<use x="288.634766" xlink:href="#f"/>
<use x="352.013672" xlink:href="#h"/>
<use x="413.292969" xlink:href="#j"/>
</g>
</g>
<path d="m981.73 909.68v35.285q0 2.4 2.4 2.4h7.7425q2.4 0 2.4-2.4v-35.285q0-2.4-2.4-2.4h-7.7425q-2.4 0-2.4 2.4z" clip-path="url(#a)" fill="#fff" stroke="#fff"/>
<g clip-path="url(#a)">
<g transform="translate(985.79 909.68) rotate(90) scale(.08 -.08)">
<use xlink:href="#k"/>
<use x="60.818359" xlink:href="#c"/>
<use x="122.341797" xlink:href="#i"/>
<use x="163.439453" xlink:href="#l"/>
<use x="260.851562" xlink:href="#g"/>
<use x="288.634766" xlink:href="#f"/>
<use x="352.013672" xlink:href="#h"/>
<use x="413.292969" xlink:href="#j"/>
</g>
</g>
<path d="m1026.6 909.68v35.285q0 2.4 2.4 2.4h7.7425q2.4 0 2.4-2.4v-35.285q0-2.4-2.4-2.4h-7.7425q-2.4 0-2.4 2.4z" clip-path="url(#a)" fill="#fff" stroke="#fff"/>
<g clip-path="url(#a)">
<g transform="translate(1030.7 909.68) rotate(90) scale(.08 -.08)">
<use xlink:href="#k"/>
<use x="60.818359" xlink:href="#c"/>
<use x="122.341797" xlink:href="#i"/>
<use x="163.439453" xlink:href="#l"/>
<use x="260.851562" xlink:href="#g"/>
<use x="288.634766" xlink:href="#f"/>
<use x="352.013672" xlink:href="#h"/>
<use x="413.292969" xlink:href="#j"/>
</g>
</g>
<path d="m1071.5 909.68v35.285q0 2.4 2.4 2.4h7.7425q2.4 0 2.4-2.4v-35.285q0-2.4-2.4-2.4h-7.7425q-2.4 0-2.4 2.4z" clip-path="url(#a)" fill="#fff" stroke="#fff"/>
<g clip-path="url(#a)">
<g transform="translate(1075.6 909.68) rotate(90) scale(.08 -.08)">
<use xlink:href="#k"/>
<use x="60.818359" xlink:href="#c"/>
<use x="122.341797" xlink:href="#i"/>
<use x="163.439453" xlink:href="#l"/>
<use x="260.851562" xlink:href="#g"/>
<use x="288.634766" xlink:href="#f"/>
<use x="352.013672" xlink:href="#h"/>
<use x="413.292969" xlink:href="#j"/>
</g>
</g>
<path d="m1116.4 909.68v35.285q0 2.4 2.4 2.4h7.7425q2.4 0 2.4-2.4v-35.285q0-2.4-2.4-2.4h-7.7425q-2.4 0-2.4 2.4z" clip-path="url(#a)" fill="#fff" stroke="#fff"/>
<g clip-path="url(#a)">
<g transform="translate(1120.5 909.68) rotate(90) scale(.08 -.08)">
<use xlink:href="#k"/>
<use x="60.818359" xlink:href="#c"/>
<use x="122.341797" xlink:href="#i"/>
<use x="163.439453" xlink:href="#l"/>
<use x="260.851562" xlink:href="#g"/>
<use x="288.634766" xlink:href="#f"/>
<use x="352.013672" xlink:href="#h"/>
<use x="413.292969" xlink:href="#j"/>
</g>
</g>
<path d="m1161.3 909.68v35.285q0 2.4 2.4 2.4h7.7425q2.4 0 2.4-2.4v-35.285q0-2.4-2.4-2.4h-7.7425q-2.4 0-2.4 2.4z" clip-path="url(#a)" fill="#fff" stroke="#fff"/>
<g clip-path="url(#a)">
<g transform="translate(1165.4 909.68) rotate(90) scale(.08 -.08)">
<use xlink:href="#k"/>
<use x="60.818359" xlink:href="#c"/>
<use x="122.341797" xlink:href="#i"/>
<use x="163.439453" xlink:href="#l"/>
<use x="260.851562" xlink:href="#g"/>
<use x="288.634766" xlink:href="#f"/>
<use x="352.013672" xlink:href="#h"/>
<use x="413.292969" xlink:href="#j"/>
</g>
</g>
<path d="m574.46 736.39 1.1329-4.9264q0.5379-2.3389-1.801-2.8768l-7.5455-1.7353q-2.3389-0.5379-2.8768 1.801l-1.1329 4.9264q-0.5379 2.3389 1.801 2.8768l7.5455 1.7353q2.3389 0.5379 2.8768-1.801z" clip-path="url(#a)" fill="#fff" stroke="#fff"/>
<g clip-path="url(#a)">
<g transform="translate(570.5 735.48) rotate(-77.049) scale(.08 -.08)">
<use xlink:href="#u"/>
</g>
</g>
<path d="m597.47 735.67 0.32064-5.577q0.13776-2.396-2.2583-2.5338l-7.7297-0.44441q-2.396-0.13776-2.5338 2.2583l-0.32064 5.577q-0.13776 2.396 2.2583 2.5338l7.7297 0.44441q2.396 0.13776 2.5338-2.2583z" clip-path="url(#a)" fill="#fff" stroke="#fff"/>
<g clip-path="url(#a)">
<g transform="translate(593.41 735.44) rotate(-86.709) scale(.08 -.08)">
<use xlink:href="#v"/>
</g>
</g>
<path d="m629.57 668.8 2.5065 4.3898q1.19 2.0842 3.2742 0.89413l6.7236-3.8391q2.0842-1.19 0.89413-3.2742l-2.5065-4.3898q-1.19-2.0842-3.2742-0.89413l-6.7236 3.8391q-2.0842 1.19-0.89413 3.2742z" clip-path="url(#a)" fill="#fff" stroke="#fff"/>
<g clip-path="url(#a)">
<g transform="translate(633.1 666.79) rotate(60.274) scale(.08 -.08)">
<use xlink:href="#u"/>
</g>
</g>
<path d="m757.22 909.68v35.285q0 2.4 2.4 2.4h7.7425q2.4 0 2.4-2.4v-35.285q0-2.4-2.4-2.4h-7.7425q-2.4 0-2.4 2.4z" clip-path="url(#a)" fill="#fff" stroke="#fff"/>
<g clip-path="url(#a)">
<g transform="translate(761.28 909.68) rotate(90) scale(.08 -.08)">
<use xlink:href="#k"/>
<use x="60.818359" xlink:href="#c"/>
<use x="122.341797" xlink:href="#i"/>
<use x="163.439453" xlink:href="#l"/>
<use x="260.851562" xlink:href="#g"/>
<use x="288.634766" xlink:href="#f"/>
<use x="352.013672" xlink:href="#h"/>
<use x="413.292969" xlink:href="#j"/>
</g>
</g>
<path d="m802.12 909.68v35.285q0 2.4 2.4 2.4h7.7425q2.4 0 2.4-2.4v-35.285q0-2.4-2.4-2.4h-7.7425q-2.4 0-2.4 2.4z" clip-path="url(#a)" fill="#fff" stroke="#fff"/>
<g clip-path="url(#a)">
<g transform="translate(806.18 909.68) rotate(90) scale(.08 -.08)">
<use xlink:href="#k"/>
<use x="60.818359" xlink:href="#c"/>
<use x="122.341797" xlink:href="#i"/>
<use x="163.439453" xlink:href="#l"/>
<use x="260.851562" xlink:href="#g"/>
<use x="288.634766" xlink:href="#f"/>
<use x="352.013672" xlink:href="#h"/>
<use x="413.292969" xlink:href="#j"/>
</g>
</g>
<path d="m532.71 909.68v35.285q0 2.4 2.4 2.4h7.7425q2.4 0 2.4-2.4v-35.285q0-2.4-2.4-2.4h-7.7425q-2.4 0-2.4 2.4z" clip-path="url(#a)" fill="#fff" stroke="#fff"/>
<g clip-path="url(#a)">
<g transform="translate(536.77 909.68) rotate(90) scale(.08 -.08)">
<use xlink:href="#k"/>
<use x="60.818359" xlink:href="#c"/>
<use x="122.341797" xlink:href="#i"/>
<use x="163.439453" xlink:href="#l"/>
<use x="260.851562" xlink:href="#g"/>
<use x="288.634766" xlink:href="#f"/>
<use x="352.013672" xlink:href="#h"/>
<use x="413.292969" xlink:href="#j"/>
</g>
</g>
<path d="m577.61 909.68v35.285q0 2.4 2.4 2.4h7.7425q2.4 0 2.4-2.4v-35.285q0-2.4-2.4-2.4h-7.7425q-2.4 0-2.4 2.4z" clip-path="url(#a)" fill="#fff" stroke="#fff"/>
<g clip-path="url(#a)">
<g transform="translate(581.67 909.68) rotate(90) scale(.08 -.08)">
<use xlink:href="#k"/>
<use x="60.818359" xlink:href="#c"/>
<use x="122.341797" xlink:href="#i"/>
<use x="163.439453" xlink:href="#l"/>
<use x="260.851562" xlink:href="#g"/>
<use x="288.634766" xlink:href="#f"/>
<use x="352.013672" xlink:href="#h"/>
<use x="413.292969" xlink:href="#j"/>
</g>
</g>
<path d="m656.25 802.74 1.824-5.251q0.78751-2.2671-1.4796-3.0546l-7.3138-2.5405q-2.2671-0.78751-3.0546 1.4796l-1.824 5.251q-0.78751 2.2671 1.4796 3.0546l7.3138 2.5405q2.2671 0.78751 3.0546-1.4796z" clip-path="url(#a)" fill="#fff" stroke="#fff"/>
<g clip-path="url(#a)">
<g transform="translate(652.41 801.4) rotate(-70.845) scale(.08 -.08)">
<use xlink:href="#al"/>
</g>
</g>
<path d="m667.41 795.53v5.055q0 2.4 2.4 2.4h7.7425q2.4 0 2.4-2.4v-5.055q0-2.4-2.4-2.4h-7.7425q-2.4 0-2.4 2.4z" clip-path="url(#a)" fill="#fff" stroke="#fff"/>
<g clip-path="url(#a)">
<g transform="translate(671.48 795.53) rotate(90) scale(.08 -.08)">
<use xlink:href="#u"/>
</g>
</g>
<path d="m689.3 797.47 1.833 5.277q0.78751 2.2671 3.0546 1.4796l7.3138-2.5405q2.2671-0.78751 1.4796-3.0546l-1.833-5.277q-0.78751-2.2671-3.0546-1.4796l-7.3138 2.5405q-2.2671 0.78751-1.4796 3.0546z" clip-path="url(#a)" fill="#fff" stroke="#fff"/>
<g clip-path="url(#a)">
<g transform="translate(693.14 796.14) rotate(70.845) scale(.08 -.08)">
<use xlink:href="#v"/>
</g>
</g>
<path d="m622.51 909.68v35.285q0 2.4 2.4 2.4h7.7425q2.4 0 2.4-2.4v-35.285q0-2.4-2.4-2.4h-7.7425q-2.4 0-2.4 2.4z" clip-path="url(#a)" fill="#fff" stroke="#fff"/>
<g clip-path="url(#a)">
<g transform="translate(626.58 909.68) rotate(90) scale(.08 -.08)">
<use xlink:href="#k"/>
<use x="60.818359" xlink:href="#c"/>
<use x="122.341797" xlink:href="#i"/>
<use x="163.439453" xlink:href="#l"/>
<use x="260.851562" xlink:href="#g"/>
<use x="288.634766" xlink:href="#f"/>
<use x="352.013672" xlink:href="#h"/>
<use x="413.292969" xlink:href="#j"/>
</g>
</g>
<path d="m667.41 909.68v35.285q0 2.4 2.4 2.4h7.7425q2.4 0 2.4-2.4v-35.285q0-2.4-2.4-2.4h-7.7425q-2.4 0-2.4 2.4z" clip-path="url(#a)" fill="#fff" stroke="#fff"/>
<g clip-path="url(#a)">
<g transform="translate(671.48 909.68) rotate(90) scale(.08 -.08)">
<use xlink:href="#k"/>
<use x="60.818359" xlink:href="#c"/>
<use x="122.341797" xlink:href="#i"/>
<use x="163.439453" xlink:href="#l"/>
<use x="260.851562" xlink:href="#g"/>
<use x="288.634766" xlink:href="#f"/>
<use x="352.013672" xlink:href="#h"/>
<use x="413.292969" xlink:href="#j"/>
</g>
</g>
<path d="m712.32 909.68v35.285q0 2.4 2.4 2.4h7.7425q2.4 0 2.4-2.4v-35.285q0-2.4-2.4-2.4h-7.7425q-2.4 0-2.4 2.4z" clip-path="url(#a)" fill="#fff" stroke="#fff"/>
<g clip-path="url(#a)">
<g transform="translate(716.38 909.68) rotate(90) scale(.08 -.08)">
<use xlink:href="#k"/>
<use x="60.818359" xlink:href="#c"/>
<use x="122.341797" xlink:href="#i"/>
<use x="163.439453" xlink:href="#l"/>
<use x="260.851562" xlink:href="#g"/>
<use x="288.634766" xlink:href="#f"/>
<use x="352.013672" xlink:href="#h"/>
<use x="413.292969" xlink:href="#j"/>
</g>
</g>
<path d="m263.3 909.68v35.285q0 2.4 2.4 2.4h7.7425q2.4 0 2.4-2.4v-35.285q0-2.4-2.4-2.4h-7.7425q-2.4 0-2.4 2.4z" clip-path="url(#a)" fill="#fff" stroke="#fff"/>
<g clip-path="url(#a)">
<g transform="translate(267.36 909.68) rotate(90) scale(.08 -.08)">
<use xlink:href="#k"/>
<use x="60.818359" xlink:href="#c"/>
<use x="122.341797" xlink:href="#i"/>
<use x="163.439453" xlink:href="#l"/>
<use x="260.851562" xlink:href="#g"/>
<use x="288.634766" xlink:href="#f"/>
<use x="352.013672" xlink:href="#h"/>
<use x="413.292969" xlink:href="#j"/>
</g>
</g>
<path d="m308.2 909.68v35.285q0 2.4 2.4 2.4h7.7425q2.4 0 2.4-2.4v-35.285q0-2.4-2.4-2.4h-7.7425q-2.4 0-2.4 2.4z" clip-path="url(#a)" fill="#fff" stroke="#fff"/>
<g clip-path="url(#a)">
<g transform="translate(312.26 909.68) rotate(90) scale(.08 -.08)">
<use xlink:href="#k"/>
<use x="60.818359" xlink:href="#c"/>
<use x="122.341797" xlink:href="#i"/>
<use x="163.439453" xlink:href="#l"/>
<use x="260.851562" xlink:href="#g"/>
<use x="288.634766" xlink:href="#f"/>
<use x="352.013672" xlink:href="#h"/>
<use x="413.292969" xlink:href="#j"/>
</g>
</g>
<path d="m353.1 909.68v35.285q0 2.4 2.4 2.4h7.7425q2.4 0 2.4-2.4v-35.285q0-2.4-2.4-2.4h-7.7425q-2.4 0-2.4 2.4z" clip-path="url(#a)" fill="#fff" stroke="#fff"/>
<g clip-path="url(#a)">
<g transform="translate(357.16 909.68) rotate(90) scale(.08 -.08)">
<use xlink:href="#k"/>
<use x="60.818359" xlink:href="#c"/>
<use x="122.341797" xlink:href="#i"/>
<use x="163.439453" xlink:href="#l"/>
<use x="260.851562" xlink:href="#g"/>
<use x="288.634766" xlink:href="#f"/>
<use x="352.013672" xlink:href="#h"/>
<use x="413.292969" xlink:href="#j"/>
</g>
</g>
<path d="m398 909.68v35.285q0 2.4 2.4 2.4h7.7425q2.4 0 2.4-2.4v-35.285q0-2.4-2.4-2.4h-7.7425q-2.4 0-2.4 2.4z" clip-path="url(#a)" fill="#fff" stroke="#fff"/>
<g clip-path="url(#a)">
<g transform="translate(402.07 909.68) rotate(90) scale(.08 -.08)">
<use xlink:href="#k"/>
<use x="60.818359" xlink:href="#c"/>
<use x="122.341797" xlink:href="#i"/>
<use x="163.439453" xlink:href="#l"/>
<use x="260.851562" xlink:href="#g"/>
<use x="288.634766" xlink:href="#f"/>
<use x="352.013672" xlink:href="#h"/>
<use x="413.292969" xlink:href="#j"/>
</g>
</g>
<path d="m442.9 909.68v35.285q0 2.4 2.4 2.4h7.7425q2.4 0 2.4-2.4v-35.285q0-2.4-2.4-2.4h-7.7425q-2.4 0-2.4 2.4z" clip-path="url(#a)" fill="#fff" stroke="#fff"/>
<g clip-path="url(#a)">
<g transform="translate(446.97 909.68) rotate(90) scale(.08 -.08)">
<use xlink:href="#k"/>
<use x="60.818359" xlink:href="#c"/>
<use x="122.341797" xlink:href="#i"/>
<use x="163.439453" xlink:href="#l"/>
<use x="260.851562" xlink:href="#g"/>
<use x="288.634766" xlink:href="#f"/>
<use x="352.013672" xlink:href="#h"/>
<use x="413.292969" xlink:href="#j"/>
</g>
</g>
<path d="m83.689 909.68v35.285q0 2.4 2.4 2.4h7.7425q2.4 0 2.4-2.4v-35.285q0-2.4-2.4-2.4h-7.7425q-2.4 0-2.4 2.4z" clip-path="url(#a)" fill="#fff" stroke="#fff"/>
<g clip-path="url(#a)">
<g transform="translate(87.752 909.68) rotate(90) scale(.08 -.08)">
<use xlink:href="#k"/>
<use x="60.818359" xlink:href="#c"/>
<use x="122.341797" xlink:href="#i"/>
<use x="163.439453" xlink:href="#l"/>
<use x="260.851562" xlink:href="#g"/>
<use x="288.634766" xlink:href="#f"/>
<use x="352.013672" xlink:href="#h"/>
<use x="413.292969" xlink:href="#j"/>
</g>
</g>
<path d="m173.49 909.68v35.285q0 2.4 2.4 2.4h7.7425q2.4 0 2.4-2.4v-35.285q0-2.4-2.4-2.4h-7.7425q-2.4 0-2.4 2.4z" clip-path="url(#a)" fill="#fff" stroke="#fff"/>
<g clip-path="url(#a)">
<g transform="translate(177.56 909.68) rotate(90) scale(.08 -.08)">
<use xlink:href="#k"/>
<use x="60.818359" xlink:href="#c"/>
<use x="122.341797" xlink:href="#i"/>
<use x="163.439453" xlink:href="#l"/>
<use x="260.851562" xlink:href="#g"/>
<use x="288.634766" xlink:href="#f"/>
<use x="352.013672" xlink:href="#h"/>
<use x="413.292969" xlink:href="#j"/>
</g>
</g>
<path d="m128.59 909.68v35.285q0 2.4 2.4 2.4h7.7425q2.4 0 2.4-2.4v-35.285q0-2.4-2.4-2.4h-7.7425q-2.4 0-2.4 2.4z" clip-path="url(#a)" fill="#fff" stroke="#fff"/>
<g clip-path="url(#a)">
<g transform="translate(132.65 909.68) rotate(90) scale(.08 -.08)">
<use xlink:href="#k"/>
<use x="60.818359" xlink:href="#c"/>
<use x="122.341797" xlink:href="#i"/>
<use x="163.439453" xlink:href="#l"/>
<use x="260.851562" xlink:href="#g"/>
<use x="288.634766" xlink:href="#f"/>
<use x="352.013672" xlink:href="#h"/>
<use x="413.292969" xlink:href="#j"/>
</g>
</g>
<path d="m218.39 909.68v35.285q0 2.4 2.4 2.4h7.7425q2.4 0 2.4-2.4v-35.285q0-2.4-2.4-2.4h-7.7425q-2.4 0-2.4 2.4z" clip-path="url(#a)" fill="#fff" stroke="#fff"/>
<g clip-path="url(#a)">
<g transform="translate(222.46 909.68) rotate(90) scale(.08 -.08)">
<use xlink:href="#k"/>
<use x="60.818359" xlink:href="#c"/>
<use x="122.341797" xlink:href="#i"/>
<use x="163.439453" xlink:href="#l"/>
<use x="260.851562" xlink:href="#g"/>
<use x="288.634766" xlink:href="#f"/>
<use x="352.013672" xlink:href="#h"/>
<use x="413.292969" xlink:href="#j"/>
</g>
</g>
<path d="m487.81 909.68v35.285q0 2.4 2.4 2.4h7.7425q2.4 0 2.4-2.4v-35.285q0-2.4-2.4-2.4h-7.7425q-2.4 0-2.4 2.4z" clip-path="url(#a)" fill="#fff" stroke="#fff"/>
<g clip-path="url(#a)">
<g transform="translate(491.87 909.68) rotate(90) scale(.08 -.08)">
<use xlink:href="#k"/>
<use x="60.818359" xlink:href="#c"/>
<use x="122.341797" xlink:href="#i"/>
<use x="163.439453" xlink:href="#l"/>
<use x="260.851562" xlink:href="#g"/>
<use x="288.634766" xlink:href="#f"/>
<use x="352.013672" xlink:href="#h"/>
<use x="413.292969" xlink:href="#j"/>
</g>
</g>
<path d="m1340.9 909.68v35.285q0 2.4 2.4 2.4h7.7425q2.4 0 2.4-2.4v-35.285q0-2.4-2.4-2.4h-7.7425q-2.4 0-2.4 2.4z" clip-path="url(#a)" fill="#fff" stroke="#fff"/>
<g clip-path="url(#a)">
<g transform="translate(1345 909.68) rotate(90) scale(.08 -.08)">
<use xlink:href="#k"/>
<use x="60.818359" xlink:href="#c"/>
<use x="122.341797" xlink:href="#i"/>
<use x="163.439453" xlink:href="#l"/>
<use x="260.851562" xlink:href="#g"/>
<use x="288.634766" xlink:href="#f"/>
<use x="352.013672" xlink:href="#h"/>
<use x="413.292969" xlink:href="#j"/>
</g>
</g>
<path d="m1700.2 909.68v35.285q0 2.4 2.4 2.4h7.7425q2.4 0 2.4-2.4v-35.285q0-2.4-2.4-2.4h-7.7425q-2.4 0-2.4 2.4z" clip-path="url(#a)" fill="#fff" stroke="#fff"/>
<g clip-path="url(#a)">
<g transform="translate(1704.2 909.68) rotate(90) scale(.08 -.08)">
<use xlink:href="#k"/>
<use x="60.818359" xlink:href="#c"/>
<use x="122.341797" xlink:href="#i"/>
<use x="163.439453" xlink:href="#l"/>
<use x="260.851562" xlink:href="#g"/>
<use x="288.634766" xlink:href="#f"/>
<use x="352.013672" xlink:href="#h"/>
<use x="413.292969" xlink:href="#j"/>
</g>
</g>
<path d="m1745.1 909.68v35.285q0 2.4 2.4 2.4h7.7425q2.4 0 2.4-2.4v-35.285q0-2.4-2.4-2.4h-7.7425q-2.4 0-2.4 2.4z" clip-path="url(#a)" fill="#fff" stroke="#fff"/>
<g clip-path="url(#a)">
<g transform="translate(1749.1 909.68) rotate(90) scale(.08 -.08)">
<use xlink:href="#k"/>
<use x="60.818359" xlink:href="#c"/>
<use x="122.341797" xlink:href="#i"/>
<use x="163.439453" xlink:href="#l"/>
<use x="260.851562" xlink:href="#g"/>
<use x="288.634766" xlink:href="#f"/>
<use x="352.013672" xlink:href="#h"/>
<use x="413.292969" xlink:href="#j"/>
</g>
</g>
<path d="m1790 909.68v35.285q0 2.4 2.4 2.4h7.7425q2.4 0 2.4-2.4v-35.285q0-2.4-2.4-2.4h-7.7425q-2.4 0-2.4 2.4z" clip-path="url(#a)" fill="#fff" stroke="#fff"/>
<g clip-path="url(#a)">
<g transform="translate(1794 909.68) rotate(90) scale(.08 -.08)">
<use xlink:href="#k"/>
<use x="60.818359" xlink:href="#c"/>
<use x="122.341797" xlink:href="#i"/>
<use x="163.439453" xlink:href="#l"/>
<use x="260.851562" xlink:href="#g"/>
<use x="288.634766" xlink:href="#f"/>
<use x="352.013672" xlink:href="#h"/>
<use x="413.292969" xlink:href="#j"/>
</g>
</g>
<defs>
<path id="b" d="m0 8.6603c2.2967 0 4.4997-0.9125 6.1237-2.5365 1.624-1.624 2.5365-3.827 2.5365-6.1237s-0.9125-4.4997-2.5365-6.1237c-1.624-1.624-3.827-2.5365-6.1237-2.5365s-4.4997 0.9125-6.1237 2.5365c-1.624 1.624-2.5365 3.827-2.5365 6.1237s0.9125 4.4997 2.5365 6.1237c1.624 1.624 3.827 2.5365 6.1237 2.5365z"/>
</defs>
<g clip-path="url(#a)">
<use x="89.959873" y="991.952251" fill="#ffffff" stroke="#ffffff" xlink:href="#b"/>
</g>
<g clip-path="url(#a)">
<use x="134.861879" y="991.952251" fill="#ffffff" stroke="#ffffff" xlink:href="#b"/>
</g>
<g clip-path="url(#a)">
<use x="179.763885" y="991.952251" fill="#ffffff" stroke="#ffffff" xlink:href="#b"/>
</g>
<g clip-path="url(#a)">
<use x="224.665892" y="991.952251" fill="#ffffff" stroke="#ffffff" xlink:href="#b"/>
</g>
<g clip-path="url(#a)">
<use x="269.567898" y="991.952251" fill="#ffffff" stroke="#ffffff" xlink:href="#b"/>
</g>
<g clip-path="url(#a)">
<use x="314.469905" y="991.952251" fill="#ffffff" stroke="#ffffff" xlink:href="#b"/>
</g>
<g clip-path="url(#a)">
<use x="359.371911" y="991.952251" fill="#ffffff" stroke="#ffffff" xlink:href="#b"/>
</g>
<g clip-path="url(#a)">
<use x="404.273917" y="991.952251" fill="#ffffff" stroke="#ffffff" xlink:href="#b"/>
</g>
<g clip-path="url(#a)">
<use x="449.175924" y="991.952251" fill="#ffffff" stroke="#ffffff" xlink:href="#b"/>
</g>
<g clip-path="url(#a)">
<use x="494.07793" y="991.952251" fill="#ffffff" stroke="#ffffff" xlink:href="#b"/>
</g>
<g clip-path="url(#a)">
<use x="538.979936" y="991.952251" fill="#ffffff" stroke="#ffffff" xlink:href="#b"/>
</g>
<g clip-path="url(#a)">
<use x="583.881943" y="991.952251" fill="#ffffff" stroke="#ffffff" xlink:href="#b"/>
</g>
<g clip-path="url(#a)">
<use x="628.783949" y="991.952251" fill="#ffffff" stroke="#ffffff" xlink:href="#b"/>
</g>
<g clip-path="url(#a)">
<use x="673.685955" y="991.952251" fill="#ffffff" stroke="#ffffff" xlink:href="#b"/>
</g>
<g clip-path="url(#a)">
<use x="718.587962" y="991.952251" fill="#ffffff" stroke="#ffffff" xlink:href="#b"/>
</g>
<g clip-path="url(#a)">
<use x="763.489968" y="991.952251" fill="#ffffff" stroke="#ffffff" xlink:href="#b"/>
</g>
<g clip-path="url(#a)">
<use x="808.391975" y="991.952251" fill="#ffffff" stroke="#ffffff" xlink:href="#b"/>
</g>
<g clip-path="url(#a)">
<use x="853.293981" y="991.952251" fill="#ffffff" stroke="#ffffff" xlink:href="#b"/>
</g>
<g clip-path="url(#a)">
<use x="898.195987" y="991.952251" fill="#ffffff" stroke="#ffffff" xlink:href="#b"/>
</g>
<g clip-path="url(#a)">
<use x="943.097994" y="991.952251" fill="#ffffff" stroke="#ffffff" xlink:href="#b"/>
</g>
<g clip-path="url(#a)">
<use x="988" y="991.952251" fill="#ffffff" stroke="#ffffff" xlink:href="#b"/>
</g>
<g clip-path="url(#a)">
<use x="1032.902006" y="991.952251" fill="#ffffff" stroke="#ffffff" xlink:href="#b"/>
</g>
<g clip-path="url(#a)">
<use x="1077.804013" y="991.952251" fill="#ffffff" stroke="#ffffff" xlink:href="#b"/>
</g>
<g clip-path="url(#a)">
<use x="1122.706019" y="991.952251" fill="#ffffff" stroke="#ffffff" xlink:href="#b"/>
</g>
<g clip-path="url(#a)">
<use x="1167.608025" y="991.952251" fill="#ffffff" stroke="#ffffff" xlink:href="#b"/>
</g>
<g clip-path="url(#a)">
<use x="1212.510032" y="991.952251" fill="#ffffff" stroke="#ffffff" xlink:href="#b"/>
</g>
<g clip-path="url(#a)">
<use x="1257.412038" y="991.952251" fill="#ffffff" stroke="#ffffff" xlink:href="#b"/>
</g>
<g clip-path="url(#a)">
<use x="1302.314045" y="991.952251" fill="#ffffff" stroke="#ffffff" xlink:href="#b"/>
</g>
<g clip-path="url(#a)">
<use x="1347.216051" y="991.952251" fill="#ffffff" stroke="#ffffff" xlink:href="#b"/>
</g>
<g clip-path="url(#a)">
<use x="1392.118057" y="991.952251" fill="#ffffff" stroke="#ffffff" xlink:href="#b"/>
</g>
<g clip-path="url(#a)">
<use x="1437.020064" y="991.952251" fill="#ffffff" stroke="#ffffff" xlink:href="#b"/>
</g>
<g clip-path="url(#a)">
<use x="1481.92207" y="991.952251" fill="#ffffff" stroke="#ffffff" xlink:href="#b"/>
</g>
<g clip-path="url(#a)">
<use x="1526.824076" y="991.952251" fill="#ffffff" stroke="#ffffff" xlink:href="#b"/>
</g>
<g clip-path="url(#a)">
<use x="1571.726083" y="991.952251" fill="#ffffff" stroke="#ffffff" xlink:href="#b"/>
</g>
<g clip-path="url(#a)">
<use x="1616.628089" y="991.952251" fill="#ffffff" stroke="#ffffff" xlink:href="#b"/>
</g>
<g clip-path="url(#a)">
<use x="1661.530095" y="991.952251" fill="#ffffff" stroke="#ffffff" xlink:href="#b"/>
</g>
<g clip-path="url(#a)">
<use x="1706.432102" y="991.952251" fill="#ffffff" stroke="#ffffff" xlink:href="#b"/>
</g>
<g clip-path="url(#a)">
<use x="1751.334108" y="991.952251" fill="#ffffff" stroke="#ffffff" xlink:href="#b"/>
</g>
<g clip-path="url(#a)">
<use x="1796.236115" y="991.952251" fill="#ffffff" stroke="#ffffff" xlink:href="#b"/>
</g>
<g clip-path="url(#a)">
<use x="1487.251709" y="48.047749" fill="#ffffff" stroke="#ffffff" xlink:href="#b"/>
</g>
<g clip-path="url(#a)">
<use x="1487.251709" y="192.027136" fill="#ffffff" stroke="#ffffff" xlink:href="#b"/>
</g>
<g clip-path="url(#a)">
<use x="1886.040127" y="991.952251" fill="#ffffff" stroke="#ffffff" xlink:href="#b"/>
</g>
<g clip-path="url(#a)">
<use x="1841.138121" y="991.952251" fill="#ffffff" stroke="#ffffff" xlink:href="#b"/>
</g>
<g clip-path="url(#a)">
<use x="734.576877" y="332.136755" fill="#ffffff" stroke="#ffffff" xlink:href="#b"/>
</g>
<g clip-path="url(#a)">
<use x="134.861879" y="733.420453" fill="#ffffff" stroke="#ffffff" xlink:href="#b"/>
</g>
<g clip-path="url(#a)">
<use x="359.371911" y="733.420453" fill="#ffffff" stroke="#ffffff" xlink:href="#b"/>
</g>
<g clip-path="url(#a)">
<use x="643.751285" y="468.768453" fill="#ffffff" stroke="#ffffff" xlink:href="#b"/>
</g>
<g clip-path="url(#a)">
<use x="853.293981" y="862.686352" fill="#ffffff" stroke="#ffffff" xlink:href="#b"/>
</g>
<g clip-path="url(#a)">
<use x="1013.658289" y="602.356322" fill="#ffffff" stroke="#ffffff" xlink:href="#b"/>
</g>
<g clip-path="url(#a)">
<use x="1540.294678" y="602.356322" fill="#ffffff" stroke="#ffffff" xlink:href="#b"/>
</g>
<g clip-path="url(#a)">
<use x="1414.56906" y="733.420453" fill="#ffffff" stroke="#ffffff" xlink:href="#b"/>
</g>
<g clip-path="url(#a)">
<use x="1481.92207" y="862.686352" fill="#ffffff" stroke="#ffffff" xlink:href="#b"/>
</g>
<g clip-path="url(#a)">
<use x="1526.824076" y="862.686352" fill="#ffffff" stroke="#ffffff" xlink:href="#b"/>
</g>
<g clip-path="url(#a)">
<use x="1571.726083" y="862.686352" fill="#ffffff" stroke="#ffffff" xlink:href="#b"/>
</g>
<g clip-path="url(#a)">
<use x="1706.432102" y="733.420453" fill="#ffffff" stroke="#ffffff" xlink:href="#b"/>
</g>
<g clip-path="url(#a)">
<use x="1616.628089" y="862.686352" fill="#ffffff" stroke="#ffffff" xlink:href="#b"/>
</g>
<g clip-path="url(#a)">
<use x="1661.530095" y="862.686352" fill="#ffffff" stroke="#ffffff" xlink:href="#b"/>
</g>
<g clip-path="url(#a)">
<use x="1392.118057" y="862.686352" fill="#ffffff" stroke="#ffffff" xlink:href="#b"/>
</g>
<g clip-path="url(#a)">
<use x="1437.020064" y="862.686352" fill="#ffffff" stroke="#ffffff" xlink:href="#b"/>
</g>
<g clip-path="url(#a)">
<use x="898.195987" y="862.686352" fill="#ffffff" stroke="#ffffff" xlink:href="#b"/>
</g>
<g clip-path="url(#a)">
<use x="943.097994" y="862.686352" fill="#ffffff" stroke="#ffffff" xlink:href="#b"/>
</g>
<g clip-path="url(#a)">
<use x="1077.804013" y="733.420453" fill="#ffffff" stroke="#ffffff" xlink:href="#b"/>
</g>
<g clip-path="url(#a)">
<use x="1212.510032" y="862.686352" fill="#ffffff" stroke="#ffffff" xlink:href="#b"/>
</g>
<g clip-path="url(#a)">
<use x="1257.412038" y="862.686352" fill="#ffffff" stroke="#ffffff" xlink:href="#b"/>
</g>
<g clip-path="url(#a)">
<use x="1302.314045" y="862.686352" fill="#ffffff" stroke="#ffffff" xlink:href="#b"/>
</g>
<g clip-path="url(#a)">
<use x="988" y="862.686352" fill="#ffffff" stroke="#ffffff" xlink:href="#b"/>
</g>
<g clip-path="url(#a)">
<use x="1032.902006" y="862.686352" fill="#ffffff" stroke="#ffffff" xlink:href="#b"/>
</g>
<g clip-path="url(#a)">
<use x="1077.804013" y="862.686352" fill="#ffffff" stroke="#ffffff" xlink:href="#b"/>
</g>
<g clip-path="url(#a)">
<use x="1122.706019" y="862.686352" fill="#ffffff" stroke="#ffffff" xlink:href="#b"/>
</g>
<g clip-path="url(#a)">
<use x="1167.608025" y="862.686352" fill="#ffffff" stroke="#ffffff" xlink:href="#b"/>
</g>
<g clip-path="url(#a)">
<use x="598.849278" y="602.356322" fill="#ffffff" stroke="#ffffff" xlink:href="#b"/>
</g>
<g clip-path="url(#a)">
<use x="763.489968" y="862.686352" fill="#ffffff" stroke="#ffffff" xlink:href="#b"/>
</g>
<g clip-path="url(#a)">
<use x="808.391975" y="862.686352" fill="#ffffff" stroke="#ffffff" xlink:href="#b"/>
</g>
<g clip-path="url(#a)">
<use x="538.979936" y="862.686352" fill="#ffffff" stroke="#ffffff" xlink:href="#b"/>
</g>
<g clip-path="url(#a)">
<use x="583.881943" y="862.686352" fill="#ffffff" stroke="#ffffff" xlink:href="#b"/>
</g>
<g clip-path="url(#a)">
<use x="673.685955" y="733.420453" fill="#ffffff" stroke="#ffffff" xlink:href="#b"/>
</g>
<g clip-path="url(#a)">
<use x="628.783949" y="862.686352" fill="#ffffff" stroke="#ffffff" xlink:href="#b"/>
</g>
<g clip-path="url(#a)">
<use x="673.685955" y="862.686352" fill="#ffffff" stroke="#ffffff" xlink:href="#b"/>
</g>
<g clip-path="url(#a)">
<use x="718.587962" y="862.686352" fill="#ffffff" stroke="#ffffff" xlink:href="#b"/>
</g>
<g clip-path="url(#a)">
<use x="269.567898" y="862.686352" fill="#ffffff" stroke="#ffffff" xlink:href="#b"/>
</g>
<g clip-path="url(#a)">
<use x="314.469905" y="862.686352" fill="#ffffff" stroke="#ffffff" xlink:href="#b"/>
</g>
<g clip-path="url(#a)">
<use x="359.371911" y="862.686352" fill="#ffffff" stroke="#ffffff" xlink:href="#b"/>
</g>
<g clip-path="url(#a)">
<use x="404.273917" y="862.686352" fill="#ffffff" stroke="#ffffff" xlink:href="#b"/>
</g>
<g clip-path="url(#a)">
<use x="449.175924" y="862.686352" fill="#ffffff" stroke="#ffffff" xlink:href="#b"/>
</g>
<g clip-path="url(#a)">
<use x="89.959873" y="862.686352" fill="#ffffff" stroke="#ffffff" xlink:href="#b"/>
</g>
<g clip-path="url(#a)">
<use x="179.763885" y="862.686352" fill="#ffffff" stroke="#ffffff" xlink:href="#b"/>
</g>
<g clip-path="url(#a)">
<use x="134.861879" y="862.686352" fill="#ffffff" stroke="#ffffff" xlink:href="#b"/>
</g>
<g clip-path="url(#a)">
<use x="224.665892" y="862.686352" fill="#ffffff" stroke="#ffffff" xlink:href="#b"/>
</g>
<g clip-path="url(#a)">
<use x="494.07793" y="862.686352" fill="#ffffff" stroke="#ffffff" xlink:href="#b"/>
</g>
<g clip-path="url(#a)">
<use x="1347.216051" y="862.686352" fill="#ffffff" stroke="#ffffff" xlink:href="#b"/>
</g>
<g clip-path="url(#a)">
<use x="1706.432102" y="862.686352" fill="#ffffff" stroke="#ffffff" xlink:href="#b"/>
</g>
<g clip-path="url(#a)">
<use x="1751.334108" y="862.686352" fill="#ffffff" stroke="#ffffff" xlink:href="#b"/>
</g>
<g clip-path="url(#a)">
<use x="1796.236115" y="862.686352" fill="#ffffff" stroke="#ffffff" xlink:href="#b"/>
</g>
<g clip-path="url(#a)">
<defs>
<path id="at" d="m9.0781 75.984h9.0312v-44.875l26.812 23.578h11.469l-29-25.578 30.234-29.109h-11.719l-27.797 26.703v-26.703h-9.0312z"/>
</defs>
<g transform="translate(73.908 994.71) scale(.1 -.1)">
<use xlink:href="#ac"/>
<use x="77.001953" xlink:href="#h"/>
<use x="138.28125" xlink:href="#f"/>
<use x="201.660156" xlink:href="#at"/>
<use x="259.523438" xlink:href="#c"/>
</g>
</g>
<g clip-path="url(#a)">
<defs>
<path id="ar" d="m11.719 12.406h10.297v-8.4062l-8-15.625h-6.2969l4 15.625z"/>
</defs>
<g transform="translate(133.27 994.71) scale(.1 -.1)">
<use xlink:href="#ar"/>
</g>
</g>
<g clip-path="url(#a)">
<defs>
<path id="bb" d="m30.609 48.391q-7.2188 0-11.422-5.6406t-4.2031-15.453 4.1719-15.453q4.1875-5.6406 11.453-5.6406 7.1875 0 11.375 5.6562 4.2031 5.6719 4.2031 15.438 0 9.7188-4.2031 15.406-4.1875 5.6875-11.375 5.6875zm0 7.6094q11.719 0 18.406-7.625 6.7031-7.6094 6.7031-21.078 0-13.422-6.7031-21.078-6.6875-7.6406-18.406-7.6406-11.766 0-18.438 7.6406-6.6562 7.6562-6.6562 21.078 0 13.469 6.6562 21.078 6.6719 7.625 18.438 7.625z"/>
<path id="q" d="m44.281 53.078v-8.5q-3.7969 1.9531-7.9062 2.9219-4.0938 0.98438-8.5 0.98438-6.6875 0-10.031-2.0469t-3.3438-6.1562q0-3.125 2.3906-4.9062t9.625-3.3906l3.0781-0.6875q9.5625-2.0469 13.594-5.7812t4.0312-10.422q0-7.625-6.0312-12.078-6.0312-4.4375-16.578-4.4375-4.3906 0-9.1562 0.85938t-10.031 2.5625v9.2812q4.9844-2.5938 9.8125-3.8906 4.8281-1.2812 9.5781-1.2812 6.3438 0 9.75 2.1719 3.4219 2.1719 3.4219 6.125 0 3.6562-2.4688 5.6094-2.4531 1.9531-10.812 3.7656l-3.125 0.73438q-8.3438 1.75-12.062 5.3906-3.7031 3.6406-3.7031 9.9844 0 7.7188 5.4688 11.906 5.4688 4.2031 15.531 4.2031 4.9688 0 9.3594-0.73438 4.4062-0.71875 8.1094-2.1875z"/>
</defs>
<g transform="translate(161.58 994.71) scale(.1 -.1)">
<use xlink:href="#v"/>
<use x="69.824219" xlink:href="#bb"/>
<use x="131.005859" xlink:href="#f"/>
<use x="194.384766" xlink:href="#q"/>
<use x="246.484375" xlink:href="#c"/>
<use x="308.007812" xlink:href="#g"/>
<use x="335.791016" xlink:href="#j"/>
</g>
</g>
<g clip-path="url(#a)">
<defs>
<path id="e" d="m10.688 12.406h10.312v-12.406h-10.312z"/>
</defs>
<g transform="translate(223.08 994.71) scale(.1 -.1)">
<use xlink:href="#e"/>
</g>
</g>
<g clip-path="url(#a)">
<defs>
<path id="ap" d="m9.8125 72.906h13.281l32.328-60.984v60.984h9.5625v-72.906h-13.281l-32.312 60.984v-60.984h-9.5781z"/>
<path id="z" d="m8.5 21.578v33.109h8.9844v-32.766q0-7.7656 3.0156-11.656 3.0312-3.875 9.0938-3.875 7.2656 0 11.484 4.6406 4.2344 4.6406 4.2344 12.656v31h8.9844v-54.688h-8.9844v8.4062q-3.2656-4.9844-7.5938-7.4062-4.3125-2.4219-10.031-2.4219-9.4219 0-14.312 5.8594-4.875 5.8594-4.875 17.141z"/>
</defs>
<g transform="translate(260.6 994.71) scale(.1 -.1)">
<use xlink:href="#ap"/>
<use x="74.804688" xlink:href="#z"/>
<use x="138.183594" xlink:href="#i"/>
</g>
</g>
<g clip-path="url(#a)">
<defs>
<path id="ax" d="m9.0781 55.516q0 9.7656 5.8281 15.109 5.8438 5.3594 16.484 5.3594 10.156 0 15.5-5.6719 5.3594-5.6562 5.5-16.594-7.375-0.39062-11.484-3.2031-4.0938-2.8125-4.0938-7.5 0-2.2969 1.4219-4.2812 1.4219-1.9688 4.5938-4.0156l2.7812-1.8125q8.1094-5.1719 10.453-8.6406t2.3438-8.3438q0-8.4062-5.5-12.875t-15.797-4.4688q-3.125 0-6.4531 0.60938-3.3125 0.60938-6.875 1.7969v8q3.9062-1.4688 7.3125-2.1719 3.4219-0.70312 6.6094-0.70312 5.6562 0 8.5781 2.3125 2.9375 2.3281 2.9375 6.7656 0 3.0781-1.4375 5.125t-6.375 5.0781l-4.4844 2.6875q-4.6875 2.875-6.8125 6.1719t-2.125 7.75q0 6.1875 4.0781 10.391t11.438 5.625q-0.39062 5.0156-3.5938 7.75-3.1875 2.7344-8.7031 2.7344-6.3438 0-9.6719-3.3906-3.3125-3.3906-3.3125-9.7812v-55.328h-9.1406z"/>
</defs>
<g transform="translate(303.28 994.71) scale(.1 -.1)">
<use xlink:href="#l"/>
<use x="97.412109" xlink:href="#z"/>
<use x="160.791016" xlink:href="#ax"/>
</g>
</g>
<g clip-path="url(#a)">
<defs>
<path id="t" d="m48.781 52.594v-8.4062q-3.8125 2.1094-7.6406 3.1562t-7.7344 1.0469q-8.75 0-13.594-5.5469-4.8281-5.5312-4.8281-15.547t4.8281-15.562q4.8438-5.5312 13.594-5.5312 3.9062 0 7.7344 1.0469t7.6406 3.1562v-8.3125q-3.7656-1.75-7.7969-2.625-4.0156-0.89062-8.5625-0.89062-12.359 0-19.641 7.7656-7.2656 7.7656-7.2656 20.953 0 13.375 7.3438 21.031 7.3594 7.6719 20.156 7.6719 4.1406 0 8.0938-0.85938 3.9531-0.84375 7.6719-2.5469z"/>
<path id="s" d="m54.891 33.016v-33.016h-8.9844v32.719q0 7.7656-3.0312 11.609-3.0312 3.8594-9.0781 3.8594-7.2812 0-11.484-4.6406-4.2031-4.625-4.2031-12.641v-30.906h-9.0312v75.984h9.0312v-29.797q3.2344 4.9375 7.5938 7.375 4.375 2.4375 10.094 2.4375 9.4219 0 14.25-5.8281 4.8438-5.8281 4.8438-17.156z"/>
</defs>
<g transform="translate(352.06 994.71) scale(.1 -.1)">
<use xlink:href="#g"/>
<use x="27.783203" xlink:href="#t"/>
<use x="82.763672" xlink:href="#s"/>
</g>
</g>
<g clip-path="url(#a)">
<defs>
<path id="aa" d="m45.406 46.391v29.594h8.9844v-75.984h-8.9844v8.2031q-2.8281-4.875-7.1562-7.25-4.3125-2.375-10.375-2.375-9.9062 0-16.141 7.9062-6.2188 7.9219-6.2188 20.812t6.2188 20.797q6.2344 7.9062 16.141 7.9062 6.0625 0 10.375-2.375 4.3281-2.3594 7.1562-7.2344zm-30.609-19.094q0-9.9062 4.0781-15.547t11.203-5.6406 11.219 5.6406q4.1094 5.6406 4.1094 15.547t-4.1094 15.547q-4.0938 5.6406-11.219 5.6406t-11.203-5.6406-4.0781-15.547z"/>
</defs>
<g transform="translate(393.79 994.71) scale(.1 -.1)">
<use xlink:href="#aa"/>
<use x="63.476562" xlink:href="#g"/>
<use x="91.259766" xlink:href="#t"/>
<use x="146.240234" xlink:href="#s"/>
</g>
</g>
<g clip-path="url(#a)">
<defs>
<path id="ai" d="m48.688 27.297q0 9.9062-4.0781 15.547t-11.203 5.6406q-7.1406 0-11.219-5.6406t-4.0781-15.547 4.0781-15.547 11.219-5.6406q7.125 0 11.203 5.6406t4.0781 15.547zm-30.578 19.094q2.8438 4.875 7.1562 7.2344 4.3281 2.375 10.328 2.375 9.9688 0 16.188-7.9062 6.2344-7.9062 6.2344-20.797t-6.2344-20.812q-6.2188-7.9062-16.188-7.9062-6 0-10.328 2.375-4.3125 2.375-7.1562 7.25v-8.2031h-9.0312v75.984h9.0312z"/>
<path id="ag" d="m18.312 70.219v-15.531h18.5v-6.9844h-18.5v-29.688q0-6.6875 1.8281-8.5938t7.4531-1.9062h9.2188v-7.5156h-9.2188q-10.406 0-14.359 3.875-3.9531 3.8906-3.9531 14.141v29.688h-6.5938v6.9844h6.5938v15.531z"/>
</defs>
<g transform="translate(434.45 994.71) scale(.1 -.1)">
<use xlink:href="#ai"/>
<use x="63.476562" xlink:href="#g"/>
<use x="91.259766" xlink:href="#ag"/>
<use x="130.46875" xlink:href="#ag"/>
<use x="169.677734" xlink:href="#c"/>
<use x="231.201172" xlink:href="#f"/>
</g>
</g>
<g clip-path="url(#a)">
<g transform="translate(492.49 994.71) scale(.1 -.1)">
<use xlink:href="#ar"/>
</g>
</g>
<g clip-path="url(#a)">
<g transform="translate(531.34 994.71) scale(.1 -.1)">
<use xlink:href="#aa"/>
<use x="63.476562" xlink:href="#g"/>
<use x="91.259766" xlink:href="#c"/>
</g>
</g>
<g clip-path="url(#a)">
<defs>
<path id="ao" d="m45.406 27.984q0 9.7656-4.0312 15.125-4.0156 5.375-11.297 5.375-7.2188 0-11.25-5.375-4.0312-5.3594-4.0312-15.125 0-9.7188 4.0312-15.094t11.25-5.375q7.2812 0 11.297 5.375 4.0312 5.375 4.0312 15.094zm8.9844-21.203q0-13.953-6.2031-20.766-6.1875-6.8125-18.984-6.8125-4.7344 0-8.9375 0.70312t-8.1562 2.1719v8.7344q3.9531-2.1406 7.8125-3.1562 3.8594-1.0312 7.8594-1.0312 8.8438 0 13.234 4.6094t4.3906 13.938v4.4531q-2.7812-4.8438-7.125-7.2344t-10.406-2.3906q-10.047 0-16.203 7.6562-6.1562 7.6719-6.1562 20.328 0 12.688 6.1562 20.344 6.1562 7.6719 16.203 7.6719 6.0625 0 10.406-2.3906t7.125-7.2188v8.2969h8.9844z"/>
</defs>
<g transform="translate(569.64 994.71) scale(.1 -.1)">
<use xlink:href="#an"/>
<use x="57.410156" xlink:href="#i"/>
<use x="98.523438" xlink:href="#h"/>
<use x="159.802734" xlink:href="#ao"/>
<use x="223.279297" xlink:href="#c"/>
</g>
</g>
<g clip-path="url(#a)">
<g transform="translate(619.93 994.71) scale(.1 -.1)">
<use xlink:href="#aa"/>
<use x="63.476562" xlink:href="#c"/>
<use x="125" xlink:href="#q"/>
</g>
</g>
<g clip-path="url(#a)">
<defs>
<path id="bc" d="m9.4219 54.688h8.9844v-55.672q0-10.438-3.9844-15.125-3.9688-4.6875-12.812-4.6875h-3.4219v7.6094h2.4062q5.125 0 6.9688 2.375 1.8594 2.3594 1.8594 9.8281zm0 21.297h8.9844v-11.391h-8.9844z"/>
</defs>
<g transform="translate(651.42 994.71) scale(.1 -.1)">
<use xlink:href="#ap"/>
<use x="74.804688" xlink:href="#c"/>
<use x="136.328125" xlink:href="#z"/>
<use x="199.707031" xlink:href="#bc"/>
<use x="227.490234" xlink:href="#h"/>
<use x="288.769531" xlink:href="#s"/>
<use x="352.148438" xlink:href="#i"/>
<use x="393.261719" xlink:href="#q"/>
</g>
</g>
<g clip-path="url(#a)">
<g transform="translate(692.07 994.71) scale(.1 -.1)">
<use xlink:href="#ao"/>
<use x="63.476562" xlink:href="#c"/>
<use x="125" xlink:href="#q"/>
<use x="177.099609" xlink:href="#t"/>
<use x="232.080078" xlink:href="#s"/>
<use x="295.458984" xlink:href="#c"/>
<use x="356.982422" xlink:href="#f"/>
<use x="420.361328" xlink:href="#at"/>
<use x="478.271484" xlink:href="#q"/>
</g>
</g>
<g clip-path="url(#a)">
<defs>
<path id="ak" d="m5.5156 54.688h42.672v-8.2031l-33.781-39.312h33.781v-7.1719h-43.891v8.2031l33.797 39.312h-32.578z"/>
</defs>
<g transform="translate(757.7 994.71) scale(.1 -.1)">
<use xlink:href="#ak"/>
<use x="52.490234" xlink:href="#z"/>
</g>
</g>
<g clip-path="url(#a)">
<defs>
<path id="ba" d="m2.9844 54.688h9.5156l17.094-45.891 17.094 45.891h9.5156l-20.516-54.688h-12.203z"/>
</defs>
<g transform="translate(777.89 994.71) scale(.1 -.1)">
<use xlink:href="#ba"/>
<use x="59.179688" xlink:href="#c"/>
<use x="120.703125" xlink:href="#i"/>
<use x="161.816406" xlink:href="#q"/>
<use x="213.916016" xlink:href="#t"/>
<use x="268.896484" xlink:href="#s"/>
<use x="332.275391" xlink:href="#g"/>
<use x="360.058594" xlink:href="#c"/>
<use x="421.582031" xlink:href="#ai"/>
<use x="485.058594" xlink:href="#c"/>
<use x="546.582031" xlink:href="#f"/>
</g>
</g>
<g clip-path="url(#a)">
<g transform="translate(843.78 994.71) scale(.1 -.1)">
<use xlink:href="#z"/>
<use x="63.378906" xlink:href="#f"/>
<use x="126.757812" xlink:href="#aa"/>
</g>
</g>
<g clip-path="url(#a)">
<g transform="translate(892.51 994.71) scale(.1 -.1)">
<use xlink:href="#c"/>
<use x="61.523438" xlink:href="#q"/>
</g>
</g>
<g clip-path="url(#a)">
<defs>
<path id="as" d="m4.2031 54.688h8.9844l11.234-42.672 11.172 42.672h10.594l11.234-42.672 11.188 42.672h8.9844l-14.312-54.688h-10.594l-11.766 44.828-11.812-44.828h-10.609z"/>
</defs>
<g transform="translate(914.71 994.71) scale(.1 -.1)">
<use xlink:href="#c"/>
<use x="61.523438" xlink:href="#g"/>
<use x="89.306641" xlink:href="#f"/>
<use x="152.685547" xlink:href="#q"/>
<use x="204.785156" xlink:href="#ag"/>
<use x="243.994141" xlink:href="#as"/>
<use x="325.78125" xlink:href="#c"/>
<use x="387.304688" xlink:href="#g"/>
<use x="415.087891" xlink:href="#j"/>
<use x="442.871094" xlink:href="#c"/>
<use x="504.394531" xlink:href="#f"/>
</g>
</g>
<g clip-path="url(#a)">
<g transform="translate(973.69 994.71) scale(.1 -.1)">
<use xlink:href="#aa"/>
<use x="63.476562" xlink:href="#z"/>
<use x="126.855469" xlink:href="#i"/>
<use x="167.9375" xlink:href="#t"/>
<use x="222.917969" xlink:href="#s"/>
</g>
</g>
<g clip-path="url(#a)">
<g transform="translate(1019 994.71) scale(.1 -.1)">
<use xlink:href="#c"/>
<use x="61.523438" xlink:href="#g"/>
<use x="89.306641" xlink:href="#f"/>
<use x="152.685547" xlink:href="#c"/>
<use x="214.208984" xlink:href="#f"/>
</g>
</g>
<g clip-path="url(#a)">
<g transform="translate(1051.9 994.71) scale(.1 -.1)">
<use xlink:href="#s"/>
<use x="63.378906" xlink:href="#c"/>
<use x="124.902344" xlink:href="#i"/>
<use x="166.015625" xlink:href="#ak"/>
<use x="218.505859" xlink:href="#j"/>
<use x="246.289062" xlink:href="#g"/>
<use x="274.072266" xlink:href="#t"/>
<use x="329.052734" xlink:href="#s"/>
<use x="392.431641" xlink:href="#c"/>
<use x="453.955078" xlink:href="#f"/>
</g>
</g>
<g clip-path="url(#a)">
<g transform="translate(1109.5 994.71) scale(.1 -.1)">
<use xlink:href="#y"/>
<use x="75.195312" xlink:href="#h"/>
<use x="136.474609" xlink:href="#f"/>
<use x="199.853516" xlink:href="#aa"/>
</g>
</g>
<g clip-path="url(#a)">
<g transform="translate(1151.5 994.71) scale(.1 -.1)">
<use xlink:href="#q"/>
<use x="52.099609" xlink:href="#t"/>
<use x="107.080078" xlink:href="#s"/>
<use x="170.458984" xlink:href="#j"/>
<use x="198.242188" xlink:href="#h"/>
<use x="259.521484" xlink:href="#ao"/>
</g>
</g>
<g clip-path="url(#a)">
<g transform="translate(1190.9 994.71) scale(.1 -.1)">
<use xlink:href="#c"/>
<use x="61.523438" xlink:href="#i"/>
<use x="102.636719" xlink:href="#q"/>
<use x="154.736328" xlink:href="#c"/>
<use x="216.259766" xlink:href="#ag"/>
<use x="255.46875" xlink:href="#ak"/>
<use x="307.958984" xlink:href="#c"/>
<use x="369.482422" xlink:href="#f"/>
</g>
</g>
<g clip-path="url(#a)">
<g transform="translate(1251.6 994.71) scale(.1 -.1)">
<use xlink:href="#ak"/>
<use x="52.490234" xlink:href="#z"/>
</g>
</g>
<g clip-path="url(#a)">
<g transform="translate(1286.4 994.71) scale(.1 -.1)">
<use xlink:href="#j"/>
<use x="27.783203" xlink:href="#h"/>
<use x="89.0625" xlink:href="#q"/>
<use x="141.162109" xlink:href="#q"/>
<use x="193.261719" xlink:href="#c"/>
<use x="254.785156" xlink:href="#f"/>
</g>
</g>
<g clip-path="url(#a)">
<g transform="translate(1345.6 994.71) scale(.1 -.1)">
<use xlink:href="#e"/>
</g>
</g>
<g clip-path="url(#a)">
<g transform="translate(1377.2 994.71) scale(.1 -.1)">
<use xlink:href="#u"/>
<use x="63.183594" xlink:href="#ag"/>
<use x="102.392578" xlink:href="#as"/>
<use x="184.179688" xlink:href="#h"/>
<use x="245.458984" xlink:href="#q"/>
</g>
</g>
<g clip-path="url(#a)">
<g transform="translate(1416.8 994.71) scale(.1 -.1)">
<use xlink:href="#h"/>
<use x="61.279297" xlink:href="#f"/>
<use x="124.658203" xlink:href="#aa"/>
<use x="188.134766" xlink:href="#c"/>
<use x="249.658203" xlink:href="#i"/>
<use x="290.740234" xlink:href="#c"/>
<use x="352.263672" xlink:href="#q"/>
</g>
</g>
<g clip-path="url(#a)">
<defs>
<path id="aw" d="m17.922 72.906v-27.109h-8.2969v27.109z"/>
</defs>
<g transform="translate(1471.1 994.71) scale(.1 -.1)">
<use xlink:href="#s"/>
<use x="63.378906" xlink:href="#h"/>
<use x="124.658203" xlink:href="#ai"/>
<use x="188.134766" xlink:href="#aw"/>
</g>
</g>
<g clip-path="url(#a)">
<g transform="translate(1519.5 994.71) scale(.1 -.1)">
<use xlink:href="#g"/>
<use x="27.783203" xlink:href="#t"/>
<use x="82.763672" xlink:href="#s"/>
</g>
</g>
<g clip-path="url(#a)">
<g transform="translate(1559.3 994.71) scale(.1 -.1)">
<use xlink:href="#f"/>
<use x="63.378906" xlink:href="#g"/>
<use x="91.162109" xlink:href="#t"/>
<use x="146.142578" xlink:href="#s"/>
<use x="209.521484" xlink:href="#ag"/>
</g>
</g>
<g clip-path="url(#a)">
<g transform="translate(1609 994.71) scale(.1 -.1)">
<use xlink:href="#ai"/>
<use x="63.476562" xlink:href="#c"/>
<use x="125" xlink:href="#g"/>
</g>
</g>
<g clip-path="url(#a)">
<g transform="translate(1653.2 994.71) scale(.1 -.1)">
<use xlink:href="#l"/>
<use x="97.412109" xlink:href="#g"/>
<use x="125.195312" xlink:href="#i"/>
</g>
</g>
<g clip-path="url(#a)">
<g transform="translate(1704.8 994.71) scale(.1 -.1)">
<use xlink:href="#e"/>
</g>
</g>
<g clip-path="url(#a)">
<defs>
<path id="az" d="m51.812 51.703v-9.3125l-14.703-13.094 14.703-13.078v-9.3281l-22.906 20.406v4zm-21.203 0v-9.3125l-14.688-13.094 14.688-13.078v-9.3281l-22.891 20.406v4z"/>
</defs>
<g transform="translate(1748.3 994.71) scale(.1 -.1)">
<use xlink:href="#az"/>
</g>
</g>
<g clip-path="url(#a)">
<defs>
<path id="ay" d="m9.4219 51.703 22.906-20.406v-4l-22.906-20.406v9.3281l14.703 13.078-14.703 13.094zm21.188 0 22.906-20.406v-4l-22.906-20.406v9.3281l14.703 13.078-14.703 13.094z"/>
</defs>
<g transform="translate(1793.2 994.71) scale(.1 -.1)">
<use xlink:href="#ay"/>
</g>
</g>
<g clip-path="url(#a)">
<defs>
<path id="d" d="m12.406 8.2969h16.109v55.625l-17.531-3.5156v8.9844l17.438 3.5156h9.8594v-64.609h16.109v-8.2969h-41.984z"/>
</defs>
<g transform="translate(1479.3 50.807) scale(.1 -.1)">
<use xlink:href="#d"/>
<use x="63.623047" xlink:href="#e"/>
<use x="95.410156" xlink:href="#d"/>
</g>
</g>
<g clip-path="url(#a)">
<defs>
<path id="m" d="m19.188 8.2969h34.422v-8.2969h-46.281v8.2969q5.6094 5.8125 15.297 15.594 9.7031 9.7969 12.188 12.641 4.7344 5.3125 6.6094 9 1.8906 3.6875 1.8906 7.25 0 5.8125-4.0781 9.4688-4.0781 3.6719-10.625 3.6719-4.6406 0-9.7969-1.6094-5.1406-1.6094-11-4.8906v9.9688q5.9531 2.3906 11.125 3.6094 5.1875 1.2188 9.4844 1.2188 11.328 0 18.062-5.6719 6.7344-5.6562 6.7344-15.125 0-4.5-1.6875-8.5312-1.6719-4.0156-6.125-9.4844-1.2188-1.4219-7.7656-8.1875-6.5312-6.7656-18.453-18.922z"/>
</defs>
<g transform="translate(1479.3 194.79) scale(.1 -.1)">
<use xlink:href="#d"/>
<use x="63.623047" xlink:href="#e"/>
<use x="95.410156" xlink:href="#m"/>
</g>
</g>
<g clip-path="url(#a)">
<defs>
<path id="ab" d="m9.8125 72.906h9.8594v-72.906h-9.8594z"/>
<path id="aq" d="m9.8125 72.906h14.703l18.594-49.609 18.703 49.609h14.703v-72.906h-9.625v64.016l-18.797-50h-9.9062l-18.797 50v-64.016h-9.5781z"/>
</defs>
<g transform="translate(1865 994.71) scale(.1 -.1)">
<use xlink:href="#ab"/>
<use x="29.492188" xlink:href="#aq"/>
<use x="115.771484" xlink:href="#x"/>
<use x="176.074219" xlink:href="#am"/>
<use x="231.787109" xlink:href="#ab"/>
<use x="261.279297" xlink:href="#v"/>
<use x="331.103516" xlink:href="#ab"/>
<use x="360.595703" xlink:href="#k"/>
</g>
</g>
<g clip-path="url(#a)">
<g transform="translate(1820.1 994.71) scale(.1 -.1)">
<use xlink:href="#ab"/>
<use x="29.492188" xlink:href="#aq"/>
<use x="115.771484" xlink:href="#x"/>
<use x="176.074219" xlink:href="#am"/>
<use x="231.787109" xlink:href="#ab"/>
<use x="261.279297" xlink:href="#v"/>
<use x="331.103516" xlink:href="#ab"/>
<use x="360.595703" xlink:href="#k"/>
</g>
</g>
<g clip-path="url(#a)">
<defs>
<path id="ae" d="m31.781 34.625q-7.0312 0-11.062-3.7656-4.0156-3.7656-4.0156-10.344 0-6.5938 4.0156-10.359 4.0312-3.7656 11.062-3.7656t11.078 3.7812q4.0625 3.7969 4.0625 10.344 0 6.5781-4.0312 10.344-4.0156 3.7656-11.109 3.7656zm-9.8594 4.1875q-6.3438 1.5625-9.8906 5.9062-3.5312 4.3594-3.5312 10.609 0 8.7344 6.2188 13.812 6.2344 5.0781 17.062 5.0781 10.891 0 17.094-5.0781t6.2031-13.812q0-6.25-3.5469-10.609-3.5312-4.3438-9.8281-5.9062 7.125-1.6562 11.094-6.5 3.9844-4.8281 3.9844-11.797 0-10.609-6.4688-16.281-6.4688-5.6562-18.531-5.6562-12.047 0-18.531 5.6562-6.4688 5.6719-6.4688 16.281 0 6.9688 4 11.797 4.0156 4.8438 11.141 6.5zm-3.6094 15.578q0-5.6562 3.5312-8.8281 3.5469-3.1719 9.9375-3.1719 6.3594 0 9.9375 3.1719 3.5938 3.1719 3.5938 8.8281 0 5.6719-3.5938 8.8438-3.5781 3.1719-9.9375 3.1719-6.3906 0-9.9375-3.1719-3.5312-3.1719-3.5312-8.8438z"/>
</defs>
<g transform="translate(726.63 334.9) scale(.1 -.1)">
<use xlink:href="#d"/>
<use x="63.623047" xlink:href="#e"/>
<use x="95.410156" xlink:href="#ae"/>
</g>
</g>
<g clip-path="url(#a)">
<defs>
<path id="ad" d="m10.984 1.5156v8.9844q3.7188-1.7656 7.5156-2.6875 3.8125-0.92188 7.4844-0.92188 9.7656 0 14.906 6.5625 5.1562 6.5625 5.8906 19.953-2.8281-4.2031-7.1875-6.4531-4.3438-2.25-9.6094-2.25-10.938 0-17.312 6.6094-6.375 6.625-6.375 18.109 0 11.219 6.6406 18 6.6406 6.7969 17.672 6.7969 12.656 0 19.312-9.7031 6.6719-9.6875 6.6719-28.141 0-17.234-8.1875-27.516-8.1719-10.281-21.984-10.281-3.7188 0-7.5312 0.73438-3.7969 0.73438-7.9062 2.2031zm19.625 30.906q6.6406 0 10.516 4.5312 3.8906 4.5469 3.8906 12.469 0 7.8594-3.8906 12.422-3.875 4.5625-10.516 4.5625t-10.516-4.5625-3.875-12.422q0-7.9219 3.875-12.469 3.875-4.5312 10.516-4.5312z"/>
</defs>
<g transform="translate(126.91 736.18) scale(.1 -.1)">
<use xlink:href="#d"/>
<use x="63.623047" xlink:href="#e"/>
<use x="95.410156" xlink:href="#ad"/>
</g>
</g>
<g clip-path="url(#a)">
<defs>
<path id="af" d="m31.781 66.406q-7.6094 0-11.453-7.5-3.8281-7.4844-3.8281-22.531 0-14.984 3.8281-22.484 3.8438-7.5 11.453-7.5 7.6719 0 11.5 7.5 3.8438 7.5 3.8438 22.484 0 15.047-3.8438 22.531-3.8281 7.5-11.5 7.5zm0 7.8125q12.266 0 18.734-9.7031 6.4688-9.6875 6.4688-28.141 0-18.406-6.4688-28.109-6.4688-9.6875-18.734-9.6875-12.25 0-18.719 9.6875-6.4688 9.7031-6.4688 28.109 0 18.453 6.4688 28.141 6.4688 9.7031 18.719 9.7031z"/>
</defs>
<g transform="translate(348.24 736.18) scale(.1 -.1)">
<use xlink:href="#d"/>
<use x="63.623047" xlink:href="#e"/>
<use x="95.410156" xlink:href="#d"/>
<use x="159.033203" xlink:href="#af"/>
</g>
</g>
<g clip-path="url(#a)">
<g transform="translate(632.62 471.53) scale(.1 -.1)">
<use xlink:href="#d"/>
<use x="63.623047" xlink:href="#e"/>
<use x="95.410156" xlink:href="#d"/>
<use x="159.033203" xlink:href="#d"/>
</g>
</g>
<g clip-path="url(#a)">
<g transform="translate(842.16 865.45) scale(.1 -.1)">
<use xlink:href="#d"/>
<use x="63.623047" xlink:href="#e"/>
<use x="95.410156" xlink:href="#d"/>
<use x="159.033203" xlink:href="#m"/>
</g>
</g>
<g clip-path="url(#a)">
<defs>
<path id="o" d="m40.578 39.312q7.0781-1.5156 11.047-6.3125 3.9844-4.7812 3.9844-11.812 0-10.781-7.4219-16.703-7.4219-5.9062-21.094-5.9062-4.5781 0-9.4375 0.90625t-10.031 2.7188v9.5156q4.0938-2.3906 8.9688-3.6094 4.8906-1.2188 10.219-1.2188 9.2656 0 14.125 3.6562t4.8594 10.641q0 6.4531-4.5156 10.078-4.5156 3.6406-12.562 3.6406h-8.5v8.1094h8.8906q7.2656 0 11.125 2.9062t3.8594 8.375q0 5.6094-3.9844 8.6094-3.9688 3.0156-11.391 3.0156-4.0625 0-8.7031-0.89062-4.6406-0.875-10.203-2.7188v8.7812q5.625 1.5625 10.531 2.3438t9.25 0.78125q11.234 0 17.766-5.1094 6.5469-5.0938 6.5469-13.781 0-6.0625-3.4688-10.234t-9.8594-5.7812z"/>
</defs>
<g transform="translate(1002.5 605.12) scale(.1 -.1)">
<use xlink:href="#d"/>
<use x="63.623047" xlink:href="#e"/>
<use x="95.410156" xlink:href="#d"/>
<use x="159.033203" xlink:href="#o"/>
</g>
</g>
<g clip-path="url(#a)">
<defs>
<path id="n" d="m37.797 64.312-24.906-38.922h24.906zm-2.5938 8.5938h12.406v-47.516h10.406v-8.2031h-10.406v-17.188h-9.8125v17.188h-32.906v9.5156z"/>
</defs>
<g transform="translate(1529.2 605.12) scale(.1 -.1)">
<use xlink:href="#d"/>
<use x="63.623047" xlink:href="#e"/>
<use x="95.410156" xlink:href="#d"/>
<use x="159.033203" xlink:href="#n"/>
</g>
</g>
<g clip-path="url(#a)">
<g transform="translate(1403.4 736.18) scale(.1 -.1)">
<use xlink:href="#d"/>
<use x="63.623047" xlink:href="#e"/>
<use x="95.410156" xlink:href="#d"/>
<use x="159.033203" xlink:href="#ae"/>
</g>
</g>
<g clip-path="url(#a)">
<g transform="translate(1470.8 865.45) scale(.1 -.1)">
<use xlink:href="#d"/>
<use x="63.623047" xlink:href="#e"/>
<use x="95.410156" xlink:href="#d"/>
<use x="159.033203" xlink:href="#ad"/>
</g>
</g>
<g clip-path="url(#a)">
<g transform="translate(1515.7 865.45) scale(.1 -.1)">
<use xlink:href="#d"/>
<use x="63.623047" xlink:href="#e"/>
<use x="95.410156" xlink:href="#m"/>
<use x="159.033203" xlink:href="#af"/>
</g>
</g>
<g clip-path="url(#a)">
<g transform="translate(1560.6 865.45) scale(.1 -.1)">
<use xlink:href="#d"/>
<use x="63.623047" xlink:href="#e"/>
<use x="95.410156" xlink:href="#m"/>
<use x="159.033203" xlink:href="#d"/>
</g>
</g>
<g clip-path="url(#a)">
<g transform="translate(1695.3 736.18) scale(.1 -.1)">
<use xlink:href="#d"/>
<use x="63.623047" xlink:href="#e"/>
<use x="95.410156" xlink:href="#m"/>
<use x="159.033203" xlink:href="#m"/>
</g>
</g>
<g clip-path="url(#a)">
<g transform="translate(1605.5 865.45) scale(.1 -.1)">
<use xlink:href="#d"/>
<use x="63.623047" xlink:href="#e"/>
<use x="95.410156" xlink:href="#m"/>
<use x="159.033203" xlink:href="#o"/>
</g>
</g>
<g clip-path="url(#a)">
<g transform="translate(1650.4 865.45) scale(.1 -.1)">
<use xlink:href="#d"/>
<use x="63.623047" xlink:href="#e"/>
<use x="95.410156" xlink:href="#m"/>
<use x="159.033203" xlink:href="#n"/>
</g>
</g>
<g clip-path="url(#a)">
<defs>
<path id="p" d="m10.797 72.906h38.719v-8.3125h-29.688v-17.859q2.1406 0.73438 4.2812 1.0938 2.1562 0.35938 4.3125 0.35938 12.203 0 19.328-6.6875 7.1406-6.6875 7.1406-18.109 0-11.766-7.3281-18.297-7.3281-6.5156-20.656-6.5156-4.5938 0-9.3594 0.78125-4.75 0.78125-9.8281 2.3438v9.9219q4.3906-2.3906 9.0781-3.5625t9.9062-1.1719q8.4531 0 13.375 4.4375 4.9375 4.4375 4.9375 12.062 0 7.6094-4.9375 12.047-4.9219 4.4531-13.375 4.4531-3.9531 0-7.8906-0.875-3.9219-0.875-8.0156-2.7344z"/>
</defs>
<g transform="translate(1381 865.45) scale(.1 -.1)">
<use xlink:href="#d"/>
<use x="63.623047" xlink:href="#e"/>
<use x="95.410156" xlink:href="#m"/>
<use x="159.033203" xlink:href="#p"/>
</g>
</g>
<g clip-path="url(#a)">
<defs>
<path id="ah" d="m33.016 40.375q-6.6406 0-10.531-4.5469-3.875-4.5312-3.875-12.438 0-7.8594 3.875-12.438 3.8906-4.5625 10.531-4.5625t10.516 4.5625q3.875 4.5781 3.875 12.438 0 7.9062-3.875 12.438-3.875 4.5469-10.516 4.5469zm19.578 30.922v-8.9844q-3.7188 1.75-7.5 2.6719-3.7812 0.9375-7.5 0.9375-9.7656 0-14.922-6.5938-5.1406-6.5938-5.875-19.922 2.875 4.25 7.2188 6.5156 4.3594 2.2656 9.5781 2.2656 10.984 0 17.359-6.6719 6.375-6.6562 6.375-18.125 0-11.234-6.6406-18.031-6.6406-6.7812-17.672-6.7812-12.656 0-19.344 9.6875-6.6875 9.7031-6.6875 28.109 0 17.281 8.2031 27.562t22.016 10.281q3.7188 0 7.5-0.73438t7.8906-2.1875z"/>
</defs>
<g transform="translate(1425.9 865.45) scale(.1 -.1)">
<use xlink:href="#d"/>
<use x="63.623047" xlink:href="#e"/>
<use x="95.410156" xlink:href="#m"/>
<use x="159.033203" xlink:href="#ah"/>
</g>
</g>
<g clip-path="url(#a)">
<defs>
<path id="aj" d="m8.2031 72.906h46.875v-4.2031l-26.469-68.703h-10.297l24.906 64.594h-35.016z"/>
</defs>
<g transform="translate(887.06 865.45) scale(.1 -.1)">
<use xlink:href="#d"/>
<use x="63.623047" xlink:href="#e"/>
<use x="95.410156" xlink:href="#m"/>
<use x="159.033203" xlink:href="#aj"/>
</g>
</g>
<g clip-path="url(#a)">
<g transform="translate(931.97 865.45) scale(.1 -.1)">
<use xlink:href="#d"/>
<use x="63.623047" xlink:href="#e"/>
<use x="95.410156" xlink:href="#m"/>
<use x="159.033203" xlink:href="#ae"/>
</g>
</g>
<g clip-path="url(#a)">
<g transform="translate(1066.7 736.18) scale(.1 -.1)">
<use xlink:href="#d"/>
<use x="63.623047" xlink:href="#e"/>
<use x="95.410156" xlink:href="#m"/>
<use x="159.033203" xlink:href="#ad"/>
</g>
</g>
<g clip-path="url(#a)">
<g transform="translate(1201.4 865.45) scale(.1 -.1)">
<use xlink:href="#d"/>
<use x="63.623047" xlink:href="#e"/>
<use x="95.410156" xlink:href="#o"/>
<use x="159.033203" xlink:href="#af"/>
</g>
</g>
<g clip-path="url(#a)">
<g transform="translate(1246.3 865.45) scale(.1 -.1)">
<use xlink:href="#d"/>
<use x="63.623047" xlink:href="#e"/>
<use x="95.410156" xlink:href="#o"/>
<use x="159.033203" xlink:href="#d"/>
</g>
</g>
<g clip-path="url(#a)">
<g transform="translate(1291.2 865.45) scale(.1 -.1)">
<use xlink:href="#d"/>
<use x="63.623047" xlink:href="#e"/>
<use x="95.410156" xlink:href="#o"/>
<use x="159.033203" xlink:href="#m"/>
</g>
</g>
<g clip-path="url(#a)">
<g transform="translate(976.87 865.45) scale(.1 -.1)">
<use xlink:href="#d"/>
<use x="63.623047" xlink:href="#e"/>
<use x="95.410156" xlink:href="#o"/>
<use x="159.033203" xlink:href="#o"/>
</g>
</g>
<g clip-path="url(#a)">
<g transform="translate(1021.8 865.45) scale(.1 -.1)">
<use xlink:href="#d"/>
<use x="63.623047" xlink:href="#e"/>
<use x="95.410156" xlink:href="#o"/>
<use x="159.033203" xlink:href="#n"/>
</g>
</g>
<g clip-path="url(#a)">
<g transform="translate(1066.7 865.45) scale(.1 -.1)">
<use xlink:href="#d"/>
<use x="63.623047" xlink:href="#e"/>
<use x="95.410156" xlink:href="#o"/>
<use x="159.033203" xlink:href="#p"/>
</g>
</g>
<g clip-path="url(#a)">
<g transform="translate(1111.6 865.45) scale(.1 -.1)">
<use xlink:href="#d"/>
<use x="63.623047" xlink:href="#e"/>
<use x="95.410156" xlink:href="#o"/>
<use x="159.033203" xlink:href="#ah"/>
</g>
</g>
<g clip-path="url(#a)">
<g transform="translate(1156.5 865.45) scale(.1 -.1)">
<use xlink:href="#d"/>
<use x="63.623047" xlink:href="#e"/>
<use x="95.410156" xlink:href="#o"/>
<use x="159.033203" xlink:href="#aj"/>
</g>
</g>
<g clip-path="url(#a)">
<g transform="translate(587.72 605.12) scale(.1 -.1)">
<use xlink:href="#d"/>
<use x="63.623047" xlink:href="#e"/>
<use x="95.410156" xlink:href="#o"/>
<use x="159.033203" xlink:href="#ae"/>
</g>
</g>
<g clip-path="url(#a)">
<g transform="translate(752.36 865.45) scale(.1 -.1)">
<use xlink:href="#d"/>
<use x="63.623047" xlink:href="#e"/>
<use x="95.410156" xlink:href="#o"/>
<use x="159.033203" xlink:href="#ad"/>
</g>
</g>
<g clip-path="url(#a)">
<g transform="translate(797.26 865.45) scale(.1 -.1)">
<use xlink:href="#d"/>
<use x="63.623047" xlink:href="#e"/>
<use x="95.410156" xlink:href="#n"/>
<use x="159.033203" xlink:href="#af"/>
</g>
</g>
<g clip-path="url(#a)">
<g transform="translate(527.85 865.45) scale(.1 -.1)">
<use xlink:href="#d"/>
<use x="63.623047" xlink:href="#e"/>
<use x="95.410156" xlink:href="#n"/>
<use x="159.033203" xlink:href="#d"/>
</g>
</g>
<g clip-path="url(#a)">
<g transform="translate(572.75 865.45) scale(.1 -.1)">
<use xlink:href="#d"/>
<use x="63.623047" xlink:href="#e"/>
<use x="95.410156" xlink:href="#n"/>
<use x="159.033203" xlink:href="#m"/>
</g>
</g>
<g clip-path="url(#a)">
<g transform="translate(662.55 736.18) scale(.1 -.1)">
<use xlink:href="#d"/>
<use x="63.623047" xlink:href="#e"/>
<use x="95.410156" xlink:href="#n"/>
<use x="159.033203" xlink:href="#o"/>
</g>
</g>
<g clip-path="url(#a)">
<g transform="translate(617.65 865.45) scale(.1 -.1)">
<use xlink:href="#d"/>
<use x="63.623047" xlink:href="#e"/>
<use x="95.410156" xlink:href="#n"/>
<use x="159.033203" xlink:href="#n"/>
</g>
</g>
<g clip-path="url(#a)">
<g transform="translate(662.55 865.45) scale(.1 -.1)">
<use xlink:href="#d"/>
<use x="63.623047" xlink:href="#e"/>
<use x="95.410156" xlink:href="#n"/>
<use x="159.033203" xlink:href="#p"/>
</g>
</g>
<g clip-path="url(#a)">
<g transform="translate(707.46 865.45) scale(.1 -.1)">
<use xlink:href="#d"/>
<use x="63.623047" xlink:href="#e"/>
<use x="95.410156" xlink:href="#n"/>
<use x="159.033203" xlink:href="#ah"/>
</g>
</g>
<g clip-path="url(#a)">
<g transform="translate(258.44 865.45) scale(.1 -.1)">
<use xlink:href="#d"/>
<use x="63.623047" xlink:href="#e"/>
<use x="95.410156" xlink:href="#n"/>
<use x="159.033203" xlink:href="#aj"/>
</g>
</g>
<g clip-path="url(#a)">
<g transform="translate(303.34 865.45) scale(.1 -.1)">
<use xlink:href="#d"/>
<use x="63.623047" xlink:href="#e"/>
<use x="95.410156" xlink:href="#n"/>
<use x="159.033203" xlink:href="#ae"/>
</g>
</g>
<g clip-path="url(#a)">
<g transform="translate(348.24 865.45) scale(.1 -.1)">
<use xlink:href="#d"/>
<use x="63.623047" xlink:href="#e"/>
<use x="95.410156" xlink:href="#n"/>
<use x="159.033203" xlink:href="#ad"/>
</g>
</g>
<g clip-path="url(#a)">
<g transform="translate(393.14 865.45) scale(.1 -.1)">
<use xlink:href="#d"/>
<use x="63.623047" xlink:href="#e"/>
<use x="95.410156" xlink:href="#p"/>
<use x="159.033203" xlink:href="#af"/>
</g>
</g>
<g clip-path="url(#a)">
<g transform="translate(438.04 865.45) scale(.1 -.1)">
<use xlink:href="#d"/>
<use x="63.623047" xlink:href="#e"/>
<use x="95.410156" xlink:href="#p"/>
<use x="159.033203" xlink:href="#d"/>
</g>
</g>
<g clip-path="url(#a)">
<g transform="translate(78.827 865.45) scale(.1 -.1)">
<use xlink:href="#d"/>
<use x="63.623047" xlink:href="#e"/>
<use x="95.410156" xlink:href="#p"/>
<use x="159.033203" xlink:href="#m"/>
</g>
</g>
<g clip-path="url(#a)">
<g transform="translate(168.63 865.45) scale(.1 -.1)">
<use xlink:href="#d"/>
<use x="63.623047" xlink:href="#e"/>
<use x="95.410156" xlink:href="#p"/>
<use x="159.033203" xlink:href="#o"/>
</g>
</g>
<g clip-path="url(#a)">
<g transform="translate(123.73 865.45) scale(.1 -.1)">
<use xlink:href="#d"/>
<use x="63.623047" xlink:href="#e"/>
<use x="95.410156" xlink:href="#p"/>
<use x="159.033203" xlink:href="#n"/>
</g>
</g>
<g clip-path="url(#a)">
<g transform="translate(213.53 865.45) scale(.1 -.1)">
<use xlink:href="#d"/>
<use x="63.623047" xlink:href="#e"/>
<use x="95.410156" xlink:href="#p"/>
<use x="159.033203" xlink:href="#p"/>
</g>
</g>
<g clip-path="url(#a)">
<g transform="translate(482.95 865.45) scale(.1 -.1)">
<use xlink:href="#d"/>
<use x="63.623047" xlink:href="#e"/>
<use x="95.410156" xlink:href="#p"/>
<use x="159.033203" xlink:href="#ah"/>
</g>
</g>
<g clip-path="url(#a)">
<g transform="translate(1336.1 865.45) scale(.1 -.1)">
<use xlink:href="#d"/>
<use x="63.623047" xlink:href="#e"/>
<use x="95.410156" xlink:href="#p"/>
<use x="159.033203" xlink:href="#aj"/>
</g>
</g>
<g clip-path="url(#a)">
<g transform="translate(1695.3 865.45) scale(.1 -.1)">
<use xlink:href="#d"/>
<use x="63.623047" xlink:href="#e"/>
<use x="95.410156" xlink:href="#p"/>
<use x="159.033203" xlink:href="#ae"/>
</g>
</g>
<g clip-path="url(#a)">
<g transform="translate(1740.2 865.45) scale(.1 -.1)">
<use xlink:href="#d"/>
<use x="63.623047" xlink:href="#e"/>
<use x="95.410156" xlink:href="#p"/>
<use x="159.033203" xlink:href="#ad"/>
</g>
</g>
<g clip-path="url(#a)">
<g transform="translate(1785.1 865.45) scale(.1 -.1)">
<use xlink:href="#d"/>
<use x="63.623047" xlink:href="#e"/>
<use x="95.410156" xlink:href="#ah"/>
<use x="159.033203" xlink:href="#af"/>
</g>
</g>
<defs>
<clipPath id="a">
<rect width="1976" height="1040"/>
</clipPath>
</defs>
</svg>
