<?xml version="1.0" encoding="UTF-8"?>
<!DOCTYPE svg  PUBLIC '-//W3C//DTD SVG 1.1//EN'  'http://www.w3.org/Graphics/SVG/1.1/DTD/svg11.dtd'>
<svg width="1114.7pt" height="586.67pt" version="1.1" viewBox="0 0 1114.7 586.67" xmlns="http://www.w3.org/2000/svg" xmlns:xlink="http://www.w3.org/1999/xlink">
<defs>
<style type="text/css">*{stroke-linecap:butt;stroke-linejoin:round;}</style>
</defs>
<path d="m0 586.67h1114.7v-586.67h-1114.7z" fill="#fff"/>
<g fill="none" stroke="#000">
<path d="m471.93 27.773-360.71 323.02" clip-path="url(#a)"/>
<path d="m471.93 27.773-64.103 217.51" clip-path="url(#a)"/>
<path d="m471.93 27.773 157.75 427.07" clip-path="url(#a)"/>
<path d="m471.93 27.773 433.85 109.98" clip-path="url(#a)"/>
<path d="m471.93 27.773-276.31 427.07" clip-path="url(#a)"/>
<path d="m471.93 27.773 109.52 427.07" clip-path="url(#a)"/>
<path d="m111.22 350.79-36.171 104.05" clip-path="url(#a)"/>
<path d="m111.22 350.79 36.171 104.05" clip-path="url(#a)"/>
<path d="m407.83 245.29-139.86 105.5" clip-path="url(#a)"/>
<path d="m407.83 245.29-67.52 209.55" clip-path="url(#a)"/>
<path d="m407.83 245.29 4.8228 105.5" clip-path="url(#a)"/>
<path d="m407.83 245.29 77.165 209.55" clip-path="url(#a)"/>
<path d="m407.83 245.29 125.39 209.55" clip-path="url(#a)"/>
<path d="m629.68 454.84v104.05" clip-path="url(#a)"/>
<path d="m905.78 137.75-227.88 317.09" clip-path="url(#a)"/>
<path d="m905.78 137.75-101.28 107.53" clip-path="url(#a)"/>
<path d="m905.78 137.75 61.491 317.09" clip-path="url(#a)"/>
<path d="m905.78 137.75 109.72 317.09" clip-path="url(#a)"/>
<path d="m905.78 137.75 157.95 317.09" clip-path="url(#a)"/>
<path d="m677.9 454.84v104.05" clip-path="url(#a)"/>
<path d="m804.5 245.29 90.428 105.5" clip-path="url(#a)"/>
<path d="m804.5 245.29-78.371 209.55" clip-path="url(#a)"/>
<path d="m804.5 245.29-30.143 209.55" clip-path="url(#a)"/>
<path d="m804.5 245.29 18.086 209.55" clip-path="url(#a)"/>
<path d="m967.27 454.84v104.05" clip-path="url(#a)"/>
<path d="m1015.5 454.84v104.05" clip-path="url(#a)"/>
<path d="m894.93 350.79-24.114 104.05" clip-path="url(#a)"/>
<path d="m894.93 350.79 24.114 104.05" clip-path="url(#a)"/>
<path d="m870.82 454.84v104.05" clip-path="url(#a)"/>
<path d="m919.05 454.84v104.05" clip-path="url(#a)"/>
<path d="m726.13 454.84v104.05" clip-path="url(#a)"/>
<path d="m774.36 454.84v104.05" clip-path="url(#a)"/>
<path d="m822.59 454.84v104.05" clip-path="url(#a)"/>
<path d="m267.96 350.79-24.114 104.05" clip-path="url(#a)"/>
<path d="m267.96 350.79 24.114 104.05" clip-path="url(#a)"/>
<path d="m340.31 454.84v104.05" clip-path="url(#a)"/>
<path d="m412.65 350.79-24.114 104.05" clip-path="url(#a)"/>
<path d="m412.65 350.79 24.114 104.05" clip-path="url(#a)"/>
<path d="m484.99 454.84v104.05" clip-path="url(#a)"/>
<path d="m533.22 454.84v104.05" clip-path="url(#a)"/>
<path d="m388.53 454.84v104.05" clip-path="url(#a)"/>
<path d="m436.76 454.84v104.05" clip-path="url(#a)"/>
<path d="m243.85 454.84v104.05" clip-path="url(#a)"/>
<path d="m292.08 454.84v104.05" clip-path="url(#a)"/>
<path d="m75.051 454.84-24.114 104.05" clip-path="url(#a)"/>
<path d="m75.051 454.84 24.114 104.05" clip-path="url(#a)"/>
<path d="m147.39 454.84v104.05" clip-path="url(#a)"/>
<path d="m195.62 454.84v104.05" clip-path="url(#a)"/>
<path d="m581.45 454.84v104.05" clip-path="url(#a)"/>
<path d="m1063.7 454.84v104.05" clip-path="url(#a)"/>
</g>
<path d="m293.52 195.96 4.4818-4.0135q1.7879-1.6011 0.18683-3.389l-5.1651-5.7678q-1.6011-1.7879-3.389-0.18683l-4.4818 4.0135q-1.7879 1.6011-0.18683 3.389l5.1651 5.7678q1.6011 1.7879 3.389 0.18683z" clip-path="url(#a)" fill="#fff" stroke="#fff"/>
<g clip-path="url(#a)">
<defs>
<path id="y" d="m9.8125 72.906h9.8594v-29.891h35.844v29.891h9.8594v-72.906h-9.8594v34.719h-35.844v-34.719h-9.8594z"/>
</defs>
<g transform="translate(290.81 192.93) rotate(-41.845) scale(.08 -.08)">
<use xlink:href="#y"/>
</g>
</g>
<path d="m445.04 141.19 1.7007-5.7709q0.67845-2.3021-1.6237-2.9806l-7.4267-2.1887q-2.3021-0.67845-2.9806 1.6237l-1.7007 5.7709q-0.67845 2.3021 1.6237 2.9806l7.4267 2.1887q2.3021 0.67845 2.9806-1.6237z" clip-path="url(#a)" fill="#fff" stroke="#fff"/>
<g clip-path="url(#a)">
<g transform="translate(441.14 140.04) rotate(-73.579) scale(.08 -.08)">
<use xlink:href="#y"/>
</g>
</g>
<path d="m544.15 241.39 1.5445 4.1814q0.83158 2.2513 3.0829 1.4198l7.2629-2.6827q2.2513-0.83158 1.4198-3.0829l-1.5445-4.1814q-0.83158-2.2513-3.0829-1.4198l-7.2629 2.6827q-2.2513 0.83158-1.4198 3.0829z" clip-path="url(#a)" fill="#fff" stroke="#fff"/>
<g clip-path="url(#a)">
<defs>
<path id="ai" d="m9.8125 72.906h9.8594v-64.609h35.5v-8.2969h-45.359z"/>
</defs>
<g transform="translate(547.96 239.98) rotate(69.727) scale(.08 -.08)">
<use xlink:href="#ai"/>
</g>
</g>
<path d="m684.4 88.104 5.8318 1.4784q2.3264 0.58975 2.9162-1.7367l1.9026-7.5051q0.58975-2.3264-1.7367-2.9162l-5.8318-1.4784q-2.3264-0.58975-2.9162 1.7367l-1.9026 7.5051q-0.58975 2.3264 1.7367 2.9162z" clip-path="url(#a)" fill="#fff" stroke="#fff"/>
<g clip-path="url(#a)">
<g transform="translate(685.4 84.164) rotate(14.225) scale(.08 -.08)">
<use xlink:href="#y"/>
</g>
</g>
<path d="m337.45 247.17 3.1805-4.9158q1.3037-2.015-0.71133-3.3187l-6.5006-4.2058q-2.015-1.3037-3.3187 0.71133l-3.1805 4.9158q-1.3037 2.015 0.71133 3.3187l6.5006 4.2058q2.015 1.3037 3.3187-0.71133z" clip-path="url(#a)" fill="#fff" stroke="#fff"/>
<g clip-path="url(#a)">
<defs>
<path id="v" d="m8.6875 72.906h9.9219v-44.297q0-11.719 4.2344-16.875 4.25-5.1406 13.781-5.1406 9.4688 0 13.719 5.1406 4.25 5.1562 4.25 16.875v44.297h9.9062v-45.516q0-14.25-7.0625-21.531-7.0469-7.2812-20.812-7.2812-13.828 0-20.891 7.2812-7.0469 7.2812-7.0469 21.531z"/>
</defs>
<g transform="translate(334.04 244.96) rotate(-57.098) scale(.08 -.08)">
<use xlink:href="#v"/>
</g>
</g>
<path d="m519.89 240.03 1.4544 5.6715q0.59617 2.3248 2.9209 1.7286l7.4998-1.9233q2.3248-0.59617 1.7286-2.9209l-1.4544-5.6715q-0.59617-2.3248-2.9209-1.7286l-7.4998 1.9233q-2.3248 0.59617-1.7286 2.9209z" clip-path="url(#a)" fill="#fff" stroke="#fff"/>
<g clip-path="url(#a)">
<g transform="translate(523.82 239.02) rotate(75.617) scale(.08 -.08)">
<use xlink:href="#v"/>
</g>
</g>
<path d="m98.161 407.46 1.7969-5.1691q0.78804-2.2669-1.4789-3.055l-7.3132-2.5422q-2.2669-0.78804-3.055 1.4789l-1.7969 5.1691q-0.78804 2.2669 1.4789 3.055l7.3132 2.5422q2.2669 0.78804 3.055-1.4789z" clip-path="url(#a)" fill="#fff" stroke="#fff"/>
<g clip-path="url(#a)">
<defs>
<path id="ab" d="m34.188 63.188-13.391-36.281h26.812zm-5.5781 9.7188h11.188l27.781-72.906h-10.25l-6.6406 18.703h-32.859l-6.6406-18.703h-10.406z"/>
</defs>
<g transform="translate(94.323 406.12) rotate(-70.831) scale(.08 -.08)">
<use xlink:href="#ab"/>
</g>
</g>
<path d="m122.59 402.6 1.5839 4.5563q0.78804 2.2669 3.055 1.4789l7.3132-2.5422q2.2669-0.78804 1.4789-3.055l-1.5839-4.5563q-0.78804-2.2669-3.055-1.4789l-7.3132 2.5422q-2.2669 0.78804-1.4789 3.055z" clip-path="url(#a)" fill="#fff" stroke="#fff"/>
<g clip-path="url(#a)">
<defs>
<path id="x" d="m19.672 64.797v-27.391h12.406q6.8906 0 10.641 3.5625 3.7656 3.5625 3.7656 10.156 0 6.5469-3.7656 10.109-3.75 3.5625-10.641 3.5625zm-9.8594 8.1094h22.266q12.266 0 18.531-5.5469 6.2812-5.5469 6.2812-16.234 0-10.797-6.2812-16.312-6.2656-5.5156-18.531-5.5156h-12.406v-29.297h-9.8594z"/>
</defs>
<g transform="translate(126.43 401.26) rotate(70.831) scale(.08 -.08)">
<use xlink:href="#x"/>
</g>
</g>
<path d="m339.49 304.69 4.3689-3.2956q1.916-1.4453 0.47073-3.3613l-4.6626-6.1812q-1.4453-1.916-3.3613-0.47073l-4.3689 3.2956q-1.916 1.4453-0.47073 3.3613l4.6626 6.1812q1.4453 1.916 3.3613 0.47073z" clip-path="url(#a)" fill="#fff" stroke="#fff"/>
<g clip-path="url(#a)">
<g transform="translate(337.04 301.45) rotate(-37.028) scale(.08 -.08)">
<use xlink:href="#ab"/>
</g>
</g>
<path d="m379.3 354.28 1.4793-4.5913q0.73603-2.2844-1.5483-3.0204l-7.3694-2.3745q-2.2844-0.73603-3.0204 1.5483l-1.4793 4.5913q-0.73603 2.2844 1.5483 3.0204l7.3694 2.3745q2.2844 0.73603 3.0204-1.5483z" clip-path="url(#a)" fill="#fff" stroke="#fff"/>
<g clip-path="url(#a)">
<g transform="translate(375.43 353.04) rotate(-72.141) scale(.08 -.08)">
<use xlink:href="#x"/>
</g>
</g>
<path d="m403.86 295.88 0.22314 4.8812q0.1096 2.3975 2.5071 2.2879l7.7344-0.35357q2.3975-0.1096 2.2879-2.5071l-0.22314-4.8812q-0.1096-2.3975-2.5071-2.2879l-7.7344 0.35357q-2.3975 0.1096-2.2879 2.5071z" clip-path="url(#a)" fill="#fff" stroke="#fff"/>
<g clip-path="url(#a)">
<defs>
<path id="k" d="m-0.29688 72.906h61.672v-8.3125h-25.875v-64.594h-9.9062v64.594h-25.891z"/>
</defs>
<g transform="translate(407.92 295.7) rotate(87.383) scale(.08 -.08)">
<use xlink:href="#k"/>
</g>
</g>
<path d="m439.73 350.07 1.59 4.3178q0.82933 2.2522 3.0815 1.4228l7.2656-2.6754q2.2522-0.82932 1.4228-3.0815l-1.59-4.3178q-0.82933-2.2522-3.0815-1.4228l-7.2656 2.6754q-2.2522 0.82933-1.4228 3.0815z" clip-path="url(#a)" fill="#fff" stroke="#fff"/>
<g clip-path="url(#a)">
<defs>
<path id="z" d="m9.8125 72.906h41.891v-8.3125h-32.031v-21.484h28.906v-8.2969h-28.906v-34.812h-9.8594z"/>
</defs>
<g transform="translate(443.54 348.67) rotate(69.784) scale(.08 -.08)">
<use xlink:href="#z"/>
</g>
</g>
<path d="m463.96 351.31 2.3626 3.9484q1.2323 2.0595 3.2918 0.82711l6.6439-3.9756q2.0594-1.2323 0.82711-3.2918l-2.3626-3.9484q-1.2323-2.0594-3.2918-0.82711l-6.6439 3.9756q-2.0594 1.2323-0.82711 3.2918z" clip-path="url(#a)" fill="#fff" stroke="#fff"/>
<g clip-path="url(#a)">
<g transform="translate(467.45 349.22) rotate(59.104) scale(.08 -.08)">
<use xlink:href="#z"/>
</g>
</g>
<path d="m623.4 489.22v35.285q0 2.4 2.4 2.4h7.7425q2.4 0 2.4-2.4v-35.285q0-2.4-2.4-2.4h-7.7425q-2.4 0-2.4 2.4z" clip-path="url(#a)" fill="#fff" stroke="#fff"/>
<g clip-path="url(#a)">
<defs>
<path id="d" d="m56.203 29.594v-4.3906h-41.312q0.59375-9.2812 5.5938-14.141t13.938-4.8594q5.1719 0 10.031 1.2656t9.6562 3.8125v-8.5q-4.8438-2.0469-9.9219-3.125t-10.297-1.0781q-13.094 0-20.734 7.6094-7.6406 7.625-7.6406 20.625 0 13.422 7.25 21.297 7.25 7.8906 19.562 7.8906 11.031 0 17.453-7.1094 6.4219-7.0938 6.4219-19.297zm-8.9844 2.6406q-0.09375 7.3594-4.125 11.75-4.0312 4.4062-10.672 4.4062-7.5156 0-12.031-4.25t-5.2031-11.969z"/>
<path id="i" d="m41.109 46.297q-1.5156 0.875-3.2969 1.2812-1.7812 0.42188-3.9219 0.42188-7.625 0-11.703-4.9531t-4.0781-14.234v-28.812h-9.0312v54.688h9.0312v-8.5q2.8438 4.9844 7.375 7.3906 4.5469 2.4219 11.047 2.4219 0.92188 0 2.0469-0.125 1.125-0.10938 2.4844-0.35938z"/>
<path id="l" d="m52 44.188q3.375 6.0625 8.0625 8.9375t11.031 2.875q8.5469 0 13.188-5.9844 4.6406-5.9688 4.6406-17v-33.016h-9.0312v32.719q0 7.8594-2.7969 11.656-2.7812 3.8125-8.4844 3.8125-6.9844 0-11.047-4.6406-4.0469-4.625-4.0469-12.641v-30.906h-9.0312v32.719q0 7.9062-2.7812 11.688t-8.5938 3.7812q-6.8906 0-10.953-4.6562-4.0469-4.6562-4.0469-12.625v-30.906h-9.0312v54.688h9.0312v-8.5q3.0781 5.0312 7.375 7.4219t10.203 2.3906q5.9688 0 10.141-3.0312 4.1719-3.0156 6.1719-8.7812z"/>
<path id="j" d="m9.4219 54.688h8.9844v-54.688h-8.9844zm0 21.297h8.9844v-11.391h-8.9844z"/>
<path id="e" d="m54.891 33.016v-33.016h-8.9844v32.719q0 7.7656-3.0312 11.609-3.0312 3.8594-9.0781 3.8594-7.2812 0-11.484-4.6406-4.2031-4.625-4.2031-12.641v-30.906h-9.0312v54.688h9.0312v-8.5q3.2344 4.9375 7.5938 7.375 4.375 2.4375 10.094 2.4375 9.4219 0 14.25-5.8281 4.8438-5.8281 4.8438-17.156z"/>
<path id="g" d="m34.281 27.484q-10.891 0-15.094-2.4844t-4.2031-8.5q0-4.7812 3.1562-7.5938 3.1562-2.7969 8.5625-2.7969 7.4844 0 12 5.2969t4.5156 14.078v2zm17.922 3.7188v-31.203h-8.9844v8.2969q-3.0781-4.9688-7.6719-7.3438t-11.234-2.375q-8.3906 0-13.359 4.7188-4.9531 4.7188-4.9531 12.625 0 9.2188 6.1719 13.906 6.1875 4.6875 18.438 4.6875h12.609v0.89062q0 6.2031-4.0781 9.5938t-11.453 3.3906q-4.6875 0-9.1406-1.125-4.4375-1.125-8.5312-3.375v8.3125q4.9219 1.9062 9.5625 2.8438 4.6406 0.95312 9.0312 0.95312 11.875 0 17.734-6.1562 5.8594-6.1406 5.8594-18.641z"/>
<path id="h" d="m9.4219 75.984h8.9844v-75.984h-8.9844z"/>
</defs>
<g transform="translate(627.47 489.22) rotate(90) scale(.08 -.08)">
<use xlink:href="#k"/>
<use x="60.818359" xlink:href="#d"/>
<use x="122.341797" xlink:href="#i"/>
<use x="163.439453" xlink:href="#l"/>
<use x="260.851562" xlink:href="#j"/>
<use x="288.634766" xlink:href="#e"/>
<use x="352.013672" xlink:href="#g"/>
<use x="413.292969" xlink:href="#h"/>
</g>
</g>
<path d="m795.14 302.46 3.5949-5.0022q1.4006-1.9489-0.5483-3.3495l-6.2873-4.5184q-1.9489-1.4006-3.3495 0.5483l-3.5949 5.0022q-1.4006 1.9489 0.5483 3.3495l6.2873 4.5184q1.9489 1.4006 3.3495-0.5483z" clip-path="url(#a)" fill="#fff" stroke="#fff"/>
<g clip-path="url(#a)">
<defs>
<path id="au" d="m19.672 64.797v-56.688h11.922q15.094 0 22.094 6.8281 7 6.8438 7 21.594 0 14.641-7 21.453t-22.094 6.8125zm-9.8594 8.1094h20.266q21.188 0 31.094-8.8125 9.9219-8.8125 9.9219-27.562 0-18.859-9.9688-27.703-9.9531-8.8281-31.047-8.8281h-20.266z"/>
</defs>
<g transform="translate(791.84 300.09) rotate(-54.297) scale(.08 -.08)">
<use xlink:href="#au"/>
</g>
</g>
<path d="m857.83 197.81 3.7521-3.9837q1.6455-1.7471-0.10159-3.3926l-5.6362-5.3085q-1.7471-1.6455-3.3926 0.10159l-3.7521 3.9837q-1.6455 1.7471 0.10159 3.3926l5.6362 5.3085q1.7471 1.6455 3.3926-0.10159z" clip-path="url(#a)" fill="#fff" stroke="#fff"/>
<g clip-path="url(#a)">
<g transform="translate(854.87 195.03) rotate(-46.715) scale(.08 -.08)">
<use xlink:href="#ab"/>
</g>
</g>
<path d="m929.93 295.23 0.87598 4.5171q0.45691 2.3561 2.813 1.8992l7.6009-1.474q2.3561-0.45691 1.8992-2.813l-0.87598-4.5171q-0.45691-2.3561-2.813-1.8992l-7.6009 1.474q-2.3561 0.45691-1.8992 2.813z" clip-path="url(#a)" fill="#fff" stroke="#fff"/>
<g clip-path="url(#a)">
<g transform="translate(933.92 294.46) rotate(79.025) scale(.08 -.08)">
<use xlink:href="#z"/>
</g>
</g>
<path d="m953.93 296.07 1.5774 4.5586q0.7848 2.2681 3.0529 1.4833l7.3168-2.5318q2.2681-0.7848 1.4833-3.0529l-1.5774-4.5586q-0.7848-2.2681-3.0529-1.4833l-7.3168 2.5318q-2.2681 0.7848-1.4833 3.0529z" clip-path="url(#a)" fill="#fff" stroke="#fff"/>
<g clip-path="url(#a)">
<g transform="translate(957.77 294.74) rotate(70.913) scale(.08 -.08)">
<use xlink:href="#x"/>
</g>
</g>
<path d="m977.84 296.47 2.6106 5.2408q1.0701 2.1482 3.2183 1.0782l6.9303-3.4521q2.1482-1.0701 1.0782-3.2183l-2.6106-5.2408q-1.0701-2.1482-3.2183-1.0782l-6.9303 3.4521q-2.1482 1.0701-1.0782 3.2183z" clip-path="url(#a)" fill="#fff" stroke="#fff"/>
<g clip-path="url(#a)">
<g transform="translate(981.48 294.66) rotate(63.521) scale(.08 -.08)">
<use xlink:href="#v"/>
</g>
</g>
<path d="m671.63 489.22v35.285q0 2.4 2.4 2.4h7.7425q2.4 0 2.4-2.4v-35.285q0-2.4-2.4-2.4h-7.7425q-2.4 0-2.4 2.4z" clip-path="url(#a)" fill="#fff" stroke="#fff"/>
<g clip-path="url(#a)">
<g transform="translate(675.7 489.22) rotate(90) scale(.08 -.08)">
<use xlink:href="#k"/>
<use x="60.818359" xlink:href="#d"/>
<use x="122.341797" xlink:href="#i"/>
<use x="163.439453" xlink:href="#l"/>
<use x="260.851562" xlink:href="#j"/>
<use x="288.634766" xlink:href="#e"/>
<use x="352.013672" xlink:href="#g"/>
<use x="413.292969" xlink:href="#h"/>
</g>
</g>
<path d="m843.31 300.2 3.2897 3.8381q1.5619 1.8222 3.3841 0.26034l5.8786-5.0387q1.8222-1.5619 0.26034-3.3841l-3.2897-3.8381q-1.5619-1.8222-3.3841-0.26034l-5.8786 5.0387q-1.8222 1.5619-0.26034 3.3841z" clip-path="url(#a)" fill="#fff" stroke="#fff"/>
<g clip-path="url(#a)">
<defs>
<path id="aa" d="m9.8125 72.906h46.094v-8.3125h-36.234v-21.578h34.719v-8.2969h-34.719v-26.422h37.109v-8.2969h-46.969z"/>
</defs>
<g transform="translate(846.4 297.55) rotate(49.399) scale(.08 -.08)">
<use xlink:href="#aa"/>
</g>
</g>
<path d="m770.31 354.63 1.7707-4.7347q0.8407-2.2479-1.4072-3.0886l-7.2519-2.7121q-2.2479-0.8407-3.0886 1.4072l-1.7707 4.7347q-0.8407 2.2479 1.4072 3.0886l7.2519 2.7121q2.2479 0.8407 3.0886-1.4072z" clip-path="url(#a)" fill="#fff" stroke="#fff"/>
<g clip-path="url(#a)">
<g transform="translate(766.5 353.2) rotate(-69.495) scale(.08 -.08)">
<use xlink:href="#aa"/>
</g>
</g>
<path d="m795.28 353.46 0.71972-5.0035q0.3417-2.3756-2.0338-2.7173l-7.6636-1.1024q-2.3756-0.3417-2.7173 2.0338l-0.71972 5.0035q-0.3417 2.3756 2.0338 2.7173l7.6636 1.1024q2.3756 0.3417 2.7173-2.0338z" clip-path="url(#a)" fill="#fff" stroke="#fff"/>
<g clip-path="url(#a)">
<g transform="translate(791.26 352.88) rotate(-81.815) scale(.08 -.08)">
<use xlink:href="#aa"/>
</g>
</g>
<path d="m807.06 347.82 0.48034 5.5656q0.20636 2.3911 2.5975 2.1847l7.7138-0.66574q2.3911-0.20636 2.1847-2.5975l-0.48034-5.5656q-0.20637-2.3911-2.5975-2.1847l-7.7138 0.66574q-2.3911 0.20637-2.1847 2.5975z" clip-path="url(#a)" fill="#fff" stroke="#fff"/>
<g clip-path="url(#a)">
<defs>
<path id="r" d="m64.406 67.281v-10.391q-4.9844 4.6406-10.625 6.9219-5.6406 2.2969-11.984 2.2969-12.5 0-19.141-7.6406t-6.6406-22.094q0-14.406 6.6406-22.047t19.141-7.6406q6.3438 0 11.984 2.2969t10.625 6.9375v-10.312q-5.1719-3.5156-10.969-5.2812-5.7812-1.75-12.219-1.75-16.562 0-26.094 10.125-9.5156 10.141-9.5156 27.672 0 17.578 9.5156 27.703 9.5312 10.141 26.094 10.141 6.5312 0 12.312-1.7344 5.7969-1.7344 10.875-5.2031z"/>
</defs>
<g transform="translate(811.11 347.47) rotate(85.067) scale(.08 -.08)">
<use xlink:href="#r"/>
</g>
</g>
<path d="m961 489.22v35.285q0 2.4 2.4 2.4h7.7425q2.4 0 2.4-2.4v-35.285q0-2.4-2.4-2.4h-7.7425q-2.4 0-2.4 2.4z" clip-path="url(#a)" fill="#fff" stroke="#fff"/>
<g clip-path="url(#a)">
<g transform="translate(965.07 489.22) rotate(90) scale(.08 -.08)">
<use xlink:href="#k"/>
<use x="60.818359" xlink:href="#d"/>
<use x="122.341797" xlink:href="#i"/>
<use x="163.439453" xlink:href="#l"/>
<use x="260.851562" xlink:href="#j"/>
<use x="288.634766" xlink:href="#e"/>
<use x="352.013672" xlink:href="#g"/>
<use x="413.292969" xlink:href="#h"/>
</g>
</g>
<path d="m1009.2 489.22v35.285q0 2.4 2.4 2.4h7.7425q2.4 0 2.4-2.4v-35.285q0-2.4-2.4-2.4h-7.7425q-2.4 0-2.4 2.4z" clip-path="url(#a)" fill="#fff" stroke="#fff"/>
<g clip-path="url(#a)">
<g transform="translate(1013.3 489.22) rotate(90) scale(.08 -.08)">
<use xlink:href="#k"/>
<use x="60.818359" xlink:href="#d"/>
<use x="122.341797" xlink:href="#i"/>
<use x="163.439453" xlink:href="#l"/>
<use x="260.851562" xlink:href="#j"/>
<use x="288.634766" xlink:href="#e"/>
<use x="352.013672" xlink:href="#g"/>
<use x="413.292969" xlink:href="#h"/>
</g>
</g>
<path d="m888.36 406.94 1.255-5.4152q0.54184-2.338-1.7962-2.8799l-7.5426-1.748q-2.338-0.54184-2.8799 1.7962l-1.255 5.4152q-0.54184 2.338 1.7962 2.8799l7.5426 1.748q2.338 0.54184 2.8799-1.7962z" clip-path="url(#a)" fill="#fff" stroke="#fff"/>
<g clip-path="url(#a)">
<defs>
<path id="w" d="m44.391 34.188q3.1719-1.0781 6.1719-4.5938t6.0312-9.6719l10.016-19.922h-10.609l-9.3125 18.703q-3.625 7.3281-7.0156 9.7188t-9.25 2.3906h-10.75v-30.812h-9.8594v72.906h22.266q12.5 0 18.656-5.2344 6.1562-5.2188 6.1562-15.766 0-6.8906-3.2031-11.438-3.2031-4.5312-9.2969-6.2812zm-24.719 30.609v-25.875h12.406q7.125 0 10.766 3.2969t3.6406 9.6875-3.6406 9.6406-10.766 3.25z"/>
</defs>
<g transform="translate(884.4 406.02) rotate(-76.952) scale(.08 -.08)">
<use xlink:href="#w"/>
</g>
</g>
<path d="m900.25 401.51 1.2612 5.442q0.54184 2.338 2.8799 1.7962l7.5426-1.748q2.338-0.54184 1.7962-2.8799l-1.2612-5.442q-0.54184-2.338-2.8799-1.7962l-7.5426 1.748q-2.338 0.54184-1.7962 2.8799z" clip-path="url(#a)" fill="#fff" stroke="#fff"/>
<g clip-path="url(#a)">
<g transform="translate(904.21 400.59) rotate(76.952) scale(.08 -.08)">
<use xlink:href="#r"/>
</g>
</g>
<path d="m864.55 489.22v35.285q0 2.4 2.4 2.4h7.7425q2.4 0 2.4-2.4v-35.285q0-2.4-2.4-2.4h-7.7425q-2.4 0-2.4 2.4z" clip-path="url(#a)" fill="#fff" stroke="#fff"/>
<g clip-path="url(#a)">
<g transform="translate(868.61 489.22) rotate(90) scale(.08 -.08)">
<use xlink:href="#k"/>
<use x="60.818359" xlink:href="#d"/>
<use x="122.341797" xlink:href="#i"/>
<use x="163.439453" xlink:href="#l"/>
<use x="260.851562" xlink:href="#j"/>
<use x="288.634766" xlink:href="#e"/>
<use x="352.013672" xlink:href="#g"/>
<use x="413.292969" xlink:href="#h"/>
</g>
</g>
<path d="m912.77 489.22v35.285q0 2.4 2.4 2.4h7.7425q2.4 0 2.4-2.4v-35.285q0-2.4-2.4-2.4h-7.7425q-2.4 0-2.4 2.4z" clip-path="url(#a)" fill="#fff" stroke="#fff"/>
<g clip-path="url(#a)">
<g transform="translate(916.84 489.22) rotate(90) scale(.08 -.08)">
<use xlink:href="#k"/>
<use x="60.818359" xlink:href="#d"/>
<use x="122.341797" xlink:href="#i"/>
<use x="163.439453" xlink:href="#l"/>
<use x="260.851562" xlink:href="#j"/>
<use x="288.634766" xlink:href="#e"/>
<use x="352.013672" xlink:href="#g"/>
<use x="413.292969" xlink:href="#h"/>
</g>
</g>
<path d="m719.86 489.22v35.285q0 2.4 2.4 2.4h7.7425q2.4 0 2.4-2.4v-35.285q0-2.4-2.4-2.4h-7.7425q-2.4 0-2.4 2.4z" clip-path="url(#a)" fill="#fff" stroke="#fff"/>
<g clip-path="url(#a)">
<g transform="translate(723.92 489.22) rotate(90) scale(.08 -.08)">
<use xlink:href="#k"/>
<use x="60.818359" xlink:href="#d"/>
<use x="122.341797" xlink:href="#i"/>
<use x="163.439453" xlink:href="#l"/>
<use x="260.851562" xlink:href="#j"/>
<use x="288.634766" xlink:href="#e"/>
<use x="352.013672" xlink:href="#g"/>
<use x="413.292969" xlink:href="#h"/>
</g>
</g>
<path d="m768.09 489.22v35.285q0 2.4 2.4 2.4h7.7425q2.4 0 2.4-2.4v-35.285q0-2.4-2.4-2.4h-7.7425q-2.4 0-2.4 2.4z" clip-path="url(#a)" fill="#fff" stroke="#fff"/>
<g clip-path="url(#a)">
<g transform="translate(772.15 489.22) rotate(90) scale(.08 -.08)">
<use xlink:href="#k"/>
<use x="60.818359" xlink:href="#d"/>
<use x="122.341797" xlink:href="#i"/>
<use x="163.439453" xlink:href="#l"/>
<use x="260.851562" xlink:href="#j"/>
<use x="288.634766" xlink:href="#e"/>
<use x="352.013672" xlink:href="#g"/>
<use x="413.292969" xlink:href="#h"/>
</g>
</g>
<path d="m816.32 489.22v35.285q0 2.4 2.4 2.4h7.7425q2.4 0 2.4-2.4v-35.285q0-2.4-2.4-2.4h-7.7425q-2.4 0-2.4 2.4z" clip-path="url(#a)" fill="#fff" stroke="#fff"/>
<g clip-path="url(#a)">
<g transform="translate(820.38 489.22) rotate(90) scale(.08 -.08)">
<use xlink:href="#k"/>
<use x="60.818359" xlink:href="#d"/>
<use x="122.341797" xlink:href="#i"/>
<use x="163.439453" xlink:href="#l"/>
<use x="260.851562" xlink:href="#j"/>
<use x="288.634766" xlink:href="#e"/>
<use x="352.013672" xlink:href="#g"/>
<use x="413.292969" xlink:href="#h"/>
</g>
</g>
<path d="m261.39 406.94 1.255-5.4152q0.54184-2.338-1.7962-2.8799l-7.5426-1.748q-2.338-0.54184-2.8799 1.7962l-1.255 5.4152q-0.54184 2.338 1.7962 2.8799l7.5426 1.748q2.338 0.54184 2.8799-1.7962z" clip-path="url(#a)" fill="#fff" stroke="#fff"/>
<g clip-path="url(#a)">
<g transform="translate(257.43 406.02) rotate(-76.952) scale(.08 -.08)">
<use xlink:href="#w"/>
</g>
</g>
<path d="m273.28 401.51 1.2612 5.442q0.54184 2.338 2.8799 1.7962l7.5426-1.748q2.338-0.54184 1.7962-2.8799l-1.2612-5.442q-0.54184-2.338-2.8799-1.7962l-7.5426 1.748q-2.338 0.54184-1.7962 2.8799z" clip-path="url(#a)" fill="#fff" stroke="#fff"/>
<g clip-path="url(#a)">
<g transform="translate(277.24 400.59) rotate(76.952) scale(.08 -.08)">
<use xlink:href="#r"/>
</g>
</g>
<path d="m334.03 489.22v35.285q0 2.4 2.4 2.4h7.7425q2.4 0 2.4-2.4v-35.285q0-2.4-2.4-2.4h-7.7425q-2.4 0-2.4 2.4z" clip-path="url(#a)" fill="#fff" stroke="#fff"/>
<g clip-path="url(#a)">
<g transform="translate(338.1 489.22) rotate(90) scale(.08 -.08)">
<use xlink:href="#k"/>
<use x="60.818359" xlink:href="#d"/>
<use x="122.341797" xlink:href="#i"/>
<use x="163.439453" xlink:href="#l"/>
<use x="260.851562" xlink:href="#j"/>
<use x="288.634766" xlink:href="#e"/>
<use x="352.013672" xlink:href="#g"/>
<use x="413.292969" xlink:href="#h"/>
</g>
</g>
<path d="m406.07 406.94 1.255-5.4152q0.54184-2.338-1.7962-2.8799l-7.5426-1.748q-2.338-0.54184-2.8799 1.7962l-1.255 5.4152q-0.54184 2.338 1.7962 2.8799l7.5426 1.748q2.338 0.54184 2.8799-1.7962z" clip-path="url(#a)" fill="#fff" stroke="#fff"/>
<g clip-path="url(#a)">
<g transform="translate(402.11 406.02) rotate(-76.952) scale(.08 -.08)">
<use xlink:href="#w"/>
</g>
</g>
<path d="m417.97 401.51 1.2612 5.442q0.54184 2.338 2.8799 1.7962l7.5426-1.748q2.338-0.54184 1.7962-2.8799l-1.2612-5.442q-0.54184-2.338-2.8799-1.7962l-7.5426 1.748q-2.338 0.54184-1.7962 2.8799z" clip-path="url(#a)" fill="#fff" stroke="#fff"/>
<g clip-path="url(#a)">
<g transform="translate(421.92 400.59) rotate(76.952) scale(.08 -.08)">
<use xlink:href="#r"/>
</g>
</g>
<path d="m478.72 489.22v35.285q0 2.4 2.4 2.4h7.7425q2.4 0 2.4-2.4v-35.285q0-2.4-2.4-2.4h-7.7425q-2.4 0-2.4 2.4z" clip-path="url(#a)" fill="#fff" stroke="#fff"/>
<g clip-path="url(#a)">
<g transform="translate(482.78 489.22) rotate(90) scale(.08 -.08)">
<use xlink:href="#k"/>
<use x="60.818359" xlink:href="#d"/>
<use x="122.341797" xlink:href="#i"/>
<use x="163.439453" xlink:href="#l"/>
<use x="260.851562" xlink:href="#j"/>
<use x="288.634766" xlink:href="#e"/>
<use x="352.013672" xlink:href="#g"/>
<use x="413.292969" xlink:href="#h"/>
</g>
</g>
<path d="m526.95 489.22v35.285q0 2.4 2.4 2.4h7.7425q2.4 0 2.4-2.4v-35.285q0-2.4-2.4-2.4h-7.7425q-2.4 0-2.4 2.4z" clip-path="url(#a)" fill="#fff" stroke="#fff"/>
<g clip-path="url(#a)">
<g transform="translate(531.01 489.22) rotate(90) scale(.08 -.08)">
<use xlink:href="#k"/>
<use x="60.818359" xlink:href="#d"/>
<use x="122.341797" xlink:href="#i"/>
<use x="163.439453" xlink:href="#l"/>
<use x="260.851562" xlink:href="#j"/>
<use x="288.634766" xlink:href="#e"/>
<use x="352.013672" xlink:href="#g"/>
<use x="413.292969" xlink:href="#h"/>
</g>
</g>
<path d="m382.26 489.22v35.285q0 2.4 2.4 2.4h7.7425q2.4 0 2.4-2.4v-35.285q0-2.4-2.4-2.4h-7.7425q-2.4 0-2.4 2.4z" clip-path="url(#a)" fill="#fff" stroke="#fff"/>
<g clip-path="url(#a)">
<g transform="translate(386.33 489.22) rotate(90) scale(.08 -.08)">
<use xlink:href="#k"/>
<use x="60.818359" xlink:href="#d"/>
<use x="122.341797" xlink:href="#i"/>
<use x="163.439453" xlink:href="#l"/>
<use x="260.851562" xlink:href="#j"/>
<use x="288.634766" xlink:href="#e"/>
<use x="352.013672" xlink:href="#g"/>
<use x="413.292969" xlink:href="#h"/>
</g>
</g>
<path d="m430.49 489.22v35.285q0 2.4 2.4 2.4h7.7425q2.4 0 2.4-2.4v-35.285q0-2.4-2.4-2.4h-7.7425q-2.4 0-2.4 2.4z" clip-path="url(#a)" fill="#fff" stroke="#fff"/>
<g clip-path="url(#a)">
<g transform="translate(434.56 489.22) rotate(90) scale(.08 -.08)">
<use xlink:href="#k"/>
<use x="60.818359" xlink:href="#d"/>
<use x="122.341797" xlink:href="#i"/>
<use x="163.439453" xlink:href="#l"/>
<use x="260.851562" xlink:href="#j"/>
<use x="288.634766" xlink:href="#e"/>
<use x="352.013672" xlink:href="#g"/>
<use x="413.292969" xlink:href="#h"/>
</g>
</g>
<path d="m237.58 489.22v35.285q0 2.4 2.4 2.4h7.7425q2.4 0 2.4-2.4v-35.285q0-2.4-2.4-2.4h-7.7425q-2.4 0-2.4 2.4z" clip-path="url(#a)" fill="#fff" stroke="#fff"/>
<g clip-path="url(#a)">
<g transform="translate(241.64 489.22) rotate(90) scale(.08 -.08)">
<use xlink:href="#k"/>
<use x="60.818359" xlink:href="#d"/>
<use x="122.341797" xlink:href="#i"/>
<use x="163.439453" xlink:href="#l"/>
<use x="260.851562" xlink:href="#j"/>
<use x="288.634766" xlink:href="#e"/>
<use x="352.013672" xlink:href="#g"/>
<use x="413.292969" xlink:href="#h"/>
</g>
</g>
<path d="m285.81 489.22v35.285q0 2.4 2.4 2.4h7.7425q2.4 0 2.4-2.4v-35.285q0-2.4-2.4-2.4h-7.7425q-2.4 0-2.4 2.4z" clip-path="url(#a)" fill="#fff" stroke="#fff"/>
<g clip-path="url(#a)">
<g transform="translate(289.87 489.22) rotate(90) scale(.08 -.08)">
<use xlink:href="#k"/>
<use x="60.818359" xlink:href="#d"/>
<use x="122.341797" xlink:href="#i"/>
<use x="163.439453" xlink:href="#l"/>
<use x="260.851562" xlink:href="#j"/>
<use x="288.634766" xlink:href="#e"/>
<use x="352.013672" xlink:href="#g"/>
<use x="413.292969" xlink:href="#h"/>
</g>
</g>
<path d="m65.12 525.47 7.9661-34.374q0.54184-2.338-1.7962-2.8799l-7.5426-1.748q-2.338-0.54184-2.8799 1.7962l-7.9661 34.374q-0.54184 2.338 1.7962 2.8799l7.5426 1.748q2.338 0.54184 2.8799-1.7962z" clip-path="url(#a)" fill="#fff" stroke="#fff"/>
<g clip-path="url(#a)">
<g transform="translate(61.161 524.55) rotate(-76.952) scale(.08 -.08)">
<use xlink:href="#k"/>
<use x="60.818359" xlink:href="#d"/>
<use x="122.341797" xlink:href="#i"/>
<use x="163.439453" xlink:href="#l"/>
<use x="260.851562" xlink:href="#j"/>
<use x="288.634766" xlink:href="#e"/>
<use x="352.013672" xlink:href="#g"/>
<use x="413.292969" xlink:href="#h"/>
</g>
</g>
<path d="m77.015 491.1 7.9661 34.374q0.54184 2.338 2.8799 1.7962l7.5426-1.748q2.338-0.54184 1.7962-2.8799l-7.9661-34.374q-0.54184-2.338-2.8799-1.7962l-7.5426 1.748q-2.338 0.54184-1.7962 2.8799z" clip-path="url(#a)" fill="#fff" stroke="#fff"/>
<g clip-path="url(#a)">
<g transform="translate(80.974 490.18) rotate(76.952) scale(.08 -.08)">
<use xlink:href="#k"/>
<use x="60.818359" xlink:href="#d"/>
<use x="122.341797" xlink:href="#i"/>
<use x="163.439453" xlink:href="#l"/>
<use x="260.851562" xlink:href="#j"/>
<use x="288.634766" xlink:href="#e"/>
<use x="352.013672" xlink:href="#g"/>
<use x="413.292969" xlink:href="#h"/>
</g>
</g>
<path d="m141.12 489.22v35.285q0 2.4 2.4 2.4h7.7425q2.4 0 2.4-2.4v-35.285q0-2.4-2.4-2.4h-7.7425q-2.4 0-2.4 2.4z" clip-path="url(#a)" fill="#fff" stroke="#fff"/>
<g clip-path="url(#a)">
<g transform="translate(145.19 489.22) rotate(90) scale(.08 -.08)">
<use xlink:href="#k"/>
<use x="60.818359" xlink:href="#d"/>
<use x="122.341797" xlink:href="#i"/>
<use x="163.439453" xlink:href="#l"/>
<use x="260.851562" xlink:href="#j"/>
<use x="288.634766" xlink:href="#e"/>
<use x="352.013672" xlink:href="#g"/>
<use x="413.292969" xlink:href="#h"/>
</g>
</g>
<path d="m189.35 489.22v35.285q0 2.4 2.4 2.4h7.7425q2.4 0 2.4-2.4v-35.285q0-2.4-2.4-2.4h-7.7425q-2.4 0-2.4 2.4z" clip-path="url(#a)" fill="#fff" stroke="#fff"/>
<g clip-path="url(#a)">
<g transform="translate(193.41 489.22) rotate(90) scale(.08 -.08)">
<use xlink:href="#k"/>
<use x="60.818359" xlink:href="#d"/>
<use x="122.341797" xlink:href="#i"/>
<use x="163.439453" xlink:href="#l"/>
<use x="260.851562" xlink:href="#j"/>
<use x="288.634766" xlink:href="#e"/>
<use x="352.013672" xlink:href="#g"/>
<use x="413.292969" xlink:href="#h"/>
</g>
</g>
<path d="m575.18 489.22v35.285q0 2.4 2.4 2.4h7.7425q2.4 0 2.4-2.4v-35.285q0-2.4-2.4-2.4h-7.7425q-2.4 0-2.4 2.4z" clip-path="url(#a)" fill="#fff" stroke="#fff"/>
<g clip-path="url(#a)">
<g transform="translate(579.24 489.22) rotate(90) scale(.08 -.08)">
<use xlink:href="#k"/>
<use x="60.818359" xlink:href="#d"/>
<use x="122.341797" xlink:href="#i"/>
<use x="163.439453" xlink:href="#l"/>
<use x="260.851562" xlink:href="#j"/>
<use x="288.634766" xlink:href="#e"/>
<use x="352.013672" xlink:href="#g"/>
<use x="413.292969" xlink:href="#h"/>
</g>
</g>
<path d="m1057.5 489.22v35.285q0 2.4 2.4 2.4h7.7425q2.4 0 2.4-2.4v-35.285q0-2.4-2.4-2.4h-7.7425q-2.4 0-2.4 2.4z" clip-path="url(#a)" fill="#fff" stroke="#fff"/>
<g clip-path="url(#a)">
<g transform="translate(1061.5 489.22) rotate(90) scale(.08 -.08)">
<use xlink:href="#k"/>
<use x="60.818359" xlink:href="#d"/>
<use x="122.341797" xlink:href="#i"/>
<use x="163.439453" xlink:href="#l"/>
<use x="260.851562" xlink:href="#j"/>
<use x="288.634766" xlink:href="#e"/>
<use x="352.013672" xlink:href="#g"/>
<use x="413.292969" xlink:href="#h"/>
</g>
</g>
<defs>
<path id="b" d="m0 8.6603c2.2967 0 4.4997-0.9125 6.1237-2.5365 1.624-1.624 2.5365-3.827 2.5365-6.1237s-0.9125-4.4997-2.5365-6.1237c-1.624-1.624-3.827-2.5365-6.1237-2.5365s-4.4997 0.9125-6.1237 2.5365c-1.624 1.624-2.5365 3.827-2.5365 6.1237s0.9125 4.4997 2.5365 6.1237c1.624 1.624 3.827 2.5365 6.1237 2.5365z"/>
</defs>
<g clip-path="url(#a)">
<use x="50.936453" y="558.894072" fill="#ffffff" stroke="#ffffff" xlink:href="#b"/>
</g>
<g clip-path="url(#a)">
<use x="99.164727" y="558.894072" fill="#ffffff" stroke="#ffffff" xlink:href="#b"/>
</g>
<g clip-path="url(#a)">
<use x="147.393002" y="558.894072" fill="#ffffff" stroke="#ffffff" xlink:href="#b"/>
</g>
<g clip-path="url(#a)">
<use x="195.621276" y="558.894072" fill="#ffffff" stroke="#ffffff" xlink:href="#b"/>
</g>
<g clip-path="url(#a)">
<use x="243.84955" y="558.894072" fill="#ffffff" stroke="#ffffff" xlink:href="#b"/>
</g>
<g clip-path="url(#a)">
<use x="292.077825" y="558.894072" fill="#ffffff" stroke="#ffffff" xlink:href="#b"/>
</g>
<g clip-path="url(#a)">
<use x="340.306099" y="558.894072" fill="#ffffff" stroke="#ffffff" xlink:href="#b"/>
</g>
<g clip-path="url(#a)">
<use x="388.534373" y="558.894072" fill="#ffffff" stroke="#ffffff" xlink:href="#b"/>
</g>
<g clip-path="url(#a)">
<use x="436.762648" y="558.894072" fill="#ffffff" stroke="#ffffff" xlink:href="#b"/>
</g>
<g clip-path="url(#a)">
<use x="484.990922" y="558.894072" fill="#ffffff" stroke="#ffffff" xlink:href="#b"/>
</g>
<g clip-path="url(#a)">
<use x="533.219196" y="558.894072" fill="#ffffff" stroke="#ffffff" xlink:href="#b"/>
</g>
<g clip-path="url(#a)">
<use x="581.44747" y="558.894072" fill="#ffffff" stroke="#ffffff" xlink:href="#b"/>
</g>
<g clip-path="url(#a)">
<use x="629.675745" y="558.894072" fill="#ffffff" stroke="#ffffff" xlink:href="#b"/>
</g>
<g clip-path="url(#a)">
<use x="677.904019" y="558.894072" fill="#ffffff" stroke="#ffffff" xlink:href="#b"/>
</g>
<g clip-path="url(#a)">
<use x="726.132293" y="558.894072" fill="#ffffff" stroke="#ffffff" xlink:href="#b"/>
</g>
<g clip-path="url(#a)">
<use x="774.360568" y="558.894072" fill="#ffffff" stroke="#ffffff" xlink:href="#b"/>
</g>
<g clip-path="url(#a)">
<use x="822.588842" y="558.894072" fill="#ffffff" stroke="#ffffff" xlink:href="#b"/>
</g>
<g clip-path="url(#a)">
<use x="870.817116" y="558.894072" fill="#ffffff" stroke="#ffffff" xlink:href="#b"/>
</g>
<g clip-path="url(#a)">
<use x="919.045391" y="558.894072" fill="#ffffff" stroke="#ffffff" xlink:href="#b"/>
</g>
<g clip-path="url(#a)">
<use x="967.273665" y="558.894072" fill="#ffffff" stroke="#ffffff" xlink:href="#b"/>
</g>
<g clip-path="url(#a)">
<use x="1015.501939" y="558.894072" fill="#ffffff" stroke="#ffffff" xlink:href="#b"/>
</g>
<g clip-path="url(#a)">
<use x="1063.730214" y="558.894072" fill="#ffffff" stroke="#ffffff" xlink:href="#b"/>
</g>
<g clip-path="url(#a)">
<use x="471.929098" y="27.772595" fill="#ffffff" stroke="#ffffff" xlink:href="#b"/>
</g>
<g clip-path="url(#a)">
<use x="111.221796" y="350.787728" fill="#ffffff" stroke="#ffffff" xlink:href="#b"/>
</g>
<g clip-path="url(#a)">
<use x="407.825683" y="245.287062" fill="#ffffff" stroke="#ffffff" xlink:href="#b"/>
</g>
<g clip-path="url(#a)">
<use x="629.675745" y="454.8409" fill="#ffffff" stroke="#ffffff" xlink:href="#b"/>
</g>
<g clip-path="url(#a)">
<use x="905.782615" y="137.754901" fill="#ffffff" stroke="#ffffff" xlink:href="#b"/>
</g>
<g clip-path="url(#a)">
<use x="677.904019" y="454.8409" fill="#ffffff" stroke="#ffffff" xlink:href="#b"/>
</g>
<g clip-path="url(#a)">
<use x="804.503239" y="245.287062" fill="#ffffff" stroke="#ffffff" xlink:href="#b"/>
</g>
<g clip-path="url(#a)">
<use x="967.273665" y="454.8409" fill="#ffffff" stroke="#ffffff" xlink:href="#b"/>
</g>
<g clip-path="url(#a)">
<use x="1015.501939" y="454.8409" fill="#ffffff" stroke="#ffffff" xlink:href="#b"/>
</g>
<g clip-path="url(#a)">
<use x="894.931254" y="350.787728" fill="#ffffff" stroke="#ffffff" xlink:href="#b"/>
</g>
<g clip-path="url(#a)">
<use x="870.817116" y="454.8409" fill="#ffffff" stroke="#ffffff" xlink:href="#b"/>
</g>
<g clip-path="url(#a)">
<use x="919.045391" y="454.8409" fill="#ffffff" stroke="#ffffff" xlink:href="#b"/>
</g>
<g clip-path="url(#a)">
<use x="726.132293" y="454.8409" fill="#ffffff" stroke="#ffffff" xlink:href="#b"/>
</g>
<g clip-path="url(#a)">
<use x="774.360568" y="454.8409" fill="#ffffff" stroke="#ffffff" xlink:href="#b"/>
</g>
<g clip-path="url(#a)">
<use x="822.588842" y="454.8409" fill="#ffffff" stroke="#ffffff" xlink:href="#b"/>
</g>
<g clip-path="url(#a)">
<use x="267.963687" y="350.787728" fill="#ffffff" stroke="#ffffff" xlink:href="#b"/>
</g>
<g clip-path="url(#a)">
<use x="340.306099" y="454.8409" fill="#ffffff" stroke="#ffffff" xlink:href="#b"/>
</g>
<g clip-path="url(#a)">
<use x="412.64851" y="350.787728" fill="#ffffff" stroke="#ffffff" xlink:href="#b"/>
</g>
<g clip-path="url(#a)">
<use x="484.990922" y="454.8409" fill="#ffffff" stroke="#ffffff" xlink:href="#b"/>
</g>
<g clip-path="url(#a)">
<use x="533.219196" y="454.8409" fill="#ffffff" stroke="#ffffff" xlink:href="#b"/>
</g>
<g clip-path="url(#a)">
<use x="388.534373" y="454.8409" fill="#ffffff" stroke="#ffffff" xlink:href="#b"/>
</g>
<g clip-path="url(#a)">
<use x="436.762648" y="454.8409" fill="#ffffff" stroke="#ffffff" xlink:href="#b"/>
</g>
<g clip-path="url(#a)">
<use x="243.84955" y="454.8409" fill="#ffffff" stroke="#ffffff" xlink:href="#b"/>
</g>
<g clip-path="url(#a)">
<use x="292.077825" y="454.8409" fill="#ffffff" stroke="#ffffff" xlink:href="#b"/>
</g>
<g clip-path="url(#a)">
<use x="75.05059" y="454.8409" fill="#ffffff" stroke="#ffffff" xlink:href="#b"/>
</g>
<g clip-path="url(#a)">
<use x="147.393002" y="454.8409" fill="#ffffff" stroke="#ffffff" xlink:href="#b"/>
</g>
<g clip-path="url(#a)">
<use x="195.621276" y="454.8409" fill="#ffffff" stroke="#ffffff" xlink:href="#b"/>
</g>
<g clip-path="url(#a)">
<use x="581.44747" y="454.8409" fill="#ffffff" stroke="#ffffff" xlink:href="#b"/>
</g>
<g clip-path="url(#a)">
<use x="1063.730214" y="454.8409" fill="#ffffff" stroke="#ffffff" xlink:href="#b"/>
</g>
<g clip-path="url(#a)">
<defs>
<path id="ar" d="m9.8125 72.906h13.281l32.328-60.984v60.984h9.5625v-72.906h-13.281l-32.312 60.984v-60.984h-9.5781z"/>
<path id="o" d="m45.406 46.391v29.594h8.9844v-75.984h-8.9844v8.2031q-2.8281-4.875-7.1562-7.25-4.3125-2.375-10.375-2.375-9.9062 0-16.141 7.9062-6.2188 7.9219-6.2188 20.812t6.2188 20.797q6.2344 7.9062 16.141 7.9062 6.0625 0 10.375-2.375 4.3281-2.3594 7.1562-7.2344zm-30.609-19.094q0-9.9062 4.0781-15.547t11.203-5.6406 11.219 5.6406q4.1094 5.6406 4.1094 15.547t-4.1094 15.547q-4.0938 5.6406-11.219 5.6406t-11.203-5.6406-4.0781-15.547z"/>
</defs>
<g transform="translate(40.945 561.65) scale(.1 -.1)">
<use xlink:href="#ar"/>
<use x="74.804688" xlink:href="#d"/>
<use x="136.328125" xlink:href="#o"/>
</g>
</g>
<g clip-path="url(#a)">
<g transform="translate(86.972 561.65) scale(.1 -.1)">
<use xlink:href="#ai"/>
<use x="55.712891" xlink:href="#g"/>
<use x="116.992188" xlink:href="#e"/>
<use x="180.371094" xlink:href="#o"/>
</g>
</g>
<g clip-path="url(#a)">
<defs>
<path id="t" d="m54.891 33.016v-33.016h-8.9844v32.719q0 7.7656-3.0312 11.609-3.0312 3.8594-9.0781 3.8594-7.2812 0-11.484-4.6406-4.2031-4.625-4.2031-12.641v-30.906h-9.0312v75.984h9.0312v-29.797q3.2344 4.9375 7.5938 7.375 4.375 2.4375 10.094 2.4375 9.4219 0 14.25-5.8281 4.8438-5.8281 4.8438-17.156z"/>
<path id="ax" d="m30.609 48.391q-7.2188 0-11.422-5.6406t-4.2031-15.453 4.1719-15.453q4.1875-5.6406 11.453-5.6406 7.1875 0 11.375 5.6562 4.2031 5.6719 4.2031 15.438 0 9.7188-4.2031 15.406-4.1875 5.6875-11.375 5.6875zm0 7.6094q11.719 0 18.406-7.625 6.7031-7.6094 6.7031-21.078 0-13.422-6.7031-21.078-6.6875-7.6406-18.406-7.6406-11.766 0-18.438 7.6406-6.6562 7.6562-6.6562 21.078 0 13.469 6.6562 21.078 6.6719 7.625 18.438 7.625z"/>
<path id="ao" d="m37.109 75.984v-7.4844h-8.5938q-4.8281 0-6.7188-1.9531-1.875-1.9531-1.875-7.0312v-4.8281h14.797v-6.9844h-14.797v-47.703h-9.0312v47.703h-8.5938v6.9844h8.5938v3.8125q0 9.125 4.25 13.297 4.25 4.1875 13.469 4.1875z"/>
<path id="ah" d="m18.312 70.219v-15.531h18.5v-6.9844h-18.5v-29.688q0-6.6875 1.8281-8.5938t7.4531-1.9062h9.2188v-7.5156h-9.2188q-10.406 0-14.359 3.875-3.9531 3.8906-3.9531 14.141v29.688h-6.5938v6.9844h6.5938v15.531z"/>
</defs>
<g transform="translate(132.61 561.65) scale(.1 -.1)">
<use xlink:href="#t"/>
<use x="63.378906" xlink:href="#ax"/>
<use x="124.560547" xlink:href="#ao"/>
<use x="159.765625" xlink:href="#ao"/>
<use x="194.955078" xlink:href="#ah"/>
<use x="234.164062" xlink:href="#d"/>
</g>
</g>
<g clip-path="url(#a)">
<defs>
<path id="al" d="m11.719 12.406h10.297v-8.4062l-8-15.625h-6.2969l4 15.625z"/>
</defs>
<g transform="translate(194.03 561.65) scale(.1 -.1)">
<use xlink:href="#al"/>
</g>
</g>
<g clip-path="url(#a)">
<defs>
<path id="n" d="m44.281 53.078v-8.5q-3.7969 1.9531-7.9062 2.9219-4.0938 0.98438-8.5 0.98438-6.6875 0-10.031-2.0469t-3.3438-6.1562q0-3.125 2.3906-4.9062t9.625-3.3906l3.0781-0.6875q9.5625-2.0469 13.594-5.7812t4.0312-10.422q0-7.625-6.0312-12.078-6.0312-4.4375-16.578-4.4375-4.3906 0-9.1562 0.85938t-10.031 2.5625v9.2812q4.9844-2.5938 9.8125-3.8906 4.8281-1.2812 9.5781-1.2812 6.3438 0 9.75 2.1719 3.4219 2.1719 3.4219 6.125 0 3.6562-2.4688 5.6094-2.4531 1.9531-10.812 3.7656l-3.125 0.73438q-8.3438 1.75-12.062 5.3906-3.7031 3.6406-3.7031 9.9844 0 7.7188 5.4688 11.906 5.4688 4.2031 15.531 4.2031 4.9688 0 9.3594-0.73438 4.4062-0.71875 8.1094-2.1875z"/>
</defs>
<g transform="translate(236.79 561.65) scale(.1 -.1)">
<use xlink:href="#g"/>
<use x="61.279297" xlink:href="#h"/>
<use x="89.0625" xlink:href="#n"/>
</g>
</g>
<g clip-path="url(#a)">
<defs>
<path id="as" d="m9.8125 72.906h9.8594v-67.828q0-13.188-5-19.141t-16.094-5.9531h-3.75v8.2969h3.0781q6.5312 0 9.2188 3.6719 2.6875 3.6562 2.6875 13.125z"/>
<path id="av" d="m34.281 27.484q-10.891 0-15.094-2.4844t-4.2031-8.5q0-4.7812 3.1562-7.5938 3.1562-2.7969 8.5625-2.7969 7.4844 0 12 5.2969t4.5156 14.078v2zm17.922 3.7188v-31.203h-8.9844v8.2969q-3.0781-4.9688-7.6719-7.3438t-11.234-2.375q-8.3906 0-13.359 4.7188-4.9531 4.7188-4.9531 12.625 0 9.2188 6.1719 13.906 6.1875 4.6875 18.438 4.6875h12.609v0.89062q0 6.2031-4.0781 9.5938t-11.453 3.3906q-4.6875 0-9.1406-1.125-4.4375-1.125-8.5312-3.375v8.3125q4.9219 1.9062 9.5625 2.8438 4.6406 0.95312 9.0312 0.95312 11.875 0 17.734-6.1562 5.8594-6.1406 5.8594-18.641zm-18.609 44.578h9.9062v-9.8594h-9.9062zm-19.094 0h9.9062v-9.8594h-9.9062z"/>
<path id="u" d="m45.406 27.984q0 9.7656-4.0312 15.125-4.0156 5.375-11.297 5.375-7.2188 0-11.25-5.375-4.0312-5.3594-4.0312-15.125 0-9.7188 4.0312-15.094t11.25-5.375q7.2812 0 11.297 5.375 4.0312 5.375 4.0312 15.094zm8.9844-21.203q0-13.953-6.2031-20.766-6.1875-6.8125-18.984-6.8125-4.7344 0-8.9375 0.70312t-8.1562 2.1719v8.7344q3.9531-2.1406 7.8125-3.1562 3.8594-1.0312 7.8594-1.0312 8.8438 0 13.234 4.6094t4.3906 13.938v4.4531q-2.7812-4.8438-7.125-7.2344t-10.406-2.3906q-10.047 0-16.203 7.6562-6.1562 7.6719-6.1562 20.328 0 12.688 6.1562 20.344 6.1562 7.6719 16.203 7.6719 6.0625 0 10.406-2.3906t7.125-7.2188v8.2969h8.9844z"/>
</defs>
<g transform="translate(279.23 561.65) scale(.1 -.1)">
<use xlink:href="#as"/>
<use x="29.492188" xlink:href="#av"/>
<use x="90.771484" xlink:href="#u"/>
<use x="154.248047" xlink:href="#d"/>
<use x="215.771484" xlink:href="#i"/>
</g>
</g>
<g clip-path="url(#a)">
<defs>
<path id="am" d="m8.5 21.578v33.109h8.9844v-32.766q0-7.7656 3.0156-11.656 3.0312-3.875 9.0938-3.875 7.2656 0 11.484 4.6406 4.2344 4.6406 4.2344 12.656v31h8.9844v-54.688h-8.9844v8.4062q-3.2656-4.9844-7.5938-7.4062-4.3125-2.4219-10.031-2.4219-9.4219 0-14.312 5.8594-4.875 5.8594-4.875 17.141zm22.609 34.422m4.4844 19.781h9.9062v-9.8594h-9.9062zm-19.094 0h9.9062v-9.8594h-9.9062z"/>
<path id="q" d="m48.781 52.594v-8.4062q-3.8125 2.1094-7.6406 3.1562t-7.7344 1.0469q-8.75 0-13.594-5.5469-4.8281-5.5312-4.8281-15.547t4.8281-15.562q4.8438-5.5312 13.594-5.5312 3.9062 0 7.7344 1.0469t7.6406 3.1562v-8.3125q-3.7656-1.75-7.7969-2.625-4.0156-0.89062-8.5625-0.89062-12.359 0-19.641 7.7656-7.2656 7.7656-7.2656 20.953 0 13.375 7.3438 21.031 7.3594 7.6719 20.156 7.6719 4.1406 0 8.0938-0.85938 3.9531-0.84375 7.6719-2.5469z"/>
<path id="ay" d="m9.0781 75.984h9.0312v-44.875l26.812 23.578h11.469l-29-25.578 30.234-29.109h-11.719l-27.797 26.703v-26.703h-9.0312z"/>
</defs>
<g transform="translate(313.1 561.65) scale(.1 -.1)">
<use xlink:href="#u"/>
<use x="63.476562" xlink:href="#h"/>
<use x="91.259766" xlink:href="#am"/>
<use x="154.638672" xlink:href="#q"/>
<use x="209.619141" xlink:href="#ay"/>
<use x="267.529297" xlink:href="#h"/>
<use x="295.3125" xlink:href="#j"/>
<use x="323.095703" xlink:href="#q"/>
<use x="378.076172" xlink:href="#t"/>
<use x="441.455078" xlink:href="#d"/>
<use x="502.978516" xlink:href="#i"/>
</g>
</g>
<g clip-path="url(#a)">
<g transform="translate(381.48 561.65) scale(.1 -.1)">
<use xlink:href="#g"/>
<use x="61.279297" xlink:href="#h"/>
<use x="89.0625" xlink:href="#n"/>
</g>
</g>
<g clip-path="url(#a)">
<g transform="translate(417.65 561.65) scale(.1 -.1)">
<use xlink:href="#u"/>
<use x="63.476562" xlink:href="#d"/>
<use x="125" xlink:href="#n"/>
<use x="177.099609" xlink:href="#ah"/>
<use x="216.308594" xlink:href="#d"/>
<use x="277.832031" xlink:href="#i"/>
<use x="318.929688" xlink:href="#e"/>
</g>
</g>
<g clip-path="url(#a)">
<defs>
<path id="an" d="m5.5156 54.688h42.672v-8.2031l-33.781-39.312h33.781v-7.1719h-43.891v8.2031l33.797 39.312h-32.578z"/>
<path id="s" d="m8.5 21.578v33.109h8.9844v-32.766q0-7.7656 3.0156-11.656 3.0312-3.875 9.0938-3.875 7.2656 0 11.484 4.6406 4.2344 4.6406 4.2344 12.656v31h8.9844v-54.688h-8.9844v8.4062q-3.2656-4.9844-7.5938-7.4062-4.3125-2.4219-10.031-2.4219-9.4219 0-14.312 5.8594-4.875 5.8594-4.875 17.141z"/>
</defs>
<g transform="translate(479.2 561.65) scale(.1 -.1)">
<use xlink:href="#an"/>
<use x="52.490234" xlink:href="#s"/>
</g>
</g>
<g clip-path="url(#a)">
<g transform="translate(522.98 561.65) scale(.1 -.1)">
<use xlink:href="#n"/>
<use x="52.099609" xlink:href="#d"/>
<use x="113.623047" xlink:href="#j"/>
<use x="141.40625" xlink:href="#e"/>
</g>
</g>
<g clip-path="url(#a)">
<g transform="translate(579.86 561.65) scale(.1 -.1)">
<use xlink:href="#al"/>
</g>
</g>
<g clip-path="url(#a)">
<g transform="translate(620.16 561.65) scale(.1 -.1)">
<use xlink:href="#s"/>
<use x="63.378906" xlink:href="#e"/>
<use x="126.757812" xlink:href="#o"/>
</g>
</g>
<g clip-path="url(#a)">
<defs>
<path id="aw" d="m4.2031 54.688h8.9844l11.234-42.672 11.172 42.672h10.594l11.234-42.672 11.188 42.672h8.9844l-14.312-54.688h-10.594l-11.766 44.828-11.812-44.828h-10.609z"/>
</defs>
<g transform="translate(653.92 561.65) scale(.1 -.1)">
<use xlink:href="#aw"/>
<use x="81.787109" xlink:href="#am"/>
<use x="145.166016" xlink:href="#e"/>
<use x="208.544922" xlink:href="#n"/>
<use x="260.644531" xlink:href="#q"/>
<use x="315.625" xlink:href="#t"/>
<use x="379.003906" xlink:href="#ah"/>
<use x="418.212891" xlink:href="#d"/>
</g>
</g>
<g clip-path="url(#a)">
<g transform="translate(715.42 561.65) scale(.1 -.1)">
<use xlink:href="#d"/>
<use x="61.523438" xlink:href="#j"/>
<use x="89.306641" xlink:href="#e"/>
<use x="152.685547" xlink:href="#d"/>
</g>
</g>
<g clip-path="url(#a)">
<g transform="translate(756.75 561.65) scale(.1 -.1)">
<use xlink:href="#g"/>
<use x="61.279297" xlink:href="#e"/>
<use x="124.658203" xlink:href="#o"/>
<use x="188.134766" xlink:href="#d"/>
<use x="249.658203" xlink:href="#i"/>
<use x="290.740234" xlink:href="#d"/>
</g>
</g>
<g clip-path="url(#a)">
<defs>
<path id="at" d="m59.516 10.406v19.578h-16.109v8.1094h25.875v-31.312q-5.7031-4.0469-12.594-6.125-6.875-2.0781-14.688-2.0781-17.094 0-26.75 9.9844-9.6406 10-9.6406 27.812 0 17.875 9.6406 27.859 9.6562 9.9844 26.75 9.9844 7.125 0 13.547-1.7656 6.4219-1.75 11.844-5.1719v-10.5q-5.4688 4.6406-11.625 6.9844t-12.938 2.3438q-13.391 0-20.109-7.4688-6.7031-7.4688-6.7031-22.266 0-14.75 6.7031-22.219 6.7188-7.4688 20.109-7.4688 5.2188 0 9.3125 0.90625 4.1094 0.90625 7.375 2.8125z"/>
</defs>
<g transform="translate(803.04 561.65) scale(.1 -.1)">
<use xlink:href="#at"/>
<use x="77.490234" xlink:href="#d"/>
<use x="139.013672" xlink:href="#u"/>
<use x="202.490234" xlink:href="#d"/>
<use x="264.013672" xlink:href="#e"/>
<use x="327.392578" xlink:href="#o"/>
</g>
</g>
<g clip-path="url(#a)">
<g transform="translate(861.96 561.65) scale(.1 -.1)">
<use xlink:href="#o"/>
<use x="63.476562" xlink:href="#d"/>
<use x="125" xlink:href="#n"/>
</g>
</g>
<g clip-path="url(#a)">
<defs>
<path id="aq" d="m3.3281 72.906h9.9531l15.328-61.625 15.281 61.625h11.094l15.328-61.625 15.281 61.625h10.016l-18.312-72.906h-12.406l-15.375 63.281-15.531-63.281h-12.406z"/>
</defs>
<g transform="translate(900.8 561.65) scale(.1 -.1)">
<use xlink:href="#aq"/>
<use x="98.783203" xlink:href="#g"/>
<use x="160.0625" xlink:href="#h"/>
<use x="187.845703" xlink:href="#o"/>
<use x="251.322266" xlink:href="#d"/>
<use x="312.845703" xlink:href="#n"/>
</g>
</g>
<g clip-path="url(#a)">
<g transform="translate(961.48 561.65) scale(.1 -.1)">
<use xlink:href="#an"/>
<use x="52.490234" xlink:href="#s"/>
</g>
</g>
<g clip-path="url(#a)">
<defs>
<path id="ap" d="m48.688 27.297q0 9.9062-4.0781 15.547t-11.203 5.6406q-7.1406 0-11.219-5.6406t-4.0781-15.547 4.0781-15.547 11.219-5.6406q7.125 0 11.203 5.6406t4.0781 15.547zm-30.578 19.094q2.8438 4.875 7.1562 7.2344 4.3281 2.375 10.328 2.375 9.9688 0 16.188-7.9062 6.2344-7.9062 6.2344-20.797t-6.2344-20.812q-6.2188-7.9062-16.188-7.9062-6 0-10.328 2.375-4.3125 2.375-7.1562 7.25v-8.2031h-9.0312v75.984h9.0312z"/>
</defs>
<g transform="translate(991.31 561.65) scale(.1 -.1)">
<use xlink:href="#ap"/>
<use x="63.476562" xlink:href="#d"/>
<use x="125" xlink:href="#n"/>
<use x="177.099609" xlink:href="#s"/>
<use x="240.478516" xlink:href="#q"/>
<use x="295.458984" xlink:href="#t"/>
<use x="358.837891" xlink:href="#d"/>
<use x="420.361328" xlink:href="#e"/>
</g>
</g>
<g clip-path="url(#a)">
<defs>
<path id="f" d="m10.688 12.406h10.312v-12.406h-10.312z"/>
</defs>
<g transform="translate(1062.1 561.65) scale(.1 -.1)">
<use xlink:href="#f"/>
</g>
</g>
<g clip-path="url(#a)">
<defs>
<path id="c" d="m12.406 8.2969h16.109v55.625l-17.531-3.5156v8.9844l17.438 3.5156h9.8594v-64.609h16.109v-8.2969h-41.984z"/>
</defs>
<g transform="translate(463.98 30.532) scale(.1 -.1)">
<use xlink:href="#c"/>
<use x="63.623047" xlink:href="#f"/>
<use x="95.410156" xlink:href="#c"/>
</g>
</g>
<g clip-path="url(#a)">
<defs>
<path id="m" d="m19.188 8.2969h34.422v-8.2969h-46.281v8.2969q5.6094 5.8125 15.297 15.594 9.7031 9.7969 12.188 12.641 4.7344 5.3125 6.6094 9 1.8906 3.6875 1.8906 7.25 0 5.8125-4.0781 9.4688-4.0781 3.6719-10.625 3.6719-4.6406 0-9.7969-1.6094-5.1406-1.6094-11-4.8906v9.9688q5.9531 2.3906 11.125 3.6094 5.1875 1.2188 9.4844 1.2188 11.328 0 18.062-5.6719 6.7344-5.6562 6.7344-15.125 0-4.5-1.6875-8.5312-1.6719-4.0156-6.125-9.4844-1.2188-1.4219-7.7656-8.1875-6.5312-6.7656-18.453-18.922z"/>
</defs>
<g transform="translate(103.27 353.55) scale(.1 -.1)">
<use xlink:href="#c"/>
<use x="63.623047" xlink:href="#f"/>
<use x="95.410156" xlink:href="#m"/>
</g>
</g>
<g clip-path="url(#a)">
<defs>
<path id="af" d="m37.797 64.312-24.906-38.922h24.906zm-2.5938 8.5938h12.406v-47.516h10.406v-8.2031h-10.406v-17.188h-9.8125v17.188h-32.906v9.5156z"/>
</defs>
<g transform="translate(399.87 248.05) scale(.1 -.1)">
<use xlink:href="#c"/>
<use x="63.623047" xlink:href="#f"/>
<use x="95.410156" xlink:href="#af"/>
</g>
</g>
<g clip-path="url(#a)">
<defs>
<path id="ae" d="m33.016 40.375q-6.6406 0-10.531-4.5469-3.875-4.5312-3.875-12.438 0-7.8594 3.875-12.438 3.8906-4.5625 10.531-4.5625t10.516 4.5625q3.875 4.5781 3.875 12.438 0 7.9062-3.875 12.438-3.875 4.5469-10.516 4.5469zm19.578 30.922v-8.9844q-3.7188 1.75-7.5 2.6719-3.7812 0.9375-7.5 0.9375-9.7656 0-14.922-6.5938-5.1406-6.5938-5.875-19.922 2.875 4.25 7.2188 6.5156 4.3594 2.2656 9.5781 2.2656 10.984 0 17.359-6.6719 6.375-6.6562 6.375-18.125 0-11.234-6.6406-18.031-6.6406-6.7812-17.672-6.7812-12.656 0-19.344 9.6875-6.6875 9.7031-6.6875 28.109 0 17.281 8.2031 27.562t22.016 10.281q3.7188 0 7.5-0.73438t7.8906-2.1875z"/>
</defs>
<g transform="translate(621.72 457.6) scale(.1 -.1)">
<use xlink:href="#c"/>
<use x="63.623047" xlink:href="#f"/>
<use x="95.410156" xlink:href="#ae"/>
</g>
</g>
<g clip-path="url(#a)">
<defs>
<path id="ad" d="m8.2031 72.906h46.875v-4.2031l-26.469-68.703h-10.297l24.906 64.594h-35.016z"/>
</defs>
<g transform="translate(897.83 140.51) scale(.1 -.1)">
<use xlink:href="#c"/>
<use x="63.623047" xlink:href="#f"/>
<use x="95.410156" xlink:href="#ad"/>
</g>
</g>
<g clip-path="url(#a)">
<defs>
<path id="ac" d="m10.984 1.5156v8.9844q3.7188-1.7656 7.5156-2.6875 3.8125-0.92188 7.4844-0.92188 9.7656 0 14.906 6.5625 5.1562 6.5625 5.8906 19.953-2.8281-4.2031-7.1875-6.4531-4.3438-2.25-9.6094-2.25-10.938 0-17.312 6.6094-6.375 6.625-6.375 18.109 0 11.219 6.6406 18 6.6406 6.7969 17.672 6.7969 12.656 0 19.312-9.7031 6.6719-9.6875 6.6719-28.141 0-17.234-8.1875-27.516-8.1719-10.281-21.984-10.281-3.7188 0-7.5312 0.73438-3.7969 0.73438-7.9062 2.2031zm19.625 30.906q6.6406 0 10.516 4.5312 3.8906 4.5469 3.8906 12.469 0 7.8594-3.8906 12.422-3.875 4.5625-10.516 4.5625t-10.516-4.5625-3.875-12.422q0-7.9219 3.875-12.469 3.875-4.5312 10.516-4.5312z"/>
</defs>
<g transform="translate(669.95 457.6) scale(.1 -.1)">
<use xlink:href="#c"/>
<use x="63.623047" xlink:href="#f"/>
<use x="95.410156" xlink:href="#ac"/>
</g>
</g>
<g clip-path="url(#a)">
<defs>
<path id="ag" d="m31.781 66.406q-7.6094 0-11.453-7.5-3.8281-7.4844-3.8281-22.531 0-14.984 3.8281-22.484 3.8438-7.5 11.453-7.5 7.6719 0 11.5 7.5 3.8438 7.5 3.8438 22.484 0 15.047-3.8438 22.531-3.8281 7.5-11.5 7.5zm0 7.8125q12.266 0 18.734-9.7031 6.4688-9.6875 6.4688-28.141 0-18.406-6.4688-28.109-6.4688-9.6875-18.734-9.6875-12.25 0-18.719 9.6875-6.4688 9.7031-6.4688 28.109 0 18.453 6.4688 28.141 6.4688 9.7031 18.719 9.7031z"/>
</defs>
<g transform="translate(793.37 248.05) scale(.1 -.1)">
<use xlink:href="#c"/>
<use x="63.623047" xlink:href="#f"/>
<use x="95.410156" xlink:href="#c"/>
<use x="159.033203" xlink:href="#ag"/>
</g>
</g>
<g clip-path="url(#a)">
<g transform="translate(956.14 457.6) scale(.1 -.1)">
<use xlink:href="#c"/>
<use x="63.623047" xlink:href="#f"/>
<use x="95.410156" xlink:href="#c"/>
<use x="159.033203" xlink:href="#c"/>
</g>
</g>
<g clip-path="url(#a)">
<g transform="translate(1004.4 457.6) scale(.1 -.1)">
<use xlink:href="#c"/>
<use x="63.623047" xlink:href="#f"/>
<use x="95.410156" xlink:href="#c"/>
<use x="159.033203" xlink:href="#m"/>
</g>
</g>
<g clip-path="url(#a)">
<g transform="translate(883.8 353.55) scale(.1 -.1)">
<use xlink:href="#c"/>
<use x="63.623047" xlink:href="#f"/>
<use x="95.410156" xlink:href="#c"/>
<use x="159.033203" xlink:href="#af"/>
</g>
</g>
<g clip-path="url(#a)">
<defs>
<path id="ak" d="m10.797 72.906h38.719v-8.3125h-29.688v-17.859q2.1406 0.73438 4.2812 1.0938 2.1562 0.35938 4.3125 0.35938 12.203 0 19.328-6.6875 7.1406-6.6875 7.1406-18.109 0-11.766-7.3281-18.297-7.3281-6.5156-20.656-6.5156-4.5938 0-9.3594 0.78125-4.75 0.78125-9.8281 2.3438v9.9219q4.3906-2.3906 9.0781-3.5625t9.9062-1.1719q8.4531 0 13.375 4.4375 4.9375 4.4375 4.9375 12.062 0 7.6094-4.9375 12.047-4.9219 4.4531-13.375 4.4531-3.9531 0-7.8906-0.875-3.9219-0.875-8.0156-2.7344z"/>
</defs>
<g transform="translate(859.68 457.6) scale(.1 -.1)">
<use xlink:href="#c"/>
<use x="63.623047" xlink:href="#f"/>
<use x="95.410156" xlink:href="#c"/>
<use x="159.033203" xlink:href="#ak"/>
</g>
</g>
<g clip-path="url(#a)">
<g transform="translate(907.91 457.6) scale(.1 -.1)">
<use xlink:href="#c"/>
<use x="63.623047" xlink:href="#f"/>
<use x="95.410156" xlink:href="#c"/>
<use x="159.033203" xlink:href="#ae"/>
</g>
</g>
<g clip-path="url(#a)">
<g transform="translate(715 457.6) scale(.1 -.1)">
<use xlink:href="#c"/>
<use x="63.623047" xlink:href="#f"/>
<use x="95.410156" xlink:href="#c"/>
<use x="159.033203" xlink:href="#ad"/>
</g>
</g>
<g clip-path="url(#a)">
<defs>
<path id="aj" d="m31.781 34.625q-7.0312 0-11.062-3.7656-4.0156-3.7656-4.0156-10.344 0-6.5938 4.0156-10.359 4.0312-3.7656 11.062-3.7656t11.078 3.7812q4.0625 3.7969 4.0625 10.344 0 6.5781-4.0312 10.344-4.0156 3.7656-11.109 3.7656zm-9.8594 4.1875q-6.3438 1.5625-9.8906 5.9062-3.5312 4.3594-3.5312 10.609 0 8.7344 6.2188 13.812 6.2344 5.0781 17.062 5.0781 10.891 0 17.094-5.0781t6.2031-13.812q0-6.25-3.5469-10.609-3.5312-4.3438-9.8281-5.9062 7.125-1.6562 11.094-6.5 3.9844-4.8281 3.9844-11.797 0-10.609-6.4688-16.281-6.4688-5.6562-18.531-5.6562-12.047 0-18.531 5.6562-6.4688 5.6719-6.4688 16.281 0 6.9688 4 11.797 4.0156 4.8438 11.141 6.5zm-3.6094 15.578q0-5.6562 3.5312-8.8281 3.5469-3.1719 9.9375-3.1719 6.3594 0 9.9375 3.1719 3.5938 3.1719 3.5938 8.8281 0 5.6719-3.5938 8.8438-3.5781 3.1719-9.9375 3.1719-6.3906 0-9.9375-3.1719-3.5312-3.1719-3.5312-8.8438z"/>
</defs>
<g transform="translate(763.23 457.6) scale(.1 -.1)">
<use xlink:href="#c"/>
<use x="63.623047" xlink:href="#f"/>
<use x="95.410156" xlink:href="#c"/>
<use x="159.033203" xlink:href="#aj"/>
</g>
</g>
<g clip-path="url(#a)">
<g transform="translate(811.46 457.6) scale(.1 -.1)">
<use xlink:href="#c"/>
<use x="63.623047" xlink:href="#f"/>
<use x="95.410156" xlink:href="#c"/>
<use x="159.033203" xlink:href="#ac"/>
</g>
</g>
<g clip-path="url(#a)">
<g transform="translate(256.83 353.55) scale(.1 -.1)">
<use xlink:href="#c"/>
<use x="63.623047" xlink:href="#f"/>
<use x="95.410156" xlink:href="#m"/>
<use x="159.033203" xlink:href="#ag"/>
</g>
</g>
<g clip-path="url(#a)">
<g transform="translate(329.17 457.6) scale(.1 -.1)">
<use xlink:href="#c"/>
<use x="63.623047" xlink:href="#f"/>
<use x="95.410156" xlink:href="#m"/>
<use x="159.033203" xlink:href="#c"/>
</g>
</g>
<g clip-path="url(#a)">
<g transform="translate(401.52 353.55) scale(.1 -.1)">
<use xlink:href="#c"/>
<use x="63.623047" xlink:href="#f"/>
<use x="95.410156" xlink:href="#m"/>
<use x="159.033203" xlink:href="#m"/>
</g>
</g>
<g clip-path="url(#a)">
<defs>
<path id="p" d="m40.578 39.312q7.0781-1.5156 11.047-6.3125 3.9844-4.7812 3.9844-11.812 0-10.781-7.4219-16.703-7.4219-5.9062-21.094-5.9062-4.5781 0-9.4375 0.90625t-10.031 2.7188v9.5156q4.0938-2.3906 8.9688-3.6094 4.8906-1.2188 10.219-1.2188 9.2656 0 14.125 3.6562t4.8594 10.641q0 6.4531-4.5156 10.078-4.5156 3.6406-12.562 3.6406h-8.5v8.1094h8.8906q7.2656 0 11.125 2.9062t3.8594 8.375q0 5.6094-3.9844 8.6094-3.9688 3.0156-11.391 3.0156-4.0625 0-8.7031-0.89062-4.6406-0.875-10.203-2.7188v8.7812q5.625 1.5625 10.531 2.3438t9.25 0.78125q11.234 0 17.766-5.1094 6.5469-5.0938 6.5469-13.781 0-6.0625-3.4688-10.234t-9.8594-5.7812z"/>
</defs>
<g transform="translate(473.86 457.6) scale(.1 -.1)">
<use xlink:href="#c"/>
<use x="63.623047" xlink:href="#f"/>
<use x="95.410156" xlink:href="#m"/>
<use x="159.033203" xlink:href="#p"/>
</g>
</g>
<g clip-path="url(#a)">
<g transform="translate(522.09 457.6) scale(.1 -.1)">
<use xlink:href="#c"/>
<use x="63.623047" xlink:href="#f"/>
<use x="95.410156" xlink:href="#m"/>
<use x="159.033203" xlink:href="#af"/>
</g>
</g>
<g clip-path="url(#a)">
<g transform="translate(377.4 457.6) scale(.1 -.1)">
<use xlink:href="#c"/>
<use x="63.623047" xlink:href="#f"/>
<use x="95.410156" xlink:href="#m"/>
<use x="159.033203" xlink:href="#ak"/>
</g>
</g>
<g clip-path="url(#a)">
<g transform="translate(425.63 457.6) scale(.1 -.1)">
<use xlink:href="#c"/>
<use x="63.623047" xlink:href="#f"/>
<use x="95.410156" xlink:href="#m"/>
<use x="159.033203" xlink:href="#ae"/>
</g>
</g>
<g clip-path="url(#a)">
<g transform="translate(232.72 457.6) scale(.1 -.1)">
<use xlink:href="#c"/>
<use x="63.623047" xlink:href="#f"/>
<use x="95.410156" xlink:href="#m"/>
<use x="159.033203" xlink:href="#ad"/>
</g>
</g>
<g clip-path="url(#a)">
<g transform="translate(280.95 457.6) scale(.1 -.1)">
<use xlink:href="#c"/>
<use x="63.623047" xlink:href="#f"/>
<use x="95.410156" xlink:href="#m"/>
<use x="159.033203" xlink:href="#aj"/>
</g>
</g>
<g clip-path="url(#a)">
<g transform="translate(63.918 457.6) scale(.1 -.1)">
<use xlink:href="#c"/>
<use x="63.623047" xlink:href="#f"/>
<use x="95.410156" xlink:href="#m"/>
<use x="159.033203" xlink:href="#ac"/>
</g>
</g>
<g clip-path="url(#a)">
<g transform="translate(136.26 457.6) scale(.1 -.1)">
<use xlink:href="#c"/>
<use x="63.623047" xlink:href="#f"/>
<use x="95.410156" xlink:href="#p"/>
<use x="159.033203" xlink:href="#ag"/>
</g>
</g>
<g clip-path="url(#a)">
<g transform="translate(184.49 457.6) scale(.1 -.1)">
<use xlink:href="#c"/>
<use x="63.623047" xlink:href="#f"/>
<use x="95.410156" xlink:href="#p"/>
<use x="159.033203" xlink:href="#c"/>
</g>
</g>
<g clip-path="url(#a)">
<g transform="translate(570.31 457.6) scale(.1 -.1)">
<use xlink:href="#c"/>
<use x="63.623047" xlink:href="#f"/>
<use x="95.410156" xlink:href="#p"/>
<use x="159.033203" xlink:href="#m"/>
</g>
</g>
<g clip-path="url(#a)">
<g transform="translate(1052.6 457.6) scale(.1 -.1)">
<use xlink:href="#c"/>
<use x="63.623047" xlink:href="#f"/>
<use x="95.410156" xlink:href="#p"/>
<use x="159.033203" xlink:href="#p"/>
</g>
</g>
<defs>
<clipPath id="a">
<rect width="1114.7" height="586.67"/>
</clipPath>
</defs>
</svg>
