<?xml version="1.0" encoding="UTF-8"?>
<!DOCTYPE svg  PUBLIC '-//W3C//DTD SVG 1.1//EN'  'http://www.w3.org/Graphics/SVG/1.1/DTD/svg11.dtd'>
<svg width="1165.3pt" height="613.33pt" version="1.1" viewBox="0 0 1165.3 613.33" xmlns="http://www.w3.org/2000/svg" xmlns:xlink="http://www.w3.org/1999/xlink">
<defs>
<style type="text/css">*{stroke-linecap:butt;stroke-linejoin:round;}</style>
</defs>
<path d="m0 613.33h1165.3v-613.33h-1165.3z" fill="#fff"/>
<g fill="none" stroke="#000">
<path d="m650.69 28.985-224.93 115" clip-path="url(#a)"/>
<path d="m650.69 28.985 100.43 227.44" clip-path="url(#a)"/>
<path d="m650.69 28.985 124.5 446.56" clip-path="url(#a)"/>
<path d="m425.76 143.99-290.71 112.44" clip-path="url(#a)"/>
<path d="m425.76 143.99 12.514 331.56" clip-path="url(#a)"/>
<path d="m425.76 143.99 84.71 222.76" clip-path="url(#a)"/>
<path d="m425.76 143.99 229.1 222.76" clip-path="url(#a)"/>
<path d="m425.76 143.99-35.617 331.56" clip-path="url(#a)"/>
<path d="m751.12 256.43 72.196 219.12" clip-path="url(#a)"/>
<path d="m751.12 256.43 120.33 219.12" clip-path="url(#a)"/>
<path d="m751.12 256.43 168.46 219.12" clip-path="url(#a)"/>
<path d="m751.12 256.43 288.79 110.32" clip-path="url(#a)"/>
<path d="m751.12 256.43-649.77 219.12" clip-path="url(#a)" stroke-dasharray="3.7,1.6"/>
<path d="m823.32 475.55v108.8" clip-path="url(#a)"/>
<path d="m871.45 475.55v108.8" clip-path="url(#a)"/>
<path d="m919.58 475.55v108.8" clip-path="url(#a)"/>
<path d="m1039.9 366.74-72.196 108.8" clip-path="url(#a)"/>
<path d="m1039.9 366.74-24.065 108.8" clip-path="url(#a)"/>
<path d="m1039.9 366.74 24.065 108.8" clip-path="url(#a)"/>
<path d="m1039.9 366.74 72.196 108.8" clip-path="url(#a)"/>
<path d="m967.71 475.55v108.8" clip-path="url(#a)"/>
<path d="m1015.8 475.55v108.8" clip-path="url(#a)"/>
<path d="m1064 475.55v108.8" clip-path="url(#a)"/>
<path d="m135.05 256.43-81.822 219.12" clip-path="url(#a)"/>
<path d="m135.05 256.43-33.692 219.12" clip-path="url(#a)"/>
<path d="m135.05 256.43 101.07 110.32" clip-path="url(#a)"/>
<path d="m135.05 256.43 14.439 219.12" clip-path="url(#a)"/>
<path d="m438.27 475.55v108.8" clip-path="url(#a)"/>
<path d="m510.47 366.74-24.065 108.8" clip-path="url(#a)"/>
<path d="m510.47 366.74 24.065 108.8" clip-path="url(#a)"/>
<path d="m654.86 366.74-72.196 108.8" clip-path="url(#a)"/>
<path d="m654.86 366.74-24.065 108.8" clip-path="url(#a)"/>
<path d="m654.86 366.74 24.065 108.8" clip-path="url(#a)"/>
<path d="m654.86 366.74 72.196 108.8" clip-path="url(#a)"/>
<path d="m582.67 475.55v108.8" clip-path="url(#a)"/>
<path d="m630.8 475.55v108.8" clip-path="url(#a)"/>
<path d="m678.93 475.55v108.8" clip-path="url(#a)"/>
<path d="m727.06 475.55v108.8" clip-path="url(#a)"/>
<path d="m486.4 475.55v108.8" clip-path="url(#a)"/>
<path d="m534.54 475.55v108.8" clip-path="url(#a)"/>
<path d="m53.227 475.55v108.8" clip-path="url(#a)"/>
<path d="m101.36 475.55v108.8" clip-path="url(#a)"/>
<path d="m236.12 366.74-134.77 108.8" clip-path="url(#a)" stroke-dasharray="3.7,1.6"/>
<path d="m236.12 366.74-38.505 108.8" clip-path="url(#a)"/>
<path d="m236.12 366.74 9.6262 108.8" clip-path="url(#a)"/>
<path d="m236.12 366.74 57.757 108.8" clip-path="url(#a)"/>
<path d="m236.12 366.74 105.89 108.8" clip-path="url(#a)"/>
<path d="m197.62 475.55v108.8" clip-path="url(#a)"/>
<path d="m245.75 475.55v108.8" clip-path="url(#a)"/>
<path d="m293.88 475.55v108.8" clip-path="url(#a)"/>
<path d="m342.01 475.55v108.8" clip-path="url(#a)"/>
<path d="m149.49 475.55v108.8" clip-path="url(#a)"/>
<path d="m390.14 475.55v108.8" clip-path="url(#a)"/>
<path d="m775.19 475.55v108.8" clip-path="url(#a)"/>
<path d="m1112.1 475.55v108.8" clip-path="url(#a)"/>
</g>
<path d="m538.4 93.439 5.3567-2.7388q2.1369-1.0925 1.0444-3.2294l-3.5246-6.8937q-1.0925-2.1369-3.2294-1.0444l-5.3567 2.7388q-2.1369 1.0925-1.0444 3.2294l3.5246 6.8937q1.0925 2.1369 3.2294 1.0444z" clip-path="url(#a)" fill="#fff" stroke="#fff"/>
<g clip-path="url(#a)">
<defs>
<path id="ah" d="m9.8125 72.906h9.8594v-29.891h35.844v29.891h9.8594v-72.906h-9.8594v34.719h-35.844v-34.719h-9.8594z"/>
</defs>
<g transform="translate(536.55 89.821) rotate(-27.08) scale(.08 -.08)">
<use xlink:href="#ah"/>
</g>
</g>
<path d="m693.96 142.49 2.4302 5.5036q0.96947 2.1955 3.1649 1.226l7.0827-3.1276q2.1955-0.96947 1.226-3.1649l-2.4302-5.5036q-0.96947-2.1955-3.1649-1.226l-7.0827 3.1276q-2.1955 0.96947-1.226 3.1649z" clip-path="url(#a)" fill="#fff" stroke="#fff"/>
<g clip-path="url(#a)">
<g transform="translate(697.67 140.85) rotate(66.175) scale(.08 -.08)">
<use xlink:href="#ah"/>
</g>
</g>
<path d="m706.11 251.13 1.5724 5.6399q0.64453 2.3118 2.9564 1.6673l7.4581-2.0793q2.3118-0.64453 1.6673-2.9564l-1.5724-5.6399q-0.64453-2.3118-2.9564-1.6673l-7.4581 2.0793q-2.3118 0.64453-1.6673 2.9564z" clip-path="url(#a)" fill="#fff" stroke="#fff"/>
<g clip-path="url(#a)">
<defs>
<path id="t" d="m8.6875 72.906h9.9219v-44.297q0-11.719 4.2344-16.875 4.25-5.1406 13.781-5.1406 9.4688 0 13.719 5.1406 4.25 5.1562 4.25 16.875v44.297h9.9062v-45.516q0-14.25-7.0625-21.531-7.0469-7.2812-20.812-7.2812-13.828 0-20.891 7.2812-7.0469 7.2812-7.0469 21.531z"/>
</defs>
<g transform="translate(710.03 250.04) rotate(74.422) scale(.08 -.08)">
<use xlink:href="#t"/>
</g>
</g>
<path d="m280.12 207.04 5.104-1.9741q2.2384-0.86576 1.3726-3.1042l-2.793-7.2212q-0.86576-2.2384-3.1042-1.3726l-5.104 1.9741q-2.2384 0.86576-1.3726 3.1042l2.793 7.2212q0.86576 2.2384 3.1042 1.3726z" clip-path="url(#a)" fill="#fff" stroke="#fff"/>
<g clip-path="url(#a)">
<defs>
<path id="q" d="m34.188 63.188-13.391-36.281h26.812zm-5.5781 9.7188h11.188l27.781-72.906h-10.25l-6.6406 18.703h-32.859l-6.6406-18.703h-10.406z"/>
</defs>
<g transform="translate(278.65 203.25) rotate(-21.145) scale(.08 -.08)">
<use xlink:href="#q"/>
</g>
</g>
<path d="m425.66 307.59 0.18193 4.8203q0.090519 2.3983 2.4888 2.3078l7.737-0.29202q2.3983-0.090519 2.3078-2.4888l-0.18193-4.8203q-0.090518-2.3983-2.4888-2.3078l-7.737 0.29202q-2.3983 0.090519-2.3078 2.4888z" clip-path="url(#a)" fill="#fff" stroke="#fff"/>
<g clip-path="url(#a)">
<defs>
<path id="x" d="m19.672 64.797v-27.391h12.406q6.8906 0 10.641 3.5625 3.7656 3.5625 3.7656 10.156 0 6.5469-3.7656 10.109-3.75 3.5625-10.641 3.5625zm-9.8594 8.1094h22.266q12.266 0 18.531-5.5469 6.2812-5.5469 6.2812-16.234 0-10.797-6.2812-16.312-6.2656-5.5156-18.531-5.5156h-12.406v-29.297h-9.8594z"/>
</defs>
<g transform="translate(429.72 307.44) rotate(87.839) scale(.08 -.08)">
<use xlink:href="#x"/>
</g>
</g>
<path d="m461.28 255.04 1.9452 5.1151q0.85308 2.2433 3.0963 1.3902l7.2369-2.7521q2.2433-0.85308 1.3902-3.0963l-1.9452-5.1151q-0.85308-2.2433-3.0963-1.3902l-7.2369 2.7521q-2.2433 0.85308-1.3902 3.0963z" clip-path="url(#a)" fill="#fff" stroke="#fff"/>
<g clip-path="url(#a)">
<g transform="translate(465.08 253.59) rotate(69.179) scale(.08 -.08)">
<use xlink:href="#q"/>
</g>
</g>
<path d="m533.98 257.95 3.9236 3.8149q1.7207 1.6731 3.3938-0.047668l5.3973-5.5511q1.6731-1.7207-0.047667-3.3938l-3.9236-3.8149q-1.7207-1.6731-3.3938 0.047668l-5.3973 5.5511q-1.6731 1.7207 0.047668 3.3938z" clip-path="url(#a)" fill="#fff" stroke="#fff"/>
<g clip-path="url(#a)">
<g transform="translate(536.81 255.04) rotate(44.195) scale(.08 -.08)">
<use xlink:href="#q"/>
</g>
</g>
<path d="m413.87 313.35 0.62536-5.8215q0.25634-2.3863-2.1299-2.6426l-7.6982-0.82696q-2.3863-0.25634-2.6426 2.1299l-0.62536 5.8215q-0.25634 2.3863 2.1299 2.6426l7.6982 0.82696q2.3863 0.25634 2.6426-2.1299z" clip-path="url(#a)" fill="#fff" stroke="#fff"/>
<g clip-path="url(#a)">
<g transform="translate(409.83 312.91) rotate(-83.869) scale(.08 -.08)">
<use xlink:href="#t"/>
</g>
</g>
<path d="m780.51 365.66 1.5095 4.5815q0.75105 2.2795 3.0305 1.5284l7.3536-2.4229q2.2795-0.75105 1.5284-3.0305l-1.5095-4.5815q-0.75105-2.2795-3.0305-1.5284l-7.3536 2.4229q-2.2795 0.75105-1.5284 3.0305z" clip-path="url(#a)" fill="#fff" stroke="#fff"/>
<g clip-path="url(#a)">
<g transform="translate(784.37 364.39) rotate(71.764) scale(.08 -.08)">
<use xlink:href="#x"/>
</g>
</g>
<path d="m804.47 366.61 2.6341 4.7968q1.1552 2.1037 3.2589 0.94846l6.7866-3.7268q2.1037-1.1552 0.94846-3.2589l-2.6341-4.7968q-1.1552-2.1037-3.2589-0.94846l-6.7866 3.7268q-2.1037 1.1552-0.94846 3.2589z" clip-path="url(#a)" fill="#fff" stroke="#fff"/>
<g clip-path="url(#a)">
<g transform="translate(808.04 364.65) rotate(61.227) scale(.08 -.08)">
<use xlink:href="#q"/>
</g>
</g>
<path d="m828.98 367.99 2.8044 3.6478q1.4628 1.9027 3.3655 0.43991l6.1382-4.719q1.9027-1.4628 0.43991-3.3655l-2.8044-3.6478q-1.4628-1.9027-3.3655-0.43991l-6.1382 4.719q-1.9027 1.4628-0.43991 3.3655z" clip-path="url(#a)" fill="#fff" stroke="#fff"/>
<g clip-path="url(#a)">
<defs>
<path id="ai" d="m9.8125 72.906h41.891v-8.3125h-32.031v-21.484h28.906v-8.2969h-28.906v-34.812h-9.8594z"/>
</defs>
<g transform="translate(832.2 365.51) rotate(52.447) scale(.08 -.08)">
<use xlink:href="#ai"/>
</g>
</g>
<path d="m890.72 316.47 5.1122 1.9529q2.242 0.85644 3.0984-1.3855l2.7629-7.2327q0.85644-2.242-1.3855-3.0984l-5.1122-1.9529q-2.242-0.85644-3.0984 1.3855l-2.7629 7.2327q-0.85644 2.242 1.3855 3.0984z" clip-path="url(#a)" fill="#fff" stroke="#fff"/>
<g clip-path="url(#a)">
<g transform="translate(892.17 312.67) rotate(20.907) scale(.08 -.08)">
<use xlink:href="#q"/>
</g>
</g>
<path d="m425.65 372.8 5.1856-1.7487q2.2742-0.76691 1.5073-3.0411l-2.4741-7.3366q-0.76691-2.2742-3.0411-1.5073l-5.1856 1.7487q-2.2742 0.76691-1.5073 3.0411l2.4741 7.3366q0.76691 2.2742 3.0411 1.5073z" clip-path="url(#a)" fill="#fff" stroke="#fff"/>
<g clip-path="url(#a)">
<g transform="translate(424.35 368.95) rotate(-18.635) scale(.08 -.08)">
<use xlink:href="#q"/>
</g>
</g>
<path d="m817.05 512.3v35.285q0 2.4 2.4 2.4h7.7425q2.4 0 2.4-2.4v-35.285q0-2.4-2.4-2.4h-7.7425q-2.4 0-2.4 2.4z" clip-path="url(#a)" fill="#fff" stroke="#fff"/>
<g clip-path="url(#a)">
<defs>
<path id="l" d="m-0.29688 72.906h61.672v-8.3125h-25.875v-64.594h-9.9062v64.594h-25.891z"/>
<path id="d" d="m56.203 29.594v-4.3906h-41.312q0.59375-9.2812 5.5938-14.141t13.938-4.8594q5.1719 0 10.031 1.2656t9.6562 3.8125v-8.5q-4.8438-2.0469-9.9219-3.125t-10.297-1.0781q-13.094 0-20.734 7.6094-7.6406 7.625-7.6406 20.625 0 13.422 7.25 21.297 7.25 7.8906 19.562 7.8906 11.031 0 17.453-7.1094 6.4219-7.0938 6.4219-19.297zm-8.9844 2.6406q-0.09375 7.3594-4.125 11.75-4.0312 4.4062-10.672 4.4062-7.5156 0-12.031-4.25t-5.2031-11.969z"/>
<path id="h" d="m41.109 46.297q-1.5156 0.875-3.2969 1.2812-1.7812 0.42188-3.9219 0.42188-7.625 0-11.703-4.9531t-4.0781-14.234v-28.812h-9.0312v54.688h9.0312v-8.5q2.8438 4.9844 7.375 7.3906 4.5469 2.4219 11.047 2.4219 0.92188 0 2.0469-0.125 1.125-0.10938 2.4844-0.35938z"/>
<path id="i" d="m52 44.188q3.375 6.0625 8.0625 8.9375t11.031 2.875q8.5469 0 13.188-5.9844 4.6406-5.9688 4.6406-17v-33.016h-9.0312v32.719q0 7.8594-2.7969 11.656-2.7812 3.8125-8.4844 3.8125-6.9844 0-11.047-4.6406-4.0469-4.625-4.0469-12.641v-30.906h-9.0312v32.719q0 7.9062-2.7812 11.688t-8.5938 3.7812q-6.8906 0-10.953-4.6562-4.0469-4.6562-4.0469-12.625v-30.906h-9.0312v54.688h9.0312v-8.5q3.0781 5.0312 7.375 7.4219t10.203 2.3906q5.9688 0 10.141-3.0312 4.1719-3.0156 6.1719-8.7812z"/>
<path id="f" d="m9.4219 54.688h8.9844v-54.688h-8.9844zm0 21.297h8.9844v-11.391h-8.9844z"/>
<path id="e" d="m54.891 33.016v-33.016h-8.9844v32.719q0 7.7656-3.0312 11.609-3.0312 3.8594-9.0781 3.8594-7.2812 0-11.484-4.6406-4.2031-4.625-4.2031-12.641v-30.906h-9.0312v54.688h9.0312v-8.5q3.2344 4.9375 7.5938 7.375 4.375 2.4375 10.094 2.4375 9.4219 0 14.25-5.8281 4.8438-5.8281 4.8438-17.156z"/>
<path id="j" d="m34.281 27.484q-10.891 0-15.094-2.4844t-4.2031-8.5q0-4.7812 3.1562-7.5938 3.1562-2.7969 8.5625-2.7969 7.4844 0 12 5.2969t4.5156 14.078v2zm17.922 3.7188v-31.203h-8.9844v8.2969q-3.0781-4.9688-7.6719-7.3438t-11.234-2.375q-8.3906 0-13.359 4.7188-4.9531 4.7188-4.9531 12.625 0 9.2188 6.1719 13.906 6.1875 4.6875 18.438 4.6875h12.609v0.89062q0 6.2031-4.0781 9.5938t-11.453 3.3906q-4.6875 0-9.1406-1.125-4.4375-1.125-8.5312-3.375v8.3125q4.9219 1.9062 9.5625 2.8438 4.6406 0.95312 9.0312 0.95312 11.875 0 17.734-6.1562 5.8594-6.1406 5.8594-18.641z"/>
<path id="k" d="m9.4219 75.984h8.9844v-75.984h-8.9844z"/>
</defs>
<g transform="translate(821.11 512.3) rotate(90) scale(.08 -.08)">
<use xlink:href="#l"/>
<use x="60.818359" xlink:href="#d"/>
<use x="122.341797" xlink:href="#h"/>
<use x="163.439453" xlink:href="#i"/>
<use x="260.851562" xlink:href="#f"/>
<use x="288.634766" xlink:href="#e"/>
<use x="352.013672" xlink:href="#j"/>
<use x="413.292969" xlink:href="#k"/>
</g>
</g>
<path d="m865.18 512.3v35.285q0 2.4 2.4 2.4h7.7425q2.4 0 2.4-2.4v-35.285q0-2.4-2.4-2.4h-7.7425q-2.4 0-2.4 2.4z" clip-path="url(#a)" fill="#fff" stroke="#fff"/>
<g clip-path="url(#a)">
<g transform="translate(869.24 512.3) rotate(90) scale(.08 -.08)">
<use xlink:href="#l"/>
<use x="60.818359" xlink:href="#d"/>
<use x="122.341797" xlink:href="#h"/>
<use x="163.439453" xlink:href="#i"/>
<use x="260.851562" xlink:href="#f"/>
<use x="288.634766" xlink:href="#e"/>
<use x="352.013672" xlink:href="#j"/>
<use x="413.292969" xlink:href="#k"/>
</g>
</g>
<path d="m913.31 512.3v35.285q0 2.4 2.4 2.4h7.7425q2.4 0 2.4-2.4v-35.285q0-2.4-2.4-2.4h-7.7425q-2.4 0-2.4 2.4z" clip-path="url(#a)" fill="#fff" stroke="#fff"/>
<g clip-path="url(#a)">
<g transform="translate(917.38 512.3) rotate(90) scale(.08 -.08)">
<use xlink:href="#l"/>
<use x="60.818359" xlink:href="#d"/>
<use x="122.341797" xlink:href="#h"/>
<use x="163.439453" xlink:href="#i"/>
<use x="260.851562" xlink:href="#f"/>
<use x="288.634766" xlink:href="#e"/>
<use x="352.013672" xlink:href="#j"/>
<use x="413.292969" xlink:href="#k"/>
</g>
</g>
<path d="m1007.6 426.72 2.7949-4.2121q1.327-1.9998-0.67282-3.3268l-6.4514-4.2809q-1.9998-1.327-3.3268 0.67282l-2.7949 4.2121q-1.327 1.9998 0.67282 3.3268l6.4514 4.2809q1.9998 1.327 3.3268-0.67282z" clip-path="url(#a)" fill="#fff" stroke="#fff"/>
<g clip-path="url(#a)">
<defs>
<path id="p" d="m9.8125 72.906h46.094v-8.3125h-36.234v-21.578h34.719v-8.2969h-34.719v-26.422h37.109v-8.2969h-46.969z"/>
</defs>
<g transform="translate(1004.3 424.47) rotate(-56.434) scale(.08 -.08)">
<use xlink:href="#p"/>
</g>
</g>
<path d="m1033.5 424.97 1.0917-4.9357q0.51832-2.3434-1.825-2.8617l-7.5598-1.6721q-2.3434-0.51832-2.8617 1.825l-1.0917 4.9357q-0.51832 2.3434 1.825 2.8617l7.5598 1.6721q2.3434 0.51832 2.8617-1.825z" clip-path="url(#a)" fill="#fff" stroke="#fff"/>
<g clip-path="url(#a)">
<g transform="translate(1029.5 424.09) rotate(-77.528) scale(.08 -.08)">
<use xlink:href="#p"/>
</g>
</g>
<path d="m1045.2 419.77 1.2064 5.4544q0.51832 2.3434 2.8617 1.825l7.5598-1.6721q2.3434-0.51832 1.825-2.8617l-1.2064-5.4544q-0.51832-2.3434-2.8617-1.825l-7.5598 1.6721q-2.3434 0.51832-1.825 2.8617z" clip-path="url(#a)" fill="#fff" stroke="#fff"/>
<g clip-path="url(#a)">
<defs>
<path id="u" d="m64.406 67.281v-10.391q-4.9844 4.6406-10.625 6.9219-5.6406 2.2969-11.984 2.2969-12.5 0-19.141-7.6406t-6.6406-22.094q0-14.406 6.6406-22.047t19.141-7.6406q6.3438 0 11.984 2.2969t10.625 6.9375v-10.312q-5.1719-3.5156-10.969-5.2812-5.7812-1.75-12.219-1.75-16.562 0-26.094 10.125-9.5156 10.141-9.5156 27.672 0 17.578 9.5156 27.703 9.5312 10.141 26.094 10.141 6.5312 0 12.312-1.7344 5.7969-1.7344 10.875-5.2031z"/>
</defs>
<g transform="translate(1049.2 418.89) rotate(77.528) scale(.08 -.08)">
<use xlink:href="#u"/>
</g>
</g>
<path d="m1069.2 422.17 3.2372 4.8787q1.327 1.9998 3.3268 0.67282l6.4514-4.2809q1.9998-1.327 0.67282-3.3268l-3.2372-4.8787q-1.327-1.9998-3.3268-0.67282l-6.4514 4.2809q-1.9998 1.327-0.67282 3.3268z" clip-path="url(#a)" fill="#fff" stroke="#fff"/>
<g clip-path="url(#a)">
<g transform="translate(1072.5 419.93) rotate(56.434) scale(.08 -.08)">
<use xlink:href="#t"/>
</g>
</g>
<path d="m961.44 512.3v35.285q0 2.4 2.4 2.4h7.7425q2.4 0 2.4-2.4v-35.285q0-2.4-2.4-2.4h-7.7425q-2.4 0-2.4 2.4z" clip-path="url(#a)" fill="#fff" stroke="#fff"/>
<g clip-path="url(#a)">
<g transform="translate(965.51 512.3) rotate(90) scale(.08 -.08)">
<use xlink:href="#l"/>
<use x="60.818359" xlink:href="#d"/>
<use x="122.341797" xlink:href="#h"/>
<use x="163.439453" xlink:href="#i"/>
<use x="260.851562" xlink:href="#f"/>
<use x="288.634766" xlink:href="#e"/>
<use x="352.013672" xlink:href="#j"/>
<use x="413.292969" xlink:href="#k"/>
</g>
</g>
<path d="m1009.6 512.3v35.285q0 2.4 2.4 2.4h7.7425q2.4 0 2.4-2.4v-35.285q0-2.4-2.4-2.4h-7.7425q-2.4 0-2.4 2.4z" clip-path="url(#a)" fill="#fff" stroke="#fff"/>
<g clip-path="url(#a)">
<g transform="translate(1013.6 512.3) rotate(90) scale(.08 -.08)">
<use xlink:href="#l"/>
<use x="60.818359" xlink:href="#d"/>
<use x="122.341797" xlink:href="#h"/>
<use x="163.439453" xlink:href="#i"/>
<use x="260.851562" xlink:href="#f"/>
<use x="288.634766" xlink:href="#e"/>
<use x="352.013672" xlink:href="#j"/>
<use x="413.292969" xlink:href="#k"/>
</g>
</g>
<path d="m1057.7 512.3v35.285q0 2.4 2.4 2.4h7.7425q2.4 0 2.4-2.4v-35.285q0-2.4-2.4-2.4h-7.7425q-2.4 0-2.4 2.4z" clip-path="url(#a)" fill="#fff" stroke="#fff"/>
<g clip-path="url(#a)">
<g transform="translate(1061.8 512.3) rotate(90) scale(.08 -.08)">
<use xlink:href="#l"/>
<use x="60.818359" xlink:href="#d"/>
<use x="122.341797" xlink:href="#h"/>
<use x="163.439453" xlink:href="#i"/>
<use x="260.851562" xlink:href="#f"/>
<use x="288.634766" xlink:href="#e"/>
<use x="352.013672" xlink:href="#j"/>
<use x="413.292969" xlink:href="#k"/>
</g>
</g>
<path d="m99.129 370.55 1.7684-4.7356q0.83957-2.2484-1.4088-3.0879l-7.2533-2.7085q-2.2484-0.83957-3.0879 1.4088l-1.7684 4.7356q-0.83957 2.2484 1.4088 3.0879l7.2533 2.7085q2.2484 0.83957 3.0879-1.4088z" clip-path="url(#a)" fill="#fff" stroke="#fff"/>
<g clip-path="url(#a)">
<g transform="translate(95.322 369.13) rotate(-69.524) scale(.08 -.08)">
<use xlink:href="#p"/>
</g>
</g>
<path d="m123.98 369.7 0.84896-5.5214q0.36474-2.3721-2.0074-2.7369l-7.6526-1.1767q-2.3721-0.36474-2.7369 2.0074l-0.84896 5.5214q-0.36474 2.3721 2.0074 2.7369l7.6526 1.1767q2.3721 0.36474 2.7369-2.0074z" clip-path="url(#a)" fill="#fff" stroke="#fff"/>
<g clip-path="url(#a)">
<g transform="translate(119.96 369.08) rotate(-81.259) scale(.08 -.08)">
<use xlink:href="#u"/>
</g>
</g>
<path d="m179.26 313.96 3.4149 3.7271q1.6213 1.7696 3.3909 0.14824l5.7087-5.2304q1.7696-1.6213 0.14824-3.3909l-3.4149-3.7271q-1.6213-1.7696-3.3909-0.14824l-5.7087 5.2304q-1.7696 1.6213-0.14824 3.3909z" clip-path="url(#a)" fill="#fff" stroke="#fff"/>
<g clip-path="url(#a)">
<g transform="translate(182.25 311.21) rotate(47.503) scale(.08 -.08)">
<use xlink:href="#p"/>
</g>
</g>
<path d="m135.82 363.48 0.38499 5.8423q0.15781 2.3948 2.5526 2.237l7.7257-0.5091q2.3948-0.15781 2.237-2.5526l-0.38499-5.8423q-0.15781-2.3948-2.5526-2.237l-7.7257 0.5091q-2.3948 0.15781-2.237 2.5526z" clip-path="url(#a)" fill="#fff" stroke="#fff"/>
<g clip-path="url(#a)">
<g transform="translate(139.87 363.21) rotate(86.23) scale(.08 -.08)">
<use xlink:href="#t"/>
</g>
</g>
<path d="m432 512.3v35.285q0 2.4 2.4 2.4h7.7425q2.4 0 2.4-2.4v-35.285q0-2.4-2.4-2.4h-7.7425q-2.4 0-2.4 2.4z" clip-path="url(#a)" fill="#fff" stroke="#fff"/>
<g clip-path="url(#a)">
<g transform="translate(436.07 512.3) rotate(90) scale(.08 -.08)">
<use xlink:href="#l"/>
<use x="60.818359" xlink:href="#d"/>
<use x="122.341797" xlink:href="#h"/>
<use x="163.439453" xlink:href="#i"/>
<use x="260.851562" xlink:href="#f"/>
<use x="288.634766" xlink:href="#e"/>
<use x="352.013672" xlink:href="#j"/>
<use x="413.292969" xlink:href="#k"/>
</g>
</g>
<path d="m504.02 424.97 1.0917-4.9357q0.51832-2.3434-1.825-2.8617l-7.5598-1.6721q-2.3434-0.51832-2.8617 1.825l-1.0917 4.9357q-0.51832 2.3434 1.825 2.8617l7.5598 1.6721q2.3434 0.51832 2.8617-1.825z" clip-path="url(#a)" fill="#fff" stroke="#fff"/>
<g clip-path="url(#a)">
<g transform="translate(500.05 424.09) rotate(-77.528) scale(.08 -.08)">
<use xlink:href="#p"/>
</g>
</g>
<path d="m515.78 419.77 1.2064 5.4544q0.51832 2.3434 2.8617 1.825l7.5598-1.6721q2.3434-0.51832 1.825-2.8617l-1.2064-5.4544q-0.51832-2.3434-2.8617-1.825l-7.5598 1.6721q-2.3434 0.51832-1.825 2.8617z" clip-path="url(#a)" fill="#fff" stroke="#fff"/>
<g clip-path="url(#a)">
<g transform="translate(519.74 418.89) rotate(77.528) scale(.08 -.08)">
<use xlink:href="#u"/>
</g>
</g>
<path d="m622.59 426.72 2.7949-4.2121q1.327-1.9998-0.67282-3.3268l-6.4514-4.2809q-1.9998-1.327-3.3268 0.67282l-2.7949 4.2121q-1.327 1.9998 0.67282 3.3268l6.4514 4.2809q1.9998 1.327 3.3268-0.67282z" clip-path="url(#a)" fill="#fff" stroke="#fff"/>
<g clip-path="url(#a)">
<g transform="translate(619.21 424.47) rotate(-56.434) scale(.08 -.08)">
<use xlink:href="#p"/>
</g>
</g>
<path d="m648.41 424.97 1.0917-4.9357q0.51832-2.3434-1.825-2.8617l-7.5598-1.6721q-2.3434-0.51832-2.8617 1.825l-1.0917 4.9357q-0.51832 2.3434 1.825 2.8617l7.5598 1.6721q2.3434 0.51832 2.8617-1.825z" clip-path="url(#a)" fill="#fff" stroke="#fff"/>
<g clip-path="url(#a)">
<g transform="translate(644.44 424.09) rotate(-77.528) scale(.08 -.08)">
<use xlink:href="#p"/>
</g>
</g>
<path d="m660.23 420.03 1.0917 4.9357q0.51832 2.3434 2.8617 1.825l7.5598-1.6721q2.3434-0.51832 1.825-2.8617l-1.0917-4.9357q-0.51832-2.3434-2.8617-1.825l-7.5598 1.6721q-2.3434 0.51832-1.825 2.8617z" clip-path="url(#a)" fill="#fff" stroke="#fff"/>
<g clip-path="url(#a)">
<g transform="translate(664.19 419.15) rotate(77.528) scale(.08 -.08)">
<use xlink:href="#p"/>
</g>
</g>
<path d="m684.19 422.28 3.0887 4.6547q1.327 1.9998 3.3268 0.67282l6.4514-4.2809q1.9998-1.327 0.67282-3.3268l-3.0887-4.6547q-1.327-1.9998-3.3268-0.67282l-6.4514 4.2809q-1.9998 1.327-0.67282 3.3268z" clip-path="url(#a)" fill="#fff" stroke="#fff"/>
<g clip-path="url(#a)">
<g transform="translate(687.58 420.04) rotate(56.434) scale(.08 -.08)">
<use xlink:href="#u"/>
</g>
</g>
<path d="m576.4 512.3v35.285q0 2.4 2.4 2.4h7.7425q2.4 0 2.4-2.4v-35.285q0-2.4-2.4-2.4h-7.7425q-2.4 0-2.4 2.4z" clip-path="url(#a)" fill="#fff" stroke="#fff"/>
<g clip-path="url(#a)">
<g transform="translate(580.46 512.3) rotate(90) scale(.08 -.08)">
<use xlink:href="#l"/>
<use x="60.818359" xlink:href="#d"/>
<use x="122.341797" xlink:href="#h"/>
<use x="163.439453" xlink:href="#i"/>
<use x="260.851562" xlink:href="#f"/>
<use x="288.634766" xlink:href="#e"/>
<use x="352.013672" xlink:href="#j"/>
<use x="413.292969" xlink:href="#k"/>
</g>
</g>
<path d="m624.53 512.3v35.285q0 2.4 2.4 2.4h7.7425q2.4 0 2.4-2.4v-35.285q0-2.4-2.4-2.4h-7.7425q-2.4 0-2.4 2.4z" clip-path="url(#a)" fill="#fff" stroke="#fff"/>
<g clip-path="url(#a)">
<g transform="translate(628.59 512.3) rotate(90) scale(.08 -.08)">
<use xlink:href="#l"/>
<use x="60.818359" xlink:href="#d"/>
<use x="122.341797" xlink:href="#h"/>
<use x="163.439453" xlink:href="#i"/>
<use x="260.851562" xlink:href="#f"/>
<use x="288.634766" xlink:href="#e"/>
<use x="352.013672" xlink:href="#j"/>
<use x="413.292969" xlink:href="#k"/>
</g>
</g>
<path d="m672.66 512.3v35.285q0 2.4 2.4 2.4h7.7425q2.4 0 2.4-2.4v-35.285q0-2.4-2.4-2.4h-7.7425q-2.4 0-2.4 2.4z" clip-path="url(#a)" fill="#fff" stroke="#fff"/>
<g clip-path="url(#a)">
<g transform="translate(676.72 512.3) rotate(90) scale(.08 -.08)">
<use xlink:href="#l"/>
<use x="60.818359" xlink:href="#d"/>
<use x="122.341797" xlink:href="#h"/>
<use x="163.439453" xlink:href="#i"/>
<use x="260.851562" xlink:href="#f"/>
<use x="288.634766" xlink:href="#e"/>
<use x="352.013672" xlink:href="#j"/>
<use x="413.292969" xlink:href="#k"/>
</g>
</g>
<path d="m720.79 512.3v35.285q0 2.4 2.4 2.4h7.7425q2.4 0 2.4-2.4v-35.285q0-2.4-2.4-2.4h-7.7425q-2.4 0-2.4 2.4z" clip-path="url(#a)" fill="#fff" stroke="#fff"/>
<g clip-path="url(#a)">
<g transform="translate(724.85 512.3) rotate(90) scale(.08 -.08)">
<use xlink:href="#l"/>
<use x="60.818359" xlink:href="#d"/>
<use x="122.341797" xlink:href="#h"/>
<use x="163.439453" xlink:href="#i"/>
<use x="260.851562" xlink:href="#f"/>
<use x="288.634766" xlink:href="#e"/>
<use x="352.013672" xlink:href="#j"/>
<use x="413.292969" xlink:href="#k"/>
</g>
</g>
<path d="m480.13 512.3v35.285q0 2.4 2.4 2.4h7.7425q2.4 0 2.4-2.4v-35.285q0-2.4-2.4-2.4h-7.7425q-2.4 0-2.4 2.4z" clip-path="url(#a)" fill="#fff" stroke="#fff"/>
<g clip-path="url(#a)">
<g transform="translate(484.2 512.3) rotate(90) scale(.08 -.08)">
<use xlink:href="#l"/>
<use x="60.818359" xlink:href="#d"/>
<use x="122.341797" xlink:href="#h"/>
<use x="163.439453" xlink:href="#i"/>
<use x="260.851562" xlink:href="#f"/>
<use x="288.634766" xlink:href="#e"/>
<use x="352.013672" xlink:href="#j"/>
<use x="413.292969" xlink:href="#k"/>
</g>
</g>
<path d="m528.26 512.3v35.285q0 2.4 2.4 2.4h7.7425q2.4 0 2.4-2.4v-35.285q0-2.4-2.4-2.4h-7.7425q-2.4 0-2.4 2.4z" clip-path="url(#a)" fill="#fff" stroke="#fff"/>
<g clip-path="url(#a)">
<g transform="translate(532.33 512.3) rotate(90) scale(.08 -.08)">
<use xlink:href="#l"/>
<use x="60.818359" xlink:href="#d"/>
<use x="122.341797" xlink:href="#h"/>
<use x="163.439453" xlink:href="#i"/>
<use x="260.851562" xlink:href="#f"/>
<use x="288.634766" xlink:href="#e"/>
<use x="352.013672" xlink:href="#j"/>
<use x="413.292969" xlink:href="#k"/>
</g>
</g>
<path d="m46.956 512.3v35.285q0 2.4 2.4 2.4h7.7425q2.4 0 2.4-2.4v-35.285q0-2.4-2.4-2.4h-7.7425q-2.4 0-2.4 2.4z" clip-path="url(#a)" fill="#fff" stroke="#fff"/>
<g clip-path="url(#a)">
<g transform="translate(51.02 512.3) rotate(90) scale(.08 -.08)">
<use xlink:href="#l"/>
<use x="60.818359" xlink:href="#d"/>
<use x="122.341797" xlink:href="#h"/>
<use x="163.439453" xlink:href="#i"/>
<use x="260.851562" xlink:href="#f"/>
<use x="288.634766" xlink:href="#e"/>
<use x="352.013672" xlink:href="#j"/>
<use x="413.292969" xlink:href="#k"/>
</g>
</g>
<path d="m95.087 512.3v35.285q0 2.4 2.4 2.4h7.7425q2.4 0 2.4-2.4v-35.285q0-2.4-2.4-2.4h-7.7425q-2.4 0-2.4 2.4z" clip-path="url(#a)" fill="#fff" stroke="#fff"/>
<g clip-path="url(#a)">
<g transform="translate(99.151 512.3) rotate(90) scale(.08 -.08)">
<use xlink:href="#l"/>
<use x="60.818359" xlink:href="#d"/>
<use x="122.341797" xlink:href="#h"/>
<use x="163.439453" xlink:href="#i"/>
<use x="260.851562" xlink:href="#f"/>
<use x="288.634766" xlink:href="#e"/>
<use x="352.013672" xlink:href="#j"/>
<use x="413.292969" xlink:href="#k"/>
</g>
</g>
<path d="m170.55 427.74 4.258-3.4377q1.8674-1.5076 0.35977-3.375l-4.8636-6.0242q-1.5076-1.8674-3.375-0.35977l-4.258 3.4377q-1.8674 1.5076-0.35977 3.375l4.8636 6.0242q1.5076 1.8674 3.375 0.35977z" clip-path="url(#a)" fill="#fff" stroke="#fff"/>
<g clip-path="url(#a)">
<g transform="translate(168 424.58) rotate(-38.915) scale(.08 -.08)">
<use xlink:href="#q"/>
</g>
</g>
<path d="m221.86 425.86 1.8545-5.2403q0.80069-2.2625-1.4618-3.0632l-7.2989-2.5831q-2.2625-0.80069-3.0632 1.4618l-1.8545 5.2403q-0.80069 2.2625 1.4618 3.0632l7.2989 2.5831q2.2625 0.80069 3.0632-1.4618z" clip-path="url(#a)" fill="#fff" stroke="#fff"/>
<g clip-path="url(#a)">
<defs>
<path id="ao" d="m44.391 34.188q3.1719-1.0781 6.1719-4.5938t6.0312-9.6719l10.016-19.922h-10.609l-9.3125 18.703q-3.625 7.3281-7.0156 9.7188t-9.25 2.3906h-10.75v-30.812h-9.8594v72.906h22.266q12.5 0 18.656-5.2344 6.1562-5.2188 6.1562-15.766 0-6.8906-3.2031-11.438-3.2031-4.5312-9.2969-6.2812zm-24.719 30.609v-25.875h12.406q7.125 0 10.766 3.2969t3.6406 9.6875-3.6406 9.6406-10.766 3.25z"/>
</defs>
<g transform="translate(218.03 424.5) rotate(-70.511) scale(.08 -.08)">
<use xlink:href="#ao"/>
</g>
</g>
<path d="m234.45 418.97 0.48229 5.4512q0.21151 2.3907 2.6022 2.1792l7.7124-0.68234q2.3907-0.21151 2.1792-2.6022l-0.48229-5.4512q-0.21151-2.3907-2.6022-2.1792l-7.7124 0.68234q-2.3907 0.21151-2.1792 2.6022z" clip-path="url(#a)" fill="#fff" stroke="#fff"/>
<g clip-path="url(#a)">
<g transform="translate(238.5 418.61) rotate(84.944) scale(.08 -.08)">
<use xlink:href="#q"/>
</g>
</g>
<path d="m258.02 421.36 2.8883 5.4409q1.1253 2.1198 3.2451 0.99454l6.8387-3.6303q2.1198-1.1253 0.99454-3.2451l-2.8883-5.4409q-1.1253-2.1198-3.2451-0.99454l-6.8387 3.6303q-2.1198 1.1253-0.99454 3.2451z" clip-path="url(#a)" fill="#fff" stroke="#fff"/>
<g clip-path="url(#a)">
<defs>
<path id="aj" d="m19.672 64.797v-56.688h11.922q15.094 0 22.094 6.8281 7 6.8438 7 21.594 0 14.641-7 21.453t-22.094 6.8125zm-9.8594 8.1094h20.266q21.188 0 31.094-8.8125 9.9219-8.8125 9.9219-27.562 0-18.859-9.9688-27.703-9.9531-8.8281-31.047-8.8281h-20.266z"/>
</defs>
<g transform="translate(261.61 419.46) rotate(62.039) scale(.08 -.08)">
<use xlink:href="#aj"/>
</g>
</g>
<path d="m282.89 423.79 3.3643 3.4569q1.6739 1.7199 3.3938 0.046074l5.5486-5.4q1.7199-1.6739 0.046073-3.3938l-3.3643-3.4569q-1.6739-1.7199-3.3938-0.046073l-5.5486 5.4q-1.7199 1.6739-0.046074 3.3938z" clip-path="url(#a)" fill="#fff" stroke="#fff"/>
<g clip-path="url(#a)">
<g transform="translate(285.8 420.96) rotate(45.778) scale(.08 -.08)">
<use xlink:href="#x"/>
</g>
</g>
<path d="m191.35 512.3v35.285q0 2.4 2.4 2.4h7.7425q2.4 0 2.4-2.4v-35.285q0-2.4-2.4-2.4h-7.7425q-2.4 0-2.4 2.4z" clip-path="url(#a)" fill="#fff" stroke="#fff"/>
<g clip-path="url(#a)">
<g transform="translate(195.41 512.3) rotate(90) scale(.08 -.08)">
<use xlink:href="#l"/>
<use x="60.818359" xlink:href="#d"/>
<use x="122.341797" xlink:href="#h"/>
<use x="163.439453" xlink:href="#i"/>
<use x="260.851562" xlink:href="#f"/>
<use x="288.634766" xlink:href="#e"/>
<use x="352.013672" xlink:href="#j"/>
<use x="413.292969" xlink:href="#k"/>
</g>
</g>
<path d="m239.48 512.3v35.285q0 2.4 2.4 2.4h7.7425q2.4 0 2.4-2.4v-35.285q0-2.4-2.4-2.4h-7.7425q-2.4 0-2.4 2.4z" clip-path="url(#a)" fill="#fff" stroke="#fff"/>
<g clip-path="url(#a)">
<g transform="translate(243.54 512.3) rotate(90) scale(.08 -.08)">
<use xlink:href="#l"/>
<use x="60.818359" xlink:href="#d"/>
<use x="122.341797" xlink:href="#h"/>
<use x="163.439453" xlink:href="#i"/>
<use x="260.851562" xlink:href="#f"/>
<use x="288.634766" xlink:href="#e"/>
<use x="352.013672" xlink:href="#j"/>
<use x="413.292969" xlink:href="#k"/>
</g>
</g>
<path d="m287.61 512.3v35.285q0 2.4 2.4 2.4h7.7425q2.4 0 2.4-2.4v-35.285q0-2.4-2.4-2.4h-7.7425q-2.4 0-2.4 2.4z" clip-path="url(#a)" fill="#fff" stroke="#fff"/>
<g clip-path="url(#a)">
<g transform="translate(291.67 512.3) rotate(90) scale(.08 -.08)">
<use xlink:href="#l"/>
<use x="60.818359" xlink:href="#d"/>
<use x="122.341797" xlink:href="#h"/>
<use x="163.439453" xlink:href="#i"/>
<use x="260.851562" xlink:href="#f"/>
<use x="288.634766" xlink:href="#e"/>
<use x="352.013672" xlink:href="#j"/>
<use x="413.292969" xlink:href="#k"/>
</g>
</g>
<path d="m335.74 512.3v35.285q0 2.4 2.4 2.4h7.7425q2.4 0 2.4-2.4v-35.285q0-2.4-2.4-2.4h-7.7425q-2.4 0-2.4 2.4z" clip-path="url(#a)" fill="#fff" stroke="#fff"/>
<g clip-path="url(#a)">
<g transform="translate(339.8 512.3) rotate(90) scale(.08 -.08)">
<use xlink:href="#l"/>
<use x="60.818359" xlink:href="#d"/>
<use x="122.341797" xlink:href="#h"/>
<use x="163.439453" xlink:href="#i"/>
<use x="260.851562" xlink:href="#f"/>
<use x="288.634766" xlink:href="#e"/>
<use x="352.013672" xlink:href="#j"/>
<use x="413.292969" xlink:href="#k"/>
</g>
</g>
<path d="m143.22 512.3v35.285q0 2.4 2.4 2.4h7.7425q2.4 0 2.4-2.4v-35.285q0-2.4-2.4-2.4h-7.7425q-2.4 0-2.4 2.4z" clip-path="url(#a)" fill="#fff" stroke="#fff"/>
<g clip-path="url(#a)">
<g transform="translate(147.28 512.3) rotate(90) scale(.08 -.08)">
<use xlink:href="#l"/>
<use x="60.818359" xlink:href="#d"/>
<use x="122.341797" xlink:href="#h"/>
<use x="163.439453" xlink:href="#i"/>
<use x="260.851562" xlink:href="#f"/>
<use x="288.634766" xlink:href="#e"/>
<use x="352.013672" xlink:href="#j"/>
<use x="413.292969" xlink:href="#k"/>
</g>
</g>
<path d="m383.87 512.3v35.285q0 2.4 2.4 2.4h7.7425q2.4 0 2.4-2.4v-35.285q0-2.4-2.4-2.4h-7.7425q-2.4 0-2.4 2.4z" clip-path="url(#a)" fill="#fff" stroke="#fff"/>
<g clip-path="url(#a)">
<g transform="translate(387.94 512.3) rotate(90) scale(.08 -.08)">
<use xlink:href="#l"/>
<use x="60.818359" xlink:href="#d"/>
<use x="122.341797" xlink:href="#h"/>
<use x="163.439453" xlink:href="#i"/>
<use x="260.851562" xlink:href="#f"/>
<use x="288.634766" xlink:href="#e"/>
<use x="352.013672" xlink:href="#j"/>
<use x="413.292969" xlink:href="#k"/>
</g>
</g>
<path d="m768.92 512.3v35.285q0 2.4 2.4 2.4h7.7425q2.4 0 2.4-2.4v-35.285q0-2.4-2.4-2.4h-7.7425q-2.4 0-2.4 2.4z" clip-path="url(#a)" fill="#fff" stroke="#fff"/>
<g clip-path="url(#a)">
<g transform="translate(772.98 512.3) rotate(90) scale(.08 -.08)">
<use xlink:href="#l"/>
<use x="60.818359" xlink:href="#d"/>
<use x="122.341797" xlink:href="#h"/>
<use x="163.439453" xlink:href="#i"/>
<use x="260.851562" xlink:href="#f"/>
<use x="288.634766" xlink:href="#e"/>
<use x="352.013672" xlink:href="#j"/>
<use x="413.292969" xlink:href="#k"/>
</g>
</g>
<path d="m1105.8 512.3v35.285q0 2.4 2.4 2.4h7.7425q2.4 0 2.4-2.4v-35.285q0-2.4-2.4-2.4h-7.7425q-2.4 0-2.4 2.4z" clip-path="url(#a)" fill="#fff" stroke="#fff"/>
<g clip-path="url(#a)">
<g transform="translate(1109.9 512.3) rotate(90) scale(.08 -.08)">
<use xlink:href="#l"/>
<use x="60.818359" xlink:href="#d"/>
<use x="122.341797" xlink:href="#h"/>
<use x="163.439453" xlink:href="#i"/>
<use x="260.851562" xlink:href="#f"/>
<use x="288.634766" xlink:href="#e"/>
<use x="352.013672" xlink:href="#j"/>
<use x="413.292969" xlink:href="#k"/>
</g>
</g>
<defs>
<path id="b" d="m0 8.6603c2.2967 0 4.4997-0.9125 6.1237-2.5365 1.624-1.624 2.5365-3.827 2.5365-6.1237s-0.9125-4.4997-2.5365-6.1237c-1.624-1.624-3.827-2.5365-6.1237-2.5365s-4.4997 0.9125-6.1237 2.5365c-1.624 1.624-2.5365 3.827-2.5365 6.1237s0.9125 4.4997 2.5365 6.1237c1.624 1.624 3.827 2.5365 6.1237 2.5365z"/>
</defs>
<g clip-path="url(#a)">
<use x="53.227232" y="584.348418" fill="#ffffff" stroke="#ffffff" xlink:href="#b"/>
</g>
<g clip-path="url(#a)">
<use x="101.35809" y="584.348418" fill="#ffffff" stroke="#ffffff" xlink:href="#b"/>
</g>
<g clip-path="url(#a)">
<use x="149.488948" y="584.348418" fill="#ffffff" stroke="#ffffff" xlink:href="#b"/>
</g>
<g clip-path="url(#a)">
<use x="197.619805" y="584.348418" fill="#ffffff" stroke="#ffffff" xlink:href="#b"/>
</g>
<g clip-path="url(#a)">
<use x="245.750663" y="584.348418" fill="#ffffff" stroke="#ffffff" xlink:href="#b"/>
</g>
<g clip-path="url(#a)">
<use x="293.881521" y="584.348418" fill="#ffffff" stroke="#ffffff" xlink:href="#b"/>
</g>
<g clip-path="url(#a)">
<use x="342.012378" y="584.348418" fill="#ffffff" stroke="#ffffff" xlink:href="#b"/>
</g>
<g clip-path="url(#a)">
<use x="390.143236" y="584.348418" fill="#ffffff" stroke="#ffffff" xlink:href="#b"/>
</g>
<g clip-path="url(#a)">
<use x="438.274094" y="584.348418" fill="#ffffff" stroke="#ffffff" xlink:href="#b"/>
</g>
<g clip-path="url(#a)">
<use x="486.404951" y="584.348418" fill="#ffffff" stroke="#ffffff" xlink:href="#b"/>
</g>
<g clip-path="url(#a)">
<use x="534.535809" y="584.348418" fill="#ffffff" stroke="#ffffff" xlink:href="#b"/>
</g>
<g clip-path="url(#a)">
<use x="582.666667" y="584.348418" fill="#ffffff" stroke="#ffffff" xlink:href="#b"/>
</g>
<g clip-path="url(#a)">
<use x="630.797524" y="584.348418" fill="#ffffff" stroke="#ffffff" xlink:href="#b"/>
</g>
<g clip-path="url(#a)">
<use x="678.928382" y="584.348418" fill="#ffffff" stroke="#ffffff" xlink:href="#b"/>
</g>
<g clip-path="url(#a)">
<use x="727.05924" y="584.348418" fill="#ffffff" stroke="#ffffff" xlink:href="#b"/>
</g>
<g clip-path="url(#a)">
<use x="775.190097" y="584.348418" fill="#ffffff" stroke="#ffffff" xlink:href="#b"/>
</g>
<g clip-path="url(#a)">
<use x="823.320955" y="584.348418" fill="#ffffff" stroke="#ffffff" xlink:href="#b"/>
</g>
<g clip-path="url(#a)">
<use x="871.451813" y="584.348418" fill="#ffffff" stroke="#ffffff" xlink:href="#b"/>
</g>
<g clip-path="url(#a)">
<use x="919.58267" y="584.348418" fill="#ffffff" stroke="#ffffff" xlink:href="#b"/>
</g>
<g clip-path="url(#a)">
<use x="967.713528" y="584.348418" fill="#ffffff" stroke="#ffffff" xlink:href="#b"/>
</g>
<g clip-path="url(#a)">
<use x="1015.844386" y="584.348418" fill="#ffffff" stroke="#ffffff" xlink:href="#b"/>
</g>
<g clip-path="url(#a)">
<use x="1063.975244" y="584.348418" fill="#ffffff" stroke="#ffffff" xlink:href="#b"/>
</g>
<g clip-path="url(#a)">
<use x="1112.106101" y="584.348418" fill="#ffffff" stroke="#ffffff" xlink:href="#b"/>
</g>
<g clip-path="url(#a)">
<use x="650.691612" y="28.984916" fill="#ffffff" stroke="#ffffff" xlink:href="#b"/>
</g>
<g clip-path="url(#a)">
<use x="425.760071" y="143.987154" fill="#ffffff" stroke="#ffffff" xlink:href="#b"/>
</g>
<g clip-path="url(#a)">
<use x="751.124669" y="256.427415" fill="#ffffff" stroke="#ffffff" xlink:href="#b"/>
</g>
<g clip-path="url(#a)">
<use x="823.320955" y="475.545937" fill="#ffffff" stroke="#ffffff" xlink:href="#b"/>
</g>
<g clip-path="url(#a)">
<use x="871.451813" y="475.545937" fill="#ffffff" stroke="#ffffff" xlink:href="#b"/>
</g>
<g clip-path="url(#a)">
<use x="919.58267" y="475.545937" fill="#ffffff" stroke="#ffffff" xlink:href="#b"/>
</g>
<g clip-path="url(#a)">
<use x="1039.909815" y="366.743457" fill="#ffffff" stroke="#ffffff" xlink:href="#b"/>
</g>
<g clip-path="url(#a)">
<use x="967.713528" y="475.545937" fill="#ffffff" stroke="#ffffff" xlink:href="#b"/>
</g>
<g clip-path="url(#a)">
<use x="1015.844386" y="475.545937" fill="#ffffff" stroke="#ffffff" xlink:href="#b"/>
</g>
<g clip-path="url(#a)">
<use x="1063.975244" y="475.545937" fill="#ffffff" stroke="#ffffff" xlink:href="#b"/>
</g>
<g clip-path="url(#a)">
<use x="135.04969" y="256.427415" fill="#ffffff" stroke="#ffffff" xlink:href="#b"/>
</g>
<g clip-path="url(#a)">
<use x="438.274094" y="475.545937" fill="#ffffff" stroke="#ffffff" xlink:href="#b"/>
</g>
<g clip-path="url(#a)">
<use x="510.47038" y="366.743457" fill="#ffffff" stroke="#ffffff" xlink:href="#b"/>
</g>
<g clip-path="url(#a)">
<use x="654.862953" y="366.743457" fill="#ffffff" stroke="#ffffff" xlink:href="#b"/>
</g>
<g clip-path="url(#a)">
<use x="582.666667" y="475.545937" fill="#ffffff" stroke="#ffffff" xlink:href="#b"/>
</g>
<g clip-path="url(#a)">
<use x="630.797524" y="475.545937" fill="#ffffff" stroke="#ffffff" xlink:href="#b"/>
</g>
<g clip-path="url(#a)">
<use x="678.928382" y="475.545937" fill="#ffffff" stroke="#ffffff" xlink:href="#b"/>
</g>
<g clip-path="url(#a)">
<use x="727.05924" y="475.545937" fill="#ffffff" stroke="#ffffff" xlink:href="#b"/>
</g>
<g clip-path="url(#a)">
<use x="486.404951" y="475.545937" fill="#ffffff" stroke="#ffffff" xlink:href="#b"/>
</g>
<g clip-path="url(#a)">
<use x="534.535809" y="475.545937" fill="#ffffff" stroke="#ffffff" xlink:href="#b"/>
</g>
<g clip-path="url(#a)">
<use x="53.227232" y="475.545937" fill="#ffffff" stroke="#ffffff" xlink:href="#b"/>
</g>
<g clip-path="url(#a)">
<use x="101.35809" y="475.545937" fill="#ffffff" stroke="#ffffff" xlink:href="#b"/>
</g>
<g clip-path="url(#a)">
<use x="236.124491" y="366.743457" fill="#ffffff" stroke="#ffffff" xlink:href="#b"/>
</g>
<g clip-path="url(#a)">
<use x="197.619805" y="475.545937" fill="#ffffff" stroke="#ffffff" xlink:href="#b"/>
</g>
<g clip-path="url(#a)">
<use x="245.750663" y="475.545937" fill="#ffffff" stroke="#ffffff" xlink:href="#b"/>
</g>
<g clip-path="url(#a)">
<use x="293.881521" y="475.545937" fill="#ffffff" stroke="#ffffff" xlink:href="#b"/>
</g>
<g clip-path="url(#a)">
<use x="342.012378" y="475.545937" fill="#ffffff" stroke="#ffffff" xlink:href="#b"/>
</g>
<g clip-path="url(#a)">
<use x="149.488948" y="475.545937" fill="#ffffff" stroke="#ffffff" xlink:href="#b"/>
</g>
<g clip-path="url(#a)">
<use x="390.143236" y="475.545937" fill="#ffffff" stroke="#ffffff" xlink:href="#b"/>
</g>
<g clip-path="url(#a)">
<use x="775.190097" y="475.545937" fill="#ffffff" stroke="#ffffff" xlink:href="#b"/>
</g>
<g clip-path="url(#a)">
<use x="1112.106101" y="475.545937" fill="#ffffff" stroke="#ffffff" xlink:href="#b"/>
</g>
<g clip-path="url(#a)">
<g transform="translate(44.912 587.11) scale(.1 -.1)">
<use xlink:href="#aj"/>
<use x="77.001953" xlink:href="#f"/>
<use x="104.785156" xlink:href="#d"/>
</g>
</g>
<g clip-path="url(#a)">
<defs>
<path id="ap" d="m9.8125 72.906h14.703l18.594-49.609 18.703 49.609h14.703v-72.906h-9.625v64.016l-18.797-50h-9.9062l-18.797 50v-64.016h-9.5781z"/>
<path id="ae" d="m8.5 21.578v33.109h8.9844v-32.766q0-7.7656 3.0156-11.656 3.0312-3.875 9.0938-3.875 7.2656 0 11.484 4.6406 4.2344 4.6406 4.2344 12.656v31h8.9844v-54.688h-8.9844v8.4062q-3.2656-4.9844-7.5938-7.4062-4.3125-2.4219-10.031-2.4219-9.4219 0-14.312 5.8594-4.875 5.8594-4.875 17.141z"/>
<path id="o" d="m44.281 53.078v-8.5q-3.7969 1.9531-7.9062 2.9219-4.0938 0.98438-8.5 0.98438-6.6875 0-10.031-2.0469t-3.3438-6.1562q0-3.125 2.3906-4.9062t9.625-3.3906l3.0781-0.6875q9.5625-2.0469 13.594-5.7812t4.0312-10.422q0-7.625-6.0312-12.078-6.0312-4.4375-16.578-4.4375-4.3906 0-9.1562 0.85938t-10.031 2.5625v9.2812q4.9844-2.5938 9.8125-3.8906 4.8281-1.2812 9.5781-1.2812 6.3438 0 9.75 2.1719 3.4219 2.1719 3.4219 6.125 0 3.6562-2.4688 5.6094-2.4531 1.9531-10.812 3.7656l-3.125 0.73438q-8.3438 1.75-12.062 5.3906-3.7031 3.6406-3.7031 9.9844 0 7.7188 5.4688 11.906 5.4688 4.2031 15.531 4.2031 4.9688 0 9.3594-0.73438 4.4062-0.71875 8.1094-2.1875z"/>
<path id="af" d="m9.0781 75.984h9.0312v-44.875l26.812 23.578h11.469l-29-25.578 30.234-29.109h-11.719l-27.797 26.703v-26.703h-9.0312z"/>
<path id="w" d="m18.312 70.219v-15.531h18.5v-6.9844h-18.5v-29.688q0-6.6875 1.8281-8.5938t7.4531-1.9062h9.2188v-7.5156h-9.2188q-10.406 0-14.359 3.875-3.9531 3.8906-3.9531 14.141v29.688h-6.5938v6.9844h6.5938v15.531z"/>
<path id="at" d="m9.0781 55.516q0 9.7656 5.8281 15.109 5.8438 5.3594 16.484 5.3594 10.156 0 15.5-5.6719 5.3594-5.6562 5.5-16.594-7.375-0.39062-11.484-3.2031-4.0938-2.8125-4.0938-7.5 0-2.2969 1.4219-4.2812 1.4219-1.9688 4.5938-4.0156l2.7812-1.8125q8.1094-5.1719 10.453-8.6406t2.3438-8.3438q0-8.4062-5.5-12.875t-15.797-4.4688q-3.125 0-6.4531 0.60938-3.3125 0.60938-6.875 1.7969v8q3.9062-1.4688 7.3125-2.1719 3.4219-0.70312 6.6094-0.70312 5.6562 0 8.5781 2.3125 2.9375 2.3281 2.9375 6.7656 0 3.0781-1.4375 5.125t-6.375 5.0781l-4.4844 2.6875q-4.6875 2.875-6.8125 6.1719t-2.125 7.75q0 6.1875 4.0781 10.391t11.438 5.625q-0.39062 5.0156-3.5938 7.75-3.1875 2.7344-8.7031 2.7344-6.3438 0-9.6719-3.3906-3.3125-3.3906-3.3125-9.7812v-55.328h-9.1406z"/>
</defs>
<g transform="translate(73.865 587.11) scale(.1 -.1)">
<use xlink:href="#ap"/>
<use x="86.279297" xlink:href="#ae"/>
<use x="149.658203" xlink:href="#o"/>
<use x="201.757812" xlink:href="#af"/>
<use x="259.652344" xlink:href="#j"/>
<use x="320.931641" xlink:href="#w"/>
<use x="360.140625" xlink:href="#e"/>
<use x="423.519531" xlink:href="#ae"/>
<use x="486.898438" xlink:href="#at"/>
</g>
</g>
<g clip-path="url(#a)">
<defs>
<path id="ad" d="m11.719 12.406h10.297v-8.4062l-8-15.625h-6.2969l4 15.625z"/>
</defs>
<g transform="translate(147.9 587.11) scale(.1 -.1)">
<use xlink:href="#ad"/>
</g>
</g>
<g clip-path="url(#a)">
<defs>
<path id="au" d="m45.406 46.391v29.594h8.9844v-75.984h-8.9844v8.2031q-2.8281-4.875-7.1562-7.25-4.3125-2.375-10.375-2.375-9.9062 0-16.141 7.9062-6.2188 7.9219-6.2188 20.812t6.2188 20.797q6.2344 7.9062 16.141 7.9062 6.0625 0 10.375-2.375 4.3281-2.3594 7.1562-7.2344zm-30.609-19.094q0-9.9062 4.0781-15.547t11.203-5.6406 11.219 5.6406q4.1094 5.6406 4.1094 15.547t-4.1094 15.547q-4.0938 5.6406-11.219 5.6406t-11.203-5.6406-4.0781-15.547z"/>
</defs>
<g transform="translate(189.98 587.11) scale(.1 -.1)">
<use xlink:href="#au"/>
<use x="63.476562" xlink:href="#f"/>
<use x="91.259766" xlink:href="#d"/>
</g>
</g>
<g clip-path="url(#a)">
<g transform="translate(238.68 587.11) scale(.1 -.1)">
<use xlink:href="#o"/>
<use x="52.099609" xlink:href="#f"/>
<use x="79.882812" xlink:href="#d"/>
</g>
</g>
<g clip-path="url(#a)">
<defs>
<path id="ag" d="m45.406 27.984q0 9.7656-4.0312 15.125-4.0156 5.375-11.297 5.375-7.2188 0-11.25-5.375-4.0312-5.3594-4.0312-15.125 0-9.7188 4.0312-15.094t11.25-5.375q7.2812 0 11.297 5.375 4.0312 5.375 4.0312 15.094zm8.9844-21.203q0-13.953-6.2031-20.766-6.1875-6.8125-18.984-6.8125-4.7344 0-8.9375 0.70312t-8.1562 2.1719v8.7344q3.9531-2.1406 7.8125-3.1562 3.8594-1.0312 7.8594-1.0312 8.8438 0 13.234 4.6094t4.3906 13.938v4.4531q-2.7812-4.8438-7.125-7.2344t-10.406-2.3906q-10.047 0-16.203 7.6562-6.1562 7.6719-6.1562 20.328 0 12.688 6.1562 20.344 6.1562 7.6719 16.203 7.6719 6.0625 0 10.406-2.3906t7.125-7.2188v8.2969h8.9844z"/>
</defs>
<g transform="translate(282.41 587.11) scale(.1 -.1)">
<use xlink:href="#ag"/>
<use x="63.476562" xlink:href="#d"/>
<use x="125" xlink:href="#h"/>
<use x="166.097656" xlink:href="#e"/>
</g>
</g>
<g clip-path="url(#a)">
<defs>
<path id="al" d="m37.109 75.984v-7.4844h-8.5938q-4.8281 0-6.7188-1.9531-1.875-1.9531-1.875-7.0312v-4.8281h14.797v-6.9844h-14.797v-47.703h-9.0312v47.703h-8.5938v6.9844h8.5938v3.8125q0 9.125 4.25 13.297 4.25 4.1875 13.469 4.1875z"/>
</defs>
<g transform="translate(323.67 587.11) scale(.1 -.1)">
<use xlink:href="#al"/>
<use x="35.205078" xlink:href="#h"/>
<use x="76.287109" xlink:href="#d"/>
<use x="137.810547" xlink:href="#o"/>
<use x="189.910156" xlink:href="#o"/>
<use x="242.009766" xlink:href="#d"/>
<use x="303.533203" xlink:href="#e"/>
</g>
</g>
<g clip-path="url(#a)">
<g transform="translate(388.55 587.11) scale(.1 -.1)">
<use xlink:href="#ad"/>
</g>
</g>
<g clip-path="url(#a)">
<defs>
<path id="am" d="m48.688 27.297q0 9.9062-4.0781 15.547t-11.203 5.6406q-7.1406 0-11.219-5.6406t-4.0781-15.547 4.0781-15.547 11.219-5.6406q7.125 0 11.203 5.6406t4.0781 15.547zm-30.578 19.094q2.8438 4.875 7.1562 7.2344 4.3281 2.375 10.328 2.375 9.9688 0 16.188-7.9062 6.2344-7.9062 6.2344-20.797t-6.2344-20.812q-6.2188-7.9062-16.188-7.9062-6 0-10.328 2.375-4.3125 2.375-7.1562 7.25v-8.2031h-9.0312v75.984h9.0312z"/>
</defs>
<g transform="translate(428.58 587.11) scale(.1 -.1)">
<use xlink:href="#ag"/>
<use x="63.476562" xlink:href="#f"/>
<use x="91.259766" xlink:href="#am"/>
<use x="154.736328" xlink:href="#w"/>
</g>
</g>
<g clip-path="url(#a)">
<defs>
<path id="s" d="m54.891 33.016v-33.016h-8.9844v32.719q0 7.7656-3.0312 11.609-3.0312 3.8594-9.0781 3.8594-7.2812 0-11.484-4.6406-4.2031-4.625-4.2031-12.641v-30.906h-9.0312v75.984h9.0312v-29.797q3.2344 4.9375 7.5938 7.375 4.375 2.4375 10.094 2.4375 9.4219 0 14.25-5.8281 4.8438-5.8281 4.8438-17.156z"/>
</defs>
<g transform="translate(471.85 587.11) scale(.1 -.1)">
<use xlink:href="#f"/>
<use x="27.783203" xlink:href="#s"/>
<use x="91.162109" xlink:href="#h"/>
<use x="132.244141" xlink:href="#d"/>
<use x="193.767578" xlink:href="#i"/>
</g>
</g>
<g clip-path="url(#a)">
<defs>
<path id="r" d="m48.781 52.594v-8.4062q-3.8125 2.1094-7.6406 3.1562t-7.7344 1.0469q-8.75 0-13.594-5.5469-4.8281-5.5312-4.8281-15.547t4.8281-15.562q4.8438-5.5312 13.594-5.5312 3.9062 0 7.7344 1.0469t7.6406 3.1562v-8.3125q-3.7656-1.75-7.7969-2.625-4.0156-0.89062-8.5625-0.89062-12.359 0-19.641 7.7656-7.2656 7.7656-7.2656 20.953 0 13.375 7.3438 21.031 7.3594 7.6719 20.156 7.6719 4.1406 0 8.0938-0.85938 3.9531-0.84375 7.6719-2.5469z"/>
</defs>
<g transform="translate(517.28 587.11) scale(.1 -.1)">
<use xlink:href="#ai"/>
<use x="57.519531" xlink:href="#k"/>
<use x="85.302734" xlink:href="#d"/>
<use x="146.826172" xlink:href="#f"/>
<use x="174.609375" xlink:href="#o"/>
<use x="226.708984" xlink:href="#r"/>
<use x="281.689453" xlink:href="#s"/>
</g>
</g>
<g clip-path="url(#a)">
<g transform="translate(568.79 587.11) scale(.1 -.1)">
<use xlink:href="#d"/>
<use x="61.523438" xlink:href="#f"/>
<use x="89.306641" xlink:href="#e"/>
<use x="152.685547" xlink:href="#d"/>
<use x="214.208984" xlink:href="#e"/>
</g>
</g>
<g clip-path="url(#a)">
<g transform="translate(615.16 587.11) scale(.1 -.1)">
<use xlink:href="#al"/>
<use x="35.205078" xlink:href="#d"/>
<use x="96.728516" xlink:href="#f"/>
<use x="124.511719" xlink:href="#e"/>
<use x="187.890625" xlink:href="#d"/>
<use x="249.414062" xlink:href="#e"/>
</g>
</g>
<g clip-path="url(#a)">
<defs>
<path id="an" d="m3.3281 72.906h9.9531l15.328-61.625 15.281 61.625h11.094l15.328-61.625 15.281 61.625h10.016l-18.312-72.906h-12.406l-15.375 63.281-15.531-63.281h-12.406z"/>
<path id="ar" d="m8.5 21.578v33.109h8.9844v-32.766q0-7.7656 3.0156-11.656 3.0312-3.875 9.0938-3.875 7.2656 0 11.484 4.6406 4.2344 4.6406 4.2344 12.656v31h8.9844v-54.688h-8.9844v8.4062q-3.2656-4.9844-7.5938-7.4062-4.3125-2.4219-10.031-2.4219-9.4219 0-14.312 5.8594-4.875 5.8594-4.875 17.141zm22.609 34.422m4.4844 19.781h9.9062v-9.8594h-9.9062zm-19.094 0h9.9062v-9.8594h-9.9062z"/>
<path id="ak" d="m5.5156 54.688h42.672v-8.2031l-33.781-39.312h33.781v-7.1719h-43.891v8.2031l33.797 39.312h-32.578z"/>
</defs>
<g transform="translate(666.14 587.11) scale(.1 -.1)">
<use xlink:href="#an"/>
<use x="98.830078" xlink:href="#ar"/>
<use x="162.208984" xlink:href="#h"/>
<use x="203.322266" xlink:href="#ak"/>
</g>
</g>
<g clip-path="url(#a)">
<g transform="translate(698.71 587.11) scale(.1 -.1)">
<use xlink:href="#ag"/>
<use x="63.476562" xlink:href="#d"/>
<use x="125" xlink:href="#o"/>
<use x="177.099609" xlink:href="#r"/>
<use x="232.080078" xlink:href="#s"/>
<use x="295.458984" xlink:href="#i"/>
<use x="392.871094" xlink:href="#j"/>
<use x="454.150391" xlink:href="#r"/>
<use x="509.130859" xlink:href="#af"/>
</g>
</g>
<g clip-path="url(#a)">
<g transform="translate(773.6 587.11) scale(.1 -.1)">
<use xlink:href="#ad"/>
</g>
</g>
<g clip-path="url(#a)">
<g transform="translate(807.51 587.11) scale(.1 -.1)">
<use xlink:href="#i"/>
<use x="97.412109" xlink:href="#j"/>
<use x="158.691406" xlink:href="#r"/>
<use x="213.671875" xlink:href="#s"/>
<use x="277.050781" xlink:href="#w"/>
</g>
</g>
<g clip-path="url(#a)">
<g transform="translate(865.77 587.11) scale(.1 -.1)">
<use xlink:href="#d"/>
<use x="61.523438" xlink:href="#o"/>
</g>
</g>
<g clip-path="url(#a)">
<g transform="translate(913.79 587.11) scale(.1 -.1)">
<use xlink:href="#ak"/>
<use x="52.490234" xlink:href="#ae"/>
</g>
</g>
<g clip-path="url(#a)">
<g transform="translate(952.13 587.11) scale(.1 -.1)">
<use xlink:href="#d"/>
<use x="61.523438" xlink:href="#f"/>
<use x="89.306641" xlink:href="#e"/>
<use x="152.685547" xlink:href="#d"/>
<use x="214.208984" xlink:href="#i"/>
</g>
</g>
<g clip-path="url(#a)">
<defs>
<path id="as" d="m30.609 48.391q-7.2188 0-11.422-5.6406t-4.2031-15.453 4.1719-15.453q4.1875-5.6406 11.453-5.6406 7.1875 0 11.375 5.6562 4.2031 5.6719 4.2031 15.438 0 9.7188-4.2031 15.406-4.1875 5.6875-11.375 5.6875zm0 7.6094q11.719 0 18.406-7.625 6.7031-7.6094 6.7031-21.078 0-13.422-6.7031-21.078-6.6875-7.6406-18.406-7.6406-11.766 0-18.438 7.6406-6.6562 7.6562-6.6562 21.078 0 13.469 6.6562 21.078 6.6719 7.625 18.438 7.625zm4.6094 19.781h9.9062v-9.8594h-9.9062zm-19.094 0h9.9062v-9.8594h-9.9062z"/>
</defs>
<g transform="translate(990.39 587.11) scale(.1 -.1)">
<use xlink:href="#af"/>
<use x="57.863281" xlink:href="#as"/>
<use x="119.044922" xlink:href="#o"/>
<use x="171.144531" xlink:href="#w"/>
<use x="210.353516" xlink:href="#k"/>
<use x="238.136719" xlink:href="#f"/>
<use x="265.919922" xlink:href="#r"/>
<use x="320.900391" xlink:href="#s"/>
<use x="384.279297" xlink:href="#d"/>
<use x="445.802734" xlink:href="#e"/>
</g>
</g>
<g clip-path="url(#a)">
<g transform="translate(1049.4 587.11) scale(.1 -.1)">
<use xlink:href="#p"/>
<use x="63.183594" xlink:href="#o"/>
<use x="115.283203" xlink:href="#o"/>
<use x="167.382812" xlink:href="#d"/>
<use x="228.90625" xlink:href="#e"/>
</g>
</g>
<g clip-path="url(#a)">
<defs>
<path id="g" d="m10.688 12.406h10.312v-12.406h-10.312z"/>
</defs>
<g transform="translate(1110.5 587.11) scale(.1 -.1)">
<use xlink:href="#g"/>
</g>
</g>
<g clip-path="url(#a)">
<defs>
<path id="c" d="m12.406 8.2969h16.109v55.625l-17.531-3.5156v8.9844l17.438 3.5156h9.8594v-64.609h16.109v-8.2969h-41.984z"/>
</defs>
<g transform="translate(642.74 31.744) scale(.1 -.1)">
<use xlink:href="#c"/>
<use x="63.623047" xlink:href="#g"/>
<use x="95.410156" xlink:href="#c"/>
</g>
</g>
<g clip-path="url(#a)">
<defs>
<path id="m" d="m19.188 8.2969h34.422v-8.2969h-46.281v8.2969q5.6094 5.8125 15.297 15.594 9.7031 9.7969 12.188 12.641 4.7344 5.3125 6.6094 9 1.8906 3.6875 1.8906 7.25 0 5.8125-4.0781 9.4688-4.0781 3.6719-10.625 3.6719-4.6406 0-9.7969-1.6094-5.1406-1.6094-11-4.8906v9.9688q5.9531 2.3906 11.125 3.6094 5.1875 1.2188 9.4844 1.2188 11.328 0 18.062-5.6719 6.7344-5.6562 6.7344-15.125 0-4.5-1.6875-8.5312-1.6719-4.0156-6.125-9.4844-1.2188-1.4219-7.7656-8.1875-6.5312-6.7656-18.453-18.922z"/>
</defs>
<g transform="translate(417.81 146.75) scale(.1 -.1)">
<use xlink:href="#c"/>
<use x="63.623047" xlink:href="#g"/>
<use x="95.410156" xlink:href="#m"/>
</g>
</g>
<g clip-path="url(#a)">
<defs>
<path id="n" d="m40.578 39.312q7.0781-1.5156 11.047-6.3125 3.9844-4.7812 3.9844-11.812 0-10.781-7.4219-16.703-7.4219-5.9062-21.094-5.9062-4.5781 0-9.4375 0.90625t-10.031 2.7188v9.5156q4.0938-2.3906 8.9688-3.6094 4.8906-1.2188 10.219-1.2188 9.2656 0 14.125 3.6562t4.8594 10.641q0 6.4531-4.5156 10.078-4.5156 3.6406-12.562 3.6406h-8.5v8.1094h8.8906q7.2656 0 11.125 2.9062t3.8594 8.375q0 5.6094-3.9844 8.6094-3.9688 3.0156-11.391 3.0156-4.0625 0-8.7031-0.89062-4.6406-0.875-10.203-2.7188v8.7812q5.625 1.5625 10.531 2.3438t9.25 0.78125q11.234 0 17.766-5.1094 6.5469-5.0938 6.5469-13.781 0-6.0625-3.4688-10.234t-9.8594-5.7812z"/>
</defs>
<g transform="translate(743.17 259.19) scale(.1 -.1)">
<use xlink:href="#c"/>
<use x="63.623047" xlink:href="#g"/>
<use x="95.410156" xlink:href="#n"/>
</g>
</g>
<g clip-path="url(#a)">
<defs>
<path id="v" d="m10.797 72.906h38.719v-8.3125h-29.688v-17.859q2.1406 0.73438 4.2812 1.0938 2.1562 0.35938 4.3125 0.35938 12.203 0 19.328-6.6875 7.1406-6.6875 7.1406-18.109 0-11.766-7.3281-18.297-7.3281-6.5156-20.656-6.5156-4.5938 0-9.3594 0.78125-4.75 0.78125-9.8281 2.3438v9.9219q4.3906-2.3906 9.0781-3.5625t9.9062-1.1719q8.4531 0 13.375 4.4375 4.9375 4.4375 4.9375 12.062 0 7.6094-4.9375 12.047-4.9219 4.4531-13.375 4.4531-3.9531 0-7.8906-0.875-3.9219-0.875-8.0156-2.7344z"/>
</defs>
<g transform="translate(815.37 478.31) scale(.1 -.1)">
<use xlink:href="#c"/>
<use x="63.623047" xlink:href="#g"/>
<use x="95.410156" xlink:href="#v"/>
</g>
</g>
<g clip-path="url(#a)">
<defs>
<path id="aa" d="m33.016 40.375q-6.6406 0-10.531-4.5469-3.875-4.5312-3.875-12.438 0-7.8594 3.875-12.438 3.8906-4.5625 10.531-4.5625t10.516 4.5625q3.875 4.5781 3.875 12.438 0 7.9062-3.875 12.438-3.875 4.5469-10.516 4.5469zm19.578 30.922v-8.9844q-3.7188 1.75-7.5 2.6719-3.7812 0.9375-7.5 0.9375-9.7656 0-14.922-6.5938-5.1406-6.5938-5.875-19.922 2.875 4.25 7.2188 6.5156 4.3594 2.2656 9.5781 2.2656 10.984 0 17.359-6.6719 6.375-6.6562 6.375-18.125 0-11.234-6.6406-18.031-6.6406-6.7812-17.672-6.7812-12.656 0-19.344 9.6875-6.6875 9.7031-6.6875 28.109 0 17.281 8.2031 27.562t22.016 10.281q3.7188 0 7.5-0.73438t7.8906-2.1875z"/>
</defs>
<g transform="translate(863.5 478.31) scale(.1 -.1)">
<use xlink:href="#c"/>
<use x="63.623047" xlink:href="#g"/>
<use x="95.410156" xlink:href="#aa"/>
</g>
</g>
<g clip-path="url(#a)">
<defs>
<path id="aq" d="m8.2031 72.906h46.875v-4.2031l-26.469-68.703h-10.297l24.906 64.594h-35.016z"/>
</defs>
<g transform="translate(911.63 478.31) scale(.1 -.1)">
<use xlink:href="#c"/>
<use x="63.623047" xlink:href="#g"/>
<use x="95.410156" xlink:href="#aq"/>
</g>
</g>
<g clip-path="url(#a)">
<defs>
<path id="z" d="m31.781 34.625q-7.0312 0-11.062-3.7656-4.0156-3.7656-4.0156-10.344 0-6.5938 4.0156-10.359 4.0312-3.7656 11.062-3.7656t11.078 3.7812q4.0625 3.7969 4.0625 10.344 0 6.5781-4.0312 10.344-4.0156 3.7656-11.109 3.7656zm-9.8594 4.1875q-6.3438 1.5625-9.8906 5.9062-3.5312 4.3594-3.5312 10.609 0 8.7344 6.2188 13.812 6.2344 5.0781 17.062 5.0781 10.891 0 17.094-5.0781t6.2031-13.812q0-6.25-3.5469-10.609-3.5312-4.3438-9.8281-5.9062 7.125-1.6562 11.094-6.5 3.9844-4.8281 3.9844-11.797 0-10.609-6.4688-16.281-6.4688-5.6562-18.531-5.6562-12.047 0-18.531 5.6562-6.4688 5.6719-6.4688 16.281 0 6.9688 4 11.797 4.0156 4.8438 11.141 6.5zm-3.6094 15.578q0-5.6562 3.5312-8.8281 3.5469-3.1719 9.9375-3.1719 6.3594 0 9.9375 3.1719 3.5938 3.1719 3.5938 8.8281 0 5.6719-3.5938 8.8438-3.5781 3.1719-9.9375 3.1719-6.3906 0-9.9375-3.1719-3.5312-3.1719-3.5312-8.8438z"/>
</defs>
<g transform="translate(1032 369.5) scale(.1 -.1)">
<use xlink:href="#c"/>
<use x="63.623047" xlink:href="#g"/>
<use x="95.410156" xlink:href="#z"/>
</g>
</g>
<g clip-path="url(#a)">
<defs>
<path id="y" d="m10.984 1.5156v8.9844q3.7188-1.7656 7.5156-2.6875 3.8125-0.92188 7.4844-0.92188 9.7656 0 14.906 6.5625 5.1562 6.5625 5.8906 19.953-2.8281-4.2031-7.1875-6.4531-4.3438-2.25-9.6094-2.25-10.938 0-17.312 6.6094-6.375 6.625-6.375 18.109 0 11.219 6.6406 18 6.6406 6.7969 17.672 6.7969 12.656 0 19.312-9.7031 6.6719-9.6875 6.6719-28.141 0-17.234-8.1875-27.516-8.1719-10.281-21.984-10.281-3.7188 0-7.5312 0.73438-3.7969 0.73438-7.9062 2.2031zm19.625 30.906q6.6406 0 10.516 4.5312 3.8906 4.5469 3.8906 12.469 0 7.8594-3.8906 12.422-3.875 4.5625-10.516 4.5625t-10.516-4.5625-3.875-12.422q0-7.9219 3.875-12.469 3.875-4.5312 10.516-4.5312z"/>
</defs>
<g transform="translate(959.76 478.31) scale(.1 -.1)">
<use xlink:href="#c"/>
<use x="63.623047" xlink:href="#g"/>
<use x="95.410156" xlink:href="#y"/>
</g>
</g>
<g clip-path="url(#a)">
<defs>
<path id="ac" d="m31.781 66.406q-7.6094 0-11.453-7.5-3.8281-7.4844-3.8281-22.531 0-14.984 3.8281-22.484 3.8438-7.5 11.453-7.5 7.6719 0 11.5 7.5 3.8438 7.5 3.8438 22.484 0 15.047-3.8438 22.531-3.8281 7.5-11.5 7.5zm0 7.8125q12.266 0 18.734-9.7031 6.4688-9.6875 6.4688-28.141 0-18.406-6.4688-28.109-6.4688-9.6875-18.734-9.6875-12.25 0-18.719 9.6875-6.4688 9.7031-6.4688 28.109 0 18.453 6.4688 28.141 6.4688 9.7031 18.719 9.7031z"/>
</defs>
<g transform="translate(1004.7 478.31) scale(.1 -.1)">
<use xlink:href="#c"/>
<use x="63.623047" xlink:href="#g"/>
<use x="95.410156" xlink:href="#c"/>
<use x="159.033203" xlink:href="#ac"/>
</g>
</g>
<g clip-path="url(#a)">
<g transform="translate(1052.8 478.31) scale(.1 -.1)">
<use xlink:href="#c"/>
<use x="63.623047" xlink:href="#g"/>
<use x="95.410156" xlink:href="#c"/>
<use x="159.033203" xlink:href="#c"/>
</g>
</g>
<g clip-path="url(#a)">
<g transform="translate(123.92 259.19) scale(.1 -.1)">
<use xlink:href="#c"/>
<use x="63.623047" xlink:href="#g"/>
<use x="95.410156" xlink:href="#c"/>
<use x="159.033203" xlink:href="#n"/>
</g>
</g>
<g clip-path="url(#a)">
<defs>
<path id="ab" d="m37.797 64.312-24.906-38.922h24.906zm-2.5938 8.5938h12.406v-47.516h10.406v-8.2031h-10.406v-17.188h-9.8125v17.188h-32.906v9.5156z"/>
</defs>
<g transform="translate(427.14 478.31) scale(.1 -.1)">
<use xlink:href="#c"/>
<use x="63.623047" xlink:href="#g"/>
<use x="95.410156" xlink:href="#c"/>
<use x="159.033203" xlink:href="#ab"/>
</g>
</g>
<g clip-path="url(#a)">
<g transform="translate(499.34 369.5) scale(.1 -.1)">
<use xlink:href="#c"/>
<use x="63.623047" xlink:href="#g"/>
<use x="95.410156" xlink:href="#c"/>
<use x="159.033203" xlink:href="#v"/>
</g>
</g>
<g clip-path="url(#a)">
<g transform="translate(643.73 369.5) scale(.1 -.1)">
<use xlink:href="#c"/>
<use x="63.623047" xlink:href="#g"/>
<use x="95.410156" xlink:href="#c"/>
<use x="159.033203" xlink:href="#aa"/>
</g>
</g>
<g clip-path="url(#a)">
<g transform="translate(571.53 478.31) scale(.1 -.1)">
<use xlink:href="#c"/>
<use x="63.623047" xlink:href="#g"/>
<use x="95.410156" xlink:href="#c"/>
<use x="159.033203" xlink:href="#z"/>
</g>
</g>
<g clip-path="url(#a)">
<g transform="translate(619.66 478.31) scale(.1 -.1)">
<use xlink:href="#c"/>
<use x="63.623047" xlink:href="#g"/>
<use x="95.410156" xlink:href="#c"/>
<use x="159.033203" xlink:href="#y"/>
</g>
</g>
<g clip-path="url(#a)">
<g transform="translate(667.8 478.31) scale(.1 -.1)">
<use xlink:href="#c"/>
<use x="63.623047" xlink:href="#g"/>
<use x="95.410156" xlink:href="#m"/>
<use x="159.033203" xlink:href="#ac"/>
</g>
</g>
<g clip-path="url(#a)">
<g transform="translate(715.93 478.31) scale(.1 -.1)">
<use xlink:href="#c"/>
<use x="63.623047" xlink:href="#g"/>
<use x="95.410156" xlink:href="#m"/>
<use x="159.033203" xlink:href="#c"/>
</g>
</g>
<g clip-path="url(#a)">
<g transform="translate(475.27 478.31) scale(.1 -.1)">
<use xlink:href="#c"/>
<use x="63.623047" xlink:href="#g"/>
<use x="95.410156" xlink:href="#m"/>
<use x="159.033203" xlink:href="#m"/>
</g>
</g>
<g clip-path="url(#a)">
<g transform="translate(523.4 478.31) scale(.1 -.1)">
<use xlink:href="#c"/>
<use x="63.623047" xlink:href="#g"/>
<use x="95.410156" xlink:href="#m"/>
<use x="159.033203" xlink:href="#n"/>
</g>
</g>
<g clip-path="url(#a)">
<g transform="translate(42.094 478.31) scale(.1 -.1)">
<use xlink:href="#c"/>
<use x="63.623047" xlink:href="#g"/>
<use x="95.410156" xlink:href="#m"/>
<use x="159.033203" xlink:href="#ab"/>
</g>
</g>
<g clip-path="url(#a)">
<g transform="translate(90.225 478.31) scale(.1 -.1)">
<use xlink:href="#c"/>
<use x="63.623047" xlink:href="#g"/>
<use x="95.410156" xlink:href="#m"/>
<use x="159.033203" xlink:href="#v"/>
</g>
</g>
<g clip-path="url(#a)">
<g transform="translate(224.99 369.5) scale(.1 -.1)">
<use xlink:href="#c"/>
<use x="63.623047" xlink:href="#g"/>
<use x="95.410156" xlink:href="#m"/>
<use x="159.033203" xlink:href="#aa"/>
</g>
</g>
<g clip-path="url(#a)">
<g transform="translate(186.49 478.31) scale(.1 -.1)">
<use xlink:href="#c"/>
<use x="63.623047" xlink:href="#g"/>
<use x="95.410156" xlink:href="#m"/>
<use x="159.033203" xlink:href="#z"/>
</g>
</g>
<g clip-path="url(#a)">
<g transform="translate(234.62 478.31) scale(.1 -.1)">
<use xlink:href="#c"/>
<use x="63.623047" xlink:href="#g"/>
<use x="95.410156" xlink:href="#m"/>
<use x="159.033203" xlink:href="#y"/>
</g>
</g>
<g clip-path="url(#a)">
<g transform="translate(282.75 478.31) scale(.1 -.1)">
<use xlink:href="#c"/>
<use x="63.623047" xlink:href="#g"/>
<use x="95.410156" xlink:href="#n"/>
<use x="159.033203" xlink:href="#ac"/>
</g>
</g>
<g clip-path="url(#a)">
<g transform="translate(330.88 478.31) scale(.1 -.1)">
<use xlink:href="#c"/>
<use x="63.623047" xlink:href="#g"/>
<use x="95.410156" xlink:href="#n"/>
<use x="159.033203" xlink:href="#c"/>
</g>
</g>
<g clip-path="url(#a)">
<g transform="translate(138.36 478.31) scale(.1 -.1)">
<use xlink:href="#c"/>
<use x="63.623047" xlink:href="#g"/>
<use x="95.410156" xlink:href="#n"/>
<use x="159.033203" xlink:href="#m"/>
</g>
</g>
<g clip-path="url(#a)">
<g transform="translate(379.01 478.31) scale(.1 -.1)">
<use xlink:href="#c"/>
<use x="63.623047" xlink:href="#g"/>
<use x="95.410156" xlink:href="#n"/>
<use x="159.033203" xlink:href="#n"/>
</g>
</g>
<g clip-path="url(#a)">
<g transform="translate(764.06 478.31) scale(.1 -.1)">
<use xlink:href="#c"/>
<use x="63.623047" xlink:href="#g"/>
<use x="95.410156" xlink:href="#n"/>
<use x="159.033203" xlink:href="#ab"/>
</g>
</g>
<g clip-path="url(#a)">
<g transform="translate(1101 478.31) scale(.1 -.1)">
<use xlink:href="#c"/>
<use x="63.623047" xlink:href="#g"/>
<use x="95.410156" xlink:href="#n"/>
<use x="159.033203" xlink:href="#v"/>
</g>
</g>
<defs>
<clipPath id="a">
<rect width="1165.3" height="613.33"/>
</clipPath>
</defs>
</svg>
