<?xml version="1.0" encoding="UTF-8"?>
<!DOCTYPE svg  PUBLIC '-//W3C//DTD SVG 1.1//EN'  'http://www.w3.org/Graphics/SVG/1.1/DTD/svg11.dtd'>
<svg width="1570.7pt" height="826.67pt" version="1.1" viewBox="0 0 1570.7 826.67" xmlns="http://www.w3.org/2000/svg" xmlns:xlink="http://www.w3.org/1999/xlink">
<defs>
<style type="text/css">*{stroke-linecap:butt;stroke-linejoin:round;}</style>
</defs>
<path d="m0 826.67h1570.7v-826.67h-1570.7z" fill="#fff"/>
<g fill="none" stroke="#000">
<path d="m236.1 37.576v94.817" clip-path="url(#a)"/>
<path d="m236.1 132.39 28.172 94.681" clip-path="url(#a)"/>
<path d="m236.1 132.39-23.28 564.69" clip-path="url(#a)"/>
<path d="m236.1 132.39 6.637 564.69" clip-path="url(#a)"/>
<path d="m236.1 132.39-74.956 564.69" clip-path="url(#a)"/>
<path d="m236.1 132.39-50.478 564.69" clip-path="url(#a)"/>
<path d="m236.1 132.39 39.274 564.69" clip-path="url(#a)"/>
<path d="m236.1 132.39 74.631 564.69" clip-path="url(#a)"/>
<path d="m264.27 227.07-192.88 470.01" clip-path="url(#a)"/>
<path d="m264.27 227.07-152.08 282.95" clip-path="url(#a)"/>
<path d="m264.27 227.07 84.536 470.01" clip-path="url(#a)"/>
<path d="m264.27 227.07 260.43 94.523" clip-path="url(#a)"/>
<path d="m212.82 697.08v92.006" clip-path="url(#a)"/>
<path d="m242.74 697.08v92.006" clip-path="url(#a)"/>
<path d="m71.394 697.08v92.006" clip-path="url(#a)"/>
<path d="m112.19 510.02-27.198 93.775" clip-path="url(#a)"/>
<path d="m112.19 510.02-8.1593 187.06" clip-path="url(#a)"/>
<path d="m112.19 510.02 8.1593 187.06" clip-path="url(#a)"/>
<path d="m112.19 510.02 27.198 187.06" clip-path="url(#a)"/>
<path d="m348.81 697.08v92.006" clip-path="url(#a)"/>
<path d="m524.7 321.6-135.1 375.49" clip-path="url(#a)"/>
<path d="m524.7 321.6-91.581 375.49" clip-path="url(#a)"/>
<path d="m524.7 321.6-45.345 375.49" clip-path="url(#a)"/>
<path d="m524.7 321.6 268.41 94.333" clip-path="url(#a)"/>
<path d="m524.7 321.6 3.6112 375.49" clip-path="url(#a)"/>
<path d="m389.61 697.08v92.006" clip-path="url(#a)"/>
<path d="m433.12 697.08v92.006" clip-path="url(#a)"/>
<path d="m479.36 697.08v92.006" clip-path="url(#a)"/>
<path d="m793.11 415.93-213.12 281.16" clip-path="url(#a)"/>
<path d="m793.11 415.93-158.73 281.16" clip-path="url(#a)"/>
<path d="m793.11 415.93-40.419 281.16" clip-path="url(#a)"/>
<path d="m793.11 415.93-41.779 281.16" clip-path="url(#a)"/>
<path d="m793.11 415.93 86.05 281.16" clip-path="url(#a)"/>
<path d="m793.11 415.93 368 94.094" clip-path="url(#a)"/>
<path d="m579.99 697.08v92.006" clip-path="url(#a)"/>
<path d="m634.39 697.08v92.006" clip-path="url(#a)"/>
<path d="m752.7 697.08-61.195 92.006" clip-path="url(#a)"/>
<path d="m752.7 697.08 61.195 92.006" clip-path="url(#a)"/>
<path d="m751.34 697.08v92.006" clip-path="url(#a)"/>
<path d="m879.17 697.08v92.006" clip-path="url(#a)"/>
<path d="m1161.1 510.02-178.6 93.775" clip-path="url(#a)"/>
<path d="m1161.1 510.02-31.731 93.775" clip-path="url(#a)"/>
<path d="m1161.1 510.02 210.33 93.775" clip-path="url(#a)"/>
<path d="m982.52 603.8-35.357 93.286" clip-path="url(#a)"/>
<path d="m982.52 603.8 35.357 93.286" clip-path="url(#a)"/>
<path d="m1129.4 603.8-38.077 93.286" clip-path="url(#a)"/>
<path d="m1129.4 603.8 38.077 93.286" clip-path="url(#a)"/>
<path d="m1371.4 603.8-125.11 93.286" clip-path="url(#a)"/>
<path d="m1371.4 603.8-43.516 93.286" clip-path="url(#a)"/>
<path d="m1371.4 603.8 40.797 93.286" clip-path="url(#a)"/>
<path d="m1371.4 603.8 127.83 93.286" clip-path="url(#a)"/>
<path d="m1246.3 697.08v92.006" clip-path="url(#a)"/>
<path d="m1327.9 697.08v92.006" clip-path="url(#a)"/>
<path d="m1091.3 697.08v92.006" clip-path="url(#a)"/>
<path d="m1167.5 697.08v92.006" clip-path="url(#a)"/>
<path d="m947.16 697.08v92.006" clip-path="url(#a)"/>
<path d="m1017.9 697.08v92.006" clip-path="url(#a)"/>
<path d="m84.993 603.8-5.4395 93.286" clip-path="url(#a)"/>
<path d="m84.993 603.8 5.4395 93.286" clip-path="url(#a)"/>
<path d="m104.03 697.08v92.006" clip-path="url(#a)"/>
<path d="m120.35 697.08v92.006" clip-path="url(#a)"/>
<path d="m139.39 697.08v92.006" clip-path="url(#a)"/>
<path d="m79.553 697.08v92.006" clip-path="url(#a)"/>
<path d="m90.432 697.08v92.006" clip-path="url(#a)"/>
<path d="m161.15 697.08v92.006" clip-path="url(#a)"/>
<path d="m185.62 697.08v92.006" clip-path="url(#a)"/>
<path d="m275.38 697.08v92.006" clip-path="url(#a)"/>
<path d="m310.73 697.08v92.006" clip-path="url(#a)"/>
<path d="m528.32 697.08v92.006" clip-path="url(#a)"/>
<path d="m1412.2 697.08v92.006" clip-path="url(#a)"/>
<path d="m1499.3 697.08v92.006" clip-path="url(#a)"/>
</g>
<path d="m229.83 81.976v6.0162q0 2.4 2.4 2.4h7.7425q2.4 0 2.4-2.4v-6.0162q0-2.4-2.4-2.4h-7.7425q-2.4 0-2.4 2.4z" clip-path="url(#a)" fill="#fff" stroke="#fff"/>
<g clip-path="url(#a)">
<defs>
<path id="t" d="m9.8125 72.906h9.8594v-29.891h35.844v29.891h9.8594v-72.906h-9.8594v34.719h-35.844v-34.719h-9.8594z"/>
</defs>
<g transform="translate(233.89 81.976) rotate(90) scale(.08 -.08)">
<use xlink:href="#t"/>
</g>
</g>
<path d="m243.4 178.9 1.5607 5.2452q0.68446 2.3003 2.9848 1.6159l7.421-2.2081q2.3003-0.68446 1.6159-2.9848l-1.5607-5.2452q-0.68446-2.3003-2.9848-1.6159l-7.421 2.2081q-2.3003 0.68446-1.6159 2.9848z" clip-path="url(#a)" fill="#fff" stroke="#fff"/>
<g clip-path="url(#a)">
<defs>
<path id="o" d="m34.188 63.188-13.391-36.281h26.812zm-5.5781 9.7188h11.188l27.781-72.906h-10.25l-6.6406 18.703h-32.859l-6.6406-18.703h-10.406z"/>
</defs>
<g transform="translate(247.29 177.74) rotate(73.43) scale(.08 -.08)">
<use xlink:href="#o"/>
</g>
</g>
<path d="m230.63 417.41 0.1987-4.8197q0.09886-2.398-2.2991-2.4968l-7.7359-0.31893q-2.398-0.098861-2.4968 2.2991l-0.1987 4.8197q-0.098861 2.398 2.2991 2.4968l7.7359 0.31893q2.398 0.09886 2.4968-2.2991z" clip-path="url(#a)" fill="#fff" stroke="#fff"/>
<g clip-path="url(#a)">
<defs>
<path id="z" d="m19.672 64.797v-27.391h12.406q6.8906 0 10.641 3.5625 3.7656 3.5625 3.7656 10.156 0 6.5469-3.7656 10.109-3.75 3.5625-10.641 3.5625zm-9.8594 8.1094h22.266q12.266 0 18.531-5.5469 6.2812-5.5469 6.2812-16.234 0-10.797-6.2812-16.312-6.2656-5.5156-18.531-5.5156h-12.406v-29.297h-9.8594z"/>
</defs>
<g transform="translate(226.57 417.24) rotate(-87.639) scale(.08 -.08)">
<use xlink:href="#z"/>
</g>
</g>
<path d="m233.12 412.08 0.064316 5.4721q0.028206 2.3998 2.428 2.3716l7.742-0.090994q2.3998-0.028206 2.3716-2.428l-0.064315-5.4721q-0.028206-2.3998-2.428-2.3716l-7.742 0.090993q-2.3998 0.028206-2.3716 2.428z" clip-path="url(#a)" fill="#fff" stroke="#fff"/>
<g clip-path="url(#a)">
<g transform="translate(237.18 412.03) rotate(89.327) scale(.08 -.08)">
<use xlink:href="#o"/>
</g>
</g>
<path d="m204.46 418.47 0.77042-5.8041q0.3158-2.3791-2.0633-2.6949l-7.6752-1.0188q-2.3791-0.3158-2.6949 2.0633l-0.77042 5.8041q-0.3158 2.3791 2.0633 2.6949l7.6752 1.0188q2.3791 0.3158 2.6949-2.0633z" clip-path="url(#a)" fill="#fff" stroke="#fff"/>
<g clip-path="url(#a)">
<defs>
<path id="s" d="m8.6875 72.906h9.9219v-44.297q0-11.719 4.2344-16.875 4.25-5.1406 13.781-5.1406 9.4688 0 13.719 5.1406 4.25 5.1562 4.25 16.875v44.297h9.9062v-45.516q0-14.25-7.0625-21.531-7.0469-7.2812-20.812-7.2812-13.828 0-20.891 7.2812-7.0469 7.2812-7.0469 21.531z"/>
</defs>
<g transform="translate(200.43 417.93) rotate(-82.439) scale(.08 -.08)">
<use xlink:href="#s"/>
</g>
</g>
<path d="m216.85 418.21 0.5213-5.8317q0.21368-2.3905-2.1768-2.6042l-7.7118-0.68936q-2.3905-0.21368-2.6042 2.1768l-0.5213 5.8317q-0.21368 2.3905 2.1768 2.6042l7.7118 0.68936q2.3905 0.21369 2.6042-2.1768z" clip-path="url(#a)" fill="#fff" stroke="#fff"/>
<g clip-path="url(#a)">
<g transform="translate(212.8 417.85) rotate(-84.892) scale(.08 -.08)">
<use xlink:href="#s"/>
</g>
</g>
<path d="m249.28 412.25 0.40623 5.8409q0.16652 2.3942 2.5607 2.2277l7.7238-0.53719q2.3942-0.16652 2.2277-2.5607l-0.40623-5.8409q-0.16652-2.3942-2.5607-2.2277l-7.7238 0.53719q-2.3942 0.16652-2.2277 2.5607z" clip-path="url(#a)" fill="#fff" stroke="#fff"/>
<g clip-path="url(#a)">
<g transform="translate(253.33 411.97) rotate(86.021) scale(.08 -.08)">
<use xlink:href="#s"/>
</g>
</g>
<path d="m266.82 412.66 0.76714 5.8045q0.31446 2.3793 2.6938 2.0649l7.6758-1.0144q2.3793-0.31446 2.0649-2.6938l-0.76714-5.8045q-0.31446-2.3793-2.6938-2.0649l-7.6758 1.0144q-2.3793 0.31446-2.0649 2.6938z" clip-path="url(#a)" fill="#fff" stroke="#fff"/>
<g clip-path="url(#a)">
<g transform="translate(270.85 412.13) rotate(82.471) scale(.08 -.08)">
<use xlink:href="#s"/>
</g>
</g>
<path d="m172.79 466.52 1.6923-4.1238q0.91116-2.2203-1.3092-3.1315l-7.1628-2.9394q-2.2203-0.91116-3.1315 1.3092l-1.6923 4.1238q-0.91116 2.2203 1.3092 3.1315l7.1628 2.9394q2.2203 0.91116 3.1315-1.3092z" clip-path="url(#a)" fill="#fff" stroke="#fff"/>
<g clip-path="url(#a)">
<defs>
<path id="ad" d="m9.8125 72.906h9.8594v-64.609h35.5v-8.2969h-45.359z"/>
</defs>
<g transform="translate(169.03 464.98) rotate(-67.688) scale(.08 -.08)">
<use xlink:href="#ad"/>
</g>
</g>
<path d="m192.33 374.17 2.8483-5.2993q1.1363-2.114-0.97773-3.2502l-6.8198-3.6656q-2.114-1.1363-3.2502 0.97773l-2.8483 5.2993q-1.1363 2.114 0.97773 3.2502l6.8198 3.6656q2.114 1.1363 3.2502-0.97773z" clip-path="url(#a)" fill="#fff" stroke="#fff"/>
<g clip-path="url(#a)">
<g transform="translate(188.75 372.24) rotate(-61.742) scale(.08 -.08)">
<use xlink:href="#t"/>
</g>
</g>
<path d="m299.98 461 0.78906 4.3871q0.42484 2.3621 2.7869 1.9373l7.6202-1.3706q2.3621-0.42484 1.9373-2.7869l-0.78906-4.3871q-0.42484-2.3621-2.7869-1.9373l-7.6202 1.3706q-2.3621 0.42484-1.9373 2.7869z" clip-path="url(#a)" fill="#fff" stroke="#fff"/>
<g clip-path="url(#a)">
<g transform="translate(303.98 460.28) rotate(79.804) scale(.08 -.08)">
<use xlink:href="#ad"/>
</g>
</g>
<path d="m389.52 279.2 5.6553 2.0526q2.256 0.81882 3.0748-1.4372l2.6415-7.278q0.81881-2.256-1.4372-3.0748l-5.6553-2.0526q-2.256-0.81881-3.0748 1.4372l-2.6415 7.278q-0.81882 2.256 1.4372 3.0748z" clip-path="url(#a)" fill="#fff" stroke="#fff"/>
<g clip-path="url(#a)">
<g transform="translate(390.91 275.38) rotate(19.948) scale(.08 -.08)">
<use xlink:href="#t"/>
</g>
</g>
<path d="m206.55 726.18v33.808q0 2.4 2.4 2.4h7.7425q2.4 0 2.4-2.4v-33.808q0-2.4-2.4-2.4h-7.7425q-2.4 0-2.4 2.4z" clip-path="url(#a)" fill="#fff" stroke="#fff"/>
<g clip-path="url(#a)">
<defs>
<path id="l" d="m-0.29688 72.906h61.672v-8.3125h-25.875v-64.594h-9.9062v64.594h-25.891z"/>
<path id="d" d="m56.203 29.594v-4.3906h-41.312q0.59375-9.2812 5.5938-14.141t13.938-4.8594q5.1719 0 10.031 1.2656t9.6562 3.8125v-8.5q-4.8438-2.0469-9.9219-3.125t-10.297-1.0781q-13.094 0-20.734 7.6094-7.6406 7.625-7.6406 20.625 0 13.422 7.25 21.297 7.25 7.8906 19.562 7.8906 11.031 0 17.453-7.1094 6.4219-7.0938 6.4219-19.297zm-8.9844 2.6406q-0.09375 7.3594-4.125 11.75-4.0312 4.4062-10.672 4.4062-7.5156 0-12.031-4.25t-5.2031-11.969z"/>
<path id="h" d="m41.109 46.297q-1.5156 0.875-3.2969 1.2812-1.7812 0.42188-3.9219 0.42188-7.625 0-11.703-4.9531t-4.0781-14.234v-28.812h-9.0312v54.688h9.0312v-8.5q2.8438 4.9844 7.375 7.3906 4.5469 2.4219 11.047 2.4219 0.92188 0 2.0469-0.125 1.125-0.10938 2.4844-0.35938z"/>
<path id="k" d="m52 44.188q3.375 6.0625 8.0625 8.9375t11.031 2.875q8.5469 0 13.188-5.9844 4.6406-5.9688 4.6406-17v-33.016h-9.0312v32.719q0 7.8594-2.7969 11.656-2.7812 3.8125-8.4844 3.8125-6.9844 0-11.047-4.6406-4.0469-4.625-4.0469-12.641v-30.906h-9.0312v32.719q0 7.9062-2.7812 11.688t-8.5938 3.7812q-6.8906 0-10.953-4.6562-4.0469-4.6562-4.0469-12.625v-30.906h-9.0312v54.688h9.0312v-8.5q3.0781 5.0312 7.375 7.4219t10.203 2.3906q5.9688 0 10.141-3.0312 4.1719-3.0156 6.1719-8.7812z"/>
<path id="f" d="m9.4219 54.688h8.9844v-54.688h-8.9844zm0 21.297h8.9844v-11.391h-8.9844z"/>
<path id="e" d="m54.891 33.016v-33.016h-8.9844v32.719q0 7.7656-3.0312 11.609-3.0312 3.8594-9.0781 3.8594-7.2812 0-11.484-4.6406-4.2031-4.625-4.2031-12.641v-30.906h-9.0312v54.688h9.0312v-8.5q3.2344 4.9375 7.5938 7.375 4.375 2.4375 10.094 2.4375 9.4219 0 14.25-5.8281 4.8438-5.8281 4.8438-17.156z"/>
<path id="i" d="m34.281 27.484q-10.891 0-15.094-2.4844t-4.2031-8.5q0-4.7812 3.1562-7.5938 3.1562-2.7969 8.5625-2.7969 7.4844 0 12 5.2969t4.5156 14.078v2zm17.922 3.7188v-31.203h-8.9844v8.2969q-3.0781-4.9688-7.6719-7.3438t-11.234-2.375q-8.3906 0-13.359 4.7188-4.9531 4.7188-4.9531 12.625 0 9.2188 6.1719 13.906 6.1875 4.6875 18.438 4.6875h12.609v0.89062q0 6.2031-4.0781 9.5938t-11.453 3.3906q-4.6875 0-9.1406-1.125-4.4375-1.125-8.5312-3.375v8.3125q4.9219 1.9062 9.5625 2.8438 4.6406 0.95312 9.0312 0.95312 11.875 0 17.734-6.1562 5.8594-6.1406 5.8594-18.641z"/>
<path id="j" d="m9.4219 75.984h8.9844v-75.984h-8.9844z"/>
</defs>
<g transform="translate(210.61 726.18) rotate(90) scale(.08 -.08)">
<use xlink:href="#l"/>
<use x="44.083984" xlink:href="#d"/>
<use x="105.607422" xlink:href="#h"/>
<use x="144.970703" xlink:href="#k"/>
<use x="242.382812" xlink:href="#f"/>
<use x="270.166016" xlink:href="#e"/>
<use x="333.544922" xlink:href="#i"/>
<use x="394.824219" xlink:href="#j"/>
</g>
</g>
<path d="m236.47 726.18v33.808q0 2.4 2.4 2.4h7.7425q2.4 0 2.4-2.4v-33.808q0-2.4-2.4-2.4h-7.7425q-2.4 0-2.4 2.4z" clip-path="url(#a)" fill="#fff" stroke="#fff"/>
<g clip-path="url(#a)">
<g transform="translate(240.53 726.18) rotate(90) scale(.08 -.08)">
<use xlink:href="#l"/>
<use x="44.083984" xlink:href="#d"/>
<use x="105.607422" xlink:href="#h"/>
<use x="144.970703" xlink:href="#k"/>
<use x="242.382812" xlink:href="#f"/>
<use x="270.166016" xlink:href="#e"/>
<use x="333.544922" xlink:href="#i"/>
<use x="394.824219" xlink:href="#j"/>
</g>
</g>
<path d="m65.123 726.18v33.808q0 2.4 2.4 2.4h7.7425q2.4 0 2.4-2.4v-33.808q0-2.4-2.4-2.4h-7.7425q-2.4 0-2.4 2.4z" clip-path="url(#a)" fill="#fff" stroke="#fff"/>
<g clip-path="url(#a)">
<g transform="translate(69.186 726.18) rotate(90) scale(.08 -.08)">
<use xlink:href="#l"/>
<use x="44.083984" xlink:href="#d"/>
<use x="105.607422" xlink:href="#h"/>
<use x="144.970703" xlink:href="#k"/>
<use x="242.382812" xlink:href="#f"/>
<use x="270.166016" xlink:href="#e"/>
<use x="333.544922" xlink:href="#i"/>
<use x="394.824219" xlink:href="#j"/>
</g>
</g>
<path d="m103.85 561.29 1.5244-5.2559q0.66852-2.305-1.6365-2.9735l-7.4361-2.1567q-2.305-0.66852-2.9735 1.6365l-1.5244 5.2559q-0.66852 2.305 1.6365 2.9735l7.4361 2.1567q2.305 0.66852 2.9735-1.6365z" clip-path="url(#a)" fill="#fff" stroke="#fff"/>
<g clip-path="url(#a)">
<g transform="translate(99.95 560.15) rotate(-73.826) scale(.08 -.08)">
<use xlink:href="#o"/>
</g>
</g>
<path d="m114.26 606.56 0.23848-5.4673q0.10458-2.3977-2.2931-2.5023l-7.7351-0.3374q-2.3977-0.10458-2.5023 2.2931l-0.23848 5.4673q-0.10458 2.3977 2.2931 2.5023l7.7351 0.33739q2.3977 0.10458 2.5023-2.2931z" clip-path="url(#a)" fill="#fff" stroke="#fff"/>
<g clip-path="url(#a)">
<g transform="translate(110.2 606.38) rotate(-87.502) scale(.08 -.08)">
<use xlink:href="#o"/>
</g>
</g>
<path d="m109.9 601.42 0.2102 4.8192q0.10458 2.3977 2.5023 2.2931l7.7351-0.3374q2.3977-0.10458 2.2931-2.5023l-0.2102-4.8192q-0.10458-2.3977-2.5023-2.2931l-7.7351 0.33739q-2.3977 0.10458-2.2931 2.5023z" clip-path="url(#a)" fill="#fff" stroke="#fff"/>
<g clip-path="url(#a)">
<g transform="translate(113.96 601.24) rotate(87.502) scale(.08 -.08)">
<use xlink:href="#z"/>
</g>
</g>
<path d="m119.14 601.41 0.88631 6.0959q0.34532 2.375 2.7203 2.0297l7.6619-1.114q2.375-0.34532 2.0297-2.7203l-0.88631-6.0959q-0.34532-2.375-2.7203-2.0297l-7.6619 1.114q-2.375 0.34532-2.0297 2.7203z" clip-path="url(#a)" fill="#fff" stroke="#fff"/>
<g clip-path="url(#a)">
<defs>
<path id="am" d="m19.672 64.797v-56.688h11.922q15.094 0 22.094 6.8281 7 6.8438 7 21.594 0 14.641-7 21.453t-22.094 6.8125zm-9.8594 8.1094h20.266q21.188 0 31.094-8.8125 9.9219-8.8125 9.9219-27.562 0-18.859-9.9688-27.703-9.9531-8.8281-31.047-8.8281h-20.266z"/>
</defs>
<g transform="translate(123.16 600.82) rotate(81.727) scale(.08 -.08)">
<use xlink:href="#am"/>
</g>
</g>
<path d="m342.54 726.18v33.808q0 2.4 2.4 2.4h7.7425q2.4 0 2.4-2.4v-33.808q0-2.4-2.4-2.4h-7.7425q-2.4 0-2.4 2.4z" clip-path="url(#a)" fill="#fff" stroke="#fff"/>
<g clip-path="url(#a)">
<g transform="translate(346.6 726.18) rotate(90) scale(.08 -.08)">
<use xlink:href="#l"/>
<use x="44.083984" xlink:href="#d"/>
<use x="105.607422" xlink:href="#h"/>
<use x="144.970703" xlink:href="#k"/>
<use x="242.382812" xlink:href="#f"/>
<use x="270.166016" xlink:href="#e"/>
<use x="333.544922" xlink:href="#i"/>
<use x="394.824219" xlink:href="#j"/>
</g>
</g>
<path d="m462.28 513.63 1.5577-4.3295q0.81251-2.2583-1.4458-3.0708l-7.2853-2.6212q-2.2583-0.81251-3.0708 1.4458l-1.5577 4.3295q-0.81251 2.2583 1.4458 3.0708l7.2853 2.6212q2.2583 0.81251 3.0708-1.4458z" clip-path="url(#a)" fill="#fff" stroke="#fff"/>
<g clip-path="url(#a)">
<defs>
<path id="al" d="m9.8125 72.906h41.891v-8.3125h-32.031v-21.484h28.906v-8.2969h-28.906v-34.812h-9.8594z"/>
</defs>
<g transform="translate(458.45 512.25) rotate(-70.212) scale(.08 -.08)">
<use xlink:href="#al"/>
</g>
</g>
<path d="m484.36 513.48 1.2967-5.3167q0.56868-2.3317-1.763-2.9003l-7.522-1.8346q-2.3317-0.56868-2.9003 1.763l-1.2967 5.3167q-0.56868 2.3317 1.763 2.9003l7.522 1.8346q2.3317 0.56868 2.9003-1.763z" clip-path="url(#a)" fill="#fff" stroke="#fff"/>
<g clip-path="url(#a)">
<g transform="translate(480.41 512.52) rotate(-76.293) scale(.08 -.08)">
<use xlink:href="#o"/>
</g>
</g>
<path d="m507.95 512.61 0.60889-5.0421q0.28774-2.3827-2.095-2.6704l-7.6867-0.92825q-2.3827-0.28774-2.6704 2.095l-0.60889 5.0421q-0.28774 2.3827 2.095 2.6704l7.6867 0.92825q2.3827 0.28774 2.6704-2.095z" clip-path="url(#a)" fill="#fff" stroke="#fff"/>
<g clip-path="url(#a)">
<defs>
<path id="ac" d="m53.516 70.516v-9.625q-5.6094 2.6875-10.594 4-4.9844 1.3281-9.625 1.3281-8.0469 0-12.422-3.125t-4.375-8.8906q0-4.8438 2.9062-7.3125 2.9062-2.4531 11.016-3.9688l5.9531-1.2188q11.031-2.1094 16.281-7.4062t5.25-14.172q0-10.609-7.1094-16.078-7.0938-5.4688-20.812-5.4688-5.1719 0-11.016 1.1719-5.8281 1.1719-12.078 3.4688v10.156q6-3.3594 11.766-5.0781 5.7656-1.7031 11.328-1.7031 8.4375 0 13.031 3.3125 4.5938 3.3281 4.5938 9.4844 0 5.3594-3.2969 8.3906t-10.812 4.5469l-6.0156 1.1719q-11.031 2.1875-15.969 6.875-4.9219 4.6875-4.9219 13.047 0 9.6719 6.8125 15.234t18.766 5.5625q5.1406 0 10.453-0.9375 5.3281-0.92188 10.891-2.7656z"/>
</defs>
<g transform="translate(503.92 512.13) rotate(-83.114) scale(.08 -.08)">
<use xlink:href="#ac"/>
</g>
</g>
<path d="m654.25 373.77 5.1629 1.8145q2.2642 0.79576 3.06-1.4685l2.5672-7.3045q0.79576-2.2642-1.4685-3.06l-5.1629-1.8145q-2.2642-0.79576-3.06 1.4685l-2.5672 7.3045q-0.79576 2.2642 1.4685 3.06z" clip-path="url(#a)" fill="#fff" stroke="#fff"/>
<g clip-path="url(#a)">
<g transform="translate(655.6 369.94) rotate(19.364) scale(.08 -.08)">
<use xlink:href="#o"/>
</g>
</g>
<path d="m520.21 506.47 0.056308 5.8547q0.023081 2.3999 2.423 2.3768l7.7421-0.07446q2.3999-0.023081 2.3768-2.423l-0.056308-5.8547q-0.023081-2.3999-2.423-2.3768l-7.7421 0.074459q-2.3999 0.023081-2.3768 2.423z" clip-path="url(#a)" fill="#fff" stroke="#fff"/>
<g clip-path="url(#a)">
<g transform="translate(524.27 506.43) rotate(89.449) scale(.08 -.08)">
<use xlink:href="#s"/>
</g>
</g>
<path d="m383.34 726.18v33.808q0 2.4 2.4 2.4h7.7425q2.4 0 2.4-2.4v-33.808q0-2.4-2.4-2.4h-7.7425q-2.4 0-2.4 2.4z" clip-path="url(#a)" fill="#fff" stroke="#fff"/>
<g clip-path="url(#a)">
<g transform="translate(387.4 726.18) rotate(90) scale(.08 -.08)">
<use xlink:href="#l"/>
<use x="44.083984" xlink:href="#d"/>
<use x="105.607422" xlink:href="#h"/>
<use x="144.970703" xlink:href="#k"/>
<use x="242.382812" xlink:href="#f"/>
<use x="270.166016" xlink:href="#e"/>
<use x="333.544922" xlink:href="#i"/>
<use x="394.824219" xlink:href="#j"/>
</g>
</g>
<path d="m426.85 726.18v33.808q0 2.4 2.4 2.4h7.7425q2.4 0 2.4-2.4v-33.808q0-2.4-2.4-2.4h-7.7425q-2.4 0-2.4 2.4z" clip-path="url(#a)" fill="#fff" stroke="#fff"/>
<g clip-path="url(#a)">
<g transform="translate(430.92 726.18) rotate(90) scale(.08 -.08)">
<use xlink:href="#l"/>
<use x="44.083984" xlink:href="#d"/>
<use x="105.607422" xlink:href="#h"/>
<use x="144.970703" xlink:href="#k"/>
<use x="242.382812" xlink:href="#f"/>
<use x="270.166016" xlink:href="#e"/>
<use x="333.544922" xlink:href="#i"/>
<use x="394.824219" xlink:href="#j"/>
</g>
</g>
<path d="m473.09 726.18v33.808q0 2.4 2.4 2.4h7.7425q2.4 0 2.4-2.4v-33.808q0-2.4-2.4-2.4h-7.7425q-2.4 0-2.4 2.4z" clip-path="url(#a)" fill="#fff" stroke="#fff"/>
<g clip-path="url(#a)">
<g transform="translate(477.15 726.18) rotate(90) scale(.08 -.08)">
<use xlink:href="#l"/>
<use x="44.083984" xlink:href="#d"/>
<use x="105.607422" xlink:href="#h"/>
<use x="144.970703" xlink:href="#k"/>
<use x="242.382812" xlink:href="#f"/>
<use x="270.166016" xlink:href="#e"/>
<use x="333.544922" xlink:href="#i"/>
<use x="394.824219" xlink:href="#j"/>
</g>
</g>
<path d="m689.9 562.48 3.3059-4.3611q1.4498-1.9126-0.4628-3.3624l-6.1701-4.6771q-1.9126-1.4498-3.3624 0.4628l-3.3059 4.3611q-1.4498 1.9126 0.4628 3.3624l6.1701 4.6771q1.9126 1.4498 3.3624-0.4628z" clip-path="url(#a)" fill="#fff" stroke="#fff"/>
<g clip-path="url(#a)">
<g transform="translate(686.66 560.02) rotate(-52.837) scale(.08 -.08)">
<use xlink:href="#o"/>
</g>
</g>
<path d="m717.87 561.97 2.6904-4.7655q1.1799-2.0899-0.91005-3.2698l-6.7422-3.8064q-2.0899-1.1799-3.2698 0.91005l-2.6904 4.7655q-1.1799 2.0899 0.91005 3.2698l6.7422 3.8064q2.0899 1.1799 3.2698-0.91005z" clip-path="url(#a)" fill="#fff" stroke="#fff"/>
<g clip-path="url(#a)">
<g transform="translate(714.33 559.97) rotate(-60.553) scale(.08 -.08)">
<use xlink:href="#o"/>
</g>
</g>
<path d="m778.77 559.79 0.6864-4.7747q0.34151-2.3756-2.0341-2.7171l-7.6637-1.1017q-2.3756-0.34151-2.7171 2.0341l-0.6864 4.7747q-0.34151 2.3756 2.0341 2.7171l7.6637 1.1017q2.3756 0.34151 2.7171-2.0341z" clip-path="url(#a)" fill="#fff" stroke="#fff"/>
<g clip-path="url(#a)">
<g transform="translate(774.75 559.21) rotate(-81.819) scale(.08 -.08)">
<use xlink:href="#z"/>
</g>
</g>
<path d="m778.09 559.7 0.6763-4.5513q0.35276-2.3739-2.0212-2.7267l-7.6584-1.138q-2.3739-0.35276-2.7267 2.0212l-0.6763 4.5513q-0.35276 2.3739 2.0212 2.7267l7.6584 1.138q2.3739 0.35276 2.7267-2.0212z" clip-path="url(#a)" fill="#fff" stroke="#fff"/>
<g clip-path="url(#a)">
<g transform="translate(774.07 559.11) rotate(-81.548) scale(.08 -.08)">
<use xlink:href="#al"/>
</g>
</g>
<path d="m829.24 555.4 1.8028 5.8903q0.70238 2.2949 2.9973 1.5925l7.4035-2.2659q2.2949-0.70238 1.5925-2.9973l-1.8028-5.8903q-0.70238-2.2949-2.9973-1.5925l-7.4035 2.2659q-2.2949 0.70238-1.5925 2.9973z" clip-path="url(#a)" fill="#fff" stroke="#fff"/>
<g clip-path="url(#a)">
<g transform="translate(833.13 554.21) rotate(72.983) scale(.08 -.08)">
<use xlink:href="#am"/>
</g>
</g>
<path d="m972.91 468.37 5.3019 1.3557q2.3252 0.59453 2.9197-1.7307l1.918-7.5012q0.59453-2.3252-1.7307-2.9197l-5.3019-1.3557q-2.3252-0.59453-2.9197 1.7307l-1.918 7.5012q-0.59453 2.3252 1.7307 2.9197z" clip-path="url(#a)" fill="#fff" stroke="#fff"/>
<g clip-path="url(#a)">
<g transform="translate(973.92 464.44) rotate(14.343) scale(.08 -.08)">
<use xlink:href="#o"/>
</g>
</g>
<path d="m573.72 726.18v33.808q0 2.4 2.4 2.4h7.7425q2.4 0 2.4-2.4v-33.808q0-2.4-2.4-2.4h-7.7425q-2.4 0-2.4 2.4z" clip-path="url(#a)" fill="#fff" stroke="#fff"/>
<g clip-path="url(#a)">
<g transform="translate(577.78 726.18) rotate(90) scale(.08 -.08)">
<use xlink:href="#l"/>
<use x="44.083984" xlink:href="#d"/>
<use x="105.607422" xlink:href="#h"/>
<use x="144.970703" xlink:href="#k"/>
<use x="242.382812" xlink:href="#f"/>
<use x="270.166016" xlink:href="#e"/>
<use x="333.544922" xlink:href="#i"/>
<use x="394.824219" xlink:href="#j"/>
</g>
</g>
<path d="m628.11 726.18v33.808q0 2.4 2.4 2.4h7.7425q2.4 0 2.4-2.4v-33.808q0-2.4-2.4-2.4h-7.7425q-2.4 0-2.4 2.4z" clip-path="url(#a)" fill="#fff" stroke="#fff"/>
<g clip-path="url(#a)">
<g transform="translate(632.18 726.18) rotate(90) scale(.08 -.08)">
<use xlink:href="#l"/>
<use x="44.083984" xlink:href="#d"/>
<use x="105.607422" xlink:href="#h"/>
<use x="144.970703" xlink:href="#k"/>
<use x="242.382812" xlink:href="#f"/>
<use x="270.166016" xlink:href="#e"/>
<use x="333.544922" xlink:href="#i"/>
<use x="394.824219" xlink:href="#j"/>
</g>
</g>
<path d="m717.96 760.64 18.723-28.15q1.3291-1.9983-0.66921-3.3275l-6.4468-4.2878q-1.9983-1.3291-3.3275 0.66922l-18.723 28.15q-1.3291 1.9984 0.66921 3.3275l6.4468 4.2878q1.9983 1.3291 3.3275-0.66922z" clip-path="url(#a)" fill="#fff" stroke="#fff"/>
<g clip-path="url(#a)">
<g transform="translate(714.58 758.39) rotate(-56.371) scale(.08 -.08)">
<use xlink:href="#l"/>
<use x="44.083984" xlink:href="#d"/>
<use x="105.607422" xlink:href="#h"/>
<use x="144.970703" xlink:href="#k"/>
<use x="242.382812" xlink:href="#f"/>
<use x="270.166016" xlink:href="#e"/>
<use x="333.544922" xlink:href="#i"/>
<use x="394.824219" xlink:href="#j"/>
</g>
</g>
<path d="m768.71 732.49 18.723 28.15q1.3291 1.9984 3.3275 0.66922l6.4468-4.2878q1.9984-1.3291 0.66922-3.3275l-18.723-28.15q-1.3291-1.9984-3.3275-0.66922l-6.4468 4.2878q-1.9984 1.3291-0.66922 3.3275z" clip-path="url(#a)" fill="#fff" stroke="#fff"/>
<g clip-path="url(#a)">
<g transform="translate(772.09 730.24) rotate(56.371) scale(.08 -.08)">
<use xlink:href="#l"/>
<use x="44.083984" xlink:href="#d"/>
<use x="105.607422" xlink:href="#h"/>
<use x="144.970703" xlink:href="#k"/>
<use x="242.382812" xlink:href="#f"/>
<use x="270.166016" xlink:href="#e"/>
<use x="333.544922" xlink:href="#i"/>
<use x="394.824219" xlink:href="#j"/>
</g>
</g>
<path d="m745.06 726.18v33.808q0 2.4 2.4 2.4h7.7425q2.4 0 2.4-2.4v-33.808q0-2.4-2.4-2.4h-7.7425q-2.4 0-2.4 2.4z" clip-path="url(#a)" fill="#fff" stroke="#fff"/>
<g clip-path="url(#a)">
<g transform="translate(749.13 726.18) rotate(90) scale(.08 -.08)">
<use xlink:href="#l"/>
<use x="44.083984" xlink:href="#d"/>
<use x="105.607422" xlink:href="#h"/>
<use x="144.970703" xlink:href="#k"/>
<use x="242.382812" xlink:href="#f"/>
<use x="270.166016" xlink:href="#e"/>
<use x="333.544922" xlink:href="#i"/>
<use x="394.824219" xlink:href="#j"/>
</g>
</g>
<path d="m872.89 726.18v33.808q0 2.4 2.4 2.4h7.7425q2.4 0 2.4-2.4v-33.808q0-2.4-2.4-2.4h-7.7425q-2.4 0-2.4 2.4z" clip-path="url(#a)" fill="#fff" stroke="#fff"/>
<g clip-path="url(#a)">
<g transform="translate(876.96 726.18) rotate(90) scale(.08 -.08)">
<use xlink:href="#l"/>
<use x="44.083984" xlink:href="#d"/>
<use x="105.607422" xlink:href="#h"/>
<use x="144.970703" xlink:href="#k"/>
<use x="242.382812" xlink:href="#f"/>
<use x="270.166016" xlink:href="#e"/>
<use x="333.544922" xlink:href="#i"/>
<use x="394.824219" xlink:href="#j"/>
</g>
</g>
<path d="m1072.3 563.76 4.9216-2.5841q2.1249-1.1157 1.0092-3.2406l-3.5993-6.855q-1.1157-2.1249-3.2406-1.0092l-4.9216 2.5841q-2.1249 1.1157-1.0092 3.2406l3.5993 6.855q1.1157 2.1249 3.2406 1.0092z" clip-path="url(#a)" fill="#fff" stroke="#fff"/>
<g clip-path="url(#a)">
<defs>
<path id="y" d="m44.391 34.188q3.1719-1.0781 6.1719-4.5938t6.0312-9.6719l10.016-19.922h-10.609l-9.3125 18.703q-3.625 7.3281-7.0156 9.7188t-9.25 2.3906h-10.75v-30.812h-9.8594v72.906h22.266q12.5 0 18.656-5.2344 6.1562-5.2188 6.1562-15.766 0-6.8906-3.2031-11.438-3.2031-4.5312-9.2969-6.2812zm-24.719 30.609v-25.875h12.406q7.125 0 10.766 3.2969t3.6406 9.6875-3.6406 9.6406-10.766 3.25z"/>
</defs>
<g transform="translate(1070.4 560.16) rotate(-27.702) scale(.08 -.08)">
<use xlink:href="#y"/>
</g>
</g>
<path d="m1150.4 561.33 1.6278-4.8108q0.76924-2.2734-1.5041-3.0426l-7.334-2.4816q-2.2734-0.76924-3.0426 1.5041l-1.6278 4.8108q-0.76924 2.2734 1.5041 3.0426l7.334 2.4816q2.2734 0.76924 3.0426-1.5041z" clip-path="url(#a)" fill="#fff" stroke="#fff"/>
<g clip-path="url(#a)">
<g transform="translate(1146.5 560.02) rotate(-71.306) scale(.08 -.08)">
<use xlink:href="#ac"/>
</g>
</g>
<path d="m1261.2 561.52 4.9982 2.2285q2.192 0.97731 3.1693-1.2147l3.1528-7.0715q0.97731-2.192-1.2147-3.1693l-4.9982-2.2285q-2.192-0.97731-3.1693 1.2147l-3.1528 7.0715q-0.97731 2.192 1.2147 3.1693z" clip-path="url(#a)" fill="#fff" stroke="#fff"/>
<g clip-path="url(#a)">
<g transform="translate(1262.9 557.81) rotate(24.03) scale(.08 -.08)">
<use xlink:href="#o"/>
</g>
</g>
<path d="m969.72 655.26 1.9701-5.1979q0.8506-2.2442-1.3936-3.0948l-7.2399-2.7441q-2.2442-0.85059-3.0948 1.3936l-1.9701 5.1979q-0.85059 2.2442 1.3936 3.0948l7.2399 2.7441q2.2442 0.85059 3.0948-1.3936z" clip-path="url(#a)" fill="#fff" stroke="#fff"/>
<g clip-path="url(#a)">
<g transform="translate(965.92 653.82) rotate(-69.242) scale(.08 -.08)">
<use xlink:href="#y"/>
</g>
</g>
<path d="m993.34 650.05 1.9798 5.2236q0.8506 2.2442 3.0948 1.3936l7.2399-2.7441q2.2442-0.85059 1.3936-3.0948l-1.9798-5.2236q-0.8506-2.2442-3.0948-1.3936l-7.2399 2.7441q-2.2442 0.8506-1.3936 3.0948z" clip-path="url(#a)" fill="#fff" stroke="#fff"/>
<g clip-path="url(#a)">
<defs>
<path id="ae" d="m64.406 67.281v-10.391q-4.9844 4.6406-10.625 6.9219-5.6406 2.2969-11.984 2.2969-12.5 0-19.141-7.6406t-6.6406-22.094q0-14.406 6.6406-22.047t19.141-7.6406q6.3438 0 11.984 2.2969t10.625 6.9375v-10.312q-5.1719-3.5156-10.969-5.2812-5.7812-1.75-12.219-1.75-16.562 0-26.094 10.125-9.5156 10.141-9.5156 27.672 0 17.578 9.5156 27.703 9.5312 10.141 26.094 10.141 6.5312 0 12.312-1.7344 5.7969-1.7344 10.875-5.2031z"/>
</defs>
<g transform="translate(997.14 648.61) rotate(69.242) scale(.08 -.08)">
<use xlink:href="#ae"/>
</g>
</g>
<path d="m1115.1 655.38 2.1007-5.1465q0.90697-2.222-1.3151-3.129l-7.1684-2.9259q-2.222-0.90697-3.129 1.3151l-2.1007 5.1465q-0.90697 2.222 1.3151 3.129l7.1684 2.9259q2.222 0.90697 3.129-1.3151z" clip-path="url(#a)" fill="#fff" stroke="#fff"/>
<g clip-path="url(#a)">
<g transform="translate(1111.3 653.85) rotate(-67.796) scale(.08 -.08)">
<use xlink:href="#y"/>
</g>
</g>
<path d="m1141.6 650.23 2.1111 5.172q0.90697 2.222 3.129 1.3151l7.1684-2.9259q2.222-0.90697 1.3151-3.129l-2.1111-5.172q-0.90697-2.222-3.129-1.3151l-7.1684 2.9259q-2.222 0.90697-1.3151 3.129z" clip-path="url(#a)" fill="#fff" stroke="#fff"/>
<g clip-path="url(#a)">
<g transform="translate(1145.3 648.69) rotate(67.796) scale(.08 -.08)">
<use xlink:href="#ae"/>
</g>
</g>
<path d="m1310.4 657.13 4.4563-3.3228q1.924-1.4346 0.4894-3.3586l-4.6281-6.207q-1.4346-1.924-3.3586-0.4894l-4.4563 3.3228q-1.924 1.4346-0.4894 3.3586l4.6281 6.207q1.4346 1.924 3.3586 0.4894z" clip-path="url(#a)" fill="#fff" stroke="#fff"/>
<g clip-path="url(#a)">
<g transform="translate(1308 653.87) rotate(-36.71) scale(.08 -.08)">
<use xlink:href="#y"/>
</g>
</g>
<path d="m1352.7 659.03 5.492-11.773q1.0146-2.175-1.1604-3.1896l-7.25-3.382q-2.175-1.0146-3.1896 1.1604l-5.492 11.773q-1.0146 2.175 1.1604 3.1896l7.25 3.382q2.175 1.0146 3.1896-1.1604z" clip-path="url(#a)" fill="#fff" stroke="#fff"/>
<g clip-path="url(#a)">
<defs>
<path id="ap" d="m21 76.422v-100h-8.2969v100z"/>
</defs>
<g transform="translate(1348.9 657.22) rotate(-64.992) scale(.08 -.08)">
<use xlink:href="#o"/>
<use x="68.408203" xlink:href="#ap"/>
<use x="102.099609" xlink:href="#z"/>
</g>
</g>
<path d="m1384.9 650.27 2.346 5.3644q0.96165 2.1989 3.1606 1.2373l7.0938-3.1023q2.1989-0.96165 1.2373-3.1606l-2.346-5.3644q-0.96165-2.1989-3.1606-1.2373l-7.0938 3.1023q-2.1989 0.96165-1.2373 3.1606z" clip-path="url(#a)" fill="#fff" stroke="#fff"/>
<g clip-path="url(#a)">
<g transform="translate(1388.6 648.64) rotate(66.379) scale(.08 -.08)">
<use xlink:href="#s"/>
</g>
</g>
<path d="m1429.3 653.78 4.7295 3.4515q1.9387 1.4148 3.3534-0.52388l4.5641-6.2542q1.4148-1.9387-0.52388-3.3534l-4.7295-3.4515q-1.9387-1.4148-3.3534 0.52388l-4.5641 6.2542q-1.4148 1.9387 0.52388 3.3534z" clip-path="url(#a)" fill="#fff" stroke="#fff"/>
<g clip-path="url(#a)">
<g transform="translate(1431.7 650.5) rotate(36.121) scale(.08 -.08)">
<use xlink:href="#s"/>
</g>
</g>
<path d="m1240.1 726.18v33.808q0 2.4 2.4 2.4h7.7425q2.4 0 2.4-2.4v-33.808q0-2.4-2.4-2.4h-7.7425q-2.4 0-2.4 2.4z" clip-path="url(#a)" fill="#fff" stroke="#fff"/>
<g clip-path="url(#a)">
<g transform="translate(1244.1 726.18) rotate(90) scale(.08 -.08)">
<use xlink:href="#l"/>
<use x="44.083984" xlink:href="#d"/>
<use x="105.607422" xlink:href="#h"/>
<use x="144.970703" xlink:href="#k"/>
<use x="242.382812" xlink:href="#f"/>
<use x="270.166016" xlink:href="#e"/>
<use x="333.544922" xlink:href="#i"/>
<use x="394.824219" xlink:href="#j"/>
</g>
</g>
<path d="m1321.7 726.18v33.808q0 2.4 2.4 2.4h7.7425q2.4 0 2.4-2.4v-33.808q0-2.4-2.4-2.4h-7.7425q-2.4 0-2.4 2.4z" clip-path="url(#a)" fill="#fff" stroke="#fff"/>
<g clip-path="url(#a)">
<g transform="translate(1325.7 726.18) rotate(90) scale(.08 -.08)">
<use xlink:href="#l"/>
<use x="44.083984" xlink:href="#d"/>
<use x="105.607422" xlink:href="#h"/>
<use x="144.970703" xlink:href="#k"/>
<use x="242.382812" xlink:href="#f"/>
<use x="270.166016" xlink:href="#e"/>
<use x="333.544922" xlink:href="#i"/>
<use x="394.824219" xlink:href="#j"/>
</g>
</g>
<path d="m1085 726.18v33.808q0 2.4 2.4 2.4h7.7425q2.4 0 2.4-2.4v-33.808q0-2.4-2.4-2.4h-7.7425q-2.4 0-2.4 2.4z" clip-path="url(#a)" fill="#fff" stroke="#fff"/>
<g clip-path="url(#a)">
<g transform="translate(1089.1 726.18) rotate(90) scale(.08 -.08)">
<use xlink:href="#l"/>
<use x="44.083984" xlink:href="#d"/>
<use x="105.607422" xlink:href="#h"/>
<use x="144.970703" xlink:href="#k"/>
<use x="242.382812" xlink:href="#f"/>
<use x="270.166016" xlink:href="#e"/>
<use x="333.544922" xlink:href="#i"/>
<use x="394.824219" xlink:href="#j"/>
</g>
</g>
<path d="m1161.2 726.18v33.808q0 2.4 2.4 2.4h7.7425q2.4 0 2.4-2.4v-33.808q0-2.4-2.4-2.4h-7.7425q-2.4 0-2.4 2.4z" clip-path="url(#a)" fill="#fff" stroke="#fff"/>
<g clip-path="url(#a)">
<g transform="translate(1165.3 726.18) rotate(90) scale(.08 -.08)">
<use xlink:href="#l"/>
<use x="44.083984" xlink:href="#d"/>
<use x="105.607422" xlink:href="#h"/>
<use x="144.970703" xlink:href="#k"/>
<use x="242.382812" xlink:href="#f"/>
<use x="270.166016" xlink:href="#e"/>
<use x="333.544922" xlink:href="#i"/>
<use x="394.824219" xlink:href="#j"/>
</g>
</g>
<path d="m940.89 726.18v33.808q0 2.4 2.4 2.4h7.7425q2.4 0 2.4-2.4v-33.808q0-2.4-2.4-2.4h-7.7425q-2.4 0-2.4 2.4z" clip-path="url(#a)" fill="#fff" stroke="#fff"/>
<g clip-path="url(#a)">
<g transform="translate(944.95 726.18) rotate(90) scale(.08 -.08)">
<use xlink:href="#l"/>
<use x="44.083984" xlink:href="#d"/>
<use x="105.607422" xlink:href="#h"/>
<use x="144.970703" xlink:href="#k"/>
<use x="242.382812" xlink:href="#f"/>
<use x="270.166016" xlink:href="#e"/>
<use x="333.544922" xlink:href="#i"/>
<use x="394.824219" xlink:href="#j"/>
</g>
</g>
<path d="m1011.6 726.18v33.808q0 2.4 2.4 2.4h7.7425q2.4 0 2.4-2.4v-33.808q0-2.4-2.4-2.4h-7.7425q-2.4 0-2.4 2.4z" clip-path="url(#a)" fill="#fff" stroke="#fff"/>
<g clip-path="url(#a)">
<g transform="translate(1015.7 726.18) rotate(90) scale(.08 -.08)">
<use xlink:href="#l"/>
<use x="44.083984" xlink:href="#d"/>
<use x="105.607422" xlink:href="#h"/>
<use x="144.970703" xlink:href="#k"/>
<use x="242.382812" xlink:href="#f"/>
<use x="270.166016" xlink:href="#e"/>
<use x="333.544922" xlink:href="#i"/>
<use x="394.824219" xlink:href="#j"/>
</g>
</g>
<path d="m88.374 653.54 0.31856-5.4632q0.13971-2.3959-2.2562-2.5356l-7.7294-0.4507q-2.3959-0.13971-2.5356 2.2562l-0.31856 5.4632q-0.13971 2.3959 2.2562 2.5356l7.7294 0.4507q2.3959 0.13971 2.5356-2.2562z" clip-path="url(#a)" fill="#fff" stroke="#fff"/>
<g clip-path="url(#a)">
<g transform="translate(84.317 653.3) rotate(-86.663) scale(.08 -.08)">
<use xlink:href="#o"/>
</g>
</g>
<path d="m80.938 644.2 0.77108 13.224q0.13971 2.3959 2.5356 2.2562l7.9864-0.46569q2.3959-0.13971 2.2562-2.5356l-0.77108-13.224q-0.13971-2.3959-2.5356-2.2562l-7.9864 0.46569q-2.3959 0.13971-2.2562 2.5356z" clip-path="url(#a)" fill="#fff" stroke="#fff"/>
<g clip-path="url(#a)">
<g transform="translate(85.217 643.95) rotate(86.663) scale(.08 -.08)">
<use xlink:href="#o"/>
<use x="68.408203" xlink:href="#ap"/>
<use x="102.099609" xlink:href="#ac"/>
</g>
</g>
<path d="m97.76 726.18v33.808q0 2.4 2.4 2.4h7.7425q2.4 0 2.4-2.4v-33.808q0-2.4-2.4-2.4h-7.7425q-2.4 0-2.4 2.4z" clip-path="url(#a)" fill="#fff" stroke="#fff"/>
<g clip-path="url(#a)">
<g transform="translate(101.82 726.18) rotate(90) scale(.08 -.08)">
<use xlink:href="#l"/>
<use x="44.083984" xlink:href="#d"/>
<use x="105.607422" xlink:href="#h"/>
<use x="144.970703" xlink:href="#k"/>
<use x="242.382812" xlink:href="#f"/>
<use x="270.166016" xlink:href="#e"/>
<use x="333.544922" xlink:href="#i"/>
<use x="394.824219" xlink:href="#j"/>
</g>
</g>
<path d="m114.08 726.18v33.808q0 2.4 2.4 2.4h7.7425q2.4 0 2.4-2.4v-33.808q0-2.4-2.4-2.4h-7.7425q-2.4 0-2.4 2.4z" clip-path="url(#a)" fill="#fff" stroke="#fff"/>
<g clip-path="url(#a)">
<g transform="translate(118.14 726.18) rotate(90) scale(.08 -.08)">
<use xlink:href="#l"/>
<use x="44.083984" xlink:href="#d"/>
<use x="105.607422" xlink:href="#h"/>
<use x="144.970703" xlink:href="#k"/>
<use x="242.382812" xlink:href="#f"/>
<use x="270.166016" xlink:href="#e"/>
<use x="333.544922" xlink:href="#i"/>
<use x="394.824219" xlink:href="#j"/>
</g>
</g>
<path d="m133.12 726.18v33.808q0 2.4 2.4 2.4h7.7425q2.4 0 2.4-2.4v-33.808q0-2.4-2.4-2.4h-7.7425q-2.4 0-2.4 2.4z" clip-path="url(#a)" fill="#fff" stroke="#fff"/>
<g clip-path="url(#a)">
<g transform="translate(137.18 726.18) rotate(90) scale(.08 -.08)">
<use xlink:href="#l"/>
<use x="44.083984" xlink:href="#d"/>
<use x="105.607422" xlink:href="#h"/>
<use x="144.970703" xlink:href="#k"/>
<use x="242.382812" xlink:href="#f"/>
<use x="270.166016" xlink:href="#e"/>
<use x="333.544922" xlink:href="#i"/>
<use x="394.824219" xlink:href="#j"/>
</g>
</g>
<path d="m73.282 726.18v33.808q0 2.4 2.4 2.4h7.7425q2.4 0 2.4-2.4v-33.808q0-2.4-2.4-2.4h-7.7425q-2.4 0-2.4 2.4z" clip-path="url(#a)" fill="#fff" stroke="#fff"/>
<g clip-path="url(#a)">
<g transform="translate(77.346 726.18) rotate(90) scale(.08 -.08)">
<use xlink:href="#l"/>
<use x="44.083984" xlink:href="#d"/>
<use x="105.607422" xlink:href="#h"/>
<use x="144.970703" xlink:href="#k"/>
<use x="242.382812" xlink:href="#f"/>
<use x="270.166016" xlink:href="#e"/>
<use x="333.544922" xlink:href="#i"/>
<use x="394.824219" xlink:href="#j"/>
</g>
</g>
<path d="m84.161 726.18v33.808q0 2.4 2.4 2.4h7.7425q2.4 0 2.4-2.4v-33.808q0-2.4-2.4-2.4h-7.7425q-2.4 0-2.4 2.4z" clip-path="url(#a)" fill="#fff" stroke="#fff"/>
<g clip-path="url(#a)">
<g transform="translate(88.225 726.18) rotate(90) scale(.08 -.08)">
<use xlink:href="#l"/>
<use x="44.083984" xlink:href="#d"/>
<use x="105.607422" xlink:href="#h"/>
<use x="144.970703" xlink:href="#k"/>
<use x="242.382812" xlink:href="#f"/>
<use x="270.166016" xlink:href="#e"/>
<use x="333.544922" xlink:href="#i"/>
<use x="394.824219" xlink:href="#j"/>
</g>
</g>
<path d="m154.88 726.18v33.808q0 2.4 2.4 2.4h7.7425q2.4 0 2.4-2.4v-33.808q0-2.4-2.4-2.4h-7.7425q-2.4 0-2.4 2.4z" clip-path="url(#a)" fill="#fff" stroke="#fff"/>
<g clip-path="url(#a)">
<g transform="translate(158.94 726.18) rotate(90) scale(.08 -.08)">
<use xlink:href="#l"/>
<use x="44.083984" xlink:href="#d"/>
<use x="105.607422" xlink:href="#h"/>
<use x="144.970703" xlink:href="#k"/>
<use x="242.382812" xlink:href="#f"/>
<use x="270.166016" xlink:href="#e"/>
<use x="333.544922" xlink:href="#i"/>
<use x="394.824219" xlink:href="#j"/>
</g>
</g>
<path d="m179.35 726.18v33.808q0 2.4 2.4 2.4h7.7425q2.4 0 2.4-2.4v-33.808q0-2.4-2.4-2.4h-7.7425q-2.4 0-2.4 2.4z" clip-path="url(#a)" fill="#fff" stroke="#fff"/>
<g clip-path="url(#a)">
<g transform="translate(183.42 726.18) rotate(90) scale(.08 -.08)">
<use xlink:href="#l"/>
<use x="44.083984" xlink:href="#d"/>
<use x="105.607422" xlink:href="#h"/>
<use x="144.970703" xlink:href="#k"/>
<use x="242.382812" xlink:href="#f"/>
<use x="270.166016" xlink:href="#e"/>
<use x="333.544922" xlink:href="#i"/>
<use x="394.824219" xlink:href="#j"/>
</g>
</g>
<path d="m269.11 726.18v33.808q0 2.4 2.4 2.4h7.7425q2.4 0 2.4-2.4v-33.808q0-2.4-2.4-2.4h-7.7425q-2.4 0-2.4 2.4z" clip-path="url(#a)" fill="#fff" stroke="#fff"/>
<g clip-path="url(#a)">
<g transform="translate(273.17 726.18) rotate(90) scale(.08 -.08)">
<use xlink:href="#l"/>
<use x="44.083984" xlink:href="#d"/>
<use x="105.607422" xlink:href="#h"/>
<use x="144.970703" xlink:href="#k"/>
<use x="242.382812" xlink:href="#f"/>
<use x="270.166016" xlink:href="#e"/>
<use x="333.544922" xlink:href="#i"/>
<use x="394.824219" xlink:href="#j"/>
</g>
</g>
<path d="m304.46 726.18v33.808q0 2.4 2.4 2.4h7.7425q2.4 0 2.4-2.4v-33.808q0-2.4-2.4-2.4h-7.7425q-2.4 0-2.4 2.4z" clip-path="url(#a)" fill="#fff" stroke="#fff"/>
<g clip-path="url(#a)">
<g transform="translate(308.53 726.18) rotate(90) scale(.08 -.08)">
<use xlink:href="#l"/>
<use x="44.083984" xlink:href="#d"/>
<use x="105.607422" xlink:href="#h"/>
<use x="144.970703" xlink:href="#k"/>
<use x="242.382812" xlink:href="#f"/>
<use x="270.166016" xlink:href="#e"/>
<use x="333.544922" xlink:href="#i"/>
<use x="394.824219" xlink:href="#j"/>
</g>
</g>
<path d="m522.04 726.18v33.808q0 2.4 2.4 2.4h7.7425q2.4 0 2.4-2.4v-33.808q0-2.4-2.4-2.4h-7.7425q-2.4 0-2.4 2.4z" clip-path="url(#a)" fill="#fff" stroke="#fff"/>
<g clip-path="url(#a)">
<g transform="translate(526.11 726.18) rotate(90) scale(.08 -.08)">
<use xlink:href="#l"/>
<use x="44.083984" xlink:href="#d"/>
<use x="105.607422" xlink:href="#h"/>
<use x="144.970703" xlink:href="#k"/>
<use x="242.382812" xlink:href="#f"/>
<use x="270.166016" xlink:href="#e"/>
<use x="333.544922" xlink:href="#i"/>
<use x="394.824219" xlink:href="#j"/>
</g>
</g>
<path d="m1406 726.18v33.808q0 2.4 2.4 2.4h7.7425q2.4 0 2.4-2.4v-33.808q0-2.4-2.4-2.4h-7.7425q-2.4 0-2.4 2.4z" clip-path="url(#a)" fill="#fff" stroke="#fff"/>
<g clip-path="url(#a)">
<g transform="translate(1410 726.18) rotate(90) scale(.08 -.08)">
<use xlink:href="#l"/>
<use x="44.083984" xlink:href="#d"/>
<use x="105.607422" xlink:href="#h"/>
<use x="144.970703" xlink:href="#k"/>
<use x="242.382812" xlink:href="#f"/>
<use x="270.166016" xlink:href="#e"/>
<use x="333.544922" xlink:href="#i"/>
<use x="394.824219" xlink:href="#j"/>
</g>
</g>
<path d="m1493 726.18v33.808q0 2.4 2.4 2.4h7.7425q2.4 0 2.4-2.4v-33.808q0-2.4-2.4-2.4h-7.7425q-2.4 0-2.4 2.4z" clip-path="url(#a)" fill="#fff" stroke="#fff"/>
<g clip-path="url(#a)">
<g transform="translate(1497.1 726.18) rotate(90) scale(.08 -.08)">
<use xlink:href="#l"/>
<use x="44.083984" xlink:href="#d"/>
<use x="105.607422" xlink:href="#h"/>
<use x="144.970703" xlink:href="#k"/>
<use x="242.382812" xlink:href="#f"/>
<use x="270.166016" xlink:href="#e"/>
<use x="333.544922" xlink:href="#i"/>
<use x="394.824219" xlink:href="#j"/>
</g>
</g>
<defs>
<path id="b" d="m0 8.6603c2.2967 0 4.4997-0.9125 6.1237-2.5365 1.624-1.624 2.5365-3.827 2.5365-6.1237s-0.9125-4.4997-2.5365-6.1237c-1.624-1.624-3.827-2.5365-6.1237-2.5365s-4.4997 0.9125-6.1237 2.5365c-1.624 1.624-2.5365 3.827-2.5365 6.1237s0.9125 4.4997 2.5365 6.1237c1.624 1.624 3.827 2.5365 6.1237 2.5365z"/>
</defs>
<g clip-path="url(#a)">
<use x="71.393939" y="789.090909" fill="#ffffff" stroke="#ffffff" xlink:href="#b"/>
</g>
<g clip-path="url(#a)">
<use x="79.553247" y="789.090909" fill="#ffffff" stroke="#ffffff" xlink:href="#b"/>
</g>
<g clip-path="url(#a)">
<use x="90.432323" y="789.090909" fill="#ffffff" stroke="#ffffff" xlink:href="#b"/>
</g>
<g clip-path="url(#a)">
<use x="104.031169" y="789.090909" fill="#ffffff" stroke="#ffffff" xlink:href="#b"/>
</g>
<g clip-path="url(#a)">
<use x="120.349784" y="789.090909" fill="#ffffff" stroke="#ffffff" xlink:href="#b"/>
</g>
<g clip-path="url(#a)">
<use x="139.388167" y="789.090909" fill="#ffffff" stroke="#ffffff" xlink:href="#b"/>
</g>
<g clip-path="url(#a)">
<use x="161.14632" y="789.090909" fill="#ffffff" stroke="#ffffff" xlink:href="#b"/>
</g>
<g clip-path="url(#a)">
<use x="185.624242" y="789.090909" fill="#ffffff" stroke="#ffffff" xlink:href="#b"/>
</g>
<g clip-path="url(#a)">
<use x="212.821934" y="789.090909" fill="#ffffff" stroke="#ffffff" xlink:href="#b"/>
</g>
<g clip-path="url(#a)">
<use x="242.739394" y="789.090909" fill="#ffffff" stroke="#ffffff" xlink:href="#b"/>
</g>
<g clip-path="url(#a)">
<use x="275.376623" y="789.090909" fill="#ffffff" stroke="#ffffff" xlink:href="#b"/>
</g>
<g clip-path="url(#a)">
<use x="310.733622" y="789.090909" fill="#ffffff" stroke="#ffffff" xlink:href="#b"/>
</g>
<g clip-path="url(#a)">
<use x="348.81039" y="789.090909" fill="#ffffff" stroke="#ffffff" xlink:href="#b"/>
</g>
<g clip-path="url(#a)">
<use x="389.606926" y="789.090909" fill="#ffffff" stroke="#ffffff" xlink:href="#b"/>
</g>
<g clip-path="url(#a)">
<use x="433.123232" y="789.090909" fill="#ffffff" stroke="#ffffff" xlink:href="#b"/>
</g>
<g clip-path="url(#a)">
<use x="479.359307" y="789.090909" fill="#ffffff" stroke="#ffffff" xlink:href="#b"/>
</g>
<g clip-path="url(#a)">
<use x="528.315152" y="789.090909" fill="#ffffff" stroke="#ffffff" xlink:href="#b"/>
</g>
<g clip-path="url(#a)">
<use x="579.990765" y="789.090909" fill="#ffffff" stroke="#ffffff" xlink:href="#b"/>
</g>
<g clip-path="url(#a)">
<use x="634.386147" y="789.090909" fill="#ffffff" stroke="#ffffff" xlink:href="#b"/>
</g>
<g clip-path="url(#a)">
<use x="691.501299" y="789.090909" fill="#ffffff" stroke="#ffffff" xlink:href="#b"/>
</g>
<g clip-path="url(#a)">
<use x="751.336219" y="789.090909" fill="#ffffff" stroke="#ffffff" xlink:href="#b"/>
</g>
<g clip-path="url(#a)">
<use x="813.890909" y="789.090909" fill="#ffffff" stroke="#ffffff" xlink:href="#b"/>
</g>
<g clip-path="url(#a)">
<use x="879.165368" y="789.090909" fill="#ffffff" stroke="#ffffff" xlink:href="#b"/>
</g>
<g clip-path="url(#a)">
<use x="947.159596" y="789.090909" fill="#ffffff" stroke="#ffffff" xlink:href="#b"/>
</g>
<g clip-path="url(#a)">
<use x="1017.873593" y="789.090909" fill="#ffffff" stroke="#ffffff" xlink:href="#b"/>
</g>
<g clip-path="url(#a)">
<use x="1091.307359" y="789.090909" fill="#ffffff" stroke="#ffffff" xlink:href="#b"/>
</g>
<g clip-path="url(#a)">
<use x="1167.460895" y="789.090909" fill="#ffffff" stroke="#ffffff" xlink:href="#b"/>
</g>
<g clip-path="url(#a)">
<use x="1246.334199" y="789.090909" fill="#ffffff" stroke="#ffffff" xlink:href="#b"/>
</g>
<g clip-path="url(#a)">
<use x="1327.927273" y="789.090909" fill="#ffffff" stroke="#ffffff" xlink:href="#b"/>
</g>
<g clip-path="url(#a)">
<use x="1412.240115" y="789.090909" fill="#ffffff" stroke="#ffffff" xlink:href="#b"/>
</g>
<g clip-path="url(#a)">
<use x="1499.272727" y="789.090909" fill="#ffffff" stroke="#ffffff" xlink:href="#b"/>
</g>
<g clip-path="url(#a)">
<use x="236.102402" y="37.575758" fill="#ffffff" stroke="#ffffff" xlink:href="#b"/>
</g>
<g clip-path="url(#a)">
<use x="236.102402" y="132.392636" fill="#ffffff" stroke="#ffffff" xlink:href="#b"/>
</g>
<g clip-path="url(#a)">
<use x="264.274677" y="227.073696" fill="#ffffff" stroke="#ffffff" xlink:href="#b"/>
</g>
<g clip-path="url(#a)">
<use x="212.821934" y="697.08476" fill="#ffffff" stroke="#ffffff" xlink:href="#b"/>
</g>
<g clip-path="url(#a)">
<use x="242.739394" y="697.08476" fill="#ffffff" stroke="#ffffff" xlink:href="#b"/>
</g>
<g clip-path="url(#a)">
<use x="71.393939" y="697.08476" fill="#ffffff" stroke="#ffffff" xlink:href="#b"/>
</g>
<g clip-path="url(#a)">
<use x="112.190476" y="510.023371" fill="#ffffff" stroke="#ffffff" xlink:href="#b"/>
</g>
<g clip-path="url(#a)">
<use x="348.81039" y="697.08476" fill="#ffffff" stroke="#ffffff" xlink:href="#b"/>
</g>
<g clip-path="url(#a)">
<use x="524.703903" y="321.596352" fill="#ffffff" stroke="#ffffff" xlink:href="#b"/>
</g>
<g clip-path="url(#a)">
<use x="389.606926" y="697.08476" fill="#ffffff" stroke="#ffffff" xlink:href="#b"/>
</g>
<g clip-path="url(#a)">
<use x="433.123232" y="697.08476" fill="#ffffff" stroke="#ffffff" xlink:href="#b"/>
</g>
<g clip-path="url(#a)">
<use x="479.359307" y="697.08476" fill="#ffffff" stroke="#ffffff" xlink:href="#b"/>
</g>
<g clip-path="url(#a)">
<use x="793.114895" y="415.928881" fill="#ffffff" stroke="#ffffff" xlink:href="#b"/>
</g>
<g clip-path="url(#a)">
<use x="579.990765" y="697.08476" fill="#ffffff" stroke="#ffffff" xlink:href="#b"/>
</g>
<g clip-path="url(#a)">
<use x="634.386147" y="697.08476" fill="#ffffff" stroke="#ffffff" xlink:href="#b"/>
</g>
<g clip-path="url(#a)">
<use x="752.696104" y="697.08476" fill="#ffffff" stroke="#ffffff" xlink:href="#b"/>
</g>
<g clip-path="url(#a)">
<use x="751.336219" y="697.08476" fill="#ffffff" stroke="#ffffff" xlink:href="#b"/>
</g>
<g clip-path="url(#a)">
<use x="879.165368" y="697.08476" fill="#ffffff" stroke="#ffffff" xlink:href="#b"/>
</g>
<g clip-path="url(#a)">
<use x="1161.114767" y="510.023371" fill="#ffffff" stroke="#ffffff" xlink:href="#b"/>
</g>
<g clip-path="url(#a)">
<use x="982.516595" y="603.798704" fill="#ffffff" stroke="#ffffff" xlink:href="#b"/>
</g>
<g clip-path="url(#a)">
<use x="1129.384127" y="603.798704" fill="#ffffff" stroke="#ffffff" xlink:href="#b"/>
</g>
<g clip-path="url(#a)">
<use x="1371.443579" y="603.798704" fill="#ffffff" stroke="#ffffff" xlink:href="#b"/>
</g>
<g clip-path="url(#a)">
<use x="1246.334199" y="697.08476" fill="#ffffff" stroke="#ffffff" xlink:href="#b"/>
</g>
<g clip-path="url(#a)">
<use x="1327.927273" y="697.08476" fill="#ffffff" stroke="#ffffff" xlink:href="#b"/>
</g>
<g clip-path="url(#a)">
<use x="1091.307359" y="697.08476" fill="#ffffff" stroke="#ffffff" xlink:href="#b"/>
</g>
<g clip-path="url(#a)">
<use x="1167.460895" y="697.08476" fill="#ffffff" stroke="#ffffff" xlink:href="#b"/>
</g>
<g clip-path="url(#a)">
<use x="947.159596" y="697.08476" fill="#ffffff" stroke="#ffffff" xlink:href="#b"/>
</g>
<g clip-path="url(#a)">
<use x="1017.873593" y="697.08476" fill="#ffffff" stroke="#ffffff" xlink:href="#b"/>
</g>
<g clip-path="url(#a)">
<use x="84.992785" y="603.798704" fill="#ffffff" stroke="#ffffff" xlink:href="#b"/>
</g>
<g clip-path="url(#a)">
<use x="104.031169" y="697.08476" fill="#ffffff" stroke="#ffffff" xlink:href="#b"/>
</g>
<g clip-path="url(#a)">
<use x="120.349784" y="697.08476" fill="#ffffff" stroke="#ffffff" xlink:href="#b"/>
</g>
<g clip-path="url(#a)">
<use x="139.388167" y="697.08476" fill="#ffffff" stroke="#ffffff" xlink:href="#b"/>
</g>
<g clip-path="url(#a)">
<use x="79.553247" y="697.08476" fill="#ffffff" stroke="#ffffff" xlink:href="#b"/>
</g>
<g clip-path="url(#a)">
<use x="90.432323" y="697.08476" fill="#ffffff" stroke="#ffffff" xlink:href="#b"/>
</g>
<g clip-path="url(#a)">
<use x="161.14632" y="697.08476" fill="#ffffff" stroke="#ffffff" xlink:href="#b"/>
</g>
<g clip-path="url(#a)">
<use x="185.624242" y="697.08476" fill="#ffffff" stroke="#ffffff" xlink:href="#b"/>
</g>
<g clip-path="url(#a)">
<use x="275.376623" y="697.08476" fill="#ffffff" stroke="#ffffff" xlink:href="#b"/>
</g>
<g clip-path="url(#a)">
<use x="310.733622" y="697.08476" fill="#ffffff" stroke="#ffffff" xlink:href="#b"/>
</g>
<g clip-path="url(#a)">
<use x="528.315152" y="697.08476" fill="#ffffff" stroke="#ffffff" xlink:href="#b"/>
</g>
<g clip-path="url(#a)">
<use x="1412.240115" y="697.08476" fill="#ffffff" stroke="#ffffff" xlink:href="#b"/>
</g>
<g clip-path="url(#a)">
<use x="1499.272727" y="697.08476" fill="#ffffff" stroke="#ffffff" xlink:href="#b"/>
</g>
<g clip-path="url(#a)">
<defs>
<path id="as" d="m3.3281 72.906h9.9531l15.328-61.625 15.281 61.625h11.094l15.328-61.625 15.281 61.625h10.016l-18.312-72.906h-12.406l-15.375 63.281-15.531-63.281h-12.406z"/>
</defs>
<g transform="translate(57.33 791.85) scale(.1 -.1)">
<use xlink:href="#as"/>
<use x="93.001953" xlink:href="#d"/>
<use x="154.525391" xlink:href="#e"/>
<use x="217.904297" xlink:href="#e"/>
</g>
</g>
<g clip-path="url(#a)">
<g transform="translate(67.049 791.85) scale(.1 -.1)">
<use xlink:href="#k"/>
<use x="97.412109" xlink:href="#d"/>
<use x="158.935547" xlink:href="#f"/>
<use x="186.71875" xlink:href="#e"/>
</g>
</g>
<g clip-path="url(#a)">
<g transform="translate(79.572 791.85) scale(.1 -.1)">
<use xlink:href="#t"/>
<use x="75.195312" xlink:href="#d"/>
<use x="136.71875" xlink:href="#h"/>
<use x="176.082031" xlink:href="#h"/>
</g>
</g>
<g clip-path="url(#a)">
<defs>
<path id="q" d="m44.281 53.078v-8.5q-3.7969 1.9531-7.9062 2.9219-4.0938 0.98438-8.5 0.98438-6.6875 0-10.031-2.0469t-3.3438-6.1562q0-3.125 2.3906-4.9062t9.625-3.3906l3.0781-0.6875q9.5625-2.0469 13.594-5.7812t4.0312-10.422q0-7.625-6.0312-12.078-6.0312-4.4375-16.578-4.4375-4.3906 0-9.1562 0.85938t-10.031 2.5625v9.2812q4.9844-2.5938 9.8125-3.8906 4.8281-1.2812 9.5781-1.2812 6.3438 0 9.75 2.1719 3.4219 2.1719 3.4219 6.125 0 3.6562-2.4688 5.6094-2.4531 1.9531-10.812 3.7656l-3.125 0.73438q-8.3438 1.75-12.062 5.3906-3.7031 3.6406-3.7031 9.9844 0 7.7188 5.4688 11.906 5.4688 4.2031 15.531 4.2031 4.9688 0 9.3594-0.73438 4.4062-0.71875 8.1094-2.1875z"/>
</defs>
<g transform="translate(98.35 791.85) scale(.1 -.1)">
<use xlink:href="#d"/>
<use x="61.523438" xlink:href="#q"/>
</g>
</g>
<g clip-path="url(#a)">
<defs>
<path id="r" d="m4.2031 54.688h8.9844l11.234-42.672 11.172 42.672h10.594l11.234-42.672 11.188 42.672h8.9844l-14.312-54.688h-10.594l-11.766 44.828-11.812-44.828h-10.609z"/>
<path id="aj" d="m45.406 27.984q0 9.7656-4.0312 15.125-4.0156 5.375-11.297 5.375-7.2188 0-11.25-5.375-4.0312-5.3594-4.0312-15.125 0-9.7188 4.0312-15.094t11.25-5.375q7.2812 0 11.297 5.375 4.0312 5.375 4.0312 15.094zm8.9844-21.203q0-13.953-6.2031-20.766-6.1875-6.8125-18.984-6.8125-4.7344 0-8.9375 0.70312t-8.1562 2.1719v8.7344q3.9531-2.1406 7.8125-3.1562 3.8594-1.0312 7.8594-1.0312 8.8438 0 13.234 4.6094t4.3906 13.938v4.4531q-2.7812-4.8438-7.125-7.2344t-10.406-2.3906q-10.047 0-16.203 7.6562-6.1562 7.6719-6.1562 20.328 0 12.688 6.1562 20.344 6.1562 7.6719 16.203 7.6719 6.0625 0 10.406-2.3906t7.125-7.2188v8.2969h8.9844z"/>
</defs>
<g transform="translate(103.78 791.85) scale(.1 -.1)">
<use xlink:href="#r"/>
<use x="81.787109" xlink:href="#i"/>
<use x="143.066406" xlink:href="#aj"/>
<use x="206.542969" xlink:href="#d"/>
<use x="268.066406" xlink:href="#e"/>
</g>
</g>
<g clip-path="url(#a)">
<g transform="translate(131.13 791.85) scale(.1 -.1)">
<use xlink:href="#r"/>
<use x="81.787109" xlink:href="#f"/>
<use x="109.570312" xlink:href="#j"/>
<use x="137.353516" xlink:href="#j"/>
</g>
</g>
<g clip-path="url(#a)">
<defs>
<path id="ao" d="m51.812 51.703v-9.3125l-14.703-13.094 14.703-13.078v-9.3281l-22.906 20.406v4zm-21.203 0v-9.3125l-14.688-13.094 14.688-13.078v-9.3281l-22.891 20.406v4z"/>
</defs>
<g transform="translate(158.09 791.85) scale(.1 -.1)">
<use xlink:href="#ao"/>
</g>
</g>
<g clip-path="url(#a)">
<defs>
<path id="ag" d="m11.719 12.406h10.297v-8.4062l-8-15.625h-6.2969l4 15.625z"/>
</defs>
<g transform="translate(184.04 791.85) scale(.1 -.1)">
<use xlink:href="#ag"/>
</g>
</g>
<g clip-path="url(#a)">
<defs>
<path id="x" d="m18.312 70.219v-15.531h18.5v-6.9844h-18.5v-29.688q0-6.6875 1.8281-8.5938t7.4531-1.9062h9.2188v-7.5156h-9.2188q-10.406 0-14.359 3.875-3.9531 3.8906-3.9531 14.141v29.688h-6.5938v6.9844h6.5938v15.531z"/>
</defs>
<g transform="translate(198.94 791.85) scale(.1 -.1)">
<use xlink:href="#q"/>
<use x="52.099609" xlink:href="#i"/>
<use x="113.378906" xlink:href="#aj"/>
<use x="176.855469" xlink:href="#x"/>
<use x="216.064453" xlink:href="#d"/>
</g>
</g>
<g clip-path="url(#a)">
<defs>
<path id="ah" d="m30.609 48.391q-7.2188 0-11.422-5.6406t-4.2031-15.453 4.1719-15.453q4.1875-5.6406 11.453-5.6406 7.1875 0 11.375 5.6562 4.2031 5.6719 4.2031 15.438 0 9.7188-4.2031 15.406-4.1875 5.6875-11.375 5.6875zm0 7.6094q11.719 0 18.406-7.625 6.7031-7.6094 6.7031-21.078 0-13.422-6.7031-21.078-6.6875-7.6406-18.406-7.6406-11.766 0-18.438 7.6406-6.6562 7.6562-6.6562 21.078 0 13.469 6.6562 21.078 6.6719 7.625 18.438 7.625z"/>
</defs>
<g transform="translate(224.56 791.85) scale(.1 -.1)">
<use xlink:href="#ae"/>
<use x="69.824219" xlink:href="#ah"/>
<use x="131.005859" xlink:href="#e"/>
<use x="194.384766" xlink:href="#q"/>
<use x="246.484375" xlink:href="#d"/>
<use x="308.007812" xlink:href="#f"/>
<use x="335.791016" xlink:href="#j"/>
</g>
</g>
<g clip-path="url(#a)">
<g transform="translate(273.79 791.85) scale(.1 -.1)">
<use xlink:href="#ag"/>
</g>
</g>
<g clip-path="url(#a)">
<defs>
<path id="aw" d="m9.4219 51.703 22.906-20.406v-4l-22.906-20.406v9.3281l14.703 13.078-14.703 13.094zm21.188 0 22.906-20.406v-4l-22.906-20.406v9.3281l14.703 13.078-14.703 13.094z"/>
</defs>
<g transform="translate(307.67 791.85) scale(.1 -.1)">
<use xlink:href="#aw"/>
</g>
</g>
<g clip-path="url(#a)">
<g transform="translate(343.15 791.85) scale(.1 -.1)">
<use xlink:href="#q"/>
<use x="52.099609" xlink:href="#ah"/>
</g>
</g>
<g clip-path="url(#a)">
<defs>
<path id="ab" d="m45.406 46.391v29.594h8.9844v-75.984h-8.9844v8.2031q-2.8281-4.875-7.1562-7.25-4.3125-2.375-10.375-2.375-9.9062 0-16.141 7.9062-6.2188 7.9219-6.2188 20.812t6.2188 20.797q6.2344 7.9062 16.141 7.9062 6.0625 0 10.375-2.375 4.3281-2.3594 7.1562-7.2344zm-30.609-19.094q0-9.9062 4.0781-15.547t11.203-5.6406 11.219 5.6406q4.1094 5.6406 4.1094 15.547t-4.1094 15.547q-4.0938 5.6406-11.219 5.6406t-11.203-5.6406-4.0781-15.547z"/>
</defs>
<g transform="translate(371.05 791.85) scale(.1 -.1)">
<use xlink:href="#r"/>
<use x="81.787109" xlink:href="#d"/>
<use x="143.310547" xlink:href="#h"/>
<use x="182.673828" xlink:href="#ab"/>
<use x="246.150391" xlink:href="#d"/>
<use x="307.673828" xlink:href="#e"/>
</g>
</g>
<g clip-path="url(#a)">
<g transform="translate(425.59 791.85) scale(.1 -.1)">
<use xlink:href="#r"/>
<use x="81.787109" xlink:href="#f"/>
<use x="109.570312" xlink:href="#h"/>
</g>
</g>
<g clip-path="url(#a)">
<g transform="translate(462.43 791.85) scale(.1 -.1)">
<use xlink:href="#r"/>
<use x="81.787109" xlink:href="#f"/>
<use x="109.570312" xlink:href="#q"/>
<use x="161.669922" xlink:href="#q"/>
<use x="213.769531" xlink:href="#d"/>
<use x="275.292969" xlink:href="#e"/>
</g>
</g>
<g clip-path="url(#a)">
<g transform="translate(526.73 791.85) scale(.1 -.1)">
<use xlink:href="#ag"/>
</g>
</g>
<g clip-path="url(#a)">
<g transform="translate(564.55 791.85) scale(.1 -.1)">
<use xlink:href="#r"/>
<use x="81.787109" xlink:href="#ah"/>
<use x="142.96875" xlink:href="#h"/>
<use x="184.082031" xlink:href="#i"/>
<use x="245.361328" xlink:href="#e"/>
</g>
</g>
<g clip-path="url(#a)">
<g transform="translate(626.85 791.85) scale(.1 -.1)">
<use xlink:href="#r"/>
<use x="81.787109" xlink:href="#f"/>
<use x="109.570312" xlink:href="#h"/>
</g>
</g>
<g clip-path="url(#a)">
<defs>
<path id="aq" d="m8.5 21.578v33.109h8.9844v-32.766q0-7.7656 3.0156-11.656 3.0312-3.875 9.0938-3.875 7.2656 0 11.484 4.6406 4.2344 4.6406 4.2344 12.656v31h8.9844v-54.688h-8.9844v8.4062q-3.2656-4.9844-7.5938-7.4062-4.3125-2.4219-10.031-2.4219-9.4219 0-14.312 5.8594-4.875 5.8594-4.875 17.141z"/>
</defs>
<g transform="translate(682.56 791.85) scale(.1 -.1)">
<use xlink:href="#aq"/>
<use x="63.378906" xlink:href="#e"/>
<use x="126.757812" xlink:href="#q"/>
</g>
</g>
<g clip-path="url(#a)">
<defs>
<path id="ax" d="m5.5156 54.688h42.672v-8.2031l-33.781-39.312h33.781v-7.1719h-43.891v8.2031l33.797 39.312h-32.578z"/>
</defs>
<g transform="translate(745.54 791.85) scale(.1 -.1)">
<use xlink:href="#ax"/>
<use x="52.490234" xlink:href="#aq"/>
</g>
</g>
<g clip-path="url(#a)">
<defs>
<path id="ai" d="m54.891 33.016v-33.016h-8.9844v32.719q0 7.7656-3.0312 11.609-3.0312 3.8594-9.0781 3.8594-7.2812 0-11.484-4.6406-4.2031-4.625-4.2031-12.641v-30.906h-9.0312v75.984h9.0312v-29.797q3.2344 4.9375 7.5938 7.375 4.375 2.4375 10.094 2.4375 9.4219 0 14.25-5.8281 4.8438-5.8281 4.8438-17.156z"/>
</defs>
<g transform="translate(798.06 791.85) scale(.1 -.1)">
<use xlink:href="#ai"/>
<use x="63.378906" xlink:href="#i"/>
<use x="124.658203" xlink:href="#j"/>
<use x="152.441406" xlink:href="#x"/>
<use x="191.650391" xlink:href="#d"/>
<use x="253.173828" xlink:href="#e"/>
</g>
</g>
<g clip-path="url(#a)">
<defs>
<path id="ak" d="m48.688 27.297q0 9.9062-4.0781 15.547t-11.203 5.6406q-7.1406 0-11.219-5.6406t-4.0781-15.547 4.0781-15.547 11.219-5.6406q7.125 0 11.203 5.6406t4.0781 15.547zm-30.578 19.094q2.8438 4.875 7.1562 7.2344 4.3281 2.375 10.328 2.375 9.9688 0 16.188-7.9062 6.2344-7.9062 6.2344-20.797t-6.2344-20.812q-6.2188-7.9062-16.188-7.9062-6 0-10.328 2.375-4.3125 2.375-7.1562 7.25v-8.2031h-9.0312v75.984h9.0312z"/>
</defs>
<g transform="translate(863.51 791.85) scale(.1 -.1)">
<use xlink:href="#ai"/>
<use x="63.378906" xlink:href="#i"/>
<use x="124.658203" xlink:href="#ak"/>
<use x="188.134766" xlink:href="#d"/>
<use x="249.658203" xlink:href="#e"/>
</g>
</g>
<g clip-path="url(#a)">
<g transform="translate(942.6 791.85) scale(.1 -.1)">
<use xlink:href="#f"/>
<use x="27.783203" xlink:href="#e"/>
</g>
</g>
<g clip-path="url(#a)">
<defs>
<path id="ar" d="m48.781 52.594v-8.4062q-3.8125 2.1094-7.6406 3.1562t-7.7344 1.0469q-8.75 0-13.594-5.5469-4.8281-5.5312-4.8281-15.547t4.8281-15.562q4.8438-5.5312 13.594-5.5312 3.9062 0 7.7344 1.0469t7.6406 3.1562v-8.3125q-3.7656-1.75-7.7969-2.625-4.0156-0.89062-8.5625-0.89062-12.359 0-19.641 7.7656-7.2656 7.7656-7.2656 20.953 0 13.375 7.3438 21.031 7.3594 7.6719 20.156 7.6719 4.1406 0 8.0938-0.85938 3.9531-0.84375 7.6719-2.5469z"/>
</defs>
<g transform="translate(997.68 791.85) scale(.1 -.1)">
<use xlink:href="#t"/>
<use x="75.195312" xlink:href="#f"/>
<use x="102.978516" xlink:href="#e"/>
<use x="166.357422" xlink:href="#q"/>
<use x="218.457031" xlink:href="#f"/>
<use x="246.240234" xlink:href="#ar"/>
<use x="301.220703" xlink:href="#ai"/>
<use x="364.599609" xlink:href="#x"/>
</g>
</g>
<g clip-path="url(#a)">
<g transform="translate(1083 791.85) scale(.1 -.1)">
<use xlink:href="#ab"/>
<use x="63.476562" xlink:href="#d"/>
<use x="125" xlink:href="#h"/>
</g>
</g>
<g clip-path="url(#a)">
<defs>
<path id="au" d="m8.5 21.578v33.109h8.9844v-32.766q0-7.7656 3.0156-11.656 3.0312-3.875 9.0938-3.875 7.2656 0 11.484 4.6406 4.2344 4.6406 4.2344 12.656v31h8.9844v-54.688h-8.9844v8.4062q-3.2656-4.9844-7.5938-7.4062-4.3125-2.4219-10.031-2.4219-9.4219 0-14.312 5.8594-4.875 5.8594-4.875 17.141zm22.609 34.422m4.4844 19.781h9.9062v-9.8594h-9.9062zm-19.094 0h9.9062v-9.8594h-9.9062z"/>
<path id="az" d="m9.0781 75.984h9.0312v-44.875l26.812 23.578h11.469l-29-25.578 30.234-29.109h-11.719l-27.797 26.703v-26.703h-9.0312z"/>
</defs>
<g transform="translate(1122.1 791.85) scale(.1 -.1)">
<use xlink:href="#ad"/>
<use x="55.712891" xlink:href="#f"/>
<use x="83.496094" xlink:href="#d"/>
<use x="145.019531" xlink:href="#ak"/>
<use x="208.496094" xlink:href="#d"/>
<use x="270.019531" xlink:href="#e"/>
<use x="333.398438" xlink:href="#q"/>
<use x="385.498047" xlink:href="#r"/>
<use x="467.285156" xlink:href="#au"/>
<use x="530.664062" xlink:href="#h"/>
<use x="570.027344" xlink:href="#ab"/>
<use x="633.503906" xlink:href="#f"/>
<use x="661.287109" xlink:href="#aj"/>
<use x="724.763672" xlink:href="#az"/>
<use x="779.048828" xlink:href="#d"/>
<use x="840.572266" xlink:href="#f"/>
<use x="868.355469" xlink:href="#x"/>
</g>
</g>
<g clip-path="url(#a)">
<g transform="translate(1237.5 791.85) scale(.1 -.1)">
<use xlink:href="#ab"/>
<use x="63.476562" xlink:href="#d"/>
<use x="125" xlink:href="#q"/>
</g>
</g>
<g clip-path="url(#a)">
<defs>
<path id="at" d="m9.8125 72.906h9.8594v-30.812l32.719 30.812h12.703l-36.188-33.984 38.766-38.922h-12.984l-35.016 35.109v-35.109h-9.8594z"/>
<path id="ay" d="m18.109 8.2031v-29h-9.0312v75.484h9.0312v-8.2969q2.8438 4.875 7.1562 7.2344 4.3281 2.375 10.328 2.375 9.9688 0 16.188-7.9062 6.2344-7.9062 6.2344-20.797t-6.2344-20.812q-6.2188-7.9062-16.188-7.9062-6 0-10.328 2.375-4.3125 2.375-7.1562 7.25zm30.578 19.094q0 9.9062-4.0781 15.547t-11.203 5.6406q-7.1406 0-11.219-5.6406t-4.0781-15.547 4.0781-15.547 11.219-5.6406q7.125 0 11.203 5.6406t4.0781 15.547z"/>
<path id="av" d="m34.281 27.484q-10.891 0-15.094-2.4844t-4.2031-8.5q0-4.7812 3.1562-7.5938 3.1562-2.7969 8.5625-2.7969 7.4844 0 12 5.2969t4.5156 14.078v2zm17.922 3.7188v-31.203h-8.9844v8.2969q-3.0781-4.9688-7.6719-7.3438t-11.234-2.375q-8.3906 0-13.359 4.7188-4.9531 4.7188-4.9531 12.625 0 9.2188 6.1719 13.906 6.1875 4.6875 18.438 4.6875h12.609v0.89062q0 6.2031-4.0781 9.5938t-11.453 3.3906q-4.6875 0-9.1406-1.125-4.4375-1.125-8.5312-3.375v8.3125q4.9219 1.9062 9.5625 2.8438 4.6406 0.95312 9.0312 0.95312 11.875 0 17.734-6.1562 5.8594-6.1406 5.8594-18.641zm-18.609 44.578h9.9062v-9.8594h-9.9062zm-19.094 0h9.9062v-9.8594h-9.9062z"/>
</defs>
<g transform="translate(1306.3 791.85) scale(.1 -.1)">
<use xlink:href="#at"/>
<use x="63.826172" xlink:href="#i"/>
<use x="125.105469" xlink:href="#ay"/>
<use x="188.582031" xlink:href="#f"/>
<use x="216.365234" xlink:href="#x"/>
<use x="255.574219" xlink:href="#av"/>
<use x="316.853516" xlink:href="#e"/>
<use x="380.232422" xlink:href="#q"/>
</g>
</g>
<g clip-path="url(#a)">
<defs>
<path id="g" d="m10.688 12.406h10.312v-12.406h-10.312z"/>
</defs>
<g transform="translate(1410.7 791.85) scale(.1 -.1)">
<use xlink:href="#g"/>
</g>
</g>
<g clip-path="url(#a)">
<g transform="translate(1496.2 791.85) scale(.1 -.1)">
<use xlink:href="#ao"/>
</g>
</g>
<g clip-path="url(#a)">
<defs>
<path id="c" d="m12.406 8.2969h16.109v55.625l-17.531-3.5156v8.9844l17.438 3.5156h9.8594v-64.609h16.109v-8.2969h-41.984z"/>
</defs>
<g transform="translate(228.15 40.335) scale(.1 -.1)">
<use xlink:href="#c"/>
<use x="63.623047" xlink:href="#g"/>
<use x="95.410156" xlink:href="#c"/>
</g>
</g>
<g clip-path="url(#a)">
<defs>
<path id="n" d="m19.188 8.2969h34.422v-8.2969h-46.281v8.2969q5.6094 5.8125 15.297 15.594 9.7031 9.7969 12.188 12.641 4.7344 5.3125 6.6094 9 1.8906 3.6875 1.8906 7.25 0 5.8125-4.0781 9.4688-4.0781 3.6719-10.625 3.6719-4.6406 0-9.7969-1.6094-5.1406-1.6094-11-4.8906v9.9688q5.9531 2.3906 11.125 3.6094 5.1875 1.2188 9.4844 1.2188 11.328 0 18.062-5.6719 6.7344-5.6562 6.7344-15.125 0-4.5-1.6875-8.5312-1.6719-4.0156-6.125-9.4844-1.2188-1.4219-7.7656-8.1875-6.5312-6.7656-18.453-18.922z"/>
</defs>
<g transform="translate(228.15 135.15) scale(.1 -.1)">
<use xlink:href="#c"/>
<use x="63.623047" xlink:href="#g"/>
<use x="95.410156" xlink:href="#n"/>
</g>
</g>
<g clip-path="url(#a)">
<defs>
<path id="w" d="m10.797 72.906h38.719v-8.3125h-29.688v-17.859q2.1406 0.73438 4.2812 1.0938 2.1562 0.35938 4.3125 0.35938 12.203 0 19.328-6.6875 7.1406-6.6875 7.1406-18.109 0-11.766-7.3281-18.297-7.3281-6.5156-20.656-6.5156-4.5938 0-9.3594 0.78125-4.75 0.78125-9.8281 2.3438v9.9219q4.3906-2.3906 9.0781-3.5625t9.9062-1.1719q8.4531 0 13.375 4.4375 4.9375 4.4375 4.9375 12.062 0 7.6094-4.9375 12.047-4.9219 4.4531-13.375 4.4531-3.9531 0-7.8906-0.875-3.9219-0.875-8.0156-2.7344z"/>
</defs>
<g transform="translate(256.32 229.83) scale(.1 -.1)">
<use xlink:href="#c"/>
<use x="63.623047" xlink:href="#g"/>
<use x="95.410156" xlink:href="#w"/>
</g>
</g>
<g clip-path="url(#a)">
<defs>
<path id="v" d="m33.016 40.375q-6.6406 0-10.531-4.5469-3.875-4.5312-3.875-12.438 0-7.8594 3.875-12.438 3.8906-4.5625 10.531-4.5625t10.516 4.5625q3.875 4.5781 3.875 12.438 0 7.9062-3.875 12.438-3.875 4.5469-10.516 4.5469zm19.578 30.922v-8.9844q-3.7188 1.75-7.5 2.6719-3.7812 0.9375-7.5 0.9375-9.7656 0-14.922-6.5938-5.1406-6.5938-5.875-19.922 2.875 4.25 7.2188 6.5156 4.3594 2.2656 9.5781 2.2656 10.984 0 17.359-6.6719 6.375-6.6562 6.375-18.125 0-11.234-6.6406-18.031-6.6406-6.7812-17.672-6.7812-12.656 0-19.344 9.6875-6.6875 9.7031-6.6875 28.109 0 17.281 8.2031 27.562t22.016 10.281q3.7188 0 7.5-0.73438t7.8906-2.1875z"/>
</defs>
<g transform="translate(204.87 699.84) scale(.1 -.1)">
<use xlink:href="#c"/>
<use x="63.623047" xlink:href="#g"/>
<use x="95.410156" xlink:href="#v"/>
</g>
</g>
<g clip-path="url(#a)">
<defs>
<path id="u" d="m8.2031 72.906h46.875v-4.2031l-26.469-68.703h-10.297l24.906 64.594h-35.016z"/>
</defs>
<g transform="translate(234.79 699.84) scale(.1 -.1)">
<use xlink:href="#c"/>
<use x="63.623047" xlink:href="#g"/>
<use x="95.410156" xlink:href="#u"/>
</g>
</g>
<g clip-path="url(#a)">
<g transform="translate(60.261 699.84) scale(.1 -.1)">
<use xlink:href="#c"/>
<use x="63.623047" xlink:href="#g"/>
<use x="95.410156" xlink:href="#c"/>
<use x="159.033203" xlink:href="#n"/>
</g>
</g>
<g clip-path="url(#a)">
<defs>
<path id="m" d="m40.578 39.312q7.0781-1.5156 11.047-6.3125 3.9844-4.7812 3.9844-11.812 0-10.781-7.4219-16.703-7.4219-5.9062-21.094-5.9062-4.5781 0-9.4375 0.90625t-10.031 2.7188v9.5156q4.0938-2.3906 8.9688-3.6094 4.8906-1.2188 10.219-1.2188 9.2656 0 14.125 3.6562t4.8594 10.641q0 6.4531-4.5156 10.078-4.5156 3.6406-12.562 3.6406h-8.5v8.1094h8.8906q7.2656 0 11.125 2.9062t3.8594 8.375q0 5.6094-3.9844 8.6094-3.9688 3.0156-11.391 3.0156-4.0625 0-8.7031-0.89062-4.6406-0.875-10.203-2.7188v8.7812q5.625 1.5625 10.531 2.3438t9.25 0.78125q11.234 0 17.766-5.1094 6.5469-5.0938 6.5469-13.781 0-6.0625-3.4688-10.234t-9.8594-5.7812z"/>
</defs>
<g transform="translate(101.06 512.78) scale(.1 -.1)">
<use xlink:href="#c"/>
<use x="63.623047" xlink:href="#g"/>
<use x="95.410156" xlink:href="#c"/>
<use x="159.033203" xlink:href="#m"/>
</g>
</g>
<g clip-path="url(#a)">
<defs>
<path id="p" d="m37.797 64.312-24.906-38.922h24.906zm-2.5938 8.5938h12.406v-47.516h10.406v-8.2031h-10.406v-17.188h-9.8125v17.188h-32.906v9.5156z"/>
</defs>
<g transform="translate(337.68 699.84) scale(.1 -.1)">
<use xlink:href="#c"/>
<use x="63.623047" xlink:href="#g"/>
<use x="95.410156" xlink:href="#c"/>
<use x="159.033203" xlink:href="#p"/>
</g>
</g>
<g clip-path="url(#a)">
<g transform="translate(513.57 324.36) scale(.1 -.1)">
<use xlink:href="#c"/>
<use x="63.623047" xlink:href="#g"/>
<use x="95.410156" xlink:href="#c"/>
<use x="159.033203" xlink:href="#w"/>
</g>
</g>
<g clip-path="url(#a)">
<g transform="translate(378.47 699.84) scale(.1 -.1)">
<use xlink:href="#c"/>
<use x="63.623047" xlink:href="#g"/>
<use x="95.410156" xlink:href="#c"/>
<use x="159.033203" xlink:href="#v"/>
</g>
</g>
<g clip-path="url(#a)">
<g transform="translate(421.99 699.84) scale(.1 -.1)">
<use xlink:href="#c"/>
<use x="63.623047" xlink:href="#g"/>
<use x="95.410156" xlink:href="#c"/>
<use x="159.033203" xlink:href="#u"/>
</g>
</g>
<g clip-path="url(#a)">
<defs>
<path id="aa" d="m31.781 34.625q-7.0312 0-11.062-3.7656-4.0156-3.7656-4.0156-10.344 0-6.5938 4.0156-10.359 4.0312-3.7656 11.062-3.7656t11.078 3.7812q4.0625 3.7969 4.0625 10.344 0 6.5781-4.0312 10.344-4.0156 3.7656-11.109 3.7656zm-9.8594 4.1875q-6.3438 1.5625-9.8906 5.9062-3.5312 4.3594-3.5312 10.609 0 8.7344 6.2188 13.812 6.2344 5.0781 17.062 5.0781 10.891 0 17.094-5.0781t6.2031-13.812q0-6.25-3.5469-10.609-3.5312-4.3438-9.8281-5.9062 7.125-1.6562 11.094-6.5 3.9844-4.8281 3.9844-11.797 0-10.609-6.4688-16.281-6.4688-5.6562-18.531-5.6562-12.047 0-18.531 5.6562-6.4688 5.6719-6.4688 16.281 0 6.9688 4 11.797 4.0156 4.8438 11.141 6.5zm-3.6094 15.578q0-5.6562 3.5312-8.8281 3.5469-3.1719 9.9375-3.1719 6.3594 0 9.9375 3.1719 3.5938 3.1719 3.5938 8.8281 0 5.6719-3.5938 8.8438-3.5781 3.1719-9.9375 3.1719-6.3906 0-9.9375-3.1719-3.5312-3.1719-3.5312-8.8438z"/>
</defs>
<g transform="translate(468.23 699.84) scale(.1 -.1)">
<use xlink:href="#c"/>
<use x="63.623047" xlink:href="#g"/>
<use x="95.410156" xlink:href="#c"/>
<use x="159.033203" xlink:href="#aa"/>
</g>
</g>
<g clip-path="url(#a)">
<defs>
<path id="af" d="m10.984 1.5156v8.9844q3.7188-1.7656 7.5156-2.6875 3.8125-0.92188 7.4844-0.92188 9.7656 0 14.906 6.5625 5.1562 6.5625 5.8906 19.953-2.8281-4.2031-7.1875-6.4531-4.3438-2.25-9.6094-2.25-10.938 0-17.312 6.6094-6.375 6.625-6.375 18.109 0 11.219 6.6406 18 6.6406 6.7969 17.672 6.7969 12.656 0 19.312-9.7031 6.6719-9.6875 6.6719-28.141 0-17.234-8.1875-27.516-8.1719-10.281-21.984-10.281-3.7188 0-7.5312 0.73438-3.7969 0.73438-7.9062 2.2031zm19.625 30.906q6.6406 0 10.516 4.5312 3.8906 4.5469 3.8906 12.469 0 7.8594-3.8906 12.422-3.875 4.5625-10.516 4.5625t-10.516-4.5625-3.875-12.422q0-7.9219 3.875-12.469 3.875-4.5312 10.516-4.5312z"/>
</defs>
<g transform="translate(781.98 418.69) scale(.1 -.1)">
<use xlink:href="#c"/>
<use x="63.623047" xlink:href="#g"/>
<use x="95.410156" xlink:href="#c"/>
<use x="159.033203" xlink:href="#af"/>
</g>
</g>
<g clip-path="url(#a)">
<g transform="translate(568.86 699.84) scale(.1 -.1)">
<use xlink:href="#c"/>
<use x="63.623047" xlink:href="#g"/>
<use x="95.410156" xlink:href="#n"/>
<use x="159.033203" xlink:href="#c"/>
</g>
</g>
<g clip-path="url(#a)">
<g transform="translate(623.25 699.84) scale(.1 -.1)">
<use xlink:href="#c"/>
<use x="63.623047" xlink:href="#g"/>
<use x="95.410156" xlink:href="#n"/>
<use x="159.033203" xlink:href="#n"/>
</g>
</g>
<g clip-path="url(#a)">
<g transform="translate(741.56 699.84) scale(.1 -.1)">
<use xlink:href="#c"/>
<use x="63.623047" xlink:href="#g"/>
<use x="95.410156" xlink:href="#n"/>
<use x="159.033203" xlink:href="#m"/>
</g>
</g>
<g clip-path="url(#a)">
<g transform="translate(740.2 699.84) scale(.1 -.1)">
<use xlink:href="#c"/>
<use x="63.623047" xlink:href="#g"/>
<use x="95.410156" xlink:href="#n"/>
<use x="159.033203" xlink:href="#p"/>
</g>
</g>
<g clip-path="url(#a)">
<g transform="translate(868.03 699.84) scale(.1 -.1)">
<use xlink:href="#c"/>
<use x="63.623047" xlink:href="#g"/>
<use x="95.410156" xlink:href="#n"/>
<use x="159.033203" xlink:href="#w"/>
</g>
</g>
<g clip-path="url(#a)">
<g transform="translate(1150 512.78) scale(.1 -.1)">
<use xlink:href="#c"/>
<use x="63.623047" xlink:href="#g"/>
<use x="95.410156" xlink:href="#n"/>
<use x="159.033203" xlink:href="#v"/>
</g>
</g>
<g clip-path="url(#a)">
<g transform="translate(971.38 606.56) scale(.1 -.1)">
<use xlink:href="#c"/>
<use x="63.623047" xlink:href="#g"/>
<use x="95.410156" xlink:href="#n"/>
<use x="159.033203" xlink:href="#u"/>
</g>
</g>
<g clip-path="url(#a)">
<g transform="translate(1118.3 606.56) scale(.1 -.1)">
<use xlink:href="#c"/>
<use x="63.623047" xlink:href="#g"/>
<use x="95.410156" xlink:href="#n"/>
<use x="159.033203" xlink:href="#aa"/>
</g>
</g>
<g clip-path="url(#a)">
<g transform="translate(1360.3 606.56) scale(.1 -.1)">
<use xlink:href="#c"/>
<use x="63.623047" xlink:href="#g"/>
<use x="95.410156" xlink:href="#n"/>
<use x="159.033203" xlink:href="#af"/>
</g>
</g>
<g clip-path="url(#a)">
<defs>
<path id="an" d="m31.781 66.406q-7.6094 0-11.453-7.5-3.8281-7.4844-3.8281-22.531 0-14.984 3.8281-22.484 3.8438-7.5 11.453-7.5 7.6719 0 11.5 7.5 3.8438 7.5 3.8438 22.484 0 15.047-3.8438 22.531-3.8281 7.5-11.5 7.5zm0 7.8125q12.266 0 18.734-9.7031 6.4688-9.6875 6.4688-28.141 0-18.406-6.4688-28.109-6.4688-9.6875-18.734-9.6875-12.25 0-18.719 9.6875-6.4688 9.7031-6.4688 28.109 0 18.453 6.4688 28.141 6.4688 9.7031 18.719 9.7031z"/>
</defs>
<g transform="translate(1235.2 699.84) scale(.1 -.1)">
<use xlink:href="#c"/>
<use x="63.623047" xlink:href="#g"/>
<use x="95.410156" xlink:href="#m"/>
<use x="159.033203" xlink:href="#an"/>
</g>
</g>
<g clip-path="url(#a)">
<g transform="translate(1316.8 699.84) scale(.1 -.1)">
<use xlink:href="#c"/>
<use x="63.623047" xlink:href="#g"/>
<use x="95.410156" xlink:href="#m"/>
<use x="159.033203" xlink:href="#c"/>
</g>
</g>
<g clip-path="url(#a)">
<g transform="translate(1080.2 699.84) scale(.1 -.1)">
<use xlink:href="#c"/>
<use x="63.623047" xlink:href="#g"/>
<use x="95.410156" xlink:href="#m"/>
<use x="159.033203" xlink:href="#n"/>
</g>
</g>
<g clip-path="url(#a)">
<g transform="translate(1156.3 699.84) scale(.1 -.1)">
<use xlink:href="#c"/>
<use x="63.623047" xlink:href="#g"/>
<use x="95.410156" xlink:href="#m"/>
<use x="159.033203" xlink:href="#m"/>
</g>
</g>
<g clip-path="url(#a)">
<g transform="translate(936.03 699.84) scale(.1 -.1)">
<use xlink:href="#c"/>
<use x="63.623047" xlink:href="#g"/>
<use x="95.410156" xlink:href="#m"/>
<use x="159.033203" xlink:href="#p"/>
</g>
</g>
<g clip-path="url(#a)">
<g transform="translate(1006.7 699.84) scale(.1 -.1)">
<use xlink:href="#c"/>
<use x="63.623047" xlink:href="#g"/>
<use x="95.410156" xlink:href="#m"/>
<use x="159.033203" xlink:href="#w"/>
</g>
</g>
<g clip-path="url(#a)">
<g transform="translate(73.86 606.56) scale(.1 -.1)">
<use xlink:href="#c"/>
<use x="63.623047" xlink:href="#g"/>
<use x="95.410156" xlink:href="#m"/>
<use x="159.033203" xlink:href="#v"/>
</g>
</g>
<g clip-path="url(#a)">
<g transform="translate(92.898 699.84) scale(.1 -.1)">
<use xlink:href="#c"/>
<use x="63.623047" xlink:href="#g"/>
<use x="95.410156" xlink:href="#m"/>
<use x="159.033203" xlink:href="#u"/>
</g>
</g>
<g clip-path="url(#a)">
<g transform="translate(109.22 699.84) scale(.1 -.1)">
<use xlink:href="#c"/>
<use x="63.623047" xlink:href="#g"/>
<use x="95.410156" xlink:href="#m"/>
<use x="159.033203" xlink:href="#aa"/>
</g>
</g>
<g clip-path="url(#a)">
<g transform="translate(128.26 699.84) scale(.1 -.1)">
<use xlink:href="#c"/>
<use x="63.623047" xlink:href="#g"/>
<use x="95.410156" xlink:href="#m"/>
<use x="159.033203" xlink:href="#af"/>
</g>
</g>
<g clip-path="url(#a)">
<g transform="translate(68.42 699.84) scale(.1 -.1)">
<use xlink:href="#c"/>
<use x="63.623047" xlink:href="#g"/>
<use x="95.410156" xlink:href="#p"/>
<use x="159.033203" xlink:href="#an"/>
</g>
</g>
<g clip-path="url(#a)">
<g transform="translate(79.3 699.84) scale(.1 -.1)">
<use xlink:href="#c"/>
<use x="63.623047" xlink:href="#g"/>
<use x="95.410156" xlink:href="#p"/>
<use x="159.033203" xlink:href="#c"/>
</g>
</g>
<g clip-path="url(#a)">
<g transform="translate(150.01 699.84) scale(.1 -.1)">
<use xlink:href="#c"/>
<use x="63.623047" xlink:href="#g"/>
<use x="95.410156" xlink:href="#p"/>
<use x="159.033203" xlink:href="#n"/>
</g>
</g>
<g clip-path="url(#a)">
<g transform="translate(174.49 699.84) scale(.1 -.1)">
<use xlink:href="#c"/>
<use x="63.623047" xlink:href="#g"/>
<use x="95.410156" xlink:href="#p"/>
<use x="159.033203" xlink:href="#m"/>
</g>
</g>
<g clip-path="url(#a)">
<g transform="translate(264.24 699.84) scale(.1 -.1)">
<use xlink:href="#c"/>
<use x="63.623047" xlink:href="#g"/>
<use x="95.410156" xlink:href="#p"/>
<use x="159.033203" xlink:href="#p"/>
</g>
</g>
<g clip-path="url(#a)">
<g transform="translate(299.6 699.84) scale(.1 -.1)">
<use xlink:href="#c"/>
<use x="63.623047" xlink:href="#g"/>
<use x="95.410156" xlink:href="#p"/>
<use x="159.033203" xlink:href="#w"/>
</g>
</g>
<g clip-path="url(#a)">
<g transform="translate(517.18 699.84) scale(.1 -.1)">
<use xlink:href="#c"/>
<use x="63.623047" xlink:href="#g"/>
<use x="95.410156" xlink:href="#p"/>
<use x="159.033203" xlink:href="#v"/>
</g>
</g>
<g clip-path="url(#a)">
<g transform="translate(1401.1 699.84) scale(.1 -.1)">
<use xlink:href="#c"/>
<use x="63.623047" xlink:href="#g"/>
<use x="95.410156" xlink:href="#p"/>
<use x="159.033203" xlink:href="#u"/>
</g>
</g>
<g clip-path="url(#a)">
<g transform="translate(1488.1 699.84) scale(.1 -.1)">
<use xlink:href="#c"/>
<use x="63.623047" xlink:href="#g"/>
<use x="95.410156" xlink:href="#p"/>
<use x="159.033203" xlink:href="#aa"/>
</g>
</g>
<defs>
<clipPath id="a">
<rect width="1570.7" height="826.67"/>
</clipPath>
</defs>
</svg>
