<?xml version="1.0" encoding="UTF-8"?>
<!DOCTYPE svg  PUBLIC '-//W3C//DTD SVG 1.1//EN'  'http://www.w3.org/Graphics/SVG/1.1/DTD/svg11.dtd'>
<svg width="1925.3pt" height="1013.3pt" version="1.1" viewBox="0 0 1925.3 1013.3" xmlns="http://www.w3.org/2000/svg" xmlns:xlink="http://www.w3.org/1999/xlink">
<defs>
<style type="text/css">*{stroke-linecap:butt;stroke-linejoin:round;white-space:pre;}</style>
</defs>
<path d="m0 1013.3h1925.3v-1013.3h-1925.3z" fill="#fff"/>
<g fill="none" stroke="#000">
<path d="m676.6 46.731 251.02 124.84" clip-path="url(#a)"/>
<path d="m676.6 46.731-210.56 810.99" clip-path="url(#a)"/>
<path d="m676.6 46.731 2.2787 591.72" clip-path="url(#a)"/>
<path d="m676.6 46.731-257.86 810.99" clip-path="url(#a)"/>
<path d="m676.6 46.731 215.12 810.99" clip-path="url(#a)"/>
<path d="m927.62 171.57-729.6 466.88" clip-path="url(#a)"/>
<path d="m927.62 171.57 11.393 686.15" clip-path="url(#a)"/>
<path d="m927.62 171.57 58.691 686.15" clip-path="url(#a)"/>
<path d="m927.62 171.57 105.99 686.15" clip-path="url(#a)"/>
<path d="m927.62 171.57 400.24 121.27" clip-path="url(#a)"/>
<path d="m927.62 171.57 153.28 686.15" clip-path="url(#a)"/>
<path d="m466.05 857.72v108.88" clip-path="url(#a)"/>
<path d="m678.88 638.45-165.54 219.27" clip-path="url(#a)"/>
<path d="m678.88 638.45-70.946 110.39" clip-path="url(#a)"/>
<path d="m678.88 638.45 70.946 110.39" clip-path="url(#a)"/>
<path d="m678.88 638.45 165.54 219.27" clip-path="url(#a)"/>
<path d="m513.34 857.72v108.88" clip-path="url(#a)"/>
<path d="m607.94 748.85-47.297 108.88" clip-path="url(#a)"/>
<path d="m607.94 748.85v108.88" clip-path="url(#a)"/>
<path d="m607.94 748.85 47.297 108.88" clip-path="url(#a)"/>
<path d="m749.83 748.85-47.297 108.88" clip-path="url(#a)"/>
<path d="m749.83 748.85v108.88" clip-path="url(#a)"/>
<path d="m749.83 748.85 47.297 108.88" clip-path="url(#a)"/>
<path d="m844.42 857.72v108.88" clip-path="url(#a)"/>
<path d="m702.53 857.72v108.88" clip-path="url(#a)"/>
<path d="m749.83 857.72v108.88" clip-path="url(#a)"/>
<path d="m797.13 857.72v108.88" clip-path="url(#a)"/>
<path d="m560.64 857.72v108.88" clip-path="url(#a)"/>
<path d="m607.94 857.72v108.88" clip-path="url(#a)"/>
<path d="m655.23 857.72v108.88" clip-path="url(#a)"/>
<path d="m198.03 638.45-110.36 219.27" clip-path="url(#a)"/>
<path d="m198.03 638.45-15.766 110.39" clip-path="url(#a)"/>
<path d="m198.03 638.45 126.13 110.39" clip-path="url(#a)"/>
<path d="m939.02 857.72v108.88" clip-path="url(#a)"/>
<path d="m986.32 857.72v108.88" clip-path="url(#a)"/>
<path d="m1033.6 857.72v108.88" clip-path="url(#a)"/>
<path d="m1327.9 292.84-199.66 564.88" clip-path="url(#a)"/>
<path d="m1327.9 292.84-152.36 564.88" clip-path="url(#a)"/>
<path d="m1327.9 292.84 41.874 118.01" clip-path="url(#a)"/>
<path d="m1327.9 292.84 131.42 564.88" clip-path="url(#a)"/>
<path d="m1327.9 292.84 178.72 564.88" clip-path="url(#a)"/>
<path d="m1128.2 857.72v108.88" clip-path="url(#a)"/>
<path d="m1175.5 857.72v108.88" clip-path="url(#a)"/>
<path d="m1369.7 410.85-146.94 446.87" clip-path="url(#a)"/>
<path d="m1369.7 410.85-99.639 446.87" clip-path="url(#a)"/>
<path d="m1369.7 410.85-52.342 446.87" clip-path="url(#a)"/>
<path d="m1369.7 410.85 18.604 337.99" clip-path="url(#a)"/>
<path d="m1369.7 410.85 280.31 115.08" clip-path="url(#a)"/>
<path d="m1459.3 857.72v108.88" clip-path="url(#a)"/>
<path d="m1222.8 857.72v108.88" clip-path="url(#a)"/>
<path d="m1270.1 857.72v108.88" clip-path="url(#a)"/>
<path d="m1317.4 857.72v108.88" clip-path="url(#a)"/>
<path d="m1388.3 748.85-23.649 108.88" clip-path="url(#a)"/>
<path d="m1388.3 748.85 23.649 108.88" clip-path="url(#a)"/>
<path d="m1650.1 525.94-96.171 331.79" clip-path="url(#a)"/>
<path d="m1650.1 525.94 6.3063 112.52" clip-path="url(#a)"/>
<path d="m1650.1 525.94 140.32 331.79" clip-path="url(#a)"/>
<path d="m1650.1 525.94-238.06 331.79" clip-path="url(#a)" stroke-dasharray="3.7,1.6"/>
<path d="m1650.1 525.94 187.61 331.79" clip-path="url(#a)"/>
<path d="m1553.9 857.72v108.88" clip-path="url(#a)"/>
<path d="m1656.4 638.45-55.18 219.27" clip-path="url(#a)"/>
<path d="m1656.4 638.45-7.8829 219.27" clip-path="url(#a)"/>
<path d="m1656.4 638.45 63.063 110.39" clip-path="url(#a)"/>
<path d="m1790.4 857.72v108.88" clip-path="url(#a)"/>
<path d="m1601.2 857.72v108.88" clip-path="url(#a)"/>
<path d="m1648.5 857.72v108.88" clip-path="url(#a)"/>
<path d="m1719.4 748.85-23.649 108.88" clip-path="url(#a)"/>
<path d="m1719.4 748.85 23.649 108.88" clip-path="url(#a)"/>
<path d="m1695.8 857.72v108.88" clip-path="url(#a)"/>
<path d="m1743.1 857.72v108.88" clip-path="url(#a)"/>
<path d="m1364.7 857.72v108.88" clip-path="url(#a)"/>
<path d="m1412 857.72v108.88" clip-path="url(#a)"/>
<path d="m87.668 857.72v108.88" clip-path="url(#a)"/>
<path d="m182.26 748.85-47.297 217.76" clip-path="url(#a)"/>
<path d="m182.26 748.85 47.297 217.76" clip-path="url(#a)"/>
<path d="m182.26 748.85v108.88" clip-path="url(#a)"/>
<path d="m324.15 748.85-47.297 108.88" clip-path="url(#a)"/>
<path d="m324.15 748.85v108.88" clip-path="url(#a)"/>
<path d="m324.15 748.85 47.297 108.88" clip-path="url(#a)"/>
<path d="m182.26 857.72v108.88" clip-path="url(#a)"/>
<path d="m276.86 857.72v108.88" clip-path="url(#a)"/>
<path d="m324.15 857.72v108.88" clip-path="url(#a)"/>
<path d="m371.45 857.72v108.88" clip-path="url(#a)"/>
<path d="m418.75 857.72v108.88" clip-path="url(#a)"/>
<path d="m891.72 857.72v108.88" clip-path="url(#a)"/>
<path d="m1080.9 857.72v108.88" clip-path="url(#a)"/>
<path d="m1506.6 857.72v108.88" clip-path="url(#a)"/>
<path d="m1837.7 857.72v108.88" clip-path="url(#a)"/>
</g>
<path d="m796.63 113.43 5.3868 2.6791q2.1489 1.0687 3.2176-1.0802l3.4478-6.9325q1.0687-2.1489-1.0802-3.2176l-5.3868-2.6791q-2.1489-1.0687-3.2176 1.0802l-3.4478 6.9325q-1.0687 2.1489 1.0802 3.2176z" clip-path="url(#a)" fill="#fff" stroke="#fff"/>
<g clip-path="url(#a)">
<defs>
<path id="ao" d="m9.8125 72.906h9.8594v-29.891h35.844v29.891h9.8594v-72.906h-9.8594v34.719h-35.844v-34.719h-9.8594z"/>
</defs>
<g transform="translate(798.44 109.79) rotate(26.443) scale(.08 -.08)">
<use xlink:href="#ao"/>
</g>
</g>
<path d="m576.84 455.96 1.1202-4.3145q0.60312-2.323-1.7199-2.9261l-7.494-1.9457q-2.323-0.60312-2.9261 1.7199l-1.1202 4.3145q-0.60312 2.323 1.7199 2.9261l7.494 1.9457q2.323 0.60312 2.9261-1.7199z" clip-path="url(#a)" fill="#fff" stroke="#fff"/>
<g clip-path="url(#a)">
<defs>
<path id="av" d="m9.8125 72.906h9.8594v-64.609h35.5v-8.2969h-45.359z"/>
</defs>
<g transform="translate(572.9 454.94) rotate(-75.446) scale(.08 -.08)">
<use xlink:href="#av"/>
</g>
</g>
<path d="m671.46 339.61 0.023168 6.0162q0.009242 2.4 2.4092 2.3907l7.7424-0.029815q2.4-0.009242 2.3907-2.4092l-0.023168-6.0162q-0.009242-2.4-2.4092-2.3907l-7.7424 0.029816q-2.4 0.009242-2.3907 2.4092z" clip-path="url(#a)" fill="#fff" stroke="#fff"/>
<g clip-path="url(#a)">
<g transform="translate(675.53 339.59) rotate(89.779) scale(.08 -.08)">
<use xlink:href="#ao"/>
</g>
</g>
<path d="m552.77 456.92 1.7741-5.5798q0.72721-2.2872-1.56-3.0144l-7.3785-2.346q-2.2872-0.72721-3.0144 1.56l-1.7741 5.5798q-0.72721 2.2872 1.56 3.0144l7.3785 2.346q2.2872 0.72721 3.0144-1.56z" clip-path="url(#a)" fill="#fff" stroke="#fff"/>
<g clip-path="url(#a)">
<defs>
<path id="z" d="m8.6875 72.906h9.9219v-44.297q0-11.719 4.2344-16.875 4.25-5.1406 13.781-5.1406 9.4688 0 13.719 5.1406 4.25 5.1562 4.25 16.875v44.297h9.9062v-45.516q0-14.25-7.0625-21.531-7.0469-7.2812-20.812-7.2812-13.828 0-20.891 7.2812-7.0469 7.2812-7.0469 21.531z"/>
</defs>
<g transform="translate(548.89 455.69) rotate(-72.362) scale(.08 -.08)">
<use xlink:href="#z"/>
</g>
</g>
<path d="m777.35 451.01 1.5011 5.6593q0.61532 2.3198 2.9351 1.7045l7.4837-1.9851q2.3198-0.61532 1.7045-2.9351l-1.5011-5.6593q-0.61532-2.3198-2.9351-1.7045l-7.4837 1.9851q-2.3198 0.61532-1.7045 2.9351z" clip-path="url(#a)" fill="#fff" stroke="#fff"/>
<g clip-path="url(#a)">
<g transform="translate(781.28 449.96) rotate(75.144) scale(.08 -.08)">
<use xlink:href="#z"/>
</g>
</g>
<path d="m564.15 411.61 4.1157-2.6337q2.0215-1.2936 0.72792-3.3151l-4.1732-6.5215q-1.2936-2.0215-3.3151-0.72792l-4.1157 2.6337q-2.0215 1.2936-0.72792 3.3151l4.1732 6.5215q1.2936 2.0215 3.3151 0.72792z" clip-path="url(#a)" fill="#fff" stroke="#fff"/>
<g clip-path="url(#a)">
<defs>
<path id="l" d="m-0.29688 72.906h61.672v-8.3125h-25.875v-64.594h-9.9062v64.594h-25.891z"/>
</defs>
<g transform="translate(561.96 408.19) rotate(-32.616) scale(.08 -.08)">
<use xlink:href="#l"/>
</g>
</g>
<path d="m927.01 512.34 0.080086 4.8231q0.039846 2.3997 2.4395 2.3598l7.7414-0.12854q2.3997-0.039846 2.3598-2.4395l-0.080086-4.8231q-0.039846-2.3997-2.4395-2.3598l-7.7414 0.12854q-2.3997 0.039846-2.3598 2.4395z" clip-path="url(#a)" fill="#fff" stroke="#fff"/>
<g clip-path="url(#a)">
<defs>
<path id="ai" d="m19.672 64.797v-27.391h12.406q6.8906 0 10.641 3.5625 3.7656 3.5625 3.7656 10.156 0 6.5469-3.7656 10.109-3.75 3.5625-10.641 3.5625zm-9.8594 8.1094h22.266q12.266 0 18.531-5.5469 6.2812-5.5469 6.2812-16.234 0-10.797-6.2812-16.312-6.2656-5.5156-18.531-5.5156h-12.406v-29.297h-9.8594z"/>
</defs>
<g transform="translate(931.07 512.27) rotate(89.049) scale(.08 -.08)">
<use xlink:href="#ai"/>
</g>
</g>
<path d="m950.49 512.46 0.46639 5.4526q0.20454 2.3913 2.5958 2.1867l7.7143-0.65985q2.3913-0.20454 2.1867-2.5958l-0.46639-5.4526q-0.20454-2.3913-2.5958-2.1867l-7.7143 0.65985q-2.3913 0.20454-2.1867 2.5958z" clip-path="url(#a)" fill="#fff" stroke="#fff"/>
<g clip-path="url(#a)">
<defs>
<path id="q" d="m34.188 63.188-13.391-36.281h26.812zm-5.5781 9.7188h11.188l27.781-72.906h-10.25l-6.6406 18.703h-32.859l-6.6406-18.703h-10.406z"/>
</defs>
<g transform="translate(954.54 512.11) rotate(85.111) scale(.08 -.08)">
<use xlink:href="#q"/>
</g>
</g>
<path d="m974 512.9 0.83541 5.4084q0.36638 2.3719 2.7382 2.0055l7.6518-1.1819q2.3719-0.36638 2.0055-2.7382l-0.83541-5.4084q-0.36638-2.3719-2.7382-2.0055l-7.6518 1.1819q-2.3719 0.36638-2.0055 2.7382z" clip-path="url(#a)" fill="#fff" stroke="#fff"/>
<g clip-path="url(#a)">
<g transform="translate(978.02 512.28) rotate(81.219) scale(.08 -.08)">
<use xlink:href="#q"/>
</g>
</g>
<path d="m1123.3 237.42 5.2374 1.5869q2.2969 0.69594 2.9928-1.6009l2.2451-7.4098q0.69594-2.2969-1.6009-2.9928l-5.2374-1.5869q-2.2969-0.69594-2.9928 1.6009l-2.2451 7.4098q-0.69594 2.2969 1.6009 2.9928z" clip-path="url(#a)" fill="#fff" stroke="#fff"/>
<g clip-path="url(#a)">
<g transform="translate(1124.5 233.53) rotate(16.857) scale(.08 -.08)">
<use xlink:href="#q"/>
</g>
</g>
<path d="m997.51 513.16 1.2765 5.7141q0.52326 2.3423 2.8655 1.819l7.5562-1.688q2.3423-0.52326 1.819-2.8655l-1.2765-5.7141q-0.52326-2.3423-2.8655-1.819l-7.5562 1.688q-2.3423 0.52326-1.819 2.8655z" clip-path="url(#a)" fill="#fff" stroke="#fff"/>
<g clip-path="url(#a)">
<g transform="translate(1001.5 512.27) rotate(77.407) scale(.08 -.08)">
<use xlink:href="#z"/>
</g>
</g>
<path d="m459.77 894.52v35.285q0 2.4 2.4 2.4h7.7425q2.4 0 2.4-2.4v-35.285q0-2.4-2.4-2.4h-7.7425q-2.4 0-2.4 2.4z" clip-path="url(#a)" fill="#fff" stroke="#fff"/>
<g clip-path="url(#a)">
<defs>
<path id="d" d="m56.203 29.594v-4.3906h-41.312q0.59375-9.2812 5.5938-14.141t13.938-4.8594q5.1719 0 10.031 1.2656t9.6562 3.8125v-8.5q-4.8438-2.0469-9.9219-3.125t-10.297-1.0781q-13.094 0-20.734 7.6094-7.6406 7.625-7.6406 20.625 0 13.422 7.25 21.297 7.25 7.8906 19.562 7.8906 11.031 0 17.453-7.1094 6.4219-7.0938 6.4219-19.297zm-8.9844 2.6406q-0.09375 7.3594-4.125 11.75-4.0312 4.4062-10.672 4.4062-7.5156 0-12.031-4.25t-5.2031-11.969z"/>
<path id="g" d="m41.109 46.297q-1.5156 0.875-3.2969 1.2812-1.7812 0.42188-3.9219 0.42188-7.625 0-11.703-4.9531t-4.0781-14.234v-28.812h-9.0312v54.688h9.0312v-8.5q2.8438 4.9844 7.375 7.3906 4.5469 2.4219 11.047 2.4219 0.92188 0 2.0469-0.125 1.125-0.10938 2.4844-0.35938z"/>
<path id="j" d="m52 44.188q3.375 6.0625 8.0625 8.9375t11.031 2.875q8.5469 0 13.188-5.9844 4.6406-5.9688 4.6406-17v-33.016h-9.0312v32.719q0 7.8594-2.7969 11.656-2.7812 3.8125-8.4844 3.8125-6.9844 0-11.047-4.6406-4.0469-4.625-4.0469-12.641v-30.906h-9.0312v32.719q0 7.9062-2.7812 11.688t-8.5938 3.7812q-6.8906 0-10.953-4.6562-4.0469-4.6562-4.0469-12.625v-30.906h-9.0312v54.688h9.0312v-8.5q3.0781 5.0312 7.375 7.4219t10.203 2.3906q5.9688 0 10.141-3.0312 4.1719-3.0156 6.1719-8.7812z"/>
<path id="f" d="m9.4219 54.688h8.9844v-54.688h-8.9844zm0 21.297h8.9844v-11.391h-8.9844z"/>
<path id="i" d="m54.891 33.016v-33.016h-8.9844v32.719q0 7.7656-3.0312 11.609-3.0312 3.8594-9.0781 3.8594-7.2812 0-11.484-4.6406-4.2031-4.625-4.2031-12.641v-30.906h-9.0312v54.688h9.0312v-8.5q3.2344 4.9375 7.5938 7.375 4.375 2.4375 10.094 2.4375 9.4219 0 14.25-5.8281 4.8438-5.8281 4.8438-17.156z"/>
<path id="h" d="m34.281 27.484q-10.891 0-15.094-2.4844t-4.2031-8.5q0-4.7812 3.1562-7.5938 3.1562-2.7969 8.5625-2.7969 7.4844 0 12 5.2969t4.5156 14.078v2zm17.922 3.7188v-31.203h-8.9844v8.2969q-3.0781-4.9688-7.6719-7.3438t-11.234-2.375q-8.3906 0-13.359 4.7188-4.9531 4.7188-4.9531 12.625 0 9.2188 6.1719 13.906 6.1875 4.6875 18.438 4.6875h12.609v0.89062q0 6.2031-4.0781 9.5938t-11.453 3.3906q-4.6875 0-9.1406-1.125-4.4375-1.125-8.5312-3.375v8.3125q4.9219 1.9062 9.5625 2.8438 4.6406 0.95312 9.0312 0.95312 11.875 0 17.734-6.1562 5.8594-6.1406 5.8594-18.641z"/>
<path id="k" d="m9.4219 75.984h8.9844v-75.984h-8.9844z"/>
</defs>
<g transform="translate(463.84 894.52) rotate(90) scale(.08 -.08)">
<use xlink:href="#l"/>
<use x="60.818359" xlink:href="#d"/>
<use x="122.341797" xlink:href="#g"/>
<use x="163.439453" xlink:href="#j"/>
<use x="260.851562" xlink:href="#f"/>
<use x="288.634766" xlink:href="#i"/>
<use x="352.013672" xlink:href="#h"/>
<use x="413.292969" xlink:href="#k"/>
</g>
</g>
<path d="m599.47 754.05 3.2973-4.3676q1.4461-1.9154-0.46936-3.3615l-6.1793-4.6651q-1.9154-1.4461-3.3615 0.46936l-3.2973 4.3676q-1.4461 1.9154 0.46936 3.3615l6.1793 4.6651q1.9154 1.4461 3.3615-0.46936z" clip-path="url(#a)" fill="#fff" stroke="#fff"/>
<g clip-path="url(#a)">
<g transform="translate(596.23 751.6) rotate(-52.949) scale(.08 -.08)">
<use xlink:href="#q"/>
</g>
</g>
<path d="m647.21 699.34 2.9587-4.6037q1.2976-2.019-0.72145-3.3166l-6.5134-4.1859q-2.019-1.2976-3.3166 0.72145l-2.9587 4.6037q-1.2976 2.019 0.72145 3.3166l6.5134 4.186q2.019 1.2975 3.3166-0.72145z" clip-path="url(#a)" fill="#fff" stroke="#fff"/>
<g clip-path="url(#a)">
<g transform="translate(643.79 697.15) rotate(-57.272) scale(.08 -.08)">
<use xlink:href="#q"/>
</g>
</g>
<path d="m707.6 694.74 2.9587 4.6037q1.2976 2.019 3.3166 0.72145l6.5134-4.186q2.019-1.2976 0.72145-3.3166l-2.9587-4.6037q-1.2976-2.019-3.3166-0.72145l-6.5134 4.1859q-2.019 1.2976-0.72145 3.3166z" clip-path="url(#a)" fill="#fff" stroke="#fff"/>
<g clip-path="url(#a)">
<g transform="translate(711.02 692.54) rotate(57.272) scale(.08 -.08)">
<use xlink:href="#q"/>
</g>
</g>
<path d="m755.2 749.94 2.9065 3.8498q1.4461 1.9154 3.3615 0.46936l6.1793-4.6651q1.9154-1.4461 0.46936-3.3615l-2.9065-3.8498q-1.4461-1.9154-3.3615-0.46936l-6.1793 4.6651q-1.9154 1.4461-0.46936 3.3615z" clip-path="url(#a)" fill="#fff" stroke="#fff"/>
<g clip-path="url(#a)">
<g transform="translate(758.44 747.5) rotate(52.949) scale(.08 -.08)">
<use xlink:href="#ai"/>
</g>
</g>
<path d="m507.07 894.52v35.285q0 2.4 2.4 2.4h7.7425q2.4 0 2.4-2.4v-35.285q0-2.4-2.4-2.4h-7.7425q-2.4 0-2.4 2.4z" clip-path="url(#a)" fill="#fff" stroke="#fff"/>
<g clip-path="url(#a)">
<g transform="translate(511.14 894.52) rotate(90) scale(.08 -.08)">
<use xlink:href="#l"/>
<use x="60.818359" xlink:href="#d"/>
<use x="122.341797" xlink:href="#g"/>
<use x="163.439453" xlink:href="#j"/>
<use x="260.851562" xlink:href="#f"/>
<use x="288.634766" xlink:href="#i"/>
<use x="352.013672" xlink:href="#h"/>
<use x="413.292969" xlink:href="#k"/>
</g>
</g>
<path d="m588.93 808.33 2.2148-5.0985q0.95625-2.2013-1.245-3.1575l-7.1014-3.0849q-2.2013-0.95625-3.1575 1.245l-2.2148 5.0985q-0.95625 2.2013 1.245 3.1575l7.1014 3.0849q2.2013 0.95625 3.1575-1.245z" clip-path="url(#a)" fill="#fff" stroke="#fff"/>
<g clip-path="url(#a)">
<defs>
<path id="v" d="m44.391 34.188q3.1719-1.0781 6.1719-4.5938t6.0312-9.6719l10.016-19.922h-10.609l-9.3125 18.703q-3.625 7.3281-7.0156 9.7188t-9.25 2.3906h-10.75v-30.812h-9.8594v72.906h22.266q12.5 0 18.656-5.2344 6.1562-5.2188 6.1562-15.766 0-6.8906-3.2031-11.438-3.2031-4.5312-9.2969-6.2812zm-24.719 30.609v-25.875h12.406q7.125 0 10.766 3.2969t3.6406 9.6875-3.6406 9.6406-10.766 3.25z"/>
</defs>
<g transform="translate(585.21 806.71) rotate(-66.52) scale(.08 -.08)">
<use xlink:href="#v"/>
</g>
</g>
<path d="m601.67 800.76v5.055q0 2.4 2.4 2.4h7.7425q2.4 0 2.4-2.4v-5.055q0-2.4-2.4-2.4h-7.7425q-2.4 0-2.4 2.4z" clip-path="url(#a)" fill="#fff" stroke="#fff"/>
<g clip-path="url(#a)">
<defs>
<path id="r" d="m9.8125 72.906h46.094v-8.3125h-36.234v-21.578h34.719v-8.2969h-34.719v-26.422h37.109v-8.2969h-46.969z"/>
</defs>
<g transform="translate(605.73 800.76) rotate(90) scale(.08 -.08)">
<use xlink:href="#r"/>
</g>
</g>
<path d="m624.72 803.22 2.2258 5.1237q0.95625 2.2013 3.1575 1.245l7.1014-3.0849q2.2013-0.95625 1.245-3.1575l-2.2258-5.1237q-0.95625-2.2013-3.1575-1.245l-7.1014 3.0849q-2.2013 0.95625-1.245 3.1575z" clip-path="url(#a)" fill="#fff" stroke="#fff"/>
<g clip-path="url(#a)">
<defs>
<path id="w" d="m64.406 67.281v-10.391q-4.9844 4.6406-10.625 6.9219-5.6406 2.2969-11.984 2.2969-12.5 0-19.141-7.6406t-6.6406-22.094q0-14.406 6.6406-22.047t19.141-7.6406q6.3438 0 11.984 2.2969t10.625 6.9375v-10.312q-5.1719-3.5156-10.969-5.2812-5.7812-1.75-12.219-1.75-16.562 0-26.094 10.125-9.5156 10.141-9.5156 27.672 0 17.578 9.5156 27.703 9.5312 10.141 26.094 10.141 6.5312 0 12.312-1.7344 5.7969-1.7344 10.875-5.2031z"/>
</defs>
<g transform="translate(628.45 801.6) rotate(66.52) scale(.08 -.08)">
<use xlink:href="#w"/>
</g>
</g>
<path d="m730.83 808.33 2.2148-5.0985q0.95625-2.2013-1.245-3.1575l-7.1014-3.0849q-2.2013-0.95625-3.1575 1.245l-2.2148 5.0985q-0.95625 2.2013 1.245 3.1575l7.1014 3.0849q2.2013 0.95625 3.1575-1.245z" clip-path="url(#a)" fill="#fff" stroke="#fff"/>
<g clip-path="url(#a)">
<g transform="translate(727.1 806.71) rotate(-66.52) scale(.08 -.08)">
<use xlink:href="#v"/>
</g>
</g>
<path d="m743.56 800.76v5.055q0 2.4 2.4 2.4h7.7425q2.4 0 2.4-2.4v-5.055q0-2.4-2.4-2.4h-7.7425q-2.4 0-2.4 2.4z" clip-path="url(#a)" fill="#fff" stroke="#fff"/>
<g clip-path="url(#a)">
<g transform="translate(747.62 800.76) rotate(90) scale(.08 -.08)">
<use xlink:href="#r"/>
</g>
</g>
<path d="m766.61 803.22 2.2258 5.1237q0.95625 2.2013 3.1575 1.245l7.1014-3.0849q2.2013-0.95625 1.245-3.1575l-2.2258-5.1237q-0.95625-2.2013-3.1575-1.245l-7.1014 3.0849q-2.2013 0.95625-1.245 3.1575z" clip-path="url(#a)" fill="#fff" stroke="#fff"/>
<g clip-path="url(#a)">
<g transform="translate(770.34 801.6) rotate(66.52) scale(.08 -.08)">
<use xlink:href="#w"/>
</g>
</g>
<path d="m838.15 894.52v35.285q0 2.4 2.4 2.4h7.7425q2.4 0 2.4-2.4v-35.285q0-2.4-2.4-2.4h-7.7425q-2.4 0-2.4 2.4z" clip-path="url(#a)" fill="#fff" stroke="#fff"/>
<g clip-path="url(#a)">
<g transform="translate(842.22 894.52) rotate(90) scale(.08 -.08)">
<use xlink:href="#l"/>
<use x="60.818359" xlink:href="#d"/>
<use x="122.341797" xlink:href="#g"/>
<use x="163.439453" xlink:href="#j"/>
<use x="260.851562" xlink:href="#f"/>
<use x="288.634766" xlink:href="#i"/>
<use x="352.013672" xlink:href="#h"/>
<use x="413.292969" xlink:href="#k"/>
</g>
</g>
<path d="m696.26 894.52v35.285q0 2.4 2.4 2.4h7.7425q2.4 0 2.4-2.4v-35.285q0-2.4-2.4-2.4h-7.7425q-2.4 0-2.4 2.4z" clip-path="url(#a)" fill="#fff" stroke="#fff"/>
<g clip-path="url(#a)">
<g transform="translate(700.32 894.52) rotate(90) scale(.08 -.08)">
<use xlink:href="#l"/>
<use x="60.818359" xlink:href="#d"/>
<use x="122.341797" xlink:href="#g"/>
<use x="163.439453" xlink:href="#j"/>
<use x="260.851562" xlink:href="#f"/>
<use x="288.634766" xlink:href="#i"/>
<use x="352.013672" xlink:href="#h"/>
<use x="413.292969" xlink:href="#k"/>
</g>
</g>
<path d="m743.56 894.52v35.285q0 2.4 2.4 2.4h7.7425q2.4 0 2.4-2.4v-35.285q0-2.4-2.4-2.4h-7.7425q-2.4 0-2.4 2.4z" clip-path="url(#a)" fill="#fff" stroke="#fff"/>
<g clip-path="url(#a)">
<g transform="translate(747.62 894.52) rotate(90) scale(.08 -.08)">
<use xlink:href="#l"/>
<use x="60.818359" xlink:href="#d"/>
<use x="122.341797" xlink:href="#g"/>
<use x="163.439453" xlink:href="#j"/>
<use x="260.851562" xlink:href="#f"/>
<use x="288.634766" xlink:href="#i"/>
<use x="352.013672" xlink:href="#h"/>
<use x="413.292969" xlink:href="#k"/>
</g>
</g>
<path d="m790.86 894.52v35.285q0 2.4 2.4 2.4h7.7425q2.4 0 2.4-2.4v-35.285q0-2.4-2.4-2.4h-7.7425q-2.4 0-2.4 2.4z" clip-path="url(#a)" fill="#fff" stroke="#fff"/>
<g clip-path="url(#a)">
<g transform="translate(794.92 894.52) rotate(90) scale(.08 -.08)">
<use xlink:href="#l"/>
<use x="60.818359" xlink:href="#d"/>
<use x="122.341797" xlink:href="#g"/>
<use x="163.439453" xlink:href="#j"/>
<use x="260.851562" xlink:href="#f"/>
<use x="288.634766" xlink:href="#i"/>
<use x="352.013672" xlink:href="#h"/>
<use x="413.292969" xlink:href="#k"/>
</g>
</g>
<path d="m554.37 894.52v35.285q0 2.4 2.4 2.4h7.7425q2.4 0 2.4-2.4v-35.285q0-2.4-2.4-2.4h-7.7425q-2.4 0-2.4 2.4z" clip-path="url(#a)" fill="#fff" stroke="#fff"/>
<g clip-path="url(#a)">
<g transform="translate(558.43 894.52) rotate(90) scale(.08 -.08)">
<use xlink:href="#l"/>
<use x="60.818359" xlink:href="#d"/>
<use x="122.341797" xlink:href="#g"/>
<use x="163.439453" xlink:href="#j"/>
<use x="260.851562" xlink:href="#f"/>
<use x="288.634766" xlink:href="#i"/>
<use x="352.013672" xlink:href="#h"/>
<use x="413.292969" xlink:href="#k"/>
</g>
</g>
<path d="m601.67 894.52v35.285q0 2.4 2.4 2.4h7.7425q2.4 0 2.4-2.4v-35.285q0-2.4-2.4-2.4h-7.7425q-2.4 0-2.4 2.4z" clip-path="url(#a)" fill="#fff" stroke="#fff"/>
<g clip-path="url(#a)">
<g transform="translate(605.73 894.52) rotate(90) scale(.08 -.08)">
<use xlink:href="#l"/>
<use x="60.818359" xlink:href="#d"/>
<use x="122.341797" xlink:href="#g"/>
<use x="163.439453" xlink:href="#j"/>
<use x="260.851562" xlink:href="#f"/>
<use x="288.634766" xlink:href="#i"/>
<use x="352.013672" xlink:href="#h"/>
<use x="413.292969" xlink:href="#k"/>
</g>
</g>
<path d="m648.96 894.52v35.285q0 2.4 2.4 2.4h7.7425q2.4 0 2.4-2.4v-35.285q0-2.4-2.4-2.4h-7.7425q-2.4 0-2.4 2.4z" clip-path="url(#a)" fill="#fff" stroke="#fff"/>
<g clip-path="url(#a)">
<g transform="translate(653.03 894.52) rotate(90) scale(.08 -.08)">
<use xlink:href="#l"/>
<use x="60.818359" xlink:href="#d"/>
<use x="122.341797" xlink:href="#g"/>
<use x="163.439453" xlink:href="#j"/>
<use x="260.851562" xlink:href="#f"/>
<use x="288.634766" xlink:href="#i"/>
<use x="352.013672" xlink:href="#h"/>
<use x="413.292969" xlink:href="#k"/>
</g>
</g>
<path d="m147.2 753.39 2.4991-4.9653q1.079-2.1438-1.0648-3.2228l-6.9159-3.4808q-2.1438-1.079-3.2228 1.0648l-2.4991 4.9653q-1.079 2.1438 1.0648 3.2228l6.9159 3.4808q2.1438 1.079 3.2228-1.0648z" clip-path="url(#a)" fill="#fff" stroke="#fff"/>
<g clip-path="url(#a)">
<g transform="translate(143.57 751.56) rotate(-63.284) scale(.08 -.08)">
<use xlink:href="#v"/>
</g>
</g>
<path d="m195.96 697.3 0.78979-5.5301q0.33931-2.3759-2.0366-2.7152l-7.6647-1.0946q-2.3759-0.33931-2.7152 2.0366l-0.78979 5.5301q-0.33931 2.3759 2.0366 2.7152l7.6647 1.0946q2.3759 0.33931 2.7152-2.0366z" clip-path="url(#a)" fill="#fff" stroke="#fff"/>
<g clip-path="url(#a)">
<g transform="translate(191.94 696.73) rotate(-81.872) scale(.08 -.08)">
<use xlink:href="#w"/>
</g>
</g>
<path d="m255.06 696.71 3.8038 3.3293q1.806 1.5807 3.3866-0.22528l5.0993-5.8261q1.5807-1.806-0.22528-3.3866l-3.8038-3.3293q-1.806-1.5807-3.3866 0.22528l-5.0993 5.8261q-1.5807 1.806 0.22528 3.3866z" clip-path="url(#a)" fill="#fff" stroke="#fff"/>
<g clip-path="url(#a)">
<g transform="translate(257.74 693.65) rotate(41.194) scale(.08 -.08)">
<use xlink:href="#r"/>
</g>
</g>
<path d="m932.75 894.52v35.285q0 2.4 2.4 2.4h7.7425q2.4 0 2.4-2.4v-35.285q0-2.4-2.4-2.4h-7.7425q-2.4 0-2.4 2.4z" clip-path="url(#a)" fill="#fff" stroke="#fff"/>
<g clip-path="url(#a)">
<g transform="translate(936.81 894.52) rotate(90) scale(.08 -.08)">
<use xlink:href="#l"/>
<use x="60.818359" xlink:href="#d"/>
<use x="122.341797" xlink:href="#g"/>
<use x="163.439453" xlink:href="#j"/>
<use x="260.851562" xlink:href="#f"/>
<use x="288.634766" xlink:href="#i"/>
<use x="352.013672" xlink:href="#h"/>
<use x="413.292969" xlink:href="#k"/>
</g>
</g>
<path d="m980.04 894.52v35.285q0 2.4 2.4 2.4h7.7425q2.4 0 2.4-2.4v-35.285q0-2.4-2.4-2.4h-7.7425q-2.4 0-2.4 2.4z" clip-path="url(#a)" fill="#fff" stroke="#fff"/>
<g clip-path="url(#a)">
<g transform="translate(984.11 894.52) rotate(90) scale(.08 -.08)">
<use xlink:href="#l"/>
<use x="60.818359" xlink:href="#d"/>
<use x="122.341797" xlink:href="#g"/>
<use x="163.439453" xlink:href="#j"/>
<use x="260.851562" xlink:href="#f"/>
<use x="288.634766" xlink:href="#i"/>
<use x="352.013672" xlink:href="#h"/>
<use x="413.292969" xlink:href="#k"/>
</g>
</g>
<path d="m1027.3 894.52v35.285q0 2.4 2.4 2.4h7.7425q2.4 0 2.4-2.4v-35.285q0-2.4-2.4-2.4h-7.7425q-2.4 0-2.4 2.4z" clip-path="url(#a)" fill="#fff" stroke="#fff"/>
<g clip-path="url(#a)">
<g transform="translate(1031.4 894.52) rotate(90) scale(.08 -.08)">
<use xlink:href="#l"/>
<use x="60.818359" xlink:href="#d"/>
<use x="122.341797" xlink:href="#g"/>
<use x="163.439453" xlink:href="#j"/>
<use x="260.851562" xlink:href="#f"/>
<use x="288.634766" xlink:href="#i"/>
<use x="352.013672" xlink:href="#h"/>
<use x="413.292969" xlink:href="#k"/>
</g>
</g>
<path d="m1233 579.99 1.8524-5.241q0.79979-2.2628-1.463-3.0626l-7.2999-2.5802q-2.2628-0.79979-3.0626 1.463l-1.8524 5.241q-0.79979 2.2628 1.463 3.0626l7.2999 2.5802q2.2628 0.79979 3.0626-1.463z" clip-path="url(#a)" fill="#fff" stroke="#fff"/>
<g clip-path="url(#a)">
<g transform="translate(1229.2 578.64) rotate(-70.534) scale(.08 -.08)">
<use xlink:href="#v"/>
</g>
</g>
<path d="m1257 579.56 1.4251-5.2837q0.625-2.3172-1.6922-2.9422l-7.4754-2.0163q-2.3172-0.625-2.9422 1.6922l-1.4251 5.2837q-0.62499 2.3172 1.6922 2.9422l7.4754 2.0163q2.3172 0.62499 2.9422-1.6922z" clip-path="url(#a)" fill="#fff" stroke="#fff"/>
<g clip-path="url(#a)">
<g transform="translate(1253.1 578.5) rotate(-74.905) scale(.08 -.08)">
<use xlink:href="#q"/>
</g>
</g>
<path d="m1342 351.37 1.83 5.1575q0.80256 2.2618 3.0644 1.4593l7.2968-2.5891q2.2618-0.80256 1.4593-3.0644l-1.83-5.1575q-0.80256-2.2618-3.0644-1.4593l-7.2968 2.5891q-2.2618 0.80256-1.4593 3.0644z" clip-path="url(#a)" fill="#fff" stroke="#fff"/>
<g clip-path="url(#a)">
<g transform="translate(1345.8 350.01) rotate(70.464) scale(.08 -.08)">
<use xlink:href="#q"/>
</g>
</g>
<path d="m1386.9 574.23 1.1509 4.9466q0.54385 2.3376 2.8814 1.7937l7.5411-1.7545q2.3376-0.54385 1.7937-2.8814l-1.1509-4.9466q-0.54385-2.3376-2.8814-1.7937l-7.5411 1.7545q-2.3376 0.54385-1.7937 2.8814z" clip-path="url(#a)" fill="#fff" stroke="#fff"/>
<g clip-path="url(#a)">
<defs>
<path id="an" d="m53.516 70.516v-9.625q-5.6094 2.6875-10.594 4-4.9844 1.3281-9.625 1.3281-8.0469 0-12.422-3.125t-4.375-8.8906q0-4.8438 2.9062-7.3125 2.9062-2.4531 11.016-3.9688l5.9531-1.2188q11.031-2.1094 16.281-7.4062t5.25-14.172q0-10.609-7.1094-16.078-7.0938-5.4688-20.812-5.4688-5.1719 0-11.016 1.1719-5.8281 1.1719-12.078 3.4688v10.156q6-3.3594 11.766-5.0781 5.7656-1.7031 11.328-1.7031 8.4375 0 13.031 3.3125 4.5938 3.3281 4.5938 9.4844 0 5.3594-3.2969 8.3906t-10.812 4.5469l-6.0156 1.1719q-11.031 2.1875-15.969 6.875-4.9219 4.6875-4.9219 13.047 0 9.6719 6.8125 15.234t18.766 5.5625q5.1406 0 10.453-0.9375 5.3281-0.92188 10.891-2.7656z"/>
</defs>
<g transform="translate(1390.9 573.31) rotate(76.903) scale(.08 -.08)">
<use xlink:href="#an"/>
</g>
</g>
<path d="m1410.4 574.38 1.7662 5.5823q0.72396 2.2882 3.0122 1.5642l7.3818-2.3355q2.2882-0.72396 1.5643-3.0122l-1.7662-5.5823q-0.72396-2.2882-3.0122-1.5643l-7.3818 2.3355q-2.2882 0.72396-1.5643 3.0122z" clip-path="url(#a)" fill="#fff" stroke="#fff"/>
<g clip-path="url(#a)">
<g transform="translate(1414.2 573.16) rotate(72.443) scale(.08 -.08)">
<use xlink:href="#z"/>
</g>
</g>
<path d="m1121.9 894.52v35.285q0 2.4 2.4 2.4h7.7425q2.4 0 2.4-2.4v-35.285q0-2.4-2.4-2.4h-7.7425q-2.4 0-2.4 2.4z" clip-path="url(#a)" fill="#fff" stroke="#fff"/>
<g clip-path="url(#a)">
<g transform="translate(1126 894.52) rotate(90) scale(.08 -.08)">
<use xlink:href="#l"/>
<use x="60.818359" xlink:href="#d"/>
<use x="122.341797" xlink:href="#g"/>
<use x="163.439453" xlink:href="#j"/>
<use x="260.851562" xlink:href="#f"/>
<use x="288.634766" xlink:href="#i"/>
<use x="352.013672" xlink:href="#h"/>
<use x="413.292969" xlink:href="#k"/>
</g>
</g>
<path d="m1169.2 894.52v35.285q0 2.4 2.4 2.4h7.7425q2.4 0 2.4-2.4v-35.285q0-2.4-2.4-2.4h-7.7425q-2.4 0-2.4 2.4z" clip-path="url(#a)" fill="#fff" stroke="#fff"/>
<g clip-path="url(#a)">
<g transform="translate(1173.3 894.52) rotate(90) scale(.08 -.08)">
<use xlink:href="#l"/>
<use x="60.818359" xlink:href="#d"/>
<use x="122.341797" xlink:href="#g"/>
<use x="163.439453" xlink:href="#j"/>
<use x="260.851562" xlink:href="#f"/>
<use x="288.634766" xlink:href="#i"/>
<use x="352.013672" xlink:href="#h"/>
<use x="413.292969" xlink:href="#k"/>
</g>
</g>
<path d="m1301.4 638.65 1.579-4.8021q0.74966-2.2799-1.5302-3.0296l-7.3551-2.4184q-2.2799-0.74966-3.0296 1.5302l-1.579 4.8021q-0.74966 2.2799 1.5302 3.0296l7.3551 2.4184q2.2799 0.74966 3.0296-1.5302z" clip-path="url(#a)" fill="#fff" stroke="#fff"/>
<g clip-path="url(#a)">
<g transform="translate(1297.6 637.38) rotate(-71.798) scale(.08 -.08)">
<use xlink:href="#r"/>
</g>
</g>
<path d="m1325.5 638.12 1.1001-4.9338q0.52231-2.3425-1.8202-2.8648l-7.5569-1.685q-2.3425-0.52231-2.8648 1.8202l-1.1001 4.9338q-0.52231 2.3425 1.8202 2.8648l7.5569 1.685q2.3425 0.52231 2.8648-1.8202z" clip-path="url(#a)" fill="#fff" stroke="#fff"/>
<g clip-path="url(#a)">
<g transform="translate(1321.5 637.24) rotate(-77.43) scale(.08 -.08)">
<use xlink:href="#r"/>
</g>
</g>
<path d="m1349.5 637.79 0.64988-5.5483q0.2792-2.3837-2.1045-2.6629l-7.6899-0.90073q-2.3837-0.2792-2.6629 2.1045l-0.64988 5.5483q-0.2792 2.3837 2.1045 2.6629l7.6899 0.90073q2.3837 0.2792 2.6629-2.1045z" clip-path="url(#a)" fill="#fff" stroke="#fff"/>
<g clip-path="url(#a)">
<g transform="translate(1345.4 637.32) rotate(-83.319) scale(.08 -.08)">
<use xlink:href="#w"/>
</g>
</g>
<path d="m1372.6 577.67 0.27781 5.0474q0.1319 2.3964 2.5283 2.2645l7.7308-0.42551q2.3964-0.1319 2.2645-2.5283l-0.27781-5.0474q-0.1319-2.3964-2.5283-2.2645l-7.7308 0.42551q-2.3964 0.1319-2.2645 2.5283z" clip-path="url(#a)" fill="#fff" stroke="#fff"/>
<g clip-path="url(#a)">
<g transform="translate(1376.7 577.45) rotate(86.85) scale(.08 -.08)">
<use xlink:href="#r"/>
</g>
</g>
<path d="m1505.2 473.24 4.6763 1.9198q2.2202 0.91148 3.1317-1.3087l2.9405-7.1624q0.91148-2.2202-1.3087-3.1317l-4.6763-1.9198q-2.2202-0.91148-3.1317 1.3087l-2.9405 7.1624q-0.91148 2.2202 1.3087 3.1317z" clip-path="url(#a)" fill="#fff" stroke="#fff"/>
<g clip-path="url(#a)">
<g transform="translate(1506.7 469.48) rotate(22.32) scale(.08 -.08)">
<use xlink:href="#r"/>
</g>
</g>
<path d="m1453 894.52v35.285q0 2.4 2.4 2.4h7.7425q2.4 0 2.4-2.4v-35.285q0-2.4-2.4-2.4h-7.7425q-2.4 0-2.4 2.4z" clip-path="url(#a)" fill="#fff" stroke="#fff"/>
<g clip-path="url(#a)">
<g transform="translate(1457.1 894.52) rotate(90) scale(.08 -.08)">
<use xlink:href="#l"/>
<use x="60.818359" xlink:href="#d"/>
<use x="122.341797" xlink:href="#g"/>
<use x="163.439453" xlink:href="#j"/>
<use x="260.851562" xlink:href="#f"/>
<use x="288.634766" xlink:href="#i"/>
<use x="352.013672" xlink:href="#h"/>
<use x="413.292969" xlink:href="#k"/>
</g>
</g>
<path d="m1216.5 894.52v35.285q0 2.4 2.4 2.4h7.7425q2.4 0 2.4-2.4v-35.285q0-2.4-2.4-2.4h-7.7425q-2.4 0-2.4 2.4z" clip-path="url(#a)" fill="#fff" stroke="#fff"/>
<g clip-path="url(#a)">
<g transform="translate(1220.6 894.52) rotate(90) scale(.08 -.08)">
<use xlink:href="#l"/>
<use x="60.818359" xlink:href="#d"/>
<use x="122.341797" xlink:href="#g"/>
<use x="163.439453" xlink:href="#j"/>
<use x="260.851562" xlink:href="#f"/>
<use x="288.634766" xlink:href="#i"/>
<use x="352.013672" xlink:href="#h"/>
<use x="413.292969" xlink:href="#k"/>
</g>
</g>
<path d="m1263.8 894.52v35.285q0 2.4 2.4 2.4h7.7425q2.4 0 2.4-2.4v-35.285q0-2.4-2.4-2.4h-7.7425q-2.4 0-2.4 2.4z" clip-path="url(#a)" fill="#fff" stroke="#fff"/>
<g clip-path="url(#a)">
<g transform="translate(1267.9 894.52) rotate(90) scale(.08 -.08)">
<use xlink:href="#l"/>
<use x="60.818359" xlink:href="#d"/>
<use x="122.341797" xlink:href="#g"/>
<use x="163.439453" xlink:href="#j"/>
<use x="260.851562" xlink:href="#f"/>
<use x="288.634766" xlink:href="#i"/>
<use x="352.013672" xlink:href="#h"/>
<use x="413.292969" xlink:href="#k"/>
</g>
</g>
<path d="m1311.1 894.52v35.285q0 2.4 2.4 2.4h7.7425q2.4 0 2.4-2.4v-35.285q0-2.4-2.4-2.4h-7.7425q-2.4 0-2.4 2.4z" clip-path="url(#a)" fill="#fff" stroke="#fff"/>
<g clip-path="url(#a)">
<g transform="translate(1315.2 894.52) rotate(90) scale(.08 -.08)">
<use xlink:href="#l"/>
<use x="60.818359" xlink:href="#d"/>
<use x="122.341797" xlink:href="#g"/>
<use x="163.439453" xlink:href="#j"/>
<use x="260.851562" xlink:href="#f"/>
<use x="288.634766" xlink:href="#i"/>
<use x="352.013672" xlink:href="#h"/>
<use x="413.292969" xlink:href="#k"/>
</g>
</g>
<path d="m1382.1 807.33 1.1799-5.4321q0.50941-2.3453-1.8359-2.8547l-7.5661-1.6434q-2.3453-0.50941-2.8547 1.8359l-1.1799 5.4321q-0.50941 2.3453 1.8359 2.8547l7.5661 1.6434q2.3453 0.50941 2.8547-1.8359z" clip-path="url(#a)" fill="#fff" stroke="#fff"/>
<g clip-path="url(#a)">
<g transform="translate(1378.1 806.47) rotate(-77.746) scale(.08 -.08)">
<use xlink:href="#v"/>
</g>
</g>
<path d="m1393.4 801.89 1.1857 5.459q0.50941 2.3453 2.8547 1.8359l7.5661-1.6434q2.3453-0.50941 1.8359-2.8547l-1.1857-5.459q-0.50941-2.3453-2.8547-1.8359l-7.5661 1.6434q-2.3453 0.50941-1.8359 2.8547z" clip-path="url(#a)" fill="#fff" stroke="#fff"/>
<g clip-path="url(#a)">
<g transform="translate(1397.4 801.03) rotate(77.746) scale(.08 -.08)">
<use xlink:href="#w"/>
</g>
</g>
<path d="m1607.2 696.25 1.5475-5.339q0.66815-2.3051-1.637-2.9733l-7.4364-2.1555q-2.3051-0.66815-2.9733 1.637l-1.5475 5.339q-0.66815 2.3051 1.637 2.9733l7.4364 2.1555q2.3051 0.66815 2.9733-1.637z" clip-path="url(#a)" fill="#fff" stroke="#fff"/>
<g clip-path="url(#a)">
<g transform="translate(1603.3 695.11) rotate(-73.835) scale(.08 -.08)">
<use xlink:href="#v"/>
</g>
</g>
<path d="m1646.8 579.81 0.30624 5.4639q0.1343 2.3962 2.5305 2.2619l7.7304-0.43326q2.3962-0.1343 2.2619-2.5305l-0.30624-5.4639q-0.1343-2.3962-2.5305-2.2619l-7.7304 0.43326q-2.3962 0.1343-2.2619 2.5305z" clip-path="url(#a)" fill="#fff" stroke="#fff"/>
<g clip-path="url(#a)">
<g transform="translate(1650.8 579.59) rotate(86.792) scale(.08 -.08)">
<use xlink:href="#q"/>
</g>
</g>
<path d="m1713.4 691.93 1.9782 4.6776q0.93482 2.2105 3.1453 1.2756l7.131-3.0158q2.2105-0.93482 1.2756-3.1453l-1.9782-4.6776q-0.93481-2.2105-3.1453-1.2756l-7.131 3.0158q-2.2105 0.93482-1.2756 3.1453z" clip-path="url(#a)" fill="#fff" stroke="#fff"/>
<g clip-path="url(#a)">
<g transform="translate(1717.2 690.35) rotate(67.076) scale(.08 -.08)">
<use xlink:href="#an"/>
</g>
</g>
<path d="m1534.5 697.71 3.1903-4.4464q1.3991-1.95-0.55084-3.3491l-6.2907-4.5137q-1.95-1.3991-3.3491 0.55084l-3.1903 4.4464q-1.3991 1.95 0.55084 3.3491l6.2907 4.5137q1.95 1.3991 3.3491-0.55084z" clip-path="url(#a)" fill="#fff" stroke="#fff"/>
<g clip-path="url(#a)">
<g transform="translate(1531.2 695.34) rotate(-54.34) scale(.08 -.08)">
<use xlink:href="#q"/>
</g>
</g>
<path d="m1737 692.37 2.8819 5.0966q1.1813 2.0891 3.2705 0.90782l6.7396-3.811q2.0891-1.1813 0.90782-3.2705l-2.8819-5.0966q-1.1813-2.0891-3.2705-0.90782l-6.7396 3.811q-2.0891 1.1813-0.90782 3.2705z" clip-path="url(#a)" fill="#fff" stroke="#fff"/>
<g clip-path="url(#a)">
<g transform="translate(1740.5 690.37) rotate(60.514) scale(.08 -.08)">
<use xlink:href="#z"/>
</g>
</g>
<path d="m1547.6 894.52v35.285q0 2.4 2.4 2.4h7.7425q2.4 0 2.4-2.4v-35.285q0-2.4-2.4-2.4h-7.7425q-2.4 0-2.4 2.4z" clip-path="url(#a)" fill="#fff" stroke="#fff"/>
<g clip-path="url(#a)">
<g transform="translate(1551.7 894.52) rotate(90) scale(.08 -.08)">
<use xlink:href="#l"/>
<use x="60.818359" xlink:href="#d"/>
<use x="122.341797" xlink:href="#g"/>
<use x="163.439453" xlink:href="#j"/>
<use x="260.851562" xlink:href="#f"/>
<use x="288.634766" xlink:href="#i"/>
<use x="352.013672" xlink:href="#h"/>
<use x="413.292969" xlink:href="#k"/>
</g>
</g>
<path d="m1634.2 752.07 1.2336-4.9022q0.58571-2.3274-1.7417-2.9131l-7.5084-1.8895q-2.3274-0.58571-2.9131 1.7417l-1.2336 4.9022q-0.58571 2.3274 1.7417 2.9131l7.5084 1.8895q2.3274 0.58571 2.9131-1.7417z" clip-path="url(#a)" fill="#fff" stroke="#fff"/>
<g clip-path="url(#a)">
<g transform="translate(1630.3 751.08) rotate(-75.875) scale(.08 -.08)">
<use xlink:href="#r"/>
</g>
</g>
<path d="m1658.6 751.11 0.2007-5.5826q0.086225-2.3985-2.3122-2.4847l-7.7375-0.27817q-2.3984-0.086226-2.4847 2.3122l-0.2007 5.5826q-0.086225 2.3985 2.3122 2.4847l7.7375 0.27817q2.3985 0.086226 2.4847-2.3122z" clip-path="url(#a)" fill="#fff" stroke="#fff"/>
<g clip-path="url(#a)">
<g transform="translate(1654.5 750.96) rotate(-87.941) scale(.08 -.08)">
<use xlink:href="#w"/>
</g>
</g>
<path d="m1681.2 694.57 2.5074 4.3893q1.1905 2.0839 3.2744 0.89346l6.7229-3.8405q2.0839-1.1905 0.89346-3.2744l-2.5074-4.3893q-1.1905-2.0839-3.2744-0.89346l-6.7229 3.8405q-2.0839 1.1905-0.89346 3.2744z" clip-path="url(#a)" fill="#fff" stroke="#fff"/>
<g clip-path="url(#a)">
<g transform="translate(1684.7 692.55) rotate(60.262) scale(.08 -.08)">
<use xlink:href="#r"/>
</g>
</g>
<path d="m1784.1 894.52v35.285q0 2.4 2.4 2.4h7.7425q2.4 0 2.4-2.4v-35.285q0-2.4-2.4-2.4h-7.7425q-2.4 0-2.4 2.4z" clip-path="url(#a)" fill="#fff" stroke="#fff"/>
<g clip-path="url(#a)">
<g transform="translate(1788.2 894.52) rotate(90) scale(.08 -.08)">
<use xlink:href="#l"/>
<use x="60.818359" xlink:href="#d"/>
<use x="122.341797" xlink:href="#g"/>
<use x="163.439453" xlink:href="#j"/>
<use x="260.851562" xlink:href="#f"/>
<use x="288.634766" xlink:href="#i"/>
<use x="352.013672" xlink:href="#h"/>
<use x="413.292969" xlink:href="#k"/>
</g>
</g>
<path d="m1594.9 894.52v35.285q0 2.4 2.4 2.4h7.7425q2.4 0 2.4-2.4v-35.285q0-2.4-2.4-2.4h-7.7425q-2.4 0-2.4 2.4z" clip-path="url(#a)" fill="#fff" stroke="#fff"/>
<g clip-path="url(#a)">
<g transform="translate(1599 894.52) rotate(90) scale(.08 -.08)">
<use xlink:href="#l"/>
<use x="60.818359" xlink:href="#d"/>
<use x="122.341797" xlink:href="#g"/>
<use x="163.439453" xlink:href="#j"/>
<use x="260.851562" xlink:href="#f"/>
<use x="288.634766" xlink:href="#i"/>
<use x="352.013672" xlink:href="#h"/>
<use x="413.292969" xlink:href="#k"/>
</g>
</g>
<path d="m1642.2 894.52v35.285q0 2.4 2.4 2.4h7.7425q2.4 0 2.4-2.4v-35.285q0-2.4-2.4-2.4h-7.7425q-2.4 0-2.4 2.4z" clip-path="url(#a)" fill="#fff" stroke="#fff"/>
<g clip-path="url(#a)">
<g transform="translate(1646.3 894.52) rotate(90) scale(.08 -.08)">
<use xlink:href="#l"/>
<use x="60.818359" xlink:href="#d"/>
<use x="122.341797" xlink:href="#g"/>
<use x="163.439453" xlink:href="#j"/>
<use x="260.851562" xlink:href="#f"/>
<use x="288.634766" xlink:href="#i"/>
<use x="352.013672" xlink:href="#h"/>
<use x="413.292969" xlink:href="#k"/>
</g>
</g>
<path d="m1713.1 807.33 1.1799-5.4321q0.50941-2.3453-1.8359-2.8547l-7.5661-1.6434q-2.3453-0.50941-2.8547 1.8359l-1.1799 5.4321q-0.50941 2.3453 1.8359 2.8547l7.5661 1.6434q2.3453 0.50941 2.8547-1.8359z" clip-path="url(#a)" fill="#fff" stroke="#fff"/>
<g clip-path="url(#a)">
<g transform="translate(1709.2 806.47) rotate(-77.746) scale(.08 -.08)">
<use xlink:href="#v"/>
</g>
</g>
<path d="m1724.5 801.89 1.1857 5.459q0.50941 2.3453 2.8547 1.8359l7.5661-1.6434q2.3453-0.50941 1.8359-2.8547l-1.1857-5.459q-0.50941-2.3453-2.8547-1.8359l-7.5661 1.6434q-2.3453 0.50941-1.8359 2.8547z" clip-path="url(#a)" fill="#fff" stroke="#fff"/>
<g clip-path="url(#a)">
<g transform="translate(1728.5 801.03) rotate(77.746) scale(.08 -.08)">
<use xlink:href="#w"/>
</g>
</g>
<path d="m1689.5 894.52v35.285q0 2.4 2.4 2.4h7.7425q2.4 0 2.4-2.4v-35.285q0-2.4-2.4-2.4h-7.7425q-2.4 0-2.4 2.4z" clip-path="url(#a)" fill="#fff" stroke="#fff"/>
<g clip-path="url(#a)">
<g transform="translate(1693.6 894.52) rotate(90) scale(.08 -.08)">
<use xlink:href="#l"/>
<use x="60.818359" xlink:href="#d"/>
<use x="122.341797" xlink:href="#g"/>
<use x="163.439453" xlink:href="#j"/>
<use x="260.851562" xlink:href="#f"/>
<use x="288.634766" xlink:href="#i"/>
<use x="352.013672" xlink:href="#h"/>
<use x="413.292969" xlink:href="#k"/>
</g>
</g>
<path d="m1736.8 894.52v35.285q0 2.4 2.4 2.4h7.7425q2.4 0 2.4-2.4v-35.285q0-2.4-2.4-2.4h-7.7425q-2.4 0-2.4 2.4z" clip-path="url(#a)" fill="#fff" stroke="#fff"/>
<g clip-path="url(#a)">
<g transform="translate(1740.9 894.52) rotate(90) scale(.08 -.08)">
<use xlink:href="#l"/>
<use x="60.818359" xlink:href="#d"/>
<use x="122.341797" xlink:href="#g"/>
<use x="163.439453" xlink:href="#j"/>
<use x="260.851562" xlink:href="#f"/>
<use x="288.634766" xlink:href="#i"/>
<use x="352.013672" xlink:href="#h"/>
<use x="413.292969" xlink:href="#k"/>
</g>
</g>
<path d="m1358.4 894.52v35.285q0 2.4 2.4 2.4h7.7425q2.4 0 2.4-2.4v-35.285q0-2.4-2.4-2.4h-7.7425q-2.4 0-2.4 2.4z" clip-path="url(#a)" fill="#fff" stroke="#fff"/>
<g clip-path="url(#a)">
<g transform="translate(1362.5 894.52) rotate(90) scale(.08 -.08)">
<use xlink:href="#l"/>
<use x="60.818359" xlink:href="#d"/>
<use x="122.341797" xlink:href="#g"/>
<use x="163.439453" xlink:href="#j"/>
<use x="260.851562" xlink:href="#f"/>
<use x="288.634766" xlink:href="#i"/>
<use x="352.013672" xlink:href="#h"/>
<use x="413.292969" xlink:href="#k"/>
</g>
</g>
<path d="m1405.7 894.52v35.285q0 2.4 2.4 2.4h7.7425q2.4 0 2.4-2.4v-35.285q0-2.4-2.4-2.4h-7.7425q-2.4 0-2.4 2.4z" clip-path="url(#a)" fill="#fff" stroke="#fff"/>
<g clip-path="url(#a)">
<g transform="translate(1409.8 894.52) rotate(90) scale(.08 -.08)">
<use xlink:href="#l"/>
<use x="60.818359" xlink:href="#d"/>
<use x="122.341797" xlink:href="#g"/>
<use x="163.439453" xlink:href="#j"/>
<use x="260.851562" xlink:href="#f"/>
<use x="288.634766" xlink:href="#i"/>
<use x="352.013672" xlink:href="#h"/>
<use x="413.292969" xlink:href="#k"/>
</g>
</g>
<path d="m81.397 894.52v35.285q0 2.4 2.4 2.4h7.7425q2.4 0 2.4-2.4v-35.285q0-2.4-2.4-2.4h-7.7425q-2.4 0-2.4 2.4z" clip-path="url(#a)" fill="#fff" stroke="#fff"/>
<g clip-path="url(#a)">
<g transform="translate(85.461 894.52) rotate(90) scale(.08 -.08)">
<use xlink:href="#l"/>
<use x="60.818359" xlink:href="#d"/>
<use x="122.341797" xlink:href="#g"/>
<use x="163.439453" xlink:href="#j"/>
<use x="260.851562" xlink:href="#f"/>
<use x="288.634766" xlink:href="#i"/>
<use x="352.013672" xlink:href="#h"/>
<use x="413.292969" xlink:href="#k"/>
</g>
</g>
<path d="m161 876.3 7.4894-34.481q0.50941-2.3453-1.8359-2.8547l-7.5661-1.6434q-2.3453-0.50941-2.8547 1.8359l-7.4894 34.481q-0.50941 2.3453 1.8359 2.8547l7.5661 1.6434q2.3453 0.50941 2.8547-1.8359z" clip-path="url(#a)" fill="#fff" stroke="#fff"/>
<g clip-path="url(#a)">
<g transform="translate(157.03 875.43) rotate(-77.746) scale(.08 -.08)">
<use xlink:href="#l"/>
<use x="60.818359" xlink:href="#d"/>
<use x="122.341797" xlink:href="#g"/>
<use x="163.439453" xlink:href="#j"/>
<use x="260.851562" xlink:href="#f"/>
<use x="288.634766" xlink:href="#i"/>
<use x="352.013672" xlink:href="#h"/>
<use x="413.292969" xlink:href="#k"/>
</g>
</g>
<path d="m196.04 841.82 7.4894 34.481q0.50941 2.3453 2.8547 1.8359l7.5661-1.6434q2.3453-0.50941 1.8359-2.8547l-7.4894-34.481q-0.50941-2.3453-2.8547-1.8359l-7.5661 1.6434q-2.3453 0.50941-1.8359 2.8547z" clip-path="url(#a)" fill="#fff" stroke="#fff"/>
<g clip-path="url(#a)">
<g transform="translate(200.01 840.95) rotate(77.746) scale(.08 -.08)">
<use xlink:href="#l"/>
<use x="60.818359" xlink:href="#d"/>
<use x="122.341797" xlink:href="#g"/>
<use x="163.439453" xlink:href="#j"/>
<use x="260.851562" xlink:href="#f"/>
<use x="288.634766" xlink:href="#i"/>
<use x="352.013672" xlink:href="#h"/>
<use x="413.292969" xlink:href="#k"/>
</g>
</g>
<path d="m175.99 800.36v5.855q0 2.4 2.4 2.4h7.7425q2.4 0 2.4-2.4v-5.855q0-2.4-2.4-2.4h-7.7425q-2.4 0-2.4 2.4z" clip-path="url(#a)" fill="#fff" stroke="#fff"/>
<g clip-path="url(#a)">
<g transform="translate(180.06 800.36) rotate(90) scale(.08 -.08)">
<use xlink:href="#z"/>
</g>
</g>
<path d="m305.15 808.33 2.2148-5.0985q0.95625-2.2013-1.245-3.1575l-7.1014-3.0849q-2.2013-0.95625-3.1575 1.245l-2.2148 5.0985q-0.95625 2.2013 1.245 3.1575l7.1014 3.0849q2.2013 0.95625 3.1575-1.245z" clip-path="url(#a)" fill="#fff" stroke="#fff"/>
<g clip-path="url(#a)">
<g transform="translate(301.42 806.71) rotate(-66.52) scale(.08 -.08)">
<use xlink:href="#v"/>
</g>
</g>
<path d="m317.88 800.76v5.055q0 2.4 2.4 2.4h7.7425q2.4 0 2.4-2.4v-5.055q0-2.4-2.4-2.4h-7.7425q-2.4 0-2.4 2.4z" clip-path="url(#a)" fill="#fff" stroke="#fff"/>
<g clip-path="url(#a)">
<g transform="translate(321.95 800.76) rotate(90) scale(.08 -.08)">
<use xlink:href="#r"/>
</g>
</g>
<path d="m340.94 803.22 2.2258 5.1237q0.95625 2.2013 3.1575 1.245l7.1014-3.0849q2.2013-0.95625 1.245-3.1575l-2.2258-5.1237q-0.95625-2.2013-3.1575-1.245l-7.1014 3.0849q-2.2013 0.95625-1.245 3.1575z" clip-path="url(#a)" fill="#fff" stroke="#fff"/>
<g clip-path="url(#a)">
<g transform="translate(344.67 801.6) rotate(66.52) scale(.08 -.08)">
<use xlink:href="#w"/>
</g>
</g>
<path d="m175.99 894.52v35.285q0 2.4 2.4 2.4h7.7425q2.4 0 2.4-2.4v-35.285q0-2.4-2.4-2.4h-7.7425q-2.4 0-2.4 2.4z" clip-path="url(#a)" fill="#fff" stroke="#fff"/>
<g clip-path="url(#a)">
<g transform="translate(180.06 894.52) rotate(90) scale(.08 -.08)">
<use xlink:href="#l"/>
<use x="60.818359" xlink:href="#d"/>
<use x="122.341797" xlink:href="#g"/>
<use x="163.439453" xlink:href="#j"/>
<use x="260.851562" xlink:href="#f"/>
<use x="288.634766" xlink:href="#i"/>
<use x="352.013672" xlink:href="#h"/>
<use x="413.292969" xlink:href="#k"/>
</g>
</g>
<path d="m270.59 894.52v35.285q0 2.4 2.4 2.4h7.7425q2.4 0 2.4-2.4v-35.285q0-2.4-2.4-2.4h-7.7425q-2.4 0-2.4 2.4z" clip-path="url(#a)" fill="#fff" stroke="#fff"/>
<g clip-path="url(#a)">
<g transform="translate(274.65 894.52) rotate(90) scale(.08 -.08)">
<use xlink:href="#l"/>
<use x="60.818359" xlink:href="#d"/>
<use x="122.341797" xlink:href="#g"/>
<use x="163.439453" xlink:href="#j"/>
<use x="260.851562" xlink:href="#f"/>
<use x="288.634766" xlink:href="#i"/>
<use x="352.013672" xlink:href="#h"/>
<use x="413.292969" xlink:href="#k"/>
</g>
</g>
<path d="m317.88 894.52v35.285q0 2.4 2.4 2.4h7.7425q2.4 0 2.4-2.4v-35.285q0-2.4-2.4-2.4h-7.7425q-2.4 0-2.4 2.4z" clip-path="url(#a)" fill="#fff" stroke="#fff"/>
<g clip-path="url(#a)">
<g transform="translate(321.95 894.52) rotate(90) scale(.08 -.08)">
<use xlink:href="#l"/>
<use x="60.818359" xlink:href="#d"/>
<use x="122.341797" xlink:href="#g"/>
<use x="163.439453" xlink:href="#j"/>
<use x="260.851562" xlink:href="#f"/>
<use x="288.634766" xlink:href="#i"/>
<use x="352.013672" xlink:href="#h"/>
<use x="413.292969" xlink:href="#k"/>
</g>
</g>
<path d="m365.18 894.52v35.285q0 2.4 2.4 2.4h7.7425q2.4 0 2.4-2.4v-35.285q0-2.4-2.4-2.4h-7.7425q-2.4 0-2.4 2.4z" clip-path="url(#a)" fill="#fff" stroke="#fff"/>
<g clip-path="url(#a)">
<g transform="translate(369.24 894.52) rotate(90) scale(.08 -.08)">
<use xlink:href="#l"/>
<use x="60.818359" xlink:href="#d"/>
<use x="122.341797" xlink:href="#g"/>
<use x="163.439453" xlink:href="#j"/>
<use x="260.851562" xlink:href="#f"/>
<use x="288.634766" xlink:href="#i"/>
<use x="352.013672" xlink:href="#h"/>
<use x="413.292969" xlink:href="#k"/>
</g>
</g>
<path d="m412.48 894.52v35.285q0 2.4 2.4 2.4h7.7425q2.4 0 2.4-2.4v-35.285q0-2.4-2.4-2.4h-7.7425q-2.4 0-2.4 2.4z" clip-path="url(#a)" fill="#fff" stroke="#fff"/>
<g clip-path="url(#a)">
<g transform="translate(416.54 894.52) rotate(90) scale(.08 -.08)">
<use xlink:href="#l"/>
<use x="60.818359" xlink:href="#d"/>
<use x="122.341797" xlink:href="#g"/>
<use x="163.439453" xlink:href="#j"/>
<use x="260.851562" xlink:href="#f"/>
<use x="288.634766" xlink:href="#i"/>
<use x="352.013672" xlink:href="#h"/>
<use x="413.292969" xlink:href="#k"/>
</g>
</g>
<path d="m885.45 894.52v35.285q0 2.4 2.4 2.4h7.7425q2.4 0 2.4-2.4v-35.285q0-2.4-2.4-2.4h-7.7425q-2.4 0-2.4 2.4z" clip-path="url(#a)" fill="#fff" stroke="#fff"/>
<g clip-path="url(#a)">
<g transform="translate(889.51 894.52) rotate(90) scale(.08 -.08)">
<use xlink:href="#l"/>
<use x="60.818359" xlink:href="#d"/>
<use x="122.341797" xlink:href="#g"/>
<use x="163.439453" xlink:href="#j"/>
<use x="260.851562" xlink:href="#f"/>
<use x="288.634766" xlink:href="#i"/>
<use x="352.013672" xlink:href="#h"/>
<use x="413.292969" xlink:href="#k"/>
</g>
</g>
<path d="m1074.6 894.52v35.285q0 2.4 2.4 2.4h7.7425q2.4 0 2.4-2.4v-35.285q0-2.4-2.4-2.4h-7.7425q-2.4 0-2.4 2.4z" clip-path="url(#a)" fill="#fff" stroke="#fff"/>
<g clip-path="url(#a)">
<g transform="translate(1078.7 894.52) rotate(90) scale(.08 -.08)">
<use xlink:href="#l"/>
<use x="60.818359" xlink:href="#d"/>
<use x="122.341797" xlink:href="#g"/>
<use x="163.439453" xlink:href="#j"/>
<use x="260.851562" xlink:href="#f"/>
<use x="288.634766" xlink:href="#i"/>
<use x="352.013672" xlink:href="#h"/>
<use x="413.292969" xlink:href="#k"/>
</g>
</g>
<path d="m1500.3 894.52v35.285q0 2.4 2.4 2.4h7.7425q2.4 0 2.4-2.4v-35.285q0-2.4-2.4-2.4h-7.7425q-2.4 0-2.4 2.4z" clip-path="url(#a)" fill="#fff" stroke="#fff"/>
<g clip-path="url(#a)">
<g transform="translate(1504.4 894.52) rotate(90) scale(.08 -.08)">
<use xlink:href="#l"/>
<use x="60.818359" xlink:href="#d"/>
<use x="122.341797" xlink:href="#g"/>
<use x="163.439453" xlink:href="#j"/>
<use x="260.851562" xlink:href="#f"/>
<use x="288.634766" xlink:href="#i"/>
<use x="352.013672" xlink:href="#h"/>
<use x="413.292969" xlink:href="#k"/>
</g>
</g>
<path d="m1831.4 894.52v35.285q0 2.4 2.4 2.4h7.7425q2.4 0 2.4-2.4v-35.285q0-2.4-2.4-2.4h-7.7425q-2.4 0-2.4 2.4z" clip-path="url(#a)" fill="#fff" stroke="#fff"/>
<g clip-path="url(#a)">
<g transform="translate(1835.5 894.52) rotate(90) scale(.08 -.08)">
<use xlink:href="#l"/>
<use x="60.818359" xlink:href="#d"/>
<use x="122.341797" xlink:href="#g"/>
<use x="163.439453" xlink:href="#j"/>
<use x="260.851562" xlink:href="#f"/>
<use x="288.634766" xlink:href="#i"/>
<use x="352.013672" xlink:href="#h"/>
<use x="413.292969" xlink:href="#k"/>
</g>
</g>
<defs>
<path id="b" d="m0 8.6603c2.2967 0 4.4997-0.9125 6.1237-2.5365 1.624-1.624 2.5365-3.827 2.5365-6.1237s-0.9125-4.4997-2.5365-6.1237c-1.624-1.624-3.827-2.5365-6.1237-2.5365s-4.4997 0.9125-6.1237 2.5365c-1.624 1.624-2.5365 3.827-2.5365 6.1237s0.9125 4.4997 2.5365 6.1237c1.624 1.624 3.827 2.5365 6.1237 2.5365z"/>
</defs>
<g clip-path="url(#a)">
<use x="87.668328" y="966.602765" fill="#ffffff" stroke="#ffffff" xlink:href="#b"/>
</g>
<g clip-path="url(#a)">
<use x="134.965536" y="966.602765" fill="#ffffff" stroke="#ffffff" xlink:href="#b"/>
</g>
<g clip-path="url(#a)">
<use x="182.262743" y="966.602765" fill="#ffffff" stroke="#ffffff" xlink:href="#b"/>
</g>
<g clip-path="url(#a)">
<use x="229.559951" y="966.602765" fill="#ffffff" stroke="#ffffff" xlink:href="#b"/>
</g>
<g clip-path="url(#a)">
<use x="276.857158" y="966.602765" fill="#ffffff" stroke="#ffffff" xlink:href="#b"/>
</g>
<g clip-path="url(#a)">
<use x="324.154366" y="966.602765" fill="#ffffff" stroke="#ffffff" xlink:href="#b"/>
</g>
<g clip-path="url(#a)">
<use x="371.451573" y="966.602765" fill="#ffffff" stroke="#ffffff" xlink:href="#b"/>
</g>
<g clip-path="url(#a)">
<use x="418.748781" y="966.602765" fill="#ffffff" stroke="#ffffff" xlink:href="#b"/>
</g>
<g clip-path="url(#a)">
<use x="466.045988" y="966.602765" fill="#ffffff" stroke="#ffffff" xlink:href="#b"/>
</g>
<g clip-path="url(#a)">
<use x="513.343196" y="966.602765" fill="#ffffff" stroke="#ffffff" xlink:href="#b"/>
</g>
<g clip-path="url(#a)">
<use x="560.640403" y="966.602765" fill="#ffffff" stroke="#ffffff" xlink:href="#b"/>
</g>
<g clip-path="url(#a)">
<use x="607.937611" y="966.602765" fill="#ffffff" stroke="#ffffff" xlink:href="#b"/>
</g>
<g clip-path="url(#a)">
<use x="655.234818" y="966.602765" fill="#ffffff" stroke="#ffffff" xlink:href="#b"/>
</g>
<g clip-path="url(#a)">
<use x="702.532026" y="966.602765" fill="#ffffff" stroke="#ffffff" xlink:href="#b"/>
</g>
<g clip-path="url(#a)">
<use x="749.829233" y="966.602765" fill="#ffffff" stroke="#ffffff" xlink:href="#b"/>
</g>
<g clip-path="url(#a)">
<use x="797.12644" y="966.602765" fill="#ffffff" stroke="#ffffff" xlink:href="#b"/>
</g>
<g clip-path="url(#a)">
<use x="844.423648" y="966.602765" fill="#ffffff" stroke="#ffffff" xlink:href="#b"/>
</g>
<g clip-path="url(#a)">
<use x="891.720855" y="966.602765" fill="#ffffff" stroke="#ffffff" xlink:href="#b"/>
</g>
<g clip-path="url(#a)">
<use x="939.018063" y="966.602765" fill="#ffffff" stroke="#ffffff" xlink:href="#b"/>
</g>
<g clip-path="url(#a)">
<use x="986.31527" y="966.602765" fill="#ffffff" stroke="#ffffff" xlink:href="#b"/>
</g>
<g clip-path="url(#a)">
<use x="1033.612478" y="966.602765" fill="#ffffff" stroke="#ffffff" xlink:href="#b"/>
</g>
<g clip-path="url(#a)">
<use x="1080.909685" y="966.602765" fill="#ffffff" stroke="#ffffff" xlink:href="#b"/>
</g>
<g clip-path="url(#a)">
<use x="1128.206893" y="966.602765" fill="#ffffff" stroke="#ffffff" xlink:href="#b"/>
</g>
<g clip-path="url(#a)">
<use x="1175.5041" y="966.602765" fill="#ffffff" stroke="#ffffff" xlink:href="#b"/>
</g>
<g clip-path="url(#a)">
<use x="1222.801308" y="966.602765" fill="#ffffff" stroke="#ffffff" xlink:href="#b"/>
</g>
<g clip-path="url(#a)">
<use x="1270.098515" y="966.602765" fill="#ffffff" stroke="#ffffff" xlink:href="#b"/>
</g>
<g clip-path="url(#a)">
<use x="1317.395723" y="966.602765" fill="#ffffff" stroke="#ffffff" xlink:href="#b"/>
</g>
<g clip-path="url(#a)">
<use x="1364.69293" y="966.602765" fill="#ffffff" stroke="#ffffff" xlink:href="#b"/>
</g>
<g clip-path="url(#a)">
<use x="1411.990138" y="966.602765" fill="#ffffff" stroke="#ffffff" xlink:href="#b"/>
</g>
<g clip-path="url(#a)">
<use x="1459.287345" y="966.602765" fill="#ffffff" stroke="#ffffff" xlink:href="#b"/>
</g>
<g clip-path="url(#a)">
<use x="1506.584553" y="966.602765" fill="#ffffff" stroke="#ffffff" xlink:href="#b"/>
</g>
<g clip-path="url(#a)">
<use x="1553.88176" y="966.602765" fill="#ffffff" stroke="#ffffff" xlink:href="#b"/>
</g>
<g clip-path="url(#a)">
<use x="1601.178968" y="966.602765" fill="#ffffff" stroke="#ffffff" xlink:href="#b"/>
</g>
<g clip-path="url(#a)">
<use x="1648.476175" y="966.602765" fill="#ffffff" stroke="#ffffff" xlink:href="#b"/>
</g>
<g clip-path="url(#a)">
<use x="1695.773383" y="966.602765" fill="#ffffff" stroke="#ffffff" xlink:href="#b"/>
</g>
<g clip-path="url(#a)">
<use x="1743.07059" y="966.602765" fill="#ffffff" stroke="#ffffff" xlink:href="#b"/>
</g>
<g clip-path="url(#a)">
<use x="1790.367798" y="966.602765" fill="#ffffff" stroke="#ffffff" xlink:href="#b"/>
</g>
<g clip-path="url(#a)">
<use x="1837.665005" y="966.602765" fill="#ffffff" stroke="#ffffff" xlink:href="#b"/>
</g>
<g clip-path="url(#a)">
<use x="676.604747" y="46.730568" fill="#ffffff" stroke="#ffffff" xlink:href="#b"/>
</g>
<g clip-path="url(#a)">
<use x="927.624691" y="171.572953" fill="#ffffff" stroke="#ffffff" xlink:href="#b"/>
</g>
<g clip-path="url(#a)">
<use x="466.045988" y="857.724967" fill="#ffffff" stroke="#ffffff" xlink:href="#b"/>
</g>
<g clip-path="url(#a)">
<use x="678.883422" y="638.454762" fill="#ffffff" stroke="#ffffff" xlink:href="#b"/>
</g>
<g clip-path="url(#a)">
<use x="513.343196" y="857.724967" fill="#ffffff" stroke="#ffffff" xlink:href="#b"/>
</g>
<g clip-path="url(#a)">
<use x="607.937611" y="748.84717" fill="#ffffff" stroke="#ffffff" xlink:href="#b"/>
</g>
<g clip-path="url(#a)">
<use x="749.829233" y="748.84717" fill="#ffffff" stroke="#ffffff" xlink:href="#b"/>
</g>
<g clip-path="url(#a)">
<use x="844.423648" y="857.724967" fill="#ffffff" stroke="#ffffff" xlink:href="#b"/>
</g>
<g clip-path="url(#a)">
<use x="702.532026" y="857.724967" fill="#ffffff" stroke="#ffffff" xlink:href="#b"/>
</g>
<g clip-path="url(#a)">
<use x="749.829233" y="857.724967" fill="#ffffff" stroke="#ffffff" xlink:href="#b"/>
</g>
<g clip-path="url(#a)">
<use x="797.12644" y="857.724967" fill="#ffffff" stroke="#ffffff" xlink:href="#b"/>
</g>
<g clip-path="url(#a)">
<use x="560.640403" y="857.724967" fill="#ffffff" stroke="#ffffff" xlink:href="#b"/>
</g>
<g clip-path="url(#a)">
<use x="607.937611" y="857.724967" fill="#ffffff" stroke="#ffffff" xlink:href="#b"/>
</g>
<g clip-path="url(#a)">
<use x="655.234818" y="857.724967" fill="#ffffff" stroke="#ffffff" xlink:href="#b"/>
</g>
<g clip-path="url(#a)">
<use x="198.028479" y="638.454762" fill="#ffffff" stroke="#ffffff" xlink:href="#b"/>
</g>
<g clip-path="url(#a)">
<use x="939.018063" y="857.724967" fill="#ffffff" stroke="#ffffff" xlink:href="#b"/>
</g>
<g clip-path="url(#a)">
<use x="986.31527" y="857.724967" fill="#ffffff" stroke="#ffffff" xlink:href="#b"/>
</g>
<g clip-path="url(#a)">
<use x="1033.612478" y="857.724967" fill="#ffffff" stroke="#ffffff" xlink:href="#b"/>
</g>
<g clip-path="url(#a)">
<use x="1327.864171" y="292.843595" fill="#ffffff" stroke="#ffffff" xlink:href="#b"/>
</g>
<g clip-path="url(#a)">
<use x="1128.206893" y="857.724967" fill="#ffffff" stroke="#ffffff" xlink:href="#b"/>
</g>
<g clip-path="url(#a)">
<use x="1175.5041" y="857.724967" fill="#ffffff" stroke="#ffffff" xlink:href="#b"/>
</g>
<g clip-path="url(#a)">
<use x="1369.737966" y="410.854817" fill="#ffffff" stroke="#ffffff" xlink:href="#b"/>
</g>
<g clip-path="url(#a)">
<use x="1459.287345" y="857.724967" fill="#ffffff" stroke="#ffffff" xlink:href="#b"/>
</g>
<g clip-path="url(#a)">
<use x="1222.801308" y="857.724967" fill="#ffffff" stroke="#ffffff" xlink:href="#b"/>
</g>
<g clip-path="url(#a)">
<use x="1270.098515" y="857.724967" fill="#ffffff" stroke="#ffffff" xlink:href="#b"/>
</g>
<g clip-path="url(#a)">
<use x="1317.395723" y="857.724967" fill="#ffffff" stroke="#ffffff" xlink:href="#b"/>
</g>
<g clip-path="url(#a)">
<use x="1388.341534" y="748.84717" fill="#ffffff" stroke="#ffffff" xlink:href="#b"/>
</g>
<g clip-path="url(#a)">
<use x="1650.052749" y="525.936665" fill="#ffffff" stroke="#ffffff" xlink:href="#b"/>
</g>
<g clip-path="url(#a)">
<use x="1553.88176" y="857.724967" fill="#ffffff" stroke="#ffffff" xlink:href="#b"/>
</g>
<g clip-path="url(#a)">
<use x="1656.359043" y="638.454762" fill="#ffffff" stroke="#ffffff" xlink:href="#b"/>
</g>
<g clip-path="url(#a)">
<use x="1790.367798" y="857.724967" fill="#ffffff" stroke="#ffffff" xlink:href="#b"/>
</g>
<g clip-path="url(#a)">
<use x="1601.178968" y="857.724967" fill="#ffffff" stroke="#ffffff" xlink:href="#b"/>
</g>
<g clip-path="url(#a)">
<use x="1648.476175" y="857.724967" fill="#ffffff" stroke="#ffffff" xlink:href="#b"/>
</g>
<g clip-path="url(#a)">
<use x="1719.421986" y="748.84717" fill="#ffffff" stroke="#ffffff" xlink:href="#b"/>
</g>
<g clip-path="url(#a)">
<use x="1695.773383" y="857.724967" fill="#ffffff" stroke="#ffffff" xlink:href="#b"/>
</g>
<g clip-path="url(#a)">
<use x="1743.07059" y="857.724967" fill="#ffffff" stroke="#ffffff" xlink:href="#b"/>
</g>
<g clip-path="url(#a)">
<use x="1364.69293" y="857.724967" fill="#ffffff" stroke="#ffffff" xlink:href="#b"/>
</g>
<g clip-path="url(#a)">
<use x="1411.990138" y="857.724967" fill="#ffffff" stroke="#ffffff" xlink:href="#b"/>
</g>
<g clip-path="url(#a)">
<use x="87.668328" y="857.724967" fill="#ffffff" stroke="#ffffff" xlink:href="#b"/>
</g>
<g clip-path="url(#a)">
<use x="182.262743" y="748.84717" fill="#ffffff" stroke="#ffffff" xlink:href="#b"/>
</g>
<g clip-path="url(#a)">
<use x="324.154366" y="748.84717" fill="#ffffff" stroke="#ffffff" xlink:href="#b"/>
</g>
<g clip-path="url(#a)">
<use x="182.262743" y="857.724967" fill="#ffffff" stroke="#ffffff" xlink:href="#b"/>
</g>
<g clip-path="url(#a)">
<use x="276.857158" y="857.724967" fill="#ffffff" stroke="#ffffff" xlink:href="#b"/>
</g>
<g clip-path="url(#a)">
<use x="324.154366" y="857.724967" fill="#ffffff" stroke="#ffffff" xlink:href="#b"/>
</g>
<g clip-path="url(#a)">
<use x="371.451573" y="857.724967" fill="#ffffff" stroke="#ffffff" xlink:href="#b"/>
</g>
<g clip-path="url(#a)">
<use x="418.748781" y="857.724967" fill="#ffffff" stroke="#ffffff" xlink:href="#b"/>
</g>
<g clip-path="url(#a)">
<use x="891.720855" y="857.724967" fill="#ffffff" stroke="#ffffff" xlink:href="#b"/>
</g>
<g clip-path="url(#a)">
<use x="1080.909685" y="857.724967" fill="#ffffff" stroke="#ffffff" xlink:href="#b"/>
</g>
<g clip-path="url(#a)">
<use x="1506.584553" y="857.724967" fill="#ffffff" stroke="#ffffff" xlink:href="#b"/>
</g>
<g clip-path="url(#a)">
<use x="1837.665005" y="857.724967" fill="#ffffff" stroke="#ffffff" xlink:href="#b"/>
</g>
<g clip-path="url(#a)">
<g transform="translate(79.378 969.36) scale(.1 -.1)">
<use xlink:href="#q"/>
<use x="68.408203" xlink:href="#j"/>
</g>
</g>
<g clip-path="url(#a)">
<defs>
<path id="c" d="m12.406 8.2969h16.109v55.625l-17.531-3.5156v8.9844l17.438 3.5156h9.8594v-64.609h16.109v-8.2969h-41.984z"/>
<path id="p" d="m10.797 72.906h38.719v-8.3125h-29.688v-17.859q2.1406 0.73438 4.2812 1.0938 2.1562 0.35938 4.3125 0.35938 12.203 0 19.328-6.6875 7.1406-6.6875 7.1406-18.109 0-11.766-7.3281-18.297-7.3281-6.5156-20.656-6.5156-4.5938 0-9.3594 0.78125-4.75 0.78125-9.8281 2.3438v9.9219q4.3906-2.3906 9.0781-3.5625t9.9062-1.1719q8.4531 0 13.375 4.4375 4.9375 4.4375 4.9375 12.062 0 7.6094-4.9375 12.047-4.9219 4.4531-13.375 4.4531-3.9531 0-7.8906-0.875-3.9219-0.875-8.0156-2.7344z"/>
</defs>
<g transform="translate(128.6 969.36) scale(.1 -.1)">
<use xlink:href="#c"/>
<use x="63.623047" xlink:href="#p"/>
</g>
</g>
<g clip-path="url(#a)">
<defs>
<path id="e" d="m10.688 12.406h10.312v-12.406h-10.312z"/>
</defs>
<g transform="translate(180.67 969.36) scale(.1 -.1)">
<use xlink:href="#e"/>
</g>
</g>
<g clip-path="url(#a)">
<defs>
<path id="ax" d="m9.8125 72.906h9.8594v-67.828q0-13.188-5-19.141t-16.094-5.9531h-3.75v8.2969h3.0781q6.5312 0 9.2188 3.6719 2.6875 3.6562 2.6875 13.125z"/>
<path id="aq" d="m8.5 21.578v33.109h8.9844v-32.766q0-7.7656 3.0156-11.656 3.0312-3.875 9.0938-3.875 7.2656 0 11.484 4.6406 4.2344 4.6406 4.2344 12.656v31h8.9844v-54.688h-8.9844v8.4062q-3.2656-4.9844-7.5938-7.4062-4.3125-2.4219-10.031-2.4219-9.4219 0-14.312 5.8594-4.875 5.8594-4.875 17.141z"/>
</defs>
<g transform="translate(213.56 969.36) scale(.1 -.1)">
<use xlink:href="#ax"/>
<use x="29.492188" xlink:href="#h"/>
<use x="90.771484" xlink:href="#i"/>
<use x="154.150391" xlink:href="#aq"/>
<use x="217.529297" xlink:href="#h"/>
<use x="278.808594" xlink:href="#g"/>
</g>
</g>
<g clip-path="url(#a)">
<defs>
<path id="ak" d="m4.2031 54.688h8.9844l11.234-42.672 11.172 42.672h10.594l11.234-42.672 11.188 42.672h8.9844l-14.312-54.688h-10.594l-11.766 44.828-11.812-44.828h-10.609z"/>
<path id="aj" d="m34.281 27.484q-10.891 0-15.094-2.4844t-4.2031-8.5q0-4.7812 3.1562-7.5938 3.1562-2.7969 8.5625-2.7969 7.4844 0 12 5.2969t4.5156 14.078v2zm17.922 3.7188v-31.203h-8.9844v8.2969q-3.0781-4.9688-7.6719-7.3438t-11.234-2.375q-8.3906 0-13.359 4.7188-4.9531 4.7188-4.9531 12.625 0 9.2188 6.1719 13.906 6.1875 4.6875 18.438 4.6875h12.609v0.89062q0 6.2031-4.0781 9.5938t-11.453 3.3906q-4.6875 0-9.1406-1.125-4.4375-1.125-8.5312-3.375v8.3125q4.9219 1.9062 9.5625 2.8438 4.6406 0.95312 9.0312 0.95312 11.875 0 17.734-6.1562 5.8594-6.1406 5.8594-18.641zm-18.609 44.578h9.9062v-9.8594h-9.9062zm-19.094 0h9.9062v-9.8594h-9.9062z"/>
<path id="x" d="m54.891 33.016v-33.016h-8.9844v32.719q0 7.7656-3.0312 11.609-3.0312 3.8594-9.0781 3.8594-7.2812 0-11.484-4.6406-4.2031-4.625-4.2031-12.641v-30.906h-9.0312v75.984h9.0312v-29.797q3.2344 4.9375 7.5938 7.375 4.375 2.4375 10.094 2.4375 9.4219 0 14.25-5.8281 4.8438-5.8281 4.8438-17.156z"/>
<path id="u" d="m45.406 46.391v29.594h8.9844v-75.984h-8.9844v8.2031q-2.8281-4.875-7.1562-7.25-4.3125-2.375-10.375-2.375-9.9062 0-16.141 7.9062-6.2188 7.9219-6.2188 20.812t6.2188 20.797q6.2344 7.9062 16.141 7.9062 6.0625 0 10.375-2.375 4.3281-2.3594 7.1562-7.2344zm-30.609-19.094q0-9.9062 4.0781-15.547t11.203-5.6406 11.219 5.6406q4.1094 5.6406 4.1094 15.547t-4.1094 15.547q-4.0938 5.6406-11.219 5.6406t-11.203-5.6406-4.0781-15.547z"/>
</defs>
<g transform="translate(255.06 969.36) scale(.1 -.1)">
<use xlink:href="#ak"/>
<use x="81.787109" xlink:href="#aj"/>
<use x="143.066406" xlink:href="#x"/>
<use x="206.445312" xlink:href="#g"/>
<use x="247.527344" xlink:href="#d"/>
<use x="309.050781" xlink:href="#i"/>
<use x="372.429688" xlink:href="#u"/>
</g>
</g>
<g clip-path="url(#a)">
<defs>
<path id="t" d="m44.281 53.078v-8.5q-3.7969 1.9531-7.9062 2.9219-4.0938 0.98438-8.5 0.98438-6.6875 0-10.031-2.0469t-3.3438-6.1562q0-3.125 2.3906-4.9062t9.625-3.3906l3.0781-0.6875q9.5625-2.0469 13.594-5.7812t4.0312-10.422q0-7.625-6.0312-12.078-6.0312-4.4375-16.578-4.4375-4.3906 0-9.1562 0.85938t-10.031 2.5625v9.2812q4.9844-2.5938 9.8125-3.8906 4.8281-1.2812 9.5781-1.2812 6.3438 0 9.75 2.1719 3.4219 2.1719 3.4219 6.125 0 3.6562-2.4688 5.6094-2.4531 1.9531-10.812 3.7656l-3.125 0.73438q-8.3438 1.75-12.062 5.3906-3.7031 3.6406-3.7031 9.9844 0 7.7188 5.4688 11.906 5.4688 4.2031 15.531 4.2031 4.9688 0 9.3594-0.73438 4.4062-0.71875 8.1094-2.1875z"/>
</defs>
<g transform="translate(315.3 969.36) scale(.1 -.1)">
<use xlink:href="#u"/>
<use x="63.476562" xlink:href="#d"/>
<use x="125" xlink:href="#t"/>
</g>
</g>
<g clip-path="url(#a)">
<defs>
<path id="as" d="m28.609 0-27.828 72.906h10.297l23.109-61.375 23.141 61.375h10.25l-27.781-72.906z"/>
<path id="ag" d="m30.609 48.391q-7.2188 0-11.422-5.6406t-4.2031-15.453 4.1719-15.453q4.1875-5.6406 11.453-5.6406 7.1875 0 11.375 5.6562 4.2031 5.6719 4.2031 15.438 0 9.7188-4.2031 15.406-4.1875 5.6875-11.375 5.6875zm0 7.6094q11.719 0 18.406-7.625 6.7031-7.6094 6.7031-21.078 0-13.422-6.7031-21.078-6.6875-7.6406-18.406-7.6406-11.766 0-18.438 7.6406-6.6562 7.6562-6.6562 21.078 0 13.469 6.6562 21.078 6.6719 7.625 18.438 7.625z"/>
<path id="s" d="m18.312 70.219v-15.531h18.5v-6.9844h-18.5v-29.688q0-6.6875 1.8281-8.5938t7.4531-1.9062h9.2188v-7.5156h-9.2188q-10.406 0-14.359 3.875-3.9531 3.8906-3.9531 14.141v29.688h-6.5938v6.9844h6.5938v15.531z"/>
<path id="ah" d="m45.406 27.984q0 9.7656-4.0312 15.125-4.0156 5.375-11.297 5.375-7.2188 0-11.25-5.375-4.0312-5.3594-4.0312-15.125 0-9.7188 4.0312-15.094t11.25-5.375q7.2812 0 11.297 5.375 4.0312 5.375 4.0312 15.094zm8.9844-21.203q0-13.953-6.2031-20.766-6.1875-6.8125-18.984-6.8125-4.7344 0-8.9375 0.70312t-8.1562 2.1719v8.7344q3.9531-2.1406 7.8125-3.1562 3.8594-1.0312 7.8594-1.0312 8.8438 0 13.234 4.6094t4.3906 13.938v4.4531q-2.7812-4.8438-7.125-7.2344t-10.406-2.3906q-10.047 0-16.203 7.6562-6.1562 7.6719-6.1562 20.328 0 12.688 6.1562 20.344 6.1562 7.6719 16.203 7.6719 6.0625 0 10.406-2.3906t7.125-7.2188v8.2969h8.9844z"/>
</defs>
<g transform="translate(343.9 969.36) scale(.1 -.1)">
<use xlink:href="#as"/>
<use x="68.298828" xlink:href="#ag"/>
<use x="129.480469" xlink:href="#g"/>
<use x="170.578125" xlink:href="#j"/>
<use x="267.990234" xlink:href="#f"/>
<use x="295.773438" xlink:href="#s"/>
<use x="334.982422" xlink:href="#s"/>
<use x="374.191406" xlink:href="#h"/>
<use x="435.470703" xlink:href="#ah"/>
<use x="498.947266" xlink:href="#t"/>
</g>
</g>
<g clip-path="url(#a)">
<defs>
<path id="af" d="m11.719 12.406h10.297v-8.4062l-8-15.625h-6.2969l4 15.625z"/>
</defs>
<g transform="translate(417.16 969.36) scale(.1 -.1)">
<use xlink:href="#af"/>
</g>
</g>
<g clip-path="url(#a)">
<g transform="translate(458.99 969.36) scale(.1 -.1)">
<use xlink:href="#h"/>
<use x="61.279297" xlink:href="#k"/>
<use x="89.0625" xlink:href="#t"/>
</g>
</g>
<g clip-path="url(#a)">
<defs>
<path id="y" d="m48.781 52.594v-8.4062q-3.8125 2.1094-7.6406 3.1562t-7.7344 1.0469q-8.75 0-13.594-5.5469-4.8281-5.5312-4.8281-15.547t4.8281-15.562q4.8438-5.5312 13.594-5.5312 3.9062 0 7.7344 1.0469t7.6406 3.1562v-8.3125q-3.7656-1.75-7.7969-2.625-4.0156-0.89062-8.5625-0.89062-12.359 0-19.641 7.7656-7.2656 7.7656-7.2656 20.953 0 13.375 7.3438 21.031 7.3594 7.6719 20.156 7.6719 4.1406 0 8.0938-0.85938 3.9531-0.84375 7.6719-2.5469z"/>
</defs>
<g transform="translate(506.04 969.36) scale(.1 -.1)">
<use xlink:href="#f"/>
<use x="27.783203" xlink:href="#y"/>
<use x="82.763672" xlink:href="#x"/>
</g>
</g>
<g clip-path="url(#a)">
<g transform="translate(552.42 969.36) scale(.1 -.1)">
<use xlink:href="#j"/>
<use x="97.412109" xlink:href="#f"/>
<use x="125.195312" xlink:href="#s"/>
</g>
</g>
<g clip-path="url(#a)">
<defs>
<path id="aw" d="m9.8125 72.906h9.8594v-30.812l32.719 30.812h12.703l-36.188-33.984 38.766-38.922h-12.984l-35.016 35.109v-35.109h-9.8594z"/>
<path id="ar" d="m18.109 8.2031v-29h-9.0312v75.484h9.0312v-8.2969q2.8438 4.875 7.1562 7.2344 4.3281 2.375 10.328 2.375 9.9688 0 16.188-7.9062 6.2344-7.9062 6.2344-20.797t-6.2344-20.812q-6.2188-7.9062-16.188-7.9062-6 0-10.328 2.375-4.3125 2.375-7.1562 7.25zm30.578 19.094q0 9.9062-4.0781 15.547t-11.203 5.6406q-7.1406 0-11.219-5.6406t-4.0781-15.547 4.0781-15.547 11.219-5.6406q7.125 0 11.203 5.6406t4.0781 15.547z"/>
</defs>
<g transform="translate(588.84 969.36) scale(.1 -.1)">
<use xlink:href="#aw"/>
<use x="65.560547" xlink:href="#h"/>
<use x="126.839844" xlink:href="#ar"/>
<use x="190.316406" xlink:href="#f"/>
<use x="218.099609" xlink:href="#s"/>
<use x="257.308594" xlink:href="#aj"/>
<use x="318.587891" xlink:href="#i"/>
</g>
</g>
<g clip-path="url(#a)">
<defs>
<path id="at" d="m9.8125 72.906h13.281l32.328-60.984v60.984h9.5625v-72.906h-13.281l-32.312 60.984v-60.984h-9.5781z"/>
</defs>
<g transform="translate(640.49 969.36) scale(.1 -.1)">
<use xlink:href="#at"/>
<use x="74.804688" xlink:href="#d"/>
<use x="136.328125" xlink:href="#j"/>
<use x="233.740234" xlink:href="#ag"/>
</g>
</g>
<g clip-path="url(#a)">
<defs>
<path id="al" d="m37.109 75.984v-7.4844h-8.5938q-4.8281 0-6.7188-1.9531-1.875-1.9531-1.875-7.0312v-4.8281h14.797v-6.9844h-14.797v-47.703h-9.0312v47.703h-8.5938v6.9844h8.5938v3.8125q0 9.125 4.25 13.297 4.25 4.1875 13.469 4.1875z"/>
</defs>
<g transform="translate(694.54 969.36) scale(.1 -.1)">
<use xlink:href="#h"/>
<use x="61.279297" xlink:href="#aq"/>
<use x="124.658203" xlink:href="#al"/>
</g>
</g>
<g clip-path="url(#a)">
<g transform="translate(741.52 969.36) scale(.1 -.1)">
<use xlink:href="#u"/>
<use x="63.476562" xlink:href="#d"/>
<use x="125" xlink:href="#g"/>
</g>
</g>
<g clip-path="url(#a)">
<g transform="translate(773.99 969.36) scale(.1 -.1)">
<use xlink:href="#ai"/>
<use x="60.302734" xlink:href="#k"/>
<use x="88.085938" xlink:href="#h"/>
<use x="149.365234" xlink:href="#s"/>
<use x="188.574219" xlink:href="#s"/>
<use x="227.783203" xlink:href="#al"/>
<use x="262.988281" xlink:href="#ag"/>
<use x="324.169922" xlink:href="#g"/>
<use x="365.267578" xlink:href="#j"/>
</g>
</g>
<g clip-path="url(#a)">
<defs>
<path id="az" d="m5.5156 54.688h42.672v-8.2031l-33.781-39.312h33.781v-7.1719h-43.891v8.2031l33.797 39.312h-32.578z"/>
</defs>
<g transform="translate(809.29 969.36) scale(.1 -.1)">
<use xlink:href="#t"/>
<use x="52.099609" xlink:href="#ar"/>
<use x="115.576172" xlink:href="#h"/>
<use x="176.855469" xlink:href="#az"/>
<use x="229.345703" xlink:href="#f"/>
<use x="257.128906" xlink:href="#d"/>
<use x="318.652344" xlink:href="#g"/>
<use x="359.734375" xlink:href="#d"/>
<use x="421.257812" xlink:href="#i"/>
<use x="484.636719" xlink:href="#ah"/>
<use x="548.113281" xlink:href="#f"/>
<use x="575.896484" xlink:href="#i"/>
<use x="639.275391" xlink:href="#ah"/>
</g>
</g>
<g clip-path="url(#a)">
<g transform="translate(890.13 969.36) scale(.1 -.1)">
<use xlink:href="#af"/>
</g>
</g>
<g clip-path="url(#a)">
<g transform="translate(923.93 969.36) scale(.1 -.1)">
<use xlink:href="#al"/>
<use x="35.205078" xlink:href="#g"/>
<use x="76.318359" xlink:href="#h"/>
<use x="137.597656" xlink:href="#ah"/>
<use x="201.074219" xlink:href="#s"/>
<use x="240.283203" xlink:href="#d"/>
</g>
</g>
<g clip-path="url(#a)">
<g transform="translate(981.18 969.36) scale(.1 -.1)">
<use xlink:href="#d"/>
<use x="61.523438" xlink:href="#g"/>
</g>
</g>
<g clip-path="url(#a)">
<g transform="translate(1021.4 969.36) scale(.1 -.1)">
<use xlink:href="#j"/>
<use x="97.412109" xlink:href="#f"/>
<use x="125.195312" xlink:href="#y"/>
<use x="180.175781" xlink:href="#x"/>
</g>
</g>
<g clip-path="url(#a)">
<g transform="translate(1079.3 969.36) scale(.1 -.1)">
<use xlink:href="#af"/>
</g>
</g>
<g clip-path="url(#a)">
<defs>
<path id="am" d="m48.688 27.297q0 9.9062-4.0781 15.547t-11.203 5.6406q-7.1406 0-11.219-5.6406t-4.0781-15.547 4.0781-15.547 11.219-5.6406q7.125 0 11.203 5.6406t4.0781 15.547zm-30.578 19.094q2.8438 4.875 7.1562 7.2344 4.3281 2.375 10.328 2.375 9.9688 0 16.188-7.9062 6.2344-7.9062 6.2344-20.797t-6.2344-20.812q-6.2188-7.9062-16.188-7.9062-6 0-10.328 2.375-4.3125 2.375-7.1562 7.25v-8.2031h-9.0312v75.984h9.0312z"/>
</defs>
<g transform="translate(1122 969.36) scale(.1 -.1)">
<use xlink:href="#ag"/>
<use x="61.181641" xlink:href="#am"/>
</g>
</g>
<g clip-path="url(#a)">
<g transform="translate(1168.2 969.36) scale(.1 -.1)">
<use xlink:href="#f"/>
<use x="27.783203" xlink:href="#y"/>
<use x="82.763672" xlink:href="#x"/>
</g>
</g>
<g clip-path="url(#a)">
<g transform="translate(1215.2 969.36) scale(.1 -.1)">
<use xlink:href="#u"/>
<use x="63.476562" xlink:href="#f"/>
<use x="91.259766" xlink:href="#d"/>
</g>
</g>
<g clip-path="url(#a)">
<defs>
<path id="ba" d="m2.9844 54.688h9.5156l17.094-45.891 17.094 45.891h9.5156l-20.516-54.688h-12.203z"/>
</defs>
<g transform="translate(1233.4 969.36) scale(.1 -.1)">
<use xlink:href="#ba"/>
<use x="59.179688" xlink:href="#d"/>
<use x="120.703125" xlink:href="#g"/>
<use x="161.816406" xlink:href="#t"/>
<use x="213.916016" xlink:href="#y"/>
<use x="268.896484" xlink:href="#x"/>
<use x="332.275391" xlink:href="#f"/>
<use x="360.058594" xlink:href="#d"/>
<use x="421.582031" xlink:href="#u"/>
<use x="485.058594" xlink:href="#d"/>
<use x="546.582031" xlink:href="#i"/>
<use x="609.960938" xlink:href="#d"/>
<use x="671.484375" xlink:href="#i"/>
</g>
</g>
<g clip-path="url(#a)">
<defs>
<path id="ap" d="m59.516 10.406v19.578h-16.109v8.1094h25.875v-31.312q-5.7031-4.0469-12.594-6.125-6.875-2.0781-14.688-2.0781-17.094 0-26.75 9.9844-9.6406 10-9.6406 27.812 0 17.875 9.6406 27.859 9.6562 9.9844 26.75 9.9844 7.125 0 13.547-1.7656 6.4219-1.75 11.844-5.1719v-10.5q-5.4688 4.6406-11.625 6.9844t-12.938 2.3438q-13.391 0-20.109-7.4688-6.7031-7.4688-6.7031-22.266 0-14.75 6.7031-22.219 6.7188-7.4688 20.109-7.4688 5.2188 0 9.3125 0.90625 4.1094 0.90625 7.375 2.8125z"/>
</defs>
<g transform="translate(1302.2 969.36) scale(.1 -.1)">
<use xlink:href="#ap"/>
<use x="77.490234" xlink:href="#g"/>
<use x="118.603516" xlink:href="#h"/>
<use x="179.882812" xlink:href="#u"/>
<use x="243.359375" xlink:href="#d"/>
</g>
</g>
<g clip-path="url(#a)">
<g transform="translate(1356.4 969.36) scale(.1 -.1)">
<use xlink:href="#u"/>
<use x="63.476562" xlink:href="#d"/>
<use x="125" xlink:href="#g"/>
</g>
</g>
<g clip-path="url(#a)">
<defs>
<path id="ay" d="m19.672 64.797v-56.688h11.922q15.094 0 22.094 6.8281 7 6.8438 7 21.594 0 14.641-7 21.453t-22.094 6.8125zm-9.8594 8.1094h20.266q21.188 0 31.094-8.8125 9.9219-8.8125 9.9219-27.562 0-18.859-9.9688-27.703-9.9531-8.8281-31.047-8.8281h-20.266z"/>
</defs>
<g transform="translate(1389.3 969.36) scale(.1 -.1)">
<use xlink:href="#ay"/>
<use x="77.001953" xlink:href="#f"/>
<use x="104.785156" xlink:href="#y"/>
<use x="159.765625" xlink:href="#x"/>
<use x="223.144531" xlink:href="#s"/>
<use x="262.353516" xlink:href="#x"/>
<use x="325.732422" xlink:href="#d"/>
<use x="387.255859" xlink:href="#f"/>
<use x="415.039062" xlink:href="#s"/>
</g>
</g>
<g clip-path="url(#a)">
<defs>
<path id="bb" d="m9.0781 75.984h9.0312v-44.875l26.812 23.578h11.469l-29-25.578 30.234-29.109h-11.719l-27.797 26.703v-26.703h-9.0312z"/>
</defs>
<g transform="translate(1443.9 969.36) scale(.1 -.1)">
<use xlink:href="#bb"/>
<use x="57.863281" xlink:href="#d"/>
<use x="119.386719" xlink:href="#i"/>
<use x="182.765625" xlink:href="#i"/>
<use x="246.144531" xlink:href="#d"/>
</g>
</g>
<g clip-path="url(#a)">
<g transform="translate(1505 969.36) scale(.1 -.1)">
<use xlink:href="#af"/>
</g>
</g>
<g clip-path="url(#a)">
<g transform="translate(1536.3 969.36) scale(.1 -.1)">
<use xlink:href="#ak"/>
<use x="81.787109" xlink:href="#d"/>
<use x="143.310547" xlink:href="#k"/>
<use x="171.09375" xlink:href="#y"/>
<use x="226.074219" xlink:href="#x"/>
<use x="289.453125" xlink:href="#d"/>
</g>
</g>
<g clip-path="url(#a)">
<g transform="translate(1593.5 969.36) scale(.1 -.1)">
<use xlink:href="#u"/>
<use x="63.476562" xlink:href="#f"/>
<use x="91.259766" xlink:href="#d"/>
</g>
</g>
<g clip-path="url(#a)">
<g transform="translate(1624 969.36) scale(.1 -.1)">
<use xlink:href="#ap"/>
<use x="77.490234" xlink:href="#d"/>
<use x="139.013672" xlink:href="#ak"/>
<use x="220.800781" xlink:href="#aj"/>
<use x="282.080078" xlink:href="#t"/>
<use x="334.179688" xlink:href="#t"/>
<use x="386.279297" xlink:href="#d"/>
<use x="447.802734" xlink:href="#g"/>
</g>
</g>
<g clip-path="url(#a)">
<g transform="translate(1686.9 969.36) scale(.1 -.1)">
<use xlink:href="#u"/>
<use x="63.476562" xlink:href="#d"/>
<use x="125" xlink:href="#t"/>
</g>
</g>
<g clip-path="url(#a)">
<defs>
<path id="au" d="m9.8125 72.906h14.703l18.594-49.609 18.703 49.609h14.703v-72.906h-9.625v64.016l-18.797-50h-9.9062l-18.797 50v-64.016h-9.5781z"/>
</defs>
<g transform="translate(1724.9 969.36) scale(.1 -.1)">
<use xlink:href="#au"/>
<use x="86.279297" xlink:href="#d"/>
<use x="147.802734" xlink:href="#d"/>
<use x="209.326172" xlink:href="#g"/>
<use x="250.408203" xlink:href="#d"/>
<use x="311.931641" xlink:href="#t"/>
</g>
</g>
<g clip-path="url(#a)">
<g transform="translate(1774.5 969.36) scale(.1 -.1)">
<use xlink:href="#am"/>
<use x="63.476562" xlink:href="#f"/>
<use x="91.259766" xlink:href="#d"/>
<use x="152.783203" xlink:href="#s"/>
<use x="191.992188" xlink:href="#d"/>
<use x="253.515625" xlink:href="#i"/>
</g>
</g>
<g clip-path="url(#a)">
<g transform="translate(1836.1 969.36) scale(.1 -.1)">
<use xlink:href="#e"/>
</g>
</g>
<g clip-path="url(#a)">
<g transform="translate(668.65 49.49) scale(.1 -.1)">
<use xlink:href="#c"/>
<use x="63.623047" xlink:href="#e"/>
<use x="95.410156" xlink:href="#c"/>
</g>
</g>
<g clip-path="url(#a)">
<defs>
<path id="o" d="m19.188 8.2969h34.422v-8.2969h-46.281v8.2969q5.6094 5.8125 15.297 15.594 9.7031 9.7969 12.188 12.641 4.7344 5.3125 6.6094 9 1.8906 3.6875 1.8906 7.25 0 5.8125-4.0781 9.4688-4.0781 3.6719-10.625 3.6719-4.6406 0-9.7969-1.6094-5.1406-1.6094-11-4.8906v9.9688q5.9531 2.3906 11.125 3.6094 5.1875 1.2188 9.4844 1.2188 11.328 0 18.062-5.6719 6.7344-5.6562 6.7344-15.125 0-4.5-1.6875-8.5312-1.6719-4.0156-6.125-9.4844-1.2188-1.4219-7.7656-8.1875-6.5312-6.7656-18.453-18.922z"/>
</defs>
<g transform="translate(919.67 174.33) scale(.1 -.1)">
<use xlink:href="#c"/>
<use x="63.623047" xlink:href="#e"/>
<use x="95.410156" xlink:href="#o"/>
</g>
</g>
<g clip-path="url(#a)">
<defs>
<path id="n" d="m40.578 39.312q7.0781-1.5156 11.047-6.3125 3.9844-4.7812 3.9844-11.812 0-10.781-7.4219-16.703-7.4219-5.9062-21.094-5.9062-4.5781 0-9.4375 0.90625t-10.031 2.7188v9.5156q4.0938-2.3906 8.9688-3.6094 4.8906-1.2188 10.219-1.2188 9.2656 0 14.125 3.6562t4.8594 10.641q0 6.4531-4.5156 10.078-4.5156 3.6406-12.562 3.6406h-8.5v8.1094h8.8906q7.2656 0 11.125 2.9062t3.8594 8.375q0 5.6094-3.9844 8.6094-3.9688 3.0156-11.391 3.0156-4.0625 0-8.7031-0.89062-4.6406-0.875-10.203-2.7188v8.7812q5.625 1.5625 10.531 2.3438t9.25 0.78125q11.234 0 17.766-5.1094 6.5469-5.0938 6.5469-13.781 0-6.0625-3.4688-10.234t-9.8594-5.7812z"/>
</defs>
<g transform="translate(458.09 860.48) scale(.1 -.1)">
<use xlink:href="#c"/>
<use x="63.623047" xlink:href="#e"/>
<use x="95.410156" xlink:href="#n"/>
</g>
</g>
<g clip-path="url(#a)">
<defs>
<path id="m" d="m37.797 64.312-24.906-38.922h24.906zm-2.5938 8.5938h12.406v-47.516h10.406v-8.2031h-10.406v-17.188h-9.8125v17.188h-32.906v9.5156z"/>
</defs>
<g transform="translate(670.93 641.21) scale(.1 -.1)">
<use xlink:href="#c"/>
<use x="63.623047" xlink:href="#e"/>
<use x="95.410156" xlink:href="#m"/>
</g>
</g>
<g clip-path="url(#a)">
<defs>
<path id="ac" d="m31.781 34.625q-7.0312 0-11.062-3.7656-4.0156-3.7656-4.0156-10.344 0-6.5938 4.0156-10.359 4.0312-3.7656 11.062-3.7656t11.078 3.7812q4.0625 3.7969 4.0625 10.344 0 6.5781-4.0312 10.344-4.0156 3.7656-11.109 3.7656zm-9.8594 4.1875q-6.3438 1.5625-9.8906 5.9062-3.5312 4.3594-3.5312 10.609 0 8.7344 6.2188 13.812 6.2344 5.0781 17.062 5.0781 10.891 0 17.094-5.0781t6.2031-13.812q0-6.25-3.5469-10.609-3.5312-4.3438-9.8281-5.9062 7.125-1.6562 11.094-6.5 3.9844-4.8281 3.9844-11.797 0-10.609-6.4688-16.281-6.4688-5.6562-18.531-5.6562-12.047 0-18.531 5.6562-6.4688 5.6719-6.4688 16.281 0 6.9688 4 11.797 4.0156 4.8438 11.141 6.5zm-3.6094 15.578q0-5.6562 3.5312-8.8281 3.5469-3.1719 9.9375-3.1719 6.3594 0 9.9375 3.1719 3.5938 3.1719 3.5938 8.8281 0 5.6719-3.5938 8.8438-3.5781 3.1719-9.9375 3.1719-6.3906 0-9.9375-3.1719-3.5312-3.1719-3.5312-8.8438z"/>
</defs>
<g transform="translate(505.39 860.48) scale(.1 -.1)">
<use xlink:href="#c"/>
<use x="63.623047" xlink:href="#e"/>
<use x="95.410156" xlink:href="#ac"/>
</g>
</g>
<g clip-path="url(#a)">
<defs>
<path id="aa" d="m10.984 1.5156v8.9844q3.7188-1.7656 7.5156-2.6875 3.8125-0.92188 7.4844-0.92188 9.7656 0 14.906 6.5625 5.1562 6.5625 5.8906 19.953-2.8281-4.2031-7.1875-6.4531-4.3438-2.25-9.6094-2.25-10.938 0-17.312 6.6094-6.375 6.625-6.375 18.109 0 11.219 6.6406 18 6.6406 6.7969 17.672 6.7969 12.656 0 19.312-9.7031 6.6719-9.6875 6.6719-28.141 0-17.234-8.1875-27.516-8.1719-10.281-21.984-10.281-3.7188 0-7.5312 0.73438-3.7969 0.73438-7.9062 2.2031zm19.625 30.906q6.6406 0 10.516 4.5312 3.8906 4.5469 3.8906 12.469 0 7.8594-3.8906 12.422-3.875 4.5625-10.516 4.5625t-10.516-4.5625-3.875-12.422q0-7.9219 3.875-12.469 3.875-4.5312 10.516-4.5312z"/>
</defs>
<g transform="translate(599.99 751.61) scale(.1 -.1)">
<use xlink:href="#c"/>
<use x="63.623047" xlink:href="#e"/>
<use x="95.410156" xlink:href="#aa"/>
</g>
</g>
<g clip-path="url(#a)">
<defs>
<path id="ab" d="m31.781 66.406q-7.6094 0-11.453-7.5-3.8281-7.4844-3.8281-22.531 0-14.984 3.8281-22.484 3.8438-7.5 11.453-7.5 7.6719 0 11.5 7.5 3.8438 7.5 3.8438 22.484 0 15.047-3.8438 22.531-3.8281 7.5-11.5 7.5zm0 7.8125q12.266 0 18.734-9.7031 6.4688-9.6875 6.4688-28.141 0-18.406-6.4688-28.109-6.4688-9.6875-18.734-9.6875-12.25 0-18.719 9.6875-6.4688 9.7031-6.4688 28.109 0 18.453 6.4688 28.141 6.4688 9.7031 18.719 9.7031z"/>
</defs>
<g transform="translate(738.7 751.61) scale(.1 -.1)">
<use xlink:href="#c"/>
<use x="63.623047" xlink:href="#e"/>
<use x="95.410156" xlink:href="#c"/>
<use x="159.033203" xlink:href="#ab"/>
</g>
</g>
<g clip-path="url(#a)">
<g transform="translate(833.29 860.48) scale(.1 -.1)">
<use xlink:href="#c"/>
<use x="63.623047" xlink:href="#e"/>
<use x="95.410156" xlink:href="#c"/>
<use x="159.033203" xlink:href="#c"/>
</g>
</g>
<g clip-path="url(#a)">
<g transform="translate(691.4 860.48) scale(.1 -.1)">
<use xlink:href="#c"/>
<use x="63.623047" xlink:href="#e"/>
<use x="95.410156" xlink:href="#c"/>
<use x="159.033203" xlink:href="#o"/>
</g>
</g>
<g clip-path="url(#a)">
<g transform="translate(738.7 860.48) scale(.1 -.1)">
<use xlink:href="#c"/>
<use x="63.623047" xlink:href="#e"/>
<use x="95.410156" xlink:href="#c"/>
<use x="159.033203" xlink:href="#n"/>
</g>
</g>
<g clip-path="url(#a)">
<g transform="translate(785.99 860.48) scale(.1 -.1)">
<use xlink:href="#c"/>
<use x="63.623047" xlink:href="#e"/>
<use x="95.410156" xlink:href="#c"/>
<use x="159.033203" xlink:href="#m"/>
</g>
</g>
<g clip-path="url(#a)">
<g transform="translate(549.51 860.48) scale(.1 -.1)">
<use xlink:href="#c"/>
<use x="63.623047" xlink:href="#e"/>
<use x="95.410156" xlink:href="#c"/>
<use x="159.033203" xlink:href="#p"/>
</g>
</g>
<g clip-path="url(#a)">
<defs>
<path id="ae" d="m33.016 40.375q-6.6406 0-10.531-4.5469-3.875-4.5312-3.875-12.438 0-7.8594 3.875-12.438 3.8906-4.5625 10.531-4.5625t10.516 4.5625q3.875 4.5781 3.875 12.438 0 7.9062-3.875 12.438-3.875 4.5469-10.516 4.5469zm19.578 30.922v-8.9844q-3.7188 1.75-7.5 2.6719-3.7812 0.9375-7.5 0.9375-9.7656 0-14.922-6.5938-5.1406-6.5938-5.875-19.922 2.875 4.25 7.2188 6.5156 4.3594 2.2656 9.5781 2.2656 10.984 0 17.359-6.6719 6.375-6.6562 6.375-18.125 0-11.234-6.6406-18.031-6.6406-6.7812-17.672-6.7812-12.656 0-19.344 9.6875-6.6875 9.7031-6.6875 28.109 0 17.281 8.2031 27.562t22.016 10.281q3.7188 0 7.5-0.73438t7.8906-2.1875z"/>
</defs>
<g transform="translate(596.8 860.48) scale(.1 -.1)">
<use xlink:href="#c"/>
<use x="63.623047" xlink:href="#e"/>
<use x="95.410156" xlink:href="#c"/>
<use x="159.033203" xlink:href="#ae"/>
</g>
</g>
<g clip-path="url(#a)">
<defs>
<path id="ad" d="m8.2031 72.906h46.875v-4.2031l-26.469-68.703h-10.297l24.906 64.594h-35.016z"/>
</defs>
<g transform="translate(644.1 860.48) scale(.1 -.1)">
<use xlink:href="#c"/>
<use x="63.623047" xlink:href="#e"/>
<use x="95.410156" xlink:href="#c"/>
<use x="159.033203" xlink:href="#ad"/>
</g>
</g>
<g clip-path="url(#a)">
<g transform="translate(186.9 641.21) scale(.1 -.1)">
<use xlink:href="#c"/>
<use x="63.623047" xlink:href="#e"/>
<use x="95.410156" xlink:href="#c"/>
<use x="159.033203" xlink:href="#ac"/>
</g>
</g>
<g clip-path="url(#a)">
<g transform="translate(927.89 860.48) scale(.1 -.1)">
<use xlink:href="#c"/>
<use x="63.623047" xlink:href="#e"/>
<use x="95.410156" xlink:href="#c"/>
<use x="159.033203" xlink:href="#aa"/>
</g>
</g>
<g clip-path="url(#a)">
<g transform="translate(975.18 860.48) scale(.1 -.1)">
<use xlink:href="#c"/>
<use x="63.623047" xlink:href="#e"/>
<use x="95.410156" xlink:href="#o"/>
<use x="159.033203" xlink:href="#ab"/>
</g>
</g>
<g clip-path="url(#a)">
<g transform="translate(1022.5 860.48) scale(.1 -.1)">
<use xlink:href="#c"/>
<use x="63.623047" xlink:href="#e"/>
<use x="95.410156" xlink:href="#o"/>
<use x="159.033203" xlink:href="#c"/>
</g>
</g>
<g clip-path="url(#a)">
<g transform="translate(1316.7 295.6) scale(.1 -.1)">
<use xlink:href="#c"/>
<use x="63.623047" xlink:href="#e"/>
<use x="95.410156" xlink:href="#o"/>
<use x="159.033203" xlink:href="#o"/>
</g>
</g>
<g clip-path="url(#a)">
<g transform="translate(1117.1 860.48) scale(.1 -.1)">
<use xlink:href="#c"/>
<use x="63.623047" xlink:href="#e"/>
<use x="95.410156" xlink:href="#o"/>
<use x="159.033203" xlink:href="#m"/>
</g>
</g>
<g clip-path="url(#a)">
<g transform="translate(1164.4 860.48) scale(.1 -.1)">
<use xlink:href="#c"/>
<use x="63.623047" xlink:href="#e"/>
<use x="95.410156" xlink:href="#o"/>
<use x="159.033203" xlink:href="#p"/>
</g>
</g>
<g clip-path="url(#a)">
<g transform="translate(1358.6 413.61) scale(.1 -.1)">
<use xlink:href="#c"/>
<use x="63.623047" xlink:href="#e"/>
<use x="95.410156" xlink:href="#o"/>
<use x="159.033203" xlink:href="#ae"/>
</g>
</g>
<g clip-path="url(#a)">
<g transform="translate(1448.2 860.48) scale(.1 -.1)">
<use xlink:href="#c"/>
<use x="63.623047" xlink:href="#e"/>
<use x="95.410156" xlink:href="#o"/>
<use x="159.033203" xlink:href="#ad"/>
</g>
</g>
<g clip-path="url(#a)">
<g transform="translate(1211.7 860.48) scale(.1 -.1)">
<use xlink:href="#c"/>
<use x="63.623047" xlink:href="#e"/>
<use x="95.410156" xlink:href="#o"/>
<use x="159.033203" xlink:href="#aa"/>
</g>
</g>
<g clip-path="url(#a)">
<g transform="translate(1259 860.48) scale(.1 -.1)">
<use xlink:href="#c"/>
<use x="63.623047" xlink:href="#e"/>
<use x="95.410156" xlink:href="#n"/>
<use x="159.033203" xlink:href="#ab"/>
</g>
</g>
<g clip-path="url(#a)">
<g transform="translate(1306.3 860.48) scale(.1 -.1)">
<use xlink:href="#c"/>
<use x="63.623047" xlink:href="#e"/>
<use x="95.410156" xlink:href="#n"/>
<use x="159.033203" xlink:href="#c"/>
</g>
</g>
<g clip-path="url(#a)">
<g transform="translate(1377.2 751.61) scale(.1 -.1)">
<use xlink:href="#c"/>
<use x="63.623047" xlink:href="#e"/>
<use x="95.410156" xlink:href="#n"/>
<use x="159.033203" xlink:href="#o"/>
</g>
</g>
<g clip-path="url(#a)">
<g transform="translate(1638.9 528.7) scale(.1 -.1)">
<use xlink:href="#c"/>
<use x="63.623047" xlink:href="#e"/>
<use x="95.410156" xlink:href="#n"/>
<use x="159.033203" xlink:href="#n"/>
</g>
</g>
<g clip-path="url(#a)">
<g transform="translate(1542.7 860.48) scale(.1 -.1)">
<use xlink:href="#c"/>
<use x="63.623047" xlink:href="#e"/>
<use x="95.410156" xlink:href="#n"/>
<use x="159.033203" xlink:href="#m"/>
</g>
</g>
<g clip-path="url(#a)">
<g transform="translate(1645.2 641.21) scale(.1 -.1)">
<use xlink:href="#c"/>
<use x="63.623047" xlink:href="#e"/>
<use x="95.410156" xlink:href="#n"/>
<use x="159.033203" xlink:href="#p"/>
</g>
</g>
<g clip-path="url(#a)">
<g transform="translate(1779.2 860.48) scale(.1 -.1)">
<use xlink:href="#c"/>
<use x="63.623047" xlink:href="#e"/>
<use x="95.410156" xlink:href="#n"/>
<use x="159.033203" xlink:href="#ae"/>
</g>
</g>
<g clip-path="url(#a)">
<g transform="translate(1590 860.48) scale(.1 -.1)">
<use xlink:href="#c"/>
<use x="63.623047" xlink:href="#e"/>
<use x="95.410156" xlink:href="#n"/>
<use x="159.033203" xlink:href="#ad"/>
</g>
</g>
<g clip-path="url(#a)">
<g transform="translate(1637.3 860.48) scale(.1 -.1)">
<use xlink:href="#c"/>
<use x="63.623047" xlink:href="#e"/>
<use x="95.410156" xlink:href="#n"/>
<use x="159.033203" xlink:href="#ac"/>
</g>
</g>
<g clip-path="url(#a)">
<g transform="translate(1708.3 751.61) scale(.1 -.1)">
<use xlink:href="#c"/>
<use x="63.623047" xlink:href="#e"/>
<use x="95.410156" xlink:href="#n"/>
<use x="159.033203" xlink:href="#aa"/>
</g>
</g>
<g clip-path="url(#a)">
<g transform="translate(1684.6 860.48) scale(.1 -.1)">
<use xlink:href="#c"/>
<use x="63.623047" xlink:href="#e"/>
<use x="95.410156" xlink:href="#m"/>
<use x="159.033203" xlink:href="#ab"/>
</g>
</g>
<g clip-path="url(#a)">
<g transform="translate(1731.9 860.48) scale(.1 -.1)">
<use xlink:href="#c"/>
<use x="63.623047" xlink:href="#e"/>
<use x="95.410156" xlink:href="#m"/>
<use x="159.033203" xlink:href="#c"/>
</g>
</g>
<g clip-path="url(#a)">
<g transform="translate(1353.6 860.48) scale(.1 -.1)">
<use xlink:href="#c"/>
<use x="63.623047" xlink:href="#e"/>
<use x="95.410156" xlink:href="#m"/>
<use x="159.033203" xlink:href="#o"/>
</g>
</g>
<g clip-path="url(#a)">
<g transform="translate(1400.9 860.48) scale(.1 -.1)">
<use xlink:href="#c"/>
<use x="63.623047" xlink:href="#e"/>
<use x="95.410156" xlink:href="#m"/>
<use x="159.033203" xlink:href="#n"/>
</g>
</g>
<g clip-path="url(#a)">
<g transform="translate(76.536 860.48) scale(.1 -.1)">
<use xlink:href="#c"/>
<use x="63.623047" xlink:href="#e"/>
<use x="95.410156" xlink:href="#m"/>
<use x="159.033203" xlink:href="#m"/>
</g>
</g>
<g clip-path="url(#a)">
<g transform="translate(171.13 751.61) scale(.1 -.1)">
<use xlink:href="#c"/>
<use x="63.623047" xlink:href="#e"/>
<use x="95.410156" xlink:href="#m"/>
<use x="159.033203" xlink:href="#p"/>
</g>
</g>
<g clip-path="url(#a)">
<g transform="translate(313.02 751.61) scale(.1 -.1)">
<use xlink:href="#c"/>
<use x="63.623047" xlink:href="#e"/>
<use x="95.410156" xlink:href="#m"/>
<use x="159.033203" xlink:href="#ae"/>
</g>
</g>
<g clip-path="url(#a)">
<g transform="translate(171.13 860.48) scale(.1 -.1)">
<use xlink:href="#c"/>
<use x="63.623047" xlink:href="#e"/>
<use x="95.410156" xlink:href="#m"/>
<use x="159.033203" xlink:href="#ad"/>
</g>
</g>
<g clip-path="url(#a)">
<g transform="translate(265.72 860.48) scale(.1 -.1)">
<use xlink:href="#c"/>
<use x="63.623047" xlink:href="#e"/>
<use x="95.410156" xlink:href="#m"/>
<use x="159.033203" xlink:href="#ac"/>
</g>
</g>
<g clip-path="url(#a)">
<g transform="translate(313.02 860.48) scale(.1 -.1)">
<use xlink:href="#c"/>
<use x="63.623047" xlink:href="#e"/>
<use x="95.410156" xlink:href="#m"/>
<use x="159.033203" xlink:href="#aa"/>
</g>
</g>
<g clip-path="url(#a)">
<g transform="translate(360.32 860.48) scale(.1 -.1)">
<use xlink:href="#c"/>
<use x="63.623047" xlink:href="#e"/>
<use x="95.410156" xlink:href="#p"/>
<use x="159.033203" xlink:href="#ab"/>
</g>
</g>
<g clip-path="url(#a)">
<g transform="translate(407.62 860.48) scale(.1 -.1)">
<use xlink:href="#c"/>
<use x="63.623047" xlink:href="#e"/>
<use x="95.410156" xlink:href="#p"/>
<use x="159.033203" xlink:href="#c"/>
</g>
</g>
<g clip-path="url(#a)">
<g transform="translate(880.59 860.48) scale(.1 -.1)">
<use xlink:href="#c"/>
<use x="63.623047" xlink:href="#e"/>
<use x="95.410156" xlink:href="#p"/>
<use x="159.033203" xlink:href="#o"/>
</g>
</g>
<g clip-path="url(#a)">
<g transform="translate(1069.8 860.48) scale(.1 -.1)">
<use xlink:href="#c"/>
<use x="63.623047" xlink:href="#e"/>
<use x="95.410156" xlink:href="#p"/>
<use x="159.033203" xlink:href="#n"/>
</g>
</g>
<g clip-path="url(#a)">
<g transform="translate(1495.5 860.48) scale(.1 -.1)">
<use xlink:href="#c"/>
<use x="63.623047" xlink:href="#e"/>
<use x="95.410156" xlink:href="#p"/>
<use x="159.033203" xlink:href="#m"/>
</g>
</g>
<g clip-path="url(#a)">
<g transform="translate(1826.5 860.48) scale(.1 -.1)">
<use xlink:href="#c"/>
<use x="63.623047" xlink:href="#e"/>
<use x="95.410156" xlink:href="#p"/>
<use x="159.033203" xlink:href="#p"/>
</g>
</g>
<defs>
<clipPath id="a">
<rect width="1925.3" height="1013.3"/>
</clipPath>
</defs>
</svg>
