<?xml version="1.0" encoding="UTF-8"?>
<!DOCTYPE svg  PUBLIC '-//W3C//DTD SVG 1.1//EN'  'http://www.w3.org/Graphics/SVG/1.1/DTD/svg11.dtd'>
<svg width="1266.7pt" height="666.67pt" version="1.1" viewBox="0 0 1266.7 666.67" xmlns="http://www.w3.org/2000/svg" xmlns:xlink="http://www.w3.org/1999/xlink">
<defs>
<style type="text/css">*{stroke-linecap:butt;stroke-linejoin:round;}</style>
</defs>
<path d="m0 666.67h1266.7v-666.67h-1266.7z" fill="#fff"/>
<g fill="none" stroke="#000">
<path d="m509.38 30.303-405.96 101.93" clip-path="url(#a)"/>
<path d="m509.38 30.303 104.1 506.84" clip-path="url(#a)"/>
<path d="m509.38 30.303 257.31 101.93" clip-path="url(#a)"/>
<path d="m509.38 30.303 44.543 506.84" clip-path="url(#a)"/>
<path d="m103.42 132.23-45.843 404.91" clip-path="url(#a)"/>
<path d="m103.42 132.23-29.298 404.91" clip-path="url(#a)"/>
<path d="m103.42 132.23-6.1353 404.91" clip-path="url(#a)"/>
<path d="m103.42 132.23 81.276 101.73" clip-path="url(#a)"/>
<path d="m613.48 537.15v99.216" clip-path="url(#a)"/>
<path d="m766.68 132.23 133.02 404.91" clip-path="url(#a)"/>
<path d="m766.68 132.23-24.155 404.91" clip-path="url(#a)"/>
<path d="m766.68 132.23 157.84 101.73" clip-path="url(#a)"/>
<path d="m766.68 132.23-709.11 404.91" clip-path="url(#a)" stroke-dasharray="3.7,1.6"/>
<path d="m766.68 132.23 442.41 404.91" clip-path="url(#a)"/>
<path d="m899.7 537.15-223.35 99.216" clip-path="url(#a)"/>
<path d="m899.7 537.15 223.35 99.216" clip-path="url(#a)"/>
<path d="m742.53 537.15v99.216" clip-path="url(#a)"/>
<path d="m924.52 233.96-76.106 202.59" clip-path="url(#a)"/>
<path d="m924.52 233.96 76.106 101.47" clip-path="url(#a)"/>
<path d="m848.42 436.55-36.398 100.6" clip-path="url(#a)"/>
<path d="m848.42 436.55 36.398 100.6" clip-path="url(#a)"/>
<path d="m1000.6 335.43v101.12" clip-path="url(#a)"/>
<path d="m1000.6 436.55-39.707 100.6" clip-path="url(#a)"/>
<path d="m1000.6 436.55 39.707 100.6" clip-path="url(#a)"/>
<path d="m960.92 537.15v99.216" clip-path="url(#a)"/>
<path d="m1040.3 537.15v99.216" clip-path="url(#a)"/>
<path d="m812.02 537.15v99.216" clip-path="url(#a)"/>
<path d="m884.81 537.15v99.216" clip-path="url(#a)"/>
<path d="m57.576 537.15v99.216" clip-path="url(#a)"/>
<path d="m74.121 537.15-6.6179 99.216" clip-path="url(#a)"/>
<path d="m74.121 537.15 6.6179 99.216" clip-path="url(#a)"/>
<path d="m97.283 537.15v99.216" clip-path="url(#a)"/>
<path d="m184.69 233.96-67.558 303.19" clip-path="url(#a)"/>
<path d="m184.69 233.96-44.395 303.19" clip-path="url(#a)"/>
<path d="m184.69 233.96-17.923 303.19" clip-path="url(#a)"/>
<path d="m184.69 233.96 118.02 101.47" clip-path="url(#a)"/>
<path d="m184.69 233.96 11.857 303.19" clip-path="url(#a)"/>
<path d="m117.14 537.15v99.216" clip-path="url(#a)"/>
<path d="m140.3 537.15v99.216" clip-path="url(#a)"/>
<path d="m166.77 537.15v99.216" clip-path="url(#a)"/>
<path d="m302.71 335.43-135.94 201.72" clip-path="url(#a)" stroke-dasharray="3.7,1.6"/>
<path d="m302.71 335.43-73.073 201.72" clip-path="url(#a)"/>
<path d="m302.71 335.43 40.535 101.12" clip-path="url(#a)"/>
<path d="m302.71 335.43 168.48 201.72" clip-path="url(#a)"/>
<path d="m229.64 537.15v99.216" clip-path="url(#a)"/>
<path d="m343.25 436.55-57.355 100.6" clip-path="url(#a)"/>
<path d="m343.25 436.55 5.5149 100.6" clip-path="url(#a)"/>
<path d="m343.25 436.55 51.84 100.6" clip-path="url(#a)"/>
<path d="m471.19 537.15-26.472 99.216" clip-path="url(#a)"/>
<path d="m471.19 537.15 26.472 99.216" clip-path="url(#a)"/>
<path d="m285.89 537.15-19.854 99.216" clip-path="url(#a)"/>
<path d="m285.89 537.15 19.854 99.216" clip-path="url(#a)"/>
<path d="m348.76 537.15v99.216" clip-path="url(#a)"/>
<path d="m395.09 537.15v99.216" clip-path="url(#a)"/>
<path d="m196.55 537.15v99.216" clip-path="url(#a)"/>
<path d="m553.92 537.15v99.216" clip-path="url(#a)"/>
<path d="m1209.1 537.15v99.216" clip-path="url(#a)"/>
</g>
<path d="m305.01 88.083 5.8351-1.4651q2.3277-0.58446 1.7433-2.9122l-1.8855-7.5094q-0.58446-2.3277-2.9122-1.7433l-5.8351 1.4651q-2.3277 0.58446-1.7433 2.9122l1.8855 7.5094q0.58446 2.3277 2.9122 1.7433z" clip-path="url(#a)" fill="#fff" stroke="#fff"/>
<g clip-path="url(#a)">
<defs>
<path id="aj" d="m9.8125 72.906h9.8594v-29.891h35.844v29.891h9.8594v-72.906h-9.8594v34.719h-35.844v-34.719h-9.8594z"/>
</defs>
<g transform="translate(304.02 84.142) rotate(-14.095) scale(.08 -.08)">
<use xlink:href="#aj"/>
</g>
</g>
<path d="m554.84 282.8 0.89684 4.3663q0.48287 2.3509 2.8338 1.868l7.5842-1.5578q2.3509-0.48287 1.868-2.8338l-0.89684-4.3663q-0.48287-2.3509-2.8338-1.868l-7.5842 1.5578q-2.3509 0.48287-1.868 2.8338z" clip-path="url(#a)" fill="#fff" stroke="#fff"/>
<g clip-path="url(#a)">
<defs>
<path id="ah" d="m9.8125 72.906h9.8594v-64.609h35.5v-8.2969h-45.359z"/>
</defs>
<g transform="translate(558.82 281.99) rotate(78.393) scale(.08 -.08)">
<use xlink:href="#ah"/>
</g>
</g>
<path d="m632.92 85.991 5.5934 2.2158q2.2313 0.88391 3.1152-1.3474l2.8515-7.1983q0.8839-2.2313-1.3474-3.1152l-5.5934-2.2157q-2.2313-0.88391-3.1152 1.3474l-2.8515 7.1983q-0.88391 2.2313 1.3474 3.1152z" clip-path="url(#a)" fill="#fff" stroke="#fff"/>
<g clip-path="url(#a)">
<g transform="translate(634.42 82.213) rotate(21.61) scale(.08 -.08)">
<use xlink:href="#aj"/>
</g>
</g>
<path d="m525.14 281.36 0.51258 5.8325q0.21011 2.3908 2.6009 2.1807l7.7128-0.67783q2.3908-0.21011 2.1807-2.6009l-0.51258-5.8325q-0.21011-2.3908-2.6009-2.1807l-7.7128 0.67783q-2.3908 0.21011-2.1807 2.6009z" clip-path="url(#a)" fill="#fff" stroke="#fff"/>
<g clip-path="url(#a)">
<defs>
<path id="y" d="m8.6875 72.906h9.9219v-44.297q0-11.719 4.2344-16.875 4.25-5.1406 13.781-5.1406 9.4688 0 13.719 5.1406 4.25 5.1562 4.25 16.875v44.297h9.9062v-45.516q0-14.25-7.0625-21.531-7.0469-7.2812-20.812-7.2812-13.828 0-20.891 7.2812-7.0469 7.2812-7.0469 21.531z"/>
</defs>
<g transform="translate(529.19 281) rotate(84.978) scale(.08 -.08)">
<use xlink:href="#y"/>
</g>
</g>
<path d="m86.421 338.11 0.61564-5.4378q0.26999-2.3848-2.1148-2.6548l-7.6934-0.87101q-2.3848-0.26999-2.6548 2.1148l-0.61564 5.4378q-0.26999 2.3848 2.1148 2.6548l7.6934 0.87101q2.3848 0.26999 2.6548-2.1148z" clip-path="url(#a)" fill="#fff" stroke="#fff"/>
<g clip-path="url(#a)">
<defs>
<path id="n" d="m34.188 63.188-13.391-36.281h26.812zm-5.5781 9.7188h11.188l27.781-72.906h-10.25l-6.6406 18.703h-32.859l-6.6406-18.703h-10.406z"/>
</defs>
<g transform="translate(82.383 337.66) rotate(-83.541) scale(.08 -.08)">
<use xlink:href="#n"/>
</g>
</g>
<path d="m94.85 337.55 0.34812-4.8112q0.1732-2.3937-2.2205-2.5669l-7.7223-0.55876q-2.3937-0.1732-2.5669 2.2205l-0.34812 4.8112q-0.1732 2.3937 2.2205 2.5669l7.7223 0.55876q2.3937 0.1732 2.5669-2.2205z" clip-path="url(#a)" fill="#fff" stroke="#fff"/>
<g clip-path="url(#a)">
<defs>
<path id="t" d="m19.672 64.797v-27.391h12.406q6.8906 0 10.641 3.5625 3.7656 3.5625 3.7656 10.156 0 6.5469-3.7656 10.109-3.75 3.5625-10.641 3.5625zm-9.8594 8.1094h22.266q12.266 0 18.531-5.5469 6.2812-5.5469 6.2812-16.234 0-10.797-6.2812-16.312-6.2656-5.5156-18.531-5.5156h-12.406v-29.297h-9.8594z"/>
</defs>
<g transform="translate(90.797 337.26) rotate(-85.862) scale(.08 -.08)">
<use xlink:href="#t"/>
</g>
</g>
<path d="m106.57 337.86 0.093327-6.1593q0.036361-2.3997-2.3634-2.4361l-7.7416-0.1173q-2.3997-0.036361-2.4361 2.3634l-0.093327 6.1593q-0.036361 2.3997 2.3634 2.4361l7.7416 0.1173q2.3997 0.036361 2.4361-2.3634z" clip-path="url(#a)" fill="#fff" stroke="#fff"/>
<g clip-path="url(#a)">
<defs>
<path id="at" d="m19.672 64.797v-56.688h11.922q15.094 0 22.094 6.8281 7 6.8438 7 21.594 0 14.641-7 21.453t-22.094 6.8125zm-9.8594 8.1094h20.266q21.188 0 31.094-8.8125 9.9219-8.8125 9.9219-27.562 0-18.859-9.9688-27.703-9.9531-8.8281-31.047-8.8281h-20.266z"/>
</defs>
<g transform="translate(102.51 337.8) rotate(-89.132) scale(.08 -.08)">
<use xlink:href="#at"/>
</g>
</g>
<path d="m137.45 184.87 3.416 4.2754q1.4981 1.875 3.3731 0.37692l6.0489-4.8329q1.875-1.4981 0.37692-3.3731l-3.416-4.2754q-1.4981-1.875-3.3731-0.37692l-6.0489 4.8329q-1.875 1.4981-0.37692 3.3731z" clip-path="url(#a)" fill="#fff" stroke="#fff"/>
<g clip-path="url(#a)">
<g transform="translate(140.62 182.34) rotate(51.376) scale(.08 -.08)">
<use xlink:href="#n"/>
</g>
</g>
<path d="m607.21 569.85v33.808q0 2.4 2.4 2.4h7.7425q2.4 0 2.4-2.4v-33.808q0-2.4-2.4-2.4h-7.7425q-2.4 0-2.4 2.4z" clip-path="url(#a)" fill="#fff" stroke="#fff"/>
<g clip-path="url(#a)">
<defs>
<path id="l" d="m-0.29688 72.906h61.672v-8.3125h-25.875v-64.594h-9.9062v64.594h-25.891z"/>
<path id="e" d="m56.203 29.594v-4.3906h-41.312q0.59375-9.2812 5.5938-14.141t13.938-4.8594q5.1719 0 10.031 1.2656t9.6562 3.8125v-8.5q-4.8438-2.0469-9.9219-3.125t-10.297-1.0781q-13.094 0-20.734 7.6094-7.6406 7.625-7.6406 20.625 0 13.422 7.25 21.297 7.25 7.8906 19.562 7.8906 11.031 0 17.453-7.1094 6.4219-7.0938 6.4219-19.297zm-8.9844 2.6406q-0.09375 7.3594-4.125 11.75-4.0312 4.4062-10.672 4.4062-7.5156 0-12.031-4.25t-5.2031-11.969z"/>
<path id="k" d="m41.109 46.297q-1.5156 0.875-3.2969 1.2812-1.7812 0.42188-3.9219 0.42188-7.625 0-11.703-4.9531t-4.0781-14.234v-28.812h-9.0312v54.688h9.0312v-8.5q2.8438 4.9844 7.375 7.3906 4.5469 2.4219 11.047 2.4219 0.92188 0 2.0469-0.125 1.125-0.10938 2.4844-0.35938z"/>
<path id="i" d="m52 44.188q3.375 6.0625 8.0625 8.9375t11.031 2.875q8.5469 0 13.188-5.9844 4.6406-5.9688 4.6406-17v-33.016h-9.0312v32.719q0 7.8594-2.7969 11.656-2.7812 3.8125-8.4844 3.8125-6.9844 0-11.047-4.6406-4.0469-4.625-4.0469-12.641v-30.906h-9.0312v32.719q0 7.9062-2.7812 11.688t-8.5938 3.7812q-6.8906 0-10.953-4.6562-4.0469-4.6562-4.0469-12.625v-30.906h-9.0312v54.688h9.0312v-8.5q3.0781 5.0312 7.375 7.4219t10.203 2.3906q5.9688 0 10.141-3.0312 4.1719-3.0156 6.1719-8.7812z"/>
<path id="f" d="m9.4219 54.688h8.9844v-54.688h-8.9844zm0 21.297h8.9844v-11.391h-8.9844z"/>
<path id="d" d="m54.891 33.016v-33.016h-8.9844v32.719q0 7.7656-3.0312 11.609-3.0312 3.8594-9.0781 3.8594-7.2812 0-11.484-4.6406-4.2031-4.625-4.2031-12.641v-30.906h-9.0312v54.688h9.0312v-8.5q3.2344 4.9375 7.5938 7.375 4.375 2.4375 10.094 2.4375 9.4219 0 14.25-5.8281 4.8438-5.8281 4.8438-17.156z"/>
<path id="h" d="m34.281 27.484q-10.891 0-15.094-2.4844t-4.2031-8.5q0-4.7812 3.1562-7.5938 3.1562-2.7969 8.5625-2.7969 7.4844 0 12 5.2969t4.5156 14.078v2zm17.922 3.7188v-31.203h-8.9844v8.2969q-3.0781-4.9688-7.6719-7.3438t-11.234-2.375q-8.3906 0-13.359 4.7188-4.9531 4.7188-4.9531 12.625 0 9.2188 6.1719 13.906 6.1875 4.6875 18.438 4.6875h12.609v0.89062q0 6.2031-4.0781 9.5938t-11.453 3.3906q-4.6875 0-9.1406-1.125-4.4375-1.125-8.5312-3.375v8.3125q4.9219 1.9062 9.5625 2.8438 4.6406 0.95312 9.0312 0.95312 11.875 0 17.734-6.1562 5.8594-6.1406 5.8594-18.641z"/>
<path id="j" d="m9.4219 75.984h8.9844v-75.984h-8.9844z"/>
</defs>
<g transform="translate(611.27 569.85) rotate(90) scale(.08 -.08)">
<use xlink:href="#l"/>
<use x="44.083984" xlink:href="#e"/>
<use x="105.607422" xlink:href="#k"/>
<use x="144.970703" xlink:href="#i"/>
<use x="242.382812" xlink:href="#f"/>
<use x="270.166016" xlink:href="#d"/>
<use x="333.544922" xlink:href="#h"/>
<use x="394.824219" xlink:href="#j"/>
</g>
</g>
<path d="m826.48 334.36 1.5055 4.5828q0.74905 2.2801 3.0292 1.5311l7.3557-2.4165q2.2801-0.74905 1.5311-3.0292l-1.5055-4.5828q-0.74905-2.2801-3.0292-1.5311l-7.3557 2.4165q-2.2801 0.74905-1.5311 3.0292z" clip-path="url(#a)" fill="#fff" stroke="#fff"/>
<g clip-path="url(#a)">
<g transform="translate(830.34 333.09) rotate(71.814) scale(.08 -.08)">
<use xlink:href="#t"/>
</g>
</g>
<path d="m760.7 337.8 0.32588-5.4628q0.14292-2.3957-2.2528-2.5387l-7.7288-0.46106q-2.3957-0.14292-2.5387 2.2528l-0.32588 5.4628q-0.14292 2.3957 2.2528 2.5387l7.7288 0.46106q2.3957 0.14292 2.5387-2.2528z" clip-path="url(#a)" fill="#fff" stroke="#fff"/>
<g clip-path="url(#a)">
<g transform="translate(756.65 337.55) rotate(-86.586) scale(.08 -.08)">
<use xlink:href="#n"/>
</g>
</g>
<path d="m839.91 186.88 4.5999 2.9646q2.0173 1.3002 3.3175-0.71717l4.1944-6.508q1.3002-2.0173-0.71717-3.3175l-4.5999-2.9646q-2.0173-1.3002-3.3175 0.71717l-4.1944 6.508q-1.3002 2.0173 0.71717 3.3175z" clip-path="url(#a)" fill="#fff" stroke="#fff"/>
<g clip-path="url(#a)">
<g transform="translate(842.11 183.47) rotate(32.802) scale(.08 -.08)">
<use xlink:href="#n"/>
</g>
</g>
<path d="m412.86 341.49 4.7523-2.7137q2.0842-1.1901 0.89406-3.2742l-3.8393-6.7236q-1.1901-2.0842-3.2742-0.89406l-4.7523 2.7137q-2.0842 1.1901-0.89406 3.2742l3.8393 6.7236q1.1901 2.0842 3.2742 0.89406z" clip-path="url(#a)" fill="#fff" stroke="#fff"/>
<g clip-path="url(#a)">
<g transform="translate(410.85 337.96) rotate(-29.727) scale(.08 -.08)">
<use xlink:href="#n"/>
</g>
</g>
<path d="m981.49 337.34 4.3191 3.953q1.7704 1.6204 3.3908-0.15004l5.2274-5.7114q1.6204-1.7704-0.15004-3.3908l-4.3191-3.953q-1.7704-1.6204-3.3908 0.15004l-5.2274 5.7114q-1.6204 1.7704 0.15004 3.3908z" clip-path="url(#a)" fill="#fff" stroke="#fff"/>
<g clip-path="url(#a)">
<g transform="translate(984.24 334.34) rotate(42.466) scale(.08 -.08)">
<use xlink:href="#y"/>
</g>
</g>
<path d="m775.12 599.35 30.896-13.724q2.1933-0.9743 1.219-3.1676l-3.1431-7.0758q-0.9743-2.1933-3.1676-1.219l-30.896 13.724q-2.1933 0.9743-1.219 3.1676l3.1431 7.0758q0.9743 2.1933 3.1676 1.219z" clip-path="url(#a)" fill="#fff" stroke="#fff"/>
<g clip-path="url(#a)">
<g transform="translate(773.47 595.64) rotate(-23.951) scale(.08 -.08)">
<use xlink:href="#l"/>
<use x="44.083984" xlink:href="#e"/>
<use x="105.607422" xlink:href="#k"/>
<use x="144.970703" xlink:href="#i"/>
<use x="242.382812" xlink:href="#f"/>
<use x="270.166016" xlink:href="#d"/>
<use x="333.544922" xlink:href="#h"/>
<use x="394.824219" xlink:href="#j"/>
</g>
</g>
<path d="m993.39 585.62 30.896 13.724q2.1933 0.9743 3.1676-1.219l3.1431-7.0758q0.9743-2.1933-1.219-3.1676l-30.896-13.724q-2.1933-0.9743-3.1676 1.219l-3.1431 7.0758q-0.9743 2.1933 1.219 3.1676z" clip-path="url(#a)" fill="#fff" stroke="#fff"/>
<g clip-path="url(#a)">
<g transform="translate(995.04 581.91) rotate(23.951) scale(.08 -.08)">
<use xlink:href="#l"/>
<use x="44.083984" xlink:href="#e"/>
<use x="105.607422" xlink:href="#k"/>
<use x="144.970703" xlink:href="#i"/>
<use x="242.382812" xlink:href="#f"/>
<use x="270.166016" xlink:href="#d"/>
<use x="333.544922" xlink:href="#h"/>
<use x="394.824219" xlink:href="#j"/>
</g>
</g>
<path d="m736.26 569.85v33.808q0 2.4 2.4 2.4h7.7425q2.4 0 2.4-2.4v-33.808q0-2.4-2.4-2.4h-7.7425q-2.4 0-2.4 2.4z" clip-path="url(#a)" fill="#fff" stroke="#fff"/>
<g clip-path="url(#a)">
<g transform="translate(740.32 569.85) rotate(90) scale(.08 -.08)">
<use xlink:href="#l"/>
<use x="44.083984" xlink:href="#e"/>
<use x="105.607422" xlink:href="#k"/>
<use x="144.970703" xlink:href="#i"/>
<use x="242.382812" xlink:href="#f"/>
<use x="270.166016" xlink:href="#d"/>
<use x="333.544922" xlink:href="#h"/>
<use x="394.824219" xlink:href="#j"/>
</g>
</g>
<path d="m891.49 339.72 1.6963-4.5156q0.844-2.2467-1.4027-3.0907l-7.248-2.7228q-2.2467-0.844-3.0907 1.4027l-1.6963 4.5156q-0.844 2.2467 1.4027 3.0907l7.248 2.7228q2.2467 0.844 3.0907-1.4027z" clip-path="url(#a)" fill="#fff" stroke="#fff"/>
<g clip-path="url(#a)">
<g transform="translate(887.69 338.29) rotate(-69.411) scale(.08 -.08)">
<use xlink:href="#t"/>
</g>
</g>
<path d="m955.92 286.27 3.2836 4.3779q1.4401 1.92 3.36 0.4799l6.1939-4.6457q1.92-1.4401 0.4799-3.36l-3.2836-4.3779q-1.4401-1.92-3.36-0.4799l-6.1939 4.6457q-1.92 1.4401-0.4799 3.36z" clip-path="url(#a)" fill="#fff" stroke="#fff"/>
<g clip-path="url(#a)">
<g transform="translate(959.17 283.83) rotate(53.128) scale(.08 -.08)">
<use xlink:href="#n"/>
</g>
</g>
<path d="m835.33 491.15 1.5655-4.3267q0.81657-2.2568-1.4402-3.0734l-7.2806-2.6343q-2.2568-0.81657-3.0734 1.4402l-1.5655 4.3267q-0.81657 2.2568 1.4402 3.0734l7.2806 2.6343q2.2568 0.81657 3.0734-1.4402z" clip-path="url(#a)" fill="#fff" stroke="#fff"/>
<g clip-path="url(#a)">
<defs>
<path id="ak" d="m9.8125 72.906h41.891v-8.3125h-32.031v-21.484h28.906v-8.2969h-28.906v-34.812h-9.8594z"/>
</defs>
<g transform="translate(831.51 489.76) rotate(-70.109) scale(.08 -.08)">
<use xlink:href="#ak"/>
</g>
</g>
<path d="m859.77 486.36 1.9007 5.253q0.81657 2.2568 3.0734 1.4402l7.2806-2.6343q2.2568-0.81658 1.4402-3.0734l-1.9007-5.253q-0.81657-2.2568-3.0734-1.4402l-7.2806 2.6343q-2.2568 0.81657-1.4402 3.0734z" clip-path="url(#a)" fill="#fff" stroke="#fff"/>
<g clip-path="url(#a)">
<defs>
<path id="q" d="m64.406 67.281v-10.391q-4.9844 4.6406-10.625 6.9219-5.6406 2.2969-11.984 2.2969-12.5 0-19.141-7.6406t-6.6406-22.094q0-14.406 6.6406-22.047t19.141-7.6406q6.3438 0 11.984 2.2969t10.625 6.9375v-10.312q-5.1719-3.5156-10.969-5.2812-5.7812-1.75-12.219-1.75-16.562 0-26.094 10.125-9.5156 10.141-9.5156 27.672 0 17.578 9.5156 27.703 9.5312 10.141 26.094 10.141 6.5312 0 12.312-1.7344 5.7969-1.7344 10.875-5.2031z"/>
</defs>
<g transform="translate(863.59 484.97) rotate(70.109) scale(.08 -.08)">
<use xlink:href="#q"/>
</g>
</g>
<path d="m994.23 379.49v12.991q0 2.4 2.4 2.4h8q2.4 0 2.4-2.4v-12.991q0-2.4-2.4-2.4h-8q-2.4 0-2.4 2.4z" clip-path="url(#a)" fill="#fff" stroke="#fff"/>
<g clip-path="url(#a)">
<defs>
<path id="ax" d="m21 76.422v-100h-8.2969v100z"/>
</defs>
<g transform="translate(998.51 379.49) rotate(90) scale(.08 -.08)">
<use xlink:href="#n"/>
<use x="68.408203" xlink:href="#ax"/>
<use x="102.099609" xlink:href="#t"/>
</g>
</g>
<path d="m985.59 491.74 2.0409-5.1705q0.88117-2.2324-1.3512-3.1136l-7.2018-2.8427q-2.2324-0.88117-3.1136 1.3512l-2.0409 5.1705q-0.88117 2.2324 1.3512 3.1136l7.2018 2.8427q2.2324 0.88117 3.1136-1.3512z" clip-path="url(#a)" fill="#fff" stroke="#fff"/>
<g clip-path="url(#a)">
<defs>
<path id="z" d="m44.391 34.188q3.1719-1.0781 6.1719-4.5938t6.0312-9.6719l10.016-19.922h-10.609l-9.3125 18.703q-3.625 7.3281-7.0156 9.7188t-9.25 2.3906h-10.75v-30.812h-9.8594v72.906h22.266q12.5 0 18.656-5.2344 6.1562-5.2188 6.1562-15.766 0-6.8906-3.2031-11.438-3.2031-4.5312-9.2969-6.2812zm-24.719 30.609v-25.875h12.406q7.125 0 10.766 3.2969t3.6406 9.6875-3.6406 9.6406-10.766 3.25z"/>
</defs>
<g transform="translate(981.81 490.24) rotate(-68.46) scale(.08 -.08)">
<use xlink:href="#z"/>
</g>
</g>
<path d="m1013.6 486.55 2.051 5.1961q0.88117 2.2324 3.1136 1.3512l7.2018-2.8427q2.2324-0.88117 1.3512-3.1136l-2.051-5.1961q-0.88117-2.2324-3.1136-1.3512l-7.2018 2.8427q-2.2324 0.88117-1.3512 3.1136z" clip-path="url(#a)" fill="#fff" stroke="#fff"/>
<g clip-path="url(#a)">
<g transform="translate(1017.4 485.06) rotate(68.46) scale(.08 -.08)">
<use xlink:href="#q"/>
</g>
</g>
<path d="m954.65 569.85v33.808q0 2.4 2.4 2.4h7.7425q2.4 0 2.4-2.4v-33.808q0-2.4-2.4-2.4h-7.7425q-2.4 0-2.4 2.4z" clip-path="url(#a)" fill="#fff" stroke="#fff"/>
<g clip-path="url(#a)">
<g transform="translate(958.71 569.85) rotate(90) scale(.08 -.08)">
<use xlink:href="#l"/>
<use x="44.083984" xlink:href="#e"/>
<use x="105.607422" xlink:href="#k"/>
<use x="144.970703" xlink:href="#i"/>
<use x="242.382812" xlink:href="#f"/>
<use x="270.166016" xlink:href="#d"/>
<use x="333.544922" xlink:href="#h"/>
<use x="394.824219" xlink:href="#j"/>
</g>
</g>
<path d="m1034.1 569.85v33.808q0 2.4 2.4 2.4h7.7425q2.4 0 2.4-2.4v-33.808q0-2.4-2.4-2.4h-7.7425q-2.4 0-2.4 2.4z" clip-path="url(#a)" fill="#fff" stroke="#fff"/>
<g clip-path="url(#a)">
<g transform="translate(1038.1 569.85) rotate(90) scale(.08 -.08)">
<use xlink:href="#l"/>
<use x="44.083984" xlink:href="#e"/>
<use x="105.607422" xlink:href="#k"/>
<use x="144.970703" xlink:href="#i"/>
<use x="242.382812" xlink:href="#f"/>
<use x="270.166016" xlink:href="#d"/>
<use x="333.544922" xlink:href="#h"/>
<use x="394.824219" xlink:href="#j"/>
</g>
</g>
<path d="m805.75 569.85v33.808q0 2.4 2.4 2.4h7.7425q2.4 0 2.4-2.4v-33.808q0-2.4-2.4-2.4h-7.7425q-2.4 0-2.4 2.4z" clip-path="url(#a)" fill="#fff" stroke="#fff"/>
<g clip-path="url(#a)">
<g transform="translate(809.81 569.85) rotate(90) scale(.08 -.08)">
<use xlink:href="#l"/>
<use x="44.083984" xlink:href="#e"/>
<use x="105.607422" xlink:href="#k"/>
<use x="144.970703" xlink:href="#i"/>
<use x="242.382812" xlink:href="#f"/>
<use x="270.166016" xlink:href="#d"/>
<use x="333.544922" xlink:href="#h"/>
<use x="394.824219" xlink:href="#j"/>
</g>
</g>
<path d="m878.54 569.85v33.808q0 2.4 2.4 2.4h7.7425q2.4 0 2.4-2.4v-33.808q0-2.4-2.4-2.4h-7.7425q-2.4 0-2.4 2.4z" clip-path="url(#a)" fill="#fff" stroke="#fff"/>
<g clip-path="url(#a)">
<g transform="translate(882.61 569.85) rotate(90) scale(.08 -.08)">
<use xlink:href="#l"/>
<use x="44.083984" xlink:href="#e"/>
<use x="105.607422" xlink:href="#k"/>
<use x="144.970703" xlink:href="#i"/>
<use x="242.382812" xlink:href="#f"/>
<use x="270.166016" xlink:href="#d"/>
<use x="333.544922" xlink:href="#h"/>
<use x="394.824219" xlink:href="#j"/>
</g>
</g>
<path d="m51.305 569.85v33.808q0 2.4 2.4 2.4h7.7425q2.4 0 2.4-2.4v-33.808q0-2.4-2.4-2.4h-7.7425q-2.4 0-2.4 2.4z" clip-path="url(#a)" fill="#fff" stroke="#fff"/>
<g clip-path="url(#a)">
<g transform="translate(55.368 569.85) rotate(90) scale(.08 -.08)">
<use xlink:href="#l"/>
<use x="44.083984" xlink:href="#e"/>
<use x="105.607422" xlink:href="#k"/>
<use x="144.970703" xlink:href="#i"/>
<use x="242.382812" xlink:href="#f"/>
<use x="270.166016" xlink:href="#d"/>
<use x="333.544922" xlink:href="#h"/>
<use x="394.824219" xlink:href="#j"/>
</g>
</g>
<path d="m75.944 604.04 2.25-33.733q0.15973-2.3947-2.235-2.5544l-7.7253-0.51529q-2.3947-0.15973-2.5544 2.235l-2.25 33.733q-0.15973 2.3947 2.2349 2.5544l7.7253 0.51529q2.3947 0.15973 2.5544-2.235z" clip-path="url(#a)" fill="#fff" stroke="#fff"/>
<g clip-path="url(#a)">
<g transform="translate(71.889 603.77) rotate(-86.184) scale(.08 -.08)">
<use xlink:href="#l"/>
<use x="44.083984" xlink:href="#e"/>
<use x="105.607422" xlink:href="#k"/>
<use x="144.970703" xlink:href="#i"/>
<use x="242.382812" xlink:href="#f"/>
<use x="270.166016" xlink:href="#d"/>
<use x="333.544922" xlink:href="#h"/>
<use x="394.824219" xlink:href="#j"/>
</g>
</g>
<path d="m70.047 570.31 2.25 33.733q0.15973 2.3947 2.5544 2.235l7.7253-0.51529q2.3947-0.15973 2.2349-2.5544l-2.25-33.733q-0.15973-2.3947-2.5544-2.235l-7.7253 0.51529q-2.3947 0.15973-2.235 2.5544z" clip-path="url(#a)" fill="#fff" stroke="#fff"/>
<g clip-path="url(#a)">
<g transform="translate(74.102 570.04) rotate(86.184) scale(.08 -.08)">
<use xlink:href="#l"/>
<use x="44.083984" xlink:href="#e"/>
<use x="105.607422" xlink:href="#k"/>
<use x="144.970703" xlink:href="#i"/>
<use x="242.382812" xlink:href="#f"/>
<use x="270.166016" xlink:href="#d"/>
<use x="333.544922" xlink:href="#h"/>
<use x="394.824219" xlink:href="#j"/>
</g>
</g>
<path d="m91.012 569.85v33.808q0 2.4 2.4 2.4h7.7425q2.4 0 2.4-2.4v-33.808q0-2.4-2.4-2.4h-7.7425q-2.4 0-2.4 2.4z" clip-path="url(#a)" fill="#fff" stroke="#fff"/>
<g clip-path="url(#a)">
<g transform="translate(95.076 569.85) rotate(90) scale(.08 -.08)">
<use xlink:href="#l"/>
<use x="44.083984" xlink:href="#e"/>
<use x="105.607422" xlink:href="#k"/>
<use x="144.970703" xlink:href="#i"/>
<use x="242.382812" xlink:href="#f"/>
<use x="270.166016" xlink:href="#d"/>
<use x="333.544922" xlink:href="#h"/>
<use x="394.824219" xlink:href="#j"/>
</g>
</g>
<path d="m156.43 389.63 1.209-5.4257q0.52198-2.3426-1.8206-2.8645l-7.5572-1.6839q-2.3426-0.52198-2.8645 1.8206l-1.209 5.4257q-0.52198 2.3426 1.8206 2.8645l7.5572 1.6839q2.3426 0.52198 2.8645-1.8206z" clip-path="url(#a)" fill="#fff" stroke="#fff"/>
<g clip-path="url(#a)">
<g transform="translate(152.47 388.75) rotate(-77.438) scale(.08 -.08)">
<use xlink:href="#z"/>
</g>
</g>
<path d="m168.37 388.74 0.66664-4.5527q0.34772-2.3747-2.027-2.7224l-7.6608-1.1218q-2.3747-0.34772-2.7224 2.027l-0.66664 4.5527q-0.34772 2.3747 2.027 2.7224l7.6608 1.1218q2.3747 0.34772 2.7224-2.027z" clip-path="url(#a)" fill="#fff" stroke="#fff"/>
<g clip-path="url(#a)">
<g transform="translate(164.35 388.15) rotate(-81.67) scale(.08 -.08)">
<use xlink:href="#ak"/>
</g>
</g>
<path d="m181.83 388.71 0.32966-5.5765q0.14163-2.3958-2.2542-2.5374l-7.729-0.45691q-2.3958-0.14163-2.5374 2.2542l-0.32966 5.5765q-0.14163 2.3958 2.2542 2.5374l7.729 0.45691q2.3958 0.14163 2.5374-2.2542z" clip-path="url(#a)" fill="#fff" stroke="#fff"/>
<g clip-path="url(#a)">
<g transform="translate(177.77 388.47) rotate(-86.617) scale(.08 -.08)">
<use xlink:href="#q"/>
</g>
</g>
<path d="m237.7 287.8 3.8331 3.2955q1.8199 1.5646 3.3845-0.25522l5.0476-5.8709q1.5646-1.8199-0.25522-3.3845l-3.8331-3.2955q-1.8199-1.5646-3.3845 0.25522l-5.0476 5.8709q-1.5646 1.8199 0.25522 3.3845z" clip-path="url(#a)" fill="#fff" stroke="#fff"/>
<g clip-path="url(#a)">
<defs>
<path id="as" d="m9.8125 72.906h46.094v-8.3125h-36.234v-21.578h34.719v-8.2969h-34.719v-26.422h37.109v-8.2969h-46.969z"/>
</defs>
<g transform="translate(240.35 284.72) rotate(40.688) scale(.08 -.08)">
<use xlink:href="#as"/>
</g>
</g>
<path d="m184.24 382.87 0.2288 5.8505q0.093787 2.3982 2.492 2.3044l7.7366-0.30256q2.3982-0.093787 2.3044-2.492l-0.2288-5.8505q-0.093787-2.3982-2.492-2.3044l-7.7366 0.30256q-2.3982 0.093787-2.3044 2.492z" clip-path="url(#a)" fill="#fff" stroke="#fff"/>
<g clip-path="url(#a)">
<g transform="translate(188.3 382.71) rotate(87.76) scale(.08 -.08)">
<use xlink:href="#y"/>
</g>
</g>
<path d="m110.87 569.85v33.808q0 2.4 2.4 2.4h7.7425q2.4 0 2.4-2.4v-33.808q0-2.4-2.4-2.4h-7.7425q-2.4 0-2.4 2.4z" clip-path="url(#a)" fill="#fff" stroke="#fff"/>
<g clip-path="url(#a)">
<g transform="translate(114.93 569.85) rotate(90) scale(.08 -.08)">
<use xlink:href="#l"/>
<use x="44.083984" xlink:href="#e"/>
<use x="105.607422" xlink:href="#k"/>
<use x="144.970703" xlink:href="#i"/>
<use x="242.382812" xlink:href="#f"/>
<use x="270.166016" xlink:href="#d"/>
<use x="333.544922" xlink:href="#h"/>
<use x="394.824219" xlink:href="#j"/>
</g>
</g>
<path d="m134.03 569.85v33.808q0 2.4 2.4 2.4h7.7425q2.4 0 2.4-2.4v-33.808q0-2.4-2.4-2.4h-7.7425q-2.4 0-2.4 2.4z" clip-path="url(#a)" fill="#fff" stroke="#fff"/>
<g clip-path="url(#a)">
<g transform="translate(138.09 569.85) rotate(90) scale(.08 -.08)">
<use xlink:href="#l"/>
<use x="44.083984" xlink:href="#e"/>
<use x="105.607422" xlink:href="#k"/>
<use x="144.970703" xlink:href="#i"/>
<use x="242.382812" xlink:href="#f"/>
<use x="270.166016" xlink:href="#d"/>
<use x="333.544922" xlink:href="#h"/>
<use x="394.824219" xlink:href="#j"/>
</g>
</g>
<path d="m160.5 569.85v33.808q0 2.4 2.4 2.4h7.7425q2.4 0 2.4-2.4v-33.808q0-2.4-2.4-2.4h-7.7425q-2.4 0-2.4 2.4z" clip-path="url(#a)" fill="#fff" stroke="#fff"/>
<g clip-path="url(#a)">
<g transform="translate(164.56 569.85) rotate(90) scale(.08 -.08)">
<use xlink:href="#l"/>
<use x="44.083984" xlink:href="#e"/>
<use x="105.607422" xlink:href="#k"/>
<use x="144.970703" xlink:href="#i"/>
<use x="242.382812" xlink:href="#f"/>
<use x="270.166016" xlink:href="#d"/>
<use x="333.544922" xlink:href="#h"/>
<use x="394.824219" xlink:href="#j"/>
</g>
</g>
<path d="m238.41 442.06 3.0583-4.5382q1.3413-1.9902-0.64898-3.3315l-6.4206-4.3269q-1.9902-1.3413-3.3315 0.64899l-3.0583 4.5382q-1.3413 1.9902 0.64898 3.3315l6.4206 4.3269q1.9902 1.3413 3.3315-0.64898z" clip-path="url(#a)" fill="#fff" stroke="#fff"/>
<g clip-path="url(#a)">
<g transform="translate(235.04 439.79) rotate(-56.023) scale(.08 -.08)">
<use xlink:href="#n"/>
</g>
</g>
<path d="m271.13 441.04 1.8932-5.2264q0.81741-2.2565-1.4391-3.0739l-7.2796-2.637q-2.2565-0.81741-3.0739 1.4391l-1.8932 5.2264q-0.81741 2.2565 1.4391 3.0739l7.2796 2.637q2.2565 0.81741 3.0739-1.4391z" clip-path="url(#a)" fill="#fff" stroke="#fff"/>
<g clip-path="url(#a)">
<g transform="translate(267.31 439.65) rotate(-70.087) scale(.08 -.08)">
<use xlink:href="#z"/>
</g>
</g>
<path d="m316.14 385.78 2.0361 5.0796q0.89295 2.2277 3.1206 1.3347l7.1866-2.8807q2.2277-0.89295 1.3347-3.1206l-2.0361-5.0796q-0.89295-2.2277-3.1206-1.3347l-7.1866 2.8807q-2.2277 0.89295-1.3347 3.1206z" clip-path="url(#a)" fill="#fff" stroke="#fff"/>
<g clip-path="url(#a)">
<g transform="translate(319.91 384.27) rotate(68.157) scale(.08 -.08)">
<use xlink:href="#n"/>
</g>
</g>
<path d="m380.51 438.36 3.2557 3.898q1.5385 1.842 3.3805 0.30353l5.9424-4.9632q1.842-1.5385 0.30353-3.3805l-3.2557-3.898q-1.5385-1.842-3.3805-0.30353l-5.9424 4.9632q-1.842 1.5385-0.30353 3.3805z" clip-path="url(#a)" fill="#fff" stroke="#fff"/>
<g clip-path="url(#a)">
<defs>
<path id="aq" d="m53.516 70.516v-9.625q-5.6094 2.6875-10.594 4-4.9844 1.3281-9.625 1.3281-8.0469 0-12.422-3.125t-4.375-8.8906q0-4.8438 2.9062-7.3125 2.9062-2.4531 11.016-3.9688l5.9531-1.2188q11.031-2.1094 16.281-7.4062t5.25-14.172q0-10.609-7.1094-16.078-7.0938-5.4688-20.812-5.4688-5.1719 0-11.016 1.1719-5.8281 1.1719-12.078 3.4688v10.156q6-3.3594 11.766-5.0781 5.7656-1.7031 11.328-1.7031 8.4375 0 13.031 3.3125 4.5938 3.3281 4.5938 9.4844 0 5.3594-3.2969 8.3906t-10.812 4.5469l-6.0156 1.1719q-11.031 2.1875-15.969 6.875-4.9219 4.6875-4.9219 13.047 0 9.6719 6.8125 15.234t18.766 5.5625q5.1406 0 10.453-0.9375 5.3281-0.92188 10.891-2.7656z"/>
</defs>
<g transform="translate(383.63 435.75) rotate(50.131) scale(.08 -.08)">
<use xlink:href="#aq"/>
</g>
</g>
<path d="m223.37 569.85v33.808q0 2.4 2.4 2.4h7.7425q2.4 0 2.4-2.4v-33.808q0-2.4-2.4-2.4h-7.7425q-2.4 0-2.4 2.4z" clip-path="url(#a)" fill="#fff" stroke="#fff"/>
<g clip-path="url(#a)">
<g transform="translate(227.43 569.85) rotate(90) scale(.08 -.08)">
<use xlink:href="#l"/>
<use x="44.083984" xlink:href="#e"/>
<use x="105.607422" xlink:href="#k"/>
<use x="144.970703" xlink:href="#i"/>
<use x="242.382812" xlink:href="#f"/>
<use x="270.166016" xlink:href="#d"/>
<use x="333.544922" xlink:href="#h"/>
<use x="394.824219" xlink:href="#j"/>
</g>
</g>
<path d="m318.64 492.38 2.7669-4.8529q1.1887-2.0849-0.89621-3.2737l-6.7261-3.8349q-2.0849-1.1887-3.2737 0.89621l-2.7669 4.8529q-1.1887 2.0849 0.89621 3.2737l6.7261 3.8349q2.0849 1.1887 3.2737-0.89621z" clip-path="url(#a)" fill="#fff" stroke="#fff"/>
<g clip-path="url(#a)">
<g transform="translate(315.11 490.37) rotate(-60.31) scale(.08 -.08)">
<use xlink:href="#q"/>
</g>
</g>
<path d="m339.58 484.2 0.32762 5.976q0.13138 2.3964 2.5278 2.265l7.7309-0.42382q2.3964-0.13138 2.265-2.5278l-0.32762-5.976q-0.13138-2.3964-2.5278-2.265l-7.7309 0.42382q-2.3964 0.13138-2.265 2.5278z" clip-path="url(#a)" fill="#fff" stroke="#fff"/>
<g clip-path="url(#a)">
<defs>
<path id="ag" d="m9.8125 72.906h13.281l32.328-60.984v60.984h9.5625v-72.906h-13.281l-32.312 60.984v-60.984h-9.5781z"/>
</defs>
<g transform="translate(343.64 483.98) rotate(86.862) scale(.08 -.08)">
<use xlink:href="#ag"/>
</g>
</g>
<path d="m362.31 487.24 2.559 4.9657q1.0994 2.1334 3.2328 1.034l6.8824-3.5467q2.1334-1.0994 1.034-3.2328l-2.559-4.9657q-1.0994-2.1334-3.2328-1.034l-6.8824 3.5467q-2.1334 1.0994-1.034 3.2328z" clip-path="url(#a)" fill="#fff" stroke="#fff"/>
<g clip-path="url(#a)">
<g transform="translate(365.93 485.38) rotate(62.737) scale(.08 -.08)">
<use xlink:href="#q"/>
</g>
</g>
<path d="m459.66 604.7 8.7152-32.665q0.61869-2.3189-1.7002-2.9376l-7.4808-1.9959q-2.3189-0.61869-2.9376 1.7002l-8.7152 32.665q-0.61869 2.3189 1.7002 2.9376l7.4808 1.9959q2.3189 0.61869 2.9376-1.7002z" clip-path="url(#a)" fill="#fff" stroke="#fff"/>
<g clip-path="url(#a)">
<g transform="translate(455.73 603.66) rotate(-75.061) scale(.08 -.08)">
<use xlink:href="#l"/>
<use x="44.083984" xlink:href="#e"/>
<use x="105.607422" xlink:href="#k"/>
<use x="144.970703" xlink:href="#i"/>
<use x="242.382812" xlink:href="#f"/>
<use x="270.166016" xlink:href="#d"/>
<use x="333.544922" xlink:href="#h"/>
<use x="394.824219" xlink:href="#j"/>
</g>
</g>
<path d="m474.01 572.04 8.7152 32.665q0.61869 2.3189 2.9376 1.7002l7.4808-1.9959q2.3189-0.61869 1.7002-2.9376l-8.7152-32.665q-0.61869-2.3189-2.9376-1.7002l-7.4808 1.9959q-2.3189 0.61869-1.7002 2.9376z" clip-path="url(#a)" fill="#fff" stroke="#fff"/>
<g clip-path="url(#a)">
<g transform="translate(477.94 570.99) rotate(75.061) scale(.08 -.08)">
<use xlink:href="#l"/>
<use x="44.083984" xlink:href="#e"/>
<use x="105.607422" xlink:href="#k"/>
<use x="144.970703" xlink:href="#i"/>
<use x="242.382812" xlink:href="#f"/>
<use x="270.166016" xlink:href="#d"/>
<use x="333.544922" xlink:href="#h"/>
<use x="394.824219" xlink:href="#j"/>
</g>
</g>
<path d="m278.8 604.56 6.6335-33.15q0.47092-2.3533-1.8824-2.8243l-7.592-1.5192q-2.3533-0.47092-2.8243 1.8824l-6.6336 33.15q-0.47092 2.3533 1.8824 2.8243l7.592 1.5192q2.3533 0.47092 2.8243-1.8824z" clip-path="url(#a)" fill="#fff" stroke="#fff"/>
<g clip-path="url(#a)">
<g transform="translate(274.81 603.76) rotate(-78.684) scale(.08 -.08)">
<use xlink:href="#l"/>
<use x="44.083984" xlink:href="#e"/>
<use x="105.607422" xlink:href="#k"/>
<use x="144.970703" xlink:href="#i"/>
<use x="242.382812" xlink:href="#f"/>
<use x="270.166016" xlink:href="#d"/>
<use x="333.544922" xlink:href="#h"/>
<use x="394.824219" xlink:href="#j"/>
</g>
</g>
<path d="m286.35 571.41 6.6335 33.15q0.47092 2.3533 2.8243 1.8824l7.592-1.5192q2.3533-0.47092 1.8824-2.8243l-6.6336-33.15q-0.47092-2.3533-2.8243-1.8824l-7.592 1.5192q-2.3533 0.47092-1.8824 2.8243z" clip-path="url(#a)" fill="#fff" stroke="#fff"/>
<g clip-path="url(#a)">
<g transform="translate(290.34 570.61) rotate(78.684) scale(.08 -.08)">
<use xlink:href="#l"/>
<use x="44.083984" xlink:href="#e"/>
<use x="105.607422" xlink:href="#k"/>
<use x="144.970703" xlink:href="#i"/>
<use x="242.382812" xlink:href="#f"/>
<use x="270.166016" xlink:href="#d"/>
<use x="333.544922" xlink:href="#h"/>
<use x="394.824219" xlink:href="#j"/>
</g>
</g>
<path d="m342.49 569.85v33.808q0 2.4 2.4 2.4h7.7425q2.4 0 2.4-2.4v-33.808q0-2.4-2.4-2.4h-7.7425q-2.4 0-2.4 2.4z" clip-path="url(#a)" fill="#fff" stroke="#fff"/>
<g clip-path="url(#a)">
<g transform="translate(346.56 569.85) rotate(90) scale(.08 -.08)">
<use xlink:href="#l"/>
<use x="44.083984" xlink:href="#e"/>
<use x="105.607422" xlink:href="#k"/>
<use x="144.970703" xlink:href="#i"/>
<use x="242.382812" xlink:href="#f"/>
<use x="270.166016" xlink:href="#d"/>
<use x="333.544922" xlink:href="#h"/>
<use x="394.824219" xlink:href="#j"/>
</g>
</g>
<path d="m388.82 569.85v33.808q0 2.4 2.4 2.4h7.7425q2.4 0 2.4-2.4v-33.808q0-2.4-2.4-2.4h-7.7425q-2.4 0-2.4 2.4z" clip-path="url(#a)" fill="#fff" stroke="#fff"/>
<g clip-path="url(#a)">
<g transform="translate(392.88 569.85) rotate(90) scale(.08 -.08)">
<use xlink:href="#l"/>
<use x="44.083984" xlink:href="#e"/>
<use x="105.607422" xlink:href="#k"/>
<use x="144.970703" xlink:href="#i"/>
<use x="242.382812" xlink:href="#f"/>
<use x="270.166016" xlink:href="#d"/>
<use x="333.544922" xlink:href="#h"/>
<use x="394.824219" xlink:href="#j"/>
</g>
</g>
<path d="m190.28 569.85v33.808q0 2.4 2.4 2.4h7.7425q2.4 0 2.4-2.4v-33.808q0-2.4-2.4-2.4h-7.7425q-2.4 0-2.4 2.4z" clip-path="url(#a)" fill="#fff" stroke="#fff"/>
<g clip-path="url(#a)">
<g transform="translate(194.34 569.85) rotate(90) scale(.08 -.08)">
<use xlink:href="#l"/>
<use x="44.083984" xlink:href="#e"/>
<use x="105.607422" xlink:href="#k"/>
<use x="144.970703" xlink:href="#i"/>
<use x="242.382812" xlink:href="#f"/>
<use x="270.166016" xlink:href="#d"/>
<use x="333.544922" xlink:href="#h"/>
<use x="394.824219" xlink:href="#j"/>
</g>
</g>
<path d="m547.65 569.85v33.808q0 2.4 2.4 2.4h7.7425q2.4 0 2.4-2.4v-33.808q0-2.4-2.4-2.4h-7.7425q-2.4 0-2.4 2.4z" clip-path="url(#a)" fill="#fff" stroke="#fff"/>
<g clip-path="url(#a)">
<g transform="translate(551.71 569.85) rotate(90) scale(.08 -.08)">
<use xlink:href="#l"/>
<use x="44.083984" xlink:href="#e"/>
<use x="105.607422" xlink:href="#k"/>
<use x="144.970703" xlink:href="#i"/>
<use x="242.382812" xlink:href="#f"/>
<use x="270.166016" xlink:href="#d"/>
<use x="333.544922" xlink:href="#h"/>
<use x="394.824219" xlink:href="#j"/>
</g>
</g>
<path d="m1202.8 569.85v33.808q0 2.4 2.4 2.4h7.7425q2.4 0 2.4-2.4v-33.808q0-2.4-2.4-2.4h-7.7425q-2.4 0-2.4 2.4z" clip-path="url(#a)" fill="#fff" stroke="#fff"/>
<g clip-path="url(#a)">
<g transform="translate(1206.9 569.85) rotate(90) scale(.08 -.08)">
<use xlink:href="#l"/>
<use x="44.083984" xlink:href="#e"/>
<use x="105.607422" xlink:href="#k"/>
<use x="144.970703" xlink:href="#i"/>
<use x="242.382812" xlink:href="#f"/>
<use x="270.166016" xlink:href="#d"/>
<use x="333.544922" xlink:href="#h"/>
<use x="394.824219" xlink:href="#j"/>
</g>
</g>
<defs>
<path id="b" d="m0 8.6603c2.2967 0 4.4997-0.9125 6.1237-2.5365 1.624-1.624 2.5365-3.827 2.5365-6.1237s-0.9125-4.4997-2.5365-6.1237c-1.624-1.624-3.827-2.5365-6.1237-2.5365s-4.4997 0.9125-6.1237 2.5365c-1.624 1.624-2.5365 3.827-2.5365 6.1237s0.9125 4.4997 2.5365 6.1237c1.624 1.624 3.827 2.5365 6.1237 2.5365z"/>
</defs>
<g clip-path="url(#a)">
<use x="57.575758" y="636.363636" fill="#ffffff" stroke="#ffffff" xlink:href="#b"/>
</g>
<g clip-path="url(#a)">
<use x="67.502612" y="636.363636" fill="#ffffff" stroke="#ffffff" xlink:href="#b"/>
</g>
<g clip-path="url(#a)">
<use x="80.738419" y="636.363636" fill="#ffffff" stroke="#ffffff" xlink:href="#b"/>
</g>
<g clip-path="url(#a)">
<use x="97.283177" y="636.363636" fill="#ffffff" stroke="#ffffff" xlink:href="#b"/>
</g>
<g clip-path="url(#a)">
<use x="117.136886" y="636.363636" fill="#ffffff" stroke="#ffffff" xlink:href="#b"/>
</g>
<g clip-path="url(#a)">
<use x="140.299547" y="636.363636" fill="#ffffff" stroke="#ffffff" xlink:href="#b"/>
</g>
<g clip-path="url(#a)">
<use x="166.77116" y="636.363636" fill="#ffffff" stroke="#ffffff" xlink:href="#b"/>
</g>
<g clip-path="url(#a)">
<use x="196.551724" y="636.363636" fill="#ffffff" stroke="#ffffff" xlink:href="#b"/>
</g>
<g clip-path="url(#a)">
<use x="229.64124" y="636.363636" fill="#ffffff" stroke="#ffffff" xlink:href="#b"/>
</g>
<g clip-path="url(#a)">
<use x="266.039707" y="636.363636" fill="#ffffff" stroke="#ffffff" xlink:href="#b"/>
</g>
<g clip-path="url(#a)">
<use x="305.747126" y="636.363636" fill="#ffffff" stroke="#ffffff" xlink:href="#b"/>
</g>
<g clip-path="url(#a)">
<use x="348.763497" y="636.363636" fill="#ffffff" stroke="#ffffff" xlink:href="#b"/>
</g>
<g clip-path="url(#a)">
<use x="395.088819" y="636.363636" fill="#ffffff" stroke="#ffffff" xlink:href="#b"/>
</g>
<g clip-path="url(#a)">
<use x="444.723093" y="636.363636" fill="#ffffff" stroke="#ffffff" xlink:href="#b"/>
</g>
<g clip-path="url(#a)">
<use x="497.666318" y="636.363636" fill="#ffffff" stroke="#ffffff" xlink:href="#b"/>
</g>
<g clip-path="url(#a)">
<use x="553.918495" y="636.363636" fill="#ffffff" stroke="#ffffff" xlink:href="#b"/>
</g>
<g clip-path="url(#a)">
<use x="613.479624" y="636.363636" fill="#ffffff" stroke="#ffffff" xlink:href="#b"/>
</g>
<g clip-path="url(#a)">
<use x="676.349704" y="636.363636" fill="#ffffff" stroke="#ffffff" xlink:href="#b"/>
</g>
<g clip-path="url(#a)">
<use x="742.528736" y="636.363636" fill="#ffffff" stroke="#ffffff" xlink:href="#b"/>
</g>
<g clip-path="url(#a)">
<use x="812.016719" y="636.363636" fill="#ffffff" stroke="#ffffff" xlink:href="#b"/>
</g>
<g clip-path="url(#a)">
<use x="884.813654" y="636.363636" fill="#ffffff" stroke="#ffffff" xlink:href="#b"/>
</g>
<g clip-path="url(#a)">
<use x="960.91954" y="636.363636" fill="#ffffff" stroke="#ffffff" xlink:href="#b"/>
</g>
<g clip-path="url(#a)">
<use x="1040.334378" y="636.363636" fill="#ffffff" stroke="#ffffff" xlink:href="#b"/>
</g>
<g clip-path="url(#a)">
<use x="1123.058168" y="636.363636" fill="#ffffff" stroke="#ffffff" xlink:href="#b"/>
</g>
<g clip-path="url(#a)">
<use x="1209.090909" y="636.363636" fill="#ffffff" stroke="#ffffff" xlink:href="#b"/>
</g>
<g clip-path="url(#a)">
<use x="509.375181" y="30.30303" fill="#ffffff" stroke="#ffffff" xlink:href="#b"/>
</g>
<g clip-path="url(#a)">
<use x="103.418524" y="132.233108" fill="#ffffff" stroke="#ffffff" xlink:href="#b"/>
</g>
<g clip-path="url(#a)">
<use x="613.479624" y="537.147276" fill="#ffffff" stroke="#ffffff" xlink:href="#b"/>
</g>
<g clip-path="url(#a)">
<use x="766.684082" y="132.233108" fill="#ffffff" stroke="#ffffff" xlink:href="#b"/>
</g>
<g clip-path="url(#a)">
<use x="899.703936" y="537.147276" fill="#ffffff" stroke="#ffffff" xlink:href="#b"/>
</g>
<g clip-path="url(#a)">
<use x="742.528736" y="537.147276" fill="#ffffff" stroke="#ffffff" xlink:href="#b"/>
</g>
<g clip-path="url(#a)">
<use x="924.521073" y="233.958158" fill="#ffffff" stroke="#ffffff" xlink:href="#b"/>
</g>
<g clip-path="url(#a)">
<use x="848.415186" y="436.550706" fill="#ffffff" stroke="#ffffff" xlink:href="#b"/>
</g>
<g clip-path="url(#a)">
<use x="1000.626959" y="335.426517" fill="#ffffff" stroke="#ffffff" xlink:href="#b"/>
</g>
<g clip-path="url(#a)">
<use x="1000.626959" y="436.550706" fill="#ffffff" stroke="#ffffff" xlink:href="#b"/>
</g>
<g clip-path="url(#a)">
<use x="960.91954" y="537.147276" fill="#ffffff" stroke="#ffffff" xlink:href="#b"/>
</g>
<g clip-path="url(#a)">
<use x="1040.334378" y="537.147276" fill="#ffffff" stroke="#ffffff" xlink:href="#b"/>
</g>
<g clip-path="url(#a)">
<use x="812.016719" y="537.147276" fill="#ffffff" stroke="#ffffff" xlink:href="#b"/>
</g>
<g clip-path="url(#a)">
<use x="884.813654" y="537.147276" fill="#ffffff" stroke="#ffffff" xlink:href="#b"/>
</g>
<g clip-path="url(#a)">
<use x="57.575758" y="537.147276" fill="#ffffff" stroke="#ffffff" xlink:href="#b"/>
</g>
<g clip-path="url(#a)">
<use x="74.120515" y="537.147276" fill="#ffffff" stroke="#ffffff" xlink:href="#b"/>
</g>
<g clip-path="url(#a)">
<use x="97.283177" y="537.147276" fill="#ffffff" stroke="#ffffff" xlink:href="#b"/>
</g>
<g clip-path="url(#a)">
<use x="184.694648" y="233.958158" fill="#ffffff" stroke="#ffffff" xlink:href="#b"/>
</g>
<g clip-path="url(#a)">
<use x="117.136886" y="537.147276" fill="#ffffff" stroke="#ffffff" xlink:href="#b"/>
</g>
<g clip-path="url(#a)">
<use x="140.299547" y="537.147276" fill="#ffffff" stroke="#ffffff" xlink:href="#b"/>
</g>
<g clip-path="url(#a)">
<use x="166.77116" y="537.147276" fill="#ffffff" stroke="#ffffff" xlink:href="#b"/>
</g>
<g clip-path="url(#a)">
<use x="302.713921" y="335.426517" fill="#ffffff" stroke="#ffffff" xlink:href="#b"/>
</g>
<g clip-path="url(#a)">
<use x="229.64124" y="537.147276" fill="#ffffff" stroke="#ffffff" xlink:href="#b"/>
</g>
<g clip-path="url(#a)">
<use x="343.248578" y="436.550706" fill="#ffffff" stroke="#ffffff" xlink:href="#b"/>
</g>
<g clip-path="url(#a)">
<use x="471.194706" y="537.147276" fill="#ffffff" stroke="#ffffff" xlink:href="#b"/>
</g>
<g clip-path="url(#a)">
<use x="285.893417" y="537.147276" fill="#ffffff" stroke="#ffffff" xlink:href="#b"/>
</g>
<g clip-path="url(#a)">
<use x="348.763497" y="537.147276" fill="#ffffff" stroke="#ffffff" xlink:href="#b"/>
</g>
<g clip-path="url(#a)">
<use x="395.088819" y="537.147276" fill="#ffffff" stroke="#ffffff" xlink:href="#b"/>
</g>
<g clip-path="url(#a)">
<use x="196.551724" y="537.147276" fill="#ffffff" stroke="#ffffff" xlink:href="#b"/>
</g>
<g clip-path="url(#a)">
<use x="553.918495" y="537.147276" fill="#ffffff" stroke="#ffffff" xlink:href="#b"/>
</g>
<g clip-path="url(#a)">
<use x="1209.090909" y="537.147276" fill="#ffffff" stroke="#ffffff" xlink:href="#b"/>
</g>
<g clip-path="url(#a)">
<defs>
<path id="ar" d="m9.8125 72.906h9.8594v-72.906h-9.8594z"/>
<path id="x" d="m48.781 52.594v-8.4062q-3.8125 2.1094-7.6406 3.1562t-7.7344 1.0469q-8.75 0-13.594-5.5469-4.8281-5.5312-4.8281-15.547t4.8281-15.562q4.8438-5.5312 13.594-5.5312 3.9062 0 7.7344 1.0469t7.6406 3.1562v-8.3125q-3.7656-1.75-7.7969-2.625-4.0156-0.89062-8.5625-0.89062-12.359 0-19.641 7.7656-7.2656 7.7656-7.2656 20.953 0 13.375 7.3438 21.031 7.3594 7.6719 20.156 7.6719 4.1406 0 8.0938-0.85938 3.9531-0.84375 7.6719-2.5469z"/>
<path id="s" d="m54.891 33.016v-33.016h-8.9844v32.719q0 7.7656-3.0312 11.609-3.0312 3.8594-9.0781 3.8594-7.2812 0-11.484-4.6406-4.2031-4.625-4.2031-12.641v-30.906h-9.0312v75.984h9.0312v-29.797q3.2344 4.9375 7.5938 7.375 4.375 2.4375 10.094 2.4375 9.4219 0 14.25-5.8281 4.8438-5.8281 4.8438-17.156z"/>
</defs>
<g transform="translate(50.183 639.12) scale(.1 -.1)">
<use xlink:href="#ar"/>
<use x="29.492188" xlink:href="#x"/>
<use x="84.472656" xlink:href="#s"/>
</g>
</g>
<g clip-path="url(#a)">
<defs>
<path id="r" d="m48.688 27.297q0 9.9062-4.0781 15.547t-11.203 5.6406q-7.1406 0-11.219-5.6406t-4.0781-15.547 4.0781-15.547 11.219-5.6406q7.125 0 11.203 5.6406t4.0781 15.547zm-30.578 19.094q2.8438 4.875 7.1562 7.2344 4.3281 2.375 10.328 2.375 9.9688 0 16.188-7.9062 6.2344-7.9062 6.2344-20.797t-6.2344-20.812q-6.2188-7.9062-16.188-7.9062-6 0-10.328 2.375-4.3125 2.375-7.1562 7.25v-8.2031h-9.0312v75.984h9.0312z"/>
<path id="af" d="m45.406 27.984q0 9.7656-4.0312 15.125-4.0156 5.375-11.297 5.375-7.2188 0-11.25-5.375-4.0312-5.3594-4.0312-15.125 0-9.7188 4.0312-15.094t11.25-5.375q7.2812 0 11.297 5.375 4.0312 5.375 4.0312 15.094zm8.9844-21.203q0-13.953-6.2031-20.766-6.1875-6.8125-18.984-6.8125-4.7344 0-8.9375 0.70312t-8.1562 2.1719v8.7344q3.9531-2.1406 7.8125-3.1562 3.8594-1.0312 7.8594-1.0312 8.8438 0 13.234 4.6094t4.3906 13.938v4.4531q-2.7812-4.8438-7.125-7.2344t-10.406-2.3906q-10.047 0-16.203 7.6562-6.1562 7.6719-6.1562 20.328 0 12.688 6.1562 20.344 6.1562 7.6719 16.203 7.6719 6.0625 0 10.406-2.3906t7.125-7.2188v8.2969h8.9844z"/>
</defs>
<g transform="translate(51.839 639.12) scale(.1 -.1)">
<use xlink:href="#r"/>
<use x="63.476562" xlink:href="#e"/>
<use x="125" xlink:href="#af"/>
<use x="188.476562" xlink:href="#h"/>
<use x="249.755859" xlink:href="#r"/>
</g>
</g>
<g clip-path="url(#a)">
<g transform="translate(68.561 639.12) scale(.1 -.1)">
<use xlink:href="#i"/>
<use x="97.412109" xlink:href="#f"/>
<use x="125.195312" xlink:href="#x"/>
<use x="180.175781" xlink:href="#s"/>
</g>
</g>
<g clip-path="url(#a)">
<g transform="translate(83.318 639.12) scale(.1 -.1)">
<use xlink:href="#s"/>
<use x="63.378906" xlink:href="#f"/>
<use x="91.162109" xlink:href="#d"/>
<use x="154.541016" xlink:href="#h"/>
<use x="215.820312" xlink:href="#r"/>
</g>
</g>
<g clip-path="url(#a)">
<g transform="translate(112.58 639.12) scale(.1 -.1)">
<use xlink:href="#f"/>
<use x="27.783203" xlink:href="#d"/>
</g>
</g>
<g clip-path="url(#a)">
<defs>
<path id="p" d="m45.406 46.391v29.594h8.9844v-75.984h-8.9844v8.2031q-2.8281-4.875-7.1562-7.25-4.3125-2.375-10.375-2.375-9.9062 0-16.141 7.9062-6.2188 7.9219-6.2188 20.812t6.2188 20.797q6.2344 7.9062 16.141 7.9062 6.0625 0 10.375-2.375 4.3281-2.3594 7.1562-7.2344zm-30.609-19.094q0-9.9062 4.0781-15.547t11.203-5.6406 11.219 5.6406q4.1094 5.6406 4.1094 15.547t-4.1094 15.547q-4.0938 5.6406-11.219 5.6406t-11.203-5.6406-4.0781-15.547z"/>
</defs>
<g transform="translate(132.66 639.12) scale(.1 -.1)">
<use xlink:href="#p"/>
<use x="63.476562" xlink:href="#f"/>
<use x="91.259766" xlink:href="#e"/>
</g>
</g>
<g clip-path="url(#a)">
<defs>
<path id="ai" d="m9.8125 72.906h9.8594v-30.812l32.719 30.812h12.703l-36.188-33.984 38.766-38.922h-12.984l-35.016 35.109v-35.109h-9.8594z"/>
</defs>
<g transform="translate(149.71 639.12) scale(.1 -.1)">
<use xlink:href="#ai"/>
<use x="63.826172" xlink:href="#h"/>
<use x="125.105469" xlink:href="#r"/>
<use x="188.582031" xlink:href="#f"/>
<use x="216.365234" xlink:href="#d"/>
<use x="279.744141" xlink:href="#e"/>
</g>
</g>
<g clip-path="url(#a)">
<defs>
<path id="am" d="m11.719 12.406h10.297v-8.4062l-8-15.625h-6.2969l4 15.625z"/>
</defs>
<g transform="translate(194.96 639.12) scale(.1 -.1)">
<use xlink:href="#am"/>
</g>
</g>
<g clip-path="url(#a)">
<defs>
<path id="ay" d="m4.2031 54.688h8.9844l11.234-42.672 11.172 42.672h10.594l11.234-42.672 11.188 42.672h8.9844l-14.312-54.688h-10.594l-11.766 44.828-11.812-44.828h-10.609z"/>
<path id="an" d="m30.609 48.391q-7.2188 0-11.422-5.6406t-4.2031-15.453 4.1719-15.453q4.1875-5.6406 11.453-5.6406 7.1875 0 11.375 5.6562 4.2031 5.6719 4.2031 15.438 0 9.7188-4.2031 15.406-4.1875 5.6875-11.375 5.6875zm0 7.6094q11.719 0 18.406-7.625 6.7031-7.6094 6.7031-21.078 0-13.422-6.7031-21.078-6.6875-7.6406-18.406-7.6406-11.766 0-18.438 7.6406-6.6562 7.6562-6.6562 21.078 0 13.469 6.6562 21.078 6.6719 7.625 18.438 7.625z"/>
</defs>
<g transform="translate(222.49 639.12) scale(.1 -.1)">
<use xlink:href="#ay"/>
<use x="81.787109" xlink:href="#an"/>
</g>
</g>
<g clip-path="url(#a)">
<g transform="translate(256.05 639.12) scale(.1 -.1)">
<use xlink:href="#ag"/>
<use x="74.804688" xlink:href="#e"/>
<use x="136.328125" xlink:href="#p"/>
</g>
</g>
<g clip-path="url(#a)">
<g transform="translate(293.55 639.12) scale(.1 -.1)">
<use xlink:href="#ah"/>
<use x="55.712891" xlink:href="#h"/>
<use x="116.992188" xlink:href="#d"/>
<use x="180.371094" xlink:href="#p"/>
</g>
</g>
<g clip-path="url(#a)">
<defs>
<path id="ae" d="m8.5 21.578v33.109h8.9844v-32.766q0-7.7656 3.0156-11.656 3.0312-3.875 9.0938-3.875 7.2656 0 11.484 4.6406 4.2344 4.6406 4.2344 12.656v31h8.9844v-54.688h-8.9844v8.4062q-3.2656-4.9844-7.5938-7.4062-4.3125-2.4219-10.031-2.4219-9.4219 0-14.312 5.8594-4.875 5.8594-4.875 17.141z"/>
</defs>
<g transform="translate(339.25 639.12) scale(.1 -.1)">
<use xlink:href="#ae"/>
<use x="63.378906" xlink:href="#d"/>
<use x="126.757812" xlink:href="#p"/>
</g>
</g>
<g clip-path="url(#a)">
<defs>
<path id="w" d="m44.281 53.078v-8.5q-3.7969 1.9531-7.9062 2.9219-4.0938 0.98438-8.5 0.98438-6.6875 0-10.031-2.0469t-3.3438-6.1562q0-3.125 2.3906-4.9062t9.625-3.3906l3.0781-0.6875q9.5625-2.0469 13.594-5.7812t4.0312-10.422q0-7.625-6.0312-12.078-6.0312-4.4375-16.578-4.4375-4.3906 0-9.1562 0.85938t-10.031 2.5625v9.2812q4.9844-2.5938 9.8125-3.8906 4.8281-1.2812 9.5781-1.2812 6.3438 0 9.75 2.1719 3.4219 2.1719 3.4219 6.125 0 3.6562-2.4688 5.6094-2.4531 1.9531-10.812 3.7656l-3.125 0.73438q-8.3438 1.75-12.062 5.3906-3.7031 3.6406-3.7031 9.9844 0 7.7188 5.4688 11.906 5.4688 4.2031 15.531 4.2031 4.9688 0 9.3594-0.73438 4.4062-0.71875 8.1094-2.1875z"/>
</defs>
<g transform="translate(376.91 639.12) scale(.1 -.1)">
<use xlink:href="#q"/>
<use x="69.824219" xlink:href="#an"/>
<use x="131.005859" xlink:href="#d"/>
<use x="194.384766" xlink:href="#w"/>
<use x="246.484375" xlink:href="#e"/>
<use x="308.007812" xlink:href="#f"/>
<use x="335.791016" xlink:href="#j"/>
</g>
</g>
<g clip-path="url(#a)">
<g transform="translate(434.81 639.12) scale(.1 -.1)">
<use xlink:href="#w"/>
<use x="52.099609" xlink:href="#f"/>
<use x="79.882812" xlink:href="#x"/>
<use x="134.863281" xlink:href="#s"/>
</g>
</g>
<g clip-path="url(#a)">
<defs>
<path id="ao" d="m37.109 75.984v-7.4844h-8.5938q-4.8281 0-6.7188-1.9531-1.875-1.9531-1.875-7.0312v-4.8281h14.797v-6.9844h-14.797v-47.703h-9.0312v47.703h-8.5938v6.9844h8.5938v3.8125q0 9.125 4.25 13.297 4.25 4.1875 13.469 4.1875z"/>
</defs>
<g transform="translate(474 639.12) scale(.1 -.1)">
<use xlink:href="#r"/>
<use x="63.476562" xlink:href="#e"/>
<use x="125" xlink:href="#ao"/>
<use x="160.205078" xlink:href="#h"/>
<use x="221.484375" xlink:href="#d"/>
<use x="284.863281" xlink:href="#p"/>
<use x="348.339844" xlink:href="#e"/>
<use x="409.863281" xlink:href="#d"/>
</g>
</g>
<g clip-path="url(#a)">
<g transform="translate(552.33 639.12) scale(.1 -.1)">
<use xlink:href="#am"/>
</g>
</g>
<g clip-path="url(#a)">
<g transform="translate(603.97 639.12) scale(.1 -.1)">
<use xlink:href="#ae"/>
<use x="63.378906" xlink:href="#d"/>
<use x="126.757812" xlink:href="#p"/>
</g>
</g>
<g clip-path="url(#a)">
<defs>
<path id="v" d="m18.312 70.219v-15.531h18.5v-6.9844h-18.5v-29.688q0-6.6875 1.8281-8.5938t7.4531-1.9062h9.2188v-7.5156h-9.2188q-10.406 0-14.359 3.875-3.9531 3.8906-3.9531 14.141v29.688h-6.5938v6.9844h6.5938v15.531z"/>
</defs>
<g transform="translate(663.5 639.12) scale(.1 -.1)">
<use xlink:href="#v"/>
<use x="39.208984" xlink:href="#e"/>
<use x="100.732422" xlink:href="#f"/>
<use x="128.515625" xlink:href="#j"/>
<use x="156.298828" xlink:href="#v"/>
<use x="195.507812" xlink:href="#e"/>
</g>
</g>
<g clip-path="url(#a)">
<g transform="translate(728.56 639.12) scale(.1 -.1)">
<use xlink:href="#f"/>
<use x="27.783203" xlink:href="#s"/>
<use x="91.162109" xlink:href="#d"/>
<use x="154.541016" xlink:href="#e"/>
<use x="216.064453" xlink:href="#d"/>
</g>
</g>
<g clip-path="url(#a)">
<g transform="translate(804.38 639.12) scale(.1 -.1)">
<use xlink:href="#p"/>
<use x="63.476562" xlink:href="#f"/>
<use x="91.259766" xlink:href="#e"/>
</g>
</g>
<g clip-path="url(#a)">
<defs>
<path id="ap" d="m28.609 0-27.828 72.906h10.297l23.109-61.375 23.141 61.375h10.25l-27.781-72.906z"/>
<path id="av" d="m8.5 21.578v33.109h8.9844v-32.766q0-7.7656 3.0156-11.656 3.0312-3.875 9.0938-3.875 7.2656 0 11.484 4.6406 4.2344 4.6406 4.2344 12.656v31h8.9844v-54.688h-8.9844v8.4062q-3.2656-4.9844-7.5938-7.4062-4.3125-2.4219-10.031-2.4219-9.4219 0-14.312 5.8594-4.875 5.8594-4.875 17.141zm22.609 34.422m4.4844 19.781h9.9062v-9.8594h-9.9062zm-19.094 0h9.9062v-9.8594h-9.9062z"/>
</defs>
<g transform="translate(859.03 639.12) scale(.1 -.1)">
<use xlink:href="#ap"/>
<use x="60.658203" xlink:href="#e"/>
<use x="122.181641" xlink:href="#k"/>
<use x="163.294922" xlink:href="#ao"/>
<use x="198.5" xlink:href="#av"/>
<use x="261.878906" xlink:href="#af"/>
<use x="325.355469" xlink:href="#ae"/>
<use x="388.734375" xlink:href="#d"/>
<use x="452.113281" xlink:href="#af"/>
</g>
</g>
<g clip-path="url(#a)">
<g transform="translate(952.06 639.12) scale(.1 -.1)">
<use xlink:href="#p"/>
<use x="63.476562" xlink:href="#e"/>
<use x="125" xlink:href="#w"/>
</g>
</g>
<g clip-path="url(#a)">
<defs>
<path id="az" d="m18.109 8.2031v-29h-9.0312v75.484h9.0312v-8.2969q2.8438 4.875 7.1562 7.2344 4.3281 2.375 10.328 2.375 9.9688 0 16.188-7.9062 6.2344-7.9062 6.2344-20.797t-6.2344-20.812q-6.2188-7.9062-16.188-7.9062-6 0-10.328 2.375-4.3125 2.375-7.1562 7.25zm30.578 19.094q0 9.9062-4.0781 15.547t-11.203 5.6406q-7.1406 0-11.219-5.6406t-4.0781-15.547 4.0781-15.547 11.219-5.6406q7.125 0 11.203 5.6406t4.0781 15.547z"/>
<path id="aw" d="m34.281 27.484q-10.891 0-15.094-2.4844t-4.2031-8.5q0-4.7812 3.1562-7.5938 3.1562-2.7969 8.5625-2.7969 7.4844 0 12 5.2969t4.5156 14.078v2zm17.922 3.7188v-31.203h-8.9844v8.2969q-3.0781-4.9688-7.6719-7.3438t-11.234-2.375q-8.3906 0-13.359 4.7188-4.9531 4.7188-4.9531 12.625 0 9.2188 6.1719 13.906 6.1875 4.6875 18.438 4.6875h12.609v0.89062q0 6.2031-4.0781 9.5938t-11.453 3.3906q-4.6875 0-9.1406-1.125-4.4375-1.125-8.5312-3.375v8.3125q4.9219 1.9062 9.5625 2.8438 4.6406 0.95312 9.0312 0.95312 11.875 0 17.734-6.1562 5.8594-6.1406 5.8594-18.641zm-18.609 44.578h9.9062v-9.8594h-9.9062zm-19.094 0h9.9062v-9.8594h-9.9062z"/>
</defs>
<g transform="translate(1018.7 639.12) scale(.1 -.1)">
<use xlink:href="#ai"/>
<use x="63.826172" xlink:href="#h"/>
<use x="125.105469" xlink:href="#az"/>
<use x="188.582031" xlink:href="#f"/>
<use x="216.365234" xlink:href="#v"/>
<use x="255.574219" xlink:href="#aw"/>
<use x="316.853516" xlink:href="#d"/>
<use x="380.232422" xlink:href="#w"/>
</g>
</g>
<g clip-path="url(#a)">
<g transform="translate(1114.8 639.12) scale(.1 -.1)">
<use xlink:href="#i"/>
<use x="97.412109" xlink:href="#f"/>
<use x="125.195312" xlink:href="#v"/>
</g>
</g>
<g clip-path="url(#a)">
<defs>
<path id="g" d="m10.688 12.406h10.312v-12.406h-10.312z"/>
</defs>
<g transform="translate(1207.5 639.12) scale(.1 -.1)">
<use xlink:href="#g"/>
</g>
</g>
<g clip-path="url(#a)">
<defs>
<path id="c" d="m12.406 8.2969h16.109v55.625l-17.531-3.5156v8.9844l17.438 3.5156h9.8594v-64.609h16.109v-8.2969h-41.984z"/>
</defs>
<g transform="translate(501.42 33.062) scale(.1 -.1)">
<use xlink:href="#c"/>
<use x="63.623047" xlink:href="#g"/>
<use x="95.410156" xlink:href="#c"/>
</g>
</g>
<g clip-path="url(#a)">
<defs>
<path id="m" d="m19.188 8.2969h34.422v-8.2969h-46.281v8.2969q5.6094 5.8125 15.297 15.594 9.7031 9.7969 12.188 12.641 4.7344 5.3125 6.6094 9 1.8906 3.6875 1.8906 7.25 0 5.8125-4.0781 9.4688-4.0781 3.6719-10.625 3.6719-4.6406 0-9.7969-1.6094-5.1406-1.6094-11-4.8906v9.9688q5.9531 2.3906 11.125 3.6094 5.1875 1.2188 9.4844 1.2188 11.328 0 18.062-5.6719 6.7344-5.6562 6.7344-15.125 0-4.5-1.6875-8.5312-1.6719-4.0156-6.125-9.4844-1.2188-1.4219-7.7656-8.1875-6.5312-6.7656-18.453-18.922z"/>
</defs>
<g transform="translate(95.467 134.99) scale(.1 -.1)">
<use xlink:href="#c"/>
<use x="63.623047" xlink:href="#g"/>
<use x="95.410156" xlink:href="#m"/>
</g>
</g>
<g clip-path="url(#a)">
<defs>
<path id="o" d="m40.578 39.312q7.0781-1.5156 11.047-6.3125 3.9844-4.7812 3.9844-11.812 0-10.781-7.4219-16.703-7.4219-5.9062-21.094-5.9062-4.5781 0-9.4375 0.90625t-10.031 2.7188v9.5156q4.0938-2.3906 8.9688-3.6094 4.8906-1.2188 10.219-1.2188 9.2656 0 14.125 3.6562t4.8594 10.641q0 6.4531-4.5156 10.078-4.5156 3.6406-12.562 3.6406h-8.5v8.1094h8.8906q7.2656 0 11.125 2.9062t3.8594 8.375q0 5.6094-3.9844 8.6094-3.9688 3.0156-11.391 3.0156-4.0625 0-8.7031-0.89062-4.6406-0.875-10.203-2.7188v8.7812q5.625 1.5625 10.531 2.3438t9.25 0.78125q11.234 0 17.766-5.1094 6.5469-5.0938 6.5469-13.781 0-6.0625-3.4688-10.234t-9.8594-5.7812z"/>
</defs>
<g transform="translate(605.53 539.91) scale(.1 -.1)">
<use xlink:href="#c"/>
<use x="63.623047" xlink:href="#g"/>
<use x="95.410156" xlink:href="#o"/>
</g>
</g>
<g clip-path="url(#a)">
<defs>
<path id="u" d="m37.797 64.312-24.906-38.922h24.906zm-2.5938 8.5938h12.406v-47.516h10.406v-8.2031h-10.406v-17.188h-9.8125v17.188h-32.906v9.5156z"/>
</defs>
<g transform="translate(758.73 134.99) scale(.1 -.1)">
<use xlink:href="#c"/>
<use x="63.623047" xlink:href="#g"/>
<use x="95.410156" xlink:href="#u"/>
</g>
</g>
<g clip-path="url(#a)">
<defs>
<path id="ac" d="m8.2031 72.906h46.875v-4.2031l-26.469-68.703h-10.297l24.906 64.594h-35.016z"/>
</defs>
<g transform="translate(891.75 539.91) scale(.1 -.1)">
<use xlink:href="#c"/>
<use x="63.623047" xlink:href="#g"/>
<use x="95.410156" xlink:href="#ac"/>
</g>
</g>
<g clip-path="url(#a)">
<defs>
<path id="ab" d="m31.781 34.625q-7.0312 0-11.062-3.7656-4.0156-3.7656-4.0156-10.344 0-6.5938 4.0156-10.359 4.0312-3.7656 11.062-3.7656t11.078 3.7812q4.0625 3.7969 4.0625 10.344 0 6.5781-4.0312 10.344-4.0156 3.7656-11.109 3.7656zm-9.8594 4.1875q-6.3438 1.5625-9.8906 5.9062-3.5312 4.3594-3.5312 10.609 0 8.7344 6.2188 13.812 6.2344 5.0781 17.062 5.0781 10.891 0 17.094-5.0781t6.2031-13.812q0-6.25-3.5469-10.609-3.5312-4.3438-9.8281-5.9062 7.125-1.6562 11.094-6.5 3.9844-4.8281 3.9844-11.797 0-10.609-6.4688-16.281-6.4688-5.6562-18.531-5.6562-12.047 0-18.531 5.6562-6.4688 5.6719-6.4688 16.281 0 6.9688 4 11.797 4.0156 4.8438 11.141 6.5zm-3.6094 15.578q0-5.6562 3.5312-8.8281 3.5469-3.1719 9.9375-3.1719 6.3594 0 9.9375 3.1719 3.5938 3.1719 3.5938 8.8281 0 5.6719-3.5938 8.8438-3.5781 3.1719-9.9375 3.1719-6.3906 0-9.9375-3.1719-3.5312-3.1719-3.5312-8.8438z"/>
</defs>
<g transform="translate(734.58 539.91) scale(.1 -.1)">
<use xlink:href="#c"/>
<use x="63.623047" xlink:href="#g"/>
<use x="95.410156" xlink:href="#ab"/>
</g>
</g>
<g clip-path="url(#a)">
<defs>
<path id="aa" d="m10.984 1.5156v8.9844q3.7188-1.7656 7.5156-2.6875 3.8125-0.92188 7.4844-0.92188 9.7656 0 14.906 6.5625 5.1562 6.5625 5.8906 19.953-2.8281-4.2031-7.1875-6.4531-4.3438-2.25-9.6094-2.25-10.938 0-17.312 6.6094-6.375 6.625-6.375 18.109 0 11.219 6.6406 18 6.6406 6.7969 17.672 6.7969 12.656 0 19.312-9.7031 6.6719-9.6875 6.6719-28.141 0-17.234-8.1875-27.516-8.1719-10.281-21.984-10.281-3.7188 0-7.5312 0.73438-3.7969 0.73438-7.9062 2.2031zm19.625 30.906q6.6406 0 10.516 4.5312 3.8906 4.5469 3.8906 12.469 0 7.8594-3.8906 12.422-3.875 4.5625-10.516 4.5625t-10.516-4.5625-3.875-12.422q0-7.9219 3.875-12.469 3.875-4.5312 10.516-4.5312z"/>
</defs>
<g transform="translate(916.57 236.72) scale(.1 -.1)">
<use xlink:href="#c"/>
<use x="63.623047" xlink:href="#g"/>
<use x="95.410156" xlink:href="#aa"/>
</g>
</g>
<g clip-path="url(#a)">
<defs>
<path id="ad" d="m31.781 66.406q-7.6094 0-11.453-7.5-3.8281-7.4844-3.8281-22.531 0-14.984 3.8281-22.484 3.8438-7.5 11.453-7.5 7.6719 0 11.5 7.5 3.8438 7.5 3.8438 22.484 0 15.047-3.8438 22.531-3.8281 7.5-11.5 7.5zm0 7.8125q12.266 0 18.734-9.7031 6.4688-9.6875 6.4688-28.141 0-18.406-6.4688-28.109-6.4688-9.6875-18.734-9.6875-12.25 0-18.719 9.6875-6.4688 9.7031-6.4688 28.109 0 18.453 6.4688 28.141 6.4688 9.7031 18.719 9.7031z"/>
</defs>
<g transform="translate(837.28 439.31) scale(.1 -.1)">
<use xlink:href="#c"/>
<use x="63.623047" xlink:href="#g"/>
<use x="95.410156" xlink:href="#c"/>
<use x="159.033203" xlink:href="#ad"/>
</g>
</g>
<g clip-path="url(#a)">
<g transform="translate(989.49 338.19) scale(.1 -.1)">
<use xlink:href="#c"/>
<use x="63.623047" xlink:href="#g"/>
<use x="95.410156" xlink:href="#c"/>
<use x="159.033203" xlink:href="#c"/>
</g>
</g>
<g clip-path="url(#a)">
<g transform="translate(989.49 439.31) scale(.1 -.1)">
<use xlink:href="#c"/>
<use x="63.623047" xlink:href="#g"/>
<use x="95.410156" xlink:href="#c"/>
<use x="159.033203" xlink:href="#m"/>
</g>
</g>
<g clip-path="url(#a)">
<g transform="translate(949.79 539.91) scale(.1 -.1)">
<use xlink:href="#c"/>
<use x="63.623047" xlink:href="#g"/>
<use x="95.410156" xlink:href="#c"/>
<use x="159.033203" xlink:href="#o"/>
</g>
</g>
<g clip-path="url(#a)">
<g transform="translate(1029.2 539.91) scale(.1 -.1)">
<use xlink:href="#c"/>
<use x="63.623047" xlink:href="#g"/>
<use x="95.410156" xlink:href="#c"/>
<use x="159.033203" xlink:href="#u"/>
</g>
</g>
<g clip-path="url(#a)">
<defs>
<path id="au" d="m10.797 72.906h38.719v-8.3125h-29.688v-17.859q2.1406 0.73438 4.2812 1.0938 2.1562 0.35938 4.3125 0.35938 12.203 0 19.328-6.6875 7.1406-6.6875 7.1406-18.109 0-11.766-7.3281-18.297-7.3281-6.5156-20.656-6.5156-4.5938 0-9.3594 0.78125-4.75 0.78125-9.8281 2.3438v9.9219q4.3906-2.3906 9.0781-3.5625t9.9062-1.1719q8.4531 0 13.375 4.4375 4.9375 4.4375 4.9375 12.062 0 7.6094-4.9375 12.047-4.9219 4.4531-13.375 4.4531-3.9531 0-7.8906-0.875-3.9219-0.875-8.0156-2.7344z"/>
</defs>
<g transform="translate(800.88 539.91) scale(.1 -.1)">
<use xlink:href="#c"/>
<use x="63.623047" xlink:href="#g"/>
<use x="95.410156" xlink:href="#c"/>
<use x="159.033203" xlink:href="#au"/>
</g>
</g>
<g clip-path="url(#a)">
<defs>
<path id="al" d="m33.016 40.375q-6.6406 0-10.531-4.5469-3.875-4.5312-3.875-12.438 0-7.8594 3.875-12.438 3.8906-4.5625 10.531-4.5625t10.516 4.5625q3.875 4.5781 3.875 12.438 0 7.9062-3.875 12.438-3.875 4.5469-10.516 4.5469zm19.578 30.922v-8.9844q-3.7188 1.75-7.5 2.6719-3.7812 0.9375-7.5 0.9375-9.7656 0-14.922-6.5938-5.1406-6.5938-5.875-19.922 2.875 4.25 7.2188 6.5156 4.3594 2.2656 9.5781 2.2656 10.984 0 17.359-6.6719 6.375-6.6562 6.375-18.125 0-11.234-6.6406-18.031-6.6406-6.7812-17.672-6.7812-12.656 0-19.344 9.6875-6.6875 9.7031-6.6875 28.109 0 17.281 8.2031 27.562t22.016 10.281q3.7188 0 7.5-0.73438t7.8906-2.1875z"/>
</defs>
<g transform="translate(873.68 539.91) scale(.1 -.1)">
<use xlink:href="#c"/>
<use x="63.623047" xlink:href="#g"/>
<use x="95.410156" xlink:href="#c"/>
<use x="159.033203" xlink:href="#al"/>
</g>
</g>
<g clip-path="url(#a)">
<g transform="translate(46.443 539.91) scale(.1 -.1)">
<use xlink:href="#c"/>
<use x="63.623047" xlink:href="#g"/>
<use x="95.410156" xlink:href="#c"/>
<use x="159.033203" xlink:href="#ac"/>
</g>
</g>
<g clip-path="url(#a)">
<g transform="translate(62.988 539.91) scale(.1 -.1)">
<use xlink:href="#c"/>
<use x="63.623047" xlink:href="#g"/>
<use x="95.410156" xlink:href="#c"/>
<use x="159.033203" xlink:href="#ab"/>
</g>
</g>
<g clip-path="url(#a)">
<g transform="translate(86.15 539.91) scale(.1 -.1)">
<use xlink:href="#c"/>
<use x="63.623047" xlink:href="#g"/>
<use x="95.410156" xlink:href="#c"/>
<use x="159.033203" xlink:href="#aa"/>
</g>
</g>
<g clip-path="url(#a)">
<g transform="translate(173.56 236.72) scale(.1 -.1)">
<use xlink:href="#c"/>
<use x="63.623047" xlink:href="#g"/>
<use x="95.410156" xlink:href="#m"/>
<use x="159.033203" xlink:href="#ad"/>
</g>
</g>
<g clip-path="url(#a)">
<g transform="translate(106 539.91) scale(.1 -.1)">
<use xlink:href="#c"/>
<use x="63.623047" xlink:href="#g"/>
<use x="95.410156" xlink:href="#m"/>
<use x="159.033203" xlink:href="#c"/>
</g>
</g>
<g clip-path="url(#a)">
<g transform="translate(129.17 539.91) scale(.1 -.1)">
<use xlink:href="#c"/>
<use x="63.623047" xlink:href="#g"/>
<use x="95.410156" xlink:href="#m"/>
<use x="159.033203" xlink:href="#m"/>
</g>
</g>
<g clip-path="url(#a)">
<g transform="translate(155.64 539.91) scale(.1 -.1)">
<use xlink:href="#c"/>
<use x="63.623047" xlink:href="#g"/>
<use x="95.410156" xlink:href="#m"/>
<use x="159.033203" xlink:href="#o"/>
</g>
</g>
<g clip-path="url(#a)">
<g transform="translate(291.58 338.19) scale(.1 -.1)">
<use xlink:href="#c"/>
<use x="63.623047" xlink:href="#g"/>
<use x="95.410156" xlink:href="#m"/>
<use x="159.033203" xlink:href="#u"/>
</g>
</g>
<g clip-path="url(#a)">
<g transform="translate(218.51 539.91) scale(.1 -.1)">
<use xlink:href="#c"/>
<use x="63.623047" xlink:href="#g"/>
<use x="95.410156" xlink:href="#m"/>
<use x="159.033203" xlink:href="#al"/>
</g>
</g>
<g clip-path="url(#a)">
<g transform="translate(332.12 439.31) scale(.1 -.1)">
<use xlink:href="#c"/>
<use x="63.623047" xlink:href="#g"/>
<use x="95.410156" xlink:href="#m"/>
<use x="159.033203" xlink:href="#ac"/>
</g>
</g>
<g clip-path="url(#a)">
<g transform="translate(460.06 539.91) scale(.1 -.1)">
<use xlink:href="#c"/>
<use x="63.623047" xlink:href="#g"/>
<use x="95.410156" xlink:href="#m"/>
<use x="159.033203" xlink:href="#ab"/>
</g>
</g>
<g clip-path="url(#a)">
<g transform="translate(274.76 539.91) scale(.1 -.1)">
<use xlink:href="#c"/>
<use x="63.623047" xlink:href="#g"/>
<use x="95.410156" xlink:href="#m"/>
<use x="159.033203" xlink:href="#aa"/>
</g>
</g>
<g clip-path="url(#a)">
<g transform="translate(337.63 539.91) scale(.1 -.1)">
<use xlink:href="#c"/>
<use x="63.623047" xlink:href="#g"/>
<use x="95.410156" xlink:href="#o"/>
<use x="159.033203" xlink:href="#ad"/>
</g>
</g>
<g clip-path="url(#a)">
<g transform="translate(383.96 539.91) scale(.1 -.1)">
<use xlink:href="#c"/>
<use x="63.623047" xlink:href="#g"/>
<use x="95.410156" xlink:href="#o"/>
<use x="159.033203" xlink:href="#c"/>
</g>
</g>
<g clip-path="url(#a)">
<g transform="translate(185.42 539.91) scale(.1 -.1)">
<use xlink:href="#c"/>
<use x="63.623047" xlink:href="#g"/>
<use x="95.410156" xlink:href="#o"/>
<use x="159.033203" xlink:href="#m"/>
</g>
</g>
<g clip-path="url(#a)">
<g transform="translate(542.79 539.91) scale(.1 -.1)">
<use xlink:href="#c"/>
<use x="63.623047" xlink:href="#g"/>
<use x="95.410156" xlink:href="#o"/>
<use x="159.033203" xlink:href="#o"/>
</g>
</g>
<g clip-path="url(#a)">
<g transform="translate(1198 539.91) scale(.1 -.1)">
<use xlink:href="#c"/>
<use x="63.623047" xlink:href="#g"/>
<use x="95.410156" xlink:href="#o"/>
<use x="159.033203" xlink:href="#u"/>
</g>
</g>
<defs>
<clipPath id="a">
<rect width="1266.7" height="666.67"/>
</clipPath>
</defs>
</svg>
