<?xml version="1.0" encoding="UTF-8"?>
<!DOCTYPE svg  PUBLIC '-//W3C//DTD SVG 1.1//EN'  'http://www.w3.org/Graphics/SVG/1.1/DTD/svg11.dtd'>
<svg width="1722.7pt" height="906.67pt" version="1.1" viewBox="0 0 1722.7 906.67" xmlns="http://www.w3.org/2000/svg" xmlns:xlink="http://www.w3.org/1999/xlink">
<defs>
<style type="text/css">*{stroke-linecap:butt;stroke-linejoin:round;white-space:pre;}</style>
</defs>
<path d="m0 906.67h1722.7v-906.67h-1722.7z" fill="#fff"/>
<g fill="none" stroke="#000">
<path d="m616.49 42.126-466.85 556.61" clip-path="url(#a)"/>
<path d="m616.49 42.126-348.23 421.87" clip-path="url(#a)"/>
<path d="m616.49 42.126 64.546 421.87" clip-path="url(#a)"/>
<path d="m616.49 42.126 268.56 689.51" clip-path="url(#a)"/>
<path d="m616.49 42.126 720.09 144.05" clip-path="url(#a)"/>
<path d="m616.49 42.126-348.23 689.51" clip-path="url(#a)"/>
<path d="m616.49 42.126-111 689.51" clip-path="url(#a)"/>
<path d="m616.49 42.126 221.12 689.51" clip-path="url(#a)"/>
<path d="m149.64 598.74-71.169 132.9" clip-path="url(#a)"/>
<path d="m149.64 598.74-23.723 132.9" clip-path="url(#a)"/>
<path d="m149.64 598.74 23.723 132.9" clip-path="url(#a)"/>
<path d="m149.64 598.74 71.169 132.9" clip-path="url(#a)"/>
<path d="m268.26 463.99 47.446 267.65" clip-path="url(#a)"/>
<path d="m268.26 463.99 142.34 134.75" clip-path="url(#a)"/>
<path d="m268.26 463.99-189.78 267.65" clip-path="url(#a)" stroke-dasharray="3.7,1.6"/>
<path d="m681.04 463.99-128.1 267.65" clip-path="url(#a)"/>
<path d="m681.04 463.99-56.935 134.75" clip-path="url(#a)"/>
<path d="m681.04 463.99 14.234 267.65" clip-path="url(#a)"/>
<path d="m681.04 463.99 61.68 267.65" clip-path="url(#a)"/>
<path d="m681.04 463.99 109.13 267.65" clip-path="url(#a)"/>
<path d="m885.06 731.64v132.9" clip-path="url(#a)"/>
<path d="m1336.6 186.17-380.36 412.57" clip-path="url(#a)"/>
<path d="m1336.6 186.17-285.47 412.57" clip-path="url(#a)"/>
<path d="m1336.6 186.17-114.66 140.47" clip-path="url(#a)"/>
<path d="m1336.6 186.17 260.16 545.47" clip-path="url(#a)"/>
<path d="m1336.6 186.17 212.72 545.47" clip-path="url(#a)"/>
<path d="m1336.6 186.17 307.61 545.47" clip-path="url(#a)"/>
<path d="m956.23 598.74-23.723 132.9" clip-path="url(#a)"/>
<path d="m956.23 598.74 23.723 132.9" clip-path="url(#a)"/>
<path d="m1051.1 598.74-23.723 132.9" clip-path="url(#a)"/>
<path d="m1051.1 598.74 23.723 132.9" clip-path="url(#a)"/>
<path d="m1221.9 326.65-99.637 404.99" clip-path="url(#a)"/>
<path d="m1221.9 326.65-52.191 404.99" clip-path="url(#a)"/>
<path d="m1221.9 326.65-4.7446 404.99" clip-path="url(#a)"/>
<path d="m1221.9 326.65 113.87 137.34" clip-path="url(#a)"/>
<path d="m1221.9 326.65 42.701 404.99" clip-path="url(#a)"/>
<path d="m1596.7 731.64v132.9" clip-path="url(#a)"/>
<path d="m1122.3 731.64v132.9" clip-path="url(#a)"/>
<path d="m1169.7 731.64v132.9" clip-path="url(#a)"/>
<path d="m1217.2 731.64v132.9" clip-path="url(#a)"/>
<path d="m1335.8 463.99-118.61 267.65" clip-path="url(#a)" stroke-dasharray="3.7,1.6"/>
<path d="m1335.8 463.99-23.723 267.65" clip-path="url(#a)"/>
<path d="m1335.8 463.99 23.723 267.65" clip-path="url(#a)"/>
<path d="m1335.8 463.99 118.61 134.75" clip-path="url(#a)"/>
<path d="m1312.1 731.64v132.9" clip-path="url(#a)"/>
<path d="m1359.5 731.64v132.9" clip-path="url(#a)"/>
<path d="m1454.4 598.74-47.446 132.9" clip-path="url(#a)"/>
<path d="m1454.4 598.74v132.9" clip-path="url(#a)"/>
<path d="m1454.4 598.74 47.446 132.9" clip-path="url(#a)"/>
<path d="m1407 731.64v132.9" clip-path="url(#a)"/>
<path d="m1454.4 731.64v132.9" clip-path="url(#a)"/>
<path d="m1501.9 731.64v132.9" clip-path="url(#a)"/>
<path d="m1027.4 731.64v132.9" clip-path="url(#a)"/>
<path d="m1074.8 731.64v132.9" clip-path="url(#a)"/>
<path d="m932.5 731.64v132.9" clip-path="url(#a)"/>
<path d="m979.95 731.64v132.9" clip-path="url(#a)"/>
<path d="m552.93 731.64v132.9" clip-path="url(#a)"/>
<path d="m624.1 598.74-23.723 132.9" clip-path="url(#a)"/>
<path d="m624.1 598.74 23.723 132.9" clip-path="url(#a)"/>
<path d="m695.27 731.64v132.9" clip-path="url(#a)"/>
<path d="m742.72 731.64v132.9" clip-path="url(#a)"/>
<path d="m790.16 731.64v132.9" clip-path="url(#a)"/>
<path d="m600.38 731.64v132.9" clip-path="url(#a)"/>
<path d="m647.83 731.64v132.9" clip-path="url(#a)"/>
<path d="m315.7 731.64v132.9" clip-path="url(#a)"/>
<path d="m410.6 598.74-47.446 132.9" clip-path="url(#a)"/>
<path d="m410.6 598.74v132.9" clip-path="url(#a)"/>
<path d="m410.6 598.74 47.446 132.9" clip-path="url(#a)"/>
<path d="m363.15 731.64v132.9" clip-path="url(#a)"/>
<path d="m410.6 731.64v132.9" clip-path="url(#a)"/>
<path d="m458.04 731.64v132.9" clip-path="url(#a)"/>
<path d="m78.475 731.64v132.9" clip-path="url(#a)"/>
<path d="m125.92 731.64v132.9" clip-path="url(#a)"/>
<path d="m173.37 731.64v132.9" clip-path="url(#a)"/>
<path d="m220.81 731.64v132.9" clip-path="url(#a)"/>
<path d="m268.26 731.64v132.9" clip-path="url(#a)"/>
<path d="m505.49 731.64v132.9" clip-path="url(#a)"/>
<path d="m837.61 731.64v132.9" clip-path="url(#a)"/>
<path d="m1264.6 731.64v132.9" clip-path="url(#a)"/>
<path d="m1549.3 731.64v132.9" clip-path="url(#a)"/>
<path d="m1644.2 731.64v132.9" clip-path="url(#a)"/>
</g>
<path d="m385.94 326.77 3.8662-4.6096q1.5423-1.8388-0.29655-3.3811l-5.9322-4.9755q-1.8388-1.5423-3.3811 0.29655l-3.8662 4.6096q-1.5423 1.8388 0.29655 3.3811l5.9322 4.9755q1.8388 1.5423 3.3811-0.29655z" clip-path="url(#a)" fill="#fff" stroke="#fff"/>
<g clip-path="url(#a)">
<defs>
<path id="ac" d="m9.8125 72.906h9.8594v-29.891h35.844v29.891h9.8594v-72.906h-9.8594v34.719h-35.844v-34.719h-9.8594z"/>
</defs>
<g transform="translate(382.83 324.16) rotate(-50.012) scale(.08 -.08)">
<use xlink:href="#ac"/>
</g>
</g>
<path d="m445.3 259.37 3.8299-4.6397q1.5278-1.8509-0.32305-3.3787l-5.971-4.9288q-1.8509-1.5278-3.3787 0.32305l-3.8299 4.6397q-1.5278 1.8509 0.32305 3.3787l5.971 4.9288q1.8509 1.5278 3.3787-0.32305z" clip-path="url(#a)" fill="#fff" stroke="#fff"/>
<g clip-path="url(#a)">
<g transform="translate(442.16 256.78) rotate(-50.462) scale(.08 -.08)">
<use xlink:href="#ac"/>
</g>
</g>
<path d="m642.11 251.03 0.90991 5.947q0.36298 2.3724 2.7354 2.0094l7.6534-1.171q2.3724-0.36298 2.0094-2.7354l-0.90991-5.947q-0.36298-2.3724-2.7354-2.0094l-7.6534 1.171q-2.3724 0.36298-2.0094 2.7354z" clip-path="url(#a)" fill="#fff" stroke="#fff"/>
<g clip-path="url(#a)">
<g transform="translate(646.13 250.42) rotate(81.301) scale(.08 -.08)">
<use xlink:href="#ac"/>
</g>
</g>
<path d="m744.12 387.08 1.6178 4.1536q0.87105 2.2364 3.1074 1.3653l7.2146-2.8101q2.2364-0.87105 1.3653-3.1074l-1.6178-4.1536q-0.87105-2.2364-3.1074-1.3653l-7.2146 2.8101q-2.2364 0.87105-1.3653 3.1074z" clip-path="url(#a)" fill="#fff" stroke="#fff"/>
<g clip-path="url(#a)">
<defs>
<path id="ax" d="m9.8125 72.906h9.8594v-64.609h35.5v-8.2969h-45.359z"/>
</defs>
<g transform="translate(747.91 385.61) rotate(68.719) scale(.08 -.08)">
<use xlink:href="#ax"/>
</g>
</g>
<path d="m972.36 119.71 5.8994 1.1801q2.3534 0.47077 2.8241-1.8826l1.5187-7.5921q0.47077-2.3534-1.8826-2.8241l-5.8994-1.1801q-2.3534-0.47078-2.8241 1.8826l-1.5187 7.5921q-0.47077 2.3534 1.8826 2.8241z" clip-path="url(#a)" fill="#fff" stroke="#fff"/>
<g clip-path="url(#a)">
<g transform="translate(973.16 115.73) rotate(11.312) scale(.08 -.08)">
<use xlink:href="#ac"/>
</g>
</g>
<path d="m446.65 392.32 2.6395-5.2263q1.0819-2.1423-1.0603-3.2242l-6.9111-3.4904q-2.1423-1.0819-3.2242 1.0603l-2.6395 5.2263q-1.0819 2.1423 1.0603 3.2242l6.9111 3.4904q2.1423 1.0819 3.2242-1.0603z" clip-path="url(#a)" fill="#fff" stroke="#fff"/>
<g clip-path="url(#a)">
<defs>
<path id="v" d="m8.6875 72.906h9.9219v-44.297q0-11.719 4.2344-16.875 4.25-5.1406 13.781-5.1406 9.4688 0 13.719 5.1406 4.25 5.1562 4.25 16.875v44.297h9.9062v-45.516q0-14.25-7.0625-21.531-7.0469-7.2812-20.812-7.2812-13.828 0-20.891 7.2812-7.0469 7.2812-7.0469 21.531z"/>
</defs>
<g transform="translate(443.03 390.49) rotate(-63.204) scale(.08 -.08)">
<use xlink:href="#v"/>
</g>
</g>
<path d="m566.72 390.77 0.9306-5.7806q0.38146-2.3695-1.988-2.751l-7.6441-1.2306q-2.3695-0.38146-2.751 1.988l-0.9306 5.7806q-0.38146 2.3695 1.988 2.751l7.6441 1.2306q2.3695 0.38146 2.751-1.988z" clip-path="url(#a)" fill="#fff" stroke="#fff"/>
<g clip-path="url(#a)">
<g transform="translate(562.7 390.12) rotate(-80.855) scale(.08 -.08)">
<use xlink:href="#v"/>
</g>
</g>
<path d="m720.19 386.01 1.7879 5.5753q0.73288 2.2854 3.0182 1.5525l7.3727-2.3643q2.2854-0.73288 1.5525-3.0182l-1.7879-5.5753q-0.73288-2.2854-3.0182-1.5525l-7.3727 2.3643q-2.2854 0.73288-1.5525 3.0182z" clip-path="url(#a)" fill="#fff" stroke="#fff"/>
<g clip-path="url(#a)">
<g transform="translate(724.06 384.77) rotate(72.22) scale(.08 -.08)">
<use xlink:href="#v"/>
</g>
</g>
<path d="m118.3 670.56 2.5835-4.8243q1.133-2.1157-0.98274-3.2487l-6.8254-3.6551q-2.1157-1.133-3.2487 0.98274l-2.5835 4.8243q-1.133 2.1157 0.98274 3.2487l6.8254 3.6551q2.1157 1.133 3.2487-0.98274z" clip-path="url(#a)" fill="#fff" stroke="#fff"/>
<g clip-path="url(#a)">
<defs>
<path id="q" d="m34.188 63.188-13.391-36.281h26.812zm-5.5781 9.7188h11.188l27.781-72.906h-10.25l-6.6406 18.703h-32.859l-6.6406-18.703h-10.406z"/>
</defs>
<g transform="translate(114.71 668.64) rotate(-61.831) scale(.08 -.08)">
<use xlink:href="#q"/>
</g>
</g>
<path d="m143.48 668.99 0.96165-5.3873q0.42174-2.3627-1.9409-2.7844l-7.622-1.3605q-2.3627-0.42174-2.7844 1.9409l-0.96165 5.3873q-0.42174 2.3627 1.9409 2.7844l7.622 1.3605q2.3627 0.42174 2.7844-1.9409z" clip-path="url(#a)" fill="#fff" stroke="#fff"/>
<g clip-path="url(#a)">
<g transform="translate(139.47 668.27) rotate(-79.879) scale(.08 -.08)">
<use xlink:href="#q"/>
</g>
</g>
<path d="m154.85 663.6 0.96165 5.3873q0.42174 2.3627 2.7844 1.9409l7.622-1.3605q2.3627-0.42174 1.9409-2.7844l-0.96165-5.3873q-0.42174-2.3627-2.7844-1.9409l-7.622 1.3605q-2.3627 0.42174-1.9409 2.7844z" clip-path="url(#a)" fill="#fff" stroke="#fff"/>
<g clip-path="url(#a)">
<g transform="translate(158.85 662.88) rotate(79.879) scale(.08 -.08)">
<use xlink:href="#q"/>
</g>
</g>
<path d="m178.56 666.02 2.2772 4.2524q1.133 2.1157 3.2487 0.98274l6.8254-3.6551q2.1157-1.133 0.98274-3.2487l-2.2772-4.2524q-1.133-2.1157-3.2487-0.98274l-6.8254 3.6551q-2.1157 1.133-0.98274 3.2487z" clip-path="url(#a)" fill="#fff" stroke="#fff"/>
<g clip-path="url(#a)">
<defs>
<path id="ab" d="m19.672 64.797v-27.391h12.406q6.8906 0 10.641 3.5625 3.7656 3.5625 3.7656 10.156 0 6.5469-3.7656 10.109-3.75 3.5625-10.641 3.5625zm-9.8594 8.1094h22.266q12.266 0 18.531-5.5469 6.2812-5.5469 6.2812-16.234 0-10.797-6.2812-16.312-6.2656-5.5156-18.531-5.5156h-12.406v-29.297h-9.8594z"/>
</defs>
<g transform="translate(182.14 664.11) rotate(61.831) scale(.08 -.08)">
<use xlink:href="#ab"/>
</g>
</g>
<path d="m285.39 596.54 0.84198 4.7497q0.41892 2.3632 2.7821 1.9442l7.6236-1.3514q2.3632-0.41892 1.9442-2.7821l-0.84198-4.7497q-0.41892-2.3632-2.7821-1.9442l-7.6236 1.3514q-2.3632 0.41892-1.9442 2.7821z" clip-path="url(#a)" fill="#fff" stroke="#fff"/>
<g clip-path="url(#a)">
<g transform="translate(289.39 595.83) rotate(79.948) scale(.08 -.08)">
<use xlink:href="#ab"/>
</g>
</g>
<path d="m333.13 534.04 3.9741 3.7622q1.7429 1.65 3.3928-0.092925l5.3228-5.6226q1.65-1.7429-0.092925-3.3928l-3.9741-3.7622q-1.7429-1.65-3.3928 0.092925l-5.3228 5.6226q-1.65 1.7429 0.092925 3.3928z" clip-path="url(#a)" fill="#fff" stroke="#fff"/>
<g clip-path="url(#a)">
<g transform="translate(335.92 531.09) rotate(43.431) scale(.08 -.08)">
<use xlink:href="#q"/>
</g>
</g>
<path d="m176.9 603.68 3.1654-4.4641q1.3882-1.9578-0.56956-3.346l-6.3159-4.4784q-1.9578-1.3882-3.346 0.56956l-3.1654 4.4641q-1.3882 1.9578 0.56956 3.346l6.3159 4.4784q1.9578 1.3882 3.346-0.56956z" clip-path="url(#a)" fill="#fff" stroke="#fff"/>
<g clip-path="url(#a)">
<g transform="translate(173.58 601.32) rotate(-54.66) scale(.08 -.08)">
<use xlink:href="#q"/>
</g>
</g>
<path d="m621.65 602.6 1.9865-4.1504q1.0361-2.1648-1.1287-3.201l-6.9838-3.3426q-2.1648-1.0361-3.201 1.1287l-1.9865 4.1504q-1.0361 2.1648 1.1287 3.201l6.9838 3.3426q2.1648 1.0361 3.201-1.1287z" clip-path="url(#a)" fill="#fff" stroke="#fff"/>
<g clip-path="url(#a)">
<defs>
<path id="ai" d="m9.8125 72.906h41.891v-8.3125h-32.031v-21.484h28.906v-8.2969h-28.906v-34.812h-9.8594z"/>
</defs>
<g transform="translate(617.98 600.84) rotate(-64.423) scale(.08 -.08)">
<use xlink:href="#ai"/>
</g>
</g>
<path d="m657.28 536.33 2.13-5.041q0.93411-2.2108-1.2767-3.1449l-7.132-3.0135q-2.2108-0.93411-3.1449 1.2766l-2.13 5.041q-0.93411 2.2108 1.2766 3.1449l7.132 3.0135q2.2108 0.93411 3.1449-1.2766z" clip-path="url(#a)" fill="#fff" stroke="#fff"/>
<g clip-path="url(#a)">
<g transform="translate(653.54 534.75) rotate(-67.095) scale(.08 -.08)">
<use xlink:href="#q"/>
</g>
</g>
<path d="m681.73 595.07 0.32713 6.1513q0.12745 2.3966 2.5241 2.2692l7.7316-0.41117q2.3966-0.12745 2.2692-2.5241l-0.32713-6.1513q-0.12745-2.3966-2.5241-2.2692l-7.7316 0.41117q-2.3966 0.12745-2.2692 2.5241z" clip-path="url(#a)" fill="#fff" stroke="#fff"/>
<g clip-path="url(#a)">
<defs>
<path id="az" d="m19.672 64.797v-56.688h11.922q15.094 0 22.094 6.8281 7 6.8438 7 21.594 0 14.641-7 21.453t-22.094 6.8125zm-9.8594 8.1094h20.266q21.188 0 31.094-8.8125 9.9219-8.8125 9.9219-27.562 0-18.859-9.9688-27.703-9.9531-8.8281-31.047-8.8281h-20.266z"/>
</defs>
<g transform="translate(685.79 594.86) rotate(86.956) scale(.08 -.08)">
<use xlink:href="#az"/>
</g>
</g>
<path d="m705.23 596.87 1.0832 4.7005q0.53896 2.3387 2.8777 1.7997l7.5448-1.7387q2.3387-0.53896 1.7997-2.8777l-1.0832-4.7005q-0.53896-2.3387-2.8777-1.7997l-7.5448 1.7387q-2.3387 0.53896-1.7997 2.8777z" clip-path="url(#a)" fill="#fff" stroke="#fff"/>
<g clip-path="url(#a)">
<g transform="translate(709.19 595.96) rotate(77.023) scale(.08 -.08)">
<use xlink:href="#ab"/>
</g>
</g>
<path d="m728.93 598.05 1.7372 4.2607q0.90611 2.2224 3.1285 1.3163l7.1695-2.9231q2.2224-0.90611 1.3163-3.1285l-1.7372-4.2607q-0.90611-2.2224-3.1285-1.3163l-7.1695 2.9231q-2.2224 0.90611-1.3163 3.1285z" clip-path="url(#a)" fill="#fff" stroke="#fff"/>
<g clip-path="url(#a)">
<g transform="translate(732.69 596.52) rotate(67.818) scale(.08 -.08)">
<use xlink:href="#ai"/>
</g>
</g>
<path d="m878.79 780.45v35.285q0 2.4 2.4 2.4h7.7425q2.4 0 2.4-2.4v-35.285q0-2.4-2.4-2.4h-7.7425q-2.4 0-2.4 2.4z" clip-path="url(#a)" fill="#fff" stroke="#fff"/>
<g clip-path="url(#a)">
<defs>
<path id="l" d="m-0.29688 72.906h61.672v-8.3125h-25.875v-64.594h-9.9062v64.594h-25.891z"/>
<path id="d" d="m56.203 29.594v-4.3906h-41.312q0.59375-9.2812 5.5938-14.141t13.938-4.8594q5.1719 0 10.031 1.2656t9.6562 3.8125v-8.5q-4.8438-2.0469-9.9219-3.125t-10.297-1.0781q-13.094 0-20.734 7.6094-7.6406 7.625-7.6406 20.625 0 13.422 7.25 21.297 7.25 7.8906 19.562 7.8906 11.031 0 17.453-7.1094 6.4219-7.0938 6.4219-19.297zm-8.9844 2.6406q-0.09375 7.3594-4.125 11.75-4.0312 4.4062-10.672 4.4062-7.5156 0-12.031-4.25t-5.2031-11.969z"/>
<path id="h" d="m41.109 46.297q-1.5156 0.875-3.2969 1.2812-1.7812 0.42188-3.9219 0.42188-7.625 0-11.703-4.9531t-4.0781-14.234v-28.812h-9.0312v54.688h9.0312v-8.5q2.8438 4.9844 7.375 7.3906 4.5469 2.4219 11.047 2.4219 0.92188 0 2.0469-0.125 1.125-0.10938 2.4844-0.35938z"/>
<path id="k" d="m52 44.188q3.375 6.0625 8.0625 8.9375t11.031 2.875q8.5469 0 13.188-5.9844 4.6406-5.9688 4.6406-17v-33.016h-9.0312v32.719q0 7.8594-2.7969 11.656-2.7812 3.8125-8.4844 3.8125-6.9844 0-11.047-4.6406-4.0469-4.625-4.0469-12.641v-30.906h-9.0312v32.719q0 7.9062-2.7812 11.688t-8.5938 3.7812q-6.8906 0-10.953-4.6562-4.0469-4.6562-4.0469-12.625v-30.906h-9.0312v54.688h9.0312v-8.5q3.0781 5.0312 7.375 7.4219t10.203 2.3906q5.9688 0 10.141-3.0312 4.1719-3.0156 6.1719-8.7812z"/>
<path id="g" d="m9.4219 54.688h8.9844v-54.688h-8.9844zm0 21.297h8.9844v-11.391h-8.9844z"/>
<path id="e" d="m54.891 33.016v-33.016h-8.9844v32.719q0 7.7656-3.0312 11.609-3.0312 3.8594-9.0781 3.8594-7.2812 0-11.484-4.6406-4.2031-4.625-4.2031-12.641v-30.906h-9.0312v54.688h9.0312v-8.5q3.2344 4.9375 7.5938 7.375 4.375 2.4375 10.094 2.4375 9.4219 0 14.25-5.8281 4.8438-5.8281 4.8438-17.156z"/>
<path id="i" d="m34.281 27.484q-10.891 0-15.094-2.4844t-4.2031-8.5q0-4.7812 3.1562-7.5938 3.1562-2.7969 8.5625-2.7969 7.4844 0 12 5.2969t4.5156 14.078v2zm17.922 3.7188v-31.203h-8.9844v8.2969q-3.0781-4.9688-7.6719-7.3438t-11.234-2.375q-8.3906 0-13.359 4.7188-4.9531 4.7188-4.9531 12.625 0 9.2188 6.1719 13.906 6.1875 4.6875 18.438 4.6875h12.609v0.89062q0 6.2031-4.0781 9.5938t-11.453 3.3906q-4.6875 0-9.1406-1.125-4.4375-1.125-8.5312-3.375v8.3125q4.9219 1.9062 9.5625 2.8438 4.6406 0.95312 9.0312 0.95312 11.875 0 17.734-6.1562 5.8594-6.1406 5.8594-18.641z"/>
<path id="j" d="m9.4219 75.984h8.9844v-75.984h-8.9844z"/>
</defs>
<g transform="translate(882.85 780.45) rotate(90) scale(.08 -.08)">
<use xlink:href="#l"/>
<use x="60.818359" xlink:href="#d"/>
<use x="122.341797" xlink:href="#h"/>
<use x="163.439453" xlink:href="#k"/>
<use x="260.851562" xlink:href="#g"/>
<use x="288.634766" xlink:href="#e"/>
<use x="352.013672" xlink:href="#i"/>
<use x="413.292969" xlink:href="#j"/>
</g>
</g>
<path d="m1149.2 398.72 3.7094-4.0235q1.6268-1.7645-0.13775-3.3913l-5.6925-5.2481q-1.7645-1.6268-3.3913 0.13775l-3.7094 4.0235q-1.6268 1.7645 0.13775 3.3913l5.6925 5.2481q1.7645 1.6268 3.3913-0.13775z" clip-path="url(#a)" fill="#fff" stroke="#fff"/>
<g clip-path="url(#a)">
<g transform="translate(1146.2 395.97) rotate(-47.326) scale(.08 -.08)">
<use xlink:href="#q"/>
</g>
</g>
<path d="m1197.5 398.28 3.1139-4.5002q1.3656-1.9736-0.60801-3.3392l-6.3669-4.4055q-1.9736-1.3656-3.3392 0.60801l-3.1139 4.5002q-1.3656 1.9736 0.60801 3.3392l6.3669 4.4055q1.9736 1.3656 3.3392-0.60801z" clip-path="url(#a)" fill="#fff" stroke="#fff"/>
<g clip-path="url(#a)">
<g transform="translate(1194.1 395.96) rotate(-55.319) scale(.08 -.08)">
<use xlink:href="#q"/>
</g>
</g>
<path d="m1282.4 262.5 3.4605-4.2395q1.5176-1.8593-0.34164-3.3769l-5.998-4.8959q-1.8593-1.5176-3.3769 0.34164l-3.4605 4.2395q-1.5176 1.8593 0.34164 3.3769l5.998 4.8959q1.8593 1.5176 3.3769-0.34164z" clip-path="url(#a)" fill="#fff" stroke="#fff"/>
<g clip-path="url(#a)">
<g transform="translate(1279.2 259.93) rotate(-50.777) scale(.08 -.08)">
<use xlink:href="#q"/>
</g>
</g>
<path d="m1460 459.43 2.0766 4.3539q1.0332 2.1662 3.1994 1.133l6.9883-3.3331q2.1662-1.0332 1.133-3.1994l-2.0766-4.3539q-1.0332-2.1662-3.1994-1.133l-6.9883 3.3331q-2.1662 1.0332-1.133 3.1994z" clip-path="url(#a)" fill="#fff" stroke="#fff"/>
<g clip-path="url(#a)">
<g transform="translate(1463.6 457.68) rotate(64.501) scale(.08 -.08)">
<use xlink:href="#ab"/>
</g>
</g>
<path d="m1436 458.46 2.1273 5.4549q0.87197 2.236 3.108 1.364l7.2134-2.813q2.236-0.87197 1.364-3.108l-2.1273-5.4549q-0.87197-2.236-3.108-1.364l-7.2134 2.813q-2.236 0.87197-1.364 3.108z" clip-path="url(#a)" fill="#fff" stroke="#fff"/>
<g clip-path="url(#a)">
<g transform="translate(1439.8 456.98) rotate(68.696) scale(.08 -.08)">
<use xlink:href="#v"/>
</g>
</g>
<path d="m1483.5 459.44 2.876 5.0999q1.1789 2.0905 3.2694 0.91159l6.744-3.8032q2.0905-1.1789 0.91159-3.2694l-2.876-5.0999q-1.1789-2.0905-3.2694-0.91159l-6.744 3.8032q-2.0905 1.1789-0.91159 3.2694z" clip-path="url(#a)" fill="#fff" stroke="#fff"/>
<g clip-path="url(#a)">
<g transform="translate(1487 457.44) rotate(60.58) scale(.08 -.08)">
<use xlink:href="#v"/>
</g>
</g>
<path d="m950.09 668.78 0.88829-4.9763q0.42174-2.3627-1.9409-2.7844l-7.622-1.3605q-2.3627-0.42174-2.7844 1.9409l-0.88829 4.9763q-0.42174 2.3627 1.9409 2.7844l7.622 1.3605q2.3627 0.42174 2.7844-1.9409z" clip-path="url(#a)" fill="#fff" stroke="#fff"/>
<g clip-path="url(#a)">
<defs>
<path id="s" d="m9.8125 72.906h46.094v-8.3125h-36.234v-21.578h34.719v-8.2969h-34.719v-26.422h37.109v-8.2969h-46.969z"/>
</defs>
<g transform="translate(946.09 668.07) rotate(-79.879) scale(.08 -.08)">
<use xlink:href="#s"/>
</g>
</g>
<path d="m961.42 663.54 0.98164 5.4993q0.42174 2.3627 2.7844 1.9409l7.622-1.3605q2.3627-0.42174 1.9409-2.7844l-0.98164-5.4993q-0.42174-2.3627-2.7844-1.9409l-7.622 1.3605q-2.3627 0.42174-1.9409 2.7844z" clip-path="url(#a)" fill="#fff" stroke="#fff"/>
<g clip-path="url(#a)">
<defs>
<path id="w" d="m64.406 67.281v-10.391q-4.9844 4.6406-10.625 6.9219-5.6406 2.2969-11.984 2.2969-12.5 0-19.141-7.6406t-6.6406-22.094q0-14.406 6.6406-22.047t19.141-7.6406q6.3438 0 11.984 2.2969t10.625 6.9375v-10.312q-5.1719-3.5156-10.969-5.2812-5.7812-1.75-12.219-1.75-16.562 0-26.094 10.125-9.5156 10.141-9.5156 27.672 0 17.578 9.5156 27.703 9.5312 10.141 26.094 10.141 6.5312 0 12.312-1.7344 5.7969-1.7344 10.875-5.2031z"/>
</defs>
<g transform="translate(965.42 662.83) rotate(79.879) scale(.08 -.08)">
<use xlink:href="#w"/>
</g>
</g>
<path d="m1045 668.78 0.88829-4.9763q0.42174-2.3627-1.9409-2.7844l-7.622-1.3605q-2.3627-0.42174-2.7844 1.9409l-0.88829 4.9763q-0.42174 2.3627 1.9409 2.7844l7.622 1.3605q2.3627 0.42174 2.7844-1.9409z" clip-path="url(#a)" fill="#fff" stroke="#fff"/>
<g clip-path="url(#a)">
<g transform="translate(1041 668.07) rotate(-79.879) scale(.08 -.08)">
<use xlink:href="#s"/>
</g>
</g>
<path d="m1056.3 663.54 0.98164 5.4993q0.42174 2.3627 2.7844 1.9409l7.622-1.3605q2.3627-0.42174 1.9409-2.7844l-0.98164-5.4993q-0.42174-2.3627-2.7844-1.9409l-7.622 1.3605q-2.3627 0.42174-1.9409 2.7844z" clip-path="url(#a)" fill="#fff" stroke="#fff"/>
<g clip-path="url(#a)">
<g transform="translate(1060.3 662.83) rotate(79.879) scale(.08 -.08)">
<use xlink:href="#w"/>
</g>
</g>
<path d="m1177.5 533.34 1.328-5.3978q0.57335-2.3305-1.7572-2.9039l-7.5183-1.8497q-2.3305-0.57335-2.9039 1.7572l-1.328 5.3978q-0.57335 2.3305 1.7572 2.9039l7.5183 1.8497q2.3305 0.57335 2.9039-1.7572z" clip-path="url(#a)" fill="#fff" stroke="#fff"/>
<g clip-path="url(#a)">
<defs>
<path id="ah" d="m44.391 34.188q3.1719-1.0781 6.1719-4.5938t6.0312-9.6719l10.016-19.922h-10.609l-9.3125 18.703q-3.625 7.3281-7.0156 9.7188t-9.25 2.3906h-10.75v-30.812h-9.8594v72.906h22.266q12.5 0 18.656-5.2344 6.1562-5.2188 6.1562-15.766 0-6.8906-3.2031-11.438-3.2031-4.5312-9.2969-6.2812zm-24.719 30.609v-25.875h12.406q7.125 0 10.766 3.2969t3.6406 9.6875-3.6406 9.6406-10.766 3.25z"/>
</defs>
<g transform="translate(1173.6 532.37) rotate(-76.179) scale(.08 -.08)">
<use xlink:href="#ah"/>
</g>
</g>
<path d="m1201.7 532.45 0.64608-5.0135q0.30675-2.3803-2.0736-2.6871l-7.679-0.98958q-2.3803-0.30675-2.6871 2.0736l-0.64608 5.0135q-0.30675 2.3803 2.0736 2.6871l7.679 0.98958q2.3803 0.30675 2.6871-2.0736z" clip-path="url(#a)" fill="#fff" stroke="#fff"/>
<g clip-path="url(#a)">
<g transform="translate(1197.7 531.93) rotate(-82.657) scale(.08 -.08)">
<use xlink:href="#s"/>
</g>
</g>
<path d="m1225.8 532.01 0.06544-5.5859q0.028115-2.3998-2.3717-2.428l-7.742-0.090699q-2.3998-0.028115-2.428 2.3717l-0.06544 5.5859q-0.028115 2.3998 2.3717 2.428l7.742 0.090699q2.3998 0.028115 2.428-2.3717z" clip-path="url(#a)" fill="#fff" stroke="#fff"/>
<g clip-path="url(#a)">
<g transform="translate(1221.7 531.96) rotate(-89.329) scale(.08 -.08)">
<use xlink:href="#w"/>
</g>
</g>
<path d="m1272.4 397.38 3.2264 3.8915q1.5318 1.8476 3.3794 0.31577l5.9604-4.9417q1.8476-1.5318 0.31577-3.3794l-3.2264-3.8915q-1.5318-1.8476-3.3794-0.31577l-5.9604 4.9417q-1.8476 1.5318-0.31577 3.3794z" clip-path="url(#a)" fill="#fff" stroke="#fff"/>
<g clip-path="url(#a)">
<g transform="translate(1275.5 394.78) rotate(50.338) scale(.08 -.08)">
<use xlink:href="#s"/>
</g>
</g>
<path d="m1236.7 526.89 0.61393 5.8227q0.25165 2.3868 2.6384 2.1351l7.6998-0.81185q2.3868-0.25166 2.1351-2.6384l-0.61393-5.8227q-0.25166-2.3868-2.6384-2.1351l-7.6998 0.81185q-2.3868 0.25166-2.1351 2.6384z" clip-path="url(#a)" fill="#fff" stroke="#fff"/>
<g clip-path="url(#a)">
<g transform="translate(1240.8 526.46) rotate(83.981) scale(.08 -.08)">
<use xlink:href="#v"/>
</g>
</g>
<path d="m1590.5 780.45v35.285q0 2.4 2.4 2.4h7.7425q2.4 0 2.4-2.4v-35.285q0-2.4-2.4-2.4h-7.7425q-2.4 0-2.4 2.4z" clip-path="url(#a)" fill="#fff" stroke="#fff"/>
<g clip-path="url(#a)">
<g transform="translate(1594.5 780.45) rotate(90) scale(.08 -.08)">
<use xlink:href="#l"/>
<use x="60.818359" xlink:href="#d"/>
<use x="122.341797" xlink:href="#h"/>
<use x="163.439453" xlink:href="#k"/>
<use x="260.851562" xlink:href="#g"/>
<use x="288.634766" xlink:href="#e"/>
<use x="352.013672" xlink:href="#i"/>
<use x="413.292969" xlink:href="#j"/>
</g>
</g>
<path d="m1116 780.45v35.285q0 2.4 2.4 2.4h7.7425q2.4 0 2.4-2.4v-35.285q0-2.4-2.4-2.4h-7.7425q-2.4 0-2.4 2.4z" clip-path="url(#a)" fill="#fff" stroke="#fff"/>
<g clip-path="url(#a)">
<g transform="translate(1120.1 780.45) rotate(90) scale(.08 -.08)">
<use xlink:href="#l"/>
<use x="60.818359" xlink:href="#d"/>
<use x="122.341797" xlink:href="#h"/>
<use x="163.439453" xlink:href="#k"/>
<use x="260.851562" xlink:href="#g"/>
<use x="288.634766" xlink:href="#e"/>
<use x="352.013672" xlink:href="#i"/>
<use x="413.292969" xlink:href="#j"/>
</g>
</g>
<path d="m1163.5 780.45v35.285q0 2.4 2.4 2.4h7.7425q2.4 0 2.4-2.4v-35.285q0-2.4-2.4-2.4h-7.7425q-2.4 0-2.4 2.4z" clip-path="url(#a)" fill="#fff" stroke="#fff"/>
<g clip-path="url(#a)">
<g transform="translate(1167.5 780.45) rotate(90) scale(.08 -.08)">
<use xlink:href="#l"/>
<use x="60.818359" xlink:href="#d"/>
<use x="122.341797" xlink:href="#h"/>
<use x="163.439453" xlink:href="#k"/>
<use x="260.851562" xlink:href="#g"/>
<use x="288.634766" xlink:href="#e"/>
<use x="352.013672" xlink:href="#i"/>
<use x="413.292969" xlink:href="#j"/>
</g>
</g>
<path d="m1210.9 780.45v35.285q0 2.4 2.4 2.4h7.7425q2.4 0 2.4-2.4v-35.285q0-2.4-2.4-2.4h-7.7425q-2.4 0-2.4 2.4z" clip-path="url(#a)" fill="#fff" stroke="#fff"/>
<g clip-path="url(#a)">
<g transform="translate(1215 780.45) rotate(90) scale(.08 -.08)">
<use xlink:href="#l"/>
<use x="60.818359" xlink:href="#d"/>
<use x="122.341797" xlink:href="#h"/>
<use x="163.439453" xlink:href="#k"/>
<use x="260.851562" xlink:href="#g"/>
<use x="288.634766" xlink:href="#e"/>
<use x="352.013672" xlink:href="#i"/>
<use x="413.292969" xlink:href="#j"/>
</g>
</g>
<path d="m1281.1 602.86 2.2173-5.0032q0.9724-2.1942-1.2218-3.1666l-7.0785-3.137q-2.1942-0.9724-3.1666 1.2218l-2.2173 5.0032q-0.9724 2.1942 1.2218 3.1666l7.0785 3.137q2.1942 0.9724 3.1666-1.2218z" clip-path="url(#a)" fill="#fff" stroke="#fff"/>
<g clip-path="url(#a)">
<g transform="translate(1277.4 601.21) rotate(-66.098) scale(.08 -.08)">
<use xlink:href="#q"/>
</g>
</g>
<path d="m1329.9 601.14 0.49077-5.537q0.21189-2.3906-2.1787-2.6025l-7.7123-0.68357q-2.3906-0.21189-2.6025 2.1787l-0.49077 5.537q-0.21189 2.3906 2.1787 2.6025l7.7123 0.68357q2.3906 0.21189 2.6025-2.1787z" clip-path="url(#a)" fill="#fff" stroke="#fff"/>
<g clip-path="url(#a)">
<g transform="translate(1325.9 600.78) rotate(-84.935) scale(.08 -.08)">
<use xlink:href="#ah"/>
</g>
</g>
<path d="m1341.2 595.64 0.48316 5.4511q0.21189 2.3906 2.6025 2.1787l7.7123-0.68357q2.3906-0.21189 2.1787-2.6025l-0.48316-5.4511q-0.21189-2.3906-2.6025-2.1787l-7.7123 0.68357q-2.3906 0.21189-2.1787 2.6025z" clip-path="url(#a)" fill="#fff" stroke="#fff"/>
<g clip-path="url(#a)">
<g transform="translate(1345.2 595.29) rotate(84.935) scale(.08 -.08)">
<use xlink:href="#q"/>
</g>
</g>
<path d="m1388.7 533.6 3.3557 3.8122q1.5858 1.8015 3.3873 0.2157l5.8116-5.1158q1.8015-1.5858 0.2157-3.3873l-3.3557-3.8122q-1.5858-1.8015-3.3873-0.2157l-5.8116 5.1158q-1.8015 1.5858-0.2157 3.3873z" clip-path="url(#a)" fill="#fff" stroke="#fff"/>
<g clip-path="url(#a)">
<defs>
<path id="am" d="m53.516 70.516v-9.625q-5.6094 2.6875-10.594 4-4.9844 1.3281-9.625 1.3281-8.0469 0-12.422-3.125t-4.375-8.8906q0-4.8438 2.9062-7.3125 2.9062-2.4531 11.016-3.9688l5.9531-1.2188q11.031-2.1094 16.281-7.4062t5.25-14.172q0-10.609-7.1094-16.078-7.0938-5.4688-20.812-5.4688-5.1719 0-11.016 1.1719-5.8281 1.1719-12.078 3.4688v10.156q6-3.3594 11.766-5.0781 5.7656-1.7031 11.328-1.7031 8.4375 0 13.031 3.3125 4.5938 3.3281 4.5938 9.4844 0 5.3594-3.2969 8.3906t-10.812 4.5469l-6.0156 1.1719q-11.031 2.1875-15.969 6.875-4.9219 4.6875-4.9219 13.047 0 9.6719 6.8125 15.234t18.766 5.5625q5.1406 0 10.453-0.9375 5.3281-0.92188 10.891-2.7656z"/>
</defs>
<g transform="translate(1391.8 530.92) rotate(48.644) scale(.08 -.08)">
<use xlink:href="#am"/>
</g>
</g>
<path d="m1305.8 780.45v35.285q0 2.4 2.4 2.4h7.7425q2.4 0 2.4-2.4v-35.285q0-2.4-2.4-2.4h-7.7425q-2.4 0-2.4 2.4z" clip-path="url(#a)" fill="#fff" stroke="#fff"/>
<g clip-path="url(#a)">
<g transform="translate(1309.9 780.45) rotate(90) scale(.08 -.08)">
<use xlink:href="#l"/>
<use x="60.818359" xlink:href="#d"/>
<use x="122.341797" xlink:href="#h"/>
<use x="163.439453" xlink:href="#k"/>
<use x="260.851562" xlink:href="#g"/>
<use x="288.634766" xlink:href="#e"/>
<use x="352.013672" xlink:href="#i"/>
<use x="413.292969" xlink:href="#j"/>
</g>
</g>
<path d="m1353.2 780.45v35.285q0 2.4 2.4 2.4h7.7425q2.4 0 2.4-2.4v-35.285q0-2.4-2.4-2.4h-7.7425q-2.4 0-2.4 2.4z" clip-path="url(#a)" fill="#fff" stroke="#fff"/>
<g clip-path="url(#a)">
<g transform="translate(1357.3 780.45) rotate(90) scale(.08 -.08)">
<use xlink:href="#l"/>
<use x="60.818359" xlink:href="#d"/>
<use x="122.341797" xlink:href="#h"/>
<use x="163.439453" xlink:href="#k"/>
<use x="260.851562" xlink:href="#g"/>
<use x="288.634766" xlink:href="#e"/>
<use x="352.013672" xlink:href="#i"/>
<use x="413.292969" xlink:href="#j"/>
</g>
</g>
<path d="m1435.7 669.92 1.869-5.2351q0.80693-2.2603-1.4533-3.0672l-7.2918-2.6032q-2.2603-0.80693-3.0672 1.4533l-1.869 5.2351q-0.80693 2.2603 1.4533 3.0672l7.2918 2.6032q2.2603 0.80693 3.0672-1.4533z" clip-path="url(#a)" fill="#fff" stroke="#fff"/>
<g clip-path="url(#a)">
<g transform="translate(1431.8 668.55) rotate(-70.353) scale(.08 -.08)">
<use xlink:href="#ah"/>
</g>
</g>
<path d="m1448.1 662.4v5.5862q0 2.4 2.4 2.4h7.7425q2.4 0 2.4-2.4v-5.5862q0-2.4-2.4-2.4h-7.7425q-2.4 0-2.4 2.4z" clip-path="url(#a)" fill="#fff" stroke="#fff"/>
<g clip-path="url(#a)">
<g transform="translate(1452.2 662.4) rotate(90) scale(.08 -.08)">
<use xlink:href="#w"/>
</g>
</g>
<path d="m1471.5 665.13 1.547 4.3334q0.80693 2.2603 3.0672 1.4533l7.2918-2.6032q2.2603-0.80693 1.4533-3.0672l-1.547-4.3334q-0.80693-2.2603-3.0672-1.4533l-7.2918 2.6032q-2.2603 0.80693-1.4533 3.0672z" clip-path="url(#a)" fill="#fff" stroke="#fff"/>
<g clip-path="url(#a)">
<g transform="translate(1475.3 663.77) rotate(70.353) scale(.08 -.08)">
<use xlink:href="#ai"/>
</g>
</g>
<path d="m1400.7 780.45v35.285q0 2.4 2.4 2.4h7.7425q2.4 0 2.4-2.4v-35.285q0-2.4-2.4-2.4h-7.7425q-2.4 0-2.4 2.4z" clip-path="url(#a)" fill="#fff" stroke="#fff"/>
<g clip-path="url(#a)">
<g transform="translate(1404.8 780.45) rotate(90) scale(.08 -.08)">
<use xlink:href="#l"/>
<use x="60.818359" xlink:href="#d"/>
<use x="122.341797" xlink:href="#h"/>
<use x="163.439453" xlink:href="#k"/>
<use x="260.851562" xlink:href="#g"/>
<use x="288.634766" xlink:href="#e"/>
<use x="352.013672" xlink:href="#i"/>
<use x="413.292969" xlink:href="#j"/>
</g>
</g>
<path d="m1448.1 780.45v35.285q0 2.4 2.4 2.4h7.7425q2.4 0 2.4-2.4v-35.285q0-2.4-2.4-2.4h-7.7425q-2.4 0-2.4 2.4z" clip-path="url(#a)" fill="#fff" stroke="#fff"/>
<g clip-path="url(#a)">
<g transform="translate(1452.2 780.45) rotate(90) scale(.08 -.08)">
<use xlink:href="#l"/>
<use x="60.818359" xlink:href="#d"/>
<use x="122.341797" xlink:href="#h"/>
<use x="163.439453" xlink:href="#k"/>
<use x="260.851562" xlink:href="#g"/>
<use x="288.634766" xlink:href="#e"/>
<use x="352.013672" xlink:href="#i"/>
<use x="413.292969" xlink:href="#j"/>
</g>
</g>
<path d="m1495.6 780.45v35.285q0 2.4 2.4 2.4h7.7425q2.4 0 2.4-2.4v-35.285q0-2.4-2.4-2.4h-7.7425q-2.4 0-2.4 2.4z" clip-path="url(#a)" fill="#fff" stroke="#fff"/>
<g clip-path="url(#a)">
<g transform="translate(1499.6 780.45) rotate(90) scale(.08 -.08)">
<use xlink:href="#l"/>
<use x="60.818359" xlink:href="#d"/>
<use x="122.341797" xlink:href="#h"/>
<use x="163.439453" xlink:href="#k"/>
<use x="260.851562" xlink:href="#g"/>
<use x="288.634766" xlink:href="#e"/>
<use x="352.013672" xlink:href="#i"/>
<use x="413.292969" xlink:href="#j"/>
</g>
</g>
<path d="m1021.1 780.45v35.285q0 2.4 2.4 2.4h7.7425q2.4 0 2.4-2.4v-35.285q0-2.4-2.4-2.4h-7.7425q-2.4 0-2.4 2.4z" clip-path="url(#a)" fill="#fff" stroke="#fff"/>
<g clip-path="url(#a)">
<g transform="translate(1025.2 780.45) rotate(90) scale(.08 -.08)">
<use xlink:href="#l"/>
<use x="60.818359" xlink:href="#d"/>
<use x="122.341797" xlink:href="#h"/>
<use x="163.439453" xlink:href="#k"/>
<use x="260.851562" xlink:href="#g"/>
<use x="288.634766" xlink:href="#e"/>
<use x="352.013672" xlink:href="#i"/>
<use x="413.292969" xlink:href="#j"/>
</g>
</g>
<path d="m1068.6 780.45v35.285q0 2.4 2.4 2.4h7.7425q2.4 0 2.4-2.4v-35.285q0-2.4-2.4-2.4h-7.7425q-2.4 0-2.4 2.4z" clip-path="url(#a)" fill="#fff" stroke="#fff"/>
<g clip-path="url(#a)">
<g transform="translate(1072.6 780.45) rotate(90) scale(.08 -.08)">
<use xlink:href="#l"/>
<use x="60.818359" xlink:href="#d"/>
<use x="122.341797" xlink:href="#h"/>
<use x="163.439453" xlink:href="#k"/>
<use x="260.851562" xlink:href="#g"/>
<use x="288.634766" xlink:href="#e"/>
<use x="352.013672" xlink:href="#i"/>
<use x="413.292969" xlink:href="#j"/>
</g>
</g>
<path d="m926.23 780.45v35.285q0 2.4 2.4 2.4h7.7425q2.4 0 2.4-2.4v-35.285q0-2.4-2.4-2.4h-7.7425q-2.4 0-2.4 2.4z" clip-path="url(#a)" fill="#fff" stroke="#fff"/>
<g clip-path="url(#a)">
<g transform="translate(930.29 780.45) rotate(90) scale(.08 -.08)">
<use xlink:href="#l"/>
<use x="60.818359" xlink:href="#d"/>
<use x="122.341797" xlink:href="#h"/>
<use x="163.439453" xlink:href="#k"/>
<use x="260.851562" xlink:href="#g"/>
<use x="288.634766" xlink:href="#e"/>
<use x="352.013672" xlink:href="#i"/>
<use x="413.292969" xlink:href="#j"/>
</g>
</g>
<path d="m973.68 780.45v35.285q0 2.4 2.4 2.4h7.7425q2.4 0 2.4-2.4v-35.285q0-2.4-2.4-2.4h-7.7425q-2.4 0-2.4 2.4z" clip-path="url(#a)" fill="#fff" stroke="#fff"/>
<g clip-path="url(#a)">
<g transform="translate(977.74 780.45) rotate(90) scale(.08 -.08)">
<use xlink:href="#l"/>
<use x="60.818359" xlink:href="#d"/>
<use x="122.341797" xlink:href="#h"/>
<use x="163.439453" xlink:href="#k"/>
<use x="260.851562" xlink:href="#g"/>
<use x="288.634766" xlink:href="#e"/>
<use x="352.013672" xlink:href="#i"/>
<use x="413.292969" xlink:href="#j"/>
</g>
</g>
<path d="m546.66 780.45v35.285q0 2.4 2.4 2.4h7.7425q2.4 0 2.4-2.4v-35.285q0-2.4-2.4-2.4h-7.7425q-2.4 0-2.4 2.4z" clip-path="url(#a)" fill="#fff" stroke="#fff"/>
<g clip-path="url(#a)">
<g transform="translate(550.73 780.45) rotate(90) scale(.08 -.08)">
<use xlink:href="#l"/>
<use x="60.818359" xlink:href="#d"/>
<use x="122.341797" xlink:href="#h"/>
<use x="163.439453" xlink:href="#k"/>
<use x="260.851562" xlink:href="#g"/>
<use x="288.634766" xlink:href="#e"/>
<use x="352.013672" xlink:href="#i"/>
<use x="413.292969" xlink:href="#j"/>
</g>
</g>
<path d="m617.97 668.78 0.88829-4.9763q0.42174-2.3627-1.9409-2.7844l-7.622-1.3605q-2.3627-0.42174-2.7844 1.9409l-0.88829 4.9763q-0.42174 2.3627 1.9409 2.7844l7.622 1.3605q2.3627 0.42174 2.7844-1.9409z" clip-path="url(#a)" fill="#fff" stroke="#fff"/>
<g clip-path="url(#a)">
<g transform="translate(613.97 668.07) rotate(-79.879) scale(.08 -.08)">
<use xlink:href="#s"/>
</g>
</g>
<path d="m629.3 663.54 0.98164 5.4993q0.42174 2.3627 2.7844 1.9409l7.622-1.3605q2.3627-0.42174 1.9409-2.7844l-0.98164-5.4993q-0.42174-2.3627-2.7844-1.9409l-7.622 1.3605q-2.3627 0.42174-1.9409 2.7844z" clip-path="url(#a)" fill="#fff" stroke="#fff"/>
<g clip-path="url(#a)">
<g transform="translate(633.3 662.83) rotate(79.879) scale(.08 -.08)">
<use xlink:href="#w"/>
</g>
</g>
<path d="m689 780.45v35.285q0 2.4 2.4 2.4h7.7425q2.4 0 2.4-2.4v-35.285q0-2.4-2.4-2.4h-7.7425q-2.4 0-2.4 2.4z" clip-path="url(#a)" fill="#fff" stroke="#fff"/>
<g clip-path="url(#a)">
<g transform="translate(693.06 780.45) rotate(90) scale(.08 -.08)">
<use xlink:href="#l"/>
<use x="60.818359" xlink:href="#d"/>
<use x="122.341797" xlink:href="#h"/>
<use x="163.439453" xlink:href="#k"/>
<use x="260.851562" xlink:href="#g"/>
<use x="288.634766" xlink:href="#e"/>
<use x="352.013672" xlink:href="#i"/>
<use x="413.292969" xlink:href="#j"/>
</g>
</g>
<path d="m736.45 780.45v35.285q0 2.4 2.4 2.4h7.7425q2.4 0 2.4-2.4v-35.285q0-2.4-2.4-2.4h-7.7425q-2.4 0-2.4 2.4z" clip-path="url(#a)" fill="#fff" stroke="#fff"/>
<g clip-path="url(#a)">
<g transform="translate(740.51 780.45) rotate(90) scale(.08 -.08)">
<use xlink:href="#l"/>
<use x="60.818359" xlink:href="#d"/>
<use x="122.341797" xlink:href="#h"/>
<use x="163.439453" xlink:href="#k"/>
<use x="260.851562" xlink:href="#g"/>
<use x="288.634766" xlink:href="#e"/>
<use x="352.013672" xlink:href="#i"/>
<use x="413.292969" xlink:href="#j"/>
</g>
</g>
<path d="m783.89 780.45v35.285q0 2.4 2.4 2.4h7.7425q2.4 0 2.4-2.4v-35.285q0-2.4-2.4-2.4h-7.7425q-2.4 0-2.4 2.4z" clip-path="url(#a)" fill="#fff" stroke="#fff"/>
<g clip-path="url(#a)">
<g transform="translate(787.96 780.45) rotate(90) scale(.08 -.08)">
<use xlink:href="#l"/>
<use x="60.818359" xlink:href="#d"/>
<use x="122.341797" xlink:href="#h"/>
<use x="163.439453" xlink:href="#k"/>
<use x="260.851562" xlink:href="#g"/>
<use x="288.634766" xlink:href="#e"/>
<use x="352.013672" xlink:href="#i"/>
<use x="413.292969" xlink:href="#j"/>
</g>
</g>
<path d="m594.11 780.45v35.285q0 2.4 2.4 2.4h7.7425q2.4 0 2.4-2.4v-35.285q0-2.4-2.4-2.4h-7.7425q-2.4 0-2.4 2.4z" clip-path="url(#a)" fill="#fff" stroke="#fff"/>
<g clip-path="url(#a)">
<g transform="translate(598.17 780.45) rotate(90) scale(.08 -.08)">
<use xlink:href="#l"/>
<use x="60.818359" xlink:href="#d"/>
<use x="122.341797" xlink:href="#h"/>
<use x="163.439453" xlink:href="#k"/>
<use x="260.851562" xlink:href="#g"/>
<use x="288.634766" xlink:href="#e"/>
<use x="352.013672" xlink:href="#i"/>
<use x="413.292969" xlink:href="#j"/>
</g>
</g>
<path d="m641.56 780.45v35.285q0 2.4 2.4 2.4h7.7425q2.4 0 2.4-2.4v-35.285q0-2.4-2.4-2.4h-7.7425q-2.4 0-2.4 2.4z" clip-path="url(#a)" fill="#fff" stroke="#fff"/>
<g clip-path="url(#a)">
<g transform="translate(645.62 780.45) rotate(90) scale(.08 -.08)">
<use xlink:href="#l"/>
<use x="60.818359" xlink:href="#d"/>
<use x="122.341797" xlink:href="#h"/>
<use x="163.439453" xlink:href="#k"/>
<use x="260.851562" xlink:href="#g"/>
<use x="288.634766" xlink:href="#e"/>
<use x="352.013672" xlink:href="#i"/>
<use x="413.292969" xlink:href="#j"/>
</g>
</g>
<path d="m309.43 780.45v35.285q0 2.4 2.4 2.4h7.7425q2.4 0 2.4-2.4v-35.285q0-2.4-2.4-2.4h-7.7425q-2.4 0-2.4 2.4z" clip-path="url(#a)" fill="#fff" stroke="#fff"/>
<g clip-path="url(#a)">
<g transform="translate(313.5 780.45) rotate(90) scale(.08 -.08)">
<use xlink:href="#l"/>
<use x="60.818359" xlink:href="#d"/>
<use x="122.341797" xlink:href="#h"/>
<use x="163.439453" xlink:href="#k"/>
<use x="260.851562" xlink:href="#g"/>
<use x="288.634766" xlink:href="#e"/>
<use x="352.013672" xlink:href="#i"/>
<use x="413.292969" xlink:href="#j"/>
</g>
</g>
<path d="m391.93 669.68 1.6996-4.7607q0.80693-2.2603-1.4533-3.0672l-7.2918-2.6032q-2.2603-0.80693-3.0672 1.4533l-1.6996 4.7607q-0.80693 2.2603 1.4533 3.0672l7.2918 2.6032q2.2603 0.80693 3.0672-1.4533z" clip-path="url(#a)" fill="#fff" stroke="#fff"/>
<g clip-path="url(#a)">
<g transform="translate(388.1 668.31) rotate(-70.353) scale(.08 -.08)">
<use xlink:href="#s"/>
</g>
</g>
<path d="m404.33 662.66v5.055q0 2.4 2.4 2.4h7.7425q2.4 0 2.4-2.4v-5.055q0-2.4-2.4-2.4h-7.7425q-2.4 0-2.4 2.4z" clip-path="url(#a)" fill="#fff" stroke="#fff"/>
<g clip-path="url(#a)">
<g transform="translate(408.39 662.66) rotate(90) scale(.08 -.08)">
<use xlink:href="#s"/>
</g>
</g>
<path d="m427.47 664.67 1.8782 5.261q0.80693 2.2603 3.0672 1.4533l7.2918-2.6032q2.2603-0.80693 1.4533-3.0672l-1.8782-5.261q-0.80693-2.2603-3.0672-1.4533l-7.2918 2.6032q-2.2603 0.80693-1.4533 3.0672z" clip-path="url(#a)" fill="#fff" stroke="#fff"/>
<g clip-path="url(#a)">
<g transform="translate(431.3 663.3) rotate(70.353) scale(.08 -.08)">
<use xlink:href="#w"/>
</g>
</g>
<path d="m356.88 780.45v35.285q0 2.4 2.4 2.4h7.7425q2.4 0 2.4-2.4v-35.285q0-2.4-2.4-2.4h-7.7425q-2.4 0-2.4 2.4z" clip-path="url(#a)" fill="#fff" stroke="#fff"/>
<g clip-path="url(#a)">
<g transform="translate(360.94 780.45) rotate(90) scale(.08 -.08)">
<use xlink:href="#l"/>
<use x="60.818359" xlink:href="#d"/>
<use x="122.341797" xlink:href="#h"/>
<use x="163.439453" xlink:href="#k"/>
<use x="260.851562" xlink:href="#g"/>
<use x="288.634766" xlink:href="#e"/>
<use x="352.013672" xlink:href="#i"/>
<use x="413.292969" xlink:href="#j"/>
</g>
</g>
<path d="m404.33 780.45v35.285q0 2.4 2.4 2.4h7.7425q2.4 0 2.4-2.4v-35.285q0-2.4-2.4-2.4h-7.7425q-2.4 0-2.4 2.4z" clip-path="url(#a)" fill="#fff" stroke="#fff"/>
<g clip-path="url(#a)">
<g transform="translate(408.39 780.45) rotate(90) scale(.08 -.08)">
<use xlink:href="#l"/>
<use x="60.818359" xlink:href="#d"/>
<use x="122.341797" xlink:href="#h"/>
<use x="163.439453" xlink:href="#k"/>
<use x="260.851562" xlink:href="#g"/>
<use x="288.634766" xlink:href="#e"/>
<use x="352.013672" xlink:href="#i"/>
<use x="413.292969" xlink:href="#j"/>
</g>
</g>
<path d="m451.77 780.45v35.285q0 2.4 2.4 2.4h7.7425q2.4 0 2.4-2.4v-35.285q0-2.4-2.4-2.4h-7.7425q-2.4 0-2.4 2.4z" clip-path="url(#a)" fill="#fff" stroke="#fff"/>
<g clip-path="url(#a)">
<g transform="translate(455.84 780.45) rotate(90) scale(.08 -.08)">
<use xlink:href="#l"/>
<use x="60.818359" xlink:href="#d"/>
<use x="122.341797" xlink:href="#h"/>
<use x="163.439453" xlink:href="#k"/>
<use x="260.851562" xlink:href="#g"/>
<use x="288.634766" xlink:href="#e"/>
<use x="352.013672" xlink:href="#i"/>
<use x="413.292969" xlink:href="#j"/>
</g>
</g>
<path d="m72.204 780.45v35.285q0 2.4 2.4 2.4h7.7425q2.4 0 2.4-2.4v-35.285q0-2.4-2.4-2.4h-7.7425q-2.4 0-2.4 2.4z" clip-path="url(#a)" fill="#fff" stroke="#fff"/>
<g clip-path="url(#a)">
<g transform="translate(76.267 780.45) rotate(90) scale(.08 -.08)">
<use xlink:href="#l"/>
<use x="60.818359" xlink:href="#d"/>
<use x="122.341797" xlink:href="#h"/>
<use x="163.439453" xlink:href="#k"/>
<use x="260.851562" xlink:href="#g"/>
<use x="288.634766" xlink:href="#e"/>
<use x="352.013672" xlink:href="#i"/>
<use x="413.292969" xlink:href="#j"/>
</g>
</g>
<path d="m119.65 780.45v35.285q0 2.4 2.4 2.4h7.7425q2.4 0 2.4-2.4v-35.285q0-2.4-2.4-2.4h-7.7425q-2.4 0-2.4 2.4z" clip-path="url(#a)" fill="#fff" stroke="#fff"/>
<g clip-path="url(#a)">
<g transform="translate(123.71 780.45) rotate(90) scale(.08 -.08)">
<use xlink:href="#l"/>
<use x="60.818359" xlink:href="#d"/>
<use x="122.341797" xlink:href="#h"/>
<use x="163.439453" xlink:href="#k"/>
<use x="260.851562" xlink:href="#g"/>
<use x="288.634766" xlink:href="#e"/>
<use x="352.013672" xlink:href="#i"/>
<use x="413.292969" xlink:href="#j"/>
</g>
</g>
<path d="m167.1 780.45v35.285q0 2.4 2.4 2.4h7.7425q2.4 0 2.4-2.4v-35.285q0-2.4-2.4-2.4h-7.7425q-2.4 0-2.4 2.4z" clip-path="url(#a)" fill="#fff" stroke="#fff"/>
<g clip-path="url(#a)">
<g transform="translate(171.16 780.45) rotate(90) scale(.08 -.08)">
<use xlink:href="#l"/>
<use x="60.818359" xlink:href="#d"/>
<use x="122.341797" xlink:href="#h"/>
<use x="163.439453" xlink:href="#k"/>
<use x="260.851562" xlink:href="#g"/>
<use x="288.634766" xlink:href="#e"/>
<use x="352.013672" xlink:href="#i"/>
<use x="413.292969" xlink:href="#j"/>
</g>
</g>
<path d="m214.54 780.45v35.285q0 2.4 2.4 2.4h7.7425q2.4 0 2.4-2.4v-35.285q0-2.4-2.4-2.4h-7.7425q-2.4 0-2.4 2.4z" clip-path="url(#a)" fill="#fff" stroke="#fff"/>
<g clip-path="url(#a)">
<g transform="translate(218.61 780.45) rotate(90) scale(.08 -.08)">
<use xlink:href="#l"/>
<use x="60.818359" xlink:href="#d"/>
<use x="122.341797" xlink:href="#h"/>
<use x="163.439453" xlink:href="#k"/>
<use x="260.851562" xlink:href="#g"/>
<use x="288.634766" xlink:href="#e"/>
<use x="352.013672" xlink:href="#i"/>
<use x="413.292969" xlink:href="#j"/>
</g>
</g>
<path d="m261.99 780.45v35.285q0 2.4 2.4 2.4h7.7425q2.4 0 2.4-2.4v-35.285q0-2.4-2.4-2.4h-7.7425q-2.4 0-2.4 2.4z" clip-path="url(#a)" fill="#fff" stroke="#fff"/>
<g clip-path="url(#a)">
<g transform="translate(266.05 780.45) rotate(90) scale(.08 -.08)">
<use xlink:href="#l"/>
<use x="60.818359" xlink:href="#d"/>
<use x="122.341797" xlink:href="#h"/>
<use x="163.439453" xlink:href="#k"/>
<use x="260.851562" xlink:href="#g"/>
<use x="288.634766" xlink:href="#e"/>
<use x="352.013672" xlink:href="#i"/>
<use x="413.292969" xlink:href="#j"/>
</g>
</g>
<path d="m499.22 780.45v35.285q0 2.4 2.4 2.4h7.7425q2.4 0 2.4-2.4v-35.285q0-2.4-2.4-2.4h-7.7425q-2.4 0-2.4 2.4z" clip-path="url(#a)" fill="#fff" stroke="#fff"/>
<g clip-path="url(#a)">
<g transform="translate(503.28 780.45) rotate(90) scale(.08 -.08)">
<use xlink:href="#l"/>
<use x="60.818359" xlink:href="#d"/>
<use x="122.341797" xlink:href="#h"/>
<use x="163.439453" xlink:href="#k"/>
<use x="260.851562" xlink:href="#g"/>
<use x="288.634766" xlink:href="#e"/>
<use x="352.013672" xlink:href="#i"/>
<use x="413.292969" xlink:href="#j"/>
</g>
</g>
<path d="m831.34 780.45v35.285q0 2.4 2.4 2.4h7.7425q2.4 0 2.4-2.4v-35.285q0-2.4-2.4-2.4h-7.7425q-2.4 0-2.4 2.4z" clip-path="url(#a)" fill="#fff" stroke="#fff"/>
<g clip-path="url(#a)">
<g transform="translate(835.4 780.45) rotate(90) scale(.08 -.08)">
<use xlink:href="#l"/>
<use x="60.818359" xlink:href="#d"/>
<use x="122.341797" xlink:href="#h"/>
<use x="163.439453" xlink:href="#k"/>
<use x="260.851562" xlink:href="#g"/>
<use x="288.634766" xlink:href="#e"/>
<use x="352.013672" xlink:href="#i"/>
<use x="413.292969" xlink:href="#j"/>
</g>
</g>
<path d="m1258.4 780.45v35.285q0 2.4 2.4 2.4h7.7425q2.4 0 2.4-2.4v-35.285q0-2.4-2.4-2.4h-7.7425q-2.4 0-2.4 2.4z" clip-path="url(#a)" fill="#fff" stroke="#fff"/>
<g clip-path="url(#a)">
<g transform="translate(1262.4 780.45) rotate(90) scale(.08 -.08)">
<use xlink:href="#l"/>
<use x="60.818359" xlink:href="#d"/>
<use x="122.341797" xlink:href="#h"/>
<use x="163.439453" xlink:href="#k"/>
<use x="260.851562" xlink:href="#g"/>
<use x="288.634766" xlink:href="#e"/>
<use x="352.013672" xlink:href="#i"/>
<use x="413.292969" xlink:href="#j"/>
</g>
</g>
<path d="m1543 780.45v35.285q0 2.4 2.4 2.4h7.7425q2.4 0 2.4-2.4v-35.285q0-2.4-2.4-2.4h-7.7425q-2.4 0-2.4 2.4z" clip-path="url(#a)" fill="#fff" stroke="#fff"/>
<g clip-path="url(#a)">
<g transform="translate(1547.1 780.45) rotate(90) scale(.08 -.08)">
<use xlink:href="#l"/>
<use x="60.818359" xlink:href="#d"/>
<use x="122.341797" xlink:href="#h"/>
<use x="163.439453" xlink:href="#k"/>
<use x="260.851562" xlink:href="#g"/>
<use x="288.634766" xlink:href="#e"/>
<use x="352.013672" xlink:href="#i"/>
<use x="413.292969" xlink:href="#j"/>
</g>
</g>
<path d="m1637.9 780.45v35.285q0 2.4 2.4 2.4h7.7425q2.4 0 2.4-2.4v-35.285q0-2.4-2.4-2.4h-7.7425q-2.4 0-2.4 2.4z" clip-path="url(#a)" fill="#fff" stroke="#fff"/>
<g clip-path="url(#a)">
<g transform="translate(1642 780.45) rotate(90) scale(.08 -.08)">
<use xlink:href="#l"/>
<use x="60.818359" xlink:href="#d"/>
<use x="122.341797" xlink:href="#h"/>
<use x="163.439453" xlink:href="#k"/>
<use x="260.851562" xlink:href="#g"/>
<use x="288.634766" xlink:href="#e"/>
<use x="352.013672" xlink:href="#i"/>
<use x="413.292969" xlink:href="#j"/>
</g>
</g>
<defs>
<path id="b" d="m0 8.6603c2.2967 0 4.4997-0.9125 6.1237-2.5365 1.624-1.624 2.5365-3.827 2.5365-6.1237s-0.9125-4.4997-2.5365-6.1237c-1.624-1.624-3.827-2.5365-6.1237-2.5365s-4.4997 0.9125-6.1237 2.5365c-1.624 1.624-2.5365 3.827-2.5365 6.1237s0.9125 4.4997 2.5365 6.1237c1.624 1.624 3.827 2.5365 6.1237 2.5365z"/>
</defs>
<g clip-path="url(#a)">
<use x="78.474766" y="864.540557" fill="#ffffff" stroke="#ffffff" xlink:href="#b"/>
</g>
<g clip-path="url(#a)">
<use x="125.92074" y="864.540557" fill="#ffffff" stroke="#ffffff" xlink:href="#b"/>
</g>
<g clip-path="url(#a)">
<use x="173.366714" y="864.540557" fill="#ffffff" stroke="#ffffff" xlink:href="#b"/>
</g>
<g clip-path="url(#a)">
<use x="220.812688" y="864.540557" fill="#ffffff" stroke="#ffffff" xlink:href="#b"/>
</g>
<g clip-path="url(#a)">
<use x="268.258661" y="864.540557" fill="#ffffff" stroke="#ffffff" xlink:href="#b"/>
</g>
<g clip-path="url(#a)">
<use x="315.704635" y="864.540557" fill="#ffffff" stroke="#ffffff" xlink:href="#b"/>
</g>
<g clip-path="url(#a)">
<use x="363.150609" y="864.540557" fill="#ffffff" stroke="#ffffff" xlink:href="#b"/>
</g>
<g clip-path="url(#a)">
<use x="410.596583" y="864.540557" fill="#ffffff" stroke="#ffffff" xlink:href="#b"/>
</g>
<g clip-path="url(#a)">
<use x="458.042556" y="864.540557" fill="#ffffff" stroke="#ffffff" xlink:href="#b"/>
</g>
<g clip-path="url(#a)">
<use x="505.48853" y="864.540557" fill="#ffffff" stroke="#ffffff" xlink:href="#b"/>
</g>
<g clip-path="url(#a)">
<use x="552.934504" y="864.540557" fill="#ffffff" stroke="#ffffff" xlink:href="#b"/>
</g>
<g clip-path="url(#a)">
<use x="600.380478" y="864.540557" fill="#ffffff" stroke="#ffffff" xlink:href="#b"/>
</g>
<g clip-path="url(#a)">
<use x="647.826451" y="864.540557" fill="#ffffff" stroke="#ffffff" xlink:href="#b"/>
</g>
<g clip-path="url(#a)">
<use x="695.272425" y="864.540557" fill="#ffffff" stroke="#ffffff" xlink:href="#b"/>
</g>
<g clip-path="url(#a)">
<use x="742.718399" y="864.540557" fill="#ffffff" stroke="#ffffff" xlink:href="#b"/>
</g>
<g clip-path="url(#a)">
<use x="790.164373" y="864.540557" fill="#ffffff" stroke="#ffffff" xlink:href="#b"/>
</g>
<g clip-path="url(#a)">
<use x="837.610346" y="864.540557" fill="#ffffff" stroke="#ffffff" xlink:href="#b"/>
</g>
<g clip-path="url(#a)">
<use x="885.05632" y="864.540557" fill="#ffffff" stroke="#ffffff" xlink:href="#b"/>
</g>
<g clip-path="url(#a)">
<use x="932.502294" y="864.540557" fill="#ffffff" stroke="#ffffff" xlink:href="#b"/>
</g>
<g clip-path="url(#a)">
<use x="979.948268" y="864.540557" fill="#ffffff" stroke="#ffffff" xlink:href="#b"/>
</g>
<g clip-path="url(#a)">
<use x="1027.394241" y="864.540557" fill="#ffffff" stroke="#ffffff" xlink:href="#b"/>
</g>
<g clip-path="url(#a)">
<use x="1074.840215" y="864.540557" fill="#ffffff" stroke="#ffffff" xlink:href="#b"/>
</g>
<g clip-path="url(#a)">
<use x="1122.286189" y="864.540557" fill="#ffffff" stroke="#ffffff" xlink:href="#b"/>
</g>
<g clip-path="url(#a)">
<use x="1169.732163" y="864.540557" fill="#ffffff" stroke="#ffffff" xlink:href="#b"/>
</g>
<g clip-path="url(#a)">
<use x="1217.178137" y="864.540557" fill="#ffffff" stroke="#ffffff" xlink:href="#b"/>
</g>
<g clip-path="url(#a)">
<use x="1264.62411" y="864.540557" fill="#ffffff" stroke="#ffffff" xlink:href="#b"/>
</g>
<g clip-path="url(#a)">
<use x="1312.070084" y="864.540557" fill="#ffffff" stroke="#ffffff" xlink:href="#b"/>
</g>
<g clip-path="url(#a)">
<use x="1359.516058" y="864.540557" fill="#ffffff" stroke="#ffffff" xlink:href="#b"/>
</g>
<g clip-path="url(#a)">
<use x="1406.962032" y="864.540557" fill="#ffffff" stroke="#ffffff" xlink:href="#b"/>
</g>
<g clip-path="url(#a)">
<use x="1454.408005" y="864.540557" fill="#ffffff" stroke="#ffffff" xlink:href="#b"/>
</g>
<g clip-path="url(#a)">
<use x="1501.853979" y="864.540557" fill="#ffffff" stroke="#ffffff" xlink:href="#b"/>
</g>
<g clip-path="url(#a)">
<use x="1549.299953" y="864.540557" fill="#ffffff" stroke="#ffffff" xlink:href="#b"/>
</g>
<g clip-path="url(#a)">
<use x="1596.745927" y="864.540557" fill="#ffffff" stroke="#ffffff" xlink:href="#b"/>
</g>
<g clip-path="url(#a)">
<use x="1644.1919" y="864.540557" fill="#ffffff" stroke="#ffffff" xlink:href="#b"/>
</g>
<g clip-path="url(#a)">
<use x="616.49234" y="42.12611" fill="#ffffff" stroke="#ffffff" xlink:href="#b"/>
</g>
<g clip-path="url(#a)">
<use x="149.643727" y="598.740318" fill="#ffffff" stroke="#ffffff" xlink:href="#b"/>
</g>
<g clip-path="url(#a)">
<use x="268.258661" y="463.991412" fill="#ffffff" stroke="#ffffff" xlink:href="#b"/>
</g>
<g clip-path="url(#a)">
<use x="681.038633" y="463.991412" fill="#ffffff" stroke="#ffffff" xlink:href="#b"/>
</g>
<g clip-path="url(#a)">
<use x="885.05632" y="731.640438" fill="#ffffff" stroke="#ffffff" xlink:href="#b"/>
</g>
<g clip-path="url(#a)">
<use x="1336.583837" y="186.174812" fill="#ffffff" stroke="#ffffff" xlink:href="#b"/>
</g>
<g clip-path="url(#a)">
<use x="956.225281" y="598.740318" fill="#ffffff" stroke="#ffffff" xlink:href="#b"/>
</g>
<g clip-path="url(#a)">
<use x="1051.117228" y="598.740318" fill="#ffffff" stroke="#ffffff" xlink:href="#b"/>
</g>
<g clip-path="url(#a)">
<use x="1221.922734" y="326.647815" fill="#ffffff" stroke="#ffffff" xlink:href="#b"/>
</g>
<g clip-path="url(#a)">
<use x="1596.745927" y="731.640438" fill="#ffffff" stroke="#ffffff" xlink:href="#b"/>
</g>
<g clip-path="url(#a)">
<use x="1122.286189" y="731.640438" fill="#ffffff" stroke="#ffffff" xlink:href="#b"/>
</g>
<g clip-path="url(#a)">
<use x="1169.732163" y="731.640438" fill="#ffffff" stroke="#ffffff" xlink:href="#b"/>
</g>
<g clip-path="url(#a)">
<use x="1217.178137" y="731.640438" fill="#ffffff" stroke="#ffffff" xlink:href="#b"/>
</g>
<g clip-path="url(#a)">
<use x="1335.793071" y="463.991412" fill="#ffffff" stroke="#ffffff" xlink:href="#b"/>
</g>
<g clip-path="url(#a)">
<use x="1312.070084" y="731.640438" fill="#ffffff" stroke="#ffffff" xlink:href="#b"/>
</g>
<g clip-path="url(#a)">
<use x="1359.516058" y="731.640438" fill="#ffffff" stroke="#ffffff" xlink:href="#b"/>
</g>
<g clip-path="url(#a)">
<use x="1454.408005" y="598.740318" fill="#ffffff" stroke="#ffffff" xlink:href="#b"/>
</g>
<g clip-path="url(#a)">
<use x="1406.962032" y="731.640438" fill="#ffffff" stroke="#ffffff" xlink:href="#b"/>
</g>
<g clip-path="url(#a)">
<use x="1454.408005" y="731.640438" fill="#ffffff" stroke="#ffffff" xlink:href="#b"/>
</g>
<g clip-path="url(#a)">
<use x="1501.853979" y="731.640438" fill="#ffffff" stroke="#ffffff" xlink:href="#b"/>
</g>
<g clip-path="url(#a)">
<use x="1027.394241" y="731.640438" fill="#ffffff" stroke="#ffffff" xlink:href="#b"/>
</g>
<g clip-path="url(#a)">
<use x="1074.840215" y="731.640438" fill="#ffffff" stroke="#ffffff" xlink:href="#b"/>
</g>
<g clip-path="url(#a)">
<use x="932.502294" y="731.640438" fill="#ffffff" stroke="#ffffff" xlink:href="#b"/>
</g>
<g clip-path="url(#a)">
<use x="979.948268" y="731.640438" fill="#ffffff" stroke="#ffffff" xlink:href="#b"/>
</g>
<g clip-path="url(#a)">
<use x="552.934504" y="731.640438" fill="#ffffff" stroke="#ffffff" xlink:href="#b"/>
</g>
<g clip-path="url(#a)">
<use x="624.103465" y="598.740318" fill="#ffffff" stroke="#ffffff" xlink:href="#b"/>
</g>
<g clip-path="url(#a)">
<use x="695.272425" y="731.640438" fill="#ffffff" stroke="#ffffff" xlink:href="#b"/>
</g>
<g clip-path="url(#a)">
<use x="742.718399" y="731.640438" fill="#ffffff" stroke="#ffffff" xlink:href="#b"/>
</g>
<g clip-path="url(#a)">
<use x="790.164373" y="731.640438" fill="#ffffff" stroke="#ffffff" xlink:href="#b"/>
</g>
<g clip-path="url(#a)">
<use x="600.380478" y="731.640438" fill="#ffffff" stroke="#ffffff" xlink:href="#b"/>
</g>
<g clip-path="url(#a)">
<use x="647.826451" y="731.640438" fill="#ffffff" stroke="#ffffff" xlink:href="#b"/>
</g>
<g clip-path="url(#a)">
<use x="315.704635" y="731.640438" fill="#ffffff" stroke="#ffffff" xlink:href="#b"/>
</g>
<g clip-path="url(#a)">
<use x="410.596583" y="598.740318" fill="#ffffff" stroke="#ffffff" xlink:href="#b"/>
</g>
<g clip-path="url(#a)">
<use x="363.150609" y="731.640438" fill="#ffffff" stroke="#ffffff" xlink:href="#b"/>
</g>
<g clip-path="url(#a)">
<use x="410.596583" y="731.640438" fill="#ffffff" stroke="#ffffff" xlink:href="#b"/>
</g>
<g clip-path="url(#a)">
<use x="458.042556" y="731.640438" fill="#ffffff" stroke="#ffffff" xlink:href="#b"/>
</g>
<g clip-path="url(#a)">
<use x="78.474766" y="731.640438" fill="#ffffff" stroke="#ffffff" xlink:href="#b"/>
</g>
<g clip-path="url(#a)">
<use x="125.92074" y="731.640438" fill="#ffffff" stroke="#ffffff" xlink:href="#b"/>
</g>
<g clip-path="url(#a)">
<use x="173.366714" y="731.640438" fill="#ffffff" stroke="#ffffff" xlink:href="#b"/>
</g>
<g clip-path="url(#a)">
<use x="220.812688" y="731.640438" fill="#ffffff" stroke="#ffffff" xlink:href="#b"/>
</g>
<g clip-path="url(#a)">
<use x="268.258661" y="731.640438" fill="#ffffff" stroke="#ffffff" xlink:href="#b"/>
</g>
<g clip-path="url(#a)">
<use x="505.48853" y="731.640438" fill="#ffffff" stroke="#ffffff" xlink:href="#b"/>
</g>
<g clip-path="url(#a)">
<use x="837.610346" y="731.640438" fill="#ffffff" stroke="#ffffff" xlink:href="#b"/>
</g>
<g clip-path="url(#a)">
<use x="1264.62411" y="731.640438" fill="#ffffff" stroke="#ffffff" xlink:href="#b"/>
</g>
<g clip-path="url(#a)">
<use x="1549.299953" y="731.640438" fill="#ffffff" stroke="#ffffff" xlink:href="#b"/>
</g>
<g clip-path="url(#a)">
<use x="1644.1919" y="731.640438" fill="#ffffff" stroke="#ffffff" xlink:href="#b"/>
</g>
<g clip-path="url(#a)">
<defs>
<path id="av" d="m3.3281 72.906h9.9531l15.328-61.625 15.281 61.625h11.094l15.328-61.625 15.281 61.625h10.016l-18.312-72.906h-12.406l-15.375 63.281-15.531-63.281h-12.406z"/>
</defs>
<g transform="translate(68.403 867.3) scale(.1 -.1)">
<use xlink:href="#av"/>
<use x="98.798828" xlink:href="#d"/>
<use x="160.322266" xlink:href="#h"/>
</g>
</g>
<g clip-path="url(#a)">
<defs>
<path id="ag" d="m44.281 53.078v-8.5q-3.7969 1.9531-7.9062 2.9219-4.0938 0.98438-8.5 0.98438-6.6875 0-10.031-2.0469t-3.3438-6.1562q0-3.125 2.3906-4.9062t9.625-3.3906l3.0781-0.6875q9.5625-2.0469 13.594-5.7812t4.0312-10.422q0-7.625-6.0312-12.078-6.0312-4.4375-16.578-4.4375-4.3906 0-9.1562 0.85938t-10.031 2.5625v9.2812q4.9844-2.5938 9.8125-3.8906 4.8281-1.2812 9.5781-1.2812 6.3438 0 9.75 2.1719 3.4219 2.1719 3.4219 6.125 0 3.6562-2.4688 5.6094-2.4531 1.9531-10.812 3.7656l-3.125 0.73438q-8.3438 1.75-12.062 5.3906-3.7031 3.6406-3.7031 9.9844 0 7.7188 5.4688 11.906 5.4688 4.2031 15.531 4.2031 4.9688 0 9.3594-0.73438 4.4062-0.71875 8.1094-2.1875z"/>
</defs>
<g transform="translate(120.24 867.3) scale(.1 -.1)">
<use xlink:href="#d"/>
<use x="61.523438" xlink:href="#ag"/>
</g>
</g>
<g clip-path="url(#a)">
<defs>
<path id="r" d="m45.406 46.391v29.594h8.9844v-75.984h-8.9844v8.2031q-2.8281-4.875-7.1562-7.25-4.3125-2.375-10.375-2.375-9.9062 0-16.141 7.9062-6.2188 7.9219-6.2188 20.812t6.2188 20.797q6.2344 7.9062 16.141 7.9062 6.0625 0 10.375-2.375 4.3281-2.3594 7.1562-7.2344zm-30.609-19.094q0-9.9062 4.0781-15.547t11.203-5.6406 11.219 5.6406q4.1094 5.6406 4.1094 15.547t-4.1094 15.547q-4.0938 5.6406-11.219 5.6406t-11.203-5.6406-4.0781-15.547z"/>
</defs>
<g transform="translate(167.13 867.3) scale(.1 -.1)">
<use xlink:href="#r"/>
<use x="63.476562" xlink:href="#i"/>
</g>
</g>
<g clip-path="url(#a)">
<defs>
<path id="ao" d="m8.5 21.578v33.109h8.9844v-32.766q0-7.7656 3.0156-11.656 3.0312-3.875 9.0938-3.875 7.2656 0 11.484 4.6406 4.2344 4.6406 4.2344 12.656v31h8.9844v-54.688h-8.9844v8.4062q-3.2656-4.9844-7.5938-7.4062-4.3125-2.4219-10.031-2.4219-9.4219 0-14.312 5.8594-4.875 5.8594-4.875 17.141zm22.609 34.422m4.4844 19.781h9.9062v-9.8594h-9.9062zm-19.094 0h9.9062v-9.8594h-9.9062z"/>
<path id="u" d="m54.891 33.016v-33.016h-8.9844v32.719q0 7.7656-3.0312 11.609-3.0312 3.8594-9.0781 3.8594-7.2812 0-11.484-4.6406-4.2031-4.625-4.2031-12.641v-30.906h-9.0312v75.984h9.0312v-29.797q3.2344 4.9375 7.5938 7.375 4.375 2.4375 10.094 2.4375 9.4219 0 14.25-5.8281 4.8438-5.8281 4.8438-17.156z"/>
<path id="p" d="m18.312 70.219v-15.531h18.5v-6.9844h-18.5v-29.688q0-6.6875 1.8281-8.5938t7.4531-1.9062h9.2188v-7.5156h-9.2188q-10.406 0-14.359 3.875-3.9531 3.8906-3.9531 14.141v29.688h-6.5938v6.9844h6.5938v15.531z"/>
</defs>
<g transform="translate(199.09 867.3) scale(.1 -.1)">
<use xlink:href="#i"/>
<use x="61.279297" xlink:href="#e"/>
<use x="124.658203" xlink:href="#h"/>
<use x="165.771484" xlink:href="#ao"/>
<use x="229.150391" xlink:href="#u"/>
<use x="292.529297" xlink:href="#h"/>
<use x="333.642578" xlink:href="#p"/>
<use x="372.851562" xlink:href="#d"/>
</g>
</g>
<g clip-path="url(#a)">
<defs>
<path id="aa" d="m11.719 12.406h10.297v-8.4062l-8-15.625h-6.2969l4 15.625z"/>
</defs>
<g transform="translate(266.67 867.3) scale(.1 -.1)">
<use xlink:href="#aa"/>
</g>
</g>
<g clip-path="url(#a)">
<defs>
<path id="as" d="m18.109 8.2031v-29h-9.0312v75.484h9.0312v-8.2969q2.8438 4.875 7.1562 7.2344 4.3281 2.375 10.328 2.375 9.9688 0 16.188-7.9062 6.2344-7.9062 6.2344-20.797t-6.2344-20.812q-6.2188-7.9062-16.188-7.9062-6 0-10.328 2.375-4.3125 2.375-7.1562 7.25zm30.578 19.094q0 9.9062-4.0781 15.547t-11.203 5.6406q-7.1406 0-11.219-5.6406t-4.0781-15.547 4.0781-15.547 11.219-5.6406q7.125 0 11.203 5.6406t4.0781 15.547z"/>
<path id="at" d="m37.109 75.984v-7.4844h-8.5938q-4.8281 0-6.7188-1.9531-1.875-1.9531-1.875-7.0312v-4.8281h14.797v-6.9844h-14.797v-47.703h-9.0312v47.703h-8.5938v6.9844h8.5938v3.8125q0 9.125 4.25 13.297 4.25 4.1875 13.469 4.1875z"/>
</defs>
<g transform="translate(293.42 867.3) scale(.1 -.1)">
<use xlink:href="#d"/>
<use x="61.523438" xlink:href="#k"/>
<use x="158.935547" xlink:href="#as"/>
<use x="222.412109" xlink:href="#at"/>
<use x="257.617188" xlink:href="#i"/>
<use x="318.896484" xlink:href="#e"/>
<use x="382.275391" xlink:href="#r"/>
</g>
</g>
<g clip-path="url(#a)">
<g transform="translate(349.27 867.3) scale(.1 -.1)">
<use xlink:href="#d"/>
<use x="61.523438" xlink:href="#g"/>
<use x="89.306641" xlink:href="#e"/>
<use x="152.685547" xlink:href="#d"/>
<use x="214.208984" xlink:href="#e"/>
</g>
</g>
<g clip-path="url(#a)">
<defs>
<path id="y" d="m48.781 52.594v-8.4062q-3.8125 2.1094-7.6406 3.1562t-7.7344 1.0469q-8.75 0-13.594-5.5469-4.8281-5.5312-4.8281-15.547t4.8281-15.562q4.8438-5.5312 13.594-5.5312 3.9062 0 7.7344 1.0469t7.6406 3.1562v-8.3125q-3.7656-1.75-7.7969-2.625-4.0156-0.89062-8.5625-0.89062-12.359 0-19.641 7.7656-7.2656 7.7656-7.2656 20.953 0 13.375 7.3438 21.031 7.3594 7.6719 20.156 7.6719 4.1406 0 8.0938-0.85938 3.9531-0.84375 7.6719-2.5469z"/>
</defs>
<g transform="translate(375.66 867.3) scale(.1 -.1)">
<use xlink:href="#at"/>
<use x="35.205078" xlink:href="#ao"/>
<use x="98.583984" xlink:href="#h"/>
<use x="139.666016" xlink:href="#y"/>
<use x="194.646484" xlink:href="#u"/>
<use x="258.025391" xlink:href="#p"/>
<use x="297.234375" xlink:href="#d"/>
<use x="358.757812" xlink:href="#h"/>
<use x="399.871094" xlink:href="#j"/>
<use x="427.654297" xlink:href="#g"/>
<use x="455.4375" xlink:href="#y"/>
<use x="510.417969" xlink:href="#u"/>
<use x="573.796875" xlink:href="#d"/>
<use x="635.320312" xlink:href="#e"/>
</g>
</g>
<g clip-path="url(#a)">
<defs>
<path id="bc" d="m45.406 27.984q0 9.7656-4.0312 15.125-4.0156 5.375-11.297 5.375-7.2188 0-11.25-5.375-4.0312-5.3594-4.0312-15.125 0-9.7188 4.0312-15.094t11.25-5.375q7.2812 0 11.297 5.375 4.0312 5.375 4.0312 15.094zm8.9844-21.203q0-13.953-6.2031-20.766-6.1875-6.8125-18.984-6.8125-4.7344 0-8.9375 0.70312t-8.1562 2.1719v8.7344q3.9531-2.1406 7.8125-3.1562 3.8594-1.0312 7.8594-1.0312 8.8438 0 13.234 4.6094t4.3906 13.938v4.4531q-2.7812-4.8438-7.125-7.2344t-10.406-2.3906q-10.047 0-16.203 7.6562-6.1562 7.6719-6.1562 20.328 0 12.688 6.1562 20.344 6.1562 7.6719 16.203 7.6719 6.0625 0 10.406-2.3906t7.125-7.2188v8.2969h8.9844z"/>
</defs>
<g transform="translate(441.32 867.3) scale(.1 -.1)">
<use xlink:href="#am"/>
<use x="63.476562" xlink:href="#y"/>
<use x="118.457031" xlink:href="#u"/>
<use x="181.835938" xlink:href="#j"/>
<use x="209.619141" xlink:href="#i"/>
<use x="270.898438" xlink:href="#bc"/>
</g>
</g>
<g clip-path="url(#a)">
<g transform="translate(503.9 867.3) scale(.1 -.1)">
<use xlink:href="#aa"/>
</g>
</g>
<g clip-path="url(#a)">
<defs>
<path id="bb" d="m9.4219 54.688h8.9844v-55.672q0-10.438-3.9844-15.125-3.9688-4.6875-12.812-4.6875h-3.4219v7.6094h2.4062q5.125 0 6.9688 2.375 1.8594 2.3594 1.8594 9.8281zm0 21.297h8.9844v-11.391h-8.9844z"/>
</defs>
<g transform="translate(548.48 867.3) scale(.1 -.1)">
<use xlink:href="#bb"/>
<use x="27.783203" xlink:href="#i"/>
</g>
</g>
<g clip-path="url(#a)">
<g transform="translate(592.75 867.3) scale(.1 -.1)">
<use xlink:href="#d"/>
<use x="61.523438" xlink:href="#g"/>
<use x="89.306641" xlink:href="#e"/>
</g>
</g>
<g clip-path="url(#a)">
<defs>
<path id="x" d="m30.609 48.391q-7.2188 0-11.422-5.6406t-4.2031-15.453 4.1719-15.453q4.1875-5.6406 11.453-5.6406 7.1875 0 11.375 5.6562 4.2031 5.6719 4.2031 15.438 0 9.7188-4.2031 15.406-4.1875 5.6875-11.375 5.6875zm0 7.6094q11.719 0 18.406-7.625 6.7031-7.6094 6.7031-21.078 0-13.422-6.7031-21.078-6.6875-7.6406-18.406-7.6406-11.766 0-18.438 7.6406-6.6562 7.6562-6.6562 21.078 0 13.469 6.6562 21.078 6.6719 7.625 18.438 7.625z"/>
</defs>
<g transform="translate(629.72 867.3) scale(.1 -.1)">
<use xlink:href="#ag"/>
<use x="52.099609" xlink:href="#x"/>
<use x="113.28125" xlink:href="#j"/>
<use x="141.064453" xlink:href="#y"/>
<use x="196.044922" xlink:href="#u"/>
<use x="259.423828" xlink:href="#d"/>
<use x="320.947266" xlink:href="#h"/>
</g>
</g>
<g clip-path="url(#a)">
<defs>
<path id="al" d="m9.0781 75.984h9.0312v-44.875l26.812 23.578h11.469l-29-25.578 30.234-29.109h-11.719l-27.797 26.703v-26.703h-9.0312z"/>
</defs>
<g transform="translate(677.95 867.3) scale(.1 -.1)">
<use xlink:href="#al"/>
<use x="57.863281" xlink:href="#x"/>
<use x="119.044922" xlink:href="#e"/>
<use x="182.423828" xlink:href="#e"/>
<use x="245.802734" xlink:href="#p"/>
<use x="285.011719" xlink:href="#d"/>
</g>
</g>
<g clip-path="url(#a)">
<defs>
<path id="ba" d="m30.609 48.391q-7.2188 0-11.422-5.6406t-4.2031-15.453 4.1719-15.453q4.1875-5.6406 11.453-5.6406 7.1875 0 11.375 5.6562 4.2031 5.6719 4.2031 15.438 0 9.7188-4.2031 15.406-4.1875 5.6875-11.375 5.6875zm0 7.6094q11.719 0 18.406-7.625 6.7031-7.6094 6.7031-21.078 0-13.422-6.7031-21.078-6.6875-7.6406-18.406-7.6406-11.766 0-18.438 7.6406-6.6562 7.6562-6.6562 21.078 0 13.469 6.6562 21.078 6.6719 7.625 18.438 7.625zm4.6094 19.781h9.9062v-9.8594h-9.9062zm-19.094 0h9.9062v-9.8594h-9.9062z"/>
</defs>
<g transform="translate(725.83 867.3) scale(.1 -.1)">
<use xlink:href="#p"/>
<use x="39.208984" xlink:href="#ba"/>
<use x="100.390625" xlink:href="#r"/>
<use x="163.867188" xlink:href="#j"/>
<use x="191.650391" xlink:href="#g"/>
<use x="219.433594" xlink:href="#y"/>
<use x="274.414062" xlink:href="#u"/>
</g>
</g>
<g clip-path="url(#a)">
<defs>
<path id="ar" d="m4.2031 54.688h8.9844l11.234-42.672 11.172 42.672h10.594l11.234-42.672 11.188 42.672h8.9844l-14.312-54.688h-10.594l-11.766 44.828-11.812-44.828h-10.609z"/>
</defs>
<g transform="translate(771.52 867.3) scale(.1 -.1)">
<use xlink:href="#ar"/>
<use x="81.787109" xlink:href="#d"/>
<use x="143.310547" xlink:href="#h"/>
<use x="184.408203" xlink:href="#r"/>
<use x="247.884766" xlink:href="#d"/>
<use x="309.408203" xlink:href="#e"/>
</g>
</g>
<g clip-path="url(#a)">
<g transform="translate(836.02 867.3) scale(.1 -.1)">
<use xlink:href="#aa"/>
</g>
</g>
<g clip-path="url(#a)">
<g transform="translate(871.55 867.3) scale(.1 -.1)">
<use xlink:href="#ar"/>
<use x="81.787109" xlink:href="#d"/>
<use x="143.310547" xlink:href="#e"/>
<use x="206.689453" xlink:href="#e"/>
</g>
</g>
<g clip-path="url(#a)">
<defs>
<path id="an" d="m9.8125 72.906h9.8594v-30.812l32.719 30.812h12.703l-36.188-33.984 38.766-38.922h-12.984l-35.016 35.109v-35.109h-9.8594z"/>
<path id="ap" d="m34.281 27.484q-10.891 0-15.094-2.4844t-4.2031-8.5q0-4.7812 3.1562-7.5938 3.1562-2.7969 8.5625-2.7969 7.4844 0 12 5.2969t4.5156 14.078v2zm17.922 3.7188v-31.203h-8.9844v8.2969q-3.0781-4.9688-7.6719-7.3438t-11.234-2.375q-8.3906 0-13.359 4.7188-4.9531 4.7188-4.9531 12.625 0 9.2188 6.1719 13.906 6.1875 4.6875 18.438 4.6875h12.609v0.89062q0 6.2031-4.0781 9.5938t-11.453 3.3906q-4.6875 0-9.1406-1.125-4.4375-1.125-8.5312-3.375v8.3125q4.9219 1.9062 9.5625 2.8438 4.6406 0.95312 9.0312 0.95312 11.875 0 17.734-6.1562 5.8594-6.1406 5.8594-18.641zm-18.609 44.578h9.9062v-9.8594h-9.9062zm-19.094 0h9.9062v-9.8594h-9.9062z"/>
</defs>
<g transform="translate(913.4 867.3) scale(.1 -.1)">
<use xlink:href="#an"/>
<use x="65.560547" xlink:href="#i"/>
<use x="126.839844" xlink:href="#as"/>
<use x="190.316406" xlink:href="#g"/>
<use x="218.099609" xlink:href="#p"/>
<use x="257.308594" xlink:href="#ap"/>
<use x="318.587891" xlink:href="#e"/>
</g>
</g>
<g clip-path="url(#a)">
<defs>
<path id="aw" d="m9.8125 72.906h13.281l32.328-60.984v60.984h9.5625v-72.906h-13.281l-32.312 60.984v-60.984h-9.5781z"/>
</defs>
<g transform="translate(965.2 867.3) scale(.1 -.1)">
<use xlink:href="#aw"/>
<use x="74.804688" xlink:href="#d"/>
<use x="136.328125" xlink:href="#k"/>
<use x="233.740234" xlink:href="#x"/>
</g>
</g>
<g clip-path="url(#a)">
<g transform="translate(1010.9 867.3) scale(.1 -.1)">
<use xlink:href="#r"/>
<use x="63.476562" xlink:href="#g"/>
<use x="91.259766" xlink:href="#d"/>
<use x="152.783203" xlink:href="#ag"/>
<use x="204.882812" xlink:href="#d"/>
<use x="266.40625" xlink:href="#e"/>
</g>
</g>
<g clip-path="url(#a)">
<defs>
<path id="ak" d="m8.5 21.578v33.109h8.9844v-32.766q0-7.7656 3.0156-11.656 3.0312-3.875 9.0938-3.875 7.2656 0 11.484 4.6406 4.2344 4.6406 4.2344 12.656v31h8.9844v-54.688h-8.9844v8.4062q-3.2656-4.9844-7.5938-7.4062-4.3125-2.4219-10.031-2.4219-9.4219 0-14.312 5.8594-4.875 5.8594-4.875 17.141z"/>
</defs>
<g transform="translate(1049 867.3) scale(.1 -.1)">
<use xlink:href="#an"/>
<use x="65.498047" xlink:href="#x"/>
<use x="126.679688" xlink:href="#e"/>
<use x="190.058594" xlink:href="#r"/>
<use x="253.535156" xlink:href="#ak"/>
<use x="316.914062" xlink:href="#al"/>
<use x="374.824219" xlink:href="#p"/>
<use x="414.033203" xlink:href="#x"/>
<use x="475.214844" xlink:href="#h"/>
</g>
</g>
<g clip-path="url(#a)">
<g transform="translate(1114.1 867.3) scale(.1 -.1)">
<use xlink:href="#k"/>
<use x="97.412109" xlink:href="#g"/>
<use x="125.195312" xlink:href="#p"/>
</g>
</g>
<g clip-path="url(#a)">
<g transform="translate(1158.8 867.3) scale(.1 -.1)">
<use xlink:href="#i"/>
<use x="61.279297" xlink:href="#j"/>
<use x="89.0625" xlink:href="#j"/>
<use x="116.845703" xlink:href="#d"/>
<use x="178.369141" xlink:href="#h"/>
</g>
</g>
<g clip-path="url(#a)">
<defs>
<path id="aq" d="m5.5156 54.688h42.672v-8.2031l-33.781-39.312h33.781v-7.1719h-43.891v8.2031l33.797 39.312h-32.578z"/>
</defs>
<g transform="translate(1190.3 867.3) scale(.1 -.1)">
<use xlink:href="#s"/>
<use x="63.183594" xlink:href="#j"/>
<use x="90.966797" xlink:href="#d"/>
<use x="152.490234" xlink:href="#al"/>
<use x="210.400391" xlink:href="#p"/>
<use x="249.609375" xlink:href="#h"/>
<use x="290.722656" xlink:href="#g"/>
<use x="318.505859" xlink:href="#aq"/>
<use x="370.996094" xlink:href="#g"/>
<use x="398.779297" xlink:href="#p"/>
<use x="437.988281" xlink:href="#ap"/>
<use x="499.267578" xlink:href="#p"/>
</g>
</g>
<g clip-path="url(#a)">
<g transform="translate(1263 867.3) scale(.1 -.1)">
<use xlink:href="#aa"/>
</g>
</g>
<g clip-path="url(#a)">
<g transform="translate(1304.4 867.3) scale(.1 -.1)">
<use xlink:href="#r"/>
<use x="63.476562" xlink:href="#g"/>
<use x="91.259766" xlink:href="#d"/>
</g>
</g>
<g clip-path="url(#a)">
<g transform="translate(1350.1 867.3) scale(.1 -.1)">
<use xlink:href="#g"/>
<use x="27.783203" xlink:href="#u"/>
<use x="91.162109" xlink:href="#k"/>
</g>
</g>
<g clip-path="url(#a)">
<g transform="translate(1401.2 867.3) scale(.1 -.1)">
<use xlink:href="#aq"/>
<use x="52.490234" xlink:href="#ak"/>
</g>
</g>
<g clip-path="url(#a)">
<defs>
<path id="ay" d="m59.516 10.406v19.578h-16.109v8.1094h25.875v-31.312q-5.7031-4.0469-12.594-6.125-6.875-2.0781-14.688-2.0781-17.094 0-26.75 9.9844-9.6406 10-9.6406 27.812 0 17.875 9.6406 27.859 9.6562 9.9844 26.75 9.9844 7.125 0 13.547-1.7656 6.4219-1.75 11.844-5.1719v-10.5q-5.4688 4.6406-11.625 6.9844t-12.938 2.3438q-13.391 0-20.109-7.4688-6.7031-7.4688-6.7031-22.266 0-14.75 6.7031-22.219 6.7188-7.4688 20.109-7.4688 5.2188 0 9.3125 0.90625 4.1094 0.90625 7.375 2.8125z"/>
<path id="au" d="m48.688 27.297q0 9.9062-4.0781 15.547t-11.203 5.6406q-7.1406 0-11.219-5.6406t-4.0781-15.547 4.0781-15.547 11.219-5.6406q7.125 0 11.203 5.6406t4.0781 15.547zm-30.578 19.094q2.8438 4.875 7.1562 7.2344 4.3281 2.375 10.328 2.375 9.9688 0 16.188-7.9062 6.2344-7.9062 6.2344-20.797t-6.2344-20.812q-6.2188-7.9062-16.188-7.9062-6 0-10.328 2.375-4.3125 2.375-7.1562 7.25v-8.2031h-9.0312v75.984h9.0312z"/>
</defs>
<g transform="translate(1436.2 867.3) scale(.1 -.1)">
<use xlink:href="#ay"/>
<use x="77.490234" xlink:href="#d"/>
<use x="139.013672" xlink:href="#au"/>
<use x="202.490234" xlink:href="#x"/>
<use x="263.671875" xlink:href="#p"/>
<use x="302.880859" xlink:href="#d"/>
</g>
</g>
<g clip-path="url(#a)">
<g transform="translate(1487.9 867.3) scale(.1 -.1)">
<use xlink:href="#ag"/>
<use x="52.099609" xlink:href="#p"/>
<use x="91.308594" xlink:href="#i"/>
<use x="152.587891" xlink:href="#e"/>
<use x="215.966797" xlink:href="#r"/>
</g>
</g>
<g clip-path="url(#a)">
<g transform="translate(1547.7 867.3) scale(.1 -.1)">
<use xlink:href="#aa"/>
</g>
</g>
<g clip-path="url(#a)">
<g transform="translate(1589 867.3) scale(.1 -.1)">
<use xlink:href="#j"/>
<use x="27.783203" xlink:href="#ak"/>
<use x="91.162109" xlink:href="#r"/>
</g>
</g>
<g clip-path="url(#a)">
<defs>
<path id="f" d="m10.688 12.406h10.312v-12.406h-10.312z"/>
</defs>
<g transform="translate(1642.6 867.3) scale(.1 -.1)">
<use xlink:href="#f"/>
</g>
</g>
<g clip-path="url(#a)">
<defs>
<path id="c" d="m12.406 8.2969h16.109v55.625l-17.531-3.5156v8.9844l17.438 3.5156h9.8594v-64.609h16.109v-8.2969h-41.984z"/>
</defs>
<g transform="translate(608.54 44.885) scale(.1 -.1)">
<use xlink:href="#c"/>
<use x="63.623047" xlink:href="#f"/>
<use x="95.410156" xlink:href="#c"/>
</g>
</g>
<g clip-path="url(#a)">
<defs>
<path id="o" d="m19.188 8.2969h34.422v-8.2969h-46.281v8.2969q5.6094 5.8125 15.297 15.594 9.7031 9.7969 12.188 12.641 4.7344 5.3125 6.6094 9 1.8906 3.6875 1.8906 7.25 0 5.8125-4.0781 9.4688-4.0781 3.6719-10.625 3.6719-4.6406 0-9.7969-1.6094-5.1406-1.6094-11-4.8906v9.9688q5.9531 2.3906 11.125 3.6094 5.1875 1.2188 9.4844 1.2188 11.328 0 18.062-5.6719 6.7344-5.6562 6.7344-15.125 0-4.5-1.6875-8.5312-1.6719-4.0156-6.125-9.4844-1.2188-1.4219-7.7656-8.1875-6.5312-6.7656-18.453-18.922z"/>
</defs>
<g transform="translate(141.69 601.5) scale(.1 -.1)">
<use xlink:href="#c"/>
<use x="63.623047" xlink:href="#f"/>
<use x="95.410156" xlink:href="#o"/>
</g>
</g>
<g clip-path="url(#a)">
<defs>
<path id="n" d="m40.578 39.312q7.0781-1.5156 11.047-6.3125 3.9844-4.7812 3.9844-11.812 0-10.781-7.4219-16.703-7.4219-5.9062-21.094-5.9062-4.5781 0-9.4375 0.90625t-10.031 2.7188v9.5156q4.0938-2.3906 8.9688-3.6094 4.8906-1.2188 10.219-1.2188 9.2656 0 14.125 3.6562t4.8594 10.641q0 6.4531-4.5156 10.078-4.5156 3.6406-12.562 3.6406h-8.5v8.1094h8.8906q7.2656 0 11.125 2.9062t3.8594 8.375q0 5.6094-3.9844 8.6094-3.9688 3.0156-11.391 3.0156-4.0625 0-8.7031-0.89062-4.6406-0.875-10.203-2.7188v8.7812q5.625 1.5625 10.531 2.3438t9.25 0.78125q11.234 0 17.766-5.1094 6.5469-5.0938 6.5469-13.781 0-6.0625-3.4688-10.234t-9.8594-5.7812z"/>
</defs>
<g transform="translate(260.31 466.75) scale(.1 -.1)">
<use xlink:href="#c"/>
<use x="63.623047" xlink:href="#f"/>
<use x="95.410156" xlink:href="#n"/>
</g>
</g>
<g clip-path="url(#a)">
<defs>
<path id="m" d="m37.797 64.312-24.906-38.922h24.906zm-2.5938 8.5938h12.406v-47.516h10.406v-8.2031h-10.406v-17.188h-9.8125v17.188h-32.906v9.5156z"/>
</defs>
<g transform="translate(673.09 466.75) scale(.1 -.1)">
<use xlink:href="#c"/>
<use x="63.623047" xlink:href="#f"/>
<use x="95.410156" xlink:href="#m"/>
</g>
</g>
<g clip-path="url(#a)">
<defs>
<path id="t" d="m10.797 72.906h38.719v-8.3125h-29.688v-17.859q2.1406 0.73438 4.2812 1.0938 2.1562 0.35938 4.3125 0.35938 12.203 0 19.328-6.6875 7.1406-6.6875 7.1406-18.109 0-11.766-7.3281-18.297-7.3281-6.5156-20.656-6.5156-4.5938 0-9.3594 0.78125-4.75 0.78125-9.8281 2.3438v9.9219q4.3906-2.3906 9.0781-3.5625t9.9062-1.1719q8.4531 0 13.375 4.4375 4.9375 4.4375 4.9375 12.062 0 7.6094-4.9375 12.047-4.9219 4.4531-13.375 4.4531-3.9531 0-7.8906-0.875-3.9219-0.875-8.0156-2.7344z"/>
</defs>
<g transform="translate(877.1 734.4) scale(.1 -.1)">
<use xlink:href="#c"/>
<use x="63.623047" xlink:href="#f"/>
<use x="95.410156" xlink:href="#t"/>
</g>
</g>
<g clip-path="url(#a)">
<defs>
<path id="z" d="m33.016 40.375q-6.6406 0-10.531-4.5469-3.875-4.5312-3.875-12.438 0-7.8594 3.875-12.438 3.8906-4.5625 10.531-4.5625t10.516 4.5625q3.875 4.5781 3.875 12.438 0 7.9062-3.875 12.438-3.875 4.5469-10.516 4.5469zm19.578 30.922v-8.9844q-3.7188 1.75-7.5 2.6719-3.7812 0.9375-7.5 0.9375-9.7656 0-14.922-6.5938-5.1406-6.5938-5.875-19.922 2.875 4.25 7.2188 6.5156 4.3594 2.2656 9.5781 2.2656 10.984 0 17.359-6.6719 6.375-6.6562 6.375-18.125 0-11.234-6.6406-18.031-6.6406-6.7812-17.672-6.7812-12.656 0-19.344 9.6875-6.6875 9.7031-6.6875 28.109 0 17.281 8.2031 27.562t22.016 10.281q3.7188 0 7.5-0.73438t7.8906-2.1875z"/>
</defs>
<g transform="translate(1328.6 188.93) scale(.1 -.1)">
<use xlink:href="#c"/>
<use x="63.623047" xlink:href="#f"/>
<use x="95.410156" xlink:href="#z"/>
</g>
</g>
<g clip-path="url(#a)">
<g transform="translate(945.09 601.5) scale(.1 -.1)">
<use xlink:href="#c"/>
<use x="63.623047" xlink:href="#f"/>
<use x="95.410156" xlink:href="#c"/>
<use x="159.033203" xlink:href="#c"/>
</g>
</g>
<g clip-path="url(#a)">
<g transform="translate(1040 601.5) scale(.1 -.1)">
<use xlink:href="#c"/>
<use x="63.623047" xlink:href="#f"/>
<use x="95.410156" xlink:href="#c"/>
<use x="159.033203" xlink:href="#o"/>
</g>
</g>
<g clip-path="url(#a)">
<g transform="translate(1210.8 329.41) scale(.1 -.1)">
<use xlink:href="#c"/>
<use x="63.623047" xlink:href="#f"/>
<use x="95.410156" xlink:href="#c"/>
<use x="159.033203" xlink:href="#n"/>
</g>
</g>
<g clip-path="url(#a)">
<g transform="translate(1585.6 734.4) scale(.1 -.1)">
<use xlink:href="#c"/>
<use x="63.623047" xlink:href="#f"/>
<use x="95.410156" xlink:href="#c"/>
<use x="159.033203" xlink:href="#m"/>
</g>
</g>
<g clip-path="url(#a)">
<g transform="translate(1111.2 734.4) scale(.1 -.1)">
<use xlink:href="#c"/>
<use x="63.623047" xlink:href="#f"/>
<use x="95.410156" xlink:href="#c"/>
<use x="159.033203" xlink:href="#z"/>
</g>
</g>
<g clip-path="url(#a)">
<defs>
<path id="af" d="m8.2031 72.906h46.875v-4.2031l-26.469-68.703h-10.297l24.906 64.594h-35.016z"/>
</defs>
<g transform="translate(1158.6 734.4) scale(.1 -.1)">
<use xlink:href="#c"/>
<use x="63.623047" xlink:href="#f"/>
<use x="95.410156" xlink:href="#c"/>
<use x="159.033203" xlink:href="#af"/>
</g>
</g>
<g clip-path="url(#a)">
<defs>
<path id="ae" d="m31.781 34.625q-7.0312 0-11.062-3.7656-4.0156-3.7656-4.0156-10.344 0-6.5938 4.0156-10.359 4.0312-3.7656 11.062-3.7656t11.078 3.7812q4.0625 3.7969 4.0625 10.344 0 6.5781-4.0312 10.344-4.0156 3.7656-11.109 3.7656zm-9.8594 4.1875q-6.3438 1.5625-9.8906 5.9062-3.5312 4.3594-3.5312 10.609 0 8.7344 6.2188 13.812 6.2344 5.0781 17.062 5.0781 10.891 0 17.094-5.0781t6.2031-13.812q0-6.25-3.5469-10.609-3.5312-4.3438-9.8281-5.9062 7.125-1.6562 11.094-6.5 3.9844-4.8281 3.9844-11.797 0-10.609-6.4688-16.281-6.4688-5.6562-18.531-5.6562-12.047 0-18.531 5.6562-6.4688 5.6719-6.4688 16.281 0 6.9688 4 11.797 4.0156 4.8438 11.141 6.5zm-3.6094 15.578q0-5.6562 3.5312-8.8281 3.5469-3.1719 9.9375-3.1719 6.3594 0 9.9375 3.1719 3.5938 3.1719 3.5938 8.8281 0 5.6719-3.5938 8.8438-3.5781 3.1719-9.9375 3.1719-6.3906 0-9.9375-3.1719-3.5312-3.1719-3.5312-8.8438z"/>
</defs>
<g transform="translate(1206 734.4) scale(.1 -.1)">
<use xlink:href="#c"/>
<use x="63.623047" xlink:href="#f"/>
<use x="95.410156" xlink:href="#c"/>
<use x="159.033203" xlink:href="#ae"/>
</g>
</g>
<g clip-path="url(#a)">
<defs>
<path id="ad" d="m10.984 1.5156v8.9844q3.7188-1.7656 7.5156-2.6875 3.8125-0.92188 7.4844-0.92188 9.7656 0 14.906 6.5625 5.1562 6.5625 5.8906 19.953-2.8281-4.2031-7.1875-6.4531-4.3438-2.25-9.6094-2.25-10.938 0-17.312 6.6094-6.375 6.625-6.375 18.109 0 11.219 6.6406 18 6.6406 6.7969 17.672 6.7969 12.656 0 19.312-9.7031 6.6719-9.6875 6.6719-28.141 0-17.234-8.1875-27.516-8.1719-10.281-21.984-10.281-3.7188 0-7.5312 0.73438-3.7969 0.73438-7.9062 2.2031zm19.625 30.906q6.6406 0 10.516 4.5312 3.8906 4.5469 3.8906 12.469 0 7.8594-3.8906 12.422-3.875 4.5625-10.516 4.5625t-10.516-4.5625-3.875-12.422q0-7.9219 3.875-12.469 3.875-4.5312 10.516-4.5312z"/>
</defs>
<g transform="translate(1324.7 466.75) scale(.1 -.1)">
<use xlink:href="#c"/>
<use x="63.623047" xlink:href="#f"/>
<use x="95.410156" xlink:href="#c"/>
<use x="159.033203" xlink:href="#ad"/>
</g>
</g>
<g clip-path="url(#a)">
<g transform="translate(1300.9 734.4) scale(.1 -.1)">
<use xlink:href="#c"/>
<use x="63.623047" xlink:href="#f"/>
<use x="95.410156" xlink:href="#o"/>
<use x="159.033203" xlink:href="#c"/>
</g>
</g>
<g clip-path="url(#a)">
<g transform="translate(1348.4 734.4) scale(.1 -.1)">
<use xlink:href="#c"/>
<use x="63.623047" xlink:href="#f"/>
<use x="95.410156" xlink:href="#o"/>
<use x="159.033203" xlink:href="#o"/>
</g>
</g>
<g clip-path="url(#a)">
<g transform="translate(1443.3 601.5) scale(.1 -.1)">
<use xlink:href="#c"/>
<use x="63.623047" xlink:href="#f"/>
<use x="95.410156" xlink:href="#o"/>
<use x="159.033203" xlink:href="#n"/>
</g>
</g>
<g clip-path="url(#a)">
<g transform="translate(1395.8 734.4) scale(.1 -.1)">
<use xlink:href="#c"/>
<use x="63.623047" xlink:href="#f"/>
<use x="95.410156" xlink:href="#o"/>
<use x="159.033203" xlink:href="#m"/>
</g>
</g>
<g clip-path="url(#a)">
<g transform="translate(1443.3 734.4) scale(.1 -.1)">
<use xlink:href="#c"/>
<use x="63.623047" xlink:href="#f"/>
<use x="95.410156" xlink:href="#o"/>
<use x="159.033203" xlink:href="#t"/>
</g>
</g>
<g clip-path="url(#a)">
<g transform="translate(1490.7 734.4) scale(.1 -.1)">
<use xlink:href="#c"/>
<use x="63.623047" xlink:href="#f"/>
<use x="95.410156" xlink:href="#o"/>
<use x="159.033203" xlink:href="#z"/>
</g>
</g>
<g clip-path="url(#a)">
<g transform="translate(1016.3 734.4) scale(.1 -.1)">
<use xlink:href="#c"/>
<use x="63.623047" xlink:href="#f"/>
<use x="95.410156" xlink:href="#o"/>
<use x="159.033203" xlink:href="#af"/>
</g>
</g>
<g clip-path="url(#a)">
<g transform="translate(1063.7 734.4) scale(.1 -.1)">
<use xlink:href="#c"/>
<use x="63.623047" xlink:href="#f"/>
<use x="95.410156" xlink:href="#o"/>
<use x="159.033203" xlink:href="#ae"/>
</g>
</g>
<g clip-path="url(#a)">
<g transform="translate(921.37 734.4) scale(.1 -.1)">
<use xlink:href="#c"/>
<use x="63.623047" xlink:href="#f"/>
<use x="95.410156" xlink:href="#o"/>
<use x="159.033203" xlink:href="#ad"/>
</g>
</g>
<g clip-path="url(#a)">
<defs>
<path id="aj" d="m31.781 66.406q-7.6094 0-11.453-7.5-3.8281-7.4844-3.8281-22.531 0-14.984 3.8281-22.484 3.8438-7.5 11.453-7.5 7.6719 0 11.5 7.5 3.8438 7.5 3.8438 22.484 0 15.047-3.8438 22.531-3.8281 7.5-11.5 7.5zm0 7.8125q12.266 0 18.734-9.7031 6.4688-9.6875 6.4688-28.141 0-18.406-6.4688-28.109-6.4688-9.6875-18.734-9.6875-12.25 0-18.719 9.6875-6.4688 9.7031-6.4688 28.109 0 18.453 6.4688 28.141 6.4688 9.7031 18.719 9.7031z"/>
</defs>
<g transform="translate(968.82 734.4) scale(.1 -.1)">
<use xlink:href="#c"/>
<use x="63.623047" xlink:href="#f"/>
<use x="95.410156" xlink:href="#n"/>
<use x="159.033203" xlink:href="#aj"/>
</g>
</g>
<g clip-path="url(#a)">
<g transform="translate(541.8 734.4) scale(.1 -.1)">
<use xlink:href="#c"/>
<use x="63.623047" xlink:href="#f"/>
<use x="95.410156" xlink:href="#n"/>
<use x="159.033203" xlink:href="#c"/>
</g>
</g>
<g clip-path="url(#a)">
<g transform="translate(612.97 601.5) scale(.1 -.1)">
<use xlink:href="#c"/>
<use x="63.623047" xlink:href="#f"/>
<use x="95.410156" xlink:href="#n"/>
<use x="159.033203" xlink:href="#o"/>
</g>
</g>
<g clip-path="url(#a)">
<g transform="translate(684.14 734.4) scale(.1 -.1)">
<use xlink:href="#c"/>
<use x="63.623047" xlink:href="#f"/>
<use x="95.410156" xlink:href="#n"/>
<use x="159.033203" xlink:href="#n"/>
</g>
</g>
<g clip-path="url(#a)">
<g transform="translate(731.59 734.4) scale(.1 -.1)">
<use xlink:href="#c"/>
<use x="63.623047" xlink:href="#f"/>
<use x="95.410156" xlink:href="#n"/>
<use x="159.033203" xlink:href="#m"/>
</g>
</g>
<g clip-path="url(#a)">
<g transform="translate(779.03 734.4) scale(.1 -.1)">
<use xlink:href="#c"/>
<use x="63.623047" xlink:href="#f"/>
<use x="95.410156" xlink:href="#n"/>
<use x="159.033203" xlink:href="#t"/>
</g>
</g>
<g clip-path="url(#a)">
<g transform="translate(589.25 734.4) scale(.1 -.1)">
<use xlink:href="#c"/>
<use x="63.623047" xlink:href="#f"/>
<use x="95.410156" xlink:href="#n"/>
<use x="159.033203" xlink:href="#z"/>
</g>
</g>
<g clip-path="url(#a)">
<g transform="translate(636.69 734.4) scale(.1 -.1)">
<use xlink:href="#c"/>
<use x="63.623047" xlink:href="#f"/>
<use x="95.410156" xlink:href="#n"/>
<use x="159.033203" xlink:href="#af"/>
</g>
</g>
<g clip-path="url(#a)">
<g transform="translate(304.57 734.4) scale(.1 -.1)">
<use xlink:href="#c"/>
<use x="63.623047" xlink:href="#f"/>
<use x="95.410156" xlink:href="#n"/>
<use x="159.033203" xlink:href="#ae"/>
</g>
</g>
<g clip-path="url(#a)">
<g transform="translate(399.46 601.5) scale(.1 -.1)">
<use xlink:href="#c"/>
<use x="63.623047" xlink:href="#f"/>
<use x="95.410156" xlink:href="#n"/>
<use x="159.033203" xlink:href="#ad"/>
</g>
</g>
<g clip-path="url(#a)">
<g transform="translate(352.02 734.4) scale(.1 -.1)">
<use xlink:href="#c"/>
<use x="63.623047" xlink:href="#f"/>
<use x="95.410156" xlink:href="#m"/>
<use x="159.033203" xlink:href="#aj"/>
</g>
</g>
<g clip-path="url(#a)">
<g transform="translate(399.46 734.4) scale(.1 -.1)">
<use xlink:href="#c"/>
<use x="63.623047" xlink:href="#f"/>
<use x="95.410156" xlink:href="#m"/>
<use x="159.033203" xlink:href="#c"/>
</g>
</g>
<g clip-path="url(#a)">
<g transform="translate(446.91 734.4) scale(.1 -.1)">
<use xlink:href="#c"/>
<use x="63.623047" xlink:href="#f"/>
<use x="95.410156" xlink:href="#m"/>
<use x="159.033203" xlink:href="#o"/>
</g>
</g>
<g clip-path="url(#a)">
<g transform="translate(67.342 734.4) scale(.1 -.1)">
<use xlink:href="#c"/>
<use x="63.623047" xlink:href="#f"/>
<use x="95.410156" xlink:href="#m"/>
<use x="159.033203" xlink:href="#n"/>
</g>
</g>
<g clip-path="url(#a)">
<g transform="translate(114.79 734.4) scale(.1 -.1)">
<use xlink:href="#c"/>
<use x="63.623047" xlink:href="#f"/>
<use x="95.410156" xlink:href="#m"/>
<use x="159.033203" xlink:href="#m"/>
</g>
</g>
<g clip-path="url(#a)">
<g transform="translate(162.23 734.4) scale(.1 -.1)">
<use xlink:href="#c"/>
<use x="63.623047" xlink:href="#f"/>
<use x="95.410156" xlink:href="#m"/>
<use x="159.033203" xlink:href="#t"/>
</g>
</g>
<g clip-path="url(#a)">
<g transform="translate(209.68 734.4) scale(.1 -.1)">
<use xlink:href="#c"/>
<use x="63.623047" xlink:href="#f"/>
<use x="95.410156" xlink:href="#m"/>
<use x="159.033203" xlink:href="#z"/>
</g>
</g>
<g clip-path="url(#a)">
<g transform="translate(257.13 734.4) scale(.1 -.1)">
<use xlink:href="#c"/>
<use x="63.623047" xlink:href="#f"/>
<use x="95.410156" xlink:href="#m"/>
<use x="159.033203" xlink:href="#af"/>
</g>
</g>
<g clip-path="url(#a)">
<g transform="translate(494.36 734.4) scale(.1 -.1)">
<use xlink:href="#c"/>
<use x="63.623047" xlink:href="#f"/>
<use x="95.410156" xlink:href="#m"/>
<use x="159.033203" xlink:href="#ae"/>
</g>
</g>
<g clip-path="url(#a)">
<g transform="translate(826.48 734.4) scale(.1 -.1)">
<use xlink:href="#c"/>
<use x="63.623047" xlink:href="#f"/>
<use x="95.410156" xlink:href="#m"/>
<use x="159.033203" xlink:href="#ad"/>
</g>
</g>
<g clip-path="url(#a)">
<g transform="translate(1253.5 734.4) scale(.1 -.1)">
<use xlink:href="#c"/>
<use x="63.623047" xlink:href="#f"/>
<use x="95.410156" xlink:href="#t"/>
<use x="159.033203" xlink:href="#aj"/>
</g>
</g>
<g clip-path="url(#a)">
<g transform="translate(1538.2 734.4) scale(.1 -.1)">
<use xlink:href="#c"/>
<use x="63.623047" xlink:href="#f"/>
<use x="95.410156" xlink:href="#t"/>
<use x="159.033203" xlink:href="#c"/>
</g>
</g>
<g clip-path="url(#a)">
<g transform="translate(1633.1 734.4) scale(.1 -.1)">
<use xlink:href="#c"/>
<use x="63.623047" xlink:href="#f"/>
<use x="95.410156" xlink:href="#t"/>
<use x="159.033203" xlink:href="#o"/>
</g>
</g>
<defs>
<clipPath id="a">
<rect width="1722.7" height="906.67"/>
</clipPath>
</defs>
</svg>
