<?xml version="1.0" encoding="UTF-8"?>
<!DOCTYPE svg  PUBLIC '-//W3C//DTD SVG 1.1//EN'  'http://www.w3.org/Graphics/SVG/1.1/DTD/svg11.dtd'>
<svg width="2026.7pt" height="1066.7pt" version="1.1" viewBox="0 0 2026.7 1066.7" xmlns="http://www.w3.org/2000/svg" xmlns:xlink="http://www.w3.org/1999/xlink">
<defs>
<style type="text/css">*{stroke-linecap:butt;stroke-linejoin:round;}</style>
</defs>
<path d="m0 1066.7h2026.7v-1066.7h-2026.7z" fill="#fff"/>
<g fill="none" stroke="#000">
<path d="m921.11 49.26-565.23 431.53" clip-path="url(#a)"/>
<path d="m921.11 49.26-73.098 835.56" clip-path="url(#a)"/>
<path d="m921.11 49.26 758.66 147.68" clip-path="url(#a)"/>
<path d="m921.11 49.26-120.33 835.56" clip-path="url(#a)"/>
<path d="m355.88 480.79-184.89 137.02" clip-path="url(#a)"/>
<path d="m355.88 480.79-74.675 404.03" clip-path="url(#a)"/>
<path d="m355.88 480.79 78.274 137.02" clip-path="url(#a)"/>
<path d="m355.88 480.79 67.028 404.03" clip-path="url(#a)"/>
<path d="m355.88 480.79 114.26 404.03" clip-path="url(#a)"/>
<path d="m848.01 884.82v132.59" clip-path="url(#a)"/>
<path d="m1679.8 196.94-653.92 143.71" clip-path="url(#a)"/>
<path d="m1679.8 196.94 18.455 687.88" clip-path="url(#a)"/>
<path d="m1679.8 196.94 65.689 687.88" clip-path="url(#a)"/>
<path d="m1679.8 196.94 136.54 555.3" clip-path="url(#a)"/>
<path d="m1679.8 196.94 207.39 687.88" clip-path="url(#a)"/>
<path d="m1679.8 196.94-28.779 687.88" clip-path="url(#a)"/>
<path d="m1679.8 196.94 254.63 687.88" clip-path="url(#a)"/>
<path d="m1025.9 340.65 239.01 140.14" clip-path="url(#a)"/>
<path d="m1025.9 340.65-130.6 544.18" clip-path="url(#a)"/>
<path d="m1025.9 340.65-83.368 544.18" clip-path="url(#a)"/>
<path d="m1025.9 340.65-36.134 544.18" clip-path="url(#a)"/>
<path d="m1025.9 340.65 11.1 544.18" clip-path="url(#a)"/>
<path d="m1698.2 884.82v132.59" clip-path="url(#a)"/>
<path d="m1745.5 884.82v132.59" clip-path="url(#a)"/>
<path d="m1816.3 752.24-23.617 132.59" clip-path="url(#a)"/>
<path d="m1816.3 752.24 23.617 132.59" clip-path="url(#a)"/>
<path d="m1887.2 884.82v132.59" clip-path="url(#a)"/>
<path d="m1792.7 884.82v132.59" clip-path="url(#a)"/>
<path d="m1839.9 884.82v132.59" clip-path="url(#a)"/>
<path d="m1264.9 480.79-180.67 404.03" clip-path="url(#a)"/>
<path d="m1264.9 480.79-86.202 271.45" clip-path="url(#a)"/>
<path d="m1264.9 480.79 203.11 137.02" clip-path="url(#a)"/>
<path d="m1264.9 480.79 338.91 404.03" clip-path="url(#a)"/>
<path d="m1264.9 480.79-275.14 404.03" clip-path="url(#a)" stroke-dasharray="3.7,1.6"/>
<path d="m1084.2 884.82v132.59" clip-path="url(#a)"/>
<path d="m1178.7 752.24-47.234 132.59" clip-path="url(#a)"/>
<path d="m1178.7 752.24v132.59" clip-path="url(#a)"/>
<path d="m1178.7 752.24 47.234 132.59" clip-path="url(#a)"/>
<path d="m1468 617.8-123.99 134.43" clip-path="url(#a)"/>
<path d="m1468 617.8-5.9043 267.02" clip-path="url(#a)"/>
<path d="m1468 617.8 41.33 267.02" clip-path="url(#a)"/>
<path d="m1468 617.8 88.564 267.02" clip-path="url(#a)"/>
<path d="m1603.8 884.82v132.59" clip-path="url(#a)"/>
<path d="m1344 752.24-70.851 132.59" clip-path="url(#a)"/>
<path d="m1344 752.24-23.617 132.59" clip-path="url(#a)"/>
<path d="m1344 752.24 23.617 132.59" clip-path="url(#a)"/>
<path d="m1344 752.24 70.851 132.59" clip-path="url(#a)"/>
<path d="m1462.1 884.82v132.59" clip-path="url(#a)"/>
<path d="m1509.3 884.82v132.59" clip-path="url(#a)"/>
<path d="m1556.5 884.82v132.59" clip-path="url(#a)"/>
<path d="m1273.1 884.82v132.59" clip-path="url(#a)"/>
<path d="m1320.4 884.82v132.59" clip-path="url(#a)"/>
<path d="m1367.6 884.82v132.59" clip-path="url(#a)"/>
<path d="m1414.8 884.82v132.59" clip-path="url(#a)"/>
<path d="m1131.4 884.82v132.59" clip-path="url(#a)"/>
<path d="m1178.7 884.82v132.59" clip-path="url(#a)"/>
<path d="m1225.9 884.82v132.59" clip-path="url(#a)"/>
<path d="m895.25 884.82v132.59" clip-path="url(#a)"/>
<path d="m942.48 884.82v132.59" clip-path="url(#a)"/>
<path d="m989.72 884.82v132.59" clip-path="url(#a)"/>
<path d="m170.99 617.8-15.745 134.43" clip-path="url(#a)"/>
<path d="m170.99 617.8 15.745 267.02" clip-path="url(#a)"/>
<path d="m281.2 884.82v132.59" clip-path="url(#a)"/>
<path d="m434.15 617.8 164.2 134.43" clip-path="url(#a)"/>
<path d="m434.15 617.8-105.71 267.02" clip-path="url(#a)"/>
<path d="m434.15 617.8-58.48 267.02" clip-path="url(#a)"/>
<path d="m422.91 884.82v132.59" clip-path="url(#a)"/>
<path d="m598.35 752.24-80.973 132.59" clip-path="url(#a)"/>
<path d="m598.35 752.24-33.739 132.59" clip-path="url(#a)"/>
<path d="m598.35 752.24 13.495 132.59" clip-path="url(#a)"/>
<path d="m598.35 752.24 60.73 132.59" clip-path="url(#a)"/>
<path d="m598.35 752.24 107.96 132.59" clip-path="url(#a)"/>
<path d="m598.35 752.24 155.2 132.59" clip-path="url(#a)"/>
<path d="m598.35 752.24-222.68 132.59" clip-path="url(#a)" stroke-dasharray="3.7,1.6"/>
<path d="m517.37 884.82v132.59" clip-path="url(#a)"/>
<path d="m564.61 884.82v132.59" clip-path="url(#a)"/>
<path d="m611.84 884.82v132.59" clip-path="url(#a)"/>
<path d="m659.08 884.82v132.59" clip-path="url(#a)"/>
<path d="m706.31 884.82v132.59" clip-path="url(#a)"/>
<path d="m753.55 884.82v132.59" clip-path="url(#a)"/>
<path d="m328.44 884.82v132.59" clip-path="url(#a)"/>
<path d="m375.67 884.82v132.59" clip-path="url(#a)"/>
<path d="m155.25 752.24-62.979 132.59" clip-path="url(#a)"/>
<path d="m155.25 752.24-15.745 132.59" clip-path="url(#a)"/>
<path d="m155.25 752.24 78.724 132.59" clip-path="url(#a)"/>
<path d="m186.73 884.82v132.59" clip-path="url(#a)"/>
<path d="m92.267 884.82v132.59" clip-path="url(#a)"/>
<path d="m139.5 884.82v132.59" clip-path="url(#a)"/>
<path d="m233.97 884.82v132.59" clip-path="url(#a)"/>
<path d="m470.14 884.82v132.59" clip-path="url(#a)"/>
<path d="m800.78 884.82v132.59" clip-path="url(#a)"/>
<path d="m1037 884.82v132.59" clip-path="url(#a)"/>
<path d="m1651 884.82v132.59" clip-path="url(#a)"/>
<path d="m1934.4 884.82v132.59" clip-path="url(#a)"/>
</g>
<path d="m639.91 271.83 4.782-3.6508q1.9076-1.4564 0.45125-3.364l-4.6983-6.154q-1.4564-1.9076-3.364-0.45125l-4.782 3.6508q-1.9076 1.4564-0.45125 3.364l4.6983 6.154q1.4564 1.9076 3.364 0.45125z" clip-path="url(#a)" fill="#fff" stroke="#fff"/>
<g clip-path="url(#a)">
<defs>
<path id="ap" d="m9.8125 72.906h9.8594v-29.891h35.844v29.891h9.8594v-72.906h-9.8594v34.719h-35.844v-34.719h-9.8594z"/>
</defs>
<g transform="translate(637.44 268.6) rotate(-37.36) scale(.08 -.08)">
<use xlink:href="#ap"/>
</g>
</g>
<path d="m890.62 469.81 0.38847-4.4405q0.20916-2.3909-2.1817-2.6l-7.713-0.67476q-2.3909-0.20916-2.6 2.1817l-0.38847 4.4405q-0.20916 2.3909 2.1817 2.6l7.713 0.67476q2.3909 0.20916 2.6-2.1817z" clip-path="url(#a)" fill="#fff" stroke="#fff"/>
<g clip-path="url(#a)">
<defs>
<path id="at" d="m9.8125 72.906h9.8594v-64.609h35.5v-8.2969h-45.359z"/>
</defs>
<g transform="translate(886.57 469.45) rotate(-85) scale(.08 -.08)">
<use xlink:href="#at"/>
</g>
</g>
<path d="m1296.3 128.68 5.9054 1.1495q2.3558 0.45856 2.8143-1.8972l1.4793-7.5999q0.45856-2.3558-1.8972-2.8143l-5.9054-1.1495q-2.3558-0.45856-2.8143 1.8972l-1.4793 7.5999q-0.45856 2.3558 1.8972 2.8143z" clip-path="url(#a)" fill="#fff" stroke="#fff"/>
<g clip-path="url(#a)">
<g transform="translate(1297.1 124.69) rotate(11.015) scale(.08 -.08)">
<use xlink:href="#ap"/>
</g>
</g>
<path d="m866.74 470.83 0.83459-5.7952q0.3421-2.3755-2.0334-2.7176l-7.6634-1.1036q-2.3755-0.3421-2.7176 2.0334l-0.83459 5.7952q-0.3421 2.3755 2.0334 2.7176l7.6634 1.1036q2.3755 0.3421 2.7176-2.0334z" clip-path="url(#a)" fill="#fff" stroke="#fff"/>
<g clip-path="url(#a)">
<defs>
<path id="ae" d="m8.6875 72.906h9.9219v-44.297q0-11.719 4.2344-16.875 4.25-5.1406 13.781-5.1406 9.4688 0 13.719 5.1406 4.25 5.1562 4.25 16.875v44.297h9.9062v-45.516q0-14.25-7.0625-21.531-7.0469-7.2812-20.812-7.2812-13.828 0-20.891 7.2812-7.0469 7.2812-7.0469 21.531z"/>
</defs>
<g transform="translate(862.71 470.25) rotate(-81.805) scale(.08 -.08)">
<use xlink:href="#ae"/>
</g>
</g>
<path d="m264.97 555.96 4.3967-3.2584q1.9282-1.429 0.49923-3.3572l-4.61-6.2205q-1.429-1.9282-3.3572-0.49923l-4.3967 3.2584q-1.9282 1.429-0.49923 3.3572l4.61 6.2205q1.429 1.9282 3.3572 0.49923z" clip-path="url(#a)" fill="#fff" stroke="#fff"/>
<g clip-path="url(#a)">
<defs>
<path id="r" d="m34.188 63.188-13.391-36.281h26.812zm-5.5781 9.7188h11.188l27.781-72.906h-10.25l-6.6406 18.703h-32.859l-6.6406-18.703h-10.406z"/>
</defs>
<g transform="translate(262.55 552.7) rotate(-36.542) scale(.08 -.08)">
<use xlink:href="#r"/>
</g>
</g>
<path d="m324.29 686.21 0.83625-4.5246q0.43619-2.36-1.9238-2.7962l-7.6136-1.4072q-2.36-0.43619-2.7962 1.9238l-0.83626 4.5246q-0.43619 2.36 1.9238 2.7962l7.6136 1.4072q2.36 0.43619 2.7962-1.9238z" clip-path="url(#a)" fill="#fff" stroke="#fff"/>
<g clip-path="url(#a)">
<defs>
<path id="al" d="m9.8125 72.906h41.891v-8.3125h-32.031v-21.484h28.906v-8.2969h-28.906v-34.812h-9.8594z"/>
</defs>
<g transform="translate(320.29 685.47) rotate(-79.529) scale(.08 -.08)">
<use xlink:href="#al"/>
</g>
</g>
<path d="m388.21 550.03 2.7145 4.7518q1.1905 2.0839 3.2744 0.89346l6.7229-3.8405q2.0839-1.1905 0.89346-3.2744l-2.7145-4.7518q-1.1905-2.0839-3.2744-0.89346l-6.7229 3.8405q-2.0839 1.1905-0.89346 3.2744z" clip-path="url(#a)" fill="#fff" stroke="#fff"/>
<g clip-path="url(#a)">
<g transform="translate(391.74 548.01) rotate(60.262) scale(.08 -.08)">
<use xlink:href="#r"/>
</g>
</g>
<path d="m382.81 681.45 0.78945 4.7587q0.39278 2.3676 2.7604 1.9749l7.6381-1.2671q2.3676-0.39278 1.9749-2.7604l-0.78945-4.7587q-0.39278-2.3676-2.7604-1.9749l-7.6381 1.2671q-2.3676 0.39278-1.9749 2.7604z" clip-path="url(#a)" fill="#fff" stroke="#fff"/>
<g clip-path="url(#a)">
<defs>
<path id="y" d="m19.672 64.797v-27.391h12.406q6.8906 0 10.641 3.5625 3.7656 3.5625 3.7656 10.156 0 6.5469-3.7656 10.109-3.75 3.5625-10.641 3.5625zm-9.8594 8.1094h22.266q12.266 0 18.531-5.5469 6.2812-5.5469 6.2812-16.234 0-10.797-6.2812-16.312-6.2656-5.5156-18.531-5.5156h-12.406v-29.297h-9.8594z"/>
</defs>
<g transform="translate(386.82 680.79) rotate(80.581) scale(.08 -.08)">
<use xlink:href="#y"/>
</g>
</g>
<path d="m406.18 681.69 1.5933 5.634q0.65311 2.3094 2.9625 1.6563l7.4503-2.107q2.3094-0.65311 1.6563-2.9625l-1.5933-5.634q-0.65311-2.3094-2.9625-1.6563l-7.4503 2.107q-2.3094 0.65311-1.6563 2.9625z" clip-path="url(#a)" fill="#fff" stroke="#fff"/>
<g clip-path="url(#a)">
<g transform="translate(410.09 680.59) rotate(74.209) scale(.08 -.08)">
<use xlink:href="#ae"/>
</g>
</g>
<path d="m841.74 933.47v35.285q0 2.4 2.4 2.4h7.7425q2.4 0 2.4-2.4v-35.285q0-2.4-2.4-2.4h-7.7425q-2.4 0-2.4 2.4z" clip-path="url(#a)" fill="#fff" stroke="#fff"/>
<g clip-path="url(#a)">
<defs>
<path id="k" d="m-0.29688 72.906h61.672v-8.3125h-25.875v-64.594h-9.9062v64.594h-25.891z"/>
<path id="c" d="m56.203 29.594v-4.3906h-41.312q0.59375-9.2812 5.5938-14.141t13.938-4.8594q5.1719 0 10.031 1.2656t9.6562 3.8125v-8.5q-4.8438-2.0469-9.9219-3.125t-10.297-1.0781q-13.094 0-20.734 7.6094-7.6406 7.625-7.6406 20.625 0 13.422 7.25 21.297 7.25 7.8906 19.562 7.8906 11.031 0 17.453-7.1094 6.4219-7.0938 6.4219-19.297zm-8.9844 2.6406q-0.09375 7.3594-4.125 11.75-4.0312 4.4062-10.672 4.4062-7.5156 0-12.031-4.25t-5.2031-11.969z"/>
<path id="f" d="m41.109 46.297q-1.5156 0.875-3.2969 1.2812-1.7812 0.42188-3.9219 0.42188-7.625 0-11.703-4.9531t-4.0781-14.234v-28.812h-9.0312v54.688h9.0312v-8.5q2.8438 4.9844 7.375 7.3906 4.5469 2.4219 11.047 2.4219 0.92188 0 2.0469-0.125 1.125-0.10938 2.4844-0.35938z"/>
<path id="l" d="m52 44.188q3.375 6.0625 8.0625 8.9375t11.031 2.875q8.5469 0 13.188-5.9844 4.6406-5.9688 4.6406-17v-33.016h-9.0312v32.719q0 7.8594-2.7969 11.656-2.7812 3.8125-8.4844 3.8125-6.9844 0-11.047-4.6406-4.0469-4.625-4.0469-12.641v-30.906h-9.0312v32.719q0 7.9062-2.7812 11.688t-8.5938 3.7812q-6.8906 0-10.953-4.6562-4.0469-4.6562-4.0469-12.625v-30.906h-9.0312v54.688h9.0312v-8.5q3.0781 5.0312 7.375 7.4219t10.203 2.3906q5.9688 0 10.141-3.0312 4.1719-3.0156 6.1719-8.7812z"/>
<path id="h" d="m9.4219 54.688h8.9844v-54.688h-8.9844zm0 21.297h8.9844v-11.391h-8.9844z"/>
<path id="e" d="m54.891 33.016v-33.016h-8.9844v32.719q0 7.7656-3.0312 11.609-3.0312 3.8594-9.0781 3.8594-7.2812 0-11.484-4.6406-4.2031-4.625-4.2031-12.641v-30.906h-9.0312v54.688h9.0312v-8.5q3.2344 4.9375 7.5938 7.375 4.375 2.4375 10.094 2.4375 9.4219 0 14.25-5.8281 4.8438-5.8281 4.8438-17.156z"/>
<path id="i" d="m34.281 27.484q-10.891 0-15.094-2.4844t-4.2031-8.5q0-4.7812 3.1562-7.5938 3.1562-2.7969 8.5625-2.7969 7.4844 0 12 5.2969t4.5156 14.078v2zm17.922 3.7188v-31.203h-8.9844v8.2969q-3.0781-4.9688-7.6719-7.3438t-11.234-2.375q-8.3906 0-13.359 4.7188-4.9531 4.7188-4.9531 12.625 0 9.2188 6.1719 13.906 6.1875 4.6875 18.438 4.6875h12.609v0.89062q0 6.2031-4.0781 9.5938t-11.453 3.3906q-4.6875 0-9.1406-1.125-4.4375-1.125-8.5312-3.375v8.3125q4.9219 1.9062 9.5625 2.8438 4.6406 0.95312 9.0312 0.95312 11.875 0 17.734-6.1562 5.8594-6.1406 5.8594-18.641z"/>
<path id="j" d="m9.4219 75.984h8.9844v-75.984h-8.9844z"/>
</defs>
<g transform="translate(845.81 933.47) rotate(90) scale(.08 -.08)">
<use xlink:href="#k"/>
<use x="60.818359" xlink:href="#c"/>
<use x="122.341797" xlink:href="#f"/>
<use x="163.439453" xlink:href="#l"/>
<use x="260.851562" xlink:href="#h"/>
<use x="288.634766" xlink:href="#e"/>
<use x="352.013672" xlink:href="#i"/>
<use x="413.292969" xlink:href="#j"/>
</g>
</g>
<path d="m1351.5 275.5 5.345-1.1746q2.3441-0.51514 1.8289-2.8592l-1.6619-7.562q-0.51514-2.3441-2.8592-1.8289l-5.345 1.1746q-2.3441 0.51514-1.8289 2.8592l1.6619 7.562q0.51514 2.3441 2.8592 1.8289z" clip-path="url(#a)" fill="#fff" stroke="#fff"/>
<g clip-path="url(#a)">
<g transform="translate(1350.6 271.53) rotate(-12.394) scale(.08 -.08)">
<use xlink:href="#r"/>
</g>
</g>
<path d="m1682.7 538.75 0.1234 4.5996q0.064366 2.3991 2.4635 2.3348l7.7397-0.20765q2.3991-0.064366 2.3348-2.4635l-0.1234-4.5996q-0.064366-2.3991-2.4635-2.3348l-7.7397 0.20765q-2.3991 0.064366-2.3348 2.4635z" clip-path="url(#a)" fill="#fff" stroke="#fff"/>
<g clip-path="url(#a)">
<g transform="translate(1686.7 538.64) rotate(88.463) scale(.08 -.08)">
<use xlink:href="#al"/>
</g>
</g>
<path d="m1706.1 538.41 0.58558 6.1321q0.22815 2.3891 2.6173 2.161l7.7074-0.73602q2.3891-0.22815 2.161-2.6173l-0.58558-6.1321q-0.22815-2.3891-2.6173-2.161l-7.7074 0.73602q-2.3891 0.22815-2.161 2.6173z" clip-path="url(#a)" fill="#fff" stroke="#fff"/>
<g clip-path="url(#a)">
<defs>
<path id="ah" d="m19.672 64.797v-56.688h11.922q15.094 0 22.094 6.8281 7 6.8438 7 21.594 0 14.641-7 21.453t-22.094 6.8125zm-9.8594 8.1094h20.266q21.188 0 31.094-8.8125 9.9219-8.8125 9.9219-27.562 0-18.859-9.9688-27.703-9.9531-8.8281-31.047-8.8281h-20.266z"/>
</defs>
<g transform="translate(1710.1 538.02) rotate(84.545) scale(.08 -.08)">
<use xlink:href="#ah"/>
</g>
</g>
<path d="m1741.3 473.43 1.3067 5.3142q0.57306 2.3306 2.9036 1.7575l7.5185-1.8487q2.3306-0.57306 1.7575-2.9036l-1.3067-5.3142q-0.57306-2.3306-2.9036-1.7575l-7.5185 1.8487q-2.3306 0.57306-1.7575 2.9036z" clip-path="url(#a)" fill="#fff" stroke="#fff"/>
<g clip-path="url(#a)">
<g transform="translate(1745.2 472.46) rotate(76.186) scale(.08 -.08)">
<use xlink:href="#r"/>
</g>
</g>
<path d="m1776.7 540.26 1.466 4.8626q0.69278 2.2978 2.9906 1.6051l7.4129-2.2349q2.2978-0.69278 1.6051-2.9906l-1.466-4.8626q-0.69278-2.2978-2.9906-1.6051l-7.4129 2.2349q-2.2978 0.69278-1.6051 2.9906z" clip-path="url(#a)" fill="#fff" stroke="#fff"/>
<g clip-path="url(#a)">
<defs>
<path id="an" d="m53.516 70.516v-9.625q-5.6094 2.6875-10.594 4-4.9844 1.3281-9.625 1.3281-8.0469 0-12.422-3.125t-4.375-8.8906q0-4.8438 2.9062-7.3125 2.9062-2.4531 11.016-3.9688l5.9531-1.2188q11.031-2.1094 16.281-7.4062t5.25-14.172q0-10.609-7.1094-16.078-7.0938-5.4688-20.812-5.4688-5.1719 0-11.016 1.1719-5.8281 1.1719-12.078 3.4688v10.156q6-3.3594 11.766-5.0781 5.7656-1.7031 11.328-1.7031 8.4375 0 13.031 3.3125 4.5938 3.3281 4.5938 9.4844 0 5.3594-3.2969 8.3906t-10.812 4.5469l-6.0156 1.1719q-11.031 2.1875-15.969 6.875-4.9219 4.6875-4.9219 13.047 0 9.6719 6.8125 15.234t18.766 5.5625q5.1406 0 10.453-0.9375 5.3281-0.92188 10.891-2.7656z"/>
</defs>
<g transform="translate(1780.6 539.08) rotate(73.222) scale(.08 -.08)">
<use xlink:href="#an"/>
</g>
</g>
<path d="m1671.5 544.07 0.24474-5.8499q0.10032-2.3979-2.2976-2.4982l-7.7357-0.32364q-2.3979-0.10032-2.4982 2.2976l-0.24474 5.8499q-0.10032 2.3979 2.2976 2.4982l7.7357 0.32364q2.3979 0.10032 2.4982-2.2976z" clip-path="url(#a)" fill="#fff" stroke="#fff"/>
<g clip-path="url(#a)">
<g transform="translate(1667.5 543.9) rotate(-87.604) scale(.08 -.08)">
<use xlink:href="#ae"/>
</g>
</g>
<path d="m1800.2 540.31 2.0325 5.4909q0.83314 2.2508 3.0839 1.4176l7.261-2.6877q2.2508-0.83314 1.4176-3.0839l-2.0325-5.4909q-0.83314-2.2508-3.0839-1.4176l-7.261 2.6877q-2.2508 0.83314-1.4176 3.0839z" clip-path="url(#a)" fill="#fff" stroke="#fff"/>
<g clip-path="url(#a)">
<g transform="translate(1804 538.9) rotate(69.688) scale(.08 -.08)">
<use xlink:href="#ae"/>
</g>
</g>
<path d="m1140 414.85 4.3607 2.5569q2.0703 1.2139 3.2843-0.8564l3.9162-6.679q1.2139-2.0703-0.8564-3.2843l-4.3607-2.5569q-2.0703-1.2139-3.2843 0.8564l-3.9162 6.679q-1.2139 2.0703 0.8564 3.2843z" clip-path="url(#a)" fill="#fff" stroke="#fff"/>
<g clip-path="url(#a)">
<defs>
<path id="q" d="m9.8125 72.906h46.094v-8.3125h-36.234v-21.578h34.719v-8.2969h-34.719v-26.422h37.109v-8.2969h-46.969z"/>
</defs>
<g transform="translate(1142.1 411.34) rotate(30.385) scale(.08 -.08)">
<use xlink:href="#q"/>
</g>
</g>
<path d="m966.06 616.65 1.1797-4.9154q0.5601-2.3337-1.7736-2.8938l-7.5287-1.8069q-2.3337-0.5601-2.8938 1.7736l-1.1797 4.9154q-0.5601 2.3337 1.7736 2.8938l7.5287 1.8069q2.3337 0.5601 2.8938-1.7736z" clip-path="url(#a)" fill="#fff" stroke="#fff"/>
<g clip-path="url(#a)">
<g transform="translate(962.11 615.71) rotate(-76.504) scale(.08 -.08)">
<use xlink:href="#q"/>
</g>
</g>
<path d="m989.98 616.18 0.7655-4.9967q0.36344-2.3723-2.0089-2.7358l-7.6532-1.1725q-2.3723-0.36344-2.7358 2.0089l-0.7655 4.9967q-0.36344 2.3723 2.0089 2.7358l7.6532 1.1725q2.3723 0.36344 2.7358-2.0089z" clip-path="url(#a)" fill="#fff" stroke="#fff"/>
<g clip-path="url(#a)">
<g transform="translate(985.97 615.57) rotate(-81.29) scale(.08 -.08)">
<use xlink:href="#q"/>
</g>
</g>
<path d="m1013.9 615.94 0.37012-5.574q0.15901-2.3947-2.2357-2.5537l-7.7255-0.51298q-2.3947-0.15901-2.5537 2.2357l-0.37012 5.574q-0.15901 2.3947 2.2357 2.5537l7.7255 0.51298q2.3947 0.15901 2.5537-2.2357z" clip-path="url(#a)" fill="#fff" stroke="#fff"/>
<g clip-path="url(#a)">
<defs>
<path id="u" d="m64.406 67.281v-10.391q-4.9844 4.6406-10.625 6.9219-5.6406 2.2969-11.984 2.2969-12.5 0-19.141-7.6406t-6.6406-22.094q0-14.406 6.6406-22.047t19.141-7.6406q6.3438 0 11.984 2.2969t10.625 6.9375v-10.312q-5.1719-3.5156-10.969-5.2812-5.7812-1.75-12.219-1.75-16.562 0-26.094 10.125-9.5156 10.141-9.5156 27.672 0 17.578 9.5156 27.703 9.5312 10.141 26.094 10.141 6.5312 0 12.312-1.7344 5.7969-1.7344 10.875-5.2031z"/>
</defs>
<g transform="translate(1009.8 615.67) rotate(-86.201) scale(.08 -.08)">
<use xlink:href="#u"/>
</g>
</g>
<path d="m1025.1 609.93 0.1194 5.8538q0.048945 2.3995 2.4484 2.3506l7.7409-0.1579q2.3995-0.048945 2.3506-2.4484l-0.1194-5.8538q-0.048945-2.3995-2.4484-2.3506l-7.7409 0.1579q-2.3995 0.048945-2.3506 2.4484z" clip-path="url(#a)" fill="#fff" stroke="#fff"/>
<g clip-path="url(#a)">
<g transform="translate(1029.1 609.85) rotate(88.831) scale(.08 -.08)">
<use xlink:href="#ae"/>
</g>
</g>
<path d="m1692 933.47v35.285q0 2.4 2.4 2.4h7.7425q2.4 0 2.4-2.4v-35.285q0-2.4-2.4-2.4h-7.7425q-2.4 0-2.4 2.4z" clip-path="url(#a)" fill="#fff" stroke="#fff"/>
<g clip-path="url(#a)">
<g transform="translate(1696 933.47) rotate(90) scale(.08 -.08)">
<use xlink:href="#k"/>
<use x="60.818359" xlink:href="#c"/>
<use x="122.341797" xlink:href="#f"/>
<use x="163.439453" xlink:href="#l"/>
<use x="260.851562" xlink:href="#h"/>
<use x="288.634766" xlink:href="#e"/>
<use x="352.013672" xlink:href="#i"/>
<use x="413.292969" xlink:href="#j"/>
</g>
</g>
<path d="m1739.2 933.47v35.285q0 2.4 2.4 2.4h7.7425q2.4 0 2.4-2.4v-35.285q0-2.4-2.4-2.4h-7.7425q-2.4 0-2.4 2.4z" clip-path="url(#a)" fill="#fff" stroke="#fff"/>
<g clip-path="url(#a)">
<g transform="translate(1743.3 933.47) rotate(90) scale(.08 -.08)">
<use xlink:href="#k"/>
<use x="60.818359" xlink:href="#c"/>
<use x="122.341797" xlink:href="#f"/>
<use x="163.439453" xlink:href="#l"/>
<use x="260.851562" xlink:href="#h"/>
<use x="288.634766" xlink:href="#e"/>
<use x="352.013672" xlink:href="#i"/>
<use x="413.292969" xlink:href="#j"/>
</g>
</g>
<path d="m1810.2 822.12 0.88648-4.9767q0.42088-2.3628-1.9419-2.7837l-7.6225-1.3578q-2.3628-0.42088-2.7837 1.9419l-0.88648 4.9767q-0.42088 2.3628 1.9419 2.7837l7.6225 1.3578q2.3628 0.42088 2.7837-1.9419z" clip-path="url(#a)" fill="#fff" stroke="#fff"/>
<g clip-path="url(#a)">
<g transform="translate(1806.2 821.4) rotate(-79.9) scale(.08 -.08)">
<use xlink:href="#q"/>
</g>
</g>
<path d="m1821.5 816.88 0.97964 5.4997q0.42088 2.3628 2.7837 1.9419l7.6225-1.3578q2.3628-0.42088 1.9419-2.7837l-0.97964-5.4997q-0.42088-2.3628-2.7837-1.9419l-7.6225 1.3578q-2.3628 0.42088-1.9419 2.7837z" clip-path="url(#a)" fill="#fff" stroke="#fff"/>
<g clip-path="url(#a)">
<g transform="translate(1825.5 816.17) rotate(79.9) scale(.08 -.08)">
<use xlink:href="#u"/>
</g>
</g>
<path d="m1880.9 933.47v35.285q0 2.4 2.4 2.4h7.7425q2.4 0 2.4-2.4v-35.285q0-2.4-2.4-2.4h-7.7425q-2.4 0-2.4 2.4z" clip-path="url(#a)" fill="#fff" stroke="#fff"/>
<g clip-path="url(#a)">
<g transform="translate(1885 933.47) rotate(90) scale(.08 -.08)">
<use xlink:href="#k"/>
<use x="60.818359" xlink:href="#c"/>
<use x="122.341797" xlink:href="#f"/>
<use x="163.439453" xlink:href="#l"/>
<use x="260.851562" xlink:href="#h"/>
<use x="288.634766" xlink:href="#e"/>
<use x="352.013672" xlink:href="#i"/>
<use x="413.292969" xlink:href="#j"/>
</g>
</g>
<path d="m1786.4 933.47v35.285q0 2.4 2.4 2.4h7.7425q2.4 0 2.4-2.4v-35.285q0-2.4-2.4-2.4h-7.7425q-2.4 0-2.4 2.4z" clip-path="url(#a)" fill="#fff" stroke="#fff"/>
<g clip-path="url(#a)">
<g transform="translate(1790.5 933.47) rotate(90) scale(.08 -.08)">
<use xlink:href="#k"/>
<use x="60.818359" xlink:href="#c"/>
<use x="122.341797" xlink:href="#f"/>
<use x="163.439453" xlink:href="#l"/>
<use x="260.851562" xlink:href="#h"/>
<use x="288.634766" xlink:href="#e"/>
<use x="352.013672" xlink:href="#i"/>
<use x="413.292969" xlink:href="#j"/>
</g>
</g>
<path d="m1833.7 933.47v35.285q0 2.4 2.4 2.4h7.7425q2.4 0 2.4-2.4v-35.285q0-2.4-2.4-2.4h-7.7425q-2.4 0-2.4 2.4z" clip-path="url(#a)" fill="#fff" stroke="#fff"/>
<g clip-path="url(#a)">
<g transform="translate(1837.7 933.47) rotate(90) scale(.08 -.08)">
<use xlink:href="#k"/>
<use x="60.818359" xlink:href="#c"/>
<use x="122.341797" xlink:href="#f"/>
<use x="163.439453" xlink:href="#l"/>
<use x="260.851562" xlink:href="#h"/>
<use x="288.634766" xlink:href="#e"/>
<use x="352.013672" xlink:href="#i"/>
<use x="413.292969" xlink:href="#j"/>
</g>
</g>
<path d="m1179.1 687.9 2.2692-5.0745q0.97971-2.1909-1.2112-3.1706l-7.068-3.1606q-2.1909-0.97971-3.1706 1.2112l-2.2692 5.0745q-0.97971 2.1909 1.2112 3.1706l7.068 3.1606q2.1909 0.97971 3.1706-1.2112z" clip-path="url(#a)" fill="#fff" stroke="#fff"/>
<g clip-path="url(#a)">
<defs>
<path id="x" d="m44.391 34.188q3.1719-1.0781 6.1719-4.5938t6.0312-9.6719l10.016-19.922h-10.609l-9.3125 18.703q-3.625 7.3281-7.0156 9.7188t-9.25 2.3906h-10.75v-30.812h-9.8594v72.906h22.266q12.5 0 18.656-5.2344 6.1562-5.2188 6.1562-15.766 0-6.8906-3.2031-11.438-3.2031-4.5312-9.2969-6.2812zm-24.719 30.609v-25.875h12.406q7.125 0 10.766 3.2969t3.6406 9.6875-3.6406 9.6406-10.766 3.25z"/>
</defs>
<g transform="translate(1175.4 686.24) rotate(-65.907) scale(.08 -.08)">
<use xlink:href="#x"/>
</g>
</g>
<path d="m1226.9 621.02 1.6564-5.2158q0.7264-2.2874-1.561-3.0138l-7.3793-2.3434q-2.2874-0.7264-3.0138 1.561l-1.6564 5.2158q-0.7264 2.2874 1.561 3.0138l7.3793 2.3434q2.2874 0.7264 3.0138-1.561z" clip-path="url(#a)" fill="#fff" stroke="#fff"/>
<g clip-path="url(#a)">
<g transform="translate(1223 619.79) rotate(-72.382) scale(.08 -.08)">
<use xlink:href="#r"/>
</g>
</g>
<path d="m1360.6 552.96 4.5367 3.0605q1.9896 1.3422 3.3318-0.64739l4.33-6.4185q1.3422-1.9896-0.64739-3.3318l-4.5367-3.0605q-1.9896-1.3422-3.3318 0.64739l-4.33 6.4185q-1.3422 1.9896 0.64739 3.3318z" clip-path="url(#a)" fill="#fff" stroke="#fff"/>
<g clip-path="url(#a)">
<g transform="translate(1362.9 549.6) rotate(34.004) scale(.08 -.08)">
<use xlink:href="#r"/>
</g>
</g>
<path d="m1428 684.99 3.1 3.6957q1.5424 1.8388 3.3811 0.29641l5.932-4.9757q1.8388-1.5424 0.29641-3.3811l-3.1-3.6957q-1.5424-1.8388-3.3811-0.29641l-5.932 4.9757q-1.8388 1.5424-0.29641 3.3811z" clip-path="url(#a)" fill="#fff" stroke="#fff"/>
<g clip-path="url(#a)">
<g transform="translate(1431.1 682.37) rotate(50.01) scale(.08 -.08)">
<use xlink:href="#y"/>
</g>
</g>
<path d="m1130.9 688.59 3.0803-4.5233q1.3509-1.9837-0.63285-3.3346l-6.3996-4.358q-1.9837-1.3509-3.3346 0.63285l-3.0803 4.5233q-1.3509 1.9837 0.63285 3.3346l6.3996 4.358q1.9837 1.3509 3.3346-0.63285z" clip-path="url(#a)" fill="#fff" stroke="#fff"/>
<g clip-path="url(#a)">
<g transform="translate(1127.6 686.31) rotate(-55.746) scale(.08 -.08)">
<use xlink:href="#r"/>
</g>
</g>
<path d="m1077.9 933.47v35.285q0 2.4 2.4 2.4h7.7425q2.4 0 2.4-2.4v-35.285q0-2.4-2.4-2.4h-7.7425q-2.4 0-2.4 2.4z" clip-path="url(#a)" fill="#fff" stroke="#fff"/>
<g clip-path="url(#a)">
<g transform="translate(1082 933.47) rotate(90) scale(.08 -.08)">
<use xlink:href="#k"/>
<use x="60.818359" xlink:href="#c"/>
<use x="122.341797" xlink:href="#f"/>
<use x="163.439453" xlink:href="#l"/>
<use x="260.851562" xlink:href="#h"/>
<use x="288.634766" xlink:href="#e"/>
<use x="352.013672" xlink:href="#i"/>
<use x="413.292969" xlink:href="#j"/>
</g>
</g>
<path d="m1160 823.25 1.8655-5.2364q0.80542-2.2608-1.4554-3.0662l-7.2935-2.5983q-2.2608-0.80542-3.0662 1.4554l-1.8655 5.2364q-0.80542 2.2608 1.4554 3.0662l7.2935 2.5983q2.2608 0.80542 3.0662-1.4554z" clip-path="url(#a)" fill="#fff" stroke="#fff"/>
<g clip-path="url(#a)">
<g transform="translate(1156.2 821.89) rotate(-70.391) scale(.08 -.08)">
<use xlink:href="#x"/>
</g>
</g>
<path d="m1172.4 816v5.055q0 2.4 2.4 2.4h7.7425q2.4 0 2.4-2.4v-5.055q0-2.4-2.4-2.4h-7.7425q-2.4 0-2.4 2.4z" clip-path="url(#a)" fill="#fff" stroke="#fff"/>
<g clip-path="url(#a)">
<g transform="translate(1176.4 816) rotate(90) scale(.08 -.08)">
<use xlink:href="#q"/>
</g>
</g>
<path d="m1195.4 818 1.8747 5.2623q0.80542 2.2608 3.0662 1.4554l7.2935-2.5983q2.2608-0.80542 1.4554-3.0662l-1.8747-5.2623q-0.80542-2.2608-3.0662-1.4554l-7.2935 2.5983q-2.2608 0.80542-1.4554 3.0662z" clip-path="url(#a)" fill="#fff" stroke="#fff"/>
<g clip-path="url(#a)">
<g transform="translate(1199.3 816.64) rotate(70.391) scale(.08 -.08)">
<use xlink:href="#u"/>
</g>
</g>
<path d="m1408.9 691.13 3.4272-3.7158q1.6272-1.7642-0.13702-3.3913l-5.6913-5.2493q-1.7642-1.6272-3.3913 0.13702l-3.4272 3.7158q-1.6272 1.7642 0.13702 3.3913l5.6913 5.2493q1.7642 1.6272 3.3913-0.13702z" clip-path="url(#a)" fill="#fff" stroke="#fff"/>
<g clip-path="url(#a)">
<g transform="translate(1405.9 688.37) rotate(-47.314) scale(.08 -.08)">
<use xlink:href="#q"/>
</g>
</g>
<path d="m1471.2 754.23 0.12289-5.5574q0.053055-2.3994-2.3464-2.4525l-7.7406-0.17116q-2.3994-0.053056-2.4525 2.3464l-0.12289 5.5574q-0.053056 2.3994 2.3464 2.4525l7.7406 0.17116q2.3994 0.053056 2.4525-2.3464z" clip-path="url(#a)" fill="#fff" stroke="#fff"/>
<g clip-path="url(#a)">
<g transform="translate(1467.2 754.14) rotate(-88.733) scale(.08 -.08)">
<use xlink:href="#x"/>
</g>
</g>
<path d="m1482 749.77 0.77323 4.9955q0.36711 2.3718 2.7389 2.0046l7.6514-1.1843q2.3718-0.36711 2.0046-2.7389l-0.77323-4.9955q-0.36711-2.3718-2.7389-2.0046l-7.6514 1.1843q-2.3718 0.36711-2.0046 2.7389z" clip-path="url(#a)" fill="#fff" stroke="#fff"/>
<g clip-path="url(#a)">
<g transform="translate(1486.1 749.15) rotate(81.201) scale(.08 -.08)">
<use xlink:href="#q"/>
</g>
</g>
<path d="m1505.4 750.64 1.7586 5.3022q0.75556 2.278 3.0335 1.5224l7.3488-2.4375q2.278-0.75556 1.5224-3.0335l-1.7586-5.3022q-0.75556-2.278-3.0335-1.5224l-7.3488 2.4375q-2.278 0.75556-1.5224 3.0335z" clip-path="url(#a)" fill="#fff" stroke="#fff"/>
<g clip-path="url(#a)">
<g transform="translate(1509.3 749.36) rotate(71.65) scale(.08 -.08)">
<use xlink:href="#u"/>
</g>
</g>
<path d="m1597.5 933.47v35.285q0 2.4 2.4 2.4h7.7425q2.4 0 2.4-2.4v-35.285q0-2.4-2.4-2.4h-7.7425q-2.4 0-2.4 2.4z" clip-path="url(#a)" fill="#fff" stroke="#fff"/>
<g clip-path="url(#a)">
<g transform="translate(1601.6 933.47) rotate(90) scale(.08 -.08)">
<use xlink:href="#k"/>
<use x="60.818359" xlink:href="#c"/>
<use x="122.341797" xlink:href="#f"/>
<use x="163.439453" xlink:href="#l"/>
<use x="260.851562" xlink:href="#h"/>
<use x="288.634766" xlink:href="#e"/>
<use x="352.013672" xlink:href="#i"/>
<use x="413.292969" xlink:href="#j"/>
</g>
</g>
<path d="m1312.9 823.71 2.3825-4.4584q1.1311-2.1167-0.98559-3.2479l-6.8286-3.6491q-2.1167-1.1311-3.2479 0.98559l-2.3825 4.4584q-1.1311 2.1167 0.98559 3.2479l6.8286 3.6491q2.1167 1.1311 3.2479-0.98559z" clip-path="url(#a)" fill="#fff" stroke="#fff"/>
<g clip-path="url(#a)">
<g transform="translate(1309.3 821.8) rotate(-61.881) scale(.08 -.08)">
<use xlink:href="#q"/>
</g>
</g>
<path d="m1337.9 822.36 0.97482-5.4726q0.42088-2.3628-1.9419-2.7837l-7.6225-1.3578q-2.3628-0.42088-2.7837 1.9419l-0.97482 5.4726q-0.42088 2.3628 1.9419 2.7837l7.6225 1.3578q2.3628 0.42088 2.7837-1.9419z" clip-path="url(#a)" fill="#fff" stroke="#fff"/>
<g clip-path="url(#a)">
<g transform="translate(1333.9 821.65) rotate(-79.9) scale(.08 -.08)">
<use xlink:href="#x"/>
</g>
</g>
<path d="m1349.2 817.14 0.88648 4.9767q0.42088 2.3628 2.7837 1.9419l7.6225-1.3578q2.3628-0.42088 1.9419-2.7837l-0.88648-4.9767q-0.42088-2.3628-2.7837-1.9419l-7.6225 1.3578q-2.3628 0.42088-1.9419 2.7837z" clip-path="url(#a)" fill="#fff" stroke="#fff"/>
<g clip-path="url(#a)">
<g transform="translate(1353.2 816.43) rotate(79.9) scale(.08 -.08)">
<use xlink:href="#q"/>
</g>
</g>
<path d="m1372.6 819.02 2.6328 4.9269q1.1311 2.1167 3.2479 0.98559l6.8286-3.6491q2.1167-1.1311 0.98559-3.2479l-2.6328-4.9269q-1.1311-2.1167-3.2479-0.98559l-6.8286 3.6491q-2.1167 1.1311-0.98559 3.2479z" clip-path="url(#a)" fill="#fff" stroke="#fff"/>
<g clip-path="url(#a)">
<g transform="translate(1376.1 817.1) rotate(61.881) scale(.08 -.08)">
<use xlink:href="#u"/>
</g>
</g>
<path d="m1455.8 933.47v35.285q0 2.4 2.4 2.4h7.7425q2.4 0 2.4-2.4v-35.285q0-2.4-2.4-2.4h-7.7425q-2.4 0-2.4 2.4z" clip-path="url(#a)" fill="#fff" stroke="#fff"/>
<g clip-path="url(#a)">
<g transform="translate(1459.9 933.47) rotate(90) scale(.08 -.08)">
<use xlink:href="#k"/>
<use x="60.818359" xlink:href="#c"/>
<use x="122.341797" xlink:href="#f"/>
<use x="163.439453" xlink:href="#l"/>
<use x="260.851562" xlink:href="#h"/>
<use x="288.634766" xlink:href="#e"/>
<use x="352.013672" xlink:href="#i"/>
<use x="413.292969" xlink:href="#j"/>
</g>
</g>
<path d="m1503 933.47v35.285q0 2.4 2.4 2.4h7.7425q2.4 0 2.4-2.4v-35.285q0-2.4-2.4-2.4h-7.7425q-2.4 0-2.4 2.4z" clip-path="url(#a)" fill="#fff" stroke="#fff"/>
<g clip-path="url(#a)">
<g transform="translate(1507.1 933.47) rotate(90) scale(.08 -.08)">
<use xlink:href="#k"/>
<use x="60.818359" xlink:href="#c"/>
<use x="122.341797" xlink:href="#f"/>
<use x="163.439453" xlink:href="#l"/>
<use x="260.851562" xlink:href="#h"/>
<use x="288.634766" xlink:href="#e"/>
<use x="352.013672" xlink:href="#i"/>
<use x="413.292969" xlink:href="#j"/>
</g>
</g>
<path d="m1550.3 933.47v35.285q0 2.4 2.4 2.4h7.7425q2.4 0 2.4-2.4v-35.285q0-2.4-2.4-2.4h-7.7425q-2.4 0-2.4 2.4z" clip-path="url(#a)" fill="#fff" stroke="#fff"/>
<g clip-path="url(#a)">
<g transform="translate(1554.3 933.47) rotate(90) scale(.08 -.08)">
<use xlink:href="#k"/>
<use x="60.818359" xlink:href="#c"/>
<use x="122.341797" xlink:href="#f"/>
<use x="163.439453" xlink:href="#l"/>
<use x="260.851562" xlink:href="#h"/>
<use x="288.634766" xlink:href="#e"/>
<use x="352.013672" xlink:href="#i"/>
<use x="413.292969" xlink:href="#j"/>
</g>
</g>
<path d="m1266.9 933.47v35.285q0 2.4 2.4 2.4h7.7425q2.4 0 2.4-2.4v-35.285q0-2.4-2.4-2.4h-7.7425q-2.4 0-2.4 2.4z" clip-path="url(#a)" fill="#fff" stroke="#fff"/>
<g clip-path="url(#a)">
<g transform="translate(1270.9 933.47) rotate(90) scale(.08 -.08)">
<use xlink:href="#k"/>
<use x="60.818359" xlink:href="#c"/>
<use x="122.341797" xlink:href="#f"/>
<use x="163.439453" xlink:href="#l"/>
<use x="260.851562" xlink:href="#h"/>
<use x="288.634766" xlink:href="#e"/>
<use x="352.013672" xlink:href="#i"/>
<use x="413.292969" xlink:href="#j"/>
</g>
</g>
<path d="m1314.1 933.47v35.285q0 2.4 2.4 2.4h7.7425q2.4 0 2.4-2.4v-35.285q0-2.4-2.4-2.4h-7.7425q-2.4 0-2.4 2.4z" clip-path="url(#a)" fill="#fff" stroke="#fff"/>
<g clip-path="url(#a)">
<g transform="translate(1318.1 933.47) rotate(90) scale(.08 -.08)">
<use xlink:href="#k"/>
<use x="60.818359" xlink:href="#c"/>
<use x="122.341797" xlink:href="#f"/>
<use x="163.439453" xlink:href="#l"/>
<use x="260.851562" xlink:href="#h"/>
<use x="288.634766" xlink:href="#e"/>
<use x="352.013672" xlink:href="#i"/>
<use x="413.292969" xlink:href="#j"/>
</g>
</g>
<path d="m1361.3 933.47v35.285q0 2.4 2.4 2.4h7.7425q2.4 0 2.4-2.4v-35.285q0-2.4-2.4-2.4h-7.7425q-2.4 0-2.4 2.4z" clip-path="url(#a)" fill="#fff" stroke="#fff"/>
<g clip-path="url(#a)">
<g transform="translate(1365.4 933.47) rotate(90) scale(.08 -.08)">
<use xlink:href="#k"/>
<use x="60.818359" xlink:href="#c"/>
<use x="122.341797" xlink:href="#f"/>
<use x="163.439453" xlink:href="#l"/>
<use x="260.851562" xlink:href="#h"/>
<use x="288.634766" xlink:href="#e"/>
<use x="352.013672" xlink:href="#i"/>
<use x="413.292969" xlink:href="#j"/>
</g>
</g>
<path d="m1408.6 933.47v35.285q0 2.4 2.4 2.4h7.7425q2.4 0 2.4-2.4v-35.285q0-2.4-2.4-2.4h-7.7425q-2.4 0-2.4 2.4z" clip-path="url(#a)" fill="#fff" stroke="#fff"/>
<g clip-path="url(#a)">
<g transform="translate(1412.6 933.47) rotate(90) scale(.08 -.08)">
<use xlink:href="#k"/>
<use x="60.818359" xlink:href="#c"/>
<use x="122.341797" xlink:href="#f"/>
<use x="163.439453" xlink:href="#l"/>
<use x="260.851562" xlink:href="#h"/>
<use x="288.634766" xlink:href="#e"/>
<use x="352.013672" xlink:href="#i"/>
<use x="413.292969" xlink:href="#j"/>
</g>
</g>
<path d="m1125.1 933.47v35.285q0 2.4 2.4 2.4h7.7425q2.4 0 2.4-2.4v-35.285q0-2.4-2.4-2.4h-7.7425q-2.4 0-2.4 2.4z" clip-path="url(#a)" fill="#fff" stroke="#fff"/>
<g clip-path="url(#a)">
<g transform="translate(1129.2 933.47) rotate(90) scale(.08 -.08)">
<use xlink:href="#k"/>
<use x="60.818359" xlink:href="#c"/>
<use x="122.341797" xlink:href="#f"/>
<use x="163.439453" xlink:href="#l"/>
<use x="260.851562" xlink:href="#h"/>
<use x="288.634766" xlink:href="#e"/>
<use x="352.013672" xlink:href="#i"/>
<use x="413.292969" xlink:href="#j"/>
</g>
</g>
<path d="m1172.4 933.47v35.285q0 2.4 2.4 2.4h7.7425q2.4 0 2.4-2.4v-35.285q0-2.4-2.4-2.4h-7.7425q-2.4 0-2.4 2.4z" clip-path="url(#a)" fill="#fff" stroke="#fff"/>
<g clip-path="url(#a)">
<g transform="translate(1176.4 933.47) rotate(90) scale(.08 -.08)">
<use xlink:href="#k"/>
<use x="60.818359" xlink:href="#c"/>
<use x="122.341797" xlink:href="#f"/>
<use x="163.439453" xlink:href="#l"/>
<use x="260.851562" xlink:href="#h"/>
<use x="288.634766" xlink:href="#e"/>
<use x="352.013672" xlink:href="#i"/>
<use x="413.292969" xlink:href="#j"/>
</g>
</g>
<path d="m1219.6 933.47v35.285q0 2.4 2.4 2.4h7.7425q2.4 0 2.4-2.4v-35.285q0-2.4-2.4-2.4h-7.7425q-2.4 0-2.4 2.4z" clip-path="url(#a)" fill="#fff" stroke="#fff"/>
<g clip-path="url(#a)">
<g transform="translate(1223.7 933.47) rotate(90) scale(.08 -.08)">
<use xlink:href="#k"/>
<use x="60.818359" xlink:href="#c"/>
<use x="122.341797" xlink:href="#f"/>
<use x="163.439453" xlink:href="#l"/>
<use x="260.851562" xlink:href="#h"/>
<use x="288.634766" xlink:href="#e"/>
<use x="352.013672" xlink:href="#i"/>
<use x="413.292969" xlink:href="#j"/>
</g>
</g>
<path d="m888.98 933.47v35.285q0 2.4 2.4 2.4h7.7425q2.4 0 2.4-2.4v-35.285q0-2.4-2.4-2.4h-7.7425q-2.4 0-2.4 2.4z" clip-path="url(#a)" fill="#fff" stroke="#fff"/>
<g clip-path="url(#a)">
<g transform="translate(893.04 933.47) rotate(90) scale(.08 -.08)">
<use xlink:href="#k"/>
<use x="60.818359" xlink:href="#c"/>
<use x="122.341797" xlink:href="#f"/>
<use x="163.439453" xlink:href="#l"/>
<use x="260.851562" xlink:href="#h"/>
<use x="288.634766" xlink:href="#e"/>
<use x="352.013672" xlink:href="#i"/>
<use x="413.292969" xlink:href="#j"/>
</g>
</g>
<path d="m936.21 933.47v35.285q0 2.4 2.4 2.4h7.7425q2.4 0 2.4-2.4v-35.285q0-2.4-2.4-2.4h-7.7425q-2.4 0-2.4 2.4z" clip-path="url(#a)" fill="#fff" stroke="#fff"/>
<g clip-path="url(#a)">
<g transform="translate(940.27 933.47) rotate(90) scale(.08 -.08)">
<use xlink:href="#k"/>
<use x="60.818359" xlink:href="#c"/>
<use x="122.341797" xlink:href="#f"/>
<use x="163.439453" xlink:href="#l"/>
<use x="260.851562" xlink:href="#h"/>
<use x="288.634766" xlink:href="#e"/>
<use x="352.013672" xlink:href="#i"/>
<use x="413.292969" xlink:href="#j"/>
</g>
</g>
<path d="m983.44 933.47v35.285q0 2.4 2.4 2.4h7.7425q2.4 0 2.4-2.4v-35.285q0-2.4-2.4-2.4h-7.7425q-2.4 0-2.4 2.4z" clip-path="url(#a)" fill="#fff" stroke="#fff"/>
<g clip-path="url(#a)">
<g transform="translate(987.51 933.47) rotate(90) scale(.08 -.08)">
<use xlink:href="#k"/>
<use x="60.818359" xlink:href="#c"/>
<use x="122.341797" xlink:href="#f"/>
<use x="163.439453" xlink:href="#l"/>
<use x="260.851562" xlink:href="#h"/>
<use x="288.634766" xlink:href="#e"/>
<use x="352.013672" xlink:href="#i"/>
<use x="413.292969" xlink:href="#j"/>
</g>
</g>
<path d="m169.03 688.47 0.6366-5.4353q0.27918-2.3837-2.1045-2.6629l-7.6899-0.90066q-2.3837-0.27918-2.6629 2.1045l-0.6366 5.4353q-0.27918 2.3837 2.1045 2.6629l7.6899 0.90066q2.3837 0.27918 2.6629-2.1045z" clip-path="url(#a)" fill="#fff" stroke="#fff"/>
<g clip-path="url(#a)">
<g transform="translate(164.99 687.99) rotate(-83.32) scale(.08 -.08)">
<use xlink:href="#r"/>
</g>
</g>
<path d="m172.46 749.27 0.28394 4.8154q0.14127 2.3958 2.5371 2.2546l7.7291-0.45575q2.3958-0.14127 2.2546-2.5371l-0.28394-4.8154q-0.14127-2.3958-2.5371-2.2546l-7.7291 0.45575q-2.3958 0.14127-2.2546 2.5371z" clip-path="url(#a)" fill="#fff" stroke="#fff"/>
<g clip-path="url(#a)">
<g transform="translate(176.52 749.04) rotate(86.625) scale(.08 -.08)">
<use xlink:href="#y"/>
</g>
</g>
<path d="m274.93 933.47v35.285q0 2.4 2.4 2.4h7.7425q2.4 0 2.4-2.4v-35.285q0-2.4-2.4-2.4h-7.7425q-2.4 0-2.4 2.4z" clip-path="url(#a)" fill="#fff" stroke="#fff"/>
<g clip-path="url(#a)">
<g transform="translate(279 933.47) rotate(90) scale(.08 -.08)">
<use xlink:href="#k"/>
<use x="60.818359" xlink:href="#c"/>
<use x="122.341797" xlink:href="#f"/>
<use x="163.439453" xlink:href="#l"/>
<use x="260.851562" xlink:href="#h"/>
<use x="288.634766" xlink:href="#e"/>
<use x="352.013672" xlink:href="#i"/>
<use x="413.292969" xlink:href="#j"/>
</g>
</g>
<path d="m510.32 688.27 3.9113 3.2023q1.857 1.5204 3.3774-0.33663l4.9048-5.9908q1.5204-1.857-0.33663-3.3774l-3.9113-3.2023q-1.857-1.5204-3.3774 0.33663l-4.9048 5.9908q-1.5204 1.857 0.33663 3.3774z" clip-path="url(#a)" fill="#fff" stroke="#fff"/>
<g clip-path="url(#a)">
<g transform="translate(512.9 685.13) rotate(39.308) scale(.08 -.08)">
<use xlink:href="#q"/>
</g>
</g>
<path d="m386.2 755.97 1.8608-4.7q0.88347-2.2315-1.348-3.1149l-7.1988-2.8501q-2.2315-0.88347-3.1149 1.348l-1.8608 4.7q-0.88347 2.2315 1.348 3.1149l7.1988 2.8501q2.2315 0.88347 3.1149-1.348z" clip-path="url(#a)" fill="#fff" stroke="#fff"/>
<g clip-path="url(#a)">
<g transform="translate(382.42 754.48) rotate(-68.401) scale(.08 -.08)">
<use xlink:href="#q"/>
</g>
</g>
<path d="m410.44 755.38 1.1951-5.4569q0.51346-2.3444-1.831-2.8579l-7.5632-1.6565q-2.3444-0.51346-2.8579 1.831l-1.1951 5.4569q-0.51346 2.3444 1.831 2.8579l7.5632 1.6565q2.3444 0.51346 2.8579-1.831z" clip-path="url(#a)" fill="#fff" stroke="#fff"/>
<g clip-path="url(#a)">
<g transform="translate(406.47 754.51) rotate(-77.646) scale(.08 -.08)">
<use xlink:href="#u"/>
</g>
</g>
<path d="m416.63 933.47v35.285q0 2.4 2.4 2.4h7.7425q2.4 0 2.4-2.4v-35.285q0-2.4-2.4-2.4h-7.7425q-2.4 0-2.4 2.4z" clip-path="url(#a)" fill="#fff" stroke="#fff"/>
<g clip-path="url(#a)">
<g transform="translate(420.7 933.47) rotate(90) scale(.08 -.08)">
<use xlink:href="#k"/>
<use x="60.818359" xlink:href="#c"/>
<use x="122.341797" xlink:href="#f"/>
<use x="163.439453" xlink:href="#l"/>
<use x="260.851562" xlink:href="#h"/>
<use x="288.634766" xlink:href="#e"/>
<use x="352.013672" xlink:href="#i"/>
<use x="413.292969" xlink:href="#j"/>
</g>
</g>
<path d="m561.76 824.17 2.8973-4.744q1.2509-2.0482-0.79733-3.2991l-6.6077-4.0354q-2.0482-1.2509-3.2991 0.79733l-2.8973 4.744q-1.2509 2.0482 0.79734 3.2991l6.6077 4.0354q2.0482 1.2509 3.2991-0.79734z" clip-path="url(#a)" fill="#fff" stroke="#fff"/>
<g clip-path="url(#a)">
<g transform="translate(558.3 822.05) rotate(-58.587) scale(.08 -.08)">
<use xlink:href="#x"/>
</g>
</g>
<path d="m586.8 823.06 1.5191-5.9698q0.59186-2.3259-1.734-2.9177l-7.5034-1.9094q-2.3259-0.59186-2.9177 1.734l-1.5191 5.9698q-0.59186 2.3259 1.734 2.9177l7.5034 1.9094q2.3259 0.59186 2.9177-1.734z" clip-path="url(#a)" fill="#fff" stroke="#fff"/>
<g clip-path="url(#a)">
<g transform="translate(582.86 822.06) rotate(-75.723) scale(.08 -.08)">
<use xlink:href="#ah"/>
</g>
</g>
<path d="m598.54 816.1 0.62378 6.1283q0.24303 2.3877 2.6307 2.1446l7.7027-0.78403q2.3877-0.24303 2.1446-2.6307l-0.62378-6.1283q-0.24303-2.3877-2.6307-2.1446l-7.7027 0.78403q-2.3877 0.24303-2.1446 2.6307z" clip-path="url(#a)" fill="#fff" stroke="#fff"/>
<g clip-path="url(#a)">
<g transform="translate(602.59 815.69) rotate(84.188) scale(.08 -.08)">
<use xlink:href="#ah"/>
</g>
</g>
<path d="m622.05 819.05 1.9161 4.1833q0.99944 2.182 3.1814 1.1826l7.0392-3.2242q2.182-0.99944 1.1826-3.1814l-1.9161-4.1833q-0.99944-2.182-3.1814-1.1826l-7.0392 3.2242q-2.182 0.99944-1.1826 3.1814z" clip-path="url(#a)" fill="#fff" stroke="#fff"/>
<g clip-path="url(#a)">
<g transform="translate(625.75 817.36) rotate(65.39) scale(.08 -.08)">
<use xlink:href="#al"/>
</g>
</g>
<path d="m645.94 820.62 3.0459 3.7405q1.5154 1.861 3.3765 0.34561l6.0038-4.8888q1.861-1.5154 0.34561-3.3765l-3.0459-3.7405q-1.5154-1.861-3.3765-0.3456l-6.0038 4.8888q-1.861 1.5154-0.34561 3.3765z" clip-path="url(#a)" fill="#fff" stroke="#fff"/>
<g clip-path="url(#a)">
<g transform="translate(649.09 818.05) rotate(50.844) scale(.08 -.08)">
<use xlink:href="#y"/>
</g>
</g>
<path d="m669.53 821.3 4.6836 4.0012q1.8248 1.5589 3.3837-0.26587l5.0291-5.8868q1.5589-1.8248-0.26587-3.3837l-4.6836-4.0012q-1.8248-1.5589-3.3837 0.26587l-5.0291 5.8868q-1.5589 1.8248 0.26587 3.3837z" clip-path="url(#a)" fill="#fff" stroke="#fff"/>
<g clip-path="url(#a)">
<g transform="translate(672.17 818.21) rotate(40.507) scale(.08 -.08)">
<use xlink:href="#ah"/>
</g>
</g>
<path d="m487.87 825.32 4.7021-2.7997q2.0621-1.2278 0.8343-3.29l-3.9611-6.6525q-1.2278-2.0621-3.29-0.8343l-4.7021 2.7997q-2.0621 1.2278-0.8343 3.29l3.9611 6.6525q1.2278 2.0621 3.29 0.8343z" clip-path="url(#a)" fill="#fff" stroke="#fff"/>
<g clip-path="url(#a)">
<g transform="translate(485.79 821.82) rotate(-30.77) scale(.08 -.08)">
<use xlink:href="#r"/>
</g>
</g>
<path d="m511.1 933.47v35.285q0 2.4 2.4 2.4h7.7425q2.4 0 2.4-2.4v-35.285q0-2.4-2.4-2.4h-7.7425q-2.4 0-2.4 2.4z" clip-path="url(#a)" fill="#fff" stroke="#fff"/>
<g clip-path="url(#a)">
<g transform="translate(515.17 933.47) rotate(90) scale(.08 -.08)">
<use xlink:href="#k"/>
<use x="60.818359" xlink:href="#c"/>
<use x="122.341797" xlink:href="#f"/>
<use x="163.439453" xlink:href="#l"/>
<use x="260.851562" xlink:href="#h"/>
<use x="288.634766" xlink:href="#e"/>
<use x="352.013672" xlink:href="#i"/>
<use x="413.292969" xlink:href="#j"/>
</g>
</g>
<path d="m558.34 933.47v35.285q0 2.4 2.4 2.4h7.7425q2.4 0 2.4-2.4v-35.285q0-2.4-2.4-2.4h-7.7425q-2.4 0-2.4 2.4z" clip-path="url(#a)" fill="#fff" stroke="#fff"/>
<g clip-path="url(#a)">
<g transform="translate(562.4 933.47) rotate(90) scale(.08 -.08)">
<use xlink:href="#k"/>
<use x="60.818359" xlink:href="#c"/>
<use x="122.341797" xlink:href="#f"/>
<use x="163.439453" xlink:href="#l"/>
<use x="260.851562" xlink:href="#h"/>
<use x="288.634766" xlink:href="#e"/>
<use x="352.013672" xlink:href="#i"/>
<use x="413.292969" xlink:href="#j"/>
</g>
</g>
<path d="m605.57 933.47v35.285q0 2.4 2.4 2.4h7.7425q2.4 0 2.4-2.4v-35.285q0-2.4-2.4-2.4h-7.7425q-2.4 0-2.4 2.4z" clip-path="url(#a)" fill="#fff" stroke="#fff"/>
<g clip-path="url(#a)">
<g transform="translate(609.64 933.47) rotate(90) scale(.08 -.08)">
<use xlink:href="#k"/>
<use x="60.818359" xlink:href="#c"/>
<use x="122.341797" xlink:href="#f"/>
<use x="163.439453" xlink:href="#l"/>
<use x="260.851562" xlink:href="#h"/>
<use x="288.634766" xlink:href="#e"/>
<use x="352.013672" xlink:href="#i"/>
<use x="413.292969" xlink:href="#j"/>
</g>
</g>
<path d="m652.81 933.47v35.285q0 2.4 2.4 2.4h7.7425q2.4 0 2.4-2.4v-35.285q0-2.4-2.4-2.4h-7.7425q-2.4 0-2.4 2.4z" clip-path="url(#a)" fill="#fff" stroke="#fff"/>
<g clip-path="url(#a)">
<g transform="translate(656.87 933.47) rotate(90) scale(.08 -.08)">
<use xlink:href="#k"/>
<use x="60.818359" xlink:href="#c"/>
<use x="122.341797" xlink:href="#f"/>
<use x="163.439453" xlink:href="#l"/>
<use x="260.851562" xlink:href="#h"/>
<use x="288.634766" xlink:href="#e"/>
<use x="352.013672" xlink:href="#i"/>
<use x="413.292969" xlink:href="#j"/>
</g>
</g>
<path d="m700.04 933.47v35.285q0 2.4 2.4 2.4h7.7425q2.4 0 2.4-2.4v-35.285q0-2.4-2.4-2.4h-7.7425q-2.4 0-2.4 2.4z" clip-path="url(#a)" fill="#fff" stroke="#fff"/>
<g clip-path="url(#a)">
<g transform="translate(704.1 933.47) rotate(90) scale(.08 -.08)">
<use xlink:href="#k"/>
<use x="60.818359" xlink:href="#c"/>
<use x="122.341797" xlink:href="#f"/>
<use x="163.439453" xlink:href="#l"/>
<use x="260.851562" xlink:href="#h"/>
<use x="288.634766" xlink:href="#e"/>
<use x="352.013672" xlink:href="#i"/>
<use x="413.292969" xlink:href="#j"/>
</g>
</g>
<path d="m747.27 933.47v35.285q0 2.4 2.4 2.4h7.7425q2.4 0 2.4-2.4v-35.285q0-2.4-2.4-2.4h-7.7425q-2.4 0-2.4 2.4z" clip-path="url(#a)" fill="#fff" stroke="#fff"/>
<g clip-path="url(#a)">
<g transform="translate(751.34 933.47) rotate(90) scale(.08 -.08)">
<use xlink:href="#k"/>
<use x="60.818359" xlink:href="#c"/>
<use x="122.341797" xlink:href="#f"/>
<use x="163.439453" xlink:href="#l"/>
<use x="260.851562" xlink:href="#h"/>
<use x="288.634766" xlink:href="#e"/>
<use x="352.013672" xlink:href="#i"/>
<use x="413.292969" xlink:href="#j"/>
</g>
</g>
<path d="m322.17 933.47v35.285q0 2.4 2.4 2.4h7.7425q2.4 0 2.4-2.4v-35.285q0-2.4-2.4-2.4h-7.7425q-2.4 0-2.4 2.4z" clip-path="url(#a)" fill="#fff" stroke="#fff"/>
<g clip-path="url(#a)">
<g transform="translate(326.23 933.47) rotate(90) scale(.08 -.08)">
<use xlink:href="#k"/>
<use x="60.818359" xlink:href="#c"/>
<use x="122.341797" xlink:href="#f"/>
<use x="163.439453" xlink:href="#l"/>
<use x="260.851562" xlink:href="#h"/>
<use x="288.634766" xlink:href="#e"/>
<use x="352.013672" xlink:href="#i"/>
<use x="413.292969" xlink:href="#j"/>
</g>
</g>
<path d="m369.4 933.47v35.285q0 2.4 2.4 2.4h7.7425q2.4 0 2.4-2.4v-35.285q0-2.4-2.4-2.4h-7.7425q-2.4 0-2.4 2.4z" clip-path="url(#a)" fill="#fff" stroke="#fff"/>
<g clip-path="url(#a)">
<g transform="translate(373.46 933.47) rotate(90) scale(.08 -.08)">
<use xlink:href="#k"/>
<use x="60.818359" xlink:href="#c"/>
<use x="122.341797" xlink:href="#f"/>
<use x="163.439453" xlink:href="#l"/>
<use x="260.851562" xlink:href="#h"/>
<use x="288.634766" xlink:href="#e"/>
<use x="352.013672" xlink:href="#i"/>
<use x="413.292969" xlink:href="#j"/>
</g>
</g>
<path d="m128.23 823.73 2.385-5.0211q1.0297-2.1679-1.1381-3.1976l-6.9936-3.322q-2.1679-1.0297-3.1976 1.1381l-2.385 5.0211q-1.0297 2.1679 1.1381 3.1976l6.9936 3.322q2.1679 1.0297 3.1976-1.1381z" clip-path="url(#a)" fill="#fff" stroke="#fff"/>
<g clip-path="url(#a)">
<g transform="translate(124.56 821.99) rotate(-64.592) scale(.08 -.08)">
<use xlink:href="#x"/>
</g>
</g>
<path d="m153.3 821.78 0.5961-5.0197q0.28302-2.3833-2.1002-2.6663l-7.6885-0.91302q-2.3833-0.28301-2.6663 2.1002l-0.5961 5.0197q-0.28301 2.3833 2.1002 2.6663l7.6885 0.91302q2.3833 0.28301 2.6663-2.1002z" clip-path="url(#a)" fill="#fff" stroke="#fff"/>
<g clip-path="url(#a)">
<g transform="translate(149.27 821.3) rotate(-83.228) scale(.08 -.08)">
<use xlink:href="#q"/>
</g>
</g>
<path d="m187.79 819.33 2.852 4.8034q1.2253 2.0636 3.2889 0.83834l6.6574-3.9529q2.0636-1.2253 0.83834-3.2889l-2.852-4.8034q-1.2253-2.0636-3.2889-0.83834l-6.6574 3.9529q-2.0636 1.2253-0.83834 3.2889z" clip-path="url(#a)" fill="#fff" stroke="#fff"/>
<g clip-path="url(#a)">
<g transform="translate(191.28 817.25) rotate(59.3) scale(.08 -.08)">
<use xlink:href="#u"/>
</g>
</g>
<path d="m180.46 933.47v35.285q0 2.4 2.4 2.4h7.7425q2.4 0 2.4-2.4v-35.285q0-2.4-2.4-2.4h-7.7425q-2.4 0-2.4 2.4z" clip-path="url(#a)" fill="#fff" stroke="#fff"/>
<g clip-path="url(#a)">
<g transform="translate(184.53 933.47) rotate(90) scale(.08 -.08)">
<use xlink:href="#k"/>
<use x="60.818359" xlink:href="#c"/>
<use x="122.341797" xlink:href="#f"/>
<use x="163.439453" xlink:href="#l"/>
<use x="260.851562" xlink:href="#h"/>
<use x="288.634766" xlink:href="#e"/>
<use x="352.013672" xlink:href="#i"/>
<use x="413.292969" xlink:href="#j"/>
</g>
</g>
<path d="m85.995 933.47v35.285q0 2.4 2.4 2.4h7.7425q2.4 0 2.4-2.4v-35.285q0-2.4-2.4-2.4h-7.7425q-2.4 0-2.4 2.4z" clip-path="url(#a)" fill="#fff" stroke="#fff"/>
<g clip-path="url(#a)">
<g transform="translate(90.059 933.47) rotate(90) scale(.08 -.08)">
<use xlink:href="#k"/>
<use x="60.818359" xlink:href="#c"/>
<use x="122.341797" xlink:href="#f"/>
<use x="163.439453" xlink:href="#l"/>
<use x="260.851562" xlink:href="#h"/>
<use x="288.634766" xlink:href="#e"/>
<use x="352.013672" xlink:href="#i"/>
<use x="413.292969" xlink:href="#j"/>
</g>
</g>
<path d="m133.23 933.47v35.285q0 2.4 2.4 2.4h7.7425q2.4 0 2.4-2.4v-35.285q0-2.4-2.4-2.4h-7.7425q-2.4 0-2.4 2.4z" clip-path="url(#a)" fill="#fff" stroke="#fff"/>
<g clip-path="url(#a)">
<g transform="translate(137.29 933.47) rotate(90) scale(.08 -.08)">
<use xlink:href="#k"/>
<use x="60.818359" xlink:href="#c"/>
<use x="122.341797" xlink:href="#f"/>
<use x="163.439453" xlink:href="#l"/>
<use x="260.851562" xlink:href="#h"/>
<use x="288.634766" xlink:href="#e"/>
<use x="352.013672" xlink:href="#i"/>
<use x="413.292969" xlink:href="#j"/>
</g>
</g>
<path d="m227.7 933.47v35.285q0 2.4 2.4 2.4h7.7425q2.4 0 2.4-2.4v-35.285q0-2.4-2.4-2.4h-7.7425q-2.4 0-2.4 2.4z" clip-path="url(#a)" fill="#fff" stroke="#fff"/>
<g clip-path="url(#a)">
<g transform="translate(231.76 933.47) rotate(90) scale(.08 -.08)">
<use xlink:href="#k"/>
<use x="60.818359" xlink:href="#c"/>
<use x="122.341797" xlink:href="#f"/>
<use x="163.439453" xlink:href="#l"/>
<use x="260.851562" xlink:href="#h"/>
<use x="288.634766" xlink:href="#e"/>
<use x="352.013672" xlink:href="#i"/>
<use x="413.292969" xlink:href="#j"/>
</g>
</g>
<path d="m463.87 933.47v35.285q0 2.4 2.4 2.4h7.7425q2.4 0 2.4-2.4v-35.285q0-2.4-2.4-2.4h-7.7425q-2.4 0-2.4 2.4z" clip-path="url(#a)" fill="#fff" stroke="#fff"/>
<g clip-path="url(#a)">
<g transform="translate(467.93 933.47) rotate(90) scale(.08 -.08)">
<use xlink:href="#k"/>
<use x="60.818359" xlink:href="#c"/>
<use x="122.341797" xlink:href="#f"/>
<use x="163.439453" xlink:href="#l"/>
<use x="260.851562" xlink:href="#h"/>
<use x="288.634766" xlink:href="#e"/>
<use x="352.013672" xlink:href="#i"/>
<use x="413.292969" xlink:href="#j"/>
</g>
</g>
<path d="m794.51 933.47v35.285q0 2.4 2.4 2.4h7.7425q2.4 0 2.4-2.4v-35.285q0-2.4-2.4-2.4h-7.7425q-2.4 0-2.4 2.4z" clip-path="url(#a)" fill="#fff" stroke="#fff"/>
<g clip-path="url(#a)">
<g transform="translate(798.57 933.47) rotate(90) scale(.08 -.08)">
<use xlink:href="#k"/>
<use x="60.818359" xlink:href="#c"/>
<use x="122.341797" xlink:href="#f"/>
<use x="163.439453" xlink:href="#l"/>
<use x="260.851562" xlink:href="#h"/>
<use x="288.634766" xlink:href="#e"/>
<use x="352.013672" xlink:href="#i"/>
<use x="413.292969" xlink:href="#j"/>
</g>
</g>
<path d="m1030.7 933.47v35.285q0 2.4 2.4 2.4h7.7425q2.4 0 2.4-2.4v-35.285q0-2.4-2.4-2.4h-7.7425q-2.4 0-2.4 2.4z" clip-path="url(#a)" fill="#fff" stroke="#fff"/>
<g clip-path="url(#a)">
<g transform="translate(1034.7 933.47) rotate(90) scale(.08 -.08)">
<use xlink:href="#k"/>
<use x="60.818359" xlink:href="#c"/>
<use x="122.341797" xlink:href="#f"/>
<use x="163.439453" xlink:href="#l"/>
<use x="260.851562" xlink:href="#h"/>
<use x="288.634766" xlink:href="#e"/>
<use x="352.013672" xlink:href="#i"/>
<use x="413.292969" xlink:href="#j"/>
</g>
</g>
<path d="m1644.7 933.47v35.285q0 2.4 2.4 2.4h7.7425q2.4 0 2.4-2.4v-35.285q0-2.4-2.4-2.4h-7.7425q-2.4 0-2.4 2.4z" clip-path="url(#a)" fill="#fff" stroke="#fff"/>
<g clip-path="url(#a)">
<g transform="translate(1648.8 933.47) rotate(90) scale(.08 -.08)">
<use xlink:href="#k"/>
<use x="60.818359" xlink:href="#c"/>
<use x="122.341797" xlink:href="#f"/>
<use x="163.439453" xlink:href="#l"/>
<use x="260.851562" xlink:href="#h"/>
<use x="288.634766" xlink:href="#e"/>
<use x="352.013672" xlink:href="#i"/>
<use x="413.292969" xlink:href="#j"/>
</g>
</g>
<path d="m1928.1 933.47v35.285q0 2.4 2.4 2.4h7.7425q2.4 0 2.4-2.4v-35.285q0-2.4-2.4-2.4h-7.7425q-2.4 0-2.4 2.4z" clip-path="url(#a)" fill="#fff" stroke="#fff"/>
<g clip-path="url(#a)">
<g transform="translate(1932.2 933.47) rotate(90) scale(.08 -.08)">
<use xlink:href="#k"/>
<use x="60.818359" xlink:href="#c"/>
<use x="122.341797" xlink:href="#f"/>
<use x="163.439453" xlink:href="#l"/>
<use x="260.851562" xlink:href="#h"/>
<use x="288.634766" xlink:href="#e"/>
<use x="352.013672" xlink:href="#i"/>
<use x="413.292969" xlink:href="#j"/>
</g>
</g>
<defs>
<path id="b" d="m0 8.6603c2.2967 0 4.4997-0.9125 6.1237-2.5365 1.624-1.624 2.5365-3.827 2.5365-6.1237s-0.9125-4.4997-2.5365-6.1237c-1.624-1.624-3.827-2.5365-6.1237-2.5365s-4.4997 0.9125-6.1237 2.5365c-1.624 1.624-2.5365 3.827-2.5365 6.1237s0.9125 4.4997 2.5365 6.1237c1.624 1.624 3.827 2.5365 6.1237 2.5365z"/>
</defs>
<g clip-path="url(#a)">
<use x="92.266536" y="1017.406765" fill="#ffffff" stroke="#ffffff" xlink:href="#b"/>
</g>
<g clip-path="url(#a)">
<use x="139.500731" y="1017.406765" fill="#ffffff" stroke="#ffffff" xlink:href="#b"/>
</g>
<g clip-path="url(#a)">
<use x="186.734926" y="1017.406765" fill="#ffffff" stroke="#ffffff" xlink:href="#b"/>
</g>
<g clip-path="url(#a)">
<use x="233.96912" y="1017.406765" fill="#ffffff" stroke="#ffffff" xlink:href="#b"/>
</g>
<g clip-path="url(#a)">
<use x="281.203315" y="1017.406765" fill="#ffffff" stroke="#ffffff" xlink:href="#b"/>
</g>
<g clip-path="url(#a)">
<use x="328.43751" y="1017.406765" fill="#ffffff" stroke="#ffffff" xlink:href="#b"/>
</g>
<g clip-path="url(#a)">
<use x="375.671704" y="1017.406765" fill="#ffffff" stroke="#ffffff" xlink:href="#b"/>
</g>
<g clip-path="url(#a)">
<use x="422.905899" y="1017.406765" fill="#ffffff" stroke="#ffffff" xlink:href="#b"/>
</g>
<g clip-path="url(#a)">
<use x="470.140094" y="1017.406765" fill="#ffffff" stroke="#ffffff" xlink:href="#b"/>
</g>
<g clip-path="url(#a)">
<use x="517.374289" y="1017.406765" fill="#ffffff" stroke="#ffffff" xlink:href="#b"/>
</g>
<g clip-path="url(#a)">
<use x="564.608483" y="1017.406765" fill="#ffffff" stroke="#ffffff" xlink:href="#b"/>
</g>
<g clip-path="url(#a)">
<use x="611.842678" y="1017.406765" fill="#ffffff" stroke="#ffffff" xlink:href="#b"/>
</g>
<g clip-path="url(#a)">
<use x="659.076873" y="1017.406765" fill="#ffffff" stroke="#ffffff" xlink:href="#b"/>
</g>
<g clip-path="url(#a)">
<use x="706.311068" y="1017.406765" fill="#ffffff" stroke="#ffffff" xlink:href="#b"/>
</g>
<g clip-path="url(#a)">
<use x="753.545262" y="1017.406765" fill="#ffffff" stroke="#ffffff" xlink:href="#b"/>
</g>
<g clip-path="url(#a)">
<use x="800.779457" y="1017.406765" fill="#ffffff" stroke="#ffffff" xlink:href="#b"/>
</g>
<g clip-path="url(#a)">
<use x="848.013652" y="1017.406765" fill="#ffffff" stroke="#ffffff" xlink:href="#b"/>
</g>
<g clip-path="url(#a)">
<use x="895.247847" y="1017.406765" fill="#ffffff" stroke="#ffffff" xlink:href="#b"/>
</g>
<g clip-path="url(#a)">
<use x="942.482041" y="1017.406765" fill="#ffffff" stroke="#ffffff" xlink:href="#b"/>
</g>
<g clip-path="url(#a)">
<use x="989.716236" y="1017.406765" fill="#ffffff" stroke="#ffffff" xlink:href="#b"/>
</g>
<g clip-path="url(#a)">
<use x="1036.950431" y="1017.406765" fill="#ffffff" stroke="#ffffff" xlink:href="#b"/>
</g>
<g clip-path="url(#a)">
<use x="1084.184625" y="1017.406765" fill="#ffffff" stroke="#ffffff" xlink:href="#b"/>
</g>
<g clip-path="url(#a)">
<use x="1131.41882" y="1017.406765" fill="#ffffff" stroke="#ffffff" xlink:href="#b"/>
</g>
<g clip-path="url(#a)">
<use x="1178.653015" y="1017.406765" fill="#ffffff" stroke="#ffffff" xlink:href="#b"/>
</g>
<g clip-path="url(#a)">
<use x="1225.88721" y="1017.406765" fill="#ffffff" stroke="#ffffff" xlink:href="#b"/>
</g>
<g clip-path="url(#a)">
<use x="1273.121404" y="1017.406765" fill="#ffffff" stroke="#ffffff" xlink:href="#b"/>
</g>
<g clip-path="url(#a)">
<use x="1320.355599" y="1017.406765" fill="#ffffff" stroke="#ffffff" xlink:href="#b"/>
</g>
<g clip-path="url(#a)">
<use x="1367.589794" y="1017.406765" fill="#ffffff" stroke="#ffffff" xlink:href="#b"/>
</g>
<g clip-path="url(#a)">
<use x="1414.823989" y="1017.406765" fill="#ffffff" stroke="#ffffff" xlink:href="#b"/>
</g>
<g clip-path="url(#a)">
<use x="1462.058183" y="1017.406765" fill="#ffffff" stroke="#ffffff" xlink:href="#b"/>
</g>
<g clip-path="url(#a)">
<use x="1509.292378" y="1017.406765" fill="#ffffff" stroke="#ffffff" xlink:href="#b"/>
</g>
<g clip-path="url(#a)">
<use x="1556.526573" y="1017.406765" fill="#ffffff" stroke="#ffffff" xlink:href="#b"/>
</g>
<g clip-path="url(#a)">
<use x="1603.760767" y="1017.406765" fill="#ffffff" stroke="#ffffff" xlink:href="#b"/>
</g>
<g clip-path="url(#a)">
<use x="1650.994962" y="1017.406765" fill="#ffffff" stroke="#ffffff" xlink:href="#b"/>
</g>
<g clip-path="url(#a)">
<use x="1698.229157" y="1017.406765" fill="#ffffff" stroke="#ffffff" xlink:href="#b"/>
</g>
<g clip-path="url(#a)">
<use x="1745.463352" y="1017.406765" fill="#ffffff" stroke="#ffffff" xlink:href="#b"/>
</g>
<g clip-path="url(#a)">
<use x="1792.697546" y="1017.406765" fill="#ffffff" stroke="#ffffff" xlink:href="#b"/>
</g>
<g clip-path="url(#a)">
<use x="1839.931741" y="1017.406765" fill="#ffffff" stroke="#ffffff" xlink:href="#b"/>
</g>
<g clip-path="url(#a)">
<use x="1887.165936" y="1017.406765" fill="#ffffff" stroke="#ffffff" xlink:href="#b"/>
</g>
<g clip-path="url(#a)">
<use x="1934.400131" y="1017.406765" fill="#ffffff" stroke="#ffffff" xlink:href="#b"/>
</g>
<g clip-path="url(#a)">
<use x="921.11138" y="49.259902" fill="#ffffff" stroke="#ffffff" xlink:href="#b"/>
</g>
<g clip-path="url(#a)">
<use x="355.878328" y="480.786004" fill="#ffffff" stroke="#ffffff" xlink:href="#b"/>
</g>
<g clip-path="url(#a)">
<use x="848.013652" y="884.820921" fill="#ffffff" stroke="#ffffff" xlink:href="#b"/>
</g>
<g clip-path="url(#a)">
<use x="1679.774082" y="196.937121" fill="#ffffff" stroke="#ffffff" xlink:href="#b"/>
</g>
<g clip-path="url(#a)">
<use x="1025.850395" y="340.645184" fill="#ffffff" stroke="#ffffff" xlink:href="#b"/>
</g>
<g clip-path="url(#a)">
<use x="1698.229157" y="884.820921" fill="#ffffff" stroke="#ffffff" xlink:href="#b"/>
</g>
<g clip-path="url(#a)">
<use x="1745.463352" y="884.820921" fill="#ffffff" stroke="#ffffff" xlink:href="#b"/>
</g>
<g clip-path="url(#a)">
<use x="1816.314644" y="752.235077" fill="#ffffff" stroke="#ffffff" xlink:href="#b"/>
</g>
<g clip-path="url(#a)">
<use x="1887.165936" y="884.820921" fill="#ffffff" stroke="#ffffff" xlink:href="#b"/>
</g>
<g clip-path="url(#a)">
<use x="1792.697546" y="884.820921" fill="#ffffff" stroke="#ffffff" xlink:href="#b"/>
</g>
<g clip-path="url(#a)">
<use x="1839.931741" y="884.820921" fill="#ffffff" stroke="#ffffff" xlink:href="#b"/>
</g>
<g clip-path="url(#a)">
<use x="1264.85542" y="480.786004" fill="#ffffff" stroke="#ffffff" xlink:href="#b"/>
</g>
<g clip-path="url(#a)">
<use x="1084.184625" y="884.820921" fill="#ffffff" stroke="#ffffff" xlink:href="#b"/>
</g>
<g clip-path="url(#a)">
<use x="1178.653015" y="752.235077" fill="#ffffff" stroke="#ffffff" xlink:href="#b"/>
</g>
<g clip-path="url(#a)">
<use x="1467.962458" y="617.804818" fill="#ffffff" stroke="#ffffff" xlink:href="#b"/>
</g>
<g clip-path="url(#a)">
<use x="1603.760767" y="884.820921" fill="#ffffff" stroke="#ffffff" xlink:href="#b"/>
</g>
<g clip-path="url(#a)">
<use x="1343.972696" y="752.235077" fill="#ffffff" stroke="#ffffff" xlink:href="#b"/>
</g>
<g clip-path="url(#a)">
<use x="1462.058183" y="884.820921" fill="#ffffff" stroke="#ffffff" xlink:href="#b"/>
</g>
<g clip-path="url(#a)">
<use x="1509.292378" y="884.820921" fill="#ffffff" stroke="#ffffff" xlink:href="#b"/>
</g>
<g clip-path="url(#a)">
<use x="1556.526573" y="884.820921" fill="#ffffff" stroke="#ffffff" xlink:href="#b"/>
</g>
<g clip-path="url(#a)">
<use x="1273.121404" y="884.820921" fill="#ffffff" stroke="#ffffff" xlink:href="#b"/>
</g>
<g clip-path="url(#a)">
<use x="1320.355599" y="884.820921" fill="#ffffff" stroke="#ffffff" xlink:href="#b"/>
</g>
<g clip-path="url(#a)">
<use x="1367.589794" y="884.820921" fill="#ffffff" stroke="#ffffff" xlink:href="#b"/>
</g>
<g clip-path="url(#a)">
<use x="1414.823989" y="884.820921" fill="#ffffff" stroke="#ffffff" xlink:href="#b"/>
</g>
<g clip-path="url(#a)">
<use x="1131.41882" y="884.820921" fill="#ffffff" stroke="#ffffff" xlink:href="#b"/>
</g>
<g clip-path="url(#a)">
<use x="1178.653015" y="884.820921" fill="#ffffff" stroke="#ffffff" xlink:href="#b"/>
</g>
<g clip-path="url(#a)">
<use x="1225.88721" y="884.820921" fill="#ffffff" stroke="#ffffff" xlink:href="#b"/>
</g>
<g clip-path="url(#a)">
<use x="895.247847" y="884.820921" fill="#ffffff" stroke="#ffffff" xlink:href="#b"/>
</g>
<g clip-path="url(#a)">
<use x="942.482041" y="884.820921" fill="#ffffff" stroke="#ffffff" xlink:href="#b"/>
</g>
<g clip-path="url(#a)">
<use x="989.716236" y="884.820921" fill="#ffffff" stroke="#ffffff" xlink:href="#b"/>
</g>
<g clip-path="url(#a)">
<use x="170.990194" y="617.804818" fill="#ffffff" stroke="#ffffff" xlink:href="#b"/>
</g>
<g clip-path="url(#a)">
<use x="281.203315" y="884.820921" fill="#ffffff" stroke="#ffffff" xlink:href="#b"/>
</g>
<g clip-path="url(#a)">
<use x="434.152136" y="617.804818" fill="#ffffff" stroke="#ffffff" xlink:href="#b"/>
</g>
<g clip-path="url(#a)">
<use x="422.905899" y="884.820921" fill="#ffffff" stroke="#ffffff" xlink:href="#b"/>
</g>
<g clip-path="url(#a)">
<use x="598.347194" y="752.235077" fill="#ffffff" stroke="#ffffff" xlink:href="#b"/>
</g>
<g clip-path="url(#a)">
<use x="517.374289" y="884.820921" fill="#ffffff" stroke="#ffffff" xlink:href="#b"/>
</g>
<g clip-path="url(#a)">
<use x="564.608483" y="884.820921" fill="#ffffff" stroke="#ffffff" xlink:href="#b"/>
</g>
<g clip-path="url(#a)">
<use x="611.842678" y="884.820921" fill="#ffffff" stroke="#ffffff" xlink:href="#b"/>
</g>
<g clip-path="url(#a)">
<use x="659.076873" y="884.820921" fill="#ffffff" stroke="#ffffff" xlink:href="#b"/>
</g>
<g clip-path="url(#a)">
<use x="706.311068" y="884.820921" fill="#ffffff" stroke="#ffffff" xlink:href="#b"/>
</g>
<g clip-path="url(#a)">
<use x="753.545262" y="884.820921" fill="#ffffff" stroke="#ffffff" xlink:href="#b"/>
</g>
<g clip-path="url(#a)">
<use x="328.43751" y="884.820921" fill="#ffffff" stroke="#ffffff" xlink:href="#b"/>
</g>
<g clip-path="url(#a)">
<use x="375.671704" y="884.820921" fill="#ffffff" stroke="#ffffff" xlink:href="#b"/>
</g>
<g clip-path="url(#a)">
<use x="155.245462" y="752.235077" fill="#ffffff" stroke="#ffffff" xlink:href="#b"/>
</g>
<g clip-path="url(#a)">
<use x="186.734926" y="884.820921" fill="#ffffff" stroke="#ffffff" xlink:href="#b"/>
</g>
<g clip-path="url(#a)">
<use x="92.266536" y="884.820921" fill="#ffffff" stroke="#ffffff" xlink:href="#b"/>
</g>
<g clip-path="url(#a)">
<use x="139.500731" y="884.820921" fill="#ffffff" stroke="#ffffff" xlink:href="#b"/>
</g>
<g clip-path="url(#a)">
<use x="233.96912" y="884.820921" fill="#ffffff" stroke="#ffffff" xlink:href="#b"/>
</g>
<g clip-path="url(#a)">
<use x="470.140094" y="884.820921" fill="#ffffff" stroke="#ffffff" xlink:href="#b"/>
</g>
<g clip-path="url(#a)">
<use x="800.779457" y="884.820921" fill="#ffffff" stroke="#ffffff" xlink:href="#b"/>
</g>
<g clip-path="url(#a)">
<use x="1036.950431" y="884.820921" fill="#ffffff" stroke="#ffffff" xlink:href="#b"/>
</g>
<g clip-path="url(#a)">
<use x="1650.994962" y="884.820921" fill="#ffffff" stroke="#ffffff" xlink:href="#b"/>
</g>
<g clip-path="url(#a)">
<use x="1934.400131" y="884.820921" fill="#ffffff" stroke="#ffffff" xlink:href="#b"/>
</g>
<g clip-path="url(#a)">
<defs>
<path id="ac" d="m8.5 21.578v33.109h8.9844v-32.766q0-7.7656 3.0156-11.656 3.0312-3.875 9.0938-3.875 7.2656 0 11.484 4.6406 4.2344 4.6406 4.2344 12.656v31h8.9844v-54.688h-8.9844v8.4062q-3.2656-4.9844-7.5938-7.4062-4.3125-2.4219-10.031-2.4219-9.4219 0-14.312 5.8594-4.875 5.8594-4.875 17.141z"/>
<path id="ar" d="m37.109 75.984v-7.4844h-8.5938q-4.8281 0-6.7188-1.9531-1.875-1.9531-1.875-7.0312v-4.8281h14.797v-6.9844h-14.797v-47.703h-9.0312v47.703h-8.5938v6.9844h8.5938v3.8125q0 9.125 4.25 13.297 4.25 4.1875 13.469 4.1875z"/>
</defs>
<g transform="translate(83.917 1020.2) scale(.1 -.1)">
<use xlink:href="#r"/>
<use x="68.408203" xlink:href="#ac"/>
<use x="131.787109" xlink:href="#ar"/>
</g>
</g>
<g clip-path="url(#a)">
<g transform="translate(131.87 1020.2) scale(.1 -.1)">
<use xlink:href="#c"/>
<use x="61.523438" xlink:href="#h"/>
<use x="89.306641" xlink:href="#e"/>
</g>
</g>
<g clip-path="url(#a)">
<defs>
<path id="aj" d="m45.406 27.984q0 9.7656-4.0312 15.125-4.0156 5.375-11.297 5.375-7.2188 0-11.25-5.375-4.0312-5.3594-4.0312-15.125 0-9.7188 4.0312-15.094t11.25-5.375q7.2812 0 11.297 5.375 4.0312 5.375 4.0312 15.094zm8.9844-21.203q0-13.953-6.2031-20.766-6.1875-6.8125-18.984-6.8125-4.7344 0-8.9375 0.70312t-8.1562 2.1719v8.7344q3.9531-2.1406 7.8125-3.1562 3.8594-1.0312 7.8594-1.0312 8.8438 0 13.234 4.6094t4.3906 13.938v4.4531q-2.7812-4.8438-7.125-7.2344t-10.406-2.3906q-10.047 0-16.203 7.6562-6.1562 7.6719-6.1562 20.328 0 12.688 6.1562 20.344 6.1562 7.6719 16.203 7.6719 6.0625 0 10.406-2.3906t7.125-7.2188v8.2969h8.9844z"/>
<path id="ag" d="m48.688 27.297q0 9.9062-4.0781 15.547t-11.203 5.6406q-7.1406 0-11.219-5.6406t-4.0781-15.547 4.0781-15.547 11.219-5.6406q7.125 0 11.203 5.6406t4.0781 15.547zm-30.578 19.094q2.8438 4.875 7.1562 7.2344 4.3281 2.375 10.328 2.375 9.9688 0 16.188-7.9062 6.2344-7.9062 6.2344-20.797t-6.2344-20.812q-6.2188-7.9062-16.188-7.9062-6 0-10.328 2.375-4.3125 2.375-7.1562 7.25v-8.2031h-9.0312v75.984h9.0312z"/>
<path id="w" d="m44.281 53.078v-8.5q-3.7969 1.9531-7.9062 2.9219-4.0938 0.98438-8.5 0.98438-6.6875 0-10.031-2.0469t-3.3438-6.1562q0-3.125 2.3906-4.9062t9.625-3.3906l3.0781-0.6875q9.5625-2.0469 13.594-5.7812t4.0312-10.422q0-7.625-6.0312-12.078-6.0312-4.4375-16.578-4.4375-4.3906 0-9.1562 0.85938t-10.031 2.5625v9.2812q4.9844-2.5938 9.8125-3.8906 4.8281-1.2812 9.5781-1.2812 6.3438 0 9.75 2.1719 3.4219 2.1719 3.4219 6.125 0 3.6562-2.4688 5.6094-2.4531 1.9531-10.812 3.7656l-3.125 0.73438q-8.3438 1.75-12.062 5.3906-3.7031 3.6406-3.7031 9.9844 0 7.7188 5.4688 11.906 5.4688 4.2031 15.531 4.2031 4.9688 0 9.3594-0.73438 4.4062-0.71875 8.1094-2.1875z"/>
</defs>
<g transform="translate(159.13 1020.2) scale(.1 -.1)">
<use xlink:href="#aj"/>
<use x="63.476562" xlink:href="#c"/>
<use x="125" xlink:href="#aj"/>
<use x="188.476562" xlink:href="#c"/>
<use x="250" xlink:href="#ag"/>
<use x="313.476562" xlink:href="#c"/>
<use x="375" xlink:href="#e"/>
<use x="438.378906" xlink:href="#c"/>
<use x="499.902344" xlink:href="#w"/>
</g>
</g>
<g clip-path="url(#a)">
<defs>
<path id="as" d="m5.6094 72.906h57.281v-7.5312l-46.094-57.078h47.219v-8.2969h-59.516v7.5156l46.094 57.078h-44.984z"/>
<path id="ak" d="m48.781 52.594v-8.4062q-3.8125 2.1094-7.6406 3.1562t-7.7344 1.0469q-8.75 0-13.594-5.5469-4.8281-5.5312-4.8281-15.547t4.8281-15.562q4.8438-5.5312 13.594-5.5312 3.9062 0 7.7344 1.0469t7.6406 3.1562v-8.3125q-3.7656-1.75-7.7969-2.625-4.0156-0.89062-8.5625-0.89062-12.359 0-19.641 7.7656-7.2656 7.7656-7.2656 20.953 0 13.375 7.3438 21.031 7.3594 7.6719 20.156 7.6719 4.1406 0 8.0938-0.85938 3.9531-0.84375 7.6719-2.5469z"/>
<path id="ad" d="m54.891 33.016v-33.016h-8.9844v32.719q0 7.7656-3.0312 11.609-3.0312 3.8594-9.0781 3.8594-7.2812 0-11.484-4.6406-4.2031-4.625-4.2031-12.641v-30.906h-9.0312v75.984h9.0312v-29.797q3.2344 4.9375 7.5938 7.375 4.375 2.4375 10.094 2.4375 9.4219 0 14.25-5.8281 4.8438-5.8281 4.8438-17.156z"/>
</defs>
<g transform="translate(213.92 1020.2) scale(.1 -.1)">
<use xlink:href="#as"/>
<use x="68.505859" xlink:href="#c"/>
<use x="130.029297" xlink:href="#h"/>
<use x="157.8125" xlink:href="#ak"/>
<use x="212.792969" xlink:href="#ad"/>
<use x="276.171875" xlink:href="#c"/>
<use x="337.695312" xlink:href="#e"/>
</g>
</g>
<g clip-path="url(#a)">
<defs>
<path id="aq" d="m4.2031 54.688h8.9844l11.234-42.672 11.172 42.672h10.594l11.234-42.672 11.188 42.672h8.9844l-14.312-54.688h-10.594l-11.766 44.828-11.812-44.828h-10.609z"/>
<path id="s" d="m45.406 46.391v29.594h8.9844v-75.984h-8.9844v8.2031q-2.8281-4.875-7.1562-7.25-4.3125-2.375-10.375-2.375-9.9062 0-16.141 7.9062-6.2188 7.9219-6.2188 20.812t6.2188 20.797q6.2344 7.9062 16.141 7.9062 6.0625 0 10.375-2.375 4.3281-2.3594 7.1562-7.2344zm-30.609-19.094q0-9.9062 4.0781-15.547t11.203-5.6406 11.219 5.6406q4.1094 5.6406 4.1094 15.547t-4.1094 15.547q-4.0938 5.6406-11.219 5.6406t-11.203-5.6406-4.0781-15.547z"/>
</defs>
<g transform="translate(265.64 1020.2) scale(.1 -.1)">
<use xlink:href="#aq"/>
<use x="81.787109" xlink:href="#ac"/>
<use x="145.166016" xlink:href="#f"/>
<use x="186.263672" xlink:href="#s"/>
<use x="249.740234" xlink:href="#c"/>
</g>
</g>
<g clip-path="url(#a)">
<g transform="translate(320.13 1020.2) scale(.1 -.1)">
<use xlink:href="#s"/>
<use x="63.476562" xlink:href="#c"/>
<use x="125" xlink:href="#f"/>
</g>
</g>
<g clip-path="url(#a)">
<defs>
<path id="ai" d="m9.0781 75.984h9.0312v-44.875l26.812 23.578h11.469l-29-25.578 30.234-29.109h-11.719l-27.797 26.703v-26.703h-9.0312z"/>
</defs>
<g transform="translate(361.06 1020.2) scale(.1 -.1)">
<use xlink:href="#r"/>
<use x="68.408203" xlink:href="#e"/>
<use x="131.787109" xlink:href="#ai"/>
<use x="189.650391" xlink:href="#c"/>
<use x="251.173828" xlink:href="#f"/>
</g>
</g>
<g clip-path="url(#a)">
<g transform="translate(386.78 1020.2) scale(.1 -.1)">
<use xlink:href="#ad"/>
<use x="63.378906" xlink:href="#h"/>
<use x="91.162109" xlink:href="#e"/>
<use x="154.541016" xlink:href="#i"/>
<use x="215.820312" xlink:href="#ag"/>
<use x="279.296875" xlink:href="#aj"/>
<use x="342.773438" xlink:href="#c"/>
<use x="404.296875" xlink:href="#j"/>
<use x="432.080078" xlink:href="#i"/>
<use x="493.359375" xlink:href="#w"/>
<use x="545.458984" xlink:href="#w"/>
<use x="597.558594" xlink:href="#c"/>
<use x="659.082031" xlink:href="#e"/>
</g>
</g>
<g clip-path="url(#a)">
<defs>
<path id="am" d="m11.719 12.406h10.297v-8.4062l-8-15.625h-6.2969l4 15.625z"/>
</defs>
<g transform="translate(468.55 1020.2) scale(.1 -.1)">
<use xlink:href="#am"/>
</g>
</g>
<g clip-path="url(#a)">
<g transform="translate(509.07 1020.2) scale(.1 -.1)">
<use xlink:href="#s"/>
<use x="63.476562" xlink:href="#c"/>
<use x="125" xlink:href="#f"/>
</g>
</g>
<g clip-path="url(#a)">
<defs>
<path id="t" d="m18.312 70.219v-15.531h18.5v-6.9844h-18.5v-29.688q0-6.6875 1.8281-8.5938t7.4531-1.9062h9.2188v-7.5156h-9.2188q-10.406 0-14.359 3.875-3.9531 3.8906-3.9531 14.141v29.688h-6.5938v6.9844h6.5938v15.531z"/>
</defs>
<g transform="translate(552.17 1020.2) scale(.1 -.1)">
<use xlink:href="#e"/>
<use x="63.378906" xlink:href="#h"/>
<use x="91.162109" xlink:href="#ak"/>
<use x="146.142578" xlink:href="#ad"/>
<use x="209.521484" xlink:href="#t"/>
</g>
</g>
<g clip-path="url(#a)">
<defs>
<path id="ax" d="m2.9844 54.688h9.5156l17.094-45.891 17.094 45.891h9.5156l-20.516-54.688h-12.203z"/>
</defs>
<g transform="translate(603.03 1020.2) scale(.1 -.1)">
<use xlink:href="#ax"/>
<use x="59.179688" xlink:href="#h"/>
<use x="86.962891" xlink:href="#c"/>
<use x="148.486328" xlink:href="#j"/>
</g>
</g>
<g clip-path="url(#a)">
<defs>
<path id="aw" d="m5.5156 54.688h42.672v-8.2031l-33.781-39.312h33.781v-7.1719h-43.891v8.2031l33.797 39.312h-32.578z"/>
</defs>
<g transform="translate(653.28 1020.2) scale(.1 -.1)">
<use xlink:href="#aw"/>
<use x="52.490234" xlink:href="#ac"/>
</g>
</g>
<g clip-path="url(#a)">
<g transform="translate(690.01 1020.2) scale(.1 -.1)">
<use xlink:href="#w"/>
<use x="52.099609" xlink:href="#h"/>
<use x="79.882812" xlink:href="#e"/>
<use x="143.261719" xlink:href="#ai"/>
<use x="201.125" xlink:href="#c"/>
<use x="262.648438" xlink:href="#e"/>
</g>
</g>
<g clip-path="url(#a)">
<g transform="translate(740.32 1020.2) scale(.1 -.1)">
<use xlink:href="#ad"/>
<use x="63.378906" xlink:href="#i"/>
<use x="124.658203" xlink:href="#t"/>
<use x="163.867188" xlink:href="#t"/>
<use x="203.076172" xlink:href="#c"/>
</g>
</g>
<g clip-path="url(#a)">
<defs>
<path id="au" d="m11.719 51.703h10.297v-12.391h-10.297zm0-39.297h10.297v-8.4062l-8-15.625h-6.2969l4 15.625z"/>
</defs>
<g transform="translate(799.1 1020.2) scale(.1 -.1)">
<use xlink:href="#au"/>
</g>
</g>
<g clip-path="url(#a)">
<g transform="translate(835.43 1020.2) scale(.1 -.1)">
<use xlink:href="#s"/>
<use x="63.476562" xlink:href="#c"/>
<use x="125" xlink:href="#e"/>
<use x="188.378906" xlink:href="#e"/>
</g>
</g>
<g clip-path="url(#a)">
<g transform="translate(886.94 1020.2) scale(.1 -.1)">
<use xlink:href="#s"/>
<use x="63.476562" xlink:href="#c"/>
<use x="125" xlink:href="#f"/>
</g>
</g>
<g clip-path="url(#a)">
<defs>
<path id="ao" d="m9.8125 72.906h14.703l18.594-49.609 18.703 49.609h14.703v-72.906h-9.625v64.016l-18.797-50h-9.9062l-18.797 50v-64.016h-9.5781z"/>
</defs>
<g transform="translate(924.28 1020.2) scale(.1 -.1)">
<use xlink:href="#ao"/>
<use x="86.279297" xlink:href="#c"/>
<use x="147.802734" xlink:href="#c"/>
<use x="209.326172" xlink:href="#f"/>
<use x="250.408203" xlink:href="#c"/>
<use x="311.931641" xlink:href="#w"/>
</g>
</g>
<g clip-path="url(#a)">
<g transform="translate(974.97 1020.2) scale(.1 -.1)">
<use xlink:href="#aj"/>
<use x="63.476562" xlink:href="#f"/>
<use x="104.589844" xlink:href="#ac"/>
<use x="167.96875" xlink:href="#e"/>
<use x="231.347656" xlink:href="#s"/>
</g>
</g>
<g clip-path="url(#a)">
<g transform="translate(1035.4 1020.2) scale(.1 -.1)">
<use xlink:href="#am"/>
</g>
</g>
<g clip-path="url(#a)">
<g transform="translate(1075.9 1020.2) scale(.1 -.1)">
<use xlink:href="#s"/>
<use x="63.476562" xlink:href="#c"/>
<use x="125" xlink:href="#f"/>
</g>
</g>
<g clip-path="url(#a)">
<g transform="translate(1125.2 1020.2) scale(.1 -.1)">
<use xlink:href="#i"/>
<use x="61.279297" xlink:href="#e"/>
</g>
</g>
<g clip-path="url(#a)">
<g transform="translate(1163.3 1020.2) scale(.1 -.1)">
<use xlink:href="#s"/>
<use x="63.476562" xlink:href="#h"/>
<use x="91.259766" xlink:href="#c"/>
<use x="152.783203" xlink:href="#w"/>
<use x="204.882812" xlink:href="#c"/>
<use x="266.40625" xlink:href="#f"/>
</g>
</g>
<g clip-path="url(#a)">
<g transform="translate(1211.8 1020.2) scale(.1 -.1)">
<use xlink:href="#an"/>
<use x="63.476562" xlink:href="#t"/>
<use x="102.685547" xlink:href="#c"/>
<use x="164.208984" xlink:href="#j"/>
<use x="191.992188" xlink:href="#j"/>
<use x="219.775391" xlink:href="#c"/>
</g>
</g>
<g clip-path="url(#a)">
<g transform="translate(1259.2 1020.2) scale(.1 -.1)">
<use xlink:href="#c"/>
<use x="61.523438" xlink:href="#h"/>
<use x="89.306641" xlink:href="#e"/>
<use x="152.685547" xlink:href="#c"/>
<use x="214.208984" xlink:href="#e"/>
</g>
</g>
<g clip-path="url(#a)">
<g transform="translate(1312 1020.2) scale(.1 -.1)">
<use xlink:href="#s"/>
<use x="63.476562" xlink:href="#c"/>
<use x="125" xlink:href="#f"/>
</g>
</g>
<g clip-path="url(#a)">
<defs>
<path id="av" d="m30.609 48.391q-7.2188 0-11.422-5.6406t-4.2031-15.453 4.1719-15.453q4.1875-5.6406 11.453-5.6406 7.1875 0 11.375 5.6562 4.2031 5.6719 4.2031 15.438 0 9.7188-4.2031 15.406-4.1875 5.6875-11.375 5.6875zm0 7.6094q11.719 0 18.406-7.625 6.7031-7.6094 6.7031-21.078 0-13.422-6.7031-21.078-6.6875-7.6406-18.406-7.6406-11.766 0-18.438 7.6406-6.6562 7.6562-6.6562 21.078 0 13.469 6.6562 21.078 6.6719 7.625 18.438 7.625zm4.6094 19.781h9.9062v-9.8594h-9.9062zm-19.094 0h9.9062v-9.8594h-9.9062z"/>
</defs>
<g transform="translate(1344.6 1020.2) scale(.1 -.1)">
<use xlink:href="#ad"/>
<use x="63.378906" xlink:href="#av"/>
<use x="124.560547" xlink:href="#ak"/>
<use x="179.541016" xlink:href="#ad"/>
<use x="242.919922" xlink:href="#w"/>
<use x="295.019531" xlink:href="#t"/>
<use x="334.228516" xlink:href="#c"/>
<use x="395.751953" xlink:href="#e"/>
</g>
</g>
<g clip-path="url(#a)">
<g transform="translate(1397.5 1020.2) scale(.1 -.1)">
<use xlink:href="#y"/>
<use x="60.287109" xlink:href="#ac"/>
<use x="123.666016" xlink:href="#e"/>
<use x="187.044922" xlink:href="#ai"/>
<use x="244.955078" xlink:href="#t"/>
<use x="284.164062" xlink:href="#c"/>
</g>
</g>
<g clip-path="url(#a)">
<g transform="translate(1453.8 1020.2) scale(.1 -.1)">
<use xlink:href="#s"/>
<use x="63.476562" xlink:href="#c"/>
<use x="125" xlink:href="#f"/>
</g>
</g>
<g clip-path="url(#a)">
<g transform="translate(1493.5 1020.2) scale(.1 -.1)">
<use xlink:href="#y"/>
<use x="60.255859" xlink:href="#c"/>
<use x="121.779297" xlink:href="#f"/>
<use x="162.892578" xlink:href="#j"/>
<use x="190.675781" xlink:href="#c"/>
<use x="252.199219" xlink:href="#e"/>
</g>
</g>
<g clip-path="url(#a)">
<g transform="translate(1544.2 1020.2) scale(.1 -.1)">
<use xlink:href="#ag"/>
<use x="63.476562" xlink:href="#i"/>
<use x="124.755859" xlink:href="#e"/>
<use x="188.134766" xlink:href="#ai"/>
</g>
</g>
<g clip-path="url(#a)">
<g transform="translate(1586.5 1020.2) scale(.1 -.1)">
<use xlink:href="#ag"/>
<use x="63.476562" xlink:href="#h"/>
<use x="91.259766" xlink:href="#j"/>
<use x="119.042969" xlink:href="#s"/>
<use x="182.519531" xlink:href="#c"/>
<use x="244.042969" xlink:href="#t"/>
<use x="283.251953" xlink:href="#c"/>
</g>
</g>
<g clip-path="url(#a)">
<g transform="translate(1649.4 1020.2) scale(.1 -.1)">
<use xlink:href="#am"/>
</g>
</g>
<g clip-path="url(#a)">
<g transform="translate(1689 1020.2) scale(.1 -.1)">
<use xlink:href="#aq"/>
<use x="81.787109" xlink:href="#i"/>
<use x="143.066406" xlink:href="#f"/>
</g>
</g>
<g clip-path="url(#a)">
<g transform="translate(1737.1 1020.2) scale(.1 -.1)">
<use xlink:href="#e"/>
<use x="63.378906" xlink:href="#ac"/>
<use x="126.757812" xlink:href="#f"/>
</g>
</g>
<g clip-path="url(#a)">
<g transform="translate(1785.1 1020.2) scale(.1 -.1)">
<use xlink:href="#c"/>
<use x="61.523438" xlink:href="#h"/>
<use x="89.306641" xlink:href="#e"/>
</g>
</g>
<g clip-path="url(#a)">
<g transform="translate(1825.4 1020.2) scale(.1 -.1)">
<use xlink:href="#ao"/>
<use x="86.279297" xlink:href="#c"/>
<use x="147.802734" xlink:href="#t"/>
<use x="187.011719" xlink:href="#c"/>
<use x="248.535156" xlink:href="#f"/>
</g>
</g>
<g clip-path="url(#a)">
<g transform="translate(1879 1020.2) scale(.1 -.1)">
<use xlink:href="#t"/>
<use x="39.208984" xlink:href="#h"/>
<use x="66.992188" xlink:href="#c"/>
<use x="128.515625" xlink:href="#ar"/>
</g>
</g>
<g clip-path="url(#a)">
<defs>
<path id="g" d="m10.688 12.406h10.312v-12.406h-10.312z"/>
</defs>
<g transform="translate(1932.8 1020.2) scale(.1 -.1)">
<use xlink:href="#g"/>
</g>
</g>
<g clip-path="url(#a)">
<defs>
<path id="d" d="m12.406 8.2969h16.109v55.625l-17.531-3.5156v8.9844l17.438 3.5156h9.8594v-64.609h16.109v-8.2969h-41.984z"/>
</defs>
<g transform="translate(913.16 52.019) scale(.1 -.1)">
<use xlink:href="#d"/>
<use x="63.623047" xlink:href="#g"/>
<use x="95.410156" xlink:href="#d"/>
</g>
</g>
<g clip-path="url(#a)">
<defs>
<path id="m" d="m19.188 8.2969h34.422v-8.2969h-46.281v8.2969q5.6094 5.8125 15.297 15.594 9.7031 9.7969 12.188 12.641 4.7344 5.3125 6.6094 9 1.8906 3.6875 1.8906 7.25 0 5.8125-4.0781 9.4688-4.0781 3.6719-10.625 3.6719-4.6406 0-9.7969-1.6094-5.1406-1.6094-11-4.8906v9.9688q5.9531 2.3906 11.125 3.6094 5.1875 1.2188 9.4844 1.2188 11.328 0 18.062-5.6719 6.7344-5.6562 6.7344-15.125 0-4.5-1.6875-8.5312-1.6719-4.0156-6.125-9.4844-1.2188-1.4219-7.7656-8.1875-6.5312-6.7656-18.453-18.922z"/>
</defs>
<g transform="translate(347.93 483.55) scale(.1 -.1)">
<use xlink:href="#d"/>
<use x="63.623047" xlink:href="#g"/>
<use x="95.410156" xlink:href="#m"/>
</g>
</g>
<g clip-path="url(#a)">
<defs>
<path id="o" d="m37.797 64.312-24.906-38.922h24.906zm-2.5938 8.5938h12.406v-47.516h10.406v-8.2031h-10.406v-17.188h-9.8125v17.188h-32.906v9.5156z"/>
</defs>
<g transform="translate(840.06 887.58) scale(.1 -.1)">
<use xlink:href="#d"/>
<use x="63.623047" xlink:href="#g"/>
<use x="95.410156" xlink:href="#o"/>
</g>
</g>
<g clip-path="url(#a)">
<defs>
<path id="n" d="m10.797 72.906h38.719v-8.3125h-29.688v-17.859q2.1406 0.73438 4.2812 1.0938 2.1562 0.35938 4.3125 0.35938 12.203 0 19.328-6.6875 7.1406-6.6875 7.1406-18.109 0-11.766-7.3281-18.297-7.3281-6.5156-20.656-6.5156-4.5938 0-9.3594 0.78125-4.75 0.78125-9.8281 2.3438v9.9219q4.3906-2.3906 9.0781-3.5625t9.9062-1.1719q8.4531 0 13.375 4.4375 4.9375 4.4375 4.9375 12.062 0 7.6094-4.9375 12.047-4.9219 4.4531-13.375 4.4531-3.9531 0-7.8906-0.875-3.9219-0.875-8.0156-2.7344z"/>
</defs>
<g transform="translate(1671.8 199.7) scale(.1 -.1)">
<use xlink:href="#d"/>
<use x="63.623047" xlink:href="#g"/>
<use x="95.410156" xlink:href="#n"/>
</g>
</g>
<g clip-path="url(#a)">
<defs>
<path id="aa" d="m8.2031 72.906h46.875v-4.2031l-26.469-68.703h-10.297l24.906 64.594h-35.016z"/>
</defs>
<g transform="translate(1017.9 343.4) scale(.1 -.1)">
<use xlink:href="#d"/>
<use x="63.623047" xlink:href="#g"/>
<use x="95.410156" xlink:href="#aa"/>
</g>
</g>
<g clip-path="url(#a)">
<defs>
<path id="z" d="m10.984 1.5156v8.9844q3.7188-1.7656 7.5156-2.6875 3.8125-0.92188 7.4844-0.92188 9.7656 0 14.906 6.5625 5.1562 6.5625 5.8906 19.953-2.8281-4.2031-7.1875-6.4531-4.3438-2.25-9.6094-2.25-10.938 0-17.312 6.6094-6.375 6.625-6.375 18.109 0 11.219 6.6406 18 6.6406 6.7969 17.672 6.7969 12.656 0 19.312-9.7031 6.6719-9.6875 6.6719-28.141 0-17.234-8.1875-27.516-8.1719-10.281-21.984-10.281-3.7188 0-7.5312 0.73438-3.7969 0.73438-7.9062 2.2031zm19.625 30.906q6.6406 0 10.516 4.5312 3.8906 4.5469 3.8906 12.469 0 7.8594-3.8906 12.422-3.875 4.5625-10.516 4.5625t-10.516-4.5625-3.875-12.422q0-7.9219 3.875-12.469 3.875-4.5312 10.516-4.5312z"/>
</defs>
<g transform="translate(1690.3 887.58) scale(.1 -.1)">
<use xlink:href="#d"/>
<use x="63.623047" xlink:href="#g"/>
<use x="95.410156" xlink:href="#z"/>
</g>
</g>
<g clip-path="url(#a)">
<defs>
<path id="ab" d="m31.781 66.406q-7.6094 0-11.453-7.5-3.8281-7.4844-3.8281-22.531 0-14.984 3.8281-22.484 3.8438-7.5 11.453-7.5 7.6719 0 11.5 7.5 3.8438 7.5 3.8438 22.484 0 15.047-3.8438 22.531-3.8281 7.5-11.5 7.5zm0 7.8125q12.266 0 18.734-9.7031 6.4688-9.6875 6.4688-28.141 0-18.406-6.4688-28.109-6.4688-9.6875-18.734-9.6875-12.25 0-18.719 9.6875-6.4688 9.7031-6.4688 28.109 0 18.453 6.4688 28.141 6.4688 9.7031 18.719 9.7031z"/>
</defs>
<g transform="translate(1734.3 887.58) scale(.1 -.1)">
<use xlink:href="#d"/>
<use x="63.623047" xlink:href="#g"/>
<use x="95.410156" xlink:href="#d"/>
<use x="159.033203" xlink:href="#ab"/>
</g>
</g>
<g clip-path="url(#a)">
<g transform="translate(1805.2 754.99) scale(.1 -.1)">
<use xlink:href="#d"/>
<use x="63.623047" xlink:href="#g"/>
<use x="95.410156" xlink:href="#d"/>
<use x="159.033203" xlink:href="#d"/>
</g>
</g>
<g clip-path="url(#a)">
<g transform="translate(1876 887.58) scale(.1 -.1)">
<use xlink:href="#d"/>
<use x="63.623047" xlink:href="#g"/>
<use x="95.410156" xlink:href="#d"/>
<use x="159.033203" xlink:href="#m"/>
</g>
</g>
<g clip-path="url(#a)">
<defs>
<path id="p" d="m40.578 39.312q7.0781-1.5156 11.047-6.3125 3.9844-4.7812 3.9844-11.812 0-10.781-7.4219-16.703-7.4219-5.9062-21.094-5.9062-4.5781 0-9.4375 0.90625t-10.031 2.7188v9.5156q4.0938-2.3906 8.9688-3.6094 4.8906-1.2188 10.219-1.2188 9.2656 0 14.125 3.6562t4.8594 10.641q0 6.4531-4.5156 10.078-4.5156 3.6406-12.562 3.6406h-8.5v8.1094h8.8906q7.2656 0 11.125 2.9062t3.8594 8.375q0 5.6094-3.9844 8.6094-3.9688 3.0156-11.391 3.0156-4.0625 0-8.7031-0.89062-4.6406-0.875-10.203-2.7188v8.7812q5.625 1.5625 10.531 2.3438t9.25 0.78125q11.234 0 17.766-5.1094 6.5469-5.0938 6.5469-13.781 0-6.0625-3.4688-10.234t-9.8594-5.7812z"/>
</defs>
<g transform="translate(1781.6 887.58) scale(.1 -.1)">
<use xlink:href="#d"/>
<use x="63.623047" xlink:href="#g"/>
<use x="95.410156" xlink:href="#d"/>
<use x="159.033203" xlink:href="#p"/>
</g>
</g>
<g clip-path="url(#a)">
<g transform="translate(1828.8 887.58) scale(.1 -.1)">
<use xlink:href="#d"/>
<use x="63.623047" xlink:href="#g"/>
<use x="95.410156" xlink:href="#d"/>
<use x="159.033203" xlink:href="#o"/>
</g>
</g>
<g clip-path="url(#a)">
<g transform="translate(1253.7 483.55) scale(.1 -.1)">
<use xlink:href="#d"/>
<use x="63.623047" xlink:href="#g"/>
<use x="95.410156" xlink:href="#d"/>
<use x="159.033203" xlink:href="#aa"/>
</g>
</g>
<g clip-path="url(#a)">
<defs>
<path id="af" d="m31.781 34.625q-7.0312 0-11.062-3.7656-4.0156-3.7656-4.0156-10.344 0-6.5938 4.0156-10.359 4.0312-3.7656 11.062-3.7656t11.078 3.7812q4.0625 3.7969 4.0625 10.344 0 6.5781-4.0312 10.344-4.0156 3.7656-11.109 3.7656zm-9.8594 4.1875q-6.3438 1.5625-9.8906 5.9062-3.5312 4.3594-3.5312 10.609 0 8.7344 6.2188 13.812 6.2344 5.0781 17.062 5.0781 10.891 0 17.094-5.0781t6.2031-13.812q0-6.25-3.5469-10.609-3.5312-4.3438-9.8281-5.9062 7.125-1.6562 11.094-6.5 3.9844-4.8281 3.9844-11.797 0-10.609-6.4688-16.281-6.4688-5.6562-18.531-5.6562-12.047 0-18.531 5.6562-6.4688 5.6719-6.4688 16.281 0 6.9688 4 11.797 4.0156 4.8438 11.141 6.5zm-3.6094 15.578q0-5.6562 3.5312-8.8281 3.5469-3.1719 9.9375-3.1719 6.3594 0 9.9375 3.1719 3.5938 3.1719 3.5938 8.8281 0 5.6719-3.5938 8.8438-3.5781 3.1719-9.9375 3.1719-6.3906 0-9.9375-3.1719-3.5312-3.1719-3.5312-8.8438z"/>
</defs>
<g transform="translate(1073.1 887.58) scale(.1 -.1)">
<use xlink:href="#d"/>
<use x="63.623047" xlink:href="#g"/>
<use x="95.410156" xlink:href="#d"/>
<use x="159.033203" xlink:href="#af"/>
</g>
</g>
<g clip-path="url(#a)">
<g transform="translate(1167.5 754.99) scale(.1 -.1)">
<use xlink:href="#d"/>
<use x="63.623047" xlink:href="#g"/>
<use x="95.410156" xlink:href="#d"/>
<use x="159.033203" xlink:href="#z"/>
</g>
</g>
<g clip-path="url(#a)">
<g transform="translate(1456.8 620.56) scale(.1 -.1)">
<use xlink:href="#d"/>
<use x="63.623047" xlink:href="#g"/>
<use x="95.410156" xlink:href="#m"/>
<use x="159.033203" xlink:href="#ab"/>
</g>
</g>
<g clip-path="url(#a)">
<g transform="translate(1592.6 887.58) scale(.1 -.1)">
<use xlink:href="#d"/>
<use x="63.623047" xlink:href="#g"/>
<use x="95.410156" xlink:href="#m"/>
<use x="159.033203" xlink:href="#d"/>
</g>
</g>
<g clip-path="url(#a)">
<g transform="translate(1332.8 754.99) scale(.1 -.1)">
<use xlink:href="#d"/>
<use x="63.623047" xlink:href="#g"/>
<use x="95.410156" xlink:href="#m"/>
<use x="159.033203" xlink:href="#m"/>
</g>
</g>
<g clip-path="url(#a)">
<g transform="translate(1450.9 887.58) scale(.1 -.1)">
<use xlink:href="#d"/>
<use x="63.623047" xlink:href="#g"/>
<use x="95.410156" xlink:href="#m"/>
<use x="159.033203" xlink:href="#o"/>
</g>
</g>
<g clip-path="url(#a)">
<defs>
<path id="v" d="m33.016 40.375q-6.6406 0-10.531-4.5469-3.875-4.5312-3.875-12.438 0-7.8594 3.875-12.438 3.8906-4.5625 10.531-4.5625t10.516 4.5625q3.875 4.5781 3.875 12.438 0 7.9062-3.875 12.438-3.875 4.5469-10.516 4.5469zm19.578 30.922v-8.9844q-3.7188 1.75-7.5 2.6719-3.7812 0.9375-7.5 0.9375-9.7656 0-14.922-6.5938-5.1406-6.5938-5.875-19.922 2.875 4.25 7.2188 6.5156 4.3594 2.2656 9.5781 2.2656 10.984 0 17.359-6.6719 6.375-6.6562 6.375-18.125 0-11.234-6.6406-18.031-6.6406-6.7812-17.672-6.7812-12.656 0-19.344 9.6875-6.6875 9.7031-6.6875 28.109 0 17.281 8.2031 27.562t22.016 10.281q3.7188 0 7.5-0.73438t7.8906-2.1875z"/>
</defs>
<g transform="translate(1498.2 887.58) scale(.1 -.1)">
<use xlink:href="#d"/>
<use x="63.623047" xlink:href="#g"/>
<use x="95.410156" xlink:href="#m"/>
<use x="159.033203" xlink:href="#v"/>
</g>
</g>
<g clip-path="url(#a)">
<g transform="translate(1545.4 887.58) scale(.1 -.1)">
<use xlink:href="#d"/>
<use x="63.623047" xlink:href="#g"/>
<use x="95.410156" xlink:href="#m"/>
<use x="159.033203" xlink:href="#aa"/>
</g>
</g>
<g clip-path="url(#a)">
<g transform="translate(1262 887.58) scale(.1 -.1)">
<use xlink:href="#d"/>
<use x="63.623047" xlink:href="#g"/>
<use x="95.410156" xlink:href="#m"/>
<use x="159.033203" xlink:href="#af"/>
</g>
</g>
<g clip-path="url(#a)">
<g transform="translate(1309.2 887.58) scale(.1 -.1)">
<use xlink:href="#d"/>
<use x="63.623047" xlink:href="#g"/>
<use x="95.410156" xlink:href="#m"/>
<use x="159.033203" xlink:href="#z"/>
</g>
</g>
<g clip-path="url(#a)">
<g transform="translate(1356.5 887.58) scale(.1 -.1)">
<use xlink:href="#d"/>
<use x="63.623047" xlink:href="#g"/>
<use x="95.410156" xlink:href="#p"/>
<use x="159.033203" xlink:href="#ab"/>
</g>
</g>
<g clip-path="url(#a)">
<g transform="translate(1403.7 887.58) scale(.1 -.1)">
<use xlink:href="#d"/>
<use x="63.623047" xlink:href="#g"/>
<use x="95.410156" xlink:href="#p"/>
<use x="159.033203" xlink:href="#d"/>
</g>
</g>
<g clip-path="url(#a)">
<g transform="translate(1120.3 887.58) scale(.1 -.1)">
<use xlink:href="#d"/>
<use x="63.623047" xlink:href="#g"/>
<use x="95.410156" xlink:href="#p"/>
<use x="159.033203" xlink:href="#m"/>
</g>
</g>
<g clip-path="url(#a)">
<g transform="translate(1167.5 887.58) scale(.1 -.1)">
<use xlink:href="#d"/>
<use x="63.623047" xlink:href="#g"/>
<use x="95.410156" xlink:href="#p"/>
<use x="159.033203" xlink:href="#p"/>
</g>
</g>
<g clip-path="url(#a)">
<g transform="translate(1214.8 887.58) scale(.1 -.1)">
<use xlink:href="#d"/>
<use x="63.623047" xlink:href="#g"/>
<use x="95.410156" xlink:href="#p"/>
<use x="159.033203" xlink:href="#o"/>
</g>
</g>
<g clip-path="url(#a)">
<g transform="translate(884.12 887.58) scale(.1 -.1)">
<use xlink:href="#d"/>
<use x="63.623047" xlink:href="#g"/>
<use x="95.410156" xlink:href="#p"/>
<use x="159.033203" xlink:href="#n"/>
</g>
</g>
<g clip-path="url(#a)">
<g transform="translate(931.35 887.58) scale(.1 -.1)">
<use xlink:href="#d"/>
<use x="63.623047" xlink:href="#g"/>
<use x="95.410156" xlink:href="#p"/>
<use x="159.033203" xlink:href="#aa"/>
</g>
</g>
<g clip-path="url(#a)">
<g transform="translate(978.58 887.58) scale(.1 -.1)">
<use xlink:href="#d"/>
<use x="63.623047" xlink:href="#g"/>
<use x="95.410156" xlink:href="#p"/>
<use x="159.033203" xlink:href="#af"/>
</g>
</g>
<g clip-path="url(#a)">
<g transform="translate(159.86 620.56) scale(.1 -.1)">
<use xlink:href="#d"/>
<use x="63.623047" xlink:href="#g"/>
<use x="95.410156" xlink:href="#p"/>
<use x="159.033203" xlink:href="#z"/>
</g>
</g>
<g clip-path="url(#a)">
<g transform="translate(270.07 887.58) scale(.1 -.1)">
<use xlink:href="#d"/>
<use x="63.623047" xlink:href="#g"/>
<use x="95.410156" xlink:href="#o"/>
<use x="159.033203" xlink:href="#ab"/>
</g>
</g>
<g clip-path="url(#a)">
<g transform="translate(423.02 620.56) scale(.1 -.1)">
<use xlink:href="#d"/>
<use x="63.623047" xlink:href="#g"/>
<use x="95.410156" xlink:href="#o"/>
<use x="159.033203" xlink:href="#d"/>
</g>
</g>
<g clip-path="url(#a)">
<g transform="translate(411.77 887.58) scale(.1 -.1)">
<use xlink:href="#d"/>
<use x="63.623047" xlink:href="#g"/>
<use x="95.410156" xlink:href="#o"/>
<use x="159.033203" xlink:href="#m"/>
</g>
</g>
<g clip-path="url(#a)">
<g transform="translate(587.21 754.99) scale(.1 -.1)">
<use xlink:href="#d"/>
<use x="63.623047" xlink:href="#g"/>
<use x="95.410156" xlink:href="#o"/>
<use x="159.033203" xlink:href="#n"/>
</g>
</g>
<g clip-path="url(#a)">
<g transform="translate(506.24 887.58) scale(.1 -.1)">
<use xlink:href="#d"/>
<use x="63.623047" xlink:href="#g"/>
<use x="95.410156" xlink:href="#o"/>
<use x="159.033203" xlink:href="#v"/>
</g>
</g>
<g clip-path="url(#a)">
<g transform="translate(553.48 887.58) scale(.1 -.1)">
<use xlink:href="#d"/>
<use x="63.623047" xlink:href="#g"/>
<use x="95.410156" xlink:href="#o"/>
<use x="159.033203" xlink:href="#aa"/>
</g>
</g>
<g clip-path="url(#a)">
<g transform="translate(600.71 887.58) scale(.1 -.1)">
<use xlink:href="#d"/>
<use x="63.623047" xlink:href="#g"/>
<use x="95.410156" xlink:href="#o"/>
<use x="159.033203" xlink:href="#af"/>
</g>
</g>
<g clip-path="url(#a)">
<g transform="translate(647.94 887.58) scale(.1 -.1)">
<use xlink:href="#d"/>
<use x="63.623047" xlink:href="#g"/>
<use x="95.410156" xlink:href="#o"/>
<use x="159.033203" xlink:href="#z"/>
</g>
</g>
<g clip-path="url(#a)">
<g transform="translate(695.18 887.58) scale(.1 -.1)">
<use xlink:href="#d"/>
<use x="63.623047" xlink:href="#g"/>
<use x="95.410156" xlink:href="#n"/>
<use x="159.033203" xlink:href="#ab"/>
</g>
</g>
<g clip-path="url(#a)">
<g transform="translate(742.41 887.58) scale(.1 -.1)">
<use xlink:href="#d"/>
<use x="63.623047" xlink:href="#g"/>
<use x="95.410156" xlink:href="#n"/>
<use x="159.033203" xlink:href="#d"/>
</g>
</g>
<g clip-path="url(#a)">
<g transform="translate(317.3 887.58) scale(.1 -.1)">
<use xlink:href="#d"/>
<use x="63.623047" xlink:href="#g"/>
<use x="95.410156" xlink:href="#n"/>
<use x="159.033203" xlink:href="#m"/>
</g>
</g>
<g clip-path="url(#a)">
<g transform="translate(364.54 887.58) scale(.1 -.1)">
<use xlink:href="#d"/>
<use x="63.623047" xlink:href="#g"/>
<use x="95.410156" xlink:href="#n"/>
<use x="159.033203" xlink:href="#p"/>
</g>
</g>
<g clip-path="url(#a)">
<g transform="translate(144.11 754.99) scale(.1 -.1)">
<use xlink:href="#d"/>
<use x="63.623047" xlink:href="#g"/>
<use x="95.410156" xlink:href="#n"/>
<use x="159.033203" xlink:href="#o"/>
</g>
</g>
<g clip-path="url(#a)">
<g transform="translate(175.6 887.58) scale(.1 -.1)">
<use xlink:href="#d"/>
<use x="63.623047" xlink:href="#g"/>
<use x="95.410156" xlink:href="#n"/>
<use x="159.033203" xlink:href="#n"/>
</g>
</g>
<g clip-path="url(#a)">
<g transform="translate(81.134 887.58) scale(.1 -.1)">
<use xlink:href="#d"/>
<use x="63.623047" xlink:href="#g"/>
<use x="95.410156" xlink:href="#n"/>
<use x="159.033203" xlink:href="#v"/>
</g>
</g>
<g clip-path="url(#a)">
<g transform="translate(128.37 887.58) scale(.1 -.1)">
<use xlink:href="#d"/>
<use x="63.623047" xlink:href="#g"/>
<use x="95.410156" xlink:href="#n"/>
<use x="159.033203" xlink:href="#aa"/>
</g>
</g>
<g clip-path="url(#a)">
<g transform="translate(222.84 887.58) scale(.1 -.1)">
<use xlink:href="#d"/>
<use x="63.623047" xlink:href="#g"/>
<use x="95.410156" xlink:href="#n"/>
<use x="159.033203" xlink:href="#af"/>
</g>
</g>
<g clip-path="url(#a)">
<g transform="translate(459.01 887.58) scale(.1 -.1)">
<use xlink:href="#d"/>
<use x="63.623047" xlink:href="#g"/>
<use x="95.410156" xlink:href="#n"/>
<use x="159.033203" xlink:href="#z"/>
</g>
</g>
<g clip-path="url(#a)">
<g transform="translate(789.65 887.58) scale(.1 -.1)">
<use xlink:href="#d"/>
<use x="63.623047" xlink:href="#g"/>
<use x="95.410156" xlink:href="#v"/>
<use x="159.033203" xlink:href="#ab"/>
</g>
</g>
<g clip-path="url(#a)">
<g transform="translate(1025.8 887.58) scale(.1 -.1)">
<use xlink:href="#d"/>
<use x="63.623047" xlink:href="#g"/>
<use x="95.410156" xlink:href="#v"/>
<use x="159.033203" xlink:href="#d"/>
</g>
</g>
<g clip-path="url(#a)">
<g transform="translate(1639.9 887.58) scale(.1 -.1)">
<use xlink:href="#d"/>
<use x="63.623047" xlink:href="#g"/>
<use x="95.410156" xlink:href="#v"/>
<use x="159.033203" xlink:href="#m"/>
</g>
</g>
<g clip-path="url(#a)">
<g transform="translate(1923.3 887.58) scale(.1 -.1)">
<use xlink:href="#d"/>
<use x="63.623047" xlink:href="#g"/>
<use x="95.410156" xlink:href="#v"/>
<use x="159.033203" xlink:href="#p"/>
</g>
</g>
<defs>
<clipPath id="a">
<rect width="2026.7" height="1066.7"/>
</clipPath>
</defs>
</svg>
