<?xml version="1.0" encoding="UTF-8"?>
<!DOCTYPE svg  PUBLIC '-//W3C//DTD SVG 1.1//EN'  'http://www.w3.org/Graphics/SVG/1.1/DTD/svg11.dtd'>
<svg width="1722.7pt" height="906.67pt" version="1.1" viewBox="0 0 1722.7 906.67" xmlns="http://www.w3.org/2000/svg" xmlns:xlink="http://www.w3.org/1999/xlink">
<defs>
<style type="text/css">*{stroke-linecap:butt;stroke-linejoin:round;}</style>
</defs>
<path d="m0 906.67h1722.7v-906.67h-1722.7z" fill="#fff"/>
<g fill="none" stroke="#000">
<path d="m996.28 41.987-666.26 125.49" clip-path="url(#a)"/>
<path d="m996.28 41.987 173.45 710.03" clip-path="url(#a)"/>
<path d="m996.28 41.987 366.8 483.13" clip-path="url(#a)"/>
<path d="m996.28 41.987 126.01 710.03" clip-path="url(#a)"/>
<path d="m330.02 167.48-251.55 584.54" clip-path="url(#a)"/>
<path d="m330.02 167.48-156.66 584.54" clip-path="url(#a)"/>
<path d="m330.02 167.48-109.21 584.54" clip-path="url(#a)"/>
<path d="m330.02 167.48-38.04 471.87" clip-path="url(#a)"/>
<path d="m330.02 167.48 104.3 471.87" clip-path="url(#a)"/>
<path d="m330.02 167.48 384.9 122.12" clip-path="url(#a)"/>
<path d="m330.02 167.48-204.1 584.54" clip-path="url(#a)"/>
<path d="m330.02 167.48 270.36 584.54" clip-path="url(#a)"/>
<path d="m1169.7 752.01v112.67" clip-path="url(#a)"/>
<path d="m1363.1 525.11-145.9 226.9" clip-path="url(#a)"/>
<path d="m1363.1 525.11-98.45 226.9" clip-path="url(#a)"/>
<path d="m1363.1 525.11-27.281 114.23" clip-path="url(#a)"/>
<path d="m1363.1 525.11 180.29 114.23" clip-path="url(#a)"/>
<path d="m1363.1 525.11 91.333 226.9" clip-path="url(#a)"/>
<path d="m1217.2 752.01v112.67" clip-path="url(#a)"/>
<path d="m1264.6 752.01v112.67" clip-path="url(#a)"/>
<path d="m1335.8 639.35-23.723 112.67" clip-path="url(#a)"/>
<path d="m1335.8 639.35 23.723 112.67" clip-path="url(#a)"/>
<path d="m1543.4 639.35-136.41 112.67" clip-path="url(#a)"/>
<path d="m1543.4 639.35-17.792 112.67" clip-path="url(#a)"/>
<path d="m1543.4 639.35 53.377 112.67" clip-path="url(#a)"/>
<path d="m1543.4 639.35 100.82 112.67" clip-path="url(#a)"/>
<path d="m1454.4 752.01v112.67" clip-path="url(#a)"/>
<path d="m1407 752.01v112.67" clip-path="url(#a)"/>
<path d="m1525.6 752.01-23.723 112.67" clip-path="url(#a)"/>
<path d="m1525.6 752.01 23.723 112.67" clip-path="url(#a)"/>
<path d="m1596.7 752.01v112.67" clip-path="url(#a)"/>
<path d="m1312.1 752.01v112.67" clip-path="url(#a)"/>
<path d="m1359.5 752.01v112.67" clip-path="url(#a)"/>
<path d="m78.475 752.01v112.67" clip-path="url(#a)"/>
<path d="m173.37 752.01v112.67" clip-path="url(#a)"/>
<path d="m220.81 752.01v112.67" clip-path="url(#a)"/>
<path d="m291.98 639.35-23.723 112.67" clip-path="url(#a)"/>
<path d="m291.98 639.35 23.723 112.67" clip-path="url(#a)"/>
<path d="m434.32 639.35-71.169 112.67" clip-path="url(#a)"/>
<path d="m434.32 639.35-23.723 112.67" clip-path="url(#a)"/>
<path d="m434.32 639.35 23.723 112.67" clip-path="url(#a)"/>
<path d="m434.32 639.35 71.169 112.67" clip-path="url(#a)"/>
<path d="m434.32 639.35 118.61 112.67" clip-path="url(#a)"/>
<path d="m434.32 639.35-118.61 112.67" clip-path="url(#a)" stroke-dasharray="3.7,1.6"/>
<path d="m714.92 289.59-67.092 462.42" clip-path="url(#a)"/>
<path d="m714.92 289.59-19.646 462.42" clip-path="url(#a)"/>
<path d="m714.92 289.59 58.937 119.09" clip-path="url(#a)"/>
<path d="m714.92 289.59 27.8 462.42" clip-path="url(#a)"/>
<path d="m647.83 752.01v112.67" clip-path="url(#a)"/>
<path d="m695.27 752.01v112.67" clip-path="url(#a)"/>
<path d="m773.85 408.68 16.31 343.33" clip-path="url(#a)"/>
<path d="m773.85 408.68 140.86 116.43" clip-path="url(#a)"/>
<path d="m773.85 408.68 300.99 343.33" clip-path="url(#a)"/>
<path d="m773.85 408.68-458.15 343.33" clip-path="url(#a)" stroke-dasharray="3.7,1.6"/>
<path d="m790.16 752.01v112.67" clip-path="url(#a)"/>
<path d="m914.71 525.11-77.1 226.9" clip-path="url(#a)"/>
<path d="m914.71 525.11-29.654 226.9" clip-path="url(#a)"/>
<path d="m914.71 525.11 17.792 226.9" clip-path="url(#a)"/>
<path d="m914.71 525.11 88.961 114.23" clip-path="url(#a)"/>
<path d="m1074.8 752.01v112.67" clip-path="url(#a)"/>
<path d="m837.61 752.01v112.67" clip-path="url(#a)"/>
<path d="m885.06 752.01v112.67" clip-path="url(#a)"/>
<path d="m932.5 752.01v112.67" clip-path="url(#a)"/>
<path d="m1003.7 639.35-23.723 112.67" clip-path="url(#a)"/>
<path d="m1003.7 639.35 23.723 112.67" clip-path="url(#a)"/>
<path d="m979.95 752.01v112.67" clip-path="url(#a)"/>
<path d="m1027.4 752.01v112.67" clip-path="url(#a)"/>
<path d="m363.15 752.01v112.67" clip-path="url(#a)"/>
<path d="m410.6 752.01v112.67" clip-path="url(#a)"/>
<path d="m458.04 752.01v112.67" clip-path="url(#a)"/>
<path d="m505.49 752.01v112.67" clip-path="url(#a)"/>
<path d="m552.93 752.01v112.67" clip-path="url(#a)"/>
<path d="m268.26 752.01v112.67" clip-path="url(#a)"/>
<path d="m315.7 752.01v112.67" clip-path="url(#a)"/>
<path d="m125.92 752.01v112.67" clip-path="url(#a)"/>
<path d="m600.38 752.01v112.67" clip-path="url(#a)"/>
<path d="m742.72 752.01v112.67" clip-path="url(#a)"/>
<path d="m1122.3 752.01v112.67" clip-path="url(#a)"/>
<path d="m1644.2 752.01v112.67" clip-path="url(#a)"/>
</g>
<path d="m661.35 111.45 5.9123-1.1136q2.3585-0.44423 1.9143-2.8028l-1.4331-7.6087q-0.44423-2.3585-2.8028-1.9143l-5.9123 1.1136q-2.3585 0.44423-1.9143 2.8028l1.4331 7.6087q0.44423 2.3585 2.8028 1.9143z" clip-path="url(#a)" fill="#fff" stroke="#fff"/>
<g clip-path="url(#a)">
<defs>
<path id="ak" d="m9.8125 72.906h9.8594v-29.891h35.844v29.891h9.8594v-72.906h-9.8594v34.719h-35.844v-34.719h-9.8594z"/>
</defs>
<g transform="translate(660.6 107.46) rotate(-10.667) scale(.08 -.08)">
<use xlink:href="#ak"/>
</g>
</g>
<path d="m1076.4 396.32 1.0578 4.3302q0.56955 2.3314 2.901 1.7619l7.5213-1.8374q2.3314-0.56955 1.7619-2.901l-1.0578-4.3302q-0.56955-2.3314-2.901-1.7619l-7.5213 1.8374q-2.3314 0.56955-1.7619 2.901z" clip-path="url(#a)" fill="#fff" stroke="#fff"/>
<g clip-path="url(#a)">
<defs>
<path id="at" d="m9.8125 72.906h9.8594v-64.609h35.5v-8.2969h-45.359z"/>
</defs>
<g transform="translate(1080.3 395.36) rotate(76.272) scale(.08 -.08)">
<use xlink:href="#at"/>
</g>
</g>
<path d="m1172.9 284.95 3.6379 4.7917q1.4512 1.9115 3.3628 0.46027l6.1666-4.6818q1.9115-1.4512 0.46027-3.3628l-3.6379-4.7917q-1.4512-1.9115-3.3628-0.46027l-6.1666 4.6818q-1.9115 1.4512-0.46027 3.3628z" clip-path="url(#a)" fill="#fff" stroke="#fff"/>
<g clip-path="url(#a)">
<g transform="translate(1176.1 282.49) rotate(52.794) scale(.08 -.08)">
<use xlink:href="#ak"/>
</g>
</g>
<path d="m1052.6 395.21 1.0231 5.7649q0.41937 2.3631 2.7824 1.9437l7.6234-1.3529q2.3631-0.41937 1.9437-2.7824l-1.0231-5.7649q-0.41937-2.3631-2.7824-1.9437l-7.6234 1.3529q-2.3631 0.41937-1.9437 2.7824z" clip-path="url(#a)" fill="#fff" stroke="#fff"/>
<g clip-path="url(#a)">
<defs>
<path id="x" d="m8.6875 72.906h9.9219v-44.297q0-11.719 4.2344-16.875 4.25-5.1406 13.781-5.1406 9.4688 0 13.719 5.1406 4.25 5.1562 4.25 16.875v44.297h9.9062v-45.516q0-14.25-7.0625-21.531-7.0469-7.2812-20.812-7.2812-13.828 0-20.891 7.2812-7.0469 7.2812-7.0469 21.531z"/>
</defs>
<g transform="translate(1056.6 394.5) rotate(79.937) scale(.08 -.08)">
<use xlink:href="#x"/>
</g>
</g>
<path d="m208.78 465.07 2.4503-5.6939q0.94869-2.2045-1.2558-3.1532l-7.1119-3.0605q-2.2045-0.94869-3.1532 1.2558l-2.4503 5.6939q-0.94869 2.2045 1.2558 3.1532l7.1119 3.0605q2.2045 0.94869 3.1532-1.2558z" clip-path="url(#a)" fill="#fff" stroke="#fff"/>
<g clip-path="url(#a)">
<defs>
<path id="aw" d="m59.516 10.406v19.578h-16.109v8.1094h25.875v-31.312q-5.7031-4.0469-12.594-6.125-6.875-2.0781-14.688-2.0781-17.094 0-26.75 9.9844-9.6406 10-9.6406 27.812 0 17.875 9.6406 27.859 9.6562 9.9844 26.75 9.9844 7.125 0 13.547-1.7656 6.4219-1.75 11.844-5.1719v-10.5q-5.4688 4.6406-11.625 6.9844t-12.938 2.3438q-13.391 0-20.109-7.4688-6.7031-7.4688-6.7031-22.266 0-14.75 6.7031-22.219 6.7188-7.4688 20.109-7.4688 5.2188 0 9.3125 0.90625 4.1094 0.90625 7.375 2.8125z"/>
</defs>
<g transform="translate(205.05 463.46) rotate(-66.716) scale(.08 -.08)">
<use xlink:href="#aw"/>
</g>
</g>
<path d="m257.13 463.7 1.2487-4.6593q0.62127-2.3182-1.6969-2.9395l-7.4786-2.0043q-2.3182-0.62127-2.9395 1.6969l-1.2487 4.6593q-0.62127 2.3182 1.6969 2.9395l7.4786 2.0043q2.3182 0.62127 2.9395-1.6969z" clip-path="url(#a)" fill="#fff" stroke="#fff"/>
<g clip-path="url(#a)">
<defs>
<path id="y" d="m19.672 64.797v-27.391h12.406q6.8906 0 10.641 3.5625 3.7656 3.5625 3.7656 10.156 0 6.5469-3.7656 10.109-3.75 3.5625-10.641 3.5625zm-9.8594 8.1094h22.266q12.266 0 18.531-5.5469 6.2812-5.5469 6.2812-16.234 0-10.797-6.2812-16.312-6.2656-5.5156-18.531-5.5156h-12.406v-29.297h-9.8594z"/>
</defs>
<g transform="translate(253.2 462.65) rotate(-74.997) scale(.08 -.08)">
<use xlink:href="#y"/>
</g>
</g>
<path d="m281.08 463.59 1.005-5.3794q0.44077-2.3592-1.9184-2.7999l-7.6108-1.4219q-2.3592-0.44077-2.7999 1.9184l-1.005 5.3794q-0.44077 2.3592 1.9184 2.7999l7.6108 1.4219q2.3592 0.44077 2.7999-1.9184z" clip-path="url(#a)" fill="#fff" stroke="#fff"/>
<g clip-path="url(#a)">
<defs>
<path id="o" d="m34.188 63.188-13.391-36.281h26.812zm-5.5781 9.7188h11.188l27.781-72.906h-10.25l-6.6406 18.703h-32.859l-6.6406-18.703h-10.406z"/>
</defs>
<g transform="translate(277.08 462.84) rotate(-79.417) scale(.08 -.08)">
<use xlink:href="#o"/>
</g>
</g>
<path d="m317.03 406.64 0.43974-5.4548q0.19285-2.3922-2.1994-2.5851l-7.7175-0.62215q-2.3922-0.19285-2.5851 2.1994l-0.43974 5.4548q-0.19285 2.3922 2.1994 2.5851l7.7175 0.62215q2.3922 0.19285 2.5851-2.1994z" clip-path="url(#a)" fill="#fff" stroke="#fff"/>
<g clip-path="url(#a)">
<g transform="translate(312.98 406.32) rotate(-85.391) scale(.08 -.08)">
<use xlink:href="#o"/>
</g>
</g>
<path d="m375.46 402.09 1.1811 5.3435q0.51797 2.3434 2.8614 1.8255l7.56-1.671q2.3434-0.51797 1.8255-2.8614l-1.1811-5.3435q-0.51797-2.3434-2.8614-1.8255l-7.56 1.671q-2.3434 0.51797-1.8255 2.8614z" clip-path="url(#a)" fill="#fff" stroke="#fff"/>
<g clip-path="url(#a)">
<g transform="translate(379.42 401.22) rotate(77.536) scale(.08 -.08)">
<use xlink:href="#o"/>
</g>
</g>
<path d="m517.97 233.69 5.2163 1.655q2.2876 0.7258 3.0134-1.5618l2.3415-7.38q0.7258-2.2876-1.5618-3.0134l-5.2163-1.655q-2.2876-0.7258-3.0134 1.5618l-2.3415 7.38q-0.7258 2.2876 1.5618 3.0134z" clip-path="url(#a)" fill="#fff" stroke="#fff"/>
<g clip-path="url(#a)">
<g transform="translate(519.19 229.81) rotate(17.603) scale(.08 -.08)">
<use xlink:href="#o"/>
</g>
</g>
<path d="m232.93 464.58 1.9301-5.5277q0.79116-2.2658-1.4747-3.057l-7.3097-2.5523q-2.2658-0.79116-3.057 1.4747l-1.9301 5.5277q-0.79116 2.2658 1.4747 3.057l7.3097 2.5523q2.2658 0.79116 3.057-1.4747z" clip-path="url(#a)" fill="#fff" stroke="#fff"/>
<g clip-path="url(#a)">
<g transform="translate(229.09 463.24) rotate(-70.752) scale(.08 -.08)">
<use xlink:href="#x"/>
</g>
</g>
<path d="m458.28 459.72 2.4579 5.3141q1.0075 2.1783 3.1858 1.1708l7.0273-3.2502q2.1783-1.0075 1.1708-3.1858l-2.4579-5.3141q-1.0075-2.1783-3.1858-1.1708l-7.0273 3.2502q-2.1783 1.0075-1.1708 3.1858z" clip-path="url(#a)" fill="#fff" stroke="#fff"/>
<g clip-path="url(#a)">
<g transform="translate(461.97 458.01) rotate(65.179) scale(.08 -.08)">
<use xlink:href="#x"/>
</g>
</g>
<path d="m1163.5 790.7v35.285q0 2.4 2.4 2.4h7.7425q2.4 0 2.4-2.4v-35.285q0-2.4-2.4-2.4h-7.7425q-2.4 0-2.4 2.4z" clip-path="url(#a)" fill="#fff" stroke="#fff"/>
<g clip-path="url(#a)">
<defs>
<path id="l" d="m-0.29688 72.906h61.672v-8.3125h-25.875v-64.594h-9.9062v64.594h-25.891z"/>
<path id="d" d="m56.203 29.594v-4.3906h-41.312q0.59375-9.2812 5.5938-14.141t13.938-4.8594q5.1719 0 10.031 1.2656t9.6562 3.8125v-8.5q-4.8438-2.0469-9.9219-3.125t-10.297-1.0781q-13.094 0-20.734 7.6094-7.6406 7.625-7.6406 20.625 0 13.422 7.25 21.297 7.25 7.8906 19.562 7.8906 11.031 0 17.453-7.1094 6.4219-7.0938 6.4219-19.297zm-8.9844 2.6406q-0.09375 7.3594-4.125 11.75-4.0312 4.4062-10.672 4.4062-7.5156 0-12.031-4.25t-5.2031-11.969z"/>
<path id="h" d="m41.109 46.297q-1.5156 0.875-3.2969 1.2812-1.7812 0.42188-3.9219 0.42188-7.625 0-11.703-4.9531t-4.0781-14.234v-28.812h-9.0312v54.688h9.0312v-8.5q2.8438 4.9844 7.375 7.3906 4.5469 2.4219 11.047 2.4219 0.92188 0 2.0469-0.125 1.125-0.10938 2.4844-0.35938z"/>
<path id="k" d="m52 44.188q3.375 6.0625 8.0625 8.9375t11.031 2.875q8.5469 0 13.188-5.9844 4.6406-5.9688 4.6406-17v-33.016h-9.0312v32.719q0 7.8594-2.7969 11.656-2.7812 3.8125-8.4844 3.8125-6.9844 0-11.047-4.6406-4.0469-4.625-4.0469-12.641v-30.906h-9.0312v32.719q0 7.9062-2.7812 11.688t-8.5938 3.7812q-6.8906 0-10.953-4.6562-4.0469-4.6562-4.0469-12.625v-30.906h-9.0312v54.688h9.0312v-8.5q3.0781 5.0312 7.375 7.4219t10.203 2.3906q5.9688 0 10.141-3.0312 4.1719-3.0156 6.1719-8.7812z"/>
<path id="f" d="m9.4219 54.688h8.9844v-54.688h-8.9844zm0 21.297h8.9844v-11.391h-8.9844z"/>
<path id="e" d="m54.891 33.016v-33.016h-8.9844v32.719q0 7.7656-3.0312 11.609-3.0312 3.8594-9.0781 3.8594-7.2812 0-11.484-4.6406-4.2031-4.625-4.2031-12.641v-30.906h-9.0312v54.688h9.0312v-8.5q3.2344 4.9375 7.5938 7.375 4.375 2.4375 10.094 2.4375 9.4219 0 14.25-5.8281 4.8438-5.8281 4.8438-17.156z"/>
<path id="j" d="m34.281 27.484q-10.891 0-15.094-2.4844t-4.2031-8.5q0-4.7812 3.1562-7.5938 3.1562-2.7969 8.5625-2.7969 7.4844 0 12 5.2969t4.5156 14.078v2zm17.922 3.7188v-31.203h-8.9844v8.2969q-3.0781-4.9688-7.6719-7.3438t-11.234-2.375q-8.3906 0-13.359 4.7188-4.9531 4.7188-4.9531 12.625 0 9.2188 6.1719 13.906 6.1875 4.6875 18.438 4.6875h12.609v0.89062q0 6.2031-4.0781 9.5938t-11.453 3.3906q-4.6875 0-9.1406-1.125-4.4375-1.125-8.5312-3.375v8.3125q4.9219 1.9062 9.5625 2.8438 4.6406 0.95312 9.0312 0.95312 11.875 0 17.734-6.1562 5.8594-6.1406 5.8594-18.641z"/>
<path id="i" d="m9.4219 75.984h8.9844v-75.984h-8.9844z"/>
</defs>
<g transform="translate(1167.5 790.7) rotate(90) scale(.08 -.08)">
<use xlink:href="#l"/>
<use x="60.818359" xlink:href="#d"/>
<use x="122.341797" xlink:href="#h"/>
<use x="163.439453" xlink:href="#k"/>
<use x="260.851562" xlink:href="#f"/>
<use x="288.634766" xlink:href="#e"/>
<use x="352.013672" xlink:href="#j"/>
<use x="413.292969" xlink:href="#i"/>
</g>
</g>
<path d="m1294.1 643.98 2.6089-4.0574q1.298-2.0187-0.72068-3.3167l-6.5124-4.1875q-2.0187-1.298-3.3167 0.72068l-2.6089 4.0574q-1.298 2.0187 0.72068 3.3167l6.5124 4.1875q2.0187 1.298 3.3167-0.72068z" clip-path="url(#a)" fill="#fff" stroke="#fff"/>
<g clip-path="url(#a)">
<g transform="translate(1290.7 641.79) rotate(-57.259) scale(.08 -.08)">
<use xlink:href="#y"/>
</g>
</g>
<path d="m1318.5 643.57 2.1783-5.0203q0.9553-2.2017-1.2464-3.157l-7.1027-3.0818q-2.2017-0.9553-3.157 1.2464l-2.1783 5.0203q-0.9553 2.2017 1.2464 3.157l7.1027 3.0818q2.2017 0.9553 3.157-1.2464z" clip-path="url(#a)" fill="#fff" stroke="#fff"/>
<g clip-path="url(#a)">
<g transform="translate(1314.8 641.95) rotate(-66.544) scale(.08 -.08)">
<use xlink:href="#o"/>
</g>
</g>
<path d="m1354.9 586.35 1.2712-5.3228q0.55749-2.3344-1.7769-2.8918l-7.5307-1.7985q-2.3344-0.55749-2.8918 1.7769l-1.2712 5.3228q-0.55749 2.3344 1.7769 2.8918l7.5307 1.7985q2.3344 0.55749 2.8918-1.7769z" clip-path="url(#a)" fill="#fff" stroke="#fff"/>
<g clip-path="url(#a)">
<g transform="translate(1350.9 585.4) rotate(-76.568) scale(.08 -.08)">
<use xlink:href="#o"/>
</g>
</g>
<path d="m1447.6 586.06 4.6227 2.9289q2.0273 1.2845 3.3118-0.74283l4.1439-6.5402q1.2845-2.0273-0.74283-3.3118l-4.6227-2.9289q-2.0273-1.2845-3.3118 0.74283l-4.1439 6.5402q-1.2845 2.0273 0.74283 3.3118z" clip-path="url(#a)" fill="#fff" stroke="#fff"/>
<g clip-path="url(#a)">
<g transform="translate(1449.7 582.63) rotate(32.358) scale(.08 -.08)">
<use xlink:href="#o"/>
</g>
</g>
<path d="m1401.8 638.05 2.3002 5.7144q0.89619 2.2264 3.1226 1.3302l7.1825-2.8911q2.2264-0.89619 1.3302-3.1226l-2.3002-5.7144q-0.89619-2.2264-3.1226-1.3302l-7.1825 2.8911q-2.2264 0.89619-1.3302 3.1226z" clip-path="url(#a)" fill="#fff" stroke="#fff"/>
<g clip-path="url(#a)">
<defs>
<path id="al" d="m19.672 64.797v-56.688h11.922q15.094 0 22.094 6.8281 7 6.8438 7 21.594 0 14.641-7 21.453t-22.094 6.8125zm-9.8594 8.1094h20.266q21.188 0 31.094-8.8125 9.9219-8.8125 9.9219-27.562 0-18.859-9.9688-27.703-9.9531-8.8281-31.047-8.8281h-20.266z"/>
</defs>
<g transform="translate(1405.5 636.53) rotate(68.074) scale(.08 -.08)">
<use xlink:href="#al"/>
</g>
</g>
<path d="m1210.9 790.7v35.285q0 2.4 2.4 2.4h7.7425q2.4 0 2.4-2.4v-35.285q0-2.4-2.4-2.4h-7.7425q-2.4 0-2.4 2.4z" clip-path="url(#a)" fill="#fff" stroke="#fff"/>
<g clip-path="url(#a)">
<g transform="translate(1215 790.7) rotate(90) scale(.08 -.08)">
<use xlink:href="#l"/>
<use x="60.818359" xlink:href="#d"/>
<use x="122.341797" xlink:href="#h"/>
<use x="163.439453" xlink:href="#k"/>
<use x="260.851562" xlink:href="#f"/>
<use x="288.634766" xlink:href="#e"/>
<use x="352.013672" xlink:href="#j"/>
<use x="413.292969" xlink:href="#i"/>
</g>
</g>
<path d="m1258.4 790.7v35.285q0 2.4 2.4 2.4h7.7425q2.4 0 2.4-2.4v-35.285q0-2.4-2.4-2.4h-7.7425q-2.4 0-2.4 2.4z" clip-path="url(#a)" fill="#fff" stroke="#fff"/>
<g clip-path="url(#a)">
<g transform="translate(1262.4 790.7) rotate(90) scale(.08 -.08)">
<use xlink:href="#l"/>
<use x="60.818359" xlink:href="#d"/>
<use x="122.341797" xlink:href="#h"/>
<use x="163.439453" xlink:href="#k"/>
<use x="260.851562" xlink:href="#f"/>
<use x="288.634766" xlink:href="#e"/>
<use x="352.013672" xlink:href="#j"/>
<use x="413.292969" xlink:href="#i"/>
</g>
</g>
<path d="m1329.5 699.45 1.0415-4.9465q0.4945-2.3485-1.854-2.843l-7.5764-1.5953q-2.3485-0.4945-2.843 1.854l-1.0415 4.9465q-0.4945 2.3485 1.854 2.843l7.5764 1.5953q2.3485 0.4945 2.843-1.854z" clip-path="url(#a)" fill="#fff" stroke="#fff"/>
<g clip-path="url(#a)">
<defs>
<path id="u" d="m9.8125 72.906h46.094v-8.3125h-36.234v-21.578h34.719v-8.2969h-34.719v-26.422h37.109v-8.2969h-46.969z"/>
</defs>
<g transform="translate(1325.6 698.61) rotate(-78.109) scale(.08 -.08)">
<use xlink:href="#u"/>
</g>
</g>
<path d="m1340.9 694.24 1.151 5.4664q0.4945 2.3485 2.843 1.854l7.5764-1.5953q2.3485-0.4945 1.854-2.843l-1.151-5.4664q-0.4945-2.3485-2.843-1.854l-7.5764 1.5953q-2.3485 0.4945-1.854 2.843z" clip-path="url(#a)" fill="#fff" stroke="#fff"/>
<g clip-path="url(#a)">
<defs>
<path id="v" d="m64.406 67.281v-10.391q-4.9844 4.6406-10.625 6.9219-5.6406 2.2969-11.984 2.2969-12.5 0-19.141-7.6406t-6.6406-22.094q0-14.406 6.6406-22.047t19.141-7.6406q6.3438 0 11.984 2.2969t10.625 6.9375v-10.312q-5.1719-3.5156-10.969-5.2812-5.7812-1.75-12.219-1.75-16.562 0-26.094 10.125-9.5156 10.141-9.5156 27.672 0 17.578 9.5156 27.703 9.5312 10.141 26.094 10.141 6.5312 0 12.312-1.7344 5.7969-1.7344 10.875-5.2031z"/>
</defs>
<g transform="translate(1344.9 693.4) rotate(78.109) scale(.08 -.08)">
<use xlink:href="#v"/>
</g>
</g>
<path d="m1477 702.29 4.2859-3.5399q1.8504-1.5284 0.32206-3.3788l-4.9306-5.9696q-1.5284-1.8504-3.3788-0.32206l-4.2859 3.5399q-1.8504 1.5284-0.32206 3.3788l4.9306 5.9696q1.5284 1.8504 3.3788 0.32206z" clip-path="url(#a)" fill="#fff" stroke="#fff"/>
<g clip-path="url(#a)">
<defs>
<path id="t" d="m44.391 34.188q3.1719-1.0781 6.1719-4.5938t6.0312-9.6719l10.016-19.922h-10.609l-9.3125 18.703q-3.625 7.3281-7.0156 9.7188t-9.25 2.3906h-10.75v-30.812h-9.8594v72.906h22.266q12.5 0 18.656-5.2344 6.1562-5.2188 6.1562-15.766 0-6.8906-3.2031-11.438-3.2031-4.5312-9.2969-6.2812zm-24.719 30.609v-25.875h12.406q7.125 0 10.766 3.2969t3.6406 9.6875-3.6406 9.6406-10.766 3.25z"/>
</defs>
<g transform="translate(1474.4 699.15) rotate(-39.555) scale(.08 -.08)">
<use xlink:href="#t"/>
</g>
</g>
<path d="m1540.3 699.16 0.78851-4.9931q0.37437-2.3706-1.9963-2.745l-7.6477-1.2077q-2.3706-0.37437-2.745 1.9963l-0.78851 4.9931q-0.37437 2.3706 1.9963 2.745l7.6477 1.2077q2.3706 0.37437 2.745-1.9963z" clip-path="url(#a)" fill="#fff" stroke="#fff"/>
<g clip-path="url(#a)">
<g transform="translate(1536.3 698.52) rotate(-81.026) scale(.08 -.08)">
<use xlink:href="#u"/>
</g>
</g>
<path d="m1563.2 695.84 2.3917 5.0484q1.0275 2.1689 3.1964 1.1414l6.997-3.3149q2.1689-1.0275 1.1414-3.1964l-2.3917-5.0484q-1.0275-2.1689-3.1964-1.1414l-6.997 3.3149q-2.1689 1.0275-1.1414 3.1964z" clip-path="url(#a)" fill="#fff" stroke="#fff"/>
<g clip-path="url(#a)">
<g transform="translate(1566.9 694.1) rotate(64.65) scale(.08 -.08)">
<use xlink:href="#v"/>
</g>
</g>
<path d="m1587.2 697.68 3.9044 4.3631q1.6004 1.7885 3.3889 0.188l5.7696-5.1631q1.7885-1.6004 0.188-3.3889l-3.9044-4.3631q-1.6004-1.7885-3.3889-0.188l-5.7696 5.1631q-1.7885 1.6004-0.188 3.3889z" clip-path="url(#a)" fill="#fff" stroke="#fff"/>
<g clip-path="url(#a)">
<g transform="translate(1590.2 694.97) rotate(48.175) scale(.08 -.08)">
<use xlink:href="#x"/>
</g>
</g>
<path d="m1448.1 790.7v35.285q0 2.4 2.4 2.4h7.7425q2.4 0 2.4-2.4v-35.285q0-2.4-2.4-2.4h-7.7425q-2.4 0-2.4 2.4z" clip-path="url(#a)" fill="#fff" stroke="#fff"/>
<g clip-path="url(#a)">
<g transform="translate(1452.2 790.7) rotate(90) scale(.08 -.08)">
<use xlink:href="#l"/>
<use x="60.818359" xlink:href="#d"/>
<use x="122.341797" xlink:href="#h"/>
<use x="163.439453" xlink:href="#k"/>
<use x="260.851562" xlink:href="#f"/>
<use x="288.634766" xlink:href="#e"/>
<use x="352.013672" xlink:href="#j"/>
<use x="413.292969" xlink:href="#i"/>
</g>
</g>
<path d="m1400.7 790.7v35.285q0 2.4 2.4 2.4h7.7425q2.4 0 2.4-2.4v-35.285q0-2.4-2.4-2.4h-7.7425q-2.4 0-2.4 2.4z" clip-path="url(#a)" fill="#fff" stroke="#fff"/>
<g clip-path="url(#a)">
<g transform="translate(1404.8 790.7) rotate(90) scale(.08 -.08)">
<use xlink:href="#l"/>
<use x="60.818359" xlink:href="#d"/>
<use x="122.341797" xlink:href="#h"/>
<use x="163.439453" xlink:href="#k"/>
<use x="260.851562" xlink:href="#f"/>
<use x="288.634766" xlink:href="#e"/>
<use x="352.013672" xlink:href="#j"/>
<use x="413.292969" xlink:href="#i"/>
</g>
</g>
<path d="m1516.2 826.9 7.2702-34.528q0.4945-2.3485-1.854-2.843l-7.5764-1.5953q-2.3485-0.4945-2.843 1.854l-7.2702 34.528q-0.4945 2.3485 1.854 2.843l7.5764 1.5953q2.3485 0.4945 2.843-1.854z" clip-path="url(#a)" fill="#fff" stroke="#fff"/>
<g clip-path="url(#a)">
<g transform="translate(1512.2 826.07) rotate(-78.109) scale(.08 -.08)">
<use xlink:href="#l"/>
<use x="60.818359" xlink:href="#d"/>
<use x="122.341797" xlink:href="#h"/>
<use x="163.439453" xlink:href="#k"/>
<use x="260.851562" xlink:href="#f"/>
<use x="288.634766" xlink:href="#e"/>
<use x="352.013672" xlink:href="#j"/>
<use x="413.292969" xlink:href="#i"/>
</g>
</g>
<path d="m1527.7 792.37 7.2702 34.528q0.4945 2.3485 2.843 1.854l7.5764-1.5953q2.3485-0.4945 1.854-2.843l-7.2702-34.528q-0.4945-2.3485-2.843-1.854l-7.5764 1.5953q-2.3485 0.4945-1.854 2.843z" clip-path="url(#a)" fill="#fff" stroke="#fff"/>
<g clip-path="url(#a)">
<g transform="translate(1531.6 791.54) rotate(78.109) scale(.08 -.08)">
<use xlink:href="#l"/>
<use x="60.818359" xlink:href="#d"/>
<use x="122.341797" xlink:href="#h"/>
<use x="163.439453" xlink:href="#k"/>
<use x="260.851562" xlink:href="#f"/>
<use x="288.634766" xlink:href="#e"/>
<use x="352.013672" xlink:href="#j"/>
<use x="413.292969" xlink:href="#i"/>
</g>
</g>
<path d="m1590.5 790.7v35.285q0 2.4 2.4 2.4h7.7425q2.4 0 2.4-2.4v-35.285q0-2.4-2.4-2.4h-7.7425q-2.4 0-2.4 2.4z" clip-path="url(#a)" fill="#fff" stroke="#fff"/>
<g clip-path="url(#a)">
<g transform="translate(1594.5 790.7) rotate(90) scale(.08 -.08)">
<use xlink:href="#l"/>
<use x="60.818359" xlink:href="#d"/>
<use x="122.341797" xlink:href="#h"/>
<use x="163.439453" xlink:href="#k"/>
<use x="260.851562" xlink:href="#f"/>
<use x="288.634766" xlink:href="#e"/>
<use x="352.013672" xlink:href="#j"/>
<use x="413.292969" xlink:href="#i"/>
</g>
</g>
<path d="m1305.8 790.7v35.285q0 2.4 2.4 2.4h7.7425q2.4 0 2.4-2.4v-35.285q0-2.4-2.4-2.4h-7.7425q-2.4 0-2.4 2.4z" clip-path="url(#a)" fill="#fff" stroke="#fff"/>
<g clip-path="url(#a)">
<g transform="translate(1309.9 790.7) rotate(90) scale(.08 -.08)">
<use xlink:href="#l"/>
<use x="60.818359" xlink:href="#d"/>
<use x="122.341797" xlink:href="#h"/>
<use x="163.439453" xlink:href="#k"/>
<use x="260.851562" xlink:href="#f"/>
<use x="288.634766" xlink:href="#e"/>
<use x="352.013672" xlink:href="#j"/>
<use x="413.292969" xlink:href="#i"/>
</g>
</g>
<path d="m1353.2 790.7v35.285q0 2.4 2.4 2.4h7.7425q2.4 0 2.4-2.4v-35.285q0-2.4-2.4-2.4h-7.7425q-2.4 0-2.4 2.4z" clip-path="url(#a)" fill="#fff" stroke="#fff"/>
<g clip-path="url(#a)">
<g transform="translate(1357.3 790.7) rotate(90) scale(.08 -.08)">
<use xlink:href="#l"/>
<use x="60.818359" xlink:href="#d"/>
<use x="122.341797" xlink:href="#h"/>
<use x="163.439453" xlink:href="#k"/>
<use x="260.851562" xlink:href="#f"/>
<use x="288.634766" xlink:href="#e"/>
<use x="352.013672" xlink:href="#j"/>
<use x="413.292969" xlink:href="#i"/>
</g>
</g>
<path d="m72.204 790.7v35.285q0 2.4 2.4 2.4h7.7425q2.4 0 2.4-2.4v-35.285q0-2.4-2.4-2.4h-7.7425q-2.4 0-2.4 2.4z" clip-path="url(#a)" fill="#fff" stroke="#fff"/>
<g clip-path="url(#a)">
<g transform="translate(76.267 790.7) rotate(90) scale(.08 -.08)">
<use xlink:href="#l"/>
<use x="60.818359" xlink:href="#d"/>
<use x="122.341797" xlink:href="#h"/>
<use x="163.439453" xlink:href="#k"/>
<use x="260.851562" xlink:href="#f"/>
<use x="288.634766" xlink:href="#e"/>
<use x="352.013672" xlink:href="#j"/>
<use x="413.292969" xlink:href="#i"/>
</g>
</g>
<path d="m167.1 790.7v35.285q0 2.4 2.4 2.4h7.7425q2.4 0 2.4-2.4v-35.285q0-2.4-2.4-2.4h-7.7425q-2.4 0-2.4 2.4z" clip-path="url(#a)" fill="#fff" stroke="#fff"/>
<g clip-path="url(#a)">
<g transform="translate(171.16 790.7) rotate(90) scale(.08 -.08)">
<use xlink:href="#l"/>
<use x="60.818359" xlink:href="#d"/>
<use x="122.341797" xlink:href="#h"/>
<use x="163.439453" xlink:href="#k"/>
<use x="260.851562" xlink:href="#f"/>
<use x="288.634766" xlink:href="#e"/>
<use x="352.013672" xlink:href="#j"/>
<use x="413.292969" xlink:href="#i"/>
</g>
</g>
<path d="m214.54 790.7v35.285q0 2.4 2.4 2.4h7.7425q2.4 0 2.4-2.4v-35.285q0-2.4-2.4-2.4h-7.7425q-2.4 0-2.4 2.4z" clip-path="url(#a)" fill="#fff" stroke="#fff"/>
<g clip-path="url(#a)">
<g transform="translate(218.61 790.7) rotate(90) scale(.08 -.08)">
<use xlink:href="#l"/>
<use x="60.818359" xlink:href="#d"/>
<use x="122.341797" xlink:href="#h"/>
<use x="163.439453" xlink:href="#k"/>
<use x="260.851562" xlink:href="#f"/>
<use x="288.634766" xlink:href="#e"/>
<use x="352.013672" xlink:href="#j"/>
<use x="413.292969" xlink:href="#i"/>
</g>
</g>
<path d="m285.74 699.45 1.0415-4.9465q0.4945-2.3485-1.854-2.843l-7.5764-1.5953q-2.3485-0.4945-2.843 1.854l-1.0415 4.9465q-0.4945 2.3485 1.854 2.843l7.5764 1.5953q2.3485 0.4945 2.843-1.854z" clip-path="url(#a)" fill="#fff" stroke="#fff"/>
<g clip-path="url(#a)">
<g transform="translate(281.76 698.61) rotate(-78.109) scale(.08 -.08)">
<use xlink:href="#u"/>
</g>
</g>
<path d="m297.13 694.24 1.151 5.4664q0.4945 2.3485 2.843 1.854l7.5764-1.5953q2.3485-0.4945 1.854-2.843l-1.151-5.4664q-0.4945-2.3485-2.843-1.854l-7.5764 1.5953q-2.3485 0.4945-1.854 2.843z" clip-path="url(#a)" fill="#fff" stroke="#fff"/>
<g clip-path="url(#a)">
<g transform="translate(301.11 693.4) rotate(78.109) scale(.08 -.08)">
<use xlink:href="#v"/>
</g>
</g>
<path d="m402.55 701.38 2.9687-4.6996q1.2817-2.0291-0.74735-3.3108l-6.5459-4.1349q-2.0291-1.2817-3.3108 0.74735l-2.9687 4.6996q-1.2817 2.0291 0.74735 3.3108l6.5459 4.1349q2.0291 1.2817 3.3108-0.74735z" clip-path="url(#a)" fill="#fff" stroke="#fff"/>
<g clip-path="url(#a)">
<g transform="translate(399.12 699.21) rotate(-57.72) scale(.08 -.08)">
<use xlink:href="#t"/>
</g>
</g>
<path d="m428.03 699.65 1.1276-5.3551q0.4945-2.3485-1.854-2.843l-7.5764-1.5953q-2.3485-0.4945-2.843 1.854l-1.1276 5.3551q-0.4945 2.3485 1.854 2.843l7.5764 1.5953q2.3485 0.4945 2.843-1.854z" clip-path="url(#a)" fill="#fff" stroke="#fff"/>
<g clip-path="url(#a)">
<g transform="translate(424.05 698.81) rotate(-78.109) scale(.08 -.08)">
<use xlink:href="#o"/>
</g>
</g>
<path d="m439.48 694.3 1.1276 5.3551q0.4945 2.3485 2.843 1.854l7.5764-1.5953q2.3485-0.4945 1.854-2.843l-1.1276-5.3551q-0.4945-2.3485-2.843-1.854l-7.5764 1.5953q-2.3485 0.4945-1.854 2.843z" clip-path="url(#a)" fill="#fff" stroke="#fff"/>
<g clip-path="url(#a)">
<g transform="translate(443.46 693.46) rotate(78.109) scale(.08 -.08)">
<use xlink:href="#o"/>
</g>
</g>
<path d="m462.96 696.43 3.2898 5.208q1.2817 2.0291 3.3108 0.74735l6.5459-4.1349q2.0291-1.2817 0.74735-3.3108l-3.2898-5.208q-1.2817-2.0291-3.3108-0.74735l-6.5459 4.1349q-2.0291 1.2817-0.74735 3.3108z" clip-path="url(#a)" fill="#fff" stroke="#fff"/>
<g clip-path="url(#a)">
<g transform="translate(466.39 694.26) rotate(57.72) scale(.08 -.08)">
<use xlink:href="#al"/>
</g>
</g>
<path d="m487.56 698.57 3.4975 3.3221q1.7401 1.6529 3.393-0.08727l5.3322-5.6137q1.6529-1.7401-0.08727-3.393l-3.4975-3.3221q-1.7401-1.6529-3.393 0.08727l-5.3322 5.6137q-1.6529 1.7401 0.087271 3.393z" clip-path="url(#a)" fill="#fff" stroke="#fff"/>
<g clip-path="url(#a)">
<g transform="translate(490.36 695.62) rotate(43.527) scale(.08 -.08)">
<use xlink:href="#y"/>
</g>
</g>
<path d="m377.35 702.11 3.9679-3.7689q1.7401-1.6529 0.08727-3.393l-5.3322-5.6137q-1.6529-1.7401-3.393-0.087271l-3.9679 3.7689q-1.7401 1.6529-0.087271 3.393l5.3322 5.6137q1.6529 1.7401 3.393 0.087271z" clip-path="url(#a)" fill="#fff" stroke="#fff"/>
<g clip-path="url(#a)">
<g transform="translate(374.55 699.17) rotate(-43.527) scale(.08 -.08)">
<use xlink:href="#o"/>
</g>
</g>
<path d="m687.18 524.46 0.79815-5.5012q0.3446-2.3751-2.0305-2.7197l-7.6623-1.1117q-2.3751-0.3446-2.7197 2.0305l-0.79815 5.5012q-0.3446 2.3751 2.0305 2.7197l7.6623 1.1117q2.3751 0.3446 2.7197-2.0305z" clip-path="url(#a)" fill="#fff" stroke="#fff"/>
<g clip-path="url(#a)">
<g transform="translate(683.16 523.87) rotate(-81.745) scale(.08 -.08)">
<use xlink:href="#t"/>
</g>
</g>
<path d="m711.24 523.86 0.23712-5.5812q0.10187-2.3978-2.296-2.4997l-7.7355-0.32864q-2.3978-0.10187-2.4997 2.296l-0.23712 5.5812q-0.10187 2.3978 2.296 2.4997l7.7355 0.32864q2.3978 0.10187 2.4997-2.296z" clip-path="url(#a)" fill="#fff" stroke="#fff"/>
<g clip-path="url(#a)">
<g transform="translate(707.18 523.69) rotate(-87.567) scale(.08 -.08)">
<use xlink:href="#v"/>
</g>
</g>
<path d="m737.64 349.65 2.2422 4.5305q1.0645 2.151 3.2155 1.0864l6.9392-3.4343q2.151-1.0645 1.0864-3.2155l-2.2422-4.5305q-1.0645-2.151-3.2155-1.0864l-6.9392 3.4343q-2.151 1.0645-1.0864 3.2155z" clip-path="url(#a)" fill="#fff" stroke="#fff"/>
<g clip-path="url(#a)">
<g transform="translate(741.29 347.85) rotate(63.669) scale(.08 -.08)">
<use xlink:href="#u"/>
</g>
</g>
<path d="m722.38 518.26 0.35136 5.8444q0.14403 2.3957 2.5397 2.2516l7.7285-0.46464q2.3957-0.14403 2.2516-2.5397l-0.35136-5.8444q-0.14403-2.3957-2.5397-2.2516l-7.7285 0.46464q-2.3957 0.14403-2.2516 2.5397z" clip-path="url(#a)" fill="#fff" stroke="#fff"/>
<g clip-path="url(#a)">
<g transform="translate(726.44 518.01) rotate(86.56) scale(.08 -.08)">
<use xlink:href="#x"/>
</g>
</g>
<path d="m641.56 790.7v35.285q0 2.4 2.4 2.4h7.7425q2.4 0 2.4-2.4v-35.285q0-2.4-2.4-2.4h-7.7425q-2.4 0-2.4 2.4z" clip-path="url(#a)" fill="#fff" stroke="#fff"/>
<g clip-path="url(#a)">
<g transform="translate(645.62 790.7) rotate(90) scale(.08 -.08)">
<use xlink:href="#l"/>
<use x="60.818359" xlink:href="#d"/>
<use x="122.341797" xlink:href="#h"/>
<use x="163.439453" xlink:href="#k"/>
<use x="260.851562" xlink:href="#f"/>
<use x="288.634766" xlink:href="#e"/>
<use x="352.013672" xlink:href="#j"/>
<use x="413.292969" xlink:href="#i"/>
</g>
</g>
<path d="m689 790.7v35.285q0 2.4 2.4 2.4h7.7425q2.4 0 2.4-2.4v-35.285q0-2.4-2.4-2.4h-7.7425q-2.4 0-2.4 2.4z" clip-path="url(#a)" fill="#fff" stroke="#fff"/>
<g clip-path="url(#a)">
<g transform="translate(693.06 790.7) rotate(90) scale(.08 -.08)">
<use xlink:href="#l"/>
<use x="60.818359" xlink:href="#d"/>
<use x="122.341797" xlink:href="#h"/>
<use x="163.439453" xlink:href="#k"/>
<use x="260.851562" xlink:href="#f"/>
<use x="288.634766" xlink:href="#e"/>
<use x="352.013672" xlink:href="#j"/>
<use x="413.292969" xlink:href="#i"/>
</g>
</g>
<path d="m775.61 577.87 0.26376 5.5525q0.11388 2.3973 2.5112 2.2834l7.7338-0.36738q2.3973-0.11388 2.2834-2.5112l-0.26376-5.5525q-0.11388-2.3973-2.5112-2.2834l-7.7338 0.36738q-2.3973 0.11388-2.2834 2.5112z" clip-path="url(#a)" fill="#fff" stroke="#fff"/>
<g clip-path="url(#a)">
<g transform="translate(779.67 577.68) rotate(87.28) scale(.08 -.08)">
<use xlink:href="#t"/>
</g>
</g>
<path d="m838.18 469.99 4.218 3.4867q1.8498 1.5291 3.3789-0.32073l4.9329-5.9676q1.5291-1.8498-0.32073-3.3789l-4.218-3.4867q-1.8498-1.5291-3.3789 0.32073l-4.9329 5.9676q-1.5291 1.8498 0.32073 3.3789z" clip-path="url(#a)" fill="#fff" stroke="#fff"/>
<g clip-path="url(#a)">
<g transform="translate(840.77 466.86) rotate(39.578) scale(.08 -.08)">
<use xlink:href="#o"/>
</g>
</g>
<path d="m918.04 582.67 3.1799 3.6273q1.5821 1.8047 3.3868 0.2226l5.822-5.1039q1.8047-1.5821 0.2226-3.3868l-3.1799-3.6273q-1.5821-1.8047-3.3868-0.2226l-5.822 5.1039q-1.8047 1.5821-0.2226 3.3868z" clip-path="url(#a)" fill="#fff" stroke="#fff"/>
<g clip-path="url(#a)">
<g transform="translate(921.1 579.99) rotate(48.76) scale(.08 -.08)">
<use xlink:href="#y"/>
</g>
</g>
<path d="m546.35 587.01 4.3793-3.2818q1.9206-1.4392 0.48131-3.3598l-4.6431-6.1958q-1.4392-1.9206-3.3598-0.48131l-4.3793 3.2818q-1.9206 1.4392-0.48131 3.3598l4.6431 6.1958q1.4392 1.9206 3.3598 0.48131z" clip-path="url(#a)" fill="#fff" stroke="#fff"/>
<g clip-path="url(#a)">
<g transform="translate(543.91 583.75) rotate(-36.847) scale(.08 -.08)">
<use xlink:href="#o"/>
</g>
</g>
<path d="m783.89 790.7v35.285q0 2.4 2.4 2.4h7.7425q2.4 0 2.4-2.4v-35.285q0-2.4-2.4-2.4h-7.7425q-2.4 0-2.4 2.4z" clip-path="url(#a)" fill="#fff" stroke="#fff"/>
<g clip-path="url(#a)">
<g transform="translate(787.96 790.7) rotate(90) scale(.08 -.08)">
<use xlink:href="#l"/>
<use x="60.818359" xlink:href="#d"/>
<use x="122.341797" xlink:href="#h"/>
<use x="163.439453" xlink:href="#k"/>
<use x="260.851562" xlink:href="#f"/>
<use x="288.634766" xlink:href="#e"/>
<use x="352.013672" xlink:href="#j"/>
<use x="413.292969" xlink:href="#i"/>
</g>
</g>
<path d="m881.2 643.21 1.7884-5.2632q0.77215-2.2724-1.5002-3.0445l-7.3308-2.491q-2.2724-0.77215-3.0445 1.5002l-1.7884 5.2632q-0.77215 2.2724 1.5002 3.0445l7.3308 2.491q2.2724 0.77215 3.0445-1.5002z" clip-path="url(#a)" fill="#fff" stroke="#fff"/>
<g clip-path="url(#a)">
<g transform="translate(877.36 641.91) rotate(-71.232) scale(.08 -.08)">
<use xlink:href="#t"/>
</g>
</g>
<path d="m905.77 641.88 0.65507-5.0124q0.31101-2.3798-2.0688-2.6908l-7.6772-1.0033q-2.3798-0.31101-2.6908 2.0687l-0.65507 5.0124q-0.31101 2.3798 2.0688 2.6908l7.6772 1.0033q2.3798 0.31101 2.6908-2.0687z" clip-path="url(#a)" fill="#fff" stroke="#fff"/>
<g clip-path="url(#a)">
<g transform="translate(901.74 641.36) rotate(-82.554) scale(.08 -.08)">
<use xlink:href="#u"/>
</g>
</g>
<path d="m917.14 636.27 0.4367 5.5692q0.18762 2.3927 2.5803 2.205l7.7188-0.60527q2.3927-0.18762 2.205-2.5803l-0.4367-5.5692q-0.18762-2.3927-2.5803-2.205l-7.7188 0.60527q-2.3927 0.18762-2.205 2.5803z" clip-path="url(#a)" fill="#fff" stroke="#fff"/>
<g clip-path="url(#a)">
<g transform="translate(921.19 635.95) rotate(85.516) scale(.08 -.08)">
<use xlink:href="#v"/>
</g>
</g>
<path d="m952.69 584.09 3.1059 3.9883q1.4746 1.8935 3.3682 0.41891l6.1086-4.7572q1.8935-1.4746 0.41891-3.3682l-3.1059-3.9883q-1.4746-1.8935-3.3682-0.41891l-6.1086 4.7572q-1.8935 1.4746-0.41891 3.3682z" clip-path="url(#a)" fill="#fff" stroke="#fff"/>
<g clip-path="url(#a)">
<g transform="translate(955.9 581.59) rotate(52.09) scale(.08 -.08)">
<use xlink:href="#u"/>
</g>
</g>
<path d="m1068.6 790.7v35.285q0 2.4 2.4 2.4h7.7425q2.4 0 2.4-2.4v-35.285q0-2.4-2.4-2.4h-7.7425q-2.4 0-2.4 2.4z" clip-path="url(#a)" fill="#fff" stroke="#fff"/>
<g clip-path="url(#a)">
<g transform="translate(1072.6 790.7) rotate(90) scale(.08 -.08)">
<use xlink:href="#l"/>
<use x="60.818359" xlink:href="#d"/>
<use x="122.341797" xlink:href="#h"/>
<use x="163.439453" xlink:href="#k"/>
<use x="260.851562" xlink:href="#f"/>
<use x="288.634766" xlink:href="#e"/>
<use x="352.013672" xlink:href="#j"/>
<use x="413.292969" xlink:href="#i"/>
</g>
</g>
<path d="m831.34 790.7v35.285q0 2.4 2.4 2.4h7.7425q2.4 0 2.4-2.4v-35.285q0-2.4-2.4-2.4h-7.7425q-2.4 0-2.4 2.4z" clip-path="url(#a)" fill="#fff" stroke="#fff"/>
<g clip-path="url(#a)">
<g transform="translate(835.4 790.7) rotate(90) scale(.08 -.08)">
<use xlink:href="#l"/>
<use x="60.818359" xlink:href="#d"/>
<use x="122.341797" xlink:href="#h"/>
<use x="163.439453" xlink:href="#k"/>
<use x="260.851562" xlink:href="#f"/>
<use x="288.634766" xlink:href="#e"/>
<use x="352.013672" xlink:href="#j"/>
<use x="413.292969" xlink:href="#i"/>
</g>
</g>
<path d="m878.79 790.7v35.285q0 2.4 2.4 2.4h7.7425q2.4 0 2.4-2.4v-35.285q0-2.4-2.4-2.4h-7.7425q-2.4 0-2.4 2.4z" clip-path="url(#a)" fill="#fff" stroke="#fff"/>
<g clip-path="url(#a)">
<g transform="translate(882.85 790.7) rotate(90) scale(.08 -.08)">
<use xlink:href="#l"/>
<use x="60.818359" xlink:href="#d"/>
<use x="122.341797" xlink:href="#h"/>
<use x="163.439453" xlink:href="#k"/>
<use x="260.851562" xlink:href="#f"/>
<use x="288.634766" xlink:href="#e"/>
<use x="352.013672" xlink:href="#j"/>
<use x="413.292969" xlink:href="#i"/>
</g>
</g>
<path d="m926.23 790.7v35.285q0 2.4 2.4 2.4h7.7425q2.4 0 2.4-2.4v-35.285q0-2.4-2.4-2.4h-7.7425q-2.4 0-2.4 2.4z" clip-path="url(#a)" fill="#fff" stroke="#fff"/>
<g clip-path="url(#a)">
<g transform="translate(930.29 790.7) rotate(90) scale(.08 -.08)">
<use xlink:href="#l"/>
<use x="60.818359" xlink:href="#d"/>
<use x="122.341797" xlink:href="#h"/>
<use x="163.439453" xlink:href="#k"/>
<use x="260.851562" xlink:href="#f"/>
<use x="288.634766" xlink:href="#e"/>
<use x="352.013672" xlink:href="#j"/>
<use x="413.292969" xlink:href="#i"/>
</g>
</g>
<path d="m997.37 699.69 1.1453-5.4395q0.4945-2.3485-1.854-2.843l-7.5764-1.5953q-2.3485-0.4945-2.843 1.854l-1.1453 5.4395q-0.4945 2.3485 1.854 2.843l7.5764 1.5953q2.3485 0.4945 2.843-1.854z" clip-path="url(#a)" fill="#fff" stroke="#fff"/>
<g clip-path="url(#a)">
<g transform="translate(993.4 698.86) rotate(-78.109) scale(.08 -.08)">
<use xlink:href="#t"/>
</g>
</g>
<path d="m1008.8 694.24 1.151 5.4664q0.4945 2.3485 2.843 1.854l7.5764-1.5953q2.3485-0.4945 1.854-2.843l-1.151-5.4664q-0.4945-2.3485-2.843-1.854l-7.5764 1.5953q-2.3485 0.4945-1.854 2.843z" clip-path="url(#a)" fill="#fff" stroke="#fff"/>
<g clip-path="url(#a)">
<g transform="translate(1012.8 693.4) rotate(78.109) scale(.08 -.08)">
<use xlink:href="#v"/>
</g>
</g>
<path d="m973.68 790.7v35.285q0 2.4 2.4 2.4h7.7425q2.4 0 2.4-2.4v-35.285q0-2.4-2.4-2.4h-7.7425q-2.4 0-2.4 2.4z" clip-path="url(#a)" fill="#fff" stroke="#fff"/>
<g clip-path="url(#a)">
<g transform="translate(977.74 790.7) rotate(90) scale(.08 -.08)">
<use xlink:href="#l"/>
<use x="60.818359" xlink:href="#d"/>
<use x="122.341797" xlink:href="#h"/>
<use x="163.439453" xlink:href="#k"/>
<use x="260.851562" xlink:href="#f"/>
<use x="288.634766" xlink:href="#e"/>
<use x="352.013672" xlink:href="#j"/>
<use x="413.292969" xlink:href="#i"/>
</g>
</g>
<path d="m1021.1 790.7v35.285q0 2.4 2.4 2.4h7.7425q2.4 0 2.4-2.4v-35.285q0-2.4-2.4-2.4h-7.7425q-2.4 0-2.4 2.4z" clip-path="url(#a)" fill="#fff" stroke="#fff"/>
<g clip-path="url(#a)">
<g transform="translate(1025.2 790.7) rotate(90) scale(.08 -.08)">
<use xlink:href="#l"/>
<use x="60.818359" xlink:href="#d"/>
<use x="122.341797" xlink:href="#h"/>
<use x="163.439453" xlink:href="#k"/>
<use x="260.851562" xlink:href="#f"/>
<use x="288.634766" xlink:href="#e"/>
<use x="352.013672" xlink:href="#j"/>
<use x="413.292969" xlink:href="#i"/>
</g>
</g>
<path d="m356.88 790.7v35.285q0 2.4 2.4 2.4h7.7425q2.4 0 2.4-2.4v-35.285q0-2.4-2.4-2.4h-7.7425q-2.4 0-2.4 2.4z" clip-path="url(#a)" fill="#fff" stroke="#fff"/>
<g clip-path="url(#a)">
<g transform="translate(360.94 790.7) rotate(90) scale(.08 -.08)">
<use xlink:href="#l"/>
<use x="60.818359" xlink:href="#d"/>
<use x="122.341797" xlink:href="#h"/>
<use x="163.439453" xlink:href="#k"/>
<use x="260.851562" xlink:href="#f"/>
<use x="288.634766" xlink:href="#e"/>
<use x="352.013672" xlink:href="#j"/>
<use x="413.292969" xlink:href="#i"/>
</g>
</g>
<path d="m404.33 790.7v35.285q0 2.4 2.4 2.4h7.7425q2.4 0 2.4-2.4v-35.285q0-2.4-2.4-2.4h-7.7425q-2.4 0-2.4 2.4z" clip-path="url(#a)" fill="#fff" stroke="#fff"/>
<g clip-path="url(#a)">
<g transform="translate(408.39 790.7) rotate(90) scale(.08 -.08)">
<use xlink:href="#l"/>
<use x="60.818359" xlink:href="#d"/>
<use x="122.341797" xlink:href="#h"/>
<use x="163.439453" xlink:href="#k"/>
<use x="260.851562" xlink:href="#f"/>
<use x="288.634766" xlink:href="#e"/>
<use x="352.013672" xlink:href="#j"/>
<use x="413.292969" xlink:href="#i"/>
</g>
</g>
<path d="m451.77 790.7v35.285q0 2.4 2.4 2.4h7.7425q2.4 0 2.4-2.4v-35.285q0-2.4-2.4-2.4h-7.7425q-2.4 0-2.4 2.4z" clip-path="url(#a)" fill="#fff" stroke="#fff"/>
<g clip-path="url(#a)">
<g transform="translate(455.84 790.7) rotate(90) scale(.08 -.08)">
<use xlink:href="#l"/>
<use x="60.818359" xlink:href="#d"/>
<use x="122.341797" xlink:href="#h"/>
<use x="163.439453" xlink:href="#k"/>
<use x="260.851562" xlink:href="#f"/>
<use x="288.634766" xlink:href="#e"/>
<use x="352.013672" xlink:href="#j"/>
<use x="413.292969" xlink:href="#i"/>
</g>
</g>
<path d="m499.22 790.7v35.285q0 2.4 2.4 2.4h7.7425q2.4 0 2.4-2.4v-35.285q0-2.4-2.4-2.4h-7.7425q-2.4 0-2.4 2.4z" clip-path="url(#a)" fill="#fff" stroke="#fff"/>
<g clip-path="url(#a)">
<g transform="translate(503.28 790.7) rotate(90) scale(.08 -.08)">
<use xlink:href="#l"/>
<use x="60.818359" xlink:href="#d"/>
<use x="122.341797" xlink:href="#h"/>
<use x="163.439453" xlink:href="#k"/>
<use x="260.851562" xlink:href="#f"/>
<use x="288.634766" xlink:href="#e"/>
<use x="352.013672" xlink:href="#j"/>
<use x="413.292969" xlink:href="#i"/>
</g>
</g>
<path d="m546.66 790.7v35.285q0 2.4 2.4 2.4h7.7425q2.4 0 2.4-2.4v-35.285q0-2.4-2.4-2.4h-7.7425q-2.4 0-2.4 2.4z" clip-path="url(#a)" fill="#fff" stroke="#fff"/>
<g clip-path="url(#a)">
<g transform="translate(550.73 790.7) rotate(90) scale(.08 -.08)">
<use xlink:href="#l"/>
<use x="60.818359" xlink:href="#d"/>
<use x="122.341797" xlink:href="#h"/>
<use x="163.439453" xlink:href="#k"/>
<use x="260.851562" xlink:href="#f"/>
<use x="288.634766" xlink:href="#e"/>
<use x="352.013672" xlink:href="#j"/>
<use x="413.292969" xlink:href="#i"/>
</g>
</g>
<path d="m261.99 790.7v35.285q0 2.4 2.4 2.4h7.7425q2.4 0 2.4-2.4v-35.285q0-2.4-2.4-2.4h-7.7425q-2.4 0-2.4 2.4z" clip-path="url(#a)" fill="#fff" stroke="#fff"/>
<g clip-path="url(#a)">
<g transform="translate(266.05 790.7) rotate(90) scale(.08 -.08)">
<use xlink:href="#l"/>
<use x="60.818359" xlink:href="#d"/>
<use x="122.341797" xlink:href="#h"/>
<use x="163.439453" xlink:href="#k"/>
<use x="260.851562" xlink:href="#f"/>
<use x="288.634766" xlink:href="#e"/>
<use x="352.013672" xlink:href="#j"/>
<use x="413.292969" xlink:href="#i"/>
</g>
</g>
<path d="m309.43 790.7v35.285q0 2.4 2.4 2.4h7.7425q2.4 0 2.4-2.4v-35.285q0-2.4-2.4-2.4h-7.7425q-2.4 0-2.4 2.4z" clip-path="url(#a)" fill="#fff" stroke="#fff"/>
<g clip-path="url(#a)">
<g transform="translate(313.5 790.7) rotate(90) scale(.08 -.08)">
<use xlink:href="#l"/>
<use x="60.818359" xlink:href="#d"/>
<use x="122.341797" xlink:href="#h"/>
<use x="163.439453" xlink:href="#k"/>
<use x="260.851562" xlink:href="#f"/>
<use x="288.634766" xlink:href="#e"/>
<use x="352.013672" xlink:href="#j"/>
<use x="413.292969" xlink:href="#i"/>
</g>
</g>
<path d="m119.65 790.7v35.285q0 2.4 2.4 2.4h7.7425q2.4 0 2.4-2.4v-35.285q0-2.4-2.4-2.4h-7.7425q-2.4 0-2.4 2.4z" clip-path="url(#a)" fill="#fff" stroke="#fff"/>
<g clip-path="url(#a)">
<g transform="translate(123.71 790.7) rotate(90) scale(.08 -.08)">
<use xlink:href="#l"/>
<use x="60.818359" xlink:href="#d"/>
<use x="122.341797" xlink:href="#h"/>
<use x="163.439453" xlink:href="#k"/>
<use x="260.851562" xlink:href="#f"/>
<use x="288.634766" xlink:href="#e"/>
<use x="352.013672" xlink:href="#j"/>
<use x="413.292969" xlink:href="#i"/>
</g>
</g>
<path d="m594.11 790.7v35.285q0 2.4 2.4 2.4h7.7425q2.4 0 2.4-2.4v-35.285q0-2.4-2.4-2.4h-7.7425q-2.4 0-2.4 2.4z" clip-path="url(#a)" fill="#fff" stroke="#fff"/>
<g clip-path="url(#a)">
<g transform="translate(598.17 790.7) rotate(90) scale(.08 -.08)">
<use xlink:href="#l"/>
<use x="60.818359" xlink:href="#d"/>
<use x="122.341797" xlink:href="#h"/>
<use x="163.439453" xlink:href="#k"/>
<use x="260.851562" xlink:href="#f"/>
<use x="288.634766" xlink:href="#e"/>
<use x="352.013672" xlink:href="#j"/>
<use x="413.292969" xlink:href="#i"/>
</g>
</g>
<path d="m736.45 790.7v35.285q0 2.4 2.4 2.4h7.7425q2.4 0 2.4-2.4v-35.285q0-2.4-2.4-2.4h-7.7425q-2.4 0-2.4 2.4z" clip-path="url(#a)" fill="#fff" stroke="#fff"/>
<g clip-path="url(#a)">
<g transform="translate(740.51 790.7) rotate(90) scale(.08 -.08)">
<use xlink:href="#l"/>
<use x="60.818359" xlink:href="#d"/>
<use x="122.341797" xlink:href="#h"/>
<use x="163.439453" xlink:href="#k"/>
<use x="260.851562" xlink:href="#f"/>
<use x="288.634766" xlink:href="#e"/>
<use x="352.013672" xlink:href="#j"/>
<use x="413.292969" xlink:href="#i"/>
</g>
</g>
<path d="m1116 790.7v35.285q0 2.4 2.4 2.4h7.7425q2.4 0 2.4-2.4v-35.285q0-2.4-2.4-2.4h-7.7425q-2.4 0-2.4 2.4z" clip-path="url(#a)" fill="#fff" stroke="#fff"/>
<g clip-path="url(#a)">
<g transform="translate(1120.1 790.7) rotate(90) scale(.08 -.08)">
<use xlink:href="#l"/>
<use x="60.818359" xlink:href="#d"/>
<use x="122.341797" xlink:href="#h"/>
<use x="163.439453" xlink:href="#k"/>
<use x="260.851562" xlink:href="#f"/>
<use x="288.634766" xlink:href="#e"/>
<use x="352.013672" xlink:href="#j"/>
<use x="413.292969" xlink:href="#i"/>
</g>
</g>
<path d="m1637.9 790.7v35.285q0 2.4 2.4 2.4h7.7425q2.4 0 2.4-2.4v-35.285q0-2.4-2.4-2.4h-7.7425q-2.4 0-2.4 2.4z" clip-path="url(#a)" fill="#fff" stroke="#fff"/>
<g clip-path="url(#a)">
<g transform="translate(1642 790.7) rotate(90) scale(.08 -.08)">
<use xlink:href="#l"/>
<use x="60.818359" xlink:href="#d"/>
<use x="122.341797" xlink:href="#h"/>
<use x="163.439453" xlink:href="#k"/>
<use x="260.851562" xlink:href="#f"/>
<use x="288.634766" xlink:href="#e"/>
<use x="352.013672" xlink:href="#j"/>
<use x="413.292969" xlink:href="#i"/>
</g>
</g>
<defs>
<path id="b" d="m0 8.6603c2.2967 0 4.4997-0.9125 6.1237-2.5365 1.624-1.624 2.5365-3.827 2.5365-6.1237s-0.9125-4.4997-2.5365-6.1237c-1.624-1.624-3.827-2.5365-6.1237-2.5365s-4.4997 0.9125-6.1237 2.5365c-1.624 1.624-2.5365 3.827-2.5365 6.1237s0.9125 4.4997 2.5365 6.1237c1.624 1.624 3.827 2.5365 6.1237 2.5365z"/>
</defs>
<g clip-path="url(#a)">
<use x="78.474766" y="864.679711" fill="#ffffff" stroke="#ffffff" xlink:href="#b"/>
</g>
<g clip-path="url(#a)">
<use x="125.92074" y="864.679711" fill="#ffffff" stroke="#ffffff" xlink:href="#b"/>
</g>
<g clip-path="url(#a)">
<use x="173.366714" y="864.679711" fill="#ffffff" stroke="#ffffff" xlink:href="#b"/>
</g>
<g clip-path="url(#a)">
<use x="220.812688" y="864.679711" fill="#ffffff" stroke="#ffffff" xlink:href="#b"/>
</g>
<g clip-path="url(#a)">
<use x="268.258661" y="864.679711" fill="#ffffff" stroke="#ffffff" xlink:href="#b"/>
</g>
<g clip-path="url(#a)">
<use x="315.704635" y="864.679711" fill="#ffffff" stroke="#ffffff" xlink:href="#b"/>
</g>
<g clip-path="url(#a)">
<use x="363.150609" y="864.679711" fill="#ffffff" stroke="#ffffff" xlink:href="#b"/>
</g>
<g clip-path="url(#a)">
<use x="410.596583" y="864.679711" fill="#ffffff" stroke="#ffffff" xlink:href="#b"/>
</g>
<g clip-path="url(#a)">
<use x="458.042556" y="864.679711" fill="#ffffff" stroke="#ffffff" xlink:href="#b"/>
</g>
<g clip-path="url(#a)">
<use x="505.48853" y="864.679711" fill="#ffffff" stroke="#ffffff" xlink:href="#b"/>
</g>
<g clip-path="url(#a)">
<use x="552.934504" y="864.679711" fill="#ffffff" stroke="#ffffff" xlink:href="#b"/>
</g>
<g clip-path="url(#a)">
<use x="600.380478" y="864.679711" fill="#ffffff" stroke="#ffffff" xlink:href="#b"/>
</g>
<g clip-path="url(#a)">
<use x="647.826451" y="864.679711" fill="#ffffff" stroke="#ffffff" xlink:href="#b"/>
</g>
<g clip-path="url(#a)">
<use x="695.272425" y="864.679711" fill="#ffffff" stroke="#ffffff" xlink:href="#b"/>
</g>
<g clip-path="url(#a)">
<use x="742.718399" y="864.679711" fill="#ffffff" stroke="#ffffff" xlink:href="#b"/>
</g>
<g clip-path="url(#a)">
<use x="790.164373" y="864.679711" fill="#ffffff" stroke="#ffffff" xlink:href="#b"/>
</g>
<g clip-path="url(#a)">
<use x="837.610346" y="864.679711" fill="#ffffff" stroke="#ffffff" xlink:href="#b"/>
</g>
<g clip-path="url(#a)">
<use x="885.05632" y="864.679711" fill="#ffffff" stroke="#ffffff" xlink:href="#b"/>
</g>
<g clip-path="url(#a)">
<use x="932.502294" y="864.679711" fill="#ffffff" stroke="#ffffff" xlink:href="#b"/>
</g>
<g clip-path="url(#a)">
<use x="979.948268" y="864.679711" fill="#ffffff" stroke="#ffffff" xlink:href="#b"/>
</g>
<g clip-path="url(#a)">
<use x="1027.394241" y="864.679711" fill="#ffffff" stroke="#ffffff" xlink:href="#b"/>
</g>
<g clip-path="url(#a)">
<use x="1074.840215" y="864.679711" fill="#ffffff" stroke="#ffffff" xlink:href="#b"/>
</g>
<g clip-path="url(#a)">
<use x="1122.286189" y="864.679711" fill="#ffffff" stroke="#ffffff" xlink:href="#b"/>
</g>
<g clip-path="url(#a)">
<use x="1169.732163" y="864.679711" fill="#ffffff" stroke="#ffffff" xlink:href="#b"/>
</g>
<g clip-path="url(#a)">
<use x="1217.178137" y="864.679711" fill="#ffffff" stroke="#ffffff" xlink:href="#b"/>
</g>
<g clip-path="url(#a)">
<use x="1264.62411" y="864.679711" fill="#ffffff" stroke="#ffffff" xlink:href="#b"/>
</g>
<g clip-path="url(#a)">
<use x="1312.070084" y="864.679711" fill="#ffffff" stroke="#ffffff" xlink:href="#b"/>
</g>
<g clip-path="url(#a)">
<use x="1359.516058" y="864.679711" fill="#ffffff" stroke="#ffffff" xlink:href="#b"/>
</g>
<g clip-path="url(#a)">
<use x="1406.962032" y="864.679711" fill="#ffffff" stroke="#ffffff" xlink:href="#b"/>
</g>
<g clip-path="url(#a)">
<use x="1454.408005" y="864.679711" fill="#ffffff" stroke="#ffffff" xlink:href="#b"/>
</g>
<g clip-path="url(#a)">
<use x="1501.853979" y="864.679711" fill="#ffffff" stroke="#ffffff" xlink:href="#b"/>
</g>
<g clip-path="url(#a)">
<use x="1549.299953" y="864.679711" fill="#ffffff" stroke="#ffffff" xlink:href="#b"/>
</g>
<g clip-path="url(#a)">
<use x="1596.745927" y="864.679711" fill="#ffffff" stroke="#ffffff" xlink:href="#b"/>
</g>
<g clip-path="url(#a)">
<use x="1644.1919" y="864.679711" fill="#ffffff" stroke="#ffffff" xlink:href="#b"/>
</g>
<g clip-path="url(#a)">
<use x="996.278671" y="41.986956" fill="#ffffff" stroke="#ffffff" xlink:href="#b"/>
</g>
<g clip-path="url(#a)">
<use x="330.021828" y="167.477192" fill="#ffffff" stroke="#ffffff" xlink:href="#b"/>
</g>
<g clip-path="url(#a)">
<use x="1169.732163" y="752.013526" fill="#ffffff" stroke="#ffffff" xlink:href="#b"/>
</g>
<g clip-path="url(#a)">
<use x="1363.074506" y="525.113847" fill="#ffffff" stroke="#ffffff" xlink:href="#b"/>
</g>
<g clip-path="url(#a)">
<use x="1217.178137" y="752.013526" fill="#ffffff" stroke="#ffffff" xlink:href="#b"/>
</g>
<g clip-path="url(#a)">
<use x="1264.62411" y="752.013526" fill="#ffffff" stroke="#ffffff" xlink:href="#b"/>
</g>
<g clip-path="url(#a)">
<use x="1335.793071" y="639.347342" fill="#ffffff" stroke="#ffffff" xlink:href="#b"/>
</g>
<g clip-path="url(#a)">
<use x="1543.369206" y="639.347342" fill="#ffffff" stroke="#ffffff" xlink:href="#b"/>
</g>
<g clip-path="url(#a)">
<use x="1454.408005" y="752.013526" fill="#ffffff" stroke="#ffffff" xlink:href="#b"/>
</g>
<g clip-path="url(#a)">
<use x="1406.962032" y="752.013526" fill="#ffffff" stroke="#ffffff" xlink:href="#b"/>
</g>
<g clip-path="url(#a)">
<use x="1525.576966" y="752.013526" fill="#ffffff" stroke="#ffffff" xlink:href="#b"/>
</g>
<g clip-path="url(#a)">
<use x="1596.745927" y="752.013526" fill="#ffffff" stroke="#ffffff" xlink:href="#b"/>
</g>
<g clip-path="url(#a)">
<use x="1312.070084" y="752.013526" fill="#ffffff" stroke="#ffffff" xlink:href="#b"/>
</g>
<g clip-path="url(#a)">
<use x="1359.516058" y="752.013526" fill="#ffffff" stroke="#ffffff" xlink:href="#b"/>
</g>
<g clip-path="url(#a)">
<use x="78.474766" y="752.013526" fill="#ffffff" stroke="#ffffff" xlink:href="#b"/>
</g>
<g clip-path="url(#a)">
<use x="173.366714" y="752.013526" fill="#ffffff" stroke="#ffffff" xlink:href="#b"/>
</g>
<g clip-path="url(#a)">
<use x="220.812688" y="752.013526" fill="#ffffff" stroke="#ffffff" xlink:href="#b"/>
</g>
<g clip-path="url(#a)">
<use x="291.981648" y="639.347342" fill="#ffffff" stroke="#ffffff" xlink:href="#b"/>
</g>
<g clip-path="url(#a)">
<use x="434.319569" y="639.347342" fill="#ffffff" stroke="#ffffff" xlink:href="#b"/>
</g>
<g clip-path="url(#a)">
<use x="714.918024" y="289.594596" fill="#ffffff" stroke="#ffffff" xlink:href="#b"/>
</g>
<g clip-path="url(#a)">
<use x="647.826451" y="752.013526" fill="#ffffff" stroke="#ffffff" xlink:href="#b"/>
</g>
<g clip-path="url(#a)">
<use x="695.272425" y="752.013526" fill="#ffffff" stroke="#ffffff" xlink:href="#b"/>
</g>
<g clip-path="url(#a)">
<use x="773.854819" y="408.680699" fill="#ffffff" stroke="#ffffff" xlink:href="#b"/>
</g>
<g clip-path="url(#a)">
<use x="790.164373" y="752.013526" fill="#ffffff" stroke="#ffffff" xlink:href="#b"/>
</g>
<g clip-path="url(#a)">
<use x="914.710054" y="525.113847" fill="#ffffff" stroke="#ffffff" xlink:href="#b"/>
</g>
<g clip-path="url(#a)">
<use x="1074.840215" y="752.013526" fill="#ffffff" stroke="#ffffff" xlink:href="#b"/>
</g>
<g clip-path="url(#a)">
<use x="837.610346" y="752.013526" fill="#ffffff" stroke="#ffffff" xlink:href="#b"/>
</g>
<g clip-path="url(#a)">
<use x="885.05632" y="752.013526" fill="#ffffff" stroke="#ffffff" xlink:href="#b"/>
</g>
<g clip-path="url(#a)">
<use x="932.502294" y="752.013526" fill="#ffffff" stroke="#ffffff" xlink:href="#b"/>
</g>
<g clip-path="url(#a)">
<use x="1003.671255" y="639.347342" fill="#ffffff" stroke="#ffffff" xlink:href="#b"/>
</g>
<g clip-path="url(#a)">
<use x="979.948268" y="752.013526" fill="#ffffff" stroke="#ffffff" xlink:href="#b"/>
</g>
<g clip-path="url(#a)">
<use x="1027.394241" y="752.013526" fill="#ffffff" stroke="#ffffff" xlink:href="#b"/>
</g>
<g clip-path="url(#a)">
<use x="363.150609" y="752.013526" fill="#ffffff" stroke="#ffffff" xlink:href="#b"/>
</g>
<g clip-path="url(#a)">
<use x="410.596583" y="752.013526" fill="#ffffff" stroke="#ffffff" xlink:href="#b"/>
</g>
<g clip-path="url(#a)">
<use x="458.042556" y="752.013526" fill="#ffffff" stroke="#ffffff" xlink:href="#b"/>
</g>
<g clip-path="url(#a)">
<use x="505.48853" y="752.013526" fill="#ffffff" stroke="#ffffff" xlink:href="#b"/>
</g>
<g clip-path="url(#a)">
<use x="552.934504" y="752.013526" fill="#ffffff" stroke="#ffffff" xlink:href="#b"/>
</g>
<g clip-path="url(#a)">
<use x="268.258661" y="752.013526" fill="#ffffff" stroke="#ffffff" xlink:href="#b"/>
</g>
<g clip-path="url(#a)">
<use x="315.704635" y="752.013526" fill="#ffffff" stroke="#ffffff" xlink:href="#b"/>
</g>
<g clip-path="url(#a)">
<use x="125.92074" y="752.013526" fill="#ffffff" stroke="#ffffff" xlink:href="#b"/>
</g>
<g clip-path="url(#a)">
<use x="600.380478" y="752.013526" fill="#ffffff" stroke="#ffffff" xlink:href="#b"/>
</g>
<g clip-path="url(#a)">
<use x="742.718399" y="752.013526" fill="#ffffff" stroke="#ffffff" xlink:href="#b"/>
</g>
<g clip-path="url(#a)">
<use x="1122.286189" y="752.013526" fill="#ffffff" stroke="#ffffff" xlink:href="#b"/>
</g>
<g clip-path="url(#a)">
<use x="1644.1919" y="752.013526" fill="#ffffff" stroke="#ffffff" xlink:href="#b"/>
</g>
<g clip-path="url(#a)">
<defs>
<path id="av" d="m9.8125 72.906h9.8594v-67.828q0-13.188-5-19.141t-16.094-5.9531h-3.75v8.2969h3.0781q6.5312 0 9.2188 3.6719 2.6875 3.6562 2.6875 13.125z"/>
<path id="s" d="m45.406 46.391v29.594h8.9844v-75.984h-8.9844v8.2031q-2.8281-4.875-7.1562-7.25-4.3125-2.375-10.375-2.375-9.9062 0-16.141 7.9062-6.2188 7.9219-6.2188 20.812t6.2188 20.797q6.2344 7.9062 16.141 7.9062 6.0625 0 10.375-2.375 4.3281-2.3594 7.1562-7.2344zm-30.609-19.094q0-9.9062 4.0781-15.547t11.203-5.6406 11.219 5.6406q4.1094 5.6406 4.1094 15.547t-4.1094 15.547q-4.0938 5.6406-11.219 5.6406t-11.203-5.6406-4.0781-15.547z"/>
<path id="ap" d="m37.109 75.984v-7.4844h-8.5938q-4.8281 0-6.7188-1.9531-1.875-1.9531-1.875-7.0312v-4.8281h14.797v-6.9844h-14.797v-47.703h-9.0312v47.703h-8.5938v6.9844h8.5938v3.8125q0 9.125 4.25 13.297 4.25 4.1875 13.469 4.1875z"/>
<path id="r" d="m44.281 53.078v-8.5q-3.7969 1.9531-7.9062 2.9219-4.0938 0.98438-8.5 0.98438-6.6875 0-10.031-2.0469t-3.3438-6.1562q0-3.125 2.3906-4.9062t9.625-3.3906l3.0781-0.6875q9.5625-2.0469 13.594-5.7812t4.0312-10.422q0-7.625-6.0312-12.078-6.0312-4.4375-16.578-4.4375-4.3906 0-9.1562 0.85938t-10.031 2.5625v9.2812q4.9844-2.5938 9.8125-3.8906 4.8281-1.2812 9.5781-1.2812 6.3438 0 9.75 2.1719 3.4219 2.1719 3.4219 6.125 0 3.6562-2.4688 5.6094-2.4531 1.9531-10.812 3.7656l-3.125 0.73438q-8.3438 1.75-12.062 5.3906-3.7031 3.6406-3.7031 9.9844 0 7.7188 5.4688 11.906 5.4688 4.2031 15.531 4.2031 4.9688 0 9.3594-0.73438 4.4062-0.71875 8.1094-2.1875z"/>
</defs>
<g transform="translate(54.297 867.44) scale(.1 -.1)">
<use xlink:href="#av"/>
<use x="29.492188" xlink:href="#d"/>
<use x="91.015625" xlink:href="#s"/>
<use x="154.492188" xlink:href="#d"/>
<use x="216.015625" xlink:href="#e"/>
<use x="279.394531" xlink:href="#ap"/>
<use x="314.599609" xlink:href="#j"/>
<use x="375.878906" xlink:href="#i"/>
<use x="403.662109" xlink:href="#i"/>
<use x="431.445312" xlink:href="#r"/>
</g>
</g>
<g clip-path="url(#a)">
<defs>
<path id="ag" d="m11.719 12.406h10.297v-8.4062l-8-15.625h-6.2969l4 15.625z"/>
</defs>
<g transform="translate(124.33 867.44) scale(.1 -.1)">
<use xlink:href="#ag"/>
</g>
</g>
<g clip-path="url(#a)">
<defs>
<path id="ay" d="m2.9844 54.688h9.5156l17.094-45.891 17.094 45.891h9.5156l-20.516-54.688h-12.203z"/>
<path id="ai" d="m45.406 27.984q0 9.7656-4.0312 15.125-4.0156 5.375-11.297 5.375-7.2188 0-11.25-5.375-4.0312-5.3594-4.0312-15.125 0-9.7188 4.0312-15.094t11.25-5.375q7.2812 0 11.297 5.375 4.0312 5.375 4.0312 15.094zm8.9844-21.203q0-13.953-6.2031-20.766-6.1875-6.8125-18.984-6.8125-4.7344 0-8.9375 0.70312t-8.1562 2.1719v8.7344q3.9531-2.1406 7.8125-3.1562 3.8594-1.0312 7.8594-1.0312 8.8438 0 13.234 4.6094t4.3906 13.938v4.4531q-2.7812-4.8438-7.125-7.2344t-10.406-2.3906q-10.047 0-16.203 7.6562-6.1562 7.6719-6.1562 20.328 0 12.688 6.1562 20.344 6.1562 7.6719 16.203 7.6719 6.0625 0 10.406-2.3906t7.125-7.2188v8.2969h8.9844z"/>
<path id="w" d="m48.781 52.594v-8.4062q-3.8125 2.1094-7.6406 3.1562t-7.7344 1.0469q-8.75 0-13.594-5.5469-4.8281-5.5312-4.8281-15.547t4.8281-15.562q4.8438-5.5312 13.594-5.5312 3.9062 0 7.7344 1.0469t7.6406 3.1562v-8.3125q-3.7656-1.75-7.7969-2.625-4.0156-0.89062-8.5625-0.89062-12.359 0-19.641 7.7656-7.2656 7.7656-7.2656 20.953 0 13.375 7.3438 21.031 7.3594 7.6719 20.156 7.6719 4.1406 0 8.0938-0.85938 3.9531-0.84375 7.6719-2.5469z"/>
<path id="ac" d="m54.891 33.016v-33.016h-8.9844v32.719q0 7.7656-3.0312 11.609-3.0312 3.8594-9.0781 3.8594-7.2812 0-11.484-4.6406-4.2031-4.625-4.2031-12.641v-30.906h-9.0312v75.984h9.0312v-29.797q3.2344 4.9375 7.5938 7.375 4.375 2.4375 10.094 2.4375 9.4219 0 14.25-5.8281 4.8438-5.8281 4.8438-17.156z"/>
</defs>
<g transform="translate(153.41 867.44) scale(.1 -.1)">
<use xlink:href="#ay"/>
<use x="59.179688" xlink:href="#d"/>
<use x="120.703125" xlink:href="#h"/>
<use x="161.800781" xlink:href="#ai"/>
<use x="225.277344" xlink:href="#i"/>
<use x="253.060547" xlink:href="#f"/>
<use x="280.84375" xlink:href="#w"/>
<use x="335.824219" xlink:href="#ac"/>
</g>
</g>
<g clip-path="url(#a)">
<g transform="translate(213.51 867.44) scale(.1 -.1)">
<use xlink:href="#f"/>
<use x="27.783203" xlink:href="#w"/>
<use x="82.763672" xlink:href="#ac"/>
</g>
</g>
<g clip-path="url(#a)">
<g transform="translate(254.94 867.44) scale(.1 -.1)">
<use xlink:href="#s"/>
<use x="63.476562" xlink:href="#f"/>
<use x="91.259766" xlink:href="#d"/>
<use x="152.783203" xlink:href="#r"/>
<use x="204.882812" xlink:href="#d"/>
</g>
</g>
<g clip-path="url(#a)">
<g transform="translate(303.09 867.44) scale(.1 -.1)">
<use xlink:href="#y"/>
<use x="60.255859" xlink:href="#d"/>
<use x="121.779297" xlink:href="#h"/>
<use x="162.892578" xlink:href="#i"/>
<use x="190.675781" xlink:href="#d"/>
</g>
</g>
<g clip-path="url(#a)">
<defs>
<path id="q" d="m18.312 70.219v-15.531h18.5v-6.9844h-18.5v-29.688q0-6.6875 1.8281-8.5938t7.4531-1.9062h9.2188v-7.5156h-9.2188q-10.406 0-14.359 3.875-3.9531 3.8906-3.9531 14.141v29.688h-6.5938v6.9844h6.5938v15.531z"/>
</defs>
<g transform="translate(354.93 867.44) scale(.1 -.1)">
<use xlink:href="#k"/>
<use x="97.412109" xlink:href="#f"/>
<use x="125.195312" xlink:href="#q"/>
</g>
</g>
<g clip-path="url(#a)">
<g transform="translate(401.18 867.44) scale(.1 -.1)">
<use xlink:href="#s"/>
<use x="63.476562" xlink:href="#d"/>
<use x="125" xlink:href="#e"/>
</g>
</g>
<g clip-path="url(#a)">
<g transform="translate(449.73 867.44) scale(.1 -.1)">
<use xlink:href="#k"/>
<use x="97.412109" xlink:href="#f"/>
<use x="125.195312" xlink:href="#h"/>
</g>
</g>
<g clip-path="url(#a)">
<defs>
<path id="aj" d="m48.688 27.297q0 9.9062-4.0781 15.547t-11.203 5.6406q-7.1406 0-11.219-5.6406t-4.0781-15.547 4.0781-15.547 11.219-5.6406q7.125 0 11.203 5.6406t4.0781 15.547zm-30.578 19.094q2.8438 4.875 7.1562 7.2344 4.3281 2.375 10.328 2.375 9.9688 0 16.188-7.9062 6.2344-7.9062 6.2344-20.797t-6.2344-20.812q-6.2188-7.9062-16.188-7.9062-6 0-10.328 2.375-4.3125 2.375-7.1562 7.25v-8.2031h-9.0312v75.984h9.0312z"/>
</defs>
<g transform="translate(488.15 867.44) scale(.1 -.1)">
<use xlink:href="#aj"/>
<use x="63.476562" xlink:href="#d"/>
<use x="125" xlink:href="#h"/>
<use x="166.082031" xlink:href="#d"/>
<use x="227.605469" xlink:href="#f"/>
<use x="255.388672" xlink:href="#q"/>
<use x="294.597656" xlink:href="#r"/>
</g>
</g>
<g clip-path="url(#a)">
<defs>
<path id="ba" d="m9.0781 75.984h9.0312v-44.875l26.812 23.578h11.469l-29-25.578 30.234-29.109h-11.719l-27.797 26.703v-26.703h-9.0312z"/>
</defs>
<g transform="translate(526.18 867.44) scale(.1 -.1)">
<use xlink:href="#aj"/>
<use x="63.476562" xlink:href="#d"/>
<use x="125" xlink:href="#ba"/>
<use x="182.894531" xlink:href="#j"/>
<use x="244.173828" xlink:href="#e"/>
<use x="307.552734" xlink:href="#e"/>
<use x="370.931641" xlink:href="#q"/>
<use x="410.140625" xlink:href="#d"/>
<use x="471.664062" xlink:href="#e"/>
</g>
</g>
<g clip-path="url(#a)">
<g transform="translate(598.79 867.44) scale(.1 -.1)">
<use xlink:href="#ag"/>
</g>
</g>
<g clip-path="url(#a)">
<g transform="translate(639.61 867.44) scale(.1 -.1)">
<use xlink:href="#k"/>
<use x="97.412109" xlink:href="#f"/>
<use x="125.195312" xlink:href="#q"/>
</g>
</g>
<g clip-path="url(#a)">
<g transform="translate(679.61 867.44) scale(.1 -.1)">
<use xlink:href="#s"/>
<use x="63.476562" xlink:href="#d"/>
<use x="125" xlink:href="#e"/>
<use x="188.378906" xlink:href="#d"/>
<use x="249.902344" xlink:href="#e"/>
</g>
</g>
<g clip-path="url(#a)">
<g transform="translate(741.13 867.44) scale(.1 -.1)">
<use xlink:href="#ag"/>
</g>
</g>
<g clip-path="url(#a)">
<g transform="translate(782.52 867.44) scale(.1 -.1)">
<use xlink:href="#s"/>
<use x="63.476562" xlink:href="#f"/>
<use x="91.259766" xlink:href="#d"/>
</g>
</g>
<g clip-path="url(#a)">
<g transform="translate(833.05 867.44) scale(.1 -.1)">
<use xlink:href="#f"/>
<use x="27.783203" xlink:href="#e"/>
</g>
</g>
<g clip-path="url(#a)">
<g transform="translate(876.75 867.44) scale(.1 -.1)">
<use xlink:href="#s"/>
<use x="63.476562" xlink:href="#d"/>
<use x="125" xlink:href="#h"/>
</g>
</g>
<g clip-path="url(#a)">
<defs>
<path id="ar" d="m53.516 70.516v-9.625q-5.6094 2.6875-10.594 4-4.9844 1.3281-9.625 1.3281-8.0469 0-12.422-3.125t-4.375-8.8906q0-4.8438 2.9062-7.3125 2.9062-2.4531 11.016-3.9688l5.9531-1.2188q11.031-2.1094 16.281-7.4062t5.25-14.172q0-10.609-7.1094-16.078-7.0938-5.4688-20.812-5.4688-5.1719 0-11.016 1.1719-5.8281 1.1719-12.078 3.4688v10.156q6-3.3594 11.766-5.0781 5.7656-1.7031 11.328-1.7031 8.4375 0 13.031 3.3125 4.5938 3.3281 4.5938 9.4844 0 5.3594-3.2969 8.3906t-10.812 4.5469l-6.0156 1.1719q-11.031 2.1875-15.969 6.875-4.9219 4.6875-4.9219 13.047 0 9.6719 6.8125 15.234t18.766 5.5625q5.1406 0 10.453-0.9375 5.3281-0.92188 10.891-2.7656z"/>
<path id="an" d="m8.5 21.578v33.109h8.9844v-32.766q0-7.7656 3.0156-11.656 3.0312-3.875 9.0938-3.875 7.2656 0 11.484 4.6406 4.2344 4.6406 4.2344 12.656v31h8.9844v-54.688h-8.9844v8.4062q-3.2656-4.9844-7.5938-7.4062-4.3125-2.4219-10.031-2.4219-9.4219 0-14.312 5.8594-4.875 5.8594-4.875 17.141z"/>
</defs>
<g transform="translate(905.62 867.44) scale(.1 -.1)">
<use xlink:href="#ar"/>
<use x="63.476562" xlink:href="#j"/>
<use x="124.755859" xlink:href="#k"/>
<use x="222.167969" xlink:href="#k"/>
<use x="319.580078" xlink:href="#i"/>
<use x="347.363281" xlink:href="#an"/>
<use x="410.742188" xlink:href="#e"/>
<use x="474.121094" xlink:href="#ai"/>
</g>
</g>
<g clip-path="url(#a)">
<g transform="translate(971.09 867.44) scale(.1 -.1)">
<use xlink:href="#s"/>
<use x="63.476562" xlink:href="#d"/>
<use x="125" xlink:href="#r"/>
</g>
</g>
<g clip-path="url(#a)">
<defs>
<path id="au" d="m9.8125 72.906h9.8594v-30.812l32.719 30.812h12.703l-36.188-33.984 38.766-38.922h-12.984l-35.016 35.109v-35.109h-9.8594z"/>
<path id="az" d="m18.109 8.2031v-29h-9.0312v75.484h9.0312v-8.2969q2.8438 4.875 7.1562 7.2344 4.3281 2.375 10.328 2.375 9.9688 0 16.188-7.9062 6.2344-7.9062 6.2344-20.797t-6.2344-20.812q-6.2188-7.9062-16.188-7.9062-6 0-10.328 2.375-4.3125 2.375-7.1562 7.25zm30.578 19.094q0 9.9062-4.0781 15.547t-11.203 5.6406q-7.1406 0-11.219-5.6406t-4.0781-15.547 4.0781-15.547 11.219-5.6406q7.125 0 11.203 5.6406t4.0781 15.547z"/>
<path id="ah" d="m34.281 27.484q-10.891 0-15.094-2.4844t-4.2031-8.5q0-4.7812 3.1562-7.5938 3.1562-2.7969 8.5625-2.7969 7.4844 0 12 5.2969t4.5156 14.078v2zm17.922 3.7188v-31.203h-8.9844v8.2969q-3.0781-4.9688-7.6719-7.3438t-11.234-2.375q-8.3906 0-13.359 4.7188-4.9531 4.7188-4.9531 12.625 0 9.2188 6.1719 13.906 6.1875 4.6875 18.438 4.6875h12.609v0.89062q0 6.2031-4.0781 9.5938t-11.453 3.3906q-4.6875 0-9.1406-1.125-4.4375-1.125-8.5312-3.375v8.3125q4.9219 1.9062 9.5625 2.8438 4.6406 0.95312 9.0312 0.95312 11.875 0 17.734-6.1562 5.8594-6.1406 5.8594-18.641zm-18.609 44.578h9.9062v-9.8594h-9.9062zm-19.094 0h9.9062v-9.8594h-9.9062z"/>
</defs>
<g transform="translate(1005.7 867.44) scale(.1 -.1)">
<use xlink:href="#au"/>
<use x="65.560547" xlink:href="#j"/>
<use x="126.839844" xlink:href="#az"/>
<use x="190.316406" xlink:href="#f"/>
<use x="218.099609" xlink:href="#q"/>
<use x="257.308594" xlink:href="#ah"/>
<use x="318.587891" xlink:href="#e"/>
<use x="381.966797" xlink:href="#r"/>
</g>
</g>
<g clip-path="url(#a)">
<defs>
<path id="am" d="m5.5156 54.688h42.672v-8.2031l-33.781-39.312h33.781v-7.1719h-43.891v8.2031l33.797 39.312h-32.578z"/>
</defs>
<g transform="translate(1053.2 867.44) scale(.1 -.1)">
<use xlink:href="#ai"/>
<use x="63.476562" xlink:href="#i"/>
<use x="91.259766" xlink:href="#ah"/>
<use x="152.539062" xlink:href="#e"/>
<use x="215.917969" xlink:href="#am"/>
<use x="268.408203" xlink:href="#q"/>
<use x="307.617188" xlink:href="#d"/>
<use x="369.140625" xlink:href="#e"/>
</g>
</g>
<g clip-path="url(#a)">
<g transform="translate(1120.7 867.44) scale(.1 -.1)">
<use xlink:href="#ag"/>
</g>
</g>
<g clip-path="url(#a)">
<defs>
<path id="ao" d="m30.609 48.391q-7.2188 0-11.422-5.6406t-4.2031-15.453 4.1719-15.453q4.1875-5.6406 11.453-5.6406 7.1875 0 11.375 5.6562 4.2031 5.6719 4.2031 15.438 0 9.7188-4.2031 15.406-4.1875 5.6875-11.375 5.6875zm0 7.6094q11.719 0 18.406-7.625 6.7031-7.6094 6.7031-21.078 0-13.422-6.7031-21.078-6.6875-7.6406-18.406-7.6406-11.766 0-18.438 7.6406-6.6562 7.6562-6.6562 21.078 0 13.469 6.6562 21.078 6.6719 7.625 18.438 7.625z"/>
</defs>
<g transform="translate(1164.1 867.44) scale(.1 -.1)">
<use xlink:href="#r"/>
<use x="52.099609" xlink:href="#ao"/>
</g>
</g>
<g clip-path="url(#a)">
<g transform="translate(1196 867.44) scale(.1 -.1)">
<use xlink:href="#r"/>
<use x="52.099609" xlink:href="#w"/>
<use x="107.080078" xlink:href="#ac"/>
<use x="170.458984" xlink:href="#ah"/>
<use x="231.738281" xlink:href="#q"/>
<use x="270.947266" xlink:href="#am"/>
<use x="323.4375" xlink:href="#q"/>
<use x="362.646484" xlink:href="#d"/>
</g>
</g>
<g clip-path="url(#a)">
<g transform="translate(1257.3 867.44) scale(.1 -.1)">
<use xlink:href="#f"/>
<use x="27.783203" xlink:href="#w"/>
<use x="82.763672" xlink:href="#ac"/>
</g>
</g>
<g clip-path="url(#a)">
<g transform="translate(1299.2 867.44) scale(.1 -.1)">
<use xlink:href="#f"/>
<use x="27.783203" xlink:href="#ac"/>
<use x="91.162109" xlink:href="#h"/>
<use x="132.244141" xlink:href="#d"/>
<use x="193.767578" xlink:href="#e"/>
</g>
</g>
<g clip-path="url(#a)">
<defs>
<path id="aq" d="m3.3281 72.906h9.9531l15.328-61.625 15.281 61.625h11.094l15.328-61.625 15.281 61.625h10.016l-18.312-72.906h-12.406l-15.375 63.281-15.531-63.281h-12.406z"/>
</defs>
<g transform="translate(1347.5 867.44) scale(.1 -.1)">
<use xlink:href="#aq"/>
<use x="98.798828" xlink:href="#d"/>
<use x="160.322266" xlink:href="#h"/>
<use x="201.435547" xlink:href="#q"/>
</g>
</g>
<g clip-path="url(#a)">
<g transform="translate(1399 867.44) scale(.1 -.1)">
<use xlink:href="#j"/>
<use x="61.279297" xlink:href="#an"/>
<use x="124.658203" xlink:href="#ap"/>
</g>
</g>
<g clip-path="url(#a)">
<g transform="translate(1425.3 867.44) scale(.1 -.1)">
<use xlink:href="#k"/>
<use x="97.412109" xlink:href="#f"/>
<use x="125.195312" xlink:href="#e"/>
<use x="188.574219" xlink:href="#s"/>
<use x="252.050781" xlink:href="#d"/>
<use x="313.574219" xlink:href="#r"/>
<use x="365.673828" xlink:href="#q"/>
<use x="404.882812" xlink:href="#d"/>
<use x="466.40625" xlink:href="#e"/>
<use x="529.785156" xlink:href="#r"/>
</g>
</g>
<g clip-path="url(#a)">
<defs>
<path id="c" d="m12.406 8.2969h16.109v55.625l-17.531-3.5156v8.9844l17.438 3.5156h9.8594v-64.609h16.109v-8.2969h-41.984z"/>
<path id="ab" d="m31.781 66.406q-7.6094 0-11.453-7.5-3.8281-7.4844-3.8281-22.531 0-14.984 3.8281-22.484 3.8438-7.5 11.453-7.5 7.6719 0 11.5 7.5 3.8438 7.5 3.8438 22.484 0 15.047-3.8438 22.531-3.8281 7.5-11.5 7.5zm0 7.8125q12.266 0 18.734-9.7031 6.4688-9.6875 6.4688-28.141 0-18.406-6.4688-28.109-6.4688-9.6875-18.734-9.6875-12.25 0-18.719 9.6875-6.4688 9.7031-6.4688 28.109 0 18.453 6.4688 28.141 6.4688 9.7031 18.719 9.7031z"/>
</defs>
<g transform="translate(1495.5 867.44) scale(.1 -.1)">
<use xlink:href="#c"/>
<use x="63.623047" xlink:href="#ab"/>
</g>
</g>
<g clip-path="url(#a)">
<defs>
<path id="as" d="m9.8125 72.906h14.703l18.594-49.609 18.703 49.609h14.703v-72.906h-9.625v64.016l-18.797-50h-9.9062l-18.797 50v-64.016h-9.5781z"/>
</defs>
<g transform="translate(1527 867.44) scale(.1 -.1)">
<use xlink:href="#as"/>
<use x="86.279297" xlink:href="#f"/>
<use x="114.0625" xlink:href="#i"/>
<use x="141.845703" xlink:href="#i"/>
<use x="169.628906" xlink:href="#f"/>
<use x="197.412109" xlink:href="#ao"/>
<use x="258.59375" xlink:href="#e"/>
<use x="321.972656" xlink:href="#d"/>
<use x="383.496094" xlink:href="#e"/>
</g>
</g>
<g clip-path="url(#a)">
<defs>
<path id="ax" d="m9.8125 72.906h41.891v-8.3125h-32.031v-21.484h28.906v-8.2969h-28.906v-34.812h-9.8594z"/>
</defs>
<g transform="translate(1582.8 867.44) scale(.1 -.1)">
<use xlink:href="#ax"/>
<use x="57.410156" xlink:href="#h"/>
<use x="98.523438" xlink:href="#j"/>
<use x="159.802734" xlink:href="#e"/>
<use x="223.181641" xlink:href="#w"/>
</g>
</g>
<g clip-path="url(#a)">
<defs>
<path id="g" d="m10.688 12.406h10.312v-12.406h-10.312z"/>
</defs>
<g transform="translate(1642.6 867.44) scale(.1 -.1)">
<use xlink:href="#g"/>
</g>
</g>
<g clip-path="url(#a)">
<g transform="translate(988.33 44.746) scale(.1 -.1)">
<use xlink:href="#c"/>
<use x="63.623047" xlink:href="#g"/>
<use x="95.410156" xlink:href="#c"/>
</g>
</g>
<g clip-path="url(#a)">
<defs>
<path id="p" d="m19.188 8.2969h34.422v-8.2969h-46.281v8.2969q5.6094 5.8125 15.297 15.594 9.7031 9.7969 12.188 12.641 4.7344 5.3125 6.6094 9 1.8906 3.6875 1.8906 7.25 0 5.8125-4.0781 9.4688-4.0781 3.6719-10.625 3.6719-4.6406 0-9.7969-1.6094-5.1406-1.6094-11-4.8906v9.9688q5.9531 2.3906 11.125 3.6094 5.1875 1.2188 9.4844 1.2188 11.328 0 18.062-5.6719 6.7344-5.6562 6.7344-15.125 0-4.5-1.6875-8.5312-1.6719-4.0156-6.125-9.4844-1.2188-1.4219-7.7656-8.1875-6.5312-6.7656-18.453-18.922z"/>
</defs>
<g transform="translate(322.07 170.24) scale(.1 -.1)">
<use xlink:href="#c"/>
<use x="63.623047" xlink:href="#g"/>
<use x="95.410156" xlink:href="#p"/>
</g>
</g>
<g clip-path="url(#a)">
<defs>
<path id="n" d="m40.578 39.312q7.0781-1.5156 11.047-6.3125 3.9844-4.7812 3.9844-11.812 0-10.781-7.4219-16.703-7.4219-5.9062-21.094-5.9062-4.5781 0-9.4375 0.90625t-10.031 2.7188v9.5156q4.0938-2.3906 8.9688-3.6094 4.8906-1.2188 10.219-1.2188 9.2656 0 14.125 3.6562t4.8594 10.641q0 6.4531-4.5156 10.078-4.5156 3.6406-12.562 3.6406h-8.5v8.1094h8.8906q7.2656 0 11.125 2.9062t3.8594 8.375q0 5.6094-3.9844 8.6094-3.9688 3.0156-11.391 3.0156-4.0625 0-8.7031-0.89062-4.6406-0.875-10.203-2.7188v8.7812q5.625 1.5625 10.531 2.3438t9.25 0.78125q11.234 0 17.766-5.1094 6.5469-5.0938 6.5469-13.781 0-6.0625-3.4688-10.234t-9.8594-5.7812z"/>
</defs>
<g transform="translate(1161.8 754.77) scale(.1 -.1)">
<use xlink:href="#c"/>
<use x="63.623047" xlink:href="#g"/>
<use x="95.410156" xlink:href="#n"/>
</g>
</g>
<g clip-path="url(#a)">
<defs>
<path id="m" d="m37.797 64.312-24.906-38.922h24.906zm-2.5938 8.5938h12.406v-47.516h10.406v-8.2031h-10.406v-17.188h-9.8125v17.188h-32.906v9.5156z"/>
</defs>
<g transform="translate(1355.1 527.87) scale(.1 -.1)">
<use xlink:href="#c"/>
<use x="63.623047" xlink:href="#g"/>
<use x="95.410156" xlink:href="#m"/>
</g>
</g>
<g clip-path="url(#a)">
<defs>
<path id="aa" d="m8.2031 72.906h46.875v-4.2031l-26.469-68.703h-10.297l24.906 64.594h-35.016z"/>
</defs>
<g transform="translate(1209.2 754.77) scale(.1 -.1)">
<use xlink:href="#c"/>
<use x="63.623047" xlink:href="#g"/>
<use x="95.410156" xlink:href="#aa"/>
</g>
</g>
<g clip-path="url(#a)">
<defs>
<path id="ad" d="m31.781 34.625q-7.0312 0-11.062-3.7656-4.0156-3.7656-4.0156-10.344 0-6.5938 4.0156-10.359 4.0312-3.7656 11.062-3.7656t11.078 3.7812q4.0625 3.7969 4.0625 10.344 0 6.5781-4.0312 10.344-4.0156 3.7656-11.109 3.7656zm-9.8594 4.1875q-6.3438 1.5625-9.8906 5.9062-3.5312 4.3594-3.5312 10.609 0 8.7344 6.2188 13.812 6.2344 5.0781 17.062 5.0781 10.891 0 17.094-5.0781t6.2031-13.812q0-6.25-3.5469-10.609-3.5312-4.3438-9.8281-5.9062 7.125-1.6562 11.094-6.5 3.9844-4.8281 3.9844-11.797 0-10.609-6.4688-16.281-6.4688-5.6562-18.531-5.6562-12.047 0-18.531 5.6562-6.4688 5.6719-6.4688 16.281 0 6.9688 4 11.797 4.0156 4.8438 11.141 6.5zm-3.6094 15.578q0-5.6562 3.5312-8.8281 3.5469-3.1719 9.9375-3.1719 6.3594 0 9.9375 3.1719 3.5938 3.1719 3.5938 8.8281 0 5.6719-3.5938 8.8438-3.5781 3.1719-9.9375 3.1719-6.3906 0-9.9375-3.1719-3.5312-3.1719-3.5312-8.8438z"/>
</defs>
<g transform="translate(1256.7 754.77) scale(.1 -.1)">
<use xlink:href="#c"/>
<use x="63.623047" xlink:href="#g"/>
<use x="95.410156" xlink:href="#ad"/>
</g>
</g>
<g clip-path="url(#a)">
<defs>
<path id="z" d="m10.984 1.5156v8.9844q3.7188-1.7656 7.5156-2.6875 3.8125-0.92188 7.4844-0.92188 9.7656 0 14.906 6.5625 5.1562 6.5625 5.8906 19.953-2.8281-4.2031-7.1875-6.4531-4.3438-2.25-9.6094-2.25-10.938 0-17.312 6.6094-6.375 6.625-6.375 18.109 0 11.219 6.6406 18 6.6406 6.7969 17.672 6.7969 12.656 0 19.312-9.7031 6.6719-9.6875 6.6719-28.141 0-17.234-8.1875-27.516-8.1719-10.281-21.984-10.281-3.7188 0-7.5312 0.73438-3.7969 0.73438-7.9062 2.2031zm19.625 30.906q6.6406 0 10.516 4.5312 3.8906 4.5469 3.8906 12.469 0 7.8594-3.8906 12.422-3.875 4.5625-10.516 4.5625t-10.516-4.5625-3.875-12.422q0-7.9219 3.875-12.469 3.875-4.5312 10.516-4.5312z"/>
</defs>
<g transform="translate(1327.8 642.11) scale(.1 -.1)">
<use xlink:href="#c"/>
<use x="63.623047" xlink:href="#g"/>
<use x="95.410156" xlink:href="#z"/>
</g>
</g>
<g clip-path="url(#a)">
<g transform="translate(1532.2 642.11) scale(.1 -.1)">
<use xlink:href="#c"/>
<use x="63.623047" xlink:href="#g"/>
<use x="95.410156" xlink:href="#c"/>
<use x="159.033203" xlink:href="#ab"/>
</g>
</g>
<g clip-path="url(#a)">
<g transform="translate(1443.3 754.77) scale(.1 -.1)">
<use xlink:href="#c"/>
<use x="63.623047" xlink:href="#g"/>
<use x="95.410156" xlink:href="#c"/>
<use x="159.033203" xlink:href="#c"/>
</g>
</g>
<g clip-path="url(#a)">
<g transform="translate(1395.8 754.77) scale(.1 -.1)">
<use xlink:href="#c"/>
<use x="63.623047" xlink:href="#g"/>
<use x="95.410156" xlink:href="#c"/>
<use x="159.033203" xlink:href="#p"/>
</g>
</g>
<g clip-path="url(#a)">
<g transform="translate(1514.4 754.77) scale(.1 -.1)">
<use xlink:href="#c"/>
<use x="63.623047" xlink:href="#g"/>
<use x="95.410156" xlink:href="#c"/>
<use x="159.033203" xlink:href="#n"/>
</g>
</g>
<g clip-path="url(#a)">
<g transform="translate(1585.6 754.77) scale(.1 -.1)">
<use xlink:href="#c"/>
<use x="63.623047" xlink:href="#g"/>
<use x="95.410156" xlink:href="#c"/>
<use x="159.033203" xlink:href="#m"/>
</g>
</g>
<g clip-path="url(#a)">
<defs>
<path id="af" d="m10.797 72.906h38.719v-8.3125h-29.688v-17.859q2.1406 0.73438 4.2812 1.0938 2.1562 0.35938 4.3125 0.35938 12.203 0 19.328-6.6875 7.1406-6.6875 7.1406-18.109 0-11.766-7.3281-18.297-7.3281-6.5156-20.656-6.5156-4.5938 0-9.3594 0.78125-4.75 0.78125-9.8281 2.3438v9.9219q4.3906-2.3906 9.0781-3.5625t9.9062-1.1719q8.4531 0 13.375 4.4375 4.9375 4.4375 4.9375 12.062 0 7.6094-4.9375 12.047-4.9219 4.4531-13.375 4.4531-3.9531 0-7.8906-0.875-3.9219-0.875-8.0156-2.7344z"/>
</defs>
<g transform="translate(1300.9 754.77) scale(.1 -.1)">
<use xlink:href="#c"/>
<use x="63.623047" xlink:href="#g"/>
<use x="95.410156" xlink:href="#c"/>
<use x="159.033203" xlink:href="#af"/>
</g>
</g>
<g clip-path="url(#a)">
<defs>
<path id="ae" d="m33.016 40.375q-6.6406 0-10.531-4.5469-3.875-4.5312-3.875-12.438 0-7.8594 3.875-12.438 3.8906-4.5625 10.531-4.5625t10.516 4.5625q3.875 4.5781 3.875 12.438 0 7.9062-3.875 12.438-3.875 4.5469-10.516 4.5469zm19.578 30.922v-8.9844q-3.7188 1.75-7.5 2.6719-3.7812 0.9375-7.5 0.9375-9.7656 0-14.922-6.5938-5.1406-6.5938-5.875-19.922 2.875 4.25 7.2188 6.5156 4.3594 2.2656 9.5781 2.2656 10.984 0 17.359-6.6719 6.375-6.6562 6.375-18.125 0-11.234-6.6406-18.031-6.6406-6.7812-17.672-6.7812-12.656 0-19.344 9.6875-6.6875 9.7031-6.6875 28.109 0 17.281 8.2031 27.562t22.016 10.281q3.7188 0 7.5-0.73438t7.8906-2.1875z"/>
</defs>
<g transform="translate(1348.4 754.77) scale(.1 -.1)">
<use xlink:href="#c"/>
<use x="63.623047" xlink:href="#g"/>
<use x="95.410156" xlink:href="#c"/>
<use x="159.033203" xlink:href="#ae"/>
</g>
</g>
<g clip-path="url(#a)">
<g transform="translate(67.342 754.77) scale(.1 -.1)">
<use xlink:href="#c"/>
<use x="63.623047" xlink:href="#g"/>
<use x="95.410156" xlink:href="#c"/>
<use x="159.033203" xlink:href="#aa"/>
</g>
</g>
<g clip-path="url(#a)">
<g transform="translate(162.23 754.77) scale(.1 -.1)">
<use xlink:href="#c"/>
<use x="63.623047" xlink:href="#g"/>
<use x="95.410156" xlink:href="#c"/>
<use x="159.033203" xlink:href="#ad"/>
</g>
</g>
<g clip-path="url(#a)">
<g transform="translate(209.68 754.77) scale(.1 -.1)">
<use xlink:href="#c"/>
<use x="63.623047" xlink:href="#g"/>
<use x="95.410156" xlink:href="#c"/>
<use x="159.033203" xlink:href="#z"/>
</g>
</g>
<g clip-path="url(#a)">
<g transform="translate(280.85 642.11) scale(.1 -.1)">
<use xlink:href="#c"/>
<use x="63.623047" xlink:href="#g"/>
<use x="95.410156" xlink:href="#p"/>
<use x="159.033203" xlink:href="#ab"/>
</g>
</g>
<g clip-path="url(#a)">
<g transform="translate(423.19 642.11) scale(.1 -.1)">
<use xlink:href="#c"/>
<use x="63.623047" xlink:href="#g"/>
<use x="95.410156" xlink:href="#p"/>
<use x="159.033203" xlink:href="#c"/>
</g>
</g>
<g clip-path="url(#a)">
<g transform="translate(703.79 292.35) scale(.1 -.1)">
<use xlink:href="#c"/>
<use x="63.623047" xlink:href="#g"/>
<use x="95.410156" xlink:href="#p"/>
<use x="159.033203" xlink:href="#p"/>
</g>
</g>
<g clip-path="url(#a)">
<g transform="translate(636.69 754.77) scale(.1 -.1)">
<use xlink:href="#c"/>
<use x="63.623047" xlink:href="#g"/>
<use x="95.410156" xlink:href="#p"/>
<use x="159.033203" xlink:href="#af"/>
</g>
</g>
<g clip-path="url(#a)">
<g transform="translate(684.14 754.77) scale(.1 -.1)">
<use xlink:href="#c"/>
<use x="63.623047" xlink:href="#g"/>
<use x="95.410156" xlink:href="#p"/>
<use x="159.033203" xlink:href="#ae"/>
</g>
</g>
<g clip-path="url(#a)">
<g transform="translate(762.72 411.44) scale(.1 -.1)">
<use xlink:href="#c"/>
<use x="63.623047" xlink:href="#g"/>
<use x="95.410156" xlink:href="#p"/>
<use x="159.033203" xlink:href="#aa"/>
</g>
</g>
<g clip-path="url(#a)">
<g transform="translate(779.03 754.77) scale(.1 -.1)">
<use xlink:href="#c"/>
<use x="63.623047" xlink:href="#g"/>
<use x="95.410156" xlink:href="#p"/>
<use x="159.033203" xlink:href="#z"/>
</g>
</g>
<g clip-path="url(#a)">
<g transform="translate(903.58 527.87) scale(.1 -.1)">
<use xlink:href="#c"/>
<use x="63.623047" xlink:href="#g"/>
<use x="95.410156" xlink:href="#n"/>
<use x="159.033203" xlink:href="#ab"/>
</g>
</g>
<g clip-path="url(#a)">
<g transform="translate(1063.7 754.77) scale(.1 -.1)">
<use xlink:href="#c"/>
<use x="63.623047" xlink:href="#g"/>
<use x="95.410156" xlink:href="#n"/>
<use x="159.033203" xlink:href="#c"/>
</g>
</g>
<g clip-path="url(#a)">
<g transform="translate(826.48 754.77) scale(.1 -.1)">
<use xlink:href="#c"/>
<use x="63.623047" xlink:href="#g"/>
<use x="95.410156" xlink:href="#n"/>
<use x="159.033203" xlink:href="#p"/>
</g>
</g>
<g clip-path="url(#a)">
<g transform="translate(873.92 754.77) scale(.1 -.1)">
<use xlink:href="#c"/>
<use x="63.623047" xlink:href="#g"/>
<use x="95.410156" xlink:href="#n"/>
<use x="159.033203" xlink:href="#n"/>
</g>
</g>
<g clip-path="url(#a)">
<g transform="translate(921.37 754.77) scale(.1 -.1)">
<use xlink:href="#c"/>
<use x="63.623047" xlink:href="#g"/>
<use x="95.410156" xlink:href="#n"/>
<use x="159.033203" xlink:href="#m"/>
</g>
</g>
<g clip-path="url(#a)">
<g transform="translate(992.54 642.11) scale(.1 -.1)">
<use xlink:href="#c"/>
<use x="63.623047" xlink:href="#g"/>
<use x="95.410156" xlink:href="#n"/>
<use x="159.033203" xlink:href="#af"/>
</g>
</g>
<g clip-path="url(#a)">
<g transform="translate(968.82 754.77) scale(.1 -.1)">
<use xlink:href="#c"/>
<use x="63.623047" xlink:href="#g"/>
<use x="95.410156" xlink:href="#n"/>
<use x="159.033203" xlink:href="#ae"/>
</g>
</g>
<g clip-path="url(#a)">
<g transform="translate(1016.3 754.77) scale(.1 -.1)">
<use xlink:href="#c"/>
<use x="63.623047" xlink:href="#g"/>
<use x="95.410156" xlink:href="#n"/>
<use x="159.033203" xlink:href="#aa"/>
</g>
</g>
<g clip-path="url(#a)">
<g transform="translate(352.02 754.77) scale(.1 -.1)">
<use xlink:href="#c"/>
<use x="63.623047" xlink:href="#g"/>
<use x="95.410156" xlink:href="#n"/>
<use x="159.033203" xlink:href="#ad"/>
</g>
</g>
<g clip-path="url(#a)">
<g transform="translate(399.46 754.77) scale(.1 -.1)">
<use xlink:href="#c"/>
<use x="63.623047" xlink:href="#g"/>
<use x="95.410156" xlink:href="#n"/>
<use x="159.033203" xlink:href="#z"/>
</g>
</g>
<g clip-path="url(#a)">
<g transform="translate(446.91 754.77) scale(.1 -.1)">
<use xlink:href="#c"/>
<use x="63.623047" xlink:href="#g"/>
<use x="95.410156" xlink:href="#m"/>
<use x="159.033203" xlink:href="#ab"/>
</g>
</g>
<g clip-path="url(#a)">
<g transform="translate(494.36 754.77) scale(.1 -.1)">
<use xlink:href="#c"/>
<use x="63.623047" xlink:href="#g"/>
<use x="95.410156" xlink:href="#m"/>
<use x="159.033203" xlink:href="#c"/>
</g>
</g>
<g clip-path="url(#a)">
<g transform="translate(541.8 754.77) scale(.1 -.1)">
<use xlink:href="#c"/>
<use x="63.623047" xlink:href="#g"/>
<use x="95.410156" xlink:href="#m"/>
<use x="159.033203" xlink:href="#p"/>
</g>
</g>
<g clip-path="url(#a)">
<g transform="translate(257.13 754.77) scale(.1 -.1)">
<use xlink:href="#c"/>
<use x="63.623047" xlink:href="#g"/>
<use x="95.410156" xlink:href="#m"/>
<use x="159.033203" xlink:href="#n"/>
</g>
</g>
<g clip-path="url(#a)">
<g transform="translate(304.57 754.77) scale(.1 -.1)">
<use xlink:href="#c"/>
<use x="63.623047" xlink:href="#g"/>
<use x="95.410156" xlink:href="#m"/>
<use x="159.033203" xlink:href="#m"/>
</g>
</g>
<g clip-path="url(#a)">
<g transform="translate(114.79 754.77) scale(.1 -.1)">
<use xlink:href="#c"/>
<use x="63.623047" xlink:href="#g"/>
<use x="95.410156" xlink:href="#m"/>
<use x="159.033203" xlink:href="#af"/>
</g>
</g>
<g clip-path="url(#a)">
<g transform="translate(589.25 754.77) scale(.1 -.1)">
<use xlink:href="#c"/>
<use x="63.623047" xlink:href="#g"/>
<use x="95.410156" xlink:href="#m"/>
<use x="159.033203" xlink:href="#ae"/>
</g>
</g>
<g clip-path="url(#a)">
<g transform="translate(731.59 754.77) scale(.1 -.1)">
<use xlink:href="#c"/>
<use x="63.623047" xlink:href="#g"/>
<use x="95.410156" xlink:href="#m"/>
<use x="159.033203" xlink:href="#aa"/>
</g>
</g>
<g clip-path="url(#a)">
<g transform="translate(1111.2 754.77) scale(.1 -.1)">
<use xlink:href="#c"/>
<use x="63.623047" xlink:href="#g"/>
<use x="95.410156" xlink:href="#m"/>
<use x="159.033203" xlink:href="#ad"/>
</g>
</g>
<g clip-path="url(#a)">
<g transform="translate(1633.1 754.77) scale(.1 -.1)">
<use xlink:href="#c"/>
<use x="63.623047" xlink:href="#g"/>
<use x="95.410156" xlink:href="#m"/>
<use x="159.033203" xlink:href="#z"/>
</g>
</g>
<defs>
<clipPath id="a">
<rect width="1722.7" height="906.67"/>
</clipPath>
</defs>
</svg>
