<?xml version="1.0" encoding="UTF-8"?>
<!DOCTYPE svg  PUBLIC '-//W3C//DTD SVG 1.1//EN'  'http://www.w3.org/Graphics/SVG/1.1/DTD/svg11.dtd'>
<svg width="1418.7pt" height="746.67pt" version="1.1" viewBox="0 0 1418.7 746.67" xmlns="http://www.w3.org/2000/svg" xmlns:xlink="http://www.w3.org/1999/xlink">
<defs>
<style type="text/css">*{stroke-linecap:butt;stroke-linejoin:round;}</style>
</defs>
<path d="m0 746.67h1418.7v-746.67h-1418.7z" fill="#fff"/>
<g fill="none" stroke="#000">
<path d="m789.19 34.714-50.606 103.3" clip-path="url(#a)"/>
<path d="m789.19 34.714 76.941 203.83" clip-path="url(#a)"/>
<path d="m789.19 34.714 31.291 584.49" clip-path="url(#a)"/>
<path d="m789.19 34.714-57.626 584.49" clip-path="url(#a)"/>
<path d="m738.58 138.02 615.4 573.94" clip-path="url(#a)"/>
<path d="m738.58 138.02 570.94 573.94" clip-path="url(#a)"/>
<path d="m738.58 138.02-673.9 481.19" clip-path="url(#a)"/>
<path d="m738.58 138.02-512.44 100.53" clip-path="url(#a)"/>
<path d="m866.13 238.54-90.109 380.66" clip-path="url(#a)"/>
<path d="m866.13 238.54 90.109 98.031" clip-path="url(#a)"/>
<path d="m820.48 619.21v92.747" clip-path="url(#a)"/>
<path d="m776.02 619.21v92.747" clip-path="url(#a)"/>
<path d="m956.24 336.58 140.52 95.848" clip-path="url(#a)"/>
<path d="m956.24 336.58-91.299 282.63" clip-path="url(#a)"/>
<path d="m956.24 336.58-46.841 282.63" clip-path="url(#a)"/>
<path d="m956.24 336.58-2.3817 282.63" clip-path="url(#a)"/>
<path d="m1096.8 432.42-98.445 186.78" clip-path="url(#a)"/>
<path d="m1096.8 432.42-53.986 186.78" clip-path="url(#a)"/>
<path d="m1096.8 432.42-9.5269 186.78" clip-path="url(#a)"/>
<path d="m1096.8 432.42 57.161 94.037" clip-path="url(#a)"/>
<path d="m1096.8 432.42 123.85 186.78" clip-path="url(#a)"/>
<path d="m1096.8 432.42-187.36 186.78" clip-path="url(#a)" stroke-dasharray="3.7,1.6"/>
<path d="m1096.8 432.42 168.31 186.78" clip-path="url(#a)"/>
<path d="m998.32 619.21v92.747" clip-path="url(#a)"/>
<path d="m1042.8 619.21v92.747" clip-path="url(#a)"/>
<path d="m1087.2 619.21v92.747" clip-path="url(#a)"/>
<path d="m1153.9 526.46-22.229 92.747" clip-path="url(#a)"/>
<path d="m1153.9 526.46 22.229 92.747" clip-path="url(#a)"/>
<path d="m1220.6 619.21v92.747" clip-path="url(#a)"/>
<path d="m1131.7 619.21v92.747" clip-path="url(#a)"/>
<path d="m1176.2 619.21v92.747" clip-path="url(#a)"/>
<path d="m864.94 619.21v92.747" clip-path="url(#a)"/>
<path d="m909.4 619.21v92.747" clip-path="url(#a)"/>
<path d="m64.68 619.21v92.747" clip-path="url(#a)"/>
<path d="m226.14 238.54 201.25 98.031" clip-path="url(#a)"/>
<path d="m226.14 238.54-117 380.66" clip-path="url(#a)"/>
<path d="m226.14 238.54-72.542 380.66" clip-path="url(#a)"/>
<path d="m226.14 238.54-28.083 380.66" clip-path="url(#a)"/>
<path d="m226.14 238.54 16.376 380.66" clip-path="url(#a)"/>
<path d="m427.39 336.58-123.74 189.88" clip-path="url(#a)"/>
<path d="m427.39 336.58 37.42 282.63" clip-path="url(#a)"/>
<path d="m427.39 336.58 86.324 95.848" clip-path="url(#a)"/>
<path d="m303.65 526.46-16.672 92.747" clip-path="url(#a)"/>
<path d="m303.65 526.46 27.787 92.747" clip-path="url(#a)"/>
<path d="m303.65 526.46 94.475 92.747" clip-path="url(#a)"/>
<path d="m303.65 526.46-105.59 92.747" clip-path="url(#a)" stroke-dasharray="3.7,1.6"/>
<path d="m464.81 619.21v92.747" clip-path="url(#a)"/>
<path d="m513.71 432.42-4.4459 186.78" clip-path="url(#a)"/>
<path d="m513.71 432.42 40.013 186.78" clip-path="url(#a)"/>
<path d="m513.71 432.42 106.7 94.037" clip-path="url(#a)"/>
<path d="m513.71 432.42 173.39 186.78" clip-path="url(#a)"/>
<path d="m513.71 432.42-315.66 186.78" clip-path="url(#a)" stroke-dasharray="3.7,1.6"/>
<path d="m509.27 619.21v92.747" clip-path="url(#a)"/>
<path d="m553.73 619.21v92.747" clip-path="url(#a)"/>
<path d="m620.42 526.46-22.229 92.747" clip-path="url(#a)"/>
<path d="m620.42 526.46 22.229 92.747" clip-path="url(#a)"/>
<path d="m687.1 619.21v92.747" clip-path="url(#a)"/>
<path d="m598.19 619.21v92.747" clip-path="url(#a)"/>
<path d="m642.65 619.21v92.747" clip-path="url(#a)"/>
<path d="m286.97 619.21v92.747" clip-path="url(#a)"/>
<path d="m331.43 619.21v92.747" clip-path="url(#a)"/>
<path d="m398.12 619.21-22.229 92.747" clip-path="url(#a)"/>
<path d="m398.12 619.21 22.229 92.747" clip-path="url(#a)"/>
<path d="m109.14 619.21v92.747" clip-path="url(#a)"/>
<path d="m153.6 619.21v92.747" clip-path="url(#a)"/>
<path d="m198.06 619.21v92.747" clip-path="url(#a)"/>
<path d="m242.52 619.21v92.747" clip-path="url(#a)"/>
<path d="m731.56 619.21v92.747" clip-path="url(#a)"/>
<path d="m953.86 619.21v92.747" clip-path="url(#a)"/>
<path d="m1265.1 619.21v92.747" clip-path="url(#a)"/>
</g>
<path d="m768.19 91.826 2.6467-5.4028q1.0558-2.1553-1.0995-3.2111l-6.953-3.4061q-2.1553-1.0558-3.2111 1.0995l-2.6467 5.4028q-1.0558 2.1553 1.0995 3.2111l6.953 3.4061q2.1553 1.0558 3.2111-1.0995z" clip-path="url(#a)" fill="#fff" stroke="#fff"/>
<g clip-path="url(#a)">
<defs>
<path id="ao" d="m9.8125 72.906h9.8594v-29.891h35.844v29.891h9.8594v-72.906h-9.8594v34.719h-35.844v-34.719h-9.8594z"/>
</defs>
<g transform="translate(764.55 90.038) rotate(-63.901) scale(.08 -.08)">
<use xlink:href="#ao"/>
</g>
</g>
<path d="m820.73 136.03 2.1247 5.6286q0.84757 2.2454 3.0929 1.3978l7.2436-2.7343q2.2454-0.84757 1.3978-3.0929l-2.1247-5.6286q-0.84757-2.2454-3.0929-1.3978l-7.2436 2.7343q-2.2454 0.84757-1.3978 3.0929z" clip-path="url(#a)" fill="#fff" stroke="#fff"/>
<g clip-path="url(#a)">
<g transform="translate(824.53 134.59) rotate(69.32) scale(.08 -.08)">
<use xlink:href="#ao"/>
</g>
</g>
<path d="m798.45 325.07 0.2383 4.4511q0.1283 2.3966 2.5249 2.2683l7.7314-0.41391q2.3966-0.1283 2.2683-2.5249l-0.23829-4.4511q-0.1283-2.3966-2.5249-2.2683l-7.7314 0.41391q-2.3966 0.1283-2.2683 2.5249z" clip-path="url(#a)" fill="#fff" stroke="#fff"/>
<g clip-path="url(#a)">
<defs>
<path id="y" d="m9.8125 72.906h9.8594v-64.609h35.5v-8.2969h-45.359z"/>
</defs>
<g transform="translate(802.51 324.85) rotate(86.936) scale(.08 -.08)">
<use xlink:href="#y"/>
</g>
</g>
<path d="m766.33 330.49 0.57447-5.8267q0.23548-2.3884-2.1529-2.6239l-7.7051-0.75967q-2.3884-0.23548-2.6239 2.1529l-0.57447 5.8267q-0.23548 2.3884 2.1529 2.6239l7.7051 0.75967q2.3884 0.23548 2.6239-2.1529z" clip-path="url(#a)" fill="#fff" stroke="#fff"/>
<g clip-path="url(#a)">
<defs>
<path id="x" d="m8.6875 72.906h9.9219v-44.297q0-11.719 4.2344-16.875 4.25-5.1406 13.781-5.1406 9.4688 0 13.719 5.1406 4.25 5.1562 4.25 16.875v44.297h9.9062v-45.516q0-14.25-7.0625-21.531-7.0469-7.2812-20.812-7.2812-13.828 0-20.891 7.2812-7.0469 7.2812-7.0469 21.531z"/>
</defs>
<g transform="translate(762.29 330.09) rotate(-84.369) scale(.08 -.08)">
<use xlink:href="#x"/>
</g>
</g>
<path d="m1040.2 427.93 3.5277 3.29q1.7552 1.6369 3.3921-0.11827l5.2807-5.6622q1.6369-1.7552-0.11827-3.3921l-3.5277-3.29q-1.7552-1.6369-3.3921 0.11827l-5.2807 5.6622q-1.6369 1.7552 0.11827 3.3921z" clip-path="url(#a)" fill="#fff" stroke="#fff"/>
<g clip-path="url(#a)">
<defs>
<path id="s" d="m19.672 64.797v-27.391h12.406q6.8906 0 10.641 3.5625 3.7656 3.5625 3.7656 10.156 0 6.5469-3.7656 10.109-3.75 3.5625-10.641 3.5625zm-9.8594 8.1094h22.266q12.266 0 18.531-5.5469 6.2812-5.5469 6.2812-16.234 0-10.797-6.2812-16.312-6.2656-5.5156-18.531-5.5156h-12.406v-29.297h-9.8594z"/>
</defs>
<g transform="translate(1043 424.95) rotate(43.003) scale(.08 -.08)">
<use xlink:href="#s"/>
</g>
</g>
<path d="m1017.7 427.47 3.8595 3.8797q1.6926 1.7015 3.3941 0.008869l5.4891-5.4604q1.7015-1.6926 0.008868-3.3941l-3.8595-3.8797q-1.6926-1.7015-3.3941-0.008869l-5.4891 5.4604q-1.7015 1.6926-0.008869 3.3941z" clip-path="url(#a)" fill="#fff" stroke="#fff"/>
<g clip-path="url(#a)">
<defs>
<path id="p" d="m34.188 63.188-13.391-36.281h26.812zm-5.5781 9.7188h11.188l27.781-72.906h-10.25l-6.6406 18.703h-32.859l-6.6406-18.703h-10.406z"/>
</defs>
<g transform="translate(1020.6 424.6) rotate(45.15) scale(.08 -.08)">
<use xlink:href="#p"/>
</g>
</g>
<path d="m402.77 385.51 5.0132-3.5796q1.9532-1.3946 0.55855-3.3478l-4.4992-6.3011q-1.3946-1.9532-3.3478-0.55855l-5.0132 3.5796q-1.9532 1.3946-0.55855 3.3478l4.4992 6.3011q1.3946 1.9532 3.3478 0.55855z" clip-path="url(#a)" fill="#fff" stroke="#fff"/>
<g clip-path="url(#a)">
<defs>
<path id="z" d="m19.672 64.797v-56.688h11.922q15.094 0 22.094 6.8281 7 6.8438 7 21.594 0 14.641-7 21.453t-22.094 6.8125zm-9.8594 8.1094h20.266q21.188 0 31.094-8.8125 9.9219-8.8125 9.9219-27.562 0-18.859-9.9688-27.703-9.9531-8.8281-31.047-8.8281h-20.266z"/>
</defs>
<g transform="translate(400.41 382.2) rotate(-35.528) scale(.08 -.08)">
<use xlink:href="#z"/>
</g>
</g>
<path d="m480.88 194.96 5.3701-1.0535q2.3551-0.462 1.8931-2.8171l-1.4904-7.5977q-0.46201-2.3551-2.8171-1.8931l-5.3701 1.0535q-2.3551 0.46201-1.8931 2.8171l1.4904 7.5977q0.46201 2.3551 2.8171 1.8931z" clip-path="url(#a)" fill="#fff" stroke="#fff"/>
<g clip-path="url(#a)">
<g transform="translate(480.1 190.97) rotate(-11.099) scale(.08 -.08)">
<use xlink:href="#p"/>
</g>
</g>
<path d="m826.59 432.79 1.1699-4.9422q0.55284-2.3355-1.7826-2.8883l-7.5343-1.7835q-2.3355-0.55284-2.8883 1.7826l-1.1699 4.9422q-0.55284 2.3355 1.7826 2.8883l7.5343 1.7835q2.3355 0.55284 2.8883-1.7826z" clip-path="url(#a)" fill="#fff" stroke="#fff"/>
<g clip-path="url(#a)">
<defs>
<path id="au" d="m53.516 70.516v-9.625q-5.6094 2.6875-10.594 4-4.9844 1.3281-9.625 1.3281-8.0469 0-12.422-3.125t-4.375-8.8906q0-4.8438 2.9062-7.3125 2.9062-2.4531 11.016-3.9688l5.9531-1.2188q11.031-2.1094 16.281-7.4062t5.25-14.172q0-10.609-7.1094-16.078-7.0938-5.4688-20.812-5.4688-5.1719 0-11.016 1.1719-5.8281 1.1719-12.078 3.4688v10.156q6-3.3594 11.766-5.0781 5.7656-1.7031 11.328-1.7031 8.4375 0 13.031 3.3125 4.5938 3.3281 4.5938 9.4844 0 5.3594-3.2969 8.3906t-10.812 4.5469l-6.0156 1.1719q-11.031 2.1875-15.969 6.875-4.9219 4.6875-4.9219 13.047 0 9.6719 6.8125 15.234t18.766 5.5625q5.1406 0 10.453-0.9375 5.3281-0.92188 10.891-2.7656z"/>
</defs>
<g transform="translate(822.64 431.85) rotate(-76.682) scale(.08 -.08)">
<use xlink:href="#au"/>
</g>
</g>
<path d="m904.72 289.79 3.7034 4.029q1.6242 1.767 3.3911 0.1428l5.7003-5.2396q1.767-1.6242 0.1428-3.3911l-3.7034-4.029q-1.6242-1.767-3.3911-0.1428l-5.7003 5.2396q-1.767 1.6242-0.1428 3.3911z" clip-path="url(#a)" fill="#fff" stroke="#fff"/>
<g clip-path="url(#a)">
<g transform="translate(907.71 287.04) rotate(47.411) scale(.08 -.08)">
<use xlink:href="#p"/>
</g>
</g>
<path d="m814.21 647.94v35.285q0 2.4 2.4 2.4h7.7425q2.4 0 2.4-2.4v-35.285q0-2.4-2.4-2.4h-7.7425q-2.4 0-2.4 2.4z" clip-path="url(#a)" fill="#fff" stroke="#fff"/>
<g clip-path="url(#a)">
<defs>
<path id="l" d="m-0.29688 72.906h61.672v-8.3125h-25.875v-64.594h-9.9062v64.594h-25.891z"/>
<path id="d" d="m56.203 29.594v-4.3906h-41.312q0.59375-9.2812 5.5938-14.141t13.938-4.8594q5.1719 0 10.031 1.2656t9.6562 3.8125v-8.5q-4.8438-2.0469-9.9219-3.125t-10.297-1.0781q-13.094 0-20.734 7.6094-7.6406 7.625-7.6406 20.625 0 13.422 7.25 21.297 7.25 7.8906 19.562 7.8906 11.031 0 17.453-7.1094 6.4219-7.0938 6.4219-19.297zm-8.9844 2.6406q-0.09375 7.3594-4.125 11.75-4.0312 4.4062-10.672 4.4062-7.5156 0-12.031-4.25t-5.2031-11.969z"/>
<path id="h" d="m41.109 46.297q-1.5156 0.875-3.2969 1.2812-1.7812 0.42188-3.9219 0.42188-7.625 0-11.703-4.9531t-4.0781-14.234v-28.812h-9.0312v54.688h9.0312v-8.5q2.8438 4.9844 7.375 7.3906 4.5469 2.4219 11.047 2.4219 0.92188 0 2.0469-0.125 1.125-0.10938 2.4844-0.35938z"/>
<path id="k" d="m52 44.188q3.375 6.0625 8.0625 8.9375t11.031 2.875q8.5469 0 13.188-5.9844 4.6406-5.9688 4.6406-17v-33.016h-9.0312v32.719q0 7.8594-2.7969 11.656-2.7812 3.8125-8.4844 3.8125-6.9844 0-11.047-4.6406-4.0469-4.625-4.0469-12.641v-30.906h-9.0312v32.719q0 7.9062-2.7812 11.688t-8.5938 3.7812q-6.8906 0-10.953-4.6562-4.0469-4.6562-4.0469-12.625v-30.906h-9.0312v54.688h9.0312v-8.5q3.0781 5.0312 7.375 7.4219t10.203 2.3906q5.9688 0 10.141-3.0312 4.1719-3.0156 6.1719-8.7812z"/>
<path id="j" d="m9.4219 54.688h8.9844v-54.688h-8.9844zm0 21.297h8.9844v-11.391h-8.9844z"/>
<path id="g" d="m54.891 33.016v-33.016h-8.9844v32.719q0 7.7656-3.0312 11.609-3.0312 3.8594-9.0781 3.8594-7.2812 0-11.484-4.6406-4.2031-4.625-4.2031-12.641v-30.906h-9.0312v54.688h9.0312v-8.5q3.2344 4.9375 7.5938 7.375 4.375 2.4375 10.094 2.4375 9.4219 0 14.25-5.8281 4.8438-5.8281 4.8438-17.156z"/>
<path id="f" d="m34.281 27.484q-10.891 0-15.094-2.4844t-4.2031-8.5q0-4.7812 3.1562-7.5938 3.1562-2.7969 8.5625-2.7969 7.4844 0 12 5.2969t4.5156 14.078v2zm17.922 3.7188v-31.203h-8.9844v8.2969q-3.0781-4.9688-7.6719-7.3438t-11.234-2.375q-8.3906 0-13.359 4.7188-4.9531 4.7188-4.9531 12.625 0 9.2188 6.1719 13.906 6.1875 4.6875 18.438 4.6875h12.609v0.89062q0 6.2031-4.0781 9.5938t-11.453 3.3906q-4.6875 0-9.1406-1.125-4.4375-1.125-8.5312-3.375v8.3125q4.9219 1.9062 9.5625 2.8438 4.6406 0.95312 9.0312 0.95312 11.875 0 17.734-6.1562 5.8594-6.1406 5.8594-18.641z"/>
<path id="i" d="m9.4219 75.984h8.9844v-75.984h-8.9844z"/>
</defs>
<g transform="translate(818.27 647.94) rotate(90) scale(.08 -.08)">
<use xlink:href="#l"/>
<use x="60.818359" xlink:href="#d"/>
<use x="122.341797" xlink:href="#h"/>
<use x="163.439453" xlink:href="#k"/>
<use x="260.851562" xlink:href="#j"/>
<use x="288.634766" xlink:href="#g"/>
<use x="352.013672" xlink:href="#f"/>
<use x="413.292969" xlink:href="#i"/>
</g>
</g>
<path d="m769.75 647.94v35.285q0 2.4 2.4 2.4h7.7425q2.4 0 2.4-2.4v-35.285q0-2.4-2.4-2.4h-7.7425q-2.4 0-2.4 2.4z" clip-path="url(#a)" fill="#fff" stroke="#fff"/>
<g clip-path="url(#a)">
<g transform="translate(773.81 647.94) rotate(90) scale(.08 -.08)">
<use xlink:href="#l"/>
<use x="60.818359" xlink:href="#d"/>
<use x="122.341797" xlink:href="#h"/>
<use x="163.439453" xlink:href="#k"/>
<use x="260.851562" xlink:href="#j"/>
<use x="288.634766" xlink:href="#g"/>
<use x="352.013672" xlink:href="#f"/>
<use x="413.292969" xlink:href="#i"/>
</g>
</g>
<path d="m1020.9 388.26 4.1761 2.8484q1.9827 1.3524 3.3351-0.63033l4.3628-6.3963q1.3524-1.9827-0.63033-3.3351l-4.1761-2.8484q-1.9827-1.3524-3.3351 0.63033l-4.3628 6.3963q-1.3524 1.9827 0.63033 3.3351z" clip-path="url(#a)" fill="#fff" stroke="#fff"/>
<g clip-path="url(#a)">
<defs>
<path id="w" d="m9.8125 72.906h46.094v-8.3125h-36.234v-21.578h34.719v-8.2969h-34.719v-26.422h37.109v-8.2969h-46.969z"/>
</defs>
<g transform="translate(1023.2 384.9) rotate(34.297) scale(.08 -.08)">
<use xlink:href="#w"/>
</g>
</g>
<path d="m915.7 482.46 1.7087-5.2896q0.73774-2.2838-1.5461-3.0215l-7.3676-2.38q-2.2838-0.73774-3.0215 1.5461l-1.7087 5.2896q-0.73774 2.2838 1.5461 3.0215l7.3676 2.38q2.2838 0.73774 3.0215-1.5461z" clip-path="url(#a)" fill="#fff" stroke="#fff"/>
<g clip-path="url(#a)">
<defs>
<path id="v" d="m44.391 34.188q3.1719-1.0781 6.1719-4.5938t6.0312-9.6719l10.016-19.922h-10.609l-9.3125 18.703q-3.625 7.3281-7.0156 9.7188t-9.25 2.3906h-10.75v-30.812h-9.8594v72.906h22.266q12.5 0 18.656-5.2344 6.1562-5.2188 6.1562-15.766 0-6.8906-3.2031-11.438-3.2031-4.5312-9.2969-6.2812zm-24.719 30.609v-25.875h12.406q7.125 0 10.766 3.2969t3.6406 9.6875-3.6406 9.6406-10.766 3.25z"/>
</defs>
<g transform="translate(911.84 481.21) rotate(-72.098) scale(.08 -.08)">
<use xlink:href="#v"/>
</g>
</g>
<path d="m938.55 481.67 0.91335-5.5111q0.3924-2.3677-1.9753-2.7601l-7.6383-1.2659q-2.3677-0.3924-2.7601 1.9753l-0.91335 5.5111q-0.3924 2.3677 1.9753 2.7601l7.6383 1.2659q2.3677 0.3924 2.7601-1.9753z" clip-path="url(#a)" fill="#fff" stroke="#fff"/>
<g clip-path="url(#a)">
<defs>
<path id="q" d="m64.406 67.281v-10.391q-4.9844 4.6406-10.625 6.9219-5.6406 2.2969-11.984 2.2969-12.5 0-19.141-7.6406t-6.6406-22.094q0-14.406 6.6406-22.047t19.141-7.6406q6.3438 0 11.984 2.2969t10.625 6.9375v-10.312q-5.1719-3.5156-10.969-5.2812-5.7812-1.75-12.219-1.75-16.562 0-26.094 10.125-9.5156 10.141-9.5156 27.672 0 17.578 9.5156 27.703 9.5312 10.141 26.094 10.141 6.5312 0 12.312-1.7344 5.7969-1.7344 10.875-5.2031z"/>
</defs>
<g transform="translate(934.54 481.01) rotate(-80.59) scale(.08 -.08)">
<use xlink:href="#q"/>
</g>
</g>
<path d="m961.29 480.87 0.049338-5.8548q0.020225-2.3999-2.3797-2.4201l-7.7422-0.065243q-2.3999-0.020224-2.4201 2.3797l-0.049338 5.8548q-0.020224 2.3999 2.3797 2.4201l7.7422 0.065244q2.3999 0.020224 2.4201-2.3797z" clip-path="url(#a)" fill="#fff" stroke="#fff"/>
<g clip-path="url(#a)">
<g transform="translate(957.23 480.84) rotate(-89.517) scale(.08 -.08)">
<use xlink:href="#x"/>
</g>
</g>
<path d="m1051.8 531.2 2.5918-4.9175q1.119-2.1232-1.0041-3.2422l-6.8494-3.61q-2.1232-1.119-3.2422 1.0041l-2.5918 4.9175q-1.119 2.1232 1.0041 3.2422l6.8494 3.61q2.1232 1.119 3.2422-1.0041z" clip-path="url(#a)" fill="#fff" stroke="#fff"/>
<g clip-path="url(#a)">
<g transform="translate(1048.2 529.3) rotate(-62.208) scale(.08 -.08)">
<use xlink:href="#v"/>
</g>
</g>
<path d="m1075 530.18 1.5195-5.2573q0.66639-2.3056-1.6392-2.972l-7.4381-2.1498q-2.3056-0.66639-2.972 1.6392l-1.5195 5.2573q-0.66639 2.3056 1.6392 2.972l7.4381 2.1498q2.3056 0.66639 2.972-1.6392z" clip-path="url(#a)" fill="#fff" stroke="#fff"/>
<g clip-path="url(#a)">
<g transform="translate(1071.1 529.06) rotate(-73.879) scale(.08 -.08)">
<use xlink:href="#p"/>
</g>
</g>
<path d="m1098.1 529.21 0.31378-6.152q0.12225-2.3969-2.2746-2.5191l-7.7324-0.39439q-2.3969-0.12225-2.5191 2.2746l-0.31378 6.152q-0.12225 2.3969 2.2746 2.5191l7.7324 0.39439q2.3969 0.12225 2.5191-2.2746z" clip-path="url(#a)" fill="#fff" stroke="#fff"/>
<g clip-path="url(#a)">
<g transform="translate(1094 529) rotate(-87.08) scale(.08 -.08)">
<use xlink:href="#z"/>
</g>
</g>
<path d="m1118.4 480.07 3.1997 5.2638q1.2466 2.0508 3.2975 0.80421l6.6161-4.0217q2.0508-1.2466 0.80421-3.2975l-3.1997-5.2638q-1.2466-2.0508-3.2975-0.80421l-6.6161 4.0217q-2.0508 1.2466-0.80421 3.2975z" clip-path="url(#a)" fill="#fff" stroke="#fff"/>
<g clip-path="url(#a)">
<g transform="translate(1121.9 477.96) rotate(58.706) scale(.08 -.08)">
<use xlink:href="#z"/>
</g>
</g>
<path d="m1152.1 527.27 2.6657 4.0203q1.3263 2.0002 3.3265 0.67395l6.4529-4.2787q2.0002-1.3263 0.67395-3.3265l-2.6657-4.0203q-1.3263-2.0002-3.3265-0.67395l-6.4529 4.2787q-2.0002 1.3263-0.67395 3.3265z" clip-path="url(#a)" fill="#fff" stroke="#fff"/>
<g clip-path="url(#a)">
<g transform="translate(1155.5 525.02) rotate(56.453) scale(.08 -.08)">
<use xlink:href="#s"/>
</g>
</g>
<path d="m1005.6 532.19 3.8756-3.8636q1.6997-1.6944 0.005252-3.3941l-5.4663-5.4832q-1.6944-1.6997-3.3941-0.005252l-3.8756 3.8636q-1.6997 1.6944-0.005252 3.3941l5.4663 5.4832q1.6944 1.6997 3.3941 0.005252z" clip-path="url(#a)" fill="#fff" stroke="#fff"/>
<g clip-path="url(#a)">
<g transform="translate(1002.7 529.31) rotate(-44.911) scale(.08 -.08)">
<use xlink:href="#p"/>
</g>
</g>
<path d="m1174.3 527.84 3.9194 4.3496q1.6066 1.7829 3.3895 0.17635l5.7518-5.1829q1.7829-1.6066 0.17635-3.3895l-3.9194-4.3496q-1.6066-1.7829-3.3895-0.17635l-5.7518 5.1829q-1.7829 1.6066-0.17635 3.3895z" clip-path="url(#a)" fill="#fff" stroke="#fff"/>
<g clip-path="url(#a)">
<g transform="translate(1177.3 525.12) rotate(47.978) scale(.08 -.08)">
<use xlink:href="#x"/>
</g>
</g>
<path d="m992.04 647.94v35.285q0 2.4 2.4 2.4h7.7425q2.4 0 2.4-2.4v-35.285q0-2.4-2.4-2.4h-7.7425q-2.4 0-2.4 2.4z" clip-path="url(#a)" fill="#fff" stroke="#fff"/>
<g clip-path="url(#a)">
<g transform="translate(996.11 647.94) rotate(90) scale(.08 -.08)">
<use xlink:href="#l"/>
<use x="60.818359" xlink:href="#d"/>
<use x="122.341797" xlink:href="#h"/>
<use x="163.439453" xlink:href="#k"/>
<use x="260.851562" xlink:href="#j"/>
<use x="288.634766" xlink:href="#g"/>
<use x="352.013672" xlink:href="#f"/>
<use x="413.292969" xlink:href="#i"/>
</g>
</g>
<path d="m1036.5 647.94v35.285q0 2.4 2.4 2.4h7.7425q2.4 0 2.4-2.4v-35.285q0-2.4-2.4-2.4h-7.7425q-2.4 0-2.4 2.4z" clip-path="url(#a)" fill="#fff" stroke="#fff"/>
<g clip-path="url(#a)">
<g transform="translate(1040.6 647.94) rotate(90) scale(.08 -.08)">
<use xlink:href="#l"/>
<use x="60.818359" xlink:href="#d"/>
<use x="122.341797" xlink:href="#h"/>
<use x="163.439453" xlink:href="#k"/>
<use x="260.851562" xlink:href="#j"/>
<use x="288.634766" xlink:href="#g"/>
<use x="352.013672" xlink:href="#f"/>
<use x="413.292969" xlink:href="#i"/>
</g>
</g>
<path d="m1081 647.94v35.285q0 2.4 2.4 2.4h7.7425q2.4 0 2.4-2.4v-35.285q0-2.4-2.4-2.4h-7.7425q-2.4 0-2.4 2.4z" clip-path="url(#a)" fill="#fff" stroke="#fff"/>
<g clip-path="url(#a)">
<g transform="translate(1085 647.94) rotate(90) scale(.08 -.08)">
<use xlink:href="#l"/>
<use x="60.818359" xlink:href="#d"/>
<use x="122.341797" xlink:href="#h"/>
<use x="163.439453" xlink:href="#k"/>
<use x="260.851562" xlink:href="#j"/>
<use x="288.634766" xlink:href="#g"/>
<use x="352.013672" xlink:href="#f"/>
<use x="413.292969" xlink:href="#i"/>
</g>
</g>
<path d="m1148.3 576.75 1.1782-4.9158q0.55939-2.3339-1.7745-2.8933l-7.5293-1.8046q-2.3339-0.55939-2.8933 1.7745l-1.1782 4.9158q-0.55939 2.3339 1.7745 2.8933l7.5293 1.8046q2.3339 0.55939 2.8933-1.7745z" clip-path="url(#a)" fill="#fff" stroke="#fff"/>
<g clip-path="url(#a)">
<g transform="translate(1144.4 575.81) rotate(-76.522) scale(.08 -.08)">
<use xlink:href="#w"/>
</g>
</g>
<path d="m1158.3 571.58 1.302 5.4324q0.55939 2.3339 2.8933 1.7745l7.5293-1.8046q2.3339-0.55939 1.7745-2.8933l-1.302-5.4324q-0.55939-2.3339-2.8933-1.7745l-7.5293 1.8046q-2.3339 0.55939-1.7745 2.8933z" clip-path="url(#a)" fill="#fff" stroke="#fff"/>
<g clip-path="url(#a)">
<g transform="translate(1162.2 570.63) rotate(76.522) scale(.08 -.08)">
<use xlink:href="#q"/>
</g>
</g>
<path d="m1214.3 647.94v35.285q0 2.4 2.4 2.4h7.7425q2.4 0 2.4-2.4v-35.285q0-2.4-2.4-2.4h-7.7425q-2.4 0-2.4 2.4z" clip-path="url(#a)" fill="#fff" stroke="#fff"/>
<g clip-path="url(#a)">
<g transform="translate(1218.4 647.94) rotate(90) scale(.08 -.08)">
<use xlink:href="#l"/>
<use x="60.818359" xlink:href="#d"/>
<use x="122.341797" xlink:href="#h"/>
<use x="163.439453" xlink:href="#k"/>
<use x="260.851562" xlink:href="#j"/>
<use x="288.634766" xlink:href="#g"/>
<use x="352.013672" xlink:href="#f"/>
<use x="413.292969" xlink:href="#i"/>
</g>
</g>
<path d="m1125.4 647.94v35.285q0 2.4 2.4 2.4h7.7425q2.4 0 2.4-2.4v-35.285q0-2.4-2.4-2.4h-7.7425q-2.4 0-2.4 2.4z" clip-path="url(#a)" fill="#fff" stroke="#fff"/>
<g clip-path="url(#a)">
<g transform="translate(1129.5 647.94) rotate(90) scale(.08 -.08)">
<use xlink:href="#l"/>
<use x="60.818359" xlink:href="#d"/>
<use x="122.341797" xlink:href="#h"/>
<use x="163.439453" xlink:href="#k"/>
<use x="260.851562" xlink:href="#j"/>
<use x="288.634766" xlink:href="#g"/>
<use x="352.013672" xlink:href="#f"/>
<use x="413.292969" xlink:href="#i"/>
</g>
</g>
<path d="m1169.9 647.94v35.285q0 2.4 2.4 2.4h7.7425q2.4 0 2.4-2.4v-35.285q0-2.4-2.4-2.4h-7.7425q-2.4 0-2.4 2.4z" clip-path="url(#a)" fill="#fff" stroke="#fff"/>
<g clip-path="url(#a)">
<g transform="translate(1173.9 647.94) rotate(90) scale(.08 -.08)">
<use xlink:href="#l"/>
<use x="60.818359" xlink:href="#d"/>
<use x="122.341797" xlink:href="#h"/>
<use x="163.439453" xlink:href="#k"/>
<use x="260.851562" xlink:href="#j"/>
<use x="288.634766" xlink:href="#g"/>
<use x="352.013672" xlink:href="#f"/>
<use x="413.292969" xlink:href="#i"/>
</g>
</g>
<path d="m858.67 647.94v35.285q0 2.4 2.4 2.4h7.7425q2.4 0 2.4-2.4v-35.285q0-2.4-2.4-2.4h-7.7425q-2.4 0-2.4 2.4z" clip-path="url(#a)" fill="#fff" stroke="#fff"/>
<g clip-path="url(#a)">
<g transform="translate(862.73 647.94) rotate(90) scale(.08 -.08)">
<use xlink:href="#l"/>
<use x="60.818359" xlink:href="#d"/>
<use x="122.341797" xlink:href="#h"/>
<use x="163.439453" xlink:href="#k"/>
<use x="260.851562" xlink:href="#j"/>
<use x="288.634766" xlink:href="#g"/>
<use x="352.013672" xlink:href="#f"/>
<use x="413.292969" xlink:href="#i"/>
</g>
</g>
<path d="m903.13 647.94v35.285q0 2.4 2.4 2.4h7.7425q2.4 0 2.4-2.4v-35.285q0-2.4-2.4-2.4h-7.7425q-2.4 0-2.4 2.4z" clip-path="url(#a)" fill="#fff" stroke="#fff"/>
<g clip-path="url(#a)">
<g transform="translate(907.19 647.94) rotate(90) scale(.08 -.08)">
<use xlink:href="#l"/>
<use x="60.818359" xlink:href="#d"/>
<use x="122.341797" xlink:href="#h"/>
<use x="163.439453" xlink:href="#k"/>
<use x="260.851562" xlink:href="#j"/>
<use x="288.634766" xlink:href="#g"/>
<use x="352.013672" xlink:href="#f"/>
<use x="413.292969" xlink:href="#i"/>
</g>
</g>
<path d="m58.409 647.94v35.285q0 2.4 2.4 2.4h7.7425q2.4 0 2.4-2.4v-35.285q0-2.4-2.4-2.4h-7.7425q-2.4 0-2.4 2.4z" clip-path="url(#a)" fill="#fff" stroke="#fff"/>
<g clip-path="url(#a)">
<g transform="translate(62.473 647.94) rotate(90) scale(.08 -.08)">
<use xlink:href="#l"/>
<use x="60.818359" xlink:href="#d"/>
<use x="122.341797" xlink:href="#h"/>
<use x="163.439453" xlink:href="#k"/>
<use x="260.851562" xlink:href="#j"/>
<use x="288.634766" xlink:href="#g"/>
<use x="352.013672" xlink:href="#f"/>
<use x="413.292969" xlink:href="#i"/>
</g>
</g>
<path d="m321.75 292.09 4.5445 2.2137q2.1576 1.051 3.2086-1.1066l3.3906-6.9606q1.051-2.1576-1.1066-3.2086l-4.5445-2.2137q-2.1576-1.051-3.2086 1.1066l-3.3906 6.9606q-1.051 2.1576 1.1066 3.2086z" clip-path="url(#a)" fill="#fff" stroke="#fff"/>
<g clip-path="url(#a)">
<g transform="translate(323.53 288.44) rotate(25.971) scale(.08 -.08)">
<use xlink:href="#w"/>
</g>
</g>
<path d="m172.82 433.37 1.6331-5.3134q0.70511-2.2941-1.589-2.9992l-7.4008-2.2747q-2.2941-0.70511-2.9992 1.589l-1.6331 5.3134q-0.70511 2.2941 1.589 2.9992l7.4008 2.2747q2.2941 0.70511 2.9992-1.589z" clip-path="url(#a)" fill="#fff" stroke="#fff"/>
<g clip-path="url(#a)">
<g transform="translate(168.93 432.18) rotate(-72.915) scale(.08 -.08)">
<use xlink:href="#v"/>
</g>
</g>
<path d="m195.56 432.53 0.94629-4.9656q0.44928-2.3576-1.9083-2.8069l-7.6056-1.4494q-2.3576-0.44928-2.8069 1.9083l-0.94629 4.9656q-0.44928 2.3576 1.9083 2.8068l7.6056 1.4494q2.3576 0.44928 2.8069-1.9083z" clip-path="url(#a)" fill="#fff" stroke="#fff"/>
<g clip-path="url(#a)">
<g transform="translate(191.56 431.77) rotate(-79.211) scale(.08 -.08)">
<use xlink:href="#w"/>
</g>
</g>
<path d="m218.15 432.12 0.41101-5.5711q0.17658-2.3935-2.2169-2.5701l-7.7215-0.56965q-2.3935-0.17658-2.5701 2.2169l-0.41101 5.5711q-0.17658 2.3935 2.2169 2.5701l7.7215 0.56965q2.3935 0.17658 2.5701-2.2169z" clip-path="url(#a)" fill="#fff" stroke="#fff"/>
<g clip-path="url(#a)">
<g transform="translate(214.09 431.82) rotate(-85.781) scale(.08 -.08)">
<use xlink:href="#q"/>
</g>
</g>
<path d="m227.94 426.22 0.25164 5.8496q0.10315 2.3978 2.5009 2.2946l7.7353-0.33277q2.3978-0.10315 2.2946-2.5009l-0.25164-5.8496q-0.10315-2.3978-2.5009-2.2946l-7.7353 0.33277q-2.3978 0.10315-2.2946 2.5009z" clip-path="url(#a)" fill="#fff" stroke="#fff"/>
<g clip-path="url(#a)">
<g transform="translate(232 426.05) rotate(87.537) scale(.08 -.08)">
<use xlink:href="#x"/>
</g>
</g>
<path d="m369.25 437.28 3.05-4.6802q1.3103-2.0107-0.70037-3.3211l-6.4867-4.2272q-2.0107-1.3103-3.3211 0.70037l-3.05 4.6802q-1.3103 2.0107 0.70037 3.3211l6.4867 4.2272q2.0107 1.3103 3.3211-0.70037z" clip-path="url(#a)" fill="#fff" stroke="#fff"/>
<g clip-path="url(#a)">
<g transform="translate(365.84 435.06) rotate(-56.909) scale(.08 -.08)">
<use xlink:href="#q"/>
</g>
</g>
<path d="m439.49 475.75 0.78554 5.9332q0.315 2.3792 2.6942 2.0642l7.6755-1.0162q2.3792-0.315 2.0642-2.6942l-0.78554-5.9332q-0.315-2.3792-2.6942-2.0642l-7.6755 1.0162q-2.3792 0.315-2.0642 2.6942z" clip-path="url(#a)" fill="#fff" stroke="#fff"/>
<g clip-path="url(#a)">
<defs>
<path id="am" d="m9.8125 72.906h13.281l32.328-60.984v60.984h9.5625v-72.906h-13.281l-32.312 60.984v-60.984h-9.5781z"/>
</defs>
<g transform="translate(443.52 475.21) rotate(82.458) scale(.08 -.08)">
<use xlink:href="#am"/>
</g>
</g>
<path d="m464.02 386.62 3.7385 4.1509q1.6061 1.7833 3.3895 0.17719l5.7531-5.1815q1.7833-1.6061 0.17719-3.3895l-3.7385-4.1509q-1.6061-1.7833-3.3895-0.17719l-5.7531 5.1815q-1.7833 1.6061-0.17719 3.3895z" clip-path="url(#a)" fill="#fff" stroke="#fff"/>
<g clip-path="url(#a)">
<g transform="translate(467.04 383.9) rotate(47.992) scale(.08 -.08)">
<use xlink:href="#q"/>
</g>
</g>
<path d="m300.99 576.68 0.98347-5.4711q0.42462-2.3621-1.9375-2.7868l-7.6204-1.3698q-2.3621-0.42462-2.7868 1.9375l-0.98347 5.4711q-0.42462 2.3621 1.9375 2.7868l7.6204 1.3698q2.3621 0.42462 2.7868-1.9375z" clip-path="url(#a)" fill="#fff" stroke="#fff"/>
<g clip-path="url(#a)">
<g transform="translate(296.99 575.96) rotate(-79.809) scale(.08 -.08)">
<use xlink:href="#v"/>
</g>
</g>
<path d="m310.75 572.01 1.5706 5.2423q0.68879 2.299 2.9878 1.6102l7.4168-2.2221q2.299-0.68879 1.6102-2.9878l-1.5706-5.2423q-0.68879-2.299-2.9878-1.6102l-7.4168 2.2221q-2.299 0.68879-1.6102 2.9878z" clip-path="url(#a)" fill="#fff" stroke="#fff"/>
<g clip-path="url(#a)">
<g transform="translate(314.64 570.85) rotate(73.322) scale(.08 -.08)">
<use xlink:href="#p"/>
</g>
</g>
<path d="m344.77 575.62 3.4422 3.3793q1.7127 1.6813 3.394-0.031333l5.424-5.5251q1.6813-1.7126-0.031334-3.394l-3.4422-3.3793q-1.7127-1.6813-3.394 0.031334l-5.424 5.5251q-1.6813 1.7127 0.031333 3.394z" clip-path="url(#a)" fill="#fff" stroke="#fff"/>
<g clip-path="url(#a)">
<g transform="translate(347.62 572.72) rotate(44.471) scale(.08 -.08)">
<use xlink:href="#s"/>
</g>
</g>
<path d="m252.93 579.35 4.1116-3.6115q1.8032-1.5838 0.21932-3.387l-5.1096-5.8171q-1.5838-1.8032-3.387-0.21932l-4.1116 3.6115q-1.8032 1.5838-0.21932 3.387l5.1096 5.8171q1.5838 1.8032 3.387 0.21932z" clip-path="url(#a)" fill="#fff" stroke="#fff"/>
<g clip-path="url(#a)">
<g transform="translate(250.25 576.3) rotate(-41.295) scale(.08 -.08)">
<use xlink:href="#p"/>
</g>
</g>
<path d="m458.54 647.94v35.285q0 2.4 2.4 2.4h7.7425q2.4 0 2.4-2.4v-35.285q0-2.4-2.4-2.4h-7.7425q-2.4 0-2.4 2.4z" clip-path="url(#a)" fill="#fff" stroke="#fff"/>
<g clip-path="url(#a)">
<g transform="translate(462.6 647.94) rotate(90) scale(.08 -.08)">
<use xlink:href="#l"/>
<use x="60.818359" xlink:href="#d"/>
<use x="122.341797" xlink:href="#h"/>
<use x="163.439453" xlink:href="#k"/>
<use x="260.851562" xlink:href="#j"/>
<use x="288.634766" xlink:href="#g"/>
<use x="352.013672" xlink:href="#f"/>
<use x="413.292969" xlink:href="#i"/>
</g>
</g>
<path d="m517.69 528.74 0.13227-5.5572q0.057109-2.3993-2.3422-2.4564l-7.7403-0.18424q-2.3993-0.057109-2.4564 2.3422l-0.13227 5.5572q-0.05711 2.3993 2.3422 2.4564l7.7403 0.18424q2.3993 0.05711 2.4564-2.3422z" clip-path="url(#a)" fill="#fff" stroke="#fff"/>
<g clip-path="url(#a)">
<g transform="translate(513.63 528.65) rotate(-88.636) scale(.08 -.08)">
<use xlink:href="#v"/>
</g>
</g>
<path d="m527.02 524.45 1.1463 5.3511q0.50272 2.3468 2.8495 1.844l7.5707-1.6218q2.3468-0.50272 1.844-2.8495l-1.1463-5.3511q-0.50272-2.3468-2.8495-1.844l-7.5707 1.6218q-2.3468 0.50272-1.844 2.8495z" clip-path="url(#a)" fill="#fff" stroke="#fff"/>
<g clip-path="url(#a)">
<g transform="translate(530.99 523.6) rotate(77.909) scale(.08 -.08)">
<use xlink:href="#p"/>
</g>
</g>
<path d="m560.61 482.11 4.6214 4.0729q1.8005 1.5868 3.3874-0.21371l5.1192-5.8086q1.5868-1.8005-0.21371-3.3874l-4.6214-4.0729q-1.8005-1.5868-3.3874 0.21371l-5.1192 5.8086q-1.5868 1.8005 0.21371 3.3874z" clip-path="url(#a)" fill="#fff" stroke="#fff"/>
<g clip-path="url(#a)">
<g transform="translate(563.29 479.06) rotate(41.39) scale(.08 -.08)">
<use xlink:href="#z"/>
</g>
</g>
<path d="m594.17 528.31 3.2818 3.5353q1.6328 1.7589 3.3918 0.12613l5.6744-5.2675q1.759-1.6328 0.12613-3.3918l-3.2818-3.5353q-1.6328-1.7589-3.3918-0.12613l-5.6744 5.2675q-1.7589 1.6328-0.12613 3.3918z" clip-path="url(#a)" fill="#fff" stroke="#fff"/>
<g clip-path="url(#a)">
<g transform="translate(597.15 525.55) rotate(47.13) scale(.08 -.08)">
<use xlink:href="#s"/>
</g>
</g>
<path d="m356.72 532.61 4.7097-2.7869q2.0655-1.2222 0.84328-3.2877l-3.9429-6.6633q-1.2222-2.0655-3.2877-0.84328l-4.7097 2.7869q-2.0655 1.2222-0.84328 3.2877l3.9429 6.6633q1.2222 2.0655 3.2877 0.84328z" clip-path="url(#a)" fill="#fff" stroke="#fff"/>
<g clip-path="url(#a)">
<g transform="translate(354.65 529.11) rotate(-30.614) scale(.08 -.08)">
<use xlink:href="#p"/>
</g>
</g>
<path d="m503 647.94v35.285q0 2.4 2.4 2.4h7.7425q2.4 0 2.4-2.4v-35.285q0-2.4-2.4-2.4h-7.7425q-2.4 0-2.4 2.4z" clip-path="url(#a)" fill="#fff" stroke="#fff"/>
<g clip-path="url(#a)">
<g transform="translate(507.06 647.94) rotate(90) scale(.08 -.08)">
<use xlink:href="#l"/>
<use x="60.818359" xlink:href="#d"/>
<use x="122.341797" xlink:href="#h"/>
<use x="163.439453" xlink:href="#k"/>
<use x="260.851562" xlink:href="#j"/>
<use x="288.634766" xlink:href="#g"/>
<use x="352.013672" xlink:href="#f"/>
<use x="413.292969" xlink:href="#i"/>
</g>
</g>
<path d="m547.46 647.94v35.285q0 2.4 2.4 2.4h7.7425q2.4 0 2.4-2.4v-35.285q0-2.4-2.4-2.4h-7.7425q-2.4 0-2.4 2.4z" clip-path="url(#a)" fill="#fff" stroke="#fff"/>
<g clip-path="url(#a)">
<g transform="translate(551.52 647.94) rotate(90) scale(.08 -.08)">
<use xlink:href="#l"/>
<use x="60.818359" xlink:href="#d"/>
<use x="122.341797" xlink:href="#h"/>
<use x="163.439453" xlink:href="#k"/>
<use x="260.851562" xlink:href="#j"/>
<use x="288.634766" xlink:href="#g"/>
<use x="352.013672" xlink:href="#f"/>
<use x="413.292969" xlink:href="#i"/>
</g>
</g>
<path d="m614.81 576.75 1.1782-4.9158q0.55939-2.3339-1.7745-2.8933l-7.5293-1.8046q-2.3339-0.55939-2.8933 1.7745l-1.1782 4.9158q-0.55939 2.3339 1.7745 2.8933l7.5293 1.8046q2.3339 0.55939 2.8933-1.7745z" clip-path="url(#a)" fill="#fff" stroke="#fff"/>
<g clip-path="url(#a)">
<g transform="translate(610.86 575.81) rotate(-76.522) scale(.08 -.08)">
<use xlink:href="#w"/>
</g>
</g>
<path d="m624.78 571.58 1.302 5.4324q0.55939 2.3339 2.8933 1.7745l7.5293-1.8046q2.3339-0.55939 1.7745-2.8933l-1.302-5.4324q-0.55939-2.3339-2.8933-1.7745l-7.5293 1.8046q-2.3339 0.55939-1.7745 2.8933z" clip-path="url(#a)" fill="#fff" stroke="#fff"/>
<g clip-path="url(#a)">
<g transform="translate(628.73 570.63) rotate(76.522) scale(.08 -.08)">
<use xlink:href="#q"/>
</g>
</g>
<path d="m680.83 647.94v35.285q0 2.4 2.4 2.4h7.7425q2.4 0 2.4-2.4v-35.285q0-2.4-2.4-2.4h-7.7425q-2.4 0-2.4 2.4z" clip-path="url(#a)" fill="#fff" stroke="#fff"/>
<g clip-path="url(#a)">
<g transform="translate(684.9 647.94) rotate(90) scale(.08 -.08)">
<use xlink:href="#l"/>
<use x="60.818359" xlink:href="#d"/>
<use x="122.341797" xlink:href="#h"/>
<use x="163.439453" xlink:href="#k"/>
<use x="260.851562" xlink:href="#j"/>
<use x="288.634766" xlink:href="#g"/>
<use x="352.013672" xlink:href="#f"/>
<use x="413.292969" xlink:href="#i"/>
</g>
</g>
<path d="m591.92 647.94v35.285q0 2.4 2.4 2.4h7.7425q2.4 0 2.4-2.4v-35.285q0-2.4-2.4-2.4h-7.7425q-2.4 0-2.4 2.4z" clip-path="url(#a)" fill="#fff" stroke="#fff"/>
<g clip-path="url(#a)">
<g transform="translate(595.98 647.94) rotate(90) scale(.08 -.08)">
<use xlink:href="#l"/>
<use x="60.818359" xlink:href="#d"/>
<use x="122.341797" xlink:href="#h"/>
<use x="163.439453" xlink:href="#k"/>
<use x="260.851562" xlink:href="#j"/>
<use x="288.634766" xlink:href="#g"/>
<use x="352.013672" xlink:href="#f"/>
<use x="413.292969" xlink:href="#i"/>
</g>
</g>
<path d="m636.37 647.94v35.285q0 2.4 2.4 2.4h7.7425q2.4 0 2.4-2.4v-35.285q0-2.4-2.4-2.4h-7.7425q-2.4 0-2.4 2.4z" clip-path="url(#a)" fill="#fff" stroke="#fff"/>
<g clip-path="url(#a)">
<g transform="translate(640.44 647.94) rotate(90) scale(.08 -.08)">
<use xlink:href="#l"/>
<use x="60.818359" xlink:href="#d"/>
<use x="122.341797" xlink:href="#h"/>
<use x="163.439453" xlink:href="#k"/>
<use x="260.851562" xlink:href="#j"/>
<use x="288.634766" xlink:href="#g"/>
<use x="352.013672" xlink:href="#f"/>
<use x="413.292969" xlink:href="#i"/>
</g>
</g>
<path d="m280.7 647.94v35.285q0 2.4 2.4 2.4h7.7425q2.4 0 2.4-2.4v-35.285q0-2.4-2.4-2.4h-7.7425q-2.4 0-2.4 2.4z" clip-path="url(#a)" fill="#fff" stroke="#fff"/>
<g clip-path="url(#a)">
<g transform="translate(284.77 647.94) rotate(90) scale(.08 -.08)">
<use xlink:href="#l"/>
<use x="60.818359" xlink:href="#d"/>
<use x="122.341797" xlink:href="#h"/>
<use x="163.439453" xlink:href="#k"/>
<use x="260.851562" xlink:href="#j"/>
<use x="288.634766" xlink:href="#g"/>
<use x="352.013672" xlink:href="#f"/>
<use x="413.292969" xlink:href="#i"/>
</g>
</g>
<path d="m325.16 647.94v35.285q0 2.4 2.4 2.4h7.7425q2.4 0 2.4-2.4v-35.285q0-2.4-2.4-2.4h-7.7425q-2.4 0-2.4 2.4z" clip-path="url(#a)" fill="#fff" stroke="#fff"/>
<g clip-path="url(#a)">
<g transform="translate(329.23 647.94) rotate(90) scale(.08 -.08)">
<use xlink:href="#l"/>
<use x="60.818359" xlink:href="#d"/>
<use x="122.341797" xlink:href="#h"/>
<use x="163.439453" xlink:href="#k"/>
<use x="260.851562" xlink:href="#j"/>
<use x="288.634766" xlink:href="#g"/>
<use x="352.013672" xlink:href="#f"/>
<use x="413.292969" xlink:href="#i"/>
</g>
</g>
<path d="m388.99 684.2 8.2242-34.313q0.55939-2.3339-1.7745-2.8933l-7.5293-1.8046q-2.3339-0.55939-2.8933 1.7745l-8.2242 34.313q-0.55939 2.3339 1.7745 2.8933l7.5293 1.8046q2.3339 0.55939 2.8933-1.7745z" clip-path="url(#a)" fill="#fff" stroke="#fff"/>
<g clip-path="url(#a)">
<g transform="translate(385.04 683.25) rotate(-76.522) scale(.08 -.08)">
<use xlink:href="#l"/>
<use x="60.818359" xlink:href="#d"/>
<use x="122.341797" xlink:href="#h"/>
<use x="163.439453" xlink:href="#k"/>
<use x="260.851562" xlink:href="#j"/>
<use x="288.634766" xlink:href="#g"/>
<use x="352.013672" xlink:href="#f"/>
<use x="413.292969" xlink:href="#i"/>
</g>
</g>
<path d="m399.03 649.88 8.2242 34.313q0.55939 2.3339 2.8933 1.7745l7.5293-1.8046q2.3339-0.55939 1.7745-2.8933l-8.2242-34.313q-0.55939-2.3339-2.8933-1.7745l-7.5293 1.8046q-2.3339 0.55939-1.7745 2.8933z" clip-path="url(#a)" fill="#fff" stroke="#fff"/>
<g clip-path="url(#a)">
<g transform="translate(402.98 648.94) rotate(76.522) scale(.08 -.08)">
<use xlink:href="#l"/>
<use x="60.818359" xlink:href="#d"/>
<use x="122.341797" xlink:href="#h"/>
<use x="163.439453" xlink:href="#k"/>
<use x="260.851562" xlink:href="#j"/>
<use x="288.634766" xlink:href="#g"/>
<use x="352.013672" xlink:href="#f"/>
<use x="413.292969" xlink:href="#i"/>
</g>
</g>
<path d="m102.87 647.94v35.285q0 2.4 2.4 2.4h7.7425q2.4 0 2.4-2.4v-35.285q0-2.4-2.4-2.4h-7.7425q-2.4 0-2.4 2.4z" clip-path="url(#a)" fill="#fff" stroke="#fff"/>
<g clip-path="url(#a)">
<g transform="translate(106.93 647.94) rotate(90) scale(.08 -.08)">
<use xlink:href="#l"/>
<use x="60.818359" xlink:href="#d"/>
<use x="122.341797" xlink:href="#h"/>
<use x="163.439453" xlink:href="#k"/>
<use x="260.851562" xlink:href="#j"/>
<use x="288.634766" xlink:href="#g"/>
<use x="352.013672" xlink:href="#f"/>
<use x="413.292969" xlink:href="#i"/>
</g>
</g>
<path d="m147.33 647.94v35.285q0 2.4 2.4 2.4h7.7425q2.4 0 2.4-2.4v-35.285q0-2.4-2.4-2.4h-7.7425q-2.4 0-2.4 2.4z" clip-path="url(#a)" fill="#fff" stroke="#fff"/>
<g clip-path="url(#a)">
<g transform="translate(151.39 647.94) rotate(90) scale(.08 -.08)">
<use xlink:href="#l"/>
<use x="60.818359" xlink:href="#d"/>
<use x="122.341797" xlink:href="#h"/>
<use x="163.439453" xlink:href="#k"/>
<use x="260.851562" xlink:href="#j"/>
<use x="288.634766" xlink:href="#g"/>
<use x="352.013672" xlink:href="#f"/>
<use x="413.292969" xlink:href="#i"/>
</g>
</g>
<path d="m191.79 647.94v35.285q0 2.4 2.4 2.4h7.7425q2.4 0 2.4-2.4v-35.285q0-2.4-2.4-2.4h-7.7425q-2.4 0-2.4 2.4z" clip-path="url(#a)" fill="#fff" stroke="#fff"/>
<g clip-path="url(#a)">
<g transform="translate(195.85 647.94) rotate(90) scale(.08 -.08)">
<use xlink:href="#l"/>
<use x="60.818359" xlink:href="#d"/>
<use x="122.341797" xlink:href="#h"/>
<use x="163.439453" xlink:href="#k"/>
<use x="260.851562" xlink:href="#j"/>
<use x="288.634766" xlink:href="#g"/>
<use x="352.013672" xlink:href="#f"/>
<use x="413.292969" xlink:href="#i"/>
</g>
</g>
<path d="m236.24 647.94v35.285q0 2.4 2.4 2.4h7.7425q2.4 0 2.4-2.4v-35.285q0-2.4-2.4-2.4h-7.7425q-2.4 0-2.4 2.4z" clip-path="url(#a)" fill="#fff" stroke="#fff"/>
<g clip-path="url(#a)">
<g transform="translate(240.31 647.94) rotate(90) scale(.08 -.08)">
<use xlink:href="#l"/>
<use x="60.818359" xlink:href="#d"/>
<use x="122.341797" xlink:href="#h"/>
<use x="163.439453" xlink:href="#k"/>
<use x="260.851562" xlink:href="#j"/>
<use x="288.634766" xlink:href="#g"/>
<use x="352.013672" xlink:href="#f"/>
<use x="413.292969" xlink:href="#i"/>
</g>
</g>
<path d="m725.29 647.94v35.285q0 2.4 2.4 2.4h7.7425q2.4 0 2.4-2.4v-35.285q0-2.4-2.4-2.4h-7.7425q-2.4 0-2.4 2.4z" clip-path="url(#a)" fill="#fff" stroke="#fff"/>
<g clip-path="url(#a)">
<g transform="translate(729.36 647.94) rotate(90) scale(.08 -.08)">
<use xlink:href="#l"/>
<use x="60.818359" xlink:href="#d"/>
<use x="122.341797" xlink:href="#h"/>
<use x="163.439453" xlink:href="#k"/>
<use x="260.851562" xlink:href="#j"/>
<use x="288.634766" xlink:href="#g"/>
<use x="352.013672" xlink:href="#f"/>
<use x="413.292969" xlink:href="#i"/>
</g>
</g>
<path d="m947.59 647.94v35.285q0 2.4 2.4 2.4h7.7425q2.4 0 2.4-2.4v-35.285q0-2.4-2.4-2.4h-7.7425q-2.4 0-2.4 2.4z" clip-path="url(#a)" fill="#fff" stroke="#fff"/>
<g clip-path="url(#a)">
<g transform="translate(951.65 647.94) rotate(90) scale(.08 -.08)">
<use xlink:href="#l"/>
<use x="60.818359" xlink:href="#d"/>
<use x="122.341797" xlink:href="#h"/>
<use x="163.439453" xlink:href="#k"/>
<use x="260.851562" xlink:href="#j"/>
<use x="288.634766" xlink:href="#g"/>
<use x="352.013672" xlink:href="#f"/>
<use x="413.292969" xlink:href="#i"/>
</g>
</g>
<path d="m1258.8 647.94v35.285q0 2.4 2.4 2.4h7.7425q2.4 0 2.4-2.4v-35.285q0-2.4-2.4-2.4h-7.7425q-2.4 0-2.4 2.4z" clip-path="url(#a)" fill="#fff" stroke="#fff"/>
<g clip-path="url(#a)">
<g transform="translate(1262.9 647.94) rotate(90) scale(.08 -.08)">
<use xlink:href="#l"/>
<use x="60.818359" xlink:href="#d"/>
<use x="122.341797" xlink:href="#h"/>
<use x="163.439453" xlink:href="#k"/>
<use x="260.851562" xlink:href="#j"/>
<use x="288.634766" xlink:href="#g"/>
<use x="352.013672" xlink:href="#f"/>
<use x="413.292969" xlink:href="#i"/>
</g>
</g>
<defs>
<path id="b" d="m0 8.6603c2.2967 0 4.4997-0.9125 6.1237-2.5365 1.624-1.624 2.5365-3.827 2.5365-6.1237s-0.9125-4.4997-2.5365-6.1237c-1.624-1.624-3.827-2.5365-6.1237-2.5365s-4.4997 0.9125-6.1237 2.5365c-1.624 1.624-2.5365 3.827-2.5365 6.1237s0.9125 4.4997 2.5365 6.1237c1.624 1.624 3.827 2.5365 6.1237 2.5365z"/>
</defs>
<g clip-path="url(#a)">
<use x="64.680256" y="711.95275" fill="#ffffff" stroke="#ffffff" xlink:href="#b"/>
</g>
<g clip-path="url(#a)">
<use x="109.139089" y="711.95275" fill="#ffffff" stroke="#ffffff" xlink:href="#b"/>
</g>
<g clip-path="url(#a)">
<use x="153.597922" y="711.95275" fill="#ffffff" stroke="#ffffff" xlink:href="#b"/>
</g>
<g clip-path="url(#a)">
<use x="198.056755" y="711.95275" fill="#ffffff" stroke="#ffffff" xlink:href="#b"/>
</g>
<g clip-path="url(#a)">
<use x="242.515588" y="711.95275" fill="#ffffff" stroke="#ffffff" xlink:href="#b"/>
</g>
<g clip-path="url(#a)">
<use x="286.97442" y="711.95275" fill="#ffffff" stroke="#ffffff" xlink:href="#b"/>
</g>
<g clip-path="url(#a)">
<use x="331.433253" y="711.95275" fill="#ffffff" stroke="#ffffff" xlink:href="#b"/>
</g>
<g clip-path="url(#a)">
<use x="375.892086" y="711.95275" fill="#ffffff" stroke="#ffffff" xlink:href="#b"/>
</g>
<g clip-path="url(#a)">
<use x="420.350919" y="711.95275" fill="#ffffff" stroke="#ffffff" xlink:href="#b"/>
</g>
<g clip-path="url(#a)">
<use x="464.809752" y="711.95275" fill="#ffffff" stroke="#ffffff" xlink:href="#b"/>
</g>
<g clip-path="url(#a)">
<use x="509.268585" y="711.95275" fill="#ffffff" stroke="#ffffff" xlink:href="#b"/>
</g>
<g clip-path="url(#a)">
<use x="553.727418" y="711.95275" fill="#ffffff" stroke="#ffffff" xlink:href="#b"/>
</g>
<g clip-path="url(#a)">
<use x="598.186251" y="711.95275" fill="#ffffff" stroke="#ffffff" xlink:href="#b"/>
</g>
<g clip-path="url(#a)">
<use x="642.645084" y="711.95275" fill="#ffffff" stroke="#ffffff" xlink:href="#b"/>
</g>
<g clip-path="url(#a)">
<use x="687.103917" y="711.95275" fill="#ffffff" stroke="#ffffff" xlink:href="#b"/>
</g>
<g clip-path="url(#a)">
<use x="731.56275" y="711.95275" fill="#ffffff" stroke="#ffffff" xlink:href="#b"/>
</g>
<g clip-path="url(#a)">
<use x="776.021583" y="711.95275" fill="#ffffff" stroke="#ffffff" xlink:href="#b"/>
</g>
<g clip-path="url(#a)">
<use x="820.480416" y="711.95275" fill="#ffffff" stroke="#ffffff" xlink:href="#b"/>
</g>
<g clip-path="url(#a)">
<use x="864.939249" y="711.95275" fill="#ffffff" stroke="#ffffff" xlink:href="#b"/>
</g>
<g clip-path="url(#a)">
<use x="909.398082" y="711.95275" fill="#ffffff" stroke="#ffffff" xlink:href="#b"/>
</g>
<g clip-path="url(#a)">
<use x="953.856914" y="711.95275" fill="#ffffff" stroke="#ffffff" xlink:href="#b"/>
</g>
<g clip-path="url(#a)">
<use x="998.315747" y="711.95275" fill="#ffffff" stroke="#ffffff" xlink:href="#b"/>
</g>
<g clip-path="url(#a)">
<use x="1042.77458" y="711.95275" fill="#ffffff" stroke="#ffffff" xlink:href="#b"/>
</g>
<g clip-path="url(#a)">
<use x="1087.233413" y="711.95275" fill="#ffffff" stroke="#ffffff" xlink:href="#b"/>
</g>
<g clip-path="url(#a)">
<use x="1131.692246" y="711.95275" fill="#ffffff" stroke="#ffffff" xlink:href="#b"/>
</g>
<g clip-path="url(#a)">
<use x="1176.151079" y="711.95275" fill="#ffffff" stroke="#ffffff" xlink:href="#b"/>
</g>
<g clip-path="url(#a)">
<use x="1220.609912" y="711.95275" fill="#ffffff" stroke="#ffffff" xlink:href="#b"/>
</g>
<g clip-path="url(#a)">
<use x="1265.068745" y="711.95275" fill="#ffffff" stroke="#ffffff" xlink:href="#b"/>
</g>
<g clip-path="url(#a)">
<use x="789.189204" y="34.713917" fill="#ffffff" stroke="#ffffff" xlink:href="#b"/>
</g>
<g clip-path="url(#a)">
<use x="738.583541" y="138.017198" fill="#ffffff" stroke="#ffffff" xlink:href="#b"/>
</g>
<g clip-path="url(#a)">
<use x="866.13011" y="238.543972" fill="#ffffff" stroke="#ffffff" xlink:href="#b"/>
</g>
<g clip-path="url(#a)">
<use x="820.480416" y="619.206199" fill="#ffffff" stroke="#ffffff" xlink:href="#b"/>
</g>
<g clip-path="url(#a)">
<use x="776.021583" y="619.206199" fill="#ffffff" stroke="#ffffff" xlink:href="#b"/>
</g>
<g clip-path="url(#a)">
<use x="956.238638" y="336.575385" fill="#ffffff" stroke="#ffffff" xlink:href="#b"/>
</g>
<g clip-path="url(#a)">
<use x="1096.760306" y="432.422891" fill="#ffffff" stroke="#ffffff" xlink:href="#b"/>
</g>
<g clip-path="url(#a)">
<use x="998.315747" y="619.206199" fill="#ffffff" stroke="#ffffff" xlink:href="#b"/>
</g>
<g clip-path="url(#a)">
<use x="1042.77458" y="619.206199" fill="#ffffff" stroke="#ffffff" xlink:href="#b"/>
</g>
<g clip-path="url(#a)">
<use x="1087.233413" y="619.206199" fill="#ffffff" stroke="#ffffff" xlink:href="#b"/>
</g>
<g clip-path="url(#a)">
<use x="1153.921663" y="526.459648" fill="#ffffff" stroke="#ffffff" xlink:href="#b"/>
</g>
<g clip-path="url(#a)">
<use x="1220.609912" y="619.206199" fill="#ffffff" stroke="#ffffff" xlink:href="#b"/>
</g>
<g clip-path="url(#a)">
<use x="1131.692246" y="619.206199" fill="#ffffff" stroke="#ffffff" xlink:href="#b"/>
</g>
<g clip-path="url(#a)">
<use x="1176.151079" y="619.206199" fill="#ffffff" stroke="#ffffff" xlink:href="#b"/>
</g>
<g clip-path="url(#a)">
<use x="864.939249" y="619.206199" fill="#ffffff" stroke="#ffffff" xlink:href="#b"/>
</g>
<g clip-path="url(#a)">
<use x="909.398082" y="619.206199" fill="#ffffff" stroke="#ffffff" xlink:href="#b"/>
</g>
<g clip-path="url(#a)">
<use x="1353.986411" y="711.95275" fill="#ffffff" stroke="#ffffff" xlink:href="#b"/>
</g>
<g clip-path="url(#a)">
<use x="1309.527578" y="711.95275" fill="#ffffff" stroke="#ffffff" xlink:href="#b"/>
</g>
<g clip-path="url(#a)">
<use x="64.680256" y="619.206199" fill="#ffffff" stroke="#ffffff" xlink:href="#b"/>
</g>
<g clip-path="url(#a)">
<use x="226.139917" y="238.543972" fill="#ffffff" stroke="#ffffff" xlink:href="#b"/>
</g>
<g clip-path="url(#a)">
<use x="427.390234" y="336.575385" fill="#ffffff" stroke="#ffffff" xlink:href="#b"/>
</g>
<g clip-path="url(#a)">
<use x="303.646483" y="526.459648" fill="#ffffff" stroke="#ffffff" xlink:href="#b"/>
</g>
<g clip-path="url(#a)">
<use x="464.809752" y="619.206199" fill="#ffffff" stroke="#ffffff" xlink:href="#b"/>
</g>
<g clip-path="url(#a)">
<use x="513.714468" y="432.422891" fill="#ffffff" stroke="#ffffff" xlink:href="#b"/>
</g>
<g clip-path="url(#a)">
<use x="509.268585" y="619.206199" fill="#ffffff" stroke="#ffffff" xlink:href="#b"/>
</g>
<g clip-path="url(#a)">
<use x="553.727418" y="619.206199" fill="#ffffff" stroke="#ffffff" xlink:href="#b"/>
</g>
<g clip-path="url(#a)">
<use x="620.415667" y="526.459648" fill="#ffffff" stroke="#ffffff" xlink:href="#b"/>
</g>
<g clip-path="url(#a)">
<use x="687.103917" y="619.206199" fill="#ffffff" stroke="#ffffff" xlink:href="#b"/>
</g>
<g clip-path="url(#a)">
<use x="598.186251" y="619.206199" fill="#ffffff" stroke="#ffffff" xlink:href="#b"/>
</g>
<g clip-path="url(#a)">
<use x="642.645084" y="619.206199" fill="#ffffff" stroke="#ffffff" xlink:href="#b"/>
</g>
<g clip-path="url(#a)">
<use x="286.97442" y="619.206199" fill="#ffffff" stroke="#ffffff" xlink:href="#b"/>
</g>
<g clip-path="url(#a)">
<use x="331.433253" y="619.206199" fill="#ffffff" stroke="#ffffff" xlink:href="#b"/>
</g>
<g clip-path="url(#a)">
<use x="398.121503" y="619.206199" fill="#ffffff" stroke="#ffffff" xlink:href="#b"/>
</g>
<g clip-path="url(#a)">
<use x="109.139089" y="619.206199" fill="#ffffff" stroke="#ffffff" xlink:href="#b"/>
</g>
<g clip-path="url(#a)">
<use x="153.597922" y="619.206199" fill="#ffffff" stroke="#ffffff" xlink:href="#b"/>
</g>
<g clip-path="url(#a)">
<use x="198.056755" y="619.206199" fill="#ffffff" stroke="#ffffff" xlink:href="#b"/>
</g>
<g clip-path="url(#a)">
<use x="242.515588" y="619.206199" fill="#ffffff" stroke="#ffffff" xlink:href="#b"/>
</g>
<g clip-path="url(#a)">
<use x="731.56275" y="619.206199" fill="#ffffff" stroke="#ffffff" xlink:href="#b"/>
</g>
<g clip-path="url(#a)">
<use x="953.856914" y="619.206199" fill="#ffffff" stroke="#ffffff" xlink:href="#b"/>
</g>
<g clip-path="url(#a)">
<use x="1265.068745" y="619.206199" fill="#ffffff" stroke="#ffffff" xlink:href="#b"/>
</g>
<g clip-path="url(#a)">
<defs>
<path id="at" d="m28.609 0-27.828 72.906h10.297l23.109-61.375 23.141 61.375h10.25l-27.781-72.906z"/>
<path id="ae" d="m48.781 52.594v-8.4062q-3.8125 2.1094-7.6406 3.1562t-7.7344 1.0469q-8.75 0-13.594-5.5469-4.8281-5.5312-4.8281-15.547t4.8281-15.562q4.8438-5.5312 13.594-5.5312 3.9062 0 7.7344 1.0469t7.6406 3.1562v-8.3125q-3.7656-1.75-7.7969-2.625-4.0156-0.89062-8.5625-0.89062-12.359 0-19.641 7.7656-7.2656 7.7656-7.2656 20.953 0 13.375 7.3438 21.031 7.3594 7.6719 20.156 7.6719 4.1406 0 8.0938-0.85938 3.9531-0.84375 7.6719-2.5469z"/>
<path id="u" d="m54.891 33.016v-33.016h-8.9844v32.719q0 7.7656-3.0312 11.609-3.0312 3.8594-9.0781 3.8594-7.2812 0-11.484-4.6406-4.2031-4.625-4.2031-12.641v-30.906h-9.0312v75.984h9.0312v-29.797q3.2344 4.9375 7.5938 7.375 4.375 2.4375 10.094 2.4375 9.4219 0 14.25-5.8281 4.8438-5.8281 4.8438-17.156z"/>
<path id="aj" d="m18.312 70.219v-15.531h18.5v-6.9844h-18.5v-29.688q0-6.6875 1.8281-8.5938t7.4531-1.9062h9.2188v-7.5156h-9.2188q-10.406 0-14.359 3.875-3.9531 3.8906-3.9531 14.141v29.688h-6.5938v6.9844h6.5938v15.531z"/>
</defs>
<g transform="translate(41.674 714.71) scale(.1 -.1)">
<use xlink:href="#at"/>
<use x="68.376953" xlink:href="#j"/>
<use x="96.160156" xlink:href="#d"/>
<use x="157.683594" xlink:href="#i"/>
<use x="185.466797" xlink:href="#i"/>
<use x="213.25" xlink:href="#d"/>
<use x="274.773438" xlink:href="#j"/>
<use x="302.556641" xlink:href="#ae"/>
<use x="357.537109" xlink:href="#u"/>
<use x="420.916016" xlink:href="#aj"/>
</g>
</g>
<g clip-path="url(#a)">
<defs>
<path id="al" d="m48.688 27.297q0 9.9062-4.0781 15.547t-11.203 5.6406q-7.1406 0-11.219-5.6406t-4.0781-15.547 4.0781-15.547 11.219-5.6406q7.125 0 11.203 5.6406t4.0781 15.547zm-30.578 19.094q2.8438 4.875 7.1562 7.2344 4.3281 2.375 10.328 2.375 9.9688 0 16.188-7.9062 6.2344-7.9062 6.2344-20.797t-6.2344-20.812q-6.2188-7.9062-16.188-7.9062-6 0-10.328 2.375-4.3125 2.375-7.1562 7.25v-8.2031h-9.0312v75.984h9.0312z"/>
</defs>
<g transform="translate(101.5 714.71) scale(.1 -.1)">
<use xlink:href="#al"/>
<use x="63.476562" xlink:href="#d"/>
<use x="125" xlink:href="#j"/>
</g>
</g>
<g clip-path="url(#a)">
<defs>
<path id="r" d="m45.406 46.391v29.594h8.9844v-75.984h-8.9844v8.2031q-2.8281-4.875-7.1562-7.25-4.3125-2.375-10.375-2.375-9.9062 0-16.141 7.9062-6.2188 7.9219-6.2188 20.812t6.2188 20.797q6.2344 7.9062 16.141 7.9062 6.0625 0 10.375-2.375 4.3281-2.3594 7.1562-7.2344zm-30.609-19.094q0-9.9062 4.0781-15.547t11.203-5.6406 11.219 5.6406q4.1094 5.6406 4.1094 15.547t-4.1094 15.547q-4.0938 5.6406-11.219 5.6406t-11.203-5.6406-4.0781-15.547z"/>
</defs>
<g transform="translate(142.48 714.71) scale(.1 -.1)">
<use xlink:href="#r"/>
<use x="63.476562" xlink:href="#d"/>
<use x="125" xlink:href="#k"/>
</g>
</g>
<g clip-path="url(#a)">
<g transform="translate(185.86 714.71) scale(.1 -.1)">
<use xlink:href="#y"/>
<use x="55.712891" xlink:href="#f"/>
<use x="116.992188" xlink:href="#g"/>
<use x="180.371094" xlink:href="#r"/>
</g>
</g>
<g clip-path="url(#a)">
<defs>
<path id="ai" d="m11.719 12.406h10.297v-8.4062l-8-15.625h-6.2969l4 15.625z"/>
</defs>
<g transform="translate(240.93 714.71) scale(.1 -.1)">
<use xlink:href="#ai"/>
</g>
</g>
<g clip-path="url(#a)">
<g transform="translate(275.85 714.71) scale(.1 -.1)">
<use xlink:href="#r"/>
<use x="63.476562" xlink:href="#d"/>
<use x="125" xlink:href="#k"/>
</g>
</g>
<g clip-path="url(#a)">
<g transform="translate(326.3 714.71) scale(.1 -.1)">
<use xlink:href="#d"/>
<use x="61.523438" xlink:href="#h"/>
</g>
</g>
<g clip-path="url(#a)">
<defs>
<path id="ak" d="m44.281 53.078v-8.5q-3.7969 1.9531-7.9062 2.9219-4.0938 0.98438-8.5 0.98438-6.6875 0-10.031-2.0469t-3.3438-6.1562q0-3.125 2.3906-4.9062t9.625-3.3906l3.0781-0.6875q9.5625-2.0469 13.594-5.7812t4.0312-10.422q0-7.625-6.0312-12.078-6.0312-4.4375-16.578-4.4375-4.3906 0-9.1562 0.85938t-10.031 2.5625v9.2812q4.9844-2.5938 9.8125-3.8906 4.8281-1.2812 9.5781-1.2812 6.3438 0 9.75 2.1719 3.4219 2.1719 3.4219 6.125 0 3.6562-2.4688 5.6094-2.4531 1.9531-10.812 3.7656l-3.125 0.73438q-8.3438 1.75-12.062 5.3906-3.7031 3.6406-3.7031 9.9844 0 7.7188 5.4688 11.906 5.4688 4.2031 15.531 4.2031 4.9688 0 9.3594-0.73438 4.4062-0.71875 8.1094-2.1875z"/>
</defs>
<g transform="translate(365.98 714.71) scale(.1 -.1)">
<use xlink:href="#ak"/>
<use x="52.099609" xlink:href="#j"/>
<use x="79.882812" xlink:href="#ae"/>
<use x="134.863281" xlink:href="#u"/>
</g>
</g>
<g clip-path="url(#a)">
<defs>
<path id="av" d="m34.281 27.484q-10.891 0-15.094-2.4844t-4.2031-8.5q0-4.7812 3.1562-7.5938 3.1562-2.7969 8.5625-2.7969 7.4844 0 12 5.2969t4.5156 14.078v2zm17.922 3.7188v-31.203h-8.9844v8.2969q-3.0781-4.9688-7.6719-7.3438t-11.234-2.375q-8.3906 0-13.359 4.7188-4.9531 4.7188-4.9531 12.625 0 9.2188 6.1719 13.906 6.1875 4.6875 18.438 4.6875h12.609v0.89062q0 6.2031-4.0781 9.5938t-11.453 3.3906q-4.6875 0-9.1406-1.125-4.4375-1.125-8.5312-3.375v8.3125q4.9219 1.9062 9.5625 2.8438 4.6406 0.95312 9.0312 0.95312 11.875 0 17.734-6.1562 5.8594-6.1406 5.8594-18.641zm-18.609 44.578h9.9062v-9.8594h-9.9062zm-19.094 0h9.9062v-9.8594h-9.9062z"/>
</defs>
<g transform="translate(400.78 714.71) scale(.1 -.1)">
<use xlink:href="#g"/>
<use x="63.378906" xlink:href="#av"/>
<use x="124.658203" xlink:href="#u"/>
<use x="188.037109" xlink:href="#d"/>
<use x="249.560547" xlink:href="#h"/>
<use x="290.673828" xlink:href="#aj"/>
<use x="329.882812" xlink:href="#d"/>
</g>
</g>
<g clip-path="url(#a)">
<defs>
<path id="ad" d="m8.5 21.578v33.109h8.9844v-32.766q0-7.7656 3.0156-11.656 3.0312-3.875 9.0938-3.875 7.2656 0 11.484 4.6406 4.2344 4.6406 4.2344 12.656v31h8.9844v-54.688h-8.9844v8.4062q-3.2656-4.9844-7.5938-7.4062-4.3125-2.4219-10.031-2.4219-9.4219 0-14.312 5.8594-4.875 5.8594-4.875 17.141z"/>
</defs>
<g transform="translate(455.3 714.71) scale(.1 -.1)">
<use xlink:href="#ad"/>
<use x="63.378906" xlink:href="#g"/>
<use x="126.757812" xlink:href="#r"/>
</g>
</g>
<g clip-path="url(#a)">
<g transform="translate(500.43 714.71) scale(.1 -.1)">
<use xlink:href="#r"/>
<use x="63.476562" xlink:href="#f"/>
<use x="124.755859" xlink:href="#ak"/>
</g>
</g>
<g clip-path="url(#a)">
<g transform="translate(548.6 714.71) scale(.1 -.1)">
<use xlink:href="#d"/>
<use x="61.523438" xlink:href="#h"/>
</g>
</g>
<g clip-path="url(#a)">
<defs>
<path id="ap" d="m5.5156 54.688h42.672v-8.2031l-33.781-39.312h33.781v-7.1719h-43.891v8.2031l33.797 39.312h-32.578z"/>
</defs>
<g transform="translate(586.55 714.71) scale(.1 -.1)">
<use xlink:href="#f"/>
<use x="61.279297" xlink:href="#i"/>
<use x="89.0625" xlink:href="#i"/>
<use x="116.845703" xlink:href="#ap"/>
<use x="169.335938" xlink:href="#ad"/>
</g>
</g>
<g clip-path="url(#a)">
<g transform="translate(633.24 714.71) scale(.1 -.1)">
<use xlink:href="#g"/>
<use x="63.378906" xlink:href="#f"/>
<use x="124.658203" xlink:href="#u"/>
</g>
</g>
<g clip-path="url(#a)">
<defs>
<path id="as" d="m37.109 75.984v-7.4844h-8.5938q-4.8281 0-6.7188-1.9531-1.875-1.9531-1.875-7.0312v-4.8281h14.797v-6.9844h-14.797v-47.703h-9.0312v47.703h-8.5938v6.9844h8.5938v3.8125q0 9.125 4.25 13.297 4.25 4.1875 13.469 4.1875z"/>
</defs>
<g transform="translate(675.94 714.71) scale(.1 -.1)">
<use xlink:href="#as"/>
<use x="35.205078" xlink:href="#f"/>
<use x="96.484375" xlink:href="#g"/>
<use x="159.863281" xlink:href="#r"/>
</g>
</g>
<g clip-path="url(#a)">
<g transform="translate(729.97 714.71) scale(.1 -.1)">
<use xlink:href="#ai"/>
</g>
</g>
<g clip-path="url(#a)">
<defs>
<path id="ay" d="m45.406 27.984q0 9.7656-4.0312 15.125-4.0156 5.375-11.297 5.375-7.2188 0-11.25-5.375-4.0312-5.3594-4.0312-15.125 0-9.7188 4.0312-15.094t11.25-5.375q7.2812 0 11.297 5.375 4.0312 5.375 4.0312 15.094zm8.9844-21.203q0-13.953-6.2031-20.766-6.1875-6.8125-18.984-6.8125-4.7344 0-8.9375 0.70312t-8.1562 2.1719v8.7344q3.9531-2.1406 7.8125-3.1562 3.8594-1.0312 7.8594-1.0312 8.8438 0 13.234 4.6094t4.3906 13.938v4.4531q-2.7812-4.8438-7.125-7.2344t-10.406-2.3906q-10.047 0-16.203 7.6562-6.1562 7.6719-6.1562 20.328 0 12.688 6.1562 20.344 6.1562 7.6719 16.203 7.6719 6.0625 0 10.406-2.3906t7.125-7.2188v8.2969h8.9844z"/>
<path id="ar" d="m9.0781 75.984h9.0312v-44.875l26.812 23.578h11.469l-29-25.578 30.234-29.109h-11.719l-27.797 26.703v-26.703h-9.0312z"/>
</defs>
<g transform="translate(748.58 714.71) scale(.1 -.1)">
<use xlink:href="#ad"/>
<use x="63.378906" xlink:href="#k"/>
<use x="160.791016" xlink:href="#ay"/>
<use x="224.267578" xlink:href="#d"/>
<use x="285.791016" xlink:href="#ar"/>
<use x="343.654297" xlink:href="#d"/>
<use x="405.177734" xlink:href="#u"/>
<use x="468.556641" xlink:href="#h"/>
<use x="509.669922" xlink:href="#aj"/>
</g>
</g>
<g clip-path="url(#a)">
<defs>
<path id="aw" d="m4.2031 54.688h8.9844l11.234-42.672 11.172 42.672h10.594l11.234-42.672 11.188 42.672h8.9844l-14.312-54.688h-10.594l-11.766 44.828-11.812-44.828h-10.609z"/>
</defs>
<g transform="translate(811.93 714.71) scale(.1 -.1)">
<use xlink:href="#aw"/>
<use x="81.787109" xlink:href="#j"/>
<use x="109.570312" xlink:href="#d"/>
</g>
</g>
<g clip-path="url(#a)">
<g transform="translate(857.3 714.71) scale(.1 -.1)">
<use xlink:href="#al"/>
<use x="63.476562" xlink:href="#d"/>
<use x="125" xlink:href="#j"/>
</g>
</g>
<g clip-path="url(#a)">
<g transform="translate(899.41 714.71) scale(.1 -.1)">
<use xlink:href="#am"/>
<use x="74.804688" xlink:href="#d"/>
<use x="136.328125" xlink:href="#r"/>
</g>
</g>
<g clip-path="url(#a)">
<g transform="translate(952.27 714.71) scale(.1 -.1)">
<use xlink:href="#ai"/>
</g>
</g>
<g clip-path="url(#a)">
<g transform="translate(987.19 714.71) scale(.1 -.1)">
<use xlink:href="#r"/>
<use x="63.476562" xlink:href="#d"/>
<use x="125" xlink:href="#k"/>
</g>
</g>
<g clip-path="url(#a)">
<g transform="translate(1037.1 714.71) scale(.1 -.1)">
<use xlink:href="#d"/>
<use x="61.523438" xlink:href="#ak"/>
</g>
</g>
<g clip-path="url(#a)">
<defs>
<path id="aq" d="m30.609 48.391q-7.2188 0-11.422-5.6406t-4.2031-15.453 4.1719-15.453q4.1875-5.6406 11.453-5.6406 7.1875 0 11.375 5.6562 4.2031 5.6719 4.2031 15.438 0 9.7188-4.2031 15.406-4.1875 5.6875-11.375 5.6875zm0 7.6094q11.719 0 18.406-7.625 6.7031-7.6094 6.7031-21.078 0-13.422-6.7031-21.078-6.6875-7.6406-18.406-7.6406-11.766 0-18.438 7.6406-6.6562 7.6562-6.6562 21.078 0 13.469 6.6562 21.078 6.6719 7.625 18.438 7.625z"/>
</defs>
<g transform="translate(1075.1 714.71) scale(.1 -.1)">
<use xlink:href="#g"/>
<use x="63.378906" xlink:href="#aq"/>
<use x="124.560547" xlink:href="#ae"/>
<use x="179.541016" xlink:href="#u"/>
</g>
</g>
<g clip-path="url(#a)">
<g transform="translate(1120.1 714.71) scale(.1 -.1)">
<use xlink:href="#f"/>
<use x="61.279297" xlink:href="#i"/>
<use x="89.0625" xlink:href="#i"/>
<use x="116.845703" xlink:href="#ap"/>
<use x="169.335938" xlink:href="#ad"/>
</g>
</g>
<g clip-path="url(#a)">
<g transform="translate(1166.1 714.71) scale(.1 -.1)">
<use xlink:href="#as"/>
<use x="35.205078" xlink:href="#d"/>
<use x="96.728516" xlink:href="#h"/>
<use x="137.826172" xlink:href="#g"/>
</g>
</g>
<g clip-path="url(#a)">
<defs>
<path id="ax" d="m2.9844 54.688h9.5156l17.094-45.891 17.094 45.891h9.5156l-20.516-54.688h-12.203z"/>
</defs>
<g transform="translate(1201.7 714.71) scale(.1 -.1)">
<use xlink:href="#ax"/>
<use x="59.179688" xlink:href="#aq"/>
<use x="120.361328" xlink:href="#h"/>
<use x="161.474609" xlink:href="#ar"/>
<use x="219.369141" xlink:href="#f"/>
<use x="280.648438" xlink:href="#k"/>
</g>
</g>
<g clip-path="url(#a)">
<defs>
<path id="e" d="m10.688 12.406h10.312v-12.406h-10.312z"/>
</defs>
<g transform="translate(1263.5 714.71) scale(.1 -.1)">
<use xlink:href="#e"/>
</g>
</g>
<g clip-path="url(#a)">
<defs>
<path id="c" d="m12.406 8.2969h16.109v55.625l-17.531-3.5156v8.9844l17.438 3.5156h9.8594v-64.609h16.109v-8.2969h-41.984z"/>
</defs>
<g transform="translate(781.24 37.473) scale(.1 -.1)">
<use xlink:href="#c"/>
<use x="63.623047" xlink:href="#e"/>
<use x="95.410156" xlink:href="#c"/>
</g>
</g>
<g clip-path="url(#a)">
<defs>
<path id="o" d="m19.188 8.2969h34.422v-8.2969h-46.281v8.2969q5.6094 5.8125 15.297 15.594 9.7031 9.7969 12.188 12.641 4.7344 5.3125 6.6094 9 1.8906 3.6875 1.8906 7.25 0 5.8125-4.0781 9.4688-4.0781 3.6719-10.625 3.6719-4.6406 0-9.7969-1.6094-5.1406-1.6094-11-4.8906v9.9688q5.9531 2.3906 11.125 3.6094 5.1875 1.2188 9.4844 1.2188 11.328 0 18.062-5.6719 6.7344-5.6562 6.7344-15.125 0-4.5-1.6875-8.5312-1.6719-4.0156-6.125-9.4844-1.2188-1.4219-7.7656-8.1875-6.5312-6.7656-18.453-18.922z"/>
</defs>
<g transform="translate(730.63 140.78) scale(.1 -.1)">
<use xlink:href="#c"/>
<use x="63.623047" xlink:href="#e"/>
<use x="95.410156" xlink:href="#o"/>
</g>
</g>
<g clip-path="url(#a)">
<defs>
<path id="n" d="m37.797 64.312-24.906-38.922h24.906zm-2.5938 8.5938h12.406v-47.516h10.406v-8.2031h-10.406v-17.188h-9.8125v17.188h-32.906v9.5156z"/>
</defs>
<g transform="translate(858.18 241.3) scale(.1 -.1)">
<use xlink:href="#c"/>
<use x="63.623047" xlink:href="#e"/>
<use x="95.410156" xlink:href="#n"/>
</g>
</g>
<g clip-path="url(#a)">
<defs>
<path id="ac" d="m10.797 72.906h38.719v-8.3125h-29.688v-17.859q2.1406 0.73438 4.2812 1.0938 2.1562 0.35938 4.3125 0.35938 12.203 0 19.328-6.6875 7.1406-6.6875 7.1406-18.109 0-11.766-7.3281-18.297-7.3281-6.5156-20.656-6.5156-4.5938 0-9.3594 0.78125-4.75 0.78125-9.8281 2.3438v9.9219q4.3906-2.3906 9.0781-3.5625t9.9062-1.1719q8.4531 0 13.375 4.4375 4.9375 4.4375 4.9375 12.062 0 7.6094-4.9375 12.047-4.9219 4.4531-13.375 4.4531-3.9531 0-7.8906-0.875-3.9219-0.875-8.0156-2.7344z"/>
</defs>
<g transform="translate(812.53 621.97) scale(.1 -.1)">
<use xlink:href="#c"/>
<use x="63.623047" xlink:href="#e"/>
<use x="95.410156" xlink:href="#ac"/>
</g>
</g>
<g clip-path="url(#a)">
<defs>
<path id="ab" d="m8.2031 72.906h46.875v-4.2031l-26.469-68.703h-10.297l24.906 64.594h-35.016z"/>
</defs>
<g transform="translate(768.07 621.97) scale(.1 -.1)">
<use xlink:href="#c"/>
<use x="63.623047" xlink:href="#e"/>
<use x="95.410156" xlink:href="#ab"/>
</g>
</g>
<g clip-path="url(#a)">
<defs>
<path id="aa" d="m31.781 34.625q-7.0312 0-11.062-3.7656-4.0156-3.7656-4.0156-10.344 0-6.5938 4.0156-10.359 4.0312-3.7656 11.062-3.7656t11.078 3.7812q4.0625 3.7969 4.0625 10.344 0 6.5781-4.0312 10.344-4.0156 3.7656-11.109 3.7656zm-9.8594 4.1875q-6.3438 1.5625-9.8906 5.9062-3.5312 4.3594-3.5312 10.609 0 8.7344 6.2188 13.812 6.2344 5.0781 17.062 5.0781 10.891 0 17.094-5.0781t6.2031-13.812q0-6.25-3.5469-10.609-3.5312-4.3438-9.8281-5.9062 7.125-1.6562 11.094-6.5 3.9844-4.8281 3.9844-11.797 0-10.609-6.4688-16.281-6.4688-5.6562-18.531-5.6562-12.047 0-18.531 5.6562-6.4688 5.6719-6.4688 16.281 0 6.9688 4 11.797 4.0156 4.8438 11.141 6.5zm-3.6094 15.578q0-5.6562 3.5312-8.8281 3.5469-3.1719 9.9375-3.1719 6.3594 0 9.9375 3.1719 3.5938 3.1719 3.5938 8.8281 0 5.6719-3.5938 8.8438-3.5781 3.1719-9.9375 3.1719-6.3906 0-9.9375-3.1719-3.5312-3.1719-3.5312-8.8438z"/>
</defs>
<g transform="translate(948.29 339.33) scale(.1 -.1)">
<use xlink:href="#c"/>
<use x="63.623047" xlink:href="#e"/>
<use x="95.410156" xlink:href="#aa"/>
</g>
</g>
<g clip-path="url(#a)">
<g transform="translate(1085.6 435.18) scale(.1 -.1)">
<use xlink:href="#c"/>
<use x="63.623047" xlink:href="#e"/>
<use x="95.410156" xlink:href="#c"/>
<use x="159.033203" xlink:href="#c"/>
</g>
</g>
<g clip-path="url(#a)">
<g transform="translate(987.18 621.97) scale(.1 -.1)">
<use xlink:href="#c"/>
<use x="63.623047" xlink:href="#e"/>
<use x="95.410156" xlink:href="#c"/>
<use x="159.033203" xlink:href="#o"/>
</g>
</g>
<g clip-path="url(#a)">
<defs>
<path id="m" d="m40.578 39.312q7.0781-1.5156 11.047-6.3125 3.9844-4.7812 3.9844-11.812 0-10.781-7.4219-16.703-7.4219-5.9062-21.094-5.9062-4.5781 0-9.4375 0.90625t-10.031 2.7188v9.5156q4.0938-2.3906 8.9688-3.6094 4.8906-1.2188 10.219-1.2188 9.2656 0 14.125 3.6562t4.8594 10.641q0 6.4531-4.5156 10.078-4.5156 3.6406-12.562 3.6406h-8.5v8.1094h8.8906q7.2656 0 11.125 2.9062t3.8594 8.375q0 5.6094-3.9844 8.6094-3.9688 3.0156-11.391 3.0156-4.0625 0-8.7031-0.89062-4.6406-0.875-10.203-2.7188v8.7812q5.625 1.5625 10.531 2.3438t9.25 0.78125q11.234 0 17.766-5.1094 6.5469-5.0938 6.5469-13.781 0-6.0625-3.4688-10.234t-9.8594-5.7812z"/>
</defs>
<g transform="translate(1031.6 621.97) scale(.1 -.1)">
<use xlink:href="#c"/>
<use x="63.623047" xlink:href="#e"/>
<use x="95.410156" xlink:href="#c"/>
<use x="159.033203" xlink:href="#m"/>
</g>
</g>
<g clip-path="url(#a)">
<g transform="translate(1076.1 621.97) scale(.1 -.1)">
<use xlink:href="#c"/>
<use x="63.623047" xlink:href="#e"/>
<use x="95.410156" xlink:href="#c"/>
<use x="159.033203" xlink:href="#n"/>
</g>
</g>
<g clip-path="url(#a)">
<g transform="translate(1142.8 529.22) scale(.1 -.1)">
<use xlink:href="#c"/>
<use x="63.623047" xlink:href="#e"/>
<use x="95.410156" xlink:href="#c"/>
<use x="159.033203" xlink:href="#ac"/>
</g>
</g>
<g clip-path="url(#a)">
<defs>
<path id="ag" d="m33.016 40.375q-6.6406 0-10.531-4.5469-3.875-4.5312-3.875-12.438 0-7.8594 3.875-12.438 3.8906-4.5625 10.531-4.5625t10.516 4.5625q3.875 4.5781 3.875 12.438 0 7.9062-3.875 12.438-3.875 4.5469-10.516 4.5469zm19.578 30.922v-8.9844q-3.7188 1.75-7.5 2.6719-3.7812 0.9375-7.5 0.9375-9.7656 0-14.922-6.5938-5.1406-6.5938-5.875-19.922 2.875 4.25 7.2188 6.5156 4.3594 2.2656 9.5781 2.2656 10.984 0 17.359-6.6719 6.375-6.6562 6.375-18.125 0-11.234-6.6406-18.031-6.6406-6.7812-17.672-6.7812-12.656 0-19.344 9.6875-6.6875 9.7031-6.6875 28.109 0 17.281 8.2031 27.562t22.016 10.281q3.7188 0 7.5-0.73438t7.8906-2.1875z"/>
</defs>
<g transform="translate(1209.5 621.97) scale(.1 -.1)">
<use xlink:href="#c"/>
<use x="63.623047" xlink:href="#e"/>
<use x="95.410156" xlink:href="#c"/>
<use x="159.033203" xlink:href="#ag"/>
</g>
</g>
<g clip-path="url(#a)">
<g transform="translate(1120.6 621.97) scale(.1 -.1)">
<use xlink:href="#c"/>
<use x="63.623047" xlink:href="#e"/>
<use x="95.410156" xlink:href="#c"/>
<use x="159.033203" xlink:href="#ab"/>
</g>
</g>
<g clip-path="url(#a)">
<g transform="translate(1165 621.97) scale(.1 -.1)">
<use xlink:href="#c"/>
<use x="63.623047" xlink:href="#e"/>
<use x="95.410156" xlink:href="#c"/>
<use x="159.033203" xlink:href="#aa"/>
</g>
</g>
<g clip-path="url(#a)">
<defs>
<path id="af" d="m10.984 1.5156v8.9844q3.7188-1.7656 7.5156-2.6875 3.8125-0.92188 7.4844-0.92188 9.7656 0 14.906 6.5625 5.1562 6.5625 5.8906 19.953-2.8281-4.2031-7.1875-6.4531-4.3438-2.25-9.6094-2.25-10.938 0-17.312 6.6094-6.375 6.625-6.375 18.109 0 11.219 6.6406 18 6.6406 6.7969 17.672 6.7969 12.656 0 19.312-9.7031 6.6719-9.6875 6.6719-28.141 0-17.234-8.1875-27.516-8.1719-10.281-21.984-10.281-3.7188 0-7.5312 0.73438-3.7969 0.73438-7.9062 2.2031zm19.625 30.906q6.6406 0 10.516 4.5312 3.8906 4.5469 3.8906 12.469 0 7.8594-3.8906 12.422-3.875 4.5625-10.516 4.5625t-10.516-4.5625-3.875-12.422q0-7.9219 3.875-12.469 3.875-4.5312 10.516-4.5312z"/>
</defs>
<g transform="translate(853.81 621.97) scale(.1 -.1)">
<use xlink:href="#c"/>
<use x="63.623047" xlink:href="#e"/>
<use x="95.410156" xlink:href="#c"/>
<use x="159.033203" xlink:href="#af"/>
</g>
</g>
<g clip-path="url(#a)">
<defs>
<path id="ah" d="m31.781 66.406q-7.6094 0-11.453-7.5-3.8281-7.4844-3.8281-22.531 0-14.984 3.8281-22.484 3.8438-7.5 11.453-7.5 7.6719 0 11.5 7.5 3.8438 7.5 3.8438 22.484 0 15.047-3.8438 22.531-3.8281 7.5-11.5 7.5zm0 7.8125q12.266 0 18.734-9.7031 6.4688-9.6875 6.4688-28.141 0-18.406-6.4688-28.109-6.4688-9.6875-18.734-9.6875-12.25 0-18.719 9.6875-6.4688 9.7031-6.4688 28.109 0 18.453 6.4688 28.141 6.4688 9.7031 18.719 9.7031z"/>
</defs>
<g transform="translate(898.27 621.97) scale(.1 -.1)">
<use xlink:href="#c"/>
<use x="63.623047" xlink:href="#e"/>
<use x="95.410156" xlink:href="#o"/>
<use x="159.033203" xlink:href="#ah"/>
</g>
</g>
<g clip-path="url(#a)">
<defs>
<path id="t" d="m9.8125 72.906h9.8594v-72.906h-9.8594z"/>
<path id="an" d="m9.8125 72.906h14.703l18.594-49.609 18.703 49.609h14.703v-72.906h-9.625v64.016l-18.797-50h-9.9062l-18.797 50v-64.016h-9.5781z"/>
</defs>
<g transform="translate(1332.9 714.71) scale(.1 -.1)">
<use xlink:href="#t"/>
<use x="29.492188" xlink:href="#an"/>
<use x="115.771484" xlink:href="#s"/>
<use x="176.074219" xlink:href="#y"/>
<use x="231.787109" xlink:href="#t"/>
<use x="261.279297" xlink:href="#q"/>
<use x="331.103516" xlink:href="#t"/>
<use x="360.595703" xlink:href="#l"/>
</g>
</g>
<g clip-path="url(#a)">
<g transform="translate(1288.4 714.71) scale(.1 -.1)">
<use xlink:href="#t"/>
<use x="29.492188" xlink:href="#an"/>
<use x="115.771484" xlink:href="#s"/>
<use x="176.074219" xlink:href="#y"/>
<use x="231.787109" xlink:href="#t"/>
<use x="261.279297" xlink:href="#q"/>
<use x="331.103516" xlink:href="#t"/>
<use x="360.595703" xlink:href="#l"/>
</g>
</g>
<g clip-path="url(#a)">
<g transform="translate(53.547 621.97) scale(.1 -.1)">
<use xlink:href="#c"/>
<use x="63.623047" xlink:href="#e"/>
<use x="95.410156" xlink:href="#o"/>
<use x="159.033203" xlink:href="#m"/>
</g>
</g>
<g clip-path="url(#a)">
<g transform="translate(215.01 241.3) scale(.1 -.1)">
<use xlink:href="#c"/>
<use x="63.623047" xlink:href="#e"/>
<use x="95.410156" xlink:href="#o"/>
<use x="159.033203" xlink:href="#n"/>
</g>
</g>
<g clip-path="url(#a)">
<g transform="translate(416.26 339.33) scale(.1 -.1)">
<use xlink:href="#c"/>
<use x="63.623047" xlink:href="#e"/>
<use x="95.410156" xlink:href="#o"/>
<use x="159.033203" xlink:href="#ab"/>
</g>
</g>
<g clip-path="url(#a)">
<g transform="translate(292.51 529.22) scale(.1 -.1)">
<use xlink:href="#c"/>
<use x="63.623047" xlink:href="#e"/>
<use x="95.410156" xlink:href="#o"/>
<use x="159.033203" xlink:href="#aa"/>
</g>
</g>
<g clip-path="url(#a)">
<g transform="translate(453.68 621.97) scale(.1 -.1)">
<use xlink:href="#c"/>
<use x="63.623047" xlink:href="#e"/>
<use x="95.410156" xlink:href="#o"/>
<use x="159.033203" xlink:href="#af"/>
</g>
</g>
<g clip-path="url(#a)">
<g transform="translate(502.58 435.18) scale(.1 -.1)">
<use xlink:href="#c"/>
<use x="63.623047" xlink:href="#e"/>
<use x="95.410156" xlink:href="#m"/>
<use x="159.033203" xlink:href="#ah"/>
</g>
</g>
<g clip-path="url(#a)">
<g transform="translate(498.14 621.97) scale(.1 -.1)">
<use xlink:href="#c"/>
<use x="63.623047" xlink:href="#e"/>
<use x="95.410156" xlink:href="#m"/>
<use x="159.033203" xlink:href="#c"/>
</g>
</g>
<g clip-path="url(#a)">
<g transform="translate(542.59 621.97) scale(.1 -.1)">
<use xlink:href="#c"/>
<use x="63.623047" xlink:href="#e"/>
<use x="95.410156" xlink:href="#m"/>
<use x="159.033203" xlink:href="#o"/>
</g>
</g>
<g clip-path="url(#a)">
<g transform="translate(609.28 529.22) scale(.1 -.1)">
<use xlink:href="#c"/>
<use x="63.623047" xlink:href="#e"/>
<use x="95.410156" xlink:href="#m"/>
<use x="159.033203" xlink:href="#m"/>
</g>
</g>
<g clip-path="url(#a)">
<g transform="translate(675.97 621.97) scale(.1 -.1)">
<use xlink:href="#c"/>
<use x="63.623047" xlink:href="#e"/>
<use x="95.410156" xlink:href="#m"/>
<use x="159.033203" xlink:href="#n"/>
</g>
</g>
<g clip-path="url(#a)">
<g transform="translate(587.05 621.97) scale(.1 -.1)">
<use xlink:href="#c"/>
<use x="63.623047" xlink:href="#e"/>
<use x="95.410156" xlink:href="#m"/>
<use x="159.033203" xlink:href="#ac"/>
</g>
</g>
<g clip-path="url(#a)">
<g transform="translate(631.51 621.97) scale(.1 -.1)">
<use xlink:href="#c"/>
<use x="63.623047" xlink:href="#e"/>
<use x="95.410156" xlink:href="#m"/>
<use x="159.033203" xlink:href="#ag"/>
</g>
</g>
<g clip-path="url(#a)">
<g transform="translate(275.84 621.97) scale(.1 -.1)">
<use xlink:href="#c"/>
<use x="63.623047" xlink:href="#e"/>
<use x="95.410156" xlink:href="#m"/>
<use x="159.033203" xlink:href="#ab"/>
</g>
</g>
<g clip-path="url(#a)">
<g transform="translate(320.3 621.97) scale(.1 -.1)">
<use xlink:href="#c"/>
<use x="63.623047" xlink:href="#e"/>
<use x="95.410156" xlink:href="#m"/>
<use x="159.033203" xlink:href="#aa"/>
</g>
</g>
<g clip-path="url(#a)">
<g transform="translate(386.99 621.97) scale(.1 -.1)">
<use xlink:href="#c"/>
<use x="63.623047" xlink:href="#e"/>
<use x="95.410156" xlink:href="#m"/>
<use x="159.033203" xlink:href="#af"/>
</g>
</g>
<g clip-path="url(#a)">
<g transform="translate(98.006 621.97) scale(.1 -.1)">
<use xlink:href="#c"/>
<use x="63.623047" xlink:href="#e"/>
<use x="95.410156" xlink:href="#n"/>
<use x="159.033203" xlink:href="#ah"/>
</g>
</g>
<g clip-path="url(#a)">
<g transform="translate(142.47 621.97) scale(.1 -.1)">
<use xlink:href="#c"/>
<use x="63.623047" xlink:href="#e"/>
<use x="95.410156" xlink:href="#n"/>
<use x="159.033203" xlink:href="#c"/>
</g>
</g>
<g clip-path="url(#a)">
<g transform="translate(186.92 621.97) scale(.1 -.1)">
<use xlink:href="#c"/>
<use x="63.623047" xlink:href="#e"/>
<use x="95.410156" xlink:href="#n"/>
<use x="159.033203" xlink:href="#o"/>
</g>
</g>
<g clip-path="url(#a)">
<g transform="translate(231.38 621.97) scale(.1 -.1)">
<use xlink:href="#c"/>
<use x="63.623047" xlink:href="#e"/>
<use x="95.410156" xlink:href="#n"/>
<use x="159.033203" xlink:href="#m"/>
</g>
</g>
<g clip-path="url(#a)">
<g transform="translate(720.43 621.97) scale(.1 -.1)">
<use xlink:href="#c"/>
<use x="63.623047" xlink:href="#e"/>
<use x="95.410156" xlink:href="#n"/>
<use x="159.033203" xlink:href="#n"/>
</g>
</g>
<g clip-path="url(#a)">
<g transform="translate(942.72 621.97) scale(.1 -.1)">
<use xlink:href="#c"/>
<use x="63.623047" xlink:href="#e"/>
<use x="95.410156" xlink:href="#n"/>
<use x="159.033203" xlink:href="#ac"/>
</g>
</g>
<g clip-path="url(#a)">
<g transform="translate(1253.9 621.97) scale(.1 -.1)">
<use xlink:href="#c"/>
<use x="63.623047" xlink:href="#e"/>
<use x="95.410156" xlink:href="#n"/>
<use x="159.033203" xlink:href="#ag"/>
</g>
</g>
<defs>
<clipPath id="a">
<rect width="1418.7" height="746.67"/>
</clipPath>
</defs>
</svg>
