<?xml version="1.0" encoding="UTF-8"?>
<!DOCTYPE svg  PUBLIC '-//W3C//DTD SVG 1.1//EN'  'http://www.w3.org/Graphics/SVG/1.1/DTD/svg11.dtd'>
<svg width="658.67pt" height="346.67pt" version="1.1" viewBox="0 0 658.67 346.67" xmlns="http://www.w3.org/2000/svg" xmlns:xlink="http://www.w3.org/1999/xlink">
<defs>
<style type="text/css">*{stroke-linecap:butt;stroke-linejoin:round;white-space:pre;}</style>
</defs>
<path d="m0 346.67h658.67v-346.67h-658.67z" fill="#fff"/>
<g fill="none" stroke="#000">
<path d="m475.74 16.668v54.881" clip-path="url(#a)"/>
<path d="m475.74 71.549 152.66 258.45" clip-path="url(#a)"/>
<path d="m475.74 71.549 117.47 258.45" clip-path="url(#a)"/>
<path d="m475.74 71.549-270.13 53.519" clip-path="url(#a)"/>
<path d="m205.6 125.07 74.472 52.326" clip-path="url(#a)"/>
<path d="m205.6 125.07 100.27 52.326" clip-path="url(#a)"/>
<path d="m205.6 125.07-175.33 154.3" clip-path="url(#a)"/>
<path d="m205.6 125.07 0.58639 154.3" clip-path="url(#a)"/>
<path d="m280.08 177.39 277.95 152.6" clip-path="url(#a)"/>
<path d="m280.08 177.39 242.77 152.6" clip-path="url(#a)"/>
<path d="m280.08 177.39-214.62 101.97" clip-path="url(#a)"/>
<path d="m280.08 177.39-126.66 51.338" clip-path="url(#a)"/>
<path d="m280.08 177.39-179.44 101.97" clip-path="url(#a)"/>
<path d="m305.88 177.39-64.503 101.97" clip-path="url(#a)"/>
<path d="m305.88 177.39-29.32 101.97" clip-path="url(#a)"/>
<path d="m305.88 177.39 93.823 51.338" clip-path="url(#a)"/>
<path d="m241.37 279.37v50.633" clip-path="url(#a)"/>
<path d="m276.56 279.37v50.633" clip-path="url(#a)"/>
<path d="m399.7 228.73 87.959 101.27" clip-path="url(#a)"/>
<path d="m399.7 228.73-87.959 50.633" clip-path="url(#a)"/>
<path d="m399.7 228.73-52.775 50.633" clip-path="url(#a)"/>
<path d="m399.7 228.73-17.592 50.633" clip-path="url(#a)"/>
<path d="m399.7 228.73 17.592 50.633" clip-path="url(#a)"/>
<path d="m399.7 228.73 52.775 50.633" clip-path="url(#a)"/>
<path d="m311.74 279.37v50.633" clip-path="url(#a)"/>
<path d="m346.93 279.37v50.633" clip-path="url(#a)"/>
<path d="m65.456 279.37v50.633" clip-path="url(#a)"/>
<path d="m153.42 228.73-17.592 50.633" clip-path="url(#a)"/>
<path d="m153.42 228.73 17.592 50.633" clip-path="url(#a)"/>
<path d="m30.272 279.37v50.633" clip-path="url(#a)"/>
<path d="m100.64 279.37v50.633" clip-path="url(#a)"/>
<path d="m135.82 279.37v50.633" clip-path="url(#a)"/>
<path d="m171.01 279.37v50.633" clip-path="url(#a)"/>
<path d="m206.19 279.37v50.633" clip-path="url(#a)"/>
<path d="m382.11 279.37v50.633" clip-path="url(#a)"/>
<path d="m417.29 279.37v50.633" clip-path="url(#a)"/>
<path d="m452.48 279.37v50.633" clip-path="url(#a)"/>
</g>
<path d="m469.47 41.101v6.0162q0 2.4 2.4 2.4h7.7425q2.4 0 2.4-2.4v-6.0162q0-2.4-2.4-2.4h-7.7425q-2.4 0-2.4 2.4z" clip-path="url(#a)" fill="#fff" stroke="#fff"/>
<g clip-path="url(#a)">
<defs>
<path id="u" d="m9.8125 72.906h9.8594v-29.891h35.844v29.891h9.8594v-72.906h-9.8594v34.719h-35.844v-34.719h-9.8594z"/>
</defs>
<g transform="translate(473.53 41.101) rotate(90) scale(.08 -.08)">
<use xlink:href="#u"/>
</g>
</g>
<path d="m545.44 201.89 2.4532 4.1533q1.2206 2.0664 3.287 0.84586l6.6664-3.9376q2.0664-1.2206 0.84586-3.287l-2.4532-4.1533q-1.2206-2.0664-3.287-0.84586l-6.6664 3.9376q-2.0664 1.2206-0.84586 3.287z" clip-path="url(#a)" fill="#fff" stroke="#fff"/>
<g clip-path="url(#a)">
<defs>
<path id="o" d="m19.672 64.797v-27.391h12.406q6.8906 0 10.641 3.5625 3.7656 3.5625 3.7656 10.156 0 6.5469-3.7656 10.109-3.75 3.5625-10.641 3.5625zm-9.8594 8.1094h22.266q12.266 0 18.531-5.5469 6.2812-5.5469 6.2812-16.234 0-10.797-6.2812-16.312-6.2656-5.5156-18.531-5.5156h-12.406v-29.297h-9.8594z"/>
</defs>
<g transform="translate(548.94 199.82) rotate(59.431) scale(.08 -.08)">
<use xlink:href="#o"/>
</g>
</g>
<path d="m527.63 200.88 2.2645 4.982q0.99311 2.1849 3.178 1.1918l7.0485-3.2038q2.1849-0.99311 1.1918-3.178l-2.2645-4.982q-0.99311-2.1849-3.178-1.1918l-7.0485 3.2038q-2.1849 0.99311-1.1918 3.178z" clip-path="url(#a)" fill="#fff" stroke="#fff"/>
<g clip-path="url(#a)">
<defs>
<path id="r" d="m34.188 63.188-13.391-36.281h26.812zm-5.5781 9.7188h11.188l27.781-72.906h-10.25l-6.6406 18.703h-32.859l-6.6406-18.703h-10.406z"/>
</defs>
<g transform="translate(531.33 199.2) rotate(65.557) scale(.08 -.08)">
<use xlink:href="#r"/>
</g>
</g>
<path d="m339.2 104.99 5.3682-1.0635q2.3542-0.46642 1.8878-2.8207l-1.5047-7.5949q-0.46642-2.3542-2.8207-1.8878l-5.3682 1.0635q-2.3542 0.46642-1.8878 2.8207l1.5047 7.5949q0.46642 2.3542 2.8207 1.8878z" clip-path="url(#a)" fill="#fff" stroke="#fff"/>
<g clip-path="url(#a)">
<g transform="translate(338.42 101.01) rotate(-11.206) scale(.08 -.08)">
<use xlink:href="#r"/>
</g>
</g>
<path d="m236.77 154.63 4.9226 3.4588q1.9637 1.3798 3.3435-0.58395l4.4512-6.3351q1.3798-1.9637-0.58395-3.3435l-4.9226-3.4588q-1.9637-1.3798-3.3435 0.58395l-4.4512 6.3351q-1.3798 1.9637 0.58395 3.3435z" clip-path="url(#a)" fill="#fff" stroke="#fff"/>
<g clip-path="url(#a)">
<g transform="translate(239.11 151.31) rotate(35.093) scale(.08 -.08)">
<use xlink:href="#u"/>
</g>
</g>
<path d="m250.17 155.4 5.3337 2.7833q2.1277 1.1103 3.238-1.0174l3.5819-6.8641q1.1103-2.1277-1.0174-3.238l-5.3337-2.7833q-2.1277-1.1103-3.238 1.0174l-3.5819 6.8641q-1.1103 2.1277 1.0174 3.238z" clip-path="url(#a)" fill="#fff" stroke="#fff"/>
<g clip-path="url(#a)">
<g transform="translate(252.05 151.8) rotate(27.557) scale(.08 -.08)">
<use xlink:href="#u"/>
</g>
</g>
<path d="m119.88 208.86 4.3954-3.8681q1.8017-1.5855 0.21615-3.3872l-5.115-5.8123q-1.5855-1.8017-3.3872-0.21615l-4.3954 3.8681q-1.8017 1.5855-0.21615 3.3872l5.115 5.8123q1.5855 1.8017 3.3872 0.21615z" clip-path="url(#a)" fill="#fff" stroke="#fff"/>
<g clip-path="url(#a)">
<defs>
<path id="p" d="m8.6875 72.906h9.9219v-44.297q0-11.719 4.2344-16.875 4.25-5.1406 13.781-5.1406 9.4688 0 13.719 5.1406 4.25 5.1562 4.25 16.875v44.297h9.9062v-45.516q0-14.25-7.0625-21.531-7.0469-7.2812-20.812-7.2812-13.828 0-20.891 7.2812-7.0469 7.2812-7.0469 21.531z"/>
</defs>
<g transform="translate(117.2 205.81) rotate(-41.349) scale(.08 -.08)">
<use xlink:href="#p"/>
</g>
</g>
<path d="m199.62 199.31 0.022251 5.855q0.009121 2.4 2.4091 2.3909l7.7424-0.029425q2.4-0.00912 2.3909-2.4091l-0.022252-5.855q-0.009121-2.4-2.4091-2.3909l-7.7424 0.029425q-2.4 0.009121-2.3909 2.4091z" clip-path="url(#a)" fill="#fff" stroke="#fff"/>
<g clip-path="url(#a)">
<g transform="translate(203.68 199.3) rotate(89.782) scale(.08 -.08)">
<use xlink:href="#p"/>
</g>
</g>
<path d="m413.63 257.88 4.797 2.6337q2.1038 1.155 3.2588-0.94873l3.7262-6.7869q1.155-2.1038-0.94873-3.2588l-4.797-2.6337q-2.1038-1.155-3.2588 0.94873l-3.7262 6.7869q-1.155 2.1038 0.94873 3.2588z" clip-path="url(#a)" fill="#fff" stroke="#fff"/>
<g clip-path="url(#a)">
<g transform="translate(415.59 254.31) rotate(28.768) scale(.08 -.08)">
<use xlink:href="#r"/>
</g>
</g>
<path d="m396.08 257.72 4.0839 2.5672q2.0319 1.2773 3.3092-0.75464l4.1205-6.555q1.2773-2.0319-0.75464-3.3092l-4.0839-2.5672q-2.0319-1.2773-3.3092 0.75464l-4.1205 6.555q-1.2773 2.0319 0.75464 3.3092z" clip-path="url(#a)" fill="#fff" stroke="#fff"/>
<g clip-path="url(#a)">
<g transform="translate(398.24 254.28) rotate(32.154) scale(.08 -.08)">
<use xlink:href="#o"/>
</g>
</g>
<path d="m172.68 235.37 5.5639-2.6436q2.1678-1.03 1.1378-3.1977l-3.3227-6.9933q-1.03-2.1678-3.1977-1.1378l-5.5639 2.6436q-2.1678 1.03-1.1378 3.1977l3.3227 6.9933q1.03 2.1678 3.1977 1.1378z" clip-path="url(#a)" fill="#fff" stroke="#fff"/>
<g clip-path="url(#a)">
<defs>
<path id="aa" d="m19.672 64.797v-56.688h11.922q15.094 0 22.094 6.8281 7 6.8438 7 21.594 0 14.641-7 21.453t-22.094 6.8125zm-9.8594 8.1094h20.266q21.188 0 31.094-8.8125 9.9219-8.8125 9.9219-27.562 0-18.859-9.9688-27.703-9.9531-8.8281-31.047-8.8281h-20.266z"/>
</defs>
<g transform="translate(170.93 231.7) rotate(-25.413) scale(.08 -.08)">
<use xlink:href="#aa"/>
</g>
</g>
<path d="m216.23 210.04 5.7448-2.3285q2.2242-0.90152 1.3227-3.1258l-2.9083-7.1755q-0.90152-2.2242-3.1258-1.3227l-5.7448 2.3285q-2.2242 0.90152-1.3227 3.1258l2.9083 7.1755q0.90152 2.2242 3.1258 1.3227z" clip-path="url(#a)" fill="#fff" stroke="#fff"/>
<g clip-path="url(#a)">
<defs>
<path id="an" d="m59.516 10.406v19.578h-16.109v8.1094h25.875v-31.312q-5.7031-4.0469-12.594-6.125-6.875-2.0781-14.688-2.0781-17.094 0-26.75 9.9844-9.6406 10-9.6406 27.812 0 17.875 9.6406 27.859 9.6562 9.9844 26.75 9.9844 7.125 0 13.547-1.7656 6.4219-1.75 11.844-5.1719v-10.5q-5.4688 4.6406-11.625 6.9844t-12.938 2.3438q-13.391 0-20.109-7.4688-6.7031-7.4688-6.7031-22.266 0-14.75 6.7031-22.219 6.7188-7.4688 20.109-7.4688 5.2188 0 9.3125 0.90625 4.1094 0.90625 7.375 2.8125z"/>
</defs>
<g transform="translate(214.7 206.27) rotate(-22.063) scale(.08 -.08)">
<use xlink:href="#an"/>
</g>
</g>
<path d="m190.91 235.28 5.0904-2.8928q2.0866-1.1858 0.90082-3.2724l-3.8254-6.7315q-1.1858-2.0866-3.2724-0.90082l-5.0904 2.8928q-2.0866 1.1858-0.90082 3.2724l3.8254 6.7315q1.1858 2.0866 3.2724 0.90082z" clip-path="url(#a)" fill="#fff" stroke="#fff"/>
<g clip-path="url(#a)">
<g transform="translate(188.9 231.75) rotate(-29.609) scale(.08 -.08)">
<use xlink:href="#p"/>
</g>
</g>
<path d="m277.7 233.68 2.4598-3.8886q1.283-2.0283-0.74526-3.3113l-6.5433-4.1391q-2.0283-1.283-3.3113 0.74526l-2.4598 3.8886q-1.283 2.0283 0.74526 3.3113l6.5433 4.1391q2.0283 1.283 3.3113-0.74526z" clip-path="url(#a)" fill="#fff" stroke="#fff"/>
<g clip-path="url(#a)">
<defs>
<path id="ao" d="m9.8125 72.906h41.891v-8.3125h-32.031v-21.484h28.906v-8.2969h-28.906v-34.812h-9.8594z"/>
</defs>
<g transform="translate(274.26 231.5) rotate(-57.684) scale(.08 -.08)">
<use xlink:href="#ao"/>
</g>
</g>
<path d="m296.58 232.43 1.333-4.6359q0.6632-2.3065-1.6433-2.9697l-7.441-2.1395q-2.3065-0.6632-2.9697 1.6433l-1.333 4.6359q-0.6632 2.3065 1.6433 2.9697l7.441 2.1395q2.3065 0.6632 2.9697-1.6433z" clip-path="url(#a)" fill="#fff" stroke="#fff"/>
<g clip-path="url(#a)">
<g transform="translate(292.67 231.31) rotate(-73.958) scale(.08 -.08)">
<use xlink:href="#o"/>
</g>
</g>
<path d="m347.38 207.25 4.8008 2.6269q2.1054 1.152 3.2575-0.95339l3.7165-6.7922q1.152-2.1054-0.95339-3.2575l-4.8008-2.6269q-2.1054-1.152-3.2575 0.95339l-3.7165 6.7922q-1.152 2.1054 0.95339 3.2575z" clip-path="url(#a)" fill="#fff" stroke="#fff"/>
<g clip-path="url(#a)">
<g transform="translate(349.33 203.69) rotate(28.686) scale(.08 -.08)">
<use xlink:href="#r"/>
</g>
</g>
<path d="m235.1 287.04v35.285q0 2.4 2.4 2.4h7.7425q2.4 0 2.4-2.4v-35.285q0-2.4-2.4-2.4h-7.7425q-2.4 0-2.4 2.4z" clip-path="url(#a)" fill="#fff" stroke="#fff"/>
<g clip-path="url(#a)">
<defs>
<path id="f" d="m-0.29688 72.906h61.672v-8.3125h-25.875v-64.594h-9.9062v64.594h-25.891z"/>
<path id="g" d="m56.203 29.594v-4.3906h-41.312q0.59375-9.2812 5.5938-14.141t13.938-4.8594q5.1719 0 10.031 1.2656t9.6562 3.8125v-8.5q-4.8438-2.0469-9.9219-3.125t-10.297-1.0781q-13.094 0-20.734 7.6094-7.6406 7.625-7.6406 20.625 0 13.422 7.25 21.297 7.25 7.8906 19.562 7.8906 11.031 0 17.453-7.1094 6.4219-7.0938 6.4219-19.297zm-8.9844 2.6406q-0.09375 7.3594-4.125 11.75-4.0312 4.4062-10.672 4.4062-7.5156 0-12.031-4.25t-5.2031-11.969z"/>
<path id="e" d="m41.109 46.297q-1.5156 0.875-3.2969 1.2812-1.7812 0.42188-3.9219 0.42188-7.625 0-11.703-4.9531t-4.0781-14.234v-28.812h-9.0312v54.688h9.0312v-8.5q2.8438 4.9844 7.375 7.3906 4.5469 2.4219 11.047 2.4219 0.92188 0 2.0469-0.125 1.125-0.10938 2.4844-0.35938z"/>
<path id="m" d="m52 44.188q3.375 6.0625 8.0625 8.9375t11.031 2.875q8.5469 0 13.188-5.9844 4.6406-5.9688 4.6406-17v-33.016h-9.0312v32.719q0 7.8594-2.7969 11.656-2.7812 3.8125-8.4844 3.8125-6.9844 0-11.047-4.6406-4.0469-4.625-4.0469-12.641v-30.906h-9.0312v32.719q0 7.9062-2.7812 11.688t-8.5938 3.7812q-6.8906 0-10.953-4.6562-4.0469-4.6562-4.0469-12.625v-30.906h-9.0312v54.688h9.0312v-8.5q3.0781 5.0312 7.375 7.4219t10.203 2.3906q5.9688 0 10.141-3.0312 4.1719-3.0156 6.1719-8.7812z"/>
<path id="h" d="m9.4219 54.688h8.9844v-54.688h-8.9844zm0 21.297h8.9844v-11.391h-8.9844z"/>
<path id="i" d="m54.891 33.016v-33.016h-8.9844v32.719q0 7.7656-3.0312 11.609-3.0312 3.8594-9.0781 3.8594-7.2812 0-11.484-4.6406-4.2031-4.625-4.2031-12.641v-30.906h-9.0312v54.688h9.0312v-8.5q3.2344 4.9375 7.5938 7.375 4.375 2.4375 10.094 2.4375 9.4219 0 14.25-5.8281 4.8438-5.8281 4.8438-17.156z"/>
<path id="j" d="m34.281 27.484q-10.891 0-15.094-2.4844t-4.2031-8.5q0-4.7812 3.1562-7.5938 3.1562-2.7969 8.5625-2.7969 7.4844 0 12 5.2969t4.5156 14.078v2zm17.922 3.7188v-31.203h-8.9844v8.2969q-3.0781-4.9688-7.6719-7.3438t-11.234-2.375q-8.3906 0-13.359 4.7188-4.9531 4.7188-4.9531 12.625 0 9.2188 6.1719 13.906 6.1875 4.6875 18.438 4.6875h12.609v0.89062q0 6.2031-4.0781 9.5938t-11.453 3.3906q-4.6875 0-9.1406-1.125-4.4375-1.125-8.5312-3.375v8.3125q4.9219 1.9062 9.5625 2.8438 4.6406 0.95312 9.0312 0.95312 11.875 0 17.734-6.1562 5.8594-6.1406 5.8594-18.641z"/>
<path id="n" d="m9.4219 75.984h8.9844v-75.984h-8.9844z"/>
</defs>
<g transform="translate(239.17 287.04) rotate(90) scale(.08 -.08)">
<use xlink:href="#f"/>
<use x="60.818359" xlink:href="#g"/>
<use x="122.341797" xlink:href="#e"/>
<use x="163.439453" xlink:href="#m"/>
<use x="260.851562" xlink:href="#h"/>
<use x="288.634766" xlink:href="#i"/>
<use x="352.013672" xlink:href="#j"/>
<use x="413.292969" xlink:href="#n"/>
</g>
</g>
<path d="m270.29 287.04v35.285q0 2.4 2.4 2.4h7.7425q2.4 0 2.4-2.4v-35.285q0-2.4-2.4-2.4h-7.7425q-2.4 0-2.4 2.4z" clip-path="url(#a)" fill="#fff" stroke="#fff"/>
<g clip-path="url(#a)">
<g transform="translate(274.35 287.04) rotate(90) scale(.08 -.08)">
<use xlink:href="#f"/>
<use x="60.818359" xlink:href="#g"/>
<use x="122.341797" xlink:href="#e"/>
<use x="163.439453" xlink:href="#m"/>
<use x="260.851562" xlink:href="#h"/>
<use x="288.634766" xlink:href="#i"/>
<use x="352.013672" xlink:href="#j"/>
<use x="413.292969" xlink:href="#n"/>
</g>
</g>
<path d="m437.15 281.41 3.5886 4.1316q1.5738 1.8119 3.3858 0.23811l5.8454-5.0772q1.8119-1.5738 0.23811-3.3858l-3.5886-4.1316q-1.5738-1.8119-3.3858-0.23811l-5.8454 5.0772q-1.8119 1.5738-0.23811 3.3858z" clip-path="url(#a)" fill="#fff" stroke="#fff"/>
<g clip-path="url(#a)">
<g transform="translate(440.22 278.75) rotate(49.023) scale(.08 -.08)">
<use xlink:href="#r"/>
</g>
</g>
<path d="m356.18 261.02 5.3386-3.0732q2.08-1.1973 0.88265-3.2773l-3.8627-6.7101q-1.1973-2.08-3.2773-0.88265l-5.3386 3.0732q-2.08 1.1973-0.88265 3.2773l3.8627 6.7101q1.1973 2.08 3.2773 0.88265z" clip-path="url(#a)" fill="#fff" stroke="#fff"/>
<g clip-path="url(#a)">
<g transform="translate(354.15 257.5) rotate(-29.927) scale(.08 -.08)">
<use xlink:href="#aa"/>
</g>
</g>
<path d="m375.91 260.24 3.4808-3.3395q1.7318-1.6615 0.070293-3.3934l-5.3602-5.587q-1.6615-1.7318-3.3934-0.070293l-3.4808 3.3395q-1.7318 1.6615-0.070293 3.3934l5.3602 5.587q1.6615 1.7318 3.3934 0.070293z" clip-path="url(#a)" fill="#fff" stroke="#fff"/>
<g clip-path="url(#a)">
<g transform="translate(373.1 257.31) rotate(-43.813) scale(.08 -.08)">
<use xlink:href="#o"/>
</g>
</g>
<path d="m395.87 258.87 1.9216-5.5307q0.78766-2.2671-1.4794-3.0547l-7.3137-2.541q-2.2671-0.78766-3.0547 1.4794l-1.9216 5.5307q-0.78766 2.2671 1.4794 3.0547l7.3137 2.541q2.2671 0.78766 3.0547-1.4794z" clip-path="url(#a)" fill="#fff" stroke="#fff"/>
<g clip-path="url(#a)">
<g transform="translate(392.03 257.54) rotate(-70.841) scale(.08 -.08)">
<use xlink:href="#p"/>
</g>
</g>
<path d="m401.61 253.34 1.9216 5.5307q0.78766 2.2671 3.0547 1.4794l7.3137-2.541q2.2671-0.78766 1.4794-3.0547l-1.9216-5.5307q-0.78766-2.2671-3.0547-1.4794l-7.3137 2.541q-2.2671 0.78766-1.4794 3.0547z" clip-path="url(#a)" fill="#fff" stroke="#fff"/>
<g clip-path="url(#a)">
<g transform="translate(405.45 252.01) rotate(70.841) scale(.08 -.08)">
<use xlink:href="#p"/>
</g>
</g>
<path d="m419.63 256.55 4.225 4.0535q1.7318 1.6615 3.3934-0.070293l5.3602-5.587q1.6615-1.7318-0.070293-3.3934l-4.225-4.0535q-1.7318-1.6615-3.3934 0.070293l-5.3602 5.587q-1.6615 1.7318 0.070294 3.3934z" clip-path="url(#a)" fill="#fff" stroke="#fff"/>
<g clip-path="url(#a)">
<g transform="translate(422.45 253.61) rotate(43.813) scale(.08 -.08)">
<use xlink:href="#p"/>
</g>
</g>
<path d="m305.47 287.04v35.285q0 2.4 2.4 2.4h7.7425q2.4 0 2.4-2.4v-35.285q0-2.4-2.4-2.4h-7.7425q-2.4 0-2.4 2.4z" clip-path="url(#a)" fill="#fff" stroke="#fff"/>
<g clip-path="url(#a)">
<g transform="translate(309.53 287.04) rotate(90) scale(.08 -.08)">
<use xlink:href="#f"/>
<use x="60.818359" xlink:href="#g"/>
<use x="122.341797" xlink:href="#e"/>
<use x="163.439453" xlink:href="#m"/>
<use x="260.851562" xlink:href="#h"/>
<use x="288.634766" xlink:href="#i"/>
<use x="352.013672" xlink:href="#j"/>
<use x="413.292969" xlink:href="#n"/>
</g>
</g>
<path d="m340.65 287.04v35.285q0 2.4 2.4 2.4h7.7425q2.4 0 2.4-2.4v-35.285q0-2.4-2.4-2.4h-7.7425q-2.4 0-2.4 2.4z" clip-path="url(#a)" fill="#fff" stroke="#fff"/>
<g clip-path="url(#a)">
<g transform="translate(344.72 287.04) rotate(90) scale(.08 -.08)">
<use xlink:href="#f"/>
<use x="60.818359" xlink:href="#g"/>
<use x="122.341797" xlink:href="#e"/>
<use x="163.439453" xlink:href="#m"/>
<use x="260.851562" xlink:href="#h"/>
<use x="288.634766" xlink:href="#i"/>
<use x="352.013672" xlink:href="#j"/>
<use x="413.292969" xlink:href="#n"/>
</g>
</g>
<path d="m59.185 287.04v35.285q0 2.4 2.4 2.4h7.7425q2.4 0 2.4-2.4v-35.285q0-2.4-2.4-2.4h-7.7425q-2.4 0-2.4 2.4z" clip-path="url(#a)" fill="#fff" stroke="#fff"/>
<g clip-path="url(#a)">
<g transform="translate(63.249 287.04) rotate(90) scale(.08 -.08)">
<use xlink:href="#f"/>
<use x="60.818359" xlink:href="#g"/>
<use x="122.341797" xlink:href="#e"/>
<use x="163.439453" xlink:href="#m"/>
<use x="260.851562" xlink:href="#h"/>
<use x="288.634766" xlink:href="#i"/>
<use x="352.013672" xlink:href="#j"/>
<use x="413.292969" xlink:href="#n"/>
</g>
</g>
<path d="m149.71 258.49 1.659-4.775q0.78766-2.2671-1.4794-3.0547l-7.3137-2.541q-2.2671-0.78766-3.0547 1.4794l-1.659 4.775q-0.78766 2.2671 1.4794 3.0547l7.3137 2.541q2.2671 0.78766 3.0547-1.4794z" clip-path="url(#a)" fill="#fff" stroke="#fff"/>
<g clip-path="url(#a)">
<defs>
<path id="ap" d="m9.8125 72.906h46.094v-8.3125h-36.234v-21.578h34.719v-8.2969h-34.719v-26.422h37.109v-8.2969h-46.969z"/>
</defs>
<g transform="translate(145.87 257.16) rotate(-70.841) scale(.08 -.08)">
<use xlink:href="#ap"/>
</g>
</g>
<path d="m155.37 253.47 1.8334 5.2768q0.78766 2.2671 3.0547 1.4794l7.3137-2.541q2.2671-0.78766 1.4794-3.0547l-1.8334-5.2768q-0.78766-2.2671-3.0547-1.4794l-7.3137 2.541q-2.2671 0.78766-1.4794 3.0547z" clip-path="url(#a)" fill="#fff" stroke="#fff"/>
<g clip-path="url(#a)">
<defs>
<path id="q" d="m64.406 67.281v-10.391q-4.9844 4.6406-10.625 6.9219-5.6406 2.2969-11.984 2.2969-12.5 0-19.141-7.6406t-6.6406-22.094q0-14.406 6.6406-22.047t19.141-7.6406q6.3438 0 11.984 2.2969t10.625 6.9375v-10.312q-5.1719-3.5156-10.969-5.2812-5.7812-1.75-12.219-1.75-16.562 0-26.094 10.125-9.5156 10.141-9.5156 27.672 0 17.578 9.5156 27.703 9.5312 10.141 26.094 10.141 6.5312 0 12.312-1.7344 5.7969-1.7344 10.875-5.2031z"/>
</defs>
<g transform="translate(159.21 252.13) rotate(70.841) scale(.08 -.08)">
<use xlink:href="#q"/>
</g>
</g>
<path d="m24.001 287.04v35.285q0 2.4 2.4 2.4h7.7425q2.4 0 2.4-2.4v-35.285q0-2.4-2.4-2.4h-7.7425q-2.4 0-2.4 2.4z" clip-path="url(#a)" fill="#fff" stroke="#fff"/>
<g clip-path="url(#a)">
<g transform="translate(28.065 287.04) rotate(90) scale(.08 -.08)">
<use xlink:href="#f"/>
<use x="60.818359" xlink:href="#g"/>
<use x="122.341797" xlink:href="#e"/>
<use x="163.439453" xlink:href="#m"/>
<use x="260.851562" xlink:href="#h"/>
<use x="288.634766" xlink:href="#i"/>
<use x="352.013672" xlink:href="#j"/>
<use x="413.292969" xlink:href="#n"/>
</g>
</g>
<path d="m94.368 287.04v35.285q0 2.4 2.4 2.4h7.7425q2.4 0 2.4-2.4v-35.285q0-2.4-2.4-2.4h-7.7425q-2.4 0-2.4 2.4z" clip-path="url(#a)" fill="#fff" stroke="#fff"/>
<g clip-path="url(#a)">
<g transform="translate(98.432 287.04) rotate(90) scale(.08 -.08)">
<use xlink:href="#f"/>
<use x="60.818359" xlink:href="#g"/>
<use x="122.341797" xlink:href="#e"/>
<use x="163.439453" xlink:href="#m"/>
<use x="260.851562" xlink:href="#h"/>
<use x="288.634766" xlink:href="#i"/>
<use x="352.013672" xlink:href="#j"/>
<use x="413.292969" xlink:href="#n"/>
</g>
</g>
<path d="m129.55 287.04v35.285q0 2.4 2.4 2.4h7.7425q2.4 0 2.4-2.4v-35.285q0-2.4-2.4-2.4h-7.7425q-2.4 0-2.4 2.4z" clip-path="url(#a)" fill="#fff" stroke="#fff"/>
<g clip-path="url(#a)">
<g transform="translate(133.62 287.04) rotate(90) scale(.08 -.08)">
<use xlink:href="#f"/>
<use x="60.818359" xlink:href="#g"/>
<use x="122.341797" xlink:href="#e"/>
<use x="163.439453" xlink:href="#m"/>
<use x="260.851562" xlink:href="#h"/>
<use x="288.634766" xlink:href="#i"/>
<use x="352.013672" xlink:href="#j"/>
<use x="413.292969" xlink:href="#n"/>
</g>
</g>
<path d="m164.74 287.04v35.285q0 2.4 2.4 2.4h7.7425q2.4 0 2.4-2.4v-35.285q0-2.4-2.4-2.4h-7.7425q-2.4 0-2.4 2.4z" clip-path="url(#a)" fill="#fff" stroke="#fff"/>
<g clip-path="url(#a)">
<g transform="translate(168.8 287.04) rotate(90) scale(.08 -.08)">
<use xlink:href="#f"/>
<use x="60.818359" xlink:href="#g"/>
<use x="122.341797" xlink:href="#e"/>
<use x="163.439453" xlink:href="#m"/>
<use x="260.851562" xlink:href="#h"/>
<use x="288.634766" xlink:href="#i"/>
<use x="352.013672" xlink:href="#j"/>
<use x="413.292969" xlink:href="#n"/>
</g>
</g>
<path d="m199.92 287.04v35.285q0 2.4 2.4 2.4h7.7425q2.4 0 2.4-2.4v-35.285q0-2.4-2.4-2.4h-7.7425q-2.4 0-2.4 2.4z" clip-path="url(#a)" fill="#fff" stroke="#fff"/>
<g clip-path="url(#a)">
<g transform="translate(203.98 287.04) rotate(90) scale(.08 -.08)">
<use xlink:href="#f"/>
<use x="60.818359" xlink:href="#g"/>
<use x="122.341797" xlink:href="#e"/>
<use x="163.439453" xlink:href="#m"/>
<use x="260.851562" xlink:href="#h"/>
<use x="288.634766" xlink:href="#i"/>
<use x="352.013672" xlink:href="#j"/>
<use x="413.292969" xlink:href="#n"/>
</g>
</g>
<path d="m375.84 287.04v35.285q0 2.4 2.4 2.4h7.7425q2.4 0 2.4-2.4v-35.285q0-2.4-2.4-2.4h-7.7425q-2.4 0-2.4 2.4z" clip-path="url(#a)" fill="#fff" stroke="#fff"/>
<g clip-path="url(#a)">
<g transform="translate(379.9 287.04) rotate(90) scale(.08 -.08)">
<use xlink:href="#f"/>
<use x="60.818359" xlink:href="#g"/>
<use x="122.341797" xlink:href="#e"/>
<use x="163.439453" xlink:href="#m"/>
<use x="260.851562" xlink:href="#h"/>
<use x="288.634766" xlink:href="#i"/>
<use x="352.013672" xlink:href="#j"/>
<use x="413.292969" xlink:href="#n"/>
</g>
</g>
<path d="m411.02 287.04v35.285q0 2.4 2.4 2.4h7.7425q2.4 0 2.4-2.4v-35.285q0-2.4-2.4-2.4h-7.7425q-2.4 0-2.4 2.4z" clip-path="url(#a)" fill="#fff" stroke="#fff"/>
<g clip-path="url(#a)">
<g transform="translate(415.08 287.04) rotate(90) scale(.08 -.08)">
<use xlink:href="#f"/>
<use x="60.818359" xlink:href="#g"/>
<use x="122.341797" xlink:href="#e"/>
<use x="163.439453" xlink:href="#m"/>
<use x="260.851562" xlink:href="#h"/>
<use x="288.634766" xlink:href="#i"/>
<use x="352.013672" xlink:href="#j"/>
<use x="413.292969" xlink:href="#n"/>
</g>
</g>
<path d="m446.2 287.04v35.285q0 2.4 2.4 2.4h7.7425q2.4 0 2.4-2.4v-35.285q0-2.4-2.4-2.4h-7.7425q-2.4 0-2.4 2.4z" clip-path="url(#a)" fill="#fff" stroke="#fff"/>
<g clip-path="url(#a)">
<g transform="translate(450.27 287.04) rotate(90) scale(.08 -.08)">
<use xlink:href="#f"/>
<use x="60.818359" xlink:href="#g"/>
<use x="122.341797" xlink:href="#e"/>
<use x="163.439453" xlink:href="#m"/>
<use x="260.851562" xlink:href="#h"/>
<use x="288.634766" xlink:href="#i"/>
<use x="352.013672" xlink:href="#j"/>
<use x="413.292969" xlink:href="#n"/>
</g>
</g>
<defs>
<path id="b" d="m0 8.6603c2.2967 0 4.4997-0.9125 6.1237-2.5365 1.624-1.624 2.5365-3.827 2.5365-6.1237s-0.9125-4.4997-2.5365-6.1237c-1.624-1.624-3.827-2.5365-6.1237-2.5365s-4.4997 0.9125-6.1237 2.5365c-1.624 1.624-2.5365 3.827-2.5365 6.1237s0.9125 4.4997 2.5365 6.1237c1.624 1.624 3.827 2.5365 6.1237 2.5365z"/>
</defs>
<g clip-path="url(#a)">
<use x="30.272466" y="329.998365" fill="#ffffff" stroke="#ffffff" xlink:href="#b"/>
</g>
<g clip-path="url(#a)">
<use x="65.456097" y="329.998365" fill="#ffffff" stroke="#ffffff" xlink:href="#b"/>
</g>
<g clip-path="url(#a)">
<use x="100.639729" y="329.998365" fill="#ffffff" stroke="#ffffff" xlink:href="#b"/>
</g>
<g clip-path="url(#a)">
<use x="135.82336" y="329.998365" fill="#ffffff" stroke="#ffffff" xlink:href="#b"/>
</g>
<g clip-path="url(#a)">
<use x="171.006992" y="329.998365" fill="#ffffff" stroke="#ffffff" xlink:href="#b"/>
</g>
<g clip-path="url(#a)">
<use x="206.190623" y="329.998365" fill="#ffffff" stroke="#ffffff" xlink:href="#b"/>
</g>
<g clip-path="url(#a)">
<use x="241.374255" y="329.998365" fill="#ffffff" stroke="#ffffff" xlink:href="#b"/>
</g>
<g clip-path="url(#a)">
<use x="276.557886" y="329.998365" fill="#ffffff" stroke="#ffffff" xlink:href="#b"/>
</g>
<g clip-path="url(#a)">
<use x="311.741518" y="329.998365" fill="#ffffff" stroke="#ffffff" xlink:href="#b"/>
</g>
<g clip-path="url(#a)">
<use x="346.925149" y="329.998365" fill="#ffffff" stroke="#ffffff" xlink:href="#b"/>
</g>
<g clip-path="url(#a)">
<use x="382.108781" y="329.998365" fill="#ffffff" stroke="#ffffff" xlink:href="#b"/>
</g>
<g clip-path="url(#a)">
<use x="417.292412" y="329.998365" fill="#ffffff" stroke="#ffffff" xlink:href="#b"/>
</g>
<g clip-path="url(#a)">
<use x="452.476043" y="329.998365" fill="#ffffff" stroke="#ffffff" xlink:href="#b"/>
</g>
<g clip-path="url(#a)">
<use x="475.736333" y="16.668302" fill="#ffffff" stroke="#ffffff" xlink:href="#b"/>
</g>
<g clip-path="url(#a)">
<use x="475.736333" y="71.549133" fill="#ffffff" stroke="#ffffff" xlink:href="#b"/>
</g>
<g clip-path="url(#a)">
<use x="628.394201" y="329.998365" fill="#ffffff" stroke="#ffffff" xlink:href="#b"/>
</g>
<g clip-path="url(#a)">
<use x="593.210569" y="329.998365" fill="#ffffff" stroke="#ffffff" xlink:href="#b"/>
</g>
<g clip-path="url(#a)">
<use x="205.604229" y="125.067667" fill="#ffffff" stroke="#ffffff" xlink:href="#b"/>
</g>
<g clip-path="url(#a)">
<use x="280.076249" y="177.393934" fill="#ffffff" stroke="#ffffff" xlink:href="#b"/>
</g>
<g clip-path="url(#a)">
<use x="305.877579" y="177.393934" fill="#ffffff" stroke="#ffffff" xlink:href="#b"/>
</g>
<g clip-path="url(#a)">
<use x="241.374255" y="279.36501" fill="#ffffff" stroke="#ffffff" xlink:href="#b"/>
</g>
<g clip-path="url(#a)">
<use x="276.557886" y="279.36501" fill="#ffffff" stroke="#ffffff" xlink:href="#b"/>
</g>
<g clip-path="url(#a)">
<use x="399.700596" y="228.731655" fill="#ffffff" stroke="#ffffff" xlink:href="#b"/>
</g>
<g clip-path="url(#a)">
<use x="487.659675" y="329.998365" fill="#ffffff" stroke="#ffffff" xlink:href="#b"/>
</g>
<g clip-path="url(#a)">
<use x="311.741518" y="279.36501" fill="#ffffff" stroke="#ffffff" xlink:href="#b"/>
</g>
<g clip-path="url(#a)">
<use x="346.925149" y="279.36501" fill="#ffffff" stroke="#ffffff" xlink:href="#b"/>
</g>
<g clip-path="url(#a)">
<use x="558.026938" y="329.998365" fill="#ffffff" stroke="#ffffff" xlink:href="#b"/>
</g>
<g clip-path="url(#a)">
<use x="522.843306" y="329.998365" fill="#ffffff" stroke="#ffffff" xlink:href="#b"/>
</g>
<g clip-path="url(#a)">
<use x="65.456097" y="279.36501" fill="#ffffff" stroke="#ffffff" xlink:href="#b"/>
</g>
<g clip-path="url(#a)">
<use x="153.415176" y="228.731655" fill="#ffffff" stroke="#ffffff" xlink:href="#b"/>
</g>
<g clip-path="url(#a)">
<use x="30.272466" y="279.36501" fill="#ffffff" stroke="#ffffff" xlink:href="#b"/>
</g>
<g clip-path="url(#a)">
<use x="100.639729" y="279.36501" fill="#ffffff" stroke="#ffffff" xlink:href="#b"/>
</g>
<g clip-path="url(#a)">
<use x="135.82336" y="279.36501" fill="#ffffff" stroke="#ffffff" xlink:href="#b"/>
</g>
<g clip-path="url(#a)">
<use x="171.006992" y="279.36501" fill="#ffffff" stroke="#ffffff" xlink:href="#b"/>
</g>
<g clip-path="url(#a)">
<use x="206.190623" y="279.36501" fill="#ffffff" stroke="#ffffff" xlink:href="#b"/>
</g>
<g clip-path="url(#a)">
<use x="382.108781" y="279.36501" fill="#ffffff" stroke="#ffffff" xlink:href="#b"/>
</g>
<g clip-path="url(#a)">
<use x="417.292412" y="279.36501" fill="#ffffff" stroke="#ffffff" xlink:href="#b"/>
</g>
<g clip-path="url(#a)">
<use x="452.476043" y="279.36501" fill="#ffffff" stroke="#ffffff" xlink:href="#b"/>
</g>
<g clip-path="url(#a)">
<defs>
<path id="aj" d="m9.4219 51.703 22.906-20.406v-4l-22.906-20.406v9.3281l14.703 13.078-14.703 13.094zm21.188 0 22.906-20.406v-4l-22.906-20.406v9.3281l14.703 13.078-14.703 13.094z"/>
</defs>
<g transform="translate(27.213 332.76) scale(.1 -.1)">
<use xlink:href="#aj"/>
</g>
</g>
<g clip-path="url(#a)">
<defs>
<path id="am" d="m44.391 34.188q3.1719-1.0781 6.1719-4.5938t6.0312-9.6719l10.016-19.922h-10.609l-9.3125 18.703q-3.625 7.3281-7.0156 9.7188t-9.25 2.3906h-10.75v-30.812h-9.8594v72.906h22.266q12.5 0 18.656-5.2344 6.1562-5.2188 6.1562-15.766 0-6.8906-3.2031-11.438-3.2031-4.5312-9.2969-6.2812zm-24.719 30.609v-25.875h12.406q7.125 0 10.766 3.2969t3.6406 9.6875-3.6406 9.6406-10.766 3.25z"/>
<path id="z" d="m48.781 52.594v-8.4062q-3.8125 2.1094-7.6406 3.1562t-7.7344 1.0469q-8.75 0-13.594-5.5469-4.8281-5.5312-4.8281-15.547t4.8281-15.562q4.8438-5.5312 13.594-5.5312 3.9062 0 7.7344 1.0469t7.6406 3.1562v-8.3125q-3.7656-1.75-7.7969-2.625-4.0156-0.89062-8.5625-0.89062-12.359 0-19.641 7.7656-7.2656 7.7656-7.2656 20.953 0 13.375 7.3438 21.031 7.3594 7.6719 20.156 7.6719 4.1406 0 8.0938-0.85938 3.9531-0.84375 7.6719-2.5469z"/>
<path id="x" d="m54.891 33.016v-33.016h-8.9844v32.719q0 7.7656-3.0312 11.609-3.0312 3.8594-9.0781 3.8594-7.2812 0-11.484-4.6406-4.2031-4.625-4.2031-12.641v-30.906h-9.0312v75.984h9.0312v-29.797q3.2344 4.9375 7.5938 7.375 4.375 2.4375 10.094 2.4375 9.4219 0 14.25-5.8281 4.8438-5.8281 4.8438-17.156z"/>
<path id="v" d="m18.312 70.219v-15.531h18.5v-6.9844h-18.5v-29.688q0-6.6875 1.8281-8.5938t7.4531-1.9062h9.2188v-7.5156h-9.2188q-10.406 0-14.359 3.875-3.9531 3.8906-3.9531 14.141v29.688h-6.5938v6.9844h6.5938v15.531z"/>
<path id="y" d="m45.406 27.984q0 9.7656-4.0312 15.125-4.0156 5.375-11.297 5.375-7.2188 0-11.25-5.375-4.0312-5.3594-4.0312-15.125 0-9.7188 4.0312-15.094t11.25-5.375q7.2812 0 11.297 5.375 4.0312 5.375 4.0312 15.094zm8.9844-21.203q0-13.953-6.2031-20.766-6.1875-6.8125-18.984-6.8125-4.7344 0-8.9375 0.70312t-8.1562 2.1719v8.7344q3.9531-2.1406 7.8125-3.1562 3.8594-1.0312 7.8594-1.0312 8.8438 0 13.234 4.6094t4.3906 13.938v4.4531q-2.7812-4.8438-7.125-7.2344t-10.406-2.3906q-10.047 0-16.203 7.6562-6.1562 7.6719-6.1562 20.328 0 12.688 6.1562 20.344 6.1562 7.6719 16.203 7.6719 6.0625 0 10.406-2.3906t7.125-7.2188v8.2969h8.9844z"/>
</defs>
<g transform="translate(48.151 332.76) scale(.1 -.1)">
<use xlink:href="#am"/>
<use x="69.482422" xlink:href="#h"/>
<use x="97.265625" xlink:href="#z"/>
<use x="152.246094" xlink:href="#x"/>
<use x="215.625" xlink:href="#v"/>
<use x="254.833984" xlink:href="#h"/>
<use x="282.617188" xlink:href="#y"/>
</g>
</g>
<g clip-path="url(#a)">
<defs>
<path id="ai" d="m11.719 12.406h10.297v-8.4062l-8-15.625h-6.2969l4 15.625z"/>
</defs>
<g transform="translate(99.051 332.76) scale(.1 -.1)">
<use xlink:href="#ai"/>
</g>
</g>
<g clip-path="url(#a)">
<g transform="translate(124.88 332.76) scale(.1 -.1)">
<use xlink:href="#u"/>
<use x="75.195312" xlink:href="#g"/>
<use x="136.71875" xlink:href="#e"/>
<use x="177.816406" xlink:href="#e"/>
</g>
</g>
<g clip-path="url(#a)">
<defs>
<path id="ak" d="m30.609 48.391q-7.2188 0-11.422-5.6406t-4.2031-15.453 4.1719-15.453q4.1875-5.6406 11.453-5.6406 7.1875 0 11.375 5.6562 4.2031 5.6719 4.2031 15.438 0 9.7188-4.2031 15.406-4.1875 5.6875-11.375 5.6875zm0 7.6094q11.719 0 18.406-7.625 6.7031-7.6094 6.7031-21.078 0-13.422-6.7031-21.078-6.6875-7.6406-18.406-7.6406-11.766 0-18.438 7.6406-6.6562 7.6562-6.6562 21.078 0 13.469 6.6562 21.078 6.6719 7.625 18.438 7.625z"/>
<path id="au" d="m54.891 54.688-19.781-26.609 20.797-28.078h-10.594l-15.922 21.484-15.906-21.484h-10.609l21.25 28.609-19.438 26.078h10.594l14.5-19.484 14.5 19.484z"/>
</defs>
<g transform="translate(151.23 332.76) scale(.1 -.1)">
<use xlink:href="#r"/>
<use x="68.408203" xlink:href="#e"/>
<use x="109.505859" xlink:href="#e"/>
<use x="150.587891" xlink:href="#ak"/>
<use x="211.769531" xlink:href="#i"/>
<use x="275.148438" xlink:href="#j"/>
<use x="336.427734" xlink:href="#au"/>
</g>
</g>
<g clip-path="url(#a)">
<g transform="translate(204.6 332.76) scale(.1 -.1)">
<use xlink:href="#ai"/>
</g>
</g>
<g clip-path="url(#a)">
<defs>
<path id="al" d="m45.406 46.391v29.594h8.9844v-75.984h-8.9844v8.2031q-2.8281-4.875-7.1562-7.25-4.3125-2.375-10.375-2.375-9.9062 0-16.141 7.9062-6.2188 7.9219-6.2188 20.812t6.2188 20.797q6.2344 7.9062 16.141 7.9062 6.0625 0 10.375-2.375 4.3281-2.3594 7.1562-7.2344zm-30.609-19.094q0-9.9062 4.0781-15.547t11.203-5.6406 11.219 5.6406q4.1094 5.6406 4.1094 15.547t-4.1094 15.547q-4.0938 5.6406-11.219 5.6406t-11.203-5.6406-4.0781-15.547z"/>
<path id="w" d="m44.281 53.078v-8.5q-3.7969 1.9531-7.9062 2.9219-4.0938 0.98438-8.5 0.98438-6.6875 0-10.031-2.0469t-3.3438-6.1562q0-3.125 2.3906-4.9062t9.625-3.3906l3.0781-0.6875q9.5625-2.0469 13.594-5.7812t4.0312-10.422q0-7.625-6.0312-12.078-6.0312-4.4375-16.578-4.4375-4.3906 0-9.1562 0.85938t-10.031 2.5625v9.2812q4.9844-2.5938 9.8125-3.8906 4.8281-1.2812 9.5781-1.2812 6.3438 0 9.75 2.1719 3.4219 2.1719 3.4219 6.125 0 3.6562-2.4688 5.6094-2.4531 1.9531-10.812 3.7656l-3.125 0.73438q-8.3438 1.75-12.062 5.3906-3.7031 3.6406-3.7031 9.9844 0 7.7188 5.4688 11.906 5.4688 4.2031 15.531 4.2031 4.9688 0 9.3594-0.73438 4.4062-0.71875 8.1094-2.1875z"/>
</defs>
<g transform="translate(232.53 332.76) scale(.1 -.1)">
<use xlink:href="#al"/>
<use x="63.476562" xlink:href="#j"/>
<use x="124.755859" xlink:href="#w"/>
</g>
</g>
<g clip-path="url(#a)">
<defs>
<path id="as" d="m9.0781 55.516q0 9.7656 5.8281 15.109 5.8438 5.3594 16.484 5.3594 10.156 0 15.5-5.6719 5.3594-5.6562 5.5-16.594-7.375-0.39062-11.484-3.2031-4.0938-2.8125-4.0938-7.5 0-2.2969 1.4219-4.2812 1.4219-1.9688 4.5938-4.0156l2.7812-1.8125q8.1094-5.1719 10.453-8.6406t2.3438-8.3438q0-8.4062-5.5-12.875t-15.797-4.4688q-3.125 0-6.4531 0.60938-3.3125 0.60938-6.875 1.7969v8q3.9062-1.4688 7.3125-2.1719 3.4219-0.70312 6.6094-0.70312 5.6562 0 8.5781 2.3125 2.9375 2.3281 2.9375 6.7656 0 3.0781-1.4375 5.125t-6.375 5.0781l-4.4844 2.6875q-4.6875 2.875-6.8125 6.1719t-2.125 7.75q0 6.1875 4.0781 10.391t11.438 5.625q-0.39062 5.0156-3.5938 7.75-3.1875 2.7344-8.7031 2.7344-6.3438 0-9.6719-3.3906-3.3125-3.3906-3.3125-9.7812v-55.328h-9.1406z"/>
</defs>
<g transform="translate(263.81 332.76) scale(.1 -.1)">
<use xlink:href="#x"/>
<use x="63.378906" xlink:href="#g"/>
<use x="124.902344" xlink:href="#h"/>
<use x="152.685547" xlink:href="#as"/>
<use x="215.673828" xlink:href="#v"/>
</g>
</g>
<g clip-path="url(#a)">
<defs>
<path id="av" d="m2.9844 54.688h9.5156l17.094-45.891 17.094 45.891h9.5156l-20.516-54.688h-12.203z"/>
<path id="ar" d="m34.281 27.484q-10.891 0-15.094-2.4844t-4.2031-8.5q0-4.7812 3.1562-7.5938 3.1562-2.7969 8.5625-2.7969 7.4844 0 12 5.2969t4.5156 14.078v2zm17.922 3.7188v-31.203h-8.9844v8.2969q-3.0781-4.9688-7.6719-7.3438t-11.234-2.375q-8.3906 0-13.359 4.7188-4.9531 4.7188-4.9531 12.625 0 9.2188 6.1719 13.906 6.1875 4.6875 18.438 4.6875h12.609v0.89062q0 6.2031-4.0781 9.5938t-11.453 3.3906q-4.6875 0-9.1406-1.125-4.4375-1.125-8.5312-3.375v8.3125q4.9219 1.9062 9.5625 2.8438 4.6406 0.95312 9.0312 0.95312 11.875 0 17.734-6.1562 5.8594-6.1406 5.8594-18.641zm-18.609 44.578h9.9062v-9.8594h-9.9062zm-19.094 0h9.9062v-9.8594h-9.9062z"/>
</defs>
<g transform="translate(285.11 332.76) scale(.1 -.1)">
<use xlink:href="#av"/>
<use x="59.179688" xlink:href="#g"/>
<use x="120.703125" xlink:href="#e"/>
<use x="161.816406" xlink:href="#w"/>
<use x="213.916016" xlink:href="#v"/>
<use x="253.125" xlink:href="#ar"/>
<use x="314.404297" xlink:href="#i"/>
<use x="377.783203" xlink:href="#al"/>
<use x="441.259766" xlink:href="#h"/>
<use x="469.042969" xlink:href="#y"/>
</g>
</g>
<g clip-path="url(#a)">
<defs>
<path id="aw" d="m18.109 8.2031v-29h-9.0312v75.484h9.0312v-8.2969q2.8438 4.875 7.1562 7.2344 4.3281 2.375 10.328 2.375 9.9688 0 16.188-7.9062 6.2344-7.9062 6.2344-20.797t-6.2344-20.812q-6.2188-7.9062-16.188-7.9062-6 0-10.328 2.375-4.3125 2.375-7.1562 7.25zm30.578 19.094q0 9.9062-4.0781 15.547t-11.203 5.6406q-7.1406 0-11.219-5.6406t-4.0781-15.547 4.0781-15.547 11.219-5.6406q7.125 0 11.203 5.6406t4.0781 15.547z"/>
</defs>
<g transform="translate(317.62 332.76) scale(.1 -.1)">
<use xlink:href="#y"/>
<use x="63.476562" xlink:href="#g"/>
<use x="125" xlink:href="#w"/>
<use x="177.099609" xlink:href="#aw"/>
<use x="240.576172" xlink:href="#e"/>
<use x="281.658203" xlink:href="#ak"/>
<use x="342.839844" xlink:href="#z"/>
<use x="397.820312" xlink:href="#x"/>
<use x="461.199219" xlink:href="#g"/>
<use x="522.722656" xlink:href="#i"/>
</g>
</g>
<g clip-path="url(#a)">
<defs>
<path id="d" d="m10.688 12.406h10.312v-12.406h-10.312z"/>
</defs>
<g transform="translate(380.52 332.76) scale(.1 -.1)">
<use xlink:href="#d"/>
</g>
</g>
<g clip-path="url(#a)">
<defs>
<path id="at" d="m51.812 51.703v-9.3125l-14.703-13.094 14.703-13.078v-9.3281l-22.906 20.406v4zm-21.203 0v-9.3125l-14.688-13.094 14.688-13.078v-9.3281l-22.891 20.406v4z"/>
</defs>
<g transform="translate(414.23 332.76) scale(.1 -.1)">
<use xlink:href="#at"/>
</g>
</g>
<g clip-path="url(#a)">
<g transform="translate(449.42 332.76) scale(.1 -.1)">
<use xlink:href="#aj"/>
</g>
</g>
<g clip-path="url(#a)">
<defs>
<path id="c" d="m12.406 8.2969h16.109v55.625l-17.531-3.5156v8.9844l17.438 3.5156h9.8594v-64.609h16.109v-8.2969h-41.984z"/>
</defs>
<g transform="translate(467.78 19.428) scale(.1 -.1)">
<use xlink:href="#c"/>
<use x="63.623047" xlink:href="#d"/>
<use x="95.410156" xlink:href="#c"/>
</g>
</g>
<g clip-path="url(#a)">
<defs>
<path id="l" d="m19.188 8.2969h34.422v-8.2969h-46.281v8.2969q5.6094 5.8125 15.297 15.594 9.7031 9.7969 12.188 12.641 4.7344 5.3125 6.6094 9 1.8906 3.6875 1.8906 7.25 0 5.8125-4.0781 9.4688-4.0781 3.6719-10.625 3.6719-4.6406 0-9.7969-1.6094-5.1406-1.6094-11-4.8906v9.9688q5.9531 2.3906 11.125 3.6094 5.1875 1.2188 9.4844 1.2188 11.328 0 18.062-5.6719 6.7344-5.6562 6.7344-15.125 0-4.5-1.6875-8.5312-1.6719-4.0156-6.125-9.4844-1.2188-1.4219-7.7656-8.1875-6.5312-6.7656-18.453-18.922z"/>
</defs>
<g transform="translate(467.78 74.309) scale(.1 -.1)">
<use xlink:href="#c"/>
<use x="63.623047" xlink:href="#d"/>
<use x="95.410156" xlink:href="#l"/>
</g>
</g>
<g clip-path="url(#a)">
<defs>
<path id="k" d="m9.8125 72.906h9.8594v-72.906h-9.8594z"/>
<path id="s" d="m9.8125 72.906h14.703l18.594-49.609 18.703 49.609h14.703v-72.906h-9.625v64.016l-18.797-50h-9.9062l-18.797 50v-64.016h-9.5781z"/>
<path id="t" d="m9.8125 72.906h9.8594v-64.609h35.5v-8.2969h-45.359z"/>
</defs>
<g transform="translate(607.31 332.76) scale(.1 -.1)">
<use xlink:href="#k"/>
<use x="29.492188" xlink:href="#s"/>
<use x="115.771484" xlink:href="#o"/>
<use x="176.074219" xlink:href="#t"/>
<use x="231.787109" xlink:href="#k"/>
<use x="261.279297" xlink:href="#q"/>
<use x="331.103516" xlink:href="#k"/>
<use x="360.595703" xlink:href="#f"/>
</g>
</g>
<g clip-path="url(#a)">
<g transform="translate(572.13 332.76) scale(.1 -.1)">
<use xlink:href="#k"/>
<use x="29.492188" xlink:href="#s"/>
<use x="115.771484" xlink:href="#o"/>
<use x="176.074219" xlink:href="#t"/>
<use x="231.787109" xlink:href="#k"/>
<use x="261.279297" xlink:href="#q"/>
<use x="331.103516" xlink:href="#k"/>
<use x="360.595703" xlink:href="#f"/>
</g>
</g>
<g clip-path="url(#a)">
<defs>
<path id="ac" d="m31.781 34.625q-7.0312 0-11.062-3.7656-4.0156-3.7656-4.0156-10.344 0-6.5938 4.0156-10.359 4.0312-3.7656 11.062-3.7656t11.078 3.7812q4.0625 3.7969 4.0625 10.344 0 6.5781-4.0312 10.344-4.0156 3.7656-11.109 3.7656zm-9.8594 4.1875q-6.3438 1.5625-9.8906 5.9062-3.5312 4.3594-3.5312 10.609 0 8.7344 6.2188 13.812 6.2344 5.0781 17.062 5.0781 10.891 0 17.094-5.0781t6.2031-13.812q0-6.25-3.5469-10.609-3.5312-4.3438-9.8281-5.9062 7.125-1.6562 11.094-6.5 3.9844-4.8281 3.9844-11.797 0-10.609-6.4688-16.281-6.4688-5.6562-18.531-5.6562-12.047 0-18.531 5.6562-6.4688 5.6719-6.4688 16.281 0 6.9688 4 11.797 4.0156 4.8438 11.141 6.5zm-3.6094 15.578q0-5.6562 3.5312-8.8281 3.5469-3.1719 9.9375-3.1719 6.3594 0 9.9375 3.1719 3.5938 3.1719 3.5938 8.8281 0 5.6719-3.5938 8.8438-3.5781 3.1719-9.9375 3.1719-6.3906 0-9.9375-3.1719-3.5312-3.1719-3.5312-8.8438z"/>
</defs>
<g transform="translate(197.65 127.83) scale(.1 -.1)">
<use xlink:href="#c"/>
<use x="63.623047" xlink:href="#d"/>
<use x="95.410156" xlink:href="#ac"/>
</g>
</g>
<g clip-path="url(#a)">
<defs>
<path id="ab" d="m10.984 1.5156v8.9844q3.7188-1.7656 7.5156-2.6875 3.8125-0.92188 7.4844-0.92188 9.7656 0 14.906 6.5625 5.1562 6.5625 5.8906 19.953-2.8281-4.2031-7.1875-6.4531-4.3438-2.25-9.6094-2.25-10.938 0-17.312 6.6094-6.375 6.625-6.375 18.109 0 11.219 6.6406 18 6.6406 6.7969 17.672 6.7969 12.656 0 19.312-9.7031 6.6719-9.6875 6.6719-28.141 0-17.234-8.1875-27.516-8.1719-10.281-21.984-10.281-3.7188 0-7.5312 0.73438-3.7969 0.73438-7.9062 2.2031zm19.625 30.906q6.6406 0 10.516 4.5312 3.8906 4.5469 3.8906 12.469 0 7.8594-3.8906 12.422-3.875 4.5625-10.516 4.5625t-10.516-4.5625-3.875-12.422q0-7.9219 3.875-12.469 3.875-4.5312 10.516-4.5312z"/>
</defs>
<g transform="translate(272.12 180.15) scale(.1 -.1)">
<use xlink:href="#c"/>
<use x="63.623047" xlink:href="#d"/>
<use x="95.410156" xlink:href="#ab"/>
</g>
</g>
<g clip-path="url(#a)">
<defs>
<path id="ah" d="m31.781 66.406q-7.6094 0-11.453-7.5-3.8281-7.4844-3.8281-22.531 0-14.984 3.8281-22.484 3.8438-7.5 11.453-7.5 7.6719 0 11.5 7.5 3.8438 7.5 3.8438 22.484 0 15.047-3.8438 22.531-3.8281 7.5-11.5 7.5zm0 7.8125q12.266 0 18.734-9.7031 6.4688-9.6875 6.4688-28.141 0-18.406-6.4688-28.109-6.4688-9.6875-18.734-9.6875-12.25 0-18.719 9.6875-6.4688 9.7031-6.4688 28.109 0 18.453 6.4688 28.141 6.4688 9.7031 18.719 9.7031z"/>
</defs>
<g transform="translate(294.74 180.15) scale(.1 -.1)">
<use xlink:href="#c"/>
<use x="63.623047" xlink:href="#d"/>
<use x="95.410156" xlink:href="#c"/>
<use x="159.033203" xlink:href="#ah"/>
</g>
</g>
<g clip-path="url(#a)">
<g transform="translate(230.24 282.12) scale(.1 -.1)">
<use xlink:href="#c"/>
<use x="63.623047" xlink:href="#d"/>
<use x="95.410156" xlink:href="#c"/>
<use x="159.033203" xlink:href="#l"/>
</g>
</g>
<g clip-path="url(#a)">
<defs>
<path id="ag" d="m40.578 39.312q7.0781-1.5156 11.047-6.3125 3.9844-4.7812 3.9844-11.812 0-10.781-7.4219-16.703-7.4219-5.9062-21.094-5.9062-4.5781 0-9.4375 0.90625t-10.031 2.7188v9.5156q4.0938-2.3906 8.9688-3.6094 4.8906-1.2188 10.219-1.2188 9.2656 0 14.125 3.6562t4.8594 10.641q0 6.4531-4.5156 10.078-4.5156 3.6406-12.562 3.6406h-8.5v8.1094h8.8906q7.2656 0 11.125 2.9062t3.8594 8.375q0 5.6094-3.9844 8.6094-3.9688 3.0156-11.391 3.0156-4.0625 0-8.7031-0.89062-4.6406-0.875-10.203-2.7188v8.7812q5.625 1.5625 10.531 2.3438t9.25 0.78125q11.234 0 17.766-5.1094 6.5469-5.0938 6.5469-13.781 0-6.0625-3.4688-10.234t-9.8594-5.7812z"/>
</defs>
<g transform="translate(265.43 282.12) scale(.1 -.1)">
<use xlink:href="#c"/>
<use x="63.623047" xlink:href="#d"/>
<use x="95.410156" xlink:href="#c"/>
<use x="159.033203" xlink:href="#ag"/>
</g>
</g>
<g clip-path="url(#a)">
<defs>
<path id="af" d="m37.797 64.312-24.906-38.922h24.906zm-2.5938 8.5938h12.406v-47.516h10.406v-8.2031h-10.406v-17.188h-9.8125v17.188h-32.906v9.5156z"/>
</defs>
<g transform="translate(388.57 231.49) scale(.1 -.1)">
<use xlink:href="#c"/>
<use x="63.623047" xlink:href="#d"/>
<use x="95.410156" xlink:href="#c"/>
<use x="159.033203" xlink:href="#af"/>
</g>
</g>
<g clip-path="url(#a)">
<g transform="translate(466.57 332.76) scale(.1 -.1)">
<use xlink:href="#k"/>
<use x="29.492188" xlink:href="#s"/>
<use x="115.771484" xlink:href="#o"/>
<use x="176.074219" xlink:href="#t"/>
<use x="231.787109" xlink:href="#k"/>
<use x="261.279297" xlink:href="#q"/>
<use x="331.103516" xlink:href="#k"/>
<use x="360.595703" xlink:href="#f"/>
</g>
</g>
<g clip-path="url(#a)">
<defs>
<path id="ae" d="m33.016 40.375q-6.6406 0-10.531-4.5469-3.875-4.5312-3.875-12.438 0-7.8594 3.875-12.438 3.8906-4.5625 10.531-4.5625t10.516 4.5625q3.875 4.5781 3.875 12.438 0 7.9062-3.875 12.438-3.875 4.5469-10.516 4.5469zm19.578 30.922v-8.9844q-3.7188 1.75-7.5 2.6719-3.7812 0.9375-7.5 0.9375-9.7656 0-14.922-6.5938-5.1406-6.5938-5.875-19.922 2.875 4.25 7.2188 6.5156 4.3594 2.2656 9.5781 2.2656 10.984 0 17.359-6.6719 6.375-6.6562 6.375-18.125 0-11.234-6.6406-18.031-6.6406-6.7812-17.672-6.7812-12.656 0-19.344 9.6875-6.6875 9.7031-6.6875 28.109 0 17.281 8.2031 27.562t22.016 10.281q3.7188 0 7.5-0.73438t7.8906-2.1875z"/>
</defs>
<g transform="translate(300.61 282.12) scale(.1 -.1)">
<use xlink:href="#c"/>
<use x="63.623047" xlink:href="#d"/>
<use x="95.410156" xlink:href="#c"/>
<use x="159.033203" xlink:href="#ae"/>
</g>
</g>
<g clip-path="url(#a)">
<defs>
<path id="ad" d="m8.2031 72.906h46.875v-4.2031l-26.469-68.703h-10.297l24.906 64.594h-35.016z"/>
</defs>
<g transform="translate(335.79 282.12) scale(.1 -.1)">
<use xlink:href="#c"/>
<use x="63.623047" xlink:href="#d"/>
<use x="95.410156" xlink:href="#c"/>
<use x="159.033203" xlink:href="#ad"/>
</g>
</g>
<g clip-path="url(#a)">
<g transform="translate(536.94 332.76) scale(.1 -.1)">
<use xlink:href="#k"/>
<use x="29.492188" xlink:href="#s"/>
<use x="115.771484" xlink:href="#o"/>
<use x="176.074219" xlink:href="#t"/>
<use x="231.787109" xlink:href="#k"/>
<use x="261.279297" xlink:href="#q"/>
<use x="331.103516" xlink:href="#k"/>
<use x="360.595703" xlink:href="#f"/>
</g>
</g>
<g clip-path="url(#a)">
<g transform="translate(501.76 332.76) scale(.1 -.1)">
<use xlink:href="#k"/>
<use x="29.492188" xlink:href="#s"/>
<use x="115.771484" xlink:href="#o"/>
<use x="176.074219" xlink:href="#t"/>
<use x="231.787109" xlink:href="#k"/>
<use x="261.279297" xlink:href="#q"/>
<use x="331.103516" xlink:href="#k"/>
<use x="360.595703" xlink:href="#f"/>
</g>
</g>
<g clip-path="url(#a)">
<g transform="translate(54.323 282.12) scale(.1 -.1)">
<use xlink:href="#c"/>
<use x="63.623047" xlink:href="#d"/>
<use x="95.410156" xlink:href="#l"/>
<use x="159.033203" xlink:href="#ah"/>
</g>
</g>
<g clip-path="url(#a)">
<g transform="translate(142.28 231.49) scale(.1 -.1)">
<use xlink:href="#c"/>
<use x="63.623047" xlink:href="#d"/>
<use x="95.410156" xlink:href="#l"/>
<use x="159.033203" xlink:href="#c"/>
</g>
</g>
<g clip-path="url(#a)">
<g transform="translate(19.14 282.12) scale(.1 -.1)">
<use xlink:href="#c"/>
<use x="63.623047" xlink:href="#d"/>
<use x="95.410156" xlink:href="#l"/>
<use x="159.033203" xlink:href="#l"/>
</g>
</g>
<g clip-path="url(#a)">
<g transform="translate(89.507 282.12) scale(.1 -.1)">
<use xlink:href="#c"/>
<use x="63.623047" xlink:href="#d"/>
<use x="95.410156" xlink:href="#l"/>
<use x="159.033203" xlink:href="#ag"/>
</g>
</g>
<g clip-path="url(#a)">
<g transform="translate(124.69 282.12) scale(.1 -.1)">
<use xlink:href="#c"/>
<use x="63.623047" xlink:href="#d"/>
<use x="95.410156" xlink:href="#l"/>
<use x="159.033203" xlink:href="#af"/>
</g>
</g>
<g clip-path="url(#a)">
<defs>
<path id="aq" d="m10.797 72.906h38.719v-8.3125h-29.688v-17.859q2.1406 0.73438 4.2812 1.0938 2.1562 0.35938 4.3125 0.35938 12.203 0 19.328-6.6875 7.1406-6.6875 7.1406-18.109 0-11.766-7.3281-18.297-7.3281-6.5156-20.656-6.5156-4.5938 0-9.3594 0.78125-4.75 0.78125-9.8281 2.3438v9.9219q4.3906-2.3906 9.0781-3.5625t9.9062-1.1719q8.4531 0 13.375 4.4375 4.9375 4.4375 4.9375 12.062 0 7.6094-4.9375 12.047-4.9219 4.4531-13.375 4.4531-3.9531 0-7.8906-0.875-3.9219-0.875-8.0156-2.7344z"/>
</defs>
<g transform="translate(159.87 282.12) scale(.1 -.1)">
<use xlink:href="#c"/>
<use x="63.623047" xlink:href="#d"/>
<use x="95.410156" xlink:href="#l"/>
<use x="159.033203" xlink:href="#aq"/>
</g>
</g>
<g clip-path="url(#a)">
<g transform="translate(195.06 282.12) scale(.1 -.1)">
<use xlink:href="#c"/>
<use x="63.623047" xlink:href="#d"/>
<use x="95.410156" xlink:href="#l"/>
<use x="159.033203" xlink:href="#ae"/>
</g>
</g>
<g clip-path="url(#a)">
<g transform="translate(370.98 282.12) scale(.1 -.1)">
<use xlink:href="#c"/>
<use x="63.623047" xlink:href="#d"/>
<use x="95.410156" xlink:href="#l"/>
<use x="159.033203" xlink:href="#ad"/>
</g>
</g>
<g clip-path="url(#a)">
<g transform="translate(406.16 282.12) scale(.1 -.1)">
<use xlink:href="#c"/>
<use x="63.623047" xlink:href="#d"/>
<use x="95.410156" xlink:href="#l"/>
<use x="159.033203" xlink:href="#ac"/>
</g>
</g>
<g clip-path="url(#a)">
<g transform="translate(441.34 282.12) scale(.1 -.1)">
<use xlink:href="#c"/>
<use x="63.623047" xlink:href="#d"/>
<use x="95.410156" xlink:href="#l"/>
<use x="159.033203" xlink:href="#ab"/>
</g>
</g>
<defs>
<clipPath id="a">
<rect width="658.67" height="346.67"/>
</clipPath>
</defs>
</svg>
