<?xml version="1.0" encoding="UTF-8"?>
<!DOCTYPE svg  PUBLIC '-//W3C//DTD SVG 1.1//EN'  'http://www.w3.org/Graphics/SVG/1.1/DTD/svg11.dtd'>
<svg width="1114.7pt" height="586.67pt" version="1.1" viewBox="0 0 1114.7 586.67" xmlns="http://www.w3.org/2000/svg" xmlns:xlink="http://www.w3.org/1999/xlink">
<defs>
<style type="text/css">*{stroke-linecap:butt;stroke-linejoin:round;}</style>
</defs>
<path d="m0 586.67h1114.7v-586.67h-1114.7z" fill="#fff"/>
<g fill="none" stroke="#000">
<path d="m553.62 28.06-374.08 135.47" clip-path="url(#a)"/>
<path d="m553.62 28.06-358 399.46" clip-path="url(#a)"/>
<path d="m553.62 28.06-68.633 268.38" clip-path="url(#a)"/>
<path d="m553.62 28.06-68.633 399.46" clip-path="url(#a)"/>
<path d="m553.62 28.06 27.824 399.46" clip-path="url(#a)"/>
<path d="m553.62 28.06-12.366 135.47" clip-path="url(#a)"/>
<path d="m553.62 28.06-36.48 135.47" clip-path="url(#a)"/>
<path d="m553.62 28.06 108.2 268.38" clip-path="url(#a)"/>
<path d="m553.62 28.06 365.42 399.46" clip-path="url(#a)"/>
<path d="m553.62 28.06 140.36 135.47" clip-path="url(#a)"/>
<path d="m553.62 28.06-165.09 399.46" clip-path="url(#a)"/>
<path d="m553.62 28.06 172.51 399.46" clip-path="url(#a)"/>
<path d="m553.62 28.06 268.97 399.46" clip-path="url(#a)"/>
<path d="m179.55 163.53-80.38 263.99" clip-path="url(#a)"/>
<path d="m179.55 163.53-32.152 263.99" clip-path="url(#a)"/>
<path d="m179.55 163.53 112.53 132.91" clip-path="url(#a)"/>
<path d="m195.62 427.52v131.09" clip-path="url(#a)"/>
<path d="m484.99 296.44-48.228 131.09" clip-path="url(#a)"/>
<path d="m484.99 296.44 48.228 131.09" clip-path="url(#a)"/>
<path d="m484.99 427.52v131.09" clip-path="url(#a)"/>
<path d="m581.45 427.52v131.09" clip-path="url(#a)"/>
<path d="m541.26 163.53 474.24 263.99" clip-path="url(#a)" stroke-dasharray="3.7,1.6"/>
<path d="m541.26 163.53 88.419 263.99" clip-path="url(#a)"/>
<path d="m541.26 163.53-152.72 132.91" clip-path="url(#a)"/>
<path d="m541.26 163.53-442.09 263.99" clip-path="url(#a)" stroke-dasharray="3.7,1.6"/>
<path d="m541.26 163.53-490.32 263.99" clip-path="url(#a)"/>
<path d="m541.26 163.53 522.47 263.99" clip-path="url(#a)"/>
<path d="m517.14 163.53 498.36 263.99" clip-path="url(#a)" stroke-dasharray="3.7,1.6"/>
<path d="m517.14 163.53-80.38 132.91" clip-path="url(#a)"/>
<path d="m517.14 163.53-417.98 263.99" clip-path="url(#a)" stroke-dasharray="3.7,1.6"/>
<path d="m661.83 296.44 353.67 131.09" clip-path="url(#a)" stroke-dasharray="3.7,1.6"/>
<path d="m661.83 296.44 208.99 131.09" clip-path="url(#a)"/>
<path d="m661.83 296.44-562.66 131.09" clip-path="url(#a)" stroke-dasharray="3.7,1.6"/>
<path d="m919.05 427.52v131.09" clip-path="url(#a)"/>
<path d="m693.98 163.53 273.29 132.91" clip-path="url(#a)"/>
<path d="m693.98 163.53 321.52 263.99" clip-path="url(#a)"/>
<path d="m693.98 163.53-594.82 263.99" clip-path="url(#a)" stroke-dasharray="3.7,1.6"/>
<path d="m967.27 296.44v131.09" clip-path="url(#a)"/>
<path d="m1015.5 427.52v131.09" clip-path="url(#a)"/>
<path d="m967.27 427.52v131.09" clip-path="url(#a)"/>
<path d="m870.82 427.52v131.09" clip-path="url(#a)"/>
<path d="m436.76 296.44 337.6 262.17" clip-path="url(#a)"/>
<path d="m436.76 296.44-337.6 131.09" clip-path="url(#a)" stroke-dasharray="3.7,1.6"/>
<path d="m629.68 427.52v131.09" clip-path="url(#a)"/>
<path d="m388.53 296.44 289.37 131.09" clip-path="url(#a)"/>
<path d="m388.53 296.44-289.37 131.09" clip-path="url(#a)" stroke-dasharray="3.7,1.6"/>
<path d="m677.9 427.52v131.09" clip-path="url(#a)"/>
<path d="m436.76 427.52v131.09" clip-path="url(#a)"/>
<path d="m533.22 427.52v131.09" clip-path="url(#a)"/>
<path d="m99.165 427.52v131.09" clip-path="url(#a)"/>
<path d="m147.39 427.52v131.09" clip-path="url(#a)"/>
<path d="m292.08 296.44-48.228 131.09" clip-path="url(#a)"/>
<path d="m292.08 296.44v131.09" clip-path="url(#a)"/>
<path d="m292.08 296.44 48.228 131.09" clip-path="url(#a)"/>
<path d="m243.85 427.52v131.09" clip-path="url(#a)"/>
<path d="m292.08 427.52v131.09" clip-path="url(#a)"/>
<path d="m340.31 427.52v131.09" clip-path="url(#a)"/>
<path d="m50.936 427.52v131.09" clip-path="url(#a)"/>
<path d="m388.53 427.52v131.09" clip-path="url(#a)"/>
<path d="m726.13 427.52v131.09" clip-path="url(#a)"/>
<path d="m822.59 427.52v131.09" clip-path="url(#a)"/>
<path d="m1063.7 427.52v131.09" clip-path="url(#a)"/>
</g>
<path d="m365.89 102.71 5.6568-2.0485q2.2566-0.8172 1.4394-3.0738l-2.6363-7.2798q-0.8172-2.2566-3.0738-1.4394l-5.6568 2.0485q-2.2566 0.8172-1.4394 3.0738l2.6363 7.2798q0.8172 2.2566 3.0738 1.4394z" clip-path="url(#a)" fill="#fff" stroke="#fff"/>
<g clip-path="url(#a)">
<defs>
<path id="q" d="m9.8125 72.906h9.8594v-29.891h35.844v29.891h9.8594v-72.906h-9.8594v34.719h-35.844v-34.719h-9.8594z"/>
</defs>
<g transform="translate(364.51 98.894) rotate(-19.907) scale(.08 -.08)">
<use xlink:href="#q"/>
</g>
</g>
<path d="m377.81 233.64 2.975-3.3195q1.6018-1.7873-0.1855-3.389l-5.7658-5.1674q-1.7873-1.6018-3.389 0.1855l-2.975 3.3195q-1.6018 1.7873 0.1855 3.389l5.7658 5.1674q1.7873 1.6018 3.389-0.1855z" clip-path="url(#a)" fill="#fff" stroke="#fff"/>
<g clip-path="url(#a)">
<defs>
<path id="y" d="m9.8125 72.906h9.8594v-64.609h35.5v-8.2969h-45.359z"/>
</defs>
<g transform="translate(374.78 230.92) rotate(-48.133) scale(.08 -.08)">
<use xlink:href="#y"/>
</g>
</g>
<path d="m524.64 166.72 1.4906-5.8287q0.59462-2.3252-1.7306-2.9198l-7.5011-1.9183q-2.3252-0.59462-2.9198 1.7306l-1.4906 5.8287q-0.59462 2.3252 1.7306 2.9198l7.5011 1.9183q2.3252 0.59462 2.9198-1.7306z" clip-path="url(#a)" fill="#fff" stroke="#fff"/>
<g clip-path="url(#a)">
<g transform="translate(520.7 165.71) rotate(-75.655) scale(.08 -.08)">
<use xlink:href="#q"/>
</g>
</g>
<path d="m525.11 231.05 0.7548-4.3931q0.4064-2.3653-1.9589-2.7717l-7.6307-1.311q-2.3653-0.4064-2.7717 1.9589l-0.7548 4.3931q-0.4064 2.3653 1.9589 2.7717l7.6307 1.311q2.3653 0.4064 2.7717-1.9589z" clip-path="url(#a)" fill="#fff" stroke="#fff"/>
<g clip-path="url(#a)">
<g transform="translate(521.11 230.36) rotate(-80.251) scale(.08 -.08)">
<use xlink:href="#y"/>
</g>
</g>
<path d="m561.12 226 0.30973 4.4467q0.16676 2.3942 2.561 2.2274l7.7238-0.53799q2.3942-0.16676 2.2274-2.561l-0.30973-4.4467q-0.16676-2.3942-2.561-2.2274l-7.7238 0.53799q-2.3942 0.16676-2.2274 2.561z" clip-path="url(#a)" fill="#fff" stroke="#fff"/>
<g clip-path="url(#a)">
<g transform="translate(565.18 225.72) rotate(86.016) scale(.08 -.08)">
<use xlink:href="#y"/>
</g>
</g>
<path d="m553.41 99.36 0.54692-5.9913q0.21818-2.3901-2.1719-2.6082l-7.7104-0.70385q-2.3901-0.21818-2.6082 2.1719l-0.54692 5.9913q-0.21818 2.3901 2.1719 2.6082l7.7104 0.70385q2.3901 0.21818 2.6082-2.1719z" clip-path="url(#a)" fill="#fff" stroke="#fff"/>
<g clip-path="url(#a)">
<g transform="translate(549.37 98.99) rotate(-84.784) scale(.08 -.08)">
<use xlink:href="#q"/>
</g>
</g>
<path d="m540.66 100.33 1.5644-5.8093q0.62407-2.3174-1.6934-2.9415l-7.4762-2.0133q-2.3174-0.62407-2.9415 1.6934l-1.5644 5.8093q-0.62407 2.3174 1.6934 2.9415l7.4762 2.0133q2.3174 0.62407 2.9415-1.6934z" clip-path="url(#a)" fill="#fff" stroke="#fff"/>
<g clip-path="url(#a)">
<g transform="translate(536.73 99.273) rotate(-74.928) scale(.08 -.08)">
<use xlink:href="#q"/>
</g>
</g>
<path d="m600.78 161.8 2.2497 5.5798q0.89744 2.2259 3.1233 1.3285l7.1808-2.8952q2.2259-0.89744 1.3285-3.1233l-2.2497-5.5798q-0.89744-2.2259-3.1233-1.3285l-7.1808 2.8952q-2.2259 0.89744-1.3285 3.1233z" clip-path="url(#a)" fill="#fff" stroke="#fff"/>
<g clip-path="url(#a)">
<g transform="translate(604.55 160.28) rotate(68.042) scale(.08 -.08)">
<use xlink:href="#q"/>
</g>
</g>
<path d="m730.2 230.38 3.0087 3.2889q1.6199 1.7708 3.3908 0.1509l5.7128-5.226q1.7708-1.6199 0.1509-3.3908l-3.0087-3.2889q-1.6199-1.7708-3.3908-0.1509l-5.7128 5.226q-1.7708 1.6199-0.1509 3.3908z" clip-path="url(#a)" fill="#fff" stroke="#fff"/>
<g clip-path="url(#a)">
<g transform="translate(733.2 227.64) rotate(47.548) scale(.08 -.08)">
<use xlink:href="#y"/>
</g>
</g>
<path d="m617.28 98.217 4.3289 4.1781q1.7269 1.6667 3.3936-0.060148l5.3769-5.5709q1.6667-1.7269-0.060148-3.3936l-4.3289-4.1781q-1.7269-1.6667-3.3936 0.060148l-5.3769 5.5709q-1.6667 1.7269 0.060148 3.3936z" clip-path="url(#a)" fill="#fff" stroke="#fff"/>
<g clip-path="url(#a)">
<g transform="translate(620.1 95.293) rotate(43.985) scale(.08 -.08)">
<use xlink:href="#q"/>
</g>
</g>
<path d="m475.76 232.89 2.2363-5.4111q0.91667-2.218-1.3014-3.1347l-7.1555-2.9572q-2.218-0.91667-3.1347 1.3014l-2.2363 5.4111q-0.91667 2.218 1.3014 3.1347l7.1555 2.9572q2.218 0.91667 3.1347-1.3014z" clip-path="url(#a)" fill="#fff" stroke="#fff"/>
<g clip-path="url(#a)">
<defs>
<path id="s" d="m8.6875 72.906h9.9219v-44.297q0-11.719 4.2344-16.875 4.25-5.1406 13.781-5.1406 9.4688 0 13.719 5.1406 4.25 5.1562 4.25 16.875v44.297h9.9062v-45.516q0-14.25-7.0625-21.531-7.0469-7.2812-20.812-7.2812-13.828 0-20.891 7.2812-7.0469 7.2812-7.0469 21.531z"/>
</defs>
<g transform="translate(472 231.34) rotate(-67.546) scale(.08 -.08)">
<use xlink:href="#s"/>
</g>
</g>
<path d="m632.96 227.59 2.3213 5.3752q0.95151 2.2033 3.1548 1.2518l7.108-3.0696q2.2033-0.95151 1.2518-3.1548l-2.3213-5.3752q-0.95151-2.2033-3.1548-1.2518l-7.108 3.0696q-2.2033 0.95151-1.2518 3.1548z" clip-path="url(#a)" fill="#fff" stroke="#fff"/>
<g clip-path="url(#a)">
<g transform="translate(636.69 225.98) rotate(66.643) scale(.08 -.08)">
<use xlink:href="#s"/>
</g>
</g>
<path d="m681.27 228.87 3.2701 4.8567q1.3404 1.9908 3.3312 0.65035l6.4224-4.3243q1.9908-1.3404 0.65035-3.3312l-3.2701-4.8567q-1.3404-1.9908-3.3312-0.65035l-6.4224 4.3243q-1.9908 1.3404-0.65035 3.3312z" clip-path="url(#a)" fill="#fff" stroke="#fff"/>
<g clip-path="url(#a)">
<g transform="translate(684.64 226.6) rotate(56.047) scale(.08 -.08)">
<use xlink:href="#s"/>
</g>
</g>
<path d="m144.56 299.97 1.594-5.2352q0.69906-2.2959-1.5969-2.995l-7.4068-2.2552q-2.2959-0.69906-2.995 1.5969l-1.594 5.2352q-0.69906 2.2959 1.5969 2.995l7.4068 2.2552q2.2959 0.69906 2.995-1.5969z" clip-path="url(#a)" fill="#fff" stroke="#fff"/>
<g clip-path="url(#a)">
<defs>
<path id="o" d="m34.188 63.188-13.391-36.281h26.812zm-5.5781 9.7188h11.188l27.781-72.906h-10.25l-6.6406 18.703h-32.859l-6.6406-18.703h-10.406z"/>
</defs>
<g transform="translate(140.67 298.79) rotate(-73.066) scale(.08 -.08)">
<use xlink:href="#o"/>
</g>
</g>
<path d="m169.39 298.8 0.61401-5.0415q0.29016-2.3824-2.0922-2.6726l-7.6857-0.93605q-2.3824-0.29016-2.6726 2.0922l-0.61401 5.0415q-0.29016 2.3824 2.0922 2.6726l7.6857 0.93605q2.3824 0.29016 2.6726-2.0922z" clip-path="url(#a)" fill="#fff" stroke="#fff"/>
<g clip-path="url(#a)">
<defs>
<path id="w" d="m53.516 70.516v-9.625q-5.6094 2.6875-10.594 4-4.9844 1.3281-9.625 1.3281-8.0469 0-12.422-3.125t-4.375-8.8906q0-4.8438 2.9062-7.3125 2.9062-2.4531 11.016-3.9688l5.9531-1.2188q11.031-2.1094 16.281-7.4062t5.25-14.172q0-10.609-7.1094-16.078-7.0938-5.4688-20.812-5.4688-5.1719 0-11.016 1.1719-5.8281 1.1719-12.078 3.4688v10.156q6-3.3594 11.766-5.0781 5.7656-1.7031 11.328-1.7031 8.4375 0 13.031 3.3125 4.5938 3.3281 4.5938 9.4844 0 5.3594-3.2969 8.3906t-10.812 4.5469l-6.0156 1.1719q-11.031 2.1875-15.969 6.875-4.9219 4.6875-4.9219 13.047 0 9.6719 6.8125 15.234t18.766 5.5625q5.1406 0 10.453-0.9375 5.3281-0.92188 10.891-2.7656z"/>
</defs>
<g transform="translate(165.35 298.31) rotate(-83.056) scale(.08 -.08)">
<use xlink:href="#w"/>
</g>
</g>
<path d="m229.26 231.95 3.5362 4.1765q1.5508 1.8316 3.3825 0.28081l5.909-5.0031q1.8316-1.5508 0.28081-3.3825l-3.5362-4.1765q-1.5508-1.8316-3.3825-0.28081l-5.909 5.0031q-1.8316 1.5508-0.28081 3.3825z" clip-path="url(#a)" fill="#fff" stroke="#fff"/>
<g clip-path="url(#a)">
<g transform="translate(232.36 229.32) rotate(49.746) scale(.08 -.08)">
<use xlink:href="#o"/>
</g>
</g>
<path d="m189.35 475.42v35.285q0 2.4 2.4 2.4h7.7425q2.4 0 2.4-2.4v-35.285q0-2.4-2.4-2.4h-7.7425q-2.4 0-2.4 2.4z" clip-path="url(#a)" fill="#fff" stroke="#fff"/>
<g clip-path="url(#a)">
<defs>
<path id="l" d="m-0.29688 72.906h61.672v-8.3125h-25.875v-64.594h-9.9062v64.594h-25.891z"/>
<path id="d" d="m56.203 29.594v-4.3906h-41.312q0.59375-9.2812 5.5938-14.141t13.938-4.8594q5.1719 0 10.031 1.2656t9.6562 3.8125v-8.5q-4.8438-2.0469-9.9219-3.125t-10.297-1.0781q-13.094 0-20.734 7.6094-7.6406 7.625-7.6406 20.625 0 13.422 7.25 21.297 7.25 7.8906 19.562 7.8906 11.031 0 17.453-7.1094 6.4219-7.0938 6.4219-19.297zm-8.9844 2.6406q-0.09375 7.3594-4.125 11.75-4.0312 4.4062-10.672 4.4062-7.5156 0-12.031-4.25t-5.2031-11.969z"/>
<path id="g" d="m41.109 46.297q-1.5156 0.875-3.2969 1.2812-1.7812 0.42188-3.9219 0.42188-7.625 0-11.703-4.9531t-4.0781-14.234v-28.812h-9.0312v54.688h9.0312v-8.5q2.8438 4.9844 7.375 7.3906 4.5469 2.4219 11.047 2.4219 0.92188 0 2.0469-0.125 1.125-0.10938 2.4844-0.35938z"/>
<path id="j" d="m52 44.188q3.375 6.0625 8.0625 8.9375t11.031 2.875q8.5469 0 13.188-5.9844 4.6406-5.9688 4.6406-17v-33.016h-9.0312v32.719q0 7.8594-2.7969 11.656-2.7812 3.8125-8.4844 3.8125-6.9844 0-11.047-4.6406-4.0469-4.625-4.0469-12.641v-30.906h-9.0312v32.719q0 7.9062-2.7812 11.688t-8.5938 3.7812q-6.8906 0-10.953-4.6562-4.0469-4.6562-4.0469-12.625v-30.906h-9.0312v54.688h9.0312v-8.5q3.0781 5.0312 7.375 7.4219t10.203 2.3906q5.9688 0 10.141-3.0312 4.1719-3.0156 6.1719-8.7812z"/>
<path id="i" d="m9.4219 54.688h8.9844v-54.688h-8.9844zm0 21.297h8.9844v-11.391h-8.9844z"/>
<path id="f" d="m54.891 33.016v-33.016h-8.9844v32.719q0 7.7656-3.0312 11.609-3.0312 3.8594-9.0781 3.8594-7.2812 0-11.484-4.6406-4.2031-4.625-4.2031-12.641v-30.906h-9.0312v54.688h9.0312v-8.5q3.2344 4.9375 7.5938 7.375 4.375 2.4375 10.094 2.4375 9.4219 0 14.25-5.8281 4.8438-5.8281 4.8438-17.156z"/>
<path id="h" d="m34.281 27.484q-10.891 0-15.094-2.4844t-4.2031-8.5q0-4.7812 3.1562-7.5938 3.1562-2.7969 8.5625-2.7969 7.4844 0 12 5.2969t4.5156 14.078v2zm17.922 3.7188v-31.203h-8.9844v8.2969q-3.0781-4.9688-7.6719-7.3438t-11.234-2.375q-8.3906 0-13.359 4.7188-4.9531 4.7188-4.9531 12.625 0 9.2188 6.1719 13.906 6.1875 4.6875 18.438 4.6875h12.609v0.89062q0 6.2031-4.0781 9.5938t-11.453 3.3906q-4.6875 0-9.1406-1.125-4.4375-1.125-8.5312-3.375v8.3125q4.9219 1.9062 9.5625 2.8438 4.6406 0.95312 9.0312 0.95312 11.875 0 17.734-6.1562 5.8594-6.1406 5.8594-18.641z"/>
<path id="k" d="m9.4219 75.984h8.9844v-75.984h-8.9844z"/>
</defs>
<g transform="translate(193.41 475.42) rotate(90) scale(.08 -.08)">
<use xlink:href="#l"/>
<use x="60.818359" xlink:href="#d"/>
<use x="122.341797" xlink:href="#g"/>
<use x="163.439453" xlink:href="#j"/>
<use x="260.851562" xlink:href="#i"/>
<use x="288.634766" xlink:href="#f"/>
<use x="352.013672" xlink:href="#h"/>
<use x="413.292969" xlink:href="#k"/>
</g>
</g>
<path d="m465.97 366.3 1.5888-4.3183q0.82869-2.2524-1.4237-3.0811l-7.2663-2.6734q-2.2524-0.82869-3.0811 1.4237l-1.5888 4.3183q-0.82869 2.2524 1.4237 3.0811l7.2663 2.6734q2.2524 0.82869 3.0811-1.4237z" clip-path="url(#a)" fill="#fff" stroke="#fff"/>
<g clip-path="url(#a)">
<defs>
<path id="ak" d="m9.8125 72.906h41.891v-8.3125h-32.031v-21.484h28.906v-8.2969h-28.906v-34.812h-9.8594z"/>
</defs>
<g transform="translate(462.15 364.9) rotate(-69.801) scale(.08 -.08)">
<use xlink:href="#ak"/>
</g>
</g>
<path d="m502.34 361.76 1.7536 4.7664q0.82869 2.2524 3.0811 1.4237l7.2663-2.6734q2.2524-0.82869 1.4237-3.0811l-1.7536-4.7664q-0.82869-2.2524-3.0811-1.4237l-7.2663 2.6734q-2.2524 0.82869-1.4237 3.0811z" clip-path="url(#a)" fill="#fff" stroke="#fff"/>
<g clip-path="url(#a)">
<g transform="translate(506.16 360.36) rotate(69.801) scale(.08 -.08)">
<use xlink:href="#w"/>
</g>
</g>
<path d="m478.72 475.42v35.285q0 2.4 2.4 2.4h7.7425q2.4 0 2.4-2.4v-35.285q0-2.4-2.4-2.4h-7.7425q-2.4 0-2.4 2.4z" clip-path="url(#a)" fill="#fff" stroke="#fff"/>
<g clip-path="url(#a)">
<g transform="translate(482.78 475.42) rotate(90) scale(.08 -.08)">
<use xlink:href="#l"/>
<use x="60.818359" xlink:href="#d"/>
<use x="122.341797" xlink:href="#g"/>
<use x="163.439453" xlink:href="#j"/>
<use x="260.851562" xlink:href="#i"/>
<use x="288.634766" xlink:href="#f"/>
<use x="352.013672" xlink:href="#h"/>
<use x="413.292969" xlink:href="#k"/>
</g>
</g>
<path d="m575.18 475.42v35.285q0 2.4 2.4 2.4h7.7425q2.4 0 2.4-2.4v-35.285q0-2.4-2.4-2.4h-7.7425q-2.4 0-2.4 2.4z" clip-path="url(#a)" fill="#fff" stroke="#fff"/>
<g clip-path="url(#a)">
<g transform="translate(579.24 475.42) rotate(90) scale(.08 -.08)">
<use xlink:href="#l"/>
<use x="60.818359" xlink:href="#d"/>
<use x="122.341797" xlink:href="#g"/>
<use x="163.439453" xlink:href="#j"/>
<use x="260.851562" xlink:href="#i"/>
<use x="288.634766" xlink:href="#f"/>
<use x="352.013672" xlink:href="#h"/>
<use x="413.292969" xlink:href="#k"/>
</g>
</g>
<path d="m773.22 299.83 4.2147 2.3462q2.097 1.1673 3.2643-0.92968l3.7658-6.765q1.1673-2.097-0.92968-3.2643l-4.2147-2.3462q-2.097-1.1673-3.2643 0.92968l-3.7658 6.765q-1.1673 2.097 0.92968 3.2643z" clip-path="url(#a)" fill="#fff" stroke="#fff"/>
<g clip-path="url(#a)">
<defs>
<path id="x" d="m19.672 64.797v-27.391h12.406q6.8906 0 10.641 3.5625 3.7656 3.5625 3.7656 10.156 0 6.5469-3.7656 10.109-3.75 3.5625-10.641 3.5625zm-9.8594 8.1094h22.266q12.266 0 18.531-5.5469 6.2812-5.5469 6.2812-16.234 0-10.797-6.2812-16.312-6.2656-5.5156-18.531-5.5156h-12.406v-29.297h-9.8594z"/>
</defs>
<g transform="translate(775.2 296.28) rotate(29.103) scale(.08 -.08)">
<use xlink:href="#x"/>
</g>
</g>
<path d="m578.79 295.33 1.4613 4.363q0.76221 2.2758 3.038 1.5135l7.3417-2.4589q2.2758-0.76221 1.5135-3.038l-1.4613-4.363q-0.76221-2.2758-3.038-1.5135l-7.3417 2.4589q-2.2758 0.76221-1.5135 3.038z" clip-path="url(#a)" fill="#fff" stroke="#fff"/>
<g clip-path="url(#a)">
<g transform="translate(582.64 294.04) rotate(71.483) scale(.08 -.08)">
<use xlink:href="#ak"/>
</g>
</g>
<path d="m466.95 236.51 4.1282-3.5926q1.8104-1.5755 0.23488-3.386l-5.0828-5.8405q-1.5755-1.8104-3.386-0.23488l-4.1282 3.5926q-1.8104 1.5755-0.23488 3.386l5.0828 5.8405q1.5755 1.8104 3.386 0.23488z" clip-path="url(#a)" fill="#fff" stroke="#fff"/>
<g clip-path="url(#a)">
<g transform="translate(464.28 233.44) rotate(-41.032) scale(.08 -.08)">
<use xlink:href="#o"/>
</g>
</g>
<path d="m321.08 302.31 4.6985-2.8057q2.0606-1.2305 0.83011-3.291l-3.9695-6.6475q-1.2305-2.0606-3.291-0.83011l-4.6985 2.8057q-2.0606 1.2305-0.83011 3.291l3.9695 6.6475q1.2305 2.0606 3.291 0.83011z" clip-path="url(#a)" fill="#fff" stroke="#fff"/>
<g clip-path="url(#a)">
<g transform="translate(318.99 298.82) rotate(-30.843) scale(.08 -.08)">
<use xlink:href="#o"/>
</g>
</g>
<path d="m296.49 302.43 5.1553-2.7756q2.1132-1.1378 0.97542-3.2509l-3.6704-6.8172q-1.1378-2.1132-3.2509-0.97542l-5.1553 2.7756q-2.1132 1.1378-0.97542 3.2509l3.6704 6.8172q1.1378 2.1132 3.2509 0.97542z" clip-path="url(#a)" fill="#fff" stroke="#fff"/>
<g clip-path="url(#a)">
<g transform="translate(294.57 298.86) rotate(-28.298) scale(.08 -.08)">
<use xlink:href="#s"/>
</g>
</g>
<path d="m797.05 299.8 5.2258 2.6405q2.1421 1.0823 3.2244-1.0597l3.4917-6.9105q1.0823-2.1421-1.0597-3.2244l-5.2258-2.6405q-2.1421-1.0823-3.2244 1.0597l-3.4917 6.9105q-1.0823 2.1421 1.0597 3.2244z" clip-path="url(#a)" fill="#fff" stroke="#fff"/>
<g clip-path="url(#a)">
<g transform="translate(798.89 296.17) rotate(26.806) scale(.08 -.08)">
<use xlink:href="#s"/>
</g>
</g>
<path d="m761.26 299.94 4.2626 2.258q2.1208 1.1235 3.2443-0.99736l3.6243-6.8418q1.1235-2.1208-0.99736-3.2443l-4.2626-2.258q-2.1208-1.1235-3.2443 0.99736l-3.6243 6.8418q-1.1235 2.1208 0.99736 3.2443z" clip-path="url(#a)" fill="#fff" stroke="#fff"/>
<g clip-path="url(#a)">
<g transform="translate(763.16 296.35) rotate(27.911) scale(.08 -.08)">
<use xlink:href="#x"/>
</g>
</g>
<path d="m480.9 235.57 2.832-4.6827q1.242-2.0536-0.81164-3.2956l-6.6251-4.0067q-2.0536-1.242-3.2956 0.81164l-2.832 4.6827q-1.242 2.0536 0.81164 3.2956l6.6251 4.0067q2.0536 1.242 3.2956-0.81164z" clip-path="url(#a)" fill="#fff" stroke="#fff"/>
<g clip-path="url(#a)">
<g transform="translate(477.43 233.47) rotate(-58.835) scale(.08 -.08)">
<use xlink:href="#o"/>
</g>
</g>
<path d="m309.19 302.29 4.6269-2.9223q2.0292-1.2816 0.74755-3.3108l-4.1345-6.5461q-1.2816-2.0292-3.3108-0.74755l-4.6269 2.9223q-2.0292 1.2816-0.74755 3.3108l4.1345 6.5461q1.2816 2.0292 3.3108 0.74755z" clip-path="url(#a)" fill="#fff" stroke="#fff"/>
<g clip-path="url(#a)">
<g transform="translate(307.02 298.85) rotate(-32.276) scale(.08 -.08)">
<use xlink:href="#o"/>
</g>
</g>
<path d="m834.22 367.02 4.5231 1.6764q2.2504 0.83408 3.0845-1.4163l2.6908-7.2599q0.83408-2.2504-1.4163-3.0845l-4.5231-1.6764q-2.2504-0.83408-3.0845 1.4163l-2.6908 7.2599q-0.83408 2.2504 1.4163 3.0845z" clip-path="url(#a)" fill="#fff" stroke="#fff"/>
<g clip-path="url(#a)">
<g transform="translate(835.64 363.21) rotate(20.337) scale(.08 -.08)">
<use xlink:href="#x"/>
</g>
</g>
<path d="m760.38 365.66 5.2184 3.2732q2.0332 1.2753 3.3084-0.75789l4.114-6.559q1.2753-2.0332-0.75789-3.3084l-5.2184-3.2732q-2.0332-1.2753-3.3084 0.75789l-4.114 6.559q-1.2753 2.0332 0.75789 3.3084z" clip-path="url(#a)" fill="#fff" stroke="#fff"/>
<g clip-path="url(#a)">
<defs>
<path id="al" d="m19.672 64.797v-56.688h11.922q15.094 0 22.094 6.8281 7 6.8438 7 21.594 0 14.641-7 21.453t-22.094 6.8125zm-9.8594 8.1094h20.266q21.188 0 31.094-8.8125 9.9219-8.8125 9.9219-27.562 0-18.859-9.9688-27.703-9.9531-8.8281-31.047-8.8281h-20.266z"/>
</defs>
<g transform="translate(762.54 362.21) rotate(32.097) scale(.08 -.08)">
<use xlink:href="#al"/>
</g>
</g>
<path d="m379.25 368.71 5.3298-1.2417q2.3374-0.54455 1.7929-2.882l-1.7567-7.5406q-0.54455-2.3374-2.882-1.7929l-5.3298 1.2417q-2.3374 0.54455-1.7929 2.882l1.7567 7.5406q0.54455 2.3374 2.882 1.7929z" clip-path="url(#a)" fill="#fff" stroke="#fff"/>
<g clip-path="url(#a)">
<g transform="translate(378.33 364.75) rotate(-13.114) scale(.08 -.08)">
<use xlink:href="#o"/>
</g>
</g>
<path d="m912.77 475.42v35.285q0 2.4 2.4 2.4h7.7425q2.4 0 2.4-2.4v-35.285q0-2.4-2.4-2.4h-7.7425q-2.4 0-2.4 2.4z" clip-path="url(#a)" fill="#fff" stroke="#fff"/>
<g clip-path="url(#a)">
<g transform="translate(916.84 475.42) rotate(90) scale(.08 -.08)">
<use xlink:href="#l"/>
<use x="60.818359" xlink:href="#d"/>
<use x="122.341797" xlink:href="#g"/>
<use x="163.439453" xlink:href="#j"/>
<use x="260.851562" xlink:href="#i"/>
<use x="288.634766" xlink:href="#f"/>
<use x="352.013672" xlink:href="#h"/>
<use x="413.292969" xlink:href="#k"/>
</g>
</g>
<path d="m825.11 234.27 5.5396 2.6941q2.1583 1.0496 3.2079-1.1087l3.3862-6.9628q1.0496-2.1583-1.1087-3.2079l-5.5396-2.6941q-2.1583-1.0496-3.2079 1.1087l-3.3862 6.9628q-1.0496 2.1583 1.1087 3.2079z" clip-path="url(#a)" fill="#fff" stroke="#fff"/>
<g clip-path="url(#a)">
<g transform="translate(826.89 230.62) rotate(25.935) scale(.08 -.08)">
<use xlink:href="#al"/>
</g>
</g>
<path d="m848.9 298.84 3.7281 3.061q1.8549 1.523 3.3778-0.33188l4.9132-5.9839q1.523-1.8549-0.33188-3.3778l-3.7281-3.061q-1.8549-1.523-3.3778 0.33188l-4.9132 5.9839q-1.523 1.8549 0.33188 3.3778z" clip-path="url(#a)" fill="#fff" stroke="#fff"/>
<g clip-path="url(#a)">
<g transform="translate(851.48 295.7) rotate(39.389) scale(.08 -.08)">
<use xlink:href="#x"/>
</g>
</g>
<path d="m396.62 302.37 5.002-2.22q2.1937-0.9736 1.2201-3.1672l-3.1409-7.0768q-0.9736-2.1937-3.1672-1.2201l-5.002 2.22q-2.1937 0.9736-1.2201 3.1672l3.1409 7.0768q0.9736 2.1937 3.1672 1.2201z" clip-path="url(#a)" fill="#fff" stroke="#fff"/>
<g clip-path="url(#a)">
<g transform="translate(394.97 298.65) rotate(-23.933) scale(.08 -.08)">
<use xlink:href="#o"/>
</g>
</g>
<path d="m961 359.44v5.0788q0 2.4 2.4 2.4h7.7425q2.4 0 2.4-2.4v-5.0788q0-2.4-2.4-2.4h-7.7425q-2.4 0-2.4 2.4z" clip-path="url(#a)" fill="#fff" stroke="#fff"/>
<g clip-path="url(#a)">
<g transform="translate(965.07 359.44) rotate(90) scale(.08 -.08)">
<use xlink:href="#w"/>
</g>
</g>
<path d="m1009.2 475.42v35.285q0 2.4 2.4 2.4h7.7425q2.4 0 2.4-2.4v-35.285q0-2.4-2.4-2.4h-7.7425q-2.4 0-2.4 2.4z" clip-path="url(#a)" fill="#fff" stroke="#fff"/>
<g clip-path="url(#a)">
<g transform="translate(1013.3 475.42) rotate(90) scale(.08 -.08)">
<use xlink:href="#l"/>
<use x="60.818359" xlink:href="#d"/>
<use x="122.341797" xlink:href="#g"/>
<use x="163.439453" xlink:href="#j"/>
<use x="260.851562" xlink:href="#i"/>
<use x="288.634766" xlink:href="#f"/>
<use x="352.013672" xlink:href="#h"/>
<use x="413.292969" xlink:href="#k"/>
</g>
</g>
<path d="m961 475.42v35.285q0 2.4 2.4 2.4h7.7425q2.4 0 2.4-2.4v-35.285q0-2.4-2.4-2.4h-7.7425q-2.4 0-2.4 2.4z" clip-path="url(#a)" fill="#fff" stroke="#fff"/>
<g clip-path="url(#a)">
<g transform="translate(965.07 475.42) rotate(90) scale(.08 -.08)">
<use xlink:href="#l"/>
<use x="60.818359" xlink:href="#d"/>
<use x="122.341797" xlink:href="#g"/>
<use x="163.439453" xlink:href="#j"/>
<use x="260.851562" xlink:href="#i"/>
<use x="288.634766" xlink:href="#f"/>
<use x="352.013672" xlink:href="#h"/>
<use x="413.292969" xlink:href="#k"/>
</g>
</g>
<path d="m864.55 475.42v35.285q0 2.4 2.4 2.4h7.7425q2.4 0 2.4-2.4v-35.285q0-2.4-2.4-2.4h-7.7425q-2.4 0-2.4 2.4z" clip-path="url(#a)" fill="#fff" stroke="#fff"/>
<g clip-path="url(#a)">
<g transform="translate(868.61 475.42) rotate(90) scale(.08 -.08)">
<use xlink:href="#l"/>
<use x="60.818359" xlink:href="#d"/>
<use x="122.341797" xlink:href="#g"/>
<use x="163.439453" xlink:href="#j"/>
<use x="260.851562" xlink:href="#i"/>
<use x="288.634766" xlink:href="#f"/>
<use x="352.013672" xlink:href="#h"/>
<use x="413.292969" xlink:href="#k"/>
</g>
</g>
<path d="m587.78 421.65 27.869 21.642q1.8955 1.472 3.3676-0.42351l4.7489-6.1151q1.472-1.8956-0.42351-3.3676l-27.869-21.642q-1.8956-1.472-3.3676 0.42351l-4.7489 6.1151q-1.472 1.8955 0.42351 3.3676z" clip-path="url(#a)" fill="#fff" stroke="#fff"/>
<g clip-path="url(#a)">
<g transform="translate(590.27 418.44) rotate(37.832) scale(.08 -.08)">
<use xlink:href="#l"/>
<use x="60.818359" xlink:href="#d"/>
<use x="122.341797" xlink:href="#g"/>
<use x="163.439453" xlink:href="#j"/>
<use x="260.851562" xlink:href="#i"/>
<use x="288.634766" xlink:href="#f"/>
<use x="352.013672" xlink:href="#h"/>
<use x="413.292969" xlink:href="#k"/>
</g>
</g>
<path d="m267.68 368.82 5.1014-1.9808q2.2373-0.8687 1.3686-3.106l-2.8025-7.2175q-0.8687-2.2373-3.106-1.3686l-5.1014 1.9808q-2.2373 0.8687-1.3686 3.106l2.8025 7.2175q0.8687 2.2373 3.106 1.3686z" clip-path="url(#a)" fill="#fff" stroke="#fff"/>
<g clip-path="url(#a)">
<g transform="translate(266.21 365.03) rotate(-21.221) scale(.08 -.08)">
<use xlink:href="#o"/>
</g>
</g>
<path d="m623.4 475.42v35.285q0 2.4 2.4 2.4h7.7425q2.4 0 2.4-2.4v-35.285q0-2.4-2.4-2.4h-7.7425q-2.4 0-2.4 2.4z" clip-path="url(#a)" fill="#fff" stroke="#fff"/>
<g clip-path="url(#a)">
<g transform="translate(627.47 475.42) rotate(90) scale(.08 -.08)">
<use xlink:href="#l"/>
<use x="60.818359" xlink:href="#d"/>
<use x="122.341797" xlink:href="#g"/>
<use x="163.439453" xlink:href="#j"/>
<use x="260.851562" xlink:href="#i"/>
<use x="288.634766" xlink:href="#f"/>
<use x="352.013672" xlink:href="#h"/>
<use x="413.292969" xlink:href="#k"/>
</g>
</g>
<path d="m528.32 366.64 4.6262 2.0957q2.1861 0.99033 3.1765-1.1958l3.1948-7.0526q0.99033-2.1861-1.1958-3.1765l-4.6262-2.0957q-2.1861-0.99033-3.1765 1.1958l-3.1948 7.0526q-0.99033 2.1861 1.1958 3.1765z" clip-path="url(#a)" fill="#fff" stroke="#fff"/>
<g clip-path="url(#a)">
<g transform="translate(530 362.94) rotate(24.371) scale(.08 -.08)">
<use xlink:href="#w"/>
</g>
</g>
<path d="m243.94 368.82 4.9849-2.2582q2.1861-0.99033 1.1958-3.1765l-3.1948-7.0526q-0.99033-2.1861-3.1765-1.1958l-4.9849 2.2582q-2.1861 0.99033-1.1958 3.1765l3.1948 7.0526q0.99033 2.1861 3.1765 1.1958z" clip-path="url(#a)" fill="#fff" stroke="#fff"/>
<g clip-path="url(#a)">
<g transform="translate(242.27 365.12) rotate(-24.371) scale(.08 -.08)">
<use xlink:href="#o"/>
</g>
</g>
<path d="m671.63 475.42v35.285q0 2.4 2.4 2.4h7.7425q2.4 0 2.4-2.4v-35.285q0-2.4-2.4-2.4h-7.7425q-2.4 0-2.4 2.4z" clip-path="url(#a)" fill="#fff" stroke="#fff"/>
<g clip-path="url(#a)">
<g transform="translate(675.7 475.42) rotate(90) scale(.08 -.08)">
<use xlink:href="#l"/>
<use x="60.818359" xlink:href="#d"/>
<use x="122.341797" xlink:href="#g"/>
<use x="163.439453" xlink:href="#j"/>
<use x="260.851562" xlink:href="#i"/>
<use x="288.634766" xlink:href="#f"/>
<use x="352.013672" xlink:href="#h"/>
<use x="413.292969" xlink:href="#k"/>
</g>
</g>
<path d="m430.49 475.42v35.285q0 2.4 2.4 2.4h7.7425q2.4 0 2.4-2.4v-35.285q0-2.4-2.4-2.4h-7.7425q-2.4 0-2.4 2.4z" clip-path="url(#a)" fill="#fff" stroke="#fff"/>
<g clip-path="url(#a)">
<g transform="translate(434.56 475.42) rotate(90) scale(.08 -.08)">
<use xlink:href="#l"/>
<use x="60.818359" xlink:href="#d"/>
<use x="122.341797" xlink:href="#g"/>
<use x="163.439453" xlink:href="#j"/>
<use x="260.851562" xlink:href="#i"/>
<use x="288.634766" xlink:href="#f"/>
<use x="352.013672" xlink:href="#h"/>
<use x="413.292969" xlink:href="#k"/>
</g>
</g>
<path d="m526.95 475.42v35.285q0 2.4 2.4 2.4h7.7425q2.4 0 2.4-2.4v-35.285q0-2.4-2.4-2.4h-7.7425q-2.4 0-2.4 2.4z" clip-path="url(#a)" fill="#fff" stroke="#fff"/>
<g clip-path="url(#a)">
<g transform="translate(531.01 475.42) rotate(90) scale(.08 -.08)">
<use xlink:href="#l"/>
<use x="60.818359" xlink:href="#d"/>
<use x="122.341797" xlink:href="#g"/>
<use x="163.439453" xlink:href="#j"/>
<use x="260.851562" xlink:href="#i"/>
<use x="288.634766" xlink:href="#f"/>
<use x="352.013672" xlink:href="#h"/>
<use x="413.292969" xlink:href="#k"/>
</g>
</g>
<path d="m92.893 475.42v35.285q0 2.4 2.4 2.4h7.7425q2.4 0 2.4-2.4v-35.285q0-2.4-2.4-2.4h-7.7425q-2.4 0-2.4 2.4z" clip-path="url(#a)" fill="#fff" stroke="#fff"/>
<g clip-path="url(#a)">
<g transform="translate(96.957 475.42) rotate(90) scale(.08 -.08)">
<use xlink:href="#l"/>
<use x="60.818359" xlink:href="#d"/>
<use x="122.341797" xlink:href="#g"/>
<use x="163.439453" xlink:href="#j"/>
<use x="260.851562" xlink:href="#i"/>
<use x="288.634766" xlink:href="#f"/>
<use x="352.013672" xlink:href="#h"/>
<use x="413.292969" xlink:href="#k"/>
</g>
</g>
<path d="m141.12 475.42v35.285q0 2.4 2.4 2.4h7.7425q2.4 0 2.4-2.4v-35.285q0-2.4-2.4-2.4h-7.7425q-2.4 0-2.4 2.4z" clip-path="url(#a)" fill="#fff" stroke="#fff"/>
<g clip-path="url(#a)">
<g transform="translate(145.19 475.42) rotate(90) scale(.08 -.08)">
<use xlink:href="#l"/>
<use x="60.818359" xlink:href="#d"/>
<use x="122.341797" xlink:href="#g"/>
<use x="163.439453" xlink:href="#j"/>
<use x="260.851562" xlink:href="#i"/>
<use x="288.634766" xlink:href="#f"/>
<use x="352.013672" xlink:href="#h"/>
<use x="413.292969" xlink:href="#k"/>
</g>
</g>
<path d="m272.89 366.75 1.9194-5.2169q0.82869-2.2524-1.4237-3.0811l-7.2663-2.6734q-2.2524-0.82869-3.0811 1.4237l-1.9194 5.2169q-0.82869 2.2524 1.4237 3.0811l7.2663 2.6734q2.2524 0.82869 3.0811-1.4237z" clip-path="url(#a)" fill="#fff" stroke="#fff"/>
<g clip-path="url(#a)">
<defs>
<path id="ar" d="m44.391 34.188q3.1719-1.0781 6.1719-4.5938t6.0312-9.6719l10.016-19.922h-10.609l-9.3125 18.703q-3.625 7.3281-7.0156 9.7188t-9.25 2.3906h-10.75v-30.812h-9.8594v72.906h22.266q12.5 0 18.656-5.2344 6.1562-5.2188 6.1562-15.766 0-6.8906-3.2031-11.438-3.2031-4.5312-9.2969-6.2812zm-24.719 30.609v-25.875h12.406q7.125 0 10.766 3.2969t3.6406 9.6875-3.6406 9.6406-10.766 3.25z"/>
</defs>
<g transform="translate(269.08 365.35) rotate(-69.801) scale(.08 -.08)">
<use xlink:href="#ar"/>
</g>
</g>
<path d="m285.81 359.45v5.055q0 2.4 2.4 2.4h7.7425q2.4 0 2.4-2.4v-5.055q0-2.4-2.4-2.4h-7.7425q-2.4 0-2.4 2.4z" clip-path="url(#a)" fill="#fff" stroke="#fff"/>
<g clip-path="url(#a)">
<defs>
<path id="at" d="m9.8125 72.906h46.094v-8.3125h-36.234v-21.578h34.719v-8.2969h-34.719v-26.422h37.109v-8.2969h-46.969z"/>
</defs>
<g transform="translate(289.87 359.45) rotate(90) scale(.08 -.08)">
<use xlink:href="#at"/>
</g>
</g>
<path d="m309.34 361.52 1.9289 5.2427q0.82869 2.2524 3.0811 1.4237l7.2663-2.6734q2.2524-0.82869 1.4237-3.0811l-1.9289-5.2427q-0.82869-2.2524-3.0811-1.4237l-7.2663 2.6734q-2.2524 0.82869-1.4237 3.0811z" clip-path="url(#a)" fill="#fff" stroke="#fff"/>
<g clip-path="url(#a)">
<defs>
<path id="au" d="m64.406 67.281v-10.391q-4.9844 4.6406-10.625 6.9219-5.6406 2.2969-11.984 2.2969-12.5 0-19.141-7.6406t-6.6406-22.094q0-14.406 6.6406-22.047t19.141-7.6406q6.3438 0 11.984 2.2969t10.625 6.9375v-10.312q-5.1719-3.5156-10.969-5.2812-5.7812-1.75-12.219-1.75-16.562 0-26.094 10.125-9.5156 10.141-9.5156 27.672 0 17.578 9.5156 27.703 9.5312 10.141 26.094 10.141 6.5312 0 12.312-1.7344 5.7969-1.7344 10.875-5.2031z"/>
</defs>
<g transform="translate(313.16 360.12) rotate(69.801) scale(.08 -.08)">
<use xlink:href="#au"/>
</g>
</g>
<path d="m237.58 475.42v35.285q0 2.4 2.4 2.4h7.7425q2.4 0 2.4-2.4v-35.285q0-2.4-2.4-2.4h-7.7425q-2.4 0-2.4 2.4z" clip-path="url(#a)" fill="#fff" stroke="#fff"/>
<g clip-path="url(#a)">
<g transform="translate(241.64 475.42) rotate(90) scale(.08 -.08)">
<use xlink:href="#l"/>
<use x="60.818359" xlink:href="#d"/>
<use x="122.341797" xlink:href="#g"/>
<use x="163.439453" xlink:href="#j"/>
<use x="260.851562" xlink:href="#i"/>
<use x="288.634766" xlink:href="#f"/>
<use x="352.013672" xlink:href="#h"/>
<use x="413.292969" xlink:href="#k"/>
</g>
</g>
<path d="m285.81 475.42v35.285q0 2.4 2.4 2.4h7.7425q2.4 0 2.4-2.4v-35.285q0-2.4-2.4-2.4h-7.7425q-2.4 0-2.4 2.4z" clip-path="url(#a)" fill="#fff" stroke="#fff"/>
<g clip-path="url(#a)">
<g transform="translate(289.87 475.42) rotate(90) scale(.08 -.08)">
<use xlink:href="#l"/>
<use x="60.818359" xlink:href="#d"/>
<use x="122.341797" xlink:href="#g"/>
<use x="163.439453" xlink:href="#j"/>
<use x="260.851562" xlink:href="#i"/>
<use x="288.634766" xlink:href="#f"/>
<use x="352.013672" xlink:href="#h"/>
<use x="413.292969" xlink:href="#k"/>
</g>
</g>
<path d="m334.03 475.42v35.285q0 2.4 2.4 2.4h7.7425q2.4 0 2.4-2.4v-35.285q0-2.4-2.4-2.4h-7.7425q-2.4 0-2.4 2.4z" clip-path="url(#a)" fill="#fff" stroke="#fff"/>
<g clip-path="url(#a)">
<g transform="translate(338.1 475.42) rotate(90) scale(.08 -.08)">
<use xlink:href="#l"/>
<use x="60.818359" xlink:href="#d"/>
<use x="122.341797" xlink:href="#g"/>
<use x="163.439453" xlink:href="#j"/>
<use x="260.851562" xlink:href="#i"/>
<use x="288.634766" xlink:href="#f"/>
<use x="352.013672" xlink:href="#h"/>
<use x="413.292969" xlink:href="#k"/>
</g>
</g>
<path d="m44.665 475.42v35.285q0 2.4 2.4 2.4h7.7425q2.4 0 2.4-2.4v-35.285q0-2.4-2.4-2.4h-7.7425q-2.4 0-2.4 2.4z" clip-path="url(#a)" fill="#fff" stroke="#fff"/>
<g clip-path="url(#a)">
<g transform="translate(48.729 475.42) rotate(90) scale(.08 -.08)">
<use xlink:href="#l"/>
<use x="60.818359" xlink:href="#d"/>
<use x="122.341797" xlink:href="#g"/>
<use x="163.439453" xlink:href="#j"/>
<use x="260.851562" xlink:href="#i"/>
<use x="288.634766" xlink:href="#f"/>
<use x="352.013672" xlink:href="#h"/>
<use x="413.292969" xlink:href="#k"/>
</g>
</g>
<path d="m382.26 475.42v35.285q0 2.4 2.4 2.4h7.7425q2.4 0 2.4-2.4v-35.285q0-2.4-2.4-2.4h-7.7425q-2.4 0-2.4 2.4z" clip-path="url(#a)" fill="#fff" stroke="#fff"/>
<g clip-path="url(#a)">
<g transform="translate(386.33 475.42) rotate(90) scale(.08 -.08)">
<use xlink:href="#l"/>
<use x="60.818359" xlink:href="#d"/>
<use x="122.341797" xlink:href="#g"/>
<use x="163.439453" xlink:href="#j"/>
<use x="260.851562" xlink:href="#i"/>
<use x="288.634766" xlink:href="#f"/>
<use x="352.013672" xlink:href="#h"/>
<use x="413.292969" xlink:href="#k"/>
</g>
</g>
<path d="m719.86 475.42v35.285q0 2.4 2.4 2.4h7.7425q2.4 0 2.4-2.4v-35.285q0-2.4-2.4-2.4h-7.7425q-2.4 0-2.4 2.4z" clip-path="url(#a)" fill="#fff" stroke="#fff"/>
<g clip-path="url(#a)">
<g transform="translate(723.92 475.42) rotate(90) scale(.08 -.08)">
<use xlink:href="#l"/>
<use x="60.818359" xlink:href="#d"/>
<use x="122.341797" xlink:href="#g"/>
<use x="163.439453" xlink:href="#j"/>
<use x="260.851562" xlink:href="#i"/>
<use x="288.634766" xlink:href="#f"/>
<use x="352.013672" xlink:href="#h"/>
<use x="413.292969" xlink:href="#k"/>
</g>
</g>
<path d="m816.32 475.42v35.285q0 2.4 2.4 2.4h7.7425q2.4 0 2.4-2.4v-35.285q0-2.4-2.4-2.4h-7.7425q-2.4 0-2.4 2.4z" clip-path="url(#a)" fill="#fff" stroke="#fff"/>
<g clip-path="url(#a)">
<g transform="translate(820.38 475.42) rotate(90) scale(.08 -.08)">
<use xlink:href="#l"/>
<use x="60.818359" xlink:href="#d"/>
<use x="122.341797" xlink:href="#g"/>
<use x="163.439453" xlink:href="#j"/>
<use x="260.851562" xlink:href="#i"/>
<use x="288.634766" xlink:href="#f"/>
<use x="352.013672" xlink:href="#h"/>
<use x="413.292969" xlink:href="#k"/>
</g>
</g>
<path d="m1057.5 475.42v35.285q0 2.4 2.4 2.4h7.7425q2.4 0 2.4-2.4v-35.285q0-2.4-2.4-2.4h-7.7425q-2.4 0-2.4 2.4z" clip-path="url(#a)" fill="#fff" stroke="#fff"/>
<g clip-path="url(#a)">
<g transform="translate(1061.5 475.42) rotate(90) scale(.08 -.08)">
<use xlink:href="#l"/>
<use x="60.818359" xlink:href="#d"/>
<use x="122.341797" xlink:href="#g"/>
<use x="163.439453" xlink:href="#j"/>
<use x="260.851562" xlink:href="#i"/>
<use x="288.634766" xlink:href="#f"/>
<use x="352.013672" xlink:href="#h"/>
<use x="413.292969" xlink:href="#k"/>
</g>
</g>
<defs>
<path id="b" d="m0 8.6603c2.2967 0 4.4997-0.9125 6.1237-2.5365 1.624-1.624 2.5365-3.827 2.5365-6.1237s-0.9125-4.4997-2.5365-6.1237c-1.624-1.624-3.827-2.5365-6.1237-2.5365s-4.4997 0.9125-6.1237 2.5365c-1.624 1.624-2.5365 3.827-2.5365 6.1237s0.9125 4.4997 2.5365 6.1237c1.624 1.624 3.827 2.5365 6.1237 2.5365z"/>
</defs>
<g clip-path="url(#a)">
<use x="50.936453" y="558.606763" fill="#ffffff" stroke="#ffffff" xlink:href="#b"/>
</g>
<g clip-path="url(#a)">
<use x="99.164727" y="558.606763" fill="#ffffff" stroke="#ffffff" xlink:href="#b"/>
</g>
<g clip-path="url(#a)">
<use x="147.393002" y="558.606763" fill="#ffffff" stroke="#ffffff" xlink:href="#b"/>
</g>
<g clip-path="url(#a)">
<use x="195.621276" y="558.606763" fill="#ffffff" stroke="#ffffff" xlink:href="#b"/>
</g>
<g clip-path="url(#a)">
<use x="243.84955" y="558.606763" fill="#ffffff" stroke="#ffffff" xlink:href="#b"/>
</g>
<g clip-path="url(#a)">
<use x="292.077825" y="558.606763" fill="#ffffff" stroke="#ffffff" xlink:href="#b"/>
</g>
<g clip-path="url(#a)">
<use x="340.306099" y="558.606763" fill="#ffffff" stroke="#ffffff" xlink:href="#b"/>
</g>
<g clip-path="url(#a)">
<use x="388.534373" y="558.606763" fill="#ffffff" stroke="#ffffff" xlink:href="#b"/>
</g>
<g clip-path="url(#a)">
<use x="436.762648" y="558.606763" fill="#ffffff" stroke="#ffffff" xlink:href="#b"/>
</g>
<g clip-path="url(#a)">
<use x="484.990922" y="558.606763" fill="#ffffff" stroke="#ffffff" xlink:href="#b"/>
</g>
<g clip-path="url(#a)">
<use x="533.219196" y="558.606763" fill="#ffffff" stroke="#ffffff" xlink:href="#b"/>
</g>
<g clip-path="url(#a)">
<use x="581.44747" y="558.606763" fill="#ffffff" stroke="#ffffff" xlink:href="#b"/>
</g>
<g clip-path="url(#a)">
<use x="629.675745" y="558.606763" fill="#ffffff" stroke="#ffffff" xlink:href="#b"/>
</g>
<g clip-path="url(#a)">
<use x="677.904019" y="558.606763" fill="#ffffff" stroke="#ffffff" xlink:href="#b"/>
</g>
<g clip-path="url(#a)">
<use x="726.132293" y="558.606763" fill="#ffffff" stroke="#ffffff" xlink:href="#b"/>
</g>
<g clip-path="url(#a)">
<use x="774.360568" y="558.606763" fill="#ffffff" stroke="#ffffff" xlink:href="#b"/>
</g>
<g clip-path="url(#a)">
<use x="822.588842" y="558.606763" fill="#ffffff" stroke="#ffffff" xlink:href="#b"/>
</g>
<g clip-path="url(#a)">
<use x="870.817116" y="558.606763" fill="#ffffff" stroke="#ffffff" xlink:href="#b"/>
</g>
<g clip-path="url(#a)">
<use x="919.045391" y="558.606763" fill="#ffffff" stroke="#ffffff" xlink:href="#b"/>
</g>
<g clip-path="url(#a)">
<use x="967.273665" y="558.606763" fill="#ffffff" stroke="#ffffff" xlink:href="#b"/>
</g>
<g clip-path="url(#a)">
<use x="1015.501939" y="558.606763" fill="#ffffff" stroke="#ffffff" xlink:href="#b"/>
</g>
<g clip-path="url(#a)">
<use x="1063.730214" y="558.606763" fill="#ffffff" stroke="#ffffff" xlink:href="#b"/>
</g>
<g clip-path="url(#a)">
<use x="553.623466" y="28.059904" fill="#ffffff" stroke="#ffffff" xlink:href="#b"/>
</g>
<g clip-path="url(#a)">
<use x="179.545184" y="163.527831" fill="#ffffff" stroke="#ffffff" xlink:href="#b"/>
</g>
<g clip-path="url(#a)">
<use x="195.621276" y="427.521631" fill="#ffffff" stroke="#ffffff" xlink:href="#b"/>
</g>
<g clip-path="url(#a)">
<use x="484.990922" y="296.4365" fill="#ffffff" stroke="#ffffff" xlink:href="#b"/>
</g>
<g clip-path="url(#a)">
<use x="484.990922" y="427.521631" fill="#ffffff" stroke="#ffffff" xlink:href="#b"/>
</g>
<g clip-path="url(#a)">
<use x="581.44747" y="427.521631" fill="#ffffff" stroke="#ffffff" xlink:href="#b"/>
</g>
<g clip-path="url(#a)">
<use x="541.257242" y="163.527831" fill="#ffffff" stroke="#ffffff" xlink:href="#b"/>
</g>
<g clip-path="url(#a)">
<use x="517.143105" y="163.527831" fill="#ffffff" stroke="#ffffff" xlink:href="#b"/>
</g>
<g clip-path="url(#a)">
<use x="661.827928" y="296.4365" fill="#ffffff" stroke="#ffffff" xlink:href="#b"/>
</g>
<g clip-path="url(#a)">
<use x="919.045391" y="427.521631" fill="#ffffff" stroke="#ffffff" xlink:href="#b"/>
</g>
<g clip-path="url(#a)">
<use x="693.980111" y="163.527831" fill="#ffffff" stroke="#ffffff" xlink:href="#b"/>
</g>
<g clip-path="url(#a)">
<use x="967.273665" y="296.4365" fill="#ffffff" stroke="#ffffff" xlink:href="#b"/>
</g>
<g clip-path="url(#a)">
<use x="1015.501939" y="427.521631" fill="#ffffff" stroke="#ffffff" xlink:href="#b"/>
</g>
<g clip-path="url(#a)">
<use x="967.273665" y="427.521631" fill="#ffffff" stroke="#ffffff" xlink:href="#b"/>
</g>
<g clip-path="url(#a)">
<use x="870.817116" y="427.521631" fill="#ffffff" stroke="#ffffff" xlink:href="#b"/>
</g>
<g clip-path="url(#a)">
<use x="436.762648" y="296.4365" fill="#ffffff" stroke="#ffffff" xlink:href="#b"/>
</g>
<g clip-path="url(#a)">
<use x="629.675745" y="427.521631" fill="#ffffff" stroke="#ffffff" xlink:href="#b"/>
</g>
<g clip-path="url(#a)">
<use x="388.534373" y="296.4365" fill="#ffffff" stroke="#ffffff" xlink:href="#b"/>
</g>
<g clip-path="url(#a)">
<use x="677.904019" y="427.521631" fill="#ffffff" stroke="#ffffff" xlink:href="#b"/>
</g>
<g clip-path="url(#a)">
<use x="436.762648" y="427.521631" fill="#ffffff" stroke="#ffffff" xlink:href="#b"/>
</g>
<g clip-path="url(#a)">
<use x="533.219196" y="427.521631" fill="#ffffff" stroke="#ffffff" xlink:href="#b"/>
</g>
<g clip-path="url(#a)">
<use x="99.164727" y="427.521631" fill="#ffffff" stroke="#ffffff" xlink:href="#b"/>
</g>
<g clip-path="url(#a)">
<use x="147.393002" y="427.521631" fill="#ffffff" stroke="#ffffff" xlink:href="#b"/>
</g>
<g clip-path="url(#a)">
<use x="292.077825" y="296.4365" fill="#ffffff" stroke="#ffffff" xlink:href="#b"/>
</g>
<g clip-path="url(#a)">
<use x="243.84955" y="427.521631" fill="#ffffff" stroke="#ffffff" xlink:href="#b"/>
</g>
<g clip-path="url(#a)">
<use x="292.077825" y="427.521631" fill="#ffffff" stroke="#ffffff" xlink:href="#b"/>
</g>
<g clip-path="url(#a)">
<use x="340.306099" y="427.521631" fill="#ffffff" stroke="#ffffff" xlink:href="#b"/>
</g>
<g clip-path="url(#a)">
<use x="50.936453" y="427.521631" fill="#ffffff" stroke="#ffffff" xlink:href="#b"/>
</g>
<g clip-path="url(#a)">
<use x="388.534373" y="427.521631" fill="#ffffff" stroke="#ffffff" xlink:href="#b"/>
</g>
<g clip-path="url(#a)">
<use x="726.132293" y="427.521631" fill="#ffffff" stroke="#ffffff" xlink:href="#b"/>
</g>
<g clip-path="url(#a)">
<use x="822.588842" y="427.521631" fill="#ffffff" stroke="#ffffff" xlink:href="#b"/>
</g>
<g clip-path="url(#a)">
<use x="1063.730214" y="427.521631" fill="#ffffff" stroke="#ffffff" xlink:href="#b"/>
</g>
<g clip-path="url(#a)">
<defs>
<path id="av" d="m11.719 51.703h10.297v-12.391h-10.297zm0-39.297h10.297v-8.4062l-8-15.625h-6.2969l4 15.625z"/>
</defs>
<g transform="translate(49.252 561.37) scale(.1 -.1)">
<use xlink:href="#av"/>
</g>
</g>
<g clip-path="url(#a)">
<defs>
<path id="p" d="m44.281 53.078v-8.5q-3.7969 1.9531-7.9062 2.9219-4.0938 0.98438-8.5 0.98438-6.6875 0-10.031-2.0469t-3.3438-6.1562q0-3.125 2.3906-4.9062t9.625-3.3906l3.0781-0.6875q9.5625-2.0469 13.594-5.7812t4.0312-10.422q0-7.625-6.0312-12.078-6.0312-4.4375-16.578-4.4375-4.3906 0-9.1562 0.85938t-10.031 2.5625v9.2812q4.9844-2.5938 9.8125-3.8906 4.8281-1.2812 9.5781-1.2812 6.3438 0 9.75 2.1719 3.4219 2.1719 3.4219 6.125 0 3.6562-2.4688 5.6094-2.4531 1.9531-10.812 3.7656l-3.125 0.73438q-8.3438 1.75-12.062 5.3906-3.7031 3.6406-3.7031 9.9844 0 7.7188 5.4688 11.906 5.4688 4.2031 15.531 4.2031 4.9688 0 9.3594-0.73438 4.4062-0.71875 8.1094-2.1875z"/>
</defs>
<g transform="translate(92.094 561.37) scale(.1 -.1)">
<use xlink:href="#p"/>
<use x="52.099609" xlink:href="#i"/>
<use x="79.882812" xlink:href="#d"/>
</g>
</g>
<g clip-path="url(#a)">
<defs>
<path id="u" d="m45.406 27.984q0 9.7656-4.0312 15.125-4.0156 5.375-11.297 5.375-7.2188 0-11.25-5.375-4.0312-5.3594-4.0312-15.125 0-9.7188 4.0312-15.094t11.25-5.375q7.2812 0 11.297 5.375 4.0312 5.375 4.0312 15.094zm8.9844-21.203q0-13.953-6.2031-20.766-6.1875-6.8125-18.984-6.8125-4.7344 0-8.9375 0.70312t-8.1562 2.1719v8.7344q3.9531-2.1406 7.8125-3.1562 3.8594-1.0312 7.8594-1.0312 8.8438 0 13.234 4.6094t4.3906 13.938v4.4531q-2.7812-4.8438-7.125-7.2344t-10.406-2.3906q-10.047 0-16.203 7.6562-6.1562 7.6719-6.1562 20.328 0 12.688 6.1562 20.344 6.1562 7.6719 16.203 7.6719 6.0625 0 10.406-2.3906t7.125-7.2188v8.2969h8.9844z"/>
<path id="t" d="m54.891 33.016v-33.016h-8.9844v32.719q0 7.7656-3.0312 11.609-3.0312 3.8594-9.0781 3.8594-7.2812 0-11.484-4.6406-4.2031-4.625-4.2031-12.641v-30.906h-9.0312v75.984h9.0312v-29.797q3.2344 4.9375 7.5938 7.375 4.375 2.4375 10.094 2.4375 9.4219 0 14.25-5.8281 4.8438-5.8281 4.8438-17.156z"/>
<path id="aw" d="m30.609 48.391q-7.2188 0-11.422-5.6406t-4.2031-15.453 4.1719-15.453q4.1875-5.6406 11.453-5.6406 7.1875 0 11.375 5.6562 4.2031 5.6719 4.2031 15.438 0 9.7188-4.2031 15.406-4.1875 5.6875-11.375 5.6875zm0 7.6094q11.719 0 18.406-7.625 6.7031-7.6094 6.7031-21.078 0-13.422-6.7031-21.078-6.6875-7.6406-18.406-7.6406-11.766 0-18.438 7.6406-6.6562 7.6562-6.6562 21.078 0 13.469 6.6562 21.078 6.6719 7.625 18.438 7.625zm4.6094 19.781h9.9062v-9.8594h-9.9062zm-19.094 0h9.9062v-9.8594h-9.9062z"/>
</defs>
<g transform="translate(126.61 561.37) scale(.1 -.1)">
<use xlink:href="#u"/>
<use x="63.476562" xlink:href="#d"/>
<use x="125" xlink:href="#t"/>
<use x="188.378906" xlink:href="#aw"/>
<use x="249.560547" xlink:href="#g"/>
<use x="290.642578" xlink:href="#d"/>
<use x="352.166016" xlink:href="#f"/>
</g>
</g>
<g clip-path="url(#a)">
<defs>
<path id="ah" d="m5.5156 54.688h42.672v-8.2031l-33.781-39.312h33.781v-7.1719h-43.891v8.2031l33.797 39.312h-32.578z"/>
<path id="an" d="m4.2031 54.688h8.9844l11.234-42.672 11.172 42.672h10.594l11.234-42.672 11.188 42.672h8.9844l-14.312-54.688h-10.594l-11.766 44.828-11.812-44.828h-10.609z"/>
</defs>
<g transform="translate(183.79 561.37) scale(.1 -.1)">
<use xlink:href="#ah"/>
<use x="52.490234" xlink:href="#an"/>
<use x="134.277344" xlink:href="#h"/>
<use x="195.556641" xlink:href="#g"/>
</g>
</g>
<g clip-path="url(#a)">
<defs>
<path id="ao" d="m8.5 21.578v33.109h8.9844v-32.766q0-7.7656 3.0156-11.656 3.0312-3.875 9.0938-3.875 7.2656 0 11.484 4.6406 4.2344 4.6406 4.2344 12.656v31h8.9844v-54.688h-8.9844v8.4062q-3.2656-4.9844-7.5938-7.4062-4.3125-2.4219-10.031-2.4219-9.4219 0-14.312 5.8594-4.875 5.8594-4.875 17.141z"/>
</defs>
<g transform="translate(238.06 561.37) scale(.1 -.1)">
<use xlink:href="#ah"/>
<use x="52.490234" xlink:href="#ao"/>
</g>
</g>
<g clip-path="url(#a)">
<defs>
<path id="v" d="m45.406 46.391v29.594h8.9844v-75.984h-8.9844v8.2031q-2.8281-4.875-7.1562-7.25-4.3125-2.375-10.375-2.375-9.9062 0-16.141 7.9062-6.2188 7.9219-6.2188 20.812t6.2188 20.797q6.2344 7.9062 16.141 7.9062 6.0625 0 10.375-2.375 4.3281-2.3594 7.1562-7.2344zm-30.609-19.094q0-9.9062 4.0781-15.547t11.203-5.6406 11.219 5.6406q4.1094 5.6406 4.1094 15.547t-4.1094 15.547q-4.0938 5.6406-11.219 5.6406t-11.203-5.6406-4.0781-15.547z"/>
</defs>
<g transform="translate(282.66 561.37) scale(.1 -.1)">
<use xlink:href="#v"/>
<use x="63.476562" xlink:href="#d"/>
<use x="125" xlink:href="#f"/>
</g>
</g>
<g clip-path="url(#a)">
<defs>
<path id="as" d="m9.8125 72.906h9.8594v-30.812l32.719 30.812h12.703l-36.188-33.984 38.766-38.922h-12.984l-35.016 35.109v-35.109h-9.8594z"/>
<path id="ai" d="m30.609 48.391q-7.2188 0-11.422-5.6406t-4.2031-15.453 4.1719-15.453q4.1875-5.6406 11.453-5.6406 7.1875 0 11.375 5.6562 4.2031 5.6719 4.2031 15.438 0 9.7188-4.2031 15.406-4.1875 5.6875-11.375 5.6875zm0 7.6094q11.719 0 18.406-7.625 6.7031-7.6094 6.7031-21.078 0-13.422-6.7031-21.078-6.6875-7.6406-18.406-7.6406-11.766 0-18.438 7.6406-6.6562 7.6562-6.6562 21.078 0 13.469 6.6562 21.078 6.6719 7.625 18.438 7.625z"/>
<path id="ax" d="m18.109 8.2031v-29h-9.0312v75.484h9.0312v-8.2969q2.8438 4.875 7.1562 7.2344 4.3281 2.375 10.328 2.375 9.9688 0 16.188-7.9062 6.2344-7.9062 6.2344-20.797t-6.2344-20.812q-6.2188-7.9062-16.188-7.9062-6 0-10.328 2.375-4.3125 2.375-7.1562 7.25zm30.578 19.094q0 9.9062-4.0781 15.547t-11.203 5.6406q-7.1406 0-11.219-5.6406t-4.0781-15.547 4.0781-15.547 11.219-5.6406q7.125 0 11.203 5.6406t4.0781 15.547z"/>
<path id="aj" d="m37.109 75.984v-7.4844h-8.5938q-4.8281 0-6.7188-1.9531-1.875-1.9531-1.875-7.0312v-4.8281h14.797v-6.9844h-14.797v-47.703h-9.0312v47.703h-8.5938v6.9844h8.5938v3.8125q0 9.125 4.25 13.297 4.25 4.1875 13.469 4.1875z"/>
<path id="r" d="m48.781 52.594v-8.4062q-3.8125 2.1094-7.6406 3.1562t-7.7344 1.0469q-8.75 0-13.594-5.5469-4.8281-5.5312-4.8281-15.547t4.8281-15.562q4.8438-5.5312 13.594-5.5312 3.9062 0 7.7344 1.0469t7.6406 3.1562v-8.3125q-3.7656-1.75-7.7969-2.625-4.0156-0.89062-8.5625-0.89062-12.359 0-19.641 7.7656-7.2656 7.7656-7.2656 20.953 0 13.375 7.3438 21.031 7.3594 7.6719 20.156 7.6719 4.1406 0 8.0938-0.85938 3.9531-0.84375 7.6719-2.5469z"/>
</defs>
<g transform="translate(303.19 561.37) scale(.1 -.1)">
<use xlink:href="#as"/>
<use x="65.576172" xlink:href="#f"/>
<use x="128.955078" xlink:href="#ai"/>
<use x="190.136719" xlink:href="#g"/>
<use x="231.25" xlink:href="#ax"/>
<use x="294.726562" xlink:href="#d"/>
<use x="356.25" xlink:href="#k"/>
<use x="384.033203" xlink:href="#aj"/>
<use x="419.238281" xlink:href="#i"/>
<use x="447.021484" xlink:href="#p"/>
<use x="499.121094" xlink:href="#r"/>
<use x="554.101562" xlink:href="#t"/>
<use x="617.480469" xlink:href="#d"/>
<use x="679.003906" xlink:href="#f"/>
</g>
</g>
<g clip-path="url(#a)">
<defs>
<path id="ag" d="m11.719 12.406h10.297v-8.4062l-8-15.625h-6.2969l4 15.625z"/>
</defs>
<g transform="translate(386.95 561.37) scale(.1 -.1)">
<use xlink:href="#ag"/>
</g>
</g>
<g clip-path="url(#a)">
<g transform="translate(426.43 561.37) scale(.1 -.1)">
<use xlink:href="#p"/>
<use x="52.099609" xlink:href="#i"/>
<use x="79.882812" xlink:href="#f"/>
<use x="143.261719" xlink:href="#v"/>
</g>
</g>
<g clip-path="url(#a)">
<defs>
<path id="aq" d="m48.688 27.297q0 9.9062-4.0781 15.547t-11.203 5.6406q-7.1406 0-11.219-5.6406t-4.0781-15.547 4.0781-15.547 11.219-5.6406q7.125 0 11.203 5.6406t4.0781 15.547zm-30.578 19.094q2.8438 4.875 7.1562 7.2344 4.3281 2.375 10.328 2.375 9.9688 0 16.188-7.9062 6.2344-7.9062 6.2344-20.797t-6.2344-20.812q-6.2188-7.9062-16.188-7.9062-6 0-10.328 2.375-4.3125 2.375-7.1562 7.25v-8.2031h-9.0312v75.984h9.0312z"/>
</defs>
<g transform="translate(473.62 561.37) scale(.1 -.1)">
<use xlink:href="#h"/>
<use x="61.279297" xlink:href="#aq"/>
<use x="124.755859" xlink:href="#d"/>
<use x="186.279297" xlink:href="#g"/>
</g>
</g>
<g clip-path="url(#a)">
<defs>
<path id="ap" d="m9.0781 75.984h9.0312v-44.875l26.812 23.578h11.469l-29-25.578 30.234-29.109h-11.719l-27.797 26.703v-26.703h-9.0312z"/>
<path id="ab" d="m18.312 70.219v-15.531h18.5v-6.9844h-18.5v-29.688q0-6.6875 1.8281-8.5938t7.4531-1.9062h9.2188v-7.5156h-9.2188q-10.406 0-14.359 3.875-3.9531 3.8906-3.9531 14.141v29.688h-6.5938v6.9844h6.5938v15.531z"/>
</defs>
<g transform="translate(501.17 561.37) scale(.1 -.1)">
<use xlink:href="#p"/>
<use x="52.099609" xlink:href="#r"/>
<use x="107.080078" xlink:href="#t"/>
<use x="170.458984" xlink:href="#j"/>
<use x="267.871094" xlink:href="#h"/>
<use x="329.150391" xlink:href="#r"/>
<use x="384.130859" xlink:href="#ap"/>
<use x="442.041016" xlink:href="#t"/>
<use x="505.419922" xlink:href="#h"/>
<use x="566.699219" xlink:href="#aj"/>
<use x="601.888672" xlink:href="#ab"/>
</g>
</g>
<g clip-path="url(#a)">
<g transform="translate(571.94 561.37) scale(.1 -.1)">
<use xlink:href="#ao"/>
<use x="63.378906" xlink:href="#f"/>
<use x="126.757812" xlink:href="#v"/>
</g>
</g>
<g clip-path="url(#a)">
<g transform="translate(611.04 561.37) scale(.1 -.1)">
<use xlink:href="#an"/>
<use x="81.787109" xlink:href="#d"/>
<use x="143.310547" xlink:href="#g"/>
<use x="184.408203" xlink:href="#v"/>
<use x="247.884766" xlink:href="#d"/>
<use x="309.408203" xlink:href="#f"/>
</g>
</g>
<g clip-path="url(#a)">
<g transform="translate(664.18 561.37) scale(.1 -.1)">
<use xlink:href="#aj"/>
<use x="35.205078" xlink:href="#g"/>
<use x="76.318359" xlink:href="#i"/>
<use x="104.101562" xlink:href="#p"/>
<use x="156.201172" xlink:href="#r"/>
<use x="211.181641" xlink:href="#t"/>
</g>
</g>
<g clip-path="url(#a)">
<g transform="translate(724.54 561.37) scale(.1 -.1)">
<use xlink:href="#ag"/>
</g>
</g>
<g clip-path="url(#a)">
<g transform="translate(747.19 561.37) scale(.1 -.1)">
<use xlink:href="#u"/>
<use x="63.476562" xlink:href="#d"/>
<use x="125" xlink:href="#ab"/>
<use x="164.208984" xlink:href="#g"/>
<use x="205.291016" xlink:href="#ai"/>
<use x="266.472656" xlink:href="#r"/>
<use x="321.453125" xlink:href="#ap"/>
<use x="379.363281" xlink:href="#f"/>
<use x="442.742188" xlink:href="#d"/>
<use x="504.265625" xlink:href="#ab"/>
</g>
</g>
<g clip-path="url(#a)">
<g transform="translate(821 561.37) scale(.1 -.1)">
<use xlink:href="#ag"/>
</g>
</g>
<g clip-path="url(#a)">
<g transform="translate(847.79 561.37) scale(.1 -.1)">
<use xlink:href="#j"/>
<use x="97.412109" xlink:href="#h"/>
<use x="158.691406" xlink:href="#g"/>
<use x="199.804688" xlink:href="#i"/>
<use x="227.587891" xlink:href="#f"/>
<use x="290.966797" xlink:href="#i"/>
<use x="318.75" xlink:href="#d"/>
<use x="380.273438" xlink:href="#g"/>
<use x="421.386719" xlink:href="#ab"/>
</g>
</g>
<g clip-path="url(#a)">
<g transform="translate(907.68 561.37) scale(.1 -.1)">
<use xlink:href="#ai"/>
<use x="61.181641" xlink:href="#v"/>
<use x="124.658203" xlink:href="#d"/>
<use x="186.181641" xlink:href="#g"/>
</g>
</g>
<g clip-path="url(#a)">
<g transform="translate(945.1 561.37) scale(.1 -.1)">
<use xlink:href="#u"/>
<use x="63.476562" xlink:href="#d"/>
<use x="125" xlink:href="#p"/>
<use x="177.099609" xlink:href="#h"/>
<use x="238.378906" xlink:href="#k"/>
<use x="266.162109" xlink:href="#ah"/>
<use x="318.652344" xlink:href="#d"/>
<use x="380.175781" xlink:href="#f"/>
</g>
</g>
<g clip-path="url(#a)">
<g transform="translate(991.55 561.37) scale(.1 -.1)">
<use xlink:href="#u"/>
<use x="63.476562" xlink:href="#d"/>
<use x="125" xlink:href="#u"/>
<use x="188.476562" xlink:href="#d"/>
<use x="250" xlink:href="#p"/>
<use x="302.099609" xlink:href="#p"/>
<use x="354.199219" xlink:href="#d"/>
<use x="415.722656" xlink:href="#f"/>
</g>
</g>
<g clip-path="url(#a)">
<defs>
<path id="e" d="m10.688 12.406h10.312v-12.406h-10.312z"/>
</defs>
<g transform="translate(1062.1 561.37) scale(.1 -.1)">
<use xlink:href="#e"/>
</g>
</g>
<g clip-path="url(#a)">
<defs>
<path id="c" d="m12.406 8.2969h16.109v55.625l-17.531-3.5156v8.9844l17.438 3.5156h9.8594v-64.609h16.109v-8.2969h-41.984z"/>
</defs>
<g transform="translate(545.67 30.819) scale(.1 -.1)">
<use xlink:href="#c"/>
<use x="63.623047" xlink:href="#e"/>
<use x="95.410156" xlink:href="#c"/>
</g>
</g>
<g clip-path="url(#a)">
<defs>
<path id="m" d="m40.578 39.312q7.0781-1.5156 11.047-6.3125 3.9844-4.7812 3.9844-11.812 0-10.781-7.4219-16.703-7.4219-5.9062-21.094-5.9062-4.5781 0-9.4375 0.90625t-10.031 2.7188v9.5156q4.0938-2.3906 8.9688-3.6094 4.8906-1.2188 10.219-1.2188 9.2656 0 14.125 3.6562t4.8594 10.641q0 6.4531-4.5156 10.078-4.5156 3.6406-12.562 3.6406h-8.5v8.1094h8.8906q7.2656 0 11.125 2.9062t3.8594 8.375q0 5.6094-3.9844 8.6094-3.9688 3.0156-11.391 3.0156-4.0625 0-8.7031-0.89062-4.6406-0.875-10.203-2.7188v8.7812q5.625 1.5625 10.531 2.3438t9.25 0.78125q11.234 0 17.766-5.1094 6.5469-5.0938 6.5469-13.781 0-6.0625-3.4688-10.234t-9.8594-5.7812z"/>
</defs>
<g transform="translate(171.59 166.29) scale(.1 -.1)">
<use xlink:href="#c"/>
<use x="63.623047" xlink:href="#e"/>
<use x="95.410156" xlink:href="#m"/>
</g>
</g>
<g clip-path="url(#a)">
<defs>
<path id="aa" d="m37.797 64.312-24.906-38.922h24.906zm-2.5938 8.5938h12.406v-47.516h10.406v-8.2031h-10.406v-17.188h-9.8125v17.188h-32.906v9.5156z"/>
</defs>
<g transform="translate(187.67 430.28) scale(.1 -.1)">
<use xlink:href="#c"/>
<use x="63.623047" xlink:href="#e"/>
<use x="95.410156" xlink:href="#aa"/>
</g>
</g>
<g clip-path="url(#a)">
<defs>
<path id="ae" d="m33.016 40.375q-6.6406 0-10.531-4.5469-3.875-4.5312-3.875-12.438 0-7.8594 3.875-12.438 3.8906-4.5625 10.531-4.5625t10.516 4.5625q3.875 4.5781 3.875 12.438 0 7.9062-3.875 12.438-3.875 4.5469-10.516 4.5469zm19.578 30.922v-8.9844q-3.7188 1.75-7.5 2.6719-3.7812 0.9375-7.5 0.9375-9.7656 0-14.922-6.5938-5.1406-6.5938-5.875-19.922 2.875 4.25 7.2188 6.5156 4.3594 2.2656 9.5781 2.2656 10.984 0 17.359-6.6719 6.375-6.6562 6.375-18.125 0-11.234-6.6406-18.031-6.6406-6.7812-17.672-6.7812-12.656 0-19.344 9.6875-6.6875 9.7031-6.6875 28.109 0 17.281 8.2031 27.562t22.016 10.281q3.7188 0 7.5-0.73438t7.8906-2.1875z"/>
</defs>
<g transform="translate(477.04 299.2) scale(.1 -.1)">
<use xlink:href="#c"/>
<use x="63.623047" xlink:href="#e"/>
<use x="95.410156" xlink:href="#ae"/>
</g>
</g>
<g clip-path="url(#a)">
<defs>
<path id="z" d="m8.2031 72.906h46.875v-4.2031l-26.469-68.703h-10.297l24.906 64.594h-35.016z"/>
</defs>
<g transform="translate(477.04 430.28) scale(.1 -.1)">
<use xlink:href="#c"/>
<use x="63.623047" xlink:href="#e"/>
<use x="95.410156" xlink:href="#z"/>
</g>
</g>
<g clip-path="url(#a)">
<defs>
<path id="ad" d="m31.781 34.625q-7.0312 0-11.062-3.7656-4.0156-3.7656-4.0156-10.344 0-6.5938 4.0156-10.359 4.0312-3.7656 11.062-3.7656t11.078 3.7812q4.0625 3.7969 4.0625 10.344 0 6.5781-4.0312 10.344-4.0156 3.7656-11.109 3.7656zm-9.8594 4.1875q-6.3438 1.5625-9.8906 5.9062-3.5312 4.3594-3.5312 10.609 0 8.7344 6.2188 13.812 6.2344 5.0781 17.062 5.0781 10.891 0 17.094-5.0781t6.2031-13.812q0-6.25-3.5469-10.609-3.5312-4.3438-9.8281-5.9062 7.125-1.6562 11.094-6.5 3.9844-4.8281 3.9844-11.797 0-10.609-6.4688-16.281-6.4688-5.6562-18.531-5.6562-12.047 0-18.531 5.6562-6.4688 5.6719-6.4688 16.281 0 6.9688 4 11.797 4.0156 4.8438 11.141 6.5zm-3.6094 15.578q0-5.6562 3.5312-8.8281 3.5469-3.1719 9.9375-3.1719 6.3594 0 9.9375 3.1719 3.5938 3.1719 3.5938 8.8281 0 5.6719-3.5938 8.8438-3.5781 3.1719-9.9375 3.1719-6.3906 0-9.9375-3.1719-3.5312-3.1719-3.5312-8.8438z"/>
</defs>
<g transform="translate(573.5 430.28) scale(.1 -.1)">
<use xlink:href="#c"/>
<use x="63.623047" xlink:href="#e"/>
<use x="95.410156" xlink:href="#ad"/>
</g>
</g>
<g clip-path="url(#a)">
<defs>
<path id="ac" d="m10.984 1.5156v8.9844q3.7188-1.7656 7.5156-2.6875 3.8125-0.92188 7.4844-0.92188 9.7656 0 14.906 6.5625 5.1562 6.5625 5.8906 19.953-2.8281-4.2031-7.1875-6.4531-4.3438-2.25-9.6094-2.25-10.938 0-17.312 6.6094-6.375 6.625-6.375 18.109 0 11.219 6.6406 18 6.6406 6.7969 17.672 6.7969 12.656 0 19.312-9.7031 6.6719-9.6875 6.6719-28.141 0-17.234-8.1875-27.516-8.1719-10.281-21.984-10.281-3.7188 0-7.5312 0.73438-3.7969 0.73438-7.9062 2.2031zm19.625 30.906q6.6406 0 10.516 4.5312 3.8906 4.5469 3.8906 12.469 0 7.8594-3.8906 12.422-3.875 4.5625-10.516 4.5625t-10.516-4.5625-3.875-12.422q0-7.9219 3.875-12.469 3.875-4.5312 10.516-4.5312z"/>
</defs>
<g transform="translate(533.31 166.29) scale(.1 -.1)">
<use xlink:href="#c"/>
<use x="63.623047" xlink:href="#e"/>
<use x="95.410156" xlink:href="#ac"/>
</g>
</g>
<g clip-path="url(#a)">
<g transform="translate(506.01 166.29) scale(.1 -.1)">
<use xlink:href="#c"/>
<use x="63.623047" xlink:href="#e"/>
<use x="95.410156" xlink:href="#c"/>
<use x="159.033203" xlink:href="#c"/>
</g>
</g>
<g clip-path="url(#a)">
<g transform="translate(650.7 299.2) scale(.1 -.1)">
<use xlink:href="#c"/>
<use x="63.623047" xlink:href="#e"/>
<use x="95.410156" xlink:href="#c"/>
<use x="159.033203" xlink:href="#m"/>
</g>
</g>
<g clip-path="url(#a)">
<g transform="translate(907.91 430.28) scale(.1 -.1)">
<use xlink:href="#c"/>
<use x="63.623047" xlink:href="#e"/>
<use x="95.410156" xlink:href="#c"/>
<use x="159.033203" xlink:href="#aa"/>
</g>
</g>
<g clip-path="url(#a)">
<defs>
<path id="af" d="m10.797 72.906h38.719v-8.3125h-29.688v-17.859q2.1406 0.73438 4.2812 1.0938 2.1562 0.35938 4.3125 0.35938 12.203 0 19.328-6.6875 7.1406-6.6875 7.1406-18.109 0-11.766-7.3281-18.297-7.3281-6.5156-20.656-6.5156-4.5938 0-9.3594 0.78125-4.75 0.78125-9.8281 2.3438v9.9219q4.3906-2.3906 9.0781-3.5625t9.9062-1.1719q8.4531 0 13.375 4.4375 4.9375 4.4375 4.9375 12.062 0 7.6094-4.9375 12.047-4.9219 4.4531-13.375 4.4531-3.9531 0-7.8906-0.875-3.9219-0.875-8.0156-2.7344z"/>
</defs>
<g transform="translate(682.85 166.29) scale(.1 -.1)">
<use xlink:href="#c"/>
<use x="63.623047" xlink:href="#e"/>
<use x="95.410156" xlink:href="#c"/>
<use x="159.033203" xlink:href="#af"/>
</g>
</g>
<g clip-path="url(#a)">
<g transform="translate(956.14 299.2) scale(.1 -.1)">
<use xlink:href="#c"/>
<use x="63.623047" xlink:href="#e"/>
<use x="95.410156" xlink:href="#c"/>
<use x="159.033203" xlink:href="#z"/>
</g>
</g>
<g clip-path="url(#a)">
<g transform="translate(1004.4 430.28) scale(.1 -.1)">
<use xlink:href="#c"/>
<use x="63.623047" xlink:href="#e"/>
<use x="95.410156" xlink:href="#c"/>
<use x="159.033203" xlink:href="#ad"/>
</g>
</g>
<g clip-path="url(#a)">
<g transform="translate(956.14 430.28) scale(.1 -.1)">
<use xlink:href="#c"/>
<use x="63.623047" xlink:href="#e"/>
<use x="95.410156" xlink:href="#c"/>
<use x="159.033203" xlink:href="#ac"/>
</g>
</g>
<g clip-path="url(#a)">
<defs>
<path id="n" d="m19.188 8.2969h34.422v-8.2969h-46.281v8.2969q5.6094 5.8125 15.297 15.594 9.7031 9.7969 12.188 12.641 4.7344 5.3125 6.6094 9 1.8906 3.6875 1.8906 7.25 0 5.8125-4.0781 9.4688-4.0781 3.6719-10.625 3.6719-4.6406 0-9.7969-1.6094-5.1406-1.6094-11-4.8906v9.9688q5.9531 2.3906 11.125 3.6094 5.1875 1.2188 9.4844 1.2188 11.328 0 18.062-5.6719 6.7344-5.6562 6.7344-15.125 0-4.5-1.6875-8.5312-1.6719-4.0156-6.125-9.4844-1.2188-1.4219-7.7656-8.1875-6.5312-6.7656-18.453-18.922z"/>
<path id="am" d="m31.781 66.406q-7.6094 0-11.453-7.5-3.8281-7.4844-3.8281-22.531 0-14.984 3.8281-22.484 3.8438-7.5 11.453-7.5 7.6719 0 11.5 7.5 3.8438 7.5 3.8438 22.484 0 15.047-3.8438 22.531-3.8281 7.5-11.5 7.5zm0 7.8125q12.266 0 18.734-9.7031 6.4688-9.6875 6.4688-28.141 0-18.406-6.4688-28.109-6.4688-9.6875-18.734-9.6875-12.25 0-18.719 9.6875-6.4688 9.7031-6.4688 28.109 0 18.453 6.4688 28.141 6.4688 9.7031 18.719 9.7031z"/>
</defs>
<g transform="translate(859.68 430.28) scale(.1 -.1)">
<use xlink:href="#c"/>
<use x="63.623047" xlink:href="#e"/>
<use x="95.410156" xlink:href="#n"/>
<use x="159.033203" xlink:href="#am"/>
</g>
</g>
<g clip-path="url(#a)">
<g transform="translate(425.63 299.2) scale(.1 -.1)">
<use xlink:href="#c"/>
<use x="63.623047" xlink:href="#e"/>
<use x="95.410156" xlink:href="#n"/>
<use x="159.033203" xlink:href="#c"/>
</g>
</g>
<g clip-path="url(#a)">
<g transform="translate(618.54 430.28) scale(.1 -.1)">
<use xlink:href="#c"/>
<use x="63.623047" xlink:href="#e"/>
<use x="95.410156" xlink:href="#n"/>
<use x="159.033203" xlink:href="#n"/>
</g>
</g>
<g clip-path="url(#a)">
<g transform="translate(377.4 299.2) scale(.1 -.1)">
<use xlink:href="#c"/>
<use x="63.623047" xlink:href="#e"/>
<use x="95.410156" xlink:href="#n"/>
<use x="159.033203" xlink:href="#m"/>
</g>
</g>
<g clip-path="url(#a)">
<g transform="translate(666.77 430.28) scale(.1 -.1)">
<use xlink:href="#c"/>
<use x="63.623047" xlink:href="#e"/>
<use x="95.410156" xlink:href="#n"/>
<use x="159.033203" xlink:href="#aa"/>
</g>
</g>
<g clip-path="url(#a)">
<g transform="translate(425.63 430.28) scale(.1 -.1)">
<use xlink:href="#c"/>
<use x="63.623047" xlink:href="#e"/>
<use x="95.410156" xlink:href="#n"/>
<use x="159.033203" xlink:href="#af"/>
</g>
</g>
<g clip-path="url(#a)">
<g transform="translate(522.09 430.28) scale(.1 -.1)">
<use xlink:href="#c"/>
<use x="63.623047" xlink:href="#e"/>
<use x="95.410156" xlink:href="#n"/>
<use x="159.033203" xlink:href="#ae"/>
</g>
</g>
<g clip-path="url(#a)">
<g transform="translate(88.032 430.28) scale(.1 -.1)">
<use xlink:href="#c"/>
<use x="63.623047" xlink:href="#e"/>
<use x="95.410156" xlink:href="#n"/>
<use x="159.033203" xlink:href="#z"/>
</g>
</g>
<g clip-path="url(#a)">
<g transform="translate(136.26 430.28) scale(.1 -.1)">
<use xlink:href="#c"/>
<use x="63.623047" xlink:href="#e"/>
<use x="95.410156" xlink:href="#n"/>
<use x="159.033203" xlink:href="#ad"/>
</g>
</g>
<g clip-path="url(#a)">
<g transform="translate(280.95 299.2) scale(.1 -.1)">
<use xlink:href="#c"/>
<use x="63.623047" xlink:href="#e"/>
<use x="95.410156" xlink:href="#n"/>
<use x="159.033203" xlink:href="#ac"/>
</g>
</g>
<g clip-path="url(#a)">
<g transform="translate(232.72 430.28) scale(.1 -.1)">
<use xlink:href="#c"/>
<use x="63.623047" xlink:href="#e"/>
<use x="95.410156" xlink:href="#m"/>
<use x="159.033203" xlink:href="#am"/>
</g>
</g>
<g clip-path="url(#a)">
<g transform="translate(280.95 430.28) scale(.1 -.1)">
<use xlink:href="#c"/>
<use x="63.623047" xlink:href="#e"/>
<use x="95.410156" xlink:href="#m"/>
<use x="159.033203" xlink:href="#c"/>
</g>
</g>
<g clip-path="url(#a)">
<g transform="translate(329.17 430.28) scale(.1 -.1)">
<use xlink:href="#c"/>
<use x="63.623047" xlink:href="#e"/>
<use x="95.410156" xlink:href="#m"/>
<use x="159.033203" xlink:href="#n"/>
</g>
</g>
<g clip-path="url(#a)">
<g transform="translate(39.804 430.28) scale(.1 -.1)">
<use xlink:href="#c"/>
<use x="63.623047" xlink:href="#e"/>
<use x="95.410156" xlink:href="#m"/>
<use x="159.033203" xlink:href="#m"/>
</g>
</g>
<g clip-path="url(#a)">
<g transform="translate(377.4 430.28) scale(.1 -.1)">
<use xlink:href="#c"/>
<use x="63.623047" xlink:href="#e"/>
<use x="95.410156" xlink:href="#m"/>
<use x="159.033203" xlink:href="#aa"/>
</g>
</g>
<g clip-path="url(#a)">
<g transform="translate(715 430.28) scale(.1 -.1)">
<use xlink:href="#c"/>
<use x="63.623047" xlink:href="#e"/>
<use x="95.410156" xlink:href="#m"/>
<use x="159.033203" xlink:href="#af"/>
</g>
</g>
<g clip-path="url(#a)">
<g transform="translate(811.46 430.28) scale(.1 -.1)">
<use xlink:href="#c"/>
<use x="63.623047" xlink:href="#e"/>
<use x="95.410156" xlink:href="#m"/>
<use x="159.033203" xlink:href="#ae"/>
</g>
</g>
<g clip-path="url(#a)">
<g transform="translate(1052.6 430.28) scale(.1 -.1)">
<use xlink:href="#c"/>
<use x="63.623047" xlink:href="#e"/>
<use x="95.410156" xlink:href="#m"/>
<use x="159.033203" xlink:href="#z"/>
</g>
</g>
<defs>
<clipPath id="a">
<rect width="1114.7" height="586.67"/>
</clipPath>
</defs>
</svg>
