<?xml version="1.0" encoding="UTF-8"?>
<!DOCTYPE svg  PUBLIC '-//W3C//DTD SVG 1.1//EN'  'http://www.w3.org/Graphics/SVG/1.1/DTD/svg11.dtd'>
<svg width="1317.3pt" height="693.33pt" version="1.1" viewBox="0 0 1317.3 693.33" xmlns="http://www.w3.org/2000/svg" xmlns:xlink="http://www.w3.org/1999/xlink">
<defs>
<style type="text/css">*{stroke-linecap:butt;stroke-linejoin:round;}</style>
</defs>
<path d="m0 693.33h1317.3v-693.33h-1317.3z" fill="#fff"/>
<g fill="none" stroke="#000">
<path d="m402.2 32.429-203.23 322.38" clip-path="url(#a)"/>
<path d="m402.2 32.429-6.9034 526.92" clip-path="url(#a)"/>
<path d="m402.2 32.429 264.92 110.08" clip-path="url(#a)"/>
<path d="m402.2 32.429-54.788 526.92" clip-path="url(#a)"/>
<path d="m198.97 354.81-114.92 102.97" clip-path="url(#a)"/>
<path d="m198.97 354.81-43.096 204.53" clip-path="url(#a)"/>
<path d="m198.97 354.81 4.7885 204.53" clip-path="url(#a)"/>
<path d="m198.97 354.81 52.673 204.53" clip-path="url(#a)"/>
<path d="m198.97 354.81 100.56 204.53" clip-path="url(#a)"/>
<path d="m395.3 559.34v101.56" clip-path="url(#a)"/>
<path d="m667.13 142.51-200 315.28" clip-path="url(#a)"/>
<path d="m667.13 142.51-128.17 416.84" clip-path="url(#a)"/>
<path d="m667.13 142.51-32.402 315.28" clip-path="url(#a)"/>
<path d="m667.13 142.51 87.31 315.28" clip-path="url(#a)"/>
<path d="m667.13 142.51 273.26 107.35" clip-path="url(#a)"/>
<path d="m467.13 457.78-23.942 101.56" clip-path="url(#a)"/>
<path d="m467.13 457.78 23.942 101.56" clip-path="url(#a)"/>
<path d="m538.95 559.34v101.56" clip-path="url(#a)"/>
<path d="m634.72 457.78-47.885 101.56" clip-path="url(#a)"/>
<path d="m634.72 457.78v101.56" clip-path="url(#a)"/>
<path d="m634.72 457.78 47.885 101.56" clip-path="url(#a)"/>
<path d="m754.44 457.78-23.942 101.56" clip-path="url(#a)"/>
<path d="m754.44 457.78 23.942 101.56" clip-path="url(#a)"/>
<path d="m940.39 249.86 169.19 104.96" clip-path="url(#a)"/>
<path d="m940.39 249.86-114.13 309.49" clip-path="url(#a)"/>
<path d="m940.39 249.86-66.241 309.49" clip-path="url(#a)"/>
<path d="m940.39 249.86-18.356 309.49" clip-path="url(#a)"/>
<path d="m940.39 249.86 29.529 309.49" clip-path="url(#a)"/>
<path d="m1109.6 354.81-91.779 204.53" clip-path="url(#a)"/>
<path d="m1109.6 354.81-19.952 102.97" clip-path="url(#a)"/>
<path d="m1109.6 354.81 51.875 204.53" clip-path="url(#a)"/>
<path d="m1109.6 354.81 99.76 204.53" clip-path="url(#a)"/>
<path d="m1109.6 354.81-187.55 204.53" clip-path="url(#a)" stroke-dasharray="3.7,1.6"/>
<path d="m1109.6 354.81 147.65 204.53" clip-path="url(#a)"/>
<path d="m1017.8 559.34v101.56" clip-path="url(#a)"/>
<path d="m1089.6 457.78-23.942 101.56" clip-path="url(#a)"/>
<path d="m1089.6 457.78 23.942 101.56" clip-path="url(#a)"/>
<path d="m1161.5 559.34v101.56" clip-path="url(#a)"/>
<path d="m1209.3 559.34v101.56" clip-path="url(#a)"/>
<path d="m1065.7 559.34v101.56" clip-path="url(#a)"/>
<path d="m1113.6 559.34v101.56" clip-path="url(#a)"/>
<path d="m826.26 559.34v101.56" clip-path="url(#a)"/>
<path d="m874.15 559.34v101.56" clip-path="url(#a)"/>
<path d="m922.03 559.34v101.56" clip-path="url(#a)"/>
<path d="m730.49 559.34v101.56" clip-path="url(#a)"/>
<path d="m778.38 559.34v101.56" clip-path="url(#a)"/>
<path d="m586.84 559.34v101.56" clip-path="url(#a)"/>
<path d="m634.72 559.34v101.56" clip-path="url(#a)"/>
<path d="m682.61 559.34v101.56" clip-path="url(#a)"/>
<path d="m443.18 559.34v101.56" clip-path="url(#a)"/>
<path d="m491.07 559.34v101.56" clip-path="url(#a)"/>
<path d="m84.048 457.78-23.942 101.56" clip-path="url(#a)"/>
<path d="m84.048 457.78 23.942 101.56" clip-path="url(#a)"/>
<path d="m155.88 559.34v101.56" clip-path="url(#a)"/>
<path d="m203.76 559.34v101.56" clip-path="url(#a)"/>
<path d="m251.65 559.34v101.56" clip-path="url(#a)"/>
<path d="m299.53 559.34v101.56" clip-path="url(#a)"/>
<path d="m60.105 559.34v101.56" clip-path="url(#a)"/>
<path d="m107.99 559.34v101.56" clip-path="url(#a)"/>
<path d="m347.41 559.34v101.56" clip-path="url(#a)"/>
<path d="m969.92 559.34v101.56" clip-path="url(#a)"/>
<path d="m1257.2 559.34v101.56" clip-path="url(#a)"/>
</g>
<path d="m304.29 199.51 3.2084-5.0894q1.2799-2.0302-0.75037-3.3101l-6.5497-4.1289q-2.0302-1.2799-3.3101 0.75037l-3.2084 5.0894q-1.2799 2.0302 0.75037 3.3101l6.5497 4.1289q2.0302 1.2799 3.3101-0.75037z" clip-path="url(#a)" fill="#fff" stroke="#fff"/>
<g clip-path="url(#a)">
<defs>
<path id="al" d="m9.8125 72.906h9.8594v-29.891h35.844v29.891h9.8594v-72.906h-9.8594v34.719h-35.844v-34.719h-9.8594z"/>
</defs>
<g transform="translate(300.85 197.34) rotate(-57.773) scale(.08 -.08)">
<use xlink:href="#al"/>
</g>
</g>
<path d="m404.99 298.2 0.058395-4.4571q0.031441-2.3998-2.3684-2.4312l-7.7418-0.10143q-2.3998-0.031441-2.4312 2.3684l-0.058395 4.4571q-0.031441 2.3998 2.3684 2.4312l7.7418 0.10143q2.3998 0.031441 2.4312-2.3684z" clip-path="url(#a)" fill="#fff" stroke="#fff"/>
<g clip-path="url(#a)">
<defs>
<path id="aq" d="m9.8125 72.906h9.8594v-64.609h35.5v-8.2969h-45.359z"/>
</defs>
<g transform="translate(400.93 298.14) rotate(-89.249) scale(.08 -.08)">
<use xlink:href="#aq"/>
</g>
</g>
<path d="m529.48 92.105 5.5557 2.3085q2.2163 0.9209 3.1372-1.2954l2.9709-7.1498q0.9209-2.2163-1.2954-3.1372l-5.5557-2.3085q-2.2163-0.9209-3.1372 1.2954l-2.9709 7.1498q-0.9209 2.2163 1.2954 3.1372z" clip-path="url(#a)" fill="#fff" stroke="#fff"/>
<g clip-path="url(#a)">
<g transform="translate(531.04 88.353) rotate(22.564) scale(.08 -.08)">
<use xlink:href="#al"/>
</g>
</g>
<path d="m380.74 299.45 0.60553-5.8236q0.24821-2.3871-2.1389-2.6353l-7.701-0.80074q-2.3871-0.24821-2.6353 2.1389l-0.60553 5.8236q-0.24821 2.3871 2.1389 2.6353l7.701 0.80074q2.3871 0.24821 2.6353-2.1389z" clip-path="url(#a)" fill="#fff" stroke="#fff"/>
<g clip-path="url(#a)">
<defs>
<path id="af" d="m8.6875 72.906h9.9219v-44.297q0-11.719 4.2344-16.875 4.25-5.1406 13.781-5.1406 9.4688 0 13.719 5.1406 4.25 5.1562 4.25 16.875v44.297h9.9062v-45.516q0-14.25-7.0625-21.531-7.0469-7.2812-20.812-7.2812-13.828 0-20.891 7.2812-7.0469 7.2812-7.0469 21.531z"/>
</defs>
<g transform="translate(376.7 299.03) rotate(-84.064) scale(.08 -.08)">
<use xlink:href="#af"/>
</g>
</g>
<path d="m143.66 412.79 4.0758-3.6519q1.7874-1.6016 0.18587-3.389l-5.1667-5.7664q-1.6016-1.7874-3.389-0.18587l-4.0758 3.6519q-1.7874 1.6016-0.18587 3.389l5.1667 5.7664q1.6016 1.7874 3.389 0.18587z" clip-path="url(#a)" fill="#fff" stroke="#fff"/>
<g clip-path="url(#a)">
<defs>
<path id="p" d="m34.188 63.188-13.391-36.281h26.812zm-5.5781 9.7188h11.188l27.781-72.906h-10.25l-6.6406 18.703h-32.859l-6.6406-18.703h-10.406z"/>
</defs>
<g transform="translate(140.95 409.77) rotate(-41.861) scale(.08 -.08)">
<use xlink:href="#p"/>
</g>
</g>
<path d="m183.09 460.62 0.94868-4.5024q0.49483-2.3484-1.8536-2.8433l-7.5761-1.5963q-2.3484-0.49483-2.8433 1.8536l-0.94868 4.5024q-0.49483 2.3484 1.8536 2.8433l7.5761 1.5963q2.3484 0.49483 2.8433-1.8536z" clip-path="url(#a)" fill="#fff" stroke="#fff"/>
<g clip-path="url(#a)">
<defs>
<path id="ar" d="m9.8125 72.906h41.891v-8.3125h-32.031v-21.484h28.906v-8.2969h-28.906v-34.812h-9.8594z"/>
</defs>
<g transform="translate(179.11 459.78) rotate(-78.101) scale(.08 -.08)">
<use xlink:href="#ar"/>
</g>
</g>
<path d="m195.02 454.15 0.14418 6.1583q0.056172 2.3993 2.4555 2.3432l7.7404-0.18122q2.3993-0.056173 2.3432-2.4555l-0.14418-6.1583q-0.056172-2.3993-2.4555-2.3432l-7.7404 0.18122q-2.3993 0.056173-2.3432 2.4555z" clip-path="url(#a)" fill="#fff" stroke="#fff"/>
<g clip-path="url(#a)">
<defs>
<path id="v" d="m19.672 64.797v-56.688h11.922q15.094 0 22.094 6.8281 7 6.8438 7 21.594 0 14.641-7 21.453t-22.094 6.8125zm-9.8594 8.1094h20.266q21.188 0 31.094-8.8125 9.9219-8.8125 9.9219-27.562 0-18.859-9.9688-27.703-9.9531-8.8281-31.047-8.8281h-20.266z"/>
</defs>
<g transform="translate(199.09 454.05) rotate(88.659) scale(.08 -.08)">
<use xlink:href="#v"/>
</g>
</g>
<path d="m218.47 455.66 1.5363 5.9654q0.59854 2.3242 2.9227 1.7256l7.4979-1.9309q2.3242-0.59854 1.7256-2.9227l-1.5363-5.9654q-0.59854-2.3242-2.9227-1.7256l-7.4979 1.9309q-2.3242 0.59854-1.7256 2.9227z" clip-path="url(#a)" fill="#fff" stroke="#fff"/>
<g clip-path="url(#a)">
<g transform="translate(222.4 454.65) rotate(75.558) scale(.08 -.08)">
<use xlink:href="#v"/>
</g>
</g>
<path d="m242.5 457.57 2.2408 4.5577q1.0589 2.1538 3.2127 1.0949l6.9482-3.416q2.1538-1.0589 1.0949-3.2127l-2.2408-4.5577q-1.0589-2.1538-3.2127-1.0949l-6.9482 3.416q-2.1538 1.0589-1.0949 3.2127z" clip-path="url(#a)" fill="#fff" stroke="#fff"/>
<g clip-path="url(#a)">
<defs>
<path id="ag" d="m53.516 70.516v-9.625q-5.6094 2.6875-10.594 4-4.9844 1.3281-9.625 1.3281-8.0469 0-12.422-3.125t-4.375-8.8906q0-4.8438 2.9062-7.3125 2.9062-2.4531 11.016-3.9688l5.9531-1.2188q11.031-2.1094 16.281-7.4062t5.25-14.172q0-10.609-7.1094-16.078-7.0938-5.4688-20.812-5.4688-5.1719 0-11.016 1.1719-5.8281 1.1719-12.078 3.4688v10.156q6-3.3594 11.766-5.0781 5.7656-1.7031 11.328-1.7031 8.4375 0 13.031 3.3125 4.5938 3.3281 4.5938 9.4844 0 5.3594-3.2969 8.3906t-10.812 4.5469l-6.0156 1.1719q-11.031 2.1875-15.969 6.875-4.9219 4.6875-4.9219 13.047 0 9.6719 6.8125 15.234t18.766 5.5625q5.1406 0 10.453-0.9375 5.3281-0.92188 10.891-2.7656z"/>
</defs>
<g transform="translate(246.15 455.77) rotate(63.819) scale(.08 -.08)">
<use xlink:href="#ag"/>
</g>
</g>
<path d="m389.03 592.48v35.285q0 2.4 2.4 2.4h7.7425q2.4 0 2.4-2.4v-35.285q0-2.4-2.4-2.4h-7.7425q-2.4 0-2.4 2.4z" clip-path="url(#a)" fill="#fff" stroke="#fff"/>
<g clip-path="url(#a)">
<defs>
<path id="l" d="m-0.29688 72.906h61.672v-8.3125h-25.875v-64.594h-9.9062v64.594h-25.891z"/>
<path id="c" d="m56.203 29.594v-4.3906h-41.312q0.59375-9.2812 5.5938-14.141t13.938-4.8594q5.1719 0 10.031 1.2656t9.6562 3.8125v-8.5q-4.8438-2.0469-9.9219-3.125t-10.297-1.0781q-13.094 0-20.734 7.6094-7.6406 7.625-7.6406 20.625 0 13.422 7.25 21.297 7.25 7.8906 19.562 7.8906 11.031 0 17.453-7.1094 6.4219-7.0938 6.4219-19.297zm-8.9844 2.6406q-0.09375 7.3594-4.125 11.75-4.0312 4.4062-10.672 4.4062-7.5156 0-12.031-4.25t-5.2031-11.969z"/>
<path id="g" d="m41.109 46.297q-1.5156 0.875-3.2969 1.2812-1.7812 0.42188-3.9219 0.42188-7.625 0-11.703-4.9531t-4.0781-14.234v-28.812h-9.0312v54.688h9.0312v-8.5q2.8438 4.9844 7.375 7.3906 4.5469 2.4219 11.047 2.4219 0.92188 0 2.0469-0.125 1.125-0.10938 2.4844-0.35938z"/>
<path id="k" d="m52 44.188q3.375 6.0625 8.0625 8.9375t11.031 2.875q8.5469 0 13.188-5.9844 4.6406-5.9688 4.6406-17v-33.016h-9.0312v32.719q0 7.8594-2.7969 11.656-2.7812 3.8125-8.4844 3.8125-6.9844 0-11.047-4.6406-4.0469-4.625-4.0469-12.641v-30.906h-9.0312v32.719q0 7.9062-2.7812 11.688t-8.5938 3.7812q-6.8906 0-10.953-4.6562-4.0469-4.6562-4.0469-12.625v-30.906h-9.0312v54.688h9.0312v-8.5q3.0781 5.0312 7.375 7.4219t10.203 2.3906q5.9688 0 10.141-3.0312 4.1719-3.0156 6.1719-8.7812z"/>
<path id="e" d="m9.4219 54.688h8.9844v-54.688h-8.9844zm0 21.297h8.9844v-11.391h-8.9844z"/>
<path id="h" d="m54.891 33.016v-33.016h-8.9844v32.719q0 7.7656-3.0312 11.609-3.0312 3.8594-9.0781 3.8594-7.2812 0-11.484-4.6406-4.2031-4.625-4.2031-12.641v-30.906h-9.0312v54.688h9.0312v-8.5q3.2344 4.9375 7.5938 7.375 4.375 2.4375 10.094 2.4375 9.4219 0 14.25-5.8281 4.8438-5.8281 4.8438-17.156z"/>
<path id="j" d="m34.281 27.484q-10.891 0-15.094-2.4844t-4.2031-8.5q0-4.7812 3.1562-7.5938 3.1562-2.7969 8.5625-2.7969 7.4844 0 12 5.2969t4.5156 14.078v2zm17.922 3.7188v-31.203h-8.9844v8.2969q-3.0781-4.9688-7.6719-7.3438t-11.234-2.375q-8.3906 0-13.359 4.7188-4.9531 4.7188-4.9531 12.625 0 9.2188 6.1719 13.906 6.1875 4.6875 18.438 4.6875h12.609v0.89062q0 6.2031-4.0781 9.5938t-11.453 3.3906q-4.6875 0-9.1406-1.125-4.4375-1.125-8.5312-3.375v8.3125q4.9219 1.9062 9.5625 2.8438 4.6406 0.95312 9.0312 0.95312 11.875 0 17.734-6.1562 5.8594-6.1406 5.8594-18.641z"/>
<path id="i" d="m9.4219 75.984h8.9844v-75.984h-8.9844z"/>
</defs>
<g transform="translate(393.09 592.48) rotate(90) scale(.08 -.08)">
<use xlink:href="#l"/>
<use x="60.818359" xlink:href="#c"/>
<use x="122.341797" xlink:href="#g"/>
<use x="163.439453" xlink:href="#k"/>
<use x="260.851562" xlink:href="#e"/>
<use x="288.634766" xlink:href="#h"/>
<use x="352.013672" xlink:href="#j"/>
<use x="413.292969" xlink:href="#i"/>
</g>
</g>
<path d="m570.96 305.82 2.9315-4.6211q1.2856-2.0266-0.74101-3.3122l-6.538-4.1474q-2.0266-1.2856-3.3122 0.74101l-2.9315 4.6211q-1.2856 2.0266 0.74101 3.3122l6.538 4.1474q2.0266 1.2856 3.3122-0.74101z" clip-path="url(#a)" fill="#fff" stroke="#fff"/>
<g clip-path="url(#a)">
<g transform="translate(567.53 303.64) rotate(-57.611) scale(.08 -.08)">
<use xlink:href="#p"/>
</g>
</g>
<path d="m608.33 355.07 1.4177-4.6107q0.70538-2.294-1.5886-2.9994l-7.4005-2.2756q-2.294-0.70538-2.9994 1.5886l-1.4177 4.6107q-0.70538 2.294 1.5886 2.9994l7.4005 2.2756q2.294 0.70538 2.9994-1.5886z" clip-path="url(#a)" fill="#fff" stroke="#fff"/>
<g clip-path="url(#a)">
<defs>
<path id="ap" d="m19.672 64.797v-27.391h12.406q6.8906 0 10.641 3.5625 3.7656 3.5625 3.7656 10.156 0 6.5469-3.7656 10.109-3.75 3.5625-10.641 3.5625zm-9.8594 8.1094h22.266q12.266 0 18.531-5.5469 6.2812-5.5469 6.2812-16.234 0-10.797-6.2812-16.312-6.2656-5.5156-18.531-5.5156h-12.406v-29.297h-9.8594z"/>
</defs>
<g transform="translate(604.44 353.88) rotate(-72.908) scale(.08 -.08)">
<use xlink:href="#ap"/>
</g>
</g>
<path d="m656.88 303.51 0.55948-5.4438q0.24536-2.3874-2.1421-2.6328l-7.7019-0.79156q-2.3874-0.24536-2.6328 2.1421l-0.55948 5.4438q-0.24536 2.3874 2.1421 2.6328l7.7019 0.79156q2.3874 0.24536 2.6328-2.1421z" clip-path="url(#a)" fill="#fff" stroke="#fff"/>
<g clip-path="url(#a)">
<g transform="translate(652.84 303.09) rotate(-84.132) scale(.08 -.08)">
<use xlink:href="#p"/>
</g>
</g>
<path d="m704.01 299.18 1.4605 5.274q0.64053 2.3129 2.9535 1.6724l7.4617-2.0664q2.3129-0.64053 1.6724-2.9535l-1.4605-5.274q-0.64053-2.3129-2.9535-1.6724l-7.4617 2.0664q-2.3129 0.64053-1.6724 2.9535z" clip-path="url(#a)" fill="#fff" stroke="#fff"/>
<g clip-path="url(#a)">
<g transform="translate(707.92 298.1) rotate(74.521) scale(.08 -.08)">
<use xlink:href="#p"/>
</g>
</g>
<path d="m798.92 201.02 5.0936 2.0009q2.2338 0.87752 3.1113-1.3563l2.8309-7.2064q0.87752-2.2338-1.3563-3.1113l-5.0936-2.0009q-2.2338-0.87752-3.1113 1.3563l-2.8309 7.2064q-0.87752 2.2338 1.3563 3.1113z" clip-path="url(#a)" fill="#fff" stroke="#fff"/>
<g clip-path="url(#a)">
<g transform="translate(800.4 197.24) rotate(21.447) scale(.08 -.08)">
<use xlink:href="#p"/>
</g>
</g>
<path d="m460.68 512.46 1.1599-4.9201q0.5507-2.336-1.7853-2.8867l-7.5359-1.7766q-2.336-0.5507-2.8867 1.7853l-1.1599 4.9201q-0.5507 2.336 1.7853 2.8867l7.5359 1.7766q2.336 0.5507 2.8867-1.7853z" clip-path="url(#a)" fill="#fff" stroke="#fff"/>
<g clip-path="url(#a)">
<defs>
<path id="r" d="m9.8125 72.906h46.094v-8.3125h-36.234v-21.578h34.719v-8.2969h-34.719v-26.422h37.109v-8.2969h-46.969z"/>
</defs>
<g transform="translate(456.72 511.53) rotate(-76.735) scale(.08 -.08)">
<use xlink:href="#r"/>
</g>
</g>
<path d="m472.35 507.28 1.2818 5.4372q0.5507 2.336 2.8867 1.7853l7.5359-1.7766q2.336-0.5507 1.7853-2.8867l-1.2818-5.4372q-0.5507-2.336-2.8867-1.7853l-7.5359 1.7766q-2.336 0.5507-1.7853 2.8867z" clip-path="url(#a)" fill="#fff" stroke="#fff"/>
<g clip-path="url(#a)">
<defs>
<path id="s" d="m64.406 67.281v-10.391q-4.9844 4.6406-10.625 6.9219-5.6406 2.2969-11.984 2.2969-12.5 0-19.141-7.6406t-6.6406-22.094q0-14.406 6.6406-22.047t19.141-7.6406q6.3438 0 11.984 2.2969t10.625 6.9375v-10.312q-5.1719-3.5156-10.969-5.2812-5.7812-1.75-12.219-1.75-16.562 0-26.094 10.125-9.5156 10.141-9.5156 27.672 0 17.578 9.5156 27.703 9.5312 10.141 26.094 10.141 6.5312 0 12.312-1.7344 5.7969-1.7344 10.875-5.2031z"/>
</defs>
<g transform="translate(476.31 506.35) rotate(76.735) scale(.08 -.08)">
<use xlink:href="#s"/>
</g>
</g>
<path d="m532.68 592.48v35.285q0 2.4 2.4 2.4h7.7425q2.4 0 2.4-2.4v-35.285q0-2.4-2.4-2.4h-7.7425q-2.4 0-2.4 2.4z" clip-path="url(#a)" fill="#fff" stroke="#fff"/>
<g clip-path="url(#a)">
<g transform="translate(536.75 592.48) rotate(90) scale(.08 -.08)">
<use xlink:href="#l"/>
<use x="60.818359" xlink:href="#c"/>
<use x="122.341797" xlink:href="#g"/>
<use x="163.439453" xlink:href="#k"/>
<use x="260.851562" xlink:href="#e"/>
<use x="288.634766" xlink:href="#h"/>
<use x="352.013672" xlink:href="#j"/>
<use x="413.292969" xlink:href="#i"/>
</g>
</g>
<path d="m615.27 513.75 2.3706-5.0279q1.0235-2.1708-1.1473-3.1943l-7.0031-3.3019q-2.1708-1.0235-3.1943 1.1473l-2.3706 5.0279q-1.0235 2.1708 1.1473 3.1943l7.0031 3.3019q2.1708 1.0235 3.1943-1.1473z" clip-path="url(#a)" fill="#fff" stroke="#fff"/>
<g clip-path="url(#a)">
<defs>
<path id="ah" d="m44.391 34.188q3.1719-1.0781 6.1719-4.5938t6.0312-9.6719l10.016-19.922h-10.609l-9.3125 18.703q-3.625 7.3281-7.0156 9.7188t-9.25 2.3906h-10.75v-30.812h-9.8594v72.906h22.266q12.5 0 18.656-5.2344 6.1562-5.2188 6.1562-15.766 0-6.8906-3.2031-11.438-3.2031-4.5312-9.2969-6.2812zm-24.719 30.609v-25.875h12.406q7.125 0 10.766 3.2969t3.6406 9.6875-3.6406 9.6406-10.766 3.25z"/>
</defs>
<g transform="translate(611.59 512.02) rotate(-64.756) scale(.08 -.08)">
<use xlink:href="#ah"/>
</g>
</g>
<path d="m628.45 506.04v5.055q0 2.4 2.4 2.4h7.7425q2.4 0 2.4-2.4v-5.055q0-2.4-2.4-2.4h-7.7425q-2.4 0-2.4 2.4z" clip-path="url(#a)" fill="#fff" stroke="#fff"/>
<g clip-path="url(#a)">
<g transform="translate(632.52 506.04) rotate(90) scale(.08 -.08)">
<use xlink:href="#r"/>
</g>
</g>
<path d="m651.8 508.71 2.3824 5.0528q1.0235 2.1708 3.1943 1.1473l7.0031-3.3019q2.1708-1.0235 1.1473-3.1943l-2.3824-5.0528q-1.0235-2.1708-3.1943-1.1473l-7.0031 3.3019q-2.1708 1.0235-1.1473 3.1943z" clip-path="url(#a)" fill="#fff" stroke="#fff"/>
<g clip-path="url(#a)">
<g transform="translate(655.48 506.98) rotate(64.756) scale(.08 -.08)">
<use xlink:href="#s"/>
</g>
</g>
<path d="m747.99 512.46 1.1599-4.9201q0.5507-2.336-1.7853-2.8867l-7.5359-1.7766q-2.336-0.5507-2.8867 1.7853l-1.1599 4.9201q-0.5507 2.336 1.7853 2.8867l7.5359 1.7766q2.336 0.5507 2.8867-1.7853z" clip-path="url(#a)" fill="#fff" stroke="#fff"/>
<g clip-path="url(#a)">
<g transform="translate(744.03 511.53) rotate(-76.735) scale(.08 -.08)">
<use xlink:href="#r"/>
</g>
</g>
<path d="m759.66 507.28 1.2818 5.4372q0.5507 2.336 2.8867 1.7853l7.5359-1.7766q2.336-0.5507 1.7853-2.8867l-1.2818-5.4372q-0.5507-2.336-2.8867-1.7853l-7.5359 1.7766q-2.336 0.5507-1.7853 2.8867z" clip-path="url(#a)" fill="#fff" stroke="#fff"/>
<g clip-path="url(#a)">
<g transform="translate(763.62 506.35) rotate(76.735) scale(.08 -.08)">
<use xlink:href="#s"/>
</g>
</g>
<path d="m1019.5 306.33 4.2956 2.6647q2.0395 1.2651 3.3046-0.77432l4.0814-6.5794q1.2651-2.0395-0.77432-3.3046l-4.2956-2.6647q-2.0395-1.2651-3.3046 0.77432l-4.0814 6.5794q-1.2651 2.0395 0.77432 3.3046z" clip-path="url(#a)" fill="#fff" stroke="#fff"/>
<g clip-path="url(#a)">
<g transform="translate(1021.7 302.88) rotate(31.813) scale(.08 -.08)">
<use xlink:href="#r"/>
</g>
</g>
<path d="m888.25 409.38 1.9232-5.2154q0.83036-2.2518-1.4214-3.0821l-7.2643-2.6788q-2.2518-0.83036-3.0821 1.4214l-1.9232 5.2154q-0.83036 2.2518 1.4214 3.0821l7.2643 2.6788q2.2518 0.83036 3.0821-1.4214z" clip-path="url(#a)" fill="#fff" stroke="#fff"/>
<g clip-path="url(#a)">
<g transform="translate(884.44 407.97) rotate(-69.758) scale(.08 -.08)">
<use xlink:href="#ah"/>
</g>
</g>
<path d="m912.87 408.38 1.058-4.943q0.5023-2.3468-1.8445-2.8492l-7.571-1.6204q-2.3468-0.5023-2.8491 1.8445l-1.058 4.943q-0.5023 2.3468 1.8445 2.8491l7.571 1.6204q2.3468 0.5023 2.8491-1.8445z" clip-path="url(#a)" fill="#fff" stroke="#fff"/>
<g clip-path="url(#a)">
<g transform="translate(908.9 407.53) rotate(-77.919) scale(.08 -.08)">
<use xlink:href="#r"/>
</g>
</g>
<path d="m937.31 407.76 0.33074-5.5765q0.1421-2.3958-2.2537-2.5379l-7.7289-0.4584q-2.3958-0.14209-2.5379 2.2537l-0.33074 5.5765q-0.1421 2.3958 2.2537 2.5379l7.7289 0.4584q2.3958 0.1421 2.5379-2.2537z" clip-path="url(#a)" fill="#fff" stroke="#fff"/>
<g clip-path="url(#a)">
<g transform="translate(933.25 407.52) rotate(-86.606) scale(.08 -.08)">
<use xlink:href="#s"/>
</g>
</g>
<path d="m948.63 402.28 0.55611 5.8285q0.22795 2.3892 2.6171 2.1612l7.7075-0.73539q2.3892-0.22795 2.1612-2.6171l-0.55611-5.8285q-0.22795-2.3892-2.6171-2.1612l-7.7075 0.73539q-2.3892 0.22795-2.1612 2.6171z" clip-path="url(#a)" fill="#fff" stroke="#fff"/>
<g clip-path="url(#a)">
<g transform="translate(952.68 401.9) rotate(84.55) scale(.08 -.08)">
<use xlink:href="#af"/>
</g>
</g>
<path d="m1068.3 462.18 2.2757-5.0716q0.98256-2.1897-1.2071-3.1722l-7.0639-3.1698q-2.1897-0.98256-3.1722 1.2071l-2.2757 5.0716q-0.98256 2.1897 1.2071 3.1722l7.0639 3.1698q2.1897 0.98256 3.1722-1.2071z" clip-path="url(#a)" fill="#fff" stroke="#fff"/>
<g clip-path="url(#a)">
<g transform="translate(1064.6 460.52) rotate(-65.833) scale(.08 -.08)">
<use xlink:href="#ah"/>
</g>
</g>
<path d="m1105.2 410.18 1.041-5.3726q0.45653-2.3562-1.8996-2.8127l-7.6011-1.4728q-2.3562-0.45653-2.8127 1.8996l-1.041 5.3726q-0.45653 2.3562 1.8996 2.8127l7.6011 1.4728q2.3562 0.45653 2.8127-1.8996z" clip-path="url(#a)" fill="#fff" stroke="#fff"/>
<g clip-path="url(#a)">
<g transform="translate(1101.3 409.4) rotate(-79.034) scale(.08 -.08)">
<use xlink:href="#p"/>
</g>
</g>
<path d="m1128.8 456.16 1.2486 4.9229q0.59002 2.3263 2.9164 1.7363l7.5049-1.9034q2.3263-0.59002 1.7363-2.9164l-1.2486-4.9229q-0.59003-2.3263-2.9164-1.7363l-7.5049 1.9034q-2.3263 0.59002-1.7363 2.9164z" clip-path="url(#a)" fill="#fff" stroke="#fff"/>
<g clip-path="url(#a)">
<g transform="translate(1132.8 455.16) rotate(75.768) scale(.08 -.08)">
<use xlink:href="#ag"/>
</g>
</g>
<path d="m1152.5 457.06 2.7004 5.5365q1.0521 2.1571 3.2092 1.105l6.9589-3.3942q2.1571-1.0521 1.105-3.2092l-2.7004-5.5365q-1.0521-2.1571-3.2092-1.105l-6.9589 3.3942q-2.1571 1.0521-1.105 3.2092z" clip-path="url(#a)" fill="#fff" stroke="#fff"/>
<g clip-path="url(#a)">
<g transform="translate(1156.1 455.28) rotate(63.999) scale(.08 -.08)">
<use xlink:href="#v"/>
</g>
</g>
<path d="m1018.6 463.33 3.6986-4.0335q1.622-1.7689-0.14689-3.3909l-5.7066-5.2327q-1.7689-1.622-3.3909 0.14689l-3.6986 4.0335q-1.622 1.7689 0.14689 3.3909l5.7066 5.2327q1.7689 1.622 3.3909-0.14689z" clip-path="url(#a)" fill="#fff" stroke="#fff"/>
<g clip-path="url(#a)">
<g transform="translate(1015.6 460.59) rotate(-47.48) scale(.08 -.08)">
<use xlink:href="#p"/>
</g>
</g>
<path d="m1176.6 458.37 3.4269 4.7473q1.4047 1.946 3.3507 0.54124l6.2778-4.5317q1.946-1.4047 0.54124-3.3507l-3.4269-4.7473q-1.4047-1.946-3.3507-0.54124l-6.2778 4.5317q-1.946 1.4047-0.54124 3.3507z" clip-path="url(#a)" fill="#fff" stroke="#fff"/>
<g clip-path="url(#a)">
<g transform="translate(1179.9 456) rotate(54.176) scale(.08 -.08)">
<use xlink:href="#af"/>
</g>
</g>
<path d="m1011.5 592.48v35.285q0 2.4 2.4 2.4h7.7425q2.4 0 2.4-2.4v-35.285q0-2.4-2.4-2.4h-7.7425q-2.4 0-2.4 2.4z" clip-path="url(#a)" fill="#fff" stroke="#fff"/>
<g clip-path="url(#a)">
<g transform="translate(1015.6 592.48) rotate(90) scale(.08 -.08)">
<use xlink:href="#l"/>
<use x="60.818359" xlink:href="#c"/>
<use x="122.341797" xlink:href="#g"/>
<use x="163.439453" xlink:href="#k"/>
<use x="260.851562" xlink:href="#e"/>
<use x="288.634766" xlink:href="#h"/>
<use x="352.013672" xlink:href="#j"/>
<use x="413.292969" xlink:href="#i"/>
</g>
</g>
<path d="m1083.2 512.46 1.1599-4.9201q0.5507-2.336-1.7853-2.8867l-7.5359-1.7766q-2.336-0.5507-2.8867 1.7853l-1.1599 4.9201q-0.5507 2.336 1.7853 2.8867l7.5359 1.7766q2.336 0.5507 2.8867-1.7853z" clip-path="url(#a)" fill="#fff" stroke="#fff"/>
<g clip-path="url(#a)">
<g transform="translate(1079.2 511.53) rotate(-76.735) scale(.08 -.08)">
<use xlink:href="#r"/>
</g>
</g>
<path d="m1094.9 507.28 1.2818 5.4372q0.5507 2.336 2.8867 1.7853l7.5359-1.7766q2.336-0.5507 1.7853-2.8867l-1.2818-5.4372q-0.5507-2.336-2.8867-1.7853l-7.5359 1.7766q-2.336 0.5507-1.7853 2.8867z" clip-path="url(#a)" fill="#fff" stroke="#fff"/>
<g clip-path="url(#a)">
<g transform="translate(1098.8 506.35) rotate(76.735) scale(.08 -.08)">
<use xlink:href="#s"/>
</g>
</g>
<path d="m1155.2 592.48v35.285q0 2.4 2.4 2.4h7.7425q2.4 0 2.4-2.4v-35.285q0-2.4-2.4-2.4h-7.7425q-2.4 0-2.4 2.4z" clip-path="url(#a)" fill="#fff" stroke="#fff"/>
<g clip-path="url(#a)">
<g transform="translate(1159.3 592.48) rotate(90) scale(.08 -.08)">
<use xlink:href="#l"/>
<use x="60.818359" xlink:href="#c"/>
<use x="122.341797" xlink:href="#g"/>
<use x="163.439453" xlink:href="#k"/>
<use x="260.851562" xlink:href="#e"/>
<use x="288.634766" xlink:href="#h"/>
<use x="352.013672" xlink:href="#j"/>
<use x="413.292969" xlink:href="#i"/>
</g>
</g>
<path d="m1203.1 592.48v35.285q0 2.4 2.4 2.4h7.7425q2.4 0 2.4-2.4v-35.285q0-2.4-2.4-2.4h-7.7425q-2.4 0-2.4 2.4z" clip-path="url(#a)" fill="#fff" stroke="#fff"/>
<g clip-path="url(#a)">
<g transform="translate(1207.1 592.48) rotate(90) scale(.08 -.08)">
<use xlink:href="#l"/>
<use x="60.818359" xlink:href="#c"/>
<use x="122.341797" xlink:href="#g"/>
<use x="163.439453" xlink:href="#k"/>
<use x="260.851562" xlink:href="#e"/>
<use x="288.634766" xlink:href="#h"/>
<use x="352.013672" xlink:href="#j"/>
<use x="413.292969" xlink:href="#i"/>
</g>
</g>
<path d="m1059.4 592.48v35.285q0 2.4 2.4 2.4h7.7425q2.4 0 2.4-2.4v-35.285q0-2.4-2.4-2.4h-7.7425q-2.4 0-2.4 2.4z" clip-path="url(#a)" fill="#fff" stroke="#fff"/>
<g clip-path="url(#a)">
<g transform="translate(1063.5 592.48) rotate(90) scale(.08 -.08)">
<use xlink:href="#l"/>
<use x="60.818359" xlink:href="#c"/>
<use x="122.341797" xlink:href="#g"/>
<use x="163.439453" xlink:href="#k"/>
<use x="260.851562" xlink:href="#e"/>
<use x="288.634766" xlink:href="#h"/>
<use x="352.013672" xlink:href="#j"/>
<use x="413.292969" xlink:href="#i"/>
</g>
</g>
<path d="m1107.3 592.48v35.285q0 2.4 2.4 2.4h7.7425q2.4 0 2.4-2.4v-35.285q0-2.4-2.4-2.4h-7.7425q-2.4 0-2.4 2.4z" clip-path="url(#a)" fill="#fff" stroke="#fff"/>
<g clip-path="url(#a)">
<g transform="translate(1111.4 592.48) rotate(90) scale(.08 -.08)">
<use xlink:href="#l"/>
<use x="60.818359" xlink:href="#c"/>
<use x="122.341797" xlink:href="#g"/>
<use x="163.439453" xlink:href="#k"/>
<use x="260.851562" xlink:href="#e"/>
<use x="288.634766" xlink:href="#h"/>
<use x="352.013672" xlink:href="#j"/>
<use x="413.292969" xlink:href="#i"/>
</g>
</g>
<path d="m819.99 592.48v35.285q0 2.4 2.4 2.4h7.7425q2.4 0 2.4-2.4v-35.285q0-2.4-2.4-2.4h-7.7425q-2.4 0-2.4 2.4z" clip-path="url(#a)" fill="#fff" stroke="#fff"/>
<g clip-path="url(#a)">
<g transform="translate(824.06 592.48) rotate(90) scale(.08 -.08)">
<use xlink:href="#l"/>
<use x="60.818359" xlink:href="#c"/>
<use x="122.341797" xlink:href="#g"/>
<use x="163.439453" xlink:href="#k"/>
<use x="260.851562" xlink:href="#e"/>
<use x="288.634766" xlink:href="#h"/>
<use x="352.013672" xlink:href="#j"/>
<use x="413.292969" xlink:href="#i"/>
</g>
</g>
<path d="m867.88 592.48v35.285q0 2.4 2.4 2.4h7.7425q2.4 0 2.4-2.4v-35.285q0-2.4-2.4-2.4h-7.7425q-2.4 0-2.4 2.4z" clip-path="url(#a)" fill="#fff" stroke="#fff"/>
<g clip-path="url(#a)">
<g transform="translate(871.94 592.48) rotate(90) scale(.08 -.08)">
<use xlink:href="#l"/>
<use x="60.818359" xlink:href="#c"/>
<use x="122.341797" xlink:href="#g"/>
<use x="163.439453" xlink:href="#k"/>
<use x="260.851562" xlink:href="#e"/>
<use x="288.634766" xlink:href="#h"/>
<use x="352.013672" xlink:href="#j"/>
<use x="413.292969" xlink:href="#i"/>
</g>
</g>
<path d="m915.76 592.48v35.285q0 2.4 2.4 2.4h7.7425q2.4 0 2.4-2.4v-35.285q0-2.4-2.4-2.4h-7.7425q-2.4 0-2.4 2.4z" clip-path="url(#a)" fill="#fff" stroke="#fff"/>
<g clip-path="url(#a)">
<g transform="translate(919.83 592.48) rotate(90) scale(.08 -.08)">
<use xlink:href="#l"/>
<use x="60.818359" xlink:href="#c"/>
<use x="122.341797" xlink:href="#g"/>
<use x="163.439453" xlink:href="#k"/>
<use x="260.851562" xlink:href="#e"/>
<use x="288.634766" xlink:href="#h"/>
<use x="352.013672" xlink:href="#j"/>
<use x="413.292969" xlink:href="#i"/>
</g>
</g>
<path d="m724.22 592.48v35.285q0 2.4 2.4 2.4h7.7425q2.4 0 2.4-2.4v-35.285q0-2.4-2.4-2.4h-7.7425q-2.4 0-2.4 2.4z" clip-path="url(#a)" fill="#fff" stroke="#fff"/>
<g clip-path="url(#a)">
<g transform="translate(728.29 592.48) rotate(90) scale(.08 -.08)">
<use xlink:href="#l"/>
<use x="60.818359" xlink:href="#c"/>
<use x="122.341797" xlink:href="#g"/>
<use x="163.439453" xlink:href="#k"/>
<use x="260.851562" xlink:href="#e"/>
<use x="288.634766" xlink:href="#h"/>
<use x="352.013672" xlink:href="#j"/>
<use x="413.292969" xlink:href="#i"/>
</g>
</g>
<path d="m772.11 592.48v35.285q0 2.4 2.4 2.4h7.7425q2.4 0 2.4-2.4v-35.285q0-2.4-2.4-2.4h-7.7425q-2.4 0-2.4 2.4z" clip-path="url(#a)" fill="#fff" stroke="#fff"/>
<g clip-path="url(#a)">
<g transform="translate(776.17 592.48) rotate(90) scale(.08 -.08)">
<use xlink:href="#l"/>
<use x="60.818359" xlink:href="#c"/>
<use x="122.341797" xlink:href="#g"/>
<use x="163.439453" xlink:href="#k"/>
<use x="260.851562" xlink:href="#e"/>
<use x="288.634766" xlink:href="#h"/>
<use x="352.013672" xlink:href="#j"/>
<use x="413.292969" xlink:href="#i"/>
</g>
</g>
<path d="m580.57 592.48v35.285q0 2.4 2.4 2.4h7.7425q2.4 0 2.4-2.4v-35.285q0-2.4-2.4-2.4h-7.7425q-2.4 0-2.4 2.4z" clip-path="url(#a)" fill="#fff" stroke="#fff"/>
<g clip-path="url(#a)">
<g transform="translate(584.63 592.48) rotate(90) scale(.08 -.08)">
<use xlink:href="#l"/>
<use x="60.818359" xlink:href="#c"/>
<use x="122.341797" xlink:href="#g"/>
<use x="163.439453" xlink:href="#k"/>
<use x="260.851562" xlink:href="#e"/>
<use x="288.634766" xlink:href="#h"/>
<use x="352.013672" xlink:href="#j"/>
<use x="413.292969" xlink:href="#i"/>
</g>
</g>
<path d="m628.45 592.48v35.285q0 2.4 2.4 2.4h7.7425q2.4 0 2.4-2.4v-35.285q0-2.4-2.4-2.4h-7.7425q-2.4 0-2.4 2.4z" clip-path="url(#a)" fill="#fff" stroke="#fff"/>
<g clip-path="url(#a)">
<g transform="translate(632.52 592.48) rotate(90) scale(.08 -.08)">
<use xlink:href="#l"/>
<use x="60.818359" xlink:href="#c"/>
<use x="122.341797" xlink:href="#g"/>
<use x="163.439453" xlink:href="#k"/>
<use x="260.851562" xlink:href="#e"/>
<use x="288.634766" xlink:href="#h"/>
<use x="352.013672" xlink:href="#j"/>
<use x="413.292969" xlink:href="#i"/>
</g>
</g>
<path d="m676.34 592.48v35.285q0 2.4 2.4 2.4h7.7425q2.4 0 2.4-2.4v-35.285q0-2.4-2.4-2.4h-7.7425q-2.4 0-2.4 2.4z" clip-path="url(#a)" fill="#fff" stroke="#fff"/>
<g clip-path="url(#a)">
<g transform="translate(680.4 592.48) rotate(90) scale(.08 -.08)">
<use xlink:href="#l"/>
<use x="60.818359" xlink:href="#c"/>
<use x="122.341797" xlink:href="#g"/>
<use x="163.439453" xlink:href="#k"/>
<use x="260.851562" xlink:href="#e"/>
<use x="288.634766" xlink:href="#h"/>
<use x="352.013672" xlink:href="#j"/>
<use x="413.292969" xlink:href="#i"/>
</g>
</g>
<path d="m436.91 592.48v35.285q0 2.4 2.4 2.4h7.7425q2.4 0 2.4-2.4v-35.285q0-2.4-2.4-2.4h-7.7425q-2.4 0-2.4 2.4z" clip-path="url(#a)" fill="#fff" stroke="#fff"/>
<g clip-path="url(#a)">
<g transform="translate(440.98 592.48) rotate(90) scale(.08 -.08)">
<use xlink:href="#l"/>
<use x="60.818359" xlink:href="#c"/>
<use x="122.341797" xlink:href="#g"/>
<use x="163.439453" xlink:href="#k"/>
<use x="260.851562" xlink:href="#e"/>
<use x="288.634766" xlink:href="#h"/>
<use x="352.013672" xlink:href="#j"/>
<use x="413.292969" xlink:href="#i"/>
</g>
</g>
<path d="m484.8 592.48v35.285q0 2.4 2.4 2.4h7.7425q2.4 0 2.4-2.4v-35.285q0-2.4-2.4-2.4h-7.7425q-2.4 0-2.4 2.4z" clip-path="url(#a)" fill="#fff" stroke="#fff"/>
<g clip-path="url(#a)">
<g transform="translate(488.86 592.48) rotate(90) scale(.08 -.08)">
<use xlink:href="#l"/>
<use x="60.818359" xlink:href="#c"/>
<use x="122.341797" xlink:href="#g"/>
<use x="163.439453" xlink:href="#k"/>
<use x="260.851562" xlink:href="#e"/>
<use x="288.634766" xlink:href="#h"/>
<use x="352.013672" xlink:href="#j"/>
<use x="413.292969" xlink:href="#i"/>
</g>
</g>
<path d="m77.601 512.46 1.1599-4.9201q0.5507-2.336-1.7853-2.8867l-7.5359-1.7766q-2.336-0.5507-2.8867 1.7853l-1.1599 4.9201q-0.5507 2.336 1.7853 2.8867l7.5359 1.7766q2.336 0.5507 2.8867-1.7853z" clip-path="url(#a)" fill="#fff" stroke="#fff"/>
<g clip-path="url(#a)">
<g transform="translate(73.645 511.53) rotate(-76.735) scale(.08 -.08)">
<use xlink:href="#r"/>
</g>
</g>
<path d="m89.274 507.28 1.2818 5.4372q0.5507 2.336 2.8867 1.7853l7.5359-1.7766q2.336-0.5507 1.7853-2.8867l-1.2818-5.4372q-0.5507-2.336-2.8867-1.7853l-7.5359 1.7766q-2.336 0.5507-1.7853 2.8867z" clip-path="url(#a)" fill="#fff" stroke="#fff"/>
<g clip-path="url(#a)">
<g transform="translate(93.23 506.35) rotate(76.735) scale(.08 -.08)">
<use xlink:href="#s"/>
</g>
</g>
<path d="m149.6 592.48v35.285q0 2.4 2.4 2.4h7.7425q2.4 0 2.4-2.4v-35.285q0-2.4-2.4-2.4h-7.7425q-2.4 0-2.4 2.4z" clip-path="url(#a)" fill="#fff" stroke="#fff"/>
<g clip-path="url(#a)">
<g transform="translate(153.67 592.48) rotate(90) scale(.08 -.08)">
<use xlink:href="#l"/>
<use x="60.818359" xlink:href="#c"/>
<use x="122.341797" xlink:href="#g"/>
<use x="163.439453" xlink:href="#k"/>
<use x="260.851562" xlink:href="#e"/>
<use x="288.634766" xlink:href="#h"/>
<use x="352.013672" xlink:href="#j"/>
<use x="413.292969" xlink:href="#i"/>
</g>
</g>
<path d="m197.49 592.48v35.285q0 2.4 2.4 2.4h7.7425q2.4 0 2.4-2.4v-35.285q0-2.4-2.4-2.4h-7.7425q-2.4 0-2.4 2.4z" clip-path="url(#a)" fill="#fff" stroke="#fff"/>
<g clip-path="url(#a)">
<g transform="translate(201.55 592.48) rotate(90) scale(.08 -.08)">
<use xlink:href="#l"/>
<use x="60.818359" xlink:href="#c"/>
<use x="122.341797" xlink:href="#g"/>
<use x="163.439453" xlink:href="#k"/>
<use x="260.851562" xlink:href="#e"/>
<use x="288.634766" xlink:href="#h"/>
<use x="352.013672" xlink:href="#j"/>
<use x="413.292969" xlink:href="#i"/>
</g>
</g>
<path d="m245.37 592.48v35.285q0 2.4 2.4 2.4h7.7425q2.4 0 2.4-2.4v-35.285q0-2.4-2.4-2.4h-7.7425q-2.4 0-2.4 2.4z" clip-path="url(#a)" fill="#fff" stroke="#fff"/>
<g clip-path="url(#a)">
<g transform="translate(249.44 592.48) rotate(90) scale(.08 -.08)">
<use xlink:href="#l"/>
<use x="60.818359" xlink:href="#c"/>
<use x="122.341797" xlink:href="#g"/>
<use x="163.439453" xlink:href="#k"/>
<use x="260.851562" xlink:href="#e"/>
<use x="288.634766" xlink:href="#h"/>
<use x="352.013672" xlink:href="#j"/>
<use x="413.292969" xlink:href="#i"/>
</g>
</g>
<path d="m293.26 592.48v35.285q0 2.4 2.4 2.4h7.7425q2.4 0 2.4-2.4v-35.285q0-2.4-2.4-2.4h-7.7425q-2.4 0-2.4 2.4z" clip-path="url(#a)" fill="#fff" stroke="#fff"/>
<g clip-path="url(#a)">
<g transform="translate(297.32 592.48) rotate(90) scale(.08 -.08)">
<use xlink:href="#l"/>
<use x="60.818359" xlink:href="#c"/>
<use x="122.341797" xlink:href="#g"/>
<use x="163.439453" xlink:href="#k"/>
<use x="260.851562" xlink:href="#e"/>
<use x="288.634766" xlink:href="#h"/>
<use x="352.013672" xlink:href="#j"/>
<use x="413.292969" xlink:href="#i"/>
</g>
</g>
<path d="m53.834 592.48v35.285q0 2.4 2.4 2.4h7.7425q2.4 0 2.4-2.4v-35.285q0-2.4-2.4-2.4h-7.7425q-2.4 0-2.4 2.4z" clip-path="url(#a)" fill="#fff" stroke="#fff"/>
<g clip-path="url(#a)">
<g transform="translate(57.898 592.48) rotate(90) scale(.08 -.08)">
<use xlink:href="#l"/>
<use x="60.818359" xlink:href="#c"/>
<use x="122.341797" xlink:href="#g"/>
<use x="163.439453" xlink:href="#k"/>
<use x="260.851562" xlink:href="#e"/>
<use x="288.634766" xlink:href="#h"/>
<use x="352.013672" xlink:href="#j"/>
<use x="413.292969" xlink:href="#i"/>
</g>
</g>
<path d="m101.72 592.48v35.285q0 2.4 2.4 2.4h7.7425q2.4 0 2.4-2.4v-35.285q0-2.4-2.4-2.4h-7.7425q-2.4 0-2.4 2.4z" clip-path="url(#a)" fill="#fff" stroke="#fff"/>
<g clip-path="url(#a)">
<g transform="translate(105.78 592.48) rotate(90) scale(.08 -.08)">
<use xlink:href="#l"/>
<use x="60.818359" xlink:href="#c"/>
<use x="122.341797" xlink:href="#g"/>
<use x="163.439453" xlink:href="#k"/>
<use x="260.851562" xlink:href="#e"/>
<use x="288.634766" xlink:href="#h"/>
<use x="352.013672" xlink:href="#j"/>
<use x="413.292969" xlink:href="#i"/>
</g>
</g>
<path d="m341.14 592.48v35.285q0 2.4 2.4 2.4h7.7425q2.4 0 2.4-2.4v-35.285q0-2.4-2.4-2.4h-7.7425q-2.4 0-2.4 2.4z" clip-path="url(#a)" fill="#fff" stroke="#fff"/>
<g clip-path="url(#a)">
<g transform="translate(345.21 592.48) rotate(90) scale(.08 -.08)">
<use xlink:href="#l"/>
<use x="60.818359" xlink:href="#c"/>
<use x="122.341797" xlink:href="#g"/>
<use x="163.439453" xlink:href="#k"/>
<use x="260.851562" xlink:href="#e"/>
<use x="288.634766" xlink:href="#h"/>
<use x="352.013672" xlink:href="#j"/>
<use x="413.292969" xlink:href="#i"/>
</g>
</g>
<path d="m963.65 592.48v35.285q0 2.4 2.4 2.4h7.7425q2.4 0 2.4-2.4v-35.285q0-2.4-2.4-2.4h-7.7425q-2.4 0-2.4 2.4z" clip-path="url(#a)" fill="#fff" stroke="#fff"/>
<g clip-path="url(#a)">
<g transform="translate(967.71 592.48) rotate(90) scale(.08 -.08)">
<use xlink:href="#l"/>
<use x="60.818359" xlink:href="#c"/>
<use x="122.341797" xlink:href="#g"/>
<use x="163.439453" xlink:href="#k"/>
<use x="260.851562" xlink:href="#e"/>
<use x="288.634766" xlink:href="#h"/>
<use x="352.013672" xlink:href="#j"/>
<use x="413.292969" xlink:href="#i"/>
</g>
</g>
<path d="m1251 592.48v35.285q0 2.4 2.4 2.4h7.7425q2.4 0 2.4-2.4v-35.285q0-2.4-2.4-2.4h-7.7425q-2.4 0-2.4 2.4z" clip-path="url(#a)" fill="#fff" stroke="#fff"/>
<g clip-path="url(#a)">
<g transform="translate(1255 592.48) rotate(90) scale(.08 -.08)">
<use xlink:href="#l"/>
<use x="60.818359" xlink:href="#c"/>
<use x="122.341797" xlink:href="#g"/>
<use x="163.439453" xlink:href="#k"/>
<use x="260.851562" xlink:href="#e"/>
<use x="288.634766" xlink:href="#h"/>
<use x="352.013672" xlink:href="#j"/>
<use x="413.292969" xlink:href="#i"/>
</g>
</g>
<defs>
<path id="b" d="m0 8.6603c2.2967 0 4.4997-0.9125 6.1237-2.5365 1.624-1.624 2.5365-3.827 2.5365-6.1237s-0.9125-4.4997-2.5365-6.1237c-1.624-1.624-3.827-2.5365-6.1237-2.5365s-4.4997 0.9125-6.1237 2.5365c-1.624 1.624-2.5365 3.827-2.5365 6.1237s0.9125 4.4997 2.5365 6.1237c1.624 1.624 3.827 2.5365 6.1237 2.5365z"/>
</defs>
<g clip-path="url(#a)">
<use x="60.105443" y="660.904816" fill="#ffffff" stroke="#ffffff" xlink:href="#b"/>
</g>
<g clip-path="url(#a)">
<use x="107.990341" y="660.904816" fill="#ffffff" stroke="#ffffff" xlink:href="#b"/>
</g>
<g clip-path="url(#a)">
<use x="155.875239" y="660.904816" fill="#ffffff" stroke="#ffffff" xlink:href="#b"/>
</g>
<g clip-path="url(#a)">
<use x="203.760137" y="660.904816" fill="#ffffff" stroke="#ffffff" xlink:href="#b"/>
</g>
<g clip-path="url(#a)">
<use x="251.645035" y="660.904816" fill="#ffffff" stroke="#ffffff" xlink:href="#b"/>
</g>
<g clip-path="url(#a)">
<use x="299.529933" y="660.904816" fill="#ffffff" stroke="#ffffff" xlink:href="#b"/>
</g>
<g clip-path="url(#a)">
<use x="347.41483" y="660.904816" fill="#ffffff" stroke="#ffffff" xlink:href="#b"/>
</g>
<g clip-path="url(#a)">
<use x="395.299728" y="660.904816" fill="#ffffff" stroke="#ffffff" xlink:href="#b"/>
</g>
<g clip-path="url(#a)">
<use x="443.184626" y="660.904816" fill="#ffffff" stroke="#ffffff" xlink:href="#b"/>
</g>
<g clip-path="url(#a)">
<use x="491.069524" y="660.904816" fill="#ffffff" stroke="#ffffff" xlink:href="#b"/>
</g>
<g clip-path="url(#a)">
<use x="538.954422" y="660.904816" fill="#ffffff" stroke="#ffffff" xlink:href="#b"/>
</g>
<g clip-path="url(#a)">
<use x="586.83932" y="660.904816" fill="#ffffff" stroke="#ffffff" xlink:href="#b"/>
</g>
<g clip-path="url(#a)">
<use x="634.724218" y="660.904816" fill="#ffffff" stroke="#ffffff" xlink:href="#b"/>
</g>
<g clip-path="url(#a)">
<use x="682.609116" y="660.904816" fill="#ffffff" stroke="#ffffff" xlink:href="#b"/>
</g>
<g clip-path="url(#a)">
<use x="730.494013" y="660.904816" fill="#ffffff" stroke="#ffffff" xlink:href="#b"/>
</g>
<g clip-path="url(#a)">
<use x="778.378911" y="660.904816" fill="#ffffff" stroke="#ffffff" xlink:href="#b"/>
</g>
<g clip-path="url(#a)">
<use x="826.263809" y="660.904816" fill="#ffffff" stroke="#ffffff" xlink:href="#b"/>
</g>
<g clip-path="url(#a)">
<use x="874.148707" y="660.904816" fill="#ffffff" stroke="#ffffff" xlink:href="#b"/>
</g>
<g clip-path="url(#a)">
<use x="922.033605" y="660.904816" fill="#ffffff" stroke="#ffffff" xlink:href="#b"/>
</g>
<g clip-path="url(#a)">
<use x="969.918503" y="660.904816" fill="#ffffff" stroke="#ffffff" xlink:href="#b"/>
</g>
<g clip-path="url(#a)">
<use x="1017.803401" y="660.904816" fill="#ffffff" stroke="#ffffff" xlink:href="#b"/>
</g>
<g clip-path="url(#a)">
<use x="1065.688299" y="660.904816" fill="#ffffff" stroke="#ffffff" xlink:href="#b"/>
</g>
<g clip-path="url(#a)">
<use x="1113.573196" y="660.904816" fill="#ffffff" stroke="#ffffff" xlink:href="#b"/>
</g>
<g clip-path="url(#a)">
<use x="1161.458094" y="660.904816" fill="#ffffff" stroke="#ffffff" xlink:href="#b"/>
</g>
<g clip-path="url(#a)">
<use x="1209.342992" y="660.904816" fill="#ffffff" stroke="#ffffff" xlink:href="#b"/>
</g>
<g clip-path="url(#a)">
<use x="1257.22789" y="660.904816" fill="#ffffff" stroke="#ffffff" xlink:href="#b"/>
</g>
<g clip-path="url(#a)">
<use x="402.203134" y="32.428517" fill="#ffffff" stroke="#ffffff" xlink:href="#b"/>
</g>
<g clip-path="url(#a)">
<use x="198.971647" y="354.811405" fill="#ffffff" stroke="#ffffff" xlink:href="#b"/>
</g>
<g clip-path="url(#a)">
<use x="395.299728" y="559.344617" fill="#ffffff" stroke="#ffffff" xlink:href="#b"/>
</g>
<g clip-path="url(#a)">
<use x="667.126332" y="142.508289" fill="#ffffff" stroke="#ffffff" xlink:href="#b"/>
</g>
<g clip-path="url(#a)">
<use x="467.127075" y="457.784418" fill="#ffffff" stroke="#ffffff" xlink:href="#b"/>
</g>
<g clip-path="url(#a)">
<use x="538.954422" y="559.344617" fill="#ffffff" stroke="#ffffff" xlink:href="#b"/>
</g>
<g clip-path="url(#a)">
<use x="634.724218" y="457.784418" fill="#ffffff" stroke="#ffffff" xlink:href="#b"/>
</g>
<g clip-path="url(#a)">
<use x="754.436462" y="457.784418" fill="#ffffff" stroke="#ffffff" xlink:href="#b"/>
</g>
<g clip-path="url(#a)">
<use x="940.389482" y="249.855568" fill="#ffffff" stroke="#ffffff" xlink:href="#b"/>
</g>
<g clip-path="url(#a)">
<use x="1109.582788" y="354.811405" fill="#ffffff" stroke="#ffffff" xlink:href="#b"/>
</g>
<g clip-path="url(#a)">
<use x="1017.803401" y="559.344617" fill="#ffffff" stroke="#ffffff" xlink:href="#b"/>
</g>
<g clip-path="url(#a)">
<use x="1089.630748" y="457.784418" fill="#ffffff" stroke="#ffffff" xlink:href="#b"/>
</g>
<g clip-path="url(#a)">
<use x="1161.458094" y="559.344617" fill="#ffffff" stroke="#ffffff" xlink:href="#b"/>
</g>
<g clip-path="url(#a)">
<use x="1209.342992" y="559.344617" fill="#ffffff" stroke="#ffffff" xlink:href="#b"/>
</g>
<g clip-path="url(#a)">
<use x="1065.688299" y="559.344617" fill="#ffffff" stroke="#ffffff" xlink:href="#b"/>
</g>
<g clip-path="url(#a)">
<use x="1113.573196" y="559.344617" fill="#ffffff" stroke="#ffffff" xlink:href="#b"/>
</g>
<g clip-path="url(#a)">
<use x="826.263809" y="559.344617" fill="#ffffff" stroke="#ffffff" xlink:href="#b"/>
</g>
<g clip-path="url(#a)">
<use x="874.148707" y="559.344617" fill="#ffffff" stroke="#ffffff" xlink:href="#b"/>
</g>
<g clip-path="url(#a)">
<use x="922.033605" y="559.344617" fill="#ffffff" stroke="#ffffff" xlink:href="#b"/>
</g>
<g clip-path="url(#a)">
<use x="730.494013" y="559.344617" fill="#ffffff" stroke="#ffffff" xlink:href="#b"/>
</g>
<g clip-path="url(#a)">
<use x="778.378911" y="559.344617" fill="#ffffff" stroke="#ffffff" xlink:href="#b"/>
</g>
<g clip-path="url(#a)">
<use x="586.83932" y="559.344617" fill="#ffffff" stroke="#ffffff" xlink:href="#b"/>
</g>
<g clip-path="url(#a)">
<use x="634.724218" y="559.344617" fill="#ffffff" stroke="#ffffff" xlink:href="#b"/>
</g>
<g clip-path="url(#a)">
<use x="682.609116" y="559.344617" fill="#ffffff" stroke="#ffffff" xlink:href="#b"/>
</g>
<g clip-path="url(#a)">
<use x="443.184626" y="559.344617" fill="#ffffff" stroke="#ffffff" xlink:href="#b"/>
</g>
<g clip-path="url(#a)">
<use x="491.069524" y="559.344617" fill="#ffffff" stroke="#ffffff" xlink:href="#b"/>
</g>
<g clip-path="url(#a)">
<use x="84.047892" y="457.784418" fill="#ffffff" stroke="#ffffff" xlink:href="#b"/>
</g>
<g clip-path="url(#a)">
<use x="155.875239" y="559.344617" fill="#ffffff" stroke="#ffffff" xlink:href="#b"/>
</g>
<g clip-path="url(#a)">
<use x="203.760137" y="559.344617" fill="#ffffff" stroke="#ffffff" xlink:href="#b"/>
</g>
<g clip-path="url(#a)">
<use x="251.645035" y="559.344617" fill="#ffffff" stroke="#ffffff" xlink:href="#b"/>
</g>
<g clip-path="url(#a)">
<use x="299.529933" y="559.344617" fill="#ffffff" stroke="#ffffff" xlink:href="#b"/>
</g>
<g clip-path="url(#a)">
<use x="60.105443" y="559.344617" fill="#ffffff" stroke="#ffffff" xlink:href="#b"/>
</g>
<g clip-path="url(#a)">
<use x="107.990341" y="559.344617" fill="#ffffff" stroke="#ffffff" xlink:href="#b"/>
</g>
<g clip-path="url(#a)">
<use x="347.41483" y="559.344617" fill="#ffffff" stroke="#ffffff" xlink:href="#b"/>
</g>
<g clip-path="url(#a)">
<use x="969.918503" y="559.344617" fill="#ffffff" stroke="#ffffff" xlink:href="#b"/>
</g>
<g clip-path="url(#a)">
<use x="1257.22789" y="559.344617" fill="#ffffff" stroke="#ffffff" xlink:href="#b"/>
</g>
<g clip-path="url(#a)">
<g transform="translate(51.123 663.66) scale(.1 -.1)">
<use xlink:href="#v"/>
<use x="77.001953" xlink:href="#c"/>
<use x="138.525391" xlink:href="#g"/>
</g>
</g>
<g clip-path="url(#a)">
<defs>
<path id="ak" d="m9.8125 72.906h9.8594v-30.812l32.719 30.812h12.703l-36.188-33.984 38.766-38.922h-12.984l-35.016 35.109v-35.109h-9.8594z"/>
<path id="an" d="m30.609 48.391q-7.2188 0-11.422-5.6406t-4.2031-15.453 4.1719-15.453q4.1875-5.6406 11.453-5.6406 7.1875 0 11.375 5.6562 4.2031 5.6719 4.2031 15.438 0 9.7188-4.2031 15.406-4.1875 5.6875-11.375 5.6875zm0 7.6094q11.719 0 18.406-7.625 6.7031-7.6094 6.7031-21.078 0-13.422-6.7031-21.078-6.6875-7.6406-18.406-7.6406-11.766 0-18.438 7.6406-6.6562 7.6562-6.6562 21.078 0 13.469 6.6562 21.078 6.6719 7.625 18.438 7.625z"/>
<path id="y" d="m37.109 75.984v-7.4844h-8.5938q-4.8281 0-6.7188-1.9531-1.875-1.9531-1.875-7.0312v-4.8281h14.797v-6.9844h-14.797v-47.703h-9.0312v47.703h-8.5938v6.9844h8.5938v3.8125q0 9.125 4.25 13.297 4.25 4.1875 13.469 4.1875z"/>
</defs>
<g transform="translate(93.004 663.66) scale(.1 -.1)">
<use xlink:href="#ak"/>
<use x="65.498047" xlink:href="#an"/>
<use x="126.679688" xlink:href="#y"/>
<use x="161.884766" xlink:href="#y"/>
<use x="197.089844" xlink:href="#c"/>
<use x="258.613281" xlink:href="#g"/>
</g>
</g>
<g clip-path="url(#a)">
<defs>
<path id="aj" d="m4.2031 54.688h8.9844l11.234-42.672 11.172 42.672h10.594l11.234-42.672 11.188 42.672h8.9844l-14.312-54.688h-10.594l-11.766 44.828-11.812-44.828h-10.609z"/>
<path id="x" d="m8.5 21.578v33.109h8.9844v-32.766q0-7.7656 3.0156-11.656 3.0312-3.875 9.0938-3.875 7.2656 0 11.484 4.6406 4.2344 4.6406 4.2344 12.656v31h8.9844v-54.688h-8.9844v8.4062q-3.2656-4.9844-7.5938-7.4062-4.3125-2.4219-10.031-2.4219-9.4219 0-14.312 5.8594-4.875 5.8594-4.875 17.141z"/>
<path id="u" d="m45.406 46.391v29.594h8.9844v-75.984h-8.9844v8.2031q-2.8281-4.875-7.1562-7.25-4.3125-2.375-10.375-2.375-9.9062 0-16.141 7.9062-6.2188 7.9219-6.2188 20.812t6.2188 20.797q6.2344 7.9062 16.141 7.9062 6.0625 0 10.375-2.375 4.3281-2.3594 7.1562-7.2344zm-30.609-19.094q0-9.9062 4.0781-15.547t11.203-5.6406 11.219 5.6406q4.1094 5.6406 4.1094 15.547t-4.1094 15.547q-4.0938 5.6406-11.219 5.6406t-11.203-5.6406-4.0781-15.547z"/>
</defs>
<g transform="translate(140.31 663.66) scale(.1 -.1)">
<use xlink:href="#aj"/>
<use x="81.787109" xlink:href="#x"/>
<use x="145.166016" xlink:href="#g"/>
<use x="186.263672" xlink:href="#u"/>
<use x="249.740234" xlink:href="#c"/>
</g>
</g>
<g clip-path="url(#a)">
<g transform="translate(186.9 663.66) scale(.1 -.1)">
<use xlink:href="#aj"/>
<use x="81.787109" xlink:href="#e"/>
<use x="109.570312" xlink:href="#c"/>
<use x="171.09375" xlink:href="#u"/>
<use x="234.570312" xlink:href="#c"/>
<use x="296.09375" xlink:href="#g"/>
</g>
</g>
<g clip-path="url(#a)">
<defs>
<path id="o" d="m44.281 53.078v-8.5q-3.7969 1.9531-7.9062 2.9219-4.0938 0.98438-8.5 0.98438-6.6875 0-10.031-2.0469t-3.3438-6.1562q0-3.125 2.3906-4.9062t9.625-3.3906l3.0781-0.6875q9.5625-2.0469 13.594-5.7812t4.0312-10.422q0-7.625-6.0312-12.078-6.0312-4.4375-16.578-4.4375-4.3906 0-9.1562 0.85938t-10.031 2.5625v9.2812q4.9844-2.5938 9.8125-3.8906 4.8281-1.2812 9.5781-1.2812 6.3438 0 9.75 2.1719 3.4219 2.1719 3.4219 6.125 0 3.6562-2.4688 5.6094-2.4531 1.9531-10.812 3.7656l-3.125 0.73438q-8.3438 1.75-12.062 5.3906-3.7031 3.6406-3.7031 9.9844 0 7.7188 5.4688 11.906 5.4688 4.2031 15.531 4.2031 4.9688 0 9.3594-0.73438 4.4062-0.71875 8.1094-2.1875z"/>
<path id="ae" d="m18.312 70.219v-15.531h18.5v-6.9844h-18.5v-29.688q0-6.6875 1.8281-8.5938t7.4531-1.9062h9.2188v-7.5156h-9.2188q-10.406 0-14.359 3.875-3.9531 3.8906-3.9531 14.141v29.688h-6.5938v6.9844h6.5938v15.531z"/>
</defs>
<g transform="translate(242.24 663.66) scale(.1 -.1)">
<use xlink:href="#y"/>
<use x="35.205078" xlink:href="#c"/>
<use x="96.728516" xlink:href="#o"/>
<use x="148.828125" xlink:href="#ae"/>
</g>
</g>
<g clip-path="url(#a)">
<defs>
<path id="au" d="m2.9844 54.688h9.5156l17.094-45.891 17.094 45.891h9.5156l-20.516-54.688h-12.203z"/>
<path id="q" d="m48.781 52.594v-8.4062q-3.8125 2.1094-7.6406 3.1562t-7.7344 1.0469q-8.75 0-13.594-5.5469-4.8281-5.5312-4.8281-15.547t4.8281-15.562q4.8438-5.5312 13.594-5.5312 3.9062 0 7.7344 1.0469t7.6406 3.1562v-8.3125q-3.7656-1.75-7.7969-2.625-4.0156-0.89062-8.5625-0.89062-12.359 0-19.641 7.7656-7.2656 7.7656-7.2656 20.953 0 13.375 7.3438 21.031 7.3594 7.6719 20.156 7.6719 4.1406 0 8.0938-0.85938 3.9531-0.84375 7.6719-2.5469z"/>
<path id="t" d="m54.891 33.016v-33.016h-8.9844v32.719q0 7.7656-3.0312 11.609-3.0312 3.8594-9.0781 3.8594-7.2812 0-11.484-4.6406-4.2031-4.625-4.2031-12.641v-30.906h-9.0312v75.984h9.0312v-29.797q3.2344 4.9375 7.5938 7.375 4.375 2.4375 10.094 2.4375 9.4219 0 14.25-5.8281 4.8438-5.8281 4.8438-17.156z"/>
</defs>
<g transform="translate(267.01 663.66) scale(.1 -.1)">
<use xlink:href="#au"/>
<use x="59.179688" xlink:href="#c"/>
<use x="120.703125" xlink:href="#g"/>
<use x="161.816406" xlink:href="#o"/>
<use x="213.916016" xlink:href="#q"/>
<use x="268.896484" xlink:href="#t"/>
<use x="332.275391" xlink:href="#i"/>
<use x="360.058594" xlink:href="#an"/>
<use x="421.240234" xlink:href="#o"/>
<use x="473.339844" xlink:href="#o"/>
<use x="525.439453" xlink:href="#c"/>
<use x="586.962891" xlink:href="#h"/>
</g>
</g>
<g clip-path="url(#a)">
<defs>
<path id="am" d="m11.719 12.406h10.297v-8.4062l-8-15.625h-6.2969l4 15.625z"/>
</defs>
<g transform="translate(345.83 663.66) scale(.1 -.1)">
<use xlink:href="#am"/>
</g>
</g>
<g clip-path="url(#a)">
<g transform="translate(385.79 663.66) scale(.1 -.1)">
<use xlink:href="#x"/>
<use x="63.378906" xlink:href="#h"/>
<use x="126.757812" xlink:href="#u"/>
</g>
</g>
<g clip-path="url(#a)">
<g transform="translate(434.88 663.66) scale(.1 -.1)">
<use xlink:href="#u"/>
<use x="63.476562" xlink:href="#c"/>
<use x="125" xlink:href="#g"/>
</g>
</g>
<g clip-path="url(#a)">
<defs>
<path id="av" d="m18.109 8.2031v-29h-9.0312v75.484h9.0312v-8.2969q2.8438 4.875 7.1562 7.2344 4.3281 2.375 10.328 2.375 9.9688 0 16.188-7.9062 6.2344-7.9062 6.2344-20.797t-6.2344-20.812q-6.2188-7.9062-16.188-7.9062-6 0-10.328 2.375-4.3125 2.375-7.1562 7.25zm30.578 19.094q0 9.9062-4.0781 15.547t-11.203 5.6406q-7.1406 0-11.219-5.6406t-4.0781-15.547 4.0781-15.547 11.219-5.6406q7.125 0 11.203 5.6406t4.0781 15.547z"/>
<path id="as" d="m34.281 27.484q-10.891 0-15.094-2.4844t-4.2031-8.5q0-4.7812 3.1562-7.5938 3.1562-2.7969 8.5625-2.7969 7.4844 0 12 5.2969t4.5156 14.078v2zm17.922 3.7188v-31.203h-8.9844v8.2969q-3.0781-4.9688-7.6719-7.3438t-11.234-2.375q-8.3906 0-13.359 4.7188-4.9531 4.7188-4.9531 12.625 0 9.2188 6.1719 13.906 6.1875 4.6875 18.438 4.6875h12.609v0.89062q0 6.2031-4.0781 9.5938t-11.453 3.3906q-4.6875 0-9.1406-1.125-4.4375-1.125-8.5312-3.375v8.3125q4.9219 1.9062 9.5625 2.8438 4.6406 0.95312 9.0312 0.95312 11.875 0 17.734-6.1562 5.8594-6.1406 5.8594-18.641zm-18.609 44.578h9.9062v-9.8594h-9.9062zm-19.094 0h9.9062v-9.8594h-9.9062z"/>
</defs>
<g transform="translate(471.97 663.66) scale(.1 -.1)">
<use xlink:href="#ak"/>
<use x="65.560547" xlink:href="#j"/>
<use x="126.839844" xlink:href="#av"/>
<use x="190.316406" xlink:href="#e"/>
<use x="218.099609" xlink:href="#ae"/>
<use x="257.308594" xlink:href="#as"/>
<use x="318.587891" xlink:href="#h"/>
</g>
</g>
<g clip-path="url(#a)">
<defs>
<path id="ao" d="m48.688 27.297q0 9.9062-4.0781 15.547t-11.203 5.6406q-7.1406 0-11.219-5.6406t-4.0781-15.547 4.0781-15.547 11.219-5.6406q7.125 0 11.203 5.6406t4.0781 15.547zm-30.578 19.094q2.8438 4.875 7.1562 7.2344 4.3281 2.375 10.328 2.375 9.9688 0 16.188-7.9062 6.2344-7.9062 6.2344-20.797t-6.2344-20.812q-6.2188-7.9062-16.188-7.9062-6 0-10.328 2.375-4.3125 2.375-7.1562 7.25v-8.2031h-9.0312v75.984h9.0312z"/>
</defs>
<g transform="translate(520.74 663.66) scale(.1 -.1)">
<use xlink:href="#o"/>
<use x="52.099609" xlink:href="#q"/>
<use x="107.080078" xlink:href="#t"/>
<use x="170.458984" xlink:href="#g"/>
<use x="211.572266" xlink:href="#e"/>
<use x="239.355469" xlink:href="#c"/>
<use x="300.878906" xlink:href="#ao"/>
</g>
</g>
<g clip-path="url(#a)">
<g transform="translate(578.85 663.66) scale(.1 -.1)">
<use xlink:href="#j"/>
<use x="61.279297" xlink:href="#x"/>
<use x="124.658203" xlink:href="#y"/>
</g>
</g>
<g clip-path="url(#a)">
<g transform="translate(618.24 663.66) scale(.1 -.1)">
<use xlink:href="#o"/>
<use x="52.099609" xlink:href="#c"/>
<use x="113.623047" xlink:href="#e"/>
<use x="141.40625" xlink:href="#h"/>
<use x="204.785156" xlink:href="#c"/>
<use x="266.308594" xlink:href="#h"/>
</g>
</g>
<g clip-path="url(#a)">
<defs>
<path id="aw" d="m9.0781 75.984h9.0312v-44.875l26.812 23.578h11.469l-29-25.578 30.234-29.109h-11.719l-27.797 26.703v-26.703h-9.0312z"/>
</defs>
<g transform="translate(665.57 663.66) scale(.1 -.1)">
<use xlink:href="#v"/>
<use x="77.001953" xlink:href="#c"/>
<use x="138.525391" xlink:href="#q"/>
<use x="193.505859" xlink:href="#aw"/>
<use x="251.369141" xlink:href="#c"/>
<use x="312.892578" xlink:href="#i"/>
</g>
</g>
<g clip-path="url(#a)">
<g transform="translate(719.78 663.66) scale(.1 -.1)">
<use xlink:href="#c"/>
<use x="61.523438" xlink:href="#e"/>
<use x="89.306641" xlink:href="#h"/>
<use x="152.685547" xlink:href="#c"/>
</g>
</g>
<g clip-path="url(#a)">
<g transform="translate(758.37 663.66) scale(.1 -.1)">
<use xlink:href="#p"/>
<use x="68.392578" xlink:href="#u"/>
<use x="131.869141" xlink:href="#g"/>
<use x="172.951172" xlink:href="#c"/>
<use x="234.474609" xlink:href="#o"/>
<use x="286.574219" xlink:href="#o"/>
<use x="338.673828" xlink:href="#c"/>
</g>
</g>
<g clip-path="url(#a)">
<g transform="translate(821.71 663.66) scale(.1 -.1)">
<use xlink:href="#e"/>
<use x="27.783203" xlink:href="#h"/>
</g>
</g>
<g clip-path="url(#a)">
<g transform="translate(861.38 663.66) scale(.1 -.1)">
<use xlink:href="#c"/>
<use x="61.523438" xlink:href="#e"/>
<use x="89.306641" xlink:href="#h"/>
<use x="152.685547" xlink:href="#c"/>
<use x="214.208984" xlink:href="#g"/>
</g>
</g>
<g clip-path="url(#a)">
<g transform="translate(905.78 663.66) scale(.1 -.1)">
<use xlink:href="#ag"/>
<use x="63.476562" xlink:href="#q"/>
<use x="118.457031" xlink:href="#t"/>
<use x="181.835938" xlink:href="#g"/>
<use x="222.949219" xlink:href="#e"/>
<use x="250.732422" xlink:href="#y"/>
<use x="285.921875" xlink:href="#ae"/>
</g>
</g>
<g clip-path="url(#a)">
<g transform="translate(968.33 663.66) scale(.1 -.1)">
<use xlink:href="#am"/>
</g>
</g>
<g clip-path="url(#a)">
<g transform="translate(1000.3 663.66) scale(.1 -.1)">
<use xlink:href="#aj"/>
<use x="81.787109" xlink:href="#c"/>
<use x="143.310547" xlink:href="#i"/>
<use x="171.09375" xlink:href="#q"/>
<use x="226.074219" xlink:href="#t"/>
<use x="289.453125" xlink:href="#c"/>
</g>
</g>
<g clip-path="url(#a)">
<g transform="translate(1058 663.66) scale(.1 -.1)">
<use xlink:href="#u"/>
<use x="63.476562" xlink:href="#e"/>
<use x="91.259766" xlink:href="#c"/>
</g>
</g>
<g clip-path="url(#a)">
<defs>
<path id="ax" d="m45.406 27.984q0 9.7656-4.0312 15.125-4.0156 5.375-11.297 5.375-7.2188 0-11.25-5.375-4.0312-5.3594-4.0312-15.125 0-9.7188 4.0312-15.094t11.25-5.375q7.2812 0 11.297 5.375 4.0312 5.375 4.0312 15.094zm8.9844-21.203q0-13.953-6.2031-20.766-6.1875-6.8125-18.984-6.8125-4.7344 0-8.9375 0.70312t-8.1562 2.1719v8.7344q3.9531-2.1406 7.8125-3.1562 3.8594-1.0312 7.8594-1.0312 8.8438 0 13.234 4.6094t4.3906 13.938v4.4531q-2.7812-4.8438-7.125-7.2344t-10.406-2.3906q-10.047 0-16.203 7.6562-6.1562 7.6719-6.1562 20.328 0 12.688 6.1562 20.344 6.1562 7.6719 16.203 7.6719 6.0625 0 10.406-2.3906t7.125-7.2188v8.2969h8.9844z"/>
</defs>
<g transform="translate(1075.6 663.66) scale(.1 -.1)">
<use xlink:href="#h"/>
<use x="63.378906" xlink:href="#c"/>
<use x="124.902344" xlink:href="#x"/>
<use x="188.28125" xlink:href="#ax"/>
<use x="251.757812" xlink:href="#g"/>
<use x="292.871094" xlink:href="#e"/>
<use x="320.654297" xlink:href="#c"/>
<use x="382.177734" xlink:href="#q"/>
<use x="437.158203" xlink:href="#t"/>
<use x="500.537109" xlink:href="#e"/>
<use x="528.320312" xlink:href="#o"/>
<use x="580.419922" xlink:href="#q"/>
<use x="635.400391" xlink:href="#t"/>
<use x="698.779297" xlink:href="#c"/>
</g>
</g>
<g clip-path="url(#a)">
<g transform="translate(1151.2 663.66) scale(.1 -.1)">
<use xlink:href="#o"/>
<use x="52.099609" xlink:href="#c"/>
<use x="113.623047" xlink:href="#e"/>
<use x="141.40625" xlink:href="#h"/>
</g>
</g>
<g clip-path="url(#a)">
<defs>
<path id="at" d="m9.0781 55.516q0 9.7656 5.8281 15.109 5.8438 5.3594 16.484 5.3594 10.156 0 15.5-5.6719 5.3594-5.6562 5.5-16.594-7.375-0.39062-11.484-3.2031-4.0938-2.8125-4.0938-7.5 0-2.2969 1.4219-4.2812 1.4219-1.9688 4.5938-4.0156l2.7812-1.8125q8.1094-5.1719 10.453-8.6406t2.3438-8.3438q0-8.4062-5.5-12.875t-15.797-4.4688q-3.125 0-6.4531 0.60938-3.3125 0.60938-6.875 1.7969v8q3.9062-1.4688 7.3125-2.1719 3.4219-0.70312 6.6094-0.70312 5.6562 0 8.5781 2.3125 2.9375 2.3281 2.9375 6.7656 0 3.0781-1.4375 5.125t-6.375 5.0781l-4.4844 2.6875q-4.6875 2.875-6.8125 6.1719t-2.125 7.75q0 6.1875 4.0781 10.391t11.438 5.625q-0.39062 5.0156-3.5938 7.75-3.1875 2.7344-8.7031 2.7344-6.3438 0-9.6719-3.3906-3.3125-3.3906-3.3125-9.7812v-55.328h-9.1406z"/>
</defs>
<g transform="translate(1193.1 663.66) scale(.1 -.1)">
<use xlink:href="#k"/>
<use x="97.412109" xlink:href="#x"/>
<use x="160.791016" xlink:href="#at"/>
<use x="223.779297" xlink:href="#ae"/>
<use x="262.988281" xlink:href="#c"/>
</g>
</g>
<g clip-path="url(#a)">
<defs>
<path id="f" d="m10.688 12.406h10.312v-12.406h-10.312z"/>
</defs>
<g transform="translate(1255.6 663.66) scale(.1 -.1)">
<use xlink:href="#f"/>
</g>
</g>
<g clip-path="url(#a)">
<defs>
<path id="d" d="m12.406 8.2969h16.109v55.625l-17.531-3.5156v8.9844l17.438 3.5156h9.8594v-64.609h16.109v-8.2969h-41.984z"/>
</defs>
<g transform="translate(394.25 35.188) scale(.1 -.1)">
<use xlink:href="#d"/>
<use x="63.623047" xlink:href="#f"/>
<use x="95.410156" xlink:href="#d"/>
</g>
</g>
<g clip-path="url(#a)">
<defs>
<path id="m" d="m19.188 8.2969h34.422v-8.2969h-46.281v8.2969q5.6094 5.8125 15.297 15.594 9.7031 9.7969 12.188 12.641 4.7344 5.3125 6.6094 9 1.8906 3.6875 1.8906 7.25 0 5.8125-4.0781 9.4688-4.0781 3.6719-10.625 3.6719-4.6406 0-9.7969-1.6094-5.1406-1.6094-11-4.8906v9.9688q5.9531 2.3906 11.125 3.6094 5.1875 1.2188 9.4844 1.2188 11.328 0 18.062-5.6719 6.7344-5.6562 6.7344-15.125 0-4.5-1.6875-8.5312-1.6719-4.0156-6.125-9.4844-1.2188-1.4219-7.7656-8.1875-6.5312-6.7656-18.453-18.922z"/>
</defs>
<g transform="translate(191.02 357.57) scale(.1 -.1)">
<use xlink:href="#d"/>
<use x="63.623047" xlink:href="#f"/>
<use x="95.410156" xlink:href="#m"/>
</g>
</g>
<g clip-path="url(#a)">
<defs>
<path id="w" d="m37.797 64.312-24.906-38.922h24.906zm-2.5938 8.5938h12.406v-47.516h10.406v-8.2031h-10.406v-17.188h-9.8125v17.188h-32.906v9.5156z"/>
</defs>
<g transform="translate(387.35 562.1) scale(.1 -.1)">
<use xlink:href="#d"/>
<use x="63.623047" xlink:href="#f"/>
<use x="95.410156" xlink:href="#w"/>
</g>
</g>
<g clip-path="url(#a)">
<defs>
<path id="ac" d="m10.797 72.906h38.719v-8.3125h-29.688v-17.859q2.1406 0.73438 4.2812 1.0938 2.1562 0.35938 4.3125 0.35938 12.203 0 19.328-6.6875 7.1406-6.6875 7.1406-18.109 0-11.766-7.3281-18.297-7.3281-6.5156-20.656-6.5156-4.5938 0-9.3594 0.78125-4.75 0.78125-9.8281 2.3438v9.9219q4.3906-2.3906 9.0781-3.5625t9.9062-1.1719q8.4531 0 13.375 4.4375 4.9375 4.4375 4.9375 12.062 0 7.6094-4.9375 12.047-4.9219 4.4531-13.375 4.4531-3.9531 0-7.8906-0.875-3.9219-0.875-8.0156-2.7344z"/>
</defs>
<g transform="translate(659.17 145.27) scale(.1 -.1)">
<use xlink:href="#d"/>
<use x="63.623047" xlink:href="#f"/>
<use x="95.410156" xlink:href="#ac"/>
</g>
</g>
<g clip-path="url(#a)">
<defs>
<path id="ab" d="m8.2031 72.906h46.875v-4.2031l-26.469-68.703h-10.297l24.906 64.594h-35.016z"/>
</defs>
<g transform="translate(459.18 460.54) scale(.1 -.1)">
<use xlink:href="#d"/>
<use x="63.623047" xlink:href="#f"/>
<use x="95.410156" xlink:href="#ab"/>
</g>
</g>
<g clip-path="url(#a)">
<defs>
<path id="aa" d="m31.781 34.625q-7.0312 0-11.062-3.7656-4.0156-3.7656-4.0156-10.344 0-6.5938 4.0156-10.359 4.0312-3.7656 11.062-3.7656t11.078 3.7812q4.0625 3.7969 4.0625 10.344 0 6.5781-4.0312 10.344-4.0156 3.7656-11.109 3.7656zm-9.8594 4.1875q-6.3438 1.5625-9.8906 5.9062-3.5312 4.3594-3.5312 10.609 0 8.7344 6.2188 13.812 6.2344 5.0781 17.062 5.0781 10.891 0 17.094-5.0781t6.2031-13.812q0-6.25-3.5469-10.609-3.5312-4.3438-9.8281-5.9062 7.125-1.6562 11.094-6.5 3.9844-4.8281 3.9844-11.797 0-10.609-6.4688-16.281-6.4688-5.6562-18.531-5.6562-12.047 0-18.531 5.6562-6.4688 5.6719-6.4688 16.281 0 6.9688 4 11.797 4.0156 4.8438 11.141 6.5zm-3.6094 15.578q0-5.6562 3.5312-8.8281 3.5469-3.1719 9.9375-3.1719 6.3594 0 9.9375 3.1719 3.5938 3.1719 3.5938 8.8281 0 5.6719-3.5938 8.8438-3.5781 3.1719-9.9375 3.1719-6.3906 0-9.9375-3.1719-3.5312-3.1719-3.5312-8.8438z"/>
</defs>
<g transform="translate(531 562.1) scale(.1 -.1)">
<use xlink:href="#d"/>
<use x="63.623047" xlink:href="#f"/>
<use x="95.410156" xlink:href="#aa"/>
</g>
</g>
<g clip-path="url(#a)">
<defs>
<path id="z" d="m10.984 1.5156v8.9844q3.7188-1.7656 7.5156-2.6875 3.8125-0.92188 7.4844-0.92188 9.7656 0 14.906 6.5625 5.1562 6.5625 5.8906 19.953-2.8281-4.2031-7.1875-6.4531-4.3438-2.25-9.6094-2.25-10.938 0-17.312 6.6094-6.375 6.625-6.375 18.109 0 11.219 6.6406 18 6.6406 6.7969 17.672 6.7969 12.656 0 19.312-9.7031 6.6719-9.6875 6.6719-28.141 0-17.234-8.1875-27.516-8.1719-10.281-21.984-10.281-3.7188 0-7.5312 0.73438-3.7969 0.73438-7.9062 2.2031zm19.625 30.906q6.6406 0 10.516 4.5312 3.8906 4.5469 3.8906 12.469 0 7.8594-3.8906 12.422-3.875 4.5625-10.516 4.5625t-10.516-4.5625-3.875-12.422q0-7.9219 3.875-12.469 3.875-4.5312 10.516-4.5312z"/>
</defs>
<g transform="translate(626.77 460.54) scale(.1 -.1)">
<use xlink:href="#d"/>
<use x="63.623047" xlink:href="#f"/>
<use x="95.410156" xlink:href="#z"/>
</g>
</g>
<g clip-path="url(#a)">
<defs>
<path id="ad" d="m31.781 66.406q-7.6094 0-11.453-7.5-3.8281-7.4844-3.8281-22.531 0-14.984 3.8281-22.484 3.8438-7.5 11.453-7.5 7.6719 0 11.5 7.5 3.8438 7.5 3.8438 22.484 0 15.047-3.8438 22.531-3.8281 7.5-11.5 7.5zm0 7.8125q12.266 0 18.734-9.7031 6.4688-9.6875 6.4688-28.141 0-18.406-6.4688-28.109-6.4688-9.6875-18.734-9.6875-12.25 0-18.719 9.6875-6.4688 9.7031-6.4688 28.109 0 18.453 6.4688 28.141 6.4688 9.7031 18.719 9.7031z"/>
</defs>
<g transform="translate(743.3 460.54) scale(.1 -.1)">
<use xlink:href="#d"/>
<use x="63.623047" xlink:href="#f"/>
<use x="95.410156" xlink:href="#d"/>
<use x="159.033203" xlink:href="#ad"/>
</g>
</g>
<g clip-path="url(#a)">
<g transform="translate(929.26 252.61) scale(.1 -.1)">
<use xlink:href="#d"/>
<use x="63.623047" xlink:href="#f"/>
<use x="95.410156" xlink:href="#d"/>
<use x="159.033203" xlink:href="#d"/>
</g>
</g>
<g clip-path="url(#a)">
<g transform="translate(1098.4 357.57) scale(.1 -.1)">
<use xlink:href="#d"/>
<use x="63.623047" xlink:href="#f"/>
<use x="95.410156" xlink:href="#d"/>
<use x="159.033203" xlink:href="#w"/>
</g>
</g>
<g clip-path="url(#a)">
<g transform="translate(1006.7 562.1) scale(.1 -.1)">
<use xlink:href="#d"/>
<use x="63.623047" xlink:href="#f"/>
<use x="95.410156" xlink:href="#d"/>
<use x="159.033203" xlink:href="#ac"/>
</g>
</g>
<g clip-path="url(#a)">
<defs>
<path id="ai" d="m33.016 40.375q-6.6406 0-10.531-4.5469-3.875-4.5312-3.875-12.438 0-7.8594 3.875-12.438 3.8906-4.5625 10.531-4.5625t10.516 4.5625q3.875 4.5781 3.875 12.438 0 7.9062-3.875 12.438-3.875 4.5469-10.516 4.5469zm19.578 30.922v-8.9844q-3.7188 1.75-7.5 2.6719-3.7812 0.9375-7.5 0.9375-9.7656 0-14.922-6.5938-5.1406-6.5938-5.875-19.922 2.875 4.25 7.2188 6.5156 4.3594 2.2656 9.5781 2.2656 10.984 0 17.359-6.6719 6.375-6.6562 6.375-18.125 0-11.234-6.6406-18.031-6.6406-6.7812-17.672-6.7812-12.656 0-19.344 9.6875-6.6875 9.7031-6.6875 28.109 0 17.281 8.2031 27.562t22.016 10.281q3.7188 0 7.5-0.73438t7.8906-2.1875z"/>
</defs>
<g transform="translate(1078.5 460.54) scale(.1 -.1)">
<use xlink:href="#d"/>
<use x="63.623047" xlink:href="#f"/>
<use x="95.410156" xlink:href="#d"/>
<use x="159.033203" xlink:href="#ai"/>
</g>
</g>
<g clip-path="url(#a)">
<g transform="translate(1150.3 562.1) scale(.1 -.1)">
<use xlink:href="#d"/>
<use x="63.623047" xlink:href="#f"/>
<use x="95.410156" xlink:href="#d"/>
<use x="159.033203" xlink:href="#ab"/>
</g>
</g>
<g clip-path="url(#a)">
<g transform="translate(1198.2 562.1) scale(.1 -.1)">
<use xlink:href="#d"/>
<use x="63.623047" xlink:href="#f"/>
<use x="95.410156" xlink:href="#d"/>
<use x="159.033203" xlink:href="#aa"/>
</g>
</g>
<g clip-path="url(#a)">
<g transform="translate(1054.6 562.1) scale(.1 -.1)">
<use xlink:href="#d"/>
<use x="63.623047" xlink:href="#f"/>
<use x="95.410156" xlink:href="#d"/>
<use x="159.033203" xlink:href="#z"/>
</g>
</g>
<g clip-path="url(#a)">
<g transform="translate(1102.4 562.1) scale(.1 -.1)">
<use xlink:href="#d"/>
<use x="63.623047" xlink:href="#f"/>
<use x="95.410156" xlink:href="#m"/>
<use x="159.033203" xlink:href="#ad"/>
</g>
</g>
<g clip-path="url(#a)">
<g transform="translate(815.13 562.1) scale(.1 -.1)">
<use xlink:href="#d"/>
<use x="63.623047" xlink:href="#f"/>
<use x="95.410156" xlink:href="#m"/>
<use x="159.033203" xlink:href="#d"/>
</g>
</g>
<g clip-path="url(#a)">
<g transform="translate(863.02 562.1) scale(.1 -.1)">
<use xlink:href="#d"/>
<use x="63.623047" xlink:href="#f"/>
<use x="95.410156" xlink:href="#m"/>
<use x="159.033203" xlink:href="#m"/>
</g>
</g>
<g clip-path="url(#a)">
<defs>
<path id="n" d="m40.578 39.312q7.0781-1.5156 11.047-6.3125 3.9844-4.7812 3.9844-11.812 0-10.781-7.4219-16.703-7.4219-5.9062-21.094-5.9062-4.5781 0-9.4375 0.90625t-10.031 2.7188v9.5156q4.0938-2.3906 8.9688-3.6094 4.8906-1.2188 10.219-1.2188 9.2656 0 14.125 3.6562t4.8594 10.641q0 6.4531-4.5156 10.078-4.5156 3.6406-12.562 3.6406h-8.5v8.1094h8.8906q7.2656 0 11.125 2.9062t3.8594 8.375q0 5.6094-3.9844 8.6094-3.9688 3.0156-11.391 3.0156-4.0625 0-8.7031-0.89062-4.6406-0.875-10.203-2.7188v8.7812q5.625 1.5625 10.531 2.3438t9.25 0.78125q11.234 0 17.766-5.1094 6.5469-5.0938 6.5469-13.781 0-6.0625-3.4688-10.234t-9.8594-5.7812z"/>
</defs>
<g transform="translate(910.9 562.1) scale(.1 -.1)">
<use xlink:href="#d"/>
<use x="63.623047" xlink:href="#f"/>
<use x="95.410156" xlink:href="#m"/>
<use x="159.033203" xlink:href="#n"/>
</g>
</g>
<g clip-path="url(#a)">
<g transform="translate(719.36 562.1) scale(.1 -.1)">
<use xlink:href="#d"/>
<use x="63.623047" xlink:href="#f"/>
<use x="95.410156" xlink:href="#m"/>
<use x="159.033203" xlink:href="#w"/>
</g>
</g>
<g clip-path="url(#a)">
<g transform="translate(767.25 562.1) scale(.1 -.1)">
<use xlink:href="#d"/>
<use x="63.623047" xlink:href="#f"/>
<use x="95.410156" xlink:href="#m"/>
<use x="159.033203" xlink:href="#ac"/>
</g>
</g>
<g clip-path="url(#a)">
<g transform="translate(575.71 562.1) scale(.1 -.1)">
<use xlink:href="#d"/>
<use x="63.623047" xlink:href="#f"/>
<use x="95.410156" xlink:href="#m"/>
<use x="159.033203" xlink:href="#ai"/>
</g>
</g>
<g clip-path="url(#a)">
<g transform="translate(623.59 562.1) scale(.1 -.1)">
<use xlink:href="#d"/>
<use x="63.623047" xlink:href="#f"/>
<use x="95.410156" xlink:href="#m"/>
<use x="159.033203" xlink:href="#ab"/>
</g>
</g>
<g clip-path="url(#a)">
<g transform="translate(671.48 562.1) scale(.1 -.1)">
<use xlink:href="#d"/>
<use x="63.623047" xlink:href="#f"/>
<use x="95.410156" xlink:href="#m"/>
<use x="159.033203" xlink:href="#aa"/>
</g>
</g>
<g clip-path="url(#a)">
<g transform="translate(432.05 562.1) scale(.1 -.1)">
<use xlink:href="#d"/>
<use x="63.623047" xlink:href="#f"/>
<use x="95.410156" xlink:href="#m"/>
<use x="159.033203" xlink:href="#z"/>
</g>
</g>
<g clip-path="url(#a)">
<g transform="translate(479.94 562.1) scale(.1 -.1)">
<use xlink:href="#d"/>
<use x="63.623047" xlink:href="#f"/>
<use x="95.410156" xlink:href="#n"/>
<use x="159.033203" xlink:href="#ad"/>
</g>
</g>
<g clip-path="url(#a)">
<g transform="translate(72.915 460.54) scale(.1 -.1)">
<use xlink:href="#d"/>
<use x="63.623047" xlink:href="#f"/>
<use x="95.410156" xlink:href="#n"/>
<use x="159.033203" xlink:href="#d"/>
</g>
</g>
<g clip-path="url(#a)">
<g transform="translate(144.74 562.1) scale(.1 -.1)">
<use xlink:href="#d"/>
<use x="63.623047" xlink:href="#f"/>
<use x="95.410156" xlink:href="#n"/>
<use x="159.033203" xlink:href="#m"/>
</g>
</g>
<g clip-path="url(#a)">
<g transform="translate(192.63 562.1) scale(.1 -.1)">
<use xlink:href="#d"/>
<use x="63.623047" xlink:href="#f"/>
<use x="95.410156" xlink:href="#n"/>
<use x="159.033203" xlink:href="#n"/>
</g>
</g>
<g clip-path="url(#a)">
<g transform="translate(240.51 562.1) scale(.1 -.1)">
<use xlink:href="#d"/>
<use x="63.623047" xlink:href="#f"/>
<use x="95.410156" xlink:href="#n"/>
<use x="159.033203" xlink:href="#w"/>
</g>
</g>
<g clip-path="url(#a)">
<g transform="translate(288.4 562.1) scale(.1 -.1)">
<use xlink:href="#d"/>
<use x="63.623047" xlink:href="#f"/>
<use x="95.410156" xlink:href="#n"/>
<use x="159.033203" xlink:href="#ac"/>
</g>
</g>
<g clip-path="url(#a)">
<g transform="translate(48.973 562.1) scale(.1 -.1)">
<use xlink:href="#d"/>
<use x="63.623047" xlink:href="#f"/>
<use x="95.410156" xlink:href="#n"/>
<use x="159.033203" xlink:href="#ai"/>
</g>
</g>
<g clip-path="url(#a)">
<g transform="translate(96.858 562.1) scale(.1 -.1)">
<use xlink:href="#d"/>
<use x="63.623047" xlink:href="#f"/>
<use x="95.410156" xlink:href="#n"/>
<use x="159.033203" xlink:href="#ab"/>
</g>
</g>
<g clip-path="url(#a)">
<g transform="translate(336.28 562.1) scale(.1 -.1)">
<use xlink:href="#d"/>
<use x="63.623047" xlink:href="#f"/>
<use x="95.410156" xlink:href="#n"/>
<use x="159.033203" xlink:href="#aa"/>
</g>
</g>
<g clip-path="url(#a)">
<g transform="translate(958.79 562.1) scale(.1 -.1)">
<use xlink:href="#d"/>
<use x="63.623047" xlink:href="#f"/>
<use x="95.410156" xlink:href="#n"/>
<use x="159.033203" xlink:href="#z"/>
</g>
</g>
<g clip-path="url(#a)">
<g transform="translate(1246.1 562.1) scale(.1 -.1)">
<use xlink:href="#d"/>
<use x="63.623047" xlink:href="#f"/>
<use x="95.410156" xlink:href="#w"/>
<use x="159.033203" xlink:href="#ad"/>
</g>
</g>
<defs>
<clipPath id="a">
<rect width="1317.3" height="693.33"/>
</clipPath>
</defs>
</svg>
