<?xml version="1.0" encoding="UTF-8"?>
<!DOCTYPE svg  PUBLIC '-//W3C//DTD SVG 1.1//EN'  'http://www.w3.org/Graphics/SVG/1.1/DTD/svg11.dtd'>
<svg width="1824pt" height="960pt" version="1.1" viewBox="0 0 1824 960" xmlns="http://www.w3.org/2000/svg" xmlns:xlink="http://www.w3.org/1999/xlink">
<defs>
<style type="text/css">*{stroke-linecap:butt;stroke-linejoin:round;}</style>
</defs>
<path d="m0 960h1824v-960h-1824z" fill="#fff"/>
<g fill="none" stroke="#000">
<path d="m888.2 44.55-596.39 152.54" clip-path="url(#a)"/>
<path d="m888.2 44.55 142.22 730.16" clip-path="url(#a)"/>
<path d="m888.2 44.55 359.32 152.54" clip-path="url(#a)"/>
<path d="m888.2 44.55 94.853 730.16" clip-path="url(#a)"/>
<path d="m291.8 197.09-208.73 577.62" clip-path="url(#a)"/>
<path d="m291.8 197.09-161.36 577.62" clip-path="url(#a)"/>
<path d="m291.8 197.09-114 577.62" clip-path="url(#a)"/>
<path d="m291.8 197.09-66.63 577.62" clip-path="url(#a)"/>
<path d="m291.8 197.09 35.999 294.2" clip-path="url(#a)"/>
<path d="m291.8 197.09 344.52 148.75" clip-path="url(#a)"/>
<path d="m291.8 197.09 170.21 577.62" clip-path="url(#a)"/>
<path d="m1030.4 774.71v140.74" clip-path="url(#a)"/>
<path d="m1247.5 197.09-169.73 577.62" clip-path="url(#a)"/>
<path d="m1247.5 197.09-122.37 577.62" clip-path="url(#a)"/>
<path d="m1247.5 197.09-51.315 436.89" clip-path="url(#a)"/>
<path d="m1247.5 197.09 19.736 577.62" clip-path="url(#a)"/>
<path d="m1247.5 197.09 67.104 577.62" clip-path="url(#a)"/>
<path d="m1247.5 197.09 256.57 148.75" clip-path="url(#a)"/>
<path d="m1077.8 774.71v140.74" clip-path="url(#a)"/>
<path d="m1125.2 774.71v140.74" clip-path="url(#a)"/>
<path d="m1196.2 633.98-23.684 140.74" clip-path="url(#a)"/>
<path d="m1196.2 633.98 23.684 140.74" clip-path="url(#a)"/>
<path d="m1267.3 774.71v140.74" clip-path="url(#a)"/>
<path d="m1314.6 774.71v140.74" clip-path="url(#a)"/>
<path d="m1504.1 345.85-142.1 428.87" clip-path="url(#a)"/>
<path d="m1504.1 345.85-23.684 145.44" clip-path="url(#a)"/>
<path d="m1504.1 345.85 165.79 288.13" clip-path="url(#a)"/>
<path d="m1362 774.71v140.74" clip-path="url(#a)"/>
<path d="m1480.4 491.29-71.051 283.43" clip-path="url(#a)"/>
<path d="m1480.4 491.29v142.69" clip-path="url(#a)"/>
<path d="m1480.4 491.29 71.051 283.43" clip-path="url(#a)"/>
<path d="m1669.9 633.98-71.051 140.74" clip-path="url(#a)"/>
<path d="m1669.9 633.98-23.684 140.74" clip-path="url(#a)"/>
<path d="m1669.9 633.98 23.684 140.74" clip-path="url(#a)"/>
<path d="m1669.9 633.98 71.051 140.74" clip-path="url(#a)"/>
<path d="m1598.8 774.71v140.74" clip-path="url(#a)"/>
<path d="m1646.2 774.71v140.74" clip-path="url(#a)"/>
<path d="m1693.6 774.71v140.74" clip-path="url(#a)"/>
<path d="m1409.4 774.71v140.74" clip-path="url(#a)"/>
<path d="m1480.4 633.98-23.684 140.74" clip-path="url(#a)"/>
<path d="m1480.4 633.98 23.684 140.74" clip-path="url(#a)"/>
<path d="m1551.5 774.71v140.74" clip-path="url(#a)"/>
<path d="m1456.7 774.71v140.74" clip-path="url(#a)"/>
<path d="m1504.1 774.71v140.74" clip-path="url(#a)"/>
<path d="m1172.5 774.71v140.74" clip-path="url(#a)"/>
<path d="m1219.9 774.71v140.74" clip-path="url(#a)"/>
<path d="m83.071 774.71v140.74" clip-path="url(#a)"/>
<path d="m130.44 774.71v140.74" clip-path="url(#a)"/>
<path d="m177.81 774.71v140.74" clip-path="url(#a)"/>
<path d="m225.17 774.71v140.74" clip-path="url(#a)"/>
<path d="m327.8 491.29-55.262 283.43" clip-path="url(#a)"/>
<path d="m327.8 491.29-7.8946 283.43" clip-path="url(#a)"/>
<path d="m327.8 491.29 63.156 142.69" clip-path="url(#a)"/>
<path d="m636.32 345.85-126.94 428.87" clip-path="url(#a)"/>
<path d="m636.32 345.85-79.577 428.87" clip-path="url(#a)"/>
<path d="m636.32 345.85-8.5261 288.13" clip-path="url(#a)"/>
<path d="m636.32 345.85 152.52 145.44" clip-path="url(#a)"/>
<path d="m636.32 345.85 62.525 428.87" clip-path="url(#a)"/>
<path d="m509.38 774.71v140.74" clip-path="url(#a)"/>
<path d="m556.74 774.71v140.74" clip-path="url(#a)"/>
<path d="m627.8 633.98-23.684 140.74" clip-path="url(#a)"/>
<path d="m627.8 633.98 23.684 140.74" clip-path="url(#a)"/>
<path d="m788.84 491.29-232.1 283.43" clip-path="url(#a)" stroke-dasharray="3.7,1.6"/>
<path d="m788.84 491.29-42.631 283.43" clip-path="url(#a)"/>
<path d="m788.84 491.29 28.42 142.69" clip-path="url(#a)"/>
<path d="m788.84 491.29 99.471 283.43" clip-path="url(#a)"/>
<path d="m788.84 491.29 146.84 283.43" clip-path="url(#a)"/>
<path d="m746.21 774.71v140.74" clip-path="url(#a)"/>
<path d="m817.27 633.98-23.684 140.74" clip-path="url(#a)"/>
<path d="m817.27 633.98 23.684 140.74" clip-path="url(#a)"/>
<path d="m888.32 774.71v140.74" clip-path="url(#a)"/>
<path d="m935.68 774.71v140.74" clip-path="url(#a)"/>
<path d="m793.58 774.71v140.74" clip-path="url(#a)"/>
<path d="m840.95 774.71v140.74" clip-path="url(#a)"/>
<path d="m604.11 774.71v140.74" clip-path="url(#a)"/>
<path d="m651.48 774.71v140.74" clip-path="url(#a)"/>
<path d="m272.54 774.71v140.74" clip-path="url(#a)"/>
<path d="m319.91 774.71v140.74" clip-path="url(#a)"/>
<path d="m390.96 633.98-23.684 140.74" clip-path="url(#a)"/>
<path d="m390.96 633.98 23.684 140.74" clip-path="url(#a)"/>
<path d="m367.28 774.71v140.74" clip-path="url(#a)"/>
<path d="m414.64 774.71v140.74" clip-path="url(#a)"/>
<path d="m462.01 774.71v140.74" clip-path="url(#a)"/>
<path d="m698.85 774.71v140.74" clip-path="url(#a)"/>
<path d="m983.05 774.71v140.74" clip-path="url(#a)"/>
<path d="m1740.9 774.71v140.74" clip-path="url(#a)"/>
</g>
<path d="m588.64 127.64 5.8286-1.4908q2.3252-0.59471 1.7304-2.9199l-1.9186-7.501q-0.59471-2.3252-2.9199-1.7304l-5.8286 1.4908q-2.3252 0.59471-1.7304 2.9199l1.9186 7.501q0.59471 2.3252 2.9199 1.7304z" clip-path="url(#a)" fill="#fff" stroke="#fff"/>
<g clip-path="url(#a)">
<defs>
<path id="an" d="m9.8125 72.906h9.8594v-29.891h35.844v29.891h9.8594v-72.906h-9.8594v34.719h-35.844v-34.719h-9.8594z"/>
</defs>
<g transform="translate(587.63 123.7) rotate(-14.347) scale(.08 -.08)">
<use xlink:href="#an"/>
</g>
</g>
<path d="m952.73 408.64 0.85221 4.3753q0.45885 2.3557 2.8146 1.8969l7.5997-1.4803q2.3557-0.45885 1.8969-2.8146l-0.85221-4.3753q-0.45885-2.3557-2.8146-1.8969l-7.5997 1.4803q-2.3557 0.45885-1.8969 2.8146z" clip-path="url(#a)" fill="#fff" stroke="#fff"/>
<g clip-path="url(#a)">
<defs>
<path id="ax" d="m9.8125 72.906h9.8594v-64.609h35.5v-8.2969h-45.359z"/>
</defs>
<g transform="translate(956.72 407.87) rotate(78.978) scale(.08 -.08)">
<use xlink:href="#ax"/>
</g>
</g>
<path d="m1062.6 125.42 5.5379 2.351q2.2092 0.93785 3.147-1.2713l3.0255-7.1269q0.93785-2.2092-1.2713-3.147l-5.5379-2.351q-2.2092-0.93785-3.147 1.2713l-3.0255 7.1269q-0.93785 2.2092 1.2713 3.147z" clip-path="url(#a)" fill="#fff" stroke="#fff"/>
<g clip-path="url(#a)">
<g transform="translate(1064.2 121.68) rotate(23.002) scale(.08 -.08)">
<use xlink:href="#an"/>
</g>
</g>
<path d="m929.03 407.54 0.75426 5.8062q0.30918 2.38 2.6892 2.0708l7.678-0.99742q2.38-0.30918 2.0708-2.6892l-0.75426-5.8062q-0.30918-2.38-2.6892-2.0708l-7.678 0.99742q-2.38 0.30918-2.0708 2.6892z" clip-path="url(#a)" fill="#fff" stroke="#fff"/>
<g clip-path="url(#a)">
<defs>
<path id="z" d="m8.6875 72.906h9.9219v-44.297q0-11.719 4.2344-16.875 4.25-5.1406 13.781-5.1406 9.4688 0 13.719 5.1406 4.25 5.1562 4.25 16.875v44.297h9.9062v-45.516q0-14.25-7.0625-21.531-7.0469-7.2812-20.812-7.2812-13.828 0-20.891 7.2812-7.0469 7.2812-7.0469 21.531z"/>
</defs>
<g transform="translate(933.06 407.01) rotate(82.598) scale(.08 -.08)">
<use xlink:href="#z"/>
</g>
</g>
<path d="m192.41 490.61 1.8599-5.1468q0.81565-2.2571-1.4415-3.0728l-7.2816-2.6313q-2.2571-0.81565-3.0728 1.4415l-1.8599 5.1468q-0.81565 2.2571 1.4415 3.0728l7.2816 2.6313q2.2571 0.81565 3.0728-1.4415z" clip-path="url(#a)" fill="#fff" stroke="#fff"/>
<g clip-path="url(#a)">
<defs>
<path id="r" d="m34.188 63.188-13.391-36.281h26.812zm-5.5781 9.7188h11.188l27.781-72.906h-10.25l-6.6406 18.703h-32.859l-6.6406-18.703h-10.406z"/>
</defs>
<g transform="translate(188.58 489.23) rotate(-70.132) scale(.08 -.08)">
<use xlink:href="#r"/>
</g>
</g>
<path d="m216.48 490.04 1.3665-4.8915q0.64574-2.3115-1.6658-2.9572l-7.457-2.0832q-2.3115-0.64574-2.9572 1.6658l-1.3665 4.8915q-0.64574 2.3115 1.6658 2.9572l7.457 2.0832q2.3115 0.64574 2.9572-1.6658z" clip-path="url(#a)" fill="#fff" stroke="#fff"/>
<g clip-path="url(#a)">
<defs>
<path id="al" d="m53.516 70.516v-9.625q-5.6094 2.6875-10.594 4-4.9844 1.3281-9.625 1.3281-8.0469 0-12.422-3.125t-4.375-8.8906q0-4.8438 2.9062-7.3125 2.9062-2.4531 11.016-3.9688l5.9531-1.2188q11.031-2.1094 16.281-7.4062t5.25-14.172q0-10.609-7.1094-16.078-7.0938-5.4688-20.812-5.4688-5.1719 0-11.016 1.1719-5.8281 1.1719-12.078 3.4688v10.156q6-3.3594 11.766-5.0781 5.7656-1.7031 11.328-1.7031 8.4375 0 13.031 3.3125 4.5938 3.3281 4.5938 9.4844 0 5.3594-3.2969 8.3906t-10.812 4.5469l-6.0156 1.1719q-11.031 2.1875-15.969 6.875-4.9219 4.6875-4.9219 13.047 0 9.6719 6.8125 15.234t18.766 5.5625q5.1406 0 10.453-0.9375 5.3281-0.92188 10.891-2.7656z"/>
</defs>
<g transform="translate(212.56 488.94) rotate(-74.392) scale(.08 -.08)">
<use xlink:href="#al"/>
</g>
</g>
<path d="m240.43 489.8 1.0596-5.3689q0.46469-2.3546-1.8899-2.8193l-7.596-1.4991q-2.3546-0.46469-2.8193 1.8899l-1.0596 5.3689q-0.46469 2.3546 1.8899 2.8193l7.596 1.4991q2.3546 0.46469 2.8193-1.8899z" clip-path="url(#a)" fill="#fff" stroke="#fff"/>
<g clip-path="url(#a)">
<g transform="translate(236.44 489.01) rotate(-78.836) scale(.08 -.08)">
<use xlink:href="#r"/>
</g>
</g>
<path d="m264.37 489.68 0.70589-6.1194q0.27502-2.3842-2.1092-2.6592l-7.6915-0.88723q-2.3842-0.27502-2.6592 2.1092l-0.70589 6.1194q-0.27502 2.3842 2.1092 2.6592l7.6915 0.88723q2.3842 0.27502 2.6592-2.1092z" clip-path="url(#a)" fill="#fff" stroke="#fff"/>
<g clip-path="url(#a)">
<defs>
<path id="ao" d="m19.672 64.797v-56.688h11.922q15.094 0 22.094 6.8281 7 6.8438 7 21.594 0 14.641-7 21.453t-22.094 6.8125zm-9.8594 8.1094h20.266q21.188 0 31.094-8.8125 9.9219-8.8125 9.9219-27.562 0-18.859-9.9688-27.703-9.9531-8.8281-31.047-8.8281h-20.266z"/>
</defs>
<g transform="translate(260.33 489.22) rotate(-83.42) scale(.08 -.08)">
<use xlink:href="#ao"/>
</g>
</g>
<path d="m303.25 342.23 0.66469 5.432q0.2915 2.3822 2.6737 2.0907l7.6852-0.9404q2.3822-0.2915 2.0907-2.6737l-0.66468-5.432q-0.2915-2.3822-2.6737-2.0907l-7.6852 0.9404q-2.3822 0.2915-2.0907 2.6737z" clip-path="url(#a)" fill="#fff" stroke="#fff"/>
<g clip-path="url(#a)">
<g transform="translate(307.28 341.74) rotate(83.024) scale(.08 -.08)">
<use xlink:href="#r"/>
</g>
</g>
<path d="m459.06 276.14 5.0242 2.1693q2.2034 0.95137 3.1548-1.252l3.0691-7.1082q0.95137-2.2034-1.252-3.1548l-5.0242-2.1693q-2.2034-0.95137-3.1548 1.252l-3.0691 7.1082q-0.95137 2.2034 1.252 3.1548z" clip-path="url(#a)" fill="#fff" stroke="#fff"/>
<g clip-path="url(#a)">
<g transform="translate(460.68 272.41) rotate(23.353) scale(.08 -.08)">
<use xlink:href="#r"/>
</g>
</g>
<path d="m370.06 484.87 1.6549 5.6162q0.67836 2.3021 2.9805 1.6238l7.4268-2.1884q2.3021-0.67836 1.6238-2.9805l-1.6549-5.6162q-0.67836-2.3021-2.9805-1.6238l-7.4268 2.1884q-2.3021 0.67836-1.6238 2.9805z" clip-path="url(#a)" fill="#fff" stroke="#fff"/>
<g clip-path="url(#a)">
<g transform="translate(373.96 483.72) rotate(73.581) scale(.08 -.08)">
<use xlink:href="#z"/>
</g>
</g>
<path d="m1024.1 827.44v35.285q0 2.4 2.4 2.4h7.7425q2.4 0 2.4-2.4v-35.285q0-2.4-2.4-2.4h-7.7425q-2.4 0-2.4 2.4z" clip-path="url(#a)" fill="#fff" stroke="#fff"/>
<g clip-path="url(#a)">
<defs>
<path id="l" d="m-0.29688 72.906h61.672v-8.3125h-25.875v-64.594h-9.9062v64.594h-25.891z"/>
<path id="c" d="m56.203 29.594v-4.3906h-41.312q0.59375-9.2812 5.5938-14.141t13.938-4.8594q5.1719 0 10.031 1.2656t9.6562 3.8125v-8.5q-4.8438-2.0469-9.9219-3.125t-10.297-1.0781q-13.094 0-20.734 7.6094-7.6406 7.625-7.6406 20.625 0 13.422 7.25 21.297 7.25 7.8906 19.562 7.8906 11.031 0 17.453-7.1094 6.4219-7.0938 6.4219-19.297zm-8.9844 2.6406q-0.09375 7.3594-4.125 11.75-4.0312 4.4062-10.672 4.4062-7.5156 0-12.031-4.25t-5.2031-11.969z"/>
<path id="h" d="m41.109 46.297q-1.5156 0.875-3.2969 1.2812-1.7812 0.42188-3.9219 0.42188-7.625 0-11.703-4.9531t-4.0781-14.234v-28.812h-9.0312v54.688h9.0312v-8.5q2.8438 4.9844 7.375 7.3906 4.5469 2.4219 11.047 2.4219 0.92188 0 2.0469-0.125 1.125-0.10938 2.4844-0.35938z"/>
<path id="k" d="m52 44.188q3.375 6.0625 8.0625 8.9375t11.031 2.875q8.5469 0 13.188-5.9844 4.6406-5.9688 4.6406-17v-33.016h-9.0312v32.719q0 7.8594-2.7969 11.656-2.7812 3.8125-8.4844 3.8125-6.9844 0-11.047-4.6406-4.0469-4.625-4.0469-12.641v-30.906h-9.0312v32.719q0 7.9062-2.7812 11.688t-8.5938 3.7812q-6.8906 0-10.953-4.6562-4.0469-4.6562-4.0469-12.625v-30.906h-9.0312v54.688h9.0312v-8.5q3.0781 5.0312 7.375 7.4219t10.203 2.3906q5.9688 0 10.141-3.0312 4.1719-3.0156 6.1719-8.7812z"/>
<path id="g" d="m9.4219 54.688h8.9844v-54.688h-8.9844zm0 21.297h8.9844v-11.391h-8.9844z"/>
<path id="e" d="m54.891 33.016v-33.016h-8.9844v32.719q0 7.7656-3.0312 11.609-3.0312 3.8594-9.0781 3.8594-7.2812 0-11.484-4.6406-4.2031-4.625-4.2031-12.641v-30.906h-9.0312v54.688h9.0312v-8.5q3.2344 4.9375 7.5938 7.375 4.375 2.4375 10.094 2.4375 9.4219 0 14.25-5.8281 4.8438-5.8281 4.8438-17.156z"/>
<path id="i" d="m34.281 27.484q-10.891 0-15.094-2.4844t-4.2031-8.5q0-4.7812 3.1562-7.5938 3.1562-2.7969 8.5625-2.7969 7.4844 0 12 5.2969t4.5156 14.078v2zm17.922 3.7188v-31.203h-8.9844v8.2969q-3.0781-4.9688-7.6719-7.3438t-11.234-2.375q-8.3906 0-13.359 4.7188-4.9531 4.7188-4.9531 12.625 0 9.2188 6.1719 13.906 6.1875 4.6875 18.438 4.6875h12.609v0.89062q0 6.2031-4.0781 9.5938t-11.453 3.3906q-4.6875 0-9.1406-1.125-4.4375-1.125-8.5312-3.375v8.3125q4.9219 1.9062 9.5625 2.8438 4.6406 0.95312 9.0312 0.95312 11.875 0 17.734-6.1562 5.8594-6.1406 5.8594-18.641z"/>
<path id="j" d="m9.4219 75.984h8.9844v-75.984h-8.9844z"/>
</defs>
<g transform="translate(1028.2 827.44) rotate(90) scale(.08 -.08)">
<use xlink:href="#l"/>
<use x="60.818359" xlink:href="#c"/>
<use x="122.341797" xlink:href="#h"/>
<use x="163.439453" xlink:href="#k"/>
<use x="260.851562" xlink:href="#g"/>
<use x="288.634766" xlink:href="#e"/>
<use x="352.013672" xlink:href="#i"/>
<use x="413.292969" xlink:href="#j"/>
</g>
</g>
<path d="m1168 489.88 1.2972-4.4146q0.67663-2.3026-1.626-2.9793l-7.4284-2.1828q-2.3026-0.67663-2.9793 1.626l-1.2972 4.4146q-0.67663 2.3026 1.626 2.9793l7.4284 2.1828q2.3026 0.67663 2.9793-1.626z" clip-path="url(#a)" fill="#fff" stroke="#fff"/>
<g clip-path="url(#a)">
<defs>
<path id="aj" d="m9.8125 72.906h41.891v-8.3125h-32.031v-21.484h28.906v-8.2969h-28.906v-34.812h-9.8594z"/>
</defs>
<g transform="translate(1164.1 488.73) rotate(-73.625) scale(.08 -.08)">
<use xlink:href="#aj"/>
</g>
</g>
<path d="m1192 489.45 0.95358-4.5014q0.49739-2.3479-1.8505-2.8453l-7.5744-1.6046q-2.3479-0.49739-2.8453 1.8505l-0.95358 4.5014q-0.49739 2.3479 1.8505 2.8453l7.5744 1.6046q2.3479 0.49739 2.8453-1.8505z" clip-path="url(#a)" fill="#fff" stroke="#fff"/>
<g clip-path="url(#a)">
<g transform="translate(1188 488.61) rotate(-78.039) scale(.08 -.08)">
<use xlink:href="#aj"/>
</g>
</g>
<path d="m1227.8 418.98 0.63838-5.4351q0.27997-2.3836-2.1036-2.6636l-7.6896-0.90319q-2.3836-0.27997-2.6636 2.1036l-0.63838 5.4351q-0.27997 2.3836 2.1036 2.6636l7.6896 0.90319q2.3836 0.27997 2.6636-2.1036z" clip-path="url(#a)" fill="#fff" stroke="#fff"/>
<g clip-path="url(#a)">
<g transform="translate(1223.7 418.51) rotate(-83.301) scale(.08 -.08)">
<use xlink:href="#r"/>
</g>
</g>
<path d="m1251 483.04 0.21035 6.1564q0.081956 2.3986 2.4806 2.3166l7.738-0.26439q2.3986-0.081956 2.3166-2.4806l-0.21035-6.1564q-0.081957-2.3986-2.4806-2.3166l-7.738 0.26439q-2.3986 0.081956-2.3166 2.4806z" clip-path="url(#a)" fill="#fff" stroke="#fff"/>
<g clip-path="url(#a)">
<g transform="translate(1255.1 482.9) rotate(88.043) scale(.08 -.08)">
<use xlink:href="#ao"/>
</g>
</g>
<path d="m1274.5 484.1 0.58607 5.0448q0.27695 2.384 2.6609 2.107l7.6908-0.89346q2.384-0.27695 2.107-2.6609l-0.58607-5.0448q-0.27695-2.384-2.6609-2.107l-7.6908 0.89346q-2.384 0.27695-2.107 2.6609z" clip-path="url(#a)" fill="#fff" stroke="#fff"/>
<g clip-path="url(#a)">
<g transform="translate(1278.6 483.64) rotate(83.374) scale(.08 -.08)">
<use xlink:href="#al"/>
</g>
</g>
<path d="m1370.3 275.52 4.7343 2.7448q2.0763 1.2038 3.2801-0.87251l3.8834-6.6982q1.2038-2.0763-0.87251-3.28l-4.7343-2.7449q-2.0763-1.2038-3.28 0.87251l-3.8834 6.6982q-1.2038 2.0763 0.87251 3.2801z" clip-path="url(#a)" fill="#fff" stroke="#fff"/>
<g clip-path="url(#a)">
<g transform="translate(1372.3 272.01) rotate(30.104) scale(.08 -.08)">
<use xlink:href="#r"/>
</g>
</g>
<path d="m1071.5 827.44v35.285q0 2.4 2.4 2.4h7.7425q2.4 0 2.4-2.4v-35.285q0-2.4-2.4-2.4h-7.7425q-2.4 0-2.4 2.4z" clip-path="url(#a)" fill="#fff" stroke="#fff"/>
<g clip-path="url(#a)">
<g transform="translate(1075.6 827.44) rotate(90) scale(.08 -.08)">
<use xlink:href="#l"/>
<use x="60.818359" xlink:href="#c"/>
<use x="122.341797" xlink:href="#h"/>
<use x="163.439453" xlink:href="#k"/>
<use x="260.851562" xlink:href="#g"/>
<use x="288.634766" xlink:href="#e"/>
<use x="352.013672" xlink:href="#i"/>
<use x="413.292969" xlink:href="#j"/>
</g>
</g>
<path d="m1118.9 827.44v35.285q0 2.4 2.4 2.4h7.7425q2.4 0 2.4-2.4v-35.285q0-2.4-2.4-2.4h-7.7425q-2.4 0-2.4 2.4z" clip-path="url(#a)" fill="#fff" stroke="#fff"/>
<g clip-path="url(#a)">
<g transform="translate(1122.9 827.44) rotate(90) scale(.08 -.08)">
<use xlink:href="#l"/>
<use x="60.818359" xlink:href="#c"/>
<use x="122.341797" xlink:href="#h"/>
<use x="163.439453" xlink:href="#k"/>
<use x="260.851562" xlink:href="#g"/>
<use x="288.634766" xlink:href="#e"/>
<use x="352.013672" xlink:href="#i"/>
<use x="413.292969" xlink:href="#j"/>
</g>
</g>
<path d="m1190.1 707.88 0.83889-4.9849q0.39828-2.3667-1.9684-2.765l-7.6351-1.2849q-2.3667-0.39828-2.765 1.9684l-0.83889 4.9849q-0.39828 2.3667 1.9684 2.765l7.6351 1.2849q2.3667 0.39828 2.765-1.9684z" clip-path="url(#a)" fill="#fff" stroke="#fff"/>
<g clip-path="url(#a)">
<defs>
<path id="p" d="m9.8125 72.906h46.094v-8.3125h-36.234v-21.578h34.719v-8.2969h-34.719v-26.422h37.109v-8.2969h-46.969z"/>
</defs>
<g transform="translate(1186.1 707.21) rotate(-80.447) scale(.08 -.08)">
<use xlink:href="#p"/>
</g>
</g>
<path d="m1201.4 702.63 0.92705 5.5088q0.39828 2.3667 2.765 1.9684l7.6351-1.2849q2.3667-0.39828 1.9684-2.765l-0.92705-5.5088q-0.39828-2.3667-2.765-1.9684l-7.6351 1.2849q-2.3667 0.39828-1.9684 2.765z" clip-path="url(#a)" fill="#fff" stroke="#fff"/>
<g clip-path="url(#a)">
<defs>
<path id="q" d="m64.406 67.281v-10.391q-4.9844 4.6406-10.625 6.9219-5.6406 2.2969-11.984 2.2969-12.5 0-19.141-7.6406t-6.6406-22.094q0-14.406 6.6406-22.047t19.141-7.6406q6.3438 0 11.984 2.2969t10.625 6.9375v-10.312q-5.1719-3.5156-10.969-5.2812-5.7812-1.75-12.219-1.75-16.562 0-26.094 10.125-9.5156 10.141-9.5156 27.672 0 17.578 9.5156 27.703 9.5312 10.141 26.094 10.141 6.5312 0 12.312-1.7344 5.7969-1.7344 10.875-5.2031z"/>
</defs>
<g transform="translate(1205.4 701.96) rotate(80.447) scale(.08 -.08)">
<use xlink:href="#q"/>
</g>
</g>
<path d="m1261 827.44v35.285q0 2.4 2.4 2.4h7.7425q2.4 0 2.4-2.4v-35.285q0-2.4-2.4-2.4h-7.7425q-2.4 0-2.4 2.4z" clip-path="url(#a)" fill="#fff" stroke="#fff"/>
<g clip-path="url(#a)">
<g transform="translate(1265 827.44) rotate(90) scale(.08 -.08)">
<use xlink:href="#l"/>
<use x="60.818359" xlink:href="#c"/>
<use x="122.341797" xlink:href="#h"/>
<use x="163.439453" xlink:href="#k"/>
<use x="260.851562" xlink:href="#g"/>
<use x="288.634766" xlink:href="#e"/>
<use x="352.013672" xlink:href="#i"/>
<use x="413.292969" xlink:href="#j"/>
</g>
</g>
<path d="m1308.4 827.44v35.285q0 2.4 2.4 2.4h7.7425q2.4 0 2.4-2.4v-35.285q0-2.4-2.4-2.4h-7.7425q-2.4 0-2.4 2.4z" clip-path="url(#a)" fill="#fff" stroke="#fff"/>
<g clip-path="url(#a)">
<g transform="translate(1312.4 827.44) rotate(90) scale(.08 -.08)">
<use xlink:href="#l"/>
<use x="60.818359" xlink:href="#c"/>
<use x="122.341797" xlink:href="#h"/>
<use x="163.439453" xlink:href="#k"/>
<use x="260.851562" xlink:href="#g"/>
<use x="288.634766" xlink:href="#e"/>
<use x="352.013672" xlink:href="#i"/>
<use x="413.292969" xlink:href="#j"/>
</g>
</g>
<path d="m1438.1 564.89 1.7484-5.2766q0.75486-2.2782-1.5233-3.0331l-7.3496-2.4352q-2.2782-0.75486-3.0331 1.5233l-1.7484 5.2766q-0.75486 2.2782 1.5233 3.0331l7.3496 2.4352q2.2782 0.75486 3.0331-1.5233z" clip-path="url(#a)" fill="#fff" stroke="#fff"/>
<g clip-path="url(#a)">
<defs>
<path id="ae" d="m44.391 34.188q3.1719-1.0781 6.1719-4.5938t6.0312-9.6719l10.016-19.922h-10.609l-9.3125 18.703q-3.625 7.3281-7.0156 9.7188t-9.25 2.3906h-10.75v-30.812h-9.8594v72.906h22.266q12.5 0 18.656-5.2344 6.1562-5.2188 6.1562-15.766 0-6.8906-3.2031-11.438-3.2031-4.5312-9.2969-6.2812zm-24.719 30.609v-25.875h12.406q7.125 0 10.766 3.2969t3.6406 9.6875-3.6406 9.6406-10.766 3.25z"/>
</defs>
<g transform="translate(1434.3 563.61) rotate(-71.668) scale(.08 -.08)">
<use xlink:href="#ae"/>
</g>
</g>
<path d="m1498 422.07 0.81246-4.9893q0.38574-2.3688-1.9831-2.7545l-7.6418-1.2444q-2.3688-0.38574-2.7545 1.9831l-0.81246 4.9893q-0.38574 2.3688 1.9831 2.7545l7.6418 1.2444q2.3688 0.38574 2.7545-1.9831z" clip-path="url(#a)" fill="#fff" stroke="#fff"/>
<g clip-path="url(#a)">
<g transform="translate(1494 421.42) rotate(-80.751) scale(.08 -.08)">
<use xlink:href="#p"/>
</g>
</g>
<path d="m1580.2 490.62 2.786 4.842q1.1969 2.0802 3.2772 0.88331l6.7109-3.8613q2.0802-1.1969 0.88331-3.2772l-2.786-4.842q-1.1969-2.0802-3.2772-0.88331l-6.7109 3.8613q-2.0802 1.1969-0.88331 3.2772z" clip-path="url(#a)" fill="#fff" stroke="#fff"/>
<g clip-path="url(#a)">
<g transform="translate(1583.7 488.59) rotate(60.085) scale(.08 -.08)">
<use xlink:href="#q"/>
</g>
</g>
<path d="m1355.7 827.44v35.285q0 2.4 2.4 2.4h7.7425q2.4 0 2.4-2.4v-35.285q0-2.4-2.4-2.4h-7.7425q-2.4 0-2.4 2.4z" clip-path="url(#a)" fill="#fff" stroke="#fff"/>
<g clip-path="url(#a)">
<g transform="translate(1359.8 827.44) rotate(90) scale(.08 -.08)">
<use xlink:href="#l"/>
<use x="60.818359" xlink:href="#c"/>
<use x="122.341797" xlink:href="#h"/>
<use x="163.439453" xlink:href="#k"/>
<use x="260.851562" xlink:href="#g"/>
<use x="288.634766" xlink:href="#e"/>
<use x="352.013672" xlink:href="#i"/>
<use x="413.292969" xlink:href="#j"/>
</g>
</g>
<path d="m1450.4 636.98 1.2292-4.9033q0.58358-2.328-1.7444-2.9116l-7.5101-1.8827q-2.328-0.58359-2.9116 1.7444l-1.2292 4.9033q-0.58358 2.328 1.7444 2.9116l7.5101 1.8827q2.328 0.58358 2.9116-1.7444z" clip-path="url(#a)" fill="#fff" stroke="#fff"/>
<g clip-path="url(#a)">
<g transform="translate(1446.4 635.99) rotate(-75.927) scale(.08 -.08)">
<use xlink:href="#p"/>
</g>
</g>
<path d="m1474.1 560.11v5.055q0 2.4 2.4 2.4h7.7425q2.4 0 2.4-2.4v-5.055q0-2.4-2.4-2.4h-7.7425q-2.4 0-2.4 2.4z" clip-path="url(#a)" fill="#fff" stroke="#fff"/>
<g clip-path="url(#a)">
<g transform="translate(1478.2 560.11) rotate(90) scale(.08 -.08)">
<use xlink:href="#p"/>
</g>
</g>
<path d="m1509.2 631.82 1.3584 5.4186q0.58359 2.328 2.9116 1.7444l7.5101-1.8827q2.328-0.58359 1.7444-2.9116l-1.3584-5.4186q-0.58358-2.328-2.9116-1.7444l-7.5101 1.8827q-2.328 0.58358-1.7444 2.9116z" clip-path="url(#a)" fill="#fff" stroke="#fff"/>
<g clip-path="url(#a)">
<g transform="translate(1513.1 630.83) rotate(75.927) scale(.08 -.08)">
<use xlink:href="#q"/>
</g>
</g>
<path d="m1638.7 709.67 2.5176-4.9868q1.0816-2.1424-1.0608-3.2241l-6.9116-3.4894q-2.1424-1.0816-3.2241 1.0608l-2.5176 4.9868q-1.0816 2.1424 1.0608 3.2241l6.9116 3.4894q2.1424 1.0816 3.2241-1.0608z" clip-path="url(#a)" fill="#fff" stroke="#fff"/>
<g clip-path="url(#a)">
<g transform="translate(1635.1 707.84) rotate(-63.213) scale(.08 -.08)">
<use xlink:href="#q"/>
</g>
</g>
<path d="m1663.7 708.34 0.99322-5.902q0.39828-2.3667-1.9684-2.765l-7.6351-1.2849q-2.3667-0.39828-2.765 1.9684l-0.99322 5.902q-0.39828 2.3667 1.9684 2.765l7.6351 1.2849q2.3667 0.39828 2.765-1.9684z" clip-path="url(#a)" fill="#fff" stroke="#fff"/>
<g clip-path="url(#a)">
<defs>
<path id="am" d="m9.8125 72.906h13.281l32.328-60.984v60.984h9.5625v-72.906h-13.281l-32.312 60.984v-60.984h-9.5781z"/>
</defs>
<g transform="translate(1659.7 707.66) rotate(-80.447) scale(.08 -.08)">
<use xlink:href="#am"/>
</g>
</g>
<path d="m1675.1 702.63 0.92705 5.5088q0.39828 2.3667 2.765 1.9684l7.6351-1.2849q2.3667-0.39828 1.9684-2.765l-0.92705-5.5088q-0.39828-2.3667-2.765-1.9684l-7.6351 1.2849q-2.3667 0.39828-1.9684 2.765z" clip-path="url(#a)" fill="#fff" stroke="#fff"/>
<g clip-path="url(#a)">
<g transform="translate(1679.1 701.96) rotate(80.447) scale(.08 -.08)">
<use xlink:href="#q"/>
</g>
</g>
<path d="m1698.5 704.56 2.6387 5.2267q1.0816 2.1424 3.2241 1.0608l6.9116-3.4894q2.1424-1.0816 1.0608-3.2241l-2.6387-5.2267q-1.0816-2.1424-3.2241-1.0608l-6.9116 3.4894q-2.1424 1.0816-1.0608 3.2241z" clip-path="url(#a)" fill="#fff" stroke="#fff"/>
<g clip-path="url(#a)">
<g transform="translate(1702.1 702.73) rotate(63.213) scale(.08 -.08)">
<use xlink:href="#z"/>
</g>
</g>
<path d="m1592.6 827.44v35.285q0 2.4 2.4 2.4h7.7425q2.4 0 2.4-2.4v-35.285q0-2.4-2.4-2.4h-7.7425q-2.4 0-2.4 2.4z" clip-path="url(#a)" fill="#fff" stroke="#fff"/>
<g clip-path="url(#a)">
<g transform="translate(1596.6 827.44) rotate(90) scale(.08 -.08)">
<use xlink:href="#l"/>
<use x="60.818359" xlink:href="#c"/>
<use x="122.341797" xlink:href="#h"/>
<use x="163.439453" xlink:href="#k"/>
<use x="260.851562" xlink:href="#g"/>
<use x="288.634766" xlink:href="#e"/>
<use x="352.013672" xlink:href="#i"/>
<use x="413.292969" xlink:href="#j"/>
</g>
</g>
<path d="m1639.9 827.44v35.285q0 2.4 2.4 2.4h7.7425q2.4 0 2.4-2.4v-35.285q0-2.4-2.4-2.4h-7.7425q-2.4 0-2.4 2.4z" clip-path="url(#a)" fill="#fff" stroke="#fff"/>
<g clip-path="url(#a)">
<g transform="translate(1644 827.44) rotate(90) scale(.08 -.08)">
<use xlink:href="#l"/>
<use x="60.818359" xlink:href="#c"/>
<use x="122.341797" xlink:href="#h"/>
<use x="163.439453" xlink:href="#k"/>
<use x="260.851562" xlink:href="#g"/>
<use x="288.634766" xlink:href="#e"/>
<use x="352.013672" xlink:href="#i"/>
<use x="413.292969" xlink:href="#j"/>
</g>
</g>
<path d="m1687.3 827.44v35.285q0 2.4 2.4 2.4h7.7425q2.4 0 2.4-2.4v-35.285q0-2.4-2.4-2.4h-7.7425q-2.4 0-2.4 2.4z" clip-path="url(#a)" fill="#fff" stroke="#fff"/>
<g clip-path="url(#a)">
<g transform="translate(1691.4 827.44) rotate(90) scale(.08 -.08)">
<use xlink:href="#l"/>
<use x="60.818359" xlink:href="#c"/>
<use x="122.341797" xlink:href="#h"/>
<use x="163.439453" xlink:href="#k"/>
<use x="260.851562" xlink:href="#g"/>
<use x="288.634766" xlink:href="#e"/>
<use x="352.013672" xlink:href="#i"/>
<use x="413.292969" xlink:href="#j"/>
</g>
</g>
<path d="m1403.1 827.44v35.285q0 2.4 2.4 2.4h7.7425q2.4 0 2.4-2.4v-35.285q0-2.4-2.4-2.4h-7.7425q-2.4 0-2.4 2.4z" clip-path="url(#a)" fill="#fff" stroke="#fff"/>
<g clip-path="url(#a)">
<g transform="translate(1407.1 827.44) rotate(90) scale(.08 -.08)">
<use xlink:href="#l"/>
<use x="60.818359" xlink:href="#c"/>
<use x="122.341797" xlink:href="#h"/>
<use x="163.439453" xlink:href="#k"/>
<use x="260.851562" xlink:href="#g"/>
<use x="288.634766" xlink:href="#e"/>
<use x="352.013672" xlink:href="#i"/>
<use x="413.292969" xlink:href="#j"/>
</g>
</g>
<path d="m1474.3 707.88 0.83889-4.9849q0.39828-2.3667-1.9684-2.765l-7.6351-1.2849q-2.3667-0.39828-2.765 1.9684l-0.83889 4.9849q-0.39828 2.3667 1.9684 2.765l7.6351 1.2849q2.3667 0.39828 2.765-1.9684z" clip-path="url(#a)" fill="#fff" stroke="#fff"/>
<g clip-path="url(#a)">
<g transform="translate(1470.3 707.21) rotate(-80.447) scale(.08 -.08)">
<use xlink:href="#p"/>
</g>
</g>
<path d="m1485.6 702.63 0.92705 5.5088q0.39828 2.3667 2.765 1.9684l7.6351-1.2849q2.3667-0.39828 1.9684-2.765l-0.92705-5.5088q-0.39828-2.3667-2.765-1.9684l-7.6351 1.2849q-2.3667 0.39828-1.9684 2.765z" clip-path="url(#a)" fill="#fff" stroke="#fff"/>
<g clip-path="url(#a)">
<g transform="translate(1489.6 701.96) rotate(80.447) scale(.08 -.08)">
<use xlink:href="#q"/>
</g>
</g>
<path d="m1545.2 827.44v35.285q0 2.4 2.4 2.4h7.7425q2.4 0 2.4-2.4v-35.285q0-2.4-2.4-2.4h-7.7425q-2.4 0-2.4 2.4z" clip-path="url(#a)" fill="#fff" stroke="#fff"/>
<g clip-path="url(#a)">
<g transform="translate(1549.3 827.44) rotate(90) scale(.08 -.08)">
<use xlink:href="#l"/>
<use x="60.818359" xlink:href="#c"/>
<use x="122.341797" xlink:href="#h"/>
<use x="163.439453" xlink:href="#k"/>
<use x="260.851562" xlink:href="#g"/>
<use x="288.634766" xlink:href="#e"/>
<use x="352.013672" xlink:href="#i"/>
<use x="413.292969" xlink:href="#j"/>
</g>
</g>
<path d="m1450.5 827.44v35.285q0 2.4 2.4 2.4h7.7425q2.4 0 2.4-2.4v-35.285q0-2.4-2.4-2.4h-7.7425q-2.4 0-2.4 2.4z" clip-path="url(#a)" fill="#fff" stroke="#fff"/>
<g clip-path="url(#a)">
<g transform="translate(1454.5 827.44) rotate(90) scale(.08 -.08)">
<use xlink:href="#l"/>
<use x="60.818359" xlink:href="#c"/>
<use x="122.341797" xlink:href="#h"/>
<use x="163.439453" xlink:href="#k"/>
<use x="260.851562" xlink:href="#g"/>
<use x="288.634766" xlink:href="#e"/>
<use x="352.013672" xlink:href="#i"/>
<use x="413.292969" xlink:href="#j"/>
</g>
</g>
<path d="m1497.8 827.44v35.285q0 2.4 2.4 2.4h7.7425q2.4 0 2.4-2.4v-35.285q0-2.4-2.4-2.4h-7.7425q-2.4 0-2.4 2.4z" clip-path="url(#a)" fill="#fff" stroke="#fff"/>
<g clip-path="url(#a)">
<g transform="translate(1501.9 827.44) rotate(90) scale(.08 -.08)">
<use xlink:href="#l"/>
<use x="60.818359" xlink:href="#c"/>
<use x="122.341797" xlink:href="#h"/>
<use x="163.439453" xlink:href="#k"/>
<use x="260.851562" xlink:href="#g"/>
<use x="288.634766" xlink:href="#e"/>
<use x="352.013672" xlink:href="#i"/>
<use x="413.292969" xlink:href="#j"/>
</g>
</g>
<path d="m1166.2 827.44v35.285q0 2.4 2.4 2.4h7.7425q2.4 0 2.4-2.4v-35.285q0-2.4-2.4-2.4h-7.7425q-2.4 0-2.4 2.4z" clip-path="url(#a)" fill="#fff" stroke="#fff"/>
<g clip-path="url(#a)">
<g transform="translate(1170.3 827.44) rotate(90) scale(.08 -.08)">
<use xlink:href="#l"/>
<use x="60.818359" xlink:href="#c"/>
<use x="122.341797" xlink:href="#h"/>
<use x="163.439453" xlink:href="#k"/>
<use x="260.851562" xlink:href="#g"/>
<use x="288.634766" xlink:href="#e"/>
<use x="352.013672" xlink:href="#i"/>
<use x="413.292969" xlink:href="#j"/>
</g>
</g>
<path d="m1213.6 827.44v35.285q0 2.4 2.4 2.4h7.7425q2.4 0 2.4-2.4v-35.285q0-2.4-2.4-2.4h-7.7425q-2.4 0-2.4 2.4z" clip-path="url(#a)" fill="#fff" stroke="#fff"/>
<g clip-path="url(#a)">
<g transform="translate(1217.7 827.44) rotate(90) scale(.08 -.08)">
<use xlink:href="#l"/>
<use x="60.818359" xlink:href="#c"/>
<use x="122.341797" xlink:href="#h"/>
<use x="163.439453" xlink:href="#k"/>
<use x="260.851562" xlink:href="#g"/>
<use x="288.634766" xlink:href="#e"/>
<use x="352.013672" xlink:href="#i"/>
<use x="413.292969" xlink:href="#j"/>
</g>
</g>
<path d="m76.8 827.44v35.285q0 2.4 2.4 2.4h7.7425q2.4 0 2.4-2.4v-35.285q0-2.4-2.4-2.4h-7.7425q-2.4 0-2.4 2.4z" clip-path="url(#a)" fill="#fff" stroke="#fff"/>
<g clip-path="url(#a)">
<g transform="translate(80.864 827.44) rotate(90) scale(.08 -.08)">
<use xlink:href="#l"/>
<use x="60.818359" xlink:href="#c"/>
<use x="122.341797" xlink:href="#h"/>
<use x="163.439453" xlink:href="#k"/>
<use x="260.851562" xlink:href="#g"/>
<use x="288.634766" xlink:href="#e"/>
<use x="352.013672" xlink:href="#i"/>
<use x="413.292969" xlink:href="#j"/>
</g>
</g>
<path d="m124.17 827.44v35.285q0 2.4 2.4 2.4h7.7425q2.4 0 2.4-2.4v-35.285q0-2.4-2.4-2.4h-7.7425q-2.4 0-2.4 2.4z" clip-path="url(#a)" fill="#fff" stroke="#fff"/>
<g clip-path="url(#a)">
<g transform="translate(128.23 827.44) rotate(90) scale(.08 -.08)">
<use xlink:href="#l"/>
<use x="60.818359" xlink:href="#c"/>
<use x="122.341797" xlink:href="#h"/>
<use x="163.439453" xlink:href="#k"/>
<use x="260.851562" xlink:href="#g"/>
<use x="288.634766" xlink:href="#e"/>
<use x="352.013672" xlink:href="#i"/>
<use x="413.292969" xlink:href="#j"/>
</g>
</g>
<path d="m171.53 827.44v35.285q0 2.4 2.4 2.4h7.7425q2.4 0 2.4-2.4v-35.285q0-2.4-2.4-2.4h-7.7425q-2.4 0-2.4 2.4z" clip-path="url(#a)" fill="#fff" stroke="#fff"/>
<g clip-path="url(#a)">
<g transform="translate(175.6 827.44) rotate(90) scale(.08 -.08)">
<use xlink:href="#l"/>
<use x="60.818359" xlink:href="#c"/>
<use x="122.341797" xlink:href="#h"/>
<use x="163.439453" xlink:href="#k"/>
<use x="260.851562" xlink:href="#g"/>
<use x="288.634766" xlink:href="#e"/>
<use x="352.013672" xlink:href="#i"/>
<use x="413.292969" xlink:href="#j"/>
</g>
</g>
<path d="m218.9 827.44v35.285q0 2.4 2.4 2.4h7.7425q2.4 0 2.4-2.4v-35.285q0-2.4-2.4-2.4h-7.7425q-2.4 0-2.4 2.4z" clip-path="url(#a)" fill="#fff" stroke="#fff"/>
<g clip-path="url(#a)">
<g transform="translate(222.97 827.44) rotate(90) scale(.08 -.08)">
<use xlink:href="#l"/>
<use x="60.818359" xlink:href="#c"/>
<use x="122.341797" xlink:href="#h"/>
<use x="163.439453" xlink:href="#k"/>
<use x="260.851562" xlink:href="#g"/>
<use x="288.634766" xlink:href="#e"/>
<use x="352.013672" xlink:href="#i"/>
<use x="413.292969" xlink:href="#j"/>
</g>
</g>
<path d="m305.84 636.68 0.96739-4.9616q0.4593-2.3556-1.8963-2.8149l-7.5994-1.4817q-2.3556-0.4593-2.8149 1.8963l-0.96739 4.9616q-0.4593 2.3556 1.8963 2.8149l7.5994 1.4817q2.3556 0.4593 2.8149-1.8963z" clip-path="url(#a)" fill="#fff" stroke="#fff"/>
<g clip-path="url(#a)">
<g transform="translate(301.85 635.9) rotate(-78.967) scale(.08 -.08)">
<use xlink:href="#p"/>
</g>
</g>
<path d="m330.05 635.97 0.15554-5.5841q0.066823-2.3991-2.3322-2.4659l-7.7395-0.21558q-2.3991-0.066824-2.4659 2.3322l-0.15554 5.5841q-0.066824 2.3991 2.3322 2.4659l7.7395 0.21558q2.3991 0.066823 2.4659-2.3322z" clip-path="url(#a)" fill="#fff" stroke="#fff"/>
<g clip-path="url(#a)">
<g transform="translate(325.98 635.85) rotate(-88.405) scale(.08 -.08)">
<use xlink:href="#q"/>
</g>
</g>
<path d="m352.62 562.86 2.0459 4.6225q0.97136 2.1946 3.166 1.2233l7.08-3.1336q2.1946-0.97136 1.2233-3.166l-2.0459-4.6225q-0.97136-2.1946-3.166-1.2233l-7.08 3.1336q-2.1946 0.97136-1.2233 3.166z" clip-path="url(#a)" fill="#fff" stroke="#fff"/>
<g clip-path="url(#a)">
<g transform="translate(356.34 561.22) rotate(66.126) scale(.08 -.08)">
<use xlink:href="#p"/>
</g>
</g>
<path d="m578.15 564.48 1.4347-4.8471q0.68118-2.3013-1.6201-2.9825l-7.4241-2.1975q-2.3013-0.68118-2.9825 1.6201l-1.4347 4.8471q-0.68118 2.3013 1.6201 2.9825l7.4241 2.1975q2.3013 0.68118 2.9825-1.6201z" clip-path="url(#a)" fill="#fff" stroke="#fff"/>
<g clip-path="url(#a)">
<g transform="translate(574.25 563.33) rotate(-73.511) scale(.08 -.08)">
<use xlink:href="#p"/>
</g>
</g>
<path d="m602.19 564.17 1.0191-5.4925q0.43785-2.3597-1.9219-2.7976l-7.6126-1.4125q-2.3597-0.43785-2.7976 1.9219l-1.0191 5.4925q-0.43785 2.3597 1.9219 2.7976l7.6126 1.4125q2.3597 0.43785 2.7976-1.9219z" clip-path="url(#a)" fill="#fff" stroke="#fff"/>
<g clip-path="url(#a)">
<g transform="translate(598.19 563.43) rotate(-79.488) scale(.08 -.08)">
<use xlink:href="#q"/>
</g>
</g>
<path d="m638.25 492.62 0.14952-5.0528q0.070987-2.399-2.328-2.4699l-7.7391-0.22901q-2.399-0.070987-2.4699 2.328l-0.14952 5.0528q-0.070987 2.399 2.328 2.4699l7.7391 0.22901q2.399 0.070987 2.4699-2.328z" clip-path="url(#a)" fill="#fff" stroke="#fff"/>
<g clip-path="url(#a)">
<g transform="translate(634.19 492.5) rotate(-88.305) scale(.08 -.08)">
<use xlink:href="#p"/>
</g>
</g>
<path d="m706.43 421.36 3.6584 3.4885q1.7369 1.6563 3.3932-0.080653l5.3431-5.6033q1.6563-1.7369-0.080653-3.3932l-3.6584-3.4885q-1.7369-1.6562-3.3932 0.080653l-5.3431 5.6033q-1.6563 1.7369 0.080652 3.3932z" clip-path="url(#a)" fill="#fff" stroke="#fff"/>
<g clip-path="url(#a)">
<g transform="translate(709.23 418.42) rotate(43.638) scale(.08 -.08)">
<use xlink:href="#p"/>
</g>
</g>
<path d="m660.96 558.29 0.84467 5.7938q0.34624 2.3749 2.7211 2.0287l7.6615-1.117q2.3749-0.34624 2.0287-2.7211l-0.84467-5.7938q-0.34624-2.3749-2.7211-2.0287l-7.6615 1.117q-2.3749 0.34624-2.0287 2.7211z" clip-path="url(#a)" fill="#fff" stroke="#fff"/>
<g clip-path="url(#a)">
<g transform="translate(664.98 557.7) rotate(81.705) scale(.08 -.08)">
<use xlink:href="#z"/>
</g>
</g>
<path d="m503.11 827.44v35.285q0 2.4 2.4 2.4h7.7425q2.4 0 2.4-2.4v-35.285q0-2.4-2.4-2.4h-7.7425q-2.4 0-2.4 2.4z" clip-path="url(#a)" fill="#fff" stroke="#fff"/>
<g clip-path="url(#a)">
<g transform="translate(507.17 827.44) rotate(90) scale(.08 -.08)">
<use xlink:href="#l"/>
<use x="60.818359" xlink:href="#c"/>
<use x="122.341797" xlink:href="#h"/>
<use x="163.439453" xlink:href="#k"/>
<use x="260.851562" xlink:href="#g"/>
<use x="288.634766" xlink:href="#e"/>
<use x="352.013672" xlink:href="#i"/>
<use x="413.292969" xlink:href="#j"/>
</g>
</g>
<path d="m550.47 827.44v35.285q0 2.4 2.4 2.4h7.7425q2.4 0 2.4-2.4v-35.285q0-2.4-2.4-2.4h-7.7425q-2.4 0-2.4 2.4z" clip-path="url(#a)" fill="#fff" stroke="#fff"/>
<g clip-path="url(#a)">
<g transform="translate(554.54 827.44) rotate(90) scale(.08 -.08)">
<use xlink:href="#l"/>
<use x="60.818359" xlink:href="#c"/>
<use x="122.341797" xlink:href="#h"/>
<use x="163.439453" xlink:href="#k"/>
<use x="260.851562" xlink:href="#g"/>
<use x="288.634766" xlink:href="#e"/>
<use x="352.013672" xlink:href="#i"/>
<use x="413.292969" xlink:href="#j"/>
</g>
</g>
<path d="m621.68 708.13 0.92249-5.4817q0.39828-2.3667-1.9684-2.765l-7.6351-1.2849q-2.3667-0.39828-2.765 1.9684l-0.92249 5.4817q-0.39828 2.3667 1.9684 2.765l7.6351 1.2849q2.3667 0.39828 2.765-1.9684z" clip-path="url(#a)" fill="#fff" stroke="#fff"/>
<g clip-path="url(#a)">
<g transform="translate(617.67 707.45) rotate(-80.447) scale(.08 -.08)">
<use xlink:href="#ae"/>
</g>
</g>
<path d="m632.99 702.63 0.92705 5.5088q0.39828 2.3667 2.765 1.9684l7.6351-1.2849q2.3667-0.39828 1.9684-2.765l-0.92705-5.5088q-0.39828-2.3667-2.765-1.9684l-7.6351 1.2849q-2.3667 0.39828-1.9684 2.765z" clip-path="url(#a)" fill="#fff" stroke="#fff"/>
<g clip-path="url(#a)">
<g transform="translate(637 701.96) rotate(80.447) scale(.08 -.08)">
<use xlink:href="#q"/>
</g>
</g>
<path d="m675.91 639.09 3.4672-4.234q1.5206-1.8568-0.33627-3.3774l-5.9902-4.9054q-1.8568-1.5206-3.3774 0.33627l-3.4672 4.234q-1.5206 1.8568 0.33627 3.3774l5.9902 4.9054q1.8568 1.5206 3.3774-0.33627z" clip-path="url(#a)" fill="#fff" stroke="#fff"/>
<g clip-path="url(#a)">
<g transform="translate(672.77 636.52) rotate(-50.686) scale(.08 -.08)">
<use xlink:href="#r"/>
</g>
</g>
<path d="m773.32 636.68 0.8268-5.4969q0.35697-2.3733-2.0163-2.7303l-7.6564-1.1516q-2.3733-0.35697-2.7303 2.0163l-0.8268 5.4969q-0.35697 2.3733 2.0163 2.7303l7.6564 1.1516q2.3733 0.35697 2.7303-2.0163z" clip-path="url(#a)" fill="#fff" stroke="#fff"/>
<g clip-path="url(#a)">
<g transform="translate(769.3 636.08) rotate(-81.446) scale(.08 -.08)">
<use xlink:href="#ae"/>
</g>
</g>
<path d="m796.37 561.17 1.069 5.3671q0.4688 2.3538 2.8226 1.885l7.5934-1.5124q2.3538-0.4688 1.885-2.8226l-1.069-5.3671q-0.4688-2.3538-2.8226-1.885l-7.5934 1.5124q-2.3538 0.4688-1.885 2.8226z" clip-path="url(#a)" fill="#fff" stroke="#fff"/>
<g clip-path="url(#a)">
<g transform="translate(800.36 560.38) rotate(78.736) scale(.08 -.08)">
<use xlink:href="#r"/>
</g>
</g>
<path d="m831.76 632.5 1.8123 5.1637q0.79477 2.2646 3.0594 1.4698l7.3056-2.564q2.2646-0.79477 1.4698-3.0594l-1.8123-5.1637q-0.79477-2.2646-3.0594-1.4698l-7.3056 2.564q-2.2646 0.79478-1.4698 3.0594z" clip-path="url(#a)" fill="#fff" stroke="#fff"/>
<g clip-path="url(#a)">
<g transform="translate(835.59 631.15) rotate(70.661) scale(.08 -.08)">
<use xlink:href="#r"/>
</g>
</g>
<path d="m855.59 633.74 2.219 4.2831q1.104 2.131 3.235 1.027l6.8747-3.5616q2.131-1.104 1.027-3.235l-2.219-4.2831q-1.104-2.131-3.235-1.027l-6.8747 3.5616q-2.131 1.104-1.027 3.235z" clip-path="url(#a)" fill="#fff" stroke="#fff"/>
<g clip-path="url(#a)">
<defs>
<path id="av" d="m19.672 64.797v-27.391h12.406q6.8906 0 10.641 3.5625 3.7656 3.5625 3.7656 10.156 0 6.5469-3.7656 10.109-3.75 3.5625-10.641 3.5625zm-9.8594 8.1094h22.266q12.266 0 18.531-5.5469 6.2812-5.5469 6.2812-16.234 0-10.797-6.2812-16.312-6.2656-5.5156-18.531-5.5156h-12.406v-29.297h-9.8594z"/>
</defs>
<g transform="translate(859.19 631.87) rotate(62.612) scale(.08 -.08)">
<use xlink:href="#av"/>
</g>
</g>
<path d="m739.94 827.44v35.285q0 2.4 2.4 2.4h7.7425q2.4 0 2.4-2.4v-35.285q0-2.4-2.4-2.4h-7.7425q-2.4 0-2.4 2.4z" clip-path="url(#a)" fill="#fff" stroke="#fff"/>
<g clip-path="url(#a)">
<g transform="translate(744.01 827.44) rotate(90) scale(.08 -.08)">
<use xlink:href="#l"/>
<use x="60.818359" xlink:href="#c"/>
<use x="122.341797" xlink:href="#h"/>
<use x="163.439453" xlink:href="#k"/>
<use x="260.851562" xlink:href="#g"/>
<use x="288.634766" xlink:href="#e"/>
<use x="352.013672" xlink:href="#i"/>
<use x="413.292969" xlink:href="#j"/>
</g>
</g>
<path d="m811.19 707.88 0.83889-4.9849q0.39828-2.3667-1.9684-2.765l-7.6351-1.2849q-2.3667-0.39828-2.765 1.9684l-0.83889 4.9849q-0.39828 2.3667 1.9684 2.765l7.6351 1.2849q2.3667 0.39828 2.765-1.9684z" clip-path="url(#a)" fill="#fff" stroke="#fff"/>
<g clip-path="url(#a)">
<g transform="translate(807.18 707.21) rotate(-80.447) scale(.08 -.08)">
<use xlink:href="#p"/>
</g>
</g>
<path d="m822.46 702.63 0.92705 5.5088q0.39828 2.3667 2.765 1.9684l7.6351-1.2849q2.3667-0.39828 1.9684-2.765l-0.92705-5.5088q-0.39828-2.3667-2.765-1.9684l-7.6351 1.2849q-2.3667 0.39828-1.9684 2.765z" clip-path="url(#a)" fill="#fff" stroke="#fff"/>
<g clip-path="url(#a)">
<g transform="translate(826.47 701.96) rotate(80.447) scale(.08 -.08)">
<use xlink:href="#q"/>
</g>
</g>
<path d="m882.05 827.44v35.285q0 2.4 2.4 2.4h7.7425q2.4 0 2.4-2.4v-35.285q0-2.4-2.4-2.4h-7.7425q-2.4 0-2.4 2.4z" clip-path="url(#a)" fill="#fff" stroke="#fff"/>
<g clip-path="url(#a)">
<g transform="translate(886.11 827.44) rotate(90) scale(.08 -.08)">
<use xlink:href="#l"/>
<use x="60.818359" xlink:href="#c"/>
<use x="122.341797" xlink:href="#h"/>
<use x="163.439453" xlink:href="#k"/>
<use x="260.851562" xlink:href="#g"/>
<use x="288.634766" xlink:href="#e"/>
<use x="352.013672" xlink:href="#i"/>
<use x="413.292969" xlink:href="#j"/>
</g>
</g>
<path d="m929.41 827.44v35.285q0 2.4 2.4 2.4h7.7425q2.4 0 2.4-2.4v-35.285q0-2.4-2.4-2.4h-7.7425q-2.4 0-2.4 2.4z" clip-path="url(#a)" fill="#fff" stroke="#fff"/>
<g clip-path="url(#a)">
<g transform="translate(933.48 827.44) rotate(90) scale(.08 -.08)">
<use xlink:href="#l"/>
<use x="60.818359" xlink:href="#c"/>
<use x="122.341797" xlink:href="#h"/>
<use x="163.439453" xlink:href="#k"/>
<use x="260.851562" xlink:href="#g"/>
<use x="288.634766" xlink:href="#e"/>
<use x="352.013672" xlink:href="#i"/>
<use x="413.292969" xlink:href="#j"/>
</g>
</g>
<path d="m787.31 827.44v35.285q0 2.4 2.4 2.4h7.7425q2.4 0 2.4-2.4v-35.285q0-2.4-2.4-2.4h-7.7425q-2.4 0-2.4 2.4z" clip-path="url(#a)" fill="#fff" stroke="#fff"/>
<g clip-path="url(#a)">
<g transform="translate(791.37 827.44) rotate(90) scale(.08 -.08)">
<use xlink:href="#l"/>
<use x="60.818359" xlink:href="#c"/>
<use x="122.341797" xlink:href="#h"/>
<use x="163.439453" xlink:href="#k"/>
<use x="260.851562" xlink:href="#g"/>
<use x="288.634766" xlink:href="#e"/>
<use x="352.013672" xlink:href="#i"/>
<use x="413.292969" xlink:href="#j"/>
</g>
</g>
<path d="m834.68 827.44v35.285q0 2.4 2.4 2.4h7.7425q2.4 0 2.4-2.4v-35.285q0-2.4-2.4-2.4h-7.7425q-2.4 0-2.4 2.4z" clip-path="url(#a)" fill="#fff" stroke="#fff"/>
<g clip-path="url(#a)">
<g transform="translate(838.74 827.44) rotate(90) scale(.08 -.08)">
<use xlink:href="#l"/>
<use x="60.818359" xlink:href="#c"/>
<use x="122.341797" xlink:href="#h"/>
<use x="163.439453" xlink:href="#k"/>
<use x="260.851562" xlink:href="#g"/>
<use x="288.634766" xlink:href="#e"/>
<use x="352.013672" xlink:href="#i"/>
<use x="413.292969" xlink:href="#j"/>
</g>
</g>
<path d="m597.84 827.44v35.285q0 2.4 2.4 2.4h7.7425q2.4 0 2.4-2.4v-35.285q0-2.4-2.4-2.4h-7.7425q-2.4 0-2.4 2.4z" clip-path="url(#a)" fill="#fff" stroke="#fff"/>
<g clip-path="url(#a)">
<g transform="translate(601.9 827.44) rotate(90) scale(.08 -.08)">
<use xlink:href="#l"/>
<use x="60.818359" xlink:href="#c"/>
<use x="122.341797" xlink:href="#h"/>
<use x="163.439453" xlink:href="#k"/>
<use x="260.851562" xlink:href="#g"/>
<use x="288.634766" xlink:href="#e"/>
<use x="352.013672" xlink:href="#i"/>
<use x="413.292969" xlink:href="#j"/>
</g>
</g>
<path d="m645.21 827.44v35.285q0 2.4 2.4 2.4h7.7425q2.4 0 2.4-2.4v-35.285q0-2.4-2.4-2.4h-7.7425q-2.4 0-2.4 2.4z" clip-path="url(#a)" fill="#fff" stroke="#fff"/>
<g clip-path="url(#a)">
<g transform="translate(649.27 827.44) rotate(90) scale(.08 -.08)">
<use xlink:href="#l"/>
<use x="60.818359" xlink:href="#c"/>
<use x="122.341797" xlink:href="#h"/>
<use x="163.439453" xlink:href="#k"/>
<use x="260.851562" xlink:href="#g"/>
<use x="288.634766" xlink:href="#e"/>
<use x="352.013672" xlink:href="#i"/>
<use x="413.292969" xlink:href="#j"/>
</g>
</g>
<path d="m266.27 827.44v35.285q0 2.4 2.4 2.4h7.7425q2.4 0 2.4-2.4v-35.285q0-2.4-2.4-2.4h-7.7425q-2.4 0-2.4 2.4z" clip-path="url(#a)" fill="#fff" stroke="#fff"/>
<g clip-path="url(#a)">
<g transform="translate(270.33 827.44) rotate(90) scale(.08 -.08)">
<use xlink:href="#l"/>
<use x="60.818359" xlink:href="#c"/>
<use x="122.341797" xlink:href="#h"/>
<use x="163.439453" xlink:href="#k"/>
<use x="260.851562" xlink:href="#g"/>
<use x="288.634766" xlink:href="#e"/>
<use x="352.013672" xlink:href="#i"/>
<use x="413.292969" xlink:href="#j"/>
</g>
</g>
<path d="m313.64 827.44v35.285q0 2.4 2.4 2.4h7.7425q2.4 0 2.4-2.4v-35.285q0-2.4-2.4-2.4h-7.7425q-2.4 0-2.4 2.4z" clip-path="url(#a)" fill="#fff" stroke="#fff"/>
<g clip-path="url(#a)">
<g transform="translate(317.7 827.44) rotate(90) scale(.08 -.08)">
<use xlink:href="#l"/>
<use x="60.818359" xlink:href="#c"/>
<use x="122.341797" xlink:href="#h"/>
<use x="163.439453" xlink:href="#k"/>
<use x="260.851562" xlink:href="#g"/>
<use x="288.634766" xlink:href="#e"/>
<use x="352.013672" xlink:href="#i"/>
<use x="413.292969" xlink:href="#j"/>
</g>
</g>
<path d="m384.84 708.13 0.92249-5.4817q0.39828-2.3667-1.9684-2.765l-7.6351-1.2849q-2.3667-0.39828-2.765 1.9684l-0.92249 5.4817q-0.39828 2.3667 1.9684 2.765l7.6351 1.2849q2.3667 0.39828 2.765-1.9684z" clip-path="url(#a)" fill="#fff" stroke="#fff"/>
<g clip-path="url(#a)">
<g transform="translate(380.83 707.45) rotate(-80.447) scale(.08 -.08)">
<use xlink:href="#ae"/>
</g>
</g>
<path d="m396.15 702.63 0.92705 5.5088q0.39828 2.3667 2.765 1.9684l7.6351-1.2849q2.3667-0.39828 1.9684-2.765l-0.92705-5.5088q-0.39828-2.3667-2.765-1.9684l-7.6351 1.2849q-2.3667 0.39828-1.9684 2.765z" clip-path="url(#a)" fill="#fff" stroke="#fff"/>
<g clip-path="url(#a)">
<g transform="translate(400.16 701.96) rotate(80.447) scale(.08 -.08)">
<use xlink:href="#q"/>
</g>
</g>
<path d="m361 827.44v35.285q0 2.4 2.4 2.4h7.7425q2.4 0 2.4-2.4v-35.285q0-2.4-2.4-2.4h-7.7425q-2.4 0-2.4 2.4z" clip-path="url(#a)" fill="#fff" stroke="#fff"/>
<g clip-path="url(#a)">
<g transform="translate(365.07 827.44) rotate(90) scale(.08 -.08)">
<use xlink:href="#l"/>
<use x="60.818359" xlink:href="#c"/>
<use x="122.341797" xlink:href="#h"/>
<use x="163.439453" xlink:href="#k"/>
<use x="260.851562" xlink:href="#g"/>
<use x="288.634766" xlink:href="#e"/>
<use x="352.013672" xlink:href="#i"/>
<use x="413.292969" xlink:href="#j"/>
</g>
</g>
<path d="m408.37 827.44v35.285q0 2.4 2.4 2.4h7.7425q2.4 0 2.4-2.4v-35.285q0-2.4-2.4-2.4h-7.7425q-2.4 0-2.4 2.4z" clip-path="url(#a)" fill="#fff" stroke="#fff"/>
<g clip-path="url(#a)">
<g transform="translate(412.44 827.44) rotate(90) scale(.08 -.08)">
<use xlink:href="#l"/>
<use x="60.818359" xlink:href="#c"/>
<use x="122.341797" xlink:href="#h"/>
<use x="163.439453" xlink:href="#k"/>
<use x="260.851562" xlink:href="#g"/>
<use x="288.634766" xlink:href="#e"/>
<use x="352.013672" xlink:href="#i"/>
<use x="413.292969" xlink:href="#j"/>
</g>
</g>
<path d="m455.74 827.44v35.285q0 2.4 2.4 2.4h7.7425q2.4 0 2.4-2.4v-35.285q0-2.4-2.4-2.4h-7.7425q-2.4 0-2.4 2.4z" clip-path="url(#a)" fill="#fff" stroke="#fff"/>
<g clip-path="url(#a)">
<g transform="translate(459.8 827.44) rotate(90) scale(.08 -.08)">
<use xlink:href="#l"/>
<use x="60.818359" xlink:href="#c"/>
<use x="122.341797" xlink:href="#h"/>
<use x="163.439453" xlink:href="#k"/>
<use x="260.851562" xlink:href="#g"/>
<use x="288.634766" xlink:href="#e"/>
<use x="352.013672" xlink:href="#i"/>
<use x="413.292969" xlink:href="#j"/>
</g>
</g>
<path d="m692.58 827.44v35.285q0 2.4 2.4 2.4h7.7425q2.4 0 2.4-2.4v-35.285q0-2.4-2.4-2.4h-7.7425q-2.4 0-2.4 2.4z" clip-path="url(#a)" fill="#fff" stroke="#fff"/>
<g clip-path="url(#a)">
<g transform="translate(696.64 827.44) rotate(90) scale(.08 -.08)">
<use xlink:href="#l"/>
<use x="60.818359" xlink:href="#c"/>
<use x="122.341797" xlink:href="#h"/>
<use x="163.439453" xlink:href="#k"/>
<use x="260.851562" xlink:href="#g"/>
<use x="288.634766" xlink:href="#e"/>
<use x="352.013672" xlink:href="#i"/>
<use x="413.292969" xlink:href="#j"/>
</g>
</g>
<path d="m976.78 827.44v35.285q0 2.4 2.4 2.4h7.7425q2.4 0 2.4-2.4v-35.285q0-2.4-2.4-2.4h-7.7425q-2.4 0-2.4 2.4z" clip-path="url(#a)" fill="#fff" stroke="#fff"/>
<g clip-path="url(#a)">
<g transform="translate(980.84 827.44) rotate(90) scale(.08 -.08)">
<use xlink:href="#l"/>
<use x="60.818359" xlink:href="#c"/>
<use x="122.341797" xlink:href="#h"/>
<use x="163.439453" xlink:href="#k"/>
<use x="260.851562" xlink:href="#g"/>
<use x="288.634766" xlink:href="#e"/>
<use x="352.013672" xlink:href="#i"/>
<use x="413.292969" xlink:href="#j"/>
</g>
</g>
<path d="m1734.7 827.44v35.285q0 2.4 2.4 2.4h7.7425q2.4 0 2.4-2.4v-35.285q0-2.4-2.4-2.4h-7.7425q-2.4 0-2.4 2.4z" clip-path="url(#a)" fill="#fff" stroke="#fff"/>
<g clip-path="url(#a)">
<g transform="translate(1738.7 827.44) rotate(90) scale(.08 -.08)">
<use xlink:href="#l"/>
<use x="60.818359" xlink:href="#c"/>
<use x="122.341797" xlink:href="#h"/>
<use x="163.439453" xlink:href="#k"/>
<use x="260.851562" xlink:href="#g"/>
<use x="288.634766" xlink:href="#e"/>
<use x="352.013672" xlink:href="#i"/>
<use x="413.292969" xlink:href="#j"/>
</g>
</g>
<defs>
<path id="b" d="m0 8.6603c2.2967 0 4.4997-0.9125 6.1237-2.5365 1.624-1.624 2.5365-3.827 2.5365-6.1237s-0.9125-4.4997-2.5365-6.1237c-1.624-1.624-3.827-2.5365-6.1237-2.5365s-4.4997 0.9125-6.1237 2.5365c-1.624 1.624-2.5365 3.827-2.5365 6.1237s0.9125 4.4997 2.5365 6.1237c1.624 1.624 3.827 2.5365 6.1237 2.5365z"/>
</defs>
<g clip-path="url(#a)">
<use x="83.071017" y="915.449535" fill="#ffffff" stroke="#ffffff" xlink:href="#b"/>
</g>
<g clip-path="url(#a)">
<use x="130.438388" y="915.449535" fill="#ffffff" stroke="#ffffff" xlink:href="#b"/>
</g>
<g clip-path="url(#a)">
<use x="177.805758" y="915.449535" fill="#ffffff" stroke="#ffffff" xlink:href="#b"/>
</g>
<g clip-path="url(#a)">
<use x="225.173129" y="915.449535" fill="#ffffff" stroke="#ffffff" xlink:href="#b"/>
</g>
<g clip-path="url(#a)">
<use x="272.540499" y="915.449535" fill="#ffffff" stroke="#ffffff" xlink:href="#b"/>
</g>
<g clip-path="url(#a)">
<use x="319.907869" y="915.449535" fill="#ffffff" stroke="#ffffff" xlink:href="#b"/>
</g>
<g clip-path="url(#a)">
<use x="367.27524" y="915.449535" fill="#ffffff" stroke="#ffffff" xlink:href="#b"/>
</g>
<g clip-path="url(#a)">
<use x="414.64261" y="915.449535" fill="#ffffff" stroke="#ffffff" xlink:href="#b"/>
</g>
<g clip-path="url(#a)">
<use x="462.009981" y="915.449535" fill="#ffffff" stroke="#ffffff" xlink:href="#b"/>
</g>
<g clip-path="url(#a)">
<use x="509.377351" y="915.449535" fill="#ffffff" stroke="#ffffff" xlink:href="#b"/>
</g>
<g clip-path="url(#a)">
<use x="556.744722" y="915.449535" fill="#ffffff" stroke="#ffffff" xlink:href="#b"/>
</g>
<g clip-path="url(#a)">
<use x="604.112092" y="915.449535" fill="#ffffff" stroke="#ffffff" xlink:href="#b"/>
</g>
<g clip-path="url(#a)">
<use x="651.479463" y="915.449535" fill="#ffffff" stroke="#ffffff" xlink:href="#b"/>
</g>
<g clip-path="url(#a)">
<use x="698.846833" y="915.449535" fill="#ffffff" stroke="#ffffff" xlink:href="#b"/>
</g>
<g clip-path="url(#a)">
<use x="746.214203" y="915.449535" fill="#ffffff" stroke="#ffffff" xlink:href="#b"/>
</g>
<g clip-path="url(#a)">
<use x="793.581574" y="915.449535" fill="#ffffff" stroke="#ffffff" xlink:href="#b"/>
</g>
<g clip-path="url(#a)">
<use x="840.948944" y="915.449535" fill="#ffffff" stroke="#ffffff" xlink:href="#b"/>
</g>
<g clip-path="url(#a)">
<use x="888.316315" y="915.449535" fill="#ffffff" stroke="#ffffff" xlink:href="#b"/>
</g>
<g clip-path="url(#a)">
<use x="935.683685" y="915.449535" fill="#ffffff" stroke="#ffffff" xlink:href="#b"/>
</g>
<g clip-path="url(#a)">
<use x="983.051056" y="915.449535" fill="#ffffff" stroke="#ffffff" xlink:href="#b"/>
</g>
<g clip-path="url(#a)">
<use x="1030.418426" y="915.449535" fill="#ffffff" stroke="#ffffff" xlink:href="#b"/>
</g>
<g clip-path="url(#a)">
<use x="1077.785797" y="915.449535" fill="#ffffff" stroke="#ffffff" xlink:href="#b"/>
</g>
<g clip-path="url(#a)">
<use x="1125.153167" y="915.449535" fill="#ffffff" stroke="#ffffff" xlink:href="#b"/>
</g>
<g clip-path="url(#a)">
<use x="1172.520537" y="915.449535" fill="#ffffff" stroke="#ffffff" xlink:href="#b"/>
</g>
<g clip-path="url(#a)">
<use x="1219.887908" y="915.449535" fill="#ffffff" stroke="#ffffff" xlink:href="#b"/>
</g>
<g clip-path="url(#a)">
<use x="1267.255278" y="915.449535" fill="#ffffff" stroke="#ffffff" xlink:href="#b"/>
</g>
<g clip-path="url(#a)">
<use x="1314.622649" y="915.449535" fill="#ffffff" stroke="#ffffff" xlink:href="#b"/>
</g>
<g clip-path="url(#a)">
<use x="1361.990019" y="915.449535" fill="#ffffff" stroke="#ffffff" xlink:href="#b"/>
</g>
<g clip-path="url(#a)">
<use x="1409.35739" y="915.449535" fill="#ffffff" stroke="#ffffff" xlink:href="#b"/>
</g>
<g clip-path="url(#a)">
<use x="1456.72476" y="915.449535" fill="#ffffff" stroke="#ffffff" xlink:href="#b"/>
</g>
<g clip-path="url(#a)">
<use x="1504.092131" y="915.449535" fill="#ffffff" stroke="#ffffff" xlink:href="#b"/>
</g>
<g clip-path="url(#a)">
<use x="1551.459501" y="915.449535" fill="#ffffff" stroke="#ffffff" xlink:href="#b"/>
</g>
<g clip-path="url(#a)">
<use x="1598.826871" y="915.449535" fill="#ffffff" stroke="#ffffff" xlink:href="#b"/>
</g>
<g clip-path="url(#a)">
<use x="1646.194242" y="915.449535" fill="#ffffff" stroke="#ffffff" xlink:href="#b"/>
</g>
<g clip-path="url(#a)">
<use x="1693.561612" y="915.449535" fill="#ffffff" stroke="#ffffff" xlink:href="#b"/>
</g>
<g clip-path="url(#a)">
<use x="1740.928983" y="915.449535" fill="#ffffff" stroke="#ffffff" xlink:href="#b"/>
</g>
<g clip-path="url(#a)">
<use x="888.197896" y="44.550465" fill="#ffffff" stroke="#ffffff" xlink:href="#b"/>
</g>
<g clip-path="url(#a)">
<use x="291.80323" y="197.091414" fill="#ffffff" stroke="#ffffff" xlink:href="#b"/>
</g>
<g clip-path="url(#a)">
<use x="1030.418426" y="774.714422" fill="#ffffff" stroke="#ffffff" xlink:href="#b"/>
</g>
<g clip-path="url(#a)">
<use x="1247.518874" y="197.091414" fill="#ffffff" stroke="#ffffff" xlink:href="#b"/>
</g>
<g clip-path="url(#a)">
<use x="1077.785797" y="774.714422" fill="#ffffff" stroke="#ffffff" xlink:href="#b"/>
</g>
<g clip-path="url(#a)">
<use x="1125.153167" y="774.714422" fill="#ffffff" stroke="#ffffff" xlink:href="#b"/>
</g>
<g clip-path="url(#a)">
<use x="1196.204223" y="633.979309" fill="#ffffff" stroke="#ffffff" xlink:href="#b"/>
</g>
<g clip-path="url(#a)">
<use x="1267.255278" y="774.714422" fill="#ffffff" stroke="#ffffff" xlink:href="#b"/>
</g>
<g clip-path="url(#a)">
<use x="1314.622649" y="774.714422" fill="#ffffff" stroke="#ffffff" xlink:href="#b"/>
</g>
<g clip-path="url(#a)">
<use x="1504.092131" y="345.845863" fill="#ffffff" stroke="#ffffff" xlink:href="#b"/>
</g>
<g clip-path="url(#a)">
<use x="1361.990019" y="774.714422" fill="#ffffff" stroke="#ffffff" xlink:href="#b"/>
</g>
<g clip-path="url(#a)">
<use x="1480.408445" y="491.286416" fill="#ffffff" stroke="#ffffff" xlink:href="#b"/>
</g>
<g clip-path="url(#a)">
<use x="1669.877927" y="633.979309" fill="#ffffff" stroke="#ffffff" xlink:href="#b"/>
</g>
<g clip-path="url(#a)">
<use x="1598.826871" y="774.714422" fill="#ffffff" stroke="#ffffff" xlink:href="#b"/>
</g>
<g clip-path="url(#a)">
<use x="1646.194242" y="774.714422" fill="#ffffff" stroke="#ffffff" xlink:href="#b"/>
</g>
<g clip-path="url(#a)">
<use x="1693.561612" y="774.714422" fill="#ffffff" stroke="#ffffff" xlink:href="#b"/>
</g>
<g clip-path="url(#a)">
<use x="1409.35739" y="774.714422" fill="#ffffff" stroke="#ffffff" xlink:href="#b"/>
</g>
<g clip-path="url(#a)">
<use x="1480.408445" y="633.979309" fill="#ffffff" stroke="#ffffff" xlink:href="#b"/>
</g>
<g clip-path="url(#a)">
<use x="1551.459501" y="774.714422" fill="#ffffff" stroke="#ffffff" xlink:href="#b"/>
</g>
<g clip-path="url(#a)">
<use x="1456.72476" y="774.714422" fill="#ffffff" stroke="#ffffff" xlink:href="#b"/>
</g>
<g clip-path="url(#a)">
<use x="1504.092131" y="774.714422" fill="#ffffff" stroke="#ffffff" xlink:href="#b"/>
</g>
<g clip-path="url(#a)">
<use x="1172.520537" y="774.714422" fill="#ffffff" stroke="#ffffff" xlink:href="#b"/>
</g>
<g clip-path="url(#a)">
<use x="1219.887908" y="774.714422" fill="#ffffff" stroke="#ffffff" xlink:href="#b"/>
</g>
<g clip-path="url(#a)">
<use x="83.071017" y="774.714422" fill="#ffffff" stroke="#ffffff" xlink:href="#b"/>
</g>
<g clip-path="url(#a)">
<use x="130.438388" y="774.714422" fill="#ffffff" stroke="#ffffff" xlink:href="#b"/>
</g>
<g clip-path="url(#a)">
<use x="177.805758" y="774.714422" fill="#ffffff" stroke="#ffffff" xlink:href="#b"/>
</g>
<g clip-path="url(#a)">
<use x="225.173129" y="774.714422" fill="#ffffff" stroke="#ffffff" xlink:href="#b"/>
</g>
<g clip-path="url(#a)">
<use x="327.802431" y="491.286416" fill="#ffffff" stroke="#ffffff" xlink:href="#b"/>
</g>
<g clip-path="url(#a)">
<use x="636.321904" y="345.845863" fill="#ffffff" stroke="#ffffff" xlink:href="#b"/>
</g>
<g clip-path="url(#a)">
<use x="509.377351" y="774.714422" fill="#ffffff" stroke="#ffffff" xlink:href="#b"/>
</g>
<g clip-path="url(#a)">
<use x="556.744722" y="774.714422" fill="#ffffff" stroke="#ffffff" xlink:href="#b"/>
</g>
<g clip-path="url(#a)">
<use x="627.795777" y="633.979309" fill="#ffffff" stroke="#ffffff" xlink:href="#b"/>
</g>
<g clip-path="url(#a)">
<use x="788.844837" y="491.286416" fill="#ffffff" stroke="#ffffff" xlink:href="#b"/>
</g>
<g clip-path="url(#a)">
<use x="746.214203" y="774.714422" fill="#ffffff" stroke="#ffffff" xlink:href="#b"/>
</g>
<g clip-path="url(#a)">
<use x="817.265259" y="633.979309" fill="#ffffff" stroke="#ffffff" xlink:href="#b"/>
</g>
<g clip-path="url(#a)">
<use x="888.316315" y="774.714422" fill="#ffffff" stroke="#ffffff" xlink:href="#b"/>
</g>
<g clip-path="url(#a)">
<use x="935.683685" y="774.714422" fill="#ffffff" stroke="#ffffff" xlink:href="#b"/>
</g>
<g clip-path="url(#a)">
<use x="793.581574" y="774.714422" fill="#ffffff" stroke="#ffffff" xlink:href="#b"/>
</g>
<g clip-path="url(#a)">
<use x="840.948944" y="774.714422" fill="#ffffff" stroke="#ffffff" xlink:href="#b"/>
</g>
<g clip-path="url(#a)">
<use x="604.112092" y="774.714422" fill="#ffffff" stroke="#ffffff" xlink:href="#b"/>
</g>
<g clip-path="url(#a)">
<use x="651.479463" y="774.714422" fill="#ffffff" stroke="#ffffff" xlink:href="#b"/>
</g>
<g clip-path="url(#a)">
<use x="272.540499" y="774.714422" fill="#ffffff" stroke="#ffffff" xlink:href="#b"/>
</g>
<g clip-path="url(#a)">
<use x="319.907869" y="774.714422" fill="#ffffff" stroke="#ffffff" xlink:href="#b"/>
</g>
<g clip-path="url(#a)">
<use x="390.958925" y="633.979309" fill="#ffffff" stroke="#ffffff" xlink:href="#b"/>
</g>
<g clip-path="url(#a)">
<use x="367.27524" y="774.714422" fill="#ffffff" stroke="#ffffff" xlink:href="#b"/>
</g>
<g clip-path="url(#a)">
<use x="414.64261" y="774.714422" fill="#ffffff" stroke="#ffffff" xlink:href="#b"/>
</g>
<g clip-path="url(#a)">
<use x="462.009981" y="774.714422" fill="#ffffff" stroke="#ffffff" xlink:href="#b"/>
</g>
<g clip-path="url(#a)">
<use x="698.846833" y="774.714422" fill="#ffffff" stroke="#ffffff" xlink:href="#b"/>
</g>
<g clip-path="url(#a)">
<use x="983.051056" y="774.714422" fill="#ffffff" stroke="#ffffff" xlink:href="#b"/>
</g>
<g clip-path="url(#a)">
<use x="1740.928983" y="774.714422" fill="#ffffff" stroke="#ffffff" xlink:href="#b"/>
</g>
<g clip-path="url(#a)">
<g transform="translate(77.856 918.21) scale(.1 -.1)">
<use xlink:href="#p"/>
<use x="63.183594" xlink:href="#h"/>
</g>
</g>
<g clip-path="url(#a)">
<defs>
<path id="t" d="m54.891 33.016v-33.016h-8.9844v32.719q0 7.7656-3.0312 11.609-3.0312 3.8594-9.0781 3.8594-7.2812 0-11.484-4.6406-4.2031-4.625-4.2031-12.641v-30.906h-9.0312v75.984h9.0312v-29.797q3.2344 4.9375 7.5938 7.375 4.375 2.4375 10.094 2.4375 9.4219 0 14.25-5.8281 4.8438-5.8281 4.8438-17.156z"/>
<path id="v" d="m18.312 70.219v-15.531h18.5v-6.9844h-18.5v-29.688q0-6.6875 1.8281-8.5938t7.4531-1.9062h9.2188v-7.5156h-9.2188q-10.406 0-14.359 3.875-3.9531 3.8906-3.9531 14.141v29.688h-6.5938v6.9844h6.5938v15.531z"/>
</defs>
<g transform="translate(117.21 918.21) scale(.1 -.1)">
<use xlink:href="#t"/>
<use x="63.378906" xlink:href="#i"/>
<use x="124.658203" xlink:href="#v"/>
<use x="163.867188" xlink:href="#v"/>
<use x="203.076172" xlink:href="#c"/>
</g>
</g>
<g clip-path="url(#a)">
<defs>
<path id="x" d="m45.406 46.391v29.594h8.9844v-75.984h-8.9844v8.2031q-2.8281-4.875-7.1562-7.25-4.3125-2.375-10.375-2.375-9.9062 0-16.141 7.9062-6.2188 7.9219-6.2188 20.812t6.2188 20.797q6.2344 7.9062 16.141 7.9062 6.0625 0 10.375-2.375 4.3281-2.3594 7.1562-7.2344zm-30.609-19.094q0-9.9062 4.0781-15.547t11.203-5.6406 11.219 5.6406q4.1094 5.6406 4.1094 15.547t-4.1094 15.547q-4.0938 5.6406-11.219 5.6406t-11.203-5.6406-4.0781-15.547z"/>
</defs>
<g transform="translate(164.95 918.21) scale(.1 -.1)">
<use xlink:href="#x"/>
<use x="63.476562" xlink:href="#i"/>
<use x="124.755859" xlink:href="#h"/>
<use x="165.869141" xlink:href="#g"/>
<use x="193.652344" xlink:href="#e"/>
</g>
</g>
<g clip-path="url(#a)">
<defs>
<path id="ai" d="m48.781 52.594v-8.4062q-3.8125 2.1094-7.6406 3.1562t-7.7344 1.0469q-8.75 0-13.594-5.5469-4.8281-5.5312-4.8281-15.547t4.8281-15.562q4.8438-5.5312 13.594-5.5312 3.9062 0 7.7344 1.0469t7.6406 3.1562v-8.3125q-3.7656-1.75-7.7969-2.625-4.0156-0.89062-8.5625-0.89062-12.359 0-19.641 7.7656-7.2656 7.7656-7.2656 20.953 0 13.375 7.3438 21.031 7.3594 7.6719 20.156 7.6719 4.1406 0 8.0938-0.85938 3.9531-0.84375 7.6719-2.5469z"/>
</defs>
<g transform="translate(212.74 918.21) scale(.1 -.1)">
<use xlink:href="#e"/>
<use x="63.378906" xlink:href="#g"/>
<use x="91.162109" xlink:href="#ai"/>
<use x="146.142578" xlink:href="#t"/>
<use x="209.521484" xlink:href="#v"/>
</g>
</g>
<g clip-path="url(#a)">
<defs>
<path id="ar" d="m9.4219 54.688h8.9844v-55.672q0-10.438-3.9844-15.125-3.9688-4.6875-12.812-4.6875h-3.4219v7.6094h2.4062q5.125 0 6.9688 2.375 1.8594 2.3594 1.8594 9.8281zm0 21.297h8.9844v-11.391h-8.9844z"/>
</defs>
<g transform="translate(261.83 918.21) scale(.1 -.1)">
<use xlink:href="#ar"/>
<use x="27.783203" xlink:href="#c"/>
<use x="89.306641" xlink:href="#e"/>
<use x="152.685547" xlink:href="#c"/>
</g>
</g>
<g clip-path="url(#a)">
<g transform="translate(300.92 918.21) scale(.1 -.1)">
<use xlink:href="#aj"/>
<use x="57.410156" xlink:href="#h"/>
<use x="98.492188" xlink:href="#c"/>
<use x="160.015625" xlink:href="#g"/>
<use x="187.798828" xlink:href="#t"/>
<use x="251.177734" xlink:href="#c"/>
<use x="312.701172" xlink:href="#g"/>
<use x="340.484375" xlink:href="#v"/>
</g>
</g>
<g clip-path="url(#a)">
<g transform="translate(358.97 918.21) scale(.1 -.1)">
<use xlink:href="#x"/>
<use x="63.476562" xlink:href="#c"/>
<use x="125" xlink:href="#h"/>
</g>
</g>
<g clip-path="url(#a)">
<defs>
<path id="az" d="m19.672 34.812v-26.703h15.828q7.9531 0 11.781 3.2969 3.8438 3.2969 3.8438 10.078 0 6.8438-3.8438 10.078-3.8281 3.25-11.781 3.25zm0 29.984v-21.969h14.609q7.2188 0 10.75 2.7031 3.5469 2.7188 3.5469 8.2812 0 5.5156-3.5469 8.25-3.5312 2.7344-10.75 2.7344zm-9.8594 8.1094h25.203q11.281 0 17.375-4.6875 6.1094-4.6875 6.1094-13.328 0-6.7031-3.125-10.656t-9.1875-4.9219q7.2812-1.5625 11.312-6.5312 4.0312-4.9531 4.0312-12.375 0-9.7656-6.6406-15.094-6.6406-5.3125-18.906-5.3125h-26.172z"/>
<path id="ad" d="m4.2031 54.688h8.9844l11.234-42.672 11.172 42.672h10.594l11.234-42.672 11.188 42.672h8.9844l-14.312-54.688h-10.594l-11.766 44.828-11.812-44.828h-10.609z"/>
<path id="y" d="m45.406 27.984q0 9.7656-4.0312 15.125-4.0156 5.375-11.297 5.375-7.2188 0-11.25-5.375-4.0312-5.3594-4.0312-15.125 0-9.7188 4.0312-15.094t11.25-5.375q7.2812 0 11.297 5.375 4.0312 5.375 4.0312 15.094zm8.9844-21.203q0-13.953-6.2031-20.766-6.1875-6.8125-18.984-6.8125-4.7344 0-8.9375 0.70312t-8.1562 2.1719v8.7344q3.9531-2.1406 7.8125-3.1562 3.8594-1.0312 7.8594-1.0312 8.8438 0 13.234 4.6094t4.3906 13.938v4.4531q-2.7812-4.8438-7.125-7.2344t-10.406-2.3906q-10.047 0-16.203 7.6562-6.1562 7.6719-6.1562 20.328 0 12.688 6.1562 20.344 6.1562 7.6719 16.203 7.6719 6.0625 0 10.406-2.3906t7.125-7.2188v8.2969h8.9844z"/>
<path id="s" d="m8.5 21.578v33.109h8.9844v-32.766q0-7.7656 3.0156-11.656 3.0312-3.875 9.0938-3.875 7.2656 0 11.484 4.6406 4.2344 4.6406 4.2344 12.656v31h8.9844v-54.688h-8.9844v8.4062q-3.2656-4.9844-7.5938-7.4062-4.3125-2.4219-10.031-2.4219-9.4219 0-14.312 5.8594-4.875 5.8594-4.875 17.141z"/>
</defs>
<g transform="translate(382.04 918.21) scale(.1 -.1)">
<use xlink:href="#az"/>
<use x="68.603516" xlink:href="#c"/>
<use x="130.126953" xlink:href="#ad"/>
<use x="211.914062" xlink:href="#c"/>
<use x="273.4375" xlink:href="#y"/>
<use x="336.914062" xlink:href="#s"/>
<use x="400.292969" xlink:href="#e"/>
<use x="463.671875" xlink:href="#y"/>
<use x="527.148438" xlink:href="#c"/>
<use x="588.671875" xlink:href="#e"/>
</g>
</g>
<g clip-path="url(#a)">
<defs>
<path id="ak" d="m11.719 12.406h10.297v-8.4062l-8-15.625h-6.2969l4 15.625z"/>
</defs>
<g transform="translate(460.42 918.21) scale(.1 -.1)">
<use xlink:href="#ak"/>
</g>
</g>
<g clip-path="url(#a)">
<g transform="translate(498.67 918.21) scale(.1 -.1)">
<use xlink:href="#ar"/>
<use x="27.783203" xlink:href="#c"/>
<use x="89.306641" xlink:href="#e"/>
<use x="152.685547" xlink:href="#c"/>
</g>
</g>
<g clip-path="url(#a)">
<defs>
<path id="as" d="m48.688 27.297q0 9.9062-4.0781 15.547t-11.203 5.6406q-7.1406 0-11.219-5.6406t-4.0781-15.547 4.0781-15.547 11.219-5.6406q7.125 0 11.203 5.6406t4.0781 15.547zm-30.578 19.094q2.8438 4.875 7.1562 7.2344 4.3281 2.375 10.328 2.375 9.9688 0 16.188-7.9062 6.2344-7.9062 6.2344-20.797t-6.2344-20.812q-6.2188-7.9062-16.188-7.9062-6 0-10.328 2.375-4.3125 2.375-7.1562 7.25v-8.2031h-9.0312v75.984h9.0312z"/>
<path id="ap" d="m34.281 27.484q-10.891 0-15.094-2.4844t-4.2031-8.5q0-4.7812 3.1562-7.5938 3.1562-2.7969 8.5625-2.7969 7.4844 0 12 5.2969t4.5156 14.078v2zm17.922 3.7188v-31.203h-8.9844v8.2969q-3.0781-4.9688-7.6719-7.3438t-11.234-2.375q-8.3906 0-13.359 4.7188-4.9531 4.7188-4.9531 12.625 0 9.2188 6.1719 13.906 6.1875 4.6875 18.438 4.6875h12.609v0.89062q0 6.2031-4.0781 9.5938t-11.453 3.3906q-4.6875 0-9.1406-1.125-4.4375-1.125-8.5312-3.375v8.3125q4.9219 1.9062 9.5625 2.8438 4.6406 0.95312 9.0312 0.95312 11.875 0 17.734-6.1562 5.8594-6.1406 5.8594-18.641zm-18.609 44.578h9.9062v-9.8594h-9.9062zm-19.094 0h9.9062v-9.8594h-9.9062z"/>
<path id="aq" d="m9.0781 75.984h9.0312v-44.875l26.812 23.578h11.469l-29-25.578 30.234-29.109h-11.719l-27.797 26.703v-26.703h-9.0312z"/>
</defs>
<g transform="translate(517.22 918.21) scale(.1 -.1)">
<use xlink:href="#z"/>
<use x="73.193359" xlink:href="#e"/>
<use x="136.572266" xlink:href="#i"/>
<use x="197.851562" xlink:href="#as"/>
<use x="261.328125" xlink:href="#t"/>
<use x="324.707031" xlink:href="#ap"/>
<use x="385.986328" xlink:href="#e"/>
<use x="449.365234" xlink:href="#y"/>
<use x="512.841797" xlink:href="#g"/>
<use x="540.625" xlink:href="#y"/>
<use x="604.101562" xlink:href="#aq"/>
<use x="661.964844" xlink:href="#c"/>
<use x="723.488281" xlink:href="#g"/>
<use x="751.271484" xlink:href="#v"/>
</g>
</g>
<g clip-path="url(#a)">
<defs>
<path id="w" d="m44.281 53.078v-8.5q-3.7969 1.9531-7.9062 2.9219-4.0938 0.98438-8.5 0.98438-6.6875 0-10.031-2.0469t-3.3438-6.1562q0-3.125 2.3906-4.9062t9.625-3.3906l3.0781-0.6875q9.5625-2.0469 13.594-5.7812t4.0312-10.422q0-7.625-6.0312-12.078-6.0312-4.4375-16.578-4.4375-4.3906 0-9.1562 0.85938t-10.031 2.5625v9.2812q4.9844-2.5938 9.8125-3.8906 4.8281-1.2812 9.5781-1.2812 6.3438 0 9.75 2.1719 3.4219 2.1719 3.4219 6.125 0 3.6562-2.4688 5.6094-2.4531 1.9531-10.812 3.7656l-3.125 0.73438q-8.3438 1.75-12.062 5.3906-3.7031 3.6406-3.7031 9.9844 0 7.7188 5.4688 11.906 5.4688 4.2031 15.531 4.2031 4.9688 0 9.3594-0.73438 4.4062-0.71875 8.1094-2.1875z"/>
</defs>
<g transform="translate(588.74 918.21) scale(.1 -.1)">
<use xlink:href="#w"/>
<use x="52.099609" xlink:href="#c"/>
<use x="113.623047" xlink:href="#g"/>
<use x="141.40625" xlink:href="#e"/>
<use x="204.785156" xlink:href="#c"/>
<use x="266.308594" xlink:href="#h"/>
</g>
</g>
<g clip-path="url(#a)">
<g transform="translate(607.52 918.21) scale(.1 -.1)">
<use xlink:href="#z"/>
<use x="73.193359" xlink:href="#e"/>
<use x="136.572266" xlink:href="#v"/>
<use x="175.78125" xlink:href="#c"/>
<use x="237.304688" xlink:href="#h"/>
<use x="278.402344" xlink:href="#e"/>
<use x="341.78125" xlink:href="#c"/>
<use x="403.304688" xlink:href="#t"/>
<use x="466.683594" xlink:href="#k"/>
<use x="564.095703" xlink:href="#s"/>
<use x="627.474609" xlink:href="#e"/>
<use x="690.853516" xlink:href="#y"/>
<use x="754.330078" xlink:href="#c"/>
<use x="815.853516" xlink:href="#e"/>
</g>
</g>
<g clip-path="url(#a)">
<g transform="translate(697.26 918.21) scale(.1 -.1)">
<use xlink:href="#ak"/>
</g>
</g>
<g clip-path="url(#a)">
<g transform="translate(728.66 918.21) scale(.1 -.1)">
<use xlink:href="#ad"/>
<use x="81.787109" xlink:href="#c"/>
<use x="143.310547" xlink:href="#j"/>
<use x="171.09375" xlink:href="#ai"/>
<use x="226.074219" xlink:href="#t"/>
<use x="289.453125" xlink:href="#c"/>
</g>
</g>
<g clip-path="url(#a)">
<g transform="translate(785.94 918.21) scale(.1 -.1)">
<use xlink:href="#x"/>
<use x="63.476562" xlink:href="#g"/>
<use x="91.259766" xlink:href="#c"/>
</g>
</g>
<g clip-path="url(#a)">
<defs>
<path id="aw" d="m39.406 66.219q-10.75 0-17.078-8.0156-6.3125-8-6.3125-21.828 0-13.766 6.3125-21.781 6.3281-8 17.078-8 10.734 0 17.016 8 6.2812 8.0156 6.2812 21.781 0 13.828-6.2812 21.828-6.2812 8.0156-17.016 8.0156zm0 8q15.328 0 24.5-10.281 9.1875-10.281 9.1875-27.562 0-17.234-9.1875-27.516-9.1719-10.281-24.5-10.281-15.375 0-24.594 10.25-9.2031 10.266-9.2031 27.547t9.2031 27.562q9.2188 10.281 24.594 10.281z"/>
<path id="ah" d="m5.5156 54.688h42.672v-8.2031l-33.781-39.312h33.781v-7.1719h-43.891v8.2031l33.797 39.312h-32.578z"/>
</defs>
<g transform="translate(822 918.21) scale(.1 -.1)">
<use xlink:href="#aw"/>
<use x="78.710938" xlink:href="#ah"/>
<use x="131.201172" xlink:href="#c"/>
<use x="192.724609" xlink:href="#i"/>
<use x="254.003906" xlink:href="#e"/>
<use x="317.382812" xlink:href="#c"/>
</g>
</g>
<g clip-path="url(#a)">
<g transform="translate(878.89 918.21) scale(.1 -.1)">
<use xlink:href="#g"/>
<use x="27.783203" xlink:href="#t"/>
<use x="91.162109" xlink:href="#k"/>
</g>
</g>
<g clip-path="url(#a)">
<g transform="translate(908.85 918.21) scale(.1 -.1)">
<use xlink:href="#y"/>
<use x="63.476562" xlink:href="#c"/>
<use x="125" xlink:href="#ad"/>
<use x="206.787109" xlink:href="#ap"/>
<use x="268.066406" xlink:href="#t"/>
<use x="331.445312" xlink:href="#h"/>
<use x="372.558594" xlink:href="#v"/>
<use x="411.767578" xlink:href="#c"/>
<use x="473.291016" xlink:href="#e"/>
</g>
</g>
<g clip-path="url(#a)">
<g transform="translate(981.46 918.21) scale(.1 -.1)">
<use xlink:href="#ak"/>
</g>
</g>
<g clip-path="url(#a)">
<g transform="translate(1020.9 918.21) scale(.1 -.1)">
<use xlink:href="#s"/>
<use x="63.378906" xlink:href="#e"/>
<use x="126.757812" xlink:href="#x"/>
</g>
</g>
<g clip-path="url(#a)">
<g transform="translate(1072.1 918.21) scale(.1 -.1)">
<use xlink:href="#c"/>
<use x="61.523438" xlink:href="#w"/>
</g>
</g>
<g clip-path="url(#a)">
<g transform="translate(1109.6 918.21) scale(.1 -.1)">
<use xlink:href="#ad"/>
<use x="81.787109" xlink:href="#s"/>
<use x="145.166016" xlink:href="#h"/>
<use x="186.263672" xlink:href="#x"/>
<use x="249.740234" xlink:href="#c"/>
</g>
</g>
<g clip-path="url(#a)">
<g transform="translate(1157.1 918.21) scale(.1 -.1)">
<use xlink:href="#w"/>
<use x="52.099609" xlink:href="#c"/>
<use x="113.623047" xlink:href="#g"/>
<use x="141.40625" xlink:href="#e"/>
<use x="204.785156" xlink:href="#c"/>
<use x="266.308594" xlink:href="#h"/>
</g>
</g>
<g clip-path="url(#a)">
<defs>
<path id="at" d="m9.4219 51.703 22.906-20.406v-4l-22.906-20.406v9.3281l14.703 13.078-14.703 13.094z"/>
<path id="au" d="m30.609 51.703v-9.3125l-14.688-13.094 14.688-13.078v-9.3281l-22.891 20.406v4z"/>
</defs>
<g transform="translate(1195.4 918.21) scale(.1 -.1)">
<use xlink:href="#at"/>
<use x="39.990234" xlink:href="#am"/>
<use x="114.794922" xlink:href="#i"/>
<use x="176.074219" xlink:href="#s"/>
<use x="239.453125" xlink:href="#v"/>
<use x="278.662109" xlink:href="#g"/>
<use x="306.445312" xlink:href="#j"/>
<use x="334.228516" xlink:href="#s"/>
<use x="397.607422" xlink:href="#w"/>
<use x="449.707031" xlink:href="#au"/>
</g>
</g>
<g clip-path="url(#a)">
<g transform="translate(1261.5 918.21) scale(.1 -.1)">
<use xlink:href="#ah"/>
<use x="52.490234" xlink:href="#s"/>
</g>
</g>
<g clip-path="url(#a)">
<g transform="translate(1305.2 918.21) scale(.1 -.1)">
<use xlink:href="#c"/>
<use x="61.523438" xlink:href="#e"/>
<use x="124.902344" xlink:href="#y"/>
</g>
</g>
<g clip-path="url(#a)">
<g transform="translate(1339.1 918.21) scale(.1 -.1)">
<use xlink:href="#ah"/>
<use x="52.490234" xlink:href="#ad"/>
<use x="134.277344" xlink:href="#g"/>
<use x="162.060547" xlink:href="#w"/>
<use x="214.160156" xlink:href="#ai"/>
<use x="269.140625" xlink:href="#t"/>
<use x="332.519531" xlink:href="#c"/>
<use x="394.042969" xlink:href="#e"/>
</g>
</g>
<g clip-path="url(#a)">
<g transform="translate(1399.9 918.21) scale(.1 -.1)">
<use xlink:href="#x"/>
<use x="63.476562" xlink:href="#c"/>
<use x="125" xlink:href="#e"/>
</g>
</g>
<g clip-path="url(#a)">
<g transform="translate(1445.1 918.21) scale(.1 -.1)">
<use xlink:href="#i"/>
<use x="61.279297" xlink:href="#j"/>
<use x="89.0625" xlink:href="#j"/>
<use x="116.845703" xlink:href="#ah"/>
<use x="169.335938" xlink:href="#s"/>
</g>
</g>
<g clip-path="url(#a)">
<g transform="translate(1488.4 918.21) scale(.1 -.1)">
<use xlink:href="#e"/>
<use x="63.378906" xlink:href="#i"/>
<use x="124.658203" xlink:href="#t"/>
<use x="188.037109" xlink:href="#c"/>
<use x="249.560547" xlink:href="#e"/>
</g>
</g>
<g clip-path="url(#a)">
<defs>
<path id="ay" d="m59.516 10.406v19.578h-16.109v8.1094h25.875v-31.312q-5.7031-4.0469-12.594-6.125-6.875-2.0781-14.688-2.0781-17.094 0-26.75 9.9844-9.6406 10-9.6406 27.812 0 17.875 9.6406 27.859 9.6562 9.9844 26.75 9.9844 7.125 0 13.547-1.7656 6.4219-1.75 11.844-5.1719v-10.5q-5.4688 4.6406-11.625 6.9844t-12.938 2.3438q-13.391 0-20.109-7.4688-6.7031-7.4688-6.7031-22.266 0-14.75 6.7031-22.219 6.7188-7.4688 20.109-7.4688 5.2188 0 9.3125 0.90625 4.1094 0.90625 7.375 2.8125z"/>
</defs>
<g transform="translate(1527.5 918.21) scale(.1 -.1)">
<use xlink:href="#ay"/>
<use x="77.490234" xlink:href="#c"/>
<use x="139.013672" xlink:href="#w"/>
<use x="191.113281" xlink:href="#v"/>
<use x="230.322266" xlink:href="#i"/>
<use x="291.601562" xlink:href="#x"/>
<use x="355.078125" xlink:href="#c"/>
<use x="416.601562" xlink:href="#e"/>
</g>
</g>
<g clip-path="url(#a)">
<defs>
<path id="bb" d="m30.609 48.391q-7.2188 0-11.422-5.6406t-4.2031-15.453 4.1719-15.453q4.1875-5.6406 11.453-5.6406 7.1875 0 11.375 5.6562 4.2031 5.6719 4.2031 15.438 0 9.7188-4.2031 15.406-4.1875 5.6875-11.375 5.6875zm0 7.6094q11.719 0 18.406-7.625 6.7031-7.6094 6.7031-21.078 0-13.422-6.7031-21.078-6.6875-7.6406-18.406-7.6406-11.766 0-18.438 7.6406-6.6562 7.6562-6.6562 21.078 0 13.469 6.6562 21.078 6.6719 7.625 18.438 7.625z"/>
<path id="ba" d="m18.109 8.2031v-29h-9.0312v75.484h9.0312v-8.2969q2.8438 4.875 7.1562 7.2344 4.3281 2.375 10.328 2.375 9.9688 0 16.188-7.9062 6.2344-7.9062 6.2344-20.797t-6.2344-20.812q-6.2188-7.9062-16.188-7.9062-6 0-10.328 2.375-4.3125 2.375-7.1562 7.25zm30.578 19.094q0 9.9062-4.0781 15.547t-11.203 5.6406q-7.1406 0-11.219-5.6406t-4.0781-15.547 4.0781-15.547 11.219-5.6406q7.125 0 11.203 5.6406t4.0781 15.547z"/>
</defs>
<g transform="translate(1578.5 918.21) scale(.1 -.1)">
<use xlink:href="#p"/>
<use x="63.183594" xlink:href="#s"/>
<use x="126.5625" xlink:href="#h"/>
<use x="167.644531" xlink:href="#bb"/>
<use x="228.826172" xlink:href="#ba"/>
<use x="292.302734" xlink:href="#i"/>
<use x="353.582031" xlink:href="#w"/>
</g>
</g>
<g clip-path="url(#a)">
<g transform="translate(1636.7 918.21) scale(.1 -.1)">
<use xlink:href="#s"/>
<use x="63.378906" xlink:href="#e"/>
<use x="126.757812" xlink:href="#x"/>
</g>
</g>
<g clip-path="url(#a)">
<defs>
<path id="bc" d="m37.109 75.984v-7.4844h-8.5938q-4.8281 0-6.7188-1.9531-1.875-1.9531-1.875-7.0312v-4.8281h14.797v-6.9844h-14.797v-47.703h-9.0312v47.703h-8.5938v6.9844h8.5938v3.8125q0 9.125 4.25 13.297 4.25 4.1875 13.469 4.1875z"/>
</defs>
<g transform="translate(1676.4 918.21) scale(.1 -.1)">
<use xlink:href="#r"/>
<use x="68.361328" xlink:href="#bc"/>
<use x="103.566406" xlink:href="#h"/>
<use x="144.679688" xlink:href="#g"/>
<use x="172.462891" xlink:href="#aq"/>
<use x="230.357422" xlink:href="#i"/>
<use x="291.636719" xlink:href="#w"/>
</g>
</g>
<g clip-path="url(#a)">
<defs>
<path id="f" d="m10.688 12.406h10.312v-12.406h-10.312z"/>
</defs>
<g transform="translate(1739.3 918.21) scale(.1 -.1)">
<use xlink:href="#f"/>
</g>
</g>
<g clip-path="url(#a)">
<defs>
<path id="d" d="m12.406 8.2969h16.109v55.625l-17.531-3.5156v8.9844l17.438 3.5156h9.8594v-64.609h16.109v-8.2969h-41.984z"/>
</defs>
<g transform="translate(880.25 47.31) scale(.1 -.1)">
<use xlink:href="#d"/>
<use x="63.623047" xlink:href="#f"/>
<use x="95.410156" xlink:href="#d"/>
</g>
</g>
<g clip-path="url(#a)">
<defs>
<path id="n" d="m19.188 8.2969h34.422v-8.2969h-46.281v8.2969q5.6094 5.8125 15.297 15.594 9.7031 9.7969 12.188 12.641 4.7344 5.3125 6.6094 9 1.8906 3.6875 1.8906 7.25 0 5.8125-4.0781 9.4688-4.0781 3.6719-10.625 3.6719-4.6406 0-9.7969-1.6094-5.1406-1.6094-11-4.8906v9.9688q5.9531 2.3906 11.125 3.6094 5.1875 1.2188 9.4844 1.2188 11.328 0 18.062-5.6719 6.7344-5.6562 6.7344-15.125 0-4.5-1.6875-8.5312-1.6719-4.0156-6.125-9.4844-1.2188-1.4219-7.7656-8.1875-6.5312-6.7656-18.453-18.922z"/>
</defs>
<g transform="translate(283.85 199.85) scale(.1 -.1)">
<use xlink:href="#d"/>
<use x="63.623047" xlink:href="#f"/>
<use x="95.410156" xlink:href="#n"/>
</g>
</g>
<g clip-path="url(#a)">
<defs>
<path id="o" d="m40.578 39.312q7.0781-1.5156 11.047-6.3125 3.9844-4.7812 3.9844-11.812 0-10.781-7.4219-16.703-7.4219-5.9062-21.094-5.9062-4.5781 0-9.4375 0.90625t-10.031 2.7188v9.5156q4.0938-2.3906 8.9688-3.6094 4.8906-1.2188 10.219-1.2188 9.2656 0 14.125 3.6562t4.8594 10.641q0 6.4531-4.5156 10.078-4.5156 3.6406-12.562 3.6406h-8.5v8.1094h8.8906q7.2656 0 11.125 2.9062t3.8594 8.375q0 5.6094-3.9844 8.6094-3.9688 3.0156-11.391 3.0156-4.0625 0-8.7031-0.89062-4.6406-0.875-10.203-2.7188v8.7812q5.625 1.5625 10.531 2.3438t9.25 0.78125q11.234 0 17.766-5.1094 6.5469-5.0938 6.5469-13.781 0-6.0625-3.4688-10.234t-9.8594-5.7812z"/>
</defs>
<g transform="translate(1022.5 777.47) scale(.1 -.1)">
<use xlink:href="#d"/>
<use x="63.623047" xlink:href="#f"/>
<use x="95.410156" xlink:href="#o"/>
</g>
</g>
<g clip-path="url(#a)">
<defs>
<path id="m" d="m37.797 64.312-24.906-38.922h24.906zm-2.5938 8.5938h12.406v-47.516h10.406v-8.2031h-10.406v-17.188h-9.8125v17.188h-32.906v9.5156z"/>
</defs>
<g transform="translate(1239.6 199.85) scale(.1 -.1)">
<use xlink:href="#d"/>
<use x="63.623047" xlink:href="#f"/>
<use x="95.410156" xlink:href="#m"/>
</g>
</g>
<g clip-path="url(#a)">
<defs>
<path id="af" d="m8.2031 72.906h46.875v-4.2031l-26.469-68.703h-10.297l24.906 64.594h-35.016z"/>
</defs>
<g transform="translate(1069.8 777.47) scale(.1 -.1)">
<use xlink:href="#d"/>
<use x="63.623047" xlink:href="#f"/>
<use x="95.410156" xlink:href="#af"/>
</g>
</g>
<g clip-path="url(#a)">
<defs>
<path id="ab" d="m31.781 34.625q-7.0312 0-11.062-3.7656-4.0156-3.7656-4.0156-10.344 0-6.5938 4.0156-10.359 4.0312-3.7656 11.062-3.7656t11.078 3.7812q4.0625 3.7969 4.0625 10.344 0 6.5781-4.0312 10.344-4.0156 3.7656-11.109 3.7656zm-9.8594 4.1875q-6.3438 1.5625-9.8906 5.9062-3.5312 4.3594-3.5312 10.609 0 8.7344 6.2188 13.812 6.2344 5.0781 17.062 5.0781 10.891 0 17.094-5.0781t6.2031-13.812q0-6.25-3.5469-10.609-3.5312-4.3438-9.8281-5.9062 7.125-1.6562 11.094-6.5 3.9844-4.8281 3.9844-11.797 0-10.609-6.4688-16.281-6.4688-5.6562-18.531-5.6562-12.047 0-18.531 5.6562-6.4688 5.6719-6.4688 16.281 0 6.9688 4 11.797 4.0156 4.8438 11.141 6.5zm-3.6094 15.578q0-5.6562 3.5312-8.8281 3.5469-3.1719 9.9375-3.1719 6.3594 0 9.9375 3.1719 3.5938 3.1719 3.5938 8.8281 0 5.6719-3.5938 8.8438-3.5781 3.1719-9.9375 3.1719-6.3906 0-9.9375-3.1719-3.5312-3.1719-3.5312-8.8438z"/>
</defs>
<g transform="translate(1117.2 777.47) scale(.1 -.1)">
<use xlink:href="#d"/>
<use x="63.623047" xlink:href="#f"/>
<use x="95.410156" xlink:href="#ab"/>
</g>
</g>
<g clip-path="url(#a)">
<defs>
<path id="aa" d="m10.984 1.5156v8.9844q3.7188-1.7656 7.5156-2.6875 3.8125-0.92188 7.4844-0.92188 9.7656 0 14.906 6.5625 5.1562 6.5625 5.8906 19.953-2.8281-4.2031-7.1875-6.4531-4.3438-2.25-9.6094-2.25-10.938 0-17.312 6.6094-6.375 6.625-6.375 18.109 0 11.219 6.6406 18 6.6406 6.7969 17.672 6.7969 12.656 0 19.312-9.7031 6.6719-9.6875 6.6719-28.141 0-17.234-8.1875-27.516-8.1719-10.281-21.984-10.281-3.7188 0-7.5312 0.73438-3.7969 0.73438-7.9062 2.2031zm19.625 30.906q6.6406 0 10.516 4.5312 3.8906 4.5469 3.8906 12.469 0 7.8594-3.8906 12.422-3.875 4.5625-10.516 4.5625t-10.516-4.5625-3.875-12.422q0-7.9219 3.875-12.469 3.875-4.5312 10.516-4.5312z"/>
</defs>
<g transform="translate(1188.3 636.74) scale(.1 -.1)">
<use xlink:href="#d"/>
<use x="63.623047" xlink:href="#f"/>
<use x="95.410156" xlink:href="#aa"/>
</g>
</g>
<g clip-path="url(#a)">
<defs>
<path id="ac" d="m31.781 66.406q-7.6094 0-11.453-7.5-3.8281-7.4844-3.8281-22.531 0-14.984 3.8281-22.484 3.8438-7.5 11.453-7.5 7.6719 0 11.5 7.5 3.8438 7.5 3.8438 22.484 0 15.047-3.8438 22.531-3.8281 7.5-11.5 7.5zm0 7.8125q12.266 0 18.734-9.7031 6.4688-9.6875 6.4688-28.141 0-18.406-6.4688-28.109-6.4688-9.6875-18.734-9.6875-12.25 0-18.719 9.6875-6.4688 9.7031-6.4688 28.109 0 18.453 6.4688 28.141 6.4688 9.7031 18.719 9.7031z"/>
</defs>
<g transform="translate(1256.1 777.47) scale(.1 -.1)">
<use xlink:href="#d"/>
<use x="63.623047" xlink:href="#f"/>
<use x="95.410156" xlink:href="#d"/>
<use x="159.033203" xlink:href="#ac"/>
</g>
</g>
<g clip-path="url(#a)">
<g transform="translate(1303.5 777.47) scale(.1 -.1)">
<use xlink:href="#d"/>
<use x="63.623047" xlink:href="#f"/>
<use x="95.410156" xlink:href="#d"/>
<use x="159.033203" xlink:href="#d"/>
</g>
</g>
<g clip-path="url(#a)">
<g transform="translate(1493 348.61) scale(.1 -.1)">
<use xlink:href="#d"/>
<use x="63.623047" xlink:href="#f"/>
<use x="95.410156" xlink:href="#d"/>
<use x="159.033203" xlink:href="#n"/>
</g>
</g>
<g clip-path="url(#a)">
<g transform="translate(1350.9 777.47) scale(.1 -.1)">
<use xlink:href="#d"/>
<use x="63.623047" xlink:href="#f"/>
<use x="95.410156" xlink:href="#d"/>
<use x="159.033203" xlink:href="#o"/>
</g>
</g>
<g clip-path="url(#a)">
<g transform="translate(1469.3 494.05) scale(.1 -.1)">
<use xlink:href="#d"/>
<use x="63.623047" xlink:href="#f"/>
<use x="95.410156" xlink:href="#d"/>
<use x="159.033203" xlink:href="#m"/>
</g>
</g>
<g clip-path="url(#a)">
<defs>
<path id="u" d="m10.797 72.906h38.719v-8.3125h-29.688v-17.859q2.1406 0.73438 4.2812 1.0938 2.1562 0.35938 4.3125 0.35938 12.203 0 19.328-6.6875 7.1406-6.6875 7.1406-18.109 0-11.766-7.3281-18.297-7.3281-6.5156-20.656-6.5156-4.5938 0-9.3594 0.78125-4.75 0.78125-9.8281 2.3438v9.9219q4.3906-2.3906 9.0781-3.5625t9.9062-1.1719q8.4531 0 13.375 4.4375 4.9375 4.4375 4.9375 12.062 0 7.6094-4.9375 12.047-4.9219 4.4531-13.375 4.4531-3.9531 0-7.8906-0.875-3.9219-0.875-8.0156-2.7344z"/>
</defs>
<g transform="translate(1658.7 636.74) scale(.1 -.1)">
<use xlink:href="#d"/>
<use x="63.623047" xlink:href="#f"/>
<use x="95.410156" xlink:href="#d"/>
<use x="159.033203" xlink:href="#u"/>
</g>
</g>
<g clip-path="url(#a)">
<defs>
<path id="ag" d="m33.016 40.375q-6.6406 0-10.531-4.5469-3.875-4.5312-3.875-12.438 0-7.8594 3.875-12.438 3.8906-4.5625 10.531-4.5625t10.516 4.5625q3.875 4.5781 3.875 12.438 0 7.9062-3.875 12.438-3.875 4.5469-10.516 4.5469zm19.578 30.922v-8.9844q-3.7188 1.75-7.5 2.6719-3.7812 0.9375-7.5 0.9375-9.7656 0-14.922-6.5938-5.1406-6.5938-5.875-19.922 2.875 4.25 7.2188 6.5156 4.3594 2.2656 9.5781 2.2656 10.984 0 17.359-6.6719 6.375-6.6562 6.375-18.125 0-11.234-6.6406-18.031-6.6406-6.7812-17.672-6.7812-12.656 0-19.344 9.6875-6.6875 9.7031-6.6875 28.109 0 17.281 8.2031 27.562t22.016 10.281q3.7188 0 7.5-0.73438t7.8906-2.1875z"/>
</defs>
<g transform="translate(1587.7 777.47) scale(.1 -.1)">
<use xlink:href="#d"/>
<use x="63.623047" xlink:href="#f"/>
<use x="95.410156" xlink:href="#d"/>
<use x="159.033203" xlink:href="#ag"/>
</g>
</g>
<g clip-path="url(#a)">
<g transform="translate(1635.1 777.47) scale(.1 -.1)">
<use xlink:href="#d"/>
<use x="63.623047" xlink:href="#f"/>
<use x="95.410156" xlink:href="#d"/>
<use x="159.033203" xlink:href="#af"/>
</g>
</g>
<g clip-path="url(#a)">
<g transform="translate(1682.4 777.47) scale(.1 -.1)">
<use xlink:href="#d"/>
<use x="63.623047" xlink:href="#f"/>
<use x="95.410156" xlink:href="#d"/>
<use x="159.033203" xlink:href="#ab"/>
</g>
</g>
<g clip-path="url(#a)">
<g transform="translate(1398.2 777.47) scale(.1 -.1)">
<use xlink:href="#d"/>
<use x="63.623047" xlink:href="#f"/>
<use x="95.410156" xlink:href="#d"/>
<use x="159.033203" xlink:href="#aa"/>
</g>
</g>
<g clip-path="url(#a)">
<g transform="translate(1469.3 636.74) scale(.1 -.1)">
<use xlink:href="#d"/>
<use x="63.623047" xlink:href="#f"/>
<use x="95.410156" xlink:href="#n"/>
<use x="159.033203" xlink:href="#ac"/>
</g>
</g>
<g clip-path="url(#a)">
<g transform="translate(1540.3 777.47) scale(.1 -.1)">
<use xlink:href="#d"/>
<use x="63.623047" xlink:href="#f"/>
<use x="95.410156" xlink:href="#n"/>
<use x="159.033203" xlink:href="#d"/>
</g>
</g>
<g clip-path="url(#a)">
<g transform="translate(1445.6 777.47) scale(.1 -.1)">
<use xlink:href="#d"/>
<use x="63.623047" xlink:href="#f"/>
<use x="95.410156" xlink:href="#n"/>
<use x="159.033203" xlink:href="#n"/>
</g>
</g>
<g clip-path="url(#a)">
<g transform="translate(1493 777.47) scale(.1 -.1)">
<use xlink:href="#d"/>
<use x="63.623047" xlink:href="#f"/>
<use x="95.410156" xlink:href="#n"/>
<use x="159.033203" xlink:href="#o"/>
</g>
</g>
<g clip-path="url(#a)">
<g transform="translate(1161.4 777.47) scale(.1 -.1)">
<use xlink:href="#d"/>
<use x="63.623047" xlink:href="#f"/>
<use x="95.410156" xlink:href="#n"/>
<use x="159.033203" xlink:href="#m"/>
</g>
</g>
<g clip-path="url(#a)">
<g transform="translate(1208.8 777.47) scale(.1 -.1)">
<use xlink:href="#d"/>
<use x="63.623047" xlink:href="#f"/>
<use x="95.410156" xlink:href="#n"/>
<use x="159.033203" xlink:href="#u"/>
</g>
</g>
<g clip-path="url(#a)">
<g transform="translate(71.938 777.47) scale(.1 -.1)">
<use xlink:href="#d"/>
<use x="63.623047" xlink:href="#f"/>
<use x="95.410156" xlink:href="#n"/>
<use x="159.033203" xlink:href="#ag"/>
</g>
</g>
<g clip-path="url(#a)">
<g transform="translate(119.31 777.47) scale(.1 -.1)">
<use xlink:href="#d"/>
<use x="63.623047" xlink:href="#f"/>
<use x="95.410156" xlink:href="#n"/>
<use x="159.033203" xlink:href="#af"/>
</g>
</g>
<g clip-path="url(#a)">
<g transform="translate(166.67 777.47) scale(.1 -.1)">
<use xlink:href="#d"/>
<use x="63.623047" xlink:href="#f"/>
<use x="95.410156" xlink:href="#n"/>
<use x="159.033203" xlink:href="#ab"/>
</g>
</g>
<g clip-path="url(#a)">
<g transform="translate(214.04 777.47) scale(.1 -.1)">
<use xlink:href="#d"/>
<use x="63.623047" xlink:href="#f"/>
<use x="95.410156" xlink:href="#n"/>
<use x="159.033203" xlink:href="#aa"/>
</g>
</g>
<g clip-path="url(#a)">
<g transform="translate(316.67 494.05) scale(.1 -.1)">
<use xlink:href="#d"/>
<use x="63.623047" xlink:href="#f"/>
<use x="95.410156" xlink:href="#o"/>
<use x="159.033203" xlink:href="#ac"/>
</g>
</g>
<g clip-path="url(#a)">
<g transform="translate(625.19 348.61) scale(.1 -.1)">
<use xlink:href="#d"/>
<use x="63.623047" xlink:href="#f"/>
<use x="95.410156" xlink:href="#o"/>
<use x="159.033203" xlink:href="#d"/>
</g>
</g>
<g clip-path="url(#a)">
<g transform="translate(498.24 777.47) scale(.1 -.1)">
<use xlink:href="#d"/>
<use x="63.623047" xlink:href="#f"/>
<use x="95.410156" xlink:href="#o"/>
<use x="159.033203" xlink:href="#o"/>
</g>
</g>
<g clip-path="url(#a)">
<g transform="translate(545.61 777.47) scale(.1 -.1)">
<use xlink:href="#d"/>
<use x="63.623047" xlink:href="#f"/>
<use x="95.410156" xlink:href="#o"/>
<use x="159.033203" xlink:href="#m"/>
</g>
</g>
<g clip-path="url(#a)">
<g transform="translate(616.66 636.74) scale(.1 -.1)">
<use xlink:href="#d"/>
<use x="63.623047" xlink:href="#f"/>
<use x="95.410156" xlink:href="#o"/>
<use x="159.033203" xlink:href="#u"/>
</g>
</g>
<g clip-path="url(#a)">
<g transform="translate(777.71 494.05) scale(.1 -.1)">
<use xlink:href="#d"/>
<use x="63.623047" xlink:href="#f"/>
<use x="95.410156" xlink:href="#o"/>
<use x="159.033203" xlink:href="#ag"/>
</g>
</g>
<g clip-path="url(#a)">
<g transform="translate(735.08 777.47) scale(.1 -.1)">
<use xlink:href="#d"/>
<use x="63.623047" xlink:href="#f"/>
<use x="95.410156" xlink:href="#o"/>
<use x="159.033203" xlink:href="#ab"/>
</g>
</g>
<g clip-path="url(#a)">
<g transform="translate(806.13 636.74) scale(.1 -.1)">
<use xlink:href="#d"/>
<use x="63.623047" xlink:href="#f"/>
<use x="95.410156" xlink:href="#o"/>
<use x="159.033203" xlink:href="#aa"/>
</g>
</g>
<g clip-path="url(#a)">
<g transform="translate(877.18 777.47) scale(.1 -.1)">
<use xlink:href="#d"/>
<use x="63.623047" xlink:href="#f"/>
<use x="95.410156" xlink:href="#m"/>
<use x="159.033203" xlink:href="#ac"/>
</g>
</g>
<g clip-path="url(#a)">
<g transform="translate(924.55 777.47) scale(.1 -.1)">
<use xlink:href="#d"/>
<use x="63.623047" xlink:href="#f"/>
<use x="95.410156" xlink:href="#m"/>
<use x="159.033203" xlink:href="#d"/>
</g>
</g>
<g clip-path="url(#a)">
<g transform="translate(782.45 777.47) scale(.1 -.1)">
<use xlink:href="#d"/>
<use x="63.623047" xlink:href="#f"/>
<use x="95.410156" xlink:href="#m"/>
<use x="159.033203" xlink:href="#n"/>
</g>
</g>
<g clip-path="url(#a)">
<g transform="translate(829.82 777.47) scale(.1 -.1)">
<use xlink:href="#d"/>
<use x="63.623047" xlink:href="#f"/>
<use x="95.410156" xlink:href="#m"/>
<use x="159.033203" xlink:href="#o"/>
</g>
</g>
<g clip-path="url(#a)">
<g transform="translate(592.98 777.47) scale(.1 -.1)">
<use xlink:href="#d"/>
<use x="63.623047" xlink:href="#f"/>
<use x="95.410156" xlink:href="#m"/>
<use x="159.033203" xlink:href="#m"/>
</g>
</g>
<g clip-path="url(#a)">
<g transform="translate(640.35 777.47) scale(.1 -.1)">
<use xlink:href="#d"/>
<use x="63.623047" xlink:href="#f"/>
<use x="95.410156" xlink:href="#m"/>
<use x="159.033203" xlink:href="#u"/>
</g>
</g>
<g clip-path="url(#a)">
<g transform="translate(261.41 777.47) scale(.1 -.1)">
<use xlink:href="#d"/>
<use x="63.623047" xlink:href="#f"/>
<use x="95.410156" xlink:href="#m"/>
<use x="159.033203" xlink:href="#ag"/>
</g>
</g>
<g clip-path="url(#a)">
<g transform="translate(308.78 777.47) scale(.1 -.1)">
<use xlink:href="#d"/>
<use x="63.623047" xlink:href="#f"/>
<use x="95.410156" xlink:href="#m"/>
<use x="159.033203" xlink:href="#af"/>
</g>
</g>
<g clip-path="url(#a)">
<g transform="translate(379.83 636.74) scale(.1 -.1)">
<use xlink:href="#d"/>
<use x="63.623047" xlink:href="#f"/>
<use x="95.410156" xlink:href="#m"/>
<use x="159.033203" xlink:href="#ab"/>
</g>
</g>
<g clip-path="url(#a)">
<g transform="translate(356.14 777.47) scale(.1 -.1)">
<use xlink:href="#d"/>
<use x="63.623047" xlink:href="#f"/>
<use x="95.410156" xlink:href="#m"/>
<use x="159.033203" xlink:href="#aa"/>
</g>
</g>
<g clip-path="url(#a)">
<g transform="translate(403.51 777.47) scale(.1 -.1)">
<use xlink:href="#d"/>
<use x="63.623047" xlink:href="#f"/>
<use x="95.410156" xlink:href="#u"/>
<use x="159.033203" xlink:href="#ac"/>
</g>
</g>
<g clip-path="url(#a)">
<g transform="translate(450.88 777.47) scale(.1 -.1)">
<use xlink:href="#d"/>
<use x="63.623047" xlink:href="#f"/>
<use x="95.410156" xlink:href="#u"/>
<use x="159.033203" xlink:href="#d"/>
</g>
</g>
<g clip-path="url(#a)">
<g transform="translate(687.71 777.47) scale(.1 -.1)">
<use xlink:href="#d"/>
<use x="63.623047" xlink:href="#f"/>
<use x="95.410156" xlink:href="#u"/>
<use x="159.033203" xlink:href="#n"/>
</g>
</g>
<g clip-path="url(#a)">
<g transform="translate(971.92 777.47) scale(.1 -.1)">
<use xlink:href="#d"/>
<use x="63.623047" xlink:href="#f"/>
<use x="95.410156" xlink:href="#u"/>
<use x="159.033203" xlink:href="#o"/>
</g>
</g>
<g clip-path="url(#a)">
<g transform="translate(1729.8 777.47) scale(.1 -.1)">
<use xlink:href="#d"/>
<use x="63.623047" xlink:href="#f"/>
<use x="95.410156" xlink:href="#u"/>
<use x="159.033203" xlink:href="#m"/>
</g>
</g>
<defs>
<clipPath id="a">
<rect width="1824" height="960"/>
</clipPath>
</defs>
</svg>
