<?xml version="1.0" encoding="UTF-8"?>
<!DOCTYPE svg  PUBLIC '-//W3C//DTD SVG 1.1//EN'  'http://www.w3.org/Graphics/SVG/1.1/DTD/svg11.dtd'>
<svg width="2077.3pt" height="1093.3pt" version="1.1" viewBox="0 0 2077.3 1093.3" xmlns="http://www.w3.org/2000/svg" xmlns:xlink="http://www.w3.org/1999/xlink">
<defs>
<style type="text/css">*{stroke-linecap:butt;stroke-linejoin:round;}</style>
</defs>
<path d="m0 1093.3h2077.3v-1093.3h-2077.3z" fill="#fff"/>
<g fill="none" stroke="#000">
<path d="m454.02 50.367v134.71" clip-path="url(#a)"/>
<path d="m454.02 185.08 415.53 130.86" clip-path="url(#a)"/>
<path d="m454.02 185.08-123.43 740.4" clip-path="url(#a)"/>
<path d="m454.02 185.08-76.22 740.4" clip-path="url(#a)"/>
<path d="m454.02 185.08-5.4129 622.91" clip-path="url(#a)"/>
<path d="m454.02 185.08-217.84 740.4" clip-path="url(#a)"/>
<path d="m454.02 185.08-170.63 740.4" clip-path="url(#a)"/>
<path d="m454.02 185.08 65.395 740.4" clip-path="url(#a)"/>
<path d="m454.02 185.08 112.6 740.4" clip-path="url(#a)"/>
<path d="m869.55 315.94-332.43 372.94" clip-path="url(#a)"/>
<path d="m869.55 315.94-66.906 609.54" clip-path="url(#a)"/>
<path d="m869.55 315.94 103.03 492.06" clip-path="url(#a)"/>
<path d="m869.55 315.94 874.67 127.34" clip-path="url(#a)"/>
<path d="m869.55 315.94-774.98 609.54" clip-path="url(#a)"/>
<path d="m869.55 315.94-114.11 609.54" clip-path="url(#a)"/>
<path d="m869.55 315.94 310.73 609.54" clip-path="url(#a)"/>
<path d="m330.59 925.48v117.49" clip-path="url(#a)"/>
<path d="m377.8 925.48v117.49" clip-path="url(#a)"/>
<path d="m448.6 807.99-23.603 117.49" clip-path="url(#a)"/>
<path d="m448.6 807.99 23.603 117.49" clip-path="url(#a)"/>
<path d="m425 925.48v117.49" clip-path="url(#a)"/>
<path d="m472.21 925.48v117.49" clip-path="url(#a)"/>
<path d="m537.11 688.87-371.74 119.12" clip-path="url(#a)"/>
<path d="m537.11 688.87 76.708 236.61" clip-path="url(#a)"/>
<path d="m537.11 688.87 123.91 236.61" clip-path="url(#a)"/>
<path d="m537.11 688.87 171.12 236.61" clip-path="url(#a)"/>
<path d="m802.64 925.48v117.49" clip-path="url(#a)"/>
<path d="m972.58 807.99-122.73 117.49" clip-path="url(#a)"/>
<path d="m972.58 807.99-75.528 117.49" clip-path="url(#a)"/>
<path d="m972.58 807.99 66.087 117.49" clip-path="url(#a)"/>
<path d="m972.58 807.99 18.882 117.49" clip-path="url(#a)"/>
<path d="m972.58 807.99 113.29 117.49" clip-path="url(#a)"/>
<path d="m1744.2 443.28-428.22 124.18" clip-path="url(#a)"/>
<path d="m1744.2 443.28-186.29 482.2" clip-path="url(#a)"/>
<path d="m1744.2 443.28-56.477 245.59" clip-path="url(#a)"/>
<path d="m1744.2 443.28 96.939 482.2" clip-path="url(#a)"/>
<path d="m1744.2 443.28 144.14 482.2" clip-path="url(#a)"/>
<path d="m1744.2 443.28 191.35 482.2" clip-path="url(#a)"/>
<path d="m1744.2 443.28 238.55 482.2" clip-path="url(#a)"/>
<path d="m1316 567.46-88.509 358.02" clip-path="url(#a)"/>
<path d="m1316 567.46-41.304 358.02" clip-path="url(#a)"/>
<path d="m1316 567.46 5.9006 358.02" clip-path="url(#a)"/>
<path d="m1316 567.46 123.91 121.41" clip-path="url(#a)"/>
<path d="m1557.9 925.48v117.49" clip-path="url(#a)"/>
<path d="m1687.7 688.87-59.006 119.12" clip-path="url(#a)"/>
<path d="m1687.7 688.87 59.006 119.12" clip-path="url(#a)"/>
<path d="m1841.2 925.48v117.49" clip-path="url(#a)"/>
<path d="m1888.4 925.48v117.49" clip-path="url(#a)"/>
<path d="m1628.7 807.99-23.603 117.49" clip-path="url(#a)"/>
<path d="m1628.7 807.99 23.603 117.49" clip-path="url(#a)"/>
<path d="m1746.7 807.99-47.205 117.49" clip-path="url(#a)"/>
<path d="m1746.7 807.99v117.49" clip-path="url(#a)"/>
<path d="m1746.7 807.99 47.205 117.49" clip-path="url(#a)"/>
<path d="m1699.5 925.48v117.49" clip-path="url(#a)"/>
<path d="m1746.7 925.48v117.49" clip-path="url(#a)"/>
<path d="m1793.9 925.48v117.49" clip-path="url(#a)"/>
<path d="m1605.1 925.48v117.49" clip-path="url(#a)"/>
<path d="m1652.3 925.48v117.49" clip-path="url(#a)"/>
<path d="m1227.5 925.48v117.49" clip-path="url(#a)"/>
<path d="m1274.7 925.48v117.49" clip-path="url(#a)"/>
<path d="m1321.9 925.48v117.49" clip-path="url(#a)"/>
<path d="m1439.9 688.87-47.205 119.12" clip-path="url(#a)"/>
<path d="m1439.9 688.87 47.205 119.12" clip-path="url(#a)"/>
<path d="m1392.7 807.99-23.603 117.49" clip-path="url(#a)"/>
<path d="m1392.7 807.99 23.603 117.49" clip-path="url(#a)"/>
<path d="m1487.1 807.99-23.603 117.49" clip-path="url(#a)"/>
<path d="m1487.1 807.99 23.603 117.49" clip-path="url(#a)"/>
<path d="m1463.5 925.48v117.49" clip-path="url(#a)"/>
<path d="m1510.7 925.48v117.49" clip-path="url(#a)"/>
<path d="m1369.1 925.48v117.49" clip-path="url(#a)"/>
<path d="m1416.3 925.48v117.49" clip-path="url(#a)"/>
<path d="m849.85 925.48v117.49" clip-path="url(#a)"/>
<path d="m897.05 925.48v117.49" clip-path="url(#a)"/>
<path d="m1038.7 925.48-94.41 117.49" clip-path="url(#a)"/>
<path d="m1038.7 925.48v117.49" clip-path="url(#a)"/>
<path d="m1038.7 925.48 94.41 117.49" clip-path="url(#a)"/>
<path d="m991.46 925.48v117.49" clip-path="url(#a)"/>
<path d="m1085.9 925.48v117.49" clip-path="url(#a)"/>
<path d="m165.37 807.99-23.603 117.49" clip-path="url(#a)"/>
<path d="m165.37 807.99 23.603 117.49" clip-path="url(#a)"/>
<path d="m613.82 925.48v117.49" clip-path="url(#a)"/>
<path d="m661.03 925.48v117.49" clip-path="url(#a)"/>
<path d="m708.23 925.48v117.49" clip-path="url(#a)"/>
<path d="m141.77 925.48v117.49" clip-path="url(#a)"/>
<path d="m188.98 925.48v117.49" clip-path="url(#a)"/>
<path d="m94.566 925.48v117.49" clip-path="url(#a)"/>
<path d="m236.18 925.48v117.49" clip-path="url(#a)"/>
<path d="m283.39 925.48v117.49" clip-path="url(#a)"/>
<path d="m519.41 925.48v117.49" clip-path="url(#a)"/>
<path d="m566.62 925.48v117.49" clip-path="url(#a)"/>
<path d="m755.44 925.48v117.49" clip-path="url(#a)"/>
<path d="m1180.3 925.48v117.49" clip-path="url(#a)"/>
<path d="m1935.6 925.48v117.49" clip-path="url(#a)"/>
<path d="m1982.8 925.48v117.49" clip-path="url(#a)"/>
</g>
<path d="m447.75 114.72v6.0162q0 2.4 2.4 2.4h7.7425q2.4 0 2.4-2.4v-6.0162q0-2.4-2.4-2.4h-7.7425q-2.4 0-2.4 2.4z" clip-path="url(#a)" fill="#fff" stroke="#fff"/>
<g clip-path="url(#a)">
<defs>
<path id="ah" d="m9.8125 72.906h9.8594v-29.891h35.844v29.891h9.8594v-72.906h-9.8594v34.719h-35.844v-34.719h-9.8594z"/>
</defs>
<g transform="translate(451.81 114.72) rotate(90) scale(.08 -.08)">
<use xlink:href="#ah"/>
</g>
</g>
<path d="m657.29 255.67 5.2198 1.6438q2.2892 0.7209 3.0101-1.5683l2.3257-7.385q0.7209-2.2892-1.5683-3.0101l-5.2198-1.6438q-2.2892-0.7209-3.0101 1.5683l-2.3257 7.385q-0.7209 2.2892 1.5683 3.0101z" clip-path="url(#a)" fill="#fff" stroke="#fff"/>
<g clip-path="url(#a)">
<defs>
<path id="r" d="m34.188 63.188-13.391-36.281h26.812zm-5.5781 9.7188h11.188l27.781-72.906h-10.25l-6.6406 18.703h-32.859l-6.6406-18.703h-10.406z"/>
</defs>
<g transform="translate(658.51 251.79) rotate(17.48) scale(.08 -.08)">
<use xlink:href="#r"/>
</g>
</g>
<path d="m398.09 558.69 0.79318-4.7581q0.39464-2.3673-1.9727-2.762l-7.6371-1.2731q-2.3673-0.39464-2.762 1.9727l-0.79318 4.7581q-0.39464 2.3673 1.9727 2.762l7.6371 1.2731q2.3673 0.39464 2.762-1.9727z" clip-path="url(#a)" fill="#fff" stroke="#fff"/>
<g clip-path="url(#a)">
<defs>
<path id="ag" d="m19.672 64.797v-27.391h12.406q6.8906 0 10.641 3.5625 3.7656 3.5625 3.7656 10.156 0 6.5469-3.7656 10.109-3.75 3.5625-10.641 3.5625zm-9.8594 8.1094h22.266q12.266 0 18.531-5.5469 6.2812-5.5469 6.2812-16.234 0-10.797-6.2812-16.312-6.2656-5.5156-18.531-5.5156h-12.406v-29.297h-9.8594z"/>
</defs>
<g transform="translate(394.08 558.02) rotate(-80.536) scale(.08 -.08)">
<use xlink:href="#ag"/>
</g>
</g>
<path d="m421.86 558.64 0.5604-5.4437q0.24577-2.3874-2.1416-2.6332l-7.7018-0.79286q-2.3874-0.24577-2.6332 2.1416l-0.5604 5.4437q-0.24577 2.3874 2.1416 2.6332l7.7018 0.79286q2.3874 0.24577 2.6332-2.1416z" clip-path="url(#a)" fill="#fff" stroke="#fff"/>
<g clip-path="url(#a)">
<g transform="translate(417.82 558.23) rotate(-84.122) scale(.08 -.08)">
<use xlink:href="#r"/>
</g>
</g>
<path d="m457.56 499.33 0.047553-5.4723q0.020854-2.3999-2.3791-2.4208l-7.7422-0.067277q-2.3999-0.020855-2.4208 2.3791l-0.047552 5.4723q-0.020855 2.3999 2.3791 2.4208l7.7422 0.067277q2.3999 0.020855 2.4208-2.3791z" clip-path="url(#a)" fill="#fff" stroke="#fff"/>
<g clip-path="url(#a)">
<g transform="translate(453.49 499.29) rotate(-89.502) scale(.08 -.08)">
<use xlink:href="#r"/>
</g>
</g>
<path d="m350.29 559.86 1.6526-5.6169q0.6774-2.3024-1.625-2.9798l-7.4277-2.1853q-2.3024-0.6774-2.9798 1.625l-1.6526 5.6169q-0.6774 2.3024 1.625 2.9798l7.4277 2.1853q2.3024 0.6774 2.9798-1.625z" clip-path="url(#a)" fill="#fff" stroke="#fff"/>
<g clip-path="url(#a)">
<defs>
<path id="q" d="m8.6875 72.906h9.9219v-44.297q0-11.719 4.2344-16.875 4.25-5.1406 13.781-5.1406 9.4688 0 13.719 5.1406 4.25 5.1562 4.25 16.875v44.297h9.9062v-45.516q0-14.25-7.0625-21.531-7.0469-7.2812-20.812-7.2812-13.828 0-20.891 7.2812-7.0469 7.2812-7.0469 21.531z"/>
</defs>
<g transform="translate(346.39 558.71) rotate(-73.605) scale(.08 -.08)">
<use xlink:href="#q"/>
</g>
</g>
<path d="m374.15 559.54 1.3149-5.7054q0.53897-2.3387-1.7997-2.8777l-7.5447-1.7387q-2.3387-0.53897-2.8777 1.7997l-1.3149 5.7055q-0.53897 2.3387 1.7997 2.8777l7.5447 1.7387q2.3387 0.53897 2.8777-1.7997z" clip-path="url(#a)" fill="#fff" stroke="#fff"/>
<g clip-path="url(#a)">
<g transform="translate(370.2 558.63) rotate(-77.022) scale(.08 -.08)">
<use xlink:href="#q"/>
</g>
</g>
<path d="m480.21 552.92 0.51513 5.8323q0.21115 2.3907 2.6018 2.1795l7.7125-0.68119q2.3907-0.21115 2.1795-2.6018l-0.51513-5.8323q-0.21115-2.3907-2.6018-2.1795l-7.7125 0.68119q-2.3907 0.21115-2.1795 2.6018z" clip-path="url(#a)" fill="#fff" stroke="#fff"/>
<g clip-path="url(#a)">
<g transform="translate(484.26 552.56) rotate(84.953) scale(.08 -.08)">
<use xlink:href="#q"/>
</g>
</g>
<path d="m503.68 553.33 0.8803 5.7884q0.36084 2.3727 2.7336 2.0119l7.6545-1.1641q2.3727-0.36084 2.0119-2.7336l-0.8803-5.7884q-0.36084-2.3727-2.7336-2.0119l-7.6545 1.1641q-2.3727 0.36084-2.0119 2.7336z" clip-path="url(#a)" fill="#fff" stroke="#fff"/>
<g clip-path="url(#a)">
<g transform="translate(507.69 552.72) rotate(81.353) scale(.08 -.08)">
<use xlink:href="#q"/>
</g>
</g>
<path d="m706.01 508.82 4.0033-4.491q1.597-1.7915-0.19457-3.3885l-5.7796-5.1519q-1.7915-1.597-3.3885 0.19457l-4.0033 4.491q-1.597 1.7915 0.19457 3.3885l5.7796 5.1519q1.7915 1.597 3.3885-0.19457z" clip-path="url(#a)" fill="#fff" stroke="#fff"/>
<g clip-path="url(#a)">
<g transform="translate(702.98 506.12) rotate(-48.286) scale(.08 -.08)">
<use xlink:href="#ah"/>
</g>
</g>
<path d="m842.09 623.61 0.48635-4.4309q0.26186-2.3857-2.1238-2.6475l-7.6963-0.84478q-2.3857-0.26186-2.6475 2.1238l-0.48635 4.4309q-0.26186 2.3857 2.1238 2.6475l7.6963 0.84478q2.3857 0.26186 2.6475-2.1238z" clip-path="url(#a)" fill="#fff" stroke="#fff"/>
<g clip-path="url(#a)">
<defs>
<path id="ba" d="m9.8125 72.906h9.8594v-64.609h35.5v-8.2969h-45.359z"/>
</defs>
<g transform="translate(838.05 623.17) rotate(-83.736) scale(.08 -.08)">
<use xlink:href="#ba"/>
</g>
</g>
<path d="m914.31 560.31 1.233 5.8885q0.49187 2.3491 2.8409 1.8572l7.5782-1.5868q2.3491-0.49187 1.8572-2.8409l-1.233-5.8885q-0.49187-2.3491-2.8409-1.8572l-7.5782 1.5868q-2.3491 0.49187-1.8572 2.8409z" clip-path="url(#a)" fill="#fff" stroke="#fff"/>
<g clip-path="url(#a)">
<g transform="translate(918.29 559.47) rotate(78.174) scale(.08 -.08)">
<use xlink:href="#ah"/>
</g>
</g>
<path d="m1303 385.38 5.9535 0.86676q2.375 0.34577 2.7207-2.0292l1.1155-7.6617q0.34577-2.375-2.0292-2.7207l-5.9535-0.86676q-2.375-0.34577-2.7207 2.0292l-1.1155 7.6617q-0.34577 2.375 2.0292 2.7207z" clip-path="url(#a)" fill="#fff" stroke="#fff"/>
<g clip-path="url(#a)">
<g transform="translate(1303.6 381.36) rotate(8.2834) scale(.08 -.08)">
<use xlink:href="#ah"/>
</g>
</g>
<path d="m483.63 627.45 4.6021-3.6197q1.8864-1.4837 0.4027-3.3701l-4.7865-6.0857q-1.4837-1.8864-3.3701-0.4027l-4.6021 3.6197q-1.8864 1.4837-0.4027 3.3701l4.7865 6.0857q1.4837 1.8864 3.3701 0.4027z" clip-path="url(#a)" fill="#fff" stroke="#fff"/>
<g clip-path="url(#a)">
<g transform="translate(481.12 624.25) rotate(-38.186) scale(.08 -.08)">
<use xlink:href="#q"/>
</g>
</g>
<path d="m818.12 624.74 1.0774-5.755q0.44163-2.359-1.9174-2.8006l-7.6103-1.4247q-2.359-0.44163-2.8006 1.9174l-1.0774 5.755q-0.44163 2.359 1.9174 2.8006l7.6103 1.4247q2.359 0.44163 2.8006-1.9174z" clip-path="url(#a)" fill="#fff" stroke="#fff"/>
<g clip-path="url(#a)">
<g transform="translate(814.12 623.99) rotate(-79.397) scale(.08 -.08)">
<use xlink:href="#q"/>
</g>
</g>
<path d="m1018 620.95 2.6592 5.2163q1.09 2.1382 3.2282 1.0482l6.8979-3.5164q2.1382-1.09 1.0482-3.2282l-2.6592-5.2163q-1.09-2.1382-3.2282-1.0482l-6.8979 3.5164q-2.1382 1.09-1.0482 3.2282z" clip-path="url(#a)" fill="#fff" stroke="#fff"/>
<g clip-path="url(#a)">
<g transform="translate(1021.6 619.1) rotate(62.988) scale(.08 -.08)">
<use xlink:href="#q"/>
</g>
</g>
<path d="m324.32 966.58v35.285q0 2.4 2.4 2.4h7.7425q2.4 0 2.4-2.4v-35.285q0-2.4-2.4-2.4h-7.7425q-2.4 0-2.4 2.4z" clip-path="url(#a)" fill="#fff" stroke="#fff"/>
<g clip-path="url(#a)">
<defs>
<path id="l" d="m-0.29688 72.906h61.672v-8.3125h-25.875v-64.594h-9.9062v64.594h-25.891z"/>
<path id="c" d="m56.203 29.594v-4.3906h-41.312q0.59375-9.2812 5.5938-14.141t13.938-4.8594q5.1719 0 10.031 1.2656t9.6562 3.8125v-8.5q-4.8438-2.0469-9.9219-3.125t-10.297-1.0781q-13.094 0-20.734 7.6094-7.6406 7.625-7.6406 20.625 0 13.422 7.25 21.297 7.25 7.8906 19.562 7.8906 11.031 0 17.453-7.1094 6.4219-7.0938 6.4219-19.297zm-8.9844 2.6406q-0.09375 7.3594-4.125 11.75-4.0312 4.4062-10.672 4.4062-7.5156 0-12.031-4.25t-5.2031-11.969z"/>
<path id="g" d="m41.109 46.297q-1.5156 0.875-3.2969 1.2812-1.7812 0.42188-3.9219 0.42188-7.625 0-11.703-4.9531t-4.0781-14.234v-28.812h-9.0312v54.688h9.0312v-8.5q2.8438 4.9844 7.375 7.3906 4.5469 2.4219 11.047 2.4219 0.92188 0 2.0469-0.125 1.125-0.10938 2.4844-0.35938z"/>
<path id="j" d="m52 44.188q3.375 6.0625 8.0625 8.9375t11.031 2.875q8.5469 0 13.188-5.9844 4.6406-5.9688 4.6406-17v-33.016h-9.0312v32.719q0 7.8594-2.7969 11.656-2.7812 3.8125-8.4844 3.8125-6.9844 0-11.047-4.6406-4.0469-4.625-4.0469-12.641v-30.906h-9.0312v32.719q0 7.9062-2.7812 11.688t-8.5938 3.7812q-6.8906 0-10.953-4.6562-4.0469-4.6562-4.0469-12.625v-30.906h-9.0312v54.688h9.0312v-8.5q3.0781 5.0312 7.375 7.4219t10.203 2.3906q5.9688 0 10.141-3.0312 4.1719-3.0156 6.1719-8.7812z"/>
<path id="h" d="m9.4219 54.688h8.9844v-54.688h-8.9844zm0 21.297h8.9844v-11.391h-8.9844z"/>
<path id="e" d="m54.891 33.016v-33.016h-8.9844v32.719q0 7.7656-3.0312 11.609-3.0312 3.8594-9.0781 3.8594-7.2812 0-11.484-4.6406-4.2031-4.625-4.2031-12.641v-30.906h-9.0312v54.688h9.0312v-8.5q3.2344 4.9375 7.5938 7.375 4.375 2.4375 10.094 2.4375 9.4219 0 14.25-5.8281 4.8438-5.8281 4.8438-17.156z"/>
<path id="i" d="m34.281 27.484q-10.891 0-15.094-2.4844t-4.2031-8.5q0-4.7812 3.1562-7.5938 3.1562-2.7969 8.5625-2.7969 7.4844 0 12 5.2969t4.5156 14.078v2zm17.922 3.7188v-31.203h-8.9844v8.2969q-3.0781-4.9688-7.6719-7.3438t-11.234-2.375q-8.3906 0-13.359 4.7188-4.9531 4.7188-4.9531 12.625 0 9.2188 6.1719 13.906 6.1875 4.6875 18.438 4.6875h12.609v0.89062q0 6.2031-4.0781 9.5938t-11.453 3.3906q-4.6875 0-9.1406-1.125-4.4375-1.125-8.5312-3.375v8.3125q4.9219 1.9062 9.5625 2.8438 4.6406 0.95312 9.0312 0.95312 11.875 0 17.734-6.1562 5.8594-6.1406 5.8594-18.641z"/>
<path id="k" d="m9.4219 75.984h8.9844v-75.984h-8.9844z"/>
</defs>
<g transform="translate(328.38 966.58) rotate(90) scale(.08 -.08)">
<use xlink:href="#l"/>
<use x="60.818359" xlink:href="#c"/>
<use x="122.341797" xlink:href="#g"/>
<use x="163.439453" xlink:href="#j"/>
<use x="260.851562" xlink:href="#h"/>
<use x="288.634766" xlink:href="#e"/>
<use x="352.013672" xlink:href="#i"/>
<use x="413.292969" xlink:href="#k"/>
</g>
</g>
<path d="m371.52 966.58v35.285q0 2.4 2.4 2.4h7.7425q2.4 0 2.4-2.4v-35.285q0-2.4-2.4-2.4h-7.7425q-2.4 0-2.4 2.4z" clip-path="url(#a)" fill="#fff" stroke="#fff"/>
<g clip-path="url(#a)">
<g transform="translate(375.59 966.58) rotate(90) scale(.08 -.08)">
<use xlink:href="#l"/>
<use x="60.818359" xlink:href="#c"/>
<use x="122.341797" xlink:href="#g"/>
<use x="163.439453" xlink:href="#j"/>
<use x="260.851562" xlink:href="#h"/>
<use x="288.634766" xlink:href="#e"/>
<use x="352.013672" xlink:href="#i"/>
<use x="413.292969" xlink:href="#k"/>
</g>
</g>
<path d="m442.4 870.7 1.0949-5.4499q0.47271-2.353-1.8803-2.8257l-7.5908-1.525q-2.353-0.47271-2.8257 1.8803l-1.0949 5.4499q-0.47271 2.353 1.8803 2.8257l7.5908 1.525q2.353 0.47271 2.8257-1.8803z" clip-path="url(#a)" fill="#fff" stroke="#fff"/>
<g clip-path="url(#a)">
<defs>
<path id="ad" d="m44.391 34.188q3.1719-1.0781 6.1719-4.5938t6.0312-9.6719l10.016-19.922h-10.609l-9.3125 18.703q-3.625 7.3281-7.0156 9.7188t-9.25 2.3906h-10.75v-30.812h-9.8594v72.906h22.266q12.5 0 18.656-5.2344 6.1562-5.2188 6.1562-15.766 0-6.8906-3.2031-11.438-3.2031-4.5312-9.2969-6.2812zm-24.719 30.609v-25.875h12.406q7.125 0 10.766 3.2969t3.6406 9.6875-3.6406 9.6406-10.766 3.25z"/>
</defs>
<g transform="translate(438.42 869.9) rotate(-78.641) scale(.08 -.08)">
<use xlink:href="#ad"/>
</g>
</g>
<path d="m453.71 865.23 1.1003 5.4768q0.47271 2.353 2.8257 1.8803l7.5908-1.525q2.353-0.47271 1.8803-2.8257l-1.1003-5.4768q-0.47271-2.353-2.8257-1.8803l-7.5908 1.525q-2.353 0.47271-1.8803 2.8257z" clip-path="url(#a)" fill="#fff" stroke="#fff"/>
<g clip-path="url(#a)">
<defs>
<path id="w" d="m64.406 67.281v-10.391q-4.9844 4.6406-10.625 6.9219-5.6406 2.2969-11.984 2.2969-12.5 0-19.141-7.6406t-6.6406-22.094q0-14.406 6.6406-22.047t19.141-7.6406q6.3438 0 11.984 2.2969t10.625 6.9375v-10.312q-5.1719-3.5156-10.969-5.2812-5.7812-1.75-12.219-1.75-16.562 0-26.094 10.125-9.5156 10.141-9.5156 27.672 0 17.578 9.5156 27.703 9.5312 10.141 26.094 10.141 6.5312 0 12.312-1.7344 5.7969-1.7344 10.875-5.2031z"/>
</defs>
<g transform="translate(457.69 864.43) rotate(78.641) scale(.08 -.08)">
<use xlink:href="#w"/>
</g>
</g>
<path d="m418.73 966.58v35.285q0 2.4 2.4 2.4h7.7425q2.4 0 2.4-2.4v-35.285q0-2.4-2.4-2.4h-7.7425q-2.4 0-2.4 2.4z" clip-path="url(#a)" fill="#fff" stroke="#fff"/>
<g clip-path="url(#a)">
<g transform="translate(422.79 966.58) rotate(90) scale(.08 -.08)">
<use xlink:href="#l"/>
<use x="60.818359" xlink:href="#c"/>
<use x="122.341797" xlink:href="#g"/>
<use x="163.439453" xlink:href="#j"/>
<use x="260.851562" xlink:href="#h"/>
<use x="288.634766" xlink:href="#e"/>
<use x="352.013672" xlink:href="#i"/>
<use x="413.292969" xlink:href="#k"/>
</g>
</g>
<path d="m465.93 966.58v35.285q0 2.4 2.4 2.4h7.7425q2.4 0 2.4-2.4v-35.285q0-2.4-2.4-2.4h-7.7425q-2.4 0-2.4 2.4z" clip-path="url(#a)" fill="#fff" stroke="#fff"/>
<g clip-path="url(#a)">
<g transform="translate(470 966.58) rotate(90) scale(.08 -.08)">
<use xlink:href="#l"/>
<use x="60.818359" xlink:href="#c"/>
<use x="122.341797" xlink:href="#g"/>
<use x="163.439453" xlink:href="#j"/>
<use x="260.851562" xlink:href="#h"/>
<use x="288.634766" xlink:href="#e"/>
<use x="352.013672" xlink:href="#i"/>
<use x="413.292969" xlink:href="#k"/>
</g>
</g>
<path d="m350.21 755.35 5.9031-1.8916q2.2855-0.73237 1.5532-3.0179l-2.3627-7.3732q-0.73237-2.2855-3.0179-1.5532l-5.9031 1.8916q-2.2855 0.73237-1.5532 3.0179l2.3627 7.3732q0.73237 2.2855 3.0179 1.5532z" clip-path="url(#a)" fill="#fff" stroke="#fff"/>
<g clip-path="url(#a)">
<defs>
<path id="ap" d="m59.516 10.406v19.578h-16.109v8.1094h25.875v-31.312q-5.7031-4.0469-12.594-6.125-6.875-2.0781-14.688-2.0781-17.094 0-26.75 9.9844-9.6406 10-9.6406 27.812 0 17.875 9.6406 27.859 9.6562 9.9844 26.75 9.9844 7.125 0 13.547-1.7656 6.4219-1.75 11.844-5.1719v-10.5q-5.4688 4.6406-11.625 6.9844t-12.938 2.3438q-13.391 0-20.109-7.4688-6.7031-7.4688-6.7031-22.266 0-14.75 6.7031-22.219 6.7188-7.4688 20.109-7.4688 5.2188 0 9.3125 0.90625 4.1094 0.90625 7.375 2.8125z"/>
</defs>
<g transform="translate(348.97 751.48) rotate(-17.768) scale(.08 -.08)">
<use xlink:href="#ap"/>
</g>
</g>
<path d="m568.66 806.51 1.6877 5.2058q0.74016 2.283 3.0232 1.5429l7.3651-2.3878q2.283-0.74016 1.5429-3.0232l-1.6877-5.2058q-0.74016-2.283-3.0232-1.5429l-7.3651 2.3878q-2.283 0.74016-1.5429 3.0232z" clip-path="url(#a)" fill="#fff" stroke="#fff"/>
<g clip-path="url(#a)">
<g transform="translate(572.52 805.26) rotate(72.037) scale(.08 -.08)">
<use xlink:href="#r"/>
</g>
</g>
<path d="m592.34 807.84 2.3562 4.4991q1.1135 2.1261 3.2395 1.0126l6.8588-3.592q2.1261-1.1135 1.0126-3.2395l-2.3562-4.4991q-1.1135-2.1261-3.2395-1.0126l-6.8588 3.592q-2.1261 1.1135-1.0126 3.2395z" clip-path="url(#a)" fill="#fff" stroke="#fff"/>
<g clip-path="url(#a)">
<defs>
<path id="af" d="m53.516 70.516v-9.625q-5.6094 2.6875-10.594 4-4.9844 1.3281-9.625 1.3281-8.0469 0-12.422-3.125t-4.375-8.8906q0-4.8438 2.9062-7.3125 2.9062-2.4531 11.016-3.9688l5.9531-1.2188q11.031-2.1094 16.281-7.4062t5.25-14.172q0-10.609-7.1094-16.078-7.0938-5.4688-20.812-5.4688-5.1719 0-11.016 1.1719-5.8281 1.1719-12.078 3.4688v10.156q6-3.3594 11.766-5.0781 5.7656-1.7031 11.328-1.7031 8.4375 0 13.031 3.3125 4.5938 3.3281 4.5938 9.4844 0 5.3594-3.2969 8.3906t-10.812 4.5469l-6.0156 1.1719q-11.031 2.1875-15.969 6.875-4.9219 4.6875-4.9219 13.047 0 9.6719 6.8125 15.234t18.766 5.5625q5.1406 0 10.453-0.9375 5.3281-0.92188 10.891-2.7656z"/>
</defs>
<g transform="translate(595.94 805.95) rotate(62.358) scale(.08 -.08)">
<use xlink:href="#af"/>
</g>
</g>
<path d="m615.99 808.64 3.207 4.4343q1.4065 1.9447 3.3512 0.53826l6.2737-4.5373q1.9447-1.4065 0.53826-3.3512l-3.207-4.4343q-1.4065-1.9447-3.3512-0.53826l-6.2737 4.5373q-1.9447 1.4065-0.53826 3.3512z" clip-path="url(#a)" fill="#fff" stroke="#fff"/>
<g clip-path="url(#a)">
<g transform="translate(619.28 806.25) rotate(54.125) scale(.08 -.08)">
<use xlink:href="#r"/>
</g>
</g>
<path d="m796.37 966.58v35.285q0 2.4 2.4 2.4h7.7425q2.4 0 2.4-2.4v-35.285q0-2.4-2.4-2.4h-7.7425q-2.4 0-2.4 2.4z" clip-path="url(#a)" fill="#fff" stroke="#fff"/>
<g clip-path="url(#a)">
<g transform="translate(800.43 966.58) rotate(90) scale(.08 -.08)">
<use xlink:href="#l"/>
<use x="60.818359" xlink:href="#c"/>
<use x="122.341797" xlink:href="#g"/>
<use x="163.439453" xlink:href="#j"/>
<use x="260.851562" xlink:href="#h"/>
<use x="288.634766" xlink:href="#e"/>
<use x="352.013672" xlink:href="#i"/>
<use x="413.292969" xlink:href="#k"/>
</g>
</g>
<path d="m913.57 873.16 3.9532-3.7842q1.7337-1.6596 0.074121-3.3933l-5.3539-5.593q-1.6596-1.7337-3.3933-0.074121l-3.9532 3.7842q-1.7337 1.6596-0.074121 3.3933l5.3539 5.593q1.6596 1.7337 3.3933 0.074121z" clip-path="url(#a)" fill="#fff" stroke="#fff"/>
<g clip-path="url(#a)">
<g transform="translate(910.76 870.22) rotate(-43.749) scale(.08 -.08)">
<use xlink:href="#r"/>
</g>
</g>
<path d="m938.43 872.72 3.3311-5.1816q1.2978-2.0188-0.72098-3.3167l-6.5128-4.1869q-2.0188-1.2978-3.3167 0.72098l-3.3311 5.1816q-1.2978 2.0188 0.72098 3.3167l6.5128 4.1869q2.0188 1.2978 3.3167-0.72098z" clip-path="url(#a)" fill="#fff" stroke="#fff"/>
<g clip-path="url(#a)">
<defs>
<path id="al" d="m19.672 64.797v-56.688h11.922q15.094 0 22.094 6.8281 7 6.8438 7 21.594 0 14.641-7 21.453t-22.094 6.8125zm-9.8594 8.1094h20.266q21.188 0 31.094-8.8125 9.9219-8.8125 9.9219-27.562 0-18.859-9.9688-27.703-9.9531-8.8281-31.047-8.8281h-20.266z"/>
</defs>
<g transform="translate(935.01 870.52) rotate(-57.264) scale(.08 -.08)">
<use xlink:href="#al"/>
</g>
</g>
<path d="m998.97 867.71 2.3649 4.2042q1.1766 2.0918 3.2684 0.91513l6.7481-3.7959q2.0918-1.1766 0.91513-3.2684l-2.3649-4.2042q-1.1766-2.0918-3.2684-0.91513l-6.7481 3.7959q-2.0918 1.1766-0.91513 3.2684z" clip-path="url(#a)" fill="#fff" stroke="#fff"/>
<g clip-path="url(#a)">
<g transform="translate(1002.5 865.72) rotate(60.642) scale(.08 -.08)">
<use xlink:href="#ag"/>
</g>
</g>
<path d="m975.34 864.69 0.97747 6.082q0.38084 2.3696 2.7504 1.9888l7.6444-1.2286q2.3696-0.38084 1.9888-2.7504l-0.97748-6.082q-0.38083-2.3696-2.7504-1.9888l-7.6444 1.2286q-2.3696 0.38083-1.9888 2.7504z" clip-path="url(#a)" fill="#fff" stroke="#fff"/>
<g clip-path="url(#a)">
<g transform="translate(979.35 864.05) rotate(80.87) scale(.08 -.08)">
<use xlink:href="#al"/>
</g>
</g>
<path d="m1023.1 869.43 3.1939 3.3122q1.6659 1.7276 3.3936 0.061669l5.5733-5.3744q1.7276-1.6659 0.06167-3.3936l-3.1939-3.3122q-1.6659-1.7276-3.3936-0.06167l-5.5733 5.3744q-1.7276 1.6659-0.06167 3.3936z" clip-path="url(#a)" fill="#fff" stroke="#fff"/>
<g clip-path="url(#a)">
<defs>
<path id="ak" d="m9.8125 72.906h41.891v-8.3125h-32.031v-21.484h28.906v-8.2969h-28.906v-34.812h-9.8594z"/>
</defs>
<g transform="translate(1026 866.61) rotate(46.041) scale(.08 -.08)">
<use xlink:href="#ak"/>
</g>
</g>
<path d="m1529.2 512.16 5.256-1.5242q2.305-0.66845 1.6366-2.9735l-2.1564-7.4361q-0.66845-2.305-2.9735-1.6366l-5.256 1.5242q-2.305 0.66845-1.6366 2.9735l2.1564 7.4361q0.66845 2.305 2.9735 1.6366z" clip-path="url(#a)" fill="#fff" stroke="#fff"/>
<g clip-path="url(#a)">
<g transform="translate(1528.1 508.25) rotate(-16.172) scale(.08 -.08)">
<use xlink:href="#r"/>
</g>
</g>
<path d="m1655.8 689.51 2.2199-5.7461q0.8649-2.2387-1.3738-3.1036l-7.2223-2.7902q-2.2387-0.8649-3.1036 1.3738l-2.2199 5.7461q-0.8649 2.2387 1.3738 3.1036l7.2223 2.7902q2.2387 0.8649 3.1036-1.3738z" clip-path="url(#a)" fill="#fff" stroke="#fff"/>
<g clip-path="url(#a)">
<g transform="translate(1652 688.05) rotate(-68.877) scale(.08 -.08)">
<use xlink:href="#al"/>
</g>
</g>
<path d="m1721.5 570.15 1.2265-5.3333q0.53787-2.339-1.8011-2.8768l-7.5456-1.7352q-2.339-0.53787-2.8768 1.8011l-1.2265 5.3333q-0.53787 2.339 1.8011 2.8768l7.5456 1.7352q2.339 0.53787 2.8768-1.8011z" clip-path="url(#a)" fill="#fff" stroke="#fff"/>
<g clip-path="url(#a)">
<g transform="translate(1717.5 569.24) rotate(-77.049) scale(.08 -.08)">
<use xlink:href="#r"/>
</g>
</g>
<path d="m1786 682.93 1.0786 5.3652q0.47302 2.3529 2.8259 1.8799l7.5906-1.526q2.3529-0.47302 1.8799-2.8259l-1.0786-5.3652q-0.47302-2.3529-2.8259-1.8799l-7.5906 1.526q-2.3529 0.47302-1.8799 2.8259z" clip-path="url(#a)" fill="#fff" stroke="#fff"/>
<g clip-path="url(#a)">
<g transform="translate(1790 682.13) rotate(78.633) scale(.08 -.08)">
<use xlink:href="#r"/>
</g>
</g>
<path d="m1809.5 683.74 1.4546 4.866q0.68738 2.2995 2.9868 1.6121l7.4182-2.2175q2.2995-0.68738 1.6121-2.9868l-1.4546-4.866q-0.68738-2.2995-2.9868-1.6121l-7.4182 2.2175q-2.2995 0.68738-1.6121 2.9868z" clip-path="url(#a)" fill="#fff" stroke="#fff"/>
<g clip-path="url(#a)">
<g transform="translate(1813.4 682.58) rotate(73.357) scale(.08 -.08)">
<use xlink:href="#af"/>
</g>
</g>
<path d="m1833 683.97 2.1596 5.4422q0.88523 2.2308 3.116 1.3456l7.1966-2.8558q2.2308-0.88523 1.3456-3.116l-2.1596-5.4422q-0.88523-2.2308-3.116-1.3456l-7.1966 2.8558q-2.2308 0.88523-1.3456 3.116z" clip-path="url(#a)" fill="#fff" stroke="#fff"/>
<g clip-path="url(#a)">
<g transform="translate(1836.8 682.47) rotate(68.356) scale(.08 -.08)">
<use xlink:href="#q"/>
</g>
</g>
<path d="m1856.6 684.54 2.5962 5.2479q1.0642 2.1511 3.2154 1.0869l6.9397-3.4332q2.1512-1.0642 1.0869-3.2154l-2.5962-5.2479q-1.0642-2.1512-3.2154-1.0869l-6.9397 3.4332q-2.1512 1.0642-1.0869 3.2154z" clip-path="url(#a)" fill="#fff" stroke="#fff"/>
<g clip-path="url(#a)">
<g transform="translate(1860.2 682.73) rotate(63.678) scale(.08 -.08)">
<use xlink:href="#q"/>
</g>
</g>
<path d="m1277.2 750.67 1.3341-5.3963q0.57599-2.3299-1.7539-2.9058l-7.5162-1.8582q-2.3299-0.57599-2.9058 1.7539l-1.3341 5.3963q-0.57599 2.3299 1.7539 2.9058l7.5162 1.8582q2.3299 0.57599 2.9058-1.7539z" clip-path="url(#a)" fill="#fff" stroke="#fff"/>
<g clip-path="url(#a)">
<g transform="translate(1273.2 749.7) rotate(-76.114) scale(.08 -.08)">
<use xlink:href="#ad"/>
</g>
</g>
<path d="m1301.3 749.7 0.57935-5.0217q0.27506-2.3842-2.1091-2.6592l-7.6915-0.88736q-2.3842-0.27506-2.6592 2.1091l-0.57935 5.0217q-0.27506 2.3842 2.1091 2.6592l7.6915 0.88736q2.3842 0.27506 2.6592-2.1091z" clip-path="url(#a)" fill="#fff" stroke="#fff"/>
<g clip-path="url(#a)">
<defs>
<path id="x" d="m9.8125 72.906h46.094v-8.3125h-36.234v-21.578h34.719v-8.2969h-34.719v-26.422h37.109v-8.2969h-46.969z"/>
</defs>
<g transform="translate(1297.2 749.23) rotate(-83.419) scale(.08 -.08)">
<use xlink:href="#x"/>
</g>
</g>
<path d="m1312.6 743.78 0.092056 5.5855q0.03955 2.3997 2.4392 2.3601l7.7414-0.12759q2.3997-0.039549 2.3601-2.4392l-0.092056-5.5855q-0.03955-2.3997-2.4392-2.3601l-7.7414 0.12759q-2.3997 0.039549-2.3601 2.4392z" clip-path="url(#a)" fill="#fff" stroke="#fff"/>
<g clip-path="url(#a)">
<g transform="translate(1316.7 743.71) rotate(89.056) scale(.08 -.08)">
<use xlink:href="#w"/>
</g>
</g>
<path d="m1371.8 630.88 3.6107 3.5378q1.7143 1.6797 3.3939-0.034575l5.4187-5.5303q1.6797-1.7143-0.034575-3.3939l-3.6107-3.5378q-1.7143-1.6797-3.3939 0.034575l-5.4187 5.5303q-1.6797 1.7143 0.034575 3.3939z" clip-path="url(#a)" fill="#fff" stroke="#fff"/>
<g clip-path="url(#a)">
<g transform="translate(1374.6 627.98) rotate(44.416) scale(.08 -.08)">
<use xlink:href="#x"/>
</g>
</g>
<path d="m1551.7 966.58v35.285q0 2.4 2.4 2.4h7.7425q2.4 0 2.4-2.4v-35.285q0-2.4-2.4-2.4h-7.7425q-2.4 0-2.4 2.4z" clip-path="url(#a)" fill="#fff" stroke="#fff"/>
<g clip-path="url(#a)">
<g transform="translate(1555.7 966.58) rotate(90) scale(.08 -.08)">
<use xlink:href="#l"/>
<use x="60.818359" xlink:href="#c"/>
<use x="122.341797" xlink:href="#g"/>
<use x="163.439453" xlink:href="#j"/>
<use x="260.851562" xlink:href="#h"/>
<use x="288.634766" xlink:href="#e"/>
<use x="352.013672" xlink:href="#i"/>
<use x="413.292969" xlink:href="#k"/>
</g>
</g>
<path d="m1662.6 753.67 2.4291-4.9038q1.0653-2.1506-1.0853-3.2159l-6.938-3.4367q-2.1506-1.0653-3.2159 1.0853l-2.4291 4.9038q-1.0653 2.1506 1.0853 3.2159l6.938 3.4367q2.1506 1.0653 3.2159-1.0853z" clip-path="url(#a)" fill="#fff" stroke="#fff"/>
<g clip-path="url(#a)">
<g transform="translate(1659 751.87) rotate(-63.648) scale(.08 -.08)">
<use xlink:href="#r"/>
</g>
</g>
<path d="m1710.5 749.06 2.1412 4.3225q1.0653 2.1506 3.2159 1.0853l6.938-3.4367q2.1506-1.0653 1.0853-3.2159l-2.1412-4.3225q-1.0653-2.1506-3.2159-1.0853l-6.938 3.4367q-2.1506 1.0653-1.0853 3.2159z" clip-path="url(#a)" fill="#fff" stroke="#fff"/>
<g clip-path="url(#a)">
<g transform="translate(1714.2 747.25) rotate(63.648) scale(.08 -.08)">
<use xlink:href="#ag"/>
</g>
</g>
<path d="m1834.9 966.58v35.285q0 2.4 2.4 2.4h7.7425q2.4 0 2.4-2.4v-35.285q0-2.4-2.4-2.4h-7.7425q-2.4 0-2.4 2.4z" clip-path="url(#a)" fill="#fff" stroke="#fff"/>
<g clip-path="url(#a)">
<g transform="translate(1838.9 966.58) rotate(90) scale(.08 -.08)">
<use xlink:href="#l"/>
<use x="60.818359" xlink:href="#c"/>
<use x="122.341797" xlink:href="#g"/>
<use x="163.439453" xlink:href="#j"/>
<use x="260.851562" xlink:href="#h"/>
<use x="288.634766" xlink:href="#e"/>
<use x="352.013672" xlink:href="#i"/>
<use x="413.292969" xlink:href="#k"/>
</g>
</g>
<path d="m1882.1 966.58v35.285q0 2.4 2.4 2.4h7.7425q2.4 0 2.4-2.4v-35.285q0-2.4-2.4-2.4h-7.7425q-2.4 0-2.4 2.4z" clip-path="url(#a)" fill="#fff" stroke="#fff"/>
<g clip-path="url(#a)">
<g transform="translate(1886.1 966.58) rotate(90) scale(.08 -.08)">
<use xlink:href="#l"/>
<use x="60.818359" xlink:href="#c"/>
<use x="122.341797" xlink:href="#g"/>
<use x="163.439453" xlink:href="#j"/>
<use x="260.851562" xlink:href="#h"/>
<use x="288.634766" xlink:href="#e"/>
<use x="352.013672" xlink:href="#i"/>
<use x="413.292969" xlink:href="#k"/>
</g>
</g>
<path d="m1622.6 870.45 0.99564-4.956q0.47271-2.353-1.8803-2.8257l-7.5908-1.525q-2.353-0.47271-2.8257 1.8803l-0.99564 4.956q-0.47271 2.353 1.8803 2.8257l7.5908 1.525q2.353 0.47271 2.8257-1.8803z" clip-path="url(#a)" fill="#fff" stroke="#fff"/>
<g clip-path="url(#a)">
<g transform="translate(1618.6 869.65) rotate(-78.641) scale(.08 -.08)">
<use xlink:href="#x"/>
</g>
</g>
<path d="m1633.8 865.23 1.1003 5.4768q0.47271 2.353 2.8257 1.8803l7.5908-1.525q2.353-0.47271 1.8803-2.8257l-1.1003-5.4768q-0.47271-2.353-2.8257-1.8803l-7.5908 1.525q-2.353 0.47271-1.8803 2.8257z" clip-path="url(#a)" fill="#fff" stroke="#fff"/>
<g clip-path="url(#a)">
<g transform="translate(1637.8 864.43) rotate(78.641) scale(.08 -.08)">
<use xlink:href="#w"/>
</g>
</g>
<path d="m1727.9 871.65 2.0724-5.158q0.89478-2.227-1.3322-3.1217l-7.1843-2.8866q-2.227-0.89478-3.1217 1.3322l-2.0724 5.158q-0.89478 2.227 1.3322 3.1217l7.1843 2.8866q2.227 0.89478 3.1217-1.3322z" clip-path="url(#a)" fill="#fff" stroke="#fff"/>
<g clip-path="url(#a)">
<g transform="translate(1724.2 870.14) rotate(-68.11) scale(.08 -.08)">
<use xlink:href="#ad"/>
</g>
</g>
<path d="m1740.5 864.21v5.055q0 2.4 2.4 2.4h7.7425q2.4 0 2.4-2.4v-5.055q0-2.4-2.4-2.4h-7.7425q-2.4 0-2.4 2.4z" clip-path="url(#a)" fill="#fff" stroke="#fff"/>
<g clip-path="url(#a)">
<g transform="translate(1744.5 864.21) rotate(90) scale(.08 -.08)">
<use xlink:href="#x"/>
</g>
</g>
<path d="m1763.5 866.48 2.0827 5.1835q0.89478 2.227 3.1217 1.3322l7.1843-2.8866q2.227-0.89478 1.3322-3.1217l-2.0827-5.1835q-0.89478-2.227-3.1217-1.3322l-7.1843 2.8866q-2.227 0.89478-1.3322 3.1217z" clip-path="url(#a)" fill="#fff" stroke="#fff"/>
<g clip-path="url(#a)">
<g transform="translate(1767.3 864.97) rotate(68.11) scale(.08 -.08)">
<use xlink:href="#w"/>
</g>
</g>
<path d="m1693.3 966.58v35.285q0 2.4 2.4 2.4h7.7425q2.4 0 2.4-2.4v-35.285q0-2.4-2.4-2.4h-7.7425q-2.4 0-2.4 2.4z" clip-path="url(#a)" fill="#fff" stroke="#fff"/>
<g clip-path="url(#a)">
<g transform="translate(1697.3 966.58) rotate(90) scale(.08 -.08)">
<use xlink:href="#l"/>
<use x="60.818359" xlink:href="#c"/>
<use x="122.341797" xlink:href="#g"/>
<use x="163.439453" xlink:href="#j"/>
<use x="260.851562" xlink:href="#h"/>
<use x="288.634766" xlink:href="#e"/>
<use x="352.013672" xlink:href="#i"/>
<use x="413.292969" xlink:href="#k"/>
</g>
</g>
<path d="m1740.5 966.58v35.285q0 2.4 2.4 2.4h7.7425q2.4 0 2.4-2.4v-35.285q0-2.4-2.4-2.4h-7.7425q-2.4 0-2.4 2.4z" clip-path="url(#a)" fill="#fff" stroke="#fff"/>
<g clip-path="url(#a)">
<g transform="translate(1744.5 966.58) rotate(90) scale(.08 -.08)">
<use xlink:href="#l"/>
<use x="60.818359" xlink:href="#c"/>
<use x="122.341797" xlink:href="#g"/>
<use x="163.439453" xlink:href="#j"/>
<use x="260.851562" xlink:href="#h"/>
<use x="288.634766" xlink:href="#e"/>
<use x="352.013672" xlink:href="#i"/>
<use x="413.292969" xlink:href="#k"/>
</g>
</g>
<path d="m1787.7 966.58v35.285q0 2.4 2.4 2.4h7.7425q2.4 0 2.4-2.4v-35.285q0-2.4-2.4-2.4h-7.7425q-2.4 0-2.4 2.4z" clip-path="url(#a)" fill="#fff" stroke="#fff"/>
<g clip-path="url(#a)">
<g transform="translate(1791.7 966.58) rotate(90) scale(.08 -.08)">
<use xlink:href="#l"/>
<use x="60.818359" xlink:href="#c"/>
<use x="122.341797" xlink:href="#g"/>
<use x="163.439453" xlink:href="#j"/>
<use x="260.851562" xlink:href="#h"/>
<use x="288.634766" xlink:href="#e"/>
<use x="352.013672" xlink:href="#i"/>
<use x="413.292969" xlink:href="#k"/>
</g>
</g>
<path d="m1598.9 966.58v35.285q0 2.4 2.4 2.4h7.7425q2.4 0 2.4-2.4v-35.285q0-2.4-2.4-2.4h-7.7425q-2.4 0-2.4 2.4z" clip-path="url(#a)" fill="#fff" stroke="#fff"/>
<g clip-path="url(#a)">
<g transform="translate(1602.9 966.58) rotate(90) scale(.08 -.08)">
<use xlink:href="#l"/>
<use x="60.818359" xlink:href="#c"/>
<use x="122.341797" xlink:href="#g"/>
<use x="163.439453" xlink:href="#j"/>
<use x="260.851562" xlink:href="#h"/>
<use x="288.634766" xlink:href="#e"/>
<use x="352.013672" xlink:href="#i"/>
<use x="413.292969" xlink:href="#k"/>
</g>
</g>
<path d="m1646.1 966.58v35.285q0 2.4 2.4 2.4h7.7425q2.4 0 2.4-2.4v-35.285q0-2.4-2.4-2.4h-7.7425q-2.4 0-2.4 2.4z" clip-path="url(#a)" fill="#fff" stroke="#fff"/>
<g clip-path="url(#a)">
<g transform="translate(1650.1 966.58) rotate(90) scale(.08 -.08)">
<use xlink:href="#l"/>
<use x="60.818359" xlink:href="#c"/>
<use x="122.341797" xlink:href="#g"/>
<use x="163.439453" xlink:href="#j"/>
<use x="260.851562" xlink:href="#h"/>
<use x="288.634766" xlink:href="#e"/>
<use x="352.013672" xlink:href="#i"/>
<use x="413.292969" xlink:href="#k"/>
</g>
</g>
<path d="m1221.2 966.58v35.285q0 2.4 2.4 2.4h7.7425q2.4 0 2.4-2.4v-35.285q0-2.4-2.4-2.4h-7.7425q-2.4 0-2.4 2.4z" clip-path="url(#a)" fill="#fff" stroke="#fff"/>
<g clip-path="url(#a)">
<g transform="translate(1225.3 966.58) rotate(90) scale(.08 -.08)">
<use xlink:href="#l"/>
<use x="60.818359" xlink:href="#c"/>
<use x="122.341797" xlink:href="#g"/>
<use x="163.439453" xlink:href="#j"/>
<use x="260.851562" xlink:href="#h"/>
<use x="288.634766" xlink:href="#e"/>
<use x="352.013672" xlink:href="#i"/>
<use x="413.292969" xlink:href="#k"/>
</g>
</g>
<path d="m1268.4 966.58v35.285q0 2.4 2.4 2.4h7.7425q2.4 0 2.4-2.4v-35.285q0-2.4-2.4-2.4h-7.7425q-2.4 0-2.4 2.4z" clip-path="url(#a)" fill="#fff" stroke="#fff"/>
<g clip-path="url(#a)">
<g transform="translate(1272.5 966.58) rotate(90) scale(.08 -.08)">
<use xlink:href="#l"/>
<use x="60.818359" xlink:href="#c"/>
<use x="122.341797" xlink:href="#g"/>
<use x="163.439453" xlink:href="#j"/>
<use x="260.851562" xlink:href="#h"/>
<use x="288.634766" xlink:href="#e"/>
<use x="352.013672" xlink:href="#i"/>
<use x="413.292969" xlink:href="#k"/>
</g>
</g>
<path d="m1315.6 966.58v35.285q0 2.4 2.4 2.4h7.7425q2.4 0 2.4-2.4v-35.285q0-2.4-2.4-2.4h-7.7425q-2.4 0-2.4 2.4z" clip-path="url(#a)" fill="#fff" stroke="#fff"/>
<g clip-path="url(#a)">
<g transform="translate(1319.7 966.58) rotate(90) scale(.08 -.08)">
<use xlink:href="#l"/>
<use x="60.818359" xlink:href="#c"/>
<use x="122.341797" xlink:href="#g"/>
<use x="163.439453" xlink:href="#j"/>
<use x="260.851562" xlink:href="#h"/>
<use x="288.634766" xlink:href="#e"/>
<use x="352.013672" xlink:href="#i"/>
<use x="413.292969" xlink:href="#k"/>
</g>
</g>
<path d="m1421.2 752.99 1.7771-4.4845q0.88418-2.2312-1.347-3.1154l-7.1979-2.8524q-2.2312-0.88418-3.1154 1.347l-1.7771 4.4845q-0.88418 2.2312 1.347 3.1154l7.1979 2.8524q2.2312 0.88418 3.1154-1.347z" clip-path="url(#a)" fill="#fff" stroke="#fff"/>
<g clip-path="url(#a)">
<g transform="translate(1417.5 751.49) rotate(-68.383) scale(.08 -.08)">
<use xlink:href="#ag"/>
</g>
</g>
<path d="m1456.7 748.2 2.0161 5.0876q0.88418 2.2312 3.1154 1.347l7.1979-2.8524q2.2312-0.88418 1.347-3.1154l-2.0161-5.0876q-0.88418-2.2312-3.1154-1.347l-7.1979 2.8524q-2.2312 0.88418-1.347 3.1154z" clip-path="url(#a)" fill="#fff" stroke="#fff"/>
<g clip-path="url(#a)">
<g transform="translate(1460.5 746.7) rotate(68.383) scale(.08 -.08)">
<use xlink:href="#r"/>
</g>
</g>
<path d="m1386.5 870.7 1.0949-5.4499q0.47271-2.353-1.8803-2.8257l-7.5908-1.525q-2.353-0.47271-2.8257 1.8803l-1.0949 5.4499q-0.47271 2.353 1.8803 2.8257l7.5908 1.525q2.353 0.47271 2.8257-1.8803z" clip-path="url(#a)" fill="#fff" stroke="#fff"/>
<g clip-path="url(#a)">
<g transform="translate(1382.5 869.9) rotate(-78.641) scale(.08 -.08)">
<use xlink:href="#ad"/>
</g>
</g>
<path d="m1397.8 865.23 1.1003 5.4768q0.47271 2.353 2.8257 1.8803l7.5908-1.525q2.353-0.47271 1.8803-2.8257l-1.1003-5.4768q-0.47271-2.353-2.8257-1.8803l-7.5908 1.525q-2.353 0.47271-1.8803 2.8257z" clip-path="url(#a)" fill="#fff" stroke="#fff"/>
<g clip-path="url(#a)">
<g transform="translate(1401.8 864.43) rotate(78.641) scale(.08 -.08)">
<use xlink:href="#w"/>
</g>
</g>
<path d="m1480.9 870.7 1.0949-5.4499q0.47271-2.353-1.8803-2.8257l-7.5908-1.525q-2.353-0.47271-2.8257 1.8803l-1.0949 5.4499q-0.47271 2.353 1.8803 2.8257l7.5908 1.525q2.353 0.47271 2.8257-1.8803z" clip-path="url(#a)" fill="#fff" stroke="#fff"/>
<g clip-path="url(#a)">
<g transform="translate(1476.9 869.9) rotate(-78.641) scale(.08 -.08)">
<use xlink:href="#ad"/>
</g>
</g>
<path d="m1492.2 865.23 1.1003 5.4768q0.47271 2.353 2.8257 1.8803l7.5908-1.525q2.353-0.47271 1.8803-2.8257l-1.1003-5.4768q-0.47271-2.353-2.8257-1.8803l-7.5908 1.525q-2.353 0.47271-1.8803 2.8257z" clip-path="url(#a)" fill="#fff" stroke="#fff"/>
<g clip-path="url(#a)">
<g transform="translate(1496.2 864.43) rotate(78.641) scale(.08 -.08)">
<use xlink:href="#w"/>
</g>
</g>
<path d="m1457.2 966.58v35.285q0 2.4 2.4 2.4h7.7425q2.4 0 2.4-2.4v-35.285q0-2.4-2.4-2.4h-7.7425q-2.4 0-2.4 2.4z" clip-path="url(#a)" fill="#fff" stroke="#fff"/>
<g clip-path="url(#a)">
<g transform="translate(1461.3 966.58) rotate(90) scale(.08 -.08)">
<use xlink:href="#l"/>
<use x="60.818359" xlink:href="#c"/>
<use x="122.341797" xlink:href="#g"/>
<use x="163.439453" xlink:href="#j"/>
<use x="260.851562" xlink:href="#h"/>
<use x="288.634766" xlink:href="#e"/>
<use x="352.013672" xlink:href="#i"/>
<use x="413.292969" xlink:href="#k"/>
</g>
</g>
<path d="m1504.4 966.58v35.285q0 2.4 2.4 2.4h7.7425q2.4 0 2.4-2.4v-35.285q0-2.4-2.4-2.4h-7.7425q-2.4 0-2.4 2.4z" clip-path="url(#a)" fill="#fff" stroke="#fff"/>
<g clip-path="url(#a)">
<g transform="translate(1508.5 966.58) rotate(90) scale(.08 -.08)">
<use xlink:href="#l"/>
<use x="60.818359" xlink:href="#c"/>
<use x="122.341797" xlink:href="#g"/>
<use x="163.439453" xlink:href="#j"/>
<use x="260.851562" xlink:href="#h"/>
<use x="288.634766" xlink:href="#e"/>
<use x="352.013672" xlink:href="#i"/>
<use x="413.292969" xlink:href="#k"/>
</g>
</g>
<path d="m1362.8 966.58v35.285q0 2.4 2.4 2.4h7.7425q2.4 0 2.4-2.4v-35.285q0-2.4-2.4-2.4h-7.7425q-2.4 0-2.4 2.4z" clip-path="url(#a)" fill="#fff" stroke="#fff"/>
<g clip-path="url(#a)">
<g transform="translate(1366.9 966.58) rotate(90) scale(.08 -.08)">
<use xlink:href="#l"/>
<use x="60.818359" xlink:href="#c"/>
<use x="122.341797" xlink:href="#g"/>
<use x="163.439453" xlink:href="#j"/>
<use x="260.851562" xlink:href="#h"/>
<use x="288.634766" xlink:href="#e"/>
<use x="352.013672" xlink:href="#i"/>
<use x="413.292969" xlink:href="#k"/>
</g>
</g>
<path d="m1410 966.58v35.285q0 2.4 2.4 2.4h7.7425q2.4 0 2.4-2.4v-35.285q0-2.4-2.4-2.4h-7.7425q-2.4 0-2.4 2.4z" clip-path="url(#a)" fill="#fff" stroke="#fff"/>
<g clip-path="url(#a)">
<g transform="translate(1414.1 966.58) rotate(90) scale(.08 -.08)">
<use xlink:href="#l"/>
<use x="60.818359" xlink:href="#c"/>
<use x="122.341797" xlink:href="#g"/>
<use x="163.439453" xlink:href="#j"/>
<use x="260.851562" xlink:href="#h"/>
<use x="288.634766" xlink:href="#e"/>
<use x="352.013672" xlink:href="#i"/>
<use x="413.292969" xlink:href="#k"/>
</g>
</g>
<path d="m843.58 966.58v35.285q0 2.4 2.4 2.4h7.7425q2.4 0 2.4-2.4v-35.285q0-2.4-2.4-2.4h-7.7425q-2.4 0-2.4 2.4z" clip-path="url(#a)" fill="#fff" stroke="#fff"/>
<g clip-path="url(#a)">
<g transform="translate(847.64 966.58) rotate(90) scale(.08 -.08)">
<use xlink:href="#l"/>
<use x="60.818359" xlink:href="#c"/>
<use x="122.341797" xlink:href="#g"/>
<use x="163.439453" xlink:href="#j"/>
<use x="260.851562" xlink:href="#h"/>
<use x="288.634766" xlink:href="#e"/>
<use x="352.013672" xlink:href="#i"/>
<use x="413.292969" xlink:href="#k"/>
</g>
</g>
<path d="m890.78 966.58v35.285q0 2.4 2.4 2.4h7.7425q2.4 0 2.4-2.4v-35.285q0-2.4-2.4-2.4h-7.7425q-2.4 0-2.4 2.4z" clip-path="url(#a)" fill="#fff" stroke="#fff"/>
<g clip-path="url(#a)">
<g transform="translate(894.84 966.58) rotate(90) scale(.08 -.08)">
<use xlink:href="#l"/>
<use x="60.818359" xlink:href="#c"/>
<use x="122.341797" xlink:href="#g"/>
<use x="163.439453" xlink:href="#j"/>
<use x="260.851562" xlink:href="#h"/>
<use x="288.634766" xlink:href="#e"/>
<use x="352.013672" xlink:href="#i"/>
<use x="413.292969" xlink:href="#k"/>
</g>
</g>
<path d="m985.3 1001.9 22.102-27.505q1.5034-1.8708-0.36745-3.3742l-6.0353-4.8499q-1.8708-1.5034-3.3742 0.36745l-22.102 27.505q-1.5034 1.8708 0.36745 3.3742l6.0353 4.8499q1.8708 1.5034 3.3742-0.36745z" clip-path="url(#a)" fill="#fff" stroke="#fff"/>
<g clip-path="url(#a)">
<g transform="translate(982.13 999.36) rotate(-51.215) scale(.08 -.08)">
<use xlink:href="#l"/>
<use x="60.818359" xlink:href="#c"/>
<use x="122.341797" xlink:href="#g"/>
<use x="163.439453" xlink:href="#j"/>
<use x="260.851562" xlink:href="#h"/>
<use x="288.634766" xlink:href="#e"/>
<use x="352.013672" xlink:href="#i"/>
<use x="413.292969" xlink:href="#k"/>
</g>
</g>
<path d="m1032.4 966.58v35.285q0 2.4 2.4 2.4h7.7425q2.4 0 2.4-2.4v-35.285q0-2.4-2.4-2.4h-7.7425q-2.4 0-2.4 2.4z" clip-path="url(#a)" fill="#fff" stroke="#fff"/>
<g clip-path="url(#a)">
<g transform="translate(1036.5 966.58) rotate(90) scale(.08 -.08)">
<use xlink:href="#l"/>
<use x="60.818359" xlink:href="#c"/>
<use x="122.341797" xlink:href="#g"/>
<use x="163.439453" xlink:href="#j"/>
<use x="260.851562" xlink:href="#h"/>
<use x="288.634766" xlink:href="#e"/>
<use x="352.013672" xlink:href="#i"/>
<use x="413.292969" xlink:href="#k"/>
</g>
</g>
<path d="m1069.9 974.4 22.102 27.505q1.5034 1.8708 3.3742 0.36745l6.0353-4.8499q1.8708-1.5034 0.36745-3.3742l-22.102-27.505q-1.5034-1.8708-3.3742-0.36745l-6.0353 4.8499q-1.8708 1.5034-0.36745 3.3742z" clip-path="url(#a)" fill="#fff" stroke="#fff"/>
<g clip-path="url(#a)">
<g transform="translate(1073.1 971.85) rotate(51.215) scale(.08 -.08)">
<use xlink:href="#l"/>
<use x="60.818359" xlink:href="#c"/>
<use x="122.341797" xlink:href="#g"/>
<use x="163.439453" xlink:href="#j"/>
<use x="260.851562" xlink:href="#h"/>
<use x="288.634766" xlink:href="#e"/>
<use x="352.013672" xlink:href="#i"/>
<use x="413.292969" xlink:href="#k"/>
</g>
</g>
<path d="m985.19 966.58v35.285q0 2.4 2.4 2.4h7.7425q2.4 0 2.4-2.4v-35.285q0-2.4-2.4-2.4h-7.7425q-2.4 0-2.4 2.4z" clip-path="url(#a)" fill="#fff" stroke="#fff"/>
<g clip-path="url(#a)">
<g transform="translate(989.25 966.58) rotate(90) scale(.08 -.08)">
<use xlink:href="#l"/>
<use x="60.818359" xlink:href="#c"/>
<use x="122.341797" xlink:href="#g"/>
<use x="163.439453" xlink:href="#j"/>
<use x="260.851562" xlink:href="#h"/>
<use x="288.634766" xlink:href="#e"/>
<use x="352.013672" xlink:href="#i"/>
<use x="413.292969" xlink:href="#k"/>
</g>
</g>
<path d="m1079.6 966.58v35.285q0 2.4 2.4 2.4h7.7425q2.4 0 2.4-2.4v-35.285q0-2.4-2.4-2.4h-7.7425q-2.4 0-2.4 2.4z" clip-path="url(#a)" fill="#fff" stroke="#fff"/>
<g clip-path="url(#a)">
<g transform="translate(1083.7 966.58) rotate(90) scale(.08 -.08)">
<use xlink:href="#l"/>
<use x="60.818359" xlink:href="#c"/>
<use x="122.341797" xlink:href="#g"/>
<use x="163.439453" xlink:href="#j"/>
<use x="260.851562" xlink:href="#h"/>
<use x="288.634766" xlink:href="#e"/>
<use x="352.013672" xlink:href="#i"/>
<use x="413.292969" xlink:href="#k"/>
</g>
</g>
<path d="m159.22 870.45 0.99564-4.956q0.47271-2.353-1.8803-2.8257l-7.5908-1.525q-2.353-0.47271-2.8257 1.8803l-0.99564 4.956q-0.47271 2.353 1.8803 2.8257l7.5908 1.525q2.353 0.47271 2.8257-1.8803z" clip-path="url(#a)" fill="#fff" stroke="#fff"/>
<g clip-path="url(#a)">
<g transform="translate(155.24 869.65) rotate(-78.641) scale(.08 -.08)">
<use xlink:href="#x"/>
</g>
</g>
<path d="m170.48 865.23 1.1003 5.4768q0.47271 2.353 2.8257 1.8803l7.5908-1.525q2.353-0.47271 1.8803-2.8257l-1.1003-5.4768q-0.47271-2.353-2.8257-1.8803l-7.5908 1.525q-2.353 0.47271-1.8803 2.8257z" clip-path="url(#a)" fill="#fff" stroke="#fff"/>
<g clip-path="url(#a)">
<g transform="translate(174.46 864.43) rotate(78.641) scale(.08 -.08)">
<use xlink:href="#w"/>
</g>
</g>
<path d="m607.55 966.58v35.285q0 2.4 2.4 2.4h7.7425q2.4 0 2.4-2.4v-35.285q0-2.4-2.4-2.4h-7.7425q-2.4 0-2.4 2.4z" clip-path="url(#a)" fill="#fff" stroke="#fff"/>
<g clip-path="url(#a)">
<g transform="translate(611.61 966.58) rotate(90) scale(.08 -.08)">
<use xlink:href="#l"/>
<use x="60.818359" xlink:href="#c"/>
<use x="122.341797" xlink:href="#g"/>
<use x="163.439453" xlink:href="#j"/>
<use x="260.851562" xlink:href="#h"/>
<use x="288.634766" xlink:href="#e"/>
<use x="352.013672" xlink:href="#i"/>
<use x="413.292969" xlink:href="#k"/>
</g>
</g>
<path d="m654.76 966.58v35.285q0 2.4 2.4 2.4h7.7425q2.4 0 2.4-2.4v-35.285q0-2.4-2.4-2.4h-7.7425q-2.4 0-2.4 2.4z" clip-path="url(#a)" fill="#fff" stroke="#fff"/>
<g clip-path="url(#a)">
<g transform="translate(658.82 966.58) rotate(90) scale(.08 -.08)">
<use xlink:href="#l"/>
<use x="60.818359" xlink:href="#c"/>
<use x="122.341797" xlink:href="#g"/>
<use x="163.439453" xlink:href="#j"/>
<use x="260.851562" xlink:href="#h"/>
<use x="288.634766" xlink:href="#e"/>
<use x="352.013672" xlink:href="#i"/>
<use x="413.292969" xlink:href="#k"/>
</g>
</g>
<path d="m701.96 966.58v35.285q0 2.4 2.4 2.4h7.7425q2.4 0 2.4-2.4v-35.285q0-2.4-2.4-2.4h-7.7425q-2.4 0-2.4 2.4z" clip-path="url(#a)" fill="#fff" stroke="#fff"/>
<g clip-path="url(#a)">
<g transform="translate(706.02 966.58) rotate(90) scale(.08 -.08)">
<use xlink:href="#l"/>
<use x="60.818359" xlink:href="#c"/>
<use x="122.341797" xlink:href="#g"/>
<use x="163.439453" xlink:href="#j"/>
<use x="260.851562" xlink:href="#h"/>
<use x="288.634766" xlink:href="#e"/>
<use x="352.013672" xlink:href="#i"/>
<use x="413.292969" xlink:href="#k"/>
</g>
</g>
<path d="m135.5 966.58v35.285q0 2.4 2.4 2.4h7.7425q2.4 0 2.4-2.4v-35.285q0-2.4-2.4-2.4h-7.7425q-2.4 0-2.4 2.4z" clip-path="url(#a)" fill="#fff" stroke="#fff"/>
<g clip-path="url(#a)">
<g transform="translate(139.56 966.58) rotate(90) scale(.08 -.08)">
<use xlink:href="#l"/>
<use x="60.818359" xlink:href="#c"/>
<use x="122.341797" xlink:href="#g"/>
<use x="163.439453" xlink:href="#j"/>
<use x="260.851562" xlink:href="#h"/>
<use x="288.634766" xlink:href="#e"/>
<use x="352.013672" xlink:href="#i"/>
<use x="413.292969" xlink:href="#k"/>
</g>
</g>
<path d="m182.7 966.58v35.285q0 2.4 2.4 2.4h7.7425q2.4 0 2.4-2.4v-35.285q0-2.4-2.4-2.4h-7.7425q-2.4 0-2.4 2.4z" clip-path="url(#a)" fill="#fff" stroke="#fff"/>
<g clip-path="url(#a)">
<g transform="translate(186.77 966.58) rotate(90) scale(.08 -.08)">
<use xlink:href="#l"/>
<use x="60.818359" xlink:href="#c"/>
<use x="122.341797" xlink:href="#g"/>
<use x="163.439453" xlink:href="#j"/>
<use x="260.851562" xlink:href="#h"/>
<use x="288.634766" xlink:href="#e"/>
<use x="352.013672" xlink:href="#i"/>
<use x="413.292969" xlink:href="#k"/>
</g>
</g>
<path d="m88.295 966.58v35.285q0 2.4 2.4 2.4h7.7425q2.4 0 2.4-2.4v-35.285q0-2.4-2.4-2.4h-7.7425q-2.4 0-2.4 2.4z" clip-path="url(#a)" fill="#fff" stroke="#fff"/>
<g clip-path="url(#a)">
<g transform="translate(92.358 966.58) rotate(90) scale(.08 -.08)">
<use xlink:href="#l"/>
<use x="60.818359" xlink:href="#c"/>
<use x="122.341797" xlink:href="#g"/>
<use x="163.439453" xlink:href="#j"/>
<use x="260.851562" xlink:href="#h"/>
<use x="288.634766" xlink:href="#e"/>
<use x="352.013672" xlink:href="#i"/>
<use x="413.292969" xlink:href="#k"/>
</g>
</g>
<path d="m229.91 966.58v35.285q0 2.4 2.4 2.4h7.7425q2.4 0 2.4-2.4v-35.285q0-2.4-2.4-2.4h-7.7425q-2.4 0-2.4 2.4z" clip-path="url(#a)" fill="#fff" stroke="#fff"/>
<g clip-path="url(#a)">
<g transform="translate(233.97 966.58) rotate(90) scale(.08 -.08)">
<use xlink:href="#l"/>
<use x="60.818359" xlink:href="#c"/>
<use x="122.341797" xlink:href="#g"/>
<use x="163.439453" xlink:href="#j"/>
<use x="260.851562" xlink:href="#h"/>
<use x="288.634766" xlink:href="#e"/>
<use x="352.013672" xlink:href="#i"/>
<use x="413.292969" xlink:href="#k"/>
</g>
</g>
<path d="m277.11 966.58v35.285q0 2.4 2.4 2.4h7.7425q2.4 0 2.4-2.4v-35.285q0-2.4-2.4-2.4h-7.7425q-2.4 0-2.4 2.4z" clip-path="url(#a)" fill="#fff" stroke="#fff"/>
<g clip-path="url(#a)">
<g transform="translate(281.18 966.58) rotate(90) scale(.08 -.08)">
<use xlink:href="#l"/>
<use x="60.818359" xlink:href="#c"/>
<use x="122.341797" xlink:href="#g"/>
<use x="163.439453" xlink:href="#j"/>
<use x="260.851562" xlink:href="#h"/>
<use x="288.634766" xlink:href="#e"/>
<use x="352.013672" xlink:href="#i"/>
<use x="413.292969" xlink:href="#k"/>
</g>
</g>
<path d="m513.14 966.58v35.285q0 2.4 2.4 2.4h7.7425q2.4 0 2.4-2.4v-35.285q0-2.4-2.4-2.4h-7.7425q-2.4 0-2.4 2.4z" clip-path="url(#a)" fill="#fff" stroke="#fff"/>
<g clip-path="url(#a)">
<g transform="translate(517.2 966.58) rotate(90) scale(.08 -.08)">
<use xlink:href="#l"/>
<use x="60.818359" xlink:href="#c"/>
<use x="122.341797" xlink:href="#g"/>
<use x="163.439453" xlink:href="#j"/>
<use x="260.851562" xlink:href="#h"/>
<use x="288.634766" xlink:href="#e"/>
<use x="352.013672" xlink:href="#i"/>
<use x="413.292969" xlink:href="#k"/>
</g>
</g>
<path d="m560.35 966.58v35.285q0 2.4 2.4 2.4h7.7425q2.4 0 2.4-2.4v-35.285q0-2.4-2.4-2.4h-7.7425q-2.4 0-2.4 2.4z" clip-path="url(#a)" fill="#fff" stroke="#fff"/>
<g clip-path="url(#a)">
<g transform="translate(564.41 966.58) rotate(90) scale(.08 -.08)">
<use xlink:href="#l"/>
<use x="60.818359" xlink:href="#c"/>
<use x="122.341797" xlink:href="#g"/>
<use x="163.439453" xlink:href="#j"/>
<use x="260.851562" xlink:href="#h"/>
<use x="288.634766" xlink:href="#e"/>
<use x="352.013672" xlink:href="#i"/>
<use x="413.292969" xlink:href="#k"/>
</g>
</g>
<path d="m749.17 966.58v35.285q0 2.4 2.4 2.4h7.7425q2.4 0 2.4-2.4v-35.285q0-2.4-2.4-2.4h-7.7425q-2.4 0-2.4 2.4z" clip-path="url(#a)" fill="#fff" stroke="#fff"/>
<g clip-path="url(#a)">
<g transform="translate(753.23 966.58) rotate(90) scale(.08 -.08)">
<use xlink:href="#l"/>
<use x="60.818359" xlink:href="#c"/>
<use x="122.341797" xlink:href="#g"/>
<use x="163.439453" xlink:href="#j"/>
<use x="260.851562" xlink:href="#h"/>
<use x="288.634766" xlink:href="#e"/>
<use x="352.013672" xlink:href="#i"/>
<use x="413.292969" xlink:href="#k"/>
</g>
</g>
<path d="m1174 966.58v35.285q0 2.4 2.4 2.4h7.7425q2.4 0 2.4-2.4v-35.285q0-2.4-2.4-2.4h-7.7425q-2.4 0-2.4 2.4z" clip-path="url(#a)" fill="#fff" stroke="#fff"/>
<g clip-path="url(#a)">
<g transform="translate(1178.1 966.58) rotate(90) scale(.08 -.08)">
<use xlink:href="#l"/>
<use x="60.818359" xlink:href="#c"/>
<use x="122.341797" xlink:href="#g"/>
<use x="163.439453" xlink:href="#j"/>
<use x="260.851562" xlink:href="#h"/>
<use x="288.634766" xlink:href="#e"/>
<use x="352.013672" xlink:href="#i"/>
<use x="413.292969" xlink:href="#k"/>
</g>
</g>
<path d="m1929.3 966.58v35.285q0 2.4 2.4 2.4h7.7425q2.4 0 2.4-2.4v-35.285q0-2.4-2.4-2.4h-7.7425q-2.4 0-2.4 2.4z" clip-path="url(#a)" fill="#fff" stroke="#fff"/>
<g clip-path="url(#a)">
<g transform="translate(1933.4 966.58) rotate(90) scale(.08 -.08)">
<use xlink:href="#l"/>
<use x="60.818359" xlink:href="#c"/>
<use x="122.341797" xlink:href="#g"/>
<use x="163.439453" xlink:href="#j"/>
<use x="260.851562" xlink:href="#h"/>
<use x="288.634766" xlink:href="#e"/>
<use x="352.013672" xlink:href="#i"/>
<use x="413.292969" xlink:href="#k"/>
</g>
</g>
<path d="m1976.5 966.58v35.285q0 2.4 2.4 2.4h7.7425q2.4 0 2.4-2.4v-35.285q0-2.4-2.4-2.4h-7.7425q-2.4 0-2.4 2.4z" clip-path="url(#a)" fill="#fff" stroke="#fff"/>
<g clip-path="url(#a)">
<g transform="translate(1980.6 966.58) rotate(90) scale(.08 -.08)">
<use xlink:href="#l"/>
<use x="60.818359" xlink:href="#c"/>
<use x="122.341797" xlink:href="#g"/>
<use x="163.439453" xlink:href="#j"/>
<use x="260.851562" xlink:href="#h"/>
<use x="288.634766" xlink:href="#e"/>
<use x="352.013672" xlink:href="#i"/>
<use x="413.292969" xlink:href="#k"/>
</g>
</g>
<defs>
<path id="b" d="m0 8.6603c2.2967 0 4.4997-0.9125 6.1237-2.5365 1.624-1.624 2.5365-3.827 2.5365-6.1237s-0.9125-4.4997-2.5365-6.1237c-1.624-1.624-3.827-2.5365-6.1237-2.5365s-4.4997 0.9125-6.1237 2.5365c-1.624 1.624-2.5365 3.827-2.5365 6.1237s0.9125 4.4997 2.5365 6.1237c1.624 1.624 3.827 2.5365 6.1237 2.5365z"/>
</defs>
<g clip-path="url(#a)">
<use x="94.565934" y="1042.96633" fill="#ffffff" stroke="#ffffff" xlink:href="#b"/>
</g>
<g clip-path="url(#a)">
<use x="141.770971" y="1042.96633" fill="#ffffff" stroke="#ffffff" xlink:href="#b"/>
</g>
<g clip-path="url(#a)">
<use x="188.976008" y="1042.96633" fill="#ffffff" stroke="#ffffff" xlink:href="#b"/>
</g>
<g clip-path="url(#a)">
<use x="236.181044" y="1042.96633" fill="#ffffff" stroke="#ffffff" xlink:href="#b"/>
</g>
<g clip-path="url(#a)">
<use x="283.386081" y="1042.96633" fill="#ffffff" stroke="#ffffff" xlink:href="#b"/>
</g>
<g clip-path="url(#a)">
<use x="330.591117" y="1042.96633" fill="#ffffff" stroke="#ffffff" xlink:href="#b"/>
</g>
<g clip-path="url(#a)">
<use x="377.796154" y="1042.96633" fill="#ffffff" stroke="#ffffff" xlink:href="#b"/>
</g>
<g clip-path="url(#a)">
<use x="425.001191" y="1042.96633" fill="#ffffff" stroke="#ffffff" xlink:href="#b"/>
</g>
<g clip-path="url(#a)">
<use x="472.206227" y="1042.96633" fill="#ffffff" stroke="#ffffff" xlink:href="#b"/>
</g>
<g clip-path="url(#a)">
<use x="519.411264" y="1042.96633" fill="#ffffff" stroke="#ffffff" xlink:href="#b"/>
</g>
<g clip-path="url(#a)">
<use x="566.616301" y="1042.96633" fill="#ffffff" stroke="#ffffff" xlink:href="#b"/>
</g>
<g clip-path="url(#a)">
<use x="613.821337" y="1042.96633" fill="#ffffff" stroke="#ffffff" xlink:href="#b"/>
</g>
<g clip-path="url(#a)">
<use x="661.026374" y="1042.96633" fill="#ffffff" stroke="#ffffff" xlink:href="#b"/>
</g>
<g clip-path="url(#a)">
<use x="708.23141" y="1042.96633" fill="#ffffff" stroke="#ffffff" xlink:href="#b"/>
</g>
<g clip-path="url(#a)">
<use x="755.436447" y="1042.96633" fill="#ffffff" stroke="#ffffff" xlink:href="#b"/>
</g>
<g clip-path="url(#a)">
<use x="802.641484" y="1042.96633" fill="#ffffff" stroke="#ffffff" xlink:href="#b"/>
</g>
<g clip-path="url(#a)">
<use x="849.84652" y="1042.96633" fill="#ffffff" stroke="#ffffff" xlink:href="#b"/>
</g>
<g clip-path="url(#a)">
<use x="897.051557" y="1042.96633" fill="#ffffff" stroke="#ffffff" xlink:href="#b"/>
</g>
<g clip-path="url(#a)">
<use x="944.256593" y="1042.96633" fill="#ffffff" stroke="#ffffff" xlink:href="#b"/>
</g>
<g clip-path="url(#a)">
<use x="991.46163" y="1042.96633" fill="#ffffff" stroke="#ffffff" xlink:href="#b"/>
</g>
<g clip-path="url(#a)">
<use x="1038.666667" y="1042.96633" fill="#ffffff" stroke="#ffffff" xlink:href="#b"/>
</g>
<g clip-path="url(#a)">
<use x="1085.871703" y="1042.96633" fill="#ffffff" stroke="#ffffff" xlink:href="#b"/>
</g>
<g clip-path="url(#a)">
<use x="1133.07674" y="1042.96633" fill="#ffffff" stroke="#ffffff" xlink:href="#b"/>
</g>
<g clip-path="url(#a)">
<use x="1180.281777" y="1042.96633" fill="#ffffff" stroke="#ffffff" xlink:href="#b"/>
</g>
<g clip-path="url(#a)">
<use x="1227.486813" y="1042.96633" fill="#ffffff" stroke="#ffffff" xlink:href="#b"/>
</g>
<g clip-path="url(#a)">
<use x="1274.69185" y="1042.96633" fill="#ffffff" stroke="#ffffff" xlink:href="#b"/>
</g>
<g clip-path="url(#a)">
<use x="1321.896886" y="1042.96633" fill="#ffffff" stroke="#ffffff" xlink:href="#b"/>
</g>
<g clip-path="url(#a)">
<use x="1369.101923" y="1042.96633" fill="#ffffff" stroke="#ffffff" xlink:href="#b"/>
</g>
<g clip-path="url(#a)">
<use x="1416.30696" y="1042.96633" fill="#ffffff" stroke="#ffffff" xlink:href="#b"/>
</g>
<g clip-path="url(#a)">
<use x="1463.511996" y="1042.96633" fill="#ffffff" stroke="#ffffff" xlink:href="#b"/>
</g>
<g clip-path="url(#a)">
<use x="1510.717033" y="1042.96633" fill="#ffffff" stroke="#ffffff" xlink:href="#b"/>
</g>
<g clip-path="url(#a)">
<use x="1557.922069" y="1042.96633" fill="#ffffff" stroke="#ffffff" xlink:href="#b"/>
</g>
<g clip-path="url(#a)">
<use x="1605.127106" y="1042.96633" fill="#ffffff" stroke="#ffffff" xlink:href="#b"/>
</g>
<g clip-path="url(#a)">
<use x="1652.332143" y="1042.96633" fill="#ffffff" stroke="#ffffff" xlink:href="#b"/>
</g>
<g clip-path="url(#a)">
<use x="1699.537179" y="1042.96633" fill="#ffffff" stroke="#ffffff" xlink:href="#b"/>
</g>
<g clip-path="url(#a)">
<use x="1746.742216" y="1042.96633" fill="#ffffff" stroke="#ffffff" xlink:href="#b"/>
</g>
<g clip-path="url(#a)">
<use x="1793.947252" y="1042.96633" fill="#ffffff" stroke="#ffffff" xlink:href="#b"/>
</g>
<g clip-path="url(#a)">
<use x="1841.152289" y="1042.96633" fill="#ffffff" stroke="#ffffff" xlink:href="#b"/>
</g>
<g clip-path="url(#a)">
<use x="1888.357326" y="1042.96633" fill="#ffffff" stroke="#ffffff" xlink:href="#b"/>
</g>
<g clip-path="url(#a)">
<use x="1935.562362" y="1042.96633" fill="#ffffff" stroke="#ffffff" xlink:href="#b"/>
</g>
<g clip-path="url(#a)">
<use x="1982.767399" y="1042.96633" fill="#ffffff" stroke="#ffffff" xlink:href="#b"/>
</g>
<g clip-path="url(#a)">
<use x="454.016633" y="50.367003" fill="#ffffff" stroke="#ffffff" xlink:href="#b"/>
</g>
<g clip-path="url(#a)">
<use x="454.016633" y="185.079703" fill="#ffffff" stroke="#ffffff" xlink:href="#b"/>
</g>
<g clip-path="url(#a)">
<use x="869.547398" y="315.938271" fill="#ffffff" stroke="#ffffff" xlink:href="#b"/>
</g>
<g clip-path="url(#a)">
<use x="330.591117" y="925.480413" fill="#ffffff" stroke="#ffffff" xlink:href="#b"/>
</g>
<g clip-path="url(#a)">
<use x="377.796154" y="925.480413" fill="#ffffff" stroke="#ffffff" xlink:href="#b"/>
</g>
<g clip-path="url(#a)">
<use x="448.603709" y="807.994496" fill="#ffffff" stroke="#ffffff" xlink:href="#b"/>
</g>
<g clip-path="url(#a)">
<use x="425.001191" y="925.480413" fill="#ffffff" stroke="#ffffff" xlink:href="#b"/>
</g>
<g clip-path="url(#a)">
<use x="472.206227" y="925.480413" fill="#ffffff" stroke="#ffffff" xlink:href="#b"/>
</g>
<g clip-path="url(#a)">
<use x="537.113153" y="688.87422" fill="#ffffff" stroke="#ffffff" xlink:href="#b"/>
</g>
<g clip-path="url(#a)">
<use x="802.641484" y="925.480413" fill="#ffffff" stroke="#ffffff" xlink:href="#b"/>
</g>
<g clip-path="url(#a)">
<use x="972.579615" y="807.994496" fill="#ffffff" stroke="#ffffff" xlink:href="#b"/>
</g>
<g clip-path="url(#a)">
<use x="1744.213375" y="443.279721" fill="#ffffff" stroke="#ffffff" xlink:href="#b"/>
</g>
<g clip-path="url(#a)">
<use x="1315.996257" y="567.460193" fill="#ffffff" stroke="#ffffff" xlink:href="#b"/>
</g>
<g clip-path="url(#a)">
<use x="1557.922069" y="925.480413" fill="#ffffff" stroke="#ffffff" xlink:href="#b"/>
</g>
<g clip-path="url(#a)">
<use x="1687.73592" y="688.87422" fill="#ffffff" stroke="#ffffff" xlink:href="#b"/>
</g>
<g clip-path="url(#a)">
<use x="1841.152289" y="925.480413" fill="#ffffff" stroke="#ffffff" xlink:href="#b"/>
</g>
<g clip-path="url(#a)">
<use x="1888.357326" y="925.480413" fill="#ffffff" stroke="#ffffff" xlink:href="#b"/>
</g>
<g clip-path="url(#a)">
<use x="1628.729624" y="807.994496" fill="#ffffff" stroke="#ffffff" xlink:href="#b"/>
</g>
<g clip-path="url(#a)">
<use x="1746.742216" y="807.994496" fill="#ffffff" stroke="#ffffff" xlink:href="#b"/>
</g>
<g clip-path="url(#a)">
<use x="1699.537179" y="925.480413" fill="#ffffff" stroke="#ffffff" xlink:href="#b"/>
</g>
<g clip-path="url(#a)">
<use x="1746.742216" y="925.480413" fill="#ffffff" stroke="#ffffff" xlink:href="#b"/>
</g>
<g clip-path="url(#a)">
<use x="1793.947252" y="925.480413" fill="#ffffff" stroke="#ffffff" xlink:href="#b"/>
</g>
<g clip-path="url(#a)">
<use x="1605.127106" y="925.480413" fill="#ffffff" stroke="#ffffff" xlink:href="#b"/>
</g>
<g clip-path="url(#a)">
<use x="1652.332143" y="925.480413" fill="#ffffff" stroke="#ffffff" xlink:href="#b"/>
</g>
<g clip-path="url(#a)">
<use x="1227.486813" y="925.480413" fill="#ffffff" stroke="#ffffff" xlink:href="#b"/>
</g>
<g clip-path="url(#a)">
<use x="1274.69185" y="925.480413" fill="#ffffff" stroke="#ffffff" xlink:href="#b"/>
</g>
<g clip-path="url(#a)">
<use x="1321.896886" y="925.480413" fill="#ffffff" stroke="#ffffff" xlink:href="#b"/>
</g>
<g clip-path="url(#a)">
<use x="1439.909478" y="688.87422" fill="#ffffff" stroke="#ffffff" xlink:href="#b"/>
</g>
<g clip-path="url(#a)">
<use x="1392.704441" y="807.994496" fill="#ffffff" stroke="#ffffff" xlink:href="#b"/>
</g>
<g clip-path="url(#a)">
<use x="1487.114514" y="807.994496" fill="#ffffff" stroke="#ffffff" xlink:href="#b"/>
</g>
<g clip-path="url(#a)">
<use x="1463.511996" y="925.480413" fill="#ffffff" stroke="#ffffff" xlink:href="#b"/>
</g>
<g clip-path="url(#a)">
<use x="1510.717033" y="925.480413" fill="#ffffff" stroke="#ffffff" xlink:href="#b"/>
</g>
<g clip-path="url(#a)">
<use x="1369.101923" y="925.480413" fill="#ffffff" stroke="#ffffff" xlink:href="#b"/>
</g>
<g clip-path="url(#a)">
<use x="1416.30696" y="925.480413" fill="#ffffff" stroke="#ffffff" xlink:href="#b"/>
</g>
<g clip-path="url(#a)">
<use x="849.84652" y="925.480413" fill="#ffffff" stroke="#ffffff" xlink:href="#b"/>
</g>
<g clip-path="url(#a)">
<use x="897.051557" y="925.480413" fill="#ffffff" stroke="#ffffff" xlink:href="#b"/>
</g>
<g clip-path="url(#a)">
<use x="1038.666667" y="925.480413" fill="#ffffff" stroke="#ffffff" xlink:href="#b"/>
</g>
<g clip-path="url(#a)">
<use x="991.46163" y="925.480413" fill="#ffffff" stroke="#ffffff" xlink:href="#b"/>
</g>
<g clip-path="url(#a)">
<use x="1085.871703" y="925.480413" fill="#ffffff" stroke="#ffffff" xlink:href="#b"/>
</g>
<g clip-path="url(#a)">
<use x="165.373489" y="807.994496" fill="#ffffff" stroke="#ffffff" xlink:href="#b"/>
</g>
<g clip-path="url(#a)">
<use x="613.821337" y="925.480413" fill="#ffffff" stroke="#ffffff" xlink:href="#b"/>
</g>
<g clip-path="url(#a)">
<use x="661.026374" y="925.480413" fill="#ffffff" stroke="#ffffff" xlink:href="#b"/>
</g>
<g clip-path="url(#a)">
<use x="708.23141" y="925.480413" fill="#ffffff" stroke="#ffffff" xlink:href="#b"/>
</g>
<g clip-path="url(#a)">
<use x="141.770971" y="925.480413" fill="#ffffff" stroke="#ffffff" xlink:href="#b"/>
</g>
<g clip-path="url(#a)">
<use x="188.976008" y="925.480413" fill="#ffffff" stroke="#ffffff" xlink:href="#b"/>
</g>
<g clip-path="url(#a)">
<use x="94.565934" y="925.480413" fill="#ffffff" stroke="#ffffff" xlink:href="#b"/>
</g>
<g clip-path="url(#a)">
<use x="236.181044" y="925.480413" fill="#ffffff" stroke="#ffffff" xlink:href="#b"/>
</g>
<g clip-path="url(#a)">
<use x="283.386081" y="925.480413" fill="#ffffff" stroke="#ffffff" xlink:href="#b"/>
</g>
<g clip-path="url(#a)">
<use x="519.411264" y="925.480413" fill="#ffffff" stroke="#ffffff" xlink:href="#b"/>
</g>
<g clip-path="url(#a)">
<use x="566.616301" y="925.480413" fill="#ffffff" stroke="#ffffff" xlink:href="#b"/>
</g>
<g clip-path="url(#a)">
<use x="755.436447" y="925.480413" fill="#ffffff" stroke="#ffffff" xlink:href="#b"/>
</g>
<g clip-path="url(#a)">
<use x="1180.281777" y="925.480413" fill="#ffffff" stroke="#ffffff" xlink:href="#b"/>
</g>
<g clip-path="url(#a)">
<use x="1935.562362" y="925.480413" fill="#ffffff" stroke="#ffffff" xlink:href="#b"/>
</g>
<g clip-path="url(#a)">
<use x="1982.767399" y="925.480413" fill="#ffffff" stroke="#ffffff" xlink:href="#b"/>
</g>
<g clip-path="url(#a)">
<defs>
<path id="ar" d="m9.4219 51.703 22.906-20.406v-4l-22.906-20.406v9.3281l14.703 13.078-14.703 13.094zm21.188 0 22.906-20.406v-4l-22.906-20.406v9.3281l14.703 13.078-14.703 13.094z"/>
</defs>
<g transform="translate(91.507 1045.7) scale(.1 -.1)">
<use xlink:href="#ar"/>
</g>
</g>
<g clip-path="url(#a)">
<defs>
<path id="ab" d="m8.5 21.578v33.109h8.9844v-32.766q0-7.7656 3.0156-11.656 3.0312-3.875 9.0938-3.875 7.2656 0 11.484 4.6406 4.2344 4.6406 4.2344 12.656v31h8.9844v-54.688h-8.9844v8.4062q-3.2656-4.9844-7.5938-7.4062-4.3125-2.4219-10.031-2.4219-9.4219 0-14.312 5.8594-4.875 5.8594-4.875 17.141z"/>
<path id="v" d="m45.406 46.391v29.594h8.9844v-75.984h-8.9844v8.2031q-2.8281-4.875-7.1562-7.25-4.3125-2.375-10.375-2.375-9.9062 0-16.141 7.9062-6.2188 7.9219-6.2188 20.812t6.2188 20.797q6.2344 7.9062 16.141 7.9062 6.0625 0 10.375-2.375 4.3281-2.3594 7.1562-7.2344zm-30.609-19.094q0-9.9062 4.0781-15.547t11.203-5.6406 11.219 5.6406q4.1094 5.6406 4.1094 15.547t-4.1094 15.547q-4.0938 5.6406-11.219 5.6406t-11.203-5.6406-4.0781-15.547z"/>
</defs>
<g transform="translate(124.26 1045.7) scale(.1 -.1)">
<use xlink:href="#ak"/>
<use x="57.410156" xlink:href="#g"/>
<use x="98.492188" xlink:href="#c"/>
<use x="160.015625" xlink:href="#ab"/>
<use x="223.394531" xlink:href="#e"/>
<use x="286.773438" xlink:href="#v"/>
</g>
</g>
<g clip-path="url(#a)">
<defs>
<path id="aj" d="m9.8125 72.906h13.281l32.328-60.984v60.984h9.5625v-72.906h-13.281l-32.312 60.984v-60.984h-9.5781z"/>
</defs>
<g transform="translate(178.98 1045.7) scale(.1 -.1)">
<use xlink:href="#aj"/>
<use x="74.804688" xlink:href="#c"/>
<use x="136.328125" xlink:href="#v"/>
</g>
</g>
<g clip-path="url(#a)">
<defs>
<path id="as" d="m51.812 51.703v-9.3125l-14.703-13.094 14.703-13.078v-9.3281l-22.906 20.406v4zm-21.203 0v-9.3125l-14.688-13.094 14.688-13.078v-9.3281l-22.891 20.406v4z"/>
</defs>
<g transform="translate(233.12 1045.7) scale(.1 -.1)">
<use xlink:href="#as"/>
</g>
</g>
<g clip-path="url(#a)">
<defs>
<path id="am" d="m11.719 12.406h10.297v-8.4062l-8-15.625h-6.2969l4 15.625z"/>
</defs>
<g transform="translate(281.8 1045.7) scale(.1 -.1)">
<use xlink:href="#am"/>
</g>
</g>
<g clip-path="url(#a)">
<defs>
<path id="ac" d="m44.281 53.078v-8.5q-3.7969 1.9531-7.9062 2.9219-4.0938 0.98438-8.5 0.98438-6.6875 0-10.031-2.0469t-3.3438-6.1562q0-3.125 2.3906-4.9062t9.625-3.3906l3.0781-0.6875q9.5625-2.0469 13.594-5.7812t4.0312-10.422q0-7.625-6.0312-12.078-6.0312-4.4375-16.578-4.4375-4.3906 0-9.1562 0.85938t-10.031 2.5625v9.2812q4.9844-2.5938 9.8125-3.8906 4.8281-1.2812 9.5781-1.2812 6.3438 0 9.75 2.1719 3.4219 2.1719 3.4219 6.125 0 3.6562-2.4688 5.6094-2.4531 1.9531-10.812 3.7656l-3.125 0.73438q-8.3438 1.75-12.062 5.3906-3.7031 3.6406-3.7031 9.9844 0 7.7188 5.4688 11.906 5.4688 4.2031 15.531 4.2031 4.9688 0 9.3594-0.73438 4.4062-0.71875 8.1094-2.1875z"/>
<path id="av" d="m45.406 27.984q0 9.7656-4.0312 15.125-4.0156 5.375-11.297 5.375-7.2188 0-11.25-5.375-4.0312-5.3594-4.0312-15.125 0-9.7188 4.0312-15.094t11.25-5.375q7.2812 0 11.297 5.375 4.0312 5.375 4.0312 15.094zm8.9844-21.203q0-13.953-6.2031-20.766-6.1875-6.8125-18.984-6.8125-4.7344 0-8.9375 0.70312t-8.1562 2.1719v8.7344q3.9531-2.1406 7.8125-3.1562 3.8594-1.0312 7.8594-1.0312 8.8438 0 13.234 4.6094t4.3906 13.938v4.4531q-2.7812-4.8438-7.125-7.2344t-10.406-2.3906q-10.047 0-16.203 7.6562-6.1562 7.6719-6.1562 20.328 0 12.688 6.1562 20.344 6.1562 7.6719 16.203 7.6719 6.0625 0 10.406-2.3906t7.125-7.2188v8.2969h8.9844z"/>
<path id="u" d="m18.312 70.219v-15.531h18.5v-6.9844h-18.5v-29.688q0-6.6875 1.8281-8.5938t7.4531-1.9062h9.2188v-7.5156h-9.2188q-10.406 0-14.359 3.875-3.9531 3.8906-3.9531 14.141v29.688h-6.5938v6.9844h6.5938v15.531z"/>
</defs>
<g transform="translate(316.71 1045.7) scale(.1 -.1)">
<use xlink:href="#ac"/>
<use x="52.099609" xlink:href="#i"/>
<use x="113.378906" xlink:href="#av"/>
<use x="176.855469" xlink:href="#u"/>
<use x="216.064453" xlink:href="#c"/>
</g>
</g>
<g clip-path="url(#a)">
<defs>
<path id="ae" d="m48.781 52.594v-8.4062q-3.8125 2.1094-7.6406 3.1562t-7.7344 1.0469q-8.75 0-13.594-5.5469-4.8281-5.5312-4.8281-15.547t4.8281-15.562q4.8438-5.5312 13.594-5.5312 3.9062 0 7.7344 1.0469t7.6406 3.1562v-8.3125q-3.7656-1.75-7.7969-2.625-4.0156-0.89062-8.5625-0.89062-12.359 0-19.641 7.7656-7.2656 7.7656-7.2656 20.953 0 13.375 7.3438 21.031 7.3594 7.6719 20.156 7.6719 4.1406 0 8.0938-0.85938 3.9531-0.84375 7.6719-2.5469z"/>
<path id="t" d="m54.891 33.016v-33.016h-8.9844v32.719q0 7.7656-3.0312 11.609-3.0312 3.8594-9.0781 3.8594-7.2812 0-11.484-4.6406-4.2031-4.625-4.2031-12.641v-30.906h-9.0312v75.984h9.0312v-29.797q3.2344 4.9375 7.5938 7.375 4.375 2.4375 10.094 2.4375 9.4219 0 14.25-5.8281 4.8438-5.8281 4.8438-17.156z"/>
</defs>
<g transform="translate(370.49 1045.7) scale(.1 -.1)">
<use xlink:href="#h"/>
<use x="27.783203" xlink:href="#ae"/>
<use x="82.763672" xlink:href="#t"/>
</g>
</g>
<g clip-path="url(#a)">
<defs>
<path id="at" d="m5.5156 54.688h42.672v-8.2031l-33.781-39.312h33.781v-7.1719h-43.891v8.2031l33.797 39.312h-32.578z"/>
</defs>
<g transform="translate(419.21 1045.7) scale(.1 -.1)">
<use xlink:href="#at"/>
<use x="52.490234" xlink:href="#ab"/>
</g>
</g>
<g clip-path="url(#a)">
<g transform="translate(462.78 1045.7) scale(.1 -.1)">
<use xlink:href="#h"/>
<use x="27.783203" xlink:href="#t"/>
<use x="91.162109" xlink:href="#j"/>
</g>
</g>
<g clip-path="url(#a)">
<g transform="translate(517.82 1045.7) scale(.1 -.1)">
<use xlink:href="#am"/>
</g>
</g>
<g clip-path="url(#a)">
<g transform="translate(563.56 1045.7) scale(.1 -.1)">
<use xlink:href="#ar"/>
</g>
</g>
<g clip-path="url(#a)">
<g transform="translate(606.51 1045.7) scale(.1 -.1)">
<use xlink:href="#h"/>
<use x="27.783203" xlink:href="#ae"/>
<use x="82.763672" xlink:href="#t"/>
</g>
</g>
<g clip-path="url(#a)">
<defs>
<path id="bc" d="m2.9844 54.688h9.5156l17.094-45.891 17.094 45.891h9.5156l-20.516-54.688h-12.203z"/>
</defs>
<g transform="translate(639.05 1045.7) scale(.1 -.1)">
<use xlink:href="#bc"/>
<use x="59.179688" xlink:href="#c"/>
<use x="120.703125" xlink:href="#g"/>
<use x="161.816406" xlink:href="#ac"/>
<use x="213.916016" xlink:href="#u"/>
<use x="253.125" xlink:href="#c"/>
<use x="314.648438" xlink:href="#t"/>
<use x="378.027344" xlink:href="#c"/>
</g>
</g>
<g clip-path="url(#a)">
<g transform="translate(700.59 1045.7) scale(.1 -.1)">
<use xlink:href="#af"/>
<use x="63.476562" xlink:href="#h"/>
<use x="91.259766" xlink:href="#c"/>
</g>
</g>
<g clip-path="url(#a)">
<g transform="translate(753.85 1045.7) scale(.1 -.1)">
<use xlink:href="#am"/>
</g>
</g>
<g clip-path="url(#a)">
<defs>
<path id="ao" d="m48.688 27.297q0 9.9062-4.0781 15.547t-11.203 5.6406q-7.1406 0-11.219-5.6406t-4.0781-15.547 4.0781-15.547 11.219-5.6406q7.125 0 11.203 5.6406t4.0781 15.547zm-30.578 19.094q2.8438 4.875 7.1562 7.2344 4.3281 2.375 10.328 2.375 9.9688 0 16.188-7.9062 6.2344-7.9062 6.2344-20.797t-6.2344-20.812q-6.2188-7.9062-16.188-7.9062-6 0-10.328 2.375-4.3125 2.375-7.1562 7.25v-8.2031h-9.0312v75.984h9.0312z"/>
</defs>
<g transform="translate(791.27 1045.7) scale(.1 -.1)">
<use xlink:href="#i"/>
<use x="61.279297" xlink:href="#ao"/>
<use x="124.755859" xlink:href="#c"/>
<use x="186.279297" xlink:href="#g"/>
</g>
</g>
<g clip-path="url(#a)">
<g transform="translate(842.21 1045.7) scale(.1 -.1)">
<use xlink:href="#af"/>
<use x="63.476562" xlink:href="#h"/>
<use x="91.259766" xlink:href="#c"/>
</g>
</g>
<g clip-path="url(#a)">
<g transform="translate(881.4 1045.7) scale(.1 -.1)">
<use xlink:href="#t"/>
<use x="63.378906" xlink:href="#i"/>
<use x="124.658203" xlink:href="#ao"/>
<use x="188.134766" xlink:href="#c"/>
<use x="249.658203" xlink:href="#e"/>
</g>
</g>
<g clip-path="url(#a)">
<g transform="translate(934.34 1045.7) scale(.1 -.1)">
<use xlink:href="#ac"/>
<use x="52.099609" xlink:href="#h"/>
<use x="79.882812" xlink:href="#ae"/>
<use x="134.863281" xlink:href="#t"/>
</g>
</g>
<g clip-path="url(#a)">
<defs>
<path id="au" d="m9.0781 75.984h9.0312v-44.875l26.812 23.578h11.469l-29-25.578 30.234-29.109h-11.719l-27.797 26.703v-26.703h-9.0312z"/>
</defs>
<g transform="translate(974.69 1045.7) scale(.1 -.1)">
<use xlink:href="#au"/>
<use x="57.863281" xlink:href="#c"/>
<use x="119.386719" xlink:href="#h"/>
<use x="147.169922" xlink:href="#e"/>
<use x="210.548828" xlink:href="#c"/>
<use x="272.072266" xlink:href="#e"/>
</g>
</g>
<g clip-path="url(#a)">
<defs>
<path id="ax" d="m28.609 0-27.828 72.906h10.297l23.109-61.375 23.141 61.375h10.25l-27.781-72.906z"/>
<path id="bd" d="m30.609 48.391q-7.2188 0-11.422-5.6406t-4.2031-15.453 4.1719-15.453q4.1875-5.6406 11.453-5.6406 7.1875 0 11.375 5.6562 4.2031 5.6719 4.2031 15.438 0 9.7188-4.2031 15.406-4.1875 5.6875-11.375 5.6875zm0 7.6094q11.719 0 18.406-7.625 6.7031-7.6094 6.7031-21.078 0-13.422-6.7031-21.078-6.6875-7.6406-18.406-7.6406-11.766 0-18.438 7.6406-6.6562 7.6562-6.6562 21.078 0 13.469 6.6562 21.078 6.6719 7.625 18.438 7.625z"/>
<path id="an" d="m4.2031 54.688h8.9844l11.234-42.672 11.172 42.672h10.594l11.234-42.672 11.188 42.672h8.9844l-14.312-54.688h-10.594l-11.766 44.828-11.812-44.828h-10.609z"/>
<path id="aw" d="m37.109 75.984v-7.4844h-8.5938q-4.8281 0-6.7188-1.9531-1.875-1.9531-1.875-7.0312v-4.8281h14.797v-6.9844h-14.797v-47.703h-9.0312v47.703h-8.5938v6.9844h8.5938v3.8125q0 9.125 4.25 13.297 4.25 4.1875 13.469 4.1875z"/>
</defs>
<g transform="translate(1019.1 1045.7) scale(.1 -.1)">
<use xlink:href="#ax"/>
<use x="68.298828" xlink:href="#bd"/>
<use x="129.480469" xlink:href="#g"/>
<use x="170.59375" xlink:href="#an"/>
<use x="252.380859" xlink:href="#ab"/>
<use x="315.759766" xlink:href="#g"/>
<use x="356.873047" xlink:href="#aw"/>
</g>
</g>
<g clip-path="url(#a)">
<g transform="translate(1080.1 1045.7) scale(.1 -.1)">
<use xlink:href="#at"/>
<use x="52.490234" xlink:href="#ab"/>
</g>
</g>
<g clip-path="url(#a)">
<g transform="translate(1113 1045.7) scale(.1 -.1)">
<use xlink:href="#j"/>
<use x="97.412109" xlink:href="#i"/>
<use x="158.691406" xlink:href="#ae"/>
<use x="213.671875" xlink:href="#t"/>
<use x="277.050781" xlink:href="#c"/>
<use x="338.574219" xlink:href="#e"/>
</g>
</g>
<g clip-path="url(#a)">
<defs>
<path id="f" d="m10.688 12.406h10.312v-12.406h-10.312z"/>
</defs>
<g transform="translate(1178.7 1045.7) scale(.1 -.1)">
<use xlink:href="#f"/>
</g>
</g>
<g clip-path="url(#a)">
<g transform="translate(1213.6 1045.7) scale(.1 -.1)">
<use xlink:href="#q"/>
<use x="73.193359" xlink:href="#e"/>
<use x="136.572266" xlink:href="#u"/>
<use x="175.78125" xlink:href="#c"/>
<use x="237.304688" xlink:href="#g"/>
</g>
</g>
<g clip-path="url(#a)">
<g transform="translate(1265.3 1045.7) scale(.1 -.1)">
<use xlink:href="#v"/>
<use x="63.476562" xlink:href="#c"/>
<use x="125" xlink:href="#e"/>
</g>
</g>
<g clip-path="url(#a)">
<defs>
<path id="aq" d="m34.281 27.484q-10.891 0-15.094-2.4844t-4.2031-8.5q0-4.7812 3.1562-7.5938 3.1562-2.7969 8.5625-2.7969 7.4844 0 12 5.2969t4.5156 14.078v2zm17.922 3.7188v-31.203h-8.9844v8.2969q-3.0781-4.9688-7.6719-7.3438t-11.234-2.375q-8.3906 0-13.359 4.7188-4.9531 4.7188-4.9531 12.625 0 9.2188 6.1719 13.906 6.1875 4.6875 18.438 4.6875h12.609v0.89062q0 6.2031-4.0781 9.5938t-11.453 3.3906q-4.6875 0-9.1406-1.125-4.4375-1.125-8.5312-3.375v8.3125q4.9219 1.9062 9.5625 2.8438 4.6406 0.95312 9.0312 0.95312 11.875 0 17.734-6.1562 5.8594-6.1406 5.8594-18.641zm-18.609 44.578h9.9062v-9.8594h-9.9062zm-19.094 0h9.9062v-9.8594h-9.9062z"/>
</defs>
<g transform="translate(1293.2 1045.7) scale(.1 -.1)">
<use xlink:href="#q"/>
<use x="73.193359" xlink:href="#j"/>
<use x="170.605469" xlink:href="#ac"/>
<use x="222.705078" xlink:href="#u"/>
<use x="261.914062" xlink:href="#aq"/>
<use x="323.193359" xlink:href="#e"/>
<use x="386.572266" xlink:href="#v"/>
<use x="450.048828" xlink:href="#c"/>
<use x="511.572266" xlink:href="#e"/>
</g>
</g>
<g clip-path="url(#a)">
<g transform="translate(1360.8 1045.7) scale(.1 -.1)">
<use xlink:href="#v"/>
<use x="63.476562" xlink:href="#c"/>
<use x="125" xlink:href="#g"/>
</g>
</g>
<g clip-path="url(#a)">
<g transform="translate(1403.2 1045.7) scale(.1 -.1)">
<use xlink:href="#ak"/>
<use x="57.378906" xlink:href="#i"/>
<use x="118.658203" xlink:href="#t"/>
<use x="182.037109" xlink:href="#g"/>
<use x="223.150391" xlink:href="#u"/>
</g>
</g>
<g clip-path="url(#a)">
<g transform="translate(1455.2 1045.7) scale(.1 -.1)">
<use xlink:href="#v"/>
<use x="63.476562" xlink:href="#c"/>
<use x="125" xlink:href="#g"/>
</g>
</g>
<g clip-path="url(#a)">
<defs>
<path id="ay" d="m9.4219 51.703 22.906-20.406v-4l-22.906-20.406v9.3281l14.703 13.078-14.703 13.094z"/>
<path id="az" d="m30.609 51.703v-9.3125l-14.688-13.094 14.688-13.078v-9.3281l-22.891 20.406v4z"/>
</defs>
<g transform="translate(1486.2 1045.7) scale(.1 -.1)">
<use xlink:href="#ay"/>
<use x="39.990234" xlink:href="#aj"/>
<use x="114.794922" xlink:href="#i"/>
<use x="176.074219" xlink:href="#ab"/>
<use x="239.453125" xlink:href="#u"/>
<use x="278.662109" xlink:href="#h"/>
<use x="306.445312" xlink:href="#k"/>
<use x="334.228516" xlink:href="#ab"/>
<use x="397.607422" xlink:href="#ac"/>
<use x="449.707031" xlink:href="#az"/>
</g>
</g>
<g clip-path="url(#a)">
<g transform="translate(1545.6 1045.7) scale(.1 -.1)">
<use xlink:href="#an"/>
<use x="81.787109" xlink:href="#aq"/>
<use x="143.066406" xlink:href="#g"/>
<use x="184.148438" xlink:href="#c"/>
</g>
</g>
<g clip-path="url(#a)">
<g transform="translate(1596.8 1045.7) scale(.1 -.1)">
<use xlink:href="#v"/>
<use x="63.476562" xlink:href="#c"/>
<use x="125" xlink:href="#g"/>
</g>
</g>
<g clip-path="url(#a)">
<g transform="translate(1630 1045.7) scale(.1 -.1)">
<use xlink:href="#ap"/>
<use x="77.490234" xlink:href="#c"/>
<use x="139.013672" xlink:href="#v"/>
<use x="202.490234" xlink:href="#i"/>
<use x="263.769531" xlink:href="#e"/>
<use x="327.148438" xlink:href="#au"/>
<use x="385.011719" xlink:href="#c"/>
</g>
</g>
<g clip-path="url(#a)">
<g transform="translate(1693.3 1045.7) scale(.1 -.1)">
<use xlink:href="#i"/>
<use x="61.279297" xlink:href="#e"/>
</g>
</g>
<g clip-path="url(#a)">
<g transform="translate(1739.1 1045.7) scale(.1 -.1)">
<use xlink:href="#c"/>
<use x="61.523438" xlink:href="#h"/>
<use x="89.306641" xlink:href="#e"/>
</g>
</g>
<g clip-path="url(#a)">
<g transform="translate(1768.6 1045.7) scale(.1 -.1)">
<use xlink:href="#x"/>
<use x="63.183594" xlink:href="#e"/>
<use x="126.5625" xlink:href="#u"/>
<use x="165.771484" xlink:href="#aw"/>
<use x="200.976562" xlink:href="#k"/>
<use x="228.759766" xlink:href="#h"/>
<use x="256.542969" xlink:href="#c"/>
<use x="318.066406" xlink:href="#t"/>
<use x="381.445312" xlink:href="#c"/>
<use x="442.96875" xlink:href="#e"/>
</g>
</g>
<g clip-path="url(#a)">
<g transform="translate(1820.6 1045.7) scale(.1 -.1)">
<use xlink:href="#aj"/>
<use x="74.804688" xlink:href="#i"/>
<use x="136.083984" xlink:href="#g"/>
<use x="177.181641" xlink:href="#g"/>
<use x="218.279297" xlink:href="#t"/>
<use x="281.658203" xlink:href="#c"/>
<use x="343.181641" xlink:href="#h"/>
<use x="370.964844" xlink:href="#u"/>
</g>
</g>
<g clip-path="url(#a)">
<g transform="translate(1866.1 1045.7) scale(.1 -.1)">
<use xlink:href="#av"/>
<use x="63.476562" xlink:href="#c"/>
<use x="125" xlink:href="#an"/>
<use x="206.787109" xlink:href="#c"/>
<use x="268.310547" xlink:href="#ac"/>
<use x="320.410156" xlink:href="#c"/>
<use x="381.933594" xlink:href="#e"/>
</g>
</g>
<g clip-path="url(#a)">
<defs>
<path id="bb" d="m15.094 12.406h9.9062v-12.406h-9.9062zm0 60.5h9.9062v-31.984l-0.96875-17.438h-7.9219l-1.0156 17.438z"/>
</defs>
<g transform="translate(1933.6 1045.7) scale(.1 -.1)">
<use xlink:href="#bb"/>
</g>
</g>
<g clip-path="url(#a)">
<g transform="translate(1979.7 1045.7) scale(.1 -.1)">
<use xlink:href="#as"/>
</g>
</g>
<g clip-path="url(#a)">
<defs>
<path id="d" d="m12.406 8.2969h16.109v55.625l-17.531-3.5156v8.9844l17.438 3.5156h9.8594v-64.609h16.109v-8.2969h-41.984z"/>
</defs>
<g transform="translate(446.07 53.126) scale(.1 -.1)">
<use xlink:href="#d"/>
<use x="63.623047" xlink:href="#f"/>
<use x="95.410156" xlink:href="#d"/>
</g>
</g>
<g clip-path="url(#a)">
<defs>
<path id="p" d="m19.188 8.2969h34.422v-8.2969h-46.281v8.2969q5.6094 5.8125 15.297 15.594 9.7031 9.7969 12.188 12.641 4.7344 5.3125 6.6094 9 1.8906 3.6875 1.8906 7.25 0 5.8125-4.0781 9.4688-4.0781 3.6719-10.625 3.6719-4.6406 0-9.7969-1.6094-5.1406-1.6094-11-4.8906v9.9688q5.9531 2.3906 11.125 3.6094 5.1875 1.2188 9.4844 1.2188 11.328 0 18.062-5.6719 6.7344-5.6562 6.7344-15.125 0-4.5-1.6875-8.5312-1.6719-4.0156-6.125-9.4844-1.2188-1.4219-7.7656-8.1875-6.5312-6.7656-18.453-18.922z"/>
</defs>
<g transform="translate(446.07 187.84) scale(.1 -.1)">
<use xlink:href="#d"/>
<use x="63.623047" xlink:href="#f"/>
<use x="95.410156" xlink:href="#p"/>
</g>
</g>
<g clip-path="url(#a)">
<defs>
<path id="s" d="m33.016 40.375q-6.6406 0-10.531-4.5469-3.875-4.5312-3.875-12.438 0-7.8594 3.875-12.438 3.8906-4.5625 10.531-4.5625t10.516 4.5625q3.875 4.5781 3.875 12.438 0 7.9062-3.875 12.438-3.875 4.5469-10.516 4.5469zm19.578 30.922v-8.9844q-3.7188 1.75-7.5 2.6719-3.7812 0.9375-7.5 0.9375-9.7656 0-14.922-6.5938-5.1406-6.5938-5.875-19.922 2.875 4.25 7.2188 6.5156 4.3594 2.2656 9.5781 2.2656 10.984 0 17.359-6.6719 6.375-6.6562 6.375-18.125 0-11.234-6.6406-18.031-6.6406-6.7812-17.672-6.7812-12.656 0-19.344 9.6875-6.6875 9.7031-6.6875 28.109 0 17.281 8.2031 27.562t22.016 10.281q3.7188 0 7.5-0.73438t7.8906-2.1875z"/>
</defs>
<g transform="translate(861.6 318.7) scale(.1 -.1)">
<use xlink:href="#d"/>
<use x="63.623047" xlink:href="#f"/>
<use x="95.410156" xlink:href="#s"/>
</g>
</g>
<g clip-path="url(#a)">
<defs>
<path id="aa" d="m8.2031 72.906h46.875v-4.2031l-26.469-68.703h-10.297l24.906 64.594h-35.016z"/>
</defs>
<g transform="translate(322.64 928.24) scale(.1 -.1)">
<use xlink:href="#d"/>
<use x="63.623047" xlink:href="#f"/>
<use x="95.410156" xlink:href="#aa"/>
</g>
</g>
<g clip-path="url(#a)">
<defs>
<path id="z" d="m31.781 34.625q-7.0312 0-11.062-3.7656-4.0156-3.7656-4.0156-10.344 0-6.5938 4.0156-10.359 4.0312-3.7656 11.062-3.7656t11.078 3.7812q4.0625 3.7969 4.0625 10.344 0 6.5781-4.0312 10.344-4.0156 3.7656-11.109 3.7656zm-9.8594 4.1875q-6.3438 1.5625-9.8906 5.9062-3.5312 4.3594-3.5312 10.609 0 8.7344 6.2188 13.812 6.2344 5.0781 17.062 5.0781 10.891 0 17.094-5.0781t6.2031-13.812q0-6.25-3.5469-10.609-3.5312-4.3438-9.8281-5.9062 7.125-1.6562 11.094-6.5 3.9844-4.8281 3.9844-11.797 0-10.609-6.4688-16.281-6.4688-5.6562-18.531-5.6562-12.047 0-18.531 5.6562-6.4688 5.6719-6.4688 16.281 0 6.9688 4 11.797 4.0156 4.8438 11.141 6.5zm-3.6094 15.578q0-5.6562 3.5312-8.8281 3.5469-3.1719 9.9375-3.1719 6.3594 0 9.9375 3.1719 3.5938 3.1719 3.5938 8.8281 0 5.6719-3.5938 8.8438-3.5781 3.1719-9.9375 3.1719-6.3906 0-9.9375-3.1719-3.5312-3.1719-3.5312-8.8438z"/>
</defs>
<g transform="translate(369.84 928.24) scale(.1 -.1)">
<use xlink:href="#d"/>
<use x="63.623047" xlink:href="#f"/>
<use x="95.410156" xlink:href="#z"/>
</g>
</g>
<g clip-path="url(#a)">
<defs>
<path id="y" d="m10.984 1.5156v8.9844q3.7188-1.7656 7.5156-2.6875 3.8125-0.92188 7.4844-0.92188 9.7656 0 14.906 6.5625 5.1562 6.5625 5.8906 19.953-2.8281-4.2031-7.1875-6.4531-4.3438-2.25-9.6094-2.25-10.938 0-17.312 6.6094-6.375 6.625-6.375 18.109 0 11.219 6.6406 18 6.6406 6.7969 17.672 6.7969 12.656 0 19.312-9.7031 6.6719-9.6875 6.6719-28.141 0-17.234-8.1875-27.516-8.1719-10.281-21.984-10.281-3.7188 0-7.5312 0.73438-3.7969 0.73438-7.9062 2.2031zm19.625 30.906q6.6406 0 10.516 4.5312 3.8906 4.5469 3.8906 12.469 0 7.8594-3.8906 12.422-3.875 4.5625-10.516 4.5625t-10.516-4.5625-3.875-12.422q0-7.9219 3.875-12.469 3.875-4.5312 10.516-4.5312z"/>
</defs>
<g transform="translate(440.65 810.75) scale(.1 -.1)">
<use xlink:href="#d"/>
<use x="63.623047" xlink:href="#f"/>
<use x="95.410156" xlink:href="#y"/>
</g>
</g>
<g clip-path="url(#a)">
<defs>
<path id="n" d="m37.797 64.312-24.906-38.922h24.906zm-2.5938 8.5938h12.406v-47.516h10.406v-8.2031h-10.406v-17.188h-9.8125v17.188h-32.906v9.5156z"/>
</defs>
<g transform="translate(413.87 928.24) scale(.1 -.1)">
<use xlink:href="#d"/>
<use x="63.623047" xlink:href="#f"/>
<use x="95.410156" xlink:href="#d"/>
<use x="159.033203" xlink:href="#n"/>
</g>
</g>
<g clip-path="url(#a)">
<defs>
<path id="m" d="m10.797 72.906h38.719v-8.3125h-29.688v-17.859q2.1406 0.73438 4.2812 1.0938 2.1562 0.35938 4.3125 0.35938 12.203 0 19.328-6.6875 7.1406-6.6875 7.1406-18.109 0-11.766-7.3281-18.297-7.3281-6.5156-20.656-6.5156-4.5938 0-9.3594 0.78125-4.75 0.78125-9.8281 2.3438v9.9219q4.3906-2.3906 9.0781-3.5625t9.9062-1.1719q8.4531 0 13.375 4.4375 4.9375 4.4375 4.9375 12.062 0 7.6094-4.9375 12.047-4.9219 4.4531-13.375 4.4531-3.9531 0-7.8906-0.875-3.9219-0.875-8.0156-2.7344z"/>
</defs>
<g transform="translate(461.07 928.24) scale(.1 -.1)">
<use xlink:href="#d"/>
<use x="63.623047" xlink:href="#f"/>
<use x="95.410156" xlink:href="#d"/>
<use x="159.033203" xlink:href="#m"/>
</g>
</g>
<g clip-path="url(#a)">
<g transform="translate(525.98 691.63) scale(.1 -.1)">
<use xlink:href="#d"/>
<use x="63.623047" xlink:href="#f"/>
<use x="95.410156" xlink:href="#d"/>
<use x="159.033203" xlink:href="#s"/>
</g>
</g>
<g clip-path="url(#a)">
<g transform="translate(791.51 928.24) scale(.1 -.1)">
<use xlink:href="#d"/>
<use x="63.623047" xlink:href="#f"/>
<use x="95.410156" xlink:href="#d"/>
<use x="159.033203" xlink:href="#aa"/>
</g>
</g>
<g clip-path="url(#a)">
<g transform="translate(961.45 810.75) scale(.1 -.1)">
<use xlink:href="#d"/>
<use x="63.623047" xlink:href="#f"/>
<use x="95.410156" xlink:href="#d"/>
<use x="159.033203" xlink:href="#z"/>
</g>
</g>
<g clip-path="url(#a)">
<g transform="translate(1733.1 446.04) scale(.1 -.1)">
<use xlink:href="#d"/>
<use x="63.623047" xlink:href="#f"/>
<use x="95.410156" xlink:href="#d"/>
<use x="159.033203" xlink:href="#y"/>
</g>
</g>
<g clip-path="url(#a)">
<g transform="translate(1304.9 570.22) scale(.1 -.1)">
<use xlink:href="#d"/>
<use x="63.623047" xlink:href="#f"/>
<use x="95.410156" xlink:href="#p"/>
<use x="159.033203" xlink:href="#p"/>
</g>
</g>
<g clip-path="url(#a)">
<defs>
<path id="o" d="m40.578 39.312q7.0781-1.5156 11.047-6.3125 3.9844-4.7812 3.9844-11.812 0-10.781-7.4219-16.703-7.4219-5.9062-21.094-5.9062-4.5781 0-9.4375 0.90625t-10.031 2.7188v9.5156q4.0938-2.3906 8.9688-3.6094 4.8906-1.2188 10.219-1.2188 9.2656 0 14.125 3.6562t4.8594 10.641q0 6.4531-4.5156 10.078-4.5156 3.6406-12.562 3.6406h-8.5v8.1094h8.8906q7.2656 0 11.125 2.9062t3.8594 8.375q0 5.6094-3.9844 8.6094-3.9688 3.0156-11.391 3.0156-4.0625 0-8.7031-0.89062-4.6406-0.875-10.203-2.7188v8.7812q5.625 1.5625 10.531 2.3438t9.25 0.78125q11.234 0 17.766-5.1094 6.5469-5.0938 6.5469-13.781 0-6.0625-3.4688-10.234t-9.8594-5.7812z"/>
</defs>
<g transform="translate(1546.8 928.24) scale(.1 -.1)">
<use xlink:href="#d"/>
<use x="63.623047" xlink:href="#f"/>
<use x="95.410156" xlink:href="#p"/>
<use x="159.033203" xlink:href="#o"/>
</g>
</g>
<g clip-path="url(#a)">
<g transform="translate(1676.6 691.63) scale(.1 -.1)">
<use xlink:href="#d"/>
<use x="63.623047" xlink:href="#f"/>
<use x="95.410156" xlink:href="#p"/>
<use x="159.033203" xlink:href="#n"/>
</g>
</g>
<g clip-path="url(#a)">
<g transform="translate(1830 928.24) scale(.1 -.1)">
<use xlink:href="#d"/>
<use x="63.623047" xlink:href="#f"/>
<use x="95.410156" xlink:href="#p"/>
<use x="159.033203" xlink:href="#m"/>
</g>
</g>
<g clip-path="url(#a)">
<g transform="translate(1877.2 928.24) scale(.1 -.1)">
<use xlink:href="#d"/>
<use x="63.623047" xlink:href="#f"/>
<use x="95.410156" xlink:href="#p"/>
<use x="159.033203" xlink:href="#s"/>
</g>
</g>
<g clip-path="url(#a)">
<g transform="translate(1617.6 810.75) scale(.1 -.1)">
<use xlink:href="#d"/>
<use x="63.623047" xlink:href="#f"/>
<use x="95.410156" xlink:href="#p"/>
<use x="159.033203" xlink:href="#aa"/>
</g>
</g>
<g clip-path="url(#a)">
<g transform="translate(1735.6 810.75) scale(.1 -.1)">
<use xlink:href="#d"/>
<use x="63.623047" xlink:href="#f"/>
<use x="95.410156" xlink:href="#p"/>
<use x="159.033203" xlink:href="#z"/>
</g>
</g>
<g clip-path="url(#a)">
<g transform="translate(1688.4 928.24) scale(.1 -.1)">
<use xlink:href="#d"/>
<use x="63.623047" xlink:href="#f"/>
<use x="95.410156" xlink:href="#p"/>
<use x="159.033203" xlink:href="#y"/>
</g>
</g>
<g clip-path="url(#a)">
<defs>
<path id="ai" d="m31.781 66.406q-7.6094 0-11.453-7.5-3.8281-7.4844-3.8281-22.531 0-14.984 3.8281-22.484 3.8438-7.5 11.453-7.5 7.6719 0 11.5 7.5 3.8438 7.5 3.8438 22.484 0 15.047-3.8438 22.531-3.8281 7.5-11.5 7.5zm0 7.8125q12.266 0 18.734-9.7031 6.4688-9.6875 6.4688-28.141 0-18.406-6.4688-28.109-6.4688-9.6875-18.734-9.6875-12.25 0-18.719 9.6875-6.4688 9.7031-6.4688 28.109 0 18.453 6.4688 28.141 6.4688 9.7031 18.719 9.7031z"/>
</defs>
<g transform="translate(1735.6 928.24) scale(.1 -.1)">
<use xlink:href="#d"/>
<use x="63.623047" xlink:href="#f"/>
<use x="95.410156" xlink:href="#o"/>
<use x="159.033203" xlink:href="#ai"/>
</g>
</g>
<g clip-path="url(#a)">
<g transform="translate(1782.8 928.24) scale(.1 -.1)">
<use xlink:href="#d"/>
<use x="63.623047" xlink:href="#f"/>
<use x="95.410156" xlink:href="#o"/>
<use x="159.033203" xlink:href="#d"/>
</g>
</g>
<g clip-path="url(#a)">
<g transform="translate(1594 928.24) scale(.1 -.1)">
<use xlink:href="#d"/>
<use x="63.623047" xlink:href="#f"/>
<use x="95.410156" xlink:href="#o"/>
<use x="159.033203" xlink:href="#p"/>
</g>
</g>
<g clip-path="url(#a)">
<g transform="translate(1641.2 928.24) scale(.1 -.1)">
<use xlink:href="#d"/>
<use x="63.623047" xlink:href="#f"/>
<use x="95.410156" xlink:href="#o"/>
<use x="159.033203" xlink:href="#o"/>
</g>
</g>
<g clip-path="url(#a)">
<g transform="translate(1216.4 928.24) scale(.1 -.1)">
<use xlink:href="#d"/>
<use x="63.623047" xlink:href="#f"/>
<use x="95.410156" xlink:href="#o"/>
<use x="159.033203" xlink:href="#n"/>
</g>
</g>
<g clip-path="url(#a)">
<g transform="translate(1263.6 928.24) scale(.1 -.1)">
<use xlink:href="#d"/>
<use x="63.623047" xlink:href="#f"/>
<use x="95.410156" xlink:href="#o"/>
<use x="159.033203" xlink:href="#m"/>
</g>
</g>
<g clip-path="url(#a)">
<g transform="translate(1310.8 928.24) scale(.1 -.1)">
<use xlink:href="#d"/>
<use x="63.623047" xlink:href="#f"/>
<use x="95.410156" xlink:href="#o"/>
<use x="159.033203" xlink:href="#s"/>
</g>
</g>
<g clip-path="url(#a)">
<g transform="translate(1428.8 691.63) scale(.1 -.1)">
<use xlink:href="#d"/>
<use x="63.623047" xlink:href="#f"/>
<use x="95.410156" xlink:href="#o"/>
<use x="159.033203" xlink:href="#aa"/>
</g>
</g>
<g clip-path="url(#a)">
<g transform="translate(1381.6 810.75) scale(.1 -.1)">
<use xlink:href="#d"/>
<use x="63.623047" xlink:href="#f"/>
<use x="95.410156" xlink:href="#o"/>
<use x="159.033203" xlink:href="#z"/>
</g>
</g>
<g clip-path="url(#a)">
<g transform="translate(1476 810.75) scale(.1 -.1)">
<use xlink:href="#d"/>
<use x="63.623047" xlink:href="#f"/>
<use x="95.410156" xlink:href="#o"/>
<use x="159.033203" xlink:href="#y"/>
</g>
</g>
<g clip-path="url(#a)">
<g transform="translate(1452.4 928.24) scale(.1 -.1)">
<use xlink:href="#d"/>
<use x="63.623047" xlink:href="#f"/>
<use x="95.410156" xlink:href="#n"/>
<use x="159.033203" xlink:href="#ai"/>
</g>
</g>
<g clip-path="url(#a)">
<g transform="translate(1499.6 928.24) scale(.1 -.1)">
<use xlink:href="#d"/>
<use x="63.623047" xlink:href="#f"/>
<use x="95.410156" xlink:href="#n"/>
<use x="159.033203" xlink:href="#d"/>
</g>
</g>
<g clip-path="url(#a)">
<g transform="translate(1358 928.24) scale(.1 -.1)">
<use xlink:href="#d"/>
<use x="63.623047" xlink:href="#f"/>
<use x="95.410156" xlink:href="#n"/>
<use x="159.033203" xlink:href="#p"/>
</g>
</g>
<g clip-path="url(#a)">
<g transform="translate(1405.2 928.24) scale(.1 -.1)">
<use xlink:href="#d"/>
<use x="63.623047" xlink:href="#f"/>
<use x="95.410156" xlink:href="#n"/>
<use x="159.033203" xlink:href="#o"/>
</g>
</g>
<g clip-path="url(#a)">
<g transform="translate(838.71 928.24) scale(.1 -.1)">
<use xlink:href="#d"/>
<use x="63.623047" xlink:href="#f"/>
<use x="95.410156" xlink:href="#n"/>
<use x="159.033203" xlink:href="#n"/>
</g>
</g>
<g clip-path="url(#a)">
<g transform="translate(885.92 928.24) scale(.1 -.1)">
<use xlink:href="#d"/>
<use x="63.623047" xlink:href="#f"/>
<use x="95.410156" xlink:href="#n"/>
<use x="159.033203" xlink:href="#m"/>
</g>
</g>
<g clip-path="url(#a)">
<g transform="translate(1027.5 928.24) scale(.1 -.1)">
<use xlink:href="#d"/>
<use x="63.623047" xlink:href="#f"/>
<use x="95.410156" xlink:href="#n"/>
<use x="159.033203" xlink:href="#s"/>
</g>
</g>
<g clip-path="url(#a)">
<g transform="translate(980.33 928.24) scale(.1 -.1)">
<use xlink:href="#d"/>
<use x="63.623047" xlink:href="#f"/>
<use x="95.410156" xlink:href="#n"/>
<use x="159.033203" xlink:href="#aa"/>
</g>
</g>
<g clip-path="url(#a)">
<g transform="translate(1074.7 928.24) scale(.1 -.1)">
<use xlink:href="#d"/>
<use x="63.623047" xlink:href="#f"/>
<use x="95.410156" xlink:href="#n"/>
<use x="159.033203" xlink:href="#z"/>
</g>
</g>
<g clip-path="url(#a)">
<g transform="translate(154.24 810.75) scale(.1 -.1)">
<use xlink:href="#d"/>
<use x="63.623047" xlink:href="#f"/>
<use x="95.410156" xlink:href="#n"/>
<use x="159.033203" xlink:href="#y"/>
</g>
</g>
<g clip-path="url(#a)">
<g transform="translate(602.69 928.24) scale(.1 -.1)">
<use xlink:href="#d"/>
<use x="63.623047" xlink:href="#f"/>
<use x="95.410156" xlink:href="#m"/>
<use x="159.033203" xlink:href="#ai"/>
</g>
</g>
<g clip-path="url(#a)">
<g transform="translate(649.89 928.24) scale(.1 -.1)">
<use xlink:href="#d"/>
<use x="63.623047" xlink:href="#f"/>
<use x="95.410156" xlink:href="#m"/>
<use x="159.033203" xlink:href="#d"/>
</g>
</g>
<g clip-path="url(#a)">
<g transform="translate(697.1 928.24) scale(.1 -.1)">
<use xlink:href="#d"/>
<use x="63.623047" xlink:href="#f"/>
<use x="95.410156" xlink:href="#m"/>
<use x="159.033203" xlink:href="#p"/>
</g>
</g>
<g clip-path="url(#a)">
<g transform="translate(130.64 928.24) scale(.1 -.1)">
<use xlink:href="#d"/>
<use x="63.623047" xlink:href="#f"/>
<use x="95.410156" xlink:href="#m"/>
<use x="159.033203" xlink:href="#o"/>
</g>
</g>
<g clip-path="url(#a)">
<g transform="translate(177.84 928.24) scale(.1 -.1)">
<use xlink:href="#d"/>
<use x="63.623047" xlink:href="#f"/>
<use x="95.410156" xlink:href="#m"/>
<use x="159.033203" xlink:href="#n"/>
</g>
</g>
<g clip-path="url(#a)">
<g transform="translate(83.433 928.24) scale(.1 -.1)">
<use xlink:href="#d"/>
<use x="63.623047" xlink:href="#f"/>
<use x="95.410156" xlink:href="#m"/>
<use x="159.033203" xlink:href="#m"/>
</g>
</g>
<g clip-path="url(#a)">
<g transform="translate(225.05 928.24) scale(.1 -.1)">
<use xlink:href="#d"/>
<use x="63.623047" xlink:href="#f"/>
<use x="95.410156" xlink:href="#m"/>
<use x="159.033203" xlink:href="#s"/>
</g>
</g>
<g clip-path="url(#a)">
<g transform="translate(272.25 928.24) scale(.1 -.1)">
<use xlink:href="#d"/>
<use x="63.623047" xlink:href="#f"/>
<use x="95.410156" xlink:href="#m"/>
<use x="159.033203" xlink:href="#aa"/>
</g>
</g>
<g clip-path="url(#a)">
<g transform="translate(508.28 928.24) scale(.1 -.1)">
<use xlink:href="#d"/>
<use x="63.623047" xlink:href="#f"/>
<use x="95.410156" xlink:href="#m"/>
<use x="159.033203" xlink:href="#z"/>
</g>
</g>
<g clip-path="url(#a)">
<g transform="translate(555.48 928.24) scale(.1 -.1)">
<use xlink:href="#d"/>
<use x="63.623047" xlink:href="#f"/>
<use x="95.410156" xlink:href="#m"/>
<use x="159.033203" xlink:href="#y"/>
</g>
</g>
<g clip-path="url(#a)">
<g transform="translate(744.3 928.24) scale(.1 -.1)">
<use xlink:href="#d"/>
<use x="63.623047" xlink:href="#f"/>
<use x="95.410156" xlink:href="#s"/>
<use x="159.033203" xlink:href="#ai"/>
</g>
</g>
<g clip-path="url(#a)">
<g transform="translate(1169.1 928.24) scale(.1 -.1)">
<use xlink:href="#d"/>
<use x="63.623047" xlink:href="#f"/>
<use x="95.410156" xlink:href="#s"/>
<use x="159.033203" xlink:href="#d"/>
</g>
</g>
<g clip-path="url(#a)">
<g transform="translate(1924.4 928.24) scale(.1 -.1)">
<use xlink:href="#d"/>
<use x="63.623047" xlink:href="#f"/>
<use x="95.410156" xlink:href="#s"/>
<use x="159.033203" xlink:href="#p"/>
</g>
</g>
<g clip-path="url(#a)">
<g transform="translate(1971.6 928.24) scale(.1 -.1)">
<use xlink:href="#d"/>
<use x="63.623047" xlink:href="#f"/>
<use x="95.410156" xlink:href="#s"/>
<use x="159.033203" xlink:href="#o"/>
</g>
</g>
<defs>
<clipPath id="a">
<rect width="2077.3" height="1093.3"/>
</clipPath>
</defs>
</svg>
