<?xml version="1.0" encoding="UTF-8"?>
<!DOCTYPE svg  PUBLIC '-//W3C//DTD SVG 1.1//EN'  'http://www.w3.org/Graphics/SVG/1.1/DTD/svg11.dtd'>
<svg width="1114.7pt" height="586.67pt" version="1.1" viewBox="0 0 1114.7 586.67" xmlns="http://www.w3.org/2000/svg" xmlns:xlink="http://www.w3.org/1999/xlink">
<defs>
<style type="text/css">*{stroke-linecap:butt;stroke-linejoin:round;white-space:pre;}</style>
</defs>
<path d="m0 586.67h1114.7v-586.67h-1114.7z" fill="#fff"/>
<g fill="none" stroke="#000">
<path d="m466.56 27.773-391.51 323.02" clip-path="url(#a)"/>
<path d="m466.56 27.773-270.94 427.07" clip-path="url(#a)"/>
<path d="m466.56 27.773 34.104 109.98" clip-path="url(#a)"/>
<path d="m466.56 27.773 356.03 427.07" clip-path="url(#a)"/>
<path d="m466.56 27.773 283.69 217.51" clip-path="url(#a)"/>
<path d="m466.56 27.773-319.17 427.07" clip-path="url(#a)"/>
<path d="m466.56 27.773 307.8 427.07" clip-path="url(#a)"/>
<path d="m75.051 350.79-24.114 104.05" clip-path="url(#a)"/>
<path d="m75.051 350.79 24.114 104.05" clip-path="url(#a)"/>
<path d="m195.62 454.84v104.05" clip-path="url(#a)"/>
<path d="m500.67 137.75-256.82 317.09" clip-path="url(#a)"/>
<path d="m500.67 137.75-160.36 107.53" clip-path="url(#a)"/>
<path d="m500.67 137.75 14.468 107.53" clip-path="url(#a)"/>
<path d="m500.67 137.75 177.24 317.09" clip-path="url(#a)"/>
<path d="m500.67 137.75 225.47 317.09" clip-path="url(#a)"/>
<path d="m822.59 454.84v104.05" clip-path="url(#a)"/>
<path d="m750.25 245.29 192.91 209.55" clip-path="url(#a)"/>
<path d="m750.25 245.29 192.91 105.5" clip-path="url(#a)"/>
<path d="m750.25 245.29-699.31 209.55" clip-path="url(#a)" stroke-dasharray="3.7,1.6"/>
<path d="m750.25 245.29 313.48 209.55" clip-path="url(#a)"/>
<path d="m943.16 454.84-72.342 104.05" clip-path="url(#a)"/>
<path d="m943.16 454.84 72.342 104.05" clip-path="url(#a)"/>
<path d="m943.16 350.79-24.114 104.05" clip-path="url(#a)"/>
<path d="m943.16 350.79 24.114 104.05" clip-path="url(#a)"/>
<path d="m919.05 454.84v104.05" clip-path="url(#a)"/>
<path d="m967.27 454.84v104.05" clip-path="url(#a)"/>
<path d="m243.85 454.84v104.05" clip-path="url(#a)"/>
<path d="m340.31 245.29v105.5" clip-path="url(#a)"/>
<path d="m340.31 245.29v209.55" clip-path="url(#a)"/>
<path d="m515.13 245.29-78.371 209.55" clip-path="url(#a)"/>
<path d="m515.13 245.29-30.143 209.55" clip-path="url(#a)"/>
<path d="m515.13 245.29 18.086 209.55" clip-path="url(#a)"/>
<path d="m515.13 245.29 90.428 105.5" clip-path="url(#a)"/>
<path d="m677.9 454.84v104.05" clip-path="url(#a)"/>
<path d="m726.13 454.84v104.05" clip-path="url(#a)"/>
<path d="m436.76 454.84v104.05" clip-path="url(#a)"/>
<path d="m484.99 454.84v104.05" clip-path="url(#a)"/>
<path d="m533.22 454.84v104.05" clip-path="url(#a)"/>
<path d="m605.56 350.79-24.114 104.05" clip-path="url(#a)"/>
<path d="m605.56 350.79 24.114 104.05" clip-path="url(#a)"/>
<path d="m581.45 454.84v104.05" clip-path="url(#a)"/>
<path d="m629.68 454.84v104.05" clip-path="url(#a)"/>
<path d="m340.31 350.79-48.228 104.05" clip-path="url(#a)"/>
<path d="m340.31 350.79 48.228 104.05" clip-path="url(#a)"/>
<path d="m340.31 454.84v104.05" clip-path="url(#a)"/>
<path d="m292.08 454.84v104.05" clip-path="url(#a)"/>
<path d="m388.53 454.84v104.05" clip-path="url(#a)"/>
<path d="m50.936 454.84v104.05" clip-path="url(#a)"/>
<path d="m99.165 454.84v104.05" clip-path="url(#a)"/>
<path d="m147.39 454.84v104.05" clip-path="url(#a)"/>
<path d="m774.36 454.84v104.05" clip-path="url(#a)"/>
<path d="m1063.7 454.84v104.05" clip-path="url(#a)"/>
</g>
<path d="m272.48 196.03 4.6407-3.8288q1.8513-1.5274 0.32388-3.3786l-4.9274-5.9722q-1.5274-1.8513-3.3786-0.32388l-4.6407 3.8288q-1.8513 1.5274-0.32388 3.3786l4.9274 5.9722q1.5274 1.8513 3.3786 0.32388z" clip-path="url(#a)" fill="#fff" stroke="#fff"/>
<g clip-path="url(#a)">
<defs>
<path id="x" d="m9.8125 72.906h9.8594v-29.891h35.844v29.891h9.8594v-72.906h-9.8594v34.719h-35.844v-34.719h-9.8594z"/>
</defs>
<g transform="translate(269.89 192.9) rotate(-39.524) scale(.08 -.08)">
<use xlink:href="#x"/>
</g>
</g>
<path d="m335.19 246.55 2.3879-3.7639q1.2857-2.0266-0.74088-3.3123l-6.5378-4.1477q-2.0266-1.2857-3.3123 0.74088l-2.3879 3.7639q-1.2857 2.0266 0.74088 3.3123l6.5378 4.1477q2.0266 1.2857 3.3123-0.74088z" clip-path="url(#a)" fill="#fff" stroke="#fff"/>
<g clip-path="url(#a)">
<defs>
<path id="ag" d="m9.8125 72.906h9.8594v-64.609h35.5v-8.2969h-45.359z"/>
</defs>
<g transform="translate(331.76 244.37) rotate(-57.608) scale(.08 -.08)">
<use xlink:href="#ag"/>
</g>
</g>
<path d="m476.73 81.748 1.7819 5.7463q0.71082 2.2923 3.0031 1.5815l7.3951-2.2931q2.2923-0.71082 1.5815-3.0031l-1.7819-5.7463q-0.71082-2.2923-3.0031-1.5815l-7.3951 2.2931q-2.2923 0.71082-1.5815 3.0031z" clip-path="url(#a)" fill="#fff" stroke="#fff"/>
<g clip-path="url(#a)">
<g transform="translate(480.61 80.544) rotate(72.772) scale(.08 -.08)">
<use xlink:href="#x"/>
</g>
</g>
<path d="m638.33 243.61 2.8543 3.4238q1.5368 1.8434 3.3802 0.30664l5.947-4.9578q1.8434-1.5368 0.30664-3.3802l-2.8543-3.4238q-1.5368-1.8434-3.3802-0.30664l-5.947 4.9578q-1.8434 1.5368-0.30665 3.3802z" clip-path="url(#a)" fill="#fff" stroke="#fff"/>
<g clip-path="url(#a)">
<g transform="translate(641.45 241.01) rotate(50.184) scale(.08 -.08)">
<use xlink:href="#ag"/>
</g>
</g>
<path d="m602.2 139.68 4.7744 3.6607q1.9046 1.4603 3.3649-0.44425l4.7111-6.1443q1.4603-1.9046-0.44425-3.3649l-4.7744-3.6607q-1.9046-1.4603-3.3649 0.44425l-4.7111 6.1443q-1.4603 1.9046 0.44425 3.3649z" clip-path="url(#a)" fill="#fff" stroke="#fff"/>
<g clip-path="url(#a)">
<g transform="translate(604.67 136.45) rotate(37.479) scale(.08 -.08)">
<use xlink:href="#x"/>
</g>
</g>
<path d="m310.25 247.41 3.505-4.69q1.4367-1.9224-0.48571-3.3592l-6.2019-4.635q-1.9224-1.4367-3.3592 0.48571l-3.505 4.69q-1.4367 1.9224 0.48571 3.3592l6.2019 4.635q1.9224 1.4367 3.3592-0.48571z" clip-path="url(#a)" fill="#fff" stroke="#fff"/>
<g clip-path="url(#a)">
<defs>
<path id="u" d="m8.6875 72.906h9.9219v-44.297q0-11.719 4.2344-16.875 4.25-5.1406 13.781-5.1406 9.4688 0 13.719 5.1406 4.25 5.1562 4.25 16.875v44.297h9.9062v-45.516q0-14.25-7.0625-21.531-7.0469-7.2812-20.812-7.2812-13.828 0-20.891 7.2812-7.0469 7.2812-7.0469 21.531z"/>
</defs>
<g transform="translate(306.99 244.97) rotate(-53.228) scale(.08 -.08)">
<use xlink:href="#u"/>
</g>
</g>
<path d="m613.66 242.6 3.4234 4.7499q1.4033 1.947 3.3503 0.54375l6.2811-4.527q1.947-1.4033 0.54375-3.3503l-3.4234-4.7499q-1.4033-1.947-3.3503-0.54375l-6.2811 4.527q-1.947 1.4033-0.54375 3.3503z" clip-path="url(#a)" fill="#fff" stroke="#fff"/>
<g clip-path="url(#a)">
<g transform="translate(616.96 240.22) rotate(54.219) scale(.08 -.08)">
<use xlink:href="#u"/>
</g>
</g>
<path d="m68.485 406.9 1.2355-5.3312q0.54184-2.338-1.7962-2.8799l-7.5426-1.748q-2.338-0.54184-2.8799 1.7962l-1.2355 5.3312q-0.54184 2.338 1.7962 2.8799l7.5426 1.748q2.338 0.54184 2.8799-1.7962z" clip-path="url(#a)" fill="#fff" stroke="#fff"/>
<g clip-path="url(#a)">
<defs>
<path id="q" d="m34.188 63.188-13.391-36.281h26.812zm-5.5781 9.7188h11.188l27.781-72.906h-10.25l-6.6406 18.703h-32.859l-6.6406-18.703h-10.406z"/>
</defs>
<g transform="translate(64.526 405.98) rotate(-76.952) scale(.08 -.08)">
<use xlink:href="#q"/>
</g>
</g>
<path d="m80.454 401.88 1.089 4.6992q0.54184 2.338 2.8799 1.7962l7.5426-1.748q2.338-0.54184 1.7962-2.8799l-1.089-4.6992q-0.54184-2.338-2.8799-1.7962l-7.5426 1.748q-2.338 0.54184-1.7962 2.8799z" clip-path="url(#a)" fill="#fff" stroke="#fff"/>
<g clip-path="url(#a)">
<defs>
<path id="w" d="m19.672 64.797v-27.391h12.406q6.8906 0 10.641 3.5625 3.7656 3.5625 3.7656 10.156 0 6.5469-3.7656 10.109-3.75 3.5625-10.641 3.5625zm-9.8594 8.1094h22.266q12.266 0 18.531-5.5469 6.2812-5.5469 6.2812-16.234 0-10.797-6.2812-16.312-6.2656-5.5156-18.531-5.5156h-12.406v-29.297h-9.8594z"/>
</defs>
<g transform="translate(84.413 400.96) rotate(76.952) scale(.08 -.08)">
<use xlink:href="#w"/>
</g>
</g>
<path d="m189.35 489.22v35.285q0 2.4 2.4 2.4h7.7425q2.4 0 2.4-2.4v-35.285q0-2.4-2.4-2.4h-7.7425q-2.4 0-2.4 2.4z" clip-path="url(#a)" fill="#fff" stroke="#fff"/>
<g clip-path="url(#a)">
<defs>
<path id="l" d="m-0.29688 72.906h61.672v-8.3125h-25.875v-64.594h-9.9062v64.594h-25.891z"/>
<path id="d" d="m56.203 29.594v-4.3906h-41.312q0.59375-9.2812 5.5938-14.141t13.938-4.8594q5.1719 0 10.031 1.2656t9.6562 3.8125v-8.5q-4.8438-2.0469-9.9219-3.125t-10.297-1.0781q-13.094 0-20.734 7.6094-7.6406 7.625-7.6406 20.625 0 13.422 7.25 21.297 7.25 7.8906 19.562 7.8906 11.031 0 17.453-7.1094 6.4219-7.0938 6.4219-19.297zm-8.9844 2.6406q-0.09375 7.3594-4.125 11.75-4.0312 4.4062-10.672 4.4062-7.5156 0-12.031-4.25t-5.2031-11.969z"/>
<path id="h" d="m41.109 46.297q-1.5156 0.875-3.2969 1.2812-1.7812 0.42188-3.9219 0.42188-7.625 0-11.703-4.9531t-4.0781-14.234v-28.812h-9.0312v54.688h9.0312v-8.5q2.8438 4.9844 7.375 7.3906 4.5469 2.4219 11.047 2.4219 0.92188 0 2.0469-0.125 1.125-0.10938 2.4844-0.35938z"/>
<path id="i" d="m52 44.188q3.375 6.0625 8.0625 8.9375t11.031 2.875q8.5469 0 13.188-5.9844 4.6406-5.9688 4.6406-17v-33.016h-9.0312v32.719q0 7.8594-2.7969 11.656-2.7812 3.8125-8.4844 3.8125-6.9844 0-11.047-4.6406-4.0469-4.625-4.0469-12.641v-30.906h-9.0312v32.719q0 7.9062-2.7812 11.688t-8.5938 3.7812q-6.8906 0-10.953-4.6562-4.0469-4.6562-4.0469-12.625v-30.906h-9.0312v54.688h9.0312v-8.5q3.0781 5.0312 7.375 7.4219t10.203 2.3906q5.9688 0 10.141-3.0312 4.1719-3.0156 6.1719-8.7812z"/>
<path id="f" d="m9.4219 54.688h8.9844v-54.688h-8.9844zm0 21.297h8.9844v-11.391h-8.9844z"/>
<path id="e" d="m54.891 33.016v-33.016h-8.9844v32.719q0 7.7656-3.0312 11.609-3.0312 3.8594-9.0781 3.8594-7.2812 0-11.484-4.6406-4.2031-4.625-4.2031-12.641v-30.906h-9.0312v54.688h9.0312v-8.5q3.2344 4.9375 7.5938 7.375 4.375 2.4375 10.094 2.4375 9.4219 0 14.25-5.8281 4.8438-5.8281 4.8438-17.156z"/>
<path id="j" d="m34.281 27.484q-10.891 0-15.094-2.4844t-4.2031-8.5q0-4.7812 3.1562-7.5938 3.1562-2.7969 8.5625-2.7969 7.4844 0 12 5.2969t4.5156 14.078v2zm17.922 3.7188v-31.203h-8.9844v8.2969q-3.0781-4.9688-7.6719-7.3438t-11.234-2.375q-8.3906 0-13.359 4.7188-4.9531 4.7188-4.9531 12.625 0 9.2188 6.1719 13.906 6.1875 4.6875 18.438 4.6875h12.609v0.89062q0 6.2031-4.0781 9.5938t-11.453 3.3906q-4.6875 0-9.1406-1.125-4.4375-1.125-8.5312-3.375v8.3125q4.9219 1.9062 9.5625 2.8438 4.6406 0.95312 9.0312 0.95312 11.875 0 17.734-6.1562 5.8594-6.1406 5.8594-18.641z"/>
<path id="k" d="m9.4219 75.984h8.9844v-75.984h-8.9844z"/>
</defs>
<g transform="translate(193.41 489.22) rotate(90) scale(.08 -.08)">
<use xlink:href="#l"/>
<use x="60.818359" xlink:href="#d"/>
<use x="122.341797" xlink:href="#h"/>
<use x="163.439453" xlink:href="#i"/>
<use x="260.851562" xlink:href="#f"/>
<use x="288.634766" xlink:href="#e"/>
<use x="352.013672" xlink:href="#j"/>
<use x="413.292969" xlink:href="#k"/>
</g>
</g>
<path d="m375.19 302.64 3.877-4.7869q1.5105-1.865-0.3545-3.3755l-6.0166-4.873q-1.865-1.5105-3.3755 0.3545l-3.877 4.7869q-1.5105 1.865 0.3545 3.3756l6.0166 4.873q1.865 1.5105 3.3755-0.3545z" clip-path="url(#a)" fill="#fff" stroke="#fff"/>
<g clip-path="url(#a)">
<defs>
<path id="ai" d="m19.672 64.797v-56.688h11.922q15.094 0 22.094 6.8281 7 6.8438 7 21.594 0 14.641-7 21.453t-22.094 6.8125zm-9.8594 8.1094h20.266q21.188 0 31.094-8.8125 9.9219-8.8125 9.9219-27.562 0-18.859-9.9688-27.703-9.9531-8.8281-31.047-8.8281h-20.266z"/>
</defs>
<g transform="translate(372.03 300.08) rotate(-50.995) scale(.08 -.08)">
<use xlink:href="#ai"/>
</g>
</g>
<path d="m421.71 198.25 4.5452-3.0479q1.9933-1.3367 0.65666-3.33l-4.3121-6.4305q-1.3367-1.9933-3.33-0.65666l-4.5452 3.0479q-1.9933 1.3367-0.65666 3.33l4.3121 6.4305q1.3367 1.9933 3.33 0.65666z" clip-path="url(#a)" fill="#fff" stroke="#fff"/>
<g clip-path="url(#a)">
<g transform="translate(419.44 194.88) rotate(-33.845) scale(.08 -.08)">
<use xlink:href="#q"/>
</g>
</g>
<path d="m501.32 189.65 0.72975 5.4236q0.32004 2.3786 2.6986 2.0585l7.6734-1.0325q2.3786-0.32004 2.0585-2.6986l-0.72975-5.4236q-0.32004-2.3786-2.6986-2.0585l-7.6734 1.0325q-2.3786 0.32004-2.0585 2.6986z" clip-path="url(#a)" fill="#fff" stroke="#fff"/>
<g clip-path="url(#a)">
<g transform="translate(505.35 189.1) rotate(82.337) scale(.08 -.08)">
<use xlink:href="#q"/>
</g>
</g>
<path d="m582.63 297.25 2.3536 4.2106q1.171 2.0949 3.2659 0.92395l6.7584-3.7777q2.0949-1.171 0.92395-3.2659l-2.3536-4.2106q-1.171-2.0949-3.2659-0.92395l-6.7584 3.7777q-2.0949 1.171-0.92395 3.2659z" clip-path="url(#a)" fill="#fff" stroke="#fff"/>
<g clip-path="url(#a)">
<g transform="translate(586.18 295.27) rotate(60.796) scale(.08 -.08)">
<use xlink:href="#w"/>
</g>
</g>
<path d="m606.5 297.42 3.5697 5.0202q1.3908 1.9559 3.3467 0.56515l6.3099-4.4867q1.9559-1.3908 0.56515-3.3467l-3.5697-5.0202q-1.3908-1.9559-3.3467-0.56515l-6.3099 4.4867q-1.9559 1.3908-0.56515 3.3467z" clip-path="url(#a)" fill="#fff" stroke="#fff"/>
<g clip-path="url(#a)">
<g transform="translate(609.81 295.07) rotate(54.585) scale(.08 -.08)">
<use xlink:href="#ai"/>
</g>
</g>
<path d="m816.32 489.22v35.285q0 2.4 2.4 2.4h7.7425q2.4 0 2.4-2.4v-35.285q0-2.4-2.4-2.4h-7.7425q-2.4 0-2.4 2.4z" clip-path="url(#a)" fill="#fff" stroke="#fff"/>
<g clip-path="url(#a)">
<g transform="translate(820.38 489.22) rotate(90) scale(.08 -.08)">
<use xlink:href="#l"/>
<use x="60.818359" xlink:href="#d"/>
<use x="122.341797" xlink:href="#h"/>
<use x="163.439453" xlink:href="#i"/>
<use x="260.851562" xlink:href="#f"/>
<use x="288.634766" xlink:href="#e"/>
<use x="352.013672" xlink:href="#j"/>
<use x="413.292969" xlink:href="#k"/>
</g>
</g>
<path d="m840.46 352.54 3.2671 3.5489q1.6255 1.7657 3.3912 0.14022l5.6963-5.2439q1.7657-1.6255 0.14022-3.3912l-3.2671-3.5489q-1.6255-1.7657-3.3912-0.14022l-5.6963 5.2439q-1.7657 1.6255-0.14022 3.3912z" clip-path="url(#a)" fill="#fff" stroke="#fff"/>
<g clip-path="url(#a)">
<g transform="translate(843.45 349.78) rotate(47.368) scale(.08 -.08)">
<use xlink:href="#w"/>
</g>
</g>
<path d="m841.29 302.23 4.8014 2.6258q2.1057 1.1516 3.2572-0.95412l3.715-6.793q1.1516-2.1057-0.95412-3.2572l-4.8014-2.6258q-2.1057-1.1516-3.2572 0.95412l-3.715 6.793q-1.1516 2.1057 0.95412 3.2572z" clip-path="url(#a)" fill="#fff" stroke="#fff"/>
<g clip-path="url(#a)">
<g transform="translate(843.24 298.66) rotate(28.673) scale(.08 -.08)">
<use xlink:href="#q"/>
</g>
</g>
<path d="m399.77 356.86 5.2422-1.5709q2.299-0.68891 1.6101-2.9879l-2.2225-7.4167q-0.68891-2.299-2.9879-1.6101l-5.2422 1.5709q-2.299 0.68891-1.6101 2.9879l2.2225 7.4167q0.68891 2.299 2.9879 1.6101z" clip-path="url(#a)" fill="#fff" stroke="#fff"/>
<g clip-path="url(#a)">
<g transform="translate(398.6 352.96) rotate(-16.681) scale(.08 -.08)">
<use xlink:href="#q"/>
</g>
</g>
<path d="m901.07 353.65 4.8676 3.2538q1.9953 1.3338 3.329-0.66149l4.3028-6.4368q1.3338-1.9953-0.66149-3.329l-4.8676-3.2538q-1.9953-1.3338-3.329 0.66149l-4.3028 6.4368q-1.3338 1.9953 0.66149 3.329z" clip-path="url(#a)" fill="#fff" stroke="#fff"/>
<g clip-path="url(#a)">
<g transform="translate(903.33 350.27) rotate(33.761) scale(.08 -.08)">
<use xlink:href="#u"/>
</g>
</g>
<path d="m902.07 524.93 20.142-28.971q1.37-1.9705-0.60054-3.3406l-6.3571-4.4197q-1.9705-1.37-3.3406 0.60054l-20.142 28.971q-1.37 1.9705 0.60054 3.3406l6.3571 4.4197q1.9705 1.37 3.3406-0.60054z" clip-path="url(#a)" fill="#fff" stroke="#fff"/>
<g clip-path="url(#a)">
<g transform="translate(898.73 522.61) rotate(-55.191) scale(.08 -.08)">
<use xlink:href="#l"/>
<use x="60.818359" xlink:href="#d"/>
<use x="122.341797" xlink:href="#h"/>
<use x="163.439453" xlink:href="#i"/>
<use x="260.851562" xlink:href="#f"/>
<use x="288.634766" xlink:href="#e"/>
<use x="352.013672" xlink:href="#j"/>
<use x="413.292969" xlink:href="#k"/>
</g>
</g>
<path d="m964.11 495.96 20.142 28.971q1.37 1.9705 3.3406 0.60054l6.3571-4.4197q1.9705-1.37 0.60054-3.3406l-20.142-28.971q-1.37-1.9705-3.3406-0.60054l-6.3571 4.4197q-1.9705 1.37-0.60054 3.3406z" clip-path="url(#a)" fill="#fff" stroke="#fff"/>
<g clip-path="url(#a)">
<g transform="translate(967.45 493.64) rotate(55.191) scale(.08 -.08)">
<use xlink:href="#l"/>
<use x="60.818359" xlink:href="#d"/>
<use x="122.341797" xlink:href="#h"/>
<use x="163.439453" xlink:href="#i"/>
<use x="260.851562" xlink:href="#f"/>
<use x="288.634766" xlink:href="#e"/>
<use x="352.013672" xlink:href="#j"/>
<use x="413.292969" xlink:href="#k"/>
</g>
</g>
<path d="m936.58 406.94 1.255-5.4152q0.54184-2.338-1.7962-2.8799l-7.5426-1.748q-2.338-0.54184-2.8799 1.7962l-1.255 5.4152q-0.54184 2.338 1.7962 2.8799l7.5426 1.748q2.338 0.54184 2.8799-1.7962z" clip-path="url(#a)" fill="#fff" stroke="#fff"/>
<g clip-path="url(#a)">
<defs>
<path id="v" d="m44.391 34.188q3.1719-1.0781 6.1719-4.5938t6.0312-9.6719l10.016-19.922h-10.609l-9.3125 18.703q-3.625 7.3281-7.0156 9.7188t-9.25 2.3906h-10.75v-30.812h-9.8594v72.906h22.266q12.5 0 18.656-5.2344 6.1562-5.2188 6.1562-15.766 0-6.8906-3.2031-11.438-3.2031-4.5312-9.2969-6.2812zm-24.719 30.609v-25.875h12.406q7.125 0 10.766 3.2969t3.6406 9.6875-3.6406 9.6406-10.766 3.25z"/>
</defs>
<g transform="translate(932.63 406.02) rotate(-76.952) scale(.08 -.08)">
<use xlink:href="#v"/>
</g>
</g>
<path d="m948.48 401.51 1.2612 5.442q0.54184 2.338 2.8799 1.7962l7.5426-1.748q2.338-0.54184 1.7962-2.8799l-1.2612-5.442q-0.54184-2.338-2.8799-1.7962l-7.5426 1.748q-2.338 0.54184-1.7962 2.8799z" clip-path="url(#a)" fill="#fff" stroke="#fff"/>
<g clip-path="url(#a)">
<defs>
<path id="t" d="m64.406 67.281v-10.391q-4.9844 4.6406-10.625 6.9219-5.6406 2.2969-11.984 2.2969-12.5 0-19.141-7.6406t-6.6406-22.094q0-14.406 6.6406-22.047t19.141-7.6406q6.3438 0 11.984 2.2969t10.625 6.9375v-10.312q-5.1719-3.5156-10.969-5.2812-5.7812-1.75-12.219-1.75-16.562 0-26.094 10.125-9.5156 10.141-9.5156 27.672 0 17.578 9.5156 27.703 9.5312 10.141 26.094 10.141 6.5312 0 12.312-1.7344 5.7969-1.7344 10.875-5.2031z"/>
</defs>
<g transform="translate(952.44 400.59) rotate(76.952) scale(.08 -.08)">
<use xlink:href="#t"/>
</g>
</g>
<path d="m912.77 489.22v35.285q0 2.4 2.4 2.4h7.7425q2.4 0 2.4-2.4v-35.285q0-2.4-2.4-2.4h-7.7425q-2.4 0-2.4 2.4z" clip-path="url(#a)" fill="#fff" stroke="#fff"/>
<g clip-path="url(#a)">
<g transform="translate(916.84 489.22) rotate(90) scale(.08 -.08)">
<use xlink:href="#l"/>
<use x="60.818359" xlink:href="#d"/>
<use x="122.341797" xlink:href="#h"/>
<use x="163.439453" xlink:href="#i"/>
<use x="260.851562" xlink:href="#f"/>
<use x="288.634766" xlink:href="#e"/>
<use x="352.013672" xlink:href="#j"/>
<use x="413.292969" xlink:href="#k"/>
</g>
</g>
<path d="m961 489.22v35.285q0 2.4 2.4 2.4h7.7425q2.4 0 2.4-2.4v-35.285q0-2.4-2.4-2.4h-7.7425q-2.4 0-2.4 2.4z" clip-path="url(#a)" fill="#fff" stroke="#fff"/>
<g clip-path="url(#a)">
<g transform="translate(965.07 489.22) rotate(90) scale(.08 -.08)">
<use xlink:href="#l"/>
<use x="60.818359" xlink:href="#d"/>
<use x="122.341797" xlink:href="#h"/>
<use x="163.439453" xlink:href="#i"/>
<use x="260.851562" xlink:href="#f"/>
<use x="288.634766" xlink:href="#e"/>
<use x="352.013672" xlink:href="#j"/>
<use x="413.292969" xlink:href="#k"/>
</g>
</g>
<path d="m237.58 489.22v35.285q0 2.4 2.4 2.4h7.7425q2.4 0 2.4-2.4v-35.285q0-2.4-2.4-2.4h-7.7425q-2.4 0-2.4 2.4z" clip-path="url(#a)" fill="#fff" stroke="#fff"/>
<g clip-path="url(#a)">
<g transform="translate(241.64 489.22) rotate(90) scale(.08 -.08)">
<use xlink:href="#l"/>
<use x="60.818359" xlink:href="#d"/>
<use x="122.341797" xlink:href="#h"/>
<use x="163.439453" xlink:href="#i"/>
<use x="260.851562" xlink:href="#f"/>
<use x="288.634766" xlink:href="#e"/>
<use x="352.013672" xlink:href="#j"/>
<use x="413.292969" xlink:href="#k"/>
</g>
</g>
<path d="m334.03 295.3v5.4725q0 2.4 2.4 2.4h7.7425q2.4 0 2.4-2.4v-5.4725q0-2.4-2.4-2.4h-7.7425q-2.4 0-2.4 2.4z" clip-path="url(#a)" fill="#fff" stroke="#fff"/>
<g clip-path="url(#a)">
<g transform="translate(338.1 295.3) rotate(90) scale(.08 -.08)">
<use xlink:href="#q"/>
</g>
</g>
<path d="m334.03 347.52v5.0788q0 2.4 2.4 2.4h7.7425q2.4 0 2.4-2.4v-5.0788q0-2.4-2.4-2.4h-7.7425q-2.4 0-2.4 2.4z" clip-path="url(#a)" fill="#fff" stroke="#fff"/>
<g clip-path="url(#a)">
<defs>
<path id="ar" d="m53.516 70.516v-9.625q-5.6094 2.6875-10.594 4-4.9844 1.3281-9.625 1.3281-8.0469 0-12.422-3.125t-4.375-8.8906q0-4.8438 2.9062-7.3125 2.9062-2.4531 11.016-3.9688l5.9531-1.2188q11.031-2.1094 16.281-7.4062t5.25-14.172q0-10.609-7.1094-16.078-7.0938-5.4688-20.812-5.4688-5.1719 0-11.016 1.1719-5.8281 1.1719-12.078 3.4688v10.156q6-3.3594 11.766-5.0781 5.7656-1.7031 11.328-1.7031 8.4375 0 13.031 3.3125 4.5938 3.3281 4.5938 9.4844 0 5.3594-3.2969 8.3906t-10.812 4.5469l-6.0156 1.1719q-11.031 2.1875-15.969 6.875-4.9219 4.6875-4.9219 13.047 0 9.6719 6.8125 15.234t18.766 5.5625q5.1406 0 10.453-0.9375 5.3281-0.92188 10.891-2.7656z"/>
</defs>
<g transform="translate(338.1 347.52) rotate(90) scale(.08 -.08)">
<use xlink:href="#ar"/>
</g>
</g>
<path d="m480.85 354.86 1.9472-5.2065q0.8407-2.2479-1.4072-3.0886l-7.2519-2.7121q-2.2479-0.8407-3.0886 1.4072l-1.9472 5.2065q-0.8407 2.2479 1.4072 3.0886l7.2519 2.7121q2.2479 0.8407 3.0886-1.4072z" clip-path="url(#a)" fill="#fff" stroke="#fff"/>
<g clip-path="url(#a)">
<g transform="translate(477.04 353.44) rotate(-69.495) scale(.08 -.08)">
<use xlink:href="#v"/>
</g>
</g>
<path d="m505.91 353.46 0.71972-5.0035q0.3417-2.3756-2.0338-2.7173l-7.6636-1.1024q-2.3756-0.3417-2.7173 2.0338l-0.71972 5.0035q-0.3417 2.3756 2.0338 2.7173l7.6636 1.1024q2.3756 0.3417 2.7173-2.0338z" clip-path="url(#a)" fill="#fff" stroke="#fff"/>
<g clip-path="url(#a)">
<defs>
<path id="y" d="m9.8125 72.906h46.094v-8.3125h-36.234v-21.578h34.719v-8.2969h-34.719v-26.422h37.109v-8.2969h-46.969z"/>
</defs>
<g transform="translate(501.89 352.88) rotate(-81.815) scale(.08 -.08)">
<use xlink:href="#y"/>
</g>
</g>
<path d="m517.69 347.82 0.48034 5.5656q0.20636 2.3911 2.5975 2.1847l7.7138-0.66574q2.3911-0.20636 2.1847-2.5975l-0.48034-5.5656q-0.20637-2.3911-2.5975-2.1847l-7.7138 0.66574q-2.3911 0.20636-2.1847 2.5975z" clip-path="url(#a)" fill="#fff" stroke="#fff"/>
<g clip-path="url(#a)">
<g transform="translate(521.74 347.47) rotate(85.067) scale(.08 -.08)">
<use xlink:href="#t"/>
</g>
</g>
<path d="m553.94 300.2 3.2897 3.8381q1.5619 1.8222 3.3841 0.26034l5.8786-5.0387q1.8222-1.5619 0.26034-3.3841l-3.2897-3.8381q-1.5619-1.8222-3.3841-0.26034l-5.8786 5.0387q-1.8222 1.5619-0.26034 3.3841z" clip-path="url(#a)" fill="#fff" stroke="#fff"/>
<g clip-path="url(#a)">
<g transform="translate(557.03 297.55) rotate(49.399) scale(.08 -.08)">
<use xlink:href="#y"/>
</g>
</g>
<path d="m671.63 489.22v35.285q0 2.4 2.4 2.4h7.7425q2.4 0 2.4-2.4v-35.285q0-2.4-2.4-2.4h-7.7425q-2.4 0-2.4 2.4z" clip-path="url(#a)" fill="#fff" stroke="#fff"/>
<g clip-path="url(#a)">
<g transform="translate(675.7 489.22) rotate(90) scale(.08 -.08)">
<use xlink:href="#l"/>
<use x="60.818359" xlink:href="#d"/>
<use x="122.341797" xlink:href="#h"/>
<use x="163.439453" xlink:href="#i"/>
<use x="260.851562" xlink:href="#f"/>
<use x="288.634766" xlink:href="#e"/>
<use x="352.013672" xlink:href="#j"/>
<use x="413.292969" xlink:href="#k"/>
</g>
</g>
<path d="m719.86 489.22v35.285q0 2.4 2.4 2.4h7.7425q2.4 0 2.4-2.4v-35.285q0-2.4-2.4-2.4h-7.7425q-2.4 0-2.4 2.4z" clip-path="url(#a)" fill="#fff" stroke="#fff"/>
<g clip-path="url(#a)">
<g transform="translate(723.92 489.22) rotate(90) scale(.08 -.08)">
<use xlink:href="#l"/>
<use x="60.818359" xlink:href="#d"/>
<use x="122.341797" xlink:href="#h"/>
<use x="163.439453" xlink:href="#i"/>
<use x="260.851562" xlink:href="#f"/>
<use x="288.634766" xlink:href="#e"/>
<use x="352.013672" xlink:href="#j"/>
<use x="413.292969" xlink:href="#k"/>
</g>
</g>
<path d="m430.49 489.22v35.285q0 2.4 2.4 2.4h7.7425q2.4 0 2.4-2.4v-35.285q0-2.4-2.4-2.4h-7.7425q-2.4 0-2.4 2.4z" clip-path="url(#a)" fill="#fff" stroke="#fff"/>
<g clip-path="url(#a)">
<g transform="translate(434.56 489.22) rotate(90) scale(.08 -.08)">
<use xlink:href="#l"/>
<use x="60.818359" xlink:href="#d"/>
<use x="122.341797" xlink:href="#h"/>
<use x="163.439453" xlink:href="#i"/>
<use x="260.851562" xlink:href="#f"/>
<use x="288.634766" xlink:href="#e"/>
<use x="352.013672" xlink:href="#j"/>
<use x="413.292969" xlink:href="#k"/>
</g>
</g>
<path d="m478.72 489.22v35.285q0 2.4 2.4 2.4h7.7425q2.4 0 2.4-2.4v-35.285q0-2.4-2.4-2.4h-7.7425q-2.4 0-2.4 2.4z" clip-path="url(#a)" fill="#fff" stroke="#fff"/>
<g clip-path="url(#a)">
<g transform="translate(482.78 489.22) rotate(90) scale(.08 -.08)">
<use xlink:href="#l"/>
<use x="60.818359" xlink:href="#d"/>
<use x="122.341797" xlink:href="#h"/>
<use x="163.439453" xlink:href="#i"/>
<use x="260.851562" xlink:href="#f"/>
<use x="288.634766" xlink:href="#e"/>
<use x="352.013672" xlink:href="#j"/>
<use x="413.292969" xlink:href="#k"/>
</g>
</g>
<path d="m526.95 489.22v35.285q0 2.4 2.4 2.4h7.7425q2.4 0 2.4-2.4v-35.285q0-2.4-2.4-2.4h-7.7425q-2.4 0-2.4 2.4z" clip-path="url(#a)" fill="#fff" stroke="#fff"/>
<g clip-path="url(#a)">
<g transform="translate(531.01 489.22) rotate(90) scale(.08 -.08)">
<use xlink:href="#l"/>
<use x="60.818359" xlink:href="#d"/>
<use x="122.341797" xlink:href="#h"/>
<use x="163.439453" xlink:href="#i"/>
<use x="260.851562" xlink:href="#f"/>
<use x="288.634766" xlink:href="#e"/>
<use x="352.013672" xlink:href="#j"/>
<use x="413.292969" xlink:href="#k"/>
</g>
</g>
<path d="m598.99 406.94 1.255-5.4152q0.54184-2.338-1.7962-2.8799l-7.5426-1.748q-2.338-0.54184-2.8799 1.7962l-1.255 5.4152q-0.54184 2.338 1.7962 2.8799l7.5426 1.748q2.338 0.54184 2.8799-1.7962z" clip-path="url(#a)" fill="#fff" stroke="#fff"/>
<g clip-path="url(#a)">
<g transform="translate(595.03 406.02) rotate(-76.952) scale(.08 -.08)">
<use xlink:href="#v"/>
</g>
</g>
<path d="m610.88 401.51 1.2612 5.442q0.54184 2.338 2.8799 1.7962l7.5426-1.748q2.338-0.54184 1.7962-2.8799l-1.2612-5.442q-0.54184-2.338-2.8799-1.7962l-7.5426 1.748q-2.338 0.54184-1.7962 2.8799z" clip-path="url(#a)" fill="#fff" stroke="#fff"/>
<g clip-path="url(#a)">
<g transform="translate(614.84 400.59) rotate(76.952) scale(.08 -.08)">
<use xlink:href="#t"/>
</g>
</g>
<path d="m575.18 489.22v35.285q0 2.4 2.4 2.4h7.7425q2.4 0 2.4-2.4v-35.285q0-2.4-2.4-2.4h-7.7425q-2.4 0-2.4 2.4z" clip-path="url(#a)" fill="#fff" stroke="#fff"/>
<g clip-path="url(#a)">
<g transform="translate(579.24 489.22) rotate(90) scale(.08 -.08)">
<use xlink:href="#l"/>
<use x="60.818359" xlink:href="#d"/>
<use x="122.341797" xlink:href="#h"/>
<use x="163.439453" xlink:href="#i"/>
<use x="260.851562" xlink:href="#f"/>
<use x="288.634766" xlink:href="#e"/>
<use x="352.013672" xlink:href="#j"/>
<use x="413.292969" xlink:href="#k"/>
</g>
</g>
<path d="m623.4 489.22v35.285q0 2.4 2.4 2.4h7.7425q2.4 0 2.4-2.4v-35.285q0-2.4-2.4-2.4h-7.7425q-2.4 0-2.4 2.4z" clip-path="url(#a)" fill="#fff" stroke="#fff"/>
<g clip-path="url(#a)">
<g transform="translate(627.47 489.22) rotate(90) scale(.08 -.08)">
<use xlink:href="#l"/>
<use x="60.818359" xlink:href="#d"/>
<use x="122.341797" xlink:href="#h"/>
<use x="163.439453" xlink:href="#i"/>
<use x="260.851562" xlink:href="#f"/>
<use x="288.634766" xlink:href="#e"/>
<use x="352.013672" xlink:href="#j"/>
<use x="413.292969" xlink:href="#k"/>
</g>
</g>
<path d="m320.82 407.74 2.1257-4.5863q1.0093-2.1775-1.1682-3.1867l-7.0246-3.2559q-2.1775-1.0093-3.1867 1.1682l-2.1257 4.5863q-1.0093 2.1775 1.1682 3.1867l7.0246 3.2559q2.1775 1.0093 3.1867-1.1682z" clip-path="url(#a)" fill="#fff" stroke="#fff"/>
<g clip-path="url(#a)">
<g transform="translate(317.13 406.04) rotate(-65.132) scale(.08 -.08)">
<use xlink:href="#y"/>
</g>
</g>
<path d="m357.56 402.92 2.3491 5.0683q1.0093 2.1775 3.1867 1.1682l7.0246-3.2559q2.1775-1.0093 1.1682-3.1867l-2.3491-5.0683q-1.0093-2.1775-3.1867-1.1682l-7.0246 3.2559q-2.1775 1.0093-1.1682 3.1867z" clip-path="url(#a)" fill="#fff" stroke="#fff"/>
<g clip-path="url(#a)">
<g transform="translate(361.24 401.21) rotate(65.132) scale(.08 -.08)">
<use xlink:href="#t"/>
</g>
</g>
<path d="m334.03 489.22v35.285q0 2.4 2.4 2.4h7.7425q2.4 0 2.4-2.4v-35.285q0-2.4-2.4-2.4h-7.7425q-2.4 0-2.4 2.4z" clip-path="url(#a)" fill="#fff" stroke="#fff"/>
<g clip-path="url(#a)">
<g transform="translate(338.1 489.22) rotate(90) scale(.08 -.08)">
<use xlink:href="#l"/>
<use x="60.818359" xlink:href="#d"/>
<use x="122.341797" xlink:href="#h"/>
<use x="163.439453" xlink:href="#i"/>
<use x="260.851562" xlink:href="#f"/>
<use x="288.634766" xlink:href="#e"/>
<use x="352.013672" xlink:href="#j"/>
<use x="413.292969" xlink:href="#k"/>
</g>
</g>
<path d="m285.81 489.22v35.285q0 2.4 2.4 2.4h7.7425q2.4 0 2.4-2.4v-35.285q0-2.4-2.4-2.4h-7.7425q-2.4 0-2.4 2.4z" clip-path="url(#a)" fill="#fff" stroke="#fff"/>
<g clip-path="url(#a)">
<g transform="translate(289.87 489.22) rotate(90) scale(.08 -.08)">
<use xlink:href="#l"/>
<use x="60.818359" xlink:href="#d"/>
<use x="122.341797" xlink:href="#h"/>
<use x="163.439453" xlink:href="#i"/>
<use x="260.851562" xlink:href="#f"/>
<use x="288.634766" xlink:href="#e"/>
<use x="352.013672" xlink:href="#j"/>
<use x="413.292969" xlink:href="#k"/>
</g>
</g>
<path d="m382.26 489.22v35.285q0 2.4 2.4 2.4h7.7425q2.4 0 2.4-2.4v-35.285q0-2.4-2.4-2.4h-7.7425q-2.4 0-2.4 2.4z" clip-path="url(#a)" fill="#fff" stroke="#fff"/>
<g clip-path="url(#a)">
<g transform="translate(386.33 489.22) rotate(90) scale(.08 -.08)">
<use xlink:href="#l"/>
<use x="60.818359" xlink:href="#d"/>
<use x="122.341797" xlink:href="#h"/>
<use x="163.439453" xlink:href="#i"/>
<use x="260.851562" xlink:href="#f"/>
<use x="288.634766" xlink:href="#e"/>
<use x="352.013672" xlink:href="#j"/>
<use x="413.292969" xlink:href="#k"/>
</g>
</g>
<path d="m44.665 489.22v35.285q0 2.4 2.4 2.4h7.7425q2.4 0 2.4-2.4v-35.285q0-2.4-2.4-2.4h-7.7425q-2.4 0-2.4 2.4z" clip-path="url(#a)" fill="#fff" stroke="#fff"/>
<g clip-path="url(#a)">
<g transform="translate(48.729 489.22) rotate(90) scale(.08 -.08)">
<use xlink:href="#l"/>
<use x="60.818359" xlink:href="#d"/>
<use x="122.341797" xlink:href="#h"/>
<use x="163.439453" xlink:href="#i"/>
<use x="260.851562" xlink:href="#f"/>
<use x="288.634766" xlink:href="#e"/>
<use x="352.013672" xlink:href="#j"/>
<use x="413.292969" xlink:href="#k"/>
</g>
</g>
<path d="m92.893 489.22v35.285q0 2.4 2.4 2.4h7.7425q2.4 0 2.4-2.4v-35.285q0-2.4-2.4-2.4h-7.7425q-2.4 0-2.4 2.4z" clip-path="url(#a)" fill="#fff" stroke="#fff"/>
<g clip-path="url(#a)">
<g transform="translate(96.957 489.22) rotate(90) scale(.08 -.08)">
<use xlink:href="#l"/>
<use x="60.818359" xlink:href="#d"/>
<use x="122.341797" xlink:href="#h"/>
<use x="163.439453" xlink:href="#i"/>
<use x="260.851562" xlink:href="#f"/>
<use x="288.634766" xlink:href="#e"/>
<use x="352.013672" xlink:href="#j"/>
<use x="413.292969" xlink:href="#k"/>
</g>
</g>
<path d="m141.12 489.22v35.285q0 2.4 2.4 2.4h7.7425q2.4 0 2.4-2.4v-35.285q0-2.4-2.4-2.4h-7.7425q-2.4 0-2.4 2.4z" clip-path="url(#a)" fill="#fff" stroke="#fff"/>
<g clip-path="url(#a)">
<g transform="translate(145.19 489.22) rotate(90) scale(.08 -.08)">
<use xlink:href="#l"/>
<use x="60.818359" xlink:href="#d"/>
<use x="122.341797" xlink:href="#h"/>
<use x="163.439453" xlink:href="#i"/>
<use x="260.851562" xlink:href="#f"/>
<use x="288.634766" xlink:href="#e"/>
<use x="352.013672" xlink:href="#j"/>
<use x="413.292969" xlink:href="#k"/>
</g>
</g>
<path d="m768.09 489.22v35.285q0 2.4 2.4 2.4h7.7425q2.4 0 2.4-2.4v-35.285q0-2.4-2.4-2.4h-7.7425q-2.4 0-2.4 2.4z" clip-path="url(#a)" fill="#fff" stroke="#fff"/>
<g clip-path="url(#a)">
<g transform="translate(772.15 489.22) rotate(90) scale(.08 -.08)">
<use xlink:href="#l"/>
<use x="60.818359" xlink:href="#d"/>
<use x="122.341797" xlink:href="#h"/>
<use x="163.439453" xlink:href="#i"/>
<use x="260.851562" xlink:href="#f"/>
<use x="288.634766" xlink:href="#e"/>
<use x="352.013672" xlink:href="#j"/>
<use x="413.292969" xlink:href="#k"/>
</g>
</g>
<path d="m1057.5 489.22v35.285q0 2.4 2.4 2.4h7.7425q2.4 0 2.4-2.4v-35.285q0-2.4-2.4-2.4h-7.7425q-2.4 0-2.4 2.4z" clip-path="url(#a)" fill="#fff" stroke="#fff"/>
<g clip-path="url(#a)">
<g transform="translate(1061.5 489.22) rotate(90) scale(.08 -.08)">
<use xlink:href="#l"/>
<use x="60.818359" xlink:href="#d"/>
<use x="122.341797" xlink:href="#h"/>
<use x="163.439453" xlink:href="#i"/>
<use x="260.851562" xlink:href="#f"/>
<use x="288.634766" xlink:href="#e"/>
<use x="352.013672" xlink:href="#j"/>
<use x="413.292969" xlink:href="#k"/>
</g>
</g>
<defs>
<path id="b" d="m0 8.6603c2.2967 0 4.4997-0.9125 6.1237-2.5365 1.624-1.624 2.5365-3.827 2.5365-6.1237s-0.9125-4.4997-2.5365-6.1237c-1.624-1.624-3.827-2.5365-6.1237-2.5365s-4.4997 0.9125-6.1237 2.5365c-1.624 1.624-2.5365 3.827-2.5365 6.1237s0.9125 4.4997 2.5365 6.1237c1.624 1.624 3.827 2.5365 6.1237 2.5365z"/>
</defs>
<g clip-path="url(#a)">
<use x="50.936453" y="558.894072" fill="#ffffff" stroke="#ffffff" xlink:href="#b"/>
</g>
<g clip-path="url(#a)">
<use x="99.164727" y="558.894072" fill="#ffffff" stroke="#ffffff" xlink:href="#b"/>
</g>
<g clip-path="url(#a)">
<use x="147.393002" y="558.894072" fill="#ffffff" stroke="#ffffff" xlink:href="#b"/>
</g>
<g clip-path="url(#a)">
<use x="195.621276" y="558.894072" fill="#ffffff" stroke="#ffffff" xlink:href="#b"/>
</g>
<g clip-path="url(#a)">
<use x="243.84955" y="558.894072" fill="#ffffff" stroke="#ffffff" xlink:href="#b"/>
</g>
<g clip-path="url(#a)">
<use x="292.077825" y="558.894072" fill="#ffffff" stroke="#ffffff" xlink:href="#b"/>
</g>
<g clip-path="url(#a)">
<use x="340.306099" y="558.894072" fill="#ffffff" stroke="#ffffff" xlink:href="#b"/>
</g>
<g clip-path="url(#a)">
<use x="388.534373" y="558.894072" fill="#ffffff" stroke="#ffffff" xlink:href="#b"/>
</g>
<g clip-path="url(#a)">
<use x="436.762648" y="558.894072" fill="#ffffff" stroke="#ffffff" xlink:href="#b"/>
</g>
<g clip-path="url(#a)">
<use x="484.990922" y="558.894072" fill="#ffffff" stroke="#ffffff" xlink:href="#b"/>
</g>
<g clip-path="url(#a)">
<use x="533.219196" y="558.894072" fill="#ffffff" stroke="#ffffff" xlink:href="#b"/>
</g>
<g clip-path="url(#a)">
<use x="581.44747" y="558.894072" fill="#ffffff" stroke="#ffffff" xlink:href="#b"/>
</g>
<g clip-path="url(#a)">
<use x="629.675745" y="558.894072" fill="#ffffff" stroke="#ffffff" xlink:href="#b"/>
</g>
<g clip-path="url(#a)">
<use x="677.904019" y="558.894072" fill="#ffffff" stroke="#ffffff" xlink:href="#b"/>
</g>
<g clip-path="url(#a)">
<use x="726.132293" y="558.894072" fill="#ffffff" stroke="#ffffff" xlink:href="#b"/>
</g>
<g clip-path="url(#a)">
<use x="774.360568" y="558.894072" fill="#ffffff" stroke="#ffffff" xlink:href="#b"/>
</g>
<g clip-path="url(#a)">
<use x="822.588842" y="558.894072" fill="#ffffff" stroke="#ffffff" xlink:href="#b"/>
</g>
<g clip-path="url(#a)">
<use x="870.817116" y="558.894072" fill="#ffffff" stroke="#ffffff" xlink:href="#b"/>
</g>
<g clip-path="url(#a)">
<use x="919.045391" y="558.894072" fill="#ffffff" stroke="#ffffff" xlink:href="#b"/>
</g>
<g clip-path="url(#a)">
<use x="967.273665" y="558.894072" fill="#ffffff" stroke="#ffffff" xlink:href="#b"/>
</g>
<g clip-path="url(#a)">
<use x="1015.501939" y="558.894072" fill="#ffffff" stroke="#ffffff" xlink:href="#b"/>
</g>
<g clip-path="url(#a)">
<use x="1063.730214" y="558.894072" fill="#ffffff" stroke="#ffffff" xlink:href="#b"/>
</g>
<g clip-path="url(#a)">
<use x="466.560831" y="27.772595" fill="#ffffff" stroke="#ffffff" xlink:href="#b"/>
</g>
<g clip-path="url(#a)">
<use x="75.05059" y="350.787728" fill="#ffffff" stroke="#ffffff" xlink:href="#b"/>
</g>
<g clip-path="url(#a)">
<use x="195.621276" y="454.8409" fill="#ffffff" stroke="#ffffff" xlink:href="#b"/>
</g>
<g clip-path="url(#a)">
<use x="500.665111" y="137.754901" fill="#ffffff" stroke="#ffffff" xlink:href="#b"/>
</g>
<g clip-path="url(#a)">
<use x="822.588842" y="454.8409" fill="#ffffff" stroke="#ffffff" xlink:href="#b"/>
</g>
<g clip-path="url(#a)">
<use x="750.246431" y="245.287062" fill="#ffffff" stroke="#ffffff" xlink:href="#b"/>
</g>
<g clip-path="url(#a)">
<use x="943.159528" y="454.8409" fill="#ffffff" stroke="#ffffff" xlink:href="#b"/>
</g>
<g clip-path="url(#a)">
<use x="943.159528" y="350.787728" fill="#ffffff" stroke="#ffffff" xlink:href="#b"/>
</g>
<g clip-path="url(#a)">
<use x="919.045391" y="454.8409" fill="#ffffff" stroke="#ffffff" xlink:href="#b"/>
</g>
<g clip-path="url(#a)">
<use x="967.273665" y="454.8409" fill="#ffffff" stroke="#ffffff" xlink:href="#b"/>
</g>
<g clip-path="url(#a)">
<use x="243.84955" y="454.8409" fill="#ffffff" stroke="#ffffff" xlink:href="#b"/>
</g>
<g clip-path="url(#a)">
<use x="340.306099" y="245.287062" fill="#ffffff" stroke="#ffffff" xlink:href="#b"/>
</g>
<g clip-path="url(#a)">
<use x="515.133593" y="245.287062" fill="#ffffff" stroke="#ffffff" xlink:href="#b"/>
</g>
<g clip-path="url(#a)">
<use x="677.904019" y="454.8409" fill="#ffffff" stroke="#ffffff" xlink:href="#b"/>
</g>
<g clip-path="url(#a)">
<use x="726.132293" y="454.8409" fill="#ffffff" stroke="#ffffff" xlink:href="#b"/>
</g>
<g clip-path="url(#a)">
<use x="436.762648" y="454.8409" fill="#ffffff" stroke="#ffffff" xlink:href="#b"/>
</g>
<g clip-path="url(#a)">
<use x="484.990922" y="454.8409" fill="#ffffff" stroke="#ffffff" xlink:href="#b"/>
</g>
<g clip-path="url(#a)">
<use x="533.219196" y="454.8409" fill="#ffffff" stroke="#ffffff" xlink:href="#b"/>
</g>
<g clip-path="url(#a)">
<use x="605.561608" y="350.787728" fill="#ffffff" stroke="#ffffff" xlink:href="#b"/>
</g>
<g clip-path="url(#a)">
<use x="581.44747" y="454.8409" fill="#ffffff" stroke="#ffffff" xlink:href="#b"/>
</g>
<g clip-path="url(#a)">
<use x="629.675745" y="454.8409" fill="#ffffff" stroke="#ffffff" xlink:href="#b"/>
</g>
<g clip-path="url(#a)">
<use x="340.306099" y="350.787728" fill="#ffffff" stroke="#ffffff" xlink:href="#b"/>
</g>
<g clip-path="url(#a)">
<use x="340.306099" y="454.8409" fill="#ffffff" stroke="#ffffff" xlink:href="#b"/>
</g>
<g clip-path="url(#a)">
<use x="292.077825" y="454.8409" fill="#ffffff" stroke="#ffffff" xlink:href="#b"/>
</g>
<g clip-path="url(#a)">
<use x="388.534373" y="454.8409" fill="#ffffff" stroke="#ffffff" xlink:href="#b"/>
</g>
<g clip-path="url(#a)">
<use x="50.936453" y="454.8409" fill="#ffffff" stroke="#ffffff" xlink:href="#b"/>
</g>
<g clip-path="url(#a)">
<use x="99.164727" y="454.8409" fill="#ffffff" stroke="#ffffff" xlink:href="#b"/>
</g>
<g clip-path="url(#a)">
<use x="147.393002" y="454.8409" fill="#ffffff" stroke="#ffffff" xlink:href="#b"/>
</g>
<g clip-path="url(#a)">
<use x="774.360568" y="454.8409" fill="#ffffff" stroke="#ffffff" xlink:href="#b"/>
</g>
<g clip-path="url(#a)">
<use x="1063.730214" y="454.8409" fill="#ffffff" stroke="#ffffff" xlink:href="#b"/>
</g>
<g clip-path="url(#a)">
<defs>
<path id="as" d="m9.8125 72.906h9.8594v-72.906h-9.8594z"/>
<path id="af" d="m48.781 52.594v-8.4062q-3.8125 2.1094-7.6406 3.1562t-7.7344 1.0469q-8.75 0-13.594-5.5469-4.8281-5.5312-4.8281-15.547t4.8281-15.562q4.8438-5.5312 13.594-5.5312 3.9062 0 7.7344 1.0469t7.6406 3.1562v-8.3125q-3.7656-1.75-7.7969-2.625-4.0156-0.89062-8.5625-0.89062-12.359 0-19.641 7.7656-7.2656 7.7656-7.2656 20.953 0 13.375 7.3438 21.031 7.3594 7.6719 20.156 7.6719 4.1406 0 8.0938-0.85938 3.9531-0.84375 7.6719-2.5469z"/>
<path id="s" d="m54.891 33.016v-33.016h-8.9844v32.719q0 7.7656-3.0312 11.609-3.0312 3.8594-9.0781 3.8594-7.2812 0-11.484-4.6406-4.2031-4.625-4.2031-12.641v-30.906h-9.0312v75.984h9.0312v-29.797q3.2344 4.9375 7.5938 7.375 4.375 2.4375 10.094 2.4375 9.4219 0 14.25-5.8281 4.8438-5.8281 4.8438-17.156z"/>
</defs>
<g transform="translate(43.543 561.65) scale(.1 -.1)">
<use xlink:href="#as"/>
<use x="29.492188" xlink:href="#af"/>
<use x="84.472656" xlink:href="#s"/>
</g>
</g>
<g clip-path="url(#a)">
<defs>
<path id="ad" d="m5.5156 54.688h42.672v-8.2031l-33.781-39.312h33.781v-7.1719h-43.891v8.2031l33.797 39.312h-32.578z"/>
<path id="n" d="m18.312 70.219v-15.531h18.5v-6.9844h-18.5v-29.688q0-6.6875 1.8281-8.5938t7.4531-1.9062h9.2188v-7.5156h-9.2188q-10.406 0-14.359 3.875-3.9531 3.8906-3.9531 14.141v29.688h-6.5938v6.9844h6.5938v15.531z"/>
</defs>
<g transform="translate(81.062 561.65) scale(.1 -.1)">
<use xlink:href="#ad"/>
<use x="52.490234" xlink:href="#f"/>
<use x="80.273438" xlink:href="#n"/>
<use x="119.482422" xlink:href="#n"/>
<use x="158.691406" xlink:href="#d"/>
<use x="220.214844" xlink:href="#h"/>
<use x="261.328125" xlink:href="#n"/>
<use x="300.537109" xlink:href="#d"/>
</g>
</g>
<g clip-path="url(#a)">
<defs>
<path id="am" d="m11.719 12.406h10.297v-8.4062l-8-15.625h-6.2969l4 15.625z"/>
</defs>
<g transform="translate(145.8 561.65) scale(.1 -.1)">
<use xlink:href="#am"/>
</g>
</g>
<g clip-path="url(#a)">
<defs>
<path id="p" d="m44.281 53.078v-8.5q-3.7969 1.9531-7.9062 2.9219-4.0938 0.98438-8.5 0.98438-6.6875 0-10.031-2.0469t-3.3438-6.1562q0-3.125 2.3906-4.9062t9.625-3.3906l3.0781-0.6875q9.5625-2.0469 13.594-5.7812t4.0312-10.422q0-7.625-6.0312-12.078-6.0312-4.4375-16.578-4.4375-4.3906 0-9.1562 0.85938t-10.031 2.5625v9.2812q4.9844-2.5938 9.8125-3.8906 4.8281-1.2812 9.5781-1.2812 6.3438 0 9.75 2.1719 3.4219 2.1719 3.4219 6.125 0 3.6562-2.4688 5.6094-2.4531 1.9531-10.812 3.7656l-3.125 0.73438q-8.3438 1.75-12.062 5.3906-3.7031 3.6406-3.7031 9.9844 0 7.7188 5.4688 11.906 5.4688 4.2031 15.531 4.2031 4.9688 0 9.3594-0.73438 4.4062-0.71875 8.1094-2.1875z"/>
</defs>
<g transform="translate(188.56 561.65) scale(.1 -.1)">
<use xlink:href="#j"/>
<use x="61.279297" xlink:href="#k"/>
<use x="89.0625" xlink:href="#p"/>
</g>
</g>
<g clip-path="url(#a)">
<defs>
<path id="av" d="m34.281 27.484q-10.891 0-15.094-2.4844t-4.2031-8.5q0-4.7812 3.1562-7.5938 3.1562-2.7969 8.5625-2.7969 7.4844 0 12 5.2969t4.5156 14.078v2zm17.922 3.7188v-31.203h-8.9844v8.2969q-3.0781-4.9688-7.6719-7.3438t-11.234-2.375q-8.3906 0-13.359 4.7188-4.9531 4.7188-4.9531 12.625 0 9.2188 6.1719 13.906 6.1875 4.6875 18.438 4.6875h12.609v0.89062q0 6.2031-4.0781 9.5938t-11.453 3.3906q-4.6875 0-9.1406-1.125-4.4375-1.125-8.5312-3.375v8.3125q4.9219 1.9062 9.5625 2.8438 4.6406 0.95312 9.0312 0.95312 11.875 0 17.734-6.1562 5.8594-6.1406 5.8594-18.641zm-18.609 44.578h9.9062v-9.8594h-9.9062zm-19.094 0h9.9062v-9.8594h-9.9062z"/>
</defs>
<g transform="translate(230.62 561.65) scale(.1 -.1)">
<use xlink:href="#s"/>
<use x="63.378906" xlink:href="#av"/>
<use x="124.658203" xlink:href="#n"/>
<use x="163.867188" xlink:href="#n"/>
<use x="203.076172" xlink:href="#d"/>
</g>
</g>
<g clip-path="url(#a)">
<g transform="translate(284.44 561.65) scale(.1 -.1)">
<use xlink:href="#d"/>
<use x="61.523438" xlink:href="#f"/>
<use x="89.306641" xlink:href="#e"/>
</g>
</g>
<g clip-path="url(#a)">
<defs>
<path id="r" d="m8.5 21.578v33.109h8.9844v-32.766q0-7.7656 3.0156-11.656 3.0312-3.875 9.0938-3.875 7.2656 0 11.484 4.6406 4.2344 4.6406 4.2344 12.656v31h8.9844v-54.688h-8.9844v8.4062q-3.2656-4.9844-7.5938-7.4062-4.3125-2.4219-10.031-2.4219-9.4219 0-14.312 5.8594-4.875 5.8594-4.875 17.141z"/>
<path id="ap" d="m48.688 27.297q0 9.9062-4.0781 15.547t-11.203 5.6406q-7.1406 0-11.219-5.6406t-4.0781-15.547 4.0781-15.547 11.219-5.6406q7.125 0 11.203 5.6406t4.0781 15.547zm-30.578 19.094q2.8438 4.875 7.1562 7.2344 4.3281 2.375 10.328 2.375 9.9688 0 16.188-7.9062 6.2344-7.9062 6.2344-20.797t-6.2344-20.812q-6.2188-7.9062-16.188-7.9062-6 0-10.328 2.375-4.3125 2.375-7.1562 7.25v-8.2031h-9.0312v75.984h9.0312z"/>
</defs>
<g transform="translate(308.12 561.65) scale(.1 -.1)">
<use xlink:href="#r"/>
<use x="63.378906" xlink:href="#e"/>
<use x="126.757812" xlink:href="#p"/>
<use x="178.857422" xlink:href="#f"/>
<use x="206.640625" xlink:href="#af"/>
<use x="261.621094" xlink:href="#s"/>
<use x="325" xlink:href="#n"/>
<use x="364.208984" xlink:href="#ap"/>
<use x="427.685547" xlink:href="#j"/>
<use x="488.964844" xlink:href="#h"/>
<use x="530.046875" xlink:href="#d"/>
<use x="591.570312" xlink:href="#p"/>
</g>
</g>
<g clip-path="url(#a)">
<defs>
<path id="ao" d="m45.406 27.984q0 9.7656-4.0312 15.125-4.0156 5.375-11.297 5.375-7.2188 0-11.25-5.375-4.0312-5.3594-4.0312-15.125 0-9.7188 4.0312-15.094t11.25-5.375q7.2812 0 11.297 5.375 4.0312 5.375 4.0312 15.094zm8.9844-21.203q0-13.953-6.2031-20.766-6.1875-6.8125-18.984-6.8125-4.7344 0-8.9375 0.70312t-8.1562 2.1719v8.7344q3.9531-2.1406 7.8125-3.1562 3.8594-1.0312 7.8594-1.0312 8.8438 0 13.234 4.6094t4.3906 13.938v4.4531q-2.7812-4.8438-7.125-7.2344t-10.406-2.3906q-10.047 0-16.203 7.6562-6.1562 7.6719-6.1562 20.328 0 12.688 6.1562 20.344 6.1562 7.6719 16.203 7.6719 6.0625 0 10.406-2.3906t7.125-7.2188v8.2969h8.9844z"/>
</defs>
<g transform="translate(375.69 561.65) scale(.1 -.1)">
<use xlink:href="#q"/>
<use x="68.408203" xlink:href="#r"/>
<use x="131.787109" xlink:href="#ao"/>
<use x="195.263672" xlink:href="#d"/>
</g>
</g>
<g clip-path="url(#a)">
<g transform="translate(429.6 561.65) scale(.1 -.1)">
<use xlink:href="#f"/>
<use x="27.783203" xlink:href="#e"/>
<use x="91.162109" xlink:href="#p"/>
</g>
</g>
<g clip-path="url(#a)">
<defs>
<path id="aw" d="m37.109 75.984v-7.4844h-8.5938q-4.8281 0-6.7188-1.9531-1.875-1.9531-1.875-7.0312v-4.8281h14.797v-6.9844h-14.797v-47.703h-9.0312v47.703h-8.5938v6.9844h8.5938v3.8125q0 9.125 4.25 13.297 4.25 4.1875 13.469 4.1875z"/>
</defs>
<g transform="translate(469.16 561.65) scale(.1 -.1)">
<use xlink:href="#n"/>
<use x="39.208984" xlink:href="#f"/>
<use x="66.992188" xlink:href="#d"/>
<use x="128.515625" xlink:href="#aw"/>
<use x="163.720703" xlink:href="#p"/>
<use x="215.820312" xlink:href="#n"/>
<use x="255.029297" xlink:href="#d"/>
</g>
</g>
<g clip-path="url(#a)">
<defs>
<path id="ah" d="m59.516 10.406v19.578h-16.109v8.1094h25.875v-31.312q-5.7031-4.0469-12.594-6.125-6.875-2.0781-14.688-2.0781-17.094 0-26.75 9.9844-9.6406 10-9.6406 27.812 0 17.875 9.6406 27.859 9.6562 9.9844 26.75 9.9844 7.125 0 13.547-1.7656 6.4219-1.75 11.844-5.1719v-10.5q-5.4688 4.6406-11.625 6.9844t-12.938 2.3438q-13.391 0-20.109-7.4688-6.7031-7.4688-6.7031-22.266 0-14.75 6.7031-22.219 6.7188-7.4688 20.109-7.4688 5.2188 0 9.3125 0.90625 4.1094 0.90625 7.375 2.8125z"/>
</defs>
<g transform="translate(506.6 561.65) scale(.1 -.1)">
<use xlink:href="#ah"/>
<use x="77.490234" xlink:href="#d"/>
<use x="139.013672" xlink:href="#s"/>
<use x="202.392578" xlink:href="#d"/>
<use x="263.916016" xlink:href="#f"/>
<use x="291.699219" xlink:href="#i"/>
<use x="389.111328" xlink:href="#e"/>
<use x="452.490234" xlink:href="#f"/>
<use x="480.273438" xlink:href="#p"/>
</g>
</g>
<g clip-path="url(#a)">
<g transform="translate(563.81 561.65) scale(.1 -.1)">
<use xlink:href="#i"/>
<use x="97.412109" xlink:href="#d"/>
<use x="158.935547" xlink:href="#f"/>
<use x="186.71875" xlink:href="#e"/>
<use x="250.097656" xlink:href="#d"/>
<use x="311.621094" xlink:href="#h"/>
</g>
</g>
<g clip-path="url(#a)">
<defs>
<path id="ae" d="m45.406 46.391v29.594h8.9844v-75.984h-8.9844v8.2031q-2.8281-4.875-7.1562-7.25-4.3125-2.375-10.375-2.375-9.9062 0-16.141 7.9062-6.2188 7.9219-6.2188 20.812t6.2188 20.797q6.2344 7.9062 16.141 7.9062 6.0625 0 10.375-2.375 4.3281-2.3594 7.1562-7.2344zm-30.609-19.094q0-9.9062 4.0781-15.547t11.203-5.6406 11.219 5.6406q4.1094 5.6406 4.1094 15.547t-4.1094 15.547q-4.0938 5.6406-11.219 5.6406t-11.203-5.6406-4.0781-15.547z"/>
<path id="an" d="m9.0781 75.984h9.0312v-44.875l26.812 23.578h11.469l-29-25.578 30.234-29.109h-11.719l-27.797 26.703v-26.703h-9.0312z"/>
</defs>
<g transform="translate(604.18 561.65) scale(.1 -.1)">
<use xlink:href="#ah"/>
<use x="77.490234" xlink:href="#d"/>
<use x="139.013672" xlink:href="#ae"/>
<use x="202.490234" xlink:href="#j"/>
<use x="263.769531" xlink:href="#e"/>
<use x="327.148438" xlink:href="#an"/>
<use x="385.011719" xlink:href="#d"/>
<use x="446.535156" xlink:href="#e"/>
</g>
</g>
<g clip-path="url(#a)">
<g transform="translate(658.7 561.65) scale(.1 -.1)">
<use xlink:href="#ae"/>
<use x="63.476562" xlink:href="#h"/>
<use x="104.589844" xlink:href="#f"/>
<use x="132.373047" xlink:href="#e"/>
<use x="195.751953" xlink:href="#ao"/>
<use x="259.228516" xlink:href="#d"/>
<use x="320.751953" xlink:href="#e"/>
</g>
</g>
<g clip-path="url(#a)">
<defs>
<path id="au" d="m30.609 48.391q-7.2188 0-11.422-5.6406t-4.2031-15.453 4.1719-15.453q4.1875-5.6406 11.453-5.6406 7.1875 0 11.375 5.6562 4.2031 5.6719 4.2031 15.438 0 9.7188-4.2031 15.406-4.1875 5.6875-11.375 5.6875zm0 7.6094q11.719 0 18.406-7.625 6.7031-7.6094 6.7031-21.078 0-13.422-6.7031-21.078-6.6875-7.6406-18.406-7.6406-11.766 0-18.438 7.6406-6.6562 7.6562-6.6562 21.078 0 13.469 6.6562 21.078 6.6719 7.625 18.438 7.625zm4.6094 19.781h9.9062v-9.8594h-9.9062zm-19.094 0h9.9062v-9.8594h-9.9062z"/>
</defs>
<g transform="translate(707.6 561.65) scale(.1 -.1)">
<use xlink:href="#an"/>
<use x="57.863281" xlink:href="#au"/>
<use x="119.044922" xlink:href="#e"/>
<use x="182.423828" xlink:href="#e"/>
<use x="245.802734" xlink:href="#d"/>
<use x="307.326172" xlink:href="#e"/>
</g>
</g>
<g clip-path="url(#a)">
<g transform="translate(772.77 561.65) scale(.1 -.1)">
<use xlink:href="#am"/>
</g>
</g>
<g clip-path="url(#a)">
<g transform="translate(813.08 561.65) scale(.1 -.1)">
<use xlink:href="#r"/>
<use x="63.378906" xlink:href="#e"/>
<use x="126.757812" xlink:href="#ae"/>
</g>
</g>
<g clip-path="url(#a)">
<defs>
<path id="at" d="m8.5 21.578v33.109h8.9844v-32.766q0-7.7656 3.0156-11.656 3.0312-3.875 9.0938-3.875 7.2656 0 11.484 4.6406 4.2344 4.6406 4.2344 12.656v31h8.9844v-54.688h-8.9844v8.4062q-3.2656-4.9844-7.5938-7.4062-4.3125-2.4219-10.031-2.4219-9.4219 0-14.312 5.8594-4.875 5.8594-4.875 17.141zm22.609 34.422m4.4844 19.781h9.9062v-9.8594h-9.9062zm-19.094 0h9.9062v-9.8594h-9.9062z"/>
</defs>
<g transform="translate(853.37 561.65) scale(.1 -.1)">
<use xlink:href="#p"/>
<use x="52.099609" xlink:href="#n"/>
<use x="91.308594" xlink:href="#at"/>
<use x="154.6875" xlink:href="#h"/>
<use x="195.800781" xlink:href="#ad"/>
<use x="248.291016" xlink:href="#n"/>
<use x="287.5" xlink:href="#d"/>
</g>
</g>
<g clip-path="url(#a)">
<g transform="translate(908.38 561.65) scale(.1 -.1)">
<use xlink:href="#ad"/>
<use x="52.490234" xlink:href="#r"/>
<use x="115.869141" xlink:href="#i"/>
</g>
</g>
<g clip-path="url(#a)">
<defs>
<path id="aq" d="m5.6094 72.906h57.281v-7.5312l-46.094-57.078h47.219v-8.2969h-59.516v7.5156l46.094 57.078h-44.984z"/>
</defs>
<g transform="translate(947.59 561.65) scale(.1 -.1)">
<use xlink:href="#aq"/>
<use x="68.505859" xlink:href="#f"/>
<use x="96.289062" xlink:href="#i"/>
<use x="193.701172" xlink:href="#i"/>
<use x="291.113281" xlink:href="#d"/>
<use x="352.636719" xlink:href="#h"/>
</g>
</g>
<g clip-path="url(#a)">
<g transform="translate(998.94 561.65) scale(.1 -.1)">
<use xlink:href="#s"/>
<use x="63.378906" xlink:href="#f"/>
<use x="91.162109" xlink:href="#e"/>
<use x="154.541016" xlink:href="#j"/>
<use x="215.820312" xlink:href="#r"/>
<use x="279.199219" xlink:href="#p"/>
</g>
</g>
<g clip-path="url(#a)">
<defs>
<path id="g" d="m10.688 12.406h10.312v-12.406h-10.312z"/>
</defs>
<g transform="translate(1062.1 561.65) scale(.1 -.1)">
<use xlink:href="#g"/>
</g>
</g>
<g clip-path="url(#a)">
<defs>
<path id="c" d="m12.406 8.2969h16.109v55.625l-17.531-3.5156v8.9844l17.438 3.5156h9.8594v-64.609h16.109v-8.2969h-41.984z"/>
</defs>
<g transform="translate(458.61 30.532) scale(.1 -.1)">
<use xlink:href="#c"/>
<use x="63.623047" xlink:href="#g"/>
<use x="95.410156" xlink:href="#c"/>
</g>
</g>
<g clip-path="url(#a)">
<defs>
<path id="m" d="m19.188 8.2969h34.422v-8.2969h-46.281v8.2969q5.6094 5.8125 15.297 15.594 9.7031 9.7969 12.188 12.641 4.7344 5.3125 6.6094 9 1.8906 3.6875 1.8906 7.25 0 5.8125-4.0781 9.4688-4.0781 3.6719-10.625 3.6719-4.6406 0-9.7969-1.6094-5.1406-1.6094-11-4.8906v9.9688q5.9531 2.3906 11.125 3.6094 5.1875 1.2188 9.4844 1.2188 11.328 0 18.062-5.6719 6.7344-5.6562 6.7344-15.125 0-4.5-1.6875-8.5312-1.6719-4.0156-6.125-9.4844-1.2188-1.4219-7.7656-8.1875-6.5312-6.7656-18.453-18.922z"/>
</defs>
<g transform="translate(67.099 353.55) scale(.1 -.1)">
<use xlink:href="#c"/>
<use x="63.623047" xlink:href="#g"/>
<use x="95.410156" xlink:href="#m"/>
</g>
</g>
<g clip-path="url(#a)">
<defs>
<path id="o" d="m40.578 39.312q7.0781-1.5156 11.047-6.3125 3.9844-4.7812 3.9844-11.812 0-10.781-7.4219-16.703-7.4219-5.9062-21.094-5.9062-4.5781 0-9.4375 0.90625t-10.031 2.7188v9.5156q4.0938-2.3906 8.9688-3.6094 4.8906-1.2188 10.219-1.2188 9.2656 0 14.125 3.6562t4.8594 10.641q0 6.4531-4.5156 10.078-4.5156 3.6406-12.562 3.6406h-8.5v8.1094h8.8906q7.2656 0 11.125 2.9062t3.8594 8.375q0 5.6094-3.9844 8.6094-3.9688 3.0156-11.391 3.0156-4.0625 0-8.7031-0.89062-4.6406-0.875-10.203-2.7188v8.7812q5.625 1.5625 10.531 2.3438t9.25 0.78125q11.234 0 17.766-5.1094 6.5469-5.0938 6.5469-13.781 0-6.0625-3.4688-10.234t-9.8594-5.7812z"/>
</defs>
<g transform="translate(187.67 457.6) scale(.1 -.1)">
<use xlink:href="#c"/>
<use x="63.623047" xlink:href="#g"/>
<use x="95.410156" xlink:href="#o"/>
</g>
</g>
<g clip-path="url(#a)">
<defs>
<path id="ab" d="m37.797 64.312-24.906-38.922h24.906zm-2.5938 8.5938h12.406v-47.516h10.406v-8.2031h-10.406v-17.188h-9.8125v17.188h-32.906v9.5156z"/>
</defs>
<g transform="translate(492.71 140.51) scale(.1 -.1)">
<use xlink:href="#c"/>
<use x="63.623047" xlink:href="#g"/>
<use x="95.410156" xlink:href="#ab"/>
</g>
</g>
<g clip-path="url(#a)">
<defs>
<path id="aa" d="m10.797 72.906h38.719v-8.3125h-29.688v-17.859q2.1406 0.73438 4.2812 1.0938 2.1562 0.35938 4.3125 0.35938 12.203 0 19.328-6.6875 7.1406-6.6875 7.1406-18.109 0-11.766-7.3281-18.297-7.3281-6.5156-20.656-6.5156-4.5938 0-9.3594 0.78125-4.75 0.78125-9.8281 2.3438v9.9219q4.3906-2.3906 9.0781-3.5625t9.9062-1.1719q8.4531 0 13.375 4.4375 4.9375 4.4375 4.9375 12.062 0 7.6094-4.9375 12.047-4.9219 4.4531-13.375 4.4531-3.9531 0-7.8906-0.875-3.9219-0.875-8.0156-2.7344z"/>
</defs>
<g transform="translate(814.64 457.6) scale(.1 -.1)">
<use xlink:href="#c"/>
<use x="63.623047" xlink:href="#g"/>
<use x="95.410156" xlink:href="#aa"/>
</g>
</g>
<g clip-path="url(#a)">
<defs>
<path id="z" d="m33.016 40.375q-6.6406 0-10.531-4.5469-3.875-4.5312-3.875-12.438 0-7.8594 3.875-12.438 3.8906-4.5625 10.531-4.5625t10.516 4.5625q3.875 4.5781 3.875 12.438 0 7.9062-3.875 12.438-3.875 4.5469-10.516 4.5469zm19.578 30.922v-8.9844q-3.7188 1.75-7.5 2.6719-3.7812 0.9375-7.5 0.9375-9.7656 0-14.922-6.5938-5.1406-6.5938-5.875-19.922 2.875 4.25 7.2188 6.5156 4.3594 2.2656 9.5781 2.2656 10.984 0 17.359-6.6719 6.375-6.6562 6.375-18.125 0-11.234-6.6406-18.031-6.6406-6.7812-17.672-6.7812-12.656 0-19.344 9.6875-6.6875 9.7031-6.6875 28.109 0 17.281 8.2031 27.562t22.016 10.281q3.7188 0 7.5-0.73438t7.8906-2.1875z"/>
</defs>
<g transform="translate(742.29 248.05) scale(.1 -.1)">
<use xlink:href="#c"/>
<use x="63.623047" xlink:href="#g"/>
<use x="95.410156" xlink:href="#z"/>
</g>
</g>
<g clip-path="url(#a)">
<defs>
<path id="ac" d="m31.781 66.406q-7.6094 0-11.453-7.5-3.8281-7.4844-3.8281-22.531 0-14.984 3.8281-22.484 3.8438-7.5 11.453-7.5 7.6719 0 11.5 7.5 3.8438 7.5 3.8438 22.484 0 15.047-3.8438 22.531-3.8281 7.5-11.5 7.5zm0 7.8125q12.266 0 18.734-9.7031 6.4688-9.6875 6.4688-28.141 0-18.406-6.4688-28.109-6.4688-9.6875-18.734-9.6875-12.25 0-18.719 9.6875-6.4688 9.7031-6.4688 28.109 0 18.453 6.4688 28.141 6.4688 9.7031 18.719 9.7031z"/>
</defs>
<g transform="translate(932.03 457.6) scale(.1 -.1)">
<use xlink:href="#c"/>
<use x="63.623047" xlink:href="#g"/>
<use x="95.410156" xlink:href="#c"/>
<use x="159.033203" xlink:href="#ac"/>
</g>
</g>
<g clip-path="url(#a)">
<g transform="translate(932.03 353.55) scale(.1 -.1)">
<use xlink:href="#c"/>
<use x="63.623047" xlink:href="#g"/>
<use x="95.410156" xlink:href="#c"/>
<use x="159.033203" xlink:href="#c"/>
</g>
</g>
<g clip-path="url(#a)">
<g transform="translate(907.91 457.6) scale(.1 -.1)">
<use xlink:href="#c"/>
<use x="63.623047" xlink:href="#g"/>
<use x="95.410156" xlink:href="#c"/>
<use x="159.033203" xlink:href="#m"/>
</g>
</g>
<g clip-path="url(#a)">
<g transform="translate(956.14 457.6) scale(.1 -.1)">
<use xlink:href="#c"/>
<use x="63.623047" xlink:href="#g"/>
<use x="95.410156" xlink:href="#c"/>
<use x="159.033203" xlink:href="#o"/>
</g>
</g>
<g clip-path="url(#a)">
<g transform="translate(232.72 457.6) scale(.1 -.1)">
<use xlink:href="#c"/>
<use x="63.623047" xlink:href="#g"/>
<use x="95.410156" xlink:href="#c"/>
<use x="159.033203" xlink:href="#ab"/>
</g>
</g>
<g clip-path="url(#a)">
<g transform="translate(329.17 248.05) scale(.1 -.1)">
<use xlink:href="#c"/>
<use x="63.623047" xlink:href="#g"/>
<use x="95.410156" xlink:href="#c"/>
<use x="159.033203" xlink:href="#aa"/>
</g>
</g>
<g clip-path="url(#a)">
<g transform="translate(504 248.05) scale(.1 -.1)">
<use xlink:href="#c"/>
<use x="63.623047" xlink:href="#g"/>
<use x="95.410156" xlink:href="#c"/>
<use x="159.033203" xlink:href="#z"/>
</g>
</g>
<g clip-path="url(#a)">
<defs>
<path id="al" d="m8.2031 72.906h46.875v-4.2031l-26.469-68.703h-10.297l24.906 64.594h-35.016z"/>
</defs>
<g transform="translate(666.77 457.6) scale(.1 -.1)">
<use xlink:href="#c"/>
<use x="63.623047" xlink:href="#g"/>
<use x="95.410156" xlink:href="#c"/>
<use x="159.033203" xlink:href="#al"/>
</g>
</g>
<g clip-path="url(#a)">
<defs>
<path id="ak" d="m31.781 34.625q-7.0312 0-11.062-3.7656-4.0156-3.7656-4.0156-10.344 0-6.5938 4.0156-10.359 4.0312-3.7656 11.062-3.7656t11.078 3.7812q4.0625 3.7969 4.0625 10.344 0 6.5781-4.0312 10.344-4.0156 3.7656-11.109 3.7656zm-9.8594 4.1875q-6.3438 1.5625-9.8906 5.9062-3.5312 4.3594-3.5312 10.609 0 8.7344 6.2188 13.812 6.2344 5.0781 17.062 5.0781 10.891 0 17.094-5.0781t6.2031-13.812q0-6.25-3.5469-10.609-3.5312-4.3438-9.8281-5.9062 7.125-1.6562 11.094-6.5 3.9844-4.8281 3.9844-11.797 0-10.609-6.4688-16.281-6.4688-5.6562-18.531-5.6562-12.047 0-18.531 5.6562-6.4688 5.6719-6.4688 16.281 0 6.9688 4 11.797 4.0156 4.8438 11.141 6.5zm-3.6094 15.578q0-5.6562 3.5312-8.8281 3.5469-3.1719 9.9375-3.1719 6.3594 0 9.9375 3.1719 3.5938 3.1719 3.5938 8.8281 0 5.6719-3.5938 8.8438-3.5781 3.1719-9.9375 3.1719-6.3906 0-9.9375-3.1719-3.5312-3.1719-3.5312-8.8438z"/>
</defs>
<g transform="translate(715 457.6) scale(.1 -.1)">
<use xlink:href="#c"/>
<use x="63.623047" xlink:href="#g"/>
<use x="95.410156" xlink:href="#c"/>
<use x="159.033203" xlink:href="#ak"/>
</g>
</g>
<g clip-path="url(#a)">
<defs>
<path id="aj" d="m10.984 1.5156v8.9844q3.7188-1.7656 7.5156-2.6875 3.8125-0.92188 7.4844-0.92188 9.7656 0 14.906 6.5625 5.1562 6.5625 5.8906 19.953-2.8281-4.2031-7.1875-6.4531-4.3438-2.25-9.6094-2.25-10.938 0-17.312 6.6094-6.375 6.625-6.375 18.109 0 11.219 6.6406 18 6.6406 6.7969 17.672 6.7969 12.656 0 19.312-9.7031 6.6719-9.6875 6.6719-28.141 0-17.234-8.1875-27.516-8.1719-10.281-21.984-10.281-3.7188 0-7.5312 0.73438-3.7969 0.73438-7.9062 2.2031zm19.625 30.906q6.6406 0 10.516 4.5312 3.8906 4.5469 3.8906 12.469 0 7.8594-3.8906 12.422-3.875 4.5625-10.516 4.5625t-10.516-4.5625-3.875-12.422q0-7.9219 3.875-12.469 3.875-4.5312 10.516-4.5312z"/>
</defs>
<g transform="translate(425.63 457.6) scale(.1 -.1)">
<use xlink:href="#c"/>
<use x="63.623047" xlink:href="#g"/>
<use x="95.410156" xlink:href="#c"/>
<use x="159.033203" xlink:href="#aj"/>
</g>
</g>
<g clip-path="url(#a)">
<g transform="translate(473.86 457.6) scale(.1 -.1)">
<use xlink:href="#c"/>
<use x="63.623047" xlink:href="#g"/>
<use x="95.410156" xlink:href="#m"/>
<use x="159.033203" xlink:href="#ac"/>
</g>
</g>
<g clip-path="url(#a)">
<g transform="translate(522.09 457.6) scale(.1 -.1)">
<use xlink:href="#c"/>
<use x="63.623047" xlink:href="#g"/>
<use x="95.410156" xlink:href="#m"/>
<use x="159.033203" xlink:href="#c"/>
</g>
</g>
<g clip-path="url(#a)">
<g transform="translate(594.43 353.55) scale(.1 -.1)">
<use xlink:href="#c"/>
<use x="63.623047" xlink:href="#g"/>
<use x="95.410156" xlink:href="#m"/>
<use x="159.033203" xlink:href="#m"/>
</g>
</g>
<g clip-path="url(#a)">
<g transform="translate(570.31 457.6) scale(.1 -.1)">
<use xlink:href="#c"/>
<use x="63.623047" xlink:href="#g"/>
<use x="95.410156" xlink:href="#m"/>
<use x="159.033203" xlink:href="#o"/>
</g>
</g>
<g clip-path="url(#a)">
<g transform="translate(618.54 457.6) scale(.1 -.1)">
<use xlink:href="#c"/>
<use x="63.623047" xlink:href="#g"/>
<use x="95.410156" xlink:href="#m"/>
<use x="159.033203" xlink:href="#ab"/>
</g>
</g>
<g clip-path="url(#a)">
<g transform="translate(329.17 353.55) scale(.1 -.1)">
<use xlink:href="#c"/>
<use x="63.623047" xlink:href="#g"/>
<use x="95.410156" xlink:href="#m"/>
<use x="159.033203" xlink:href="#aa"/>
</g>
</g>
<g clip-path="url(#a)">
<g transform="translate(329.17 457.6) scale(.1 -.1)">
<use xlink:href="#c"/>
<use x="63.623047" xlink:href="#g"/>
<use x="95.410156" xlink:href="#m"/>
<use x="159.033203" xlink:href="#z"/>
</g>
</g>
<g clip-path="url(#a)">
<g transform="translate(280.95 457.6) scale(.1 -.1)">
<use xlink:href="#c"/>
<use x="63.623047" xlink:href="#g"/>
<use x="95.410156" xlink:href="#m"/>
<use x="159.033203" xlink:href="#al"/>
</g>
</g>
<g clip-path="url(#a)">
<g transform="translate(377.4 457.6) scale(.1 -.1)">
<use xlink:href="#c"/>
<use x="63.623047" xlink:href="#g"/>
<use x="95.410156" xlink:href="#m"/>
<use x="159.033203" xlink:href="#ak"/>
</g>
</g>
<g clip-path="url(#a)">
<g transform="translate(39.804 457.6) scale(.1 -.1)">
<use xlink:href="#c"/>
<use x="63.623047" xlink:href="#g"/>
<use x="95.410156" xlink:href="#m"/>
<use x="159.033203" xlink:href="#aj"/>
</g>
</g>
<g clip-path="url(#a)">
<g transform="translate(88.032 457.6) scale(.1 -.1)">
<use xlink:href="#c"/>
<use x="63.623047" xlink:href="#g"/>
<use x="95.410156" xlink:href="#o"/>
<use x="159.033203" xlink:href="#ac"/>
</g>
</g>
<g clip-path="url(#a)">
<g transform="translate(136.26 457.6) scale(.1 -.1)">
<use xlink:href="#c"/>
<use x="63.623047" xlink:href="#g"/>
<use x="95.410156" xlink:href="#o"/>
<use x="159.033203" xlink:href="#c"/>
</g>
</g>
<g clip-path="url(#a)">
<g transform="translate(763.23 457.6) scale(.1 -.1)">
<use xlink:href="#c"/>
<use x="63.623047" xlink:href="#g"/>
<use x="95.410156" xlink:href="#o"/>
<use x="159.033203" xlink:href="#m"/>
</g>
</g>
<g clip-path="url(#a)">
<g transform="translate(1052.6 457.6) scale(.1 -.1)">
<use xlink:href="#c"/>
<use x="63.623047" xlink:href="#g"/>
<use x="95.410156" xlink:href="#o"/>
<use x="159.033203" xlink:href="#o"/>
</g>
</g>
<defs>
<clipPath id="a">
<rect width="1114.7" height="586.67"/>
</clipPath>
</defs>
</svg>
