<?xml version="1.0" encoding="UTF-8"?>
<!DOCTYPE svg  PUBLIC '-//W3C//DTD SVG 1.1//EN'  'http://www.w3.org/Graphics/SVG/1.1/DTD/svg11.dtd'>
<svg width="1976pt" height="1040pt" version="1.1" viewBox="0 0 1976 1040" xmlns="http://www.w3.org/2000/svg" xmlns:xlink="http://www.w3.org/1999/xlink">
<defs>
<style type="text/css">*{stroke-linecap:butt;stroke-linejoin:round;}</style>
</defs>
<path d="m0 1040h1976v-1040h-1976z" fill="#fff"/>
<g fill="none" stroke="#000">
<path d="m493.61 48.048-280.75 420.72" clip-path="url(#a)"/>
<path d="m493.61 48.048-25.52 814.64" clip-path="url(#a)"/>
<path d="m493.61 48.048 379.05 143.98" clip-path="url(#a)"/>
<path d="m493.61 48.048-72.785 814.64" clip-path="url(#a)"/>
<path d="m212.86 468.77-122.89 393.92" clip-path="url(#a)"/>
<path d="m212.86 468.77-75.624 393.92" clip-path="url(#a)"/>
<path d="m212.86 468.77-4.7265 133.59" clip-path="url(#a)"/>
<path d="m212.86 468.77 137.07 133.59" clip-path="url(#a)"/>
<path d="m212.86 468.77 66.171 393.92" clip-path="url(#a)"/>
<path d="m468.09 862.69v129.27" clip-path="url(#a)"/>
<path d="m872.66 192.03-262.78 276.74" clip-path="url(#a)"/>
<path d="m872.66 192.03 20.81 670.66" clip-path="url(#a)"/>
<path d="m872.66 192.03 241.97 140.11" clip-path="url(#a)"/>
<path d="m609.88 468.77-94.53 393.92" clip-path="url(#a)"/>
<path d="m609.88 468.77-47.265 393.92" clip-path="url(#a)"/>
<path d="m609.88 468.77v393.92" clip-path="url(#a)"/>
<path d="m609.88 468.77 141.79 133.59" clip-path="url(#a)"/>
<path d="m893.47 862.69v129.27" clip-path="url(#a)"/>
<path d="m1114.6 332.14-173.9 530.55" clip-path="url(#a)"/>
<path d="m1114.6 332.14-126.63 530.55" clip-path="url(#a)"/>
<path d="m1114.6 332.14 379.89 136.63" clip-path="url(#a)"/>
<path d="m1114.6 332.14-79.366 530.55" clip-path="url(#a)"/>
<path d="m940.74 862.69v129.27" clip-path="url(#a)"/>
<path d="m988 862.69v129.27" clip-path="url(#a)"/>
<path d="m1494.5 468.77-506.52 393.92" clip-path="url(#a)" stroke-dasharray="3.7,1.6"/>
<path d="m1494.5 468.77-411.99 393.92" clip-path="url(#a)"/>
<path d="m1494.5 468.77-114.22 133.59" clip-path="url(#a)"/>
<path d="m1494.5 468.77 296.98 393.92" clip-path="url(#a)"/>
<path d="m1494.5 468.77 344.25 393.92" clip-path="url(#a)"/>
<path d="m1494.5 468.77 391.51 393.92" clip-path="url(#a)"/>
<path d="m1082.5 862.69v129.27" clip-path="url(#a)"/>
<path d="m1380.3 602.36-250.5 260.33" clip-path="url(#a)"/>
<path d="m1380.3 602.36-203.24 260.33" clip-path="url(#a)"/>
<path d="m1380.3 602.36-108.71 260.33" clip-path="url(#a)"/>
<path d="m1380.3 602.36 9.453 131.06" clip-path="url(#a)"/>
<path d="m1380.3 602.36 151.25 131.06" clip-path="url(#a)"/>
<path d="m1380.3 602.36 316.67 131.06" clip-path="url(#a)"/>
<path d="m1380.3 602.36-155.97 260.33" clip-path="url(#a)"/>
<path d="m1380.3 602.36-61.444 260.33" clip-path="url(#a)"/>
<path d="m1380.3 602.36 80.35 260.33" clip-path="url(#a)"/>
<path d="m1380.3 602.36 222.14 260.33" clip-path="url(#a)"/>
<path d="m1791.5 862.69v129.27" clip-path="url(#a)"/>
<path d="m1838.8 862.69v129.27" clip-path="url(#a)"/>
<path d="m1129.8 862.69v129.27" clip-path="url(#a)"/>
<path d="m1177.1 862.69v129.27" clip-path="url(#a)"/>
<path d="m1271.6 862.69v129.27" clip-path="url(#a)"/>
<path d="m1389.8 733.42-23.632 129.27" clip-path="url(#a)"/>
<path d="m1389.8 733.42 23.632 129.27" clip-path="url(#a)"/>
<path d="m1531.5 733.42-23.632 129.27" clip-path="url(#a)"/>
<path d="m1531.5 733.42 23.632 129.27" clip-path="url(#a)"/>
<path d="m1697 733.42-47.265 129.27" clip-path="url(#a)"/>
<path d="m1697 733.42v129.27" clip-path="url(#a)"/>
<path d="m1697 733.42 47.265 129.27" clip-path="url(#a)"/>
<path d="m1649.7 862.69v129.27" clip-path="url(#a)"/>
<path d="m1697 862.69v129.27" clip-path="url(#a)"/>
<path d="m1744.2 862.69v129.27" clip-path="url(#a)"/>
<path d="m1507.9 862.69v129.27" clip-path="url(#a)"/>
<path d="m1555.2 862.69v129.27" clip-path="url(#a)"/>
<path d="m1366.1 862.69v129.27" clip-path="url(#a)"/>
<path d="m1413.4 862.69v129.27" clip-path="url(#a)"/>
<path d="m515.35 862.69v129.27" clip-path="url(#a)"/>
<path d="m562.62 862.69v129.27" clip-path="url(#a)"/>
<path d="m609.88 862.69v129.27" clip-path="url(#a)"/>
<path d="m751.68 602.36-70.897 131.06" clip-path="url(#a)"/>
<path d="m751.68 602.36v260.33" clip-path="url(#a)"/>
<path d="m751.68 602.36 70.897 131.06" clip-path="url(#a)"/>
<path d="m680.78 733.42-23.632 129.27" clip-path="url(#a)"/>
<path d="m680.78 733.42 23.632 129.27" clip-path="url(#a)"/>
<path d="m751.68 862.69v129.27" clip-path="url(#a)"/>
<path d="m822.57 733.42-23.632 129.27" clip-path="url(#a)"/>
<path d="m822.57 733.42 23.632 129.27" clip-path="url(#a)"/>
<path d="m798.94 862.69v129.27" clip-path="url(#a)"/>
<path d="m846.21 862.69v129.27" clip-path="url(#a)"/>
<path d="m657.15 862.69v129.27" clip-path="url(#a)"/>
<path d="m704.41 862.69v129.27" clip-path="url(#a)"/>
<path d="m89.967 862.69v129.27" clip-path="url(#a)"/>
<path d="m137.23 862.69v129.27" clip-path="url(#a)"/>
<path d="m208.13 602.36v131.06" clip-path="url(#a)"/>
<path d="m349.92 602.36v131.06" clip-path="url(#a)"/>
<path d="m279.03 862.69v129.27" clip-path="url(#a)"/>
<path d="m349.92 733.42-23.632 129.27" clip-path="url(#a)"/>
<path d="m349.92 733.42 23.632 129.27" clip-path="url(#a)"/>
<path d="m326.29 862.69v129.27" clip-path="url(#a)"/>
<path d="m373.56 862.69v129.27" clip-path="url(#a)"/>
<path d="m208.13 733.42-23.632 129.27" clip-path="url(#a)"/>
<path d="m208.13 733.42 23.632 129.27" clip-path="url(#a)"/>
<path d="m184.5 862.69v129.27" clip-path="url(#a)"/>
<path d="m231.76 862.69v129.27" clip-path="url(#a)"/>
<path d="m420.82 862.69v129.27" clip-path="url(#a)"/>
<path d="m1035.3 862.69v129.27" clip-path="url(#a)"/>
<path d="m1224.3 862.69v129.27" clip-path="url(#a)"/>
<path d="m1318.9 862.69v129.27" clip-path="url(#a)"/>
<path d="m1460.6 862.69v129.27" clip-path="url(#a)"/>
<path d="m1602.4 862.69v129.27" clip-path="url(#a)"/>
<path d="m1886 862.69v129.27" clip-path="url(#a)"/>
</g>
<path d="m356.78 264.39 3.3394-5.0043q1.3322-1.9963-0.66416-3.3285l-6.4402-4.2976q-1.9963-1.3322-3.3285 0.66416l-3.3394 5.0043q-1.3322 1.9963 0.66416 3.3285l6.4402 4.2976q1.9963 1.3322 3.3285-0.66416z" clip-path="url(#a)" fill="#fff" stroke="#fff"/>
<g clip-path="url(#a)">
<defs>
<path id="ap" d="m9.8125 72.906h9.8594v-29.891h35.844v29.891h9.8594v-72.906h-9.8594v34.719h-35.844v-34.719h-9.8594z"/>
</defs>
<g transform="translate(353.4 262.14) rotate(-56.285) scale(.08 -.08)">
<use xlink:href="#ap"/>
</g>
</g>
<path d="m487.04 457.79 0.13957-4.4553q0.075146-2.3988-2.3237-2.474l-7.7387-0.24243q-2.3988-0.075147-2.474 2.3237l-0.13957 4.4553q-0.075146 2.3988 2.3237 2.474l7.7387 0.24243q2.3988 0.075147 2.474-2.3237z" clip-path="url(#a)" fill="#fff" stroke="#fff"/>
<g clip-path="url(#a)">
<defs>
<path id="av" d="m9.8125 72.906h9.8594v-64.609h35.5v-8.2969h-45.359z"/>
</defs>
<g transform="translate(482.98 457.66) rotate(-88.206) scale(.08 -.08)">
<use xlink:href="#av"/>
</g>
</g>
<path d="m678.09 124.83 5.6242 2.1363q2.2436 0.8522 3.0958-1.3914l2.7492-7.238q0.85221-2.2436-1.3914-3.0958l-5.6242-2.1363q-2.2436-0.8522-3.0958 1.3914l-2.7492 7.238q-0.85221 2.2436 1.3914 3.0958z" clip-path="url(#a)" fill="#fff" stroke="#fff"/>
<g clip-path="url(#a)">
<g transform="translate(679.54 121.03) rotate(20.799) scale(.08 -.08)">
<use xlink:href="#ap"/>
</g>
</g>
<path d="m463.2 458.84 0.52104-5.8318q0.21358-2.3905-2.1769-2.6041l-7.7118-0.68902q-2.3905-0.21358-2.6041 2.1769l-0.52104 5.8318q-0.21358 2.3905 2.1769 2.6041l7.7118 0.68902q2.3905 0.21358 2.6041-2.1769z" clip-path="url(#a)" fill="#fff" stroke="#fff"/>
<g clip-path="url(#a)">
<defs>
<path id="u" d="m8.6875 72.906h9.9219v-44.297q0-11.719 4.2344-16.875 4.25-5.1406 13.781-5.1406 9.4688 0 13.719 5.1406 4.25 5.1562 4.25 16.875v44.297h9.9062v-45.516q0-14.25-7.0625-21.531-7.0469-7.2812-20.812-7.2812-13.828 0-20.891 7.2812-7.0469 7.2812-7.0469 21.531z"/>
</defs>
<g transform="translate(459.15 458.48) rotate(-84.894) scale(.08 -.08)">
<use xlink:href="#u"/>
</g>
</g>
<path d="m156.71 669.79 1.3703-4.3925q0.71474-2.2911-1.5764-3.0058l-7.3912-2.3058q-2.2911-0.71474-3.0058 1.5764l-1.3703 4.3925q-0.71474 2.2911 1.5764 3.0058l7.3912 2.3058q2.2911 0.71474 3.0058-1.5764z" clip-path="url(#a)" fill="#fff" stroke="#fff"/>
<g clip-path="url(#a)">
<defs>
<path id="ax" d="m9.8125 72.906h41.891v-8.3125h-32.031v-21.484h28.906v-8.2969h-28.906v-34.812h-9.8594z"/>
</defs>
<g transform="translate(152.83 668.58) rotate(-72.674) scale(.08 -.08)">
<use xlink:href="#ax"/>
</g>
</g>
<path d="m180.72 669.4 0.95753-4.9877q0.45248-2.357-1.9045-2.8094l-7.6036-1.4597q-2.357-0.45249-2.8094 1.9045l-0.95753 4.9877q-0.45249 2.357 1.9045 2.8094l7.6036 1.4597q2.357 0.45249 2.8094-1.9045z" clip-path="url(#a)" fill="#fff" stroke="#fff"/>
<g clip-path="url(#a)">
<defs>
<path id="am" d="m53.516 70.516v-9.625q-5.6094 2.6875-10.594 4-4.9844 1.3281-9.625 1.3281-8.0469 0-12.422-3.125t-4.375-8.8906q0-4.8438 2.9062-7.3125 2.9062-2.4531 11.016-3.9688l5.9531-1.2188q11.031-2.1094 16.281-7.4062t5.25-14.172q0-10.609-7.1094-16.078-7.0938-5.4688-20.812-5.4688-5.1719 0-11.016 1.1719-5.8281 1.1719-12.078 3.4688v10.156q6-3.3594 11.766-5.0781 5.7656-1.7031 11.328-1.7031 8.4375 0 13.031 3.3125 4.5938 3.3281 4.5938 9.4844 0 5.3594-3.2969 8.3906t-10.812 4.5469l-6.0156 1.1719q-11.031 2.1875-15.969 6.875-4.9219 4.6875-4.9219 13.047 0 9.6719 6.8125 15.234t18.766 5.5625q5.1406 0 10.453-0.9375 5.3281-0.92188 10.891-2.7656z"/>
</defs>
<g transform="translate(176.73 668.64) rotate(-79.133) scale(.08 -.08)">
<use xlink:href="#am"/>
</g>
</g>
<path d="m216.66 538.52 0.1935-5.4691q0.084861-2.3985-2.3136-2.4834l-7.7377-0.27377q-2.3985-0.084861-2.4834 2.3136l-0.1935 5.4691q-0.084862 2.3985 2.3136 2.4834l7.7377 0.27377q2.3985 0.084861 2.4834-2.3136z" clip-path="url(#a)" fill="#fff" stroke="#fff"/>
<g clip-path="url(#a)">
<defs>
<path id="y" d="m34.188 63.188-13.391-36.281h26.812zm-5.5781 9.7188h11.188l27.781-72.906h-10.25l-6.6406 18.703h-32.859l-6.6406-18.703h-10.406z"/>
</defs>
<g transform="translate(212.6 538.37) rotate(-87.974) scale(.08 -.08)">
<use xlink:href="#y"/>
</g>
</g>
<path d="m275.05 538.14 3.9191 3.8196q1.7187 1.6751 3.3938-0.04364l5.4039-5.5447q1.6751-1.7187-0.04364-3.3938l-3.9191-3.8196q-1.7187-1.6751-3.3938 0.04364l-5.4039 5.5447q-1.6751 1.7187 0.04364 3.3938z" clip-path="url(#a)" fill="#fff" stroke="#fff"/>
<g clip-path="url(#a)">
<g transform="translate(277.89 535.23) rotate(44.263) scale(.08 -.08)">
<use xlink:href="#y"/>
</g>
</g>
<path d="m239.27 663.88 0.96994 5.7741q0.39758 2.3668 2.7644 1.9693l7.6355-1.2826q2.3668-0.39758 1.9693-2.7644l-0.96994-5.7741q-0.39758-2.3668-2.7644-1.9693l-7.6355 1.2826q-2.3668 0.39758-1.9693 2.7644z" clip-path="url(#a)" fill="#fff" stroke="#fff"/>
<g clip-path="url(#a)">
<g transform="translate(243.28 663.21) rotate(80.464) scale(.08 -.08)">
<use xlink:href="#u"/>
</g>
</g>
<path d="m461.82 909.68v35.285q0 2.4 2.4 2.4h7.7425q2.4 0 2.4-2.4v-35.285q0-2.4-2.4-2.4h-7.7425q-2.4 0-2.4 2.4z" clip-path="url(#a)" fill="#fff" stroke="#fff"/>
<g clip-path="url(#a)">
<defs>
<path id="k" d="m-0.29688 72.906h61.672v-8.3125h-25.875v-64.594h-9.9062v64.594h-25.891z"/>
<path id="d" d="m56.203 29.594v-4.3906h-41.312q0.59375-9.2812 5.5938-14.141t13.938-4.8594q5.1719 0 10.031 1.2656t9.6562 3.8125v-8.5q-4.8438-2.0469-9.9219-3.125t-10.297-1.0781q-13.094 0-20.734 7.6094-7.6406 7.625-7.6406 20.625 0 13.422 7.25 21.297 7.25 7.8906 19.562 7.8906 11.031 0 17.453-7.1094 6.4219-7.0938 6.4219-19.297zm-8.9844 2.6406q-0.09375 7.3594-4.125 11.75-4.0312 4.4062-10.672 4.4062-7.5156 0-12.031-4.25t-5.2031-11.969z"/>
<path id="h" d="m41.109 46.297q-1.5156 0.875-3.2969 1.2812-1.7812 0.42188-3.9219 0.42188-7.625 0-11.703-4.9531t-4.0781-14.234v-28.812h-9.0312v54.688h9.0312v-8.5q2.8438 4.9844 7.375 7.3906 4.5469 2.4219 11.047 2.4219 0.92188 0 2.0469-0.125 1.125-0.10938 2.4844-0.35938z"/>
<path id="j" d="m52 44.188q3.375 6.0625 8.0625 8.9375t11.031 2.875q8.5469 0 13.188-5.9844 4.6406-5.9688 4.6406-17v-33.016h-9.0312v32.719q0 7.8594-2.7969 11.656-2.7812 3.8125-8.4844 3.8125-6.9844 0-11.047-4.6406-4.0469-4.625-4.0469-12.641v-30.906h-9.0312v32.719q0 7.9062-2.7812 11.688t-8.5938 3.7812q-6.8906 0-10.953-4.6562-4.0469-4.6562-4.0469-12.625v-30.906h-9.0312v54.688h9.0312v-8.5q3.0781 5.0312 7.375 7.4219t10.203 2.3906q5.9688 0 10.141-3.0312 4.1719-3.0156 6.1719-8.7812z"/>
<path id="g" d="m9.4219 54.688h8.9844v-54.688h-8.9844zm0 21.297h8.9844v-11.391h-8.9844z"/>
<path id="e" d="m54.891 33.016v-33.016h-8.9844v32.719q0 7.7656-3.0312 11.609-3.0312 3.8594-9.0781 3.8594-7.2812 0-11.484-4.6406-4.2031-4.625-4.2031-12.641v-30.906h-9.0312v54.688h9.0312v-8.5q3.2344 4.9375 7.5938 7.375 4.375 2.4375 10.094 2.4375 9.4219 0 14.25-5.8281 4.8438-5.8281 4.8438-17.156z"/>
<path id="i" d="m34.281 27.484q-10.891 0-15.094-2.4844t-4.2031-8.5q0-4.7812 3.1562-7.5938 3.1562-2.7969 8.5625-2.7969 7.4844 0 12 5.2969t4.5156 14.078v2zm17.922 3.7188v-31.203h-8.9844v8.2969q-3.0781-4.9688-7.6719-7.3438t-11.234-2.375q-8.3906 0-13.359 4.7188-4.9531 4.7188-4.9531 12.625 0 9.2188 6.1719 13.906 6.1875 4.6875 18.438 4.6875h12.609v0.89062q0 6.2031-4.0781 9.5938t-11.453 3.3906q-4.6875 0-9.1406-1.125-4.4375-1.125-8.5312-3.375v8.3125q4.9219 1.9062 9.5625 2.8438 4.6406 0.95312 9.0312 0.95312 11.875 0 17.734-6.1562 5.8594-6.1406 5.8594-18.641z"/>
<path id="l" d="m9.4219 75.984h8.9844v-75.984h-8.9844z"/>
</defs>
<g transform="translate(465.88 909.68) rotate(90) scale(.08 -.08)">
<use xlink:href="#k"/>
<use x="60.818359" xlink:href="#d"/>
<use x="122.341797" xlink:href="#h"/>
<use x="163.439453" xlink:href="#j"/>
<use x="260.851562" xlink:href="#g"/>
<use x="288.634766" xlink:href="#e"/>
<use x="352.013672" xlink:href="#i"/>
<use x="413.292969" xlink:href="#l"/>
</g>
</g>
<path d="m744.14 336.49 3.3646-3.5433q1.6526-1.7404-0.087803-3.393l-5.6146-5.3313q-1.7404-1.6526-3.393 0.087804l-3.3646 3.5433q-1.6526 1.7404 0.087804 3.393l5.6146 5.3313q1.7404 1.6526 3.393-0.087803z" clip-path="url(#a)" fill="#fff" stroke="#fff"/>
<g clip-path="url(#a)">
<g transform="translate(741.19 333.69) rotate(-46.482) scale(.08 -.08)">
<use xlink:href="#k"/>
</g>
</g>
<path d="m876.72 525.14 0.1496 4.8214q0.074433 2.3988 2.4733 2.3244l7.7388-0.24012q2.3988-0.074433 2.3244-2.4733l-0.1496-4.8214q-0.074433-2.3988-2.4733-2.3244l-7.7388 0.24012q-2.3988 0.074433-2.3244 2.4733z" clip-path="url(#a)" fill="#fff" stroke="#fff"/>
<g clip-path="url(#a)">
<defs>
<path id="ae" d="m19.672 64.797v-27.391h12.406q6.8906 0 10.641 3.5625 3.7656 3.5625 3.7656 10.156 0 6.5469-3.7656 10.109-3.75 3.5625-10.641 3.5625zm-9.8594 8.1094h22.266q12.266 0 18.531-5.5469 6.2812-5.5469 6.2812-16.234 0-10.797-6.2812-16.312-6.2656-5.5156-18.531-5.5156h-12.406v-29.297h-9.8594z"/>
</defs>
<g transform="translate(880.78 525.01) rotate(88.223) scale(.08 -.08)">
<use xlink:href="#ae"/>
</g>
</g>
<path d="m988.14 266.14 4.7359 2.7422q2.0769 1.2026 3.2796-0.87432l3.8797-6.7003q1.2026-2.0769-0.87432-3.2796l-4.7359-2.7422q-2.0769-1.2026-3.2796 0.87432l-3.8797 6.7003q-1.2026 2.0769 0.87432 3.2796z" clip-path="url(#a)" fill="#fff" stroke="#fff"/>
<g clip-path="url(#a)">
<g transform="translate(990.17 262.62) rotate(30.072) scale(.08 -.08)">
<use xlink:href="#y"/>
</g>
</g>
<path d="m568.07 669.89 1.2971-5.4053q0.56004-2.3337-1.7737-2.8938l-7.5288-1.8067q-2.3337-0.56004-2.8938 1.7737l-1.2971 5.4053q-0.56004 2.3337 1.7737 2.8938l7.5288 1.8067q2.3337 0.56004 2.8938-1.7737z" clip-path="url(#a)" fill="#fff" stroke="#fff"/>
<g clip-path="url(#a)">
<defs>
<path id="aj" d="m44.391 34.188q3.1719-1.0781 6.1719-4.5938t6.0312-9.6719l10.016-19.922h-10.609l-9.3125 18.703q-3.625 7.3281-7.0156 9.7188t-9.25 2.3906h-10.75v-30.812h-9.8594v72.906h22.266q12.5 0 18.656-5.2344 6.1562-5.2188 6.1562-15.766 0-6.8906-3.2031-11.438-3.2031-4.5312-9.2969-6.2812zm-24.719 30.609v-25.875h12.406q7.125 0 10.766 3.2969t3.6406 9.6875-3.6406 9.6406-10.766 3.25z"/>
</defs>
<g transform="translate(564.11 668.95) rotate(-76.506) scale(.08 -.08)">
<use xlink:href="#aj"/>
</g>
</g>
<path d="m592.14 669.25 0.6655-5.5465q0.28592-2.3829-2.097-2.6688l-7.6874-0.92238q-2.3829-0.28592-2.6688 2.097l-0.6655 5.5465q-0.28592 2.3829 2.097 2.6688l7.6874 0.92238q2.3829 0.28592 2.6688-2.097z" clip-path="url(#a)" fill="#fff" stroke="#fff"/>
<g clip-path="url(#a)">
<defs>
<path id="q" d="m64.406 67.281v-10.391q-4.9844 4.6406-10.625 6.9219-5.6406 2.2969-11.984 2.2969-12.5 0-19.141-7.6406t-6.6406-22.094q0-14.406 6.6406-22.047t19.141-7.6406q6.3438 0 11.984 2.2969t10.625 6.9375v-10.312q-5.1719-3.5156-10.969-5.2812-5.7812-1.75-12.219-1.75-16.562 0-26.094 10.125-9.5156 10.141-9.5156 27.672 0 17.578 9.5156 27.703 9.5312 10.141 26.094 10.141 6.5312 0 12.312-1.7344 5.7969-1.7344 10.875-5.2031z"/>
</defs>
<g transform="translate(588.11 668.76) rotate(-83.158) scale(.08 -.08)">
<use xlink:href="#q"/>
</g>
</g>
<path d="m603.61 662.95v5.5588q0 2.4 2.4 2.4h7.7425q2.4 0 2.4-2.4v-5.5588q0-2.4-2.4-2.4h-7.7425q-2.4 0-2.4 2.4z" clip-path="url(#a)" fill="#fff" stroke="#fff"/>
<g clip-path="url(#a)">
<g transform="translate(607.67 662.95) rotate(90) scale(.08 -.08)">
<use xlink:href="#aj"/>
</g>
</g>
<path d="m674.64 538.39 3.6793 3.4664q1.7469 1.6458 3.3926-0.1011l5.3093-5.6354q1.6458-1.7469-0.1011-3.3926l-3.6793-3.4664q-1.7469-1.6458-3.3926 0.1011l-5.3093 5.6354q-1.6458 1.7469 0.1011 3.3926z" clip-path="url(#a)" fill="#fff" stroke="#fff"/>
<g clip-path="url(#a)">
<defs>
<path id="m" d="m9.8125 72.906h46.094v-8.3125h-36.234v-21.578h34.719v-8.2969h-34.719v-26.422h37.109v-8.2969h-46.969z"/>
</defs>
<g transform="translate(677.42 535.44) rotate(43.293) scale(.08 -.08)">
<use xlink:href="#m"/>
</g>
</g>
<path d="m887.2 909.68v35.285q0 2.4 2.4 2.4h7.7425q2.4 0 2.4-2.4v-35.285q0-2.4-2.4-2.4h-7.7425q-2.4 0-2.4 2.4z" clip-path="url(#a)" fill="#fff" stroke="#fff"/>
<g clip-path="url(#a)">
<g transform="translate(891.26 909.68) rotate(90) scale(.08 -.08)">
<use xlink:href="#k"/>
<use x="60.818359" xlink:href="#d"/>
<use x="122.341797" xlink:href="#h"/>
<use x="163.439453" xlink:href="#j"/>
<use x="260.851562" xlink:href="#g"/>
<use x="288.634766" xlink:href="#e"/>
<use x="352.013672" xlink:href="#i"/>
<use x="413.292969" xlink:href="#l"/>
</g>
</g>
<path d="m1032.9 601.77 1.5744-4.8036q0.74751-2.2806-1.5331-3.0281l-7.3574-2.4115q-2.2806-0.74751-3.0281 1.5331l-1.5744 4.8036q-0.74751 2.2806 1.5331 3.0281l7.3574 2.4115q2.2806 0.74751 3.0281-1.5331z" clip-path="url(#a)" fill="#fff" stroke="#fff"/>
<g clip-path="url(#a)">
<g transform="translate(1029 600.5) rotate(-71.853) scale(.08 -.08)">
<use xlink:href="#m"/>
</g>
</g>
<path d="m1056.8 601.58 1.2969-5.4336q0.55718-2.3344-1.7773-2.8916l-7.531-1.7975q-2.3344-0.55718-2.8916 1.7773l-1.2969 5.4336q-0.55718 2.3344 1.7773 2.8916l7.531 1.7975q2.3344 0.55718 2.8916-1.7773z" clip-path="url(#a)" fill="#fff" stroke="#fff"/>
<g clip-path="url(#a)">
<g transform="translate(1052.8 600.64) rotate(-76.576) scale(.08 -.08)">
<use xlink:href="#q"/>
</g>
</g>
<path d="m1300.1 405.5 4.7567 1.7108q2.2584 0.81225 3.0706-1.4461l2.6203-7.2856q0.81225-2.2584-1.4461-3.0706l-4.7567-1.7108q-2.2584-0.81225-3.0706 1.4461l-2.6203 7.2856q-0.81225 2.2584 1.4461 3.0706z" clip-path="url(#a)" fill="#fff" stroke="#fff"/>
<g clip-path="url(#a)">
<g transform="translate(1301.5 401.67) rotate(19.782) scale(.08 -.08)">
<use xlink:href="#m"/>
</g>
</g>
<path d="m1080.7 601.23 0.86622-5.7906q0.35507-2.3736-2.0185-2.7287l-7.6573-1.1455q-2.3736-0.35507-2.7287 2.0185l-0.86622 5.7906q-0.35507 2.3736 2.0185 2.7287l7.6573 1.1455q2.3736 0.35507 2.7287-2.0185z" clip-path="url(#a)" fill="#fff" stroke="#fff"/>
<g clip-path="url(#a)">
<g transform="translate(1076.7 600.63) rotate(-81.492) scale(.08 -.08)">
<use xlink:href="#u"/>
</g>
</g>
<path d="m934.46 909.68v35.285q0 2.4 2.4 2.4h7.7425q2.4 0 2.4-2.4v-35.285q0-2.4-2.4-2.4h-7.7425q-2.4 0-2.4 2.4z" clip-path="url(#a)" fill="#fff" stroke="#fff"/>
<g clip-path="url(#a)">
<g transform="translate(938.53 909.68) rotate(90) scale(.08 -.08)">
<use xlink:href="#k"/>
<use x="60.818359" xlink:href="#d"/>
<use x="122.341797" xlink:href="#h"/>
<use x="163.439453" xlink:href="#j"/>
<use x="260.851562" xlink:href="#g"/>
<use x="288.634766" xlink:href="#e"/>
<use x="352.013672" xlink:href="#i"/>
<use x="413.292969" xlink:href="#l"/>
</g>
</g>
<path d="m981.73 909.68v35.285q0 2.4 2.4 2.4h7.7425q2.4 0 2.4-2.4v-35.285q0-2.4-2.4-2.4h-7.7425q-2.4 0-2.4 2.4z" clip-path="url(#a)" fill="#fff" stroke="#fff"/>
<g clip-path="url(#a)">
<g transform="translate(985.79 909.68) rotate(90) scale(.08 -.08)">
<use xlink:href="#k"/>
<use x="60.818359" xlink:href="#d"/>
<use x="122.341797" xlink:href="#h"/>
<use x="163.439453" xlink:href="#j"/>
<use x="260.851562" xlink:href="#g"/>
<use x="288.634766" xlink:href="#e"/>
<use x="352.013672" xlink:href="#i"/>
<use x="413.292969" xlink:href="#l"/>
</g>
</g>
<path d="m1243 672.36 4.3199-3.3596q1.8945-1.4734 0.42117-3.3679l-4.7531-6.1118q-1.4734-1.8945-3.3679-0.42117l-4.3199 3.3596q-1.8945 1.4734-0.42117 3.3679l4.7531 6.1118q1.4734 1.8945 3.3679 0.42117z" clip-path="url(#a)" fill="#fff" stroke="#fff"/>
<g clip-path="url(#a)">
<g transform="translate(1240.5 669.15) rotate(-37.872) scale(.08 -.08)">
<use xlink:href="#y"/>
</g>
</g>
<path d="m1290.9 672.18 4.0178-3.8415q1.7347-1.6586 0.076102-3.3933l-5.3506-5.5962q-1.6586-1.7347-3.3933-0.076101l-4.0178 3.8415q-1.7347 1.6586-0.076101 3.3933l5.3506 5.5962q1.6586 1.7347 3.3933 0.076101z" clip-path="url(#a)" fill="#fff" stroke="#fff"/>
<g clip-path="url(#a)">
<g transform="translate(1288 669.24) rotate(-43.715) scale(.08 -.08)">
<use xlink:href="#aj"/>
</g>
</g>
<path d="m1440.4 541.72 3.5564-4.1593q1.5597-1.8241-0.26442-3.3838l-5.8846-5.0316q-1.8241-1.5597-3.3838 0.26442l-3.5564 4.1593q-1.5597 1.8241 0.26442 3.3838l5.8846 5.0316q1.8241 1.5597 3.3838-0.26442z" clip-path="url(#a)" fill="#fff" stroke="#fff"/>
<g clip-path="url(#a)">
<g transform="translate(1437.3 539.08) rotate(-49.468) scale(.08 -.08)">
<use xlink:href="#y"/>
</g>
</g>
<path d="m1636.2 667.04 3.7083 4.9187q1.4448 1.9164 3.3612 0.47159l6.1824-4.661q1.9164-1.4448 0.47159-3.3612l-3.7083-4.9187q-1.4448-1.9164-3.3612-0.47159l-6.1824 4.661q-1.9164 1.4448-0.47159 3.3612z" clip-path="url(#a)" fill="#fff" stroke="#fff"/>
<g clip-path="url(#a)">
<defs>
<path id="ay" d="m19.672 64.797v-56.688h11.922q15.094 0 22.094 6.8281 7 6.8438 7 21.594 0 14.641-7 21.453t-22.094 6.8125zm-9.8594 8.1094h20.266q21.188 0 31.094-8.8125 9.9219-8.8125 9.9219-27.562 0-18.859-9.9688-27.703-9.9531-8.8281-31.047-8.8281h-20.266z"/>
</defs>
<g transform="translate(1639.4 664.6) rotate(52.987) scale(.08 -.08)">
<use xlink:href="#ay"/>
</g>
</g>
<path d="m1660.3 668.04 3.1742 3.6322q1.5793 1.8072 3.3865 0.22788l5.83-5.0948q1.8072-1.5793 0.22788-3.3865l-3.1742-3.6322q-1.5793-1.8072-3.3865-0.22788l-5.83 5.0948q-1.8072 1.5793-0.22788 3.3865z" clip-path="url(#a)" fill="#fff" stroke="#fff"/>
<g clip-path="url(#a)">
<g transform="translate(1663.4 665.36) rotate(48.85) scale(.08 -.08)">
<use xlink:href="#ae"/>
</g>
</g>
<path d="m1683.8 668.07 4.1274 4.1528q1.6918 1.7022 3.3941 0.010402l5.4915-5.458q1.7022-1.6918 0.010402-3.3941l-4.1274-4.1528q-1.6918-1.7022-3.3941-0.010402l-5.4915 5.458q-1.7022 1.6918-0.010402 3.3941z" clip-path="url(#a)" fill="#fff" stroke="#fff"/>
<g clip-path="url(#a)">
<g transform="translate(1686.6 665.21) rotate(45.176) scale(.08 -.08)">
<use xlink:href="#u"/>
</g>
</g>
<path d="m1076.3 909.68v35.285q0 2.4 2.4 2.4h7.7425q2.4 0 2.4-2.4v-35.285q0-2.4-2.4-2.4h-7.7425q-2.4 0-2.4 2.4z" clip-path="url(#a)" fill="#fff" stroke="#fff"/>
<g clip-path="url(#a)">
<g transform="translate(1080.3 909.68) rotate(90) scale(.08 -.08)">
<use xlink:href="#k"/>
<use x="60.818359" xlink:href="#d"/>
<use x="122.341797" xlink:href="#h"/>
<use x="163.439453" xlink:href="#j"/>
<use x="260.851562" xlink:href="#g"/>
<use x="288.634766" xlink:href="#e"/>
<use x="352.013672" xlink:href="#i"/>
<use x="413.292969" xlink:href="#l"/>
</g>
</g>
<path d="m1257.8 738.69 3.505-3.6425q1.6641-1.7294-0.065275-3.3935l-5.5791-5.3685q-1.7294-1.6641-3.3935 0.065276l-3.505 3.6425q-1.6641 1.7294 0.065275 3.3935l5.5791 5.3685q1.7294 1.6641 3.3935-0.065275z" clip-path="url(#a)" fill="#fff" stroke="#fff"/>
<g clip-path="url(#a)">
<g transform="translate(1254.9 735.87) rotate(-46.102) scale(.08 -.08)">
<use xlink:href="#m"/>
</g>
</g>
<path d="m1281.9 738.58 3.4376-4.4033q1.4769-1.8918-0.41487-3.3687l-6.1029-4.7645q-1.8918-1.4769-3.3687 0.41487l-3.4376 4.4033q-1.4769 1.8918 0.41487 3.3687l6.1029 4.7645q1.8918 1.4769 3.3687-0.41487z" clip-path="url(#a)" fill="#fff" stroke="#fff"/>
<g clip-path="url(#a)">
<g transform="translate(1278.7 736.08) rotate(-52.021) scale(.08 -.08)">
<use xlink:href="#q"/>
</g>
</g>
<path d="m1330.8 737.27 1.9479-4.6646q0.9248-2.2147-1.2899-3.1395l-7.1446-2.9835q-2.2147-0.9248-3.1395 1.2899l-1.9479 4.6646q-0.9248 2.2147 1.2899 3.1395l7.1446 2.9835q2.2147 0.9248 3.1395-1.2899z" clip-path="url(#a)" fill="#fff" stroke="#fff"/>
<g clip-path="url(#a)">
<g transform="translate(1327 735.7) rotate(-67.335) scale(.08 -.08)">
<use xlink:href="#m"/>
</g>
</g>
<path d="m1378.6 665.82 0.36365 5.0419q0.17265 2.3938 2.5664 2.2211l7.7224-0.55698q2.3938-0.17265 2.2211-2.5664l-0.36365-5.0419q-0.17265-2.3938-2.5664-2.2211l-7.7224 0.55698q-2.3938 0.17265-2.2211 2.5664z" clip-path="url(#a)" fill="#fff" stroke="#fff"/>
<g clip-path="url(#a)">
<g transform="translate(1382.6 665.53) rotate(85.875) scale(.08 -.08)">
<use xlink:href="#m"/>
</g>
</g>
<path d="m1449.9 670.97 3.8202 3.3104q1.8138 1.5717 3.3855-0.24204l5.0704-5.8513q1.5717-1.8138-0.24204-3.3855l-3.8202-3.3104q-1.8138-1.5717-3.3855 0.24204l-5.0704 5.8512q-1.5717 1.8138 0.24204 3.3855z" clip-path="url(#a)" fill="#fff" stroke="#fff"/>
<g clip-path="url(#a)">
<g transform="translate(1452.6 667.9) rotate(40.911) scale(.08 -.08)">
<use xlink:href="#m"/>
</g>
</g>
<path d="m1533.9 672.72 4.6708 1.9331q2.2176 0.9178 3.1354-1.2998l2.9609-7.154q0.9178-2.2176-1.2998-3.1354l-4.6708-1.9331q-2.2176-0.9178-3.1354 1.2998l-2.9609 7.154q-0.9178 2.2176 1.2998 3.1354z" clip-path="url(#a)" fill="#fff" stroke="#fff"/>
<g clip-path="url(#a)">
<g transform="translate(1535.5 668.96) rotate(22.484) scale(.08 -.08)">
<use xlink:href="#m"/>
</g>
</g>
<path d="m1306.2 738.26 3.0092-5.0225q1.2335-2.0588-0.82528-3.2923l-6.6417-3.9793q-2.0588-1.2335-3.2923 0.82528l-3.0092 5.0225q-1.2335 2.0588 0.82528 3.2923l6.6417 3.9793q2.0588 1.2335 3.2923-0.82528z" clip-path="url(#a)" fill="#fff" stroke="#fff"/>
<g clip-path="url(#a)">
<g transform="translate(1302.7 736.17) rotate(-59.072) scale(.08 -.08)">
<use xlink:href="#u"/>
</g>
</g>
<path d="m1355 736.81 1.345-5.6984q0.55131-2.3358-1.7845-2.8871l-7.5355-1.7786q-2.3358-0.55131-2.8871 1.7845l-1.345 5.6984q-0.55131 2.3358 1.7845 2.8871l7.5355 1.7786q2.3358 0.55131 2.8871-1.7845z" clip-path="url(#a)" fill="#fff" stroke="#fff"/>
<g clip-path="url(#a)">
<g transform="translate(1351.1 735.88) rotate(-76.72) scale(.08 -.08)">
<use xlink:href="#u"/>
</g>
</g>
<path d="m1413.6 731.57 1.7268 5.5946q0.70781 2.2933 3.0011 1.5854l7.3981-2.2834q2.2933-0.70781 1.5854-3.0011l-1.7268-5.5946q-0.70781-2.2933-3.0011-1.5854l-7.3981 2.2834q-2.2933 0.70781-1.5854 3.0011z" clip-path="url(#a)" fill="#fff" stroke="#fff"/>
<g clip-path="url(#a)">
<g transform="translate(1417.5 730.38) rotate(72.847) scale(.08 -.08)">
<use xlink:href="#u"/>
</g>
</g>
<path d="m1484.7 734.37 3.8006 4.4538q1.5579 1.8257 3.3835 0.26779l5.8897-5.0258q1.8257-1.5579 0.26779-3.3835l-3.8006-4.4538q-1.5579-1.8257-3.3835-0.26779l-5.8897 5.0258q-1.8257 1.5579-0.26779 3.3835z" clip-path="url(#a)" fill="#fff" stroke="#fff"/>
<g clip-path="url(#a)">
<g transform="translate(1487.8 731.73) rotate(49.525) scale(.08 -.08)">
<use xlink:href="#u"/>
</g>
</g>
<path d="m1785.2 909.68v35.285q0 2.4 2.4 2.4h7.7425q2.4 0 2.4-2.4v-35.285q0-2.4-2.4-2.4h-7.7425q-2.4 0-2.4 2.4z" clip-path="url(#a)" fill="#fff" stroke="#fff"/>
<g clip-path="url(#a)">
<g transform="translate(1789.3 909.68) rotate(90) scale(.08 -.08)">
<use xlink:href="#k"/>
<use x="60.818359" xlink:href="#d"/>
<use x="122.341797" xlink:href="#h"/>
<use x="163.439453" xlink:href="#j"/>
<use x="260.851562" xlink:href="#g"/>
<use x="288.634766" xlink:href="#e"/>
<use x="352.013672" xlink:href="#i"/>
<use x="413.292969" xlink:href="#l"/>
</g>
</g>
<path d="m1832.5 909.68v35.285q0 2.4 2.4 2.4h7.7425q2.4 0 2.4-2.4v-35.285q0-2.4-2.4-2.4h-7.7425q-2.4 0-2.4 2.4z" clip-path="url(#a)" fill="#fff" stroke="#fff"/>
<g clip-path="url(#a)">
<g transform="translate(1836.6 909.68) rotate(90) scale(.08 -.08)">
<use xlink:href="#k"/>
<use x="60.818359" xlink:href="#d"/>
<use x="122.341797" xlink:href="#h"/>
<use x="163.439453" xlink:href="#j"/>
<use x="260.851562" xlink:href="#g"/>
<use x="288.634766" xlink:href="#e"/>
<use x="352.013672" xlink:href="#i"/>
<use x="413.292969" xlink:href="#l"/>
</g>
</g>
<path d="m1123.5 909.68v35.285q0 2.4 2.4 2.4h7.7425q2.4 0 2.4-2.4v-35.285q0-2.4-2.4-2.4h-7.7425q-2.4 0-2.4 2.4z" clip-path="url(#a)" fill="#fff" stroke="#fff"/>
<g clip-path="url(#a)">
<g transform="translate(1127.6 909.68) rotate(90) scale(.08 -.08)">
<use xlink:href="#k"/>
<use x="60.818359" xlink:href="#d"/>
<use x="122.341797" xlink:href="#h"/>
<use x="163.439453" xlink:href="#j"/>
<use x="260.851562" xlink:href="#g"/>
<use x="288.634766" xlink:href="#e"/>
<use x="352.013672" xlink:href="#i"/>
<use x="413.292969" xlink:href="#l"/>
</g>
</g>
<path d="m1170.8 909.68v35.285q0 2.4 2.4 2.4h7.7425q2.4 0 2.4-2.4v-35.285q0-2.4-2.4-2.4h-7.7425q-2.4 0-2.4 2.4z" clip-path="url(#a)" fill="#fff" stroke="#fff"/>
<g clip-path="url(#a)">
<g transform="translate(1174.9 909.68) rotate(90) scale(.08 -.08)">
<use xlink:href="#k"/>
<use x="60.818359" xlink:href="#d"/>
<use x="122.341797" xlink:href="#h"/>
<use x="163.439453" xlink:href="#j"/>
<use x="260.851562" xlink:href="#g"/>
<use x="288.634766" xlink:href="#e"/>
<use x="352.013672" xlink:href="#i"/>
<use x="413.292969" xlink:href="#l"/>
</g>
</g>
<path d="m1265.3 909.68v35.285q0 2.4 2.4 2.4h7.7425q2.4 0 2.4-2.4v-35.285q0-2.4-2.4-2.4h-7.7425q-2.4 0-2.4 2.4z" clip-path="url(#a)" fill="#fff" stroke="#fff"/>
<g clip-path="url(#a)">
<g transform="translate(1269.4 909.68) rotate(90) scale(.08 -.08)">
<use xlink:href="#k"/>
<use x="60.818359" xlink:href="#d"/>
<use x="122.341797" xlink:href="#h"/>
<use x="163.439453" xlink:href="#j"/>
<use x="260.851562" xlink:href="#g"/>
<use x="288.634766" xlink:href="#e"/>
<use x="352.013672" xlink:href="#i"/>
<use x="413.292969" xlink:href="#l"/>
</g>
</g>
<path d="m1383.6 801.67 0.90909-4.9726q0.43162-2.3609-1.9293-2.7925l-7.6163-1.3924q-2.3609-0.43162-2.7925 1.9293l-0.90909 4.9726q-0.43162 2.3609 1.9293 2.7925l7.6163 1.3924q2.3609 0.43162 2.7925-1.9293z" clip-path="url(#a)" fill="#fff" stroke="#fff"/>
<g clip-path="url(#a)">
<g transform="translate(1379.7 800.94) rotate(-79.64) scale(.08 -.08)">
<use xlink:href="#m"/>
</g>
</g>
<path d="m1394.9 796.43 1.0046 5.4952q0.43162 2.3609 2.7925 1.9293l7.6163-1.3924q2.3609-0.43162 1.9293-2.7925l-1.0046-5.4952q-0.43162-2.3609-2.7925-1.9293l-7.6163 1.3924q-2.3609 0.43162-1.9293 2.7925z" clip-path="url(#a)" fill="#fff" stroke="#fff"/>
<g clip-path="url(#a)">
<g transform="translate(1398.9 795.7) rotate(79.64) scale(.08 -.08)">
<use xlink:href="#q"/>
</g>
</g>
<path d="m1525.4 801.67 0.90909-4.9726q0.43162-2.3609-1.9293-2.7925l-7.6163-1.3924q-2.3609-0.43162-2.7925 1.9293l-0.90909 4.9726q-0.43162 2.3609 1.9293 2.7925l7.6163 1.3924q2.3609 0.43162 2.7925-1.9293z" clip-path="url(#a)" fill="#fff" stroke="#fff"/>
<g clip-path="url(#a)">
<g transform="translate(1521.4 800.94) rotate(-79.64) scale(.08 -.08)">
<use xlink:href="#m"/>
</g>
</g>
<path d="m1536.7 796.43 1.0046 5.4952q0.43162 2.3609 2.7925 1.9293l7.6163-1.3924q2.3609-0.43162 1.9293-2.7925l-1.0046-5.4952q-0.43162-2.3609-2.7925-1.9293l-7.6163 1.3924q-2.3609 0.43162-1.9293 2.7925z" clip-path="url(#a)" fill="#fff" stroke="#fff"/>
<g clip-path="url(#a)">
<g transform="translate(1540.7 795.7) rotate(79.64) scale(.08 -.08)">
<use xlink:href="#q"/>
</g>
</g>
<path d="m1678.4 802.58 1.7359-4.7476q0.82417-2.254-1.4299-3.0782l-7.2717-2.6588q-2.254-0.82417-3.0782 1.4299l-1.7359 4.7476q-0.82417 2.254 1.4299 3.0782l7.2717 2.6588q2.254 0.82417 3.0782-1.4299z" clip-path="url(#a)" fill="#fff" stroke="#fff"/>
<g clip-path="url(#a)">
<g transform="translate(1674.5 801.19) rotate(-69.916) scale(.08 -.08)">
<use xlink:href="#m"/>
</g>
</g>
<path d="m1690.7 795.26v5.5862q0 2.4 2.4 2.4h7.7425q2.4 0 2.4-2.4v-5.5862q0-2.4-2.4-2.4h-7.7425q-2.4 0-2.4 2.4z" clip-path="url(#a)" fill="#fff" stroke="#fff"/>
<g clip-path="url(#a)">
<g transform="translate(1694.8 795.26) rotate(90) scale(.08 -.08)">
<use xlink:href="#q"/>
</g>
</g>
<path d="m1713.8 797.83 1.7359 4.7476q0.82417 2.254 3.0782 1.4299l7.2717-2.6588q2.254-0.82417 1.4299-3.0782l-1.7359-4.7476q-0.82417-2.254-3.0782-1.4299l-7.2717 2.6588q-2.254 0.82417-1.4299 3.0782z" clip-path="url(#a)" fill="#fff" stroke="#fff"/>
<g clip-path="url(#a)">
<g transform="translate(1717.7 796.44) rotate(69.916) scale(.08 -.08)">
<use xlink:href="#m"/>
</g>
</g>
<path d="m1643.4 909.68v35.285q0 2.4 2.4 2.4h7.7425q2.4 0 2.4-2.4v-35.285q0-2.4-2.4-2.4h-7.7425q-2.4 0-2.4 2.4z" clip-path="url(#a)" fill="#fff" stroke="#fff"/>
<g clip-path="url(#a)">
<g transform="translate(1647.5 909.68) rotate(90) scale(.08 -.08)">
<use xlink:href="#k"/>
<use x="60.818359" xlink:href="#d"/>
<use x="122.341797" xlink:href="#h"/>
<use x="163.439453" xlink:href="#j"/>
<use x="260.851562" xlink:href="#g"/>
<use x="288.634766" xlink:href="#e"/>
<use x="352.013672" xlink:href="#i"/>
<use x="413.292969" xlink:href="#l"/>
</g>
</g>
<path d="m1690.7 909.68v35.285q0 2.4 2.4 2.4h7.7425q2.4 0 2.4-2.4v-35.285q0-2.4-2.4-2.4h-7.7425q-2.4 0-2.4 2.4z" clip-path="url(#a)" fill="#fff" stroke="#fff"/>
<g clip-path="url(#a)">
<g transform="translate(1694.8 909.68) rotate(90) scale(.08 -.08)">
<use xlink:href="#k"/>
<use x="60.818359" xlink:href="#d"/>
<use x="122.341797" xlink:href="#h"/>
<use x="163.439453" xlink:href="#j"/>
<use x="260.851562" xlink:href="#g"/>
<use x="288.634766" xlink:href="#e"/>
<use x="352.013672" xlink:href="#i"/>
<use x="413.292969" xlink:href="#l"/>
</g>
</g>
<path d="m1738 909.68v35.285q0 2.4 2.4 2.4h7.7425q2.4 0 2.4-2.4v-35.285q0-2.4-2.4-2.4h-7.7425q-2.4 0-2.4 2.4z" clip-path="url(#a)" fill="#fff" stroke="#fff"/>
<g clip-path="url(#a)">
<g transform="translate(1742 909.68) rotate(90) scale(.08 -.08)">
<use xlink:href="#k"/>
<use x="60.818359" xlink:href="#d"/>
<use x="122.341797" xlink:href="#h"/>
<use x="163.439453" xlink:href="#j"/>
<use x="260.851562" xlink:href="#g"/>
<use x="288.634766" xlink:href="#e"/>
<use x="352.013672" xlink:href="#i"/>
<use x="413.292969" xlink:href="#l"/>
</g>
</g>
<path d="m1501.6 909.68v35.285q0 2.4 2.4 2.4h7.7425q2.4 0 2.4-2.4v-35.285q0-2.4-2.4-2.4h-7.7425q-2.4 0-2.4 2.4z" clip-path="url(#a)" fill="#fff" stroke="#fff"/>
<g clip-path="url(#a)">
<g transform="translate(1505.7 909.68) rotate(90) scale(.08 -.08)">
<use xlink:href="#k"/>
<use x="60.818359" xlink:href="#d"/>
<use x="122.341797" xlink:href="#h"/>
<use x="163.439453" xlink:href="#j"/>
<use x="260.851562" xlink:href="#g"/>
<use x="288.634766" xlink:href="#e"/>
<use x="352.013672" xlink:href="#i"/>
<use x="413.292969" xlink:href="#l"/>
</g>
</g>
<path d="m1548.9 909.68v35.285q0 2.4 2.4 2.4h7.7425q2.4 0 2.4-2.4v-35.285q0-2.4-2.4-2.4h-7.7425q-2.4 0-2.4 2.4z" clip-path="url(#a)" fill="#fff" stroke="#fff"/>
<g clip-path="url(#a)">
<g transform="translate(1553 909.68) rotate(90) scale(.08 -.08)">
<use xlink:href="#k"/>
<use x="60.818359" xlink:href="#d"/>
<use x="122.341797" xlink:href="#h"/>
<use x="163.439453" xlink:href="#j"/>
<use x="260.851562" xlink:href="#g"/>
<use x="288.634766" xlink:href="#e"/>
<use x="352.013672" xlink:href="#i"/>
<use x="413.292969" xlink:href="#l"/>
</g>
</g>
<path d="m1359.8 909.68v35.285q0 2.4 2.4 2.4h7.7425q2.4 0 2.4-2.4v-35.285q0-2.4-2.4-2.4h-7.7425q-2.4 0-2.4 2.4z" clip-path="url(#a)" fill="#fff" stroke="#fff"/>
<g clip-path="url(#a)">
<g transform="translate(1363.9 909.68) rotate(90) scale(.08 -.08)">
<use xlink:href="#k"/>
<use x="60.818359" xlink:href="#d"/>
<use x="122.341797" xlink:href="#h"/>
<use x="163.439453" xlink:href="#j"/>
<use x="260.851562" xlink:href="#g"/>
<use x="288.634766" xlink:href="#e"/>
<use x="352.013672" xlink:href="#i"/>
<use x="413.292969" xlink:href="#l"/>
</g>
</g>
<path d="m1407.1 909.68v35.285q0 2.4 2.4 2.4h7.7425q2.4 0 2.4-2.4v-35.285q0-2.4-2.4-2.4h-7.7425q-2.4 0-2.4 2.4z" clip-path="url(#a)" fill="#fff" stroke="#fff"/>
<g clip-path="url(#a)">
<g transform="translate(1411.2 909.68) rotate(90) scale(.08 -.08)">
<use xlink:href="#k"/>
<use x="60.818359" xlink:href="#d"/>
<use x="122.341797" xlink:href="#h"/>
<use x="163.439453" xlink:href="#j"/>
<use x="260.851562" xlink:href="#g"/>
<use x="288.634766" xlink:href="#e"/>
<use x="352.013672" xlink:href="#i"/>
<use x="413.292969" xlink:href="#l"/>
</g>
</g>
<path d="m509.08 909.68v35.285q0 2.4 2.4 2.4h7.7425q2.4 0 2.4-2.4v-35.285q0-2.4-2.4-2.4h-7.7425q-2.4 0-2.4 2.4z" clip-path="url(#a)" fill="#fff" stroke="#fff"/>
<g clip-path="url(#a)">
<g transform="translate(513.14 909.68) rotate(90) scale(.08 -.08)">
<use xlink:href="#k"/>
<use x="60.818359" xlink:href="#d"/>
<use x="122.341797" xlink:href="#h"/>
<use x="163.439453" xlink:href="#j"/>
<use x="260.851562" xlink:href="#g"/>
<use x="288.634766" xlink:href="#e"/>
<use x="352.013672" xlink:href="#i"/>
<use x="413.292969" xlink:href="#l"/>
</g>
</g>
<path d="m556.34 909.68v35.285q0 2.4 2.4 2.4h7.7425q2.4 0 2.4-2.4v-35.285q0-2.4-2.4-2.4h-7.7425q-2.4 0-2.4 2.4z" clip-path="url(#a)" fill="#fff" stroke="#fff"/>
<g clip-path="url(#a)">
<g transform="translate(560.41 909.68) rotate(90) scale(.08 -.08)">
<use xlink:href="#k"/>
<use x="60.818359" xlink:href="#d"/>
<use x="122.341797" xlink:href="#h"/>
<use x="163.439453" xlink:href="#j"/>
<use x="260.851562" xlink:href="#g"/>
<use x="288.634766" xlink:href="#e"/>
<use x="352.013672" xlink:href="#i"/>
<use x="413.292969" xlink:href="#l"/>
</g>
</g>
<path d="m603.61 909.68v35.285q0 2.4 2.4 2.4h7.7425q2.4 0 2.4-2.4v-35.285q0-2.4-2.4-2.4h-7.7425q-2.4 0-2.4 2.4z" clip-path="url(#a)" fill="#fff" stroke="#fff"/>
<g clip-path="url(#a)">
<g transform="translate(607.67 909.68) rotate(90) scale(.08 -.08)">
<use xlink:href="#k"/>
<use x="60.818359" xlink:href="#d"/>
<use x="122.341797" xlink:href="#h"/>
<use x="163.439453" xlink:href="#j"/>
<use x="260.851562" xlink:href="#g"/>
<use x="288.634766" xlink:href="#e"/>
<use x="352.013672" xlink:href="#i"/>
<use x="413.292969" xlink:href="#l"/>
</g>
</g>
<path d="m720.41 673.33 2.6579-4.9134q1.1419-2.1109-0.96906-3.2528l-6.81-3.6838q-2.1109-1.1419-3.2528 0.96906l-2.6579 4.9134q-1.1419 2.1109 0.96906 3.2528l6.81 3.6838q2.1109 1.1419 3.2528-0.96906z" clip-path="url(#a)" fill="#fff" stroke="#fff"/>
<g clip-path="url(#a)">
<g transform="translate(716.84 671.4) rotate(-61.589) scale(.08 -.08)">
<use xlink:href="#q"/>
</g>
</g>
<path d="m745.4 729.53v5.985q0 2.4 2.4 2.4h7.7425q2.4 0 2.4-2.4v-5.985q0-2.4-2.4-2.4h-7.7425q-2.4 0-2.4 2.4z" clip-path="url(#a)" fill="#fff" stroke="#fff"/>
<g clip-path="url(#a)">
<defs>
<path id="an" d="m9.8125 72.906h13.281l32.328-60.984v60.984h9.5625v-72.906h-13.281l-32.312 60.984v-60.984h-9.5781z"/>
</defs>
<g transform="translate(749.47 729.53) rotate(90) scale(.08 -.08)">
<use xlink:href="#an"/>
</g>
</g>
<path d="m780.28 668.42 2.6579 4.9134q1.1419 2.1109 3.2528 0.96906l6.81-3.6838q2.1109-1.1419 0.96906-3.2528l-2.6579-4.9134q-1.1419-2.1109-3.2528-0.96906l-6.81 3.6838q-2.1109 1.1419-0.96906 3.2528z" clip-path="url(#a)" fill="#fff" stroke="#fff"/>
<g clip-path="url(#a)">
<g transform="translate(783.85 666.48) rotate(61.589) scale(.08 -.08)">
<use xlink:href="#q"/>
</g>
</g>
<path d="m674.68 801.67 0.90909-4.9726q0.43162-2.3609-1.9293-2.7925l-7.6163-1.3924q-2.3609-0.43162-2.7925 1.9293l-0.90909 4.9726q-0.43162 2.3609 1.9293 2.7925l7.6163 1.3924q2.3609 0.43162 2.7925-1.9293z" clip-path="url(#a)" fill="#fff" stroke="#fff"/>
<g clip-path="url(#a)">
<g transform="translate(670.68 800.94) rotate(-79.64) scale(.08 -.08)">
<use xlink:href="#m"/>
</g>
</g>
<path d="m685.92 796.43 1.0046 5.4952q0.43162 2.3609 2.7925 1.9293l7.6163-1.3924q2.3609-0.43162 1.9293-2.7925l-1.0046-5.4952q-0.43162-2.3609-2.7925-1.9293l-7.6163 1.3924q-2.3609 0.43162-1.9293 2.7925z" clip-path="url(#a)" fill="#fff" stroke="#fff"/>
<g clip-path="url(#a)">
<g transform="translate(689.92 795.7) rotate(79.64) scale(.08 -.08)">
<use xlink:href="#q"/>
</g>
</g>
<path d="m745.4 909.68v35.285q0 2.4 2.4 2.4h7.7425q2.4 0 2.4-2.4v-35.285q0-2.4-2.4-2.4h-7.7425q-2.4 0-2.4 2.4z" clip-path="url(#a)" fill="#fff" stroke="#fff"/>
<g clip-path="url(#a)">
<g transform="translate(749.47 909.68) rotate(90) scale(.08 -.08)">
<use xlink:href="#k"/>
<use x="60.818359" xlink:href="#d"/>
<use x="122.341797" xlink:href="#h"/>
<use x="163.439453" xlink:href="#j"/>
<use x="260.851562" xlink:href="#g"/>
<use x="288.634766" xlink:href="#e"/>
<use x="352.013672" xlink:href="#i"/>
<use x="413.292969" xlink:href="#l"/>
</g>
</g>
<path d="m816.47 801.67 0.90909-4.9726q0.43162-2.3609-1.9293-2.7925l-7.6163-1.3924q-2.3609-0.43162-2.7925 1.9293l-0.90909 4.9726q-0.43162 2.3609 1.9293 2.7925l7.6163 1.3924q2.3609 0.43162 2.7925-1.9293z" clip-path="url(#a)" fill="#fff" stroke="#fff"/>
<g clip-path="url(#a)">
<g transform="translate(812.47 800.94) rotate(-79.64) scale(.08 -.08)">
<use xlink:href="#m"/>
</g>
</g>
<path d="m827.72 796.43 1.0046 5.4952q0.43162 2.3609 2.7925 1.9293l7.6163-1.3924q2.3609-0.43162 1.9293-2.7925l-1.0046-5.4952q-0.43162-2.3609-2.7925-1.9293l-7.6163 1.3924q-2.3609 0.43162-1.9293 2.7925z" clip-path="url(#a)" fill="#fff" stroke="#fff"/>
<g clip-path="url(#a)">
<g transform="translate(831.72 795.7) rotate(79.64) scale(.08 -.08)">
<use xlink:href="#q"/>
</g>
</g>
<path d="m792.67 909.68v35.285q0 2.4 2.4 2.4h7.7425q2.4 0 2.4-2.4v-35.285q0-2.4-2.4-2.4h-7.7425q-2.4 0-2.4 2.4z" clip-path="url(#a)" fill="#fff" stroke="#fff"/>
<g clip-path="url(#a)">
<g transform="translate(796.73 909.68) rotate(90) scale(.08 -.08)">
<use xlink:href="#k"/>
<use x="60.818359" xlink:href="#d"/>
<use x="122.341797" xlink:href="#h"/>
<use x="163.439453" xlink:href="#j"/>
<use x="260.851562" xlink:href="#g"/>
<use x="288.634766" xlink:href="#e"/>
<use x="352.013672" xlink:href="#i"/>
<use x="413.292969" xlink:href="#l"/>
</g>
</g>
<path d="m839.93 909.68v35.285q0 2.4 2.4 2.4h7.7425q2.4 0 2.4-2.4v-35.285q0-2.4-2.4-2.4h-7.7425q-2.4 0-2.4 2.4z" clip-path="url(#a)" fill="#fff" stroke="#fff"/>
<g clip-path="url(#a)">
<g transform="translate(844 909.68) rotate(90) scale(.08 -.08)">
<use xlink:href="#k"/>
<use x="60.818359" xlink:href="#d"/>
<use x="122.341797" xlink:href="#h"/>
<use x="163.439453" xlink:href="#j"/>
<use x="260.851562" xlink:href="#g"/>
<use x="288.634766" xlink:href="#e"/>
<use x="352.013672" xlink:href="#i"/>
<use x="413.292969" xlink:href="#l"/>
</g>
</g>
<path d="m650.87 909.68v35.285q0 2.4 2.4 2.4h7.7425q2.4 0 2.4-2.4v-35.285q0-2.4-2.4-2.4h-7.7425q-2.4 0-2.4 2.4z" clip-path="url(#a)" fill="#fff" stroke="#fff"/>
<g clip-path="url(#a)">
<g transform="translate(654.94 909.68) rotate(90) scale(.08 -.08)">
<use xlink:href="#k"/>
<use x="60.818359" xlink:href="#d"/>
<use x="122.341797" xlink:href="#h"/>
<use x="163.439453" xlink:href="#j"/>
<use x="260.851562" xlink:href="#g"/>
<use x="288.634766" xlink:href="#e"/>
<use x="352.013672" xlink:href="#i"/>
<use x="413.292969" xlink:href="#l"/>
</g>
</g>
<path d="m698.14 909.68v35.285q0 2.4 2.4 2.4h7.7425q2.4 0 2.4-2.4v-35.285q0-2.4-2.4-2.4h-7.7425q-2.4 0-2.4 2.4z" clip-path="url(#a)" fill="#fff" stroke="#fff"/>
<g clip-path="url(#a)">
<g transform="translate(702.2 909.68) rotate(90) scale(.08 -.08)">
<use xlink:href="#k"/>
<use x="60.818359" xlink:href="#d"/>
<use x="122.341797" xlink:href="#h"/>
<use x="163.439453" xlink:href="#j"/>
<use x="260.851562" xlink:href="#g"/>
<use x="288.634766" xlink:href="#e"/>
<use x="352.013672" xlink:href="#i"/>
<use x="413.292969" xlink:href="#l"/>
</g>
</g>
<path d="m83.696 909.68v35.285q0 2.4 2.4 2.4h7.7425q2.4 0 2.4-2.4v-35.285q0-2.4-2.4-2.4h-7.7425q-2.4 0-2.4 2.4z" clip-path="url(#a)" fill="#fff" stroke="#fff"/>
<g clip-path="url(#a)">
<g transform="translate(87.76 909.68) rotate(90) scale(.08 -.08)">
<use xlink:href="#k"/>
<use x="60.818359" xlink:href="#d"/>
<use x="122.341797" xlink:href="#h"/>
<use x="163.439453" xlink:href="#j"/>
<use x="260.851562" xlink:href="#g"/>
<use x="288.634766" xlink:href="#e"/>
<use x="352.013672" xlink:href="#i"/>
<use x="413.292969" xlink:href="#l"/>
</g>
</g>
<path d="m130.96 909.68v35.285q0 2.4 2.4 2.4h7.7425q2.4 0 2.4-2.4v-35.285q0-2.4-2.4-2.4h-7.7425q-2.4 0-2.4 2.4z" clip-path="url(#a)" fill="#fff" stroke="#fff"/>
<g clip-path="url(#a)">
<g transform="translate(135.02 909.68) rotate(90) scale(.08 -.08)">
<use xlink:href="#k"/>
<use x="60.818359" xlink:href="#d"/>
<use x="122.341797" xlink:href="#h"/>
<use x="163.439453" xlink:href="#j"/>
<use x="260.851562" xlink:href="#g"/>
<use x="288.634766" xlink:href="#e"/>
<use x="352.013672" xlink:href="#i"/>
<use x="413.292969" xlink:href="#l"/>
</g>
</g>
<path d="m201.86 665.48v4.8238q0 2.4 2.4 2.4h7.7425q2.4 0 2.4-2.4v-4.8238q0-2.4-2.4-2.4h-7.7425q-2.4 0-2.4 2.4z" clip-path="url(#a)" fill="#fff" stroke="#fff"/>
<g clip-path="url(#a)">
<g transform="translate(205.92 665.48) rotate(90) scale(.08 -.08)">
<use xlink:href="#ae"/>
</g>
</g>
<path d="m343.65 665.48v4.8238q0 2.4 2.4 2.4h7.7425q2.4 0 2.4-2.4v-4.8238q0-2.4-2.4-2.4h-7.7425q-2.4 0-2.4 2.4z" clip-path="url(#a)" fill="#fff" stroke="#fff"/>
<g clip-path="url(#a)">
<g transform="translate(347.72 665.48) rotate(90) scale(.08 -.08)">
<use xlink:href="#ae"/>
</g>
</g>
<path d="m272.76 909.68v35.285q0 2.4 2.4 2.4h7.7425q2.4 0 2.4-2.4v-35.285q0-2.4-2.4-2.4h-7.7425q-2.4 0-2.4 2.4z" clip-path="url(#a)" fill="#fff" stroke="#fff"/>
<g clip-path="url(#a)">
<g transform="translate(276.82 909.68) rotate(90) scale(.08 -.08)">
<use xlink:href="#k"/>
<use x="60.818359" xlink:href="#d"/>
<use x="122.341797" xlink:href="#h"/>
<use x="163.439453" xlink:href="#j"/>
<use x="260.851562" xlink:href="#g"/>
<use x="288.634766" xlink:href="#e"/>
<use x="352.013672" xlink:href="#i"/>
<use x="413.292969" xlink:href="#l"/>
</g>
</g>
<path d="m343.82 801.67 0.90909-4.9726q0.43162-2.3609-1.9293-2.7925l-7.6163-1.3924q-2.3609-0.43162-2.7925 1.9293l-0.90909 4.9726q-0.43162 2.3609 1.9293 2.7925l7.6163 1.3924q2.3609 0.43162 2.7925-1.9293z" clip-path="url(#a)" fill="#fff" stroke="#fff"/>
<g clip-path="url(#a)">
<g transform="translate(339.82 800.94) rotate(-79.64) scale(.08 -.08)">
<use xlink:href="#m"/>
</g>
</g>
<path d="m355.07 796.43 1.0046 5.4952q0.43162 2.3609 2.7925 1.9293l7.6163-1.3924q2.3609-0.43162 1.9293-2.7925l-1.0046-5.4952q-0.43162-2.3609-2.7925-1.9293l-7.6163 1.3924q-2.3609 0.43162-1.9293 2.7925z" clip-path="url(#a)" fill="#fff" stroke="#fff"/>
<g clip-path="url(#a)">
<g transform="translate(359.07 795.7) rotate(79.64) scale(.08 -.08)">
<use xlink:href="#q"/>
</g>
</g>
<path d="m320.02 909.68v35.285q0 2.4 2.4 2.4h7.7425q2.4 0 2.4-2.4v-35.285q0-2.4-2.4-2.4h-7.7425q-2.4 0-2.4 2.4z" clip-path="url(#a)" fill="#fff" stroke="#fff"/>
<g clip-path="url(#a)">
<g transform="translate(324.08 909.68) rotate(90) scale(.08 -.08)">
<use xlink:href="#k"/>
<use x="60.818359" xlink:href="#d"/>
<use x="122.341797" xlink:href="#h"/>
<use x="163.439453" xlink:href="#j"/>
<use x="260.851562" xlink:href="#g"/>
<use x="288.634766" xlink:href="#e"/>
<use x="352.013672" xlink:href="#i"/>
<use x="413.292969" xlink:href="#l"/>
</g>
</g>
<path d="m367.29 909.68v35.285q0 2.4 2.4 2.4h7.7425q2.4 0 2.4-2.4v-35.285q0-2.4-2.4-2.4h-7.7425q-2.4 0-2.4 2.4z" clip-path="url(#a)" fill="#fff" stroke="#fff"/>
<g clip-path="url(#a)">
<g transform="translate(371.35 909.68) rotate(90) scale(.08 -.08)">
<use xlink:href="#k"/>
<use x="60.818359" xlink:href="#d"/>
<use x="122.341797" xlink:href="#h"/>
<use x="163.439453" xlink:href="#j"/>
<use x="260.851562" xlink:href="#g"/>
<use x="288.634766" xlink:href="#e"/>
<use x="352.013672" xlink:href="#i"/>
<use x="413.292969" xlink:href="#l"/>
</g>
</g>
<path d="m202.03 801.67 0.90909-4.9726q0.43162-2.3609-1.9293-2.7925l-7.6163-1.3924q-2.3609-0.43162-2.7925 1.9293l-0.90909 4.9726q-0.43162 2.3609 1.9293 2.7925l7.6163 1.3924q2.3609 0.43162 2.7925-1.9293z" clip-path="url(#a)" fill="#fff" stroke="#fff"/>
<g clip-path="url(#a)">
<g transform="translate(198.03 800.94) rotate(-79.64) scale(.08 -.08)">
<use xlink:href="#m"/>
</g>
</g>
<path d="m213.27 796.43 1.0046 5.4952q0.43162 2.3609 2.7925 1.9293l7.6163-1.3924q2.3609-0.43162 1.9293-2.7925l-1.0046-5.4952q-0.43162-2.3609-2.7925-1.9293l-7.6163 1.3924q-2.3609 0.43162-1.9293 2.7925z" clip-path="url(#a)" fill="#fff" stroke="#fff"/>
<g clip-path="url(#a)">
<g transform="translate(217.27 795.7) rotate(79.64) scale(.08 -.08)">
<use xlink:href="#q"/>
</g>
</g>
<path d="m178.23 909.68v35.285q0 2.4 2.4 2.4h7.7425q2.4 0 2.4-2.4v-35.285q0-2.4-2.4-2.4h-7.7425q-2.4 0-2.4 2.4z" clip-path="url(#a)" fill="#fff" stroke="#fff"/>
<g clip-path="url(#a)">
<g transform="translate(182.29 909.68) rotate(90) scale(.08 -.08)">
<use xlink:href="#k"/>
<use x="60.818359" xlink:href="#d"/>
<use x="122.341797" xlink:href="#h"/>
<use x="163.439453" xlink:href="#j"/>
<use x="260.851562" xlink:href="#g"/>
<use x="288.634766" xlink:href="#e"/>
<use x="352.013672" xlink:href="#i"/>
<use x="413.292969" xlink:href="#l"/>
</g>
</g>
<path d="m225.49 909.68v35.285q0 2.4 2.4 2.4h7.7425q2.4 0 2.4-2.4v-35.285q0-2.4-2.4-2.4h-7.7425q-2.4 0-2.4 2.4z" clip-path="url(#a)" fill="#fff" stroke="#fff"/>
<g clip-path="url(#a)">
<g transform="translate(229.55 909.68) rotate(90) scale(.08 -.08)">
<use xlink:href="#k"/>
<use x="60.818359" xlink:href="#d"/>
<use x="122.341797" xlink:href="#h"/>
<use x="163.439453" xlink:href="#j"/>
<use x="260.851562" xlink:href="#g"/>
<use x="288.634766" xlink:href="#e"/>
<use x="352.013672" xlink:href="#i"/>
<use x="413.292969" xlink:href="#l"/>
</g>
</g>
<path d="m414.55 909.68v35.285q0 2.4 2.4 2.4h7.7425q2.4 0 2.4-2.4v-35.285q0-2.4-2.4-2.4h-7.7425q-2.4 0-2.4 2.4z" clip-path="url(#a)" fill="#fff" stroke="#fff"/>
<g clip-path="url(#a)">
<g transform="translate(418.61 909.68) rotate(90) scale(.08 -.08)">
<use xlink:href="#k"/>
<use x="60.818359" xlink:href="#d"/>
<use x="122.341797" xlink:href="#h"/>
<use x="163.439453" xlink:href="#j"/>
<use x="260.851562" xlink:href="#g"/>
<use x="288.634766" xlink:href="#e"/>
<use x="352.013672" xlink:href="#i"/>
<use x="413.292969" xlink:href="#l"/>
</g>
</g>
<path d="m1029 909.68v35.285q0 2.4 2.4 2.4h7.7425q2.4 0 2.4-2.4v-35.285q0-2.4-2.4-2.4h-7.7425q-2.4 0-2.4 2.4z" clip-path="url(#a)" fill="#fff" stroke="#fff"/>
<g clip-path="url(#a)">
<g transform="translate(1033.1 909.68) rotate(90) scale(.08 -.08)">
<use xlink:href="#k"/>
<use x="60.818359" xlink:href="#d"/>
<use x="122.341797" xlink:href="#h"/>
<use x="163.439453" xlink:href="#j"/>
<use x="260.851562" xlink:href="#g"/>
<use x="288.634766" xlink:href="#e"/>
<use x="352.013672" xlink:href="#i"/>
<use x="413.292969" xlink:href="#l"/>
</g>
</g>
<path d="m1218.1 909.68v35.285q0 2.4 2.4 2.4h7.7425q2.4 0 2.4-2.4v-35.285q0-2.4-2.4-2.4h-7.7425q-2.4 0-2.4 2.4z" clip-path="url(#a)" fill="#fff" stroke="#fff"/>
<g clip-path="url(#a)">
<g transform="translate(1222.1 909.68) rotate(90) scale(.08 -.08)">
<use xlink:href="#k"/>
<use x="60.818359" xlink:href="#d"/>
<use x="122.341797" xlink:href="#h"/>
<use x="163.439453" xlink:href="#j"/>
<use x="260.851562" xlink:href="#g"/>
<use x="288.634766" xlink:href="#e"/>
<use x="352.013672" xlink:href="#i"/>
<use x="413.292969" xlink:href="#l"/>
</g>
</g>
<path d="m1312.6 909.68v35.285q0 2.4 2.4 2.4h7.7425q2.4 0 2.4-2.4v-35.285q0-2.4-2.4-2.4h-7.7425q-2.4 0-2.4 2.4z" clip-path="url(#a)" fill="#fff" stroke="#fff"/>
<g clip-path="url(#a)">
<g transform="translate(1316.6 909.68) rotate(90) scale(.08 -.08)">
<use xlink:href="#k"/>
<use x="60.818359" xlink:href="#d"/>
<use x="122.341797" xlink:href="#h"/>
<use x="163.439453" xlink:href="#j"/>
<use x="260.851562" xlink:href="#g"/>
<use x="288.634766" xlink:href="#e"/>
<use x="352.013672" xlink:href="#i"/>
<use x="413.292969" xlink:href="#l"/>
</g>
</g>
<path d="m1454.4 909.68v35.285q0 2.4 2.4 2.4h7.7425q2.4 0 2.4-2.4v-35.285q0-2.4-2.4-2.4h-7.7425q-2.4 0-2.4 2.4z" clip-path="url(#a)" fill="#fff" stroke="#fff"/>
<g clip-path="url(#a)">
<g transform="translate(1458.4 909.68) rotate(90) scale(.08 -.08)">
<use xlink:href="#k"/>
<use x="60.818359" xlink:href="#d"/>
<use x="122.341797" xlink:href="#h"/>
<use x="163.439453" xlink:href="#j"/>
<use x="260.851562" xlink:href="#g"/>
<use x="288.634766" xlink:href="#e"/>
<use x="352.013672" xlink:href="#i"/>
<use x="413.292969" xlink:href="#l"/>
</g>
</g>
<path d="m1596.2 909.68v35.285q0 2.4 2.4 2.4h7.7425q2.4 0 2.4-2.4v-35.285q0-2.4-2.4-2.4h-7.7425q-2.4 0-2.4 2.4z" clip-path="url(#a)" fill="#fff" stroke="#fff"/>
<g clip-path="url(#a)">
<g transform="translate(1600.2 909.68) rotate(90) scale(.08 -.08)">
<use xlink:href="#k"/>
<use x="60.818359" xlink:href="#d"/>
<use x="122.341797" xlink:href="#h"/>
<use x="163.439453" xlink:href="#j"/>
<use x="260.851562" xlink:href="#g"/>
<use x="288.634766" xlink:href="#e"/>
<use x="352.013672" xlink:href="#i"/>
<use x="413.292969" xlink:href="#l"/>
</g>
</g>
<path d="m1879.8 909.68v35.285q0 2.4 2.4 2.4h7.7425q2.4 0 2.4-2.4v-35.285q0-2.4-2.4-2.4h-7.7425q-2.4 0-2.4 2.4z" clip-path="url(#a)" fill="#fff" stroke="#fff"/>
<g clip-path="url(#a)">
<g transform="translate(1883.8 909.68) rotate(90) scale(.08 -.08)">
<use xlink:href="#k"/>
<use x="60.818359" xlink:href="#d"/>
<use x="122.341797" xlink:href="#h"/>
<use x="163.439453" xlink:href="#j"/>
<use x="260.851562" xlink:href="#g"/>
<use x="288.634766" xlink:href="#e"/>
<use x="352.013672" xlink:href="#i"/>
<use x="413.292969" xlink:href="#l"/>
</g>
</g>
<defs>
<path id="b" d="m0 8.6603c2.2967 0 4.4997-0.9125 6.1237-2.5365 1.624-1.624 2.5365-3.827 2.5365-6.1237s-0.9125-4.4997-2.5365-6.1237c-1.624-1.624-3.827-2.5365-6.1237-2.5365s-4.4997 0.9125-6.1237 2.5365c-1.624 1.624-2.5365 3.827-2.5365 6.1237s0.9125 4.4997 2.5365 6.1237c1.624 1.624 3.827 2.5365 6.1237 2.5365z"/>
</defs>
<g clip-path="url(#a)">
<use x="89.967329" y="991.952251" fill="#ffffff" stroke="#ffffff" xlink:href="#b"/>
</g>
<g clip-path="url(#a)">
<use x="137.232206" y="991.952251" fill="#ffffff" stroke="#ffffff" xlink:href="#b"/>
</g>
<g clip-path="url(#a)">
<use x="184.497084" y="991.952251" fill="#ffffff" stroke="#ffffff" xlink:href="#b"/>
</g>
<g clip-path="url(#a)">
<use x="231.761961" y="991.952251" fill="#ffffff" stroke="#ffffff" xlink:href="#b"/>
</g>
<g clip-path="url(#a)">
<use x="279.026839" y="991.952251" fill="#ffffff" stroke="#ffffff" xlink:href="#b"/>
</g>
<g clip-path="url(#a)">
<use x="326.291716" y="991.952251" fill="#ffffff" stroke="#ffffff" xlink:href="#b"/>
</g>
<g clip-path="url(#a)">
<use x="373.556593" y="991.952251" fill="#ffffff" stroke="#ffffff" xlink:href="#b"/>
</g>
<g clip-path="url(#a)">
<use x="420.821471" y="991.952251" fill="#ffffff" stroke="#ffffff" xlink:href="#b"/>
</g>
<g clip-path="url(#a)">
<use x="468.086348" y="991.952251" fill="#ffffff" stroke="#ffffff" xlink:href="#b"/>
</g>
<g clip-path="url(#a)">
<use x="515.351226" y="991.952251" fill="#ffffff" stroke="#ffffff" xlink:href="#b"/>
</g>
<g clip-path="url(#a)">
<use x="562.616103" y="991.952251" fill="#ffffff" stroke="#ffffff" xlink:href="#b"/>
</g>
<g clip-path="url(#a)">
<use x="609.880981" y="991.952251" fill="#ffffff" stroke="#ffffff" xlink:href="#b"/>
</g>
<g clip-path="url(#a)">
<use x="657.145858" y="991.952251" fill="#ffffff" stroke="#ffffff" xlink:href="#b"/>
</g>
<g clip-path="url(#a)">
<use x="704.410735" y="991.952251" fill="#ffffff" stroke="#ffffff" xlink:href="#b"/>
</g>
<g clip-path="url(#a)">
<use x="751.675613" y="991.952251" fill="#ffffff" stroke="#ffffff" xlink:href="#b"/>
</g>
<g clip-path="url(#a)">
<use x="798.94049" y="991.952251" fill="#ffffff" stroke="#ffffff" xlink:href="#b"/>
</g>
<g clip-path="url(#a)">
<use x="846.205368" y="991.952251" fill="#ffffff" stroke="#ffffff" xlink:href="#b"/>
</g>
<g clip-path="url(#a)">
<use x="893.470245" y="991.952251" fill="#ffffff" stroke="#ffffff" xlink:href="#b"/>
</g>
<g clip-path="url(#a)">
<use x="940.735123" y="991.952251" fill="#ffffff" stroke="#ffffff" xlink:href="#b"/>
</g>
<g clip-path="url(#a)">
<use x="988" y="991.952251" fill="#ffffff" stroke="#ffffff" xlink:href="#b"/>
</g>
<g clip-path="url(#a)">
<use x="1035.264877" y="991.952251" fill="#ffffff" stroke="#ffffff" xlink:href="#b"/>
</g>
<g clip-path="url(#a)">
<use x="1082.529755" y="991.952251" fill="#ffffff" stroke="#ffffff" xlink:href="#b"/>
</g>
<g clip-path="url(#a)">
<use x="1129.794632" y="991.952251" fill="#ffffff" stroke="#ffffff" xlink:href="#b"/>
</g>
<g clip-path="url(#a)">
<use x="1177.05951" y="991.952251" fill="#ffffff" stroke="#ffffff" xlink:href="#b"/>
</g>
<g clip-path="url(#a)">
<use x="1224.324387" y="991.952251" fill="#ffffff" stroke="#ffffff" xlink:href="#b"/>
</g>
<g clip-path="url(#a)">
<use x="1271.589265" y="991.952251" fill="#ffffff" stroke="#ffffff" xlink:href="#b"/>
</g>
<g clip-path="url(#a)">
<use x="1318.854142" y="991.952251" fill="#ffffff" stroke="#ffffff" xlink:href="#b"/>
</g>
<g clip-path="url(#a)">
<use x="1366.119019" y="991.952251" fill="#ffffff" stroke="#ffffff" xlink:href="#b"/>
</g>
<g clip-path="url(#a)">
<use x="1413.383897" y="991.952251" fill="#ffffff" stroke="#ffffff" xlink:href="#b"/>
</g>
<g clip-path="url(#a)">
<use x="1460.648774" y="991.952251" fill="#ffffff" stroke="#ffffff" xlink:href="#b"/>
</g>
<g clip-path="url(#a)">
<use x="1507.913652" y="991.952251" fill="#ffffff" stroke="#ffffff" xlink:href="#b"/>
</g>
<g clip-path="url(#a)">
<use x="1555.178529" y="991.952251" fill="#ffffff" stroke="#ffffff" xlink:href="#b"/>
</g>
<g clip-path="url(#a)">
<use x="1602.443407" y="991.952251" fill="#ffffff" stroke="#ffffff" xlink:href="#b"/>
</g>
<g clip-path="url(#a)">
<use x="1649.708284" y="991.952251" fill="#ffffff" stroke="#ffffff" xlink:href="#b"/>
</g>
<g clip-path="url(#a)">
<use x="1696.973161" y="991.952251" fill="#ffffff" stroke="#ffffff" xlink:href="#b"/>
</g>
<g clip-path="url(#a)">
<use x="1744.238039" y="991.952251" fill="#ffffff" stroke="#ffffff" xlink:href="#b"/>
</g>
<g clip-path="url(#a)">
<use x="1791.502916" y="991.952251" fill="#ffffff" stroke="#ffffff" xlink:href="#b"/>
</g>
<g clip-path="url(#a)">
<use x="1838.767794" y="991.952251" fill="#ffffff" stroke="#ffffff" xlink:href="#b"/>
</g>
<g clip-path="url(#a)">
<use x="1886.032671" y="991.952251" fill="#ffffff" stroke="#ffffff" xlink:href="#b"/>
</g>
<g clip-path="url(#a)">
<use x="493.6061" y="48.047749" fill="#ffffff" stroke="#ffffff" xlink:href="#b"/>
</g>
<g clip-path="url(#a)">
<use x="212.85601" y="468.768453" fill="#ffffff" stroke="#ffffff" xlink:href="#b"/>
</g>
<g clip-path="url(#a)">
<use x="468.086348" y="862.686352" fill="#ffffff" stroke="#ffffff" xlink:href="#b"/>
</g>
<g clip-path="url(#a)">
<use x="872.66057" y="192.027136" fill="#ffffff" stroke="#ffffff" xlink:href="#b"/>
</g>
<g clip-path="url(#a)">
<use x="609.880981" y="468.768453" fill="#ffffff" stroke="#ffffff" xlink:href="#b"/>
</g>
<g clip-path="url(#a)">
<use x="893.470245" y="862.686352" fill="#ffffff" stroke="#ffffff" xlink:href="#b"/>
</g>
<g clip-path="url(#a)">
<use x="1114.630484" y="332.136755" fill="#ffffff" stroke="#ffffff" xlink:href="#b"/>
</g>
<g clip-path="url(#a)">
<use x="940.735123" y="862.686352" fill="#ffffff" stroke="#ffffff" xlink:href="#b"/>
</g>
<g clip-path="url(#a)">
<use x="988" y="862.686352" fill="#ffffff" stroke="#ffffff" xlink:href="#b"/>
</g>
<g clip-path="url(#a)">
<use x="1494.521936" y="468.768453" fill="#ffffff" stroke="#ffffff" xlink:href="#b"/>
</g>
<g clip-path="url(#a)">
<use x="1082.529755" y="862.686352" fill="#ffffff" stroke="#ffffff" xlink:href="#b"/>
</g>
<g clip-path="url(#a)">
<use x="1380.298483" y="602.356322" fill="#ffffff" stroke="#ffffff" xlink:href="#b"/>
</g>
<g clip-path="url(#a)">
<use x="1791.502916" y="862.686352" fill="#ffffff" stroke="#ffffff" xlink:href="#b"/>
</g>
<g clip-path="url(#a)">
<use x="1838.767794" y="862.686352" fill="#ffffff" stroke="#ffffff" xlink:href="#b"/>
</g>
<g clip-path="url(#a)">
<use x="1129.794632" y="862.686352" fill="#ffffff" stroke="#ffffff" xlink:href="#b"/>
</g>
<g clip-path="url(#a)">
<use x="1177.05951" y="862.686352" fill="#ffffff" stroke="#ffffff" xlink:href="#b"/>
</g>
<g clip-path="url(#a)">
<use x="1271.589265" y="862.686352" fill="#ffffff" stroke="#ffffff" xlink:href="#b"/>
</g>
<g clip-path="url(#a)">
<use x="1389.751458" y="733.420453" fill="#ffffff" stroke="#ffffff" xlink:href="#b"/>
</g>
<g clip-path="url(#a)">
<use x="1531.54609" y="733.420453" fill="#ffffff" stroke="#ffffff" xlink:href="#b"/>
</g>
<g clip-path="url(#a)">
<use x="1696.973161" y="733.420453" fill="#ffffff" stroke="#ffffff" xlink:href="#b"/>
</g>
<g clip-path="url(#a)">
<use x="1649.708284" y="862.686352" fill="#ffffff" stroke="#ffffff" xlink:href="#b"/>
</g>
<g clip-path="url(#a)">
<use x="1696.973161" y="862.686352" fill="#ffffff" stroke="#ffffff" xlink:href="#b"/>
</g>
<g clip-path="url(#a)">
<use x="1744.238039" y="862.686352" fill="#ffffff" stroke="#ffffff" xlink:href="#b"/>
</g>
<g clip-path="url(#a)">
<use x="1507.913652" y="862.686352" fill="#ffffff" stroke="#ffffff" xlink:href="#b"/>
</g>
<g clip-path="url(#a)">
<use x="1555.178529" y="862.686352" fill="#ffffff" stroke="#ffffff" xlink:href="#b"/>
</g>
<g clip-path="url(#a)">
<use x="1366.119019" y="862.686352" fill="#ffffff" stroke="#ffffff" xlink:href="#b"/>
</g>
<g clip-path="url(#a)">
<use x="1413.383897" y="862.686352" fill="#ffffff" stroke="#ffffff" xlink:href="#b"/>
</g>
<g clip-path="url(#a)">
<use x="515.351226" y="862.686352" fill="#ffffff" stroke="#ffffff" xlink:href="#b"/>
</g>
<g clip-path="url(#a)">
<use x="562.616103" y="862.686352" fill="#ffffff" stroke="#ffffff" xlink:href="#b"/>
</g>
<g clip-path="url(#a)">
<use x="609.880981" y="862.686352" fill="#ffffff" stroke="#ffffff" xlink:href="#b"/>
</g>
<g clip-path="url(#a)">
<use x="751.675613" y="602.356322" fill="#ffffff" stroke="#ffffff" xlink:href="#b"/>
</g>
<g clip-path="url(#a)">
<use x="680.778297" y="733.420453" fill="#ffffff" stroke="#ffffff" xlink:href="#b"/>
</g>
<g clip-path="url(#a)">
<use x="751.675613" y="862.686352" fill="#ffffff" stroke="#ffffff" xlink:href="#b"/>
</g>
<g clip-path="url(#a)">
<use x="822.572929" y="733.420453" fill="#ffffff" stroke="#ffffff" xlink:href="#b"/>
</g>
<g clip-path="url(#a)">
<use x="798.94049" y="862.686352" fill="#ffffff" stroke="#ffffff" xlink:href="#b"/>
</g>
<g clip-path="url(#a)">
<use x="846.205368" y="862.686352" fill="#ffffff" stroke="#ffffff" xlink:href="#b"/>
</g>
<g clip-path="url(#a)">
<use x="657.145858" y="862.686352" fill="#ffffff" stroke="#ffffff" xlink:href="#b"/>
</g>
<g clip-path="url(#a)">
<use x="704.410735" y="862.686352" fill="#ffffff" stroke="#ffffff" xlink:href="#b"/>
</g>
<g clip-path="url(#a)">
<use x="89.967329" y="862.686352" fill="#ffffff" stroke="#ffffff" xlink:href="#b"/>
</g>
<g clip-path="url(#a)">
<use x="137.232206" y="862.686352" fill="#ffffff" stroke="#ffffff" xlink:href="#b"/>
</g>
<g clip-path="url(#a)">
<use x="208.129522" y="602.356322" fill="#ffffff" stroke="#ffffff" xlink:href="#b"/>
</g>
<g clip-path="url(#a)">
<use x="349.924155" y="602.356322" fill="#ffffff" stroke="#ffffff" xlink:href="#b"/>
</g>
<g clip-path="url(#a)">
<use x="279.026839" y="862.686352" fill="#ffffff" stroke="#ffffff" xlink:href="#b"/>
</g>
<g clip-path="url(#a)">
<use x="349.924155" y="733.420453" fill="#ffffff" stroke="#ffffff" xlink:href="#b"/>
</g>
<g clip-path="url(#a)">
<use x="326.291716" y="862.686352" fill="#ffffff" stroke="#ffffff" xlink:href="#b"/>
</g>
<g clip-path="url(#a)">
<use x="373.556593" y="862.686352" fill="#ffffff" stroke="#ffffff" xlink:href="#b"/>
</g>
<g clip-path="url(#a)">
<use x="208.129522" y="733.420453" fill="#ffffff" stroke="#ffffff" xlink:href="#b"/>
</g>
<g clip-path="url(#a)">
<use x="184.497084" y="862.686352" fill="#ffffff" stroke="#ffffff" xlink:href="#b"/>
</g>
<g clip-path="url(#a)">
<use x="231.761961" y="862.686352" fill="#ffffff" stroke="#ffffff" xlink:href="#b"/>
</g>
<g clip-path="url(#a)">
<use x="420.821471" y="862.686352" fill="#ffffff" stroke="#ffffff" xlink:href="#b"/>
</g>
<g clip-path="url(#a)">
<use x="1035.264877" y="862.686352" fill="#ffffff" stroke="#ffffff" xlink:href="#b"/>
</g>
<g clip-path="url(#a)">
<use x="1224.324387" y="862.686352" fill="#ffffff" stroke="#ffffff" xlink:href="#b"/>
</g>
<g clip-path="url(#a)">
<use x="1318.854142" y="862.686352" fill="#ffffff" stroke="#ffffff" xlink:href="#b"/>
</g>
<g clip-path="url(#a)">
<use x="1460.648774" y="862.686352" fill="#ffffff" stroke="#ffffff" xlink:href="#b"/>
</g>
<g clip-path="url(#a)">
<use x="1602.443407" y="862.686352" fill="#ffffff" stroke="#ffffff" xlink:href="#b"/>
</g>
<g clip-path="url(#a)">
<use x="1886.032671" y="862.686352" fill="#ffffff" stroke="#ffffff" xlink:href="#b"/>
</g>
<g clip-path="url(#a)">
<defs>
<path id="w" d="m44.281 53.078v-8.5q-3.7969 1.9531-7.9062 2.9219-4.0938 0.98438-8.5 0.98438-6.6875 0-10.031-2.0469t-3.3438-6.1562q0-3.125 2.3906-4.9062t9.625-3.3906l3.0781-0.6875q9.5625-2.0469 13.594-5.7812t4.0312-10.422q0-7.625-6.0312-12.078-6.0312-4.4375-16.578-4.4375-4.3906 0-9.1562 0.85938t-10.031 2.5625v9.2812q4.9844-2.5938 9.8125-3.8906 4.8281-1.2812 9.5781-1.2812 6.3438 0 9.75 2.1719 3.4219 2.1719 3.4219 6.125 0 3.6562-2.4688 5.6094-2.4531 1.9531-10.812 3.7656l-3.125 0.73438q-8.3438 1.75-12.062 5.3906-3.7031 3.6406-3.7031 9.9844 0 7.7188 5.4688 11.906 5.4688 4.2031 15.531 4.2031 4.9688 0 9.3594-0.73438 4.4062-0.71875 8.1094-2.1875z"/>
</defs>
<g transform="translate(84.203 994.71) scale(.1 -.1)">
<use xlink:href="#m"/>
<use x="63.183594" xlink:href="#w"/>
</g>
</g>
<g clip-path="url(#a)">
<defs>
<path id="v" d="m18.312 70.219v-15.531h18.5v-6.9844h-18.5v-29.688q0-6.6875 1.8281-8.5938t7.4531-1.9062h9.2188v-7.5156h-9.2188q-10.406 0-14.359 3.875-3.9531 3.8906-3.9531 14.141v29.688h-6.5938v6.9844h6.5938v15.531z"/>
<path id="s" d="m45.406 46.391v29.594h8.9844v-75.984h-8.9844v8.2031q-2.8281-4.875-7.1562-7.25-4.3125-2.375-10.375-2.375-9.9062 0-16.141 7.9062-6.2188 7.9219-6.2188 20.812t6.2188 20.797q6.2344 7.9062 16.141 7.9062 6.0625 0 10.375-2.375 4.3281-2.3594 7.1562-7.2344zm-30.609-19.094q0-9.9062 4.0781-15.547t11.203-5.6406 11.219 5.6406q4.1094 5.6406 4.1094 15.547t-4.1094 15.547q-4.0938 5.6406-11.219 5.6406t-11.203-5.6406-4.0781-15.547z"/>
</defs>
<g transform="translate(115.05 994.71) scale(.1 -.1)">
<use xlink:href="#d"/>
<use x="61.523438" xlink:href="#e"/>
<use x="124.902344" xlink:href="#v"/>
<use x="164.111328" xlink:href="#w"/>
<use x="216.210938" xlink:href="#v"/>
<use x="255.419922" xlink:href="#i"/>
<use x="316.699219" xlink:href="#e"/>
<use x="380.078125" xlink:href="#s"/>
</g>
</g>
<g clip-path="url(#a)">
<g transform="translate(173.79 994.71) scale(.1 -.1)">
<use xlink:href="#d"/>
<use x="61.523438" xlink:href="#g"/>
<use x="89.306641" xlink:href="#e"/>
<use x="152.685547" xlink:href="#d"/>
</g>
</g>
<g clip-path="url(#a)">
<defs>
<path id="ba" d="m8.6875 72.906h9.9219v-44.297q0-11.719 4.2344-16.875 4.25-5.1406 13.781-5.1406 9.4688 0 13.719 5.1406 4.25 5.1562 4.25 16.875v44.297h9.9062v-45.516q0-14.25-7.0625-21.531-7.0469-7.2812-20.812-7.2812-13.828 0-20.891 7.2812-7.0469 7.2812-7.0469 21.531zm32.531 18.188h9.9062v-9.9062h-9.9062zm-19.094 0h9.9062v-9.9062h-9.9062z"/>
<path id="ai" d="m48.688 27.297q0 9.9062-4.0781 15.547t-11.203 5.6406q-7.1406 0-11.219-5.6406t-4.0781-15.547 4.0781-15.547 11.219-5.6406q7.125 0 11.203 5.6406t4.0781 15.547zm-30.578 19.094q2.8438 4.875 7.1562 7.2344 4.3281 2.375 10.328 2.375 9.9688 0 16.188-7.9062 6.2344-7.9062 6.2344-20.797t-6.2344-20.812q-6.2188-7.9062-16.188-7.9062-6 0-10.328 2.375-4.3125 2.375-7.1562 7.25v-8.2031h-9.0312v75.984h9.0312z"/>
<path id="aa" d="m48.781 52.594v-8.4062q-3.8125 2.1094-7.6406 3.1562t-7.7344 1.0469q-8.75 0-13.594-5.5469-4.8281-5.5312-4.8281-15.547t4.8281-15.562q4.8438-5.5312 13.594-5.5312 3.9062 0 7.7344 1.0469t7.6406 3.1562v-8.3125q-3.7656-1.75-7.7969-2.625-4.0156-0.89062-8.5625-0.89062-12.359 0-19.641 7.7656-7.2656 7.7656-7.2656 20.953 0 13.375 7.3438 21.031 7.3594 7.6719 20.156 7.6719 4.1406 0 8.0938-0.85938 3.9531-0.84375 7.6719-2.5469z"/>
<path id="x" d="m54.891 33.016v-33.016h-8.9844v32.719q0 7.7656-3.0312 11.609-3.0312 3.8594-9.0781 3.8594-7.2812 0-11.484-4.6406-4.2031-4.625-4.2031-12.641v-30.906h-9.0312v75.984h9.0312v-29.797q3.2344 4.9375 7.5938 7.375 4.375 2.4375 10.094 2.4375 9.4219 0 14.25-5.8281 4.8438-5.8281 4.8438-17.156z"/>
<path id="ar" d="m4.2031 54.688h8.9844l11.234-42.672 11.172 42.672h10.594l11.234-42.672 11.188 42.672h8.9844l-14.312-54.688h-10.594l-11.766 44.828-11.812-44.828h-10.609z"/>
<path id="ak" d="m8.5 21.578v33.109h8.9844v-32.766q0-7.7656 3.0156-11.656 3.0312-3.875 9.0938-3.875 7.2656 0 11.484 4.6406 4.2344 4.6406 4.2344 12.656v31h8.9844v-54.688h-8.9844v8.4062q-3.2656-4.9844-7.5938-7.4062-4.3125-2.4219-10.031-2.4219-9.4219 0-14.312 5.8594-4.875 5.8594-4.875 17.141z"/>
<path id="al" d="m45.406 27.984q0 9.7656-4.0312 15.125-4.0156 5.375-11.297 5.375-7.2188 0-11.25-5.375-4.0312-5.3594-4.0312-15.125 0-9.7188 4.0312-15.094t11.25-5.375q7.2812 0 11.297 5.375 4.0312 5.375 4.0312 15.094zm8.9844-21.203q0-13.953-6.2031-20.766-6.1875-6.8125-18.984-6.8125-4.7344 0-8.9375 0.70312t-8.1562 2.1719v8.7344q3.9531-2.1406 7.8125-3.1562 3.8594-1.0312 7.8594-1.0312 8.8438 0 13.234 4.6094t4.3906 13.938v4.4531q-2.7812-4.8438-7.125-7.2344t-10.406-2.3906q-10.047 0-16.203 7.6562-6.1562 7.6719-6.1562 20.328 0 12.688 6.1562 20.344 6.1562 7.6719 16.203 7.6719 6.0625 0 10.406-2.3906t7.125-7.2188v8.2969h8.9844z"/>
</defs>
<g transform="translate(184.86 995.47) scale(.1 -.1)">
<use xlink:href="#ba"/>
<use x="73.193359" xlink:href="#ai"/>
<use x="136.669922" xlink:href="#d"/>
<use x="198.193359" xlink:href="#h"/>
<use x="239.306641" xlink:href="#w"/>
<use x="291.40625" xlink:href="#aa"/>
<use x="346.386719" xlink:href="#x"/>
<use x="409.765625" xlink:href="#ar"/>
<use x="491.552734" xlink:href="#d"/>
<use x="553.076172" xlink:href="#j"/>
<use x="650.488281" xlink:href="#j"/>
<use x="747.900391" xlink:href="#ak"/>
<use x="811.279297" xlink:href="#e"/>
<use x="874.658203" xlink:href="#al"/>
</g>
</g>
<g clip-path="url(#a)">
<defs>
<path id="z" d="m11.719 12.406h10.297v-8.4062l-8-15.625h-6.2969l4 15.625z"/>
</defs>
<g transform="translate(277.44 994.71) scale(.1 -.1)">
<use xlink:href="#z"/>
</g>
</g>
<g clip-path="url(#a)">
<g transform="translate(318.66 994.71) scale(.1 -.1)">
<use xlink:href="#d"/>
<use x="61.523438" xlink:href="#g"/>
<use x="89.306641" xlink:href="#e"/>
</g>
</g>
<g clip-path="url(#a)">
<g transform="translate(349.5 994.71) scale(.1 -.1)">
<use xlink:href="#m"/>
<use x="63.183594" xlink:href="#h"/>
<use x="104.28125" xlink:href="#s"/>
<use x="167.757812" xlink:href="#ai"/>
<use x="231.234375" xlink:href="#d"/>
<use x="292.757812" xlink:href="#ai"/>
<use x="356.234375" xlink:href="#d"/>
<use x="417.757812" xlink:href="#e"/>
</g>
</g>
<g clip-path="url(#a)">
<g transform="translate(419.23 994.71) scale(.1 -.1)">
<use xlink:href="#z"/>
</g>
</g>
<g clip-path="url(#a)">
<g transform="translate(458.57 994.71) scale(.1 -.1)">
<use xlink:href="#ak"/>
<use x="63.378906" xlink:href="#e"/>
<use x="126.757812" xlink:href="#s"/>
</g>
</g>
<g clip-path="url(#a)">
<g transform="translate(510.79 994.71) scale(.1 -.1)">
<use xlink:href="#g"/>
<use x="27.783203" xlink:href="#e"/>
</g>
</g>
<g clip-path="url(#a)">
<defs>
<path id="at" d="m5.6094 72.906h57.281v-7.5312l-46.094-57.078h47.219v-8.2969h-59.516v7.5156l46.094 57.078h-44.984z"/>
</defs>
<g transform="translate(552.77 994.71) scale(.1 -.1)">
<use xlink:href="#at"/>
<use x="68.505859" xlink:href="#d"/>
<use x="130.029297" xlink:href="#g"/>
<use x="157.8125" xlink:href="#v"/>
</g>
</g>
<g clip-path="url(#a)">
<defs>
<path id="ag" d="m2.9844 54.688h9.5156l17.094-45.891 17.094 45.891h9.5156l-20.516-54.688h-12.203z"/>
<path id="ah" d="m30.609 48.391q-7.2188 0-11.422-5.6406t-4.2031-15.453 4.1719-15.453q4.1875-5.6406 11.453-5.6406 7.1875 0 11.375 5.6562 4.2031 5.6719 4.2031 15.438 0 9.7188-4.2031 15.406-4.1875 5.6875-11.375 5.6875zm0 7.6094q11.719 0 18.406-7.625 6.7031-7.6094 6.7031-21.078 0-13.422-6.7031-21.078-6.6875-7.6406-18.406-7.6406-11.766 0-18.438 7.6406-6.6562 7.6562-6.6562 21.078 0 13.469 6.6562 21.078 6.6719 7.625 18.438 7.625z"/>
</defs>
<g transform="translate(600.69 994.71) scale(.1 -.1)">
<use xlink:href="#ag"/>
<use x="59.179688" xlink:href="#ah"/>
<use x="120.361328" xlink:href="#e"/>
</g>
</g>
<g clip-path="url(#a)">
<g transform="translate(644.38 994.71) scale(.1 -.1)">
<use xlink:href="#d"/>
<use x="61.523438" xlink:href="#g"/>
<use x="89.306641" xlink:href="#e"/>
<use x="152.685547" xlink:href="#d"/>
<use x="214.208984" xlink:href="#h"/>
</g>
</g>
<g clip-path="url(#a)">
<g transform="translate(689.73 994.71) scale(.1 -.1)">
<use xlink:href="#an"/>
<use x="74.804688" xlink:href="#i"/>
<use x="136.083984" xlink:href="#aa"/>
<use x="191.064453" xlink:href="#x"/>
<use x="254.443359" xlink:href="#v"/>
</g>
</g>
<g clip-path="url(#a)">
<g transform="translate(742.16 994.71) scale(.1 -.1)">
<use xlink:href="#ak"/>
<use x="63.378906" xlink:href="#e"/>
<use x="126.757812" xlink:href="#s"/>
</g>
</g>
<g clip-path="url(#a)">
<g transform="translate(783.36 994.71) scale(.1 -.1)">
<use xlink:href="#d"/>
<use x="61.523438" xlink:href="#g"/>
<use x="89.306641" xlink:href="#e"/>
<use x="152.685547" xlink:href="#d"/>
<use x="214.208984" xlink:href="#j"/>
</g>
</g>
<g clip-path="url(#a)">
<g transform="translate(836.93 994.71) scale(.1 -.1)">
<use xlink:href="#k"/>
<use x="60.833984" xlink:href="#i"/>
<use x="122.113281" xlink:href="#al"/>
</g>
</g>
<g clip-path="url(#a)">
<g transform="translate(863.36 994.71) scale(.1 -.1)">
<use xlink:href="#ag"/>
<use x="59.179688" xlink:href="#d"/>
<use x="120.703125" xlink:href="#h"/>
<use x="161.816406" xlink:href="#w"/>
<use x="213.916016" xlink:href="#aa"/>
<use x="268.896484" xlink:href="#x"/>
<use x="332.275391" xlink:href="#ar"/>
<use x="414.0625" xlink:href="#i"/>
<use x="475.341797" xlink:href="#e"/>
<use x="538.720703" xlink:href="#s"/>
</g>
</g>
<g clip-path="url(#a)">
<defs>
<path id="bb" d="m9.4219 54.688h8.9844v-55.672q0-10.438-3.9844-15.125-3.9688-4.6875-12.812-4.6875h-3.4219v7.6094h2.4062q5.125 0 6.9688 2.375 1.8594 2.3594 1.8594 9.8281zm0 21.297h8.9844v-11.391h-8.9844z"/>
</defs>
<g transform="translate(930.02 994.71) scale(.1 -.1)">
<use xlink:href="#bb"/>
<use x="27.783203" xlink:href="#d"/>
<use x="89.306641" xlink:href="#e"/>
<use x="152.685547" xlink:href="#d"/>
</g>
</g>
<g clip-path="url(#a)">
<g transform="translate(969.04 994.71) scale(.1 -.1)">
<use xlink:href="#y"/>
<use x="68.392578" xlink:href="#v"/>
<use x="107.601562" xlink:href="#l"/>
<use x="135.384766" xlink:href="#i"/>
<use x="196.664062" xlink:href="#e"/>
<use x="260.042969" xlink:href="#v"/>
<use x="299.251953" xlink:href="#g"/>
<use x="327.035156" xlink:href="#w"/>
</g>
</g>
<g clip-path="url(#a)">
<g transform="translate(1033.7 994.71) scale(.1 -.1)">
<use xlink:href="#z"/>
</g>
</g>
<g clip-path="url(#a)">
<g transform="translate(1068 994.71) scale(.1 -.1)">
<use xlink:href="#s"/>
<use x="63.476562" xlink:href="#d"/>
<use x="125" xlink:href="#h"/>
<use x="166.082031" xlink:href="#d"/>
<use x="227.605469" xlink:href="#e"/>
</g>
</g>
<g clip-path="url(#a)">
<defs>
<path id="az" d="m30.609 48.391q-7.2188 0-11.422-5.6406t-4.2031-15.453 4.1719-15.453q4.1875-5.6406 11.453-5.6406 7.1875 0 11.375 5.6562 4.2031 5.6719 4.2031 15.438 0 9.7188-4.2031 15.406-4.1875 5.6875-11.375 5.6875zm0 7.6094q11.719 0 18.406-7.625 6.7031-7.6094 6.7031-21.078 0-13.422-6.7031-21.078-6.6875-7.6406-18.406-7.6406-11.766 0-18.438 7.6406-6.6562 7.6562-6.6562 21.078 0 13.469 6.6562 21.078 6.6719 7.625 18.438 7.625zm4.6094 19.781h9.9062v-9.8594h-9.9062zm-19.094 0h9.9062v-9.8594h-9.9062z"/>
</defs>
<g transform="translate(1110 994.71) scale(.1 -.1)">
<use xlink:href="#x"/>
<use x="63.378906" xlink:href="#az"/>
<use x="124.560547" xlink:href="#aa"/>
<use x="179.541016" xlink:href="#x"/>
<use x="242.919922" xlink:href="#w"/>
<use x="295.019531" xlink:href="#v"/>
<use x="334.228516" xlink:href="#d"/>
</g>
</g>
<g clip-path="url(#a)">
<defs>
<path id="as" d="m18.109 8.2031v-29h-9.0312v75.484h9.0312v-8.2969q2.8438 4.875 7.1562 7.2344 4.3281 2.375 10.328 2.375 9.9688 0 16.188-7.9062 6.2344-7.9062 6.2344-20.797t-6.2344-20.812q-6.2188-7.9062-16.188-7.9062-6 0-10.328 2.375-4.3125 2.375-7.1562 7.25zm30.578 19.094q0 9.9062-4.0781 15.547t-11.203 5.6406q-7.1406 0-11.219-5.6406t-4.0781-15.547 4.0781-15.547 11.219-5.6406q7.125 0 11.203 5.6406t4.0781 15.547z"/>
<path id="aq" d="m5.5156 54.688h42.672v-8.2031l-33.781-39.312h33.781v-7.1719h-43.891v8.2031l33.797 39.312h-32.578z"/>
</defs>
<g transform="translate(1158.5 994.71) scale(.1 -.1)">
<use xlink:href="#am"/>
<use x="63.476562" xlink:href="#as"/>
<use x="126.953125" xlink:href="#g"/>
<use x="154.736328" xlink:href="#v"/>
<use x="193.945312" xlink:href="#aq"/>
<use x="246.435547" xlink:href="#d"/>
<use x="307.958984" xlink:href="#e"/>
</g>
</g>
<g clip-path="url(#a)">
<g transform="translate(1222.7 994.71) scale(.1 -.1)">
<use xlink:href="#z"/>
</g>
</g>
<g clip-path="url(#a)">
<defs>
<path id="au" d="m9.8125 72.906h14.703l18.594-49.609 18.703 49.609h14.703v-72.906h-9.625v64.016l-18.797-50h-9.9062l-18.797 50v-64.016h-9.5781z"/>
</defs>
<g transform="translate(1251.5 994.71) scale(.1 -.1)">
<use xlink:href="#au"/>
<use x="86.279297" xlink:href="#i"/>
<use x="147.558594" xlink:href="#s"/>
<use x="211.035156" xlink:href="#d"/>
<use x="272.558594" xlink:href="#g"/>
<use x="300.341797" xlink:href="#h"/>
<use x="341.455078" xlink:href="#i"/>
</g>
</g>
<g clip-path="url(#a)">
<g transform="translate(1317.3 994.71) scale(.1 -.1)">
<use xlink:href="#z"/>
</g>
</g>
<g clip-path="url(#a)">
<g transform="translate(1358.5 994.71) scale(.1 -.1)">
<use xlink:href="#s"/>
<use x="63.476562" xlink:href="#g"/>
<use x="91.259766" xlink:href="#d"/>
</g>
</g>
<g clip-path="url(#a)">
<g transform="translate(1396 994.71) scale(.1 -.1)">
<use xlink:href="#y"/>
<use x="68.408203" xlink:href="#aq"/>
<use x="120.898438" xlink:href="#ah"/>
<use x="182.080078" xlink:href="#h"/>
<use x="223.162109" xlink:href="#d"/>
<use x="284.685547" xlink:href="#e"/>
</g>
</g>
<g clip-path="url(#a)">
<g transform="translate(1459.1 994.71) scale(.1 -.1)">
<use xlink:href="#z"/>
</g>
</g>
<g clip-path="url(#a)">
<g transform="translate(1500.3 994.71) scale(.1 -.1)">
<use xlink:href="#s"/>
<use x="63.476562" xlink:href="#g"/>
<use x="91.259766" xlink:href="#d"/>
</g>
</g>
<g clip-path="url(#a)">
<defs>
<path id="ao" d="m9.8125 72.906h9.8594v-30.812l32.719 30.812h12.703l-36.188-33.984 38.766-38.922h-12.984l-35.016 35.109v-35.109h-9.8594z"/>
</defs>
<g transform="translate(1534.3 994.71) scale(.1 -.1)">
<use xlink:href="#ao"/>
<use x="65.560547" xlink:href="#i"/>
<use x="126.839844" xlink:href="#e"/>
<use x="190.21875" xlink:href="#i"/>
<use x="251.498047" xlink:href="#h"/>
<use x="292.580078" xlink:href="#d"/>
<use x="354.103516" xlink:href="#e"/>
</g>
</g>
<g clip-path="url(#a)">
<g transform="translate(1600.9 994.71) scale(.1 -.1)">
<use xlink:href="#z"/>
</g>
</g>
<g clip-path="url(#a)">
<g transform="translate(1642.1 994.71) scale(.1 -.1)">
<use xlink:href="#s"/>
<use x="63.476562" xlink:href="#g"/>
<use x="91.259766" xlink:href="#d"/>
</g>
</g>
<g clip-path="url(#a)">
<g transform="translate(1660 994.71) scale(.1 -.1)">
<use xlink:href="#ao"/>
<use x="65.560547" xlink:href="#i"/>
<use x="126.839844" xlink:href="#as"/>
<use x="190.316406" xlink:href="#ag"/>
<use x="249.496094" xlink:href="#d"/>
<use x="311.019531" xlink:href="#h"/>
<use x="352.117188" xlink:href="#s"/>
<use x="415.59375" xlink:href="#g"/>
<use x="443.376953" xlink:href="#w"/>
<use x="495.476562" xlink:href="#aa"/>
<use x="550.457031" xlink:href="#x"/>
<use x="613.835938" xlink:href="#d"/>
<use x="675.359375" xlink:href="#e"/>
</g>
</g>
<g clip-path="url(#a)">
<defs>
<path id="aw" d="m9.8125 72.906h9.8594v-72.906h-9.8594z"/>
</defs>
<g transform="translate(1729.4 994.71) scale(.1 -.1)">
<use xlink:href="#aw"/>
<use x="29.492188" xlink:href="#e"/>
<use x="92.871094" xlink:href="#w"/>
<use x="144.970703" xlink:href="#d"/>
<use x="206.494141" xlink:href="#l"/>
<use x="234.277344" xlink:href="#e"/>
</g>
</g>
<g clip-path="url(#a)">
<g transform="translate(1779.4 994.71) scale(.1 -.1)">
<use xlink:href="#e"/>
<use x="63.378906" xlink:href="#ah"/>
<use x="124.560547" xlink:href="#aa"/>
<use x="179.541016" xlink:href="#x"/>
</g>
</g>
<g clip-path="url(#a)">
<g transform="translate(1807.9 994.71) scale(.1 -.1)">
<use xlink:href="#x"/>
<use x="63.378906" xlink:href="#d"/>
<use x="124.902344" xlink:href="#h"/>
<use x="166.015625" xlink:href="#ag"/>
<use x="225.195312" xlink:href="#ah"/>
<use x="286.376953" xlink:href="#h"/>
<use x="327.474609" xlink:href="#h"/>
<use x="368.587891" xlink:href="#i"/>
<use x="429.867188" xlink:href="#al"/>
<use x="493.34375" xlink:href="#d"/>
<use x="554.867188" xlink:href="#e"/>
</g>
</g>
<g clip-path="url(#a)">
<defs>
<path id="f" d="m10.688 12.406h10.312v-12.406h-10.312z"/>
</defs>
<g transform="translate(1884.4 994.71) scale(.1 -.1)">
<use xlink:href="#f"/>
</g>
</g>
<g clip-path="url(#a)">
<defs>
<path id="c" d="m12.406 8.2969h16.109v55.625l-17.531-3.5156v8.9844l17.438 3.5156h9.8594v-64.609h16.109v-8.2969h-41.984z"/>
</defs>
<g transform="translate(485.65 50.807) scale(.1 -.1)">
<use xlink:href="#c"/>
<use x="63.623047" xlink:href="#f"/>
<use x="95.410156" xlink:href="#c"/>
</g>
</g>
<g clip-path="url(#a)">
<defs>
<path id="r" d="m19.188 8.2969h34.422v-8.2969h-46.281v8.2969q5.6094 5.8125 15.297 15.594 9.7031 9.7969 12.188 12.641 4.7344 5.3125 6.6094 9 1.8906 3.6875 1.8906 7.25 0 5.8125-4.0781 9.4688-4.0781 3.6719-10.625 3.6719-4.6406 0-9.7969-1.6094-5.1406-1.6094-11-4.8906v9.9688q5.9531 2.3906 11.125 3.6094 5.1875 1.2188 9.4844 1.2188 11.328 0 18.062-5.6719 6.7344-5.6562 6.7344-15.125 0-4.5-1.6875-8.5312-1.6719-4.0156-6.125-9.4844-1.2188-1.4219-7.7656-8.1875-6.5312-6.7656-18.453-18.922z"/>
</defs>
<g transform="translate(204.9 471.53) scale(.1 -.1)">
<use xlink:href="#c"/>
<use x="63.623047" xlink:href="#f"/>
<use x="95.410156" xlink:href="#r"/>
</g>
</g>
<g clip-path="url(#a)">
<defs>
<path id="n" d="m40.578 39.312q7.0781-1.5156 11.047-6.3125 3.9844-4.7812 3.9844-11.812 0-10.781-7.4219-16.703-7.4219-5.9062-21.094-5.9062-4.5781 0-9.4375 0.90625t-10.031 2.7188v9.5156q4.0938-2.3906 8.9688-3.6094 4.8906-1.2188 10.219-1.2188 9.2656 0 14.125 3.6562t4.8594 10.641q0 6.4531-4.5156 10.078-4.5156 3.6406-12.562 3.6406h-8.5v8.1094h8.8906q7.2656 0 11.125 2.9062t3.8594 8.375q0 5.6094-3.9844 8.6094-3.9688 3.0156-11.391 3.0156-4.0625 0-8.7031-0.89062-4.6406-0.875-10.203-2.7188v8.7812q5.625 1.5625 10.531 2.3438t9.25 0.78125q11.234 0 17.766-5.1094 6.5469-5.0938 6.5469-13.781 0-6.0625-3.4688-10.234t-9.8594-5.7812z"/>
</defs>
<g transform="translate(460.13 865.45) scale(.1 -.1)">
<use xlink:href="#c"/>
<use x="63.623047" xlink:href="#f"/>
<use x="95.410156" xlink:href="#n"/>
</g>
</g>
<g clip-path="url(#a)">
<defs>
<path id="o" d="m37.797 64.312-24.906-38.922h24.906zm-2.5938 8.5938h12.406v-47.516h10.406v-8.2031h-10.406v-17.188h-9.8125v17.188h-32.906v9.5156z"/>
</defs>
<g transform="translate(864.71 194.79) scale(.1 -.1)">
<use xlink:href="#c"/>
<use x="63.623047" xlink:href="#f"/>
<use x="95.410156" xlink:href="#o"/>
</g>
</g>
<g clip-path="url(#a)">
<defs>
<path id="t" d="m33.016 40.375q-6.6406 0-10.531-4.5469-3.875-4.5312-3.875-12.438 0-7.8594 3.875-12.438 3.8906-4.5625 10.531-4.5625t10.516 4.5625q3.875 4.5781 3.875 12.438 0 7.9062-3.875 12.438-3.875 4.5469-10.516 4.5469zm19.578 30.922v-8.9844q-3.7188 1.75-7.5 2.6719-3.7812 0.9375-7.5 0.9375-9.7656 0-14.922-6.5938-5.1406-6.5938-5.875-19.922 2.875 4.25 7.2188 6.5156 4.3594 2.2656 9.5781 2.2656 10.984 0 17.359-6.6719 6.375-6.6562 6.375-18.125 0-11.234-6.6406-18.031-6.6406-6.7812-17.672-6.7812-12.656 0-19.344 9.6875-6.6875 9.7031-6.6875 28.109 0 17.281 8.2031 27.562t22.016 10.281q3.7188 0 7.5-0.73438t7.8906-2.1875z"/>
</defs>
<g transform="translate(601.93 471.53) scale(.1 -.1)">
<use xlink:href="#c"/>
<use x="63.623047" xlink:href="#f"/>
<use x="95.410156" xlink:href="#t"/>
</g>
</g>
<g clip-path="url(#a)">
<defs>
<path id="af" d="m8.2031 72.906h46.875v-4.2031l-26.469-68.703h-10.297l24.906 64.594h-35.016z"/>
</defs>
<g transform="translate(885.52 865.45) scale(.1 -.1)">
<use xlink:href="#c"/>
<use x="63.623047" xlink:href="#f"/>
<use x="95.410156" xlink:href="#af"/>
</g>
</g>
<g clip-path="url(#a)">
<defs>
<path id="ac" d="m31.781 34.625q-7.0312 0-11.062-3.7656-4.0156-3.7656-4.0156-10.344 0-6.5938 4.0156-10.359 4.0312-3.7656 11.062-3.7656t11.078 3.7812q4.0625 3.7969 4.0625 10.344 0 6.5781-4.0312 10.344-4.0156 3.7656-11.109 3.7656zm-9.8594 4.1875q-6.3438 1.5625-9.8906 5.9062-3.5312 4.3594-3.5312 10.609 0 8.7344 6.2188 13.812 6.2344 5.0781 17.062 5.0781 10.891 0 17.094-5.0781t6.2031-13.812q0-6.25-3.5469-10.609-3.5312-4.3438-9.8281-5.9062 7.125-1.6562 11.094-6.5 3.9844-4.8281 3.9844-11.797 0-10.609-6.4688-16.281-6.4688-5.6562-18.531-5.6562-12.047 0-18.531 5.6562-6.4688 5.6719-6.4688 16.281 0 6.9688 4 11.797 4.0156 4.8438 11.141 6.5zm-3.6094 15.578q0-5.6562 3.5312-8.8281 3.5469-3.1719 9.9375-3.1719 6.3594 0 9.9375 3.1719 3.5938 3.1719 3.5938 8.8281 0 5.6719-3.5938 8.8438-3.5781 3.1719-9.9375 3.1719-6.3906 0-9.9375-3.1719-3.5312-3.1719-3.5312-8.8438z"/>
</defs>
<g transform="translate(1106.7 334.9) scale(.1 -.1)">
<use xlink:href="#c"/>
<use x="63.623047" xlink:href="#f"/>
<use x="95.410156" xlink:href="#ac"/>
</g>
</g>
<g clip-path="url(#a)">
<defs>
<path id="ab" d="m10.984 1.5156v8.9844q3.7188-1.7656 7.5156-2.6875 3.8125-0.92188 7.4844-0.92188 9.7656 0 14.906 6.5625 5.1562 6.5625 5.8906 19.953-2.8281-4.2031-7.1875-6.4531-4.3438-2.25-9.6094-2.25-10.938 0-17.312 6.6094-6.375 6.625-6.375 18.109 0 11.219 6.6406 18 6.6406 6.7969 17.672 6.7969 12.656 0 19.312-9.7031 6.6719-9.6875 6.6719-28.141 0-17.234-8.1875-27.516-8.1719-10.281-21.984-10.281-3.7188 0-7.5312 0.73438-3.7969 0.73438-7.9062 2.2031zm19.625 30.906q6.6406 0 10.516 4.5312 3.8906 4.5469 3.8906 12.469 0 7.8594-3.8906 12.422-3.875 4.5625-10.516 4.5625t-10.516-4.5625-3.875-12.422q0-7.9219 3.875-12.469 3.875-4.5312 10.516-4.5312z"/>
</defs>
<g transform="translate(932.78 865.45) scale(.1 -.1)">
<use xlink:href="#c"/>
<use x="63.623047" xlink:href="#f"/>
<use x="95.410156" xlink:href="#ab"/>
</g>
</g>
<g clip-path="url(#a)">
<defs>
<path id="ad" d="m31.781 66.406q-7.6094 0-11.453-7.5-3.8281-7.4844-3.8281-22.531 0-14.984 3.8281-22.484 3.8438-7.5 11.453-7.5 7.6719 0 11.5 7.5 3.8438 7.5 3.8438 22.484 0 15.047-3.8438 22.531-3.8281 7.5-11.5 7.5zm0 7.8125q12.266 0 18.734-9.7031 6.4688-9.6875 6.4688-28.141 0-18.406-6.4688-28.109-6.4688-9.6875-18.734-9.6875-12.25 0-18.719 9.6875-6.4688 9.7031-6.4688 28.109 0 18.453 6.4688 28.141 6.4688 9.7031 18.719 9.7031z"/>
</defs>
<g transform="translate(976.87 865.45) scale(.1 -.1)">
<use xlink:href="#c"/>
<use x="63.623047" xlink:href="#f"/>
<use x="95.410156" xlink:href="#c"/>
<use x="159.033203" xlink:href="#ad"/>
</g>
</g>
<g clip-path="url(#a)">
<g transform="translate(1483.4 471.53) scale(.1 -.1)">
<use xlink:href="#c"/>
<use x="63.623047" xlink:href="#f"/>
<use x="95.410156" xlink:href="#c"/>
<use x="159.033203" xlink:href="#c"/>
</g>
</g>
<g clip-path="url(#a)">
<g transform="translate(1071.4 865.45) scale(.1 -.1)">
<use xlink:href="#c"/>
<use x="63.623047" xlink:href="#f"/>
<use x="95.410156" xlink:href="#c"/>
<use x="159.033203" xlink:href="#n"/>
</g>
</g>
<g clip-path="url(#a)">
<g transform="translate(1369.2 605.12) scale(.1 -.1)">
<use xlink:href="#c"/>
<use x="63.623047" xlink:href="#f"/>
<use x="95.410156" xlink:href="#c"/>
<use x="159.033203" xlink:href="#o"/>
</g>
</g>
<g clip-path="url(#a)">
<defs>
<path id="p" d="m10.797 72.906h38.719v-8.3125h-29.688v-17.859q2.1406 0.73438 4.2812 1.0938 2.1562 0.35938 4.3125 0.35938 12.203 0 19.328-6.6875 7.1406-6.6875 7.1406-18.109 0-11.766-7.3281-18.297-7.3281-6.5156-20.656-6.5156-4.5938 0-9.3594 0.78125-4.75 0.78125-9.8281 2.3438v9.9219q4.3906-2.3906 9.0781-3.5625t9.9062-1.1719q8.4531 0 13.375 4.4375 4.9375 4.4375 4.9375 12.062 0 7.6094-4.9375 12.047-4.9219 4.4531-13.375 4.4531-3.9531 0-7.8906-0.875-3.9219-0.875-8.0156-2.7344z"/>
</defs>
<g transform="translate(1780.4 865.45) scale(.1 -.1)">
<use xlink:href="#c"/>
<use x="63.623047" xlink:href="#f"/>
<use x="95.410156" xlink:href="#c"/>
<use x="159.033203" xlink:href="#p"/>
</g>
</g>
<g clip-path="url(#a)">
<g transform="translate(1827.6 865.45) scale(.1 -.1)">
<use xlink:href="#c"/>
<use x="63.623047" xlink:href="#f"/>
<use x="95.410156" xlink:href="#c"/>
<use x="159.033203" xlink:href="#t"/>
</g>
</g>
<g clip-path="url(#a)">
<g transform="translate(1118.7 865.45) scale(.1 -.1)">
<use xlink:href="#c"/>
<use x="63.623047" xlink:href="#f"/>
<use x="95.410156" xlink:href="#c"/>
<use x="159.033203" xlink:href="#ac"/>
</g>
</g>
<g clip-path="url(#a)">
<g transform="translate(1165.9 865.45) scale(.1 -.1)">
<use xlink:href="#c"/>
<use x="63.623047" xlink:href="#f"/>
<use x="95.410156" xlink:href="#c"/>
<use x="159.033203" xlink:href="#ab"/>
</g>
</g>
<g clip-path="url(#a)">
<g transform="translate(1260.5 865.45) scale(.1 -.1)">
<use xlink:href="#c"/>
<use x="63.623047" xlink:href="#f"/>
<use x="95.410156" xlink:href="#r"/>
<use x="159.033203" xlink:href="#ad"/>
</g>
</g>
<g clip-path="url(#a)">
<g transform="translate(1378.6 736.18) scale(.1 -.1)">
<use xlink:href="#c"/>
<use x="63.623047" xlink:href="#f"/>
<use x="95.410156" xlink:href="#r"/>
<use x="159.033203" xlink:href="#c"/>
</g>
</g>
<g clip-path="url(#a)">
<g transform="translate(1520.4 736.18) scale(.1 -.1)">
<use xlink:href="#c"/>
<use x="63.623047" xlink:href="#f"/>
<use x="95.410156" xlink:href="#r"/>
<use x="159.033203" xlink:href="#r"/>
</g>
</g>
<g clip-path="url(#a)">
<g transform="translate(1685.8 736.18) scale(.1 -.1)">
<use xlink:href="#c"/>
<use x="63.623047" xlink:href="#f"/>
<use x="95.410156" xlink:href="#r"/>
<use x="159.033203" xlink:href="#n"/>
</g>
</g>
<g clip-path="url(#a)">
<g transform="translate(1638.6 865.45) scale(.1 -.1)">
<use xlink:href="#c"/>
<use x="63.623047" xlink:href="#f"/>
<use x="95.410156" xlink:href="#r"/>
<use x="159.033203" xlink:href="#ac"/>
</g>
</g>
<g clip-path="url(#a)">
<g transform="translate(1685.8 865.45) scale(.1 -.1)">
<use xlink:href="#c"/>
<use x="63.623047" xlink:href="#f"/>
<use x="95.410156" xlink:href="#r"/>
<use x="159.033203" xlink:href="#ab"/>
</g>
</g>
<g clip-path="url(#a)">
<g transform="translate(1733.1 865.45) scale(.1 -.1)">
<use xlink:href="#c"/>
<use x="63.623047" xlink:href="#f"/>
<use x="95.410156" xlink:href="#n"/>
<use x="159.033203" xlink:href="#ad"/>
</g>
</g>
<g clip-path="url(#a)">
<g transform="translate(1496.8 865.45) scale(.1 -.1)">
<use xlink:href="#c"/>
<use x="63.623047" xlink:href="#f"/>
<use x="95.410156" xlink:href="#n"/>
<use x="159.033203" xlink:href="#c"/>
</g>
</g>
<g clip-path="url(#a)">
<g transform="translate(1544 865.45) scale(.1 -.1)">
<use xlink:href="#c"/>
<use x="63.623047" xlink:href="#f"/>
<use x="95.410156" xlink:href="#n"/>
<use x="159.033203" xlink:href="#r"/>
</g>
</g>
<g clip-path="url(#a)">
<g transform="translate(1355 865.45) scale(.1 -.1)">
<use xlink:href="#c"/>
<use x="63.623047" xlink:href="#f"/>
<use x="95.410156" xlink:href="#n"/>
<use x="159.033203" xlink:href="#n"/>
</g>
</g>
<g clip-path="url(#a)">
<g transform="translate(1402.3 865.45) scale(.1 -.1)">
<use xlink:href="#c"/>
<use x="63.623047" xlink:href="#f"/>
<use x="95.410156" xlink:href="#n"/>
<use x="159.033203" xlink:href="#o"/>
</g>
</g>
<g clip-path="url(#a)">
<g transform="translate(504.22 865.45) scale(.1 -.1)">
<use xlink:href="#c"/>
<use x="63.623047" xlink:href="#f"/>
<use x="95.410156" xlink:href="#n"/>
<use x="159.033203" xlink:href="#p"/>
</g>
</g>
<g clip-path="url(#a)">
<g transform="translate(551.48 865.45) scale(.1 -.1)">
<use xlink:href="#c"/>
<use x="63.623047" xlink:href="#f"/>
<use x="95.410156" xlink:href="#n"/>
<use x="159.033203" xlink:href="#t"/>
</g>
</g>
<g clip-path="url(#a)">
<g transform="translate(598.75 865.45) scale(.1 -.1)">
<use xlink:href="#c"/>
<use x="63.623047" xlink:href="#f"/>
<use x="95.410156" xlink:href="#n"/>
<use x="159.033203" xlink:href="#af"/>
</g>
</g>
<g clip-path="url(#a)">
<g transform="translate(740.54 605.12) scale(.1 -.1)">
<use xlink:href="#c"/>
<use x="63.623047" xlink:href="#f"/>
<use x="95.410156" xlink:href="#n"/>
<use x="159.033203" xlink:href="#ac"/>
</g>
</g>
<g clip-path="url(#a)">
<g transform="translate(669.65 736.18) scale(.1 -.1)">
<use xlink:href="#c"/>
<use x="63.623047" xlink:href="#f"/>
<use x="95.410156" xlink:href="#n"/>
<use x="159.033203" xlink:href="#ab"/>
</g>
</g>
<g clip-path="url(#a)">
<g transform="translate(740.54 865.45) scale(.1 -.1)">
<use xlink:href="#c"/>
<use x="63.623047" xlink:href="#f"/>
<use x="95.410156" xlink:href="#o"/>
<use x="159.033203" xlink:href="#ad"/>
</g>
</g>
<g clip-path="url(#a)">
<g transform="translate(811.44 736.18) scale(.1 -.1)">
<use xlink:href="#c"/>
<use x="63.623047" xlink:href="#f"/>
<use x="95.410156" xlink:href="#o"/>
<use x="159.033203" xlink:href="#c"/>
</g>
</g>
<g clip-path="url(#a)">
<g transform="translate(787.81 865.45) scale(.1 -.1)">
<use xlink:href="#c"/>
<use x="63.623047" xlink:href="#f"/>
<use x="95.410156" xlink:href="#o"/>
<use x="159.033203" xlink:href="#r"/>
</g>
</g>
<g clip-path="url(#a)">
<g transform="translate(835.07 865.45) scale(.1 -.1)">
<use xlink:href="#c"/>
<use x="63.623047" xlink:href="#f"/>
<use x="95.410156" xlink:href="#o"/>
<use x="159.033203" xlink:href="#n"/>
</g>
</g>
<g clip-path="url(#a)">
<g transform="translate(646.01 865.45) scale(.1 -.1)">
<use xlink:href="#c"/>
<use x="63.623047" xlink:href="#f"/>
<use x="95.410156" xlink:href="#o"/>
<use x="159.033203" xlink:href="#o"/>
</g>
</g>
<g clip-path="url(#a)">
<g transform="translate(693.28 865.45) scale(.1 -.1)">
<use xlink:href="#c"/>
<use x="63.623047" xlink:href="#f"/>
<use x="95.410156" xlink:href="#o"/>
<use x="159.033203" xlink:href="#p"/>
</g>
</g>
<g clip-path="url(#a)">
<g transform="translate(78.835 865.45) scale(.1 -.1)">
<use xlink:href="#c"/>
<use x="63.623047" xlink:href="#f"/>
<use x="95.410156" xlink:href="#o"/>
<use x="159.033203" xlink:href="#t"/>
</g>
</g>
<g clip-path="url(#a)">
<g transform="translate(126.1 865.45) scale(.1 -.1)">
<use xlink:href="#c"/>
<use x="63.623047" xlink:href="#f"/>
<use x="95.410156" xlink:href="#o"/>
<use x="159.033203" xlink:href="#af"/>
</g>
</g>
<g clip-path="url(#a)">
<g transform="translate(197 605.12) scale(.1 -.1)">
<use xlink:href="#c"/>
<use x="63.623047" xlink:href="#f"/>
<use x="95.410156" xlink:href="#o"/>
<use x="159.033203" xlink:href="#ac"/>
</g>
</g>
<g clip-path="url(#a)">
<g transform="translate(338.79 605.12) scale(.1 -.1)">
<use xlink:href="#c"/>
<use x="63.623047" xlink:href="#f"/>
<use x="95.410156" xlink:href="#o"/>
<use x="159.033203" xlink:href="#ab"/>
</g>
</g>
<g clip-path="url(#a)">
<g transform="translate(267.89 865.45) scale(.1 -.1)">
<use xlink:href="#c"/>
<use x="63.623047" xlink:href="#f"/>
<use x="95.410156" xlink:href="#p"/>
<use x="159.033203" xlink:href="#ad"/>
</g>
</g>
<g clip-path="url(#a)">
<g transform="translate(338.79 736.18) scale(.1 -.1)">
<use xlink:href="#c"/>
<use x="63.623047" xlink:href="#f"/>
<use x="95.410156" xlink:href="#p"/>
<use x="159.033203" xlink:href="#c"/>
</g>
</g>
<g clip-path="url(#a)">
<g transform="translate(315.16 865.45) scale(.1 -.1)">
<use xlink:href="#c"/>
<use x="63.623047" xlink:href="#f"/>
<use x="95.410156" xlink:href="#p"/>
<use x="159.033203" xlink:href="#r"/>
</g>
</g>
<g clip-path="url(#a)">
<g transform="translate(362.42 865.45) scale(.1 -.1)">
<use xlink:href="#c"/>
<use x="63.623047" xlink:href="#f"/>
<use x="95.410156" xlink:href="#p"/>
<use x="159.033203" xlink:href="#n"/>
</g>
</g>
<g clip-path="url(#a)">
<g transform="translate(197 736.18) scale(.1 -.1)">
<use xlink:href="#c"/>
<use x="63.623047" xlink:href="#f"/>
<use x="95.410156" xlink:href="#p"/>
<use x="159.033203" xlink:href="#o"/>
</g>
</g>
<g clip-path="url(#a)">
<g transform="translate(173.36 865.45) scale(.1 -.1)">
<use xlink:href="#c"/>
<use x="63.623047" xlink:href="#f"/>
<use x="95.410156" xlink:href="#p"/>
<use x="159.033203" xlink:href="#p"/>
</g>
</g>
<g clip-path="url(#a)">
<g transform="translate(220.63 865.45) scale(.1 -.1)">
<use xlink:href="#c"/>
<use x="63.623047" xlink:href="#f"/>
<use x="95.410156" xlink:href="#p"/>
<use x="159.033203" xlink:href="#t"/>
</g>
</g>
<g clip-path="url(#a)">
<g transform="translate(409.69 865.45) scale(.1 -.1)">
<use xlink:href="#c"/>
<use x="63.623047" xlink:href="#f"/>
<use x="95.410156" xlink:href="#p"/>
<use x="159.033203" xlink:href="#af"/>
</g>
</g>
<g clip-path="url(#a)">
<g transform="translate(1024.1 865.45) scale(.1 -.1)">
<use xlink:href="#c"/>
<use x="63.623047" xlink:href="#f"/>
<use x="95.410156" xlink:href="#p"/>
<use x="159.033203" xlink:href="#ac"/>
</g>
</g>
<g clip-path="url(#a)">
<g transform="translate(1213.2 865.45) scale(.1 -.1)">
<use xlink:href="#c"/>
<use x="63.623047" xlink:href="#f"/>
<use x="95.410156" xlink:href="#p"/>
<use x="159.033203" xlink:href="#ab"/>
</g>
</g>
<g clip-path="url(#a)">
<g transform="translate(1307.7 865.45) scale(.1 -.1)">
<use xlink:href="#c"/>
<use x="63.623047" xlink:href="#f"/>
<use x="95.410156" xlink:href="#t"/>
<use x="159.033203" xlink:href="#ad"/>
</g>
</g>
<g clip-path="url(#a)">
<g transform="translate(1449.5 865.45) scale(.1 -.1)">
<use xlink:href="#c"/>
<use x="63.623047" xlink:href="#f"/>
<use x="95.410156" xlink:href="#t"/>
<use x="159.033203" xlink:href="#c"/>
</g>
</g>
<g clip-path="url(#a)">
<g transform="translate(1591.3 865.45) scale(.1 -.1)">
<use xlink:href="#c"/>
<use x="63.623047" xlink:href="#f"/>
<use x="95.410156" xlink:href="#t"/>
<use x="159.033203" xlink:href="#r"/>
</g>
</g>
<g clip-path="url(#a)">
<g transform="translate(1874.9 865.45) scale(.1 -.1)">
<use xlink:href="#c"/>
<use x="63.623047" xlink:href="#f"/>
<use x="95.410156" xlink:href="#t"/>
<use x="159.033203" xlink:href="#n"/>
</g>
</g>
<defs>
<clipPath id="a">
<rect width="1976" height="1040"/>
</clipPath>
</defs>
</svg>
