<?xml version="1.0" encoding="UTF-8"?>
<!DOCTYPE svg  PUBLIC '-//W3C//DTD SVG 1.1//EN'  'http://www.w3.org/Graphics/SVG/1.1/DTD/svg11.dtd'>
<svg width="1773.3pt" height="933.33pt" version="1.1" viewBox="0 0 1773.3 933.33" xmlns="http://www.w3.org/2000/svg" xmlns:xlink="http://www.w3.org/1999/xlink">
<defs>
<style type="text/css">*{stroke-linecap:butt;stroke-linejoin:round;white-space:pre;}</style>
</defs>
<path d="m0 933.33h1773.3v-933.33h-1773.3z" fill="#fff"/>
<g fill="none" stroke="#000">
<path d="m603.96 43.094-404.67 544.94" clip-path="url(#a)"/>
<path d="m603.96 43.094-191.35 746.88" clip-path="url(#a)"/>
<path d="m603.96 43.094 834.78 114.97" clip-path="url(#a)"/>
<path d="m603.96 43.094-238.76 746.88" clip-path="url(#a)"/>
<path d="m199.29 588.04-118.51 201.93" clip-path="url(#a)"/>
<path d="m199.29 588.04-71.108 201.93" clip-path="url(#a)"/>
<path d="m199.29 588.04v101.66" clip-path="url(#a)"/>
<path d="m199.29 588.04 71.108 201.93" clip-path="url(#a)"/>
<path d="m199.29 588.04 118.51 201.93" clip-path="url(#a)"/>
<path d="m412.61 789.97v100.27" clip-path="url(#a)"/>
<path d="m1438.7 158.07-811.84 111.68" clip-path="url(#a)"/>
<path d="m1438.7 158.07 64.199 631.9" clip-path="url(#a)"/>
<path d="m1438.7 158.07 111.6 631.9" clip-path="url(#a)"/>
<path d="m1438.7 158.07 159.01 631.9" clip-path="url(#a)"/>
<path d="m1438.7 158.07 206.42 631.9" clip-path="url(#a)"/>
<path d="m1438.7 158.07 16.793 631.9" clip-path="url(#a)"/>
<path d="m1438.7 158.07 253.82 631.9" clip-path="url(#a)"/>
<path d="m626.9 269.75-166.88 520.22" clip-path="url(#a)"/>
<path d="m626.9 269.75-119.48 520.22" clip-path="url(#a)"/>
<path d="m626.9 269.75 358.43 108.68" clip-path="url(#a)"/>
<path d="m626.9 269.75-72.071 520.22" clip-path="url(#a)"/>
<path d="m1502.9 789.97v100.27" clip-path="url(#a)"/>
<path d="m1550.3 789.97v100.27" clip-path="url(#a)"/>
<path d="m1597.7 789.97v100.27" clip-path="url(#a)"/>
<path d="m1645.2 789.97v100.27" clip-path="url(#a)"/>
<path d="m460.02 789.97v100.27" clip-path="url(#a)"/>
<path d="m507.42 789.97v100.27" clip-path="url(#a)"/>
<path d="m985.33 378.43-110.51 209.61" clip-path="url(#a)"/>
<path d="m985.33 378.43-98.663 411.54" clip-path="url(#a)"/>
<path d="m985.33 378.43 74.664 105.98" clip-path="url(#a)"/>
<path d="m985.33 378.43-146.07 411.54" clip-path="url(#a)"/>
<path d="m985.33 378.43 280.58 411.54" clip-path="url(#a)"/>
<path d="m874.82 588.04-367.39 201.93" clip-path="url(#a)" stroke-dasharray="3.7,1.6"/>
<path d="m874.82 588.04-272.58 201.93" clip-path="url(#a)"/>
<path d="m874.82 588.04-225.18 201.93" clip-path="url(#a)"/>
<path d="m874.82 588.04-130.37 101.66" clip-path="url(#a)"/>
<path d="m874.82 588.04 462.2 201.93" clip-path="url(#a)"/>
<path d="m874.82 588.04 533.31 201.93" clip-path="url(#a)"/>
<path d="m886.67 789.97v100.27" clip-path="url(#a)"/>
<path d="m1060 484.41-125.92 305.56" clip-path="url(#a)"/>
<path d="m1060 484.41-78.515 305.56" clip-path="url(#a)"/>
<path d="m1060 484.41 45.924 103.62" clip-path="url(#a)"/>
<path d="m1060 484.41 158.51 305.56" clip-path="url(#a)"/>
<path d="m934.07 789.97v100.27" clip-path="url(#a)"/>
<path d="m981.48 789.97v100.27" clip-path="url(#a)"/>
<path d="m1105.9 588.04-77.034 201.93" clip-path="url(#a)"/>
<path d="m1105.9 588.04-29.628 201.93" clip-path="url(#a)"/>
<path d="m1105.9 588.04 41.48 101.66" clip-path="url(#a)"/>
<path d="m1105.9 588.04 65.183 201.93" clip-path="url(#a)"/>
<path d="m1218.5 789.97v100.27" clip-path="url(#a)"/>
<path d="m1028.9 789.97v100.27" clip-path="url(#a)"/>
<path d="m1076.3 789.97v100.27" clip-path="url(#a)"/>
<path d="m1147.4 689.7 23.703 100.27" clip-path="url(#a)" stroke-dasharray="3.7,1.6"/>
<path d="m1147.4 689.7-23.703 100.27" clip-path="url(#a)"/>
<path d="m1171.1 789.97v100.27" clip-path="url(#a)"/>
<path d="m1123.7 789.97v100.27" clip-path="url(#a)"/>
<path d="m602.23 789.97v100.27" clip-path="url(#a)"/>
<path d="m649.64 789.97v100.27" clip-path="url(#a)"/>
<path d="m744.45 689.7-47.406 100.27" clip-path="url(#a)"/>
<path d="m744.45 689.7v100.27" clip-path="url(#a)"/>
<path d="m744.45 689.7 47.406 100.27" clip-path="url(#a)"/>
<path d="m1337 789.97-23.703 100.27" clip-path="url(#a)"/>
<path d="m1337 789.97 23.703 100.27" clip-path="url(#a)"/>
<path d="m1408.1 789.97v100.27" clip-path="url(#a)"/>
<path d="m697.04 789.97v100.27" clip-path="url(#a)"/>
<path d="m744.45 789.97v100.27" clip-path="url(#a)"/>
<path d="m791.86 789.97v100.27" clip-path="url(#a)"/>
<path d="m80.773 789.97v100.27" clip-path="url(#a)"/>
<path d="m128.18 789.97v100.27" clip-path="url(#a)"/>
<path d="m199.29 689.7-23.703 100.27" clip-path="url(#a)"/>
<path d="m199.29 689.7 23.703 100.27" clip-path="url(#a)"/>
<path d="m270.39 789.97v100.27" clip-path="url(#a)"/>
<path d="m317.8 789.97v100.27" clip-path="url(#a)"/>
<path d="m175.58 789.97v100.27" clip-path="url(#a)"/>
<path d="m222.99 789.97v100.27" clip-path="url(#a)"/>
<path d="m365.21 789.97v100.27" clip-path="url(#a)"/>
<path d="m554.83 789.97v100.27" clip-path="url(#a)"/>
<path d="m839.26 789.97v100.27" clip-path="url(#a)"/>
<path d="m1265.9 789.97v100.27" clip-path="url(#a)"/>
<path d="m1455.5 789.97v100.27" clip-path="url(#a)"/>
<path d="m1692.6 789.97v100.27" clip-path="url(#a)"/>
</g>
<path d="m404.87 321.72 3.5868-4.8301q1.4309-1.9268-0.49596-3.3577l-6.216-4.616q-1.9268-1.4309-3.3577 0.49596l-3.5868 4.8301q-1.4309 1.9268 0.49596 3.3577l6.216 4.616q1.9268 1.4309 3.3577-0.49596z" clip-path="url(#a)" fill="#fff" stroke="#fff"/>
<g clip-path="url(#a)">
<defs>
<path id="ad" d="m9.8125 72.906h9.8594v-29.891h35.844v29.891h9.8594v-72.906h-9.8594v34.719h-35.844v-34.719h-9.8594z"/>
</defs>
<g transform="translate(401.6 319.3) rotate(-53.402) scale(.08 -.08)">
<use xlink:href="#ad"/>
</g>
</g>
<path d="m513.81 420.25 1.1063-4.318q0.59564-2.3249-1.7293-2.9206l-7.5003-1.9216q-2.3249-0.59564-2.9206 1.7293l-1.1063 4.318q-0.59564 2.3249 1.7293 2.9206l7.5003 1.9216q2.3249 0.59564 2.9206-1.7293z" clip-path="url(#a)" fill="#fff" stroke="#fff"/>
<g clip-path="url(#a)">
<defs>
<path id="ar" d="m9.8125 72.906h9.8594v-64.609h35.5v-8.2969h-45.359z"/>
</defs>
<g transform="translate(509.87 419.24) rotate(-75.63) scale(.08 -.08)">
<use xlink:href="#ar"/>
</g>
</g>
<path d="m1017.5 106.38 5.96 0.82086q2.3776 0.32746 2.705-2.0501l1.0564-7.6701q0.32746-2.3776-2.0501-2.705l-5.96-0.82085q-2.3776-0.32746-2.705 2.0501l-1.0564 7.6701q-0.32746 2.3776 2.0501 2.705z" clip-path="url(#a)" fill="#fff" stroke="#fff"/>
<g clip-path="url(#a)">
<g transform="translate(1018.1 102.36) rotate(7.8419) scale(.08 -.08)">
<use xlink:href="#ad"/>
</g>
</g>
<path d="m489.67 421.23 1.7828-5.577q0.73078-2.286-1.5553-3.0168l-7.3748-2.3575q-2.286-0.73078-3.0168 1.5553l-1.7828 5.577q-0.73078 2.286 1.5553 3.0168l7.3748 2.3575q2.286 0.73078 3.0168-1.5553z" clip-path="url(#a)" fill="#fff" stroke="#fff"/>
<g clip-path="url(#a)">
<defs>
<path id="u" d="m8.6875 72.906h9.9219v-44.297q0-11.719 4.2344-16.875 4.25-5.1406 13.781-5.1406 9.4688 0 13.719 5.1406 4.25 5.1562 4.25 16.875v44.297h9.9062v-45.516q0-14.25-7.0625-21.531-7.0469-7.2812-20.812-7.2812-13.828 0-20.891 7.2812-7.0469 7.2812-7.0469 21.531z"/>
</defs>
<g transform="translate(485.79 419.99) rotate(-72.272) scale(.08 -.08)">
<use xlink:href="#u"/>
</g>
</g>
<path d="m144.05 694.54 2.77-4.7197q1.2148-2.0699-0.85507-3.2846l-6.6774-3.9189q-2.0699-1.2148-3.2846 0.85507l-2.77 4.7197q-1.2148 2.0699 0.85507 3.2846l6.6774 3.9189q2.0699 1.2148 3.2846-0.85507z" clip-path="url(#a)" fill="#fff" stroke="#fff"/>
<g clip-path="url(#a)">
<defs>
<path id="o" d="m34.188 63.188-13.391-36.281h26.812zm-5.5781 9.7188h11.188l27.781-72.906h-10.25l-6.6406 18.703h-32.859l-6.6406-18.703h-10.406z"/>
</defs>
<g transform="translate(140.55 692.48) rotate(-59.592) scale(.08 -.08)">
<use xlink:href="#o"/>
</g>
</g>
<path d="m168.62 693.99 2.046-5.8103q0.79715-2.2637-1.4666-3.0609l-7.3029-2.5716q-2.2637-0.79715-3.0609 1.4666l-2.046 5.8103q-0.79715 2.2637 1.4666 3.0609l7.3029 2.5716q2.2637 0.79715 3.0609-1.4666z" clip-path="url(#a)" fill="#fff" stroke="#fff"/>
<g clip-path="url(#a)">
<defs>
<path id="ae" d="m19.672 64.797v-56.688h11.922q15.094 0 22.094 6.8281 7 6.8438 7 21.594 0 14.641-7 21.453t-22.094 6.8125zm-9.8594 8.1094h20.266q21.188 0 31.094-8.8125 9.9219-8.8125 9.9219-27.562 0-18.859-9.9688-27.703-9.9531-8.8281-31.047-8.8281h-20.266z"/>
</defs>
<g transform="translate(164.79 692.64) rotate(-70.601) scale(.08 -.08)">
<use xlink:href="#ae"/>
</g>
</g>
<path d="m193.02 636.13v5.4725q0 2.4 2.4 2.4h7.7425q2.4 0 2.4-2.4v-5.4725q0-2.4-2.4-2.4h-7.7425q-2.4 0-2.4 2.4z" clip-path="url(#a)" fill="#fff" stroke="#fff"/>
<g clip-path="url(#a)">
<g transform="translate(197.08 636.13) rotate(90) scale(.08 -.08)">
<use xlink:href="#o"/>
</g>
</g>
<path d="m228.12 688.81 1.6022 4.5499q0.79715 2.2637 3.0609 1.4666l7.3029-2.5716q2.2637-0.79715 1.4666-3.0609l-1.6022-4.5499q-0.79715-2.2637-3.0609-1.4666l-7.3029 2.5716q-2.2637 0.79715-1.4666 3.0609z" clip-path="url(#a)" fill="#fff" stroke="#fff"/>
<g clip-path="url(#a)">
<defs>
<path id="al" d="m19.672 64.797v-27.391h12.406q6.8906 0 10.641 3.5625 3.7656 3.5625 3.7656 10.156 0 6.5469-3.7656 10.109-3.75 3.5625-10.641 3.5625zm-9.8594 8.1094h22.266q12.266 0 18.531-5.5469 6.2812-5.5469 6.2812-16.234 0-10.797-6.2812-16.312-6.2656-5.5156-18.531-5.5156h-12.406v-29.297h-9.8594z"/>
</defs>
<g transform="translate(231.96 687.46) rotate(70.601) scale(.08 -.08)">
<use xlink:href="#al"/>
</g>
</g>
<path d="m251.58 689.52 3.1179 5.3126q1.2148 2.0699 3.2846 0.85507l6.6774-3.9189q2.0699-1.2148 0.85507-3.2846l-3.1179-5.3126q-1.2148-2.0699-3.2846-0.85507l-6.6774 3.9189q-2.0699 1.2148-0.85507 3.2846z" clip-path="url(#a)" fill="#fff" stroke="#fff"/>
<g clip-path="url(#a)">
<g transform="translate(255.08 687.46) rotate(59.592) scale(.08 -.08)">
<use xlink:href="#ae"/>
</g>
</g>
<path d="m406.34 822.46v35.285q0 2.4 2.4 2.4h7.7425q2.4 0 2.4-2.4v-35.285q0-2.4-2.4-2.4h-7.7425q-2.4 0-2.4 2.4z" clip-path="url(#a)" fill="#fff" stroke="#fff"/>
<g clip-path="url(#a)">
<defs>
<path id="l" d="m-0.29688 72.906h61.672v-8.3125h-25.875v-64.594h-9.9062v64.594h-25.891z"/>
<path id="c" d="m56.203 29.594v-4.3906h-41.312q0.59375-9.2812 5.5938-14.141t13.938-4.8594q5.1719 0 10.031 1.2656t9.6562 3.8125v-8.5q-4.8438-2.0469-9.9219-3.125t-10.297-1.0781q-13.094 0-20.734 7.6094-7.6406 7.625-7.6406 20.625 0 13.422 7.25 21.297 7.25 7.8906 19.562 7.8906 11.031 0 17.453-7.1094 6.4219-7.0938 6.4219-19.297zm-8.9844 2.6406q-0.09375 7.3594-4.125 11.75-4.0312 4.4062-10.672 4.4062-7.5156 0-12.031-4.25t-5.2031-11.969z"/>
<path id="h" d="m41.109 46.297q-1.5156 0.875-3.2969 1.2812-1.7812 0.42188-3.9219 0.42188-7.625 0-11.703-4.9531t-4.0781-14.234v-28.812h-9.0312v54.688h9.0312v-8.5q2.8438 4.9844 7.375 7.3906 4.5469 2.4219 11.047 2.4219 0.92188 0 2.0469-0.125 1.125-0.10938 2.4844-0.35938z"/>
<path id="j" d="m52 44.188q3.375 6.0625 8.0625 8.9375t11.031 2.875q8.5469 0 13.188-5.9844 4.6406-5.9688 4.6406-17v-33.016h-9.0312v32.719q0 7.8594-2.7969 11.656-2.7812 3.8125-8.4844 3.8125-6.9844 0-11.047-4.6406-4.0469-4.625-4.0469-12.641v-30.906h-9.0312v32.719q0 7.9062-2.7812 11.688t-8.5938 3.7812q-6.8906 0-10.953-4.6562-4.0469-4.6562-4.0469-12.625v-30.906h-9.0312v54.688h9.0312v-8.5q3.0781 5.0312 7.375 7.4219t10.203 2.3906q5.9688 0 10.141-3.0312 4.1719-3.0156 6.1719-8.7812z"/>
<path id="f" d="m9.4219 54.688h8.9844v-54.688h-8.9844zm0 21.297h8.9844v-11.391h-8.9844z"/>
<path id="d" d="m54.891 33.016v-33.016h-8.9844v32.719q0 7.7656-3.0312 11.609-3.0312 3.8594-9.0781 3.8594-7.2812 0-11.484-4.6406-4.2031-4.625-4.2031-12.641v-30.906h-9.0312v54.688h9.0312v-8.5q3.2344 4.9375 7.5938 7.375 4.375 2.4375 10.094 2.4375 9.4219 0 14.25-5.8281 4.8438-5.8281 4.8438-17.156z"/>
<path id="i" d="m34.281 27.484q-10.891 0-15.094-2.4844t-4.2031-8.5q0-4.7812 3.1562-7.5938 3.1562-2.7969 8.5625-2.7969 7.4844 0 12 5.2969t4.5156 14.078v2zm17.922 3.7188v-31.203h-8.9844v8.2969q-3.0781-4.9688-7.6719-7.3438t-11.234-2.375q-8.3906 0-13.359 4.7188-4.9531 4.7188-4.9531 12.625 0 9.2188 6.1719 13.906 6.1875 4.6875 18.438 4.6875h12.609v0.89062q0 6.2031-4.0781 9.5938t-11.453 3.3906q-4.6875 0-9.1406-1.125-4.4375-1.125-8.5312-3.375v8.3125q4.9219 1.9062 9.5625 2.8438 4.6406 0.95312 9.0312 0.95312 11.875 0 17.734-6.1562 5.8594-6.1406 5.8594-18.641z"/>
<path id="k" d="m9.4219 75.984h8.9844v-75.984h-8.9844z"/>
</defs>
<g transform="translate(410.4 822.46) rotate(90) scale(.08 -.08)">
<use xlink:href="#l"/>
<use x="60.818359" xlink:href="#c"/>
<use x="122.341797" xlink:href="#h"/>
<use x="163.439453" xlink:href="#j"/>
<use x="260.851562" xlink:href="#f"/>
<use x="288.634766" xlink:href="#d"/>
<use x="352.013672" xlink:href="#i"/>
<use x="413.292969" xlink:href="#k"/>
</g>
</g>
<path d="m1031 220.49 5.4214-0.74581q2.3776-0.32708 2.0505-2.7047l-1.0552-7.6703q-0.32708-2.3776-2.7047-2.0505l-5.4214 0.74581q-2.3776 0.32708-2.0505 2.7047l1.0552 7.6703q0.32708 2.3776 2.7047 2.0505z" clip-path="url(#a)" fill="#fff" stroke="#fff"/>
<g clip-path="url(#a)">
<g transform="translate(1030.4 216.47) rotate(-7.8329) scale(.08 -.08)">
<use xlink:href="#o"/>
</g>
</g>
<path d="m1464.4 472.36 0.46507 4.5777q0.24258 2.3877 2.6303 2.1451l7.7028-0.78257q2.3877-0.24258 2.1451-2.6303l-0.46507-4.5777q-0.24258-2.3877-2.6303-2.1451l-7.7028 0.78258q-2.3877 0.24258-2.1451 2.6303z" clip-path="url(#a)" fill="#fff" stroke="#fff"/>
<g clip-path="url(#a)">
<defs>
<path id="ay" d="m9.8125 72.906h41.891v-8.3125h-32.031v-21.484h28.906v-8.2969h-28.906v-34.812h-9.8594z"/>
</defs>
<g transform="translate(1468.4 471.95) rotate(84.199) scale(.08 -.08)">
<use xlink:href="#ay"/>
</g>
</g>
<path d="m1487.9 472.41 0.9518 5.3891q0.41742 2.3634 2.7808 1.946l7.6245-1.3466q2.3634-0.41742 1.946-2.7808l-0.9518-5.3891q-0.41742-2.3634-2.7808-1.946l-7.6245 1.3466q-2.3634 0.41742-1.946 2.7808z" clip-path="url(#a)" fill="#fff" stroke="#fff"/>
<g clip-path="url(#a)">
<g transform="translate(1491.9 471.71) rotate(79.984) scale(.08 -.08)">
<use xlink:href="#o"/>
</g>
</g>
<path d="m1511.4 472.56 1.5032 5.9738q0.58567 2.3274 2.9131 1.7418l7.5084-1.8894q2.3274-0.58567 1.7418-2.9131l-1.5032-5.9738q-0.58567-2.3274-2.9131-1.7418l-7.5084 1.8894q-2.3274 0.58567-1.7418 2.9131z" clip-path="url(#a)" fill="#fff" stroke="#fff"/>
<g clip-path="url(#a)">
<g transform="translate(1515.4 471.57) rotate(75.876) scale(.08 -.08)">
<use xlink:href="#ae"/>
</g>
</g>
<path d="m1535.2 473.55 1.577 4.8277q0.74522 2.2814 3.0266 1.5361l7.3598-2.4041q2.2814-0.74522 1.5361-3.0266l-1.577-4.8277q-0.74522-2.2814-3.0266-1.5361l-7.3598 2.4041q-2.2814 0.74522-1.5361 3.0266z" clip-path="url(#a)" fill="#fff" stroke="#fff"/>
<g clip-path="url(#a)">
<defs>
<path id="aq" d="m53.516 70.516v-9.625q-5.6094 2.6875-10.594 4-4.9844 1.3281-9.625 1.3281-8.0469 0-12.422-3.125t-4.375-8.8906q0-4.8438 2.9062-7.3125 2.9062-2.4531 11.016-3.9688l5.9531-1.2188q11.031-2.1094 16.281-7.4062t5.25-14.172q0-10.609-7.1094-16.078-7.0938-5.4688-20.812-5.4688-5.1719 0-11.016 1.1719-5.8281 1.1719-12.078 3.4688v10.156q6-3.3594 11.766-5.0781 5.7656-1.7031 11.328-1.7031 8.4375 0 13.031 3.3125 4.5938 3.3281 4.5938 9.4844 0 5.3594-3.2969 8.3906t-10.812 4.5469l-6.0156 1.1719q-11.031 2.1875-15.969 6.875-4.9219 4.6875-4.9219 13.047 0 9.6719 6.8125 15.234t18.766 5.5625q5.1406 0 10.453-0.9375 5.3281-0.92188 10.891-2.7656z"/>
</defs>
<g transform="translate(1539.1 472.29) rotate(71.91) scale(.08 -.08)">
<use xlink:href="#aq"/>
</g>
</g>
<path d="m1440.8 471.26 0.15554 5.8529q0.063759 2.3992 2.4629 2.3354l7.7398-0.20569q2.3992-0.063758 2.3354-2.4629l-0.15554-5.8529q-0.063758-2.3992-2.4629-2.3354l-7.7398 0.20569q-2.3992 0.063758-2.3354 2.4629z" clip-path="url(#a)" fill="#fff" stroke="#fff"/>
<g clip-path="url(#a)">
<g transform="translate(1444.9 471.15) rotate(88.478) scale(.08 -.08)">
<use xlink:href="#u"/>
</g>
</g>
<path d="m1558.7 473.64 2.1823 5.4331q0.89456 2.2271 3.1216 1.3325l7.1846-2.8859q2.2271-0.89456 1.3325-3.1216l-2.1823-5.4331q-0.89456-2.2271-3.1216-1.3325l-7.1846 2.8859q-2.2271 0.89456-1.3325 3.1216z" clip-path="url(#a)" fill="#fff" stroke="#fff"/>
<g clip-path="url(#a)">
<g transform="translate(1562.5 472.12) rotate(68.116) scale(.08 -.08)">
<use xlink:href="#u"/>
</g>
</g>
<path d="m548.66 534.18 1.5441-4.8134q0.7331-2.2853-1.5522-3.0184l-7.3724-2.365q-2.2853-0.7331-3.0184 1.5522l-1.5441 4.8134q-0.7331 2.2853 1.5522 3.0184l7.3724 2.365q2.2853 0.7331 3.0184-1.5522z" clip-path="url(#a)" fill="#fff" stroke="#fff"/>
<g clip-path="url(#a)">
<defs>
<path id="v" d="m9.8125 72.906h46.094v-8.3125h-36.234v-21.578h34.719v-8.2969h-34.719v-26.422h37.109v-8.2969h-46.969z"/>
</defs>
<g transform="translate(544.79 532.94) rotate(-72.214) scale(.08 -.08)">
<use xlink:href="#v"/>
</g>
</g>
<path d="m572.65 533.99 1.2504-5.4445q0.53721-2.3391-1.8019-2.8763l-7.546-1.7331q-2.3391-0.53721-2.8763 1.8019l-1.2504 5.4445q-0.53721 2.3391 1.8019 2.8763l7.546 1.7331q2.3391 0.53721 2.8763-1.8019z" clip-path="url(#a)" fill="#fff" stroke="#fff"/>
<g clip-path="url(#a)">
<defs>
<path id="af" d="m64.406 67.281v-10.391q-4.9844 4.6406-10.625 6.9219-5.6406 2.2969-11.984 2.2969-12.5 0-19.141-7.6406t-6.6406-22.094q0-14.406 6.6406-22.047t19.141-7.6406q6.3438 0 11.984 2.2969t10.625 6.9375v-10.312q-5.1719-3.5156-10.969-5.2812-5.7812-1.75-12.219-1.75-16.562 0-26.094 10.125-9.5156 10.141-9.5156 27.672 0 17.578 9.5156 27.703 9.5312 10.141 26.094 10.141 6.5312 0 12.312-1.7344 5.7969-1.7344 10.875-5.2031z"/>
</defs>
<g transform="translate(568.69 533.08) rotate(-77.065) scale(.08 -.08)">
<use xlink:href="#af"/>
</g>
</g>
<path d="m801.88 329.36 4.8375 1.4668q2.2967 0.6964 2.9931-1.6003l2.2466-7.4094q0.6964-2.2967-1.6003-2.9931l-4.8375-1.4668q-2.2967-0.6964-2.9931 1.6003l-2.2466 7.4094q-0.6964 2.2967 1.6003 2.9931z" clip-path="url(#a)" fill="#fff" stroke="#fff"/>
<g clip-path="url(#a)">
<g transform="translate(803.06 325.47) rotate(16.868) scale(.08 -.08)">
<use xlink:href="#v"/>
</g>
</g>
<path d="m596.67 533.62 0.80348-5.7996q0.32935-2.3773-2.0479-2.7066l-7.6693-1.0625q-2.3773-0.32935-2.7066 2.0479l-0.80348 5.7996q-0.32935 2.3773 2.0479 2.7066l7.6693 1.0625q2.3773 0.32935 2.7066-2.0479z" clip-path="url(#a)" fill="#fff" stroke="#fff"/>
<g clip-path="url(#a)">
<g transform="translate(592.65 533.06) rotate(-82.112) scale(.08 -.08)">
<use xlink:href="#u"/>
</g>
</g>
<path d="m1496.7 822.46v35.285q0 2.4 2.4 2.4h7.7425q2.4 0 2.4-2.4v-35.285q0-2.4-2.4-2.4h-7.7425q-2.4 0-2.4 2.4z" clip-path="url(#a)" fill="#fff" stroke="#fff"/>
<g clip-path="url(#a)">
<g transform="translate(1500.7 822.46) rotate(90) scale(.08 -.08)">
<use xlink:href="#l"/>
<use x="60.818359" xlink:href="#c"/>
<use x="122.341797" xlink:href="#h"/>
<use x="163.439453" xlink:href="#j"/>
<use x="260.851562" xlink:href="#f"/>
<use x="288.634766" xlink:href="#d"/>
<use x="352.013672" xlink:href="#i"/>
<use x="413.292969" xlink:href="#k"/>
</g>
</g>
<path d="m1544.1 822.46v35.285q0 2.4 2.4 2.4h7.7425q2.4 0 2.4-2.4v-35.285q0-2.4-2.4-2.4h-7.7425q-2.4 0-2.4 2.4z" clip-path="url(#a)" fill="#fff" stroke="#fff"/>
<g clip-path="url(#a)">
<g transform="translate(1548.1 822.46) rotate(90) scale(.08 -.08)">
<use xlink:href="#l"/>
<use x="60.818359" xlink:href="#c"/>
<use x="122.341797" xlink:href="#h"/>
<use x="163.439453" xlink:href="#j"/>
<use x="260.851562" xlink:href="#f"/>
<use x="288.634766" xlink:href="#d"/>
<use x="352.013672" xlink:href="#i"/>
<use x="413.292969" xlink:href="#k"/>
</g>
</g>
<path d="m1591.5 822.46v35.285q0 2.4 2.4 2.4h7.7425q2.4 0 2.4-2.4v-35.285q0-2.4-2.4-2.4h-7.7425q-2.4 0-2.4 2.4z" clip-path="url(#a)" fill="#fff" stroke="#fff"/>
<g clip-path="url(#a)">
<g transform="translate(1595.5 822.46) rotate(90) scale(.08 -.08)">
<use xlink:href="#l"/>
<use x="60.818359" xlink:href="#c"/>
<use x="122.341797" xlink:href="#h"/>
<use x="163.439453" xlink:href="#j"/>
<use x="260.851562" xlink:href="#f"/>
<use x="288.634766" xlink:href="#d"/>
<use x="352.013672" xlink:href="#i"/>
<use x="413.292969" xlink:href="#k"/>
</g>
</g>
<path d="m1638.9 822.46v35.285q0 2.4 2.4 2.4h7.7425q2.4 0 2.4-2.4v-35.285q0-2.4-2.4-2.4h-7.7425q-2.4 0-2.4 2.4z" clip-path="url(#a)" fill="#fff" stroke="#fff"/>
<g clip-path="url(#a)">
<g transform="translate(1642.9 822.46) rotate(90) scale(.08 -.08)">
<use xlink:href="#l"/>
<use x="60.818359" xlink:href="#c"/>
<use x="122.341797" xlink:href="#h"/>
<use x="163.439453" xlink:href="#j"/>
<use x="260.851562" xlink:href="#f"/>
<use x="288.634766" xlink:href="#d"/>
<use x="352.013672" xlink:href="#i"/>
<use x="413.292969" xlink:href="#k"/>
</g>
</g>
<path d="m453.75 822.46v35.285q0 2.4 2.4 2.4h7.7425q2.4 0 2.4-2.4v-35.285q0-2.4-2.4-2.4h-7.7425q-2.4 0-2.4 2.4z" clip-path="url(#a)" fill="#fff" stroke="#fff"/>
<g clip-path="url(#a)">
<g transform="translate(457.81 822.46) rotate(90) scale(.08 -.08)">
<use xlink:href="#l"/>
<use x="60.818359" xlink:href="#c"/>
<use x="122.341797" xlink:href="#h"/>
<use x="163.439453" xlink:href="#j"/>
<use x="260.851562" xlink:href="#f"/>
<use x="288.634766" xlink:href="#d"/>
<use x="352.013672" xlink:href="#i"/>
<use x="413.292969" xlink:href="#k"/>
</g>
</g>
<path d="m501.15 822.46v35.285q0 2.4 2.4 2.4h7.7425q2.4 0 2.4-2.4v-35.285q0-2.4-2.4-2.4h-7.7425q-2.4 0-2.4 2.4z" clip-path="url(#a)" fill="#fff" stroke="#fff"/>
<g clip-path="url(#a)">
<g transform="translate(505.21 822.46) rotate(90) scale(.08 -.08)">
<use xlink:href="#l"/>
<use x="60.818359" xlink:href="#c"/>
<use x="122.341797" xlink:href="#h"/>
<use x="163.439453" xlink:href="#j"/>
<use x="260.851562" xlink:href="#f"/>
<use x="288.634766" xlink:href="#d"/>
<use x="352.013672" xlink:href="#i"/>
<use x="413.292969" xlink:href="#k"/>
</g>
</g>
<path d="m934.22 488.82 2.8059-5.3218q1.1193-2.123-1.0036-3.2423l-6.8488-3.611q-2.123-1.1193-3.2423 1.0036l-2.8059 5.3218q-1.1193 2.123 1.0036 3.2423l6.8488 3.611q2.123 1.1193 3.2423-1.0036z" clip-path="url(#a)" fill="#fff" stroke="#fff"/>
<g clip-path="url(#a)">
<g transform="translate(930.62 486.92) rotate(-62.2) scale(.08 -.08)">
<use xlink:href="#ad"/>
</g>
</g>
<path d="m941.58 587.83 1.0392-4.3347q0.55952-2.3339-1.7743-2.8934l-7.5292-1.805q-2.3339-0.55952-2.8934 1.7743l-1.0392 4.3347q-0.55952 2.3339 1.7743 2.8934l7.5292 1.805q2.3339 0.55952 2.8934-1.7743z" clip-path="url(#a)" fill="#fff" stroke="#fff"/>
<g clip-path="url(#a)">
<g transform="translate(937.63 586.88) rotate(-76.518) scale(.08 -.08)">
<use xlink:href="#ar"/>
</g>
</g>
<path d="m1015.8 432.57 3.4649 4.9183q1.3822 1.962 3.3442 0.5798l6.3295-4.4591q1.962-1.3822 0.5798-3.3442l-3.4649-4.9183q-1.3822-1.962-3.3442-0.5798l-6.3295 4.4591q-1.962 1.3822-0.5798 3.3442z" clip-path="url(#a)" fill="#fff" stroke="#fff"/>
<g clip-path="url(#a)">
<g transform="translate(1019.1 430.23) rotate(54.836) scale(.08 -.08)">
<use xlink:href="#ad"/>
</g>
</g>
<path d="m917.23 589.06 1.9584-5.5178q0.80277-2.2618-1.459-3.0645l-7.2965-2.5898q-2.2618-0.80277-3.0645 1.459l-1.9584 5.5178q-0.80277 2.2618 1.459 3.0645l7.2965 2.5898q2.2618 0.80277 3.0645-1.459z" clip-path="url(#a)" fill="#fff" stroke="#fff"/>
<g clip-path="url(#a)">
<g transform="translate(913.4 587.7) rotate(-70.459) scale(.08 -.08)">
<use xlink:href="#u"/>
</g>
</g>
<path d="m1118.8 585.31 3.2982 4.8376q1.352 1.983 3.3349 0.63101l6.3972-4.3615q1.983-1.352 0.63101-3.3349l-3.2982-4.8376q-1.352-1.983-3.3349-0.63101l-6.3972 4.3615q-1.983 1.352-0.63101 3.3349z" clip-path="url(#a)" fill="#fff" stroke="#fff"/>
<g clip-path="url(#a)">
<g transform="translate(1122.1 583.02) rotate(55.714) scale(.08 -.08)">
<use xlink:href="#u"/>
</g>
</g>
<path d="m691.74 695.82 4.7958-2.636q2.1032-1.156 0.94721-3.2593l-3.7294-6.7851q-1.156-2.1032-3.2593-0.94721l-4.7958 2.636q-2.1032 1.156-0.94721 3.2593l3.7294 6.7851q1.156 2.1032 3.2593 0.94721z" clip-path="url(#a)" fill="#fff" stroke="#fff"/>
<g clip-path="url(#a)">
<g transform="translate(689.78 692.25) rotate(-28.795) scale(.08 -.08)">
<use xlink:href="#o"/>
</g>
</g>
<path d="m740.02 695.7 4.4666-3.309q1.9285-1.4286 0.49982-3.3571l-4.6089-6.2213q-1.4286-1.9285-3.3571-0.49982l-4.4666 3.309q-1.9285 1.4286-0.49982 3.3571l4.6089 6.2213q1.4286 1.9285 3.3571 0.49982z" clip-path="url(#a)" fill="#fff" stroke="#fff"/>
<g clip-path="url(#a)">
<defs>
<path id="ak" d="m44.391 34.188q3.1719-1.0781 6.1719-4.5938t6.0312-9.6719l10.016-19.922h-10.609l-9.3125 18.703q-3.625 7.3281-7.0156 9.7188t-9.25 2.3906h-10.75v-30.812h-9.8594v72.906h22.266q12.5 0 18.656-5.2344 6.1562-5.2188 6.1562-15.766 0-6.8906-3.2031-11.438-3.2031-4.5312-9.2969-6.2812zm-24.719 30.609v-25.875h12.406q7.125 0 10.766 3.2969t3.6406 9.6875-3.6406 9.6406-10.766 3.25z"/>
</defs>
<g transform="translate(737.61 692.43) rotate(-36.532) scale(.08 -.08)">
<use xlink:href="#ak"/>
</g>
</g>
<path d="m764.38 695.5 4.0742-3.6537q1.7868-1.6023 0.18442-3.3891l-5.1692-5.7642q-1.6023-1.7868-3.3891-0.18442l-4.0742 3.6537q-1.7868 1.6023-0.18442 3.3891l5.1692 5.7642q1.6023 1.7868 3.3891 0.18442z" clip-path="url(#a)" fill="#fff" stroke="#fff"/>
<g clip-path="url(#a)">
<g transform="translate(761.66 692.47) rotate(-41.885) scale(.08 -.08)">
<use xlink:href="#o"/>
</g>
</g>
<path d="m811.33 645.5 4.3154-3.3653q1.8925-1.4759 0.41666-3.3684l-4.7613-6.1054q-1.4759-1.8925-3.3684-0.41666l-4.3154 3.3653q-1.8925 1.4759-0.41666 3.3684l4.7613 6.1054q1.4759 1.8925 3.3684 0.41666z" clip-path="url(#a)" fill="#fff" stroke="#fff"/>
<g clip-path="url(#a)">
<g transform="translate(808.83 642.29) rotate(-37.949) scale(.08 -.08)">
<use xlink:href="#o"/>
</g>
</g>
<path d="m1101.2 693.78 4.4203 1.9312q2.1993 0.96085 3.1601-1.2384l3.0997-7.0949q0.96085-2.1993-1.2384-3.1601l-4.4203-1.9312q-2.1993-0.96085-3.1601 1.2384l-3.0997 7.0949q-0.96085 2.1993 1.2384 3.1601z" clip-path="url(#a)" fill="#fff" stroke="#fff"/>
<g clip-path="url(#a)">
<g transform="translate(1102.8 690.06) rotate(23.6) scale(.08 -.08)">
<use xlink:href="#al"/>
</g>
</g>
<path d="m1136.4 693.78 5.7609 2.1813q2.2445 0.84986 3.0944-1.3946l2.7417-7.2408q0.84986-2.2445-1.3946-3.0943l-5.7609-2.1813q-2.2445-0.84986-3.0943 1.3946l-2.7417 7.2408q-0.84986 2.2445 1.3946 3.0944z" clip-path="url(#a)" fill="#fff" stroke="#fff"/>
<g clip-path="url(#a)">
<g transform="translate(1137.8 689.98) rotate(20.739) scale(.08 -.08)">
<use xlink:href="#ae"/>
</g>
</g>
<path d="m880.4 822.46v35.285q0 2.4 2.4 2.4h7.7425q2.4 0 2.4-2.4v-35.285q0-2.4-2.4-2.4h-7.7425q-2.4 0-2.4 2.4z" clip-path="url(#a)" fill="#fff" stroke="#fff"/>
<g clip-path="url(#a)">
<g transform="translate(884.46 822.46) rotate(90) scale(.08 -.08)">
<use xlink:href="#l"/>
<use x="60.818359" xlink:href="#c"/>
<use x="122.341797" xlink:href="#h"/>
<use x="163.439453" xlink:href="#j"/>
<use x="260.851562" xlink:href="#f"/>
<use x="288.634766" xlink:href="#d"/>
<use x="352.013672" xlink:href="#i"/>
<use x="413.292969" xlink:href="#k"/>
</g>
</g>
<path d="m1001.8 642.11 2.0851-5.0597q0.91444-2.219-1.3045-3.1334l-7.1585-2.95q-2.219-0.91444-3.1334 1.3045l-2.0851 5.0597q-0.91444 2.219 1.3045 3.1334l7.1585 2.95q2.219 0.91444 3.1334-1.3045z" clip-path="url(#a)" fill="#fff" stroke="#fff"/>
<g clip-path="url(#a)">
<g transform="translate(998.03 640.56) rotate(-67.603) scale(.08 -.08)">
<use xlink:href="#o"/>
</g>
</g>
<path d="m1026.1 641.4 1.362-5.3003q0.5973-2.3245-1.7272-2.9218l-7.4989-1.9269q-2.3245-0.5973-2.9218 1.7272l-1.362 5.3003q-0.5973 2.3245 1.7272 2.9218l7.4989 1.9269q2.3245 0.5973 2.9218-1.7272z" clip-path="url(#a)" fill="#fff" stroke="#fff"/>
<g clip-path="url(#a)">
<g transform="translate(1022.2 640.39) rotate(-75.589) scale(.08 -.08)">
<use xlink:href="#o"/>
</g>
</g>
<path d="m1076.1 536.26 2.2173 5.0032q0.97243 2.1942 3.1666 1.2217l7.0785-3.1371q2.1942-0.97243 1.2217-3.1666l-2.2173-5.0032q-0.97243-2.1942-3.1666-1.2217l-7.0785 3.1371q-2.1942 0.97243-1.2217 3.1666z" clip-path="url(#a)" fill="#fff" stroke="#fff"/>
<g clip-path="url(#a)">
<g transform="translate(1079.8 534.62) rotate(66.098) scale(.08 -.08)">
<use xlink:href="#o"/>
</g>
</g>
<path d="m1132.6 637.94 2.2213 4.2819q1.1052 2.1304 3.2356 1.0252l6.8727-3.5653q2.1304-1.1052 1.0252-3.2356l-2.2213-4.2819q-1.1052-2.1304-3.2356-1.0252l-6.8727 3.5653q-2.1304 1.1052-1.0252 3.2356z" clip-path="url(#a)" fill="#fff" stroke="#fff"/>
<g clip-path="url(#a)">
<g transform="translate(1136.2 636.07) rotate(62.581) scale(.08 -.08)">
<use xlink:href="#al"/>
</g>
</g>
<path d="m927.8 822.46v35.285q0 2.4 2.4 2.4h7.7425q2.4 0 2.4-2.4v-35.285q0-2.4-2.4-2.4h-7.7425q-2.4 0-2.4 2.4z" clip-path="url(#a)" fill="#fff" stroke="#fff"/>
<g clip-path="url(#a)">
<g transform="translate(931.86 822.46) rotate(90) scale(.08 -.08)">
<use xlink:href="#l"/>
<use x="60.818359" xlink:href="#c"/>
<use x="122.341797" xlink:href="#h"/>
<use x="163.439453" xlink:href="#j"/>
<use x="260.851562" xlink:href="#f"/>
<use x="288.634766" xlink:href="#d"/>
<use x="352.013672" xlink:href="#i"/>
<use x="413.292969" xlink:href="#k"/>
</g>
</g>
<path d="m975.21 822.46v35.285q0 2.4 2.4 2.4h7.7425q2.4 0 2.4-2.4v-35.285q0-2.4-2.4-2.4h-7.7425q-2.4 0-2.4 2.4z" clip-path="url(#a)" fill="#fff" stroke="#fff"/>
<g clip-path="url(#a)">
<g transform="translate(979.27 822.46) rotate(90) scale(.08 -.08)">
<use xlink:href="#l"/>
<use x="60.818359" xlink:href="#c"/>
<use x="122.341797" xlink:href="#h"/>
<use x="163.439453" xlink:href="#j"/>
<use x="260.851562" xlink:href="#f"/>
<use x="288.634766" xlink:href="#d"/>
<use x="352.013672" xlink:href="#i"/>
<use x="413.292969" xlink:href="#k"/>
</g>
</g>
<path d="m1072.3 693.83 1.9813-5.1937q0.85542-2.2424-1.387-3.0978l-7.234-2.7596q-2.2424-0.85542-3.0978 1.387l-1.9813 5.1937q-0.85542 2.2424 1.387 3.0978l7.234 2.7596q2.2424 0.85542 3.0978-1.387z" clip-path="url(#a)" fill="#fff" stroke="#fff"/>
<g clip-path="url(#a)">
<g transform="translate(1068.5 692.39) rotate(-69.119) scale(.08 -.08)">
<use xlink:href="#ak"/>
</g>
</g>
<path d="m1096.9 692.41 0.73383-5.0015q0.34841-2.3746-2.0262-2.723l-7.6605-1.124q-2.3746-0.34841-2.723 2.0262l-0.73383 5.0015q-0.3484 2.3746 2.0262 2.723l7.6605 1.124q2.3746 0.34841 2.723-2.0262z" clip-path="url(#a)" fill="#fff" stroke="#fff"/>
<g clip-path="url(#a)">
<g transform="translate(1092.9 691.82) rotate(-81.653) scale(.08 -.08)">
<use xlink:href="#v"/>
</g>
</g>
<path d="m1119.9 638.9 1.9096 4.6804q0.90665 2.2222 3.1288 1.3155l7.1688-2.9249q2.2222-0.90666 1.3155-3.1288l-1.9096-4.6804q-0.90666-2.2222-3.1288-1.3155l-7.1688 2.9249q-2.2222 0.90666-1.3155 3.1288z" clip-path="url(#a)" fill="#fff" stroke="#fff"/>
<g clip-path="url(#a)">
<g transform="translate(1123.7 637.36) rotate(67.804) scale(.08 -.08)">
<use xlink:href="#v"/>
</g>
</g>
<path d="m1131.7 688.27 1.716 5.3162q0.73724 2.284 3.0212 1.5467l7.3682-2.3784q2.284-0.73724 1.5467-3.0212l-1.716-5.3162q-0.73724-2.284-3.0212-1.5467l-7.3682 2.3784q-2.284 0.73724-1.5467 3.0212z" clip-path="url(#a)" fill="#fff" stroke="#fff"/>
<g clip-path="url(#a)">
<g transform="translate(1135.5 687.02) rotate(72.11) scale(.08 -.08)">
<use xlink:href="#af"/>
</g>
</g>
<path d="m1212.2 822.46v35.285q0 2.4 2.4 2.4h7.7425q2.4 0 2.4-2.4v-35.285q0-2.4-2.4-2.4h-7.7425q-2.4 0-2.4 2.4z" clip-path="url(#a)" fill="#fff" stroke="#fff"/>
<g clip-path="url(#a)">
<g transform="translate(1216.3 822.46) rotate(90) scale(.08 -.08)">
<use xlink:href="#l"/>
<use x="60.818359" xlink:href="#c"/>
<use x="122.341797" xlink:href="#h"/>
<use x="163.439453" xlink:href="#j"/>
<use x="260.851562" xlink:href="#f"/>
<use x="288.634766" xlink:href="#d"/>
<use x="352.013672" xlink:href="#i"/>
<use x="413.292969" xlink:href="#k"/>
</g>
</g>
<path d="m1022.6 822.46v35.285q0 2.4 2.4 2.4h7.7425q2.4 0 2.4-2.4v-35.285q0-2.4-2.4-2.4h-7.7425q-2.4 0-2.4 2.4z" clip-path="url(#a)" fill="#fff" stroke="#fff"/>
<g clip-path="url(#a)">
<g transform="translate(1026.7 822.46) rotate(90) scale(.08 -.08)">
<use xlink:href="#l"/>
<use x="60.818359" xlink:href="#c"/>
<use x="122.341797" xlink:href="#h"/>
<use x="163.439453" xlink:href="#j"/>
<use x="260.851562" xlink:href="#f"/>
<use x="288.634766" xlink:href="#d"/>
<use x="352.013672" xlink:href="#i"/>
<use x="413.292969" xlink:href="#k"/>
</g>
</g>
<path d="m1070 822.46v35.285q0 2.4 2.4 2.4h7.7425q2.4 0 2.4-2.4v-35.285q0-2.4-2.4-2.4h-7.7425q-2.4 0-2.4 2.4z" clip-path="url(#a)" fill="#fff" stroke="#fff"/>
<g clip-path="url(#a)">
<g transform="translate(1074.1 822.46) rotate(90) scale(.08 -.08)">
<use xlink:href="#l"/>
<use x="60.818359" xlink:href="#c"/>
<use x="122.341797" xlink:href="#h"/>
<use x="163.439453" xlink:href="#j"/>
<use x="260.851562" xlink:href="#f"/>
<use x="288.634766" xlink:href="#d"/>
<use x="352.013672" xlink:href="#i"/>
<use x="413.292969" xlink:href="#k"/>
</g>
</g>
<path d="m1152.5 738.61 1.2589 5.3257q0.55212 2.3356 2.8877 1.7835l7.5348-1.7812q2.3356-0.55212 1.7835-2.8877l-1.2589-5.3257q-0.55212-2.3356-2.8877-1.7835l-7.5348 1.7812q-2.3356 0.55212-1.7835 2.8877z" clip-path="url(#a)" fill="#fff" stroke="#fff"/>
<g clip-path="url(#a)">
<g transform="translate(1156.5 737.68) rotate(76.7) scale(.08 -.08)">
<use xlink:href="#o"/>
</g>
</g>
<path d="m1141.1 743.75 1.1684-4.9425q0.55212-2.3356-1.7835-2.8877l-7.5348-1.7812q-2.3356-0.55212-2.8877 1.7835l-1.1684 4.9425q-0.55212 2.3356 1.7835 2.8877l7.5348 1.7812q2.3356 0.55212 2.8877-1.7835z" clip-path="url(#a)" fill="#fff" stroke="#fff"/>
<g clip-path="url(#a)">
<g transform="translate(1137.1 742.81) rotate(-76.7) scale(.08 -.08)">
<use xlink:href="#aq"/>
</g>
</g>
<path d="m1164.8 822.46v35.285q0 2.4 2.4 2.4h7.7425q2.4 0 2.4-2.4v-35.285q0-2.4-2.4-2.4h-7.7425q-2.4 0-2.4 2.4z" clip-path="url(#a)" fill="#fff" stroke="#fff"/>
<g clip-path="url(#a)">
<g transform="translate(1168.9 822.46) rotate(90) scale(.08 -.08)">
<use xlink:href="#l"/>
<use x="60.818359" xlink:href="#c"/>
<use x="122.341797" xlink:href="#h"/>
<use x="163.439453" xlink:href="#j"/>
<use x="260.851562" xlink:href="#f"/>
<use x="288.634766" xlink:href="#d"/>
<use x="352.013672" xlink:href="#i"/>
<use x="413.292969" xlink:href="#k"/>
</g>
</g>
<path d="m1117.4 822.46v35.285q0 2.4 2.4 2.4h7.7425q2.4 0 2.4-2.4v-35.285q0-2.4-2.4-2.4h-7.7425q-2.4 0-2.4 2.4z" clip-path="url(#a)" fill="#fff" stroke="#fff"/>
<g clip-path="url(#a)">
<g transform="translate(1121.5 822.46) rotate(90) scale(.08 -.08)">
<use xlink:href="#l"/>
<use x="60.818359" xlink:href="#c"/>
<use x="122.341797" xlink:href="#h"/>
<use x="163.439453" xlink:href="#j"/>
<use x="260.851562" xlink:href="#f"/>
<use x="288.634766" xlink:href="#d"/>
<use x="352.013672" xlink:href="#i"/>
<use x="413.292969" xlink:href="#k"/>
</g>
</g>
<path d="m595.96 822.46v35.285q0 2.4 2.4 2.4h7.7425q2.4 0 2.4-2.4v-35.285q0-2.4-2.4-2.4h-7.7425q-2.4 0-2.4 2.4z" clip-path="url(#a)" fill="#fff" stroke="#fff"/>
<g clip-path="url(#a)">
<g transform="translate(600.03 822.46) rotate(90) scale(.08 -.08)">
<use xlink:href="#l"/>
<use x="60.818359" xlink:href="#c"/>
<use x="122.341797" xlink:href="#h"/>
<use x="163.439453" xlink:href="#j"/>
<use x="260.851562" xlink:href="#f"/>
<use x="288.634766" xlink:href="#d"/>
<use x="352.013672" xlink:href="#i"/>
<use x="413.292969" xlink:href="#k"/>
</g>
</g>
<path d="m643.37 822.46v35.285q0 2.4 2.4 2.4h7.7425q2.4 0 2.4-2.4v-35.285q0-2.4-2.4-2.4h-7.7425q-2.4 0-2.4 2.4z" clip-path="url(#a)" fill="#fff" stroke="#fff"/>
<g clip-path="url(#a)">
<g transform="translate(647.43 822.46) rotate(90) scale(.08 -.08)">
<use xlink:href="#l"/>
<use x="60.818359" xlink:href="#c"/>
<use x="122.341797" xlink:href="#h"/>
<use x="163.439453" xlink:href="#j"/>
<use x="260.851562" xlink:href="#f"/>
<use x="288.634766" xlink:href="#d"/>
<use x="352.013672" xlink:href="#i"/>
<use x="413.292969" xlink:href="#k"/>
</g>
</g>
<path d="m725.23 745.03 2.3759-5.0254q1.0258-2.1697-1.1439-3.1955l-6.9996-3.3093q-2.1697-1.0258-3.1955 1.1439l-2.3759 5.0254q-1.0258 2.1697 1.1439 3.1955l6.9996 3.3093q2.1697 1.0258 3.1955-1.1439z" clip-path="url(#a)" fill="#fff" stroke="#fff"/>
<g clip-path="url(#a)">
<g transform="translate(721.56 743.29) rotate(-64.696) scale(.08 -.08)">
<use xlink:href="#ak"/>
</g>
</g>
<path d="m738.18 737.31v5.055q0 2.4 2.4 2.4h7.7425q2.4 0 2.4-2.4v-5.055q0-2.4-2.4-2.4h-7.7425q-2.4 0-2.4 2.4z" clip-path="url(#a)" fill="#fff" stroke="#fff"/>
<g clip-path="url(#a)">
<g transform="translate(742.24 737.31) rotate(90) scale(.08 -.08)">
<use xlink:href="#v"/>
</g>
</g>
<path d="m761.29 739.99 2.3877 5.0503q1.0258 2.1697 3.1955 1.1439l6.9996-3.3093q2.1697-1.0258 1.1439-3.1955l-2.3877-5.0503q-1.0258-2.1697-3.1955-1.1439l-6.9996 3.3093q-2.1697 1.0258-1.1439 3.1955z" clip-path="url(#a)" fill="#fff" stroke="#fff"/>
<g clip-path="url(#a)">
<g transform="translate(764.96 738.25) rotate(64.696) scale(.08 -.08)">
<use xlink:href="#af"/>
</g>
</g>
<path d="m1327.2 858.72 8.1173-34.339q0.55212-2.3356-1.7835-2.8877l-7.5348-1.7812q-2.3356-0.55212-2.8877 1.7835l-8.1173 34.339q-0.55212 2.3356 1.7835 2.8877l7.5348 1.7812q2.3356 0.55212 2.8877-1.7835z" clip-path="url(#a)" fill="#fff" stroke="#fff"/>
<g clip-path="url(#a)">
<g transform="translate(1323.3 857.78) rotate(-76.7) scale(.08 -.08)">
<use xlink:href="#l"/>
<use x="60.818359" xlink:href="#c"/>
<use x="122.341797" xlink:href="#h"/>
<use x="163.439453" xlink:href="#j"/>
<use x="260.851562" xlink:href="#f"/>
<use x="288.634766" xlink:href="#d"/>
<use x="352.013672" xlink:href="#i"/>
<use x="413.292969" xlink:href="#k"/>
</g>
</g>
<path d="m1338.7 824.38 8.1173 34.339q0.55212 2.3356 2.8877 1.7835l7.5348-1.7812q2.3356-0.55212 1.7835-2.8877l-8.1173-34.339q-0.55212-2.3356-2.8877-1.7835l-7.5348 1.7812q-2.3356 0.55212-1.7835 2.8877z" clip-path="url(#a)" fill="#fff" stroke="#fff"/>
<g clip-path="url(#a)">
<g transform="translate(1342.7 823.44) rotate(76.7) scale(.08 -.08)">
<use xlink:href="#l"/>
<use x="60.818359" xlink:href="#c"/>
<use x="122.341797" xlink:href="#h"/>
<use x="163.439453" xlink:href="#j"/>
<use x="260.851562" xlink:href="#f"/>
<use x="288.634766" xlink:href="#d"/>
<use x="352.013672" xlink:href="#i"/>
<use x="413.292969" xlink:href="#k"/>
</g>
</g>
<path d="m1401.9 822.46v35.285q0 2.4 2.4 2.4h7.7425q2.4 0 2.4-2.4v-35.285q0-2.4-2.4-2.4h-7.7425q-2.4 0-2.4 2.4z" clip-path="url(#a)" fill="#fff" stroke="#fff"/>
<g clip-path="url(#a)">
<g transform="translate(1405.9 822.46) rotate(90) scale(.08 -.08)">
<use xlink:href="#l"/>
<use x="60.818359" xlink:href="#c"/>
<use x="122.341797" xlink:href="#h"/>
<use x="163.439453" xlink:href="#j"/>
<use x="260.851562" xlink:href="#f"/>
<use x="288.634766" xlink:href="#d"/>
<use x="352.013672" xlink:href="#i"/>
<use x="413.292969" xlink:href="#k"/>
</g>
</g>
<path d="m690.77 822.46v35.285q0 2.4 2.4 2.4h7.7425q2.4 0 2.4-2.4v-35.285q0-2.4-2.4-2.4h-7.7425q-2.4 0-2.4 2.4z" clip-path="url(#a)" fill="#fff" stroke="#fff"/>
<g clip-path="url(#a)">
<g transform="translate(694.84 822.46) rotate(90) scale(.08 -.08)">
<use xlink:href="#l"/>
<use x="60.818359" xlink:href="#c"/>
<use x="122.341797" xlink:href="#h"/>
<use x="163.439453" xlink:href="#j"/>
<use x="260.851562" xlink:href="#f"/>
<use x="288.634766" xlink:href="#d"/>
<use x="352.013672" xlink:href="#i"/>
<use x="413.292969" xlink:href="#k"/>
</g>
</g>
<path d="m738.18 822.46v35.285q0 2.4 2.4 2.4h7.7425q2.4 0 2.4-2.4v-35.285q0-2.4-2.4-2.4h-7.7425q-2.4 0-2.4 2.4z" clip-path="url(#a)" fill="#fff" stroke="#fff"/>
<g clip-path="url(#a)">
<g transform="translate(742.24 822.46) rotate(90) scale(.08 -.08)">
<use xlink:href="#l"/>
<use x="60.818359" xlink:href="#c"/>
<use x="122.341797" xlink:href="#h"/>
<use x="163.439453" xlink:href="#j"/>
<use x="260.851562" xlink:href="#f"/>
<use x="288.634766" xlink:href="#d"/>
<use x="352.013672" xlink:href="#i"/>
<use x="413.292969" xlink:href="#k"/>
</g>
</g>
<path d="m785.58 822.46v35.285q0 2.4 2.4 2.4h7.7425q2.4 0 2.4-2.4v-35.285q0-2.4-2.4-2.4h-7.7425q-2.4 0-2.4 2.4z" clip-path="url(#a)" fill="#fff" stroke="#fff"/>
<g clip-path="url(#a)">
<g transform="translate(789.65 822.46) rotate(90) scale(.08 -.08)">
<use xlink:href="#l"/>
<use x="60.818359" xlink:href="#c"/>
<use x="122.341797" xlink:href="#h"/>
<use x="163.439453" xlink:href="#j"/>
<use x="260.851562" xlink:href="#f"/>
<use x="288.634766" xlink:href="#d"/>
<use x="352.013672" xlink:href="#i"/>
<use x="413.292969" xlink:href="#k"/>
</g>
</g>
<path d="m74.501 822.46v35.285q0 2.4 2.4 2.4h7.7425q2.4 0 2.4-2.4v-35.285q0-2.4-2.4-2.4h-7.7425q-2.4 0-2.4 2.4z" clip-path="url(#a)" fill="#fff" stroke="#fff"/>
<g clip-path="url(#a)">
<g transform="translate(78.565 822.46) rotate(90) scale(.08 -.08)">
<use xlink:href="#l"/>
<use x="60.818359" xlink:href="#c"/>
<use x="122.341797" xlink:href="#h"/>
<use x="163.439453" xlink:href="#j"/>
<use x="260.851562" xlink:href="#f"/>
<use x="288.634766" xlink:href="#d"/>
<use x="352.013672" xlink:href="#i"/>
<use x="413.292969" xlink:href="#k"/>
</g>
</g>
<path d="m121.91 822.46v35.285q0 2.4 2.4 2.4h7.7425q2.4 0 2.4-2.4v-35.285q0-2.4-2.4-2.4h-7.7425q-2.4 0-2.4 2.4z" clip-path="url(#a)" fill="#fff" stroke="#fff"/>
<g clip-path="url(#a)">
<g transform="translate(125.97 822.46) rotate(90) scale(.08 -.08)">
<use xlink:href="#l"/>
<use x="60.818359" xlink:href="#c"/>
<use x="122.341797" xlink:href="#h"/>
<use x="163.439453" xlink:href="#j"/>
<use x="260.851562" xlink:href="#f"/>
<use x="288.634766" xlink:href="#d"/>
<use x="352.013672" xlink:href="#i"/>
<use x="413.292969" xlink:href="#k"/>
</g>
</g>
<path d="m192.96 743.74 1.1629-4.9194q0.55212-2.3356-1.7835-2.8877l-7.5348-1.7812q-2.3356-0.55212-2.8877 1.7835l-1.1629 4.9194q-0.55212 2.3356 1.7835 2.8877l7.5348 1.7812q2.3356 0.55212 2.8877-1.7835z" clip-path="url(#a)" fill="#fff" stroke="#fff"/>
<g clip-path="url(#a)">
<g transform="translate(189 742.8) rotate(-76.7) scale(.08 -.08)">
<use xlink:href="#v"/>
</g>
</g>
<path d="m204.39 738.56 1.2851 5.4364q0.55212 2.3356 2.8877 1.7835l7.5348-1.7812q2.3356-0.55212 1.7835-2.8877l-1.2851-5.4364q-0.55212-2.3356-2.8877-1.7835l-7.5348 1.7812q-2.3356 0.55212-1.7835 2.8877z" clip-path="url(#a)" fill="#fff" stroke="#fff"/>
<g clip-path="url(#a)">
<g transform="translate(208.35 737.62) rotate(76.7) scale(.08 -.08)">
<use xlink:href="#af"/>
</g>
</g>
<path d="m264.12 822.46v35.285q0 2.4 2.4 2.4h7.7425q2.4 0 2.4-2.4v-35.285q0-2.4-2.4-2.4h-7.7425q-2.4 0-2.4 2.4z" clip-path="url(#a)" fill="#fff" stroke="#fff"/>
<g clip-path="url(#a)">
<g transform="translate(268.19 822.46) rotate(90) scale(.08 -.08)">
<use xlink:href="#l"/>
<use x="60.818359" xlink:href="#c"/>
<use x="122.341797" xlink:href="#h"/>
<use x="163.439453" xlink:href="#j"/>
<use x="260.851562" xlink:href="#f"/>
<use x="288.634766" xlink:href="#d"/>
<use x="352.013672" xlink:href="#i"/>
<use x="413.292969" xlink:href="#k"/>
</g>
</g>
<path d="m311.53 822.46v35.285q0 2.4 2.4 2.4h7.7425q2.4 0 2.4-2.4v-35.285q0-2.4-2.4-2.4h-7.7425q-2.4 0-2.4 2.4z" clip-path="url(#a)" fill="#fff" stroke="#fff"/>
<g clip-path="url(#a)">
<g transform="translate(315.59 822.46) rotate(90) scale(.08 -.08)">
<use xlink:href="#l"/>
<use x="60.818359" xlink:href="#c"/>
<use x="122.341797" xlink:href="#h"/>
<use x="163.439453" xlink:href="#j"/>
<use x="260.851562" xlink:href="#f"/>
<use x="288.634766" xlink:href="#d"/>
<use x="352.013672" xlink:href="#i"/>
<use x="413.292969" xlink:href="#k"/>
</g>
</g>
<path d="m169.31 822.46v35.285q0 2.4 2.4 2.4h7.7425q2.4 0 2.4-2.4v-35.285q0-2.4-2.4-2.4h-7.7425q-2.4 0-2.4 2.4z" clip-path="url(#a)" fill="#fff" stroke="#fff"/>
<g clip-path="url(#a)">
<g transform="translate(173.38 822.46) rotate(90) scale(.08 -.08)">
<use xlink:href="#l"/>
<use x="60.818359" xlink:href="#c"/>
<use x="122.341797" xlink:href="#h"/>
<use x="163.439453" xlink:href="#j"/>
<use x="260.851562" xlink:href="#f"/>
<use x="288.634766" xlink:href="#d"/>
<use x="352.013672" xlink:href="#i"/>
<use x="413.292969" xlink:href="#k"/>
</g>
</g>
<path d="m216.72 822.46v35.285q0 2.4 2.4 2.4h7.7425q2.4 0 2.4-2.4v-35.285q0-2.4-2.4-2.4h-7.7425q-2.4 0-2.4 2.4z" clip-path="url(#a)" fill="#fff" stroke="#fff"/>
<g clip-path="url(#a)">
<g transform="translate(220.78 822.46) rotate(90) scale(.08 -.08)">
<use xlink:href="#l"/>
<use x="60.818359" xlink:href="#c"/>
<use x="122.341797" xlink:href="#h"/>
<use x="163.439453" xlink:href="#j"/>
<use x="260.851562" xlink:href="#f"/>
<use x="288.634766" xlink:href="#d"/>
<use x="352.013672" xlink:href="#i"/>
<use x="413.292969" xlink:href="#k"/>
</g>
</g>
<path d="m358.93 822.46v35.285q0 2.4 2.4 2.4h7.7425q2.4 0 2.4-2.4v-35.285q0-2.4-2.4-2.4h-7.7425q-2.4 0-2.4 2.4z" clip-path="url(#a)" fill="#fff" stroke="#fff"/>
<g clip-path="url(#a)">
<g transform="translate(363 822.46) rotate(90) scale(.08 -.08)">
<use xlink:href="#l"/>
<use x="60.818359" xlink:href="#c"/>
<use x="122.341797" xlink:href="#h"/>
<use x="163.439453" xlink:href="#j"/>
<use x="260.851562" xlink:href="#f"/>
<use x="288.634766" xlink:href="#d"/>
<use x="352.013672" xlink:href="#i"/>
<use x="413.292969" xlink:href="#k"/>
</g>
</g>
<path d="m548.56 822.46v35.285q0 2.4 2.4 2.4h7.7425q2.4 0 2.4-2.4v-35.285q0-2.4-2.4-2.4h-7.7425q-2.4 0-2.4 2.4z" clip-path="url(#a)" fill="#fff" stroke="#fff"/>
<g clip-path="url(#a)">
<g transform="translate(552.62 822.46) rotate(90) scale(.08 -.08)">
<use xlink:href="#l"/>
<use x="60.818359" xlink:href="#c"/>
<use x="122.341797" xlink:href="#h"/>
<use x="163.439453" xlink:href="#j"/>
<use x="260.851562" xlink:href="#f"/>
<use x="288.634766" xlink:href="#d"/>
<use x="352.013672" xlink:href="#i"/>
<use x="413.292969" xlink:href="#k"/>
</g>
</g>
<path d="m832.99 822.46v35.285q0 2.4 2.4 2.4h7.7425q2.4 0 2.4-2.4v-35.285q0-2.4-2.4-2.4h-7.7425q-2.4 0-2.4 2.4z" clip-path="url(#a)" fill="#fff" stroke="#fff"/>
<g clip-path="url(#a)">
<g transform="translate(837.05 822.46) rotate(90) scale(.08 -.08)">
<use xlink:href="#l"/>
<use x="60.818359" xlink:href="#c"/>
<use x="122.341797" xlink:href="#h"/>
<use x="163.439453" xlink:href="#j"/>
<use x="260.851562" xlink:href="#f"/>
<use x="288.634766" xlink:href="#d"/>
<use x="352.013672" xlink:href="#i"/>
<use x="413.292969" xlink:href="#k"/>
</g>
</g>
<path d="m1259.6 822.46v35.285q0 2.4 2.4 2.4h7.7425q2.4 0 2.4-2.4v-35.285q0-2.4-2.4-2.4h-7.7425q-2.4 0-2.4 2.4z" clip-path="url(#a)" fill="#fff" stroke="#fff"/>
<g clip-path="url(#a)">
<g transform="translate(1263.7 822.46) rotate(90) scale(.08 -.08)">
<use xlink:href="#l"/>
<use x="60.818359" xlink:href="#c"/>
<use x="122.341797" xlink:href="#h"/>
<use x="163.439453" xlink:href="#j"/>
<use x="260.851562" xlink:href="#f"/>
<use x="288.634766" xlink:href="#d"/>
<use x="352.013672" xlink:href="#i"/>
<use x="413.292969" xlink:href="#k"/>
</g>
</g>
<path d="m1449.3 822.46v35.285q0 2.4 2.4 2.4h7.7425q2.4 0 2.4-2.4v-35.285q0-2.4-2.4-2.4h-7.7425q-2.4 0-2.4 2.4z" clip-path="url(#a)" fill="#fff" stroke="#fff"/>
<g clip-path="url(#a)">
<g transform="translate(1453.3 822.46) rotate(90) scale(.08 -.08)">
<use xlink:href="#l"/>
<use x="60.818359" xlink:href="#c"/>
<use x="122.341797" xlink:href="#h"/>
<use x="163.439453" xlink:href="#j"/>
<use x="260.851562" xlink:href="#f"/>
<use x="288.634766" xlink:href="#d"/>
<use x="352.013672" xlink:href="#i"/>
<use x="413.292969" xlink:href="#k"/>
</g>
</g>
<path d="m1686.3 822.46v35.285q0 2.4 2.4 2.4h7.7425q2.4 0 2.4-2.4v-35.285q0-2.4-2.4-2.4h-7.7425q-2.4 0-2.4 2.4z" clip-path="url(#a)" fill="#fff" stroke="#fff"/>
<g clip-path="url(#a)">
<g transform="translate(1690.4 822.46) rotate(90) scale(.08 -.08)">
<use xlink:href="#l"/>
<use x="60.818359" xlink:href="#c"/>
<use x="122.341797" xlink:href="#h"/>
<use x="163.439453" xlink:href="#j"/>
<use x="260.851562" xlink:href="#f"/>
<use x="288.634766" xlink:href="#d"/>
<use x="352.013672" xlink:href="#i"/>
<use x="413.292969" xlink:href="#k"/>
</g>
</g>
<defs>
<path id="b" d="m0 8.6603c2.2967 0 4.4997-0.9125 6.1237-2.5365 1.624-1.624 2.5365-3.827 2.5365-6.1237s-0.9125-4.4997-2.5365-6.1237c-1.624-1.624-3.827-2.5365-6.1237-2.5365s-4.4997 0.9125-6.1237 2.5365c-1.624 1.624-2.5365 3.827-2.5365 6.1237s0.9125 4.4997 2.5365 6.1237c1.624 1.624 3.827 2.5365 6.1237 2.5365z"/>
</defs>
<g clip-path="url(#a)">
<use x="80.772748" y="890.239212" fill="#ffffff" stroke="#ffffff" xlink:href="#b"/>
</g>
<g clip-path="url(#a)">
<use x="128.178272" y="890.239212" fill="#ffffff" stroke="#ffffff" xlink:href="#b"/>
</g>
<g clip-path="url(#a)">
<use x="175.583797" y="890.239212" fill="#ffffff" stroke="#ffffff" xlink:href="#b"/>
</g>
<g clip-path="url(#a)">
<use x="222.989322" y="890.239212" fill="#ffffff" stroke="#ffffff" xlink:href="#b"/>
</g>
<g clip-path="url(#a)">
<use x="270.394846" y="890.239212" fill="#ffffff" stroke="#ffffff" xlink:href="#b"/>
</g>
<g clip-path="url(#a)">
<use x="317.800371" y="890.239212" fill="#ffffff" stroke="#ffffff" xlink:href="#b"/>
</g>
<g clip-path="url(#a)">
<use x="365.205896" y="890.239212" fill="#ffffff" stroke="#ffffff" xlink:href="#b"/>
</g>
<g clip-path="url(#a)">
<use x="412.61142" y="890.239212" fill="#ffffff" stroke="#ffffff" xlink:href="#b"/>
</g>
<g clip-path="url(#a)">
<use x="460.016945" y="890.239212" fill="#ffffff" stroke="#ffffff" xlink:href="#b"/>
</g>
<g clip-path="url(#a)">
<use x="507.422469" y="890.239212" fill="#ffffff" stroke="#ffffff" xlink:href="#b"/>
</g>
<g clip-path="url(#a)">
<use x="554.827994" y="890.239212" fill="#ffffff" stroke="#ffffff" xlink:href="#b"/>
</g>
<g clip-path="url(#a)">
<use x="602.233519" y="890.239212" fill="#ffffff" stroke="#ffffff" xlink:href="#b"/>
</g>
<g clip-path="url(#a)">
<use x="649.639043" y="890.239212" fill="#ffffff" stroke="#ffffff" xlink:href="#b"/>
</g>
<g clip-path="url(#a)">
<use x="697.044568" y="890.239212" fill="#ffffff" stroke="#ffffff" xlink:href="#b"/>
</g>
<g clip-path="url(#a)">
<use x="744.450093" y="890.239212" fill="#ffffff" stroke="#ffffff" xlink:href="#b"/>
</g>
<g clip-path="url(#a)">
<use x="791.855617" y="890.239212" fill="#ffffff" stroke="#ffffff" xlink:href="#b"/>
</g>
<g clip-path="url(#a)">
<use x="839.261142" y="890.239212" fill="#ffffff" stroke="#ffffff" xlink:href="#b"/>
</g>
<g clip-path="url(#a)">
<use x="886.666667" y="890.239212" fill="#ffffff" stroke="#ffffff" xlink:href="#b"/>
</g>
<g clip-path="url(#a)">
<use x="934.072191" y="890.239212" fill="#ffffff" stroke="#ffffff" xlink:href="#b"/>
</g>
<g clip-path="url(#a)">
<use x="981.477716" y="890.239212" fill="#ffffff" stroke="#ffffff" xlink:href="#b"/>
</g>
<g clip-path="url(#a)">
<use x="1028.883241" y="890.239212" fill="#ffffff" stroke="#ffffff" xlink:href="#b"/>
</g>
<g clip-path="url(#a)">
<use x="1076.288765" y="890.239212" fill="#ffffff" stroke="#ffffff" xlink:href="#b"/>
</g>
<g clip-path="url(#a)">
<use x="1123.69429" y="890.239212" fill="#ffffff" stroke="#ffffff" xlink:href="#b"/>
</g>
<g clip-path="url(#a)">
<use x="1171.099815" y="890.239212" fill="#ffffff" stroke="#ffffff" xlink:href="#b"/>
</g>
<g clip-path="url(#a)">
<use x="1218.505339" y="890.239212" fill="#ffffff" stroke="#ffffff" xlink:href="#b"/>
</g>
<g clip-path="url(#a)">
<use x="1265.910864" y="890.239212" fill="#ffffff" stroke="#ffffff" xlink:href="#b"/>
</g>
<g clip-path="url(#a)">
<use x="1313.316389" y="890.239212" fill="#ffffff" stroke="#ffffff" xlink:href="#b"/>
</g>
<g clip-path="url(#a)">
<use x="1360.721913" y="890.239212" fill="#ffffff" stroke="#ffffff" xlink:href="#b"/>
</g>
<g clip-path="url(#a)">
<use x="1408.127438" y="890.239212" fill="#ffffff" stroke="#ffffff" xlink:href="#b"/>
</g>
<g clip-path="url(#a)">
<use x="1455.532962" y="890.239212" fill="#ffffff" stroke="#ffffff" xlink:href="#b"/>
</g>
<g clip-path="url(#a)">
<use x="1502.938487" y="890.239212" fill="#ffffff" stroke="#ffffff" xlink:href="#b"/>
</g>
<g clip-path="url(#a)">
<use x="1550.344012" y="890.239212" fill="#ffffff" stroke="#ffffff" xlink:href="#b"/>
</g>
<g clip-path="url(#a)">
<use x="1597.749536" y="890.239212" fill="#ffffff" stroke="#ffffff" xlink:href="#b"/>
</g>
<g clip-path="url(#a)">
<use x="1645.155061" y="890.239212" fill="#ffffff" stroke="#ffffff" xlink:href="#b"/>
</g>
<g clip-path="url(#a)">
<use x="1692.560586" y="890.239212" fill="#ffffff" stroke="#ffffff" xlink:href="#b"/>
</g>
<g clip-path="url(#a)">
<use x="603.960963" y="43.094121" fill="#ffffff" stroke="#ffffff" xlink:href="#b"/>
</g>
<g clip-path="url(#a)">
<use x="199.286559" y="588.035307" fill="#ffffff" stroke="#ffffff" xlink:href="#b"/>
</g>
<g clip-path="url(#a)">
<use x="412.61142" y="789.969531" fill="#ffffff" stroke="#ffffff" xlink:href="#b"/>
</g>
<g clip-path="url(#a)">
<use x="1438.739979" y="158.066194" fill="#ffffff" stroke="#ffffff" xlink:href="#b"/>
</g>
<g clip-path="url(#a)">
<use x="626.899206" y="269.748915" fill="#ffffff" stroke="#ffffff" xlink:href="#b"/>
</g>
<g clip-path="url(#a)">
<use x="1502.938487" y="789.969531" fill="#ffffff" stroke="#ffffff" xlink:href="#b"/>
</g>
<g clip-path="url(#a)">
<use x="1550.344012" y="789.969531" fill="#ffffff" stroke="#ffffff" xlink:href="#b"/>
</g>
<g clip-path="url(#a)">
<use x="1597.749536" y="789.969531" fill="#ffffff" stroke="#ffffff" xlink:href="#b"/>
</g>
<g clip-path="url(#a)">
<use x="1645.155061" y="789.969531" fill="#ffffff" stroke="#ffffff" xlink:href="#b"/>
</g>
<g clip-path="url(#a)">
<use x="460.016945" y="789.969531" fill="#ffffff" stroke="#ffffff" xlink:href="#b"/>
</g>
<g clip-path="url(#a)">
<use x="507.422469" y="789.969531" fill="#ffffff" stroke="#ffffff" xlink:href="#b"/>
</g>
<g clip-path="url(#a)">
<use x="985.329415" y="378.429911" fill="#ffffff" stroke="#ffffff" xlink:href="#b"/>
</g>
<g clip-path="url(#a)">
<use x="874.815286" y="588.035307" fill="#ffffff" stroke="#ffffff" xlink:href="#b"/>
</g>
<g clip-path="url(#a)">
<use x="886.666667" y="789.969531" fill="#ffffff" stroke="#ffffff" xlink:href="#b"/>
</g>
<g clip-path="url(#a)">
<use x="1059.993116" y="484.413136" fill="#ffffff" stroke="#ffffff" xlink:href="#b"/>
</g>
<g clip-path="url(#a)">
<use x="934.072191" y="789.969531" fill="#ffffff" stroke="#ffffff" xlink:href="#b"/>
</g>
<g clip-path="url(#a)">
<use x="981.477716" y="789.969531" fill="#ffffff" stroke="#ffffff" xlink:href="#b"/>
</g>
<g clip-path="url(#a)">
<use x="1105.917218" y="588.035307" fill="#ffffff" stroke="#ffffff" xlink:href="#b"/>
</g>
<g clip-path="url(#a)">
<use x="1218.505339" y="789.969531" fill="#ffffff" stroke="#ffffff" xlink:href="#b"/>
</g>
<g clip-path="url(#a)">
<use x="1028.883241" y="789.969531" fill="#ffffff" stroke="#ffffff" xlink:href="#b"/>
</g>
<g clip-path="url(#a)">
<use x="1076.288765" y="789.969531" fill="#ffffff" stroke="#ffffff" xlink:href="#b"/>
</g>
<g clip-path="url(#a)">
<use x="1147.397052" y="689.69985" fill="#ffffff" stroke="#ffffff" xlink:href="#b"/>
</g>
<g clip-path="url(#a)">
<use x="1171.099815" y="789.969531" fill="#ffffff" stroke="#ffffff" xlink:href="#b"/>
</g>
<g clip-path="url(#a)">
<use x="1123.69429" y="789.969531" fill="#ffffff" stroke="#ffffff" xlink:href="#b"/>
</g>
<g clip-path="url(#a)">
<use x="602.233519" y="789.969531" fill="#ffffff" stroke="#ffffff" xlink:href="#b"/>
</g>
<g clip-path="url(#a)">
<use x="649.639043" y="789.969531" fill="#ffffff" stroke="#ffffff" xlink:href="#b"/>
</g>
<g clip-path="url(#a)">
<use x="744.450093" y="689.69985" fill="#ffffff" stroke="#ffffff" xlink:href="#b"/>
</g>
<g clip-path="url(#a)">
<use x="1337.019151" y="789.969531" fill="#ffffff" stroke="#ffffff" xlink:href="#b"/>
</g>
<g clip-path="url(#a)">
<use x="1408.127438" y="789.969531" fill="#ffffff" stroke="#ffffff" xlink:href="#b"/>
</g>
<g clip-path="url(#a)">
<use x="697.044568" y="789.969531" fill="#ffffff" stroke="#ffffff" xlink:href="#b"/>
</g>
<g clip-path="url(#a)">
<use x="744.450093" y="789.969531" fill="#ffffff" stroke="#ffffff" xlink:href="#b"/>
</g>
<g clip-path="url(#a)">
<use x="791.855617" y="789.969531" fill="#ffffff" stroke="#ffffff" xlink:href="#b"/>
</g>
<g clip-path="url(#a)">
<use x="80.772748" y="789.969531" fill="#ffffff" stroke="#ffffff" xlink:href="#b"/>
</g>
<g clip-path="url(#a)">
<use x="128.178272" y="789.969531" fill="#ffffff" stroke="#ffffff" xlink:href="#b"/>
</g>
<g clip-path="url(#a)">
<use x="199.286559" y="689.69985" fill="#ffffff" stroke="#ffffff" xlink:href="#b"/>
</g>
<g clip-path="url(#a)">
<use x="270.394846" y="789.969531" fill="#ffffff" stroke="#ffffff" xlink:href="#b"/>
</g>
<g clip-path="url(#a)">
<use x="317.800371" y="789.969531" fill="#ffffff" stroke="#ffffff" xlink:href="#b"/>
</g>
<g clip-path="url(#a)">
<use x="175.583797" y="789.969531" fill="#ffffff" stroke="#ffffff" xlink:href="#b"/>
</g>
<g clip-path="url(#a)">
<use x="222.989322" y="789.969531" fill="#ffffff" stroke="#ffffff" xlink:href="#b"/>
</g>
<g clip-path="url(#a)">
<use x="365.205896" y="789.969531" fill="#ffffff" stroke="#ffffff" xlink:href="#b"/>
</g>
<g clip-path="url(#a)">
<use x="554.827994" y="789.969531" fill="#ffffff" stroke="#ffffff" xlink:href="#b"/>
</g>
<g clip-path="url(#a)">
<use x="839.261142" y="789.969531" fill="#ffffff" stroke="#ffffff" xlink:href="#b"/>
</g>
<g clip-path="url(#a)">
<use x="1265.910864" y="789.969531" fill="#ffffff" stroke="#ffffff" xlink:href="#b"/>
</g>
<g clip-path="url(#a)">
<use x="1455.532962" y="789.969531" fill="#ffffff" stroke="#ffffff" xlink:href="#b"/>
</g>
<g clip-path="url(#a)">
<use x="1692.560586" y="789.969531" fill="#ffffff" stroke="#ffffff" xlink:href="#b"/>
</g>
<g clip-path="url(#a)">
<defs>
<path id="aw" d="m9.8125 72.906h9.8594v-72.906h-9.8594z"/>
<path id="t" d="m48.781 52.594v-8.4062q-3.8125 2.1094-7.6406 3.1562t-7.7344 1.0469q-8.75 0-13.594-5.5469-4.8281-5.5312-4.8281-15.547t4.8281-15.562q4.8438-5.5312 13.594-5.5312 3.9062 0 7.7344 1.0469t7.6406 3.1562v-8.3125q-3.7656-1.75-7.7969-2.625-4.0156-0.89062-8.5625-0.89062-12.359 0-19.641 7.7656-7.2656 7.7656-7.2656 20.953 0 13.375 7.3438 21.031 7.3594 7.6719 20.156 7.6719 4.1406 0 8.0938-0.85938 3.9531-0.84375 7.6719-2.5469z"/>
<path id="s" d="m54.891 33.016v-33.016h-8.9844v32.719q0 7.7656-3.0312 11.609-3.0312 3.8594-9.0781 3.8594-7.2812 0-11.484-4.6406-4.2031-4.625-4.2031-12.641v-30.906h-9.0312v75.984h9.0312v-29.797q3.2344 4.9375 7.5938 7.375 4.375 2.4375 10.094 2.4375 9.4219 0 14.25-5.8281 4.8438-5.8281 4.8438-17.156z"/>
</defs>
<g transform="translate(73.38 893) scale(.1 -.1)">
<use xlink:href="#aw"/>
<use x="29.492188" xlink:href="#t"/>
<use x="84.472656" xlink:href="#s"/>
</g>
</g>
<g clip-path="url(#a)">
<defs>
<path id="ab" d="m34.281 27.484q-10.891 0-15.094-2.4844t-4.2031-8.5q0-4.7812 3.1562-7.5938 3.1562-2.7969 8.5625-2.7969 7.4844 0 12 5.2969t4.5156 14.078v2zm17.922 3.7188v-31.203h-8.9844v8.2969q-3.0781-4.9688-7.6719-7.3438t-11.234-2.375q-8.3906 0-13.359 4.7188-4.9531 4.7188-4.9531 12.625 0 9.2188 6.1719 13.906 6.1875 4.6875 18.438 4.6875h12.609v0.89062q0 6.2031-4.0781 9.5938t-11.453 3.3906q-4.6875 0-9.1406-1.125-4.4375-1.125-8.5312-3.375v8.3125q4.9219 1.9062 9.5625 2.8438 4.6406 0.95312 9.0312 0.95312 11.875 0 17.734-6.1562 5.8594-6.1406 5.8594-18.641zm-18.609 44.578h9.9062v-9.8594h-9.9062zm-19.094 0h9.9062v-9.8594h-9.9062z"/>
<path id="q" d="m18.312 70.219v-15.531h18.5v-6.9844h-18.5v-29.688q0-6.6875 1.8281-8.5938t7.4531-1.9062h9.2188v-7.5156h-9.2188q-10.406 0-14.359 3.875-3.9531 3.8906-3.9531 14.141v29.688h-6.5938v6.9844h6.5938v15.531z"/>
</defs>
<g transform="translate(114.95 893) scale(.1 -.1)">
<use xlink:href="#s"/>
<use x="63.378906" xlink:href="#ab"/>
<use x="124.658203" xlink:href="#q"/>
<use x="163.867188" xlink:href="#q"/>
<use x="203.076172" xlink:href="#c"/>
</g>
</g>
<g clip-path="url(#a)">
<defs>
<path id="ai" d="m45.406 46.391v29.594h8.9844v-75.984h-8.9844v8.2031q-2.8281-4.875-7.1562-7.25-4.3125-2.375-10.375-2.375-9.9062 0-16.141 7.9062-6.2188 7.9219-6.2188 20.812t6.2188 20.797q6.2344 7.9062 16.141 7.9062 6.0625 0 10.375-2.375 4.3281-2.3594 7.1562-7.2344zm-30.609-19.094q0-9.9062 4.0781-15.547t11.203-5.6406 11.219 5.6406q4.1094 5.6406 4.1094 15.547t-4.1094 15.547q-4.0938 5.6406-11.219 5.6406t-11.203-5.6406-4.0781-15.547z"/>
</defs>
<g transform="translate(166.16 893) scale(.1 -.1)">
<use xlink:href="#ai"/>
<use x="63.476562" xlink:href="#c"/>
<use x="125" xlink:href="#d"/>
</g>
</g>
<g clip-path="url(#a)">
<defs>
<path id="av" d="m9.8125 72.906h9.8594v-30.812l32.719 30.812h12.703l-36.188-33.984 38.766-38.922h-12.984l-35.016 35.109v-35.109h-9.8594z"/>
<path id="at" d="m18.109 8.2031v-29h-9.0312v75.484h9.0312v-8.2969q2.8438 4.875 7.1562 7.2344 4.3281 2.375 10.328 2.375 9.9688 0 16.188-7.9062 6.2344-7.9062 6.2344-20.797t-6.2344-20.812q-6.2188-7.9062-16.188-7.9062-6 0-10.328 2.375-4.3125 2.375-7.1562 7.25zm30.578 19.094q0 9.9062-4.0781 15.547t-11.203 5.6406q-7.1406 0-11.219-5.6406t-4.0781-15.547 4.0781-15.547 11.219-5.6406q7.125 0 11.203 5.6406t4.0781 15.547z"/>
</defs>
<g transform="translate(203.89 893) scale(.1 -.1)">
<use xlink:href="#av"/>
<use x="65.560547" xlink:href="#i"/>
<use x="126.839844" xlink:href="#at"/>
<use x="190.316406" xlink:href="#f"/>
<use x="218.099609" xlink:href="#q"/>
<use x="257.308594" xlink:href="#ab"/>
<use x="318.587891" xlink:href="#d"/>
</g>
</g>
<g clip-path="url(#a)">
<defs>
<path id="ap" d="m37.109 75.984v-7.4844h-8.5938q-4.8281 0-6.7188-1.9531-1.875-1.9531-1.875-7.0312v-4.8281h14.797v-6.9844h-14.797v-47.703h-9.0312v47.703h-8.5938v6.9844h8.5938v3.8125q0 9.125 4.25 13.297 4.25 4.1875 13.469 4.1875z"/>
<path id="ac" d="m45.406 27.984q0 9.7656-4.0312 15.125-4.0156 5.375-11.297 5.375-7.2188 0-11.25-5.375-4.0312-5.3594-4.0312-15.125 0-9.7188 4.0312-15.094t11.25-5.375q7.2812 0 11.297 5.375 4.0312 5.375 4.0312 15.094zm8.9844-21.203q0-13.953-6.2031-20.766-6.1875-6.8125-18.984-6.8125-4.7344 0-8.9375 0.70312t-8.1562 2.1719v8.7344q3.9531-2.1406 7.8125-3.1562 3.8594-1.0312 7.8594-1.0312 8.8438 0 13.234 4.6094t4.3906 13.938v4.4531q-2.7812-4.8438-7.125-7.2344t-10.406-2.3906q-10.047 0-16.203 7.6562-6.1562 7.6719-6.1562 20.328 0 12.688 6.1562 20.344 6.1562 7.6719 16.203 7.6719 6.0625 0 10.406-2.3906t7.125-7.2188v8.2969h8.9844z"/>
</defs>
<g transform="translate(254.1 893) scale(.1 -.1)">
<use xlink:href="#ap"/>
<use x="35.205078" xlink:href="#h"/>
<use x="76.318359" xlink:href="#i"/>
<use x="137.597656" xlink:href="#ac"/>
<use x="201.074219" xlink:href="#c"/>
<use x="262.597656" xlink:href="#d"/>
</g>
</g>
<g clip-path="url(#a)">
<defs>
<path id="ba" d="m30.609 48.391q-7.2188 0-11.422-5.6406t-4.2031-15.453 4.1719-15.453q4.1875-5.6406 11.453-5.6406 7.1875 0 11.375 5.6562 4.2031 5.6719 4.2031 15.438 0 9.7188-4.2031 15.406-4.1875 5.6875-11.375 5.6875zm0 7.6094q11.719 0 18.406-7.625 6.7031-7.6094 6.7031-21.078 0-13.422-6.7031-21.078-6.6875-7.6406-18.406-7.6406-11.766 0-18.438 7.6406-6.6562 7.6562-6.6562 21.078 0 13.469 6.6562 21.078 6.6719 7.625 18.438 7.625zm4.6094 19.781h9.9062v-9.8594h-9.9062zm-19.094 0h9.9062v-9.8594h-9.9062z"/>
</defs>
<g transform="translate(300.45 893) scale(.1 -.1)">
<use xlink:href="#j"/>
<use x="97.412109" xlink:href="#ba"/>
<use x="158.59375" xlink:href="#ac"/>
<use x="222.070312" xlink:href="#c"/>
<use x="283.59375" xlink:href="#d"/>
</g>
</g>
<g clip-path="url(#a)">
<defs>
<path id="aa" d="m11.719 12.406h10.297v-8.4062l-8-15.625h-6.2969l4 15.625z"/>
</defs>
<g transform="translate(363.62 893) scale(.1 -.1)">
<use xlink:href="#aa"/>
</g>
</g>
<g clip-path="url(#a)">
<defs>
<path id="aj" d="m48.688 27.297q0 9.9062-4.0781 15.547t-11.203 5.6406q-7.1406 0-11.219-5.6406t-4.0781-15.547 4.0781-15.547 11.219-5.6406q7.125 0 11.203 5.6406t4.0781 15.547zm-30.578 19.094q2.8438 4.875 7.1562 7.2344 4.3281 2.375 10.328 2.375 9.9688 0 16.188-7.9062 6.2344-7.9062 6.2344-20.797t-6.2344-20.812q-6.2188-7.9062-16.188-7.9062-6 0-10.328 2.375-4.3125 2.375-7.1562 7.25v-8.2031h-9.0312v75.984h9.0312z"/>
</defs>
<g transform="translate(401.24 893) scale(.1 -.1)">
<use xlink:href="#i"/>
<use x="61.279297" xlink:href="#aj"/>
<use x="124.755859" xlink:href="#c"/>
<use x="186.279297" xlink:href="#h"/>
</g>
</g>
<g clip-path="url(#a)">
<defs>
<path id="r" d="m44.281 53.078v-8.5q-3.7969 1.9531-7.9062 2.9219-4.0938 0.98438-8.5 0.98438-6.6875 0-10.031-2.0469t-3.3438-6.1562q0-3.125 2.3906-4.9062t9.625-3.3906l3.0781-0.6875q9.5625-2.0469 13.594-5.7812t4.0312-10.422q0-7.625-6.0312-12.078-6.0312-4.4375-16.578-4.4375-4.3906 0-9.1562 0.85938t-10.031 2.5625v9.2812q4.9844-2.5938 9.8125-3.8906 4.8281-1.2812 9.5781-1.2812 6.3438 0 9.75 2.1719 3.4219 2.1719 3.4219 6.125 0 3.6562-2.4688 5.6094-2.4531 1.9531-10.812 3.7656l-3.125 0.73438q-8.3438 1.75-12.062 5.3906-3.7031 3.6406-3.7031 9.9844 0 7.7188 5.4688 11.906 5.4688 4.2031 15.531 4.2031 4.9688 0 9.3594-0.73438 4.4062-0.71875 8.1094-2.1875z"/>
</defs>
<g transform="translate(446.7 893) scale(.1 -.1)">
<use xlink:href="#r"/>
<use x="52.099609" xlink:href="#c"/>
<use x="113.623047" xlink:href="#f"/>
<use x="141.40625" xlink:href="#d"/>
<use x="204.785156" xlink:href="#c"/>
</g>
</g>
<g clip-path="url(#a)">
<defs>
<path id="au" d="m5.6094 72.906h57.281v-7.5312l-46.094-57.078h47.219v-8.2969h-59.516v7.5156l46.094 57.078h-44.984z"/>
</defs>
<g transform="translate(467.48 893) scale(.1 -.1)">
<use xlink:href="#au"/>
<use x="68.505859" xlink:href="#c"/>
<use x="130.029297" xlink:href="#f"/>
<use x="157.8125" xlink:href="#t"/>
<use x="212.792969" xlink:href="#s"/>
<use x="276.171875" xlink:href="#c"/>
<use x="337.695312" xlink:href="#d"/>
<use x="401.074219" xlink:href="#r"/>
<use x="453.173828" xlink:href="#at"/>
<use x="516.650391" xlink:href="#h"/>
<use x="557.763672" xlink:href="#i"/>
<use x="619.042969" xlink:href="#t"/>
<use x="674.023438" xlink:href="#s"/>
<use x="737.402344" xlink:href="#c"/>
</g>
</g>
<g clip-path="url(#a)">
<g transform="translate(553.24 893) scale(.1 -.1)">
<use xlink:href="#aa"/>
</g>
</g>
<g clip-path="url(#a)">
<defs>
<path id="an" d="m4.2031 54.688h8.9844l11.234-42.672 11.172 42.672h10.594l11.234-42.672 11.188 42.672h8.9844l-14.312-54.688h-10.594l-11.766 44.828-11.812-44.828h-10.609z"/>
<path id="ao" d="m30.609 48.391q-7.2188 0-11.422-5.6406t-4.2031-15.453 4.1719-15.453q4.1875-5.6406 11.453-5.6406 7.1875 0 11.375 5.6562 4.2031 5.6719 4.2031 15.438 0 9.7188-4.2031 15.406-4.1875 5.6875-11.375 5.6875zm0 7.6094q11.719 0 18.406-7.625 6.7031-7.6094 6.7031-21.078 0-13.422-6.7031-21.078-6.6875-7.6406-18.406-7.6406-11.766 0-18.438 7.6406-6.6562 7.6562-6.6562 21.078 0 13.469 6.6562 21.078 6.6719 7.625 18.438 7.625z"/>
<path id="ah" d="m8.5 21.578v33.109h8.9844v-32.766q0-7.7656 3.0156-11.656 3.0312-3.875 9.0938-3.875 7.2656 0 11.484 4.6406 4.2344 4.6406 4.2344 12.656v31h8.9844v-54.688h-8.9844v8.4062q-3.2656-4.9844-7.5938-7.4062-4.3125-2.4219-10.031-2.4219-9.4219 0-14.312 5.8594-4.875 5.8594-4.875 17.141z"/>
</defs>
<g transform="translate(580.77 893) scale(.1 -.1)">
<use xlink:href="#an"/>
<use x="81.787109" xlink:href="#ao"/>
<use x="142.96875" xlink:href="#ai"/>
<use x="206.445312" xlink:href="#ah"/>
<use x="269.824219" xlink:href="#h"/>
<use x="310.90625" xlink:href="#t"/>
<use x="365.886719" xlink:href="#s"/>
</g>
</g>
<g clip-path="url(#a)">
<g transform="translate(644.51 893) scale(.1 -.1)">
<use xlink:href="#c"/>
<use x="61.523438" xlink:href="#h"/>
</g>
</g>
<g clip-path="url(#a)">
<g transform="translate(688.83 893) scale(.1 -.1)">
<use xlink:href="#j"/>
<use x="97.412109" xlink:href="#f"/>
<use x="125.195312" xlink:href="#q"/>
</g>
</g>
<g clip-path="url(#a)">
<g transform="translate(727.97 893) scale(.1 -.1)">
<use xlink:href="#r"/>
<use x="52.099609" xlink:href="#c"/>
<use x="113.623047" xlink:href="#f"/>
<use x="141.40625" xlink:href="#d"/>
<use x="204.785156" xlink:href="#c"/>
<use x="266.308594" xlink:href="#d"/>
</g>
</g>
<g clip-path="url(#a)">
<defs>
<path id="ax" d="m59.516 10.406v19.578h-16.109v8.1094h25.875v-31.312q-5.7031-4.0469-12.594-6.125-6.875-2.0781-14.688-2.0781-17.094 0-26.75 9.9844-9.6406 10-9.6406 27.812 0 17.875 9.6406 27.859 9.6562 9.9844 26.75 9.9844 7.125 0 13.547-1.7656 6.4219-1.75 11.844-5.1719v-10.5q-5.4688 4.6406-11.625 6.9844t-12.938 2.3438q-13.391 0-20.109-7.4688-6.7031-7.4688-6.7031-22.266 0-14.75 6.7031-22.219 6.7188-7.4688 20.109-7.4688 5.2188 0 9.3125 0.90625 4.1094 0.90625 7.375 2.8125z"/>
</defs>
<g transform="translate(766.65 893) scale(.1 -.1)">
<use xlink:href="#ax"/>
<use x="77.490234" xlink:href="#c"/>
<use x="139.013672" xlink:href="#ap"/>
<use x="174.21875" xlink:href="#ab"/>
<use x="235.498047" xlink:href="#s"/>
<use x="298.876953" xlink:href="#h"/>
<use x="339.990234" xlink:href="#q"/>
<use x="379.199219" xlink:href="#c"/>
<use x="440.722656" xlink:href="#d"/>
</g>
</g>
<g clip-path="url(#a)">
<g transform="translate(837.67 893) scale(.1 -.1)">
<use xlink:href="#aa"/>
</g>
</g>
<g clip-path="url(#a)">
<g transform="translate(873.18 893) scale(.1 -.1)">
<use xlink:href="#an"/>
<use x="81.787109" xlink:href="#i"/>
<use x="143.066406" xlink:href="#d"/>
<use x="206.445312" xlink:href="#d"/>
</g>
</g>
<g clip-path="url(#a)">
<g transform="translate(927 893) scale(.1 -.1)">
<use xlink:href="#r"/>
<use x="52.099609" xlink:href="#f"/>
<use x="79.882812" xlink:href="#c"/>
</g>
</g>
<g clip-path="url(#a)">
<g transform="translate(973.75 893) scale(.1 -.1)">
<use xlink:href="#f"/>
<use x="27.783203" xlink:href="#s"/>
<use x="91.162109" xlink:href="#d"/>
</g>
</g>
<g clip-path="url(#a)">
<g transform="translate(1021.2 893) scale(.1 -.1)">
<use xlink:href="#aj"/>
<use x="63.476562" xlink:href="#c"/>
<use x="125" xlink:href="#f"/>
</g>
</g>
<g clip-path="url(#a)">
<g transform="translate(1059.8 893) scale(.1 -.1)">
<use xlink:href="#r"/>
<use x="52.099609" xlink:href="#c"/>
<use x="113.623047" xlink:href="#f"/>
<use x="141.40625" xlink:href="#d"/>
<use x="204.785156" xlink:href="#c"/>
<use x="266.308594" xlink:href="#d"/>
</g>
</g>
<g clip-path="url(#a)">
<g transform="translate(1085.3 893) scale(.1 -.1)">
<use xlink:href="#ah"/>
<use x="63.378906" xlink:href="#d"/>
<use x="126.757812" xlink:href="#q"/>
<use x="165.966797" xlink:href="#c"/>
<use x="227.490234" xlink:href="#h"/>
<use x="268.603516" xlink:href="#r"/>
<use x="320.703125" xlink:href="#c"/>
<use x="382.226562" xlink:href="#c"/>
<use x="443.75" xlink:href="#f"/>
<use x="471.533203" xlink:href="#r"/>
<use x="523.632812" xlink:href="#t"/>
<use x="578.613281" xlink:href="#s"/>
<use x="641.992188" xlink:href="#c"/>
<use x="703.515625" xlink:href="#d"/>
</g>
</g>
<g clip-path="url(#a)">
<defs>
<path id="az" d="m8.5 21.578v33.109h8.9844v-32.766q0-7.7656 3.0156-11.656 3.0312-3.875 9.0938-3.875 7.2656 0 11.484 4.6406 4.2344 4.6406 4.2344 12.656v31h8.9844v-54.688h-8.9844v8.4062q-3.2656-4.9844-7.5938-7.4062-4.3125-2.4219-10.031-2.4219-9.4219 0-14.312 5.8594-4.875 5.8594-4.875 17.141zm22.609 34.422m4.4844 19.781h9.9062v-9.8594h-9.9062zm-19.094 0h9.9062v-9.8594h-9.9062z"/>
</defs>
<g transform="translate(1146.2 893) scale(.1 -.1)">
<use xlink:href="#o"/>
<use x="68.408203" xlink:href="#ah"/>
<use x="131.787109" xlink:href="#r"/>
<use x="183.886719" xlink:href="#ap"/>
<use x="219.091797" xlink:href="#k"/>
<use x="246.875" xlink:href="#az"/>
<use x="310.253906" xlink:href="#ac"/>
<use x="373.730469" xlink:href="#c"/>
<use x="435.253906" xlink:href="#d"/>
</g>
</g>
<g clip-path="url(#a)">
<g transform="translate(1190 893) scale(.1 -.1)">
<use xlink:href="#aj"/>
<use x="63.476562" xlink:href="#c"/>
<use x="125" xlink:href="#ac"/>
<use x="188.476562" xlink:href="#k"/>
<use x="216.259766" xlink:href="#c"/>
<use x="277.783203" xlink:href="#f"/>
<use x="305.566406" xlink:href="#q"/>
<use x="344.775391" xlink:href="#c"/>
<use x="406.298828" xlink:href="#q"/>
<use x="445.507812" xlink:href="#c"/>
<use x="507.03125" xlink:href="#d"/>
</g>
</g>
<g clip-path="url(#a)">
<g transform="translate(1264.3 893) scale(.1 -.1)">
<use xlink:href="#aa"/>
</g>
</g>
<g clip-path="url(#a)">
<g transform="translate(1303.4 893) scale(.1 -.1)">
<use xlink:href="#r"/>
<use x="52.099609" xlink:href="#f"/>
<use x="79.882812" xlink:href="#t"/>
<use x="134.863281" xlink:href="#s"/>
</g>
</g>
<g clip-path="url(#a)">
<defs>
<path id="as" d="m2.9844 54.688h9.5156l17.094-45.891 17.094 45.891h9.5156l-20.516-54.688h-12.203z"/>
</defs>
<g transform="translate(1327.9 893) scale(.1 -.1)">
<use xlink:href="#as"/>
<use x="59.179688" xlink:href="#c"/>
<use x="120.703125" xlink:href="#h"/>
<use x="161.816406" xlink:href="#r"/>
<use x="213.916016" xlink:href="#q"/>
<use x="253.125" xlink:href="#ab"/>
<use x="314.404297" xlink:href="#d"/>
<use x="377.783203" xlink:href="#ai"/>
<use x="441.259766" xlink:href="#f"/>
<use x="469.042969" xlink:href="#ac"/>
<use x="532.519531" xlink:href="#c"/>
<use x="594.042969" xlink:href="#d"/>
</g>
</g>
<g clip-path="url(#a)">
<defs>
<path id="bb" d="m9.0781 75.984h9.0312v-44.875l26.812 23.578h11.469l-29-25.578 30.234-29.109h-11.719l-27.797 26.703v-26.703h-9.0312z"/>
</defs>
<g transform="translate(1390.8 893) scale(.1 -.1)">
<use xlink:href="#bb"/>
<use x="57.863281" xlink:href="#ao"/>
<use x="119.044922" xlink:href="#d"/>
<use x="182.423828" xlink:href="#d"/>
<use x="245.802734" xlink:href="#q"/>
<use x="285.011719" xlink:href="#c"/>
</g>
</g>
<g clip-path="url(#a)">
<g transform="translate(1453.9 893) scale(.1 -.1)">
<use xlink:href="#aa"/>
</g>
</g>
<g clip-path="url(#a)">
<g transform="translate(1493.7 893) scale(.1 -.1)">
<use xlink:href="#an"/>
<use x="81.787109" xlink:href="#i"/>
<use x="143.066406" xlink:href="#h"/>
</g>
</g>
<g clip-path="url(#a)">
<g transform="translate(1542 893) scale(.1 -.1)">
<use xlink:href="#j"/>
<use x="97.412109" xlink:href="#f"/>
<use x="125.195312" xlink:href="#h"/>
</g>
</g>
<g clip-path="url(#a)">
<g transform="translate(1585.6 893) scale(.1 -.1)">
<use xlink:href="#d"/>
<use x="63.378906" xlink:href="#ao"/>
<use x="124.560547" xlink:href="#t"/>
<use x="179.541016" xlink:href="#s"/>
</g>
</g>
<g clip-path="url(#a)">
<g transform="translate(1608.1 893) scale(.1 -.1)">
<use xlink:href="#ah"/>
<use x="63.378906" xlink:href="#d"/>
<use x="126.757812" xlink:href="#as"/>
<use x="185.9375" xlink:href="#c"/>
<use x="247.460938" xlink:href="#h"/>
<use x="288.574219" xlink:href="#r"/>
<use x="340.673828" xlink:href="#q"/>
<use x="379.882812" xlink:href="#ab"/>
<use x="441.162109" xlink:href="#d"/>
<use x="504.541016" xlink:href="#ai"/>
<use x="568.017578" xlink:href="#k"/>
<use x="595.800781" xlink:href="#f"/>
<use x="623.583984" xlink:href="#t"/>
<use x="678.564453" xlink:href="#s"/>
</g>
</g>
<g clip-path="url(#a)">
<defs>
<path id="g" d="m10.688 12.406h10.312v-12.406h-10.312z"/>
</defs>
<g transform="translate(1691 893) scale(.1 -.1)">
<use xlink:href="#g"/>
</g>
</g>
<g clip-path="url(#a)">
<defs>
<path id="e" d="m12.406 8.2969h16.109v55.625l-17.531-3.5156v8.9844l17.438 3.5156h9.8594v-64.609h16.109v-8.2969h-41.984z"/>
</defs>
<g transform="translate(596.01 45.853) scale(.1 -.1)">
<use xlink:href="#e"/>
<use x="63.623047" xlink:href="#g"/>
<use x="95.410156" xlink:href="#e"/>
</g>
</g>
<g clip-path="url(#a)">
<defs>
<path id="p" d="m19.188 8.2969h34.422v-8.2969h-46.281v8.2969q5.6094 5.8125 15.297 15.594 9.7031 9.7969 12.188 12.641 4.7344 5.3125 6.6094 9 1.8906 3.6875 1.8906 7.25 0 5.8125-4.0781 9.4688-4.0781 3.6719-10.625 3.6719-4.6406 0-9.7969-1.6094-5.1406-1.6094-11-4.8906v9.9688q5.9531 2.3906 11.125 3.6094 5.1875 1.2188 9.4844 1.2188 11.328 0 18.062-5.6719 6.7344-5.6562 6.7344-15.125 0-4.5-1.6875-8.5312-1.6719-4.0156-6.125-9.4844-1.2188-1.4219-7.7656-8.1875-6.5312-6.7656-18.453-18.922z"/>
</defs>
<g transform="translate(191.33 590.79) scale(.1 -.1)">
<use xlink:href="#e"/>
<use x="63.623047" xlink:href="#g"/>
<use x="95.410156" xlink:href="#p"/>
</g>
</g>
<g clip-path="url(#a)">
<defs>
<path id="n" d="m40.578 39.312q7.0781-1.5156 11.047-6.3125 3.9844-4.7812 3.9844-11.812 0-10.781-7.4219-16.703-7.4219-5.9062-21.094-5.9062-4.5781 0-9.4375 0.90625t-10.031 2.7188v9.5156q4.0938-2.3906 8.9688-3.6094 4.8906-1.2188 10.219-1.2188 9.2656 0 14.125 3.6562t4.8594 10.641q0 6.4531-4.5156 10.078-4.5156 3.6406-12.562 3.6406h-8.5v8.1094h8.8906q7.2656 0 11.125 2.9062t3.8594 8.375q0 5.6094-3.9844 8.6094-3.9688 3.0156-11.391 3.0156-4.0625 0-8.7031-0.89062-4.6406-0.875-10.203-2.7188v8.7812q5.625 1.5625 10.531 2.3438t9.25 0.78125q11.234 0 17.766-5.1094 6.5469-5.0938 6.5469-13.781 0-6.0625-3.4688-10.234t-9.8594-5.7812z"/>
</defs>
<g transform="translate(404.66 792.73) scale(.1 -.1)">
<use xlink:href="#e"/>
<use x="63.623047" xlink:href="#g"/>
<use x="95.410156" xlink:href="#n"/>
</g>
</g>
<g clip-path="url(#a)">
<defs>
<path id="m" d="m37.797 64.312-24.906-38.922h24.906zm-2.5938 8.5938h12.406v-47.516h10.406v-8.2031h-10.406v-17.188h-9.8125v17.188h-32.906v9.5156z"/>
</defs>
<g transform="translate(1430.8 160.83) scale(.1 -.1)">
<use xlink:href="#e"/>
<use x="63.623047" xlink:href="#g"/>
<use x="95.410156" xlink:href="#m"/>
</g>
</g>
<g clip-path="url(#a)">
<defs>
<path id="z" d="m8.2031 72.906h46.875v-4.2031l-26.469-68.703h-10.297l24.906 64.594h-35.016z"/>
</defs>
<g transform="translate(618.95 272.51) scale(.1 -.1)">
<use xlink:href="#e"/>
<use x="63.623047" xlink:href="#g"/>
<use x="95.410156" xlink:href="#z"/>
</g>
</g>
<g clip-path="url(#a)">
<defs>
<path id="y" d="m31.781 34.625q-7.0312 0-11.062-3.7656-4.0156-3.7656-4.0156-10.344 0-6.5938 4.0156-10.359 4.0312-3.7656 11.062-3.7656t11.078 3.7812q4.0625 3.7969 4.0625 10.344 0 6.5781-4.0312 10.344-4.0156 3.7656-11.109 3.7656zm-9.8594 4.1875q-6.3438 1.5625-9.8906 5.9062-3.5312 4.3594-3.5312 10.609 0 8.7344 6.2188 13.812 6.2344 5.0781 17.062 5.0781 10.891 0 17.094-5.0781t6.2031-13.812q0-6.25-3.5469-10.609-3.5312-4.3438-9.8281-5.9062 7.125-1.6562 11.094-6.5 3.9844-4.8281 3.9844-11.797 0-10.609-6.4688-16.281-6.4688-5.6562-18.531-5.6562-12.047 0-18.531 5.6562-6.4688 5.6719-6.4688 16.281 0 6.9688 4 11.797 4.0156 4.8438 11.141 6.5zm-3.6094 15.578q0-5.6562 3.5312-8.8281 3.5469-3.1719 9.9375-3.1719 6.3594 0 9.9375 3.1719 3.5938 3.1719 3.5938 8.8281 0 5.6719-3.5938 8.8438-3.5781 3.1719-9.9375 3.1719-6.3906 0-9.9375-3.1719-3.5312-3.1719-3.5312-8.8438z"/>
</defs>
<g transform="translate(1495 792.73) scale(.1 -.1)">
<use xlink:href="#e"/>
<use x="63.623047" xlink:href="#g"/>
<use x="95.410156" xlink:href="#y"/>
</g>
</g>
<g clip-path="url(#a)">
<defs>
<path id="x" d="m10.984 1.5156v8.9844q3.7188-1.7656 7.5156-2.6875 3.8125-0.92188 7.4844-0.92188 9.7656 0 14.906 6.5625 5.1562 6.5625 5.8906 19.953-2.8281-4.2031-7.1875-6.4531-4.3438-2.25-9.6094-2.25-10.938 0-17.312 6.6094-6.375 6.625-6.375 18.109 0 11.219 6.6406 18 6.6406 6.7969 17.672 6.7969 12.656 0 19.312-9.7031 6.6719-9.6875 6.6719-28.141 0-17.234-8.1875-27.516-8.1719-10.281-21.984-10.281-3.7188 0-7.5312 0.73438-3.7969 0.73438-7.9062 2.2031zm19.625 30.906q6.6406 0 10.516 4.5312 3.8906 4.5469 3.8906 12.469 0 7.8594-3.8906 12.422-3.875 4.5625-10.516 4.5625t-10.516-4.5625-3.875-12.422q0-7.9219 3.875-12.469 3.875-4.5312 10.516-4.5312z"/>
</defs>
<g transform="translate(1542.4 792.73) scale(.1 -.1)">
<use xlink:href="#e"/>
<use x="63.623047" xlink:href="#g"/>
<use x="95.410156" xlink:href="#x"/>
</g>
</g>
<g clip-path="url(#a)">
<defs>
<path id="ag" d="m31.781 66.406q-7.6094 0-11.453-7.5-3.8281-7.4844-3.8281-22.531 0-14.984 3.8281-22.484 3.8438-7.5 11.453-7.5 7.6719 0 11.5 7.5 3.8438 7.5 3.8438 22.484 0 15.047-3.8438 22.531-3.8281 7.5-11.5 7.5zm0 7.8125q12.266 0 18.734-9.7031 6.4688-9.6875 6.4688-28.141 0-18.406-6.4688-28.109-6.4688-9.6875-18.734-9.6875-12.25 0-18.719 9.6875-6.4688 9.7031-6.4688 28.109 0 18.453 6.4688 28.141 6.4688 9.7031 18.719 9.7031z"/>
</defs>
<g transform="translate(1586.6 792.73) scale(.1 -.1)">
<use xlink:href="#e"/>
<use x="63.623047" xlink:href="#g"/>
<use x="95.410156" xlink:href="#e"/>
<use x="159.033203" xlink:href="#ag"/>
</g>
</g>
<g clip-path="url(#a)">
<g transform="translate(1634 792.73) scale(.1 -.1)">
<use xlink:href="#e"/>
<use x="63.623047" xlink:href="#g"/>
<use x="95.410156" xlink:href="#e"/>
<use x="159.033203" xlink:href="#e"/>
</g>
</g>
<g clip-path="url(#a)">
<g transform="translate(448.88 792.73) scale(.1 -.1)">
<use xlink:href="#e"/>
<use x="63.623047" xlink:href="#g"/>
<use x="95.410156" xlink:href="#e"/>
<use x="159.033203" xlink:href="#n"/>
</g>
</g>
<g clip-path="url(#a)">
<g transform="translate(496.29 792.73) scale(.1 -.1)">
<use xlink:href="#e"/>
<use x="63.623047" xlink:href="#g"/>
<use x="95.410156" xlink:href="#e"/>
<use x="159.033203" xlink:href="#m"/>
</g>
</g>
<g clip-path="url(#a)">
<defs>
<path id="w" d="m10.797 72.906h38.719v-8.3125h-29.688v-17.859q2.1406 0.73438 4.2812 1.0938 2.1562 0.35938 4.3125 0.35938 12.203 0 19.328-6.6875 7.1406-6.6875 7.1406-18.109 0-11.766-7.3281-18.297-7.3281-6.5156-20.656-6.5156-4.5938 0-9.3594 0.78125-4.75 0.78125-9.8281 2.3438v9.9219q4.3906-2.3906 9.0781-3.5625t9.9062-1.1719q8.4531 0 13.375 4.4375 4.9375 4.4375 4.9375 12.062 0 7.6094-4.9375 12.047-4.9219 4.4531-13.375 4.4531-3.9531 0-7.8906-0.875-3.9219-0.875-8.0156-2.7344z"/>
</defs>
<g transform="translate(974.2 381.19) scale(.1 -.1)">
<use xlink:href="#e"/>
<use x="63.623047" xlink:href="#g"/>
<use x="95.410156" xlink:href="#e"/>
<use x="159.033203" xlink:href="#w"/>
</g>
</g>
<g clip-path="url(#a)">
<g transform="translate(863.68 590.79) scale(.1 -.1)">
<use xlink:href="#e"/>
<use x="63.623047" xlink:href="#g"/>
<use x="95.410156" xlink:href="#e"/>
<use x="159.033203" xlink:href="#z"/>
</g>
</g>
<g clip-path="url(#a)">
<g transform="translate(875.53 792.73) scale(.1 -.1)">
<use xlink:href="#e"/>
<use x="63.623047" xlink:href="#g"/>
<use x="95.410156" xlink:href="#e"/>
<use x="159.033203" xlink:href="#y"/>
</g>
</g>
<g clip-path="url(#a)">
<g transform="translate(1048.9 487.17) scale(.1 -.1)">
<use xlink:href="#e"/>
<use x="63.623047" xlink:href="#g"/>
<use x="95.410156" xlink:href="#e"/>
<use x="159.033203" xlink:href="#x"/>
</g>
</g>
<g clip-path="url(#a)">
<g transform="translate(922.94 792.73) scale(.1 -.1)">
<use xlink:href="#e"/>
<use x="63.623047" xlink:href="#g"/>
<use x="95.410156" xlink:href="#p"/>
<use x="159.033203" xlink:href="#p"/>
</g>
</g>
<g clip-path="url(#a)">
<g transform="translate(970.34 792.73) scale(.1 -.1)">
<use xlink:href="#e"/>
<use x="63.623047" xlink:href="#g"/>
<use x="95.410156" xlink:href="#p"/>
<use x="159.033203" xlink:href="#n"/>
</g>
</g>
<g clip-path="url(#a)">
<g transform="translate(1094.8 590.79) scale(.1 -.1)">
<use xlink:href="#e"/>
<use x="63.623047" xlink:href="#g"/>
<use x="95.410156" xlink:href="#p"/>
<use x="159.033203" xlink:href="#m"/>
</g>
</g>
<g clip-path="url(#a)">
<g transform="translate(1207.4 792.73) scale(.1 -.1)">
<use xlink:href="#e"/>
<use x="63.623047" xlink:href="#g"/>
<use x="95.410156" xlink:href="#p"/>
<use x="159.033203" xlink:href="#w"/>
</g>
</g>
<g clip-path="url(#a)">
<defs>
<path id="am" d="m33.016 40.375q-6.6406 0-10.531-4.5469-3.875-4.5312-3.875-12.438 0-7.8594 3.875-12.438 3.8906-4.5625 10.531-4.5625t10.516 4.5625q3.875 4.5781 3.875 12.438 0 7.9062-3.875 12.438-3.875 4.5469-10.516 4.5469zm19.578 30.922v-8.9844q-3.7188 1.75-7.5 2.6719-3.7812 0.9375-7.5 0.9375-9.7656 0-14.922-6.5938-5.1406-6.5938-5.875-19.922 2.875 4.25 7.2188 6.5156 4.3594 2.2656 9.5781 2.2656 10.984 0 17.359-6.6719 6.375-6.6562 6.375-18.125 0-11.234-6.6406-18.031-6.6406-6.7812-17.672-6.7812-12.656 0-19.344 9.6875-6.6875 9.7031-6.6875 28.109 0 17.281 8.2031 27.562t22.016 10.281q3.7188 0 7.5-0.73438t7.8906-2.1875z"/>
</defs>
<g transform="translate(1017.8 792.73) scale(.1 -.1)">
<use xlink:href="#e"/>
<use x="63.623047" xlink:href="#g"/>
<use x="95.410156" xlink:href="#p"/>
<use x="159.033203" xlink:href="#am"/>
</g>
</g>
<g clip-path="url(#a)">
<g transform="translate(1065.2 792.73) scale(.1 -.1)">
<use xlink:href="#e"/>
<use x="63.623047" xlink:href="#g"/>
<use x="95.410156" xlink:href="#p"/>
<use x="159.033203" xlink:href="#z"/>
</g>
</g>
<g clip-path="url(#a)">
<g transform="translate(1136.3 692.46) scale(.1 -.1)">
<use xlink:href="#e"/>
<use x="63.623047" xlink:href="#g"/>
<use x="95.410156" xlink:href="#p"/>
<use x="159.033203" xlink:href="#y"/>
</g>
</g>
<g clip-path="url(#a)">
<g transform="translate(1160 792.73) scale(.1 -.1)">
<use xlink:href="#e"/>
<use x="63.623047" xlink:href="#g"/>
<use x="95.410156" xlink:href="#p"/>
<use x="159.033203" xlink:href="#x"/>
</g>
</g>
<g clip-path="url(#a)">
<g transform="translate(1112.6 792.73) scale(.1 -.1)">
<use xlink:href="#e"/>
<use x="63.623047" xlink:href="#g"/>
<use x="95.410156" xlink:href="#n"/>
<use x="159.033203" xlink:href="#ag"/>
</g>
</g>
<g clip-path="url(#a)">
<g transform="translate(591.1 792.73) scale(.1 -.1)">
<use xlink:href="#e"/>
<use x="63.623047" xlink:href="#g"/>
<use x="95.410156" xlink:href="#n"/>
<use x="159.033203" xlink:href="#e"/>
</g>
</g>
<g clip-path="url(#a)">
<g transform="translate(638.51 792.73) scale(.1 -.1)">
<use xlink:href="#e"/>
<use x="63.623047" xlink:href="#g"/>
<use x="95.410156" xlink:href="#n"/>
<use x="159.033203" xlink:href="#p"/>
</g>
</g>
<g clip-path="url(#a)">
<g transform="translate(733.32 692.46) scale(.1 -.1)">
<use xlink:href="#e"/>
<use x="63.623047" xlink:href="#g"/>
<use x="95.410156" xlink:href="#n"/>
<use x="159.033203" xlink:href="#n"/>
</g>
</g>
<g clip-path="url(#a)">
<g transform="translate(1325.9 792.73) scale(.1 -.1)">
<use xlink:href="#e"/>
<use x="63.623047" xlink:href="#g"/>
<use x="95.410156" xlink:href="#n"/>
<use x="159.033203" xlink:href="#m"/>
</g>
</g>
<g clip-path="url(#a)">
<g transform="translate(1397 792.73) scale(.1 -.1)">
<use xlink:href="#e"/>
<use x="63.623047" xlink:href="#g"/>
<use x="95.410156" xlink:href="#n"/>
<use x="159.033203" xlink:href="#w"/>
</g>
</g>
<g clip-path="url(#a)">
<g transform="translate(685.91 792.73) scale(.1 -.1)">
<use xlink:href="#e"/>
<use x="63.623047" xlink:href="#g"/>
<use x="95.410156" xlink:href="#n"/>
<use x="159.033203" xlink:href="#am"/>
</g>
</g>
<g clip-path="url(#a)">
<g transform="translate(733.32 792.73) scale(.1 -.1)">
<use xlink:href="#e"/>
<use x="63.623047" xlink:href="#g"/>
<use x="95.410156" xlink:href="#n"/>
<use x="159.033203" xlink:href="#z"/>
</g>
</g>
<g clip-path="url(#a)">
<g transform="translate(780.72 792.73) scale(.1 -.1)">
<use xlink:href="#e"/>
<use x="63.623047" xlink:href="#g"/>
<use x="95.410156" xlink:href="#n"/>
<use x="159.033203" xlink:href="#y"/>
</g>
</g>
<g clip-path="url(#a)">
<g transform="translate(69.64 792.73) scale(.1 -.1)">
<use xlink:href="#e"/>
<use x="63.623047" xlink:href="#g"/>
<use x="95.410156" xlink:href="#n"/>
<use x="159.033203" xlink:href="#x"/>
</g>
</g>
<g clip-path="url(#a)">
<g transform="translate(117.05 792.73) scale(.1 -.1)">
<use xlink:href="#e"/>
<use x="63.623047" xlink:href="#g"/>
<use x="95.410156" xlink:href="#m"/>
<use x="159.033203" xlink:href="#ag"/>
</g>
</g>
<g clip-path="url(#a)">
<g transform="translate(188.15 692.46) scale(.1 -.1)">
<use xlink:href="#e"/>
<use x="63.623047" xlink:href="#g"/>
<use x="95.410156" xlink:href="#m"/>
<use x="159.033203" xlink:href="#e"/>
</g>
</g>
<g clip-path="url(#a)">
<g transform="translate(259.26 792.73) scale(.1 -.1)">
<use xlink:href="#e"/>
<use x="63.623047" xlink:href="#g"/>
<use x="95.410156" xlink:href="#m"/>
<use x="159.033203" xlink:href="#p"/>
</g>
</g>
<g clip-path="url(#a)">
<g transform="translate(306.67 792.73) scale(.1 -.1)">
<use xlink:href="#e"/>
<use x="63.623047" xlink:href="#g"/>
<use x="95.410156" xlink:href="#m"/>
<use x="159.033203" xlink:href="#n"/>
</g>
</g>
<g clip-path="url(#a)">
<g transform="translate(164.45 792.73) scale(.1 -.1)">
<use xlink:href="#e"/>
<use x="63.623047" xlink:href="#g"/>
<use x="95.410156" xlink:href="#m"/>
<use x="159.033203" xlink:href="#m"/>
</g>
</g>
<g clip-path="url(#a)">
<g transform="translate(211.86 792.73) scale(.1 -.1)">
<use xlink:href="#e"/>
<use x="63.623047" xlink:href="#g"/>
<use x="95.410156" xlink:href="#m"/>
<use x="159.033203" xlink:href="#w"/>
</g>
</g>
<g clip-path="url(#a)">
<g transform="translate(354.07 792.73) scale(.1 -.1)">
<use xlink:href="#e"/>
<use x="63.623047" xlink:href="#g"/>
<use x="95.410156" xlink:href="#m"/>
<use x="159.033203" xlink:href="#am"/>
</g>
</g>
<g clip-path="url(#a)">
<g transform="translate(543.7 792.73) scale(.1 -.1)">
<use xlink:href="#e"/>
<use x="63.623047" xlink:href="#g"/>
<use x="95.410156" xlink:href="#m"/>
<use x="159.033203" xlink:href="#z"/>
</g>
</g>
<g clip-path="url(#a)">
<g transform="translate(828.13 792.73) scale(.1 -.1)">
<use xlink:href="#e"/>
<use x="63.623047" xlink:href="#g"/>
<use x="95.410156" xlink:href="#m"/>
<use x="159.033203" xlink:href="#y"/>
</g>
</g>
<g clip-path="url(#a)">
<g transform="translate(1254.8 792.73) scale(.1 -.1)">
<use xlink:href="#e"/>
<use x="63.623047" xlink:href="#g"/>
<use x="95.410156" xlink:href="#m"/>
<use x="159.033203" xlink:href="#x"/>
</g>
</g>
<g clip-path="url(#a)">
<g transform="translate(1444.4 792.73) scale(.1 -.1)">
<use xlink:href="#e"/>
<use x="63.623047" xlink:href="#g"/>
<use x="95.410156" xlink:href="#w"/>
<use x="159.033203" xlink:href="#ag"/>
</g>
</g>
<g clip-path="url(#a)">
<g transform="translate(1681.4 792.73) scale(.1 -.1)">
<use xlink:href="#e"/>
<use x="63.623047" xlink:href="#g"/>
<use x="95.410156" xlink:href="#w"/>
<use x="159.033203" xlink:href="#e"/>
</g>
</g>
<defs>
<clipPath id="a">
<rect width="1773.3" height="933.33"/>
</clipPath>
</defs>
</svg>
