<?xml version="1.0" encoding="UTF-8"?>
<!DOCTYPE svg  PUBLIC '-//W3C//DTD SVG 1.1//EN'  'http://www.w3.org/Graphics/SVG/1.1/DTD/svg11.dtd'>
<svg width="1216pt" height="640pt" version="1.1" viewBox="0 0 1216 640" xmlns="http://www.w3.org/2000/svg" xmlns:xlink="http://www.w3.org/1999/xlink">
<defs>
<style type="text/css">*{stroke-linecap:butt;stroke-linejoin:round;}</style>
</defs>
<path d="m0 640h1216v-640h-1216z" fill="#fff"/>
<g fill="none" stroke="#000">
<path d="m335.37 29.091v97.853" clip-path="url(#a)"/>
<path d="m335.37 126.94-250.42 97.656" clip-path="url(#a)"/>
<path d="m335.37 126.94-0.30448 388.72" clip-path="url(#a)"/>
<path d="m335.37 126.94 70.074 388.72" clip-path="url(#a)"/>
<path d="m335.37 126.94 244.47 97.656" clip-path="url(#a)"/>
<path d="m335.37 126.94-63.817 388.72" clip-path="url(#a)"/>
<path d="m84.955 224.6-29.682 291.06" clip-path="url(#a)"/>
<path d="m84.955 224.6-19.383 291.06" clip-path="url(#a)"/>
<path d="m84.955 224.6 54.715 97.41" clip-path="url(#a)"/>
<path d="m84.955 224.6-5.6503 291.06" clip-path="url(#a)"/>
<path d="m335.07 515.66-22.315 95.248" clip-path="url(#a)"/>
<path d="m335.07 515.66 22.315 95.248" clip-path="url(#a)"/>
<path d="m405.45 515.66v95.248" clip-path="url(#a)"/>
<path d="m579.84 224.6-122.9 291.06" clip-path="url(#a)"/>
<path d="m579.84 224.6-67.967 291.06" clip-path="url(#a)"/>
<path d="m579.84 224.6 200.47 97.41" clip-path="url(#a)"/>
<path d="m579.84 224.6-9.6045 291.06" clip-path="url(#a)"/>
<path d="m456.94 515.66v95.248" clip-path="url(#a)"/>
<path d="m511.87 515.66v95.248" clip-path="url(#a)"/>
<path d="m780.31 322.01-148.28 193.65" clip-path="url(#a)"/>
<path d="m780.31 322.01-83.048 193.65" clip-path="url(#a)"/>
<path d="m780.31 322.01 58.853 97.079" clip-path="url(#a)"/>
<path d="m780.31 322.01 212.2 193.65" clip-path="url(#a)"/>
<path d="m780.31 322.01 294.59 193.65" clip-path="url(#a)"/>
<path d="m780.31 322.01-714.74 193.65" clip-path="url(#a)" stroke-dasharray="3.7,1.6"/>
<path d="m780.31 322.01 380.42 193.65" clip-path="url(#a)"/>
<path d="m632.03 515.66v95.248" clip-path="url(#a)"/>
<path d="m697.26 515.66v95.248" clip-path="url(#a)"/>
<path d="m839.16 419.09-73.239 96.573" clip-path="url(#a)"/>
<path d="m839.16 419.09-1.1444 96.573" clip-path="url(#a)"/>
<path d="m839.16 419.09 74.384 96.573" clip-path="url(#a)"/>
<path d="m992.51 515.66v95.248" clip-path="url(#a)"/>
<path d="m1074.9 515.66v95.248" clip-path="url(#a)"/>
<path d="m765.92 515.66v95.248" clip-path="url(#a)"/>
<path d="m838.02 515.66v95.248" clip-path="url(#a)"/>
<path d="m913.54 515.66v95.248" clip-path="url(#a)"/>
<path d="m55.273 515.66v95.248" clip-path="url(#a)"/>
<path d="m65.572 515.66v95.248" clip-path="url(#a)"/>
<path d="m139.67 322.01-74.097 193.65" clip-path="url(#a)" stroke-dasharray="3.7,1.6"/>
<path d="m139.67 322.01-43.2 193.65" clip-path="url(#a)"/>
<path d="m139.67 322.01-22.601 193.65" clip-path="url(#a)"/>
<path d="m139.67 322.01 1.4305 193.65" clip-path="url(#a)"/>
<path d="m139.67 322.01 44.344 97.079" clip-path="url(#a)"/>
<path d="m139.67 322.01 94.124 193.65" clip-path="url(#a)"/>
<path d="m96.47 515.66v95.248" clip-path="url(#a)"/>
<path d="m117.07 515.66v95.248" clip-path="url(#a)"/>
<path d="m141.1 515.66v95.248" clip-path="url(#a)"/>
<path d="m184.01 419.09-15.449 96.573" clip-path="url(#a)"/>
<path d="m184.01 419.09 15.449 96.573" clip-path="url(#a)"/>
<path d="m233.79 515.66v95.248" clip-path="url(#a)"/>
<path d="m168.56 515.66v95.248" clip-path="url(#a)"/>
<path d="m199.46 515.66v95.248" clip-path="url(#a)"/>
<path d="m79.304 515.66v95.248" clip-path="url(#a)"/>
<path d="m271.56 515.66v95.248" clip-path="url(#a)"/>
<path d="m570.24 515.66v95.248" clip-path="url(#a)"/>
<path d="m1160.7 515.66v95.248" clip-path="url(#a)"/>
</g>
<path d="m329.1 75.009v6.0162q0 2.4 2.4 2.4h7.7425q2.4 0 2.4-2.4v-6.0162q0-2.4-2.4-2.4h-7.7425q-2.4 0-2.4 2.4z" clip-path="url(#a)" fill="#fff" stroke="#fff"/>
<g clip-path="url(#a)">
<defs>
<path id="ap" d="m9.8125 72.906h9.8594v-29.891h35.844v29.891h9.8594v-72.906h-9.8594v34.719h-35.844v-34.719h-9.8594z"/>
</defs>
<g transform="translate(333.17 75.009) rotate(90) scale(.08 -.08)">
<use xlink:href="#ap"/>
</g>
</g>
<path d="m209.89 182.61 5.0985-1.9883q2.236-0.87197 1.364-3.108l-2.813-7.2134q-0.87197-2.236-3.108-1.364l-5.0985 1.9883q-2.236 0.87197-1.364 3.108l2.813 7.2134q0.87197 2.236 3.108 1.364z" clip-path="url(#a)" fill="#fff" stroke="#fff"/>
<g clip-path="url(#a)">
<defs>
<path id="p" d="m34.188 63.188-13.391-36.281h26.812zm-5.5781 9.7188h11.188l27.781-72.906h-10.25l-6.6406 18.703h-32.859l-6.6406-18.703h-10.406z"/>
</defs>
<g transform="translate(208.42 178.82) rotate(-21.304) scale(.08 -.08)">
<use xlink:href="#p"/>
</g>
</g>
<path d="m341.49 323.85 0.003979-5.0787q0.00188-2.4-2.3981-2.4019l-7.7425-0.006065q-2.4-0.001879-2.4019 2.3981l-0.003978 5.0787q-0.00188 2.4 2.3981 2.4019l7.7425 0.006065q2.4 0.00188 2.4019-2.3981z" clip-path="url(#a)" fill="#fff" stroke="#fff"/>
<g clip-path="url(#a)">
<defs>
<path id="ao" d="m53.516 70.516v-9.625q-5.6094 2.6875-10.594 4-4.9844 1.3281-9.625 1.3281-8.0469 0-12.422-3.125t-4.375-8.8906q0-4.8438 2.9062-7.3125 2.9062-2.4531 11.016-3.9688l5.9531-1.2188q11.031-2.1094 16.281-7.4062t5.25-14.172q0-10.609-7.1094-16.078-7.0938-5.4688-20.812-5.4688-5.1719 0-11.016 1.1719-5.8281 1.1719-12.078 3.4688v10.156q6-3.3594 11.766-5.0781 5.7656-1.7031 11.328-1.7031 8.4375 0 13.031 3.3125 4.5938 3.3281 4.5938 9.4844 0 5.3594-3.2969 8.3906t-10.812 4.5469l-6.0156 1.1719q-11.031 2.1875-15.969 6.875-4.9219 4.6875-4.9219 13.047 0 9.6719 6.8125 15.234t18.766 5.5625q5.1406 0 10.453-0.9375 5.3281-0.92188 10.891-2.7656z"/>
</defs>
<g transform="translate(337.43 323.84) rotate(-89.955) scale(.08 -.08)">
<use xlink:href="#ao"/>
</g>
</g>
<path d="m363.69 319.38 1.0928 6.0623q0.42578 2.3619 2.7877 1.9361l7.6197-1.3736q2.3619-0.42578 1.9361-2.7877l-1.0928-6.0623q-0.42578-2.3619-2.7877-1.9361l-7.6197 1.3736q-2.3619 0.42578-1.9361 2.7877z" clip-path="url(#a)" fill="#fff" stroke="#fff"/>
<g clip-path="url(#a)">
<defs>
<path id="ab" d="m19.672 64.797v-56.688h11.922q15.094 0 22.094 6.8281 7 6.8438 7 21.594 0 14.641-7 21.453t-22.094 6.8125zm-9.8594 8.1094h20.266q21.188 0 31.094-8.8125 9.9219-8.8125 9.9219-27.562 0-18.859-9.9688-27.703-9.9531-8.8281-31.047-8.8281h-20.266z"/>
</defs>
<g transform="translate(367.69 318.66) rotate(79.781) scale(.08 -.08)">
<use xlink:href="#ab"/>
</g>
</g>
<path d="m452.74 180.58 5.082 2.0301q2.2288 0.89031 3.1191-1.3384l2.8722-7.1901q0.89031-2.2288-1.3384-3.1191l-5.082-2.0301q-2.2288-0.89031-3.1191 1.3384l-2.8722 7.1901q-0.89031 2.2288 1.3384 3.1191z" clip-path="url(#a)" fill="#fff" stroke="#fff"/>
<g clip-path="url(#a)">
<g transform="translate(454.25 176.81) rotate(21.775) scale(.08 -.08)">
<use xlink:href="#p"/>
</g>
</g>
<path d="m309.18 325.21 0.94853-5.7777q0.38881-2.3683-1.9795-2.7571l-7.6402-1.2543q-2.3683-0.38881-2.7571 1.9795l-0.94853 5.7777q-0.38881 2.3683 1.9795 2.7571l7.6402 1.2543q2.3683 0.38881 2.7571-1.9795z" clip-path="url(#a)" fill="#fff" stroke="#fff"/>
<g clip-path="url(#a)">
<defs>
<path id="w" d="m8.6875 72.906h9.9219v-44.297q0-11.719 4.2344-16.875 4.25-5.1406 13.781-5.1406 9.4688 0 13.719 5.1406 4.25 5.1562 4.25 16.875v44.297h9.9062v-45.516q0-14.25-7.0625-21.531-7.0469-7.2812-20.812-7.2812-13.828 0-20.891 7.2812-7.0469 7.2812-7.0469 21.531z"/>
</defs>
<g transform="translate(305.17 324.55) rotate(-80.677) scale(.08 -.08)">
<use xlink:href="#w"/>
</g>
</g>
<path d="m76.119 373.06 0.4668-4.5775q0.24348-2.3876-2.1441-2.6311l-7.7026-0.78549q-2.3876-0.24348-2.6311 2.1441l-0.46681 4.5775q-0.24348 2.3876 2.1441 2.6311l7.7026 0.78549q2.3876 0.24348 2.6311-2.1441z" clip-path="url(#a)" fill="#fff" stroke="#fff"/>
<g clip-path="url(#a)">
<defs>
<path id="z" d="m9.8125 72.906h41.891v-8.3125h-32.031v-21.484h28.906v-8.2969h-28.906v-34.812h-9.8594z"/>
</defs>
<g transform="translate(72.076 372.64) rotate(-84.177) scale(.08 -.08)">
<use xlink:href="#z"/>
</g>
</g>
<path d="m81.335 373.33 0.37118-5.5739q0.15947-2.3947-2.2352-2.5542l-7.7254-0.51446q-2.3947-0.15947-2.5542 2.2352l-0.37118 5.5739q-0.15947 2.3947 2.2352 2.5542l7.7254 0.51446q2.3947 0.15947 2.5542-2.2352z" clip-path="url(#a)" fill="#fff" stroke="#fff"/>
<g clip-path="url(#a)">
<defs>
<path id="v" d="m64.406 67.281v-10.391q-4.9844 4.6406-10.625 6.9219-5.6406 2.2969-11.984 2.2969-12.5 0-19.141-7.6406t-6.6406-22.094q0-14.406 6.6406-22.047t19.141-7.6406q6.3438 0 11.984 2.2969t10.625 6.9375v-10.312q-5.1719-3.5156-10.969-5.2812-5.7812-1.75-12.219-1.75-16.562 0-26.094 10.125-9.5156 10.141-9.5156 27.672 0 17.578 9.5156 27.703 9.5312 10.141 26.094 10.141 6.5312 0 12.312-1.7344 5.7969-1.7344 10.875-5.2031z"/>
</defs>
<g transform="translate(77.28 373.06) rotate(-86.19) scale(.08 -.08)">
<use xlink:href="#v"/>
</g>
</g>
<path d="m105.61 274.17 2.4756 4.4073q1.1754 2.0925 3.2678 0.91714l6.7505-3.7917q2.0925-1.1754 0.91714-3.2678l-2.4756-4.4073q-1.1754-2.0925-3.2679-0.91714l-6.7505 3.7917q-2.0925 1.1754-0.91714 3.2678z" clip-path="url(#a)" fill="#fff" stroke="#fff"/>
<g clip-path="url(#a)">
<defs>
<path id="aa" d="m9.8125 72.906h46.094v-8.3125h-36.234v-21.578h34.719v-8.2969h-34.719v-26.422h37.109v-8.2969h-46.969z"/>
</defs>
<g transform="translate(109.15 272.18) rotate(60.677) scale(.08 -.08)">
<use xlink:href="#aa"/>
</g>
</g>
<path d="m88.343 373.18 0.11364-5.8539q0.046582-2.3995-2.353-2.4461l-7.741-0.15027q-2.3995-0.046582-2.4461 2.353l-0.11364 5.8539q-0.046582 2.3995 2.353 2.4461l7.741 0.15027q2.3995 0.046582 2.4461-2.353z" clip-path="url(#a)" fill="#fff" stroke="#fff"/>
<g clip-path="url(#a)">
<g transform="translate(84.28 373.1) rotate(-88.888) scale(.08 -.08)">
<use xlink:href="#w"/>
</g>
</g>
<path d="m326.16 581.17 7.7118-32.916q0.54746-2.3367-1.7893-2.8842l-7.5384-1.7661q-2.3367-0.54746-2.8842 1.7893l-7.7118 32.916q-0.54746 2.3367 1.7893 2.8842l7.5384 1.7661q2.3367 0.54746 2.8842-1.7893z" clip-path="url(#a)" fill="#fff" stroke="#fff"/>
<g clip-path="url(#a)">
<defs>
<path id="l" d="m-0.29688 72.906h61.672v-8.3125h-25.875v-64.594h-9.9062v64.594h-25.891z"/>
<path id="c" d="m56.203 29.594v-4.3906h-41.312q0.59375-9.2812 5.5938-14.141t13.938-4.8594q5.1719 0 10.031 1.2656t9.6562 3.8125v-8.5q-4.8438-2.0469-9.9219-3.125t-10.297-1.0781q-13.094 0-20.734 7.6094-7.6406 7.625-7.6406 20.625 0 13.422 7.25 21.297 7.25 7.8906 19.562 7.8906 11.031 0 17.453-7.1094 6.4219-7.0938 6.4219-19.297zm-8.9844 2.6406q-0.09375 7.3594-4.125 11.75-4.0312 4.4062-10.672 4.4062-7.5156 0-12.031-4.25t-5.2031-11.969z"/>
<path id="h" d="m41.109 46.297q-1.5156 0.875-3.2969 1.2812-1.7812 0.42188-3.9219 0.42188-7.625 0-11.703-4.9531t-4.0781-14.234v-28.812h-9.0312v54.688h9.0312v-8.5q2.8438 4.9844 7.375 7.3906 4.5469 2.4219 11.047 2.4219 0.92188 0 2.0469-0.125 1.125-0.10938 2.4844-0.35938z"/>
<path id="j" d="m52 44.188q3.375 6.0625 8.0625 8.9375t11.031 2.875q8.5469 0 13.188-5.9844 4.6406-5.9688 4.6406-17v-33.016h-9.0312v32.719q0 7.8594-2.7969 11.656-2.7812 3.8125-8.4844 3.8125-6.9844 0-11.047-4.6406-4.0469-4.625-4.0469-12.641v-30.906h-9.0312v32.719q0 7.9062-2.7812 11.688t-8.5938 3.7812q-6.8906 0-10.953-4.6562-4.0469-4.6562-4.0469-12.625v-30.906h-9.0312v54.688h9.0312v-8.5q3.0781 5.0312 7.375 7.4219t10.203 2.3906q5.9688 0 10.141-3.0312 4.1719-3.0156 6.1719-8.7812z"/>
<path id="f" d="m9.4219 54.688h8.9844v-54.688h-8.9844zm0 21.297h8.9844v-11.391h-8.9844z"/>
<path id="e" d="m54.891 33.016v-33.016h-8.9844v32.719q0 7.7656-3.0312 11.609-3.0312 3.8594-9.0781 3.8594-7.2812 0-11.484-4.6406-4.2031-4.625-4.2031-12.641v-30.906h-9.0312v54.688h9.0312v-8.5q3.2344 4.9375 7.5938 7.375 4.375 2.4375 10.094 2.4375 9.4219 0 14.25-5.8281 4.8438-5.8281 4.8438-17.156z"/>
<path id="i" d="m34.281 27.484q-10.891 0-15.094-2.4844t-4.2031-8.5q0-4.7812 3.1562-7.5938 3.1562-2.7969 8.5625-2.7969 7.4844 0 12 5.2969t4.5156 14.078v2zm17.922 3.7188v-31.203h-8.9844v8.2969q-3.0781-4.9688-7.6719-7.3438t-11.234-2.375q-8.3906 0-13.359 4.7188-4.9531 4.7188-4.9531 12.625 0 9.2188 6.1719 13.906 6.1875 4.6875 18.438 4.6875h12.609v0.89062q0 6.2031-4.0781 9.5938t-11.453 3.3906q-4.6875 0-9.1406-1.125-4.4375-1.125-8.5312-3.375v8.3125q4.9219 1.9062 9.5625 2.8438 4.6406 0.95312 9.0312 0.95312 11.875 0 17.734-6.1562 5.8594-6.1406 5.8594-18.641z"/>
<path id="k" d="m9.4219 75.984h8.9844v-75.984h-8.9844z"/>
</defs>
<g transform="translate(322.21 580.25) rotate(-76.814) scale(.08 -.08)">
<use xlink:href="#l"/>
<use x="44.083984" xlink:href="#c"/>
<use x="105.607422" xlink:href="#h"/>
<use x="144.970703" xlink:href="#j"/>
<use x="242.382812" xlink:href="#f"/>
<use x="270.166016" xlink:href="#e"/>
<use x="333.544922" xlink:href="#i"/>
<use x="394.824219" xlink:href="#k"/>
</g>
</g>
<path d="m336.27 548.26 7.7118 32.916q0.54746 2.3367 2.8842 1.7893l7.5384-1.7661q2.3367-0.54746 1.7893-2.8842l-7.7118-32.916q-0.54746-2.3367-2.8842-1.7893l-7.5384 1.7661q-2.3367 0.54746-1.7893 2.8842z" clip-path="url(#a)" fill="#fff" stroke="#fff"/>
<g clip-path="url(#a)">
<g transform="translate(340.22 547.33) rotate(76.814) scale(.08 -.08)">
<use xlink:href="#l"/>
<use x="44.083984" xlink:href="#c"/>
<use x="105.607422" xlink:href="#h"/>
<use x="144.970703" xlink:href="#j"/>
<use x="242.382812" xlink:href="#f"/>
<use x="270.166016" xlink:href="#e"/>
<use x="333.544922" xlink:href="#i"/>
<use x="394.824219" xlink:href="#k"/>
</g>
</g>
<path d="m399.18 546.38v33.808q0 2.4 2.4 2.4h7.7425q2.4 0 2.4-2.4v-33.808q0-2.4-2.4-2.4h-7.7425q-2.4 0-2.4 2.4z" clip-path="url(#a)" fill="#fff" stroke="#fff"/>
<g clip-path="url(#a)">
<g transform="translate(403.24 546.38) rotate(90) scale(.08 -.08)">
<use xlink:href="#l"/>
<use x="44.083984" xlink:href="#c"/>
<use x="105.607422" xlink:href="#h"/>
<use x="144.970703" xlink:href="#j"/>
<use x="242.382812" xlink:href="#f"/>
<use x="270.166016" xlink:href="#e"/>
<use x="333.544922" xlink:href="#i"/>
<use x="394.824219" xlink:href="#k"/>
</g>
</g>
<path d="m523.09 375.13 2.1623-5.121q0.93356-2.211-1.2774-3.1445l-7.1327-3.0117q-2.211-0.93356-3.1445 1.2774l-2.1623 5.121q-0.93356 2.211 1.2774 3.1445l7.1327 3.0117q2.211 0.93356 3.1445-1.2774z" clip-path="url(#a)" fill="#fff" stroke="#fff"/>
<g clip-path="url(#a)">
<defs>
<path id="u" d="m44.391 34.188q3.1719-1.0781 6.1719-4.5938t6.0312-9.6719l10.016-19.922h-10.609l-9.3125 18.703q-3.625 7.3281-7.0156 9.7188t-9.25 2.3906h-10.75v-30.812h-9.8594v72.906h22.266q12.5 0 18.656-5.2344 6.1562-5.2188 6.1562-15.766 0-6.8906-3.2031-11.438-3.2031-4.5312-9.2969-6.2812zm-24.719 30.609v-25.875h12.406q7.125 0 10.766 3.2969t3.6406 9.6875-3.6406 9.6406-10.766 3.25z"/>
</defs>
<g transform="translate(519.34 373.55) rotate(-67.109) scale(.08 -.08)">
<use xlink:href="#u"/>
</g>
</g>
<path d="m551.33 374.28 1.2703-5.4399q0.54575-2.3371-1.7914-2.8829l-7.5397-1.7606q-2.3371-0.54575-2.8829 1.7914l-1.2703 5.4399q-0.54575 2.3371 1.7914 2.8829l7.5397 1.7606q2.3371 0.54575 2.8829-1.7914z" clip-path="url(#a)" fill="#fff" stroke="#fff"/>
<g clip-path="url(#a)">
<g transform="translate(547.37 373.35) rotate(-76.856) scale(.08 -.08)">
<use xlink:href="#v"/>
</g>
</g>
<path d="m675.06 277.84 4.5467 2.2093q2.1587 1.0489 3.2076-1.1097l3.3838-6.9639q1.0489-2.1587-1.1097-3.2076l-4.5467-2.2093q-2.1587-1.0489-3.2076 1.1097l-3.3838 6.9639q-1.0489 2.1587 1.1097 3.2076z" clip-path="url(#a)" fill="#fff" stroke="#fff"/>
<g clip-path="url(#a)">
<g transform="translate(676.84 274.19) rotate(25.916) scale(.08 -.08)">
<use xlink:href="#aa"/>
</g>
</g>
<path d="m581.21 373.26 0.1931-5.8518q0.079152-2.3987-2.3195-2.4778l-7.7383-0.25535q-2.3987-0.079152-2.4778 2.3195l-0.1931 5.8518q-0.079152 2.3987 2.3195 2.4778l7.7383 0.25535q2.3987 0.079152 2.4778-2.3195z" clip-path="url(#a)" fill="#fff" stroke="#fff"/>
<g clip-path="url(#a)">
<g transform="translate(577.15 373.13) rotate(-88.11) scale(.08 -.08)">
<use xlink:href="#w"/>
</g>
</g>
<path d="m450.67 546.38v33.808q0 2.4 2.4 2.4h7.7425q2.4 0 2.4-2.4v-33.808q0-2.4-2.4-2.4h-7.7425q-2.4 0-2.4 2.4z" clip-path="url(#a)" fill="#fff" stroke="#fff"/>
<g clip-path="url(#a)">
<g transform="translate(454.74 546.38) rotate(90) scale(.08 -.08)">
<use xlink:href="#l"/>
<use x="44.083984" xlink:href="#c"/>
<use x="105.607422" xlink:href="#h"/>
<use x="144.970703" xlink:href="#j"/>
<use x="242.382812" xlink:href="#f"/>
<use x="270.166016" xlink:href="#e"/>
<use x="333.544922" xlink:href="#i"/>
<use x="394.824219" xlink:href="#k"/>
</g>
</g>
<path d="m505.6 546.38v33.808q0 2.4 2.4 2.4h7.7425q2.4 0 2.4-2.4v-33.808q0-2.4-2.4-2.4h-7.7425q-2.4 0-2.4 2.4z" clip-path="url(#a)" fill="#fff" stroke="#fff"/>
<g clip-path="url(#a)">
<g transform="translate(509.67 546.38) rotate(90) scale(.08 -.08)">
<use xlink:href="#l"/>
<use x="44.083984" xlink:href="#c"/>
<use x="105.607422" xlink:href="#h"/>
<use x="144.970703" xlink:href="#j"/>
<use x="242.382812" xlink:href="#f"/>
<use x="270.166016" xlink:href="#e"/>
<use x="333.544922" xlink:href="#i"/>
<use x="394.824219" xlink:href="#k"/>
</g>
</g>
<path d="m709.46 424.85 3.3794-4.4135q1.4591-1.9056-0.4465-3.3646l-6.1474-4.707q-1.9056-1.4591-3.3646 0.4465l-3.3794 4.4135q-1.4591 1.9056 0.4465 3.3646l6.1474 4.707q1.9056 1.4591 3.3646-0.4465z" clip-path="url(#a)" fill="#fff" stroke="#fff"/>
<g clip-path="url(#a)">
<g transform="translate(706.23 422.38) rotate(-52.559) scale(.08 -.08)">
<use xlink:href="#u"/>
</g>
</g>
<path d="m743.47 423.82 2.1569-5.0295q0.94593-2.2057-1.2598-3.1517l-7.1158-3.0516q-2.2057-0.94593-3.1517 1.2598l-2.1569 5.0295q-0.94593 2.2057 1.2598 3.1517l7.1158 3.0516q2.2057 0.94593 3.1517-1.2598z" clip-path="url(#a)" fill="#fff" stroke="#fff"/>
<g clip-path="url(#a)">
<g transform="translate(739.73 422.22) rotate(-66.788) scale(.08 -.08)">
<use xlink:href="#p"/>
</g>
</g>
<path d="m802.95 371.46 2.837 4.6797q1.2442 2.0523 3.2965 0.80813l6.6209-4.0138q2.0523-1.2442 0.80813-3.2965l-2.837-4.6797q-1.2442-2.0523-3.2965-0.80813l-6.6209 4.0138q-2.0523 1.2442-0.80813 3.2965z" clip-path="url(#a)" fill="#fff" stroke="#fff"/>
<g clip-path="url(#a)">
<g transform="translate(806.43 369.35) rotate(58.774) scale(.08 -.08)">
<use xlink:href="#p"/>
</g>
</g>
<path d="m880.4 421.84 3.5631 3.2516q1.7728 1.6178 3.3906-0.15494l5.2192-5.719q1.6178-1.7728-0.15494-3.3906l-3.5631-3.2516q-1.7728-1.6178-3.3906 0.15494l-5.2192 5.719q-1.6178 1.7728 0.15494 3.3906z" clip-path="url(#a)" fill="#fff" stroke="#fff"/>
<g clip-path="url(#a)">
<defs>
<path id="ak" d="m19.672 64.797v-27.391h12.406q6.8906 0 10.641 3.5625 3.7656 3.5625 3.7656 10.156 0 6.5469-3.7656 10.109-3.75 3.5625-10.641 3.5625zm-9.8594 8.1094h22.266q12.266 0 18.531-5.5469 6.2812-5.5469 6.2812-16.234 0-10.797-6.2812-16.312-6.2656-5.5156-18.531-5.5156h-12.406v-29.297h-9.8594z"/>
</defs>
<g transform="translate(883.14 418.84) rotate(42.384) scale(.08 -.08)">
<use xlink:href="#ak"/>
</g>
</g>
<path d="m922.24 422.81 3.8449 2.5275q2.0055 1.3183 3.3238-0.68717l4.253-6.4698q1.3183-2.0055-0.68717-3.3238l-3.8449-2.5275q-2.0055-1.3183-3.3238 0.68717l-4.253 6.4698q-1.3183 2.0055 0.68717 3.3238z" clip-path="url(#a)" fill="#fff" stroke="#fff"/>
<g clip-path="url(#a)">
<g transform="translate(924.47 419.42) rotate(33.319) scale(.08 -.08)">
<use xlink:href="#z"/>
</g>
</g>
<path d="m421.94 425.6 5.2821-1.4311q2.3165-0.62763 1.6888-2.9441l-2.0248-7.4731q-0.62763-2.3165-2.9441-1.6888l-5.2821 1.4311q-2.3165 0.62763-1.6888 2.9441l2.0248 7.4731q0.62763 2.3165 2.9441 1.6888z" clip-path="url(#a)" fill="#fff" stroke="#fff"/>
<g clip-path="url(#a)">
<g transform="translate(420.88 421.68) rotate(-15.16) scale(.08 -.08)">
<use xlink:href="#p"/>
</g>
</g>
<path d="m965.06 423.1 5.2178 2.6561q2.1388 1.0888 3.2276-1.0501l3.5124-6.8999q1.0888-2.1388-1.0501-3.2276l-5.2178-2.6561q-2.1388-1.0888-3.2276 1.0501l-3.5124 6.8999q-1.0888 2.1388 1.0501 3.2276z" clip-path="url(#a)" fill="#fff" stroke="#fff"/>
<g clip-path="url(#a)">
<g transform="translate(966.91 419.47) rotate(26.978) scale(.08 -.08)">
<use xlink:href="#w"/>
</g>
</g>
<path d="m625.76 546.38v33.808q0 2.4 2.4 2.4h7.7425q2.4 0 2.4-2.4v-33.808q0-2.4-2.4-2.4h-7.7425q-2.4 0-2.4 2.4z" clip-path="url(#a)" fill="#fff" stroke="#fff"/>
<g clip-path="url(#a)">
<g transform="translate(629.82 546.38) rotate(90) scale(.08 -.08)">
<use xlink:href="#l"/>
<use x="44.083984" xlink:href="#c"/>
<use x="105.607422" xlink:href="#h"/>
<use x="144.970703" xlink:href="#j"/>
<use x="242.382812" xlink:href="#f"/>
<use x="270.166016" xlink:href="#e"/>
<use x="333.544922" xlink:href="#i"/>
<use x="394.824219" xlink:href="#k"/>
</g>
</g>
<path d="m690.99 546.38v33.808q0 2.4 2.4 2.4h7.7425q2.4 0 2.4-2.4v-33.808q0-2.4-2.4-2.4h-7.7425q-2.4 0-2.4 2.4z" clip-path="url(#a)" fill="#fff" stroke="#fff"/>
<g clip-path="url(#a)">
<g transform="translate(695.05 546.38) rotate(90) scale(.08 -.08)">
<use xlink:href="#l"/>
<use x="44.083984" xlink:href="#c"/>
<use x="105.607422" xlink:href="#h"/>
<use x="144.970703" xlink:href="#j"/>
<use x="242.382812" xlink:href="#f"/>
<use x="270.166016" xlink:href="#e"/>
<use x="333.544922" xlink:href="#i"/>
<use x="394.824219" xlink:href="#k"/>
</g>
</g>
<path d="m805.86 473.38 3.359-4.4291q1.4502-1.9123-0.46204-3.3625l-6.1691-4.6785q-1.9123-1.4502-3.3625 0.46204l-3.359 4.4291q-1.4502 1.9123 0.46204 3.3625l6.1691 4.6785q1.9123 1.4502 3.3625-0.46204z" clip-path="url(#a)" fill="#fff" stroke="#fff"/>
<g clip-path="url(#a)">
<g transform="translate(802.62 470.92) rotate(-52.824) scale(.08 -.08)">
<use xlink:href="#u"/>
</g>
</g>
<path d="m844.83 469.98 0.059896-5.0546q0.028437-2.3998-2.3714-2.4283l-7.742-0.09174q-2.3998-0.028437-2.4283 2.3714l-0.059896 5.0546q-0.028437 2.3998 2.3714 2.4283l7.742 0.091741q2.3998 0.028437 2.4283-2.3714z" clip-path="url(#a)" fill="#fff" stroke="#fff"/>
<g clip-path="url(#a)">
<g transform="translate(840.77 469.93) rotate(-89.321) scale(.08 -.08)">
<use xlink:href="#aa"/>
</g>
</g>
<path d="m869.68 468.99 3.4088 4.4256q1.4645 1.9014 3.3659 0.43687l6.1339-4.7246q1.9014-1.4645 0.43687-3.3659l-3.4088-4.4256q-1.4645-1.9014-3.3659-0.43687l-6.1339 4.7246q-1.9014 1.4645-0.43687 3.3659z" clip-path="url(#a)" fill="#fff" stroke="#fff"/>
<g clip-path="url(#a)">
<g transform="translate(872.9 466.51) rotate(52.395) scale(.08 -.08)">
<use xlink:href="#v"/>
</g>
</g>
<path d="m986.23 546.38v33.808q0 2.4 2.4 2.4h7.7425q2.4 0 2.4-2.4v-33.808q0-2.4-2.4-2.4h-7.7425q-2.4 0-2.4 2.4z" clip-path="url(#a)" fill="#fff" stroke="#fff"/>
<g clip-path="url(#a)">
<g transform="translate(990.3 546.38) rotate(90) scale(.08 -.08)">
<use xlink:href="#l"/>
<use x="44.083984" xlink:href="#c"/>
<use x="105.607422" xlink:href="#h"/>
<use x="144.970703" xlink:href="#j"/>
<use x="242.382812" xlink:href="#f"/>
<use x="270.166016" xlink:href="#e"/>
<use x="333.544922" xlink:href="#i"/>
<use x="394.824219" xlink:href="#k"/>
</g>
</g>
<path d="m1068.6 546.38v33.808q0 2.4 2.4 2.4h7.7425q2.4 0 2.4-2.4v-33.808q0-2.4-2.4-2.4h-7.7425q-2.4 0-2.4 2.4z" clip-path="url(#a)" fill="#fff" stroke="#fff"/>
<g clip-path="url(#a)">
<g transform="translate(1072.7 546.38) rotate(90) scale(.08 -.08)">
<use xlink:href="#l"/>
<use x="44.083984" xlink:href="#c"/>
<use x="105.607422" xlink:href="#h"/>
<use x="144.970703" xlink:href="#j"/>
<use x="242.382812" xlink:href="#f"/>
<use x="270.166016" xlink:href="#e"/>
<use x="333.544922" xlink:href="#i"/>
<use x="394.824219" xlink:href="#k"/>
</g>
</g>
<path d="m759.65 546.38v33.808q0 2.4 2.4 2.4h7.7425q2.4 0 2.4-2.4v-33.808q0-2.4-2.4-2.4h-7.7425q-2.4 0-2.4 2.4z" clip-path="url(#a)" fill="#fff" stroke="#fff"/>
<g clip-path="url(#a)">
<g transform="translate(763.71 546.38) rotate(90) scale(.08 -.08)">
<use xlink:href="#l"/>
<use x="44.083984" xlink:href="#c"/>
<use x="105.607422" xlink:href="#h"/>
<use x="144.970703" xlink:href="#j"/>
<use x="242.382812" xlink:href="#f"/>
<use x="270.166016" xlink:href="#e"/>
<use x="333.544922" xlink:href="#i"/>
<use x="394.824219" xlink:href="#k"/>
</g>
</g>
<path d="m831.75 546.38v33.808q0 2.4 2.4 2.4h7.7425q2.4 0 2.4-2.4v-33.808q0-2.4-2.4-2.4h-7.7425q-2.4 0-2.4 2.4z" clip-path="url(#a)" fill="#fff" stroke="#fff"/>
<g clip-path="url(#a)">
<g transform="translate(835.81 546.38) rotate(90) scale(.08 -.08)">
<use xlink:href="#l"/>
<use x="44.083984" xlink:href="#c"/>
<use x="105.607422" xlink:href="#h"/>
<use x="144.970703" xlink:href="#j"/>
<use x="242.382812" xlink:href="#f"/>
<use x="270.166016" xlink:href="#e"/>
<use x="333.544922" xlink:href="#i"/>
<use x="394.824219" xlink:href="#k"/>
</g>
</g>
<path d="m907.27 546.38v33.808q0 2.4 2.4 2.4h7.7425q2.4 0 2.4-2.4v-33.808q0-2.4-2.4-2.4h-7.7425q-2.4 0-2.4 2.4z" clip-path="url(#a)" fill="#fff" stroke="#fff"/>
<g clip-path="url(#a)">
<g transform="translate(911.34 546.38) rotate(90) scale(.08 -.08)">
<use xlink:href="#l"/>
<use x="44.083984" xlink:href="#c"/>
<use x="105.607422" xlink:href="#h"/>
<use x="144.970703" xlink:href="#j"/>
<use x="242.382812" xlink:href="#f"/>
<use x="270.166016" xlink:href="#e"/>
<use x="333.544922" xlink:href="#i"/>
<use x="394.824219" xlink:href="#k"/>
</g>
</g>
<path d="m49.001 546.38v33.808q0 2.4 2.4 2.4h7.7425q2.4 0 2.4-2.4v-33.808q0-2.4-2.4-2.4h-7.7425q-2.4 0-2.4 2.4z" clip-path="url(#a)" fill="#fff" stroke="#fff"/>
<g clip-path="url(#a)">
<g transform="translate(53.065 546.38) rotate(90) scale(.08 -.08)">
<use xlink:href="#l"/>
<use x="44.083984" xlink:href="#c"/>
<use x="105.607422" xlink:href="#h"/>
<use x="144.970703" xlink:href="#j"/>
<use x="242.382812" xlink:href="#f"/>
<use x="270.166016" xlink:href="#e"/>
<use x="333.544922" xlink:href="#i"/>
<use x="394.824219" xlink:href="#k"/>
</g>
</g>
<path d="m59.301 546.38v33.808q0 2.4 2.4 2.4h7.7425q2.4 0 2.4-2.4v-33.808q0-2.4-2.4-2.4h-7.7425q-2.4 0-2.4 2.4z" clip-path="url(#a)" fill="#fff" stroke="#fff"/>
<g clip-path="url(#a)">
<g transform="translate(63.364 546.38) rotate(90) scale(.08 -.08)">
<use xlink:href="#l"/>
<use x="44.083984" xlink:href="#c"/>
<use x="105.607422" xlink:href="#h"/>
<use x="144.970703" xlink:href="#j"/>
<use x="242.382812" xlink:href="#f"/>
<use x="270.166016" xlink:href="#e"/>
<use x="333.544922" xlink:href="#i"/>
<use x="394.824219" xlink:href="#k"/>
</g>
</g>
<path d="m107.5 423.63 1.9557-5.1111q0.85768-2.2415-1.3838-3.0992l-7.2312-2.7669q-2.2415-0.85768-3.0992 1.3838l-1.9557 5.1111q-0.85768 2.2415 1.3838 3.0992l7.2312 2.7669q2.2415 0.85768 3.0992-1.3838z" clip-path="url(#a)" fill="#fff" stroke="#fff"/>
<g clip-path="url(#a)">
<g transform="translate(103.7 422.18) rotate(-69.062) scale(.08 -.08)">
<use xlink:href="#p"/>
</g>
</g>
<path d="m123.59 422.91 1.2103-5.4254q0.52255-2.3424-1.8199-2.865l-7.5568-1.6858q-2.3424-0.52254-2.865 1.8199l-1.2103 5.4254q-0.52255 2.3424 1.8199 2.865l7.5568 1.6858q2.3424 0.52255 2.865-1.8199z" clip-path="url(#a)" fill="#fff" stroke="#fff"/>
<g clip-path="url(#a)">
<g transform="translate(119.62 422.03) rotate(-77.424) scale(.08 -.08)">
<use xlink:href="#u"/>
</g>
</g>
<path d="m134.28 422.28 0.63439-5.4356q0.27822-2.3838-2.1056-2.662l-7.6903-0.89754q-2.3838-0.27822-2.662 2.1056l-0.63439 5.4356q-0.27822 2.3838 2.1056 2.662l7.6903 0.89754q2.3838 0.27822 2.662-2.1056z" clip-path="url(#a)" fill="#fff" stroke="#fff"/>
<g clip-path="url(#a)">
<g transform="translate(130.24 421.81) rotate(-83.343) scale(.08 -.08)">
<use xlink:href="#p"/>
</g>
</g>
<path d="m134.09 415.8 0.045501 6.1598q0.017728 2.3999 2.4177 2.3822l7.7423-0.05719q2.3999-0.017728 2.3822-2.4177l-0.045501-6.1598q-0.017728-2.3999-2.4177-2.3822l-7.7423 0.05719q-2.3999 0.017727-2.3822 2.4177z" clip-path="url(#a)" fill="#fff" stroke="#fff"/>
<g clip-path="url(#a)">
<g transform="translate(138.15 415.77) rotate(89.577) scale(.08 -.08)">
<use xlink:href="#ab"/>
</g>
</g>
<path d="m155 370.67 2.2738 4.9778q0.99717 2.183 3.1802 1.1859l7.0426-3.2169q2.183-0.99717 1.1859-3.1802l-2.2738-4.9778q-0.99717-2.183-3.1802-1.1859l-7.0426 3.2169q-2.183 0.99717-1.1859 3.1802z" clip-path="url(#a)" fill="#fff" stroke="#fff"/>
<g clip-path="url(#a)">
<g transform="translate(158.7 368.98) rotate(65.45) scale(.08 -.08)">
<use xlink:href="#p"/>
</g>
</g>
<path d="m180.04 419.41 2.1087 4.3384q1.0492 2.1585 3.2077 1.1094l6.9635-3.3846q2.1585-1.0491 1.1094-3.2077l-2.1087-4.3384q-1.0492-2.1585-3.2077-1.1094l-6.9635 3.3846q-2.1585 1.0492-1.1094 3.2077z" clip-path="url(#a)" fill="#fff" stroke="#fff"/>
<g clip-path="url(#a)">
<g transform="translate(183.69 417.63) rotate(64.078) scale(.08 -.08)">
<use xlink:href="#ak"/>
</g>
</g>
<path d="m90.199 546.38v33.808q0 2.4 2.4 2.4h7.7425q2.4 0 2.4-2.4v-33.808q0-2.4-2.4-2.4h-7.7425q-2.4 0-2.4 2.4z" clip-path="url(#a)" fill="#fff" stroke="#fff"/>
<g clip-path="url(#a)">
<g transform="translate(94.262 546.38) rotate(90) scale(.08 -.08)">
<use xlink:href="#l"/>
<use x="44.083984" xlink:href="#c"/>
<use x="105.607422" xlink:href="#h"/>
<use x="144.970703" xlink:href="#j"/>
<use x="242.382812" xlink:href="#f"/>
<use x="270.166016" xlink:href="#e"/>
<use x="333.544922" xlink:href="#i"/>
<use x="394.824219" xlink:href="#k"/>
</g>
</g>
<path d="m110.8 546.38v33.808q0 2.4 2.4 2.4h7.7425q2.4 0 2.4-2.4v-33.808q0-2.4-2.4-2.4h-7.7425q-2.4 0-2.4 2.4z" clip-path="url(#a)" fill="#fff" stroke="#fff"/>
<g clip-path="url(#a)">
<g transform="translate(114.86 546.38) rotate(90) scale(.08 -.08)">
<use xlink:href="#l"/>
<use x="44.083984" xlink:href="#c"/>
<use x="105.607422" xlink:href="#h"/>
<use x="144.970703" xlink:href="#j"/>
<use x="242.382812" xlink:href="#f"/>
<use x="270.166016" xlink:href="#e"/>
<use x="333.544922" xlink:href="#i"/>
<use x="394.824219" xlink:href="#k"/>
</g>
</g>
<path d="m134.83 546.38v33.808q0 2.4 2.4 2.4h7.7425q2.4 0 2.4-2.4v-33.808q0-2.4-2.4-2.4h-7.7425q-2.4 0-2.4 2.4z" clip-path="url(#a)" fill="#fff" stroke="#fff"/>
<g clip-path="url(#a)">
<g transform="translate(138.89 546.38) rotate(90) scale(.08 -.08)">
<use xlink:href="#l"/>
<use x="44.083984" xlink:href="#c"/>
<use x="105.607422" xlink:href="#h"/>
<use x="144.970703" xlink:href="#j"/>
<use x="242.382812" xlink:href="#f"/>
<use x="270.166016" xlink:href="#e"/>
<use x="333.544922" xlink:href="#i"/>
<use x="394.824219" xlink:href="#k"/>
</g>
</g>
<path d="m182.04 471.11 0.87808-5.489q0.37911-2.3699-1.9908-2.749l-7.6453-1.223q-2.3699-0.37911-2.749 1.9908l-0.87808 5.489q-0.37911 2.3699 1.9908 2.749l7.6453 1.223q2.3699 0.37911 2.749-1.9908z" clip-path="url(#a)" fill="#fff" stroke="#fff"/>
<g clip-path="url(#a)">
<g transform="translate(178.03 470.47) rotate(-80.911) scale(.08 -.08)">
<use xlink:href="#u"/>
</g>
</g>
<path d="m185.1 465.61 0.88242 5.5161q0.37911 2.3699 2.749 1.9908l7.6453-1.223q2.3699-0.37911 1.9908-2.749l-0.88242-5.5161q-0.37911-2.3699-2.749-1.9908l-7.6453 1.223q-2.3699 0.37911-1.9908 2.749z" clip-path="url(#a)" fill="#fff" stroke="#fff"/>
<g clip-path="url(#a)">
<g transform="translate(189.12 464.97) rotate(80.911) scale(.08 -.08)">
<use xlink:href="#v"/>
</g>
</g>
<path d="m227.52 546.38v33.808q0 2.4 2.4 2.4h7.7425q2.4 0 2.4-2.4v-33.808q0-2.4-2.4-2.4h-7.7425q-2.4 0-2.4 2.4z" clip-path="url(#a)" fill="#fff" stroke="#fff"/>
<g clip-path="url(#a)">
<g transform="translate(231.59 546.38) rotate(90) scale(.08 -.08)">
<use xlink:href="#l"/>
<use x="44.083984" xlink:href="#c"/>
<use x="105.607422" xlink:href="#h"/>
<use x="144.970703" xlink:href="#j"/>
<use x="242.382812" xlink:href="#f"/>
<use x="270.166016" xlink:href="#e"/>
<use x="333.544922" xlink:href="#i"/>
<use x="394.824219" xlink:href="#k"/>
</g>
</g>
<path d="m162.29 546.38v33.808q0 2.4 2.4 2.4h7.7425q2.4 0 2.4-2.4v-33.808q0-2.4-2.4-2.4h-7.7425q-2.4 0-2.4 2.4z" clip-path="url(#a)" fill="#fff" stroke="#fff"/>
<g clip-path="url(#a)">
<g transform="translate(166.36 546.38) rotate(90) scale(.08 -.08)">
<use xlink:href="#l"/>
<use x="44.083984" xlink:href="#c"/>
<use x="105.607422" xlink:href="#h"/>
<use x="144.970703" xlink:href="#j"/>
<use x="242.382812" xlink:href="#f"/>
<use x="270.166016" xlink:href="#e"/>
<use x="333.544922" xlink:href="#i"/>
<use x="394.824219" xlink:href="#k"/>
</g>
</g>
<path d="m193.19 546.38v33.808q0 2.4 2.4 2.4h7.7425q2.4 0 2.4-2.4v-33.808q0-2.4-2.4-2.4h-7.7425q-2.4 0-2.4 2.4z" clip-path="url(#a)" fill="#fff" stroke="#fff"/>
<g clip-path="url(#a)">
<g transform="translate(197.25 546.38) rotate(90) scale(.08 -.08)">
<use xlink:href="#l"/>
<use x="44.083984" xlink:href="#c"/>
<use x="105.607422" xlink:href="#h"/>
<use x="144.970703" xlink:href="#j"/>
<use x="242.382812" xlink:href="#f"/>
<use x="270.166016" xlink:href="#e"/>
<use x="333.544922" xlink:href="#i"/>
<use x="394.824219" xlink:href="#k"/>
</g>
</g>
<path d="m73.033 546.38v33.808q0 2.4 2.4 2.4h7.7425q2.4 0 2.4-2.4v-33.808q0-2.4-2.4-2.4h-7.7425q-2.4 0-2.4 2.4z" clip-path="url(#a)" fill="#fff" stroke="#fff"/>
<g clip-path="url(#a)">
<g transform="translate(77.097 546.38) rotate(90) scale(.08 -.08)">
<use xlink:href="#l"/>
<use x="44.083984" xlink:href="#c"/>
<use x="105.607422" xlink:href="#h"/>
<use x="144.970703" xlink:href="#j"/>
<use x="242.382812" xlink:href="#f"/>
<use x="270.166016" xlink:href="#e"/>
<use x="333.544922" xlink:href="#i"/>
<use x="394.824219" xlink:href="#k"/>
</g>
</g>
<path d="m265.29 546.38v33.808q0 2.4 2.4 2.4h7.7425q2.4 0 2.4-2.4v-33.808q0-2.4-2.4-2.4h-7.7425q-2.4 0-2.4 2.4z" clip-path="url(#a)" fill="#fff" stroke="#fff"/>
<g clip-path="url(#a)">
<g transform="translate(269.35 546.38) rotate(90) scale(.08 -.08)">
<use xlink:href="#l"/>
<use x="44.083984" xlink:href="#c"/>
<use x="105.607422" xlink:href="#h"/>
<use x="144.970703" xlink:href="#j"/>
<use x="242.382812" xlink:href="#f"/>
<use x="270.166016" xlink:href="#e"/>
<use x="333.544922" xlink:href="#i"/>
<use x="394.824219" xlink:href="#k"/>
</g>
</g>
<path d="m563.96 546.38v33.808q0 2.4 2.4 2.4h7.7425q2.4 0 2.4-2.4v-33.808q0-2.4-2.4-2.4h-7.7425q-2.4 0-2.4 2.4z" clip-path="url(#a)" fill="#fff" stroke="#fff"/>
<g clip-path="url(#a)">
<g transform="translate(568.03 546.38) rotate(90) scale(.08 -.08)">
<use xlink:href="#l"/>
<use x="44.083984" xlink:href="#c"/>
<use x="105.607422" xlink:href="#h"/>
<use x="144.970703" xlink:href="#j"/>
<use x="242.382812" xlink:href="#f"/>
<use x="270.166016" xlink:href="#e"/>
<use x="333.544922" xlink:href="#i"/>
<use x="394.824219" xlink:href="#k"/>
</g>
</g>
<path d="m1154.5 546.38v33.808q0 2.4 2.4 2.4h7.7425q2.4 0 2.4-2.4v-33.808q0-2.4-2.4-2.4h-7.7425q-2.4 0-2.4 2.4z" clip-path="url(#a)" fill="#fff" stroke="#fff"/>
<g clip-path="url(#a)">
<g transform="translate(1158.5 546.38) rotate(90) scale(.08 -.08)">
<use xlink:href="#l"/>
<use x="44.083984" xlink:href="#c"/>
<use x="105.607422" xlink:href="#h"/>
<use x="144.970703" xlink:href="#j"/>
<use x="242.382812" xlink:href="#f"/>
<use x="270.166016" xlink:href="#e"/>
<use x="333.544922" xlink:href="#i"/>
<use x="394.824219" xlink:href="#k"/>
</g>
</g>
<defs>
<path id="b" d="m0 8.6603c2.2967 0 4.4997-0.9125 6.1237-2.5365 1.624-1.624 2.5365-3.827 2.5365-6.1237s-0.9125-4.4997-2.5365-6.1237c-1.624-1.624-3.827-2.5365-6.1237-2.5365s-4.4997 0.9125-6.1237 2.5365c-1.624 1.624-2.5365 3.827-2.5365 6.1237s0.9125 4.4997 2.5365 6.1237c1.624 1.624 3.827 2.5365 6.1237 2.5365z"/>
</defs>
<g clip-path="url(#a)" fill="#ffffff" stroke="#ffffff">
<use x="55.272727" y="610.909091" xlink:href="#b"/>
<use x="65.571993" y="610.909091" xlink:href="#b"/>
<use x="79.304348" y="610.909091" xlink:href="#b"/>
<use x="96.469791" y="610.909091" xlink:href="#b"/>
<use x="117.068323" y="610.909091" xlink:href="#b"/>
<use x="141.099944" y="610.909091" xlink:href="#b"/>
<use x="168.564653" y="610.909091" xlink:href="#b"/>
<use x="199.462451" y="610.909091" xlink:href="#b"/>
<use x="233.793337" y="610.909091" xlink:href="#b"/>
<use x="271.557312" y="610.909091" xlink:href="#b"/>
<use x="312.754376" y="610.909091" xlink:href="#b"/>
<use x="357.384529" y="610.909091" xlink:href="#b"/>
<use x="405.44777" y="610.909091" xlink:href="#b"/>
<use x="456.944099" y="610.909091" xlink:href="#b"/>
<use x="511.873518" y="610.909091" xlink:href="#b"/>
<use x="570.236025" y="610.909091" xlink:href="#b"/>
<use x="632.031621" y="610.909091" xlink:href="#b"/>
<use x="697.260305" y="610.909091" xlink:href="#b"/>
<use x="765.922078" y="610.909091" xlink:href="#b"/>
<use x="838.01694" y="610.909091" xlink:href="#b"/>
<use x="913.54489" y="610.909091" xlink:href="#b"/>
<use x="992.505929" y="610.909091" xlink:href="#b"/>
<use x="1074.900056" y="610.909091" xlink:href="#b"/>
<use x="1160.727273" y="610.909091" xlink:href="#b"/>
<use x="335.373935" y="29.090909" xlink:href="#b"/>
<use x="335.373935" y="126.943784" xlink:href="#b"/>
<use x="84.95464" y="224.599832" xlink:href="#b"/>
<use x="335.069452" y="515.661385" xlink:href="#b"/>
<use x="405.44777" y="515.661385" xlink:href="#b"/>
<use x="579.840499" y="224.599832" xlink:href="#b"/>
<use x="456.944099" y="515.661385" xlink:href="#b"/>
<use x="511.873518" y="515.661385" xlink:href="#b"/>
<use x="780.308354" y="322.009456" xlink:href="#b"/>
<use x="632.031621" y="515.661385" xlink:href="#b"/>
<use x="697.260305" y="515.661385" xlink:href="#b"/>
<use x="839.161302" y="419.088678" xlink:href="#b"/>
<use x="992.505929" y="515.661385" xlink:href="#b"/>
<use x="1074.900056" y="515.661385" xlink:href="#b"/>
<use x="765.922078" y="515.661385" xlink:href="#b"/>
<use x="838.01694" y="515.661385" xlink:href="#b"/>
<use x="913.54489" y="515.661385" xlink:href="#b"/>
<use x="55.272727" y="515.661385" xlink:href="#b"/>
<use x="65.571993" y="515.661385" xlink:href="#b"/>
<use x="139.66949" y="322.009456" xlink:href="#b"/>
<use x="96.469791" y="515.661385" xlink:href="#b"/>
<use x="117.068323" y="515.661385" xlink:href="#b"/>
<use x="141.099944" y="515.661385" xlink:href="#b"/>
<use x="184.013552" y="419.088678" xlink:href="#b"/>
<use x="233.793337" y="515.661385" xlink:href="#b"/>
<use x="168.564653" y="515.661385" xlink:href="#b"/>
<use x="199.462451" y="515.661385" xlink:href="#b"/>
<use x="79.304348" y="515.661385" xlink:href="#b"/>
<use x="271.557312" y="515.661385" xlink:href="#b"/>
<use x="570.236025" y="515.661385" xlink:href="#b"/>
<use x="1160.727273" y="515.661385" xlink:href="#b"/>
</g>
<g clip-path="url(#a)">
<g transform="translate(46.957 613.67) scale(.1 -.1)">
<use xlink:href="#ab"/>
<use x="77.001953" xlink:href="#f"/>
<use x="104.785156" xlink:href="#c"/>
</g>
</g>
<g clip-path="url(#a)">
<defs>
<path id="q" d="m44.281 53.078v-8.5q-3.7969 1.9531-7.9062 2.9219-4.0938 0.98438-8.5 0.98438-6.6875 0-10.031-2.0469t-3.3438-6.1562q0-3.125 2.3906-4.9062t9.625-3.3906l3.0781-0.6875q9.5625-2.0469 13.594-5.7812t4.0312-10.422q0-7.625-6.0312-12.078-6.0312-4.4375-16.578-4.4375-4.3906 0-9.1562 0.85938t-10.031 2.5625v9.2812q4.9844-2.5938 9.8125-3.8906 4.8281-1.2812 9.5781-1.2812 6.3438 0 9.75 2.1719 3.4219 2.1719 3.4219 6.125 0 3.6562-2.4688 5.6094-2.4531 1.9531-10.812 3.7656l-3.125 0.73438q-8.3438 1.75-12.062 5.3906-3.7031 3.6406-3.7031 9.9844 0 7.7188 5.4688 11.906 5.4688 4.2031 15.531 4.2031 4.9688 0 9.3594-0.73438 4.4062-0.71875 8.1094-2.1875z"/>
<path id="t" d="m48.781 52.594v-8.4062q-3.8125 2.1094-7.6406 3.1562t-7.7344 1.0469q-8.75 0-13.594-5.5469-4.8281-5.5312-4.8281-15.547t4.8281-15.562q4.8438-5.5312 13.594-5.5312 3.9062 0 7.7344 1.0469t7.6406 3.1562v-8.3125q-3.7656-1.75-7.7969-2.625-4.0156-0.89062-8.5625-0.89062-12.359 0-19.641 7.7656-7.2656 7.7656-7.2656 20.953 0 13.375 7.3438 21.031 7.3594 7.6719 20.156 7.6719 4.1406 0 8.0938-0.85938 3.9531-0.84375 7.6719-2.5469z"/>
<path id="s" d="m54.891 33.016v-33.016h-8.9844v32.719q0 7.7656-3.0312 11.609-3.0312 3.8594-9.0781 3.8594-7.2812 0-11.484-4.6406-4.2031-4.625-4.2031-12.641v-30.906h-9.0312v75.984h9.0312v-29.797q3.2344 4.9375 7.5938 7.375 4.375 2.4375 10.094 2.4375 9.4219 0 14.25-5.8281 4.8438-5.8281 4.8438-17.156z"/>
</defs>
<g transform="translate(50.07 613.67) scale(.1 -.1)">
<use xlink:href="#z"/>
<use x="50.269531" xlink:href="#f"/>
<use x="78.052734" xlink:href="#q"/>
<use x="130.152344" xlink:href="#t"/>
<use x="185.132812" xlink:href="#s"/>
<use x="248.511719" xlink:href="#c"/>
</g>
</g>
<g clip-path="url(#a)">
<defs>
<path id="ah" d="m11.719 12.406h10.297v-8.4062l-8-15.625h-6.2969l4 15.625z"/>
</defs>
<g transform="translate(77.715 613.67) scale(.1 -.1)">
<use xlink:href="#ah"/>
</g>
</g>
<g clip-path="url(#a)">
<defs>
<path id="r" d="m45.406 46.391v29.594h8.9844v-75.984h-8.9844v8.2031q-2.8281-4.875-7.1562-7.25-4.3125-2.375-10.375-2.375-9.9062 0-16.141 7.9062-6.2188 7.9219-6.2188 20.812t6.2188 20.797q6.2344 7.9062 16.141 7.9062 6.0625 0 10.375-2.375 4.3281-2.3594 7.1562-7.2344zm-30.609-19.094q0-9.9062 4.0781-15.547t11.203-5.6406 11.219 5.6406q4.1094 5.6406 4.1094 15.547t-4.1094 15.547q-4.0938 5.6406-11.219 5.6406t-11.203-5.6406-4.0781-15.547z"/>
</defs>
<g transform="translate(88.83 613.67) scale(.1 -.1)">
<use xlink:href="#r"/>
<use x="63.476562" xlink:href="#f"/>
<use x="91.259766" xlink:href="#c"/>
</g>
</g>
<g clip-path="url(#a)">
<g transform="translate(109.76 613.67) scale(.1 -.1)">
<use xlink:href="#f"/>
<use x="27.783203" xlink:href="#t"/>
<use x="82.763672" xlink:href="#s"/>
</g>
</g>
<g clip-path="url(#a)">
<defs>
<path id="y" d="m8.5 21.578v33.109h8.9844v-32.766q0-7.7656 3.0156-11.656 3.0312-3.875 9.0938-3.875 7.2656 0 11.484 4.6406 4.2344 4.6406 4.2344 12.656v31h8.9844v-54.688h-8.9844v8.4062q-3.2656-4.9844-7.5938-7.4062-4.3125-2.4219-10.031-2.4219-9.4219 0-14.312 5.8594-4.875 5.8594-4.875 17.141z"/>
<path id="n" d="m18.312 70.219v-15.531h18.5v-6.9844h-18.5v-29.688q0-6.6875 1.8281-8.5938t7.4531-1.9062h9.2188v-7.5156h-9.2188q-10.406 0-14.359 3.875-3.9531 3.8906-3.9531 14.141v29.688h-6.5938v6.9844h6.5938v15.531z"/>
</defs>
<g transform="translate(110.05 613.67) scale(.1 -.1)">
<use xlink:href="#y"/>
<use x="63.378906" xlink:href="#e"/>
<use x="126.757812" xlink:href="#n"/>
<use x="165.966797" xlink:href="#c"/>
<use x="227.490234" xlink:href="#h"/>
<use x="266.853516" xlink:href="#r"/>
<use x="330.330078" xlink:href="#c"/>
<use x="391.853516" xlink:href="#q"/>
<use x="443.953125" xlink:href="#q"/>
<use x="496.052734" xlink:href="#c"/>
<use x="557.576172" xlink:href="#e"/>
</g>
</g>
<g clip-path="url(#a)">
<g transform="translate(160.35 613.67) scale(.1 -.1)">
<use xlink:href="#j"/>
<use x="97.412109" xlink:href="#f"/>
<use x="125.195312" xlink:href="#n"/>
</g>
</g>
<g clip-path="url(#a)">
<defs>
<path id="ai" d="m30.609 48.391q-7.2188 0-11.422-5.6406t-4.2031-15.453 4.1719-15.453q4.1875-5.6406 11.453-5.6406 7.1875 0 11.375 5.6562 4.2031 5.6719 4.2031 15.438 0 9.7188-4.2031 15.406-4.1875 5.6875-11.375 5.6875zm0 7.6094q11.719 0 18.406-7.625 6.7031-7.6094 6.7031-21.078 0-13.422-6.7031-21.078-6.6875-7.6406-18.406-7.6406-11.766 0-18.438 7.6406-6.6562 7.6562-6.6562 21.078 0 13.469 6.6562 21.078 6.6719 7.625 18.438 7.625z"/>
</defs>
<g transform="translate(181.28 613.67) scale(.1 -.1)">
<use xlink:href="#v"/>
<use x="69.824219" xlink:href="#ai"/>
<use x="131.005859" xlink:href="#e"/>
<use x="194.384766" xlink:href="#q"/>
<use x="246.484375" xlink:href="#c"/>
<use x="308.007812" xlink:href="#f"/>
<use x="335.791016" xlink:href="#k"/>
</g>
</g>
<g clip-path="url(#a)">
<defs>
<path id="aj" d="m48.688 27.297q0 9.9062-4.0781 15.547t-11.203 5.6406q-7.1406 0-11.219-5.6406t-4.0781-15.547 4.0781-15.547 11.219-5.6406q7.125 0 11.203 5.6406t4.0781 15.547zm-30.578 19.094q2.8438 4.875 7.1562 7.2344 4.3281 2.375 10.328 2.375 9.9688 0 16.188-7.9062 6.2344-7.9062 6.2344-20.797t-6.2344-20.812q-6.2188-7.9062-16.188-7.9062-6 0-10.328 2.375-4.3125 2.375-7.1562 7.25v-8.2031h-9.0312v75.984h9.0312z"/>
</defs>
<g transform="translate(202.25 613.67) scale(.1 -.1)">
<use xlink:href="#aj"/>
<use x="63.476562" xlink:href="#c"/>
<use x="125" xlink:href="#ai"/>
<use x="186.181641" xlink:href="#aj"/>
<use x="249.658203" xlink:href="#i"/>
<use x="310.9375" xlink:href="#t"/>
<use x="365.917969" xlink:href="#s"/>
<use x="429.296875" xlink:href="#n"/>
<use x="468.505859" xlink:href="#c"/>
<use x="530.029297" xlink:href="#n"/>
<use x="569.238281" xlink:href="#c"/>
</g>
</g>
<g clip-path="url(#a)">
<g transform="translate(269.97 613.67) scale(.1 -.1)">
<use xlink:href="#ah"/>
</g>
</g>
<g clip-path="url(#a)">
<g transform="translate(276.92 613.67) scale(.1 -.1)">
<use xlink:href="#y"/>
<use x="63.378906" xlink:href="#e"/>
<use x="126.757812" xlink:href="#n"/>
<use x="165.966797" xlink:href="#c"/>
<use x="227.490234" xlink:href="#h"/>
<use x="268.603516" xlink:href="#q"/>
<use x="320.703125" xlink:href="#t"/>
<use x="375.683594" xlink:href="#s"/>
<use x="439.0625" xlink:href="#f"/>
<use x="466.845703" xlink:href="#c"/>
<use x="528.369141" xlink:href="#r"/>
<use x="591.845703" xlink:href="#c"/>
<use x="653.369141" xlink:href="#e"/>
</g>
</g>
<g clip-path="url(#a)">
<g transform="translate(347.47 613.67) scale(.1 -.1)">
<use xlink:href="#q"/>
<use x="52.099609" xlink:href="#f"/>
<use x="79.882812" xlink:href="#t"/>
<use x="134.863281" xlink:href="#s"/>
</g>
</g>
<g clip-path="url(#a)">
<defs>
<path id="am" d="m4.2031 54.688h8.9844l11.234-42.672 11.172 42.672h10.594l11.234-42.672 11.188 42.672h8.9844l-14.312-54.688h-10.594l-11.766 44.828-11.812-44.828h-10.609z"/>
<path id="an" d="m45.406 27.984q0 9.7656-4.0312 15.125-4.0156 5.375-11.297 5.375-7.2188 0-11.25-5.375-4.0312-5.3594-4.0312-15.125 0-9.7188 4.0312-15.094t11.25-5.375q7.2812 0 11.297 5.375 4.0312 5.375 4.0312 15.094zm8.9844-21.203q0-13.953-6.2031-20.766-6.1875-6.8125-18.984-6.8125-4.7344 0-8.9375 0.70312t-8.1562 2.1719v8.7344q3.9531-2.1406 7.8125-3.1562 3.8594-1.0312 7.8594-1.0312 8.8438 0 13.234 4.6094t4.3906 13.938v4.4531q-2.7812-4.8438-7.125-7.2344t-10.406-2.3906q-10.047 0-16.203 7.6562-6.1562 7.6719-6.1562 20.328 0 12.688 6.1562 20.344 6.1562 7.6719 16.203 7.6719 6.0625 0 10.406-2.3906t7.125-7.2188v8.2969h8.9844z"/>
</defs>
<g transform="translate(390.55 613.67) scale(.1 -.1)">
<use xlink:href="#am"/>
<use x="81.787109" xlink:href="#c"/>
<use x="143.310547" xlink:href="#e"/>
<use x="206.689453" xlink:href="#f"/>
<use x="234.472656" xlink:href="#an"/>
</g>
</g>
<g clip-path="url(#a)">
<defs>
<path id="ar" d="m2.9844 54.688h9.5156l17.094-45.891 17.094 45.891h9.5156l-20.516-54.688h-12.203z"/>
</defs>
<g transform="translate(447.76 613.67) scale(.1 -.1)">
<use xlink:href="#ar"/>
<use x="59.179688" xlink:href="#ai"/>
<use x="120.361328" xlink:href="#e"/>
</g>
</g>
<g clip-path="url(#a)">
<defs>
<path id="as" d="m9.4219 54.688h8.9844v-55.672q0-10.438-3.9844-15.125-3.9688-4.6875-12.812-4.6875h-3.4219v7.6094h2.4062q5.125 0 6.9688 2.375 1.8594 2.3594 1.8594 9.8281zm0 21.297h8.9844v-11.391h-8.9844z"/>
</defs>
<g transform="translate(484.01 613.67) scale(.1 -.1)">
<use xlink:href="#r"/>
<use x="63.476562" xlink:href="#c"/>
<use x="125" xlink:href="#e"/>
<use x="188.378906" xlink:href="#as"/>
<use x="216.162109" xlink:href="#c"/>
<use x="277.685547" xlink:href="#e"/>
<use x="341.064453" xlink:href="#f"/>
<use x="368.847656" xlink:href="#an"/>
<use x="432.324219" xlink:href="#c"/>
<use x="493.847656" xlink:href="#e"/>
</g>
</g>
<g clip-path="url(#a)">
<g transform="translate(568.65 613.67) scale(.1 -.1)">
<use xlink:href="#ah"/>
</g>
</g>
<g clip-path="url(#a)">
<g transform="translate(624.39 613.67) scale(.1 -.1)">
<use xlink:href="#r"/>
<use x="63.476562" xlink:href="#f"/>
<use x="91.259766" xlink:href="#c"/>
</g>
</g>
<g clip-path="url(#a)">
<g transform="translate(689.73 613.67) scale(.1 -.1)">
<use xlink:href="#am"/>
<use x="81.787109" xlink:href="#f"/>
<use x="109.570312" xlink:href="#h"/>
</g>
</g>
<g clip-path="url(#a)">
<g transform="translate(752.49 613.67) scale(.1 -.1)">
<use xlink:href="#y"/>
<use x="63.378906" xlink:href="#e"/>
<use x="126.757812" xlink:href="#n"/>
<use x="165.966797" xlink:href="#c"/>
<use x="227.490234" xlink:href="#h"/>
</g>
</g>
<g clip-path="url(#a)">
<g transform="translate(817.35 613.67) scale(.1 -.1)">
<use xlink:href="#i"/>
<use x="61.279297" xlink:href="#e"/>
<use x="124.658203" xlink:href="#r"/>
<use x="188.134766" xlink:href="#c"/>
<use x="249.658203" xlink:href="#h"/>
<use x="288.521484" xlink:href="#c"/>
<use x="350.044922" xlink:href="#e"/>
</g>
</g>
<g clip-path="url(#a)">
<defs>
<path id="aq" d="m19.672 34.812v-26.703h15.828q7.9531 0 11.781 3.2969 3.8438 3.2969 3.8438 10.078 0 6.8438-3.8438 10.078-3.8281 3.25-11.781 3.25zm0 29.984v-21.969h14.609q7.2188 0 10.75 2.7031 3.5469 2.7188 3.5469 8.2812 0 5.5156-3.5469 8.25-3.5312 2.7344-10.75 2.7344zm-9.8594 8.1094h25.203q11.281 0 17.375-4.6875 6.1094-4.6875 6.1094-13.328 0-6.7031-3.125-10.656t-9.1875-4.9219q7.2812-1.5625 11.312-6.5312 4.0312-4.9531 4.0312-12.375 0-9.7656-6.6406-15.094-6.6406-5.3125-18.906-5.3125h-26.172z"/>
</defs>
<g transform="translate(895.5 613.67) scale(.1 -.1)">
<use xlink:href="#aq"/>
<use x="68.603516" xlink:href="#h"/>
<use x="107.466797" xlink:href="#c"/>
<use x="168.990234" xlink:href="#f"/>
<use x="196.773438" xlink:href="#n"/>
<use x="235.982422" xlink:href="#c"/>
<use x="297.505859" xlink:href="#e"/>
</g>
</g>
<g clip-path="url(#a)">
<g transform="translate(973.12 613.67) scale(.1 -.1)">
<use xlink:href="#q"/>
<use x="52.099609" xlink:href="#n"/>
<use x="91.308594" xlink:href="#y"/>
<use x="154.6875" xlink:href="#r"/>
<use x="218.164062" xlink:href="#f"/>
<use x="245.947266" xlink:href="#c"/>
<use x="307.470703" xlink:href="#h"/>
<use x="348.583984" xlink:href="#n"/>
</g>
</g>
<g clip-path="url(#a)">
<g transform="translate(1058.5 613.67) scale(.1 -.1)">
<use xlink:href="#s"/>
<use x="63.378906" xlink:href="#i"/>
<use x="124.658203" xlink:href="#n"/>
<use x="163.867188" xlink:href="#n"/>
<use x="203.076172" xlink:href="#c"/>
<use x="264.599609" xlink:href="#e"/>
</g>
</g>
<g clip-path="url(#a)">
<defs>
<path id="g" d="m10.688 12.406h10.312v-12.406h-10.312z"/>
</defs>
<g transform="translate(1159.1 613.67) scale(.1 -.1)">
<use xlink:href="#g"/>
</g>
</g>
<g clip-path="url(#a)">
<defs>
<path id="d" d="m12.406 8.2969h16.109v55.625l-17.531-3.5156v8.9844l17.438 3.5156h9.8594v-64.609h16.109v-8.2969h-41.984z"/>
</defs>
<g transform="translate(327.42 31.85) scale(.1 -.1)">
<use xlink:href="#d"/>
<use x="63.623047" xlink:href="#g"/>
<use x="95.410156" xlink:href="#d"/>
</g>
</g>
<g clip-path="url(#a)">
<defs>
<path id="m" d="m19.188 8.2969h34.422v-8.2969h-46.281v8.2969q5.6094 5.8125 15.297 15.594 9.7031 9.7969 12.188 12.641 4.7344 5.3125 6.6094 9 1.8906 3.6875 1.8906 7.25 0 5.8125-4.0781 9.4688-4.0781 3.6719-10.625 3.6719-4.6406 0-9.7969-1.6094-5.1406-1.6094-11-4.8906v9.9688q5.9531 2.3906 11.125 3.6094 5.1875 1.2188 9.4844 1.2188 11.328 0 18.062-5.6719 6.7344-5.6562 6.7344-15.125 0-4.5-1.6875-8.5312-1.6719-4.0156-6.125-9.4844-1.2188-1.4219-7.7656-8.1875-6.5312-6.7656-18.453-18.922z"/>
</defs>
<g transform="translate(327.42 129.7) scale(.1 -.1)">
<use xlink:href="#d"/>
<use x="63.623047" xlink:href="#g"/>
<use x="95.410156" xlink:href="#m"/>
</g>
</g>
<g clip-path="url(#a)">
<defs>
<path id="af" d="m37.797 64.312-24.906-38.922h24.906zm-2.5938 8.5938h12.406v-47.516h10.406v-8.2031h-10.406v-17.188h-9.8125v17.188h-32.906v9.5156z"/>
</defs>
<g transform="translate(77.003 227.36) scale(.1 -.1)">
<use xlink:href="#d"/>
<use x="63.623047" xlink:href="#g"/>
<use x="95.410156" xlink:href="#af"/>
</g>
</g>
<g clip-path="url(#a)">
<defs>
<path id="x" d="m10.797 72.906h38.719v-8.3125h-29.688v-17.859q2.1406 0.73438 4.2812 1.0938 2.1562 0.35938 4.3125 0.35938 12.203 0 19.328-6.6875 7.1406-6.6875 7.1406-18.109 0-11.766-7.3281-18.297-7.3281-6.5156-20.656-6.5156-4.5938 0-9.3594 0.78125-4.75 0.78125-9.8281 2.3438v9.9219q4.3906-2.3906 9.0781-3.5625t9.9062-1.1719q8.4531 0 13.375 4.4375 4.9375 4.4375 4.9375 12.062 0 7.6094-4.9375 12.047-4.9219 4.4531-13.375 4.4531-3.9531 0-7.8906-0.875-3.9219-0.875-8.0156-2.7344z"/>
</defs>
<g transform="translate(327.12 518.42) scale(.1 -.1)">
<use xlink:href="#d"/>
<use x="63.623047" xlink:href="#g"/>
<use x="95.410156" xlink:href="#x"/>
</g>
</g>
<g clip-path="url(#a)">
<defs>
<path id="ae" d="m33.016 40.375q-6.6406 0-10.531-4.5469-3.875-4.5312-3.875-12.438 0-7.8594 3.875-12.438 3.8906-4.5625 10.531-4.5625t10.516 4.5625q3.875 4.5781 3.875 12.438 0 7.9062-3.875 12.438-3.875 4.5469-10.516 4.5469zm19.578 30.922v-8.9844q-3.7188 1.75-7.5 2.6719-3.7812 0.9375-7.5 0.9375-9.7656 0-14.922-6.5938-5.1406-6.5938-5.875-19.922 2.875 4.25 7.2188 6.5156 4.3594 2.2656 9.5781 2.2656 10.984 0 17.359-6.6719 6.375-6.6562 6.375-18.125 0-11.234-6.6406-18.031-6.6406-6.7812-17.672-6.7812-12.656 0-19.344 9.6875-6.6875 9.7031-6.6875 28.109 0 17.281 8.2031 27.562t22.016 10.281q3.7188 0 7.5-0.73438t7.8906-2.1875z"/>
</defs>
<g transform="translate(397.5 518.42) scale(.1 -.1)">
<use xlink:href="#d"/>
<use x="63.623047" xlink:href="#g"/>
<use x="95.410156" xlink:href="#ae"/>
</g>
</g>
<g clip-path="url(#a)">
<defs>
<path id="ad" d="m8.2031 72.906h46.875v-4.2031l-26.469-68.703h-10.297l24.906 64.594h-35.016z"/>
</defs>
<g transform="translate(571.89 227.36) scale(.1 -.1)">
<use xlink:href="#d"/>
<use x="63.623047" xlink:href="#g"/>
<use x="95.410156" xlink:href="#ad"/>
</g>
</g>
<g clip-path="url(#a)">
<defs>
<path id="ac" d="m10.984 1.5156v8.9844q3.7188-1.7656 7.5156-2.6875 3.8125-0.92188 7.4844-0.92188 9.7656 0 14.906 6.5625 5.1562 6.5625 5.8906 19.953-2.8281-4.2031-7.1875-6.4531-4.3438-2.25-9.6094-2.25-10.938 0-17.312 6.6094-6.375 6.625-6.375 18.109 0 11.219 6.6406 18 6.6406 6.7969 17.672 6.7969 12.656 0 19.312-9.7031 6.6719-9.6875 6.6719-28.141 0-17.234-8.1875-27.516-8.1719-10.281-21.984-10.281-3.7188 0-7.5312 0.73438-3.7969 0.73438-7.9062 2.2031zm19.625 30.906q6.6406 0 10.516 4.5312 3.8906 4.5469 3.8906 12.469 0 7.8594-3.8906 12.422-3.875 4.5625-10.516 4.5625t-10.516-4.5625-3.875-12.422q0-7.9219 3.875-12.469 3.875-4.5312 10.516-4.5312z"/>
</defs>
<g transform="translate(448.99 518.42) scale(.1 -.1)">
<use xlink:href="#d"/>
<use x="63.623047" xlink:href="#g"/>
<use x="95.410156" xlink:href="#ac"/>
</g>
</g>
<g clip-path="url(#a)">
<defs>
<path id="ag" d="m31.781 66.406q-7.6094 0-11.453-7.5-3.8281-7.4844-3.8281-22.531 0-14.984 3.8281-22.484 3.8438-7.5 11.453-7.5 7.6719 0 11.5 7.5 3.8438 7.5 3.8438 22.484 0 15.047-3.8438 22.531-3.8281 7.5-11.5 7.5zm0 7.8125q12.266 0 18.734-9.7031 6.4688-9.6875 6.4688-28.141 0-18.406-6.4688-28.109-6.4688-9.6875-18.734-9.6875-12.25 0-18.719 9.6875-6.4688 9.7031-6.4688 28.109 0 18.453 6.4688 28.141 6.4688 9.7031 18.719 9.7031z"/>
</defs>
<g transform="translate(500.74 518.42) scale(.1 -.1)">
<use xlink:href="#d"/>
<use x="63.623047" xlink:href="#g"/>
<use x="95.410156" xlink:href="#d"/>
<use x="159.033203" xlink:href="#ag"/>
</g>
</g>
<g clip-path="url(#a)">
<g transform="translate(769.18 324.77) scale(.1 -.1)">
<use xlink:href="#d"/>
<use x="63.623047" xlink:href="#g"/>
<use x="95.410156" xlink:href="#d"/>
<use x="159.033203" xlink:href="#d"/>
</g>
</g>
<g clip-path="url(#a)">
<defs>
<path id="o" d="m40.578 39.312q7.0781-1.5156 11.047-6.3125 3.9844-4.7812 3.9844-11.812 0-10.781-7.4219-16.703-7.4219-5.9062-21.094-5.9062-4.5781 0-9.4375 0.90625t-10.031 2.7188v9.5156q4.0938-2.3906 8.9688-3.6094 4.8906-1.2188 10.219-1.2188 9.2656 0 14.125 3.6562t4.8594 10.641q0 6.4531-4.5156 10.078-4.5156 3.6406-12.562 3.6406h-8.5v8.1094h8.8906q7.2656 0 11.125 2.9062t3.8594 8.375q0 5.6094-3.9844 8.6094-3.9688 3.0156-11.391 3.0156-4.0625 0-8.7031-0.89062-4.6406-0.875-10.203-2.7188v8.7812q5.625 1.5625 10.531 2.3438t9.25 0.78125q11.234 0 17.766-5.1094 6.5469-5.0938 6.5469-13.781 0-6.0625-3.4688-10.234t-9.8594-5.7812z"/>
</defs>
<g transform="translate(620.9 518.42) scale(.1 -.1)">
<use xlink:href="#d"/>
<use x="63.623047" xlink:href="#g"/>
<use x="95.410156" xlink:href="#d"/>
<use x="159.033203" xlink:href="#o"/>
</g>
</g>
<g clip-path="url(#a)">
<g transform="translate(686.13 518.42) scale(.1 -.1)">
<use xlink:href="#d"/>
<use x="63.623047" xlink:href="#g"/>
<use x="95.410156" xlink:href="#d"/>
<use x="159.033203" xlink:href="#af"/>
</g>
</g>
<g clip-path="url(#a)">
<g transform="translate(828.03 421.85) scale(.1 -.1)">
<use xlink:href="#d"/>
<use x="63.623047" xlink:href="#g"/>
<use x="95.410156" xlink:href="#d"/>
<use x="159.033203" xlink:href="#x"/>
</g>
</g>
<g clip-path="url(#a)">
<g transform="translate(981.37 518.42) scale(.1 -.1)">
<use xlink:href="#d"/>
<use x="63.623047" xlink:href="#g"/>
<use x="95.410156" xlink:href="#d"/>
<use x="159.033203" xlink:href="#ae"/>
</g>
</g>
<g clip-path="url(#a)">
<g transform="translate(1063.8 518.42) scale(.1 -.1)">
<use xlink:href="#d"/>
<use x="63.623047" xlink:href="#g"/>
<use x="95.410156" xlink:href="#d"/>
<use x="159.033203" xlink:href="#ad"/>
</g>
</g>
<g clip-path="url(#a)">
<defs>
<path id="al" d="m31.781 34.625q-7.0312 0-11.062-3.7656-4.0156-3.7656-4.0156-10.344 0-6.5938 4.0156-10.359 4.0312-3.7656 11.062-3.7656t11.078 3.7812q4.0625 3.7969 4.0625 10.344 0 6.5781-4.0312 10.344-4.0156 3.7656-11.109 3.7656zm-9.8594 4.1875q-6.3438 1.5625-9.8906 5.9062-3.5312 4.3594-3.5312 10.609 0 8.7344 6.2188 13.812 6.2344 5.0781 17.062 5.0781 10.891 0 17.094-5.0781t6.2031-13.812q0-6.25-3.5469-10.609-3.5312-4.3438-9.8281-5.9062 7.125-1.6562 11.094-6.5 3.9844-4.8281 3.9844-11.797 0-10.609-6.4688-16.281-6.4688-5.6562-18.531-5.6562-12.047 0-18.531 5.6562-6.4688 5.6719-6.4688 16.281 0 6.9688 4 11.797 4.0156 4.8438 11.141 6.5zm-3.6094 15.578q0-5.6562 3.5312-8.8281 3.5469-3.1719 9.9375-3.1719 6.3594 0 9.9375 3.1719 3.5938 3.1719 3.5938 8.8281 0 5.6719-3.5938 8.8438-3.5781 3.1719-9.9375 3.1719-6.3906 0-9.9375-3.1719-3.5312-3.1719-3.5312-8.8438z"/>
</defs>
<g transform="translate(754.79 518.42) scale(.1 -.1)">
<use xlink:href="#d"/>
<use x="63.623047" xlink:href="#g"/>
<use x="95.410156" xlink:href="#d"/>
<use x="159.033203" xlink:href="#al"/>
</g>
</g>
<g clip-path="url(#a)">
<g transform="translate(826.88 518.42) scale(.1 -.1)">
<use xlink:href="#d"/>
<use x="63.623047" xlink:href="#g"/>
<use x="95.410156" xlink:href="#d"/>
<use x="159.033203" xlink:href="#ac"/>
</g>
</g>
<g clip-path="url(#a)">
<g transform="translate(902.41 518.42) scale(.1 -.1)">
<use xlink:href="#d"/>
<use x="63.623047" xlink:href="#g"/>
<use x="95.410156" xlink:href="#m"/>
<use x="159.033203" xlink:href="#ag"/>
</g>
</g>
<g clip-path="url(#a)">
<g transform="translate(44.14 518.42) scale(.1 -.1)">
<use xlink:href="#d"/>
<use x="63.623047" xlink:href="#g"/>
<use x="95.410156" xlink:href="#m"/>
<use x="159.033203" xlink:href="#d"/>
</g>
</g>
<g clip-path="url(#a)">
<g transform="translate(54.439 518.42) scale(.1 -.1)">
<use xlink:href="#d"/>
<use x="63.623047" xlink:href="#g"/>
<use x="95.410156" xlink:href="#m"/>
<use x="159.033203" xlink:href="#m"/>
</g>
</g>
<g clip-path="url(#a)">
<g transform="translate(128.54 324.77) scale(.1 -.1)">
<use xlink:href="#d"/>
<use x="63.623047" xlink:href="#g"/>
<use x="95.410156" xlink:href="#m"/>
<use x="159.033203" xlink:href="#o"/>
</g>
</g>
<g clip-path="url(#a)">
<g transform="translate(85.337 518.42) scale(.1 -.1)">
<use xlink:href="#d"/>
<use x="63.623047" xlink:href="#g"/>
<use x="95.410156" xlink:href="#m"/>
<use x="159.033203" xlink:href="#x"/>
</g>
</g>
<g clip-path="url(#a)">
<g transform="translate(105.94 518.42) scale(.1 -.1)">
<use xlink:href="#d"/>
<use x="63.623047" xlink:href="#g"/>
<use x="95.410156" xlink:href="#m"/>
<use x="159.033203" xlink:href="#ae"/>
</g>
</g>
<g clip-path="url(#a)">
<g transform="translate(129.97 518.42) scale(.1 -.1)">
<use xlink:href="#d"/>
<use x="63.623047" xlink:href="#g"/>
<use x="95.410156" xlink:href="#m"/>
<use x="159.033203" xlink:href="#ad"/>
</g>
</g>
<g clip-path="url(#a)">
<g transform="translate(172.88 421.85) scale(.1 -.1)">
<use xlink:href="#d"/>
<use x="63.623047" xlink:href="#g"/>
<use x="95.410156" xlink:href="#m"/>
<use x="159.033203" xlink:href="#al"/>
</g>
</g>
<g clip-path="url(#a)">
<g transform="translate(222.66 518.42) scale(.1 -.1)">
<use xlink:href="#d"/>
<use x="63.623047" xlink:href="#g"/>
<use x="95.410156" xlink:href="#m"/>
<use x="159.033203" xlink:href="#ac"/>
</g>
</g>
<g clip-path="url(#a)">
<g transform="translate(157.43 518.42) scale(.1 -.1)">
<use xlink:href="#d"/>
<use x="63.623047" xlink:href="#g"/>
<use x="95.410156" xlink:href="#o"/>
<use x="159.033203" xlink:href="#ag"/>
</g>
</g>
<g clip-path="url(#a)">
<g transform="translate(188.33 518.42) scale(.1 -.1)">
<use xlink:href="#d"/>
<use x="63.623047" xlink:href="#g"/>
<use x="95.410156" xlink:href="#o"/>
<use x="159.033203" xlink:href="#d"/>
</g>
</g>
<g clip-path="url(#a)">
<g transform="translate(68.172 518.42) scale(.1 -.1)">
<use xlink:href="#d"/>
<use x="63.623047" xlink:href="#g"/>
<use x="95.410156" xlink:href="#o"/>
<use x="159.033203" xlink:href="#m"/>
</g>
</g>
<g clip-path="url(#a)">
<g transform="translate(260.42 518.42) scale(.1 -.1)">
<use xlink:href="#d"/>
<use x="63.623047" xlink:href="#g"/>
<use x="95.410156" xlink:href="#o"/>
<use x="159.033203" xlink:href="#o"/>
</g>
</g>
<g clip-path="url(#a)">
<g transform="translate(559.1 518.42) scale(.1 -.1)">
<use xlink:href="#d"/>
<use x="63.623047" xlink:href="#g"/>
<use x="95.410156" xlink:href="#o"/>
<use x="159.033203" xlink:href="#af"/>
</g>
</g>
<g clip-path="url(#a)">
<g transform="translate(1149.6 518.42) scale(.1 -.1)">
<use xlink:href="#d"/>
<use x="63.623047" xlink:href="#g"/>
<use x="95.410156" xlink:href="#o"/>
<use x="159.033203" xlink:href="#x"/>
</g>
</g>
<defs>
<clipPath id="a">
<rect width="1216" height="640"/>
</clipPath>
</defs>
</svg>
