<?xml version="1.0" encoding="UTF-8"?>
<!DOCTYPE svg  PUBLIC '-//W3C//DTD SVG 1.1//EN'  'http://www.w3.org/Graphics/SVG/1.1/DTD/svg11.dtd'>
<svg width="760pt" height="400pt" version="1.1" viewBox="0 0 760 400" xmlns="http://www.w3.org/2000/svg" xmlns:xlink="http://www.w3.org/1999/xlink">
<defs>
<style type="text/css">*{stroke-linecap:butt;stroke-linejoin:round;}</style>
</defs>
<path d="m0 400h760v-400h-760z" fill="#fff"/>
<g fill="none" stroke="#000">
<path d="m128.07 18.182v45.879" clip-path="url(#a)"/>
<path d="m128.07 64.061 597.39 45.813" clip-path="url(#a)"/>
<path d="m128.07 64.061 597.39 45.813" clip-path="url(#a)"/>
<path d="m128.07 64.061v45.813" clip-path="url(#a)"/>
<path d="m128.07 109.87 91.207 45.737" clip-path="url(#a)"/>
<path d="m128.07 109.87-57.698 227.42" clip-path="url(#a)"/>
<path d="m128.07 109.87-32.108 227.42" clip-path="url(#a)"/>
<path d="m128.07 109.87-1.4013 227.42" clip-path="url(#a)"/>
<path d="m219.28 155.61-177.05 136.55" clip-path="url(#a)"/>
<path d="m219.28 155.61 177.05 45.645" clip-path="url(#a)"/>
<path d="m70.37 337.3v44.519" clip-path="url(#a)"/>
<path d="m95.96 337.3v44.519" clip-path="url(#a)"/>
<path d="m42.222 292.16-7.6768 45.138" clip-path="url(#a)"/>
<path d="m42.222 292.16 7.6768 45.138" clip-path="url(#a)"/>
<path d="m396.33 201.26-233.84 136.04" clip-path="url(#a)"/>
<path d="m396.33 201.26-52.153 136.04" clip-path="url(#a)"/>
<path d="m396.33 201.26-83.713 45.53" clip-path="url(#a)"/>
<path d="m396.33 201.26-346.43 136.04" clip-path="url(#a)" stroke-dasharray="3.7,1.6"/>
<path d="m396.33 201.26 160.24 136.04" clip-path="url(#a)"/>
<path d="m396.33 201.26 237 136.04" clip-path="url(#a)"/>
<path d="m396.33 201.26 318.89 136.04" clip-path="url(#a)"/>
<path d="m162.49 337.3v44.519" clip-path="url(#a)"/>
<path d="m344.18 337.3-140.74 44.519" clip-path="url(#a)"/>
<path d="m344.18 337.3 140.74 44.519" clip-path="url(#a)"/>
<path d="m312.62 246.79-63.12 90.514" clip-path="url(#a)"/>
<path d="m312.62 246.79-11.942 90.514" clip-path="url(#a)"/>
<path d="m312.62 246.79 75.062 45.375" clip-path="url(#a)"/>
<path d="m249.49 337.3v44.519" clip-path="url(#a)"/>
<path d="m300.67 337.3v44.519" clip-path="url(#a)"/>
<path d="m387.68 292.16-30.707 45.138" clip-path="url(#a)"/>
<path d="m387.68 292.16 30.707 45.138" clip-path="url(#a)"/>
<path d="m356.97 337.3v44.519" clip-path="url(#a)"/>
<path d="m418.38 337.3v44.519" clip-path="url(#a)"/>
<path d="m34.545 337.3v44.519" clip-path="url(#a)"/>
<path d="m49.899 337.3v44.519" clip-path="url(#a)"/>
<path d="m126.67 337.3v44.519" clip-path="url(#a)"/>
<path d="m556.57 337.3v44.519" clip-path="url(#a)"/>
<path d="m633.33 337.3v44.519" clip-path="url(#a)"/>
<path d="m715.22 337.3v44.519" clip-path="url(#a)"/>
</g>
<path d="m121.8 38.113v6.0162q0 2.4 2.4 2.4h7.7425q2.4 0 2.4-2.4v-6.0162q0-2.4-2.4-2.4h-7.7425q-2.4 0-2.4 2.4z" clip-path="url(#a)" fill="#fff" stroke="#fff"/>
<g clip-path="url(#a)">
<defs>
<path id="ao" d="m9.8125 72.906h9.8594v-29.891h35.844v29.891h9.8594v-72.906h-9.8594v34.719h-35.844v-34.719h-9.8594z"/>
</defs>
<g transform="translate(125.86 38.113) rotate(90) scale(.08 -.08)">
<use xlink:href="#ao"/>
</g>
</g>
<path d="m423.88 93.036 4.8096 0.36885q2.393 0.18352 2.5765-2.2095l0.59203-7.7198q0.18352-2.393-2.2095-2.5765l-4.8096-0.36885q-2.393-0.18352-2.5765 2.2095l-0.59203 7.7198q-0.18352 2.393 2.2095 2.5765z" clip-path="url(#a)" fill="#fff" stroke="#fff"/>
<g clip-path="url(#a)">
<defs>
<path id="r" d="m19.672 64.797v-27.391h12.406q6.8906 0 10.641 3.5625 3.7656 3.5625 3.7656 10.156 0 6.5469-3.7656 10.109-3.75 3.5625-10.641 3.5625zm-9.8594 8.1094h22.266q12.266 0 18.531-5.5469 6.2812-5.5469 6.2812-16.234 0-10.797-6.2812-16.312-6.2656-5.5156-18.531-5.5156h-12.406v-29.297h-9.8594z"/>
</defs>
<g transform="translate(424.19 88.984) rotate(4.3854) scale(.08 -.08)">
<use xlink:href="#r"/>
</g>
</g>
<path d="m423.55 93.011 5.4565 0.41846q2.393 0.18352 2.5765-2.2095l0.59203-7.7198q0.18352-2.393-2.2095-2.5765l-5.4565-0.41846q-2.393-0.18352-2.5765 2.2095l-0.59203 7.7198q-0.18352 2.393 2.2095 2.5765z" clip-path="url(#a)" fill="#fff" stroke="#fff"/>
<g clip-path="url(#a)">
<defs>
<path id="n" d="m34.188 63.188-13.391-36.281h26.812zm-5.5781 9.7188h11.188l27.781-72.906h-10.25l-6.6406 18.703h-32.859l-6.6406-18.703h-10.406z"/>
</defs>
<g transform="translate(423.86 88.959) rotate(4.3854) scale(.08 -.08)">
<use xlink:href="#n"/>
</g>
</g>
<path d="m121.8 84.231v5.4725q0 2.4 2.4 2.4h7.7425q2.4 0 2.4-2.4v-5.4725q0-2.4-2.4-2.4h-7.7425q-2.4 0-2.4 2.4z" clip-path="url(#a)" fill="#fff" stroke="#fff"/>
<g clip-path="url(#a)">
<g transform="translate(125.86 84.231) rotate(90) scale(.08 -.08)">
<use xlink:href="#n"/>
</g>
</g>
<path d="m168.41 137.12 4.8919 2.4531q2.1454 1.0758 3.2212-1.0696l3.4706-6.9211q1.0758-2.1454-1.0696-3.2212l-4.8919-2.4531q-2.1454-1.0758-3.2212 1.0696l-3.4706 6.9211q-1.0758 2.1454 1.0696 3.2212z" clip-path="url(#a)" fill="#fff" stroke="#fff"/>
<g clip-path="url(#a)">
<g transform="translate(170.24 133.49) rotate(26.632) scale(.08 -.08)">
<use xlink:href="#n"/>
</g>
</g>
<path d="m104.7 227.47 1.1862-4.6756q0.59018-2.3263-1.7361-2.9165l-7.5047-1.904q-2.3263-0.59018-2.9165 1.7361l-1.1862 4.6756q-0.59018 2.3263 1.7361 2.9165l7.5047 1.904q2.3263 0.59018 2.9165-1.7361z" clip-path="url(#a)" fill="#fff" stroke="#fff"/>
<g clip-path="url(#a)">
<g transform="translate(100.77 226.47) rotate(-75.764) scale(.08 -.08)">
<use xlink:href="#r"/>
</g>
</g>
<path d="m117.84 227.17 0.76503-5.4188q0.33551-2.3764-2.0409-2.7119l-7.6665-1.0824q-2.3764-0.33551-2.7119 2.0409l-0.76504 5.4188q-0.33551 2.3764 2.0409 2.7119l7.6665 1.0824q2.3764 0.33551 2.7119-2.0409z" clip-path="url(#a)" fill="#fff" stroke="#fff"/>
<g clip-path="url(#a)">
<g transform="translate(113.82 226.6) rotate(-81.964) scale(.08 -.08)">
<use xlink:href="#n"/>
</g>
</g>
<path d="m133.62 226.55 0.036076-5.8549q0.014788-2.4-2.3852-2.4147l-7.7424-0.047706q-2.4-0.014787-2.4147 2.3852l-0.036076 5.8549q-0.014788 2.4 2.3852 2.4147l7.7424 0.047706q2.4 0.014788 2.4147-2.3852z" clip-path="url(#a)" fill="#fff" stroke="#fff"/>
<g clip-path="url(#a)">
<defs>
<path id="q" d="m8.6875 72.906h9.9219v-44.297q0-11.719 4.2344-16.875 4.25-5.1406 13.781-5.1406 9.4688 0 13.719 5.1406 4.25 5.1562 4.25 16.875v44.297h9.9062v-45.516q0-14.25-7.0625-21.531-7.0469-7.2812-20.812-7.2812-13.828 0-20.891 7.2812-7.0469 7.2812-7.0469 21.531z"/>
</defs>
<g transform="translate(129.56 226.53) rotate(-89.647) scale(.08 -.08)">
<use xlink:href="#q"/>
</g>
</g>
<path d="m132.37 230.56 4.4235-3.4116q1.9005-1.4657 0.43476-3.3662l-4.7284-6.1309q-1.4657-1.9005-3.3662-0.43476l-4.4235 3.4116q-1.9005 1.4657-0.43476 3.3662l4.7284 6.1309q1.4657 1.9005 3.3662 0.43476z" clip-path="url(#a)" fill="#fff" stroke="#fff"/>
<g clip-path="url(#a)">
<defs>
<path id="p" d="m64.406 67.281v-10.391q-4.9844 4.6406-10.625 6.9219-5.6406 2.2969-11.984 2.2969-12.5 0-19.141-7.6406t-6.6406-22.094q0-14.406 6.6406-22.047t19.141-7.6406q6.3438 0 11.984 2.2969t10.625 6.9375v-10.312q-5.1719-3.5156-10.969-5.2812-5.7812-1.75-12.219-1.75-16.562 0-26.094 10.125-9.5156 10.141-9.5156 27.672 0 17.578 9.5156 27.703 9.5312 10.141 26.094 10.141 6.5312 0 12.312-1.7344 5.7969-1.7344 10.875-5.2031z"/>
</defs>
<g transform="translate(129.89 227.34) rotate(-37.641) scale(.08 -.08)">
<use xlink:href="#p"/>
</g>
</g>
<path d="m303.79 183.88 4.895 1.2619q2.324 0.59914 2.9232-1.7249l1.9328-7.4974q0.59914-2.324-1.7249-2.9231l-4.895-1.2619q-2.324-0.59914-2.9231 1.7249l-1.9328 7.4974q-0.59914 2.324 1.7249 2.9232z" clip-path="url(#a)" fill="#fff" stroke="#fff"/>
<g clip-path="url(#a)">
<defs>
<path id="ab" d="m9.8125 72.906h46.094v-8.3125h-36.234v-21.578h34.719v-8.2969h-34.719v-26.422h37.109v-8.2969h-46.969z"/>
</defs>
<g transform="translate(304.8 179.94) rotate(14.456) scale(.08 -.08)">
<use xlink:href="#ab"/>
</g>
</g>
<path d="m64.099 342.65v33.808q0 2.4 2.4 2.4h7.7425q2.4 0 2.4-2.4v-33.808q0-2.4-2.4-2.4h-7.7425q-2.4 0-2.4 2.4z" clip-path="url(#a)" fill="#fff" stroke="#fff"/>
<g clip-path="url(#a)">
<defs>
<path id="j" d="m-0.29688 72.906h61.672v-8.3125h-25.875v-64.594h-9.9062v64.594h-25.891z"/>
<path id="e" d="m56.203 29.594v-4.3906h-41.312q0.59375-9.2812 5.5938-14.141t13.938-4.8594q5.1719 0 10.031 1.2656t9.6562 3.8125v-8.5q-4.8438-2.0469-9.9219-3.125t-10.297-1.0781q-13.094 0-20.734 7.6094-7.6406 7.625-7.6406 20.625 0 13.422 7.25 21.297 7.25 7.8906 19.562 7.8906 11.031 0 17.453-7.1094 6.4219-7.0938 6.4219-19.297zm-8.9844 2.6406q-0.09375 7.3594-4.125 11.75-4.0312 4.4062-10.672 4.4062-7.5156 0-12.031-4.25t-5.2031-11.969z"/>
<path id="k" d="m41.109 46.297q-1.5156 0.875-3.2969 1.2812-1.7812 0.42188-3.9219 0.42188-7.625 0-11.703-4.9531t-4.0781-14.234v-28.812h-9.0312v54.688h9.0312v-8.5q2.8438 4.9844 7.375 7.3906 4.5469 2.4219 11.047 2.4219 0.92188 0 2.0469-0.125 1.125-0.10938 2.4844-0.35938z"/>
<path id="l" d="m52 44.188q3.375 6.0625 8.0625 8.9375t11.031 2.875q8.5469 0 13.188-5.9844 4.6406-5.9688 4.6406-17v-33.016h-9.0312v32.719q0 7.8594-2.7969 11.656-2.7812 3.8125-8.4844 3.8125-6.9844 0-11.047-4.6406-4.0469-4.625-4.0469-12.641v-30.906h-9.0312v32.719q0 7.9062-2.7812 11.688t-8.5938 3.7812q-6.8906 0-10.953-4.6562-4.0469-4.6562-4.0469-12.625v-30.906h-9.0312v54.688h9.0312v-8.5q3.0781 5.0312 7.375 7.4219t10.203 2.3906q5.9688 0 10.141-3.0312 4.1719-3.0156 6.1719-8.7812z"/>
<path id="g" d="m9.4219 54.688h8.9844v-54.688h-8.9844zm0 21.297h8.9844v-11.391h-8.9844z"/>
<path id="f" d="m54.891 33.016v-33.016h-8.9844v32.719q0 7.7656-3.0312 11.609-3.0312 3.8594-9.0781 3.8594-7.2812 0-11.484-4.6406-4.2031-4.625-4.2031-12.641v-30.906h-9.0312v54.688h9.0312v-8.5q3.2344 4.9375 7.5938 7.375 4.375 2.4375 10.094 2.4375 9.4219 0 14.25-5.8281 4.8438-5.8281 4.8438-17.156z"/>
<path id="h" d="m34.281 27.484q-10.891 0-15.094-2.4844t-4.2031-8.5q0-4.7812 3.1562-7.5938 3.1562-2.7969 8.5625-2.7969 7.4844 0 12 5.2969t4.5156 14.078v2zm17.922 3.7188v-31.203h-8.9844v8.2969q-3.0781-4.9688-7.6719-7.3438t-11.234-2.375q-8.3906 0-13.359 4.7188-4.9531 4.7188-4.9531 12.625 0 9.2188 6.1719 13.906 6.1875 4.6875 18.438 4.6875h12.609v0.89062q0 6.2031-4.0781 9.5938t-11.453 3.3906q-4.6875 0-9.1406-1.125-4.4375-1.125-8.5312-3.375v8.3125q4.9219 1.9062 9.5625 2.8438 4.6406 0.95312 9.0312 0.95312 11.875 0 17.734-6.1562 5.8594-6.1406 5.8594-18.641z"/>
<path id="i" d="m9.4219 75.984h8.9844v-75.984h-8.9844z"/>
</defs>
<g transform="translate(68.163 342.65) rotate(90) scale(.08 -.08)">
<use xlink:href="#j"/>
<use x="44.083984" xlink:href="#e"/>
<use x="105.607422" xlink:href="#k"/>
<use x="144.970703" xlink:href="#l"/>
<use x="242.382812" xlink:href="#g"/>
<use x="270.166016" xlink:href="#f"/>
<use x="333.544922" xlink:href="#h"/>
<use x="394.824219" xlink:href="#i"/>
</g>
</g>
<path d="m89.688 342.65v33.808q0 2.4 2.4 2.4h7.7425q2.4 0 2.4-2.4v-33.808q0-2.4-2.4-2.4h-7.7425q-2.4 0-2.4 2.4z" clip-path="url(#a)" fill="#fff" stroke="#fff"/>
<g clip-path="url(#a)">
<g transform="translate(93.752 342.65) rotate(90) scale(.08 -.08)">
<use xlink:href="#j"/>
<use x="44.083984" xlink:href="#e"/>
<use x="105.607422" xlink:href="#k"/>
<use x="144.970703" xlink:href="#l"/>
<use x="242.382812" xlink:href="#g"/>
<use x="270.166016" xlink:href="#f"/>
<use x="333.544922" xlink:href="#h"/>
<use x="394.824219" xlink:href="#i"/>
</g>
</g>
<path d="m44.141 318.28 0.85152-5.0069q0.40239-2.366-1.9636-2.7684l-7.6329-1.2981q-2.366-0.40239-2.7684 1.9636l-0.85152 5.0069q-0.40239 2.366 1.9636 2.7684l7.6329 1.2981q2.366 0.40239 2.7684-1.9636z" clip-path="url(#a)" fill="#fff" stroke="#fff"/>
<g clip-path="url(#a)">
<defs>
<path id="u" d="m53.516 70.516v-9.625q-5.6094 2.6875-10.594 4-4.9844 1.3281-9.625 1.3281-8.0469 0-12.422-3.125t-4.375-8.8906q0-4.8438 2.9062-7.3125 2.9062-2.4531 11.016-3.9688l5.9531-1.2188q11.031-2.1094 16.281-7.4062t5.25-14.172q0-10.609-7.1094-16.078-7.0938-5.4688-20.812-5.4688-5.1719 0-11.016 1.1719-5.8281 1.1719-12.078 3.4688v10.156q6-3.3594 11.766-5.0781 5.7656-1.7031 11.328-1.7031 8.4375 0 13.031 3.3125 4.5938 3.3281 4.5938 9.4844 0 5.3594-3.2969 8.3906t-10.812 4.5469l-6.0156 1.1719q-11.031 2.1875-15.969 6.875-4.9219 4.6875-4.9219 13.047 0 9.6719 6.8125 15.234t18.766 5.5625q5.1406 0 10.453-0.9375 5.3281-0.92188 10.891-2.7656z"/>
</defs>
<g transform="translate(40.134 317.6) rotate(-80.348) scale(.08 -.08)">
<use xlink:href="#u"/>
</g>
</g>
<path d="m39.419 313.08 0.91754 5.395q0.40239 2.366 2.7684 1.9636l7.6329-1.2981q2.366-0.40239 1.9636-2.7684l-0.91754-5.395q-0.40239-2.366-2.7684-1.9636l-7.6329 1.2981q-2.366 0.40239-1.9636 2.7684z" clip-path="url(#a)" fill="#fff" stroke="#fff"/>
<g clip-path="url(#a)">
<g transform="translate(43.426 312.4) rotate(80.348) scale(.08 -.08)">
<use xlink:href="#n"/>
</g>
</g>
<path d="m280.58 275.86 3.9771-2.3138q2.0745-1.2069 0.86757-3.2814l-3.8935-6.6923q-1.2069-2.0745-3.2814-0.86757l-3.9771 2.3138q-2.0745 1.2069-0.86757 3.2814l3.8935 6.6923q1.2069 2.0745 3.2814 0.86757z" clip-path="url(#a)" fill="#fff" stroke="#fff"/>
<g clip-path="url(#a)">
<defs>
<path id="ap" d="m9.8125 72.906h41.891v-8.3125h-32.031v-21.484h28.906v-8.2969h-28.906v-34.812h-9.8594z"/>
</defs>
<g transform="translate(278.53 272.34) rotate(-30.19) scale(.08 -.08)">
<use xlink:href="#ap"/>
</g>
</g>
<path d="m375.2 273.89 1.818-4.7422q0.8591-2.241-1.3819-3.1001l-7.2295-2.7715q-2.241-0.8591-3.1001 1.3819l-1.818 4.7422q-0.8591 2.241 1.3819 3.1001l7.2295 2.7715q2.241 0.8591 3.1001-1.3819z" clip-path="url(#a)" fill="#fff" stroke="#fff"/>
<g clip-path="url(#a)">
<g transform="translate(371.4 272.44) rotate(-69.025) scale(.08 -.08)">
<use xlink:href="#u"/>
</g>
</g>
<path d="m355.06 230.84 4.8075-2.6147q2.1083-1.1467 0.96167-3.255l-3.6992-6.8016q-1.1467-2.1083-3.255-0.96167l-4.8075 2.6147q-2.1083 1.1467-0.96167 3.255l3.6992 6.8016q1.1467 2.1083 3.255 0.96167z" clip-path="url(#a)" fill="#fff" stroke="#fff"/>
<g clip-path="url(#a)">
<g transform="translate(353.12 227.27) rotate(-28.541) scale(.08 -.08)">
<use xlink:href="#n"/>
</g>
</g>
<path d="m222.86 276.11 5.0938-2.0003q2.2339-0.87726 1.3567-3.1112l-2.8301-7.2067q-0.87726-2.2339-3.1112-1.3567l-5.0938 2.0003q-2.2339 0.87726-1.3567 3.1112l2.8301 7.2067q0.87726 2.2339 3.1112 1.3567z" clip-path="url(#a)" fill="#fff" stroke="#fff"/>
<g clip-path="url(#a)">
<g transform="translate(221.37 272.33) rotate(-21.44) scale(.08 -.08)">
<use xlink:href="#n"/>
</g>
</g>
<path d="m470.16 272.16 4.4633 3.7894q1.8295 1.5533 3.3829-0.27624l5.011-5.9022q1.5533-1.8295-0.27624-3.3829l-4.4633-3.7894q-1.8295-1.5533-3.3829 0.27624l-5.011 5.9022q-1.5533 1.8295 0.27624 3.3829z" clip-path="url(#a)" fill="#fff" stroke="#fff"/>
<g clip-path="url(#a)">
<g transform="translate(472.79 269.07) rotate(40.332) scale(.08 -.08)">
<use xlink:href="#q"/>
</g>
</g>
<path d="m509.17 273.26 5.0779 2.9148q2.0815 1.1948 3.2762-0.88668l3.8544-6.7149q1.1948-2.0815-0.88668-3.2762l-5.0779-2.9148q-2.0815-1.1948-3.2762 0.88668l-3.8544 6.7149q-1.1948 2.0815 0.88668 3.2762z" clip-path="url(#a)" fill="#fff" stroke="#fff"/>
<g clip-path="url(#a)">
<g transform="translate(511.19 269.73) rotate(29.856) scale(.08 -.08)">
<use xlink:href="#q"/>
</g>
</g>
<path d="m550.62 273.9 5.3854 2.2975q2.2075 0.94176 3.1493-1.2658l3.0381-7.1215q0.94176-2.2075-1.2658-3.1493l-5.3854-2.2975q-2.2075-0.94176-3.1493 1.2658l-3.0381 7.1215q-0.94176 2.2075 1.2658 3.1493z" clip-path="url(#a)" fill="#fff" stroke="#fff"/>
<g clip-path="url(#a)">
<g transform="translate(552.21 270.16) rotate(23.104) scale(.08 -.08)">
<use xlink:href="#q"/>
</g>
</g>
<path d="m156.22 342.65v33.808q0 2.4 2.4 2.4h7.7425q2.4 0 2.4-2.4v-33.808q0-2.4-2.4-2.4h-7.7425q-2.4 0-2.4 2.4z" clip-path="url(#a)" fill="#fff" stroke="#fff"/>
<g clip-path="url(#a)">
<g transform="translate(160.28 342.65) rotate(90) scale(.08 -.08)">
<use xlink:href="#j"/>
<use x="44.083984" xlink:href="#e"/>
<use x="105.607422" xlink:href="#k"/>
<use x="144.970703" xlink:href="#l"/>
<use x="242.382812" xlink:href="#g"/>
<use x="270.166016" xlink:href="#f"/>
<use x="333.544922" xlink:href="#h"/>
<use x="394.824219" xlink:href="#i"/>
</g>
</g>
<path d="m259.58 370.64 32.233-10.196q2.2882-0.72382 1.5644-3.0121l-2.3351-7.382q-0.72382-2.2882-3.0121-1.5644l-32.233 10.196q-2.2882 0.72382-1.5644 3.0121l2.3351 7.382q0.72382 2.2882 3.0121 1.5644z" clip-path="url(#a)" fill="#fff" stroke="#fff"/>
<g clip-path="url(#a)">
<g transform="translate(258.35 366.76) rotate(-17.553) scale(.08 -.08)">
<use xlink:href="#j"/>
<use x="44.083984" xlink:href="#e"/>
<use x="105.607422" xlink:href="#k"/>
<use x="144.970703" xlink:href="#l"/>
<use x="242.382812" xlink:href="#g"/>
<use x="270.166016" xlink:href="#f"/>
<use x="333.544922" xlink:href="#h"/>
<use x="394.824219" xlink:href="#i"/>
</g>
</g>
<path d="m396.54 360.44 32.233 10.196q2.2882 0.72382 3.0121-1.5644l2.3351-7.382q0.72382-2.2882-1.5644-3.0121l-32.233-10.196q-2.2882-0.72382-3.0121 1.5644l-2.3351 7.382q-0.72382 2.2882 1.5644 3.0121z" clip-path="url(#a)" fill="#fff" stroke="#fff"/>
<g clip-path="url(#a)">
<g transform="translate(397.76 356.57) rotate(17.553) scale(.08 -.08)">
<use xlink:href="#j"/>
<use x="44.083984" xlink:href="#e"/>
<use x="105.607422" xlink:href="#k"/>
<use x="144.970703" xlink:href="#l"/>
<use x="242.382812" xlink:href="#g"/>
<use x="270.166016" xlink:href="#f"/>
<use x="333.544922" xlink:href="#h"/>
<use x="394.824219" xlink:href="#i"/>
</g>
</g>
<path d="m284.61 297.91 3.1796-4.5596q1.3728-1.9686-0.59579-3.3414l-6.3508-4.4288q-1.9686-1.3728-3.3414 0.59579l-3.1796 4.5596q-1.3728 1.9686 0.59579 3.3414l6.3508 4.4288q1.9686 1.3728 3.3414-0.59579z" clip-path="url(#a)" fill="#fff" stroke="#fff"/>
<g clip-path="url(#a)">
<defs>
<path id="z" d="m44.391 34.188q3.1719-1.0781 6.1719-4.5938t6.0312-9.6719l10.016-19.922h-10.609l-9.3125 18.703q-3.625 7.3281-7.0156 9.7188t-9.25 2.3906h-10.75v-30.812h-9.8594v72.906h22.266q12.5 0 18.656-5.2344 6.1562-5.2188 6.1562-15.766 0-6.8906-3.2031-11.438-3.2031-4.5312-9.2969-6.2812zm-24.719 30.609v-25.875h12.406q7.125 0 10.766 3.2969t3.6406 9.6875-3.6406 9.6406-10.766 3.25z"/>
</defs>
<g transform="translate(281.28 295.58) rotate(-55.11) scale(.08 -.08)">
<use xlink:href="#z"/>
</g>
</g>
<path d="m312.5 295.63 0.73067-5.5383q0.31392-2.3794-2.0655-2.6933l-7.676-1.0127q-2.3794-0.31392-2.6933 2.0655l-0.73067 5.5383q-0.31392 2.3794 2.0655 2.6933l7.676 1.0127q2.3794 0.31392 2.6933-2.0655z" clip-path="url(#a)" fill="#fff" stroke="#fff"/>
<g clip-path="url(#a)">
<g transform="translate(308.47 295.1) rotate(-82.484) scale(.08 -.08)">
<use xlink:href="#p"/>
</g>
</g>
<path d="m344.74 273.53 4.326 2.6151q2.0539 1.2416 3.2955-0.8123l4.0054-6.6259q1.2416-2.0539-0.8123-3.2955l-4.326-2.6151q-2.0539-1.2416-3.2955 0.8123l-4.0054 6.6259q-1.2416 2.0539 0.8123 3.2955z" clip-path="url(#a)" fill="#fff" stroke="#fff"/>
<g clip-path="url(#a)">
<g transform="translate(346.84 270.05) rotate(31.153) scale(.08 -.08)">
<use xlink:href="#ab"/>
</g>
</g>
<path d="m243.22 342.65v33.808q0 2.4 2.4 2.4h7.7425q2.4 0 2.4-2.4v-33.808q0-2.4-2.4-2.4h-7.7425q-2.4 0-2.4 2.4z" clip-path="url(#a)" fill="#fff" stroke="#fff"/>
<g clip-path="url(#a)">
<g transform="translate(247.29 342.65) rotate(90) scale(.08 -.08)">
<use xlink:href="#j"/>
<use x="44.083984" xlink:href="#e"/>
<use x="105.607422" xlink:href="#k"/>
<use x="144.970703" xlink:href="#l"/>
<use x="242.382812" xlink:href="#g"/>
<use x="270.166016" xlink:href="#f"/>
<use x="333.544922" xlink:href="#h"/>
<use x="394.824219" xlink:href="#i"/>
</g>
</g>
<path d="m294.4 342.65v33.808q0 2.4 2.4 2.4h7.7425q2.4 0 2.4-2.4v-33.808q0-2.4-2.4-2.4h-7.7425q-2.4 0-2.4 2.4z" clip-path="url(#a)" fill="#fff" stroke="#fff"/>
<g clip-path="url(#a)">
<g transform="translate(298.47 342.65) rotate(90) scale(.08 -.08)">
<use xlink:href="#j"/>
<use x="44.083984" xlink:href="#e"/>
<use x="105.607422" xlink:href="#k"/>
<use x="144.970703" xlink:href="#l"/>
<use x="242.382812" xlink:href="#g"/>
<use x="270.166016" xlink:href="#f"/>
<use x="333.544922" xlink:href="#h"/>
<use x="394.824219" xlink:href="#i"/>
</g>
</g>
<path d="m375.95 320.56 3.1266-4.5961q1.3499-1.9844-0.63443-3.3343l-6.4016-4.3549q-1.9844-1.3499-3.3343 0.63442l-3.1266 4.5961q-1.3499 1.9844 0.63443 3.3343l6.4016 4.3549q1.9844 1.3499 3.3343-0.63443z" clip-path="url(#a)" fill="#fff" stroke="#fff"/>
<g clip-path="url(#a)">
<g transform="translate(372.59 318.27) rotate(-55.773) scale(.08 -.08)">
<use xlink:href="#z"/>
</g>
</g>
<path d="m396.27 315.95 3.1421 4.6188q1.3499 1.9844 3.3343 0.63443l6.4016-4.3549q1.9844-1.3499 0.63442-3.3343l-3.1421-4.6188q-1.3499-1.9844-3.3343-0.63443l-6.4016 4.3549q-1.9844 1.3499-0.63442 3.3343z" clip-path="url(#a)" fill="#fff" stroke="#fff"/>
<g clip-path="url(#a)">
<g transform="translate(399.63 313.66) rotate(55.773) scale(.08 -.08)">
<use xlink:href="#p"/>
</g>
</g>
<path d="m350.7 342.65v33.808q0 2.4 2.4 2.4h7.7425q2.4 0 2.4-2.4v-33.808q0-2.4-2.4-2.4h-7.7425q-2.4 0-2.4 2.4z" clip-path="url(#a)" fill="#fff" stroke="#fff"/>
<g clip-path="url(#a)">
<g transform="translate(354.76 342.65) rotate(90) scale(.08 -.08)">
<use xlink:href="#j"/>
<use x="44.083984" xlink:href="#e"/>
<use x="105.607422" xlink:href="#k"/>
<use x="144.970703" xlink:href="#l"/>
<use x="242.382812" xlink:href="#g"/>
<use x="270.166016" xlink:href="#f"/>
<use x="333.544922" xlink:href="#h"/>
<use x="394.824219" xlink:href="#i"/>
</g>
</g>
<path d="m412.11 342.65v33.808q0 2.4 2.4 2.4h7.7425q2.4 0 2.4-2.4v-33.808q0-2.4-2.4-2.4h-7.7425q-2.4 0-2.4 2.4z" clip-path="url(#a)" fill="#fff" stroke="#fff"/>
<g clip-path="url(#a)">
<g transform="translate(416.18 342.65) rotate(90) scale(.08 -.08)">
<use xlink:href="#j"/>
<use x="44.083984" xlink:href="#e"/>
<use x="105.607422" xlink:href="#k"/>
<use x="144.970703" xlink:href="#l"/>
<use x="242.382812" xlink:href="#g"/>
<use x="270.166016" xlink:href="#f"/>
<use x="333.544922" xlink:href="#h"/>
<use x="394.824219" xlink:href="#i"/>
</g>
</g>
<path d="m28.274 342.65v33.808q0 2.4 2.4 2.4h7.7425q2.4 0 2.4-2.4v-33.808q0-2.4-2.4-2.4h-7.7425q-2.4 0-2.4 2.4z" clip-path="url(#a)" fill="#fff" stroke="#fff"/>
<g clip-path="url(#a)">
<g transform="translate(32.338 342.65) rotate(90) scale(.08 -.08)">
<use xlink:href="#j"/>
<use x="44.083984" xlink:href="#e"/>
<use x="105.607422" xlink:href="#k"/>
<use x="144.970703" xlink:href="#l"/>
<use x="242.382812" xlink:href="#g"/>
<use x="270.166016" xlink:href="#f"/>
<use x="333.544922" xlink:href="#h"/>
<use x="394.824219" xlink:href="#i"/>
</g>
</g>
<path d="m43.628 342.65v33.808q0 2.4 2.4 2.4h7.7425q2.4 0 2.4-2.4v-33.808q0-2.4-2.4-2.4h-7.7425q-2.4 0-2.4 2.4z" clip-path="url(#a)" fill="#fff" stroke="#fff"/>
<g clip-path="url(#a)">
<g transform="translate(47.691 342.65) rotate(90) scale(.08 -.08)">
<use xlink:href="#j"/>
<use x="44.083984" xlink:href="#e"/>
<use x="105.607422" xlink:href="#k"/>
<use x="144.970703" xlink:href="#l"/>
<use x="242.382812" xlink:href="#g"/>
<use x="270.166016" xlink:href="#f"/>
<use x="333.544922" xlink:href="#h"/>
<use x="394.824219" xlink:href="#i"/>
</g>
</g>
<path d="m120.4 342.65v33.808q0 2.4 2.4 2.4h7.7425q2.4 0 2.4-2.4v-33.808q0-2.4-2.4-2.4h-7.7425q-2.4 0-2.4 2.4z" clip-path="url(#a)" fill="#fff" stroke="#fff"/>
<g clip-path="url(#a)">
<g transform="translate(124.46 342.65) rotate(90) scale(.08 -.08)">
<use xlink:href="#j"/>
<use x="44.083984" xlink:href="#e"/>
<use x="105.607422" xlink:href="#k"/>
<use x="144.970703" xlink:href="#l"/>
<use x="242.382812" xlink:href="#g"/>
<use x="270.166016" xlink:href="#f"/>
<use x="333.544922" xlink:href="#h"/>
<use x="394.824219" xlink:href="#i"/>
</g>
</g>
<path d="m550.29 342.65v33.808q0 2.4 2.4 2.4h7.7425q2.4 0 2.4-2.4v-33.808q0-2.4-2.4-2.4h-7.7425q-2.4 0-2.4 2.4z" clip-path="url(#a)" fill="#fff" stroke="#fff"/>
<g clip-path="url(#a)">
<g transform="translate(554.36 342.65) rotate(90) scale(.08 -.08)">
<use xlink:href="#j"/>
<use x="44.083984" xlink:href="#e"/>
<use x="105.607422" xlink:href="#k"/>
<use x="144.970703" xlink:href="#l"/>
<use x="242.382812" xlink:href="#g"/>
<use x="270.166016" xlink:href="#f"/>
<use x="333.544922" xlink:href="#h"/>
<use x="394.824219" xlink:href="#i"/>
</g>
</g>
<path d="m627.06 342.65v33.808q0 2.4 2.4 2.4h7.7425q2.4 0 2.4-2.4v-33.808q0-2.4-2.4-2.4h-7.7425q-2.4 0-2.4 2.4z" clip-path="url(#a)" fill="#fff" stroke="#fff"/>
<g clip-path="url(#a)">
<g transform="translate(631.13 342.65) rotate(90) scale(.08 -.08)">
<use xlink:href="#j"/>
<use x="44.083984" xlink:href="#e"/>
<use x="105.607422" xlink:href="#k"/>
<use x="144.970703" xlink:href="#l"/>
<use x="242.382812" xlink:href="#g"/>
<use x="270.166016" xlink:href="#f"/>
<use x="333.544922" xlink:href="#h"/>
<use x="394.824219" xlink:href="#i"/>
</g>
</g>
<path d="m708.95 342.65v33.808q0 2.4 2.4 2.4h7.7425q2.4 0 2.4-2.4v-33.808q0-2.4-2.4-2.4h-7.7425q-2.4 0-2.4 2.4z" clip-path="url(#a)" fill="#fff" stroke="#fff"/>
<g clip-path="url(#a)">
<g transform="translate(713.01 342.65) rotate(90) scale(.08 -.08)">
<use xlink:href="#j"/>
<use x="44.083984" xlink:href="#e"/>
<use x="105.607422" xlink:href="#k"/>
<use x="144.970703" xlink:href="#l"/>
<use x="242.382812" xlink:href="#g"/>
<use x="270.166016" xlink:href="#f"/>
<use x="333.544922" xlink:href="#h"/>
<use x="394.824219" xlink:href="#i"/>
</g>
</g>
<defs>
<path id="b" d="m0 8.6603c2.2967 0 4.4997-0.9125 6.1237-2.5365 1.624-1.624 2.5365-3.827 2.5365-6.1237s-0.9125-4.4997-2.5365-6.1237c-1.624-1.624-3.827-2.5365-6.1237-2.5365s-4.4997 0.9125-6.1237 2.5365c-1.624 1.624-2.5365 3.827-2.5365 6.1237s0.9125 4.4997 2.5365 6.1237c1.624 1.624 3.827 2.5365 6.1237 2.5365z"/>
</defs>
<g clip-path="url(#a)" fill="#ffffff" stroke="#ffffff">
<use x="34.545455" y="381.818182" xlink:href="#b"/>
<use x="49.89899" y="381.818182" xlink:href="#b"/>
<use x="70.37037" y="381.818182" xlink:href="#b"/>
<use x="95.959596" y="381.818182" xlink:href="#b"/>
<use x="126.666667" y="381.818182" xlink:href="#b"/>
<use x="162.491582" y="381.818182" xlink:href="#b"/>
<use x="203.434343" y="381.818182" xlink:href="#b"/>
<use x="249.494949" y="381.818182" xlink:href="#b"/>
<use x="300.673401" y="381.818182" xlink:href="#b"/>
<use x="356.969697" y="381.818182" xlink:href="#b"/>
<use x="418.383838" y="381.818182" xlink:href="#b"/>
<use x="484.915825" y="381.818182" xlink:href="#b"/>
<use x="556.565657" y="381.818182" xlink:href="#b"/>
<use x="633.333333" y="381.818182" xlink:href="#b"/>
<use x="715.218855" y="381.818182" xlink:href="#b"/>
<use x="725.454545" y="109.874369" xlink:href="#b"/>
<use x="725.454545" y="109.874369" xlink:href="#b"/>
<use x="128.067981" y="18.181818" xlink:href="#b"/>
<use x="128.067981" y="64.060953" xlink:href="#b"/>
<use x="128.067981" y="109.874369" xlink:href="#b"/>
<use x="219.275293" y="155.611138" xlink:href="#b"/>
<use x="70.37037" y="337.299077" xlink:href="#b"/>
<use x="95.959596" y="337.299077" xlink:href="#b"/>
<use x="42.222222" y="292.160663" xlink:href="#b"/>
<use x="396.328363" y="201.25591" xlink:href="#b"/>
<use x="162.491582" y="337.299077" xlink:href="#b"/>
<use x="344.175084" y="337.299077" xlink:href="#b"/>
<use x="312.615039" y="246.785502" xlink:href="#b"/>
<use x="249.494949" y="337.299077" xlink:href="#b"/>
<use x="300.673401" y="337.299077" xlink:href="#b"/>
<use x="387.676768" y="292.160663" xlink:href="#b"/>
<use x="356.969697" y="337.299077" xlink:href="#b"/>
<use x="418.383838" y="337.299077" xlink:href="#b"/>
<use x="34.545455" y="337.299077" xlink:href="#b"/>
<use x="49.89899" y="337.299077" xlink:href="#b"/>
<use x="126.666667" y="337.299077" xlink:href="#b"/>
<use x="556.565657" y="337.299077" xlink:href="#b"/>
<use x="633.333333" y="337.299077" xlink:href="#b"/>
<use x="715.218855" y="337.299077" xlink:href="#b"/>
</g>
<g clip-path="url(#a)">
<defs>
<path id="ak" d="m3.3281 72.906h9.9531l15.328-61.625 15.281 61.625h11.094l15.328-61.625 15.281 61.625h10.016l-18.312-72.906h-12.406l-15.375 63.281-15.531-63.281h-12.406z"/>
<path id="av" d="m2.9844 54.688h9.5156l17.094-45.891 17.094 45.891h9.5156l-20.516-54.688h-12.203z"/>
</defs>
<g transform="translate(16.435 384.58) scale(.1 -.1)">
<use xlink:href="#ak"/>
<use x="96.626953" xlink:href="#g"/>
<use x="124.410156" xlink:href="#e"/>
<use x="185.933594" xlink:href="#av"/>
<use x="245.113281" xlink:href="#g"/>
<use x="272.896484" xlink:href="#e"/>
<use x="334.419922" xlink:href="#i"/>
</g>
</g>
<g clip-path="url(#a)">
<defs>
<path id="v" d="m9.8125 72.906h14.703l18.594-49.609 18.703 49.609h14.703v-72.906h-9.625v64.016l-18.797-50h-9.9062l-18.797 50v-64.016h-9.5781z"/>
</defs>
<g transform="translate(36.183 384.58) scale(.1 -.1)">
<use xlink:href="#v"/>
<use x="86.279297" xlink:href="#h"/>
<use x="147.558594" xlink:href="#f"/>
<use x="210.9375" xlink:href="#f"/>
</g>
</g>
<g clip-path="url(#a)">
<defs>
<path id="az" d="m45.406 27.984q0 9.7656-4.0312 15.125-4.0156 5.375-11.297 5.375-7.2188 0-11.25-5.375-4.0312-5.3594-4.0312-15.125 0-9.7188 4.0312-15.094t11.25-5.375q7.2812 0 11.297 5.375 4.0312 5.375 4.0312 15.094zm8.9844-21.203q0-13.953-6.2031-20.766-6.1875-6.8125-18.984-6.8125-4.7344 0-8.9375 0.70312t-8.1562 2.1719v8.7344q3.9531-2.1406 7.8125-3.1562 3.8594-1.0312 7.8594-1.0312 8.8438 0 13.234 4.6094t4.3906 13.938v4.4531q-2.7812-4.8438-7.125-7.2344t-10.406-2.3906q-10.047 0-16.203 7.6562-6.1562 7.6719-6.1562 20.328 0 12.688 6.1562 20.344 6.1562 7.6719 16.203 7.6719 6.0625 0 10.406-2.3906t7.125-7.2188v8.2969h8.9844z"/>
<path id="x" d="m8.5 21.578v33.109h8.9844v-32.766q0-7.7656 3.0156-11.656 3.0312-3.875 9.0938-3.875 7.2656 0 11.484 4.6406 4.2344 4.6406 4.2344 12.656v31h8.9844v-54.688h-8.9844v8.4062q-3.2656-4.9844-7.5938-7.4062-4.3125-2.4219-10.031-2.4219-9.4219 0-14.312 5.8594-4.875 5.8594-4.875 17.141z"/>
<path id="y" d="m48.688 27.297q0 9.9062-4.0781 15.547t-11.203 5.6406q-7.1406 0-11.219-5.6406t-4.0781-15.547 4.0781-15.547 11.219-5.6406q7.125 0 11.203 5.6406t4.0781 15.547zm-30.578 19.094q2.8438 4.875 7.1562 7.2344 4.3281 2.375 10.328 2.375 9.9688 0 16.188-7.9062 6.2344-7.9062 6.2344-20.797t-6.2344-20.812q-6.2188-7.9062-16.188-7.9062-6 0-10.328 2.375-4.3125 2.375-7.1562 7.25v-8.2031h-9.0312v75.984h9.0312z"/>
</defs>
<g transform="translate(50.155 384.58) scale(.1 -.1)">
<use xlink:href="#az"/>
<use x="63.476562" xlink:href="#i"/>
<use x="91.259766" xlink:href="#h"/>
<use x="152.539062" xlink:href="#x"/>
<use x="215.917969" xlink:href="#y"/>
<use x="279.394531" xlink:href="#e"/>
<use x="340.917969" xlink:href="#f"/>
</g>
</g>
<g clip-path="url(#a)">
<g transform="translate(88.32 384.58) scale(.1 -.1)">
<use xlink:href="#u"/>
<use x="63.476562" xlink:href="#g"/>
<use x="91.259766" xlink:href="#e"/>
</g>
</g>
<g clip-path="url(#a)">
<defs>
<path id="as" d="m11.719 12.406h10.297v-8.4062l-8-15.625h-6.2969l4 15.625z"/>
</defs>
<g transform="translate(125.08 384.58) scale(.1 -.1)">
<use xlink:href="#as"/>
</g>
</g>
<g clip-path="url(#a)">
<defs>
<path id="t" d="m45.406 46.391v29.594h8.9844v-75.984h-8.9844v8.2031q-2.8281-4.875-7.1562-7.25-4.3125-2.375-10.375-2.375-9.9062 0-16.141 7.9062-6.2188 7.9219-6.2188 20.812t6.2188 20.797q6.2344 7.9062 16.141 7.9062 6.0625 0 10.375-2.375 4.3281-2.3594 7.1562-7.2344zm-30.609-19.094q0-9.9062 4.0781-15.547t11.203-5.6406 11.219 5.6406q4.1094 5.6406 4.1094 15.547t-4.1094 15.547q-4.0938 5.6406-11.219 5.6406t-11.203-5.6406-4.0781-15.547z"/>
<path id="s" d="m44.281 53.078v-8.5q-3.7969 1.9531-7.9062 2.9219-4.0938 0.98438-8.5 0.98438-6.6875 0-10.031-2.0469t-3.3438-6.1562q0-3.125 2.3906-4.9062t9.625-3.3906l3.0781-0.6875q9.5625-2.0469 13.594-5.7812t4.0312-10.422q0-7.625-6.0312-12.078-6.0312-4.4375-16.578-4.4375-4.3906 0-9.1562 0.85938t-10.031 2.5625v9.2812q4.9844-2.5938 9.8125-3.8906 4.8281-1.2812 9.5781-1.2812 6.3438 0 9.75 2.1719 3.4219 2.1719 3.4219 6.125 0 3.6562-2.4688 5.6094-2.4531 1.9531-10.812 3.7656l-3.125 0.73438q-8.3438 1.75-12.062 5.3906-3.7031 3.6406-3.7031 9.9844 0 7.7188 5.4688 11.906 5.4688 4.2031 15.531 4.2031 4.9688 0 9.3594-0.73438 4.4062-0.71875 8.1094-2.1875z"/>
</defs>
<g transform="translate(151.04 384.58) scale(.1 -.1)">
<use xlink:href="#t"/>
<use x="63.476562" xlink:href="#h"/>
<use x="124.755859" xlink:href="#s"/>
<use x="176.855469" xlink:href="#s"/>
</g>
</g>
<g clip-path="url(#a)">
<defs>
<path id="aj" d="m48.781 52.594v-8.4062q-3.8125 2.1094-7.6406 3.1562t-7.7344 1.0469q-8.75 0-13.594-5.5469-4.8281-5.5312-4.8281-15.547t4.8281-15.562q4.8438-5.5312 13.594-5.5312 3.9062 0 7.7344 1.0469t7.6406 3.1562v-8.3125q-3.7656-1.75-7.7969-2.625-4.0156-0.89062-8.5625-0.89062-12.359 0-19.641 7.7656-7.2656 7.7656-7.2656 20.953 0 13.375 7.3438 21.031 7.3594 7.6719 20.156 7.6719 4.1406 0 8.0938-0.85938 3.9531-0.84375 7.6719-2.5469z"/>
<path id="ay" d="m54.891 33.016v-33.016h-8.9844v32.719q0 7.7656-3.0312 11.609-3.0312 3.8594-9.0781 3.8594-7.2812 0-11.484-4.6406-4.2031-4.625-4.2031-12.641v-30.906h-9.0312v75.984h9.0312v-29.797q3.2344 4.9375 7.5938 7.375 4.375 2.4375 10.094 2.4375 9.4219 0 14.25-5.8281 4.8438-5.8281 4.8438-17.156z"/>
</defs>
<g transform="translate(193.52 384.58) scale(.1 -.1)">
<use xlink:href="#s"/>
<use x="52.099609" xlink:href="#g"/>
<use x="79.882812" xlink:href="#aj"/>
<use x="134.863281" xlink:href="#ay"/>
</g>
</g>
<g clip-path="url(#a)">
<g transform="translate(243.26 384.58) scale(.1 -.1)">
<use xlink:href="#h"/>
<use x="61.279297" xlink:href="#f"/>
</g>
</g>
<g clip-path="url(#a)">
<defs>
<path id="aq" d="m19.672 34.812v-26.703h15.828q7.9531 0 11.781 3.2969 3.8438 3.2969 3.8438 10.078 0 6.8438-3.8438 10.078-3.8281 3.25-11.781 3.25zm0 29.984v-21.969h14.609q7.2188 0 10.75 2.7031 3.5469 2.7188 3.5469 8.2812 0 5.5156-3.5469 8.25-3.5312 2.7344-10.75 2.7344zm-9.8594 8.1094h25.203q11.281 0 17.375-4.6875 6.1094-4.6875 6.1094-13.328 0-6.7031-3.125-10.656t-9.1875-4.9219q7.2812-1.5625 11.312-6.5312 4.0312-4.9531 4.0312-12.375 0-9.7656-6.6406-15.094-6.6406-5.3125-18.906-5.3125h-26.172z"/>
<path id="ax" d="m30.609 48.391q-7.2188 0-11.422-5.6406t-4.2031-15.453 4.1719-15.453q4.1875-5.6406 11.453-5.6406 7.1875 0 11.375 5.6562 4.2031 5.6719 4.2031 15.438 0 9.7188-4.2031 15.406-4.1875 5.6875-11.375 5.6875zm0 7.6094q11.719 0 18.406-7.625 6.7031-7.6094 6.7031-21.078 0-13.422-6.7031-21.078-6.6875-7.6406-18.406-7.6406-11.766 0-18.438 7.6406-6.6562 7.6562-6.6562 21.078 0 13.469 6.6562 21.078 6.6719 7.625 18.438 7.625z"/>
</defs>
<g transform="translate(289.04 384.58) scale(.1 -.1)">
<use xlink:href="#aq"/>
<use x="68.603516" xlink:href="#ax"/>
<use x="129.785156" xlink:href="#k"/>
<use x="169.148438" xlink:href="#t"/>
</g>
</g>
<g clip-path="url(#a)">
<g transform="translate(348.66 384.58) scale(.1 -.1)">
<use xlink:href="#t"/>
<use x="63.476562" xlink:href="#e"/>
<use x="125" xlink:href="#k"/>
</g>
</g>
<g clip-path="url(#a)">
<defs>
<path id="al" d="m9.4219 51.703 22.906-20.406v-4l-22.906-20.406v9.3281l14.703 13.078-14.703 13.094z"/>
<path id="an" d="m9.8125 72.906h13.281l32.328-60.984v60.984h9.5625v-72.906h-13.281l-32.312 60.984v-60.984h-9.5781z"/>
<path id="aw" d="m18.312 70.219v-15.531h18.5v-6.9844h-18.5v-29.688q0-6.6875 1.8281-8.5938t7.4531-1.9062h9.2188v-7.5156h-9.2188q-10.406 0-14.359 3.875-3.9531 3.8906-3.9531 14.141v29.688h-6.5938v6.9844h6.5938v15.531z"/>
<path id="am" d="m30.609 51.703v-9.3125l-14.688-13.094 14.688-13.078v-9.3281l-22.891 20.406v4z"/>
</defs>
<g transform="translate(393.9 384.58) scale(.1 -.1)">
<use xlink:href="#al"/>
<use x="39.990234" xlink:href="#an"/>
<use x="114.794922" xlink:href="#h"/>
<use x="176.074219" xlink:href="#x"/>
<use x="239.453125" xlink:href="#aw"/>
<use x="278.662109" xlink:href="#g"/>
<use x="306.445312" xlink:href="#i"/>
<use x="334.228516" xlink:href="#x"/>
<use x="397.607422" xlink:href="#s"/>
<use x="449.707031" xlink:href="#am"/>
</g>
</g>
<g clip-path="url(#a)">
<defs>
<path id="ba" d="m37.109 75.984v-7.4844h-8.5938q-4.8281 0-6.7188-1.9531-1.875-1.9531-1.875-7.0312v-4.8281h14.797v-6.9844h-14.797v-47.703h-9.0312v47.703h-8.5938v6.9844h8.5938v3.8125q0 9.125 4.25 13.297 4.25 4.1875 13.469 4.1875z"/>
</defs>
<g transform="translate(462.93 384.58) scale(.1 -.1)">
<use xlink:href="#y"/>
<use x="63.476562" xlink:href="#e"/>
<use x="125" xlink:href="#ba"/>
<use x="160.205078" xlink:href="#g"/>
<use x="187.988281" xlink:href="#f"/>
<use x="251.367188" xlink:href="#t"/>
<use x="314.84375" xlink:href="#e"/>
<use x="376.367188" xlink:href="#f"/>
</g>
</g>
<g clip-path="url(#a)">
<defs>
<path id="ar" d="m19.094 12.406h9.9062v-12.406h-9.9062zm9.625 7.1719h-9.3281v7.5156q0 4.9375 1.3594 8.1094 1.375 3.1719 5.7656 7.375l4.3906 4.3438q2.7812 2.5938 4.0312 4.8906t1.25 4.6875q0 4.3438-3.2031 7.0312t-8.4688 2.6875q-3.8594 0-8.2344-1.7188-4.3594-1.7031-9.1094-4.9844v9.1875q4.5938 2.7812 9.2969 4.1406 4.7188 1.375 9.75 1.375 8.9844 0 14.422-4.7344 5.4531-4.7344 5.4531-12.5 0-3.7188-1.7656-7.0625-1.75-3.3438-6.1406-7.5312l-4.2969-4.2031q-2.2969-2.2969-3.25-3.5938t-1.3438-2.5156q-0.29688-1.0156-0.4375-2.4844t-0.14062-4z"/>
</defs>
<g transform="translate(553.91 384.58) scale(.1 -.1)">
<use xlink:href="#ar"/>
</g>
</g>
<g clip-path="url(#a)">
<defs>
<path id="au" d="m51.812 51.703v-9.3125l-14.703-13.094 14.703-13.078v-9.3281l-22.906 20.406v4zm-21.203 0v-9.3125l-14.688-13.094 14.688-13.078v-9.3281l-22.891 20.406v4z"/>
</defs>
<g transform="translate(630.27 384.58) scale(.1 -.1)">
<use xlink:href="#au"/>
</g>
</g>
<g clip-path="url(#a)">
<defs>
<path id="at" d="m9.4219 51.703 22.906-20.406v-4l-22.906-20.406v9.3281l14.703 13.078-14.703 13.094zm21.188 0 22.906-20.406v-4l-22.906-20.406v9.3281l14.703 13.078-14.703 13.094z"/>
</defs>
<g transform="translate(712.16 384.58) scale(.1 -.1)">
<use xlink:href="#at"/>
</g>
</g>
<g clip-path="url(#a)">
<defs>
<path id="o" d="m9.8125 72.906h9.8594v-72.906h-9.8594z"/>
<path id="aa" d="m9.8125 72.906h9.8594v-64.609h35.5v-8.2969h-45.359z"/>
</defs>
<g transform="translate(704.37 112.63) scale(.1 -.1)">
<use xlink:href="#o"/>
<use x="29.492188" xlink:href="#v"/>
<use x="115.771484" xlink:href="#r"/>
<use x="176.074219" xlink:href="#aa"/>
<use x="231.787109" xlink:href="#o"/>
<use x="261.279297" xlink:href="#p"/>
<use x="331.103516" xlink:href="#o"/>
<use x="360.595703" xlink:href="#j"/>
</g>
</g>
<g clip-path="url(#a)">
<g transform="translate(704.37 112.63) scale(.1 -.1)">
<use xlink:href="#o"/>
<use x="29.492188" xlink:href="#v"/>
<use x="115.771484" xlink:href="#r"/>
<use x="176.074219" xlink:href="#aa"/>
<use x="231.787109" xlink:href="#o"/>
<use x="261.279297" xlink:href="#p"/>
<use x="331.103516" xlink:href="#o"/>
<use x="360.595703" xlink:href="#j"/>
</g>
</g>
<g clip-path="url(#a)">
<defs>
<path id="c" d="m12.406 8.2969h16.109v55.625l-17.531-3.5156v8.9844l17.438 3.5156h9.8594v-64.609h16.109v-8.2969h-41.984z"/>
<path id="d" d="m10.688 12.406h10.312v-12.406h-10.312z"/>
</defs>
<g transform="translate(120.12 20.941) scale(.1 -.1)">
<use xlink:href="#c"/>
<use x="63.623047" xlink:href="#d"/>
<use x="95.410156" xlink:href="#c"/>
</g>
</g>
<g clip-path="url(#a)">
<defs>
<path id="m" d="m19.188 8.2969h34.422v-8.2969h-46.281v8.2969q5.6094 5.8125 15.297 15.594 9.7031 9.7969 12.188 12.641 4.7344 5.3125 6.6094 9 1.8906 3.6875 1.8906 7.25 0 5.8125-4.0781 9.4688-4.0781 3.6719-10.625 3.6719-4.6406 0-9.7969-1.6094-5.1406-1.6094-11-4.8906v9.9688q5.9531 2.3906 11.125 3.6094 5.1875 1.2188 9.4844 1.2188 11.328 0 18.062-5.6719 6.7344-5.6562 6.7344-15.125 0-4.5-1.6875-8.5312-1.6719-4.0156-6.125-9.4844-1.2188-1.4219-7.7656-8.1875-6.5312-6.7656-18.453-18.922z"/>
</defs>
<g transform="translate(120.12 66.82) scale(.1 -.1)">
<use xlink:href="#c"/>
<use x="63.623047" xlink:href="#d"/>
<use x="95.410156" xlink:href="#m"/>
</g>
</g>
<g clip-path="url(#a)">
<defs>
<path id="w" d="m31.781 34.625q-7.0312 0-11.062-3.7656-4.0156-3.7656-4.0156-10.344 0-6.5938 4.0156-10.359 4.0312-3.7656 11.062-3.7656t11.078 3.7812q4.0625 3.7969 4.0625 10.344 0 6.5781-4.0312 10.344-4.0156 3.7656-11.109 3.7656zm-9.8594 4.1875q-6.3438 1.5625-9.8906 5.9062-3.5312 4.3594-3.5312 10.609 0 8.7344 6.2188 13.812 6.2344 5.0781 17.062 5.0781 10.891 0 17.094-5.0781t6.2031-13.812q0-6.25-3.5469-10.609-3.5312-4.3438-9.8281-5.9062 7.125-1.6562 11.094-6.5 3.9844-4.8281 3.9844-11.797 0-10.609-6.4688-16.281-6.4688-5.6562-18.531-5.6562-12.047 0-18.531 5.6562-6.4688 5.6719-6.4688 16.281 0 6.9688 4 11.797 4.0156 4.8438 11.141 6.5zm-3.6094 15.578q0-5.6562 3.5312-8.8281 3.5469-3.1719 9.9375-3.1719 6.3594 0 9.9375 3.1719 3.5938 3.1719 3.5938 8.8281 0 5.6719-3.5938 8.8438-3.5781 3.1719-9.9375 3.1719-6.3906 0-9.9375-3.1719-3.5312-3.1719-3.5312-8.8438z"/>
</defs>
<g transform="translate(120.12 112.63) scale(.1 -.1)">
<use xlink:href="#c"/>
<use x="63.623047" xlink:href="#d"/>
<use x="95.410156" xlink:href="#w"/>
</g>
</g>
<g clip-path="url(#a)">
<defs>
<path id="ac" d="m10.984 1.5156v8.9844q3.7188-1.7656 7.5156-2.6875 3.8125-0.92188 7.4844-0.92188 9.7656 0 14.906 6.5625 5.1562 6.5625 5.8906 19.953-2.8281-4.2031-7.1875-6.4531-4.3438-2.25-9.6094-2.25-10.938 0-17.312 6.6094-6.375 6.625-6.375 18.109 0 11.219 6.6406 18 6.6406 6.7969 17.672 6.7969 12.656 0 19.312-9.7031 6.6719-9.6875 6.6719-28.141 0-17.234-8.1875-27.516-8.1719-10.281-21.984-10.281-3.7188 0-7.5312 0.73438-3.7969 0.73438-7.9062 2.2031zm19.625 30.906q6.6406 0 10.516 4.5312 3.8906 4.5469 3.8906 12.469 0 7.8594-3.8906 12.422-3.875 4.5625-10.516 4.5625t-10.516-4.5625-3.875-12.422q0-7.9219 3.875-12.469 3.875-4.5312 10.516-4.5312z"/>
</defs>
<g transform="translate(211.32 158.37) scale(.1 -.1)">
<use xlink:href="#c"/>
<use x="63.623047" xlink:href="#d"/>
<use x="95.410156" xlink:href="#ac"/>
</g>
</g>
<g clip-path="url(#a)">
<defs>
<path id="ai" d="m31.781 66.406q-7.6094 0-11.453-7.5-3.8281-7.4844-3.8281-22.531 0-14.984 3.8281-22.484 3.8438-7.5 11.453-7.5 7.6719 0 11.5 7.5 3.8438 7.5 3.8438 22.484 0 15.047-3.8438 22.531-3.8281 7.5-11.5 7.5zm0 7.8125q12.266 0 18.734-9.7031 6.4688-9.6875 6.4688-28.141 0-18.406-6.4688-28.109-6.4688-9.6875-18.734-9.6875-12.25 0-18.719 9.6875-6.4688 9.7031-6.4688 28.109 0 18.453 6.4688 28.141 6.4688 9.7031 18.719 9.7031z"/>
</defs>
<g transform="translate(59.238 340.06) scale(.1 -.1)">
<use xlink:href="#c"/>
<use x="63.623047" xlink:href="#d"/>
<use x="95.410156" xlink:href="#c"/>
<use x="159.033203" xlink:href="#ai"/>
</g>
</g>
<g clip-path="url(#a)">
<g transform="translate(84.827 340.06) scale(.1 -.1)">
<use xlink:href="#c"/>
<use x="63.623047" xlink:href="#d"/>
<use x="95.410156" xlink:href="#c"/>
<use x="159.033203" xlink:href="#c"/>
</g>
</g>
<g clip-path="url(#a)">
<defs>
<path id="ah" d="m40.578 39.312q7.0781-1.5156 11.047-6.3125 3.9844-4.7812 3.9844-11.812 0-10.781-7.4219-16.703-7.4219-5.9062-21.094-5.9062-4.5781 0-9.4375 0.90625t-10.031 2.7188v9.5156q4.0938-2.3906 8.9688-3.6094 4.8906-1.2188 10.219-1.2188 9.2656 0 14.125 3.6562t4.8594 10.641q0 6.4531-4.5156 10.078-4.5156 3.6406-12.562 3.6406h-8.5v8.1094h8.8906q7.2656 0 11.125 2.9062t3.8594 8.375q0 5.6094-3.9844 8.6094-3.9688 3.0156-11.391 3.0156-4.0625 0-8.7031-0.89062-4.6406-0.875-10.203-2.7188v8.7812q5.625 1.5625 10.531 2.3438t9.25 0.78125q11.234 0 17.766-5.1094 6.5469-5.0938 6.5469-13.781 0-6.0625-3.4688-10.234t-9.8594-5.7812z"/>
</defs>
<g transform="translate(31.089 294.92) scale(.1 -.1)">
<use xlink:href="#c"/>
<use x="63.623047" xlink:href="#d"/>
<use x="95.410156" xlink:href="#c"/>
<use x="159.033203" xlink:href="#ah"/>
</g>
</g>
<g clip-path="url(#a)">
<defs>
<path id="ag" d="m37.797 64.312-24.906-38.922h24.906zm-2.5938 8.5938h12.406v-47.516h10.406v-8.2031h-10.406v-17.188h-9.8125v17.188h-32.906v9.5156z"/>
</defs>
<g transform="translate(385.2 204.02) scale(.1 -.1)">
<use xlink:href="#c"/>
<use x="63.623047" xlink:href="#d"/>
<use x="95.410156" xlink:href="#c"/>
<use x="159.033203" xlink:href="#ag"/>
</g>
</g>
<g clip-path="url(#a)">
<defs>
<path id="af" d="m10.797 72.906h38.719v-8.3125h-29.688v-17.859q2.1406 0.73438 4.2812 1.0938 2.1562 0.35938 4.3125 0.35938 12.203 0 19.328-6.6875 7.1406-6.6875 7.1406-18.109 0-11.766-7.3281-18.297-7.3281-6.5156-20.656-6.5156-4.5938 0-9.3594 0.78125-4.75 0.78125-9.8281 2.3438v9.9219q4.3906-2.3906 9.0781-3.5625t9.9062-1.1719q8.4531 0 13.375 4.4375 4.9375 4.4375 4.9375 12.062 0 7.6094-4.9375 12.047-4.9219 4.4531-13.375 4.4531-3.9531 0-7.8906-0.875-3.9219-0.875-8.0156-2.7344z"/>
</defs>
<g transform="translate(151.36 340.06) scale(.1 -.1)">
<use xlink:href="#c"/>
<use x="63.623047" xlink:href="#d"/>
<use x="95.410156" xlink:href="#c"/>
<use x="159.033203" xlink:href="#af"/>
</g>
</g>
<g clip-path="url(#a)">
<defs>
<path id="ae" d="m33.016 40.375q-6.6406 0-10.531-4.5469-3.875-4.5312-3.875-12.438 0-7.8594 3.875-12.438 3.8906-4.5625 10.531-4.5625t10.516 4.5625q3.875 4.5781 3.875 12.438 0 7.9062-3.875 12.438-3.875 4.5469-10.516 4.5469zm19.578 30.922v-8.9844q-3.7188 1.75-7.5 2.6719-3.7812 0.9375-7.5 0.9375-9.7656 0-14.922-6.5938-5.1406-6.5938-5.875-19.922 2.875 4.25 7.2188 6.5156 4.3594 2.2656 9.5781 2.2656 10.984 0 17.359-6.6719 6.375-6.6562 6.375-18.125 0-11.234-6.6406-18.031-6.6406-6.7812-17.672-6.7812-12.656 0-19.344 9.6875-6.6875 9.7031-6.6875 28.109 0 17.281 8.2031 27.562t22.016 10.281q3.7188 0 7.5-0.73438t7.8906-2.1875z"/>
</defs>
<g transform="translate(333.04 340.06) scale(.1 -.1)">
<use xlink:href="#c"/>
<use x="63.623047" xlink:href="#d"/>
<use x="95.410156" xlink:href="#c"/>
<use x="159.033203" xlink:href="#ae"/>
</g>
</g>
<g clip-path="url(#a)">
<defs>
<path id="ad" d="m8.2031 72.906h46.875v-4.2031l-26.469-68.703h-10.297l24.906 64.594h-35.016z"/>
</defs>
<g transform="translate(301.48 249.54) scale(.1 -.1)">
<use xlink:href="#c"/>
<use x="63.623047" xlink:href="#d"/>
<use x="95.410156" xlink:href="#c"/>
<use x="159.033203" xlink:href="#ad"/>
</g>
</g>
<g clip-path="url(#a)">
<g transform="translate(238.36 340.06) scale(.1 -.1)">
<use xlink:href="#c"/>
<use x="63.623047" xlink:href="#d"/>
<use x="95.410156" xlink:href="#c"/>
<use x="159.033203" xlink:href="#w"/>
</g>
</g>
<g clip-path="url(#a)">
<g transform="translate(289.54 340.06) scale(.1 -.1)">
<use xlink:href="#c"/>
<use x="63.623047" xlink:href="#d"/>
<use x="95.410156" xlink:href="#c"/>
<use x="159.033203" xlink:href="#ac"/>
</g>
</g>
<g clip-path="url(#a)">
<g transform="translate(376.54 294.92) scale(.1 -.1)">
<use xlink:href="#c"/>
<use x="63.623047" xlink:href="#d"/>
<use x="95.410156" xlink:href="#m"/>
<use x="159.033203" xlink:href="#ai"/>
</g>
</g>
<g clip-path="url(#a)">
<g transform="translate(345.84 340.06) scale(.1 -.1)">
<use xlink:href="#c"/>
<use x="63.623047" xlink:href="#d"/>
<use x="95.410156" xlink:href="#m"/>
<use x="159.033203" xlink:href="#c"/>
</g>
</g>
<g clip-path="url(#a)">
<g transform="translate(407.25 340.06) scale(.1 -.1)">
<use xlink:href="#c"/>
<use x="63.623047" xlink:href="#d"/>
<use x="95.410156" xlink:href="#m"/>
<use x="159.033203" xlink:href="#m"/>
</g>
</g>
<g clip-path="url(#a)">
<g transform="translate(23.413 340.06) scale(.1 -.1)">
<use xlink:href="#c"/>
<use x="63.623047" xlink:href="#d"/>
<use x="95.410156" xlink:href="#m"/>
<use x="159.033203" xlink:href="#ah"/>
</g>
</g>
<g clip-path="url(#a)">
<g transform="translate(38.766 340.06) scale(.1 -.1)">
<use xlink:href="#c"/>
<use x="63.623047" xlink:href="#d"/>
<use x="95.410156" xlink:href="#m"/>
<use x="159.033203" xlink:href="#ag"/>
</g>
</g>
<g clip-path="url(#a)">
<g transform="translate(115.53 340.06) scale(.1 -.1)">
<use xlink:href="#c"/>
<use x="63.623047" xlink:href="#d"/>
<use x="95.410156" xlink:href="#m"/>
<use x="159.033203" xlink:href="#af"/>
</g>
</g>
<g clip-path="url(#a)">
<g transform="translate(545.43 340.06) scale(.1 -.1)">
<use xlink:href="#c"/>
<use x="63.623047" xlink:href="#d"/>
<use x="95.410156" xlink:href="#m"/>
<use x="159.033203" xlink:href="#ae"/>
</g>
</g>
<g clip-path="url(#a)">
<g transform="translate(622.2 340.06) scale(.1 -.1)">
<use xlink:href="#c"/>
<use x="63.623047" xlink:href="#d"/>
<use x="95.410156" xlink:href="#m"/>
<use x="159.033203" xlink:href="#ad"/>
</g>
</g>
<g clip-path="url(#a)">
<g transform="translate(704.09 340.06) scale(.1 -.1)">
<use xlink:href="#c"/>
<use x="63.623047" xlink:href="#d"/>
<use x="95.410156" xlink:href="#m"/>
<use x="159.033203" xlink:href="#w"/>
</g>
</g>
<defs>
<clipPath id="a">
<rect width="760" height="400"/>
</clipPath>
</defs>
</svg>
