<?xml version="1.0" encoding="UTF-8"?>
<!DOCTYPE svg  PUBLIC '-//W3C//DTD SVG 1.1//EN'  'http://www.w3.org/Graphics/SVG/1.1/DTD/svg11.dtd'>
<svg width="1469.3pt" height="773.33pt" version="1.1" viewBox="0 0 1469.3 773.33" xmlns="http://www.w3.org/2000/svg" xmlns:xlink="http://www.w3.org/1999/xlink">
<defs>
<style type="text/css">*{stroke-linecap:butt;stroke-linejoin:round;}</style>
</defs>
<path d="m0 773.33h1469.3v-773.33h-1469.3z" fill="#fff"/>
<g fill="none" stroke="#000">
<path d="m662.02 36.065-595.03 587.89" clip-path="url(#a)"/>
<path d="m662.02 36.065-389.69 242.59" clip-path="url(#a)"/>
<path d="m662.02 36.065 215.72 587.89" clip-path="url(#a)"/>
<path d="m662.02 36.065 600.96 122.82" clip-path="url(#a)"/>
<path d="m662.02 36.065 168.03 587.89" clip-path="url(#a)"/>
<path d="m66.99 623.96v113.31" clip-path="url(#a)"/>
<path d="m272.33 278.65-157.65 345.3" clip-path="url(#a)"/>
<path d="m272.33 278.65-109.95 345.3" clip-path="url(#a)"/>
<path d="m272.33 278.65-62.263 345.3" clip-path="url(#a)"/>
<path d="m272.33 278.65-14.572 345.3" clip-path="url(#a)"/>
<path d="m272.33 278.65 311.32 117.1" clip-path="url(#a)"/>
<path d="m272.33 278.65 33.119 345.3" clip-path="url(#a)"/>
<path d="m877.74 623.96v113.31" clip-path="url(#a)"/>
<path d="m1263 158.88-199.77 119.77" clip-path="url(#a)"/>
<path d="m1263 158.88-51.4 465.07" clip-path="url(#a)"/>
<path d="m1263 158.88 20.136 351.76" clip-path="url(#a)"/>
<path d="m1263 158.88 91.673 465.07" clip-path="url(#a)"/>
<path d="m1263 158.88 139.36 465.07" clip-path="url(#a)"/>
<path d="m1063.2 278.65-137.77 345.3" clip-path="url(#a)"/>
<path d="m1063.2 278.65 37.093 117.1" clip-path="url(#a)"/>
<path d="m1063.2 278.65 100.68 345.3" clip-path="url(#a)"/>
<path d="m1211.6 623.96v113.31" clip-path="url(#a)"/>
<path d="m1283.1 510.64-23.846 113.31" clip-path="url(#a)"/>
<path d="m1283.1 510.64 23.846 113.31" clip-path="url(#a)"/>
<path d="m1354.7 623.96v113.31" clip-path="url(#a)"/>
<path d="m1259.3 623.96v113.31" clip-path="url(#a)"/>
<path d="m1307 623.96v113.31" clip-path="url(#a)"/>
<path d="m925.43 623.96v113.31" clip-path="url(#a)"/>
<path d="m1100.3 395.75 63.588 228.2" clip-path="url(#a)" stroke-dasharray="3.7,1.6"/>
<path d="m1100.3 395.75-79.485 114.89" clip-path="url(#a)"/>
<path d="m1100.3 395.75 15.897 228.2" clip-path="url(#a)"/>
<path d="m1163.9 623.96v113.31" clip-path="url(#a)"/>
<path d="m1020.8 510.64-47.691 113.31" clip-path="url(#a)"/>
<path d="m1020.8 510.64v113.31" clip-path="url(#a)"/>
<path d="m1020.8 510.64 47.691 113.31" clip-path="url(#a)"/>
<path d="m1116.2 623.96v113.31" clip-path="url(#a)"/>
<path d="m973.12 623.96v113.31" clip-path="url(#a)"/>
<path d="m1020.8 623.96v113.31" clip-path="url(#a)"/>
<path d="m1068.5 623.96v113.31" clip-path="url(#a)"/>
<path d="m114.68 623.96v113.31" clip-path="url(#a)"/>
<path d="m162.37 623.96v113.31" clip-path="url(#a)"/>
<path d="m210.06 623.96v113.31" clip-path="url(#a)"/>
<path d="m257.75 623.96v113.31" clip-path="url(#a)"/>
<path d="m583.64 395.75-230.51 228.2" clip-path="url(#a)"/>
<path d="m583.64 395.75-158.97 114.89" clip-path="url(#a)"/>
<path d="m583.64 395.75-39.743 114.89" clip-path="url(#a)"/>
<path d="m583.64 395.75 79.485 114.89" clip-path="url(#a)"/>
<path d="m583.64 395.75 151.02 228.2" clip-path="url(#a)"/>
<path d="m583.64 395.75 198.71 228.2" clip-path="url(#a)"/>
<path d="m353.14 623.96v113.31" clip-path="url(#a)"/>
<path d="m424.67 510.64-23.846 113.31" clip-path="url(#a)"/>
<path d="m424.67 510.64 23.846 113.31" clip-path="url(#a)"/>
<path d="m543.9 510.64-47.691 113.31" clip-path="url(#a)"/>
<path d="m543.9 510.64v113.31" clip-path="url(#a)"/>
<path d="m543.9 510.64 47.691 113.31" clip-path="url(#a)"/>
<path d="m663.13 510.64-23.846 113.31" clip-path="url(#a)"/>
<path d="m663.13 510.64 23.846 113.31" clip-path="url(#a)"/>
<path d="m734.67 623.96v113.31" clip-path="url(#a)"/>
<path d="m782.36 623.96v113.31" clip-path="url(#a)"/>
<path d="m639.28 623.96v113.31" clip-path="url(#a)"/>
<path d="m686.98 623.96v113.31" clip-path="url(#a)"/>
<path d="m496.21 623.96v113.31" clip-path="url(#a)"/>
<path d="m543.9 623.96v113.31" clip-path="url(#a)"/>
<path d="m591.59 623.96v113.31" clip-path="url(#a)"/>
<path d="m400.83 623.96v113.31" clip-path="url(#a)"/>
<path d="m448.52 623.96v113.31" clip-path="url(#a)"/>
<path d="m305.45 623.96v113.31" clip-path="url(#a)"/>
<path d="m830.05 623.96v113.31" clip-path="url(#a)"/>
<path d="m1402.3 623.96v113.31" clip-path="url(#a)"/>
</g>
<path d="m367.33 336.04 3.1709-3.1329q1.7073-1.6868 0.020476-3.3941l-5.4416-5.5077q-1.6868-1.7073-3.3941-0.020476l-3.1709 3.1329q-1.7073 1.6868-0.020477 3.394l5.4416 5.5077q1.6868 1.7073 3.394 0.020477z" clip-path="url(#a)" fill="#fff" stroke="#fff"/>
<g clip-path="url(#a)">
<defs>
<path id="ao" d="m9.8125 72.906h9.8594v-64.609h35.5v-8.2969h-45.359z"/>
</defs>
<g transform="translate(364.47 333.15) rotate(-44.654) scale(.08 -.08)">
<use xlink:href="#ao"/>
</g>
</g>
<path d="m467.93 164.27 5.1075-3.1795q2.0375-1.2684 0.76912-3.3058l-4.0918-6.573q-1.2684-2.0375-3.3058-0.76912l-5.1075 3.1795q-2.0375 1.2684-0.76912 3.3058l4.0918 6.573q1.2684 2.0375 3.3058 0.76912z" clip-path="url(#a)" fill="#fff" stroke="#fff"/>
<g clip-path="url(#a)">
<defs>
<path id="aa" d="m9.8125 72.906h9.8594v-29.891h35.844v29.891h9.8594v-72.906h-9.8594v34.719h-35.844v-34.719h-9.8594z"/>
</defs>
<g transform="translate(465.79 160.82) rotate(-31.903) scale(.08 -.08)">
<use xlink:href="#aa"/>
</g>
</g>
<path d="m763.22 330.08 1.5355 4.1847q0.82676 2.2531 3.0799 1.4263l7.2686-2.6672q2.2531-0.82676 1.4263-3.0799l-1.5355-4.1847q-0.82676-2.2531-3.0799-1.4263l-7.2686 2.6672q-2.2531 0.82676-1.4263 3.0799z" clip-path="url(#a)" fill="#fff" stroke="#fff"/>
<g clip-path="url(#a)">
<g transform="translate(767.04 328.68) rotate(69.85) scale(.08 -.08)">
<use xlink:href="#ao"/>
</g>
</g>
<path d="m958.3 103.02 5.8944 1.2046q2.3514 0.48055 2.832-1.8708l1.5503-7.5857q0.48055-2.3514-1.8708-2.832l-5.8944-1.2046q-2.3514-0.48055-2.832 1.8708l-1.5503 7.5857q-0.48055 2.3514 1.8708 2.832z" clip-path="url(#a)" fill="#fff" stroke="#fff"/>
<g clip-path="url(#a)">
<g transform="translate(959.11 99.035) rotate(11.55) scale(.08 -.08)">
<use xlink:href="#aa"/>
</g>
</g>
<path d="m739.2 328.92 1.6091 5.6296q0.65956 2.3076 2.9672 1.648l7.4444-2.1278q2.3076-0.65956 1.648-2.9672l-1.6091-5.6296q-0.65956-2.3076-2.9672-1.648l-7.4444 2.1278q-2.3076 0.65956-1.648 2.9672z" clip-path="url(#a)" fill="#fff" stroke="#fff"/>
<g clip-path="url(#a)">
<defs>
<path id="ah" d="m8.6875 72.906h9.9219v-44.297q0-11.719 4.2344-16.875 4.25-5.1406 13.781-5.1406 9.4688 0 13.719 5.1406 4.25 5.1562 4.25 16.875v44.297h9.9062v-45.516q0-14.25-7.0625-21.531-7.0469-7.2812-20.812-7.2812-13.828 0-20.891 7.2812-7.0469 7.2812-7.0469 21.531z"/>
</defs>
<g transform="translate(743.11 327.8) rotate(74.049) scale(.08 -.08)">
<use xlink:href="#ah"/>
</g>
</g>
<path d="m60.719 662.97v35.285q0 2.4 2.4 2.4h7.7425q2.4 0 2.4-2.4v-35.285q0-2.4-2.4-2.4h-7.7425q-2.4 0-2.4 2.4z" clip-path="url(#a)" fill="#fff" stroke="#fff"/>
<g clip-path="url(#a)">
<defs>
<path id="l" d="m-0.29688 72.906h61.672v-8.3125h-25.875v-64.594h-9.9062v64.594h-25.891z"/>
<path id="d" d="m56.203 29.594v-4.3906h-41.312q0.59375-9.2812 5.5938-14.141t13.938-4.8594q5.1719 0 10.031 1.2656t9.6562 3.8125v-8.5q-4.8438-2.0469-9.9219-3.125t-10.297-1.0781q-13.094 0-20.734 7.6094-7.6406 7.625-7.6406 20.625 0 13.422 7.25 21.297 7.25 7.8906 19.562 7.8906 11.031 0 17.453-7.1094 6.4219-7.0938 6.4219-19.297zm-8.9844 2.6406q-0.09375 7.3594-4.125 11.75-4.0312 4.4062-10.672 4.4062-7.5156 0-12.031-4.25t-5.2031-11.969z"/>
<path id="i" d="m41.109 46.297q-1.5156 0.875-3.2969 1.2812-1.7812 0.42188-3.9219 0.42188-7.625 0-11.703-4.9531t-4.0781-14.234v-28.812h-9.0312v54.688h9.0312v-8.5q2.8438 4.9844 7.375 7.3906 4.5469 2.4219 11.047 2.4219 0.92188 0 2.0469-0.125 1.125-0.10938 2.4844-0.35938z"/>
<path id="h" d="m52 44.188q3.375 6.0625 8.0625 8.9375t11.031 2.875q8.5469 0 13.188-5.9844 4.6406-5.9688 4.6406-17v-33.016h-9.0312v32.719q0 7.8594-2.7969 11.656-2.7812 3.8125-8.4844 3.8125-6.9844 0-11.047-4.6406-4.0469-4.625-4.0469-12.641v-30.906h-9.0312v32.719q0 7.9062-2.7812 11.688t-8.5938 3.7812q-6.8906 0-10.953-4.6562-4.0469-4.6562-4.0469-12.625v-30.906h-9.0312v54.688h9.0312v-8.5q3.0781 5.0312 7.375 7.4219t10.203 2.3906q5.9688 0 10.141-3.0312 4.1719-3.0156 6.1719-8.7812z"/>
<path id="g" d="m9.4219 54.688h8.9844v-54.688h-8.9844zm0 21.297h8.9844v-11.391h-8.9844z"/>
<path id="e" d="m54.891 33.016v-33.016h-8.9844v32.719q0 7.7656-3.0312 11.609-3.0312 3.8594-9.0781 3.8594-7.2812 0-11.484-4.6406-4.2031-4.625-4.2031-12.641v-30.906h-9.0312v54.688h9.0312v-8.5q3.2344 4.9375 7.5938 7.375 4.375 2.4375 10.094 2.4375 9.4219 0 14.25-5.8281 4.8438-5.8281 4.8438-17.156z"/>
<path id="j" d="m34.281 27.484q-10.891 0-15.094-2.4844t-4.2031-8.5q0-4.7812 3.1562-7.5938 3.1562-2.7969 8.5625-2.7969 7.4844 0 12 5.2969t4.5156 14.078v2zm17.922 3.7188v-31.203h-8.9844v8.2969q-3.0781-4.9688-7.6719-7.3438t-11.234-2.375q-8.3906 0-13.359 4.7188-4.9531 4.7188-4.9531 12.625 0 9.2188 6.1719 13.906 6.1875 4.6875 18.438 4.6875h12.609v0.89062q0 6.2031-4.0781 9.5938t-11.453 3.3906q-4.6875 0-9.1406-1.125-4.4375-1.125-8.5312-3.375v8.3125q4.9219 1.9062 9.5625 2.8438 4.6406 0.95312 9.0312 0.95312 11.875 0 17.734-6.1562 5.8594-6.1406 5.8594-18.641z"/>
<path id="k" d="m9.4219 75.984h8.9844v-75.984h-8.9844z"/>
</defs>
<g transform="translate(64.783 662.97) rotate(90) scale(.08 -.08)">
<use xlink:href="#l"/>
<use x="60.818359" xlink:href="#d"/>
<use x="122.341797" xlink:href="#i"/>
<use x="163.439453" xlink:href="#h"/>
<use x="260.851562" xlink:href="#g"/>
<use x="288.634766" xlink:href="#e"/>
<use x="352.013672" xlink:href="#j"/>
<use x="413.292969" xlink:href="#k"/>
</g>
</g>
<path d="m198.25 456 1.9109-4.1857q0.99674-2.1832-1.1865-3.18l-7.0432-3.2155q-2.1832-0.99674-3.18 1.1865l-1.9109 4.1857q-0.99674 2.1832 1.1865 3.18l7.0432 3.2155q2.1832 0.99674 3.18-1.1865z" clip-path="url(#a)" fill="#fff" stroke="#fff"/>
<g clip-path="url(#a)">
<defs>
<path id="ap" d="m9.8125 72.906h41.891v-8.3125h-32.031v-21.484h28.906v-8.2969h-28.906v-34.812h-9.8594z"/>
</defs>
<g transform="translate(194.56 454.31) rotate(-65.461) scale(.08 -.08)">
<use xlink:href="#ap"/>
</g>
</g>
<path d="m222.5 455.81 1.6605-5.2145q0.7282-2.2869-1.5587-3.0151l-7.3775-2.3492q-2.2869-0.7282-3.0151 1.5587l-1.6605 5.2145q-0.7282 2.2869 1.5587 3.0151l7.3775 2.3492q2.2869 0.7282 3.0151-1.5587z" clip-path="url(#a)" fill="#fff" stroke="#fff"/>
<g clip-path="url(#a)">
<defs>
<path id="o" d="m34.188 63.188-13.391-36.281h26.812zm-5.5781 9.7188h11.188l27.781-72.906h-10.25l-6.6406 18.703h-32.859l-6.6406-18.703h-10.406z"/>
</defs>
<g transform="translate(218.62 454.58) rotate(-72.337) scale(.08 -.08)">
<use xlink:href="#o"/>
</g>
</g>
<path d="m246.82 455.45 1.0931-6.0622q0.42589-2.3619-1.936-2.7878l-7.6196-1.3739q-2.3619-0.42589-2.7878 1.936l-1.0931 6.0622q-0.42589 2.3619 1.936 2.7878l7.6196 1.3739q2.3619 0.42589 2.7878-1.936z" clip-path="url(#a)" fill="#fff" stroke="#fff"/>
<g clip-path="url(#a)">
<defs>
<path id="aj" d="m19.672 64.797v-56.688h11.922q15.094 0 22.094 6.8281 7 6.8438 7 21.594 0 14.641-7 21.453t-22.094 6.8125zm-9.8594 8.1094h20.266q21.188 0 31.094-8.8125 9.9219-8.8125 9.9219-27.562 0-18.859-9.9688-27.703-9.9531-8.8281-31.047-8.8281h-20.266z"/>
</defs>
<g transform="translate(242.82 454.73) rotate(-79.779) scale(.08 -.08)">
<use xlink:href="#aj"/>
</g>
</g>
<path d="m271.21 453.98 0.20339-4.8195q0.10119-2.3979-2.2967-2.4991l-7.7356-0.32645q-2.3979-0.10119-2.4991 2.2967l-0.20339 4.8195q-0.10119 2.3979 2.2967 2.4991l7.7356 0.32646q2.3979 0.10119 2.4991-2.2967z" clip-path="url(#a)" fill="#fff" stroke="#fff"/>
<g clip-path="url(#a)">
<defs>
<path id="an" d="m19.672 64.797v-27.391h12.406q6.8906 0 10.641 3.5625 3.7656 3.5625 3.7656 10.156 0 6.5469-3.7656 10.109-3.75 3.5625-10.641 3.5625zm-9.8594 8.1094h22.266q12.266 0 18.531-5.5469 6.2812-5.5469 6.2812-16.234 0-10.797-6.2812-16.312-6.2656-5.5156-18.531-5.5156h-12.406v-29.297h-9.8594z"/>
</defs>
<g transform="translate(267.14 453.81) rotate(-87.583) scale(.08 -.08)">
<use xlink:href="#an"/>
</g>
</g>
<path d="m423.22 342.11 5.1221 1.9267q2.2463 0.84496 3.0913-1.4014l2.7259-7.2468q0.84496-2.2463-1.4014-3.0913l-5.1221-1.9267q-2.2463-0.84496-3.0913 1.4014l-2.7259 7.2468q-0.84496 2.2463 1.4014 3.0913z" clip-path="url(#a)" fill="#fff" stroke="#fff"/>
<g clip-path="url(#a)">
<g transform="translate(424.65 338.31) rotate(20.614) scale(.08 -.08)">
<use xlink:href="#o"/>
</g>
</g>
<path d="m282.36 448.99 0.559 5.8283q0.22914 2.389 2.6182 2.1599l7.7071-0.73921q2.389-0.22914 2.1599-2.6182l-0.559-5.8283q-0.22914-2.389-2.6182-2.1599l-7.7071 0.73921q-2.389 0.22914-2.1599 2.6182z" clip-path="url(#a)" fill="#fff" stroke="#fff"/>
<g clip-path="url(#a)">
<g transform="translate(286.41 448.6) rotate(84.521) scale(.08 -.08)">
<use xlink:href="#ah"/>
</g>
</g>
<path d="m871.47 662.97v35.285q0 2.4 2.4 2.4h7.7425q2.4 0 2.4-2.4v-35.285q0-2.4-2.4-2.4h-7.7425q-2.4 0-2.4 2.4z" clip-path="url(#a)" fill="#fff" stroke="#fff"/>
<g clip-path="url(#a)">
<g transform="translate(875.53 662.97) rotate(90) scale(.08 -.08)">
<use xlink:href="#l"/>
<use x="60.818359" xlink:href="#d"/>
<use x="122.341797" xlink:href="#i"/>
<use x="163.439453" xlink:href="#h"/>
<use x="260.851562" xlink:href="#g"/>
<use x="288.634766" xlink:href="#e"/>
<use x="352.013672" xlink:href="#j"/>
<use x="413.292969" xlink:href="#k"/>
</g>
</g>
<path d="m1164 225.55 4.6936-2.8139q2.0584-1.2341 0.82434-3.2925l-3.9812-6.6405q-1.2341-2.0584-3.2925-0.82434l-4.6936 2.8139q-2.0584 1.2341-0.82434 3.2925l3.9812 6.6405q1.2341 2.0584 3.2925 0.82434z" clip-path="url(#a)" fill="#fff" stroke="#fff"/>
<g clip-path="url(#a)">
<g transform="translate(1161.9 222.07) rotate(-30.944) scale(.08 -.08)">
<use xlink:href="#o"/>
</g>
</g>
<path d="m1243.2 394.83 0.60117-5.4394q0.26365-2.3855-2.1218-2.6491l-7.6956-0.85053q-2.3855-0.26365-2.6491 2.1218l-0.60117 5.4394q-0.26365 2.3855 2.1218 2.6491l7.6956 0.85053q2.3855 0.26365 2.6491-2.1218z" clip-path="url(#a)" fill="#fff" stroke="#fff"/>
<g clip-path="url(#a)">
<g transform="translate(1239.2 394.38) rotate(-83.693) scale(.08 -.08)">
<use xlink:href="#o"/>
</g>
</g>
<path d="m1266.6 332.39 0.31276 5.4636q0.13716 2.3961 2.5332 2.2589l7.7298-0.44249q2.3961-0.13716 2.2589-2.5332l-0.31276-5.4636q-0.13716-2.3961-2.5332-2.2589l-7.7298 0.44249q-2.3961 0.13716-2.2589 2.5332z" clip-path="url(#a)" fill="#fff" stroke="#fff"/>
<g clip-path="url(#a)">
<g transform="translate(1270.7 332.16) rotate(86.724) scale(.08 -.08)">
<use xlink:href="#o"/>
</g>
</g>
<path d="m1302.2 390.27 0.93289 4.7327q0.46415 2.3547 2.8188 1.8905l7.5963-1.4974q2.3547-0.46415 1.8905-2.8188l-0.93289-4.7327q-0.46415-2.3547-2.8188-1.8905l-7.5963 1.4974q-2.3547 0.46415-1.8905 2.8188z" clip-path="url(#a)" fill="#fff" stroke="#fff"/>
<g clip-path="url(#a)">
<g transform="translate(1306.2 389.48) rotate(78.849) scale(.08 -.08)">
<use xlink:href="#an"/>
</g>
</g>
<path d="m1325.8 390.42 1.6807 5.6086q0.68892 2.299 2.9879 1.6101l7.4167-2.2225q2.299-0.68892 1.6101-2.9879l-1.6807-5.6086q-0.68892-2.299-2.9879-1.6101l-7.4167 2.2225q-2.299 0.68892-1.6101 2.9879z" clip-path="url(#a)" fill="#fff" stroke="#fff"/>
<g clip-path="url(#a)">
<g transform="translate(1329.7 389.25) rotate(73.319) scale(.08 -.08)">
<use xlink:href="#ah"/>
</g>
</g>
<path d="m999.21 455.98 1.8733-4.6951q0.88941-2.2291-1.3397-3.1185l-7.1912-2.8693q-2.2291-0.88941-3.1185 1.3397l-1.8733 4.6951q-0.88941 2.2291 1.3397 3.1185l7.1912 2.8693q2.2291 0.88941 3.1185-1.3397z" clip-path="url(#a)" fill="#fff" stroke="#fff"/>
<g clip-path="url(#a)">
<defs>
<path id="t" d="m9.8125 72.906h46.094v-8.3125h-36.234v-21.578h34.719v-8.2969h-34.719v-26.422h37.109v-8.2969h-46.969z"/>
</defs>
<g transform="translate(995.43 454.47) rotate(-68.248) scale(.08 -.08)">
<use xlink:href="#t"/>
</g>
</g>
<path d="m1075 336.69 1.5265 4.819q0.72474 2.288 3.0127 1.5632l7.3811-2.338q2.288-0.72474 1.5632-3.0127l-1.5265-4.819q-0.72474-2.288-3.0127-1.5632l-7.3811 2.338q-2.288 0.72474-1.5632 3.0127z" clip-path="url(#a)" fill="#fff" stroke="#fff"/>
<g clip-path="url(#a)">
<g transform="translate(1078.9 335.46) rotate(72.424) scale(.08 -.08)">
<use xlink:href="#t"/>
</g>
</g>
<path d="m1106.7 450.38 1.5637 5.3629q0.6718 2.3041 2.9759 1.6323l7.433-2.1673q2.3041-0.6718 1.6323-2.9759l-1.5637-5.3629q-0.6718-2.3041-2.9759-1.6323l-7.433 2.1673q-2.3041 0.6718-1.6323 2.9759z" clip-path="url(#a)" fill="#fff" stroke="#fff"/>
<g clip-path="url(#a)">
<defs>
<path id="u" d="m64.406 67.281v-10.391q-4.9844 4.6406-10.625 6.9219-5.6406 2.2969-11.984 2.2969-12.5 0-19.141-7.6406t-6.6406-22.094q0-14.406 6.6406-22.047t19.141-7.6406q6.3438 0 11.984 2.2969t10.625 6.9375v-10.312q-5.1719-3.5156-10.969-5.2812-5.7812-1.75-12.219-1.75-16.562 0-26.094 10.125-9.5156 10.141-9.5156 27.672 0 17.578 9.5156 27.703 9.5312 10.141 26.094 10.141 6.5312 0 12.312-1.7344 5.7969-1.7344 10.875-5.2031z"/>
</defs>
<g transform="translate(1110.6 449.24) rotate(73.745) scale(.08 -.08)">
<use xlink:href="#u"/>
</g>
</g>
<path d="m1205.3 662.97v35.285q0 2.4 2.4 2.4h7.7425q2.4 0 2.4-2.4v-35.285q0-2.4-2.4-2.4h-7.7425q-2.4 0-2.4 2.4z" clip-path="url(#a)" fill="#fff" stroke="#fff"/>
<g clip-path="url(#a)">
<g transform="translate(1209.4 662.97) rotate(90) scale(.08 -.08)">
<use xlink:href="#l"/>
<use x="60.818359" xlink:href="#d"/>
<use x="122.341797" xlink:href="#i"/>
<use x="163.439453" xlink:href="#h"/>
<use x="260.851562" xlink:href="#g"/>
<use x="288.634766" xlink:href="#e"/>
<use x="352.013672" xlink:href="#j"/>
<use x="413.292969" xlink:href="#k"/>
</g>
</g>
<path d="m1276.8 571.06 1.041-4.9467q0.49423-2.3486-1.8543-2.8428l-7.5766-1.5944q-2.3486-0.49423-2.8428 1.8543l-1.041 4.9467q-0.49423 2.3486 1.8543 2.8428l7.5766 1.5944q2.3486 0.49423 2.8428-1.8543z" clip-path="url(#a)" fill="#fff" stroke="#fff"/>
<g clip-path="url(#a)">
<g transform="translate(1272.8 570.23) rotate(-78.116) scale(.08 -.08)">
<use xlink:href="#t"/>
</g>
</g>
<path d="m1288.3 565.86 1.1504 5.4665q0.49423 2.3486 2.8428 1.8543l7.5766-1.5944q2.3486-0.49423 1.8543-2.8428l-1.1504-5.4665q-0.49423-2.3486-2.8428-1.8543l-7.5766 1.5944q-2.3486 0.49423-1.8543 2.8428z" clip-path="url(#a)" fill="#fff" stroke="#fff"/>
<g clip-path="url(#a)">
<g transform="translate(1292.3 565.02) rotate(78.116) scale(.08 -.08)">
<use xlink:href="#u"/>
</g>
</g>
<path d="m1348.4 662.97v35.285q0 2.4 2.4 2.4h7.7425q2.4 0 2.4-2.4v-35.285q0-2.4-2.4-2.4h-7.7425q-2.4 0-2.4 2.4z" clip-path="url(#a)" fill="#fff" stroke="#fff"/>
<g clip-path="url(#a)">
<g transform="translate(1352.4 662.97) rotate(90) scale(.08 -.08)">
<use xlink:href="#l"/>
<use x="60.818359" xlink:href="#d"/>
<use x="122.341797" xlink:href="#i"/>
<use x="163.439453" xlink:href="#h"/>
<use x="260.851562" xlink:href="#g"/>
<use x="288.634766" xlink:href="#e"/>
<use x="352.013672" xlink:href="#j"/>
<use x="413.292969" xlink:href="#k"/>
</g>
</g>
<path d="m1253 662.97v35.285q0 2.4 2.4 2.4h7.7425q2.4 0 2.4-2.4v-35.285q0-2.4-2.4-2.4h-7.7425q-2.4 0-2.4 2.4z" clip-path="url(#a)" fill="#fff" stroke="#fff"/>
<g clip-path="url(#a)">
<g transform="translate(1257.1 662.97) rotate(90) scale(.08 -.08)">
<use xlink:href="#l"/>
<use x="60.818359" xlink:href="#d"/>
<use x="122.341797" xlink:href="#i"/>
<use x="163.439453" xlink:href="#h"/>
<use x="260.851562" xlink:href="#g"/>
<use x="288.634766" xlink:href="#e"/>
<use x="352.013672" xlink:href="#j"/>
<use x="413.292969" xlink:href="#k"/>
</g>
</g>
<path d="m1300.7 662.97v35.285q0 2.4 2.4 2.4h7.7425q2.4 0 2.4-2.4v-35.285q0-2.4-2.4-2.4h-7.7425q-2.4 0-2.4 2.4z" clip-path="url(#a)" fill="#fff" stroke="#fff"/>
<g clip-path="url(#a)">
<g transform="translate(1304.8 662.97) rotate(90) scale(.08 -.08)">
<use xlink:href="#l"/>
<use x="60.818359" xlink:href="#d"/>
<use x="122.341797" xlink:href="#i"/>
<use x="163.439453" xlink:href="#h"/>
<use x="260.851562" xlink:href="#g"/>
<use x="288.634766" xlink:href="#e"/>
<use x="352.013672" xlink:href="#j"/>
<use x="413.292969" xlink:href="#k"/>
</g>
</g>
<path d="m919.16 662.97v35.285q0 2.4 2.4 2.4h7.7425q2.4 0 2.4-2.4v-35.285q0-2.4-2.4-2.4h-7.7425q-2.4 0-2.4 2.4z" clip-path="url(#a)" fill="#fff" stroke="#fff"/>
<g clip-path="url(#a)">
<g transform="translate(923.22 662.97) rotate(90) scale(.08 -.08)">
<use xlink:href="#l"/>
<use x="60.818359" xlink:href="#d"/>
<use x="122.341797" xlink:href="#i"/>
<use x="163.439453" xlink:href="#h"/>
<use x="260.851562" xlink:href="#g"/>
<use x="288.634766" xlink:href="#e"/>
<use x="352.013672" xlink:href="#j"/>
<use x="413.292969" xlink:href="#k"/>
</g>
</g>
<path d="m1125.3 508.9 1.4689 5.2717q0.64422 2.3119 2.9561 1.6677l7.4584-2.0783q2.3119-0.64422 1.6677-2.9561l-1.4689-5.2717q-0.64422-2.3119-2.9561-1.6677l-7.4584 2.0783q-2.3119 0.64422-1.6677 2.9561z" clip-path="url(#a)" fill="#fff" stroke="#fff"/>
<g clip-path="url(#a)">
<g transform="translate(1129.2 507.81) rotate(74.43) scale(.08 -.08)">
<use xlink:href="#o"/>
</g>
</g>
<path d="m1064.2 459.02 3.1136-4.5004q1.3655-1.9737-0.6082-3.3392l-6.3672-4.4051q-1.9737-1.3655-3.3392 0.6082l-3.1136 4.5004q-1.3655 1.9737 0.6082 3.3392l6.3672 4.4051q1.9737 1.3655 3.3392-0.6082z" clip-path="url(#a)" fill="#fff" stroke="#fff"/>
<g clip-path="url(#a)">
<g transform="translate(1060.8 456.7) rotate(-55.323) scale(.08 -.08)">
<use xlink:href="#o"/>
</g>
</g>
<path d="m1101.8 507.76 0.35294 5.0665q0.16679 2.3942 2.561 2.2274l7.7238-0.53806q2.3942-0.16679 2.2274-2.561l-0.35294-5.0665q-0.16679-2.3942-2.561-2.2274l-7.7238 0.53806q-2.3942 0.16679-2.2274 2.561z" clip-path="url(#a)" fill="#fff" stroke="#fff"/>
<g clip-path="url(#a)">
<defs>
<path id="ai" d="m53.516 70.516v-9.625q-5.6094 2.6875-10.594 4-4.9844 1.3281-9.625 1.3281-8.0469 0-12.422-3.125t-4.375-8.8906q0-4.8438 2.9062-7.3125 2.9062-2.4531 11.016-3.9688l5.9531-1.2188q11.031-2.1094 16.281-7.4062t5.25-14.172q0-10.609-7.1094-16.078-7.0938-5.4688-20.812-5.4688-5.1719 0-11.016 1.1719-5.8281 1.1719-12.078 3.4688v10.156q6-3.3594 11.766-5.0781 5.7656-1.7031 11.328-1.7031 8.4375 0 13.031 3.3125 4.5938 3.3281 4.5938 9.4844 0 5.3594-3.2969 8.3906t-10.812 4.5469l-6.0156 1.1719q-11.031 2.1875-15.969 6.875-4.9219 4.6875-4.9219 13.047 0 9.6719 6.8125 15.234t18.766 5.5625q5.1406 0 10.453-0.9375 5.3281-0.92188 10.891-2.7656z"/>
</defs>
<g transform="translate(1105.9 507.47) rotate(86.015) scale(.08 -.08)">
<use xlink:href="#ai"/>
</g>
</g>
<path d="m1157.6 662.97v35.285q0 2.4 2.4 2.4h7.7425q2.4 0 2.4-2.4v-35.285q0-2.4-2.4-2.4h-7.7425q-2.4 0-2.4 2.4z" clip-path="url(#a)" fill="#fff" stroke="#fff"/>
<g clip-path="url(#a)">
<g transform="translate(1161.7 662.97) rotate(90) scale(.08 -.08)">
<use xlink:href="#l"/>
<use x="60.818359" xlink:href="#d"/>
<use x="122.341797" xlink:href="#i"/>
<use x="163.439453" xlink:href="#h"/>
<use x="260.851562" xlink:href="#g"/>
<use x="288.634766" xlink:href="#e"/>
<use x="352.013672" xlink:href="#j"/>
<use x="413.292969" xlink:href="#k"/>
</g>
</g>
<path d="m1001.7 572.29 2.1564-5.1235q0.93102-2.2121-1.281-3.1431l-7.1362-3.0035q-2.2121-0.93102-3.1431 1.281l-2.1564 5.1235q-0.93102 2.2121 1.281 3.1431l7.1362 3.0035q2.2121 0.93102 3.1431-1.281z" clip-path="url(#a)" fill="#fff" stroke="#fff"/>
<g clip-path="url(#a)">
<defs>
<path id="z" d="m44.391 34.188q3.1719-1.0781 6.1719-4.5938t6.0312-9.6719l10.016-19.922h-10.609l-9.3125 18.703q-3.625 7.3281-7.0156 9.7188t-9.25 2.3906h-10.75v-30.812h-9.8594v72.906h22.266q12.5 0 18.656-5.2344 6.1562-5.2188 6.1562-15.766 0-6.8906-3.2031-11.438-3.2031-4.5312-9.2969-6.2812zm-24.719 30.609v-25.875h12.406q7.125 0 10.766 3.2969t3.6406 9.6875-3.6406 9.6406-10.766 3.25z"/>
</defs>
<g transform="translate(997.92 570.72) rotate(-67.175) scale(.08 -.08)">
<use xlink:href="#z"/>
</g>
</g>
<path d="m1014.5 564.77v5.055q0 2.4 2.4 2.4h7.7425q2.4 0 2.4-2.4v-5.055q0-2.4-2.4-2.4h-7.7425q-2.4 0-2.4 2.4z" clip-path="url(#a)" fill="#fff" stroke="#fff"/>
<g clip-path="url(#a)">
<g transform="translate(1018.6 564.77) rotate(90) scale(.08 -.08)">
<use xlink:href="#t"/>
</g>
</g>
<path d="m1037.8 567.16 2.167 5.1488q0.93101 2.2121 3.1431 1.281l7.1362-3.0035q2.2121-0.93101 1.281-3.1431l-2.167-5.1488q-0.93102-2.2121-3.1431-1.281l-7.1362 3.0035q-2.2121 0.93101-1.281 3.1431z" clip-path="url(#a)" fill="#fff" stroke="#fff"/>
<g clip-path="url(#a)">
<g transform="translate(1041.5 565.58) rotate(67.175) scale(.08 -.08)">
<use xlink:href="#u"/>
</g>
</g>
<path d="m1109.9 662.97v35.285q0 2.4 2.4 2.4h7.7425q2.4 0 2.4-2.4v-35.285q0-2.4-2.4-2.4h-7.7425q-2.4 0-2.4 2.4z" clip-path="url(#a)" fill="#fff" stroke="#fff"/>
<g clip-path="url(#a)">
<g transform="translate(1114 662.97) rotate(90) scale(.08 -.08)">
<use xlink:href="#l"/>
<use x="60.818359" xlink:href="#d"/>
<use x="122.341797" xlink:href="#i"/>
<use x="163.439453" xlink:href="#h"/>
<use x="260.851562" xlink:href="#g"/>
<use x="288.634766" xlink:href="#e"/>
<use x="352.013672" xlink:href="#j"/>
<use x="413.292969" xlink:href="#k"/>
</g>
</g>
<path d="m966.85 662.97v35.285q0 2.4 2.4 2.4h7.7425q2.4 0 2.4-2.4v-35.285q0-2.4-2.4-2.4h-7.7425q-2.4 0-2.4 2.4z" clip-path="url(#a)" fill="#fff" stroke="#fff"/>
<g clip-path="url(#a)">
<g transform="translate(970.92 662.97) rotate(90) scale(.08 -.08)">
<use xlink:href="#l"/>
<use x="60.818359" xlink:href="#d"/>
<use x="122.341797" xlink:href="#i"/>
<use x="163.439453" xlink:href="#h"/>
<use x="260.851562" xlink:href="#g"/>
<use x="288.634766" xlink:href="#e"/>
<use x="352.013672" xlink:href="#j"/>
<use x="413.292969" xlink:href="#k"/>
</g>
</g>
<path d="m1014.5 662.97v35.285q0 2.4 2.4 2.4h7.7425q2.4 0 2.4-2.4v-35.285q0-2.4-2.4-2.4h-7.7425q-2.4 0-2.4 2.4z" clip-path="url(#a)" fill="#fff" stroke="#fff"/>
<g clip-path="url(#a)">
<g transform="translate(1018.6 662.97) rotate(90) scale(.08 -.08)">
<use xlink:href="#l"/>
<use x="60.818359" xlink:href="#d"/>
<use x="122.341797" xlink:href="#i"/>
<use x="163.439453" xlink:href="#h"/>
<use x="260.851562" xlink:href="#g"/>
<use x="288.634766" xlink:href="#e"/>
<use x="352.013672" xlink:href="#j"/>
<use x="413.292969" xlink:href="#k"/>
</g>
</g>
<path d="m1062.2 662.97v35.285q0 2.4 2.4 2.4h7.7425q2.4 0 2.4-2.4v-35.285q0-2.4-2.4-2.4h-7.7425q-2.4 0-2.4 2.4z" clip-path="url(#a)" fill="#fff" stroke="#fff"/>
<g clip-path="url(#a)">
<g transform="translate(1066.3 662.97) rotate(90) scale(.08 -.08)">
<use xlink:href="#l"/>
<use x="60.818359" xlink:href="#d"/>
<use x="122.341797" xlink:href="#i"/>
<use x="163.439453" xlink:href="#h"/>
<use x="260.851562" xlink:href="#g"/>
<use x="288.634766" xlink:href="#e"/>
<use x="352.013672" xlink:href="#j"/>
<use x="413.292969" xlink:href="#k"/>
</g>
</g>
<path d="m108.41 662.97v35.285q0 2.4 2.4 2.4h7.7425q2.4 0 2.4-2.4v-35.285q0-2.4-2.4-2.4h-7.7425q-2.4 0-2.4 2.4z" clip-path="url(#a)" fill="#fff" stroke="#fff"/>
<g clip-path="url(#a)">
<g transform="translate(112.47 662.97) rotate(90) scale(.08 -.08)">
<use xlink:href="#l"/>
<use x="60.818359" xlink:href="#d"/>
<use x="122.341797" xlink:href="#i"/>
<use x="163.439453" xlink:href="#h"/>
<use x="260.851562" xlink:href="#g"/>
<use x="288.634766" xlink:href="#e"/>
<use x="352.013672" xlink:href="#j"/>
<use x="413.292969" xlink:href="#k"/>
</g>
</g>
<path d="m156.1 662.97v35.285q0 2.4 2.4 2.4h7.7425q2.4 0 2.4-2.4v-35.285q0-2.4-2.4-2.4h-7.7425q-2.4 0-2.4 2.4z" clip-path="url(#a)" fill="#fff" stroke="#fff"/>
<g clip-path="url(#a)">
<g transform="translate(160.17 662.97) rotate(90) scale(.08 -.08)">
<use xlink:href="#l"/>
<use x="60.818359" xlink:href="#d"/>
<use x="122.341797" xlink:href="#i"/>
<use x="163.439453" xlink:href="#h"/>
<use x="260.851562" xlink:href="#g"/>
<use x="288.634766" xlink:href="#e"/>
<use x="352.013672" xlink:href="#j"/>
<use x="413.292969" xlink:href="#k"/>
</g>
</g>
<path d="m203.79 662.97v35.285q0 2.4 2.4 2.4h7.7425q2.4 0 2.4-2.4v-35.285q0-2.4-2.4-2.4h-7.7425q-2.4 0-2.4 2.4z" clip-path="url(#a)" fill="#fff" stroke="#fff"/>
<g clip-path="url(#a)">
<g transform="translate(207.86 662.97) rotate(90) scale(.08 -.08)">
<use xlink:href="#l"/>
<use x="60.818359" xlink:href="#d"/>
<use x="122.341797" xlink:href="#i"/>
<use x="163.439453" xlink:href="#h"/>
<use x="260.851562" xlink:href="#g"/>
<use x="288.634766" xlink:href="#e"/>
<use x="352.013672" xlink:href="#j"/>
<use x="413.292969" xlink:href="#k"/>
</g>
</g>
<path d="m251.48 662.97v35.285q0 2.4 2.4 2.4h7.7425q2.4 0 2.4-2.4v-35.285q0-2.4-2.4-2.4h-7.7425q-2.4 0-2.4 2.4z" clip-path="url(#a)" fill="#fff" stroke="#fff"/>
<g clip-path="url(#a)">
<g transform="translate(255.55 662.97) rotate(90) scale(.08 -.08)">
<use xlink:href="#l"/>
<use x="60.818359" xlink:href="#d"/>
<use x="122.341797" xlink:href="#i"/>
<use x="163.439453" xlink:href="#h"/>
<use x="260.851562" xlink:href="#g"/>
<use x="288.634766" xlink:href="#e"/>
<use x="352.013672" xlink:href="#j"/>
<use x="413.292969" xlink:href="#k"/>
</g>
</g>
<path d="m470.83 516.27 3.9503-3.9108q1.7056-1.6885 0.017061-3.3941l-5.4472-5.5022q-1.6885-1.7056-3.3941-0.01706l-3.9503 3.9108q-1.7056 1.6885-0.01706 3.3941l5.4472 5.5022q1.6885 1.7056 3.3941 0.01706z" clip-path="url(#a)" fill="#fff" stroke="#fff"/>
<g clip-path="url(#a)">
<g transform="translate(467.97 513.38) rotate(-44.712) scale(.08 -.08)">
<use xlink:href="#z"/>
</g>
</g>
<path d="m505.61 459.88 4.4354-3.2055q1.9452-1.4058 0.53939-3.351l-4.5352-6.2752q-1.4058-1.9452-3.351-0.53939l-4.4354 3.2055q-1.9452 1.4058-0.53939 3.351l4.5352 6.2752q1.4058 1.9452 3.351 0.53939z" clip-path="url(#a)" fill="#fff" stroke="#fff"/>
<g clip-path="url(#a)">
<g transform="translate(503.23 456.59) rotate(-35.856) scale(.08 -.08)">
<use xlink:href="#o"/>
</g>
</g>
<path d="m568.81 457.83 1.789-5.1718q0.7846-2.2681-1.4835-3.0527l-7.3171-2.5311q-2.2681-0.7846-3.0527 1.4835l-1.789 5.1718q-0.7846 2.2681 1.4835 3.0527l7.3171 2.5311q2.2681 0.7846 3.0527-1.4835z" clip-path="url(#a)" fill="#fff" stroke="#fff"/>
<g clip-path="url(#a)">
<g transform="translate(564.96 456.51) rotate(-70.918) scale(.08 -.08)">
<use xlink:href="#o"/>
</g>
</g>
<path d="m616.79 454.68 2.8896 4.1766q1.3655 1.9737 3.3392 0.6082l6.3672-4.4051q1.9737-1.3655 0.6082-3.3392l-2.8896-4.1766q-1.3655-1.9737-3.3392-0.6082l-6.3672 4.4051q-1.9737 1.3655-0.6082 3.3392z" clip-path="url(#a)" fill="#fff" stroke="#fff"/>
<g clip-path="url(#a)">
<g transform="translate(620.13 452.37) rotate(55.323) scale(.08 -.08)">
<use xlink:href="#ai"/>
</g>
</g>
<path d="m652.23 510.75 3.3996 5.137q1.3245 2.0014 3.3259 0.67689l6.4566-4.273q2.0014-1.3245 0.67689-3.3259l-3.3996-5.137q-1.3245-2.0014-3.3259-0.67689l-6.4566 4.273q-2.0014 1.3245-0.67689 3.3259z" clip-path="url(#a)" fill="#fff" stroke="#fff"/>
<g clip-path="url(#a)">
<g transform="translate(655.61 508.5) rotate(56.504) scale(.08 -.08)">
<use xlink:href="#aj"/>
</g>
</g>
<path d="m676.76 512.24 3.0216 3.47q1.5761 1.81 3.386 0.23388l5.839-5.0845q1.81-1.5761 0.23388-3.386l-3.0216-3.47q-1.5761-1.81-3.386-0.23388l-5.839 5.0845q-1.81 1.5761-0.23388 3.386z" clip-path="url(#a)" fill="#fff" stroke="#fff"/>
<g clip-path="url(#a)">
<g transform="translate(679.83 509.57) rotate(48.951) scale(.08 -.08)">
<use xlink:href="#ap"/>
</g>
</g>
<path d="m346.87 662.97v35.285q0 2.4 2.4 2.4h7.7425q2.4 0 2.4-2.4v-35.285q0-2.4-2.4-2.4h-7.7425q-2.4 0-2.4 2.4z" clip-path="url(#a)" fill="#fff" stroke="#fff"/>
<g clip-path="url(#a)">
<g transform="translate(350.93 662.97) rotate(90) scale(.08 -.08)">
<use xlink:href="#l"/>
<use x="60.818359" xlink:href="#d"/>
<use x="122.341797" xlink:href="#i"/>
<use x="163.439453" xlink:href="#h"/>
<use x="260.851562" xlink:href="#g"/>
<use x="288.634766" xlink:href="#e"/>
<use x="352.013672" xlink:href="#j"/>
<use x="413.292969" xlink:href="#k"/>
</g>
</g>
<path d="m418.37 571.06 1.041-4.9467q0.49423-2.3486-1.8543-2.8428l-7.5766-1.5944q-2.3486-0.49423-2.8428 1.8543l-1.041 4.9467q-0.49423 2.3486 1.8543 2.8428l7.5766 1.5944q2.3486 0.49423 2.8428-1.8543z" clip-path="url(#a)" fill="#fff" stroke="#fff"/>
<g clip-path="url(#a)">
<g transform="translate(414.39 570.23) rotate(-78.116) scale(.08 -.08)">
<use xlink:href="#t"/>
</g>
</g>
<path d="m429.88 565.86 1.1504 5.4665q0.49423 2.3486 2.8428 1.8543l7.5766-1.5944q2.3486-0.49423 1.8543-2.8428l-1.1504-5.4665q-0.49423-2.3486-2.8428-1.8543l-7.5766 1.5944q-2.3486 0.49423-1.8543 2.8428z" clip-path="url(#a)" fill="#fff" stroke="#fff"/>
<g clip-path="url(#a)">
<g transform="translate(433.86 565.02) rotate(78.116) scale(.08 -.08)">
<use xlink:href="#u"/>
</g>
</g>
<path d="m524.76 572.29 2.1564-5.1235q0.93102-2.2121-1.281-3.1431l-7.1362-3.0035q-2.2121-0.93102-3.1431 1.281l-2.1564 5.1235q-0.93102 2.2121 1.281 3.1431l7.1362 3.0035q2.2121 0.93102 3.1431-1.281z" clip-path="url(#a)" fill="#fff" stroke="#fff"/>
<g clip-path="url(#a)">
<g transform="translate(521.01 570.72) rotate(-67.175) scale(.08 -.08)">
<use xlink:href="#z"/>
</g>
</g>
<path d="m537.63 564.77v5.055q0 2.4 2.4 2.4h7.7425q2.4 0 2.4-2.4v-5.055q0-2.4-2.4-2.4h-7.7425q-2.4 0-2.4 2.4z" clip-path="url(#a)" fill="#fff" stroke="#fff"/>
<g clip-path="url(#a)">
<g transform="translate(541.69 564.77) rotate(90) scale(.08 -.08)">
<use xlink:href="#t"/>
</g>
</g>
<path d="m560.88 567.16 2.167 5.1488q0.93102 2.2121 3.1431 1.281l7.1362-3.0035q2.2121-0.93101 1.281-3.1431l-2.167-5.1488q-0.93101-2.2121-3.1431-1.281l-7.1362 3.0035q-2.2121 0.93101-1.281 3.1431z" clip-path="url(#a)" fill="#fff" stroke="#fff"/>
<g clip-path="url(#a)">
<g transform="translate(564.63 565.58) rotate(67.175) scale(.08 -.08)">
<use xlink:href="#u"/>
</g>
</g>
<path d="m656.77 571.31 1.1447-5.4396q0.49423-2.3486-1.8543-2.8428l-7.5766-1.5944q-2.3486-0.49423-2.8428 1.8543l-1.1447 5.4396q-0.49423 2.3486 1.8543 2.8428l7.5766 1.5944q2.3486 0.49423 2.8428-1.8543z" clip-path="url(#a)" fill="#fff" stroke="#fff"/>
<g clip-path="url(#a)">
<g transform="translate(652.79 570.47) rotate(-78.116) scale(.08 -.08)">
<use xlink:href="#z"/>
</g>
</g>
<path d="m668.34 565.86 1.1504 5.4665q0.49423 2.3486 2.8428 1.8543l7.5766-1.5944q2.3486-0.49423 1.8543-2.8428l-1.1504-5.4665q-0.49423-2.3486-2.8428-1.8543l-7.5766 1.5944q-2.3486 0.49423-1.8543 2.8428z" clip-path="url(#a)" fill="#fff" stroke="#fff"/>
<g clip-path="url(#a)">
<g transform="translate(672.32 565.02) rotate(78.116) scale(.08 -.08)">
<use xlink:href="#u"/>
</g>
</g>
<path d="m728.4 662.97v35.285q0 2.4 2.4 2.4h7.7425q2.4 0 2.4-2.4v-35.285q0-2.4-2.4-2.4h-7.7425q-2.4 0-2.4 2.4z" clip-path="url(#a)" fill="#fff" stroke="#fff"/>
<g clip-path="url(#a)">
<g transform="translate(732.46 662.97) rotate(90) scale(.08 -.08)">
<use xlink:href="#l"/>
<use x="60.818359" xlink:href="#d"/>
<use x="122.341797" xlink:href="#i"/>
<use x="163.439453" xlink:href="#h"/>
<use x="260.851562" xlink:href="#g"/>
<use x="288.634766" xlink:href="#e"/>
<use x="352.013672" xlink:href="#j"/>
<use x="413.292969" xlink:href="#k"/>
</g>
</g>
<path d="m776.09 662.97v35.285q0 2.4 2.4 2.4h7.7425q2.4 0 2.4-2.4v-35.285q0-2.4-2.4-2.4h-7.7425q-2.4 0-2.4 2.4z" clip-path="url(#a)" fill="#fff" stroke="#fff"/>
<g clip-path="url(#a)">
<g transform="translate(780.15 662.97) rotate(90) scale(.08 -.08)">
<use xlink:href="#l"/>
<use x="60.818359" xlink:href="#d"/>
<use x="122.341797" xlink:href="#i"/>
<use x="163.439453" xlink:href="#h"/>
<use x="260.851562" xlink:href="#g"/>
<use x="288.634766" xlink:href="#e"/>
<use x="352.013672" xlink:href="#j"/>
<use x="413.292969" xlink:href="#k"/>
</g>
</g>
<path d="m633.01 662.97v35.285q0 2.4 2.4 2.4h7.7425q2.4 0 2.4-2.4v-35.285q0-2.4-2.4-2.4h-7.7425q-2.4 0-2.4 2.4z" clip-path="url(#a)" fill="#fff" stroke="#fff"/>
<g clip-path="url(#a)">
<g transform="translate(637.08 662.97) rotate(90) scale(.08 -.08)">
<use xlink:href="#l"/>
<use x="60.818359" xlink:href="#d"/>
<use x="122.341797" xlink:href="#i"/>
<use x="163.439453" xlink:href="#h"/>
<use x="260.851562" xlink:href="#g"/>
<use x="288.634766" xlink:href="#e"/>
<use x="352.013672" xlink:href="#j"/>
<use x="413.292969" xlink:href="#k"/>
</g>
</g>
<path d="m680.7 662.97v35.285q0 2.4 2.4 2.4h7.7425q2.4 0 2.4-2.4v-35.285q0-2.4-2.4-2.4h-7.7425q-2.4 0-2.4 2.4z" clip-path="url(#a)" fill="#fff" stroke="#fff"/>
<g clip-path="url(#a)">
<g transform="translate(684.77 662.97) rotate(90) scale(.08 -.08)">
<use xlink:href="#l"/>
<use x="60.818359" xlink:href="#d"/>
<use x="122.341797" xlink:href="#i"/>
<use x="163.439453" xlink:href="#h"/>
<use x="260.851562" xlink:href="#g"/>
<use x="288.634766" xlink:href="#e"/>
<use x="352.013672" xlink:href="#j"/>
<use x="413.292969" xlink:href="#k"/>
</g>
</g>
<path d="m489.94 662.97v35.285q0 2.4 2.4 2.4h7.7425q2.4 0 2.4-2.4v-35.285q0-2.4-2.4-2.4h-7.7425q-2.4 0-2.4 2.4z" clip-path="url(#a)" fill="#fff" stroke="#fff"/>
<g clip-path="url(#a)">
<g transform="translate(494 662.97) rotate(90) scale(.08 -.08)">
<use xlink:href="#l"/>
<use x="60.818359" xlink:href="#d"/>
<use x="122.341797" xlink:href="#i"/>
<use x="163.439453" xlink:href="#h"/>
<use x="260.851562" xlink:href="#g"/>
<use x="288.634766" xlink:href="#e"/>
<use x="352.013672" xlink:href="#j"/>
<use x="413.292969" xlink:href="#k"/>
</g>
</g>
<path d="m537.63 662.97v35.285q0 2.4 2.4 2.4h7.7425q2.4 0 2.4-2.4v-35.285q0-2.4-2.4-2.4h-7.7425q-2.4 0-2.4 2.4z" clip-path="url(#a)" fill="#fff" stroke="#fff"/>
<g clip-path="url(#a)">
<g transform="translate(541.69 662.97) rotate(90) scale(.08 -.08)">
<use xlink:href="#l"/>
<use x="60.818359" xlink:href="#d"/>
<use x="122.341797" xlink:href="#i"/>
<use x="163.439453" xlink:href="#h"/>
<use x="260.851562" xlink:href="#g"/>
<use x="288.634766" xlink:href="#e"/>
<use x="352.013672" xlink:href="#j"/>
<use x="413.292969" xlink:href="#k"/>
</g>
</g>
<path d="m585.32 662.97v35.285q0 2.4 2.4 2.4h7.7425q2.4 0 2.4-2.4v-35.285q0-2.4-2.4-2.4h-7.7425q-2.4 0-2.4 2.4z" clip-path="url(#a)" fill="#fff" stroke="#fff"/>
<g clip-path="url(#a)">
<g transform="translate(589.39 662.97) rotate(90) scale(.08 -.08)">
<use xlink:href="#l"/>
<use x="60.818359" xlink:href="#d"/>
<use x="122.341797" xlink:href="#i"/>
<use x="163.439453" xlink:href="#h"/>
<use x="260.851562" xlink:href="#g"/>
<use x="288.634766" xlink:href="#e"/>
<use x="352.013672" xlink:href="#j"/>
<use x="413.292969" xlink:href="#k"/>
</g>
</g>
<path d="m394.56 662.97v35.285q0 2.4 2.4 2.4h7.7425q2.4 0 2.4-2.4v-35.285q0-2.4-2.4-2.4h-7.7425q-2.4 0-2.4 2.4z" clip-path="url(#a)" fill="#fff" stroke="#fff"/>
<g clip-path="url(#a)">
<g transform="translate(398.62 662.97) rotate(90) scale(.08 -.08)">
<use xlink:href="#l"/>
<use x="60.818359" xlink:href="#d"/>
<use x="122.341797" xlink:href="#i"/>
<use x="163.439453" xlink:href="#h"/>
<use x="260.851562" xlink:href="#g"/>
<use x="288.634766" xlink:href="#e"/>
<use x="352.013672" xlink:href="#j"/>
<use x="413.292969" xlink:href="#k"/>
</g>
</g>
<path d="m442.25 662.97v35.285q0 2.4 2.4 2.4h7.7425q2.4 0 2.4-2.4v-35.285q0-2.4-2.4-2.4h-7.7425q-2.4 0-2.4 2.4z" clip-path="url(#a)" fill="#fff" stroke="#fff"/>
<g clip-path="url(#a)">
<g transform="translate(446.31 662.97) rotate(90) scale(.08 -.08)">
<use xlink:href="#l"/>
<use x="60.818359" xlink:href="#d"/>
<use x="122.341797" xlink:href="#i"/>
<use x="163.439453" xlink:href="#h"/>
<use x="260.851562" xlink:href="#g"/>
<use x="288.634766" xlink:href="#e"/>
<use x="352.013672" xlink:href="#j"/>
<use x="413.292969" xlink:href="#k"/>
</g>
</g>
<path d="m299.17 662.97v35.285q0 2.4 2.4 2.4h7.7425q2.4 0 2.4-2.4v-35.285q0-2.4-2.4-2.4h-7.7425q-2.4 0-2.4 2.4z" clip-path="url(#a)" fill="#fff" stroke="#fff"/>
<g clip-path="url(#a)">
<g transform="translate(303.24 662.97) rotate(90) scale(.08 -.08)">
<use xlink:href="#l"/>
<use x="60.818359" xlink:href="#d"/>
<use x="122.341797" xlink:href="#i"/>
<use x="163.439453" xlink:href="#h"/>
<use x="260.851562" xlink:href="#g"/>
<use x="288.634766" xlink:href="#e"/>
<use x="352.013672" xlink:href="#j"/>
<use x="413.292969" xlink:href="#k"/>
</g>
</g>
<path d="m823.78 662.97v35.285q0 2.4 2.4 2.4h7.7425q2.4 0 2.4-2.4v-35.285q0-2.4-2.4-2.4h-7.7425q-2.4 0-2.4 2.4z" clip-path="url(#a)" fill="#fff" stroke="#fff"/>
<g clip-path="url(#a)">
<g transform="translate(827.84 662.97) rotate(90) scale(.08 -.08)">
<use xlink:href="#l"/>
<use x="60.818359" xlink:href="#d"/>
<use x="122.341797" xlink:href="#i"/>
<use x="163.439453" xlink:href="#h"/>
<use x="260.851562" xlink:href="#g"/>
<use x="288.634766" xlink:href="#e"/>
<use x="352.013672" xlink:href="#j"/>
<use x="413.292969" xlink:href="#k"/>
</g>
</g>
<path d="m1396.1 662.97v35.285q0 2.4 2.4 2.4h7.7425q2.4 0 2.4-2.4v-35.285q0-2.4-2.4-2.4h-7.7425q-2.4 0-2.4 2.4z" clip-path="url(#a)" fill="#fff" stroke="#fff"/>
<g clip-path="url(#a)">
<g transform="translate(1400.1 662.97) rotate(90) scale(.08 -.08)">
<use xlink:href="#l"/>
<use x="60.818359" xlink:href="#d"/>
<use x="122.341797" xlink:href="#i"/>
<use x="163.439453" xlink:href="#h"/>
<use x="260.851562" xlink:href="#g"/>
<use x="288.634766" xlink:href="#e"/>
<use x="352.013672" xlink:href="#j"/>
<use x="413.292969" xlink:href="#k"/>
</g>
</g>
<defs>
<path id="b" d="m0 8.6603c2.2967 0 4.4997-0.9125 6.1237-2.5365 1.624-1.624 2.5365-3.827 2.5365-6.1237s-0.9125-4.4997-2.5365-6.1237c-1.624-1.624-3.827-2.5365-6.1237-2.5365s-4.4997 0.9125-6.1237 2.5365c-1.624 1.624-2.5365 3.827-2.5365 6.1237s0.9125 4.4997 2.5365 6.1237c1.624 1.624 3.827 2.5365 6.1237 2.5365z"/>
</defs>
<g clip-path="url(#a)">
<use x="66.990265" y="737.268179" fill="#ffffff" stroke="#ffffff" xlink:href="#b"/>
</g>
<g clip-path="url(#a)">
<use x="114.681436" y="737.268179" fill="#ffffff" stroke="#ffffff" xlink:href="#b"/>
</g>
<g clip-path="url(#a)">
<use x="162.372608" y="737.268179" fill="#ffffff" stroke="#ffffff" xlink:href="#b"/>
</g>
<g clip-path="url(#a)">
<use x="210.06378" y="737.268179" fill="#ffffff" stroke="#ffffff" xlink:href="#b"/>
</g>
<g clip-path="url(#a)">
<use x="257.754951" y="737.268179" fill="#ffffff" stroke="#ffffff" xlink:href="#b"/>
</g>
<g clip-path="url(#a)">
<use x="305.446123" y="737.268179" fill="#ffffff" stroke="#ffffff" xlink:href="#b"/>
</g>
<g clip-path="url(#a)">
<use x="353.137294" y="737.268179" fill="#ffffff" stroke="#ffffff" xlink:href="#b"/>
</g>
<g clip-path="url(#a)">
<use x="400.828466" y="737.268179" fill="#ffffff" stroke="#ffffff" xlink:href="#b"/>
</g>
<g clip-path="url(#a)">
<use x="448.519637" y="737.268179" fill="#ffffff" stroke="#ffffff" xlink:href="#b"/>
</g>
<g clip-path="url(#a)">
<use x="496.210809" y="737.268179" fill="#ffffff" stroke="#ffffff" xlink:href="#b"/>
</g>
<g clip-path="url(#a)">
<use x="543.90198" y="737.268179" fill="#ffffff" stroke="#ffffff" xlink:href="#b"/>
</g>
<g clip-path="url(#a)">
<use x="591.593152" y="737.268179" fill="#ffffff" stroke="#ffffff" xlink:href="#b"/>
</g>
<g clip-path="url(#a)">
<use x="639.284324" y="737.268179" fill="#ffffff" stroke="#ffffff" xlink:href="#b"/>
</g>
<g clip-path="url(#a)">
<use x="686.975495" y="737.268179" fill="#ffffff" stroke="#ffffff" xlink:href="#b"/>
</g>
<g clip-path="url(#a)">
<use x="734.666667" y="737.268179" fill="#ffffff" stroke="#ffffff" xlink:href="#b"/>
</g>
<g clip-path="url(#a)">
<use x="782.357838" y="737.268179" fill="#ffffff" stroke="#ffffff" xlink:href="#b"/>
</g>
<g clip-path="url(#a)">
<use x="830.04901" y="737.268179" fill="#ffffff" stroke="#ffffff" xlink:href="#b"/>
</g>
<g clip-path="url(#a)">
<use x="877.740181" y="737.268179" fill="#ffffff" stroke="#ffffff" xlink:href="#b"/>
</g>
<g clip-path="url(#a)">
<use x="925.431353" y="737.268179" fill="#ffffff" stroke="#ffffff" xlink:href="#b"/>
</g>
<g clip-path="url(#a)">
<use x="973.122524" y="737.268179" fill="#ffffff" stroke="#ffffff" xlink:href="#b"/>
</g>
<g clip-path="url(#a)">
<use x="1020.813696" y="737.268179" fill="#ffffff" stroke="#ffffff" xlink:href="#b"/>
</g>
<g clip-path="url(#a)">
<use x="1068.504868" y="737.268179" fill="#ffffff" stroke="#ffffff" xlink:href="#b"/>
</g>
<g clip-path="url(#a)">
<use x="1116.196039" y="737.268179" fill="#ffffff" stroke="#ffffff" xlink:href="#b"/>
</g>
<g clip-path="url(#a)">
<use x="1163.887211" y="737.268179" fill="#ffffff" stroke="#ffffff" xlink:href="#b"/>
</g>
<g clip-path="url(#a)">
<use x="1211.578382" y="737.268179" fill="#ffffff" stroke="#ffffff" xlink:href="#b"/>
</g>
<g clip-path="url(#a)">
<use x="1259.269554" y="737.268179" fill="#ffffff" stroke="#ffffff" xlink:href="#b"/>
</g>
<g clip-path="url(#a)">
<use x="1306.960725" y="737.268179" fill="#ffffff" stroke="#ffffff" xlink:href="#b"/>
</g>
<g clip-path="url(#a)">
<use x="1354.651897" y="737.268179" fill="#ffffff" stroke="#ffffff" xlink:href="#b"/>
</g>
<g clip-path="url(#a)">
<use x="1402.343068" y="737.268179" fill="#ffffff" stroke="#ffffff" xlink:href="#b"/>
</g>
<g clip-path="url(#a)">
<use x="662.017115" y="36.065155" fill="#ffffff" stroke="#ffffff" xlink:href="#b"/>
</g>
<g clip-path="url(#a)">
<use x="66.990265" y="623.955523" fill="#ffffff" stroke="#ffffff" xlink:href="#b"/>
</g>
<g clip-path="url(#a)">
<use x="272.327254" y="278.652673" fill="#ffffff" stroke="#ffffff" xlink:href="#b"/>
</g>
<g clip-path="url(#a)">
<use x="877.740181" y="623.955523" fill="#ffffff" stroke="#ffffff" xlink:href="#b"/>
</g>
<g clip-path="url(#a)">
<use x="1262.978867" y="158.883261" fill="#ffffff" stroke="#ffffff" xlink:href="#b"/>
</g>
<g clip-path="url(#a)">
<use x="1063.205848" y="278.652673" fill="#ffffff" stroke="#ffffff" xlink:href="#b"/>
</g>
<g clip-path="url(#a)">
<use x="1211.578382" y="623.955523" fill="#ffffff" stroke="#ffffff" xlink:href="#b"/>
</g>
<g clip-path="url(#a)">
<use x="1283.11514" y="510.642866" fill="#ffffff" stroke="#ffffff" xlink:href="#b"/>
</g>
<g clip-path="url(#a)">
<use x="1354.651897" y="623.955523" fill="#ffffff" stroke="#ffffff" xlink:href="#b"/>
</g>
<g clip-path="url(#a)">
<use x="1259.269554" y="623.955523" fill="#ffffff" stroke="#ffffff" xlink:href="#b"/>
</g>
<g clip-path="url(#a)">
<use x="1306.960725" y="623.955523" fill="#ffffff" stroke="#ffffff" xlink:href="#b"/>
</g>
<g clip-path="url(#a)">
<use x="925.431353" y="623.955523" fill="#ffffff" stroke="#ffffff" xlink:href="#b"/>
</g>
<g clip-path="url(#a)">
<use x="1100.298982" y="395.753907" fill="#ffffff" stroke="#ffffff" xlink:href="#b"/>
</g>
<g clip-path="url(#a)">
<use x="1163.887211" y="623.955523" fill="#ffffff" stroke="#ffffff" xlink:href="#b"/>
</g>
<g clip-path="url(#a)">
<use x="1020.813696" y="510.642866" fill="#ffffff" stroke="#ffffff" xlink:href="#b"/>
</g>
<g clip-path="url(#a)">
<use x="1116.196039" y="623.955523" fill="#ffffff" stroke="#ffffff" xlink:href="#b"/>
</g>
<g clip-path="url(#a)">
<use x="973.122524" y="623.955523" fill="#ffffff" stroke="#ffffff" xlink:href="#b"/>
</g>
<g clip-path="url(#a)">
<use x="1020.813696" y="623.955523" fill="#ffffff" stroke="#ffffff" xlink:href="#b"/>
</g>
<g clip-path="url(#a)">
<use x="1068.504868" y="623.955523" fill="#ffffff" stroke="#ffffff" xlink:href="#b"/>
</g>
<g clip-path="url(#a)">
<use x="114.681436" y="623.955523" fill="#ffffff" stroke="#ffffff" xlink:href="#b"/>
</g>
<g clip-path="url(#a)">
<use x="162.372608" y="623.955523" fill="#ffffff" stroke="#ffffff" xlink:href="#b"/>
</g>
<g clip-path="url(#a)">
<use x="210.06378" y="623.955523" fill="#ffffff" stroke="#ffffff" xlink:href="#b"/>
</g>
<g clip-path="url(#a)">
<use x="257.754951" y="623.955523" fill="#ffffff" stroke="#ffffff" xlink:href="#b"/>
</g>
<g clip-path="url(#a)">
<use x="583.644623" y="395.753907" fill="#ffffff" stroke="#ffffff" xlink:href="#b"/>
</g>
<g clip-path="url(#a)">
<use x="353.137294" y="623.955523" fill="#ffffff" stroke="#ffffff" xlink:href="#b"/>
</g>
<g clip-path="url(#a)">
<use x="424.674052" y="510.642866" fill="#ffffff" stroke="#ffffff" xlink:href="#b"/>
</g>
<g clip-path="url(#a)">
<use x="543.90198" y="510.642866" fill="#ffffff" stroke="#ffffff" xlink:href="#b"/>
</g>
<g clip-path="url(#a)">
<use x="663.129909" y="510.642866" fill="#ffffff" stroke="#ffffff" xlink:href="#b"/>
</g>
<g clip-path="url(#a)">
<use x="734.666667" y="623.955523" fill="#ffffff" stroke="#ffffff" xlink:href="#b"/>
</g>
<g clip-path="url(#a)">
<use x="782.357838" y="623.955523" fill="#ffffff" stroke="#ffffff" xlink:href="#b"/>
</g>
<g clip-path="url(#a)">
<use x="639.284324" y="623.955523" fill="#ffffff" stroke="#ffffff" xlink:href="#b"/>
</g>
<g clip-path="url(#a)">
<use x="686.975495" y="623.955523" fill="#ffffff" stroke="#ffffff" xlink:href="#b"/>
</g>
<g clip-path="url(#a)">
<use x="496.210809" y="623.955523" fill="#ffffff" stroke="#ffffff" xlink:href="#b"/>
</g>
<g clip-path="url(#a)">
<use x="543.90198" y="623.955523" fill="#ffffff" stroke="#ffffff" xlink:href="#b"/>
</g>
<g clip-path="url(#a)">
<use x="591.593152" y="623.955523" fill="#ffffff" stroke="#ffffff" xlink:href="#b"/>
</g>
<g clip-path="url(#a)">
<use x="400.828466" y="623.955523" fill="#ffffff" stroke="#ffffff" xlink:href="#b"/>
</g>
<g clip-path="url(#a)">
<use x="448.519637" y="623.955523" fill="#ffffff" stroke="#ffffff" xlink:href="#b"/>
</g>
<g clip-path="url(#a)">
<use x="305.446123" y="623.955523" fill="#ffffff" stroke="#ffffff" xlink:href="#b"/>
</g>
<g clip-path="url(#a)">
<use x="830.04901" y="623.955523" fill="#ffffff" stroke="#ffffff" xlink:href="#b"/>
</g>
<g clip-path="url(#a)">
<use x="1402.343068" y="623.955523" fill="#ffffff" stroke="#ffffff" xlink:href="#b"/>
</g>
<g clip-path="url(#a)">
<defs>
<path id="p" d="m30.609 48.391q-7.2188 0-11.422-5.6406t-4.2031-15.453 4.1719-15.453q4.1875-5.6406 11.453-5.6406 7.1875 0 11.375 5.6562 4.2031 5.6719 4.2031 15.438 0 9.7188-4.2031 15.406-4.1875 5.6875-11.375 5.6875zm0 7.6094q11.719 0 18.406-7.625 6.7031-7.6094 6.7031-21.078 0-13.422-6.7031-21.078-6.6875-7.6406-18.406-7.6406-11.766 0-18.438 7.6406-6.6562 7.6562-6.6562 21.078 0 13.469 6.6562 21.078 6.6719 7.625 18.438 7.625z"/>
<path id="s" d="m48.781 52.594v-8.4062q-3.8125 2.1094-7.6406 3.1562t-7.7344 1.0469q-8.75 0-13.594-5.5469-4.8281-5.5312-4.8281-15.547t4.8281-15.562q4.8438-5.5312 13.594-5.5312 3.9062 0 7.7344 1.0469t7.6406 3.1562v-8.3125q-3.7656-1.75-7.7969-2.625-4.0156-0.89062-8.5625-0.89062-12.359 0-19.641 7.7656-7.2656 7.7656-7.2656 20.953 0 13.375 7.3438 21.031 7.3594 7.6719 20.156 7.6719 4.1406 0 8.0938-0.85938 3.9531-0.84375 7.6719-2.5469z"/>
<path id="y" d="m54.891 33.016v-33.016h-8.9844v32.719q0 7.7656-3.0312 11.609-3.0312 3.8594-9.0781 3.8594-7.2812 0-11.484-4.6406-4.2031-4.625-4.2031-12.641v-30.906h-9.0312v75.984h9.0312v-29.797q3.2344 4.9375 7.5938 7.375 4.375 2.4375 10.094 2.4375 9.4219 0 14.25-5.8281 4.8438-5.8281 4.8438-17.156z"/>
</defs>
<g transform="translate(54.163 740.03) scale(.1 -.1)">
<use xlink:href="#aj"/>
<use x="77.001953" xlink:href="#p"/>
<use x="138.183594" xlink:href="#s"/>
<use x="193.164062" xlink:href="#y"/>
</g>
</g>
<g clip-path="url(#a)">
<defs>
<path id="v" d="m18.312 70.219v-15.531h18.5v-6.9844h-18.5v-29.688q0-6.6875 1.8281-8.5938t7.4531-1.9062h9.2188v-7.5156h-9.2188q-10.406 0-14.359 3.875-3.9531 3.8906-3.9531 14.141v29.688h-6.5938v6.9844h6.5938v15.531z"/>
</defs>
<g transform="translate(101.45 740.03) scale(.1 -.1)">
<use xlink:href="#y"/>
<use x="63.378906" xlink:href="#j"/>
<use x="124.658203" xlink:href="#v"/>
<use x="163.867188" xlink:href="#v"/>
<use x="203.076172" xlink:href="#d"/>
</g>
</g>
<g clip-path="url(#a)">
<g transform="translate(155.07 740.03) scale(.1 -.1)">
<use xlink:href="#g"/>
<use x="27.783203" xlink:href="#s"/>
<use x="82.763672" xlink:href="#y"/>
</g>
</g>
<g clip-path="url(#a)">
<defs>
<path id="x" d="m9.0781 75.984h9.0312v-44.875l26.812 23.578h11.469l-29-25.578 30.234-29.109h-11.719l-27.797 26.703v-26.703h-9.0312z"/>
</defs>
<g transform="translate(196.46 740.03) scale(.1 -.1)">
<use xlink:href="#x"/>
<use x="57.863281" xlink:href="#d"/>
<use x="119.386719" xlink:href="#g"/>
<use x="147.169922" xlink:href="#e"/>
<use x="210.548828" xlink:href="#d"/>
</g>
</g>
<g clip-path="url(#a)">
<defs>
<path id="at" d="m37.109 75.984v-7.4844h-8.5938q-4.8281 0-6.7188-1.9531-1.875-1.9531-1.875-7.0312v-4.8281h14.797v-6.9844h-14.797v-47.703h-9.0312v47.703h-8.5938v6.9844h8.5938v3.8125q0 9.125 4.25 13.297 4.25 4.1875 13.469 4.1875z"/>
<path id="am" d="m8.5 21.578v33.109h8.9844v-32.766q0-7.7656 3.0156-11.656 3.0312-3.875 9.0938-3.875 7.2656 0 11.484 4.6406 4.2344 4.6406 4.2344 12.656v31h8.9844v-54.688h-8.9844v8.4062q-3.2656-4.9844-7.5938-7.4062-4.3125-2.4219-10.031-2.4219-9.4219 0-14.312 5.8594-4.875 5.8594-4.875 17.141z"/>
<path id="af" d="m45.406 27.984q0 9.7656-4.0312 15.125-4.0156 5.375-11.297 5.375-7.2188 0-11.25-5.375-4.0312-5.3594-4.0312-15.125 0-9.7188 4.0312-15.094t11.25-5.375q7.2812 0 11.297 5.375 4.0312 5.375 4.0312 15.094zm8.9844-21.203q0-13.953-6.2031-20.766-6.1875-6.8125-18.984-6.8125-4.7344 0-8.9375 0.70312t-8.1562 2.1719v8.7344q3.9531-2.1406 7.8125-3.1562 3.8594-1.0312 7.8594-1.0312 8.8438 0 13.234 4.6094t4.3906 13.938v4.4531q-2.7812-4.8438-7.125-7.2344t-10.406-2.3906q-10.047 0-16.203 7.6562-6.1562 7.6719-6.1562 20.328 0 12.688 6.1562 20.344 6.1562 7.6719 16.203 7.6719 6.0625 0 10.406-2.3906t7.125-7.2188v8.2969h8.9844z"/>
</defs>
<g transform="translate(234.73 740.03) scale(.1 -.1)">
<use xlink:href="#aa"/>
<use x="75.195312" xlink:href="#p"/>
<use x="136.376953" xlink:href="#at"/>
<use x="171.582031" xlink:href="#at"/>
<use x="206.787109" xlink:href="#e"/>
<use x="270.166016" xlink:href="#am"/>
<use x="333.544922" xlink:href="#e"/>
<use x="396.923828" xlink:href="#af"/>
</g>
</g>
<g clip-path="url(#a)">
<defs>
<path id="ar" d="m11.719 12.406h10.297v-8.4062l-8-15.625h-6.2969l4 15.625z"/>
</defs>
<g transform="translate(303.86 740.03) scale(.1 -.1)">
<use xlink:href="#ar"/>
</g>
</g>
<g clip-path="url(#a)">
<defs>
<path id="r" d="m45.406 46.391v29.594h8.9844v-75.984h-8.9844v8.2031q-2.8281-4.875-7.1562-7.25-4.3125-2.375-10.375-2.375-9.9062 0-16.141 7.9062-6.2188 7.9219-6.2188 20.812t6.2188 20.797q6.2344 7.9062 16.141 7.9062 6.0625 0 10.375-2.375 4.3281-2.3594 7.1562-7.2344zm-30.609-19.094q0-9.9062 4.0781-15.547t11.203-5.6406 11.219 5.6406q4.1094 5.6406 4.1094 15.547t-4.1094 15.547q-4.0938 5.6406-11.219 5.6406t-11.203-5.6406-4.0781-15.547z"/>
<path id="w" d="m44.281 53.078v-8.5q-3.7969 1.9531-7.9062 2.9219-4.0938 0.98438-8.5 0.98438-6.6875 0-10.031-2.0469t-3.3438-6.1562q0-3.125 2.3906-4.9062t9.625-3.3906l3.0781-0.6875q9.5625-2.0469 13.594-5.7812t4.0312-10.422q0-7.625-6.0312-12.078-6.0312-4.4375-16.578-4.4375-4.3906 0-9.1562 0.85938t-10.031 2.5625v9.2812q4.9844-2.5938 9.8125-3.8906 4.8281-1.2812 9.5781-1.2812 6.3438 0 9.75 2.1719 3.4219 2.1719 3.4219 6.125 0 3.6562-2.4688 5.6094-2.4531 1.9531-10.812 3.7656l-3.125 0.73438q-8.3438 1.75-12.062 5.3906-3.7031 3.6406-3.7031 9.9844 0 7.7188 5.4688 11.906 5.4688 4.2031 15.531 4.2031 4.9688 0 9.3594-0.73438 4.4062-0.71875 8.1094-2.1875z"/>
</defs>
<g transform="translate(341.69 740.03) scale(.1 -.1)">
<use xlink:href="#r"/>
<use x="63.476562" xlink:href="#j"/>
<use x="124.755859" xlink:href="#w"/>
<use x="176.855469" xlink:href="#w"/>
</g>
</g>
<g clip-path="url(#a)">
<g transform="translate(393.19 740.03) scale(.1 -.1)">
<use xlink:href="#r"/>
<use x="63.476562" xlink:href="#g"/>
<use x="91.259766" xlink:href="#d"/>
</g>
</g>
<g clip-path="url(#a)">
<g transform="translate(432.87 740.03) scale(.1 -.1)">
<use xlink:href="#ai"/>
<use x="63.476562" xlink:href="#p"/>
<use x="124.658203" xlink:href="#e"/>
<use x="188.037109" xlink:href="#e"/>
<use x="251.416016" xlink:href="#d"/>
</g>
</g>
<g clip-path="url(#a)">
<g transform="translate(489.98 740.03) scale(.1 -.1)">
<use xlink:href="#j"/>
<use x="61.279297" xlink:href="#e"/>
</g>
</g>
<g clip-path="url(#a)">
<g transform="translate(525.71 740.03) scale(.1 -.1)">
<use xlink:href="#r"/>
<use x="63.476562" xlink:href="#g"/>
<use x="91.259766" xlink:href="#d"/>
<use x="152.783203" xlink:href="#w"/>
<use x="204.882812" xlink:href="#d"/>
<use x="266.40625" xlink:href="#h"/>
</g>
</g>
<g clip-path="url(#a)">
<g transform="translate(582.31 740.03) scale(.1 -.1)">
<use xlink:href="#l"/>
<use x="60.833984" xlink:href="#j"/>
<use x="122.113281" xlink:href="#af"/>
</g>
</g>
<g clip-path="url(#a)">
<defs>
<path id="al" d="m5.5156 54.688h42.672v-8.2031l-33.781-39.312h33.781v-7.1719h-43.891v8.2031l33.797 39.312h-32.578z"/>
</defs>
<g transform="translate(628.62 740.03) scale(.1 -.1)">
<use xlink:href="#al"/>
<use x="52.490234" xlink:href="#am"/>
<use x="115.869141" xlink:href="#h"/>
</g>
</g>
<g clip-path="url(#a)">
<defs>
<path id="au" d="m28.609 0-27.828 72.906h10.297l23.109-61.375 23.141 61.375h10.25l-27.781-72.906z"/>
</defs>
<g transform="translate(662.29 740.03) scale(.1 -.1)">
<use xlink:href="#au"/>
<use x="68.298828" xlink:href="#p"/>
<use x="129.480469" xlink:href="#i"/>
<use x="170.59375" xlink:href="#w"/>
<use x="222.693359" xlink:href="#s"/>
<use x="277.673828" xlink:href="#y"/>
<use x="341.052734" xlink:href="#d"/>
<use x="402.576172" xlink:href="#g"/>
<use x="430.359375" xlink:href="#e"/>
</g>
</g>
<g clip-path="url(#a)">
<g transform="translate(712.73 740.03) scale(.1 -.1)">
<use xlink:href="#x"/>
<use x="57.863281" xlink:href="#p"/>
<use x="119.044922" xlink:href="#h"/>
<use x="216.457031" xlink:href="#h"/>
<use x="313.869141" xlink:href="#d"/>
<use x="375.392578" xlink:href="#e"/>
</g>
</g>
<g clip-path="url(#a)">
<defs>
<path id="as" d="m4.2031 54.688h8.9844l11.234-42.672 11.172 42.672h10.594l11.234-42.672 11.188 42.672h8.9844l-14.312-54.688h-10.594l-11.766 44.828-11.812-44.828h-10.609z"/>
</defs>
<g transform="translate(766.89 740.03) scale(.1 -.1)">
<use xlink:href="#as"/>
<use x="81.787109" xlink:href="#d"/>
<use x="143.310547" xlink:href="#i"/>
<use x="184.408203" xlink:href="#r"/>
<use x="247.884766" xlink:href="#d"/>
</g>
</g>
<g clip-path="url(#a)">
<g transform="translate(828.46 740.03) scale(.1 -.1)">
<use xlink:href="#ar"/>
</g>
</g>
<g clip-path="url(#a)">
<g transform="translate(871.5 740.03) scale(.1 -.1)">
<use xlink:href="#r"/>
<use x="63.476562" xlink:href="#j"/>
</g>
</g>
<g clip-path="url(#a)">
<g transform="translate(917.13 740.03) scale(.1 -.1)">
<use xlink:href="#r"/>
<use x="63.476562" xlink:href="#d"/>
<use x="125" xlink:href="#i"/>
</g>
</g>
<g clip-path="url(#a)">
<g transform="translate(964.9 740.03) scale(.1 -.1)">
<use xlink:href="#h"/>
<use x="97.412109" xlink:href="#g"/>
<use x="125.195312" xlink:href="#v"/>
</g>
</g>
<g clip-path="url(#a)">
<defs>
<path id="ag" d="m48.688 27.297q0 9.9062-4.0781 15.547t-11.203 5.6406q-7.1406 0-11.219-5.6406t-4.0781-15.547 4.0781-15.547 11.219-5.6406q7.125 0 11.203 5.6406t4.0781 15.547zm-30.578 19.094q2.8438 4.875 7.1562 7.2344 4.3281 2.375 10.328 2.375 9.9688 0 16.188-7.9062 6.2344-7.9062 6.2344-20.797t-6.2344-20.812q-6.2188-7.9062-16.188-7.9062-6 0-10.328 2.375-4.3125 2.375-7.1562 7.25v-8.2031h-9.0312v75.984h9.0312z"/>
</defs>
<g transform="translate(986.17 740.03) scale(.1 -.1)">
<use xlink:href="#af"/>
<use x="63.476562" xlink:href="#d"/>
<use x="125" xlink:href="#ag"/>
<use x="188.476562" xlink:href="#i"/>
<use x="229.558594" xlink:href="#p"/>
<use x="290.740234" xlink:href="#s"/>
<use x="345.720703" xlink:href="#y"/>
<use x="409.099609" xlink:href="#d"/>
<use x="470.623047" xlink:href="#e"/>
<use x="534.001953" xlink:href="#d"/>
<use x="595.525391" xlink:href="#h"/>
</g>
</g>
<g clip-path="url(#a)">
<defs>
<path id="av" d="m59.516 10.406v19.578h-16.109v8.1094h25.875v-31.312q-5.7031-4.0469-12.594-6.125-6.875-2.0781-14.688-2.0781-17.094 0-26.75 9.9844-9.6406 10-9.6406 27.812 0 17.875 9.6406 27.859 9.6562 9.9844 26.75 9.9844 7.125 0 13.547-1.7656 6.4219-1.75 11.844-5.1719v-10.5q-5.4688 4.6406-11.625 6.9844t-12.938 2.3438q-13.391 0-20.109-7.4688-6.7031-7.4688-6.7031-22.266 0-14.75 6.7031-22.219 6.7188-7.4688 20.109-7.4688 5.2188 0 9.3125 0.90625 4.1094 0.90625 7.375 2.8125z"/>
<path id="aw" d="m30.609 48.391q-7.2188 0-11.422-5.6406t-4.2031-15.453 4.1719-15.453q4.1875-5.6406 11.453-5.6406 7.1875 0 11.375 5.6562 4.2031 5.6719 4.2031 15.438 0 9.7188-4.2031 15.406-4.1875 5.6875-11.375 5.6875zm0 7.6094q11.719 0 18.406-7.625 6.7031-7.6094 6.7031-21.078 0-13.422-6.7031-21.078-6.6875-7.6406-18.406-7.6406-11.766 0-18.438 7.6406-6.6562 7.6562-6.6562 21.078 0 13.469 6.6562 21.078 6.6719 7.625 18.438 7.625zm4.6094 19.781h9.9062v-9.8594h-9.9062zm-19.094 0h9.9062v-9.8594h-9.9062z"/>
</defs>
<g transform="translate(1050.1 740.03) scale(.1 -.1)">
<use xlink:href="#av"/>
<use x="77.490234" xlink:href="#d"/>
<use x="139.013672" xlink:href="#as"/>
<use x="220.800781" xlink:href="#aw"/>
<use x="281.982422" xlink:href="#k"/>
<use x="309.765625" xlink:href="#x"/>
</g>
</g>
<g clip-path="url(#a)">
<g transform="translate(1093 740.03) scale(.1 -.1)">
<use xlink:href="#ag"/>
<use x="63.476562" xlink:href="#d"/>
<use x="125" xlink:href="#r"/>
<use x="188.476562" xlink:href="#d"/>
<use x="250" xlink:href="#s"/>
<use x="304.980469" xlink:href="#x"/>
<use x="362.890625" xlink:href="#v"/>
<use x="402.099609" xlink:href="#d"/>
</g>
</g>
<g clip-path="url(#a)">
<g transform="translate(1142.8 740.03) scale(.1 -.1)">
<use xlink:href="#aa"/>
<use x="75.195312" xlink:href="#p"/>
<use x="136.376953" xlink:href="#i"/>
<use x="177.490234" xlink:href="#g"/>
<use x="205.273438" xlink:href="#al"/>
<use x="257.763672" xlink:href="#p"/>
<use x="318.945312" xlink:href="#e"/>
<use x="382.324219" xlink:href="#v"/>
</g>
</g>
<g clip-path="url(#a)">
<g transform="translate(1204.5 740.03) scale(.1 -.1)">
<use xlink:href="#w"/>
<use x="52.099609" xlink:href="#g"/>
<use x="79.882812" xlink:href="#d"/>
</g>
</g>
<g clip-path="url(#a)">
<g transform="translate(1237.3 740.03) scale(.1 -.1)">
<use xlink:href="#am"/>
<use x="63.378906" xlink:href="#e"/>
<use x="126.757812" xlink:href="#w"/>
<use x="178.857422" xlink:href="#d"/>
<use x="240.380859" xlink:href="#i"/>
<use x="281.462891" xlink:href="#d"/>
<use x="342.986328" xlink:href="#h"/>
</g>
</g>
<g clip-path="url(#a)">
<g transform="translate(1288.8 740.03) scale(.1 -.1)">
<use xlink:href="#o"/>
<use x="68.408203" xlink:href="#e"/>
<use x="131.787109" xlink:href="#ag"/>
<use x="195.263672" xlink:href="#k"/>
<use x="223.046875" xlink:href="#g"/>
<use x="250.830078" xlink:href="#s"/>
<use x="305.810547" xlink:href="#x"/>
</g>
</g>
<g clip-path="url(#a)">
<g transform="translate(1337.6 740.03) scale(.1 -.1)">
<use xlink:href="#d"/>
<use x="61.523438" xlink:href="#e"/>
<use x="124.902344" xlink:href="#v"/>
<use x="164.111328" xlink:href="#al"/>
<use x="216.601562" xlink:href="#p"/>
<use x="277.783203" xlink:href="#af"/>
</g>
</g>
<g clip-path="url(#a)">
<defs>
<path id="f" d="m10.688 12.406h10.312v-12.406h-10.312z"/>
</defs>
<g transform="translate(1400.8 740.03) scale(.1 -.1)">
<use xlink:href="#f"/>
</g>
</g>
<g clip-path="url(#a)">
<defs>
<path id="c" d="m12.406 8.2969h16.109v55.625l-17.531-3.5156v8.9844l17.438 3.5156h9.8594v-64.609h16.109v-8.2969h-41.984z"/>
</defs>
<g transform="translate(654.07 38.825) scale(.1 -.1)">
<use xlink:href="#c"/>
<use x="63.623047" xlink:href="#f"/>
<use x="95.410156" xlink:href="#c"/>
</g>
</g>
<g clip-path="url(#a)">
<defs>
<path id="n" d="m19.188 8.2969h34.422v-8.2969h-46.281v8.2969q5.6094 5.8125 15.297 15.594 9.7031 9.7969 12.188 12.641 4.7344 5.3125 6.6094 9 1.8906 3.6875 1.8906 7.25 0 5.8125-4.0781 9.4688-4.0781 3.6719-10.625 3.6719-4.6406 0-9.7969-1.6094-5.1406-1.6094-11-4.8906v9.9688q5.9531 2.3906 11.125 3.6094 5.1875 1.2188 9.4844 1.2188 11.328 0 18.062-5.6719 6.7344-5.6562 6.7344-15.125 0-4.5-1.6875-8.5312-1.6719-4.0156-6.125-9.4844-1.2188-1.4219-7.7656-8.1875-6.5312-6.7656-18.453-18.922z"/>
</defs>
<g transform="translate(59.039 626.71) scale(.1 -.1)">
<use xlink:href="#c"/>
<use x="63.623047" xlink:href="#f"/>
<use x="95.410156" xlink:href="#n"/>
</g>
</g>
<g clip-path="url(#a)">
<defs>
<path id="m" d="m40.578 39.312q7.0781-1.5156 11.047-6.3125 3.9844-4.7812 3.9844-11.812 0-10.781-7.4219-16.703-7.4219-5.9062-21.094-5.9062-4.5781 0-9.4375 0.90625t-10.031 2.7188v9.5156q4.0938-2.3906 8.9688-3.6094 4.8906-1.2188 10.219-1.2188 9.2656 0 14.125 3.6562t4.8594 10.641q0 6.4531-4.5156 10.078-4.5156 3.6406-12.562 3.6406h-8.5v8.1094h8.8906q7.2656 0 11.125 2.9062t3.8594 8.375q0 5.6094-3.9844 8.6094-3.9688 3.0156-11.391 3.0156-4.0625 0-8.7031-0.89062-4.6406-0.875-10.203-2.7188v8.7812q5.625 1.5625 10.531 2.3438t9.25 0.78125q11.234 0 17.766-5.1094 6.5469-5.0938 6.5469-13.781 0-6.0625-3.4688-10.234t-9.8594-5.7812z"/>
</defs>
<g transform="translate(264.38 281.41) scale(.1 -.1)">
<use xlink:href="#c"/>
<use x="63.623047" xlink:href="#f"/>
<use x="95.410156" xlink:href="#m"/>
</g>
</g>
<g clip-path="url(#a)">
<defs>
<path id="q" d="m37.797 64.312-24.906-38.922h24.906zm-2.5938 8.5938h12.406v-47.516h10.406v-8.2031h-10.406v-17.188h-9.8125v17.188h-32.906v9.5156z"/>
</defs>
<g transform="translate(869.79 626.71) scale(.1 -.1)">
<use xlink:href="#c"/>
<use x="63.623047" xlink:href="#f"/>
<use x="95.410156" xlink:href="#q"/>
</g>
</g>
<g clip-path="url(#a)">
<defs>
<path id="ad" d="m10.797 72.906h38.719v-8.3125h-29.688v-17.859q2.1406 0.73438 4.2812 1.0938 2.1562 0.35938 4.3125 0.35938 12.203 0 19.328-6.6875 7.1406-6.6875 7.1406-18.109 0-11.766-7.3281-18.297-7.3281-6.5156-20.656-6.5156-4.5938 0-9.3594 0.78125-4.75 0.78125-9.8281 2.3438v9.9219q4.3906-2.3906 9.0781-3.5625t9.9062-1.1719q8.4531 0 13.375 4.4375 4.9375 4.4375 4.9375 12.062 0 7.6094-4.9375 12.047-4.9219 4.4531-13.375 4.4531-3.9531 0-7.8906-0.875-3.9219-0.875-8.0156-2.7344z"/>
</defs>
<g transform="translate(1255 161.64) scale(.1 -.1)">
<use xlink:href="#c"/>
<use x="63.623047" xlink:href="#f"/>
<use x="95.410156" xlink:href="#ad"/>
</g>
</g>
<g clip-path="url(#a)">
<defs>
<path id="ac" d="m31.781 34.625q-7.0312 0-11.062-3.7656-4.0156-3.7656-4.0156-10.344 0-6.5938 4.0156-10.359 4.0312-3.7656 11.062-3.7656t11.078 3.7812q4.0625 3.7969 4.0625 10.344 0 6.5781-4.0312 10.344-4.0156 3.7656-11.109 3.7656zm-9.8594 4.1875q-6.3438 1.5625-9.8906 5.9062-3.5312 4.3594-3.5312 10.609 0 8.7344 6.2188 13.812 6.2344 5.0781 17.062 5.0781 10.891 0 17.094-5.0781t6.2031-13.812q0-6.25-3.5469-10.609-3.5312-4.3438-9.8281-5.9062 7.125-1.6562 11.094-6.5 3.9844-4.8281 3.9844-11.797 0-10.609-6.4688-16.281-6.4688-5.6562-18.531-5.6562-12.047 0-18.531 5.6562-6.4688 5.6719-6.4688 16.281 0 6.9688 4 11.797 4.0156 4.8438 11.141 6.5zm-3.6094 15.578q0-5.6562 3.5312-8.8281 3.5469-3.1719 9.9375-3.1719 6.3594 0 9.9375 3.1719 3.5938 3.1719 3.5938 8.8281 0 5.6719-3.5938 8.8438-3.5781 3.1719-9.9375 3.1719-6.3906 0-9.9375-3.1719-3.5312-3.1719-3.5312-8.8438z"/>
</defs>
<g transform="translate(1055.3 281.41) scale(.1 -.1)">
<use xlink:href="#c"/>
<use x="63.623047" xlink:href="#f"/>
<use x="95.410156" xlink:href="#ac"/>
</g>
</g>
<g clip-path="url(#a)">
<defs>
<path id="ab" d="m10.984 1.5156v8.9844q3.7188-1.7656 7.5156-2.6875 3.8125-0.92188 7.4844-0.92188 9.7656 0 14.906 6.5625 5.1562 6.5625 5.8906 19.953-2.8281-4.2031-7.1875-6.4531-4.3438-2.25-9.6094-2.25-10.938 0-17.312 6.6094-6.375 6.625-6.375 18.109 0 11.219 6.6406 18 6.6406 6.7969 17.672 6.7969 12.656 0 19.312-9.7031 6.6719-9.6875 6.6719-28.141 0-17.234-8.1875-27.516-8.1719-10.281-21.984-10.281-3.7188 0-7.5312 0.73438-3.7969 0.73438-7.9062 2.2031zm19.625 30.906q6.6406 0 10.516 4.5312 3.8906 4.5469 3.8906 12.469 0 7.8594-3.8906 12.422-3.875 4.5625-10.516 4.5625t-10.516-4.5625-3.875-12.422q0-7.9219 3.875-12.469 3.875-4.5312 10.516-4.5312z"/>
</defs>
<g transform="translate(1203.6 626.71) scale(.1 -.1)">
<use xlink:href="#c"/>
<use x="63.623047" xlink:href="#f"/>
<use x="95.410156" xlink:href="#ab"/>
</g>
</g>
<g clip-path="url(#a)">
<defs>
<path id="ae" d="m31.781 66.406q-7.6094 0-11.453-7.5-3.8281-7.4844-3.8281-22.531 0-14.984 3.8281-22.484 3.8438-7.5 11.453-7.5 7.6719 0 11.5 7.5 3.8438 7.5 3.8438 22.484 0 15.047-3.8438 22.531-3.8281 7.5-11.5 7.5zm0 7.8125q12.266 0 18.734-9.7031 6.4688-9.6875 6.4688-28.141 0-18.406-6.4688-28.109-6.4688-9.6875-18.734-9.6875-12.25 0-18.719 9.6875-6.4688 9.7031-6.4688 28.109 0 18.453 6.4688 28.141 6.4688 9.7031 18.719 9.7031z"/>
</defs>
<g transform="translate(1272 513.4) scale(.1 -.1)">
<use xlink:href="#c"/>
<use x="63.623047" xlink:href="#f"/>
<use x="95.410156" xlink:href="#c"/>
<use x="159.033203" xlink:href="#ae"/>
</g>
</g>
<g clip-path="url(#a)">
<g transform="translate(1343.5 626.71) scale(.1 -.1)">
<use xlink:href="#c"/>
<use x="63.623047" xlink:href="#f"/>
<use x="95.410156" xlink:href="#c"/>
<use x="159.033203" xlink:href="#c"/>
</g>
</g>
<g clip-path="url(#a)">
<g transform="translate(1248.1 626.71) scale(.1 -.1)">
<use xlink:href="#c"/>
<use x="63.623047" xlink:href="#f"/>
<use x="95.410156" xlink:href="#c"/>
<use x="159.033203" xlink:href="#n"/>
</g>
</g>
<g clip-path="url(#a)">
<g transform="translate(1295.8 626.71) scale(.1 -.1)">
<use xlink:href="#c"/>
<use x="63.623047" xlink:href="#f"/>
<use x="95.410156" xlink:href="#c"/>
<use x="159.033203" xlink:href="#m"/>
</g>
</g>
<g clip-path="url(#a)">
<g transform="translate(914.3 626.71) scale(.1 -.1)">
<use xlink:href="#c"/>
<use x="63.623047" xlink:href="#f"/>
<use x="95.410156" xlink:href="#c"/>
<use x="159.033203" xlink:href="#q"/>
</g>
</g>
<g clip-path="url(#a)">
<g transform="translate(1089.2 398.51) scale(.1 -.1)">
<use xlink:href="#c"/>
<use x="63.623047" xlink:href="#f"/>
<use x="95.410156" xlink:href="#c"/>
<use x="159.033203" xlink:href="#ad"/>
</g>
</g>
<g clip-path="url(#a)">
<defs>
<path id="ak" d="m33.016 40.375q-6.6406 0-10.531-4.5469-3.875-4.5312-3.875-12.438 0-7.8594 3.875-12.438 3.8906-4.5625 10.531-4.5625t10.516 4.5625q3.875 4.5781 3.875 12.438 0 7.9062-3.875 12.438-3.875 4.5469-10.516 4.5469zm19.578 30.922v-8.9844q-3.7188 1.75-7.5 2.6719-3.7812 0.9375-7.5 0.9375-9.7656 0-14.922-6.5938-5.1406-6.5938-5.875-19.922 2.875 4.25 7.2188 6.5156 4.3594 2.2656 9.5781 2.2656 10.984 0 17.359-6.6719 6.375-6.6562 6.375-18.125 0-11.234-6.6406-18.031-6.6406-6.7812-17.672-6.7812-12.656 0-19.344 9.6875-6.6875 9.7031-6.6875 28.109 0 17.281 8.2031 27.562t22.016 10.281q3.7188 0 7.5-0.73438t7.8906-2.1875z"/>
</defs>
<g transform="translate(1152.8 626.71) scale(.1 -.1)">
<use xlink:href="#c"/>
<use x="63.623047" xlink:href="#f"/>
<use x="95.410156" xlink:href="#c"/>
<use x="159.033203" xlink:href="#ak"/>
</g>
</g>
<g clip-path="url(#a)">
<defs>
<path id="aq" d="m8.2031 72.906h46.875v-4.2031l-26.469-68.703h-10.297l24.906 64.594h-35.016z"/>
</defs>
<g transform="translate(1009.7 513.4) scale(.1 -.1)">
<use xlink:href="#c"/>
<use x="63.623047" xlink:href="#f"/>
<use x="95.410156" xlink:href="#c"/>
<use x="159.033203" xlink:href="#aq"/>
</g>
</g>
<g clip-path="url(#a)">
<g transform="translate(1105.1 626.71) scale(.1 -.1)">
<use xlink:href="#c"/>
<use x="63.623047" xlink:href="#f"/>
<use x="95.410156" xlink:href="#c"/>
<use x="159.033203" xlink:href="#ac"/>
</g>
</g>
<g clip-path="url(#a)">
<g transform="translate(961.99 626.71) scale(.1 -.1)">
<use xlink:href="#c"/>
<use x="63.623047" xlink:href="#f"/>
<use x="95.410156" xlink:href="#c"/>
<use x="159.033203" xlink:href="#ab"/>
</g>
</g>
<g clip-path="url(#a)">
<g transform="translate(1009.7 626.71) scale(.1 -.1)">
<use xlink:href="#c"/>
<use x="63.623047" xlink:href="#f"/>
<use x="95.410156" xlink:href="#n"/>
<use x="159.033203" xlink:href="#ae"/>
</g>
</g>
<g clip-path="url(#a)">
<g transform="translate(1057.4 626.71) scale(.1 -.1)">
<use xlink:href="#c"/>
<use x="63.623047" xlink:href="#f"/>
<use x="95.410156" xlink:href="#n"/>
<use x="159.033203" xlink:href="#c"/>
</g>
</g>
<g clip-path="url(#a)">
<g transform="translate(103.55 626.71) scale(.1 -.1)">
<use xlink:href="#c"/>
<use x="63.623047" xlink:href="#f"/>
<use x="95.410156" xlink:href="#n"/>
<use x="159.033203" xlink:href="#n"/>
</g>
</g>
<g clip-path="url(#a)">
<g transform="translate(151.24 626.71) scale(.1 -.1)">
<use xlink:href="#c"/>
<use x="63.623047" xlink:href="#f"/>
<use x="95.410156" xlink:href="#n"/>
<use x="159.033203" xlink:href="#m"/>
</g>
</g>
<g clip-path="url(#a)">
<g transform="translate(198.93 626.71) scale(.1 -.1)">
<use xlink:href="#c"/>
<use x="63.623047" xlink:href="#f"/>
<use x="95.410156" xlink:href="#n"/>
<use x="159.033203" xlink:href="#q"/>
</g>
</g>
<g clip-path="url(#a)">
<g transform="translate(246.62 626.71) scale(.1 -.1)">
<use xlink:href="#c"/>
<use x="63.623047" xlink:href="#f"/>
<use x="95.410156" xlink:href="#n"/>
<use x="159.033203" xlink:href="#ad"/>
</g>
</g>
<g clip-path="url(#a)">
<g transform="translate(572.51 398.51) scale(.1 -.1)">
<use xlink:href="#c"/>
<use x="63.623047" xlink:href="#f"/>
<use x="95.410156" xlink:href="#n"/>
<use x="159.033203" xlink:href="#ak"/>
</g>
</g>
<g clip-path="url(#a)">
<g transform="translate(342 626.71) scale(.1 -.1)">
<use xlink:href="#c"/>
<use x="63.623047" xlink:href="#f"/>
<use x="95.410156" xlink:href="#n"/>
<use x="159.033203" xlink:href="#ac"/>
</g>
</g>
<g clip-path="url(#a)">
<g transform="translate(413.54 513.4) scale(.1 -.1)">
<use xlink:href="#c"/>
<use x="63.623047" xlink:href="#f"/>
<use x="95.410156" xlink:href="#n"/>
<use x="159.033203" xlink:href="#ab"/>
</g>
</g>
<g clip-path="url(#a)">
<g transform="translate(532.77 513.4) scale(.1 -.1)">
<use xlink:href="#c"/>
<use x="63.623047" xlink:href="#f"/>
<use x="95.410156" xlink:href="#m"/>
<use x="159.033203" xlink:href="#ae"/>
</g>
</g>
<g clip-path="url(#a)">
<g transform="translate(652 513.4) scale(.1 -.1)">
<use xlink:href="#c"/>
<use x="63.623047" xlink:href="#f"/>
<use x="95.410156" xlink:href="#m"/>
<use x="159.033203" xlink:href="#c"/>
</g>
</g>
<g clip-path="url(#a)">
<g transform="translate(723.53 626.71) scale(.1 -.1)">
<use xlink:href="#c"/>
<use x="63.623047" xlink:href="#f"/>
<use x="95.410156" xlink:href="#m"/>
<use x="159.033203" xlink:href="#n"/>
</g>
</g>
<g clip-path="url(#a)">
<g transform="translate(771.23 626.71) scale(.1 -.1)">
<use xlink:href="#c"/>
<use x="63.623047" xlink:href="#f"/>
<use x="95.410156" xlink:href="#m"/>
<use x="159.033203" xlink:href="#m"/>
</g>
</g>
<g clip-path="url(#a)">
<g transform="translate(628.15 626.71) scale(.1 -.1)">
<use xlink:href="#c"/>
<use x="63.623047" xlink:href="#f"/>
<use x="95.410156" xlink:href="#m"/>
<use x="159.033203" xlink:href="#q"/>
</g>
</g>
<g clip-path="url(#a)">
<g transform="translate(675.84 626.71) scale(.1 -.1)">
<use xlink:href="#c"/>
<use x="63.623047" xlink:href="#f"/>
<use x="95.410156" xlink:href="#m"/>
<use x="159.033203" xlink:href="#ad"/>
</g>
</g>
<g clip-path="url(#a)">
<g transform="translate(485.08 626.71) scale(.1 -.1)">
<use xlink:href="#c"/>
<use x="63.623047" xlink:href="#f"/>
<use x="95.410156" xlink:href="#m"/>
<use x="159.033203" xlink:href="#ak"/>
</g>
</g>
<g clip-path="url(#a)">
<g transform="translate(532.77 626.71) scale(.1 -.1)">
<use xlink:href="#c"/>
<use x="63.623047" xlink:href="#f"/>
<use x="95.410156" xlink:href="#m"/>
<use x="159.033203" xlink:href="#aq"/>
</g>
</g>
<g clip-path="url(#a)">
<g transform="translate(580.46 626.71) scale(.1 -.1)">
<use xlink:href="#c"/>
<use x="63.623047" xlink:href="#f"/>
<use x="95.410156" xlink:href="#m"/>
<use x="159.033203" xlink:href="#ac"/>
</g>
</g>
<g clip-path="url(#a)">
<g transform="translate(389.7 626.71) scale(.1 -.1)">
<use xlink:href="#c"/>
<use x="63.623047" xlink:href="#f"/>
<use x="95.410156" xlink:href="#m"/>
<use x="159.033203" xlink:href="#ab"/>
</g>
</g>
<g clip-path="url(#a)">
<g transform="translate(437.39 626.71) scale(.1 -.1)">
<use xlink:href="#c"/>
<use x="63.623047" xlink:href="#f"/>
<use x="95.410156" xlink:href="#q"/>
<use x="159.033203" xlink:href="#ae"/>
</g>
</g>
<g clip-path="url(#a)">
<g transform="translate(294.31 626.71) scale(.1 -.1)">
<use xlink:href="#c"/>
<use x="63.623047" xlink:href="#f"/>
<use x="95.410156" xlink:href="#q"/>
<use x="159.033203" xlink:href="#c"/>
</g>
</g>
<g clip-path="url(#a)">
<g transform="translate(818.92 626.71) scale(.1 -.1)">
<use xlink:href="#c"/>
<use x="63.623047" xlink:href="#f"/>
<use x="95.410156" xlink:href="#q"/>
<use x="159.033203" xlink:href="#n"/>
</g>
</g>
<g clip-path="url(#a)">
<g transform="translate(1391.2 626.71) scale(.1 -.1)">
<use xlink:href="#c"/>
<use x="63.623047" xlink:href="#f"/>
<use x="95.410156" xlink:href="#q"/>
<use x="159.033203" xlink:href="#m"/>
</g>
</g>
<defs>
<clipPath id="a">
<rect width="1469.3" height="773.33"/>
</clipPath>
</defs>
</svg>
