<?xml version="1.0" encoding="UTF-8"?>
<!DOCTYPE svg  PUBLIC '-//W3C//DTD SVG 1.1//EN'  'http://www.w3.org/Graphics/SVG/1.1/DTD/svg11.dtd'>
<svg width="1874.7pt" height="986.67pt" version="1.1" viewBox="0 0 1874.7 986.67" xmlns="http://www.w3.org/2000/svg" xmlns:xlink="http://www.w3.org/1999/xlink">
<defs>
<style type="text/css">*{stroke-linecap:butt;stroke-linejoin:round;white-space:pre;}</style>
</defs>
<path d="m0 986.67h1874.7v-986.67h-1874.7z" fill="#fff"/>
<g fill="none" stroke="#000">
<path d="m367.83 45.763v156.79" clip-path="url(#a)"/>
<path d="m367.83 202.55 589.55 152.9" clip-path="url(#a)"/>
<path d="m367.83 202.55-98.259 593.7" clip-path="url(#a)"/>
<path d="m367.83 202.55-98.259 593.7" clip-path="url(#a)"/>
<path d="m367.83 202.55-236.42 593.7" clip-path="url(#a)"/>
<path d="m367.83 202.55-190.36 593.7" clip-path="url(#a)"/>
<path d="m367.83 202.55-6.154 593.7" clip-path="url(#a)"/>
<path d="m367.83 202.55 39.898 593.7" clip-path="url(#a)"/>
<path d="m957.39 355.44-580.36 149.49" clip-path="url(#a)"/>
<path d="m957.39 355.44-319.39 440.81" clip-path="url(#a)"/>
<path d="m957.39 355.44 43.27 149.49" clip-path="url(#a)"/>
<path d="m957.39 355.44 66.296 149.49" clip-path="url(#a)"/>
<path d="m957.39 355.44 233.24 440.81" clip-path="url(#a)"/>
<path d="m957.39 355.44 458.89 149.49" clip-path="url(#a)"/>
<path d="m957.39 355.44-89.13 440.81" clip-path="url(#a)"/>
<path d="m957.39 355.44 187.18 440.81" clip-path="url(#a)"/>
<path d="m269.57 796.25-46.052 144.65" clip-path="url(#a)"/>
<path d="m269.57 796.25 46.052 144.65" clip-path="url(#a)"/>
<path d="m269.57 796.25v144.65" clip-path="url(#a)"/>
<path d="m377.03 504.93-291.66 291.32" clip-path="url(#a)"/>
<path d="m377.03 504.93 99.78 146.66" clip-path="url(#a)"/>
<path d="m377.03 504.93 191.88 146.66" clip-path="url(#a)"/>
<path d="m637.99 796.25v144.65" clip-path="url(#a)"/>
<path d="m1000.7 504.93 788.65 435.97" clip-path="url(#a)"/>
<path d="m1000.7 504.93-316.61 291.32" clip-path="url(#a)"/>
<path d="m1000.7 504.93-270.56 291.32" clip-path="url(#a)"/>
<path d="m1000.7 504.93-201.48 146.66" clip-path="url(#a)"/>
<path d="m1023.7 504.93-86.348 146.66" clip-path="url(#a)"/>
<path d="m1023.7 504.93-17.27 291.32" clip-path="url(#a)"/>
<path d="m1023.7 504.93 28.783 291.32" clip-path="url(#a)"/>
<path d="m1023.7 504.93 74.835 291.32" clip-path="url(#a)"/>
<path d="m1190.6 796.25v144.65" clip-path="url(#a)"/>
<path d="m1416.3 504.93-156.58 146.66" clip-path="url(#a)"/>
<path d="m1416.3 504.93-18.421 291.32" clip-path="url(#a)"/>
<path d="m1416.3 504.93-41.447 291.32" clip-path="url(#a)"/>
<path d="m1416.3 504.93 4.6052 291.32" clip-path="url(#a)"/>
<path d="m1416.3 504.93 211.84 146.66" clip-path="url(#a)"/>
<path d="m1259.7 651.6-23.026 144.65" clip-path="url(#a)"/>
<path d="m1259.7 651.6 23.026 144.65" clip-path="url(#a)"/>
<path d="m1397.9 796.25-69.078 144.65" clip-path="url(#a)"/>
<path d="m1397.9 796.25 69.078 144.65" clip-path="url(#a)"/>
<path d="m1374.8 796.25v144.65" clip-path="url(#a)"/>
<path d="m1420.9 796.25v144.65" clip-path="url(#a)"/>
<path d="m1628.1 651.6-115.13 144.65" clip-path="url(#a)"/>
<path d="m1628.1 651.6-69.078 144.65" clip-path="url(#a)"/>
<path d="m1628.1 651.6-23.026 144.65" clip-path="url(#a)"/>
<path d="m1628.1 651.6 23.026 144.65" clip-path="url(#a)"/>
<path d="m1628.1 651.6 69.078 144.65" clip-path="url(#a)"/>
<path d="m1628.1 651.6 115.13 144.65" clip-path="url(#a)"/>
<path d="m1513 796.25v144.65" clip-path="url(#a)"/>
<path d="m1559 796.25v144.65" clip-path="url(#a)"/>
<path d="m1605.1 796.25v144.65" clip-path="url(#a)"/>
<path d="m1236.7 796.25v144.65" clip-path="url(#a)"/>
<path d="m1282.7 796.25v144.65" clip-path="url(#a)"/>
<path d="m937.33 651.6-23.026 144.65" clip-path="url(#a)"/>
<path d="m937.33 651.6 23.026 144.65" clip-path="url(#a)"/>
<path d="m1006.4 796.25v144.65" clip-path="url(#a)"/>
<path d="m1052.5 796.25v144.65" clip-path="url(#a)"/>
<path d="m1098.5 796.25v144.65" clip-path="url(#a)"/>
<path d="m914.31 796.25v144.65" clip-path="url(#a)"/>
<path d="m960.36 796.25v144.65" clip-path="url(#a)"/>
<path d="m684.05 796.25v144.65" clip-path="url(#a)"/>
<path d="m730.1 796.25v144.65" clip-path="url(#a)"/>
<path d="m799.18 651.6-23.026 144.65" clip-path="url(#a)"/>
<path d="m799.18 651.6 23.026 144.65" clip-path="url(#a)"/>
<path d="m776.15 796.25v144.65" clip-path="url(#a)"/>
<path d="m822.2 796.25v144.65" clip-path="url(#a)"/>
<path d="m85.365 796.25v144.65" clip-path="url(#a)"/>
<path d="m476.81 651.6-23.026 144.65" clip-path="url(#a)"/>
<path d="m476.81 651.6 23.026 144.65" clip-path="url(#a)"/>
<path d="m568.91 651.6-23.026 144.65" clip-path="url(#a)"/>
<path d="m568.91 651.6 23.026 144.65" clip-path="url(#a)"/>
<path d="m545.89 796.25v144.65" clip-path="url(#a)"/>
<path d="m591.94 796.25v144.65" clip-path="url(#a)"/>
<path d="m453.78 796.25v144.65" clip-path="url(#a)"/>
<path d="m499.84 796.25v144.65" clip-path="url(#a)"/>
<path d="m131.42 796.25v144.65" clip-path="url(#a)"/>
<path d="m177.47 796.25v144.65" clip-path="url(#a)"/>
<path d="m361.68 796.25v144.65" clip-path="url(#a)"/>
<path d="m407.73 796.25v144.65" clip-path="url(#a)"/>
<path d="m868.25 796.25v144.65" clip-path="url(#a)"/>
<path d="m1144.6 796.25v144.65" clip-path="url(#a)"/>
<path d="m1651.1 796.25v144.65" clip-path="url(#a)"/>
<path d="m1697.2 796.25v144.65" clip-path="url(#a)"/>
<path d="m1743.2 796.25v144.65" clip-path="url(#a)"/>
</g>
<path d="m361.56 121.15v6.0162q0 2.4 2.4 2.4h7.7425q2.4 0 2.4-2.4v-6.0162q0-2.4-2.4-2.4h-7.7425q-2.4 0-2.4 2.4z" clip-path="url(#a)" fill="#fff" stroke="#fff"/>
<g clip-path="url(#a)">
<defs>
<path id="x" d="m9.8125 72.906h9.8594v-29.891h35.844v29.891h9.8594v-72.906h-9.8594v34.719h-35.844v-34.719h-9.8594z"/>
</defs>
<g transform="translate(365.63 121.15) rotate(90) scale(.08 -.08)">
<use xlink:href="#x"/>
</g>
</g>
<path d="m658.39 284.38 5.2973 1.3738q2.3231 0.60249 2.9256-1.7207l1.9437-7.4946q0.60249-2.3231-1.7207-2.9256l-5.2973-1.3738q-2.3231-0.60249-2.9256 1.7207l-1.9437 7.4946q-0.60249 2.3231 1.7207 2.9256z" clip-path="url(#a)" fill="#fff" stroke="#fff"/>
<g clip-path="url(#a)">
<defs>
<path id="t" d="m34.188 63.188-13.391-36.281h26.812zm-5.5781 9.7188h11.188l27.781-72.906h-10.25l-6.6406 18.703h-32.859l-6.6406-18.703h-10.406z"/>
</defs>
<g transform="translate(659.41 280.45) rotate(14.539) scale(.08 -.08)">
<use xlink:href="#t"/>
</g>
</g>
<path d="m324.5 502.8 0.78762-4.759q0.39187-2.3678-1.9759-2.7597l-7.6386-1.2642q-2.3678-0.39187-2.7597 1.9759l-0.78763 4.759q-0.39187 2.3678 1.9759 2.7597l7.6386 1.2642q2.3678 0.39187 2.7597-1.9759z" clip-path="url(#a)" fill="#fff" stroke="#fff"/>
<g clip-path="url(#a)">
<defs>
<path id="w" d="m19.672 64.797v-27.391h12.406q6.8906 0 10.641 3.5625 3.7656 3.5625 3.7656 10.156 0 6.5469-3.7656 10.109-3.75 3.5625-10.641 3.5625zm-9.8594 8.1094h22.266q12.266 0 18.531-5.5469 6.2812-5.5469 6.2812-16.234 0-10.797-6.2812-16.312-6.2656-5.5156-18.531-5.5156h-12.406v-29.297h-9.8594z"/>
</defs>
<g transform="translate(320.49 502.14) rotate(-80.603) scale(.08 -.08)">
<use xlink:href="#w"/>
</g>
</g>
<path d="m324.44 503.12 0.89355-5.3991q0.39187-2.3678-1.9759-2.7597l-7.6386-1.2642q-2.3678-0.39187-2.7597 1.9759l-0.89355 5.3991q-0.39187 2.3678 1.9759 2.7597l7.6386 1.2642q2.3678 0.39187 2.7597-1.9759z" clip-path="url(#a)" fill="#fff" stroke="#fff"/>
<g clip-path="url(#a)">
<g transform="translate(320.44 502.46) rotate(-80.603) scale(.08 -.08)">
<use xlink:href="#t"/>
</g>
</g>
<path d="m254.37 504.44 2.1661-5.4396q0.88789-2.2297-1.3418-3.1176l-7.1932-2.8644q-2.2297-0.88789-3.1176 1.3418l-2.1661 5.4396q-0.88789 2.2297 1.3418 3.1176l7.1932 2.8644q2.2297 0.88789 3.1176-1.3418z" clip-path="url(#a)" fill="#fff" stroke="#fff"/>
<g clip-path="url(#a)">
<defs>
<path id="s" d="m8.6875 72.906h9.9219v-44.297q0-11.719 4.2344-16.875 4.25-5.1406 13.781-5.1406 9.4688 0 13.719 5.1406 4.25 5.1562 4.25 16.875v44.297h9.9062v-45.516q0-14.25-7.0625-21.531-7.0469-7.2812-20.812-7.2812-13.828 0-20.891 7.2812-7.0469 7.2812-7.0469 21.531z"/>
</defs>
<g transform="translate(250.59 502.94) rotate(-68.287) scale(.08 -.08)">
<use xlink:href="#s"/>
</g>
</g>
<path d="m277.73 504.1 1.7877-5.5754q0.73278-2.2854-1.5526-3.0182l-7.3728-2.364q-2.2854-0.73278-3.0182 1.5526l-1.7877 5.5754q-0.73278 2.2854 1.5526 3.0182l7.3728 2.364q2.2854 0.73278 3.0182-1.5526z" clip-path="url(#a)" fill="#fff" stroke="#fff"/>
<g clip-path="url(#a)">
<g transform="translate(273.86 502.86) rotate(-72.222) scale(.08 -.08)">
<use xlink:href="#s"/>
</g>
</g>
<path d="m371 502.39 0.060686-5.8547q0.024876-2.3999-2.375-2.4247l-7.7421-0.08025q-2.3999-0.024876-2.4247 2.375l-0.060687 5.8547q-0.024875 2.3999 2.375 2.4247l7.7421 0.080251q2.3999 0.024876 2.4247-2.375z" clip-path="url(#a)" fill="#fff" stroke="#fff"/>
<g clip-path="url(#a)">
<g transform="translate(366.93 502.35) rotate(-89.406) scale(.08 -.08)">
<use xlink:href="#s"/>
</g>
</g>
<path d="m381.33 496.9 0.39259 5.8418q0.16092 2.3946 2.5555 2.2337l7.7251-0.51914q2.3946-0.16092 2.2337-2.5555l-0.39259-5.8418q-0.16092-2.3946-2.5555-2.2337l-7.7251 0.51914q-2.3946 0.16092-2.2337 2.5555z" clip-path="url(#a)" fill="#fff" stroke="#fff"/>
<g clip-path="url(#a)">
<g transform="translate(385.38 496.63) rotate(86.155) scale(.08 -.08)">
<use xlink:href="#s"/>
</g>
</g>
<path d="m665.86 437.01 5.8261-1.5007q2.3241-0.59866 1.7255-2.9228l-1.9313-7.4978q-0.59866-2.3241-2.9228-1.7255l-5.8261 1.5007q-2.3241 0.59866-1.7255 2.9228l1.9313 7.4978q0.59866 2.3241 2.9228 1.7255z" clip-path="url(#a)" fill="#fff" stroke="#fff"/>
<g clip-path="url(#a)">
<g transform="translate(664.85 433.08) rotate(-14.444) scale(.08 -.08)">
<use xlink:href="#x"/>
</g>
</g>
<path d="m801.46 581.33 2.6154-3.6096q1.4082-1.9435-0.5353-3.3516l-6.2697-4.5428q-1.9435-1.4082-3.3516 0.5353l-2.6154 3.6096q-1.4082 1.9435 0.5353 3.3516l6.2697 4.5428q1.9435 1.4082 3.3516-0.5353z" clip-path="url(#a)" fill="#fff" stroke="#fff"/>
<g clip-path="url(#a)">
<defs>
<path id="ad" d="m9.8125 72.906h9.8594v-64.609h35.5v-8.2969h-45.359z"/>
</defs>
<g transform="translate(798.17 578.95) rotate(-54.074) scale(.08 -.08)">
<use xlink:href="#ad"/>
</g>
</g>
<path d="m972.16 429.04 1.6728 5.779q0.66729 2.3054 2.9727 1.6381l7.4372-2.1527q2.3054-0.6673 1.6381-2.9727l-1.6728-5.779q-0.6673-2.3054-2.9727-1.6381l-7.4372 2.1527q-2.3054 0.66729-1.6381 2.9727z" clip-path="url(#a)" fill="#fff" stroke="#fff"/>
<g clip-path="url(#a)">
<g transform="translate(976.06 427.91) rotate(73.857) scale(.08 -.08)">
<use xlink:href="#x"/>
</g>
</g>
<path d="m983.58 429.98 2.439 5.4997q0.97297 2.1939 3.1669 1.221l7.0777-3.1389q2.1939-0.97298 1.221-3.1669l-2.439-5.4997q-0.97297-2.1939-3.1669-1.221l-7.0777 3.1389q-2.1939 0.97297-1.221 3.1669z" clip-path="url(#a)" fill="#fff" stroke="#fff"/>
<g clip-path="url(#a)">
<g transform="translate(987.3 428.33) rotate(66.083) scale(.08 -.08)">
<use xlink:href="#x"/>
</g>
</g>
<path d="m1067.4 576.81 2.0847 3.94q1.1224 2.1214 3.2438 0.99892l6.8436-3.621q2.1214-1.1224 0.99892-3.2438l-2.0847-3.94q-1.1224-2.1214-3.2438-0.99892l-6.8436 3.621q-2.1214 1.1224-0.99892 3.2438z" clip-path="url(#a)" fill="#fff" stroke="#fff"/>
<g clip-path="url(#a)">
<g transform="translate(1071 574.91) rotate(62.116) scale(.08 -.08)">
<use xlink:href="#ad"/>
</g>
</g>
<path d="m1182 435.22 5.7204 1.8635q2.282 0.74338 3.0253-1.5386l2.3982-7.3617q0.74338-2.282-1.5386-3.0253l-5.7204-1.8635q-2.282-0.74338-3.0253 1.5386l-2.3982 7.3617q-0.74338 2.282 1.5386 3.0253z" clip-path="url(#a)" fill="#fff" stroke="#fff"/>
<g clip-path="url(#a)">
<g transform="translate(1183.3 431.36) rotate(18.044) scale(.08 -.08)">
<use xlink:href="#x"/>
</g>
</g>
<path d="m918.39 579.96 1.1604-5.7389q0.47565-2.3524-1.8767-2.828l-7.5889-1.5345q-2.3524-0.47565-2.828 1.8767l-1.1604 5.7389q-0.47565 2.3524 1.8767 2.828l7.5889 1.5345q2.3524 0.47565 2.828-1.8767z" clip-path="url(#a)" fill="#fff" stroke="#fff"/>
<g clip-path="url(#a)">
<g transform="translate(914.4 579.16) rotate(-78.569) scale(.08 -.08)">
<use xlink:href="#s"/>
</g>
</g>
<path d="m1044.1 575.6 2.2885 5.3892q0.93806 2.2091 3.1471 1.271l7.1266-3.0262q2.2091-0.93806 1.271-3.1471l-2.2885-5.3892q-0.93806-2.2091-3.1471-1.271l-7.1266 3.0262q-2.2091 0.93806-1.271 3.1471z" clip-path="url(#a)" fill="#fff" stroke="#fff"/>
<g clip-path="url(#a)">
<g transform="translate(1047.8 574.02) rotate(66.992) scale(.08 -.08)">
<use xlink:href="#s"/>
</g>
</g>
<path d="m247.17 887.29 10.704-33.622q0.72807-2.2869-1.5588-3.015l-7.3776-2.3488q-2.2869-0.72807-3.015 1.5588l-10.704 33.622q-0.72807 2.2869 1.5588 3.015l7.3776 2.3488q2.2869 0.72807 3.015-1.5588z" clip-path="url(#a)" fill="#fff" stroke="#fff"/>
<g clip-path="url(#a)">
<defs>
<path id="j" d="m-0.29688 72.906h61.672v-8.3125h-25.875v-64.594h-9.9062v64.594h-25.891z"/>
<path id="c" d="m56.203 29.594v-4.3906h-41.312q0.59375-9.2812 5.5938-14.141t13.938-4.8594q5.1719 0 10.031 1.2656t9.6562 3.8125v-8.5q-4.8438-2.0469-9.9219-3.125t-10.297-1.0781q-13.094 0-20.734 7.6094-7.6406 7.625-7.6406 20.625 0 13.422 7.25 21.297 7.25 7.8906 19.562 7.8906 11.031 0 17.453-7.1094 6.4219-7.0938 6.4219-19.297zm-8.9844 2.6406q-0.09375 7.3594-4.125 11.75-4.0312 4.4062-10.672 4.4062-7.5156 0-12.031-4.25t-5.2031-11.969z"/>
<path id="g" d="m41.109 46.297q-1.5156 0.875-3.2969 1.2812-1.7812 0.42188-3.9219 0.42188-7.625 0-11.703-4.9531t-4.0781-14.234v-28.812h-9.0312v54.688h9.0312v-8.5q2.8438 4.9844 7.375 7.3906 4.5469 2.4219 11.047 2.4219 0.92188 0 2.0469-0.125 1.125-0.10938 2.4844-0.35938z"/>
<path id="k" d="m52 44.188q3.375 6.0625 8.0625 8.9375t11.031 2.875q8.5469 0 13.188-5.9844 4.6406-5.9688 4.6406-17v-33.016h-9.0312v32.719q0 7.8594-2.7969 11.656-2.7812 3.8125-8.4844 3.8125-6.9844 0-11.047-4.6406-4.0469-4.625-4.0469-12.641v-30.906h-9.0312v32.719q0 7.9062-2.7812 11.688t-8.5938 3.7812q-6.8906 0-10.953-4.6562-4.0469-4.6562-4.0469-12.625v-30.906h-9.0312v54.688h9.0312v-8.5q3.0781 5.0312 7.375 7.4219t10.203 2.3906q5.9688 0 10.141-3.0312 4.1719-3.0156 6.1719-8.7812z"/>
<path id="h" d="m9.4219 54.688h8.9844v-54.688h-8.9844zm0 21.297h8.9844v-11.391h-8.9844z"/>
<path id="e" d="m54.891 33.016v-33.016h-8.9844v32.719q0 7.7656-3.0312 11.609-3.0312 3.8594-9.0781 3.8594-7.2812 0-11.484-4.6406-4.2031-4.625-4.2031-12.641v-30.906h-9.0312v54.688h9.0312v-8.5q3.2344 4.9375 7.5938 7.375 4.375 2.4375 10.094 2.4375 9.4219 0 14.25-5.8281 4.8438-5.8281 4.8438-17.156z"/>
<path id="i" d="m34.281 27.484q-10.891 0-15.094-2.4844t-4.2031-8.5q0-4.7812 3.1562-7.5938 3.1562-2.7969 8.5625-2.7969 7.4844 0 12 5.2969t4.5156 14.078v2zm17.922 3.7188v-31.203h-8.9844v8.2969q-3.0781-4.9688-7.6719-7.3438t-11.234-2.375q-8.3906 0-13.359 4.7188-4.9531 4.7188-4.9531 12.625 0 9.2188 6.1719 13.906 6.1875 4.6875 18.438 4.6875h12.609v0.89062q0 6.2031-4.0781 9.5938t-11.453 3.3906q-4.6875 0-9.1406-1.125-4.4375-1.125-8.5312-3.375v8.3125q4.9219 1.9062 9.5625 2.8438 4.6406 0.95312 9.0312 0.95312 11.875 0 17.734-6.1562 5.8594-6.1406 5.8594-18.641z"/>
<path id="l" d="m9.4219 75.984h8.9844v-75.984h-8.9844z"/>
</defs>
<g transform="translate(243.3 886.06) rotate(-72.34) scale(.08 -.08)">
<use xlink:href="#j"/>
<use x="60.818359" xlink:href="#c"/>
<use x="122.341797" xlink:href="#g"/>
<use x="163.439453" xlink:href="#k"/>
<use x="260.851562" xlink:href="#h"/>
<use x="288.634766" xlink:href="#e"/>
<use x="352.013672" xlink:href="#i"/>
<use x="413.292969" xlink:href="#l"/>
</g>
</g>
<path d="m281.27 853.67 10.704 33.622q0.72807 2.2869 3.015 1.5588l7.3776-2.3488q2.2869-0.72807 1.5588-3.015l-10.704-33.622q-0.72807-2.2869-3.015-1.5588l-7.3776 2.3488q-2.2869 0.72807-1.5588 3.015z" clip-path="url(#a)" fill="#fff" stroke="#fff"/>
<g clip-path="url(#a)">
<g transform="translate(285.15 852.44) rotate(72.34) scale(.08 -.08)">
<use xlink:href="#j"/>
<use x="60.818359" xlink:href="#c"/>
<use x="122.341797" xlink:href="#g"/>
<use x="163.439453" xlink:href="#k"/>
<use x="260.851562" xlink:href="#h"/>
<use x="288.634766" xlink:href="#e"/>
<use x="352.013672" xlink:href="#i"/>
<use x="413.292969" xlink:href="#l"/>
</g>
</g>
<path d="m263.3 850.94v35.285q0 2.4 2.4 2.4h7.7425q2.4 0 2.4-2.4v-35.285q0-2.4-2.4-2.4h-7.7425q-2.4 0-2.4 2.4z" clip-path="url(#a)" fill="#fff" stroke="#fff"/>
<g clip-path="url(#a)">
<g transform="translate(267.37 850.94) rotate(90) scale(.08 -.08)">
<use xlink:href="#j"/>
<use x="60.818359" xlink:href="#c"/>
<use x="122.341797" xlink:href="#g"/>
<use x="163.439453" xlink:href="#k"/>
<use x="260.851562" xlink:href="#h"/>
<use x="288.634766" xlink:href="#e"/>
<use x="352.013672" xlink:href="#i"/>
<use x="413.292969" xlink:href="#l"/>
</g>
</g>
<path d="m233.45 657.21 4.3584-4.3532q1.6981-1.696 0.002021-3.3941l-5.4715-5.478q-1.696-1.6981-3.3941-0.002022l-4.3584 4.3532q-1.6981 1.696-0.002022 3.3941l5.4715 5.478q1.696 1.6981 3.3941 0.002021z" clip-path="url(#a)" fill="#fff" stroke="#fff"/>
<g clip-path="url(#a)">
<defs>
<path id="ag" d="m19.672 64.797v-56.688h11.922q15.094 0 22.094 6.8281 7 6.8438 7 21.594 0 14.641-7 21.453t-22.094 6.8125zm-9.8594 8.1094h20.266q21.188 0 31.094-8.8125 9.9219-8.8125 9.9219-27.562 0-18.859-9.9688-27.703-9.9531-8.8281-31.047-8.8281h-20.266z"/>
</defs>
<g transform="translate(230.58 654.33) rotate(-44.966) scale(.08 -.08)">
<use xlink:href="#ag"/>
</g>
</g>
<path d="m420.2 579.53 3.0783 4.5247q1.35 1.9843 3.3343 0.63434l6.4015-4.3551q1.9843-1.35 0.63434-3.3343l-3.0783-4.5247q-1.35-1.9843-3.3343-0.63434l-6.4015 4.3551q-1.9843 1.35-0.63434 3.3343z" clip-path="url(#a)" fill="#fff" stroke="#fff"/>
<g clip-path="url(#a)">
<g transform="translate(423.56 577.25) rotate(55.772) scale(.08 -.08)">
<use xlink:href="#t"/>
</g>
</g>
<path d="m467.25 581.78 3.8325 2.9293q1.9068 1.4574 3.3642-0.44936l4.7018-6.1514q1.4574-1.9068-0.44936-3.3642l-3.8325-2.9293q-1.9068-1.4574-3.3642 0.44936l-4.7018 6.1514q-1.4574 1.9068 0.44936 3.3642z" clip-path="url(#a)" fill="#fff" stroke="#fff"/>
<g clip-path="url(#a)">
<g transform="translate(469.72 578.56) rotate(37.392) scale(.08 -.08)">
<use xlink:href="#w"/>
</g>
</g>
<path d="m631.72 850.94v35.285q0 2.4 2.4 2.4h7.7425q2.4 0 2.4-2.4v-35.285q0-2.4-2.4-2.4h-7.7425q-2.4 0-2.4 2.4z" clip-path="url(#a)" fill="#fff" stroke="#fff"/>
<g clip-path="url(#a)">
<g transform="translate(635.79 850.94) rotate(90) scale(.08 -.08)">
<use xlink:href="#j"/>
<use x="60.818359" xlink:href="#c"/>
<use x="122.341797" xlink:href="#g"/>
<use x="163.439453" xlink:href="#k"/>
<use x="260.851562" xlink:href="#h"/>
<use x="288.634766" xlink:href="#e"/>
<use x="352.013672" xlink:href="#i"/>
<use x="413.292969" xlink:href="#l"/>
</g>
</g>
<path d="m1389.5 727.08 4.7894 2.6476q2.1004 1.1611 3.2616-0.93929l3.7459-6.7761q1.1611-2.1004-0.93929-3.2616l-4.7894-2.6476q-2.1004-1.1611-3.2616 0.93929l-3.7459 6.7761q-1.1611 2.1004 0.93929 3.2616z" clip-path="url(#a)" fill="#fff" stroke="#fff"/>
<g clip-path="url(#a)">
<g transform="translate(1391.5 723.53) rotate(28.934) scale(.08 -.08)">
<use xlink:href="#t"/>
</g>
</g>
<path d="m844.33 657.29 4.5331-4.171q1.7661-1.625 0.14109-3.3912l-5.2425-5.6976q-1.625-1.7661-3.3912-0.14109l-4.5331 4.171q-1.7661 1.625-0.14109 3.3912l5.2425 5.6976q1.625 1.7661 3.3912 0.14109z" clip-path="url(#a)" fill="#fff" stroke="#fff"/>
<g clip-path="url(#a)">
<g transform="translate(841.58 654.3) rotate(-42.618) scale(.08 -.08)">
<use xlink:href="#ag"/>
</g>
</g>
<path d="m868.11 656.87 3.7241-4.0099q1.6332-1.7586-0.12532-3.3918l-5.6732-5.2689q-1.7586-1.6332-3.3918 0.12532l-3.7241 4.0099q-1.6332 1.7586 0.12532 3.3918l5.6732 5.2689q1.7586 1.6332 3.3918-0.12532z" clip-path="url(#a)" fill="#fff" stroke="#fff"/>
<g clip-path="url(#a)">
<g transform="translate(865.13 654.1) rotate(-47.116) scale(.08 -.08)">
<use xlink:href="#t"/>
</g>
</g>
<path d="m901.66 584.76 3.8999-2.8389q1.9404-1.4125 0.52789-3.3528l-4.5567-6.2596q-1.4125-1.9403-3.3528-0.52789l-3.8999 2.8389q-1.9403 1.4125-0.52789 3.3528l4.5567 6.2596q1.4125 1.9403 3.3528 0.52789z" clip-path="url(#a)" fill="#fff" stroke="#fff"/>
<g clip-path="url(#a)">
<g transform="translate(899.27 581.47) rotate(-36.052) scale(.08 -.08)">
<use xlink:href="#w"/>
</g>
</g>
<path d="m984.52 583.81 2.7765-4.7159q1.2176-2.0682-0.85055-3.2858l-6.672-3.9281q-2.0682-1.2176-3.2858 0.85055l-2.7765 4.7159q-1.2176 2.0682 0.85055 3.2858l6.672 3.9281q2.0682 1.2176 3.2858-0.85055z" clip-path="url(#a)" fill="#fff" stroke="#fff"/>
<g clip-path="url(#a)">
<g transform="translate(981.02 581.74) rotate(-59.513) scale(.08 -.08)">
<use xlink:href="#t"/>
</g>
</g>
<path d="m1021.2 653.37 0.28546-4.8153q0.14202-2.3958-2.2538-2.5378l-7.7289-0.45818q-2.3958-0.14202-2.5378 2.2538l-0.28546 4.8153q-0.14202 2.3958 2.2538 2.5378l7.7289 0.45818q2.3958 0.14202 2.5378-2.2538z" clip-path="url(#a)" fill="#fff" stroke="#fff"/>
<g clip-path="url(#a)">
<g transform="translate(1017.1 653.13) rotate(-86.607) scale(.08 -.08)">
<use xlink:href="#w"/>
</g>
</g>
<path d="m1031.6 648.49 0.53807 5.446q0.23598 2.3884 2.6243 2.1524l7.705-0.76127q2.3884-0.23598 2.1524-2.6243l-0.53807-5.446q-0.23598-2.3884-2.6243-2.1524l-7.705 0.76127q-2.3884 0.23598-2.1524 2.6243z" clip-path="url(#a)" fill="#fff" stroke="#fff"/>
<g clip-path="url(#a)">
<g transform="translate(1035.6 648.09) rotate(84.357) scale(.08 -.08)">
<use xlink:href="#t"/>
</g>
</g>
<path d="m1054.3 649.17 1.5326 5.9663q0.59714 2.3245 2.9217 1.7274l7.499-1.9264q2.3245-0.59714 1.7274-2.9217l-1.5326-5.9663q-0.59714-2.3245-2.9217-1.7274l-7.499 1.9264q-2.3245 0.59714-1.7274 2.9217z" clip-path="url(#a)" fill="#fff" stroke="#fff"/>
<g clip-path="url(#a)">
<g transform="translate(1058.2 648.16) rotate(75.593) scale(.08 -.08)">
<use xlink:href="#ag"/>
</g>
</g>
<path d="m1184.3 850.94v35.285q0 2.4 2.4 2.4h7.7425q2.4 0 2.4-2.4v-35.285q0-2.4-2.4-2.4h-7.7425q-2.4 0-2.4 2.4z" clip-path="url(#a)" fill="#fff" stroke="#fff"/>
<g clip-path="url(#a)">
<g transform="translate(1188.4 850.94) rotate(90) scale(.08 -.08)">
<use xlink:href="#j"/>
<use x="60.818359" xlink:href="#c"/>
<use x="122.341797" xlink:href="#g"/>
<use x="163.439453" xlink:href="#k"/>
<use x="260.851562" xlink:href="#h"/>
<use x="288.634766" xlink:href="#e"/>
<use x="352.013672" xlink:href="#i"/>
<use x="413.292969" xlink:href="#l"/>
</g>
</g>
<path d="m1340.3 584.71 3.994-3.7411q1.7516-1.6407 0.11089-3.3923l-5.293-5.6507q-1.6407-1.7516-3.3923-0.1109l-3.994 3.7411q-1.7516 1.6407-0.11089 3.3923l5.293 5.6507q1.6407 1.7516 3.3923 0.11089z" clip-path="url(#a)" fill="#fff" stroke="#fff"/>
<g clip-path="url(#a)">
<g transform="translate(1337.5 581.75) rotate(-43.128) scale(.08 -.08)">
<use xlink:href="#t"/>
</g>
</g>
<path d="m1413.2 653.4 0.30441-4.8141q0.15146-2.3952-2.2438-2.5467l-7.7271-0.48861q-2.3952-0.15146-2.5467 2.2438l-0.30441 4.8141q-0.15146 2.3952 2.2438 2.5467l7.7271 0.48861q2.3952 0.15146 2.5467-2.2438z" clip-path="url(#a)" fill="#fff" stroke="#fff"/>
<g clip-path="url(#a)">
<g transform="translate(1409.1 653.14) rotate(-86.382) scale(.08 -.08)">
<use xlink:href="#w"/>
</g>
</g>
<path d="m1401.3 654.54 0.87313-6.1369q0.33806-2.3761-2.038-2.7141l-7.6653-1.0906q-2.3761-0.33806-2.7141 2.038l-0.87313 6.1369q-0.33806 2.3761 2.038 2.7141l7.6653 1.0906q2.3761 0.33806 2.7141-2.038z" clip-path="url(#a)" fill="#fff" stroke="#fff"/>
<g clip-path="url(#a)">
<defs>
<path id="aw" d="m59.516 10.406v19.578h-16.109v8.1094h25.875v-31.312q-5.7031-4.0469-12.594-6.125-6.875-2.0781-14.688-2.0781-17.094 0-26.75 9.9844-9.6406 10-9.6406 27.812 0 17.875 9.6406 27.859 9.6562 9.9844 26.75 9.9844 7.125 0 13.547-1.7656 6.4219-1.75 11.844-5.1719v-10.5q-5.4688 4.6406-11.625 6.9844t-12.938 2.3438q-13.391 0-20.109-7.4688-6.7031-7.4688-6.7031-22.266 0-14.75 6.7031-22.219 6.7188-7.4688 20.109-7.4688 5.2188 0 9.3125 0.90625 4.1094 0.90625 7.375 2.8125z"/>
</defs>
<g transform="translate(1397.3 653.97) rotate(-81.903) scale(.08 -.08)">
<use xlink:href="#aw"/>
</g>
</g>
<path d="m1412.3 647.61 0.097367 6.1592q0.037935 2.3997 2.4376 2.3618l7.7415-0.12238q2.3997-0.037935 2.3618-2.4376l-0.097367-6.1592q-0.037935-2.3997-2.4376-2.3618l-7.7415 0.12238q-2.3997 0.037935-2.3618 2.4376z" clip-path="url(#a)" fill="#fff" stroke="#fff"/>
<g clip-path="url(#a)">
<g transform="translate(1416.3 647.55) rotate(89.094) scale(.08 -.08)">
<use xlink:href="#ag"/>
</g>
</g>
<path d="m1516.4 581.86 4.4994 3.1151q1.9732 1.3661 3.3394-0.60709l4.4072-6.3657q1.3661-1.9732-0.60709-3.3394l-4.4994-3.1151q-1.9732-1.3661-3.3394 0.60709l-4.4072 6.3657q-1.3661 1.9732 0.60709 3.3394z" clip-path="url(#a)" fill="#fff" stroke="#fff"/>
<g clip-path="url(#a)">
<g transform="translate(1518.7 578.52) rotate(34.696) scale(.08 -.08)">
<use xlink:href="#t"/>
</g>
</g>
<path d="m1254 727.41 0.79466-4.9921q0.37729-2.3702-1.9929-2.7474l-7.6462-1.2171q-2.3702-0.37729-2.7474 1.9929l-0.79466 4.9921q-0.37729 2.3702 1.9929 2.7474l7.6462 1.2171q2.3702 0.37729 2.7474-1.9929z" clip-path="url(#a)" fill="#fff" stroke="#fff"/>
<g clip-path="url(#a)">
<defs>
<path id="y" d="m9.8125 72.906h46.094v-8.3125h-36.234v-21.578h34.719v-8.2969h-34.719v-26.422h37.109v-8.2969h-46.969z"/>
</defs>
<g transform="translate(1250 726.77) rotate(-80.955) scale(.08 -.08)">
<use xlink:href="#y"/>
</g>
</g>
<path d="m1264.6 722.15 0.87818 5.5168q0.37729 2.3702 2.7474 1.9929l7.6462-1.2171q2.3702-0.37729 1.9929-2.7474l-0.87818-5.5168q-0.37729-2.3702-2.7474-1.9929l-7.6462 1.2171q-2.3702 0.37729-1.9929 2.7474z" clip-path="url(#a)" fill="#fff" stroke="#fff"/>
<g clip-path="url(#a)">
<defs>
<path id="v" d="m64.406 67.281v-10.391q-4.9844 4.6406-10.625 6.9219-5.6406 2.2969-11.984 2.2969-12.5 0-19.141-7.6406t-6.6406-22.094q0-14.406 6.6406-22.047t19.141-7.6406q6.3438 0 11.984 2.2969t10.625 6.9375v-10.312q-5.1719-3.5156-10.969-5.2812-5.7812-1.75-12.219-1.75-16.562 0-26.094 10.125-9.5156 10.141-9.5156 27.672 0 17.578 9.5156 27.703 9.5312 10.141 26.094 10.141 6.5312 0 12.312-1.7344 5.7969-1.7344 10.875-5.2031z"/>
</defs>
<g transform="translate(1268.6 721.51) rotate(80.955) scale(.08 -.08)">
<use xlink:href="#v"/>
</g>
</g>
<path d="m1361.4 887.2 15.205-31.841q1.0342-2.1657-1.1315-3.2l-6.9867-3.3365q-2.1657-1.0342-3.2 1.1315l-15.205 31.841q-1.0342 2.1657 1.1315 3.2l6.9867 3.3365q2.1657 1.0342 3.2-1.1315z" clip-path="url(#a)" fill="#fff" stroke="#fff"/>
<g clip-path="url(#a)">
<g transform="translate(1357.7 885.45) rotate(-64.473) scale(.08 -.08)">
<use xlink:href="#j"/>
<use x="60.818359" xlink:href="#c"/>
<use x="122.341797" xlink:href="#g"/>
<use x="163.439453" xlink:href="#k"/>
<use x="260.851562" xlink:href="#h"/>
<use x="288.634766" xlink:href="#e"/>
<use x="352.013672" xlink:href="#i"/>
<use x="413.292969" xlink:href="#l"/>
</g>
</g>
<path d="m1419.1 855.36 15.205 31.841q1.0342 2.1657 3.2 1.1315l6.9867-3.3365q2.1657-1.0342 1.1315-3.2l-15.205-31.841q-1.0342-2.1657-3.2-1.1315l-6.9867 3.3365q-2.1657 1.0342-1.1315 3.2z" clip-path="url(#a)" fill="#fff" stroke="#fff"/>
<g clip-path="url(#a)">
<g transform="translate(1422.8 853.61) rotate(64.473) scale(.08 -.08)">
<use xlink:href="#j"/>
<use x="60.818359" xlink:href="#c"/>
<use x="122.341797" xlink:href="#g"/>
<use x="163.439453" xlink:href="#k"/>
<use x="260.851562" xlink:href="#h"/>
<use x="288.634766" xlink:href="#e"/>
<use x="352.013672" xlink:href="#i"/>
<use x="413.292969" xlink:href="#l"/>
</g>
</g>
<path d="m1368.6 850.94v35.285q0 2.4 2.4 2.4h7.7425q2.4 0 2.4-2.4v-35.285q0-2.4-2.4-2.4h-7.7425q-2.4 0-2.4 2.4z" clip-path="url(#a)" fill="#fff" stroke="#fff"/>
<g clip-path="url(#a)">
<g transform="translate(1372.6 850.94) rotate(90) scale(.08 -.08)">
<use xlink:href="#j"/>
<use x="60.818359" xlink:href="#c"/>
<use x="122.341797" xlink:href="#g"/>
<use x="163.439453" xlink:href="#k"/>
<use x="260.851562" xlink:href="#h"/>
<use x="288.634766" xlink:href="#e"/>
<use x="352.013672" xlink:href="#i"/>
<use x="413.292969" xlink:href="#l"/>
</g>
</g>
<path d="m1414.6 850.94v35.285q0 2.4 2.4 2.4h7.7425q2.4 0 2.4-2.4v-35.285q0-2.4-2.4-2.4h-7.7425q-2.4 0-2.4 2.4z" clip-path="url(#a)" fill="#fff" stroke="#fff"/>
<g clip-path="url(#a)">
<g transform="translate(1418.7 850.94) rotate(90) scale(.08 -.08)">
<use xlink:href="#j"/>
<use x="60.818359" xlink:href="#c"/>
<use x="122.341797" xlink:href="#g"/>
<use x="163.439453" xlink:href="#k"/>
<use x="260.851562" xlink:href="#h"/>
<use x="288.634766" xlink:href="#e"/>
<use x="352.013672" xlink:href="#i"/>
<use x="413.292969" xlink:href="#l"/>
</g>
</g>
<path d="m1573.7 730.01 3.4617-4.3493q1.4946-1.8778-0.38324-3.3724l-6.0579-4.8216q-1.8778-1.4946-3.3724 0.38324l-3.4617 4.3493q-1.4946 1.8778 0.38324 3.3724l6.0579 4.8216q1.8778 1.4946 3.3724-0.38324z" clip-path="url(#a)" fill="#fff" stroke="#fff"/>
<g clip-path="url(#a)">
<defs>
<path id="af" d="m44.391 34.188q3.1719-1.0781 6.1719-4.5938t6.0312-9.6719l10.016-19.922h-10.609l-9.3125 18.703q-3.625 7.3281-7.0156 9.7188t-9.25 2.3906h-10.75v-30.812h-9.8594v72.906h22.266q12.5 0 18.656-5.2344 6.1562-5.2188 6.1562-15.766 0-6.8906-3.2031-11.438-3.2031-4.5312-9.2969-6.2812zm-24.719 30.609v-25.875h12.406q7.125 0 10.766 3.2969t3.6406 9.6875-3.6406 9.6406-10.766 3.25z"/>
</defs>
<g transform="translate(1570.5 727.47) rotate(-51.483) scale(.08 -.08)">
<use xlink:href="#af"/>
</g>
</g>
<path d="m1598.1 728.91 2.1784-4.5616q1.0342-2.1657-1.1315-3.2l-6.9867-3.3365q-2.1657-1.0342-3.2 1.1315l-2.1784 4.5616q-1.0342 2.1657 1.1315 3.2l6.9867 3.3365q2.1657 1.0342 3.2-1.1315z" clip-path="url(#a)" fill="#fff" stroke="#fff"/>
<g clip-path="url(#a)">
<g transform="translate(1594.5 727.16) rotate(-64.473) scale(.08 -.08)">
<use xlink:href="#y"/>
</g>
</g>
<path d="m1622.4 727.67 0.87818-5.5168q0.37729-2.3702-1.9929-2.7474l-7.6462-1.2171q-2.3702-0.37729-2.7474 1.9929l-0.87818 5.5168q-0.37729 2.3702 1.9929 2.7474l7.6462 1.2171q2.3702 0.37729 2.7474-1.9929z" clip-path="url(#a)" fill="#fff" stroke="#fff"/>
<g clip-path="url(#a)">
<g transform="translate(1618.3 727.03) rotate(-80.955) scale(.08 -.08)">
<use xlink:href="#v"/>
</g>
</g>
<path d="m1633 722.02 0.92042 5.7822q0.37729 2.3702 2.7474 1.9929l7.6462-1.2171q2.3702-0.37729 1.9929-2.7474l-0.92043-5.7822q-0.37729-2.3702-2.7474-1.9929l-7.6462 1.2171q-2.3702 0.37729-1.9929 2.7474z" clip-path="url(#a)" fill="#fff" stroke="#fff"/>
<g clip-path="url(#a)">
<g transform="translate(1637 721.38) rotate(80.955) scale(.08 -.08)">
<use xlink:href="#s"/>
</g>
</g>
<path d="m1655.7 723.99 2.5231 5.2835q1.0342 2.1657 3.2 1.1315l6.9867-3.3365q2.1657-1.0342 1.1315-3.2l-2.5231-5.2835q-1.0342-2.1657-3.2-1.1315l-6.9867 3.3365q-2.1657 1.0342-1.1315 3.2z" clip-path="url(#a)" fill="#fff" stroke="#fff"/>
<g clip-path="url(#a)">
<g transform="translate(1659.4 722.23) rotate(64.473) scale(.08 -.08)">
<use xlink:href="#s"/>
</g>
</g>
<path d="m1679 725.54 3.6462 4.5811q1.4946 1.8778 3.3724 0.38324l6.0579-4.8216q1.8778-1.4946 0.38324-3.3724l-3.6462-4.5811q-1.4946-1.8778-3.3724-0.38324l-6.0579 4.8216q-1.8778 1.4946-0.38324 3.3724z" clip-path="url(#a)" fill="#fff" stroke="#fff"/>
<g clip-path="url(#a)">
<g transform="translate(1682.1 723.01) rotate(51.483) scale(.08 -.08)">
<use xlink:href="#s"/>
</g>
</g>
<path d="m1506.7 850.94v35.285q0 2.4 2.4 2.4h7.7425q2.4 0 2.4-2.4v-35.285q0-2.4-2.4-2.4h-7.7425q-2.4 0-2.4 2.4z" clip-path="url(#a)" fill="#fff" stroke="#fff"/>
<g clip-path="url(#a)">
<g transform="translate(1510.8 850.94) rotate(90) scale(.08 -.08)">
<use xlink:href="#j"/>
<use x="60.818359" xlink:href="#c"/>
<use x="122.341797" xlink:href="#g"/>
<use x="163.439453" xlink:href="#k"/>
<use x="260.851562" xlink:href="#h"/>
<use x="288.634766" xlink:href="#e"/>
<use x="352.013672" xlink:href="#i"/>
<use x="413.292969" xlink:href="#l"/>
</g>
</g>
<path d="m1552.8 850.94v35.285q0 2.4 2.4 2.4h7.7425q2.4 0 2.4-2.4v-35.285q0-2.4-2.4-2.4h-7.7425q-2.4 0-2.4 2.4z" clip-path="url(#a)" fill="#fff" stroke="#fff"/>
<g clip-path="url(#a)">
<g transform="translate(1556.8 850.94) rotate(90) scale(.08 -.08)">
<use xlink:href="#j"/>
<use x="60.818359" xlink:href="#c"/>
<use x="122.341797" xlink:href="#g"/>
<use x="163.439453" xlink:href="#k"/>
<use x="260.851562" xlink:href="#h"/>
<use x="288.634766" xlink:href="#e"/>
<use x="352.013672" xlink:href="#i"/>
<use x="413.292969" xlink:href="#l"/>
</g>
</g>
<path d="m1598.8 850.94v35.285q0 2.4 2.4 2.4h7.7425q2.4 0 2.4-2.4v-35.285q0-2.4-2.4-2.4h-7.7425q-2.4 0-2.4 2.4z" clip-path="url(#a)" fill="#fff" stroke="#fff"/>
<g clip-path="url(#a)">
<g transform="translate(1602.9 850.94) rotate(90) scale(.08 -.08)">
<use xlink:href="#j"/>
<use x="60.818359" xlink:href="#c"/>
<use x="122.341797" xlink:href="#g"/>
<use x="163.439453" xlink:href="#k"/>
<use x="260.851562" xlink:href="#h"/>
<use x="288.634766" xlink:href="#e"/>
<use x="352.013672" xlink:href="#i"/>
<use x="413.292969" xlink:href="#l"/>
</g>
</g>
<path d="m1230.4 850.94v35.285q0 2.4 2.4 2.4h7.7425q2.4 0 2.4-2.4v-35.285q0-2.4-2.4-2.4h-7.7425q-2.4 0-2.4 2.4z" clip-path="url(#a)" fill="#fff" stroke="#fff"/>
<g clip-path="url(#a)">
<g transform="translate(1234.5 850.94) rotate(90) scale(.08 -.08)">
<use xlink:href="#j"/>
<use x="60.818359" xlink:href="#c"/>
<use x="122.341797" xlink:href="#g"/>
<use x="163.439453" xlink:href="#k"/>
<use x="260.851562" xlink:href="#h"/>
<use x="288.634766" xlink:href="#e"/>
<use x="352.013672" xlink:href="#i"/>
<use x="413.292969" xlink:href="#l"/>
</g>
</g>
<path d="m1276.5 850.94v35.285q0 2.4 2.4 2.4h7.7425q2.4 0 2.4-2.4v-35.285q0-2.4-2.4-2.4h-7.7425q-2.4 0-2.4 2.4z" clip-path="url(#a)" fill="#fff" stroke="#fff"/>
<g clip-path="url(#a)">
<g transform="translate(1280.5 850.94) rotate(90) scale(.08 -.08)">
<use xlink:href="#j"/>
<use x="60.818359" xlink:href="#c"/>
<use x="122.341797" xlink:href="#g"/>
<use x="163.439453" xlink:href="#k"/>
<use x="260.851562" xlink:href="#h"/>
<use x="288.634766" xlink:href="#e"/>
<use x="352.013672" xlink:href="#i"/>
<use x="413.292969" xlink:href="#l"/>
</g>
</g>
<path d="m931.58 727.66 0.87385-5.4896q0.37729-2.3702-1.9929-2.7474l-7.6462-1.2171q-2.3702-0.37729-2.7474 1.9929l-0.87385 5.4896q-0.37729 2.3702 1.9929 2.7474l7.6462 1.2171q2.3702 0.37729 2.7474-1.9929z" clip-path="url(#a)" fill="#fff" stroke="#fff"/>
<g clip-path="url(#a)">
<g transform="translate(927.56 727.02) rotate(-80.955) scale(.08 -.08)">
<use xlink:href="#af"/>
</g>
</g>
<path d="m942.21 722.15 0.87818 5.5168q0.37729 2.3702 2.7474 1.9929l7.6462-1.2171q2.3702-0.37729 1.9929-2.7474l-0.87818-5.5168q-0.37729-2.3702-2.7474-1.9929l-7.6462 1.2171q-2.3702 0.37729-1.9929 2.7474z" clip-path="url(#a)" fill="#fff" stroke="#fff"/>
<g clip-path="url(#a)">
<g transform="translate(946.23 721.51) rotate(80.955) scale(.08 -.08)">
<use xlink:href="#v"/>
</g>
</g>
<path d="m1000.1 850.94v35.285q0 2.4 2.4 2.4h7.7425q2.4 0 2.4-2.4v-35.285q0-2.4-2.4-2.4h-7.7425q-2.4 0-2.4 2.4z" clip-path="url(#a)" fill="#fff" stroke="#fff"/>
<g clip-path="url(#a)">
<g transform="translate(1004.2 850.94) rotate(90) scale(.08 -.08)">
<use xlink:href="#j"/>
<use x="60.818359" xlink:href="#c"/>
<use x="122.341797" xlink:href="#g"/>
<use x="163.439453" xlink:href="#k"/>
<use x="260.851562" xlink:href="#h"/>
<use x="288.634766" xlink:href="#e"/>
<use x="352.013672" xlink:href="#i"/>
<use x="413.292969" xlink:href="#l"/>
</g>
</g>
<path d="m1046.2 850.94v35.285q0 2.4 2.4 2.4h7.7425q2.4 0 2.4-2.4v-35.285q0-2.4-2.4-2.4h-7.7425q-2.4 0-2.4 2.4z" clip-path="url(#a)" fill="#fff" stroke="#fff"/>
<g clip-path="url(#a)">
<g transform="translate(1050.3 850.94) rotate(90) scale(.08 -.08)">
<use xlink:href="#j"/>
<use x="60.818359" xlink:href="#c"/>
<use x="122.341797" xlink:href="#g"/>
<use x="163.439453" xlink:href="#k"/>
<use x="260.851562" xlink:href="#h"/>
<use x="288.634766" xlink:href="#e"/>
<use x="352.013672" xlink:href="#i"/>
<use x="413.292969" xlink:href="#l"/>
</g>
</g>
<path d="m1092.2 850.94v35.285q0 2.4 2.4 2.4h7.7425q2.4 0 2.4-2.4v-35.285q0-2.4-2.4-2.4h-7.7425q-2.4 0-2.4 2.4z" clip-path="url(#a)" fill="#fff" stroke="#fff"/>
<g clip-path="url(#a)">
<g transform="translate(1096.3 850.94) rotate(90) scale(.08 -.08)">
<use xlink:href="#j"/>
<use x="60.818359" xlink:href="#c"/>
<use x="122.341797" xlink:href="#g"/>
<use x="163.439453" xlink:href="#k"/>
<use x="260.851562" xlink:href="#h"/>
<use x="288.634766" xlink:href="#e"/>
<use x="352.013672" xlink:href="#i"/>
<use x="413.292969" xlink:href="#l"/>
</g>
</g>
<path d="m908.04 850.94v35.285q0 2.4 2.4 2.4h7.7425q2.4 0 2.4-2.4v-35.285q0-2.4-2.4-2.4h-7.7425q-2.4 0-2.4 2.4z" clip-path="url(#a)" fill="#fff" stroke="#fff"/>
<g clip-path="url(#a)">
<g transform="translate(912.1 850.94) rotate(90) scale(.08 -.08)">
<use xlink:href="#j"/>
<use x="60.818359" xlink:href="#c"/>
<use x="122.341797" xlink:href="#g"/>
<use x="163.439453" xlink:href="#k"/>
<use x="260.851562" xlink:href="#h"/>
<use x="288.634766" xlink:href="#e"/>
<use x="352.013672" xlink:href="#i"/>
<use x="413.292969" xlink:href="#l"/>
</g>
</g>
<path d="m954.09 850.94v35.285q0 2.4 2.4 2.4h7.7425q2.4 0 2.4-2.4v-35.285q0-2.4-2.4-2.4h-7.7425q-2.4 0-2.4 2.4z" clip-path="url(#a)" fill="#fff" stroke="#fff"/>
<g clip-path="url(#a)">
<g transform="translate(958.15 850.94) rotate(90) scale(.08 -.08)">
<use xlink:href="#j"/>
<use x="60.818359" xlink:href="#c"/>
<use x="122.341797" xlink:href="#g"/>
<use x="163.439453" xlink:href="#k"/>
<use x="260.851562" xlink:href="#h"/>
<use x="288.634766" xlink:href="#e"/>
<use x="352.013672" xlink:href="#i"/>
<use x="413.292969" xlink:href="#l"/>
</g>
</g>
<path d="m677.77 850.94v35.285q0 2.4 2.4 2.4h7.7425q2.4 0 2.4-2.4v-35.285q0-2.4-2.4-2.4h-7.7425q-2.4 0-2.4 2.4z" clip-path="url(#a)" fill="#fff" stroke="#fff"/>
<g clip-path="url(#a)">
<g transform="translate(681.84 850.94) rotate(90) scale(.08 -.08)">
<use xlink:href="#j"/>
<use x="60.818359" xlink:href="#c"/>
<use x="122.341797" xlink:href="#g"/>
<use x="163.439453" xlink:href="#k"/>
<use x="260.851562" xlink:href="#h"/>
<use x="288.634766" xlink:href="#e"/>
<use x="352.013672" xlink:href="#i"/>
<use x="413.292969" xlink:href="#l"/>
</g>
</g>
<path d="m723.83 850.94v35.285q0 2.4 2.4 2.4h7.7425q2.4 0 2.4-2.4v-35.285q0-2.4-2.4-2.4h-7.7425q-2.4 0-2.4 2.4z" clip-path="url(#a)" fill="#fff" stroke="#fff"/>
<g clip-path="url(#a)">
<g transform="translate(727.89 850.94) rotate(90) scale(.08 -.08)">
<use xlink:href="#j"/>
<use x="60.818359" xlink:href="#c"/>
<use x="122.341797" xlink:href="#g"/>
<use x="163.439453" xlink:href="#k"/>
<use x="260.851562" xlink:href="#h"/>
<use x="288.634766" xlink:href="#e"/>
<use x="352.013672" xlink:href="#i"/>
<use x="413.292969" xlink:href="#l"/>
</g>
</g>
<path d="m793.42 727.66 0.87385-5.4896q0.37729-2.3702-1.9929-2.7474l-7.6462-1.2171q-2.3702-0.37729-2.7474 1.9929l-0.87385 5.4896q-0.37729 2.3702 1.9929 2.7474l7.6462 1.2171q2.3702 0.37729 2.7474-1.9929z" clip-path="url(#a)" fill="#fff" stroke="#fff"/>
<g clip-path="url(#a)">
<g transform="translate(789.41 727.02) rotate(-80.955) scale(.08 -.08)">
<use xlink:href="#af"/>
</g>
</g>
<path d="m804.06 722.15 0.87818 5.5168q0.37729 2.3702 2.7474 1.9929l7.6462-1.2171q2.3702-0.37729 1.9929-2.7474l-0.87818-5.5168q-0.37729-2.3702-2.7474-1.9929l-7.6462 1.2171q-2.3702 0.37729-1.9929 2.7474z" clip-path="url(#a)" fill="#fff" stroke="#fff"/>
<g clip-path="url(#a)">
<g transform="translate(808.07 721.51) rotate(80.955) scale(.08 -.08)">
<use xlink:href="#v"/>
</g>
</g>
<path d="m769.88 850.94v35.285q0 2.4 2.4 2.4h7.7425q2.4 0 2.4-2.4v-35.285q0-2.4-2.4-2.4h-7.7425q-2.4 0-2.4 2.4z" clip-path="url(#a)" fill="#fff" stroke="#fff"/>
<g clip-path="url(#a)">
<g transform="translate(773.94 850.94) rotate(90) scale(.08 -.08)">
<use xlink:href="#j"/>
<use x="60.818359" xlink:href="#c"/>
<use x="122.341797" xlink:href="#g"/>
<use x="163.439453" xlink:href="#k"/>
<use x="260.851562" xlink:href="#h"/>
<use x="288.634766" xlink:href="#e"/>
<use x="352.013672" xlink:href="#i"/>
<use x="413.292969" xlink:href="#l"/>
</g>
</g>
<path d="m815.93 850.94v35.285q0 2.4 2.4 2.4h7.7425q2.4 0 2.4-2.4v-35.285q0-2.4-2.4-2.4h-7.7425q-2.4 0-2.4 2.4z" clip-path="url(#a)" fill="#fff" stroke="#fff"/>
<g clip-path="url(#a)">
<g transform="translate(820 850.94) rotate(90) scale(.08 -.08)">
<use xlink:href="#j"/>
<use x="60.818359" xlink:href="#c"/>
<use x="122.341797" xlink:href="#g"/>
<use x="163.439453" xlink:href="#k"/>
<use x="260.851562" xlink:href="#h"/>
<use x="288.634766" xlink:href="#e"/>
<use x="352.013672" xlink:href="#i"/>
<use x="413.292969" xlink:href="#l"/>
</g>
</g>
<path d="m79.094 850.94v35.285q0 2.4 2.4 2.4h7.7425q2.4 0 2.4-2.4v-35.285q0-2.4-2.4-2.4h-7.7425q-2.4 0-2.4 2.4z" clip-path="url(#a)" fill="#fff" stroke="#fff"/>
<g clip-path="url(#a)">
<g transform="translate(83.158 850.94) rotate(90) scale(.08 -.08)">
<use xlink:href="#j"/>
<use x="60.818359" xlink:href="#c"/>
<use x="122.341797" xlink:href="#g"/>
<use x="163.439453" xlink:href="#k"/>
<use x="260.851562" xlink:href="#h"/>
<use x="288.634766" xlink:href="#e"/>
<use x="352.013672" xlink:href="#i"/>
<use x="413.292969" xlink:href="#l"/>
</g>
</g>
<path d="m471.09 727.41 0.79466-4.9921q0.37729-2.3702-1.9929-2.7474l-7.6462-1.2171q-2.3702-0.37729-2.7474 1.9929l-0.79466 4.9921q-0.37729 2.3702 1.9929 2.7474l7.6462 1.2171q2.3702 0.37729 2.7474-1.9929z" clip-path="url(#a)" fill="#fff" stroke="#fff"/>
<g clip-path="url(#a)">
<g transform="translate(467.08 726.77) rotate(-80.955) scale(.08 -.08)">
<use xlink:href="#y"/>
</g>
</g>
<path d="m481.69 722.15 0.87818 5.5168q0.37729 2.3702 2.7474 1.9929l7.6462-1.2171q2.3702-0.37729 1.9929-2.7474l-0.87818-5.5168q-0.37729-2.3702-2.7474-1.9929l-7.6462 1.2171q-2.3702 0.37729-1.9929 2.7474z" clip-path="url(#a)" fill="#fff" stroke="#fff"/>
<g clip-path="url(#a)">
<g transform="translate(485.7 721.51) rotate(80.955) scale(.08 -.08)">
<use xlink:href="#v"/>
</g>
</g>
<path d="m563.16 727.66 0.87385-5.4896q0.37729-2.3702-1.9929-2.7474l-7.6462-1.2171q-2.3702-0.37729-2.7474 1.9929l-0.87385 5.4896q-0.37729 2.3702 1.9929 2.7474l7.6462 1.2171q2.3702 0.37729 2.7474-1.9929z" clip-path="url(#a)" fill="#fff" stroke="#fff"/>
<g clip-path="url(#a)">
<g transform="translate(559.14 727.02) rotate(-80.955) scale(.08 -.08)">
<use xlink:href="#af"/>
</g>
</g>
<path d="m573.8 722.15 0.87818 5.5168q0.37729 2.3702 2.7474 1.9929l7.6462-1.2171q2.3702-0.37729 1.9929-2.7474l-0.87818-5.5168q-0.37729-2.3702-2.7474-1.9929l-7.6462 1.2171q-2.3702 0.37729-1.9929 2.7474z" clip-path="url(#a)" fill="#fff" stroke="#fff"/>
<g clip-path="url(#a)">
<g transform="translate(577.81 721.51) rotate(80.955) scale(.08 -.08)">
<use xlink:href="#v"/>
</g>
</g>
<path d="m539.62 850.94v35.285q0 2.4 2.4 2.4h7.7425q2.4 0 2.4-2.4v-35.285q0-2.4-2.4-2.4h-7.7425q-2.4 0-2.4 2.4z" clip-path="url(#a)" fill="#fff" stroke="#fff"/>
<g clip-path="url(#a)">
<g transform="translate(543.68 850.94) rotate(90) scale(.08 -.08)">
<use xlink:href="#j"/>
<use x="60.818359" xlink:href="#c"/>
<use x="122.341797" xlink:href="#g"/>
<use x="163.439453" xlink:href="#k"/>
<use x="260.851562" xlink:href="#h"/>
<use x="288.634766" xlink:href="#e"/>
<use x="352.013672" xlink:href="#i"/>
<use x="413.292969" xlink:href="#l"/>
</g>
</g>
<path d="m585.67 850.94v35.285q0 2.4 2.4 2.4h7.7425q2.4 0 2.4-2.4v-35.285q0-2.4-2.4-2.4h-7.7425q-2.4 0-2.4 2.4z" clip-path="url(#a)" fill="#fff" stroke="#fff"/>
<g clip-path="url(#a)">
<g transform="translate(589.73 850.94) rotate(90) scale(.08 -.08)">
<use xlink:href="#j"/>
<use x="60.818359" xlink:href="#c"/>
<use x="122.341797" xlink:href="#g"/>
<use x="163.439453" xlink:href="#k"/>
<use x="260.851562" xlink:href="#h"/>
<use x="288.634766" xlink:href="#e"/>
<use x="352.013672" xlink:href="#i"/>
<use x="413.292969" xlink:href="#l"/>
</g>
</g>
<path d="m447.51 850.94v35.285q0 2.4 2.4 2.4h7.7425q2.4 0 2.4-2.4v-35.285q0-2.4-2.4-2.4h-7.7425q-2.4 0-2.4 2.4z" clip-path="url(#a)" fill="#fff" stroke="#fff"/>
<g clip-path="url(#a)">
<g transform="translate(451.58 850.94) rotate(90) scale(.08 -.08)">
<use xlink:href="#j"/>
<use x="60.818359" xlink:href="#c"/>
<use x="122.341797" xlink:href="#g"/>
<use x="163.439453" xlink:href="#k"/>
<use x="260.851562" xlink:href="#h"/>
<use x="288.634766" xlink:href="#e"/>
<use x="352.013672" xlink:href="#i"/>
<use x="413.292969" xlink:href="#l"/>
</g>
</g>
<path d="m493.56 850.94v35.285q0 2.4 2.4 2.4h7.7425q2.4 0 2.4-2.4v-35.285q0-2.4-2.4-2.4h-7.7425q-2.4 0-2.4 2.4z" clip-path="url(#a)" fill="#fff" stroke="#fff"/>
<g clip-path="url(#a)">
<g transform="translate(497.63 850.94) rotate(90) scale(.08 -.08)">
<use xlink:href="#j"/>
<use x="60.818359" xlink:href="#c"/>
<use x="122.341797" xlink:href="#g"/>
<use x="163.439453" xlink:href="#k"/>
<use x="260.851562" xlink:href="#h"/>
<use x="288.634766" xlink:href="#e"/>
<use x="352.013672" xlink:href="#i"/>
<use x="413.292969" xlink:href="#l"/>
</g>
</g>
<path d="m125.15 850.94v35.285q0 2.4 2.4 2.4h7.7425q2.4 0 2.4-2.4v-35.285q0-2.4-2.4-2.4h-7.7425q-2.4 0-2.4 2.4z" clip-path="url(#a)" fill="#fff" stroke="#fff"/>
<g clip-path="url(#a)">
<g transform="translate(129.21 850.94) rotate(90) scale(.08 -.08)">
<use xlink:href="#j"/>
<use x="60.818359" xlink:href="#c"/>
<use x="122.341797" xlink:href="#g"/>
<use x="163.439453" xlink:href="#k"/>
<use x="260.851562" xlink:href="#h"/>
<use x="288.634766" xlink:href="#e"/>
<use x="352.013672" xlink:href="#i"/>
<use x="413.292969" xlink:href="#l"/>
</g>
</g>
<path d="m171.2 850.94v35.285q0 2.4 2.4 2.4h7.7425q2.4 0 2.4-2.4v-35.285q0-2.4-2.4-2.4h-7.7425q-2.4 0-2.4 2.4z" clip-path="url(#a)" fill="#fff" stroke="#fff"/>
<g clip-path="url(#a)">
<g transform="translate(175.26 850.94) rotate(90) scale(.08 -.08)">
<use xlink:href="#j"/>
<use x="60.818359" xlink:href="#c"/>
<use x="122.341797" xlink:href="#g"/>
<use x="163.439453" xlink:href="#k"/>
<use x="260.851562" xlink:href="#h"/>
<use x="288.634766" xlink:href="#e"/>
<use x="352.013672" xlink:href="#i"/>
<use x="413.292969" xlink:href="#l"/>
</g>
</g>
<path d="m355.41 850.94v35.285q0 2.4 2.4 2.4h7.7425q2.4 0 2.4-2.4v-35.285q0-2.4-2.4-2.4h-7.7425q-2.4 0-2.4 2.4z" clip-path="url(#a)" fill="#fff" stroke="#fff"/>
<g clip-path="url(#a)">
<g transform="translate(359.47 850.94) rotate(90) scale(.08 -.08)">
<use xlink:href="#j"/>
<use x="60.818359" xlink:href="#c"/>
<use x="122.341797" xlink:href="#g"/>
<use x="163.439453" xlink:href="#k"/>
<use x="260.851562" xlink:href="#h"/>
<use x="288.634766" xlink:href="#e"/>
<use x="352.013672" xlink:href="#i"/>
<use x="413.292969" xlink:href="#l"/>
</g>
</g>
<path d="m401.46 850.94v35.285q0 2.4 2.4 2.4h7.7425q2.4 0 2.4-2.4v-35.285q0-2.4-2.4-2.4h-7.7425q-2.4 0-2.4 2.4z" clip-path="url(#a)" fill="#fff" stroke="#fff"/>
<g clip-path="url(#a)">
<g transform="translate(405.52 850.94) rotate(90) scale(.08 -.08)">
<use xlink:href="#j"/>
<use x="60.818359" xlink:href="#c"/>
<use x="122.341797" xlink:href="#g"/>
<use x="163.439453" xlink:href="#k"/>
<use x="260.851562" xlink:href="#h"/>
<use x="288.634766" xlink:href="#e"/>
<use x="352.013672" xlink:href="#i"/>
<use x="413.292969" xlink:href="#l"/>
</g>
</g>
<path d="m861.98 850.94v35.285q0 2.4 2.4 2.4h7.7425q2.4 0 2.4-2.4v-35.285q0-2.4-2.4-2.4h-7.7425q-2.4 0-2.4 2.4z" clip-path="url(#a)" fill="#fff" stroke="#fff"/>
<g clip-path="url(#a)">
<g transform="translate(866.05 850.94) rotate(90) scale(.08 -.08)">
<use xlink:href="#j"/>
<use x="60.818359" xlink:href="#c"/>
<use x="122.341797" xlink:href="#g"/>
<use x="163.439453" xlink:href="#k"/>
<use x="260.851562" xlink:href="#h"/>
<use x="288.634766" xlink:href="#e"/>
<use x="352.013672" xlink:href="#i"/>
<use x="413.292969" xlink:href="#l"/>
</g>
</g>
<path d="m1138.3 850.94v35.285q0 2.4 2.4 2.4h7.7425q2.4 0 2.4-2.4v-35.285q0-2.4-2.4-2.4h-7.7425q-2.4 0-2.4 2.4z" clip-path="url(#a)" fill="#fff" stroke="#fff"/>
<g clip-path="url(#a)">
<g transform="translate(1142.4 850.94) rotate(90) scale(.08 -.08)">
<use xlink:href="#j"/>
<use x="60.818359" xlink:href="#c"/>
<use x="122.341797" xlink:href="#g"/>
<use x="163.439453" xlink:href="#k"/>
<use x="260.851562" xlink:href="#h"/>
<use x="288.634766" xlink:href="#e"/>
<use x="352.013672" xlink:href="#i"/>
<use x="413.292969" xlink:href="#l"/>
</g>
</g>
<path d="m1644.9 850.94v35.285q0 2.4 2.4 2.4h7.7425q2.4 0 2.4-2.4v-35.285q0-2.4-2.4-2.4h-7.7425q-2.4 0-2.4 2.4z" clip-path="url(#a)" fill="#fff" stroke="#fff"/>
<g clip-path="url(#a)">
<g transform="translate(1648.9 850.94) rotate(90) scale(.08 -.08)">
<use xlink:href="#j"/>
<use x="60.818359" xlink:href="#c"/>
<use x="122.341797" xlink:href="#g"/>
<use x="163.439453" xlink:href="#k"/>
<use x="260.851562" xlink:href="#h"/>
<use x="288.634766" xlink:href="#e"/>
<use x="352.013672" xlink:href="#i"/>
<use x="413.292969" xlink:href="#l"/>
</g>
</g>
<path d="m1690.9 850.94v35.285q0 2.4 2.4 2.4h7.7425q2.4 0 2.4-2.4v-35.285q0-2.4-2.4-2.4h-7.7425q-2.4 0-2.4 2.4z" clip-path="url(#a)" fill="#fff" stroke="#fff"/>
<g clip-path="url(#a)">
<g transform="translate(1695 850.94) rotate(90) scale(.08 -.08)">
<use xlink:href="#j"/>
<use x="60.818359" xlink:href="#c"/>
<use x="122.341797" xlink:href="#g"/>
<use x="163.439453" xlink:href="#k"/>
<use x="260.851562" xlink:href="#h"/>
<use x="288.634766" xlink:href="#e"/>
<use x="352.013672" xlink:href="#i"/>
<use x="413.292969" xlink:href="#l"/>
</g>
</g>
<path d="m1737 850.94v35.285q0 2.4 2.4 2.4h7.7425q2.4 0 2.4-2.4v-35.285q0-2.4-2.4-2.4h-7.7425q-2.4 0-2.4 2.4z" clip-path="url(#a)" fill="#fff" stroke="#fff"/>
<g clip-path="url(#a)">
<g transform="translate(1741 850.94) rotate(90) scale(.08 -.08)">
<use xlink:href="#j"/>
<use x="60.818359" xlink:href="#c"/>
<use x="122.341797" xlink:href="#g"/>
<use x="163.439453" xlink:href="#k"/>
<use x="260.851562" xlink:href="#h"/>
<use x="288.634766" xlink:href="#e"/>
<use x="352.013672" xlink:href="#i"/>
<use x="413.292969" xlink:href="#l"/>
</g>
</g>
<defs>
<path id="b" d="m0 8.6603c2.2967 0 4.4997-0.9125 6.1237-2.5365 1.624-1.624 2.5365-3.827 2.5365-6.1237s-0.9125-4.4997-2.5365-6.1237c-1.624-1.624-3.827-2.5365-6.1237-2.5365s-4.4997 0.9125-6.1237 2.5365c-1.624 1.624-2.5365 3.827-2.5365 6.1237s0.9125 4.4997 2.5365 6.1237c1.624 1.624 3.827 2.5365 6.1237 2.5365z"/>
</defs>
<g clip-path="url(#a)">
<use x="85.365297" y="940.904029" fill="#ffffff" stroke="#ffffff" xlink:href="#b"/>
</g>
<g clip-path="url(#a)">
<use x="131.417623" y="940.904029" fill="#ffffff" stroke="#ffffff" xlink:href="#b"/>
</g>
<g clip-path="url(#a)">
<use x="177.46995" y="940.904029" fill="#ffffff" stroke="#ffffff" xlink:href="#b"/>
</g>
<g clip-path="url(#a)">
<use x="223.522276" y="940.904029" fill="#ffffff" stroke="#ffffff" xlink:href="#b"/>
</g>
<g clip-path="url(#a)">
<use x="269.574602" y="940.904029" fill="#ffffff" stroke="#ffffff" xlink:href="#b"/>
</g>
<g clip-path="url(#a)">
<use x="315.626929" y="940.904029" fill="#ffffff" stroke="#ffffff" xlink:href="#b"/>
</g>
<g clip-path="url(#a)">
<use x="361.679255" y="940.904029" fill="#ffffff" stroke="#ffffff" xlink:href="#b"/>
</g>
<g clip-path="url(#a)">
<use x="407.731581" y="940.904029" fill="#ffffff" stroke="#ffffff" xlink:href="#b"/>
</g>
<g clip-path="url(#a)">
<use x="453.783907" y="940.904029" fill="#ffffff" stroke="#ffffff" xlink:href="#b"/>
</g>
<g clip-path="url(#a)">
<use x="499.836234" y="940.904029" fill="#ffffff" stroke="#ffffff" xlink:href="#b"/>
</g>
<g clip-path="url(#a)">
<use x="545.88856" y="940.904029" fill="#ffffff" stroke="#ffffff" xlink:href="#b"/>
</g>
<g clip-path="url(#a)">
<use x="591.940886" y="940.904029" fill="#ffffff" stroke="#ffffff" xlink:href="#b"/>
</g>
<g clip-path="url(#a)">
<use x="637.993213" y="940.904029" fill="#ffffff" stroke="#ffffff" xlink:href="#b"/>
</g>
<g clip-path="url(#a)">
<use x="684.045539" y="940.904029" fill="#ffffff" stroke="#ffffff" xlink:href="#b"/>
</g>
<g clip-path="url(#a)">
<use x="730.097865" y="940.904029" fill="#ffffff" stroke="#ffffff" xlink:href="#b"/>
</g>
<g clip-path="url(#a)">
<use x="776.150191" y="940.904029" fill="#ffffff" stroke="#ffffff" xlink:href="#b"/>
</g>
<g clip-path="url(#a)">
<use x="822.202518" y="940.904029" fill="#ffffff" stroke="#ffffff" xlink:href="#b"/>
</g>
<g clip-path="url(#a)">
<use x="868.254844" y="940.904029" fill="#ffffff" stroke="#ffffff" xlink:href="#b"/>
</g>
<g clip-path="url(#a)">
<use x="914.30717" y="940.904029" fill="#ffffff" stroke="#ffffff" xlink:href="#b"/>
</g>
<g clip-path="url(#a)">
<use x="960.359496" y="940.904029" fill="#ffffff" stroke="#ffffff" xlink:href="#b"/>
</g>
<g clip-path="url(#a)">
<use x="1006.411823" y="940.904029" fill="#ffffff" stroke="#ffffff" xlink:href="#b"/>
</g>
<g clip-path="url(#a)">
<use x="1052.464149" y="940.904029" fill="#ffffff" stroke="#ffffff" xlink:href="#b"/>
</g>
<g clip-path="url(#a)">
<use x="1098.516475" y="940.904029" fill="#ffffff" stroke="#ffffff" xlink:href="#b"/>
</g>
<g clip-path="url(#a)">
<use x="1144.568802" y="940.904029" fill="#ffffff" stroke="#ffffff" xlink:href="#b"/>
</g>
<g clip-path="url(#a)">
<use x="1190.621128" y="940.904029" fill="#ffffff" stroke="#ffffff" xlink:href="#b"/>
</g>
<g clip-path="url(#a)">
<use x="1236.673454" y="940.904029" fill="#ffffff" stroke="#ffffff" xlink:href="#b"/>
</g>
<g clip-path="url(#a)">
<use x="1282.72578" y="940.904029" fill="#ffffff" stroke="#ffffff" xlink:href="#b"/>
</g>
<g clip-path="url(#a)">
<use x="1328.778107" y="940.904029" fill="#ffffff" stroke="#ffffff" xlink:href="#b"/>
</g>
<g clip-path="url(#a)">
<use x="1374.830433" y="940.904029" fill="#ffffff" stroke="#ffffff" xlink:href="#b"/>
</g>
<g clip-path="url(#a)">
<use x="1420.882759" y="940.904029" fill="#ffffff" stroke="#ffffff" xlink:href="#b"/>
</g>
<g clip-path="url(#a)">
<use x="1466.935086" y="940.904029" fill="#ffffff" stroke="#ffffff" xlink:href="#b"/>
</g>
<g clip-path="url(#a)">
<use x="1512.987412" y="940.904029" fill="#ffffff" stroke="#ffffff" xlink:href="#b"/>
</g>
<g clip-path="url(#a)">
<use x="1559.039738" y="940.904029" fill="#ffffff" stroke="#ffffff" xlink:href="#b"/>
</g>
<g clip-path="url(#a)">
<use x="1605.092064" y="940.904029" fill="#ffffff" stroke="#ffffff" xlink:href="#b"/>
</g>
<g clip-path="url(#a)">
<use x="1651.144391" y="940.904029" fill="#ffffff" stroke="#ffffff" xlink:href="#b"/>
</g>
<g clip-path="url(#a)">
<use x="1697.196717" y="940.904029" fill="#ffffff" stroke="#ffffff" xlink:href="#b"/>
</g>
<g clip-path="url(#a)">
<use x="1743.249043" y="940.904029" fill="#ffffff" stroke="#ffffff" xlink:href="#b"/>
</g>
<g clip-path="url(#a)">
<use x="367.833271" y="45.762638" fill="#ffffff" stroke="#ffffff" xlink:href="#b"/>
</g>
<g clip-path="url(#a)">
<use x="367.833271" y="202.549713" fill="#ffffff" stroke="#ffffff" xlink:href="#b"/>
</g>
<g clip-path="url(#a)">
<use x="957.385284" y="355.444886" fill="#ffffff" stroke="#ffffff" xlink:href="#b"/>
</g>
<g clip-path="url(#a)">
<use x="269.574602" y="796.251417" fill="#ffffff" stroke="#ffffff" xlink:href="#b"/>
</g>
<g clip-path="url(#a)">
<use x="269.574602" y="796.251417" fill="#ffffff" stroke="#ffffff" xlink:href="#b"/>
</g>
<g clip-path="url(#a)">
<use x="377.03003" y="504.933917" fill="#ffffff" stroke="#ffffff" xlink:href="#b"/>
</g>
<g clip-path="url(#a)">
<use x="637.993213" y="796.251417" fill="#ffffff" stroke="#ffffff" xlink:href="#b"/>
</g>
<g clip-path="url(#a)">
<use x="1000.655282" y="504.933917" fill="#ffffff" stroke="#ffffff" xlink:href="#b"/>
</g>
<g clip-path="url(#a)">
<use x="1023.681445" y="504.933917" fill="#ffffff" stroke="#ffffff" xlink:href="#b"/>
</g>
<g clip-path="url(#a)">
<use x="1190.621128" y="796.251417" fill="#ffffff" stroke="#ffffff" xlink:href="#b"/>
</g>
<g clip-path="url(#a)">
<use x="1416.277527" y="504.933917" fill="#ffffff" stroke="#ffffff" xlink:href="#b"/>
</g>
<g clip-path="url(#a)">
<use x="1259.699617" y="651.598806" fill="#ffffff" stroke="#ffffff" xlink:href="#b"/>
</g>
<g clip-path="url(#a)">
<use x="1397.856596" y="796.251417" fill="#ffffff" stroke="#ffffff" xlink:href="#b"/>
</g>
<g clip-path="url(#a)">
<use x="1374.830433" y="796.251417" fill="#ffffff" stroke="#ffffff" xlink:href="#b"/>
</g>
<g clip-path="url(#a)">
<use x="1420.882759" y="796.251417" fill="#ffffff" stroke="#ffffff" xlink:href="#b"/>
</g>
<g clip-path="url(#a)">
<use x="1628.118228" y="651.598806" fill="#ffffff" stroke="#ffffff" xlink:href="#b"/>
</g>
<g clip-path="url(#a)">
<use x="1512.987412" y="796.251417" fill="#ffffff" stroke="#ffffff" xlink:href="#b"/>
</g>
<g clip-path="url(#a)">
<use x="1559.039738" y="796.251417" fill="#ffffff" stroke="#ffffff" xlink:href="#b"/>
</g>
<g clip-path="url(#a)">
<use x="1605.092064" y="796.251417" fill="#ffffff" stroke="#ffffff" xlink:href="#b"/>
</g>
<g clip-path="url(#a)">
<use x="1236.673454" y="796.251417" fill="#ffffff" stroke="#ffffff" xlink:href="#b"/>
</g>
<g clip-path="url(#a)">
<use x="1282.72578" y="796.251417" fill="#ffffff" stroke="#ffffff" xlink:href="#b"/>
</g>
<g clip-path="url(#a)">
<use x="937.333333" y="651.598806" fill="#ffffff" stroke="#ffffff" xlink:href="#b"/>
</g>
<g clip-path="url(#a)">
<use x="1006.411823" y="796.251417" fill="#ffffff" stroke="#ffffff" xlink:href="#b"/>
</g>
<g clip-path="url(#a)">
<use x="1052.464149" y="796.251417" fill="#ffffff" stroke="#ffffff" xlink:href="#b"/>
</g>
<g clip-path="url(#a)">
<use x="1098.516475" y="796.251417" fill="#ffffff" stroke="#ffffff" xlink:href="#b"/>
</g>
<g clip-path="url(#a)">
<use x="914.30717" y="796.251417" fill="#ffffff" stroke="#ffffff" xlink:href="#b"/>
</g>
<g clip-path="url(#a)">
<use x="960.359496" y="796.251417" fill="#ffffff" stroke="#ffffff" xlink:href="#b"/>
</g>
<g clip-path="url(#a)">
<use x="1789.301369" y="940.904029" fill="#ffffff" stroke="#ffffff" xlink:href="#b"/>
</g>
<g clip-path="url(#a)">
<use x="684.045539" y="796.251417" fill="#ffffff" stroke="#ffffff" xlink:href="#b"/>
</g>
<g clip-path="url(#a)">
<use x="730.097865" y="796.251417" fill="#ffffff" stroke="#ffffff" xlink:href="#b"/>
</g>
<g clip-path="url(#a)">
<use x="799.176354" y="651.598806" fill="#ffffff" stroke="#ffffff" xlink:href="#b"/>
</g>
<g clip-path="url(#a)">
<use x="776.150191" y="796.251417" fill="#ffffff" stroke="#ffffff" xlink:href="#b"/>
</g>
<g clip-path="url(#a)">
<use x="822.202518" y="796.251417" fill="#ffffff" stroke="#ffffff" xlink:href="#b"/>
</g>
<g clip-path="url(#a)">
<use x="85.365297" y="796.251417" fill="#ffffff" stroke="#ffffff" xlink:href="#b"/>
</g>
<g clip-path="url(#a)">
<use x="476.810071" y="651.598806" fill="#ffffff" stroke="#ffffff" xlink:href="#b"/>
</g>
<g clip-path="url(#a)">
<use x="568.914723" y="651.598806" fill="#ffffff" stroke="#ffffff" xlink:href="#b"/>
</g>
<g clip-path="url(#a)">
<use x="545.88856" y="796.251417" fill="#ffffff" stroke="#ffffff" xlink:href="#b"/>
</g>
<g clip-path="url(#a)">
<use x="591.940886" y="796.251417" fill="#ffffff" stroke="#ffffff" xlink:href="#b"/>
</g>
<g clip-path="url(#a)">
<use x="453.783907" y="796.251417" fill="#ffffff" stroke="#ffffff" xlink:href="#b"/>
</g>
<g clip-path="url(#a)">
<use x="499.836234" y="796.251417" fill="#ffffff" stroke="#ffffff" xlink:href="#b"/>
</g>
<g clip-path="url(#a)">
<use x="131.417623" y="796.251417" fill="#ffffff" stroke="#ffffff" xlink:href="#b"/>
</g>
<g clip-path="url(#a)">
<use x="177.46995" y="796.251417" fill="#ffffff" stroke="#ffffff" xlink:href="#b"/>
</g>
<g clip-path="url(#a)">
<use x="361.679255" y="796.251417" fill="#ffffff" stroke="#ffffff" xlink:href="#b"/>
</g>
<g clip-path="url(#a)">
<use x="407.731581" y="796.251417" fill="#ffffff" stroke="#ffffff" xlink:href="#b"/>
</g>
<g clip-path="url(#a)">
<use x="868.254844" y="796.251417" fill="#ffffff" stroke="#ffffff" xlink:href="#b"/>
</g>
<g clip-path="url(#a)">
<use x="1144.568802" y="796.251417" fill="#ffffff" stroke="#ffffff" xlink:href="#b"/>
</g>
<g clip-path="url(#a)">
<use x="1651.144391" y="796.251417" fill="#ffffff" stroke="#ffffff" xlink:href="#b"/>
</g>
<g clip-path="url(#a)">
<use x="1697.196717" y="796.251417" fill="#ffffff" stroke="#ffffff" xlink:href="#b"/>
</g>
<g clip-path="url(#a)">
<use x="1743.249043" y="796.251417" fill="#ffffff" stroke="#ffffff" xlink:href="#b"/>
</g>
<g clip-path="url(#a)">
<defs>
<path id="q" d="m44.281 53.078v-8.5q-3.7969 1.9531-7.9062 2.9219-4.0938 0.98438-8.5 0.98438-6.6875 0-10.031-2.0469t-3.3438-6.1562q0-3.125 2.3906-4.9062t9.625-3.3906l3.0781-0.6875q9.5625-2.0469 13.594-5.7812t4.0312-10.422q0-7.625-6.0312-12.078-6.0312-4.4375-16.578-4.4375-4.3906 0-9.1562 0.85938t-10.031 2.5625v9.2812q4.9844-2.5938 9.8125-3.8906 4.8281-1.2812 9.5781-1.2812 6.3438 0 9.75 2.1719 3.4219 2.1719 3.4219 6.125 0 3.6562-2.4688 5.6094-2.4531 1.9531-10.812 3.7656l-3.125 0.73438q-8.3438 1.75-12.062 5.3906-3.7031 3.6406-3.7031 9.9844 0 7.7188 5.4688 11.906 5.4688 4.2031 15.531 4.2031 4.9688 0 9.3594-0.73438 4.4062-0.71875 8.1094-2.1875z"/>
<path id="u" d="m18.312 70.219v-15.531h18.5v-6.9844h-18.5v-29.688q0-6.6875 1.8281-8.5938t7.4531-1.9062h9.2188v-7.5156h-9.2188q-10.406 0-14.359 3.875-3.9531 3.8906-3.9531 14.141v29.688h-6.5938v6.9844h6.5938v15.531z"/>
</defs>
<g transform="translate(66.736 943.66) scale(.1 -.1)">
<use xlink:href="#y"/>
<use x="63.183594" xlink:href="#g"/>
<use x="104.296875" xlink:href="#q"/>
<use x="156.396484" xlink:href="#u"/>
<use x="195.605469" xlink:href="#c"/>
<use x="257.128906" xlink:href="#e"/>
<use x="320.507812" xlink:href="#q"/>
</g>
</g>
<g clip-path="url(#a)">
<defs>
<path id="aq" d="m51.812 51.703v-9.3125l-14.703-13.094 14.703-13.078v-9.3281l-22.906 20.406v4zm-21.203 0v-9.3125l-14.688-13.094 14.688-13.078v-9.3281l-22.891 20.406v4z"/>
</defs>
<g transform="translate(128.36 943.66) scale(.1 -.1)">
<use xlink:href="#aq"/>
</g>
</g>
<g clip-path="url(#a)">
<defs>
<path id="am" d="m11.719 12.406h10.297v-8.4062l-8-15.625h-6.2969l4 15.625z"/>
</defs>
<g transform="translate(175.88 943.66) scale(.1 -.1)">
<use xlink:href="#am"/>
</g>
</g>
<g clip-path="url(#a)">
<defs>
<path id="at" d="m37.109 75.984v-7.4844h-8.5938q-4.8281 0-6.7188-1.9531-1.875-1.9531-1.875-7.0312v-4.8281h14.797v-6.9844h-14.797v-47.703h-9.0312v47.703h-8.5938v6.9844h8.5938v3.8125q0 9.125 4.25 13.297 4.25 4.1875 13.469 4.1875z"/>
<path id="ab" d="m8.5 21.578v33.109h8.9844v-32.766q0-7.7656 3.0156-11.656 3.0312-3.875 9.0938-3.875 7.2656 0 11.484 4.6406 4.2344 4.6406 4.2344 12.656v31h8.9844v-54.688h-8.9844v8.4062q-3.2656-4.9844-7.5938-7.4062-4.3125-2.4219-10.031-2.4219-9.4219 0-14.312 5.8594-4.875 5.8594-4.875 17.141z"/>
<path id="ai" d="m54.891 33.016v-33.016h-8.9844v32.719q0 7.7656-3.0312 11.609-3.0312 3.8594-9.0781 3.8594-7.2812 0-11.484-4.6406-4.2031-4.625-4.2031-12.641v-30.906h-9.0312v75.984h9.0312v-29.797q3.2344 4.9375 7.5938 7.375 4.375 2.4375 10.094 2.4375 9.4219 0 14.25-5.8281 4.8438-5.8281 4.8438-17.156z"/>
</defs>
<g transform="translate(213.37 943.66) scale(.1 -.1)">
<use xlink:href="#at"/>
<use x="35.205078" xlink:href="#ab"/>
<use x="98.583984" xlink:href="#ai"/>
<use x="161.962891" xlink:href="#g"/>
</g>
</g>
<g clip-path="url(#a)">
<g transform="translate(264.44 943.66) scale(.1 -.1)">
<use xlink:href="#c"/>
<use x="61.523438" xlink:href="#g"/>
</g>
</g>
<g clip-path="url(#a)">
<defs>
<path id="ah" d="m30.609 48.391q-7.2188 0-11.422-5.6406t-4.2031-15.453 4.1719-15.453q4.1875-5.6406 11.453-5.6406 7.1875 0 11.375 5.6562 4.2031 5.6719 4.2031 15.438 0 9.7188-4.2031 15.406-4.1875 5.6875-11.375 5.6875zm0 7.6094q11.719 0 18.406-7.625 6.7031-7.6094 6.7031-21.078 0-13.422-6.7031-21.078-6.6875-7.6406-18.406-7.6406-11.766 0-18.438 7.6406-6.6562 7.6562-6.6562 21.078 0 13.469 6.6562 21.078 6.6719 7.625 18.438 7.625z"/>
</defs>
<g transform="translate(306.79 943.66) scale(.1 -.1)">
<use xlink:href="#at"/>
<use x="35.205078" xlink:href="#ah"/>
<use x="96.386719" xlink:href="#g"/>
<use x="137.5" xlink:href="#u"/>
</g>
</g>
<g clip-path="url(#a)">
<g transform="translate(360.09 943.66) scale(.1 -.1)">
<use xlink:href="#am"/>
</g>
</g>
<g clip-path="url(#a)">
<defs>
<path id="ap" d="m9.4219 51.703 22.906-20.406v-4l-22.906-20.406v9.3281l14.703 13.078-14.703 13.094zm21.188 0 22.906-20.406v-4l-22.906-20.406v9.3281l14.703 13.078-14.703 13.094z"/>
</defs>
<g transform="translate(404.67 943.66) scale(.1 -.1)">
<use xlink:href="#ap"/>
</g>
</g>
<g clip-path="url(#a)">
<defs>
<path id="r" d="m45.406 46.391v29.594h8.9844v-75.984h-8.9844v8.2031q-2.8281-4.875-7.1562-7.25-4.3125-2.375-10.375-2.375-9.9062 0-16.141 7.9062-6.2188 7.9219-6.2188 20.812t6.2188 20.797q6.2344 7.9062 16.141 7.9062 6.0625 0 10.375-2.375 4.3281-2.3594 7.1562-7.2344zm-30.609-19.094q0-9.9062 4.0781-15.547t11.203-5.6406 11.219 5.6406q4.1094 5.6406 4.1094 15.547t-4.1094 15.547q-4.0938 5.6406-11.219 5.6406t-11.203-5.6406-4.0781-15.547z"/>
</defs>
<g transform="translate(444.36 943.66) scale(.1 -.1)">
<use xlink:href="#r"/>
<use x="63.476562" xlink:href="#c"/>
<use x="125" xlink:href="#e"/>
</g>
</g>
<g clip-path="url(#a)">
<g transform="translate(490.56 943.66) scale(.1 -.1)">
<use xlink:href="#j"/>
<use x="60.818359" xlink:href="#ah"/>
<use x="122" xlink:href="#r"/>
</g>
</g>
<g clip-path="url(#a)">
<g transform="translate(537.03 943.66) scale(.1 -.1)">
<use xlink:href="#r"/>
<use x="63.476562" xlink:href="#c"/>
<use x="125" xlink:href="#q"/>
</g>
</g>
<g clip-path="url(#a)">
<defs>
<path id="ax" d="m8.5 21.578v33.109h8.9844v-32.766q0-7.7656 3.0156-11.656 3.0312-3.875 9.0938-3.875 7.2656 0 11.484 4.6406 4.2344 4.6406 4.2344 12.656v31h8.9844v-54.688h-8.9844v8.4062q-3.2656-4.9844-7.5938-7.4062-4.3125-2.4219-10.031-2.4219-9.4219 0-14.312 5.8594-4.875 5.8594-4.875 17.141zm22.609 34.422m4.4844 19.781h9.9062v-9.8594h-9.9062zm-19.094 0h9.9062v-9.8594h-9.9062z"/>
<path id="ac" d="m48.781 52.594v-8.4062q-3.8125 2.1094-7.6406 3.1562t-7.7344 1.0469q-8.75 0-13.594-5.5469-4.8281-5.5312-4.8281-15.547t4.8281-15.562q4.8438-5.5312 13.594-5.5312 3.9062 0 7.7344 1.0469t7.6406 3.1562v-8.3125q-3.7656-1.75-7.7969-2.625-4.0156-0.89062-8.5625-0.89062-12.359 0-19.641 7.7656-7.2656 7.7656-7.2656 20.953 0 13.375 7.3438 21.031 7.3594 7.6719 20.156 7.6719 4.1406 0 8.0938-0.85938 3.9531-0.84375 7.6719-2.5469z"/>
<path id="ar" d="m9.0781 75.984h9.0312v-44.875l26.812 23.578h11.469l-29-25.578 30.234-29.109h-11.719l-27.797 26.703v-26.703h-9.0312z"/>
</defs>
<g transform="translate(563.84 943.66) scale(.1 -.1)">
<use xlink:href="#y"/>
<use x="63.183594" xlink:href="#g"/>
<use x="104.28125" xlink:href="#r"/>
<use x="167.757812" xlink:href="#g"/>
<use x="208.871094" xlink:href="#ax"/>
<use x="272.25" xlink:href="#ac"/>
<use x="327.230469" xlink:href="#ar"/>
<use x="385.09375" xlink:href="#c"/>
<use x="446.617188" xlink:href="#e"/>
<use x="509.996094" xlink:href="#q"/>
</g>
</g>
<g clip-path="url(#a)">
<g transform="translate(628.48 943.66) scale(.1 -.1)">
<use xlink:href="#ab"/>
<use x="63.378906" xlink:href="#e"/>
<use x="126.757812" xlink:href="#r"/>
</g>
</g>
<g clip-path="url(#a)">
<defs>
<path id="az" d="m5.5156 54.688h42.672v-8.2031l-33.781-39.312h33.781v-7.1719h-43.891v8.2031l33.797 39.312h-32.578z"/>
<path id="an" d="m4.2031 54.688h8.9844l11.234-42.672 11.172 42.672h10.594l11.234-42.672 11.188 42.672h8.9844l-14.312-54.688h-10.594l-11.766 44.828-11.812-44.828h-10.609z"/>
</defs>
<g transform="translate(662.06 943.66) scale(.1 -.1)">
<use xlink:href="#az"/>
<use x="52.490234" xlink:href="#an"/>
<use x="134.277344" xlink:href="#c"/>
<use x="195.800781" xlink:href="#h"/>
<use x="223.583984" xlink:href="#u"/>
<use x="262.792969" xlink:href="#c"/>
<use x="324.316406" xlink:href="#e"/>
<use x="387.695312" xlink:href="#q"/>
</g>
</g>
<g clip-path="url(#a)">
<g transform="translate(720.68 943.66) scale(.1 -.1)">
<use xlink:href="#r"/>
<use x="63.476562" xlink:href="#c"/>
<use x="125" xlink:href="#e"/>
</g>
</g>
<g clip-path="url(#a)">
<g transform="translate(767.29 943.66) scale(.1 -.1)">
<use xlink:href="#r"/>
<use x="63.476562" xlink:href="#c"/>
<use x="125" xlink:href="#q"/>
</g>
</g>
<g clip-path="url(#a)">
<g transform="translate(796.54 943.66) scale(.1 -.1)">
<use xlink:href="#y"/>
<use x="63.183594" xlink:href="#g"/>
<use x="104.296875" xlink:href="#q"/>
<use x="156.396484" xlink:href="#u"/>
<use x="195.605469" xlink:href="#h"/>
<use x="223.388672" xlink:href="#ac"/>
<use x="278.369141" xlink:href="#ar"/>
<use x="336.232422" xlink:href="#c"/>
<use x="397.755859" xlink:href="#e"/>
<use x="461.134766" xlink:href="#q"/>
</g>
</g>
<g clip-path="url(#a)">
<defs>
<path id="f" d="m10.688 12.406h10.312v-12.406h-10.312z"/>
</defs>
<g transform="translate(866.67 943.66) scale(.1 -.1)">
<use xlink:href="#f"/>
</g>
</g>
<g clip-path="url(#a)">
<defs>
<path id="au" d="m28.609 0-27.828 72.906h10.297l23.109-61.375 23.141 61.375h10.25l-27.781-72.906z"/>
</defs>
<g transform="translate(902.96 943.66) scale(.1 -.1)">
<use xlink:href="#au"/>
<use x="68.298828" xlink:href="#ah"/>
<use x="129.480469" xlink:href="#k"/>
</g>
</g>
<g clip-path="url(#a)">
<defs>
<path id="as" d="m45.406 27.984q0 9.7656-4.0312 15.125-4.0156 5.375-11.297 5.375-7.2188 0-11.25-5.375-4.0312-5.3594-4.0312-15.125 0-9.7188 4.0312-15.094t11.25-5.375q7.2812 0 11.297 5.375 4.0312 5.375 4.0312 15.094zm8.9844-21.203q0-13.953-6.2031-20.766-6.1875-6.8125-18.984-6.8125-4.7344 0-8.9375 0.70312t-8.1562 2.1719v8.7344q3.9531-2.1406 7.8125-3.1562 3.8594-1.0312 7.8594-1.0312 8.8438 0 13.234 4.6094t4.3906 13.938v4.4531q-2.7812-4.8438-7.125-7.2344t-10.406-2.3906q-10.047 0-16.203 7.6562-6.1562 7.6719-6.1562 20.328 0 12.688 6.1562 20.344 6.1562 7.6719 16.203 7.6719 6.0625 0 10.406-2.3906t7.125-7.2188v8.2969h8.9844z"/>
</defs>
<g transform="translate(933.76 943.66) scale(.1 -.1)">
<use xlink:href="#x"/>
<use x="75.195312" xlink:href="#ab"/>
<use x="138.574219" xlink:href="#e"/>
<use x="201.953125" xlink:href="#as"/>
<use x="265.429688" xlink:href="#c"/>
<use x="326.953125" xlink:href="#g"/>
<use x="368.066406" xlink:href="#u"/>
<use x="407.275391" xlink:href="#ah"/>
<use x="468.457031" xlink:href="#r"/>
</g>
</g>
<g clip-path="url(#a)">
<g transform="translate(995.03 943.66) scale(.1 -.1)">
<use xlink:href="#g"/>
<use x="41.082031" xlink:href="#c"/>
<use x="102.605469" xlink:href="#r"/>
<use x="166.082031" xlink:href="#c"/>
</g>
</g>
<g clip-path="url(#a)">
<g transform="translate(1045.2 943.66) scale(.1 -.1)">
<use xlink:href="#h"/>
<use x="27.783203" xlink:href="#ac"/>
<use x="82.763672" xlink:href="#ai"/>
</g>
</g>
<g clip-path="url(#a)">
<g transform="translate(1086.1 943.66) scale(.1 -.1)">
<use xlink:href="#e"/>
<use x="63.378906" xlink:href="#h"/>
<use x="91.162109" xlink:href="#ac"/>
<use x="146.142578" xlink:href="#ai"/>
<use x="209.521484" xlink:href="#u"/>
</g>
</g>
<g clip-path="url(#a)">
<g transform="translate(1143 943.66) scale(.1 -.1)">
<use xlink:href="#am"/>
</g>
</g>
<g clip-path="url(#a)">
<g transform="translate(1178 943.66) scale(.1 -.1)">
<use xlink:href="#r"/>
<use x="63.476562" xlink:href="#c"/>
<use x="125" xlink:href="#e"/>
<use x="188.378906" xlink:href="#e"/>
</g>
</g>
<g clip-path="url(#a)">
<g transform="translate(1219.5 943.66) scale(.1 -.1)">
<use xlink:href="#ab"/>
<use x="63.378906" xlink:href="#e"/>
<use x="126.757812" xlink:href="#q"/>
<use x="178.857422" xlink:href="#c"/>
<use x="240.380859" xlink:href="#g"/>
<use x="281.462891" xlink:href="#c"/>
</g>
</g>
<g clip-path="url(#a)">
<defs>
<path id="ao" d="m48.688 27.297q0 9.9062-4.0781 15.547t-11.203 5.6406q-7.1406 0-11.219-5.6406t-4.0781-15.547 4.0781-15.547 11.219-5.6406q7.125 0 11.203 5.6406t4.0781 15.547zm-30.578 19.094q2.8438 4.875 7.1562 7.2344 4.3281 2.375 10.328 2.375 9.9688 0 16.188-7.9062 6.2344-7.9062 6.2344-20.797t-6.2344-20.812q-6.2188-7.9062-16.188-7.9062-6 0-10.328 2.375-4.3125 2.375-7.1562 7.25v-8.2031h-9.0312v75.984h9.0312z"/>
</defs>
<g transform="translate(1250.2 943.66) scale(.1 -.1)">
<use xlink:href="#ad"/>
<use x="55.697266" xlink:href="#c"/>
<use x="117.220703" xlink:href="#ao"/>
<use x="180.697266" xlink:href="#c"/>
<use x="242.220703" xlink:href="#e"/>
<use x="305.599609" xlink:href="#q"/>
<use x="357.699219" xlink:href="#k"/>
<use x="455.111328" xlink:href="#h"/>
<use x="482.894531" xlink:href="#u"/>
<use x="522.103516" xlink:href="#u"/>
<use x="561.3125" xlink:href="#c"/>
<use x="622.835938" xlink:href="#l"/>
</g>
</g>
<g clip-path="url(#a)">
<g transform="translate(1310.1 943.66) scale(.1 -.1)">
<use xlink:href="#g"/>
<use x="41.082031" xlink:href="#c"/>
<use x="102.605469" xlink:href="#h"/>
<use x="130.388672" xlink:href="#ac"/>
<use x="185.369141" xlink:href="#ai"/>
<use x="248.748047" xlink:href="#c"/>
<use x="310.271484" xlink:href="#e"/>
</g>
</g>
<g clip-path="url(#a)">
<defs>
<path id="ay" d="m9.0781 55.516q0 9.7656 5.8281 15.109 5.8438 5.3594 16.484 5.3594 10.156 0 15.5-5.6719 5.3594-5.6562 5.5-16.594-7.375-0.39062-11.484-3.2031-4.0938-2.8125-4.0938-7.5 0-2.2969 1.4219-4.2812 1.4219-1.9688 4.5938-4.0156l2.7812-1.8125q8.1094-5.1719 10.453-8.6406t2.3438-8.3438q0-8.4062-5.5-12.875t-15.797-4.4688q-3.125 0-6.4531 0.60938-3.3125 0.60938-6.875 1.7969v8q3.9062-1.4688 7.3125-2.1719 3.4219-0.70312 6.6094-0.70312 5.6562 0 8.5781 2.3125 2.9375 2.3281 2.9375 6.7656 0 3.0781-1.4375 5.125t-6.375 5.0781l-4.4844 2.6875q-4.6875 2.875-6.8125 6.1719t-2.125 7.75q0 6.1875 4.0781 10.391t11.438 5.625q-0.39062 5.0156-3.5938 7.75-3.1875 2.7344-8.7031 2.7344-6.3438 0-9.6719-3.3906-3.3125-3.3906-3.3125-9.7812v-55.328h-9.1406z"/>
</defs>
<g transform="translate(1360 943.66) scale(.1 -.1)">
<use xlink:href="#as"/>
<use x="63.476562" xlink:href="#c"/>
<use x="125" xlink:href="#an"/>
<use x="206.787109" xlink:href="#h"/>
<use x="234.570312" xlink:href="#ay"/>
</g>
</g>
<g clip-path="url(#a)">
<g transform="translate(1405.2 943.66) scale(.1 -.1)">
<use xlink:href="#an"/>
<use x="81.787109" xlink:href="#c"/>
<use x="143.310547" xlink:href="#h"/>
<use x="171.09375" xlink:href="#u"/>
<use x="210.302734" xlink:href="#c"/>
<use x="271.826172" xlink:href="#g"/>
</g>
</g>
<g clip-path="url(#a)">
<g transform="translate(1458.1 943.66) scale(.1 -.1)">
<use xlink:href="#i"/>
<use x="61.279297" xlink:href="#ab"/>
<use x="124.658203" xlink:href="#q"/>
</g>
</g>
<g clip-path="url(#a)">
<g transform="translate(1505.9 943.66) scale(.1 -.1)">
<use xlink:href="#i"/>
<use x="61.279297" xlink:href="#l"/>
<use x="89.0625" xlink:href="#q"/>
</g>
</g>
<g clip-path="url(#a)">
<g transform="translate(1545 943.66) scale(.1 -.1)">
<use xlink:href="#ab"/>
<use x="63.378906" xlink:href="#e"/>
<use x="126.757812" xlink:href="#q"/>
<use x="178.857422" xlink:href="#c"/>
<use x="240.380859" xlink:href="#g"/>
</g>
</g>
<g clip-path="url(#a)">
<g transform="translate(1589.8 943.66) scale(.1 -.1)">
<use xlink:href="#ad"/>
<use x="55.697266" xlink:href="#c"/>
<use x="117.220703" xlink:href="#ao"/>
<use x="180.697266" xlink:href="#c"/>
<use x="242.220703" xlink:href="#e"/>
</g>
</g>
<g clip-path="url(#a)">
<g transform="translate(1649.6 943.66) scale(.1 -.1)">
<use xlink:href="#f"/>
</g>
</g>
<g clip-path="url(#a)">
<g transform="translate(1694.1 943.66) scale(.1 -.1)">
<use xlink:href="#aq"/>
</g>
</g>
<g clip-path="url(#a)">
<g transform="translate(1740.2 943.66) scale(.1 -.1)">
<use xlink:href="#ap"/>
</g>
</g>
<g clip-path="url(#a)">
<defs>
<path id="d" d="m12.406 8.2969h16.109v55.625l-17.531-3.5156v8.9844l17.438 3.5156h9.8594v-64.609h16.109v-8.2969h-41.984z"/>
</defs>
<g transform="translate(359.88 48.522) scale(.1 -.1)">
<use xlink:href="#d"/>
<use x="63.623047" xlink:href="#f"/>
<use x="95.410156" xlink:href="#d"/>
</g>
</g>
<g clip-path="url(#a)">
<defs>
<path id="p" d="m19.188 8.2969h34.422v-8.2969h-46.281v8.2969q5.6094 5.8125 15.297 15.594 9.7031 9.7969 12.188 12.641 4.7344 5.3125 6.6094 9 1.8906 3.6875 1.8906 7.25 0 5.8125-4.0781 9.4688-4.0781 3.6719-10.625 3.6719-4.6406 0-9.7969-1.6094-5.1406-1.6094-11-4.8906v9.9688q5.9531 2.3906 11.125 3.6094 5.1875 1.2188 9.4844 1.2188 11.328 0 18.062-5.6719 6.7344-5.6562 6.7344-15.125 0-4.5-1.6875-8.5312-1.6719-4.0156-6.125-9.4844-1.2188-1.4219-7.7656-8.1875-6.5312-6.7656-18.453-18.922z"/>
</defs>
<g transform="translate(359.88 205.31) scale(.1 -.1)">
<use xlink:href="#d"/>
<use x="63.623047" xlink:href="#f"/>
<use x="95.410156" xlink:href="#p"/>
</g>
</g>
<g clip-path="url(#a)">
<defs>
<path id="aa" d="m33.016 40.375q-6.6406 0-10.531-4.5469-3.875-4.5312-3.875-12.438 0-7.8594 3.875-12.438 3.8906-4.5625 10.531-4.5625t10.516 4.5625q3.875 4.5781 3.875 12.438 0 7.9062-3.875 12.438-3.875 4.5469-10.516 4.5469zm19.578 30.922v-8.9844q-3.7188 1.75-7.5 2.6719-3.7812 0.9375-7.5 0.9375-9.7656 0-14.922-6.5938-5.1406-6.5938-5.875-19.922 2.875 4.25 7.2188 6.5156 4.3594 2.2656 9.5781 2.2656 10.984 0 17.359-6.6719 6.375-6.6562 6.375-18.125 0-11.234-6.6406-18.031-6.6406-6.7812-17.672-6.7812-12.656 0-19.344 9.6875-6.6875 9.7031-6.6875 28.109 0 17.281 8.2031 27.562t22.016 10.281q3.7188 0 7.5-0.73438t7.8906-2.1875z"/>
</defs>
<g transform="translate(949.43 358.2) scale(.1 -.1)">
<use xlink:href="#d"/>
<use x="63.623047" xlink:href="#f"/>
<use x="95.410156" xlink:href="#aa"/>
</g>
</g>
<g clip-path="url(#a)">
<defs>
<path id="ae" d="m8.2031 72.906h46.875v-4.2031l-26.469-68.703h-10.297l24.906 64.594h-35.016z"/>
</defs>
<g transform="translate(261.62 799.01) scale(.1 -.1)">
<use xlink:href="#d"/>
<use x="63.623047" xlink:href="#f"/>
<use x="95.410156" xlink:href="#ae"/>
</g>
</g>
<g clip-path="url(#a)">
<defs>
<path id="z" d="m31.781 34.625q-7.0312 0-11.062-3.7656-4.0156-3.7656-4.0156-10.344 0-6.5938 4.0156-10.359 4.0312-3.7656 11.062-3.7656t11.078 3.7812q4.0625 3.7969 4.0625 10.344 0 6.5781-4.0312 10.344-4.0156 3.7656-11.109 3.7656zm-9.8594 4.1875q-6.3438 1.5625-9.8906 5.9062-3.5312 4.3594-3.5312 10.609 0 8.7344 6.2188 13.812 6.2344 5.0781 17.062 5.0781 10.891 0 17.094-5.0781t6.2031-13.812q0-6.25-3.5469-10.609-3.5312-4.3438-9.8281-5.9062 7.125-1.6562 11.094-6.5 3.9844-4.8281 3.9844-11.797 0-10.609-6.4688-16.281-6.4688-5.6562-18.531-5.6562-12.047 0-18.531 5.6562-6.4688 5.6719-6.4688 16.281 0 6.9688 4 11.797 4.0156 4.8438 11.141 6.5zm-3.6094 15.578q0-5.6562 3.5312-8.8281 3.5469-3.1719 9.9375-3.1719 6.3594 0 9.9375 3.1719 3.5938 3.1719 3.5938 8.8281 0 5.6719-3.5938 8.8438-3.5781 3.1719-9.9375 3.1719-6.3906 0-9.9375-3.1719-3.5312-3.1719-3.5312-8.8438z"/>
</defs>
<g transform="translate(261.62 799.01) scale(.1 -.1)">
<use xlink:href="#d"/>
<use x="63.623047" xlink:href="#f"/>
<use x="95.410156" xlink:href="#z"/>
</g>
</g>
<g clip-path="url(#a)">
<defs>
<path id="o" d="m40.578 39.312q7.0781-1.5156 11.047-6.3125 3.9844-4.7812 3.9844-11.812 0-10.781-7.4219-16.703-7.4219-5.9062-21.094-5.9062-4.5781 0-9.4375 0.90625t-10.031 2.7188v9.5156q4.0938-2.3906 8.9688-3.6094 4.8906-1.2188 10.219-1.2188 9.2656 0 14.125 3.6562t4.8594 10.641q0 6.4531-4.5156 10.078-4.5156 3.6406-12.562 3.6406h-8.5v8.1094h8.8906q7.2656 0 11.125 2.9062t3.8594 8.375q0 5.6094-3.9844 8.6094-3.9688 3.0156-11.391 3.0156-4.0625 0-8.7031-0.89062-4.6406-0.875-10.203-2.7188v8.7812q5.625 1.5625 10.531 2.3438t9.25 0.78125q11.234 0 17.766-5.1094 6.5469-5.0938 6.5469-13.781 0-6.0625-3.4688-10.234t-9.8594-5.7812z"/>
</defs>
<g transform="translate(365.9 507.69) scale(.1 -.1)">
<use xlink:href="#d"/>
<use x="63.623047" xlink:href="#f"/>
<use x="95.410156" xlink:href="#d"/>
<use x="159.033203" xlink:href="#o"/>
</g>
</g>
<g clip-path="url(#a)">
<defs>
<path id="m" d="m37.797 64.312-24.906-38.922h24.906zm-2.5938 8.5938h12.406v-47.516h10.406v-8.2031h-10.406v-17.188h-9.8125v17.188h-32.906v9.5156z"/>
</defs>
<g transform="translate(626.86 799.01) scale(.1 -.1)">
<use xlink:href="#d"/>
<use x="63.623047" xlink:href="#f"/>
<use x="95.410156" xlink:href="#d"/>
<use x="159.033203" xlink:href="#m"/>
</g>
</g>
<g clip-path="url(#a)">
<defs>
<path id="n" d="m10.797 72.906h38.719v-8.3125h-29.688v-17.859q2.1406 0.73438 4.2812 1.0938 2.1562 0.35938 4.3125 0.35938 12.203 0 19.328-6.6875 7.1406-6.6875 7.1406-18.109 0-11.766-7.3281-18.297-7.3281-6.5156-20.656-6.5156-4.5938 0-9.3594 0.78125-4.75 0.78125-9.8281 2.3438v9.9219q4.3906-2.3906 9.0781-3.5625t9.9062-1.1719q8.4531 0 13.375 4.4375 4.9375 4.4375 4.9375 12.062 0 7.6094-4.9375 12.047-4.9219 4.4531-13.375 4.4531-3.9531 0-7.8906-0.875-3.9219-0.875-8.0156-2.7344z"/>
</defs>
<g transform="translate(989.52 507.69) scale(.1 -.1)">
<use xlink:href="#d"/>
<use x="63.623047" xlink:href="#f"/>
<use x="95.410156" xlink:href="#d"/>
<use x="159.033203" xlink:href="#n"/>
</g>
</g>
<g clip-path="url(#a)">
<g transform="translate(1012.5 507.69) scale(.1 -.1)">
<use xlink:href="#d"/>
<use x="63.623047" xlink:href="#f"/>
<use x="95.410156" xlink:href="#d"/>
<use x="159.033203" xlink:href="#aa"/>
</g>
</g>
<g clip-path="url(#a)">
<g transform="translate(1179.5 799.01) scale(.1 -.1)">
<use xlink:href="#d"/>
<use x="63.623047" xlink:href="#f"/>
<use x="95.410156" xlink:href="#d"/>
<use x="159.033203" xlink:href="#ae"/>
</g>
</g>
<g clip-path="url(#a)">
<g transform="translate(1405.1 507.69) scale(.1 -.1)">
<use xlink:href="#d"/>
<use x="63.623047" xlink:href="#f"/>
<use x="95.410156" xlink:href="#d"/>
<use x="159.033203" xlink:href="#z"/>
</g>
</g>
<g clip-path="url(#a)">
<g transform="translate(1248.6 654.36) scale(.1 -.1)">
<use xlink:href="#d"/>
<use x="63.623047" xlink:href="#f"/>
<use x="95.410156" xlink:href="#p"/>
<use x="159.033203" xlink:href="#d"/>
</g>
</g>
<g clip-path="url(#a)">
<g transform="translate(1386.7 799.01) scale(.1 -.1)">
<use xlink:href="#d"/>
<use x="63.623047" xlink:href="#f"/>
<use x="95.410156" xlink:href="#p"/>
<use x="159.033203" xlink:href="#p"/>
</g>
</g>
<g clip-path="url(#a)">
<g transform="translate(1363.7 799.01) scale(.1 -.1)">
<use xlink:href="#d"/>
<use x="63.623047" xlink:href="#f"/>
<use x="95.410156" xlink:href="#p"/>
<use x="159.033203" xlink:href="#o"/>
</g>
</g>
<g clip-path="url(#a)">
<g transform="translate(1409.7 799.01) scale(.1 -.1)">
<use xlink:href="#d"/>
<use x="63.623047" xlink:href="#f"/>
<use x="95.410156" xlink:href="#p"/>
<use x="159.033203" xlink:href="#m"/>
</g>
</g>
<g clip-path="url(#a)">
<g transform="translate(1617 654.36) scale(.1 -.1)">
<use xlink:href="#d"/>
<use x="63.623047" xlink:href="#f"/>
<use x="95.410156" xlink:href="#p"/>
<use x="159.033203" xlink:href="#n"/>
</g>
</g>
<g clip-path="url(#a)">
<g transform="translate(1501.9 799.01) scale(.1 -.1)">
<use xlink:href="#d"/>
<use x="63.623047" xlink:href="#f"/>
<use x="95.410156" xlink:href="#p"/>
<use x="159.033203" xlink:href="#aa"/>
</g>
</g>
<g clip-path="url(#a)">
<g transform="translate(1547.9 799.01) scale(.1 -.1)">
<use xlink:href="#d"/>
<use x="63.623047" xlink:href="#f"/>
<use x="95.410156" xlink:href="#p"/>
<use x="159.033203" xlink:href="#ae"/>
</g>
</g>
<g clip-path="url(#a)">
<g transform="translate(1594 799.01) scale(.1 -.1)">
<use xlink:href="#d"/>
<use x="63.623047" xlink:href="#f"/>
<use x="95.410156" xlink:href="#p"/>
<use x="159.033203" xlink:href="#z"/>
</g>
</g>
<g clip-path="url(#a)">
<defs>
<path id="ak" d="m10.984 1.5156v8.9844q3.7188-1.7656 7.5156-2.6875 3.8125-0.92188 7.4844-0.92188 9.7656 0 14.906 6.5625 5.1562 6.5625 5.8906 19.953-2.8281-4.2031-7.1875-6.4531-4.3438-2.25-9.6094-2.25-10.938 0-17.312 6.6094-6.375 6.625-6.375 18.109 0 11.219 6.6406 18 6.6406 6.7969 17.672 6.7969 12.656 0 19.312-9.7031 6.6719-9.6875 6.6719-28.141 0-17.234-8.1875-27.516-8.1719-10.281-21.984-10.281-3.7188 0-7.5312 0.73438-3.7969 0.73438-7.9062 2.2031zm19.625 30.906q6.6406 0 10.516 4.5312 3.8906 4.5469 3.8906 12.469 0 7.8594-3.8906 12.422-3.875 4.5625-10.516 4.5625t-10.516-4.5625-3.875-12.422q0-7.9219 3.875-12.469 3.875-4.5312 10.516-4.5312z"/>
</defs>
<g transform="translate(1225.5 799.01) scale(.1 -.1)">
<use xlink:href="#d"/>
<use x="63.623047" xlink:href="#f"/>
<use x="95.410156" xlink:href="#p"/>
<use x="159.033203" xlink:href="#ak"/>
</g>
</g>
<g clip-path="url(#a)">
<defs>
<path id="al" d="m31.781 66.406q-7.6094 0-11.453-7.5-3.8281-7.4844-3.8281-22.531 0-14.984 3.8281-22.484 3.8438-7.5 11.453-7.5 7.6719 0 11.5 7.5 3.8438 7.5 3.8438 22.484 0 15.047-3.8438 22.531-3.8281 7.5-11.5 7.5zm0 7.8125q12.266 0 18.734-9.7031 6.4688-9.6875 6.4688-28.141 0-18.406-6.4688-28.109-6.4688-9.6875-18.734-9.6875-12.25 0-18.719 9.6875-6.4688 9.7031-6.4688 28.109 0 18.453 6.4688 28.141 6.4688 9.7031 18.719 9.7031z"/>
</defs>
<g transform="translate(1271.6 799.01) scale(.1 -.1)">
<use xlink:href="#d"/>
<use x="63.623047" xlink:href="#f"/>
<use x="95.410156" xlink:href="#o"/>
<use x="159.033203" xlink:href="#al"/>
</g>
</g>
<g clip-path="url(#a)">
<g transform="translate(926.2 654.36) scale(.1 -.1)">
<use xlink:href="#d"/>
<use x="63.623047" xlink:href="#f"/>
<use x="95.410156" xlink:href="#o"/>
<use x="159.033203" xlink:href="#d"/>
</g>
</g>
<g clip-path="url(#a)">
<g transform="translate(995.28 799.01) scale(.1 -.1)">
<use xlink:href="#d"/>
<use x="63.623047" xlink:href="#f"/>
<use x="95.410156" xlink:href="#o"/>
<use x="159.033203" xlink:href="#p"/>
</g>
</g>
<g clip-path="url(#a)">
<g transform="translate(1041.3 799.01) scale(.1 -.1)">
<use xlink:href="#d"/>
<use x="63.623047" xlink:href="#f"/>
<use x="95.410156" xlink:href="#o"/>
<use x="159.033203" xlink:href="#o"/>
</g>
</g>
<g clip-path="url(#a)">
<g transform="translate(1087.4 799.01) scale(.1 -.1)">
<use xlink:href="#d"/>
<use x="63.623047" xlink:href="#f"/>
<use x="95.410156" xlink:href="#o"/>
<use x="159.033203" xlink:href="#m"/>
</g>
</g>
<g clip-path="url(#a)">
<g transform="translate(903.17 799.01) scale(.1 -.1)">
<use xlink:href="#d"/>
<use x="63.623047" xlink:href="#f"/>
<use x="95.410156" xlink:href="#o"/>
<use x="159.033203" xlink:href="#n"/>
</g>
</g>
<g clip-path="url(#a)">
<g transform="translate(949.23 799.01) scale(.1 -.1)">
<use xlink:href="#d"/>
<use x="63.623047" xlink:href="#f"/>
<use x="95.410156" xlink:href="#o"/>
<use x="159.033203" xlink:href="#aa"/>
</g>
</g>
<g clip-path="url(#a)">
<defs>
<path id="aj" d="m9.8125 72.906h9.8594v-72.906h-9.8594z"/>
<path id="av" d="m9.8125 72.906h14.703l18.594-49.609 18.703 49.609h14.703v-72.906h-9.625v64.016l-18.797-50h-9.9062l-18.797 50v-64.016h-9.5781z"/>
</defs>
<g transform="translate(1768.2 943.66) scale(.1 -.1)">
<use xlink:href="#aj"/>
<use x="29.492188" xlink:href="#av"/>
<use x="115.771484" xlink:href="#w"/>
<use x="176.074219" xlink:href="#ad"/>
<use x="231.787109" xlink:href="#aj"/>
<use x="261.279297" xlink:href="#v"/>
<use x="331.103516" xlink:href="#aj"/>
<use x="360.595703" xlink:href="#j"/>
</g>
</g>
<g clip-path="url(#a)">
<g transform="translate(672.91 799.01) scale(.1 -.1)">
<use xlink:href="#d"/>
<use x="63.623047" xlink:href="#f"/>
<use x="95.410156" xlink:href="#o"/>
<use x="159.033203" xlink:href="#z"/>
</g>
</g>
<g clip-path="url(#a)">
<g transform="translate(718.97 799.01) scale(.1 -.1)">
<use xlink:href="#d"/>
<use x="63.623047" xlink:href="#f"/>
<use x="95.410156" xlink:href="#o"/>
<use x="159.033203" xlink:href="#ak"/>
</g>
</g>
<g clip-path="url(#a)">
<g transform="translate(788.04 654.36) scale(.1 -.1)">
<use xlink:href="#d"/>
<use x="63.623047" xlink:href="#f"/>
<use x="95.410156" xlink:href="#m"/>
<use x="159.033203" xlink:href="#al"/>
</g>
</g>
<g clip-path="url(#a)">
<g transform="translate(765.02 799.01) scale(.1 -.1)">
<use xlink:href="#d"/>
<use x="63.623047" xlink:href="#f"/>
<use x="95.410156" xlink:href="#m"/>
<use x="159.033203" xlink:href="#d"/>
</g>
</g>
<g clip-path="url(#a)">
<g transform="translate(811.07 799.01) scale(.1 -.1)">
<use xlink:href="#d"/>
<use x="63.623047" xlink:href="#f"/>
<use x="95.410156" xlink:href="#m"/>
<use x="159.033203" xlink:href="#p"/>
</g>
</g>
<g clip-path="url(#a)">
<g transform="translate(74.232 799.01) scale(.1 -.1)">
<use xlink:href="#d"/>
<use x="63.623047" xlink:href="#f"/>
<use x="95.410156" xlink:href="#m"/>
<use x="159.033203" xlink:href="#o"/>
</g>
</g>
<g clip-path="url(#a)">
<g transform="translate(465.68 654.36) scale(.1 -.1)">
<use xlink:href="#d"/>
<use x="63.623047" xlink:href="#f"/>
<use x="95.410156" xlink:href="#m"/>
<use x="159.033203" xlink:href="#m"/>
</g>
</g>
<g clip-path="url(#a)">
<g transform="translate(557.78 654.36) scale(.1 -.1)">
<use xlink:href="#d"/>
<use x="63.623047" xlink:href="#f"/>
<use x="95.410156" xlink:href="#m"/>
<use x="159.033203" xlink:href="#n"/>
</g>
</g>
<g clip-path="url(#a)">
<g transform="translate(534.76 799.01) scale(.1 -.1)">
<use xlink:href="#d"/>
<use x="63.623047" xlink:href="#f"/>
<use x="95.410156" xlink:href="#m"/>
<use x="159.033203" xlink:href="#aa"/>
</g>
</g>
<g clip-path="url(#a)">
<g transform="translate(580.81 799.01) scale(.1 -.1)">
<use xlink:href="#d"/>
<use x="63.623047" xlink:href="#f"/>
<use x="95.410156" xlink:href="#m"/>
<use x="159.033203" xlink:href="#ae"/>
</g>
</g>
<g clip-path="url(#a)">
<g transform="translate(442.65 799.01) scale(.1 -.1)">
<use xlink:href="#d"/>
<use x="63.623047" xlink:href="#f"/>
<use x="95.410156" xlink:href="#m"/>
<use x="159.033203" xlink:href="#z"/>
</g>
</g>
<g clip-path="url(#a)">
<g transform="translate(488.7 799.01) scale(.1 -.1)">
<use xlink:href="#d"/>
<use x="63.623047" xlink:href="#f"/>
<use x="95.410156" xlink:href="#m"/>
<use x="159.033203" xlink:href="#ak"/>
</g>
</g>
<g clip-path="url(#a)">
<g transform="translate(120.28 799.01) scale(.1 -.1)">
<use xlink:href="#d"/>
<use x="63.623047" xlink:href="#f"/>
<use x="95.410156" xlink:href="#n"/>
<use x="159.033203" xlink:href="#al"/>
</g>
</g>
<g clip-path="url(#a)">
<g transform="translate(166.34 799.01) scale(.1 -.1)">
<use xlink:href="#d"/>
<use x="63.623047" xlink:href="#f"/>
<use x="95.410156" xlink:href="#n"/>
<use x="159.033203" xlink:href="#d"/>
</g>
</g>
<g clip-path="url(#a)">
<g transform="translate(350.55 799.01) scale(.1 -.1)">
<use xlink:href="#d"/>
<use x="63.623047" xlink:href="#f"/>
<use x="95.410156" xlink:href="#n"/>
<use x="159.033203" xlink:href="#p"/>
</g>
</g>
<g clip-path="url(#a)">
<g transform="translate(396.6 799.01) scale(.1 -.1)">
<use xlink:href="#d"/>
<use x="63.623047" xlink:href="#f"/>
<use x="95.410156" xlink:href="#n"/>
<use x="159.033203" xlink:href="#o"/>
</g>
</g>
<g clip-path="url(#a)">
<g transform="translate(857.12 799.01) scale(.1 -.1)">
<use xlink:href="#d"/>
<use x="63.623047" xlink:href="#f"/>
<use x="95.410156" xlink:href="#n"/>
<use x="159.033203" xlink:href="#m"/>
</g>
</g>
<g clip-path="url(#a)">
<g transform="translate(1133.4 799.01) scale(.1 -.1)">
<use xlink:href="#d"/>
<use x="63.623047" xlink:href="#f"/>
<use x="95.410156" xlink:href="#n"/>
<use x="159.033203" xlink:href="#n"/>
</g>
</g>
<g clip-path="url(#a)">
<g transform="translate(1640 799.01) scale(.1 -.1)">
<use xlink:href="#d"/>
<use x="63.623047" xlink:href="#f"/>
<use x="95.410156" xlink:href="#n"/>
<use x="159.033203" xlink:href="#aa"/>
</g>
</g>
<g clip-path="url(#a)">
<g transform="translate(1686.1 799.01) scale(.1 -.1)">
<use xlink:href="#d"/>
<use x="63.623047" xlink:href="#f"/>
<use x="95.410156" xlink:href="#n"/>
<use x="159.033203" xlink:href="#ae"/>
</g>
</g>
<g clip-path="url(#a)">
<g transform="translate(1732.1 799.01) scale(.1 -.1)">
<use xlink:href="#d"/>
<use x="63.623047" xlink:href="#f"/>
<use x="95.410156" xlink:href="#n"/>
<use x="159.033203" xlink:href="#z"/>
</g>
</g>
<defs>
<clipPath id="a">
<rect width="1874.7" height="986.67"/>
</clipPath>
</defs>
</svg>
