<?xml version="1.0" encoding="UTF-8"?>
<!DOCTYPE svg  PUBLIC '-//W3C//DTD SVG 1.1//EN'  'http://www.w3.org/Graphics/SVG/1.1/DTD/svg11.dtd'>
<svg width="1773.3pt" height="933.33pt" version="1.1" viewBox="0 0 1773.3 933.33" xmlns="http://www.w3.org/2000/svg" xmlns:xlink="http://www.w3.org/1999/xlink">
<defs>
<style type="text/css">*{stroke-linecap:butt;stroke-linejoin:round;white-space:pre;}</style>
</defs>
<path d="m0 933.33h1773.3v-933.33h-1773.3z" fill="#fff"/>
<g fill="none" stroke="#000">
<path d="m1367.8 43.338v148.29" clip-path="url(#a)"/>
<path d="m1367.8 191.63 324.75 698.36" clip-path="url(#a)"/>
<path d="m1367.8 191.63 282.33 698.36" clip-path="url(#a)"/>
<path d="m1367.8 191.63-607.07 144.61" clip-path="url(#a)"/>
<path d="m760.76 336.25 337.99 280.11" clip-path="url(#a)"/>
<path d="m760.76 336.25-398.99 141.39" clip-path="url(#a)"/>
<path d="m760.76 336.25-128.59 416.93" clip-path="url(#a)"/>
<path d="m760.76 336.25-1.3401 280.11" clip-path="url(#a)"/>
<path d="m760.76 336.25 168.33 416.93" clip-path="url(#a)"/>
<path d="m760.76 336.25 125.91 280.11" clip-path="url(#a)"/>
<path d="m760.76 336.25 337.99 416.93" clip-path="url(#a)"/>
<path d="m760.76 336.25 583.4 141.39" clip-path="url(#a)"/>
<path d="m760.76 336.25-680 416.93" clip-path="url(#a)"/>
<path d="m760.76 336.25-595.17 416.93" clip-path="url(#a)"/>
<path d="m760.76 336.25-171.01 416.93" clip-path="url(#a)"/>
<path d="m760.76 336.25 125.91 416.93" clip-path="url(#a)"/>
<path d="m760.76 336.25 295.57 416.93" clip-path="url(#a)"/>
<path d="m1098.7 616.36 509 273.64" clip-path="url(#a)"/>
<path d="m1098.7 616.36 466.58 273.64" clip-path="url(#a)"/>
<path d="m1098.7 616.36-975.58 136.82" clip-path="url(#a)"/>
<path d="m361.76 477.64-111.34 138.72" clip-path="url(#a)"/>
<path d="m361.76 477.64-26.51 275.54" clip-path="url(#a)"/>
<path d="m361.76 477.64 15.906 275.54" clip-path="url(#a)"/>
<path d="m361.76 477.64 121.95 138.72" clip-path="url(#a)"/>
<path d="m632.17 753.18v136.82" clip-path="url(#a)"/>
<path d="m759.42 616.36-84.833 136.82" clip-path="url(#a)"/>
<path d="m759.42 616.36-42.416 136.82" clip-path="url(#a)"/>
<path d="m759.42 616.36v136.82" clip-path="url(#a)"/>
<path d="m759.42 616.36 42.416 136.82" clip-path="url(#a)"/>
<path d="m759.42 616.36 84.833 136.82" clip-path="url(#a)"/>
<path d="m929.08 753.18v136.82" clip-path="url(#a)"/>
<path d="m886.67 616.36 84.833 136.82" clip-path="url(#a)"/>
<path d="m886.67 616.36 127.25 136.82" clip-path="url(#a)"/>
<path d="m886.67 616.36-212.08 136.82" clip-path="url(#a)" stroke-dasharray="3.7,1.6"/>
<path d="m1098.7 753.18v136.82" clip-path="url(#a)"/>
<path d="m1344.2 477.64-202.99 275.54" clip-path="url(#a)"/>
<path d="m1344.2 477.64-54.535 275.54" clip-path="url(#a)"/>
<path d="m1344.2 477.64-118.16 275.54" clip-path="url(#a)"/>
<path d="m1344.2 477.64-33.327 138.72" clip-path="url(#a)"/>
<path d="m1344.2 477.64 93.922 275.54" clip-path="url(#a)"/>
<path d="m1344.2 477.64 136.34 275.54" clip-path="url(#a)"/>
<path d="m1344.2 477.64 178.75 275.54" clip-path="url(#a)"/>
<path d="m1141.2 753.18v136.82" clip-path="url(#a)"/>
<path d="m1289.6 753.18-106.04 136.82" clip-path="url(#a)"/>
<path d="m1289.6 753.18 106.04 136.82" clip-path="url(#a)"/>
<path d="m1226 753.18v136.82" clip-path="url(#a)"/>
<path d="m1310.8 616.36-42.416 136.82" clip-path="url(#a)"/>
<path d="m1310.8 616.36v136.82" clip-path="url(#a)"/>
<path d="m1310.8 616.36 42.416 136.82" clip-path="url(#a)"/>
<path d="m1268.4 753.18v136.82" clip-path="url(#a)"/>
<path d="m1310.8 753.18v136.82" clip-path="url(#a)"/>
<path d="m1353.2 753.18v136.82" clip-path="url(#a)"/>
<path d="m971.5 753.18v136.82" clip-path="url(#a)"/>
<path d="m1013.9 753.18v136.82" clip-path="url(#a)"/>
<path d="m674.58 753.18v136.82" clip-path="url(#a)"/>
<path d="m717 753.18v136.82" clip-path="url(#a)"/>
<path d="m759.42 753.18v136.82" clip-path="url(#a)"/>
<path d="m801.83 753.18v136.82" clip-path="url(#a)"/>
<path d="m844.25 753.18v136.82" clip-path="url(#a)"/>
<path d="m250.42 616.36-42.416 136.82" clip-path="url(#a)"/>
<path d="m250.42 616.36v136.82" clip-path="url(#a)"/>
<path d="m250.42 616.36 42.416 136.82" clip-path="url(#a)"/>
<path d="m335.25 753.18v136.82" clip-path="url(#a)"/>
<path d="m377.67 753.18v136.82" clip-path="url(#a)"/>
<path d="m483.71 616.36-63.625 136.82" clip-path="url(#a)"/>
<path d="m483.71 616.36-21.208 136.82" clip-path="url(#a)"/>
<path d="m483.71 616.36 21.208 136.82" clip-path="url(#a)"/>
<path d="m483.71 616.36 63.625 136.82" clip-path="url(#a)"/>
<path d="m420.09 753.18v136.82" clip-path="url(#a)"/>
<path d="m462.5 753.18v136.82" clip-path="url(#a)"/>
<path d="m504.92 753.18v136.82" clip-path="url(#a)"/>
<path d="m547.34 753.18v136.82" clip-path="url(#a)"/>
<path d="m208 753.18v136.82" clip-path="url(#a)"/>
<path d="m250.42 753.18v136.82" clip-path="url(#a)"/>
<path d="m292.84 753.18v136.82" clip-path="url(#a)"/>
<path d="m123.17 753.18v136.82" clip-path="url(#a)"/>
<path d="m80.755 753.18v136.82" clip-path="url(#a)"/>
<path d="m165.59 753.18v136.82" clip-path="url(#a)"/>
<path d="m589.75 753.18v136.82" clip-path="url(#a)"/>
<path d="m886.67 753.18v136.82" clip-path="url(#a)"/>
<path d="m1056.3 753.18v136.82" clip-path="url(#a)"/>
<path d="m1438.1 753.18v136.82" clip-path="url(#a)"/>
<path d="m1480.5 753.18v136.82" clip-path="url(#a)"/>
<path d="m1522.9 753.18v136.82" clip-path="url(#a)"/>
</g>
<path d="m1361.6 114.48v6.0162q0 2.4 2.4 2.4h7.7425q2.4 0 2.4-2.4v-6.0162q0-2.4-2.4-2.4h-7.7425q-2.4 0-2.4 2.4z" clip-path="url(#a)" fill="#fff" stroke="#fff"/>
<g clip-path="url(#a)">
<defs>
<path id="z" d="m9.8125 72.906h9.8594v-29.891h35.844v29.891h9.8594v-72.906h-9.8594v34.719h-35.844v-34.719h-9.8594z"/>
</defs>
<g transform="translate(1365.6 114.48) rotate(90) scale(.08 -.08)">
<use xlink:href="#z"/>
</g>
</g>
<path d="m1523.5 541.27 2.0339 4.374q1.012 2.1762 3.1882 1.1643l7.0206-3.2646q2.1762-1.012 1.1643-3.1882l-2.0339-4.374q-1.012-2.1762-3.1882-1.1643l-7.0206 3.2646q-2.1762 1.012-1.1643 3.1882z" clip-path="url(#a)" fill="#fff" stroke="#fff"/>
<g clip-path="url(#a)">
<defs>
<path id="u" d="m19.672 64.797v-27.391h12.406q6.8906 0 10.641 3.5625 3.7656 3.5625 3.7656 10.156 0 6.5469-3.7656 10.109-3.75 3.5625-10.641 3.5625zm-9.8594 8.1094h22.266q12.266 0 18.531-5.5469 6.2812-5.5469 6.2812-16.234 0-10.797-6.2812-16.312-6.2656-5.5156-18.531-5.5156h-12.406v-29.297h-9.8594z"/>
</defs>
<g transform="translate(1527.2 539.56) rotate(65.061) scale(.08 -.08)">
<use xlink:href="#u"/>
</g>
</g>
<path d="m1502.2 540.63 2.0511 5.0736q0.89953 2.225 3.1246 1.3255l7.1781-2.9019q2.225-0.89953 1.3255-3.1246l-2.0511-5.0736q-0.89953-2.2251-3.1246-1.3255l-7.1781 2.9019q-2.225 0.89953-1.3255 3.1246z" clip-path="url(#a)" fill="#fff" stroke="#fff"/>
<g clip-path="url(#a)">
<defs>
<path id="o" d="m34.188 63.188-13.391-36.281h26.812zm-5.5781 9.7188h11.188l27.781-72.906h-10.25l-6.6406 18.703h-32.859l-6.6406-18.703h-10.406z"/>
</defs>
<g transform="translate(1505.9 539.1) rotate(67.988) scale(.08 -.08)">
<use xlink:href="#o"/>
</g>
</g>
<path d="m1063.1 270.67 5.3235-1.2681q2.3347-0.55615 1.7785-2.8908l-1.7942-7.5318q-0.55615-2.3347-2.8908-1.7785l-5.3235 1.2681q-2.3347 0.55615-1.7785 2.8908l1.7942 7.5318q0.55615 2.3347 2.8908 1.7785z" clip-path="url(#a)" fill="#fff" stroke="#fff"/>
<g clip-path="url(#a)">
<g transform="translate(1062.1 266.72) rotate(-13.399) scale(.08 -.08)">
<use xlink:href="#o"/>
</g>
</g>
<path d="m923.44 479.21 4.6322 3.839q1.8479 1.5314 3.3793-0.31643l4.9405-5.9613q1.5314-1.8479-0.31643-3.3793l-4.6322-3.839q-1.8479-1.5314-3.3793 0.31643l-4.9405 5.9613q-1.5314 1.8479 0.31643 3.3793z" clip-path="url(#a)" fill="#fff" stroke="#fff"/>
<g clip-path="url(#a)">
<g transform="translate(926.03 476.08) rotate(39.651) scale(.08 -.08)">
<use xlink:href="#z"/>
</g>
</g>
<path d="m560.52 413.86 5.6707-2.0095q2.2622-0.80164 1.4605-3.0638l-2.5861-7.2978q-0.80164-2.2622-3.0638-1.4605l-5.6707 2.0095q-2.2622 0.80164-1.4605 3.0638l2.5861 7.2978q0.80164 2.2622 3.0638 1.4605z" clip-path="url(#a)" fill="#fff" stroke="#fff"/>
<g clip-path="url(#a)">
<g transform="translate(559.16 410.03) rotate(-19.513) scale(.08 -.08)">
<use xlink:href="#z"/>
</g>
</g>
<path d="m701.8 548.69 1.3137-4.2595q0.70733-2.2934-1.5861-3.0007l-7.3986-2.2819q-2.2934-0.70733-3.0007 1.5861l-1.3137 4.2595q-0.70733 2.2934 1.5861 3.0007l7.3986 2.2819q2.2934 0.70733 3.0007-1.5861z" clip-path="url(#a)" fill="#fff" stroke="#fff"/>
<g clip-path="url(#a)">
<defs>
<path id="w" d="m9.8125 72.906h9.8594v-64.609h35.5v-8.2969h-45.359z"/>
</defs>
<g transform="translate(697.92 547.49) rotate(-72.859) scale(.08 -.08)">
<use xlink:href="#w"/>
</g>
</g>
<path d="m766.34 479.34 0.028782-6.0162q0.011481-2.4-2.3885-2.4115l-7.7424-0.03704q-2.4-0.011482-2.4115 2.3885l-0.028781 6.0162q-0.011482 2.4 2.3885 2.4115l7.7424 0.03704q2.4 0.011482 2.4115-2.3885z" clip-path="url(#a)" fill="#fff" stroke="#fff"/>
<g clip-path="url(#a)">
<g transform="translate(762.28 479.32) rotate(-89.726) scale(.08 -.08)">
<use xlink:href="#z"/>
</g>
</g>
<path d="m838.27 544.99 1.6687 4.1334q0.89848 2.2255 3.124 1.327l7.1795-2.8985q2.2255-0.89848 1.327-3.124l-1.6687-4.1334q-0.89848-2.2255-3.124-1.327l-7.1795 2.8985q-2.2255 0.89848-1.327 3.124z" clip-path="url(#a)" fill="#fff" stroke="#fff"/>
<g clip-path="url(#a)">
<g transform="translate(842.04 543.47) rotate(68.015) scale(.08 -.08)">
<use xlink:href="#w"/>
</g>
</g>
<path d="m816.76 476.13 2.4665 5.4874q0.98395 2.189 3.173 1.2051l7.0619-3.1743q2.189-0.98395 1.2051-3.173l-2.4665-5.4874q-0.98395-2.189-3.173-1.2051l-7.0619 3.1743q-2.189 0.98395-1.2051 3.173z" clip-path="url(#a)" fill="#fff" stroke="#fff"/>
<g clip-path="url(#a)">
<g transform="translate(820.47 474.46) rotate(65.796) scale(.08 -.08)">
<use xlink:href="#z"/>
</g>
</g>
<path d="m923.48 546.93 2.807 3.4626q1.5114 1.8643 3.3757 0.35299l6.0145-4.8757q1.8643-1.5114 0.35299-3.3757l-2.807-3.4626q-1.5114-1.8643-3.3757-0.35299l-6.0145 4.8757q-1.8643 1.5114-0.35299 3.3757z" clip-path="url(#a)" fill="#fff" stroke="#fff"/>
<g clip-path="url(#a)">
<g transform="translate(926.63 544.37) rotate(50.97) scale(.08 -.08)">
<use xlink:href="#w"/>
</g>
</g>
<path d="m1048.1 412.33 5.847 1.4171q2.3325 0.5653 2.8978-1.7672l1.8237-7.5247q0.5653-2.3325-1.7672-2.8978l-5.847-1.4171q-2.3325-0.5653-2.8978 1.7672l-1.8237 7.5247q-0.5653 2.3325 1.7672 2.8978z" clip-path="url(#a)" fill="#fff" stroke="#fff"/>
<g clip-path="url(#a)">
<g transform="translate(1049 408.38) rotate(13.623) scale(.08 -.08)">
<use xlink:href="#z"/>
</g>
</g>
<path d="m421.54 551.59 4.9915-3.0604q2.046-1.2545 0.79155-3.3005l-4.047-6.6006q-1.2545-2.046-3.3005-0.79155l-4.9915 3.0604q-2.046 1.2545-0.79155 3.3005l4.047 6.6006q1.2545 2.046 3.3005 0.79155z" clip-path="url(#a)" fill="#fff" stroke="#fff"/>
<g clip-path="url(#a)">
<defs>
<path id="t" d="m8.6875 72.906h9.9219v-44.297q0-11.719 4.2344-16.875 4.25-5.1406 13.781-5.1406 9.4688 0 13.719 5.1406 4.25 5.1562 4.25 16.875v44.297h9.9062v-45.516q0-14.25-7.0625-21.531-7.0469-7.2812-20.812-7.2812-13.828 0-20.891 7.2812-7.0469 7.2812-7.0469 21.531z"/>
</defs>
<g transform="translate(419.41 548.12) rotate(-31.514) scale(.08 -.08)">
<use xlink:href="#t"/>
</g>
</g>
<path d="m464.37 551.53 4.7954-3.3593q1.9657-1.377 0.58867-3.3427l-4.4423-6.3413q-1.377-1.9657-3.3427-0.58867l-4.7954 3.3593q-1.9657 1.377-0.58867 3.3427l4.4423 6.3413q1.377 1.9657 3.3427 0.58867z" clip-path="url(#a)" fill="#fff" stroke="#fff"/>
<g clip-path="url(#a)">
<g transform="translate(462.04 548.2) rotate(-35.012) scale(.08 -.08)">
<use xlink:href="#t"/>
</g>
</g>
<path d="m679.95 549.8 2.2218-5.4171q0.91074-2.2205-1.3097-3.1312l-7.1634-2.9381q-2.2205-0.91074-3.1312 1.3097l-2.2218 5.4171q-0.91074 2.2205 1.3097 3.1312l7.1634 2.9381q2.2205 0.91074 3.1312-1.3097z" clip-path="url(#a)" fill="#fff" stroke="#fff"/>
<g clip-path="url(#a)">
<g transform="translate(676.19 548.26) rotate(-67.699) scale(.08 -.08)">
<use xlink:href="#t"/>
</g>
</g>
<path d="m816.86 543.72 1.6927 5.605q0.69383 2.2975 2.9914 1.6037l7.4119-2.2383q2.2975-0.69383 1.6037-2.9914l-1.6927-5.605q-0.69383-2.2975-2.9914-1.6037l-7.4119 2.2383q-2.2975 0.69383-1.6037 2.9914z" clip-path="url(#a)" fill="#fff" stroke="#fff"/>
<g clip-path="url(#a)">
<g transform="translate(820.75 542.55) rotate(73.196) scale(.08 -.08)">
<use xlink:href="#t"/>
</g>
</g>
<path d="m901.74 545.95 3.3862 4.7765q1.388 1.9579 3.3459 0.56989l6.3163-4.4778q1.9579-1.388 0.56989-3.3459l-3.3862-4.7765q-1.388-1.9579-3.3459-0.56989l-6.3163 4.4778q-1.9579 1.388-0.56989 3.3459z" clip-path="url(#a)" fill="#fff" stroke="#fff"/>
<g clip-path="url(#a)">
<g transform="translate(905.05 543.6) rotate(54.666) scale(.08 -.08)">
<use xlink:href="#t"/>
</g>
</g>
<path d="m1347.9 757.41 4.8201 2.5913q2.1139 1.1364 3.2503-0.97747l3.6661-6.8195q1.1364-2.1139-0.97747-3.2503l-4.8201-2.5913q-2.1139-1.1364-3.2503 0.97747l-3.6661 6.8195q-1.1364 2.1139 0.97747 3.2503z" clip-path="url(#a)" fill="#fff" stroke="#fff"/>
<g clip-path="url(#a)">
<g transform="translate(1349.8 753.83) rotate(28.262) scale(.08 -.08)">
<use xlink:href="#o"/>
</g>
</g>
<path d="m1326.7 757.3 4.3809 2.5693q2.0702 1.2141 3.2844-0.85611l3.9168-6.6787q1.2141-2.0702-0.85611-3.2844l-4.3809-2.5693q-2.0702-1.2141-3.2844 0.8561l-3.9168 6.6787q-1.2141 2.0702 0.85611 3.2844z" clip-path="url(#a)" fill="#fff" stroke="#fff"/>
<g clip-path="url(#a)">
<defs>
<path id="an" d="m53.516 70.516v-9.625q-5.6094 2.6875-10.594 4-4.9844 1.3281-9.625 1.3281-8.0469 0-12.422-3.125t-4.375-8.8906q0-4.8438 2.9062-7.3125 2.9062-2.4531 11.016-3.9688l5.9531-1.2188q11.031-2.1094 16.281-7.4062t5.25-14.172q0-10.609-7.1094-16.078-7.0938-5.4688-20.812-5.4688-5.1719 0-11.016 1.1719-5.8281 1.1719-12.078 3.4688v10.156q6-3.3594 11.766-5.0781 5.7656-1.7031 11.328-1.7031 8.4375 0 13.031 3.3125 4.5938 3.3281 4.5938 9.4844 0 5.3594-3.2969 8.3906t-10.812 4.5469l-6.0156 1.1719q-11.031 2.1875-15.969 6.875-4.9219 4.6875-4.9219 13.047 0 9.6719 6.8125 15.234t18.766 5.5625q5.1406 0 10.453-0.9375 5.3281-0.92188 10.891-2.7656z"/>
</defs>
<g transform="translate(1328.7 753.8) rotate(30.39) scale(.08 -.08)">
<use xlink:href="#an"/>
</g>
</g>
<path d="m608.78 691.41 6.1003-0.85552q2.3767-0.33332 2.0434-2.7101l-1.0753-7.6675q-0.33332-2.3767-2.7101-2.0434l-6.1003 0.85552q-2.3767 0.33332-2.0434 2.7101l1.0753 7.6675q0.33332 2.3767 2.7101 2.0434z" clip-path="url(#a)" fill="#fff" stroke="#fff"/>
<g clip-path="url(#a)">
<defs>
<path id="af" d="m19.672 64.797v-56.688h11.922q15.094 0 22.094 6.8281 7 6.8438 7 21.594 0 14.641-7 21.453t-22.094 6.8125zm-9.8594 8.1094h20.266q21.188 0 31.094-8.8125 9.9219-8.8125 9.9219-27.562 0-18.859-9.9688-27.703-9.9531-8.8281-31.047-8.8281h-20.266z"/>
</defs>
<g transform="translate(608.22 687.38) rotate(-7.9833) scale(.08 -.08)">
<use xlink:href="#af"/>
</g>
</g>
<path d="m309.27 553.06 3.4255-4.2678q1.5023-1.8717-0.36939-3.374l-6.0381-4.8464q-1.8717-1.5023-3.374 0.36939l-3.4255 4.2678q-1.5023 1.8717 0.36939 3.374l6.0381 4.8464q1.8717 1.5023 3.374-0.36939z" clip-path="url(#a)" fill="#fff" stroke="#fff"/>
<g clip-path="url(#a)">
<g transform="translate(306.1 550.52) rotate(-51.248) scale(.08 -.08)">
<use xlink:href="#o"/>
</g>
</g>
<path d="m354.53 618.3 0.44066-4.5801q0.22985-2.389-2.1591-2.6188l-7.7069-0.7415q-2.389-0.22985-2.6188 2.1591l-0.44066 4.5801q-0.22985 2.389 2.1591 2.6188l7.7069 0.7415q2.389 0.22985 2.6188-2.1591z" clip-path="url(#a)" fill="#fff" stroke="#fff"/>
<g clip-path="url(#a)">
<defs>
<path id="al" d="m9.8125 72.906h41.891v-8.3125h-32.031v-21.484h28.906v-8.2969h-28.906v-34.812h-9.8594z"/>
</defs>
<g transform="translate(350.49 617.91) rotate(-84.504) scale(.08 -.08)">
<use xlink:href="#al"/>
</g>
</g>
<path d="m363.31 613.23 0.2927 5.0703q0.13832 2.396 2.5343 2.2577l7.7296-0.44621q2.396-0.13832 2.2577-2.5343l-0.2927-5.0703q-0.13832-2.396-2.5343-2.2577l-7.7296 0.44621q-2.396 0.13832-2.2577 2.5343z" clip-path="url(#a)" fill="#fff" stroke="#fff"/>
<g clip-path="url(#a)">
<g transform="translate(367.37 613) rotate(86.696) scale(.08 -.08)">
<use xlink:href="#an"/>
</g>
</g>
<path d="m416.22 549.08 3.6132 4.1101q1.5846 1.8025 3.3871 0.21796l5.815-5.1119q1.8025-1.5846 0.21796-3.3871l-3.6132-4.1101q-1.5846-1.8025-3.3871-0.21796l-5.815 5.1119q-1.8025 1.5846-0.21796 3.3871z" clip-path="url(#a)" fill="#fff" stroke="#fff"/>
<g clip-path="url(#a)">
<g transform="translate(419.27 546.4) rotate(48.682) scale(.08 -.08)">
<use xlink:href="#o"/>
</g>
</g>
<path d="m625.9 803.94v35.285q0 2.4 2.4 2.4h7.7425q2.4 0 2.4-2.4v-35.285q0-2.4-2.4-2.4h-7.7425q-2.4 0-2.4 2.4z" clip-path="url(#a)" fill="#fff" stroke="#fff"/>
<g clip-path="url(#a)">
<defs>
<path id="k" d="m-0.29688 72.906h61.672v-8.3125h-25.875v-64.594h-9.9062v64.594h-25.891z"/>
<path id="c" d="m56.203 29.594v-4.3906h-41.312q0.59375-9.2812 5.5938-14.141t13.938-4.8594q5.1719 0 10.031 1.2656t9.6562 3.8125v-8.5q-4.8438-2.0469-9.9219-3.125t-10.297-1.0781q-13.094 0-20.734 7.6094-7.6406 7.625-7.6406 20.625 0 13.422 7.25 21.297 7.25 7.8906 19.562 7.8906 11.031 0 17.453-7.1094 6.4219-7.0938 6.4219-19.297zm-8.9844 2.6406q-0.09375 7.3594-4.125 11.75-4.0312 4.4062-10.672 4.4062-7.5156 0-12.031-4.25t-5.2031-11.969z"/>
<path id="h" d="m41.109 46.297q-1.5156 0.875-3.2969 1.2812-1.7812 0.42188-3.9219 0.42188-7.625 0-11.703-4.9531t-4.0781-14.234v-28.812h-9.0312v54.688h9.0312v-8.5q2.8438 4.9844 7.375 7.3906 4.5469 2.4219 11.047 2.4219 0.92188 0 2.0469-0.125 1.125-0.10938 2.4844-0.35938z"/>
<path id="l" d="m52 44.188q3.375 6.0625 8.0625 8.9375t11.031 2.875q8.5469 0 13.188-5.9844 4.6406-5.9688 4.6406-17v-33.016h-9.0312v32.719q0 7.8594-2.7969 11.656-2.7812 3.8125-8.4844 3.8125-6.9844 0-11.047-4.6406-4.0469-4.625-4.0469-12.641v-30.906h-9.0312v32.719q0 7.9062-2.7812 11.688t-8.5938 3.7812q-6.8906 0-10.953-4.6562-4.0469-4.6562-4.0469-12.625v-30.906h-9.0312v54.688h9.0312v-8.5q3.0781 5.0312 7.375 7.4219t10.203 2.3906q5.9688 0 10.141-3.0312 4.1719-3.0156 6.1719-8.7812z"/>
<path id="e" d="m9.4219 54.688h8.9844v-54.688h-8.9844zm0 21.297h8.9844v-11.391h-8.9844z"/>
<path id="f" d="m54.891 33.016v-33.016h-8.9844v32.719q0 7.7656-3.0312 11.609-3.0312 3.8594-9.0781 3.8594-7.2812 0-11.484-4.6406-4.2031-4.625-4.2031-12.641v-30.906h-9.0312v54.688h9.0312v-8.5q3.2344 4.9375 7.5938 7.375 4.375 2.4375 10.094 2.4375 9.4219 0 14.25-5.8281 4.8438-5.8281 4.8438-17.156z"/>
<path id="j" d="m34.281 27.484q-10.891 0-15.094-2.4844t-4.2031-8.5q0-4.7812 3.1562-7.5938 3.1562-2.7969 8.5625-2.7969 7.4844 0 12 5.2969t4.5156 14.078v2zm17.922 3.7188v-31.203h-8.9844v8.2969q-3.0781-4.9688-7.6719-7.3438t-11.234-2.375q-8.3906 0-13.359 4.7188-4.9531 4.7188-4.9531 12.625 0 9.2188 6.1719 13.906 6.1875 4.6875 18.438 4.6875h12.609v0.89062q0 6.2031-4.0781 9.5938t-11.453 3.3906q-4.6875 0-9.1406-1.125-4.4375-1.125-8.5312-3.375v8.3125q4.9219 1.9062 9.5625 2.8438 4.6406 0.95312 9.0312 0.95312 11.875 0 17.734-6.1562 5.8594-6.1406 5.8594-18.641z"/>
<path id="i" d="m9.4219 75.984h8.9844v-75.984h-8.9844z"/>
</defs>
<g transform="translate(629.96 803.94) rotate(90) scale(.08 -.08)">
<use xlink:href="#k"/>
<use x="60.818359" xlink:href="#c"/>
<use x="122.341797" xlink:href="#h"/>
<use x="163.439453" xlink:href="#l"/>
<use x="260.851562" xlink:href="#e"/>
<use x="288.634766" xlink:href="#f"/>
<use x="352.013672" xlink:href="#j"/>
<use x="413.292969" xlink:href="#i"/>
</g>
</g>
<path d="m720.89 690.4 2.8838-4.651q1.2647-2.0397-0.77501-3.3044l-6.5802-4.08q-2.0397-1.2647-3.3044 0.77501l-2.8838 4.651q-1.2647 2.0397 0.77501 3.3044l6.5802 4.08q2.0397 1.2647 3.3044-0.77501z" clip-path="url(#a)" fill="#fff" stroke="#fff"/>
<g clip-path="url(#a)">
<g transform="translate(717.44 688.26) rotate(-58.199) scale(.08 -.08)">
<use xlink:href="#o"/>
</g>
</g>
<path d="m743.49 688.93 1.4284-4.6074q0.71068-2.2924-1.5817-3.003l-7.3953-2.2927q-2.2924-0.71068-3.003 1.5817l-1.4284 4.6074q-0.71068 2.2924 1.5817 3.003l7.3953 2.2927q2.2924 0.71068 3.003-1.5817z" clip-path="url(#a)" fill="#fff" stroke="#fff"/>
<g clip-path="url(#a)">
<g transform="translate(739.6 687.73) rotate(-72.775) scale(.08 -.08)">
<use xlink:href="#u"/>
</g>
</g>
<path d="m753.15 681.69v6.16q0 2.4 2.4 2.4h7.7425q2.4 0 2.4-2.4v-6.16q0-2.4-2.4-2.4h-7.7425q-2.4 0-2.4 2.4z" clip-path="url(#a)" fill="#fff" stroke="#fff"/>
<g clip-path="url(#a)">
<g transform="translate(757.21 681.69) rotate(90) scale(.08 -.08)">
<use xlink:href="#af"/>
</g>
</g>
<path d="m773.83 684.01 1.6205 5.2271q0.71068 2.2924 3.003 1.5817l7.3953-2.2927q2.2924-0.71068 1.5817-3.003l-1.6205-5.2271q-0.71068-2.2924-3.003-1.5817l-7.3953 2.2927q-2.2924 0.71068-1.5817 3.003z" clip-path="url(#a)" fill="#fff" stroke="#fff"/>
<g clip-path="url(#a)">
<g transform="translate(777.71 682.81) rotate(72.775) scale(.08 -.08)">
<use xlink:href="#o"/>
</g>
</g>
<path d="m794.88 685.46 3.2461 5.2353q1.2647 2.0397 3.3044 0.77501l6.5802-4.08q2.0397-1.2647 0.77501-3.3044l-3.2461-5.2353q-1.2647-2.0397-3.3044-0.77501l-6.5802 4.08q-2.0397 1.2647-0.77501 3.3044z" clip-path="url(#a)" fill="#fff" stroke="#fff"/>
<g clip-path="url(#a)">
<g transform="translate(798.33 683.31) rotate(58.199) scale(.08 -.08)">
<use xlink:href="#af"/>
</g>
</g>
<path d="m922.81 803.94v35.285q0 2.4 2.4 2.4h7.7425q2.4 0 2.4-2.4v-35.285q0-2.4-2.4-2.4h-7.7425q-2.4 0-2.4 2.4z" clip-path="url(#a)" fill="#fff" stroke="#fff"/>
<g clip-path="url(#a)">
<g transform="translate(926.88 803.94) rotate(90) scale(.08 -.08)">
<use xlink:href="#k"/>
<use x="60.818359" xlink:href="#c"/>
<use x="122.341797" xlink:href="#h"/>
<use x="163.439453" xlink:href="#l"/>
<use x="260.851562" xlink:href="#e"/>
<use x="288.634766" xlink:href="#f"/>
<use x="352.013672" xlink:href="#j"/>
<use x="413.292969" xlink:href="#i"/>
</g>
</g>
<path d="m922.54 686.12 2.4247 3.9105q1.2647 2.0397 3.3044 0.77501l6.5802-4.08q2.0397-1.2647 0.77501-3.3044l-2.4247-3.9105q-1.2647-2.0397-3.3044-0.77501l-6.5802 4.08q-2.0397 1.2647-0.77501 3.3044z" clip-path="url(#a)" fill="#fff" stroke="#fff"/>
<g clip-path="url(#a)">
<g transform="translate(925.99 683.98) rotate(58.199) scale(.08 -.08)">
<use xlink:href="#al"/>
</g>
</g>
<path d="m944.06 687.27 3.2852 3.5322q1.6345 1.7574 3.3919 0.1229l5.6694-5.2729q1.7574-1.6345 0.1229-3.3919l-3.2852-3.5322q-1.6345-1.7574-3.3919-0.1229l-5.6694 5.2729q-1.7574 1.6345-0.1229 3.3919z" clip-path="url(#a)" fill="#fff" stroke="#fff"/>
<g clip-path="url(#a)">
<g transform="translate(947.03 684.51) rotate(47.075) scale(.08 -.08)">
<use xlink:href="#u"/>
</g>
</g>
<path d="m781.73 691.52 4.5986-2.9666q2.0168-1.301 0.71571-3.3178l-4.1972-6.5061q-1.301-2.0168-3.3178-0.71571l-4.5986 2.9666q-2.0168 1.301-0.71571 3.3178l4.1972 6.5061q1.301 2.0168 3.3178 0.71571z" clip-path="url(#a)" fill="#fff" stroke="#fff"/>
<g clip-path="url(#a)">
<g transform="translate(779.52 688.11) rotate(-32.827) scale(.08 -.08)">
<use xlink:href="#o"/>
</g>
</g>
<path d="m1092.5 803.94v35.285q0 2.4 2.4 2.4h7.7425q2.4 0 2.4-2.4v-35.285q0-2.4-2.4-2.4h-7.7425q-2.4 0-2.4 2.4z" clip-path="url(#a)" fill="#fff" stroke="#fff"/>
<g clip-path="url(#a)">
<g transform="translate(1096.5 803.94) rotate(90) scale(.08 -.08)">
<use xlink:href="#k"/>
<use x="60.818359" xlink:href="#c"/>
<use x="122.341797" xlink:href="#h"/>
<use x="163.439453" xlink:href="#l"/>
<use x="260.851562" xlink:href="#e"/>
<use x="288.634766" xlink:href="#f"/>
<use x="352.013672" xlink:href="#j"/>
<use x="413.292969" xlink:href="#i"/>
</g>
</g>
<path d="m1246.1 621.33 3.2459-4.4059q1.4235-1.9323-0.50874-3.3558l-6.2335-4.5923q-1.9323-1.4235-3.3558 0.50874l-3.2459 4.4059q-1.4235 1.9323 0.50874 3.3558l6.2335 4.5923q1.9323 1.4235 3.3558-0.50874z" clip-path="url(#a)" fill="#fff" stroke="#fff"/>
<g clip-path="url(#a)">
<g transform="translate(1242.8 618.92) rotate(-53.62) scale(.08 -.08)">
<use xlink:href="#o"/>
</g>
</g>
<path d="m1322.6 618.99 0.93656-4.732q0.46598-2.3543-1.8884-2.8203l-7.5952-1.5033q-2.3543-0.46598-2.8203 1.8884l-0.93656 4.732q-0.46598 2.3543 1.8884 2.8203l7.5952 1.5033q2.3543 0.46598 2.8203-1.8884z" clip-path="url(#a)" fill="#fff" stroke="#fff"/>
<g clip-path="url(#a)">
<g transform="translate(1318.6 618.2) rotate(-78.805) scale(.08 -.08)">
<use xlink:href="#u"/>
</g>
</g>
<path d="m1289.8 620.39 2.1568-5.0295q0.94589-2.2057-1.2598-3.1516l-7.1158-3.0515q-2.2057-0.94589-3.1516 1.2598l-2.1568 5.0295q-0.94589 2.2057 1.2598 3.1516l7.1158 3.0515q2.2057 0.94589 3.1516-1.2598z" clip-path="url(#a)" fill="#fff" stroke="#fff"/>
<g clip-path="url(#a)">
<g transform="translate(1286 618.79) rotate(-66.789) scale(.08 -.08)">
<use xlink:href="#o"/>
</g>
</g>
<path d="m1333 551.12 1.2784-5.3211q0.56064-2.3336-1.773-2.8942l-7.5283-1.8086q-2.3336-0.56064-2.8942 1.773l-1.2784 5.3211q-0.56064 2.3336 1.773 2.8942l7.5283 1.8086q2.3336 0.56064 2.8942-1.773z" clip-path="url(#a)" fill="#fff" stroke="#fff"/>
<g clip-path="url(#a)">
<g transform="translate(1329 550.18) rotate(-76.491) scale(.08 -.08)">
<use xlink:href="#o"/>
</g>
</g>
<path d="m1384.2 614.66 1.889 5.5419q0.77433 2.2717 3.046 1.4973l7.3284-2.498q2.2717-0.77433 1.4973-3.046l-1.889-5.5419q-0.77433-2.2717-3.046-1.4973l-7.3284 2.498q-2.2717 0.77433-1.4973 3.046z" clip-path="url(#a)" fill="#fff" stroke="#fff"/>
<g clip-path="url(#a)">
<g transform="translate(1388.1 613.35) rotate(71.177) scale(.08 -.08)">
<use xlink:href="#t"/>
</g>
</g>
<path d="m1405.4 615.57 2.5966 5.2477q1.0644 2.1511 3.2154 1.0867l6.9395-3.4337q2.1511-1.0644 1.0867-3.2154l-2.5966-5.2477q-1.0644-2.1511-3.2154-1.0867l-6.9395 3.4337q-2.1511 1.0644-1.0867 3.2154z" clip-path="url(#a)" fill="#fff" stroke="#fff"/>
<g clip-path="url(#a)">
<g transform="translate(1409.1 613.76) rotate(63.673) scale(.08 -.08)">
<use xlink:href="#t"/>
</g>
</g>
<path d="m1426.7 616.37 3.1866 4.9119q1.3062 2.0134 3.3196 0.70722l6.4954-4.2138q2.0134-1.3062 0.70722-3.3196l-3.1866-4.9119q-1.3062-2.0134-3.3196-0.70722l-6.4954 4.2138q-2.0134 1.3062-0.70722 3.3196z" clip-path="url(#a)" fill="#fff" stroke="#fff"/>
<g clip-path="url(#a)">
<g transform="translate(1430.1 614.15) rotate(57.027) scale(.08 -.08)">
<use xlink:href="#t"/>
</g>
</g>
<path d="m1134.9 803.94v35.285q0 2.4 2.4 2.4h7.7425q2.4 0 2.4-2.4v-35.285q0-2.4-2.4-2.4h-7.7425q-2.4 0-2.4 2.4z" clip-path="url(#a)" fill="#fff" stroke="#fff"/>
<g clip-path="url(#a)">
<g transform="translate(1139 803.94) rotate(90) scale(.08 -.08)">
<use xlink:href="#k"/>
<use x="60.818359" xlink:href="#c"/>
<use x="122.341797" xlink:href="#h"/>
<use x="163.439453" xlink:href="#l"/>
<use x="260.851562" xlink:href="#e"/>
<use x="288.634766" xlink:href="#f"/>
<use x="352.013672" xlink:href="#j"/>
<use x="413.292969" xlink:href="#i"/>
</g>
</g>
<path d="m1230.8 839.37 21.616-27.889q1.4702-1.8969-0.42671-3.3672l-6.1196-4.743q-1.8969-1.4702-3.3672 0.42671l-21.616 27.889q-1.4702 1.8969 0.42671 3.3672l6.1196 4.743q1.8969 1.4702 3.3672-0.42671z" clip-path="url(#a)" fill="#fff" stroke="#fff"/>
<g clip-path="url(#a)">
<g transform="translate(1227.5 836.88) rotate(-52.222) scale(.08 -.08)">
<use xlink:href="#k"/>
<use x="60.818359" xlink:href="#c"/>
<use x="122.341797" xlink:href="#h"/>
<use x="163.439453" xlink:href="#l"/>
<use x="260.851562" xlink:href="#e"/>
<use x="288.634766" xlink:href="#f"/>
<use x="352.013672" xlink:href="#j"/>
<use x="413.292969" xlink:href="#i"/>
</g>
</g>
<path d="m1326.9 811.48 21.616 27.889q1.4702 1.8969 3.3672 0.42671l6.1196-4.743q1.8969-1.4702 0.42671-3.3672l-21.616-27.889q-1.4702-1.8969-3.3672-0.42671l-6.1196 4.743q-1.8969 1.4702-0.42671 3.3672z" clip-path="url(#a)" fill="#fff" stroke="#fff"/>
<g clip-path="url(#a)">
<g transform="translate(1330.1 808.99) rotate(52.222) scale(.08 -.08)">
<use xlink:href="#k"/>
<use x="60.818359" xlink:href="#c"/>
<use x="122.341797" xlink:href="#h"/>
<use x="163.439453" xlink:href="#l"/>
<use x="260.851562" xlink:href="#e"/>
<use x="288.634766" xlink:href="#f"/>
<use x="352.013672" xlink:href="#j"/>
<use x="413.292969" xlink:href="#i"/>
</g>
</g>
<path d="m1219.7 803.94v35.285q0 2.4 2.4 2.4h7.7425q2.4 0 2.4-2.4v-35.285q0-2.4-2.4-2.4h-7.7425q-2.4 0-2.4 2.4z" clip-path="url(#a)" fill="#fff" stroke="#fff"/>
<g clip-path="url(#a)">
<g transform="translate(1223.8 803.94) rotate(90) scale(.08 -.08)">
<use xlink:href="#k"/>
<use x="60.818359" xlink:href="#c"/>
<use x="122.341797" xlink:href="#h"/>
<use x="163.439453" xlink:href="#l"/>
<use x="260.851562" xlink:href="#e"/>
<use x="288.634766" xlink:href="#f"/>
<use x="352.013672" xlink:href="#j"/>
<use x="413.292969" xlink:href="#i"/>
</g>
</g>
<path d="m1294.8 689.28 1.646-5.3094q0.71068-2.2924-1.5817-3.003l-7.3953-2.2927q-2.2924-0.71068-3.003 1.5817l-1.646 5.3094q-0.71068 2.2924 1.5817 3.003l7.3953 2.2927q2.2924 0.71068 3.003-1.5817z" clip-path="url(#a)" fill="#fff" stroke="#fff"/>
<g clip-path="url(#a)">
<defs>
<path id="ao" d="m44.391 34.188q3.1719-1.0781 6.1719-4.5938t6.0312-9.6719l10.016-19.922h-10.609l-9.3125 18.703q-3.625 7.3281-7.0156 9.7188t-9.25 2.3906h-10.75v-30.812h-9.8594v72.906h22.266q12.5 0 18.656-5.2344 6.1562-5.2188 6.1562-15.766 0-6.8906-3.2031-11.438-3.2031-4.5312-9.2969-6.2812zm-24.719 30.609v-25.875h12.406q7.125 0 10.766 3.2969t3.6406 9.6875-3.6406 9.6406-10.766 3.25z"/>
</defs>
<g transform="translate(1290.9 688.08) rotate(-72.775) scale(.08 -.08)">
<use xlink:href="#ao"/>
</g>
</g>
<path d="m1304.6 682.24v5.055q0 2.4 2.4 2.4h7.7425q2.4 0 2.4-2.4v-5.055q0-2.4-2.4-2.4h-7.7425q-2.4 0-2.4 2.4z" clip-path="url(#a)" fill="#fff" stroke="#fff"/>
<g clip-path="url(#a)">
<defs>
<path id="ab" d="m9.8125 72.906h46.094v-8.3125h-36.234v-21.578h34.719v-8.2969h-34.719v-26.422h37.109v-8.2969h-46.969z"/>
</defs>
<g transform="translate(1308.6 682.24) rotate(90) scale(.08 -.08)">
<use xlink:href="#ab"/>
</g>
</g>
<path d="m1325.2 683.96 1.6542 5.3357q0.71068 2.2924 3.003 1.5817l7.3953-2.2927q2.2924-0.71068 1.5817-3.003l-1.6542-5.3357q-0.71068-2.2924-3.003-1.5817l-7.3953 2.2927q-2.2924 0.71068-1.5817 3.003z" clip-path="url(#a)" fill="#fff" stroke="#fff"/>
<g clip-path="url(#a)">
<defs>
<path id="x" d="m64.406 67.281v-10.391q-4.9844 4.6406-10.625 6.9219-5.6406 2.2969-11.984 2.2969-12.5 0-19.141-7.6406t-6.6406-22.094q0-14.406 6.6406-22.047t19.141-7.6406q6.3438 0 11.984 2.2969t10.625 6.9375v-10.312q-5.1719-3.5156-10.969-5.2812-5.7812-1.75-12.219-1.75-16.562 0-26.094 10.125-9.5156 10.141-9.5156 27.672 0 17.578 9.5156 27.703 9.5312 10.141 26.094 10.141 6.5312 0 12.312-1.7344 5.7969-1.7344 10.875-5.2031z"/>
</defs>
<g transform="translate(1329.1 682.75) rotate(72.775) scale(.08 -.08)">
<use xlink:href="#x"/>
</g>
</g>
<path d="m1262.1 803.94v35.285q0 2.4 2.4 2.4h7.7425q2.4 0 2.4-2.4v-35.285q0-2.4-2.4-2.4h-7.7425q-2.4 0-2.4 2.4z" clip-path="url(#a)" fill="#fff" stroke="#fff"/>
<g clip-path="url(#a)">
<g transform="translate(1266.2 803.94) rotate(90) scale(.08 -.08)">
<use xlink:href="#k"/>
<use x="60.818359" xlink:href="#c"/>
<use x="122.341797" xlink:href="#h"/>
<use x="163.439453" xlink:href="#l"/>
<use x="260.851562" xlink:href="#e"/>
<use x="288.634766" xlink:href="#f"/>
<use x="352.013672" xlink:href="#j"/>
<use x="413.292969" xlink:href="#i"/>
</g>
</g>
<path d="m1304.6 803.94v35.285q0 2.4 2.4 2.4h7.7425q2.4 0 2.4-2.4v-35.285q0-2.4-2.4-2.4h-7.7425q-2.4 0-2.4 2.4z" clip-path="url(#a)" fill="#fff" stroke="#fff"/>
<g clip-path="url(#a)">
<g transform="translate(1308.6 803.94) rotate(90) scale(.08 -.08)">
<use xlink:href="#k"/>
<use x="60.818359" xlink:href="#c"/>
<use x="122.341797" xlink:href="#h"/>
<use x="163.439453" xlink:href="#l"/>
<use x="260.851562" xlink:href="#e"/>
<use x="288.634766" xlink:href="#f"/>
<use x="352.013672" xlink:href="#j"/>
<use x="413.292969" xlink:href="#i"/>
</g>
</g>
<path d="m1347 803.94v35.285q0 2.4 2.4 2.4h7.7425q2.4 0 2.4-2.4v-35.285q0-2.4-2.4-2.4h-7.7425q-2.4 0-2.4 2.4z" clip-path="url(#a)" fill="#fff" stroke="#fff"/>
<g clip-path="url(#a)">
<g transform="translate(1351 803.94) rotate(90) scale(.08 -.08)">
<use xlink:href="#k"/>
<use x="60.818359" xlink:href="#c"/>
<use x="122.341797" xlink:href="#h"/>
<use x="163.439453" xlink:href="#l"/>
<use x="260.851562" xlink:href="#e"/>
<use x="288.634766" xlink:href="#f"/>
<use x="352.013672" xlink:href="#j"/>
<use x="413.292969" xlink:href="#i"/>
</g>
</g>
<path d="m965.23 803.94v35.285q0 2.4 2.4 2.4h7.7425q2.4 0 2.4-2.4v-35.285q0-2.4-2.4-2.4h-7.7425q-2.4 0-2.4 2.4z" clip-path="url(#a)" fill="#fff" stroke="#fff"/>
<g clip-path="url(#a)">
<g transform="translate(969.29 803.94) rotate(90) scale(.08 -.08)">
<use xlink:href="#k"/>
<use x="60.818359" xlink:href="#c"/>
<use x="122.341797" xlink:href="#h"/>
<use x="163.439453" xlink:href="#l"/>
<use x="260.851562" xlink:href="#e"/>
<use x="288.634766" xlink:href="#f"/>
<use x="352.013672" xlink:href="#j"/>
<use x="413.292969" xlink:href="#i"/>
</g>
</g>
<path d="m1007.6 803.94v35.285q0 2.4 2.4 2.4h7.7425q2.4 0 2.4-2.4v-35.285q0-2.4-2.4-2.4h-7.7425q-2.4 0-2.4 2.4z" clip-path="url(#a)" fill="#fff" stroke="#fff"/>
<g clip-path="url(#a)">
<g transform="translate(1011.7 803.94) rotate(90) scale(.08 -.08)">
<use xlink:href="#k"/>
<use x="60.818359" xlink:href="#c"/>
<use x="122.341797" xlink:href="#h"/>
<use x="163.439453" xlink:href="#l"/>
<use x="260.851562" xlink:href="#e"/>
<use x="288.634766" xlink:href="#f"/>
<use x="352.013672" xlink:href="#j"/>
<use x="413.292969" xlink:href="#i"/>
</g>
</g>
<path d="m668.31 803.94v35.285q0 2.4 2.4 2.4h7.7425q2.4 0 2.4-2.4v-35.285q0-2.4-2.4-2.4h-7.7425q-2.4 0-2.4 2.4z" clip-path="url(#a)" fill="#fff" stroke="#fff"/>
<g clip-path="url(#a)">
<g transform="translate(672.38 803.94) rotate(90) scale(.08 -.08)">
<use xlink:href="#k"/>
<use x="60.818359" xlink:href="#c"/>
<use x="122.341797" xlink:href="#h"/>
<use x="163.439453" xlink:href="#l"/>
<use x="260.851562" xlink:href="#e"/>
<use x="288.634766" xlink:href="#f"/>
<use x="352.013672" xlink:href="#j"/>
<use x="413.292969" xlink:href="#i"/>
</g>
</g>
<path d="m710.73 803.94v35.285q0 2.4 2.4 2.4h7.7425q2.4 0 2.4-2.4v-35.285q0-2.4-2.4-2.4h-7.7425q-2.4 0-2.4 2.4z" clip-path="url(#a)" fill="#fff" stroke="#fff"/>
<g clip-path="url(#a)">
<g transform="translate(714.79 803.94) rotate(90) scale(.08 -.08)">
<use xlink:href="#k"/>
<use x="60.818359" xlink:href="#c"/>
<use x="122.341797" xlink:href="#h"/>
<use x="163.439453" xlink:href="#l"/>
<use x="260.851562" xlink:href="#e"/>
<use x="288.634766" xlink:href="#f"/>
<use x="352.013672" xlink:href="#j"/>
<use x="413.292969" xlink:href="#i"/>
</g>
</g>
<path d="m753.15 803.94v35.285q0 2.4 2.4 2.4h7.7425q2.4 0 2.4-2.4v-35.285q0-2.4-2.4-2.4h-7.7425q-2.4 0-2.4 2.4z" clip-path="url(#a)" fill="#fff" stroke="#fff"/>
<g clip-path="url(#a)">
<g transform="translate(757.21 803.94) rotate(90) scale(.08 -.08)">
<use xlink:href="#k"/>
<use x="60.818359" xlink:href="#c"/>
<use x="122.341797" xlink:href="#h"/>
<use x="163.439453" xlink:href="#l"/>
<use x="260.851562" xlink:href="#e"/>
<use x="288.634766" xlink:href="#f"/>
<use x="352.013672" xlink:href="#j"/>
<use x="413.292969" xlink:href="#i"/>
</g>
</g>
<path d="m795.56 803.94v35.285q0 2.4 2.4 2.4h7.7425q2.4 0 2.4-2.4v-35.285q0-2.4-2.4-2.4h-7.7425q-2.4 0-2.4 2.4z" clip-path="url(#a)" fill="#fff" stroke="#fff"/>
<g clip-path="url(#a)">
<g transform="translate(799.63 803.94) rotate(90) scale(.08 -.08)">
<use xlink:href="#k"/>
<use x="60.818359" xlink:href="#c"/>
<use x="122.341797" xlink:href="#h"/>
<use x="163.439453" xlink:href="#l"/>
<use x="260.851562" xlink:href="#e"/>
<use x="288.634766" xlink:href="#f"/>
<use x="352.013672" xlink:href="#j"/>
<use x="413.292969" xlink:href="#i"/>
</g>
</g>
<path d="m837.98 803.94v35.285q0 2.4 2.4 2.4h7.7425q2.4 0 2.4-2.4v-35.285q0-2.4-2.4-2.4h-7.7425q-2.4 0-2.4 2.4z" clip-path="url(#a)" fill="#fff" stroke="#fff"/>
<g clip-path="url(#a)">
<g transform="translate(842.04 803.94) rotate(90) scale(.08 -.08)">
<use xlink:href="#k"/>
<use x="60.818359" xlink:href="#c"/>
<use x="122.341797" xlink:href="#h"/>
<use x="163.439453" xlink:href="#l"/>
<use x="260.851562" xlink:href="#e"/>
<use x="288.634766" xlink:href="#f"/>
<use x="352.013672" xlink:href="#j"/>
<use x="413.292969" xlink:href="#i"/>
</g>
</g>
<path d="m234.45 689.04 1.4969-4.8283q0.71068-2.2924-1.5817-3.003l-7.3953-2.2927q-2.2924-0.71068-3.003 1.5817l-1.4969 4.8283q-0.71068 2.2924 1.5817 3.003l7.3953 2.2927q2.2924 0.71068 3.003-1.5817z" clip-path="url(#a)" fill="#fff" stroke="#fff"/>
<g clip-path="url(#a)">
<g transform="translate(230.57 687.84) rotate(-72.775) scale(.08 -.08)">
<use xlink:href="#ab"/>
</g>
</g>
<path d="m244.15 682.24v5.055q0 2.4 2.4 2.4h7.7425q2.4 0 2.4-2.4v-5.055q0-2.4-2.4-2.4h-7.7425q-2.4 0-2.4 2.4z" clip-path="url(#a)" fill="#fff" stroke="#fff"/>
<g clip-path="url(#a)">
<g transform="translate(248.21 682.24) rotate(90) scale(.08 -.08)">
<use xlink:href="#ab"/>
</g>
</g>
<path d="m264.81 683.96 1.6542 5.3357q0.71068 2.2924 3.003 1.5817l7.3953-2.2927q2.2924-0.71068 1.5817-3.003l-1.6542-5.3357q-0.71068-2.2924-3.003-1.5817l-7.3953 2.2927q-2.2924 0.71068-1.5817 3.003z" clip-path="url(#a)" fill="#fff" stroke="#fff"/>
<g clip-path="url(#a)">
<g transform="translate(268.69 682.75) rotate(72.775) scale(.08 -.08)">
<use xlink:href="#x"/>
</g>
</g>
<path d="m328.98 803.94v35.285q0 2.4 2.4 2.4h7.7425q2.4 0 2.4-2.4v-35.285q0-2.4-2.4-2.4h-7.7425q-2.4 0-2.4 2.4z" clip-path="url(#a)" fill="#fff" stroke="#fff"/>
<g clip-path="url(#a)">
<g transform="translate(333.05 803.94) rotate(90) scale(.08 -.08)">
<use xlink:href="#k"/>
<use x="60.818359" xlink:href="#c"/>
<use x="122.341797" xlink:href="#h"/>
<use x="163.439453" xlink:href="#l"/>
<use x="260.851562" xlink:href="#e"/>
<use x="288.634766" xlink:href="#f"/>
<use x="352.013672" xlink:href="#j"/>
<use x="413.292969" xlink:href="#i"/>
</g>
</g>
<path d="m371.4 803.94v35.285q0 2.4 2.4 2.4h7.7425q2.4 0 2.4-2.4v-35.285q0-2.4-2.4-2.4h-7.7425q-2.4 0-2.4 2.4z" clip-path="url(#a)" fill="#fff" stroke="#fff"/>
<g clip-path="url(#a)">
<g transform="translate(375.46 803.94) rotate(90) scale(.08 -.08)">
<use xlink:href="#k"/>
<use x="60.818359" xlink:href="#c"/>
<use x="122.341797" xlink:href="#h"/>
<use x="163.439453" xlink:href="#l"/>
<use x="260.851562" xlink:href="#e"/>
<use x="288.634766" xlink:href="#f"/>
<use x="352.013672" xlink:href="#j"/>
<use x="413.292969" xlink:href="#i"/>
</g>
</g>
<path d="m456.41 689.93 2.3439-5.0404q1.012-2.1762-1.1642-3.1882l-7.0205-3.2648q-2.1762-1.012-3.1882 1.1642l-2.3439 5.0404q-1.012 2.1762 1.1642 3.1882l7.0205 3.2648q2.1762 1.012 3.1882-1.1642z" clip-path="url(#a)" fill="#fff" stroke="#fff"/>
<g clip-path="url(#a)">
<g transform="translate(452.73 688.22) rotate(-65.06) scale(.08 -.08)">
<use xlink:href="#ao"/>
</g>
</g>
<path d="m478.92 688.23 0.77433-4.9953q0.36764-2.3717-2.004-2.7393l-7.6511-1.186q-2.3717-0.36764-2.7393 2.004l-0.77433 4.9953q-0.36764 2.3717 2.004 2.7393l7.6511 1.186q2.3717 0.36764 2.7393-2.004z" clip-path="url(#a)" fill="#fff" stroke="#fff"/>
<g clip-path="url(#a)">
<g transform="translate(474.9 687.6) rotate(-81.189) scale(.08 -.08)">
<use xlink:href="#ab"/>
</g>
</g>
<path d="m487.73 683.23 0.77433 4.9953q0.36764 2.3717 2.7393 2.004l7.6511-1.186q2.3717-0.36764 2.004-2.7393l-0.77433-4.9953q-0.36764-2.3717-2.7393-2.004l-7.6511 1.186q-2.3717 0.36764-2.004 2.7393z" clip-path="url(#a)" fill="#fff" stroke="#fff"/>
<g clip-path="url(#a)">
<g transform="translate(491.75 682.61) rotate(81.189) scale(.08 -.08)">
<use xlink:href="#ab"/>
</g>
</g>
<path d="m508.66 684.88 2.3555 5.0653q1.012 2.1762 3.1882 1.1642l7.0205-3.2648q2.1762-1.012 1.1642-3.1882l-2.3555-5.0653q-1.012-2.1762-3.1882-1.1642l-7.0205 3.2648q-2.1762 1.012-1.1642 3.1882z" clip-path="url(#a)" fill="#fff" stroke="#fff"/>
<g clip-path="url(#a)">
<g transform="translate(512.34 683.17) rotate(65.06) scale(.08 -.08)">
<use xlink:href="#x"/>
</g>
</g>
<path d="m413.82 803.94v35.285q0 2.4 2.4 2.4h7.7425q2.4 0 2.4-2.4v-35.285q0-2.4-2.4-2.4h-7.7425q-2.4 0-2.4 2.4z" clip-path="url(#a)" fill="#fff" stroke="#fff"/>
<g clip-path="url(#a)">
<g transform="translate(417.88 803.94) rotate(90) scale(.08 -.08)">
<use xlink:href="#k"/>
<use x="60.818359" xlink:href="#c"/>
<use x="122.341797" xlink:href="#h"/>
<use x="163.439453" xlink:href="#l"/>
<use x="260.851562" xlink:href="#e"/>
<use x="288.634766" xlink:href="#f"/>
<use x="352.013672" xlink:href="#j"/>
<use x="413.292969" xlink:href="#i"/>
</g>
</g>
<path d="m456.23 803.94v35.285q0 2.4 2.4 2.4h7.7425q2.4 0 2.4-2.4v-35.285q0-2.4-2.4-2.4h-7.7425q-2.4 0-2.4 2.4z" clip-path="url(#a)" fill="#fff" stroke="#fff"/>
<g clip-path="url(#a)">
<g transform="translate(460.3 803.94) rotate(90) scale(.08 -.08)">
<use xlink:href="#k"/>
<use x="60.818359" xlink:href="#c"/>
<use x="122.341797" xlink:href="#h"/>
<use x="163.439453" xlink:href="#l"/>
<use x="260.851562" xlink:href="#e"/>
<use x="288.634766" xlink:href="#f"/>
<use x="352.013672" xlink:href="#j"/>
<use x="413.292969" xlink:href="#i"/>
</g>
</g>
<path d="m498.65 803.94v35.285q0 2.4 2.4 2.4h7.7425q2.4 0 2.4-2.4v-35.285q0-2.4-2.4-2.4h-7.7425q-2.4 0-2.4 2.4z" clip-path="url(#a)" fill="#fff" stroke="#fff"/>
<g clip-path="url(#a)">
<g transform="translate(502.71 803.94) rotate(90) scale(.08 -.08)">
<use xlink:href="#k"/>
<use x="60.818359" xlink:href="#c"/>
<use x="122.341797" xlink:href="#h"/>
<use x="163.439453" xlink:href="#l"/>
<use x="260.851562" xlink:href="#e"/>
<use x="288.634766" xlink:href="#f"/>
<use x="352.013672" xlink:href="#j"/>
<use x="413.292969" xlink:href="#i"/>
</g>
</g>
<path d="m541.06 803.94v35.285q0 2.4 2.4 2.4h7.7425q2.4 0 2.4-2.4v-35.285q0-2.4-2.4-2.4h-7.7425q-2.4 0-2.4 2.4z" clip-path="url(#a)" fill="#fff" stroke="#fff"/>
<g clip-path="url(#a)">
<g transform="translate(545.13 803.94) rotate(90) scale(.08 -.08)">
<use xlink:href="#k"/>
<use x="60.818359" xlink:href="#c"/>
<use x="122.341797" xlink:href="#h"/>
<use x="163.439453" xlink:href="#l"/>
<use x="260.851562" xlink:href="#e"/>
<use x="288.634766" xlink:href="#f"/>
<use x="352.013672" xlink:href="#j"/>
<use x="413.292969" xlink:href="#i"/>
</g>
</g>
<path d="m201.73 803.94v35.285q0 2.4 2.4 2.4h7.7425q2.4 0 2.4-2.4v-35.285q0-2.4-2.4-2.4h-7.7425q-2.4 0-2.4 2.4z" clip-path="url(#a)" fill="#fff" stroke="#fff"/>
<g clip-path="url(#a)">
<g transform="translate(205.8 803.94) rotate(90) scale(.08 -.08)">
<use xlink:href="#k"/>
<use x="60.818359" xlink:href="#c"/>
<use x="122.341797" xlink:href="#h"/>
<use x="163.439453" xlink:href="#l"/>
<use x="260.851562" xlink:href="#e"/>
<use x="288.634766" xlink:href="#f"/>
<use x="352.013672" xlink:href="#j"/>
<use x="413.292969" xlink:href="#i"/>
</g>
</g>
<path d="m244.15 803.94v35.285q0 2.4 2.4 2.4h7.7425q2.4 0 2.4-2.4v-35.285q0-2.4-2.4-2.4h-7.7425q-2.4 0-2.4 2.4z" clip-path="url(#a)" fill="#fff" stroke="#fff"/>
<g clip-path="url(#a)">
<g transform="translate(248.21 803.94) rotate(90) scale(.08 -.08)">
<use xlink:href="#k"/>
<use x="60.818359" xlink:href="#c"/>
<use x="122.341797" xlink:href="#h"/>
<use x="163.439453" xlink:href="#l"/>
<use x="260.851562" xlink:href="#e"/>
<use x="288.634766" xlink:href="#f"/>
<use x="352.013672" xlink:href="#j"/>
<use x="413.292969" xlink:href="#i"/>
</g>
</g>
<path d="m286.57 803.94v35.285q0 2.4 2.4 2.4h7.7425q2.4 0 2.4-2.4v-35.285q0-2.4-2.4-2.4h-7.7425q-2.4 0-2.4 2.4z" clip-path="url(#a)" fill="#fff" stroke="#fff"/>
<g clip-path="url(#a)">
<g transform="translate(290.63 803.94) rotate(90) scale(.08 -.08)">
<use xlink:href="#k"/>
<use x="60.818359" xlink:href="#c"/>
<use x="122.341797" xlink:href="#h"/>
<use x="163.439453" xlink:href="#l"/>
<use x="260.851562" xlink:href="#e"/>
<use x="288.634766" xlink:href="#f"/>
<use x="352.013672" xlink:href="#j"/>
<use x="413.292969" xlink:href="#i"/>
</g>
</g>
<path d="m116.9 803.94v35.285q0 2.4 2.4 2.4h7.7425q2.4 0 2.4-2.4v-35.285q0-2.4-2.4-2.4h-7.7425q-2.4 0-2.4 2.4z" clip-path="url(#a)" fill="#fff" stroke="#fff"/>
<g clip-path="url(#a)">
<g transform="translate(120.96 803.94) rotate(90) scale(.08 -.08)">
<use xlink:href="#k"/>
<use x="60.818359" xlink:href="#c"/>
<use x="122.341797" xlink:href="#h"/>
<use x="163.439453" xlink:href="#l"/>
<use x="260.851562" xlink:href="#e"/>
<use x="288.634766" xlink:href="#f"/>
<use x="352.013672" xlink:href="#j"/>
<use x="413.292969" xlink:href="#i"/>
</g>
</g>
<path d="m74.484 803.94v35.285q0 2.4 2.4 2.4h7.7425q2.4 0 2.4-2.4v-35.285q0-2.4-2.4-2.4h-7.7425q-2.4 0-2.4 2.4z" clip-path="url(#a)" fill="#fff" stroke="#fff"/>
<g clip-path="url(#a)">
<g transform="translate(78.548 803.94) rotate(90) scale(.08 -.08)">
<use xlink:href="#k"/>
<use x="60.818359" xlink:href="#c"/>
<use x="122.341797" xlink:href="#h"/>
<use x="163.439453" xlink:href="#l"/>
<use x="260.851562" xlink:href="#e"/>
<use x="288.634766" xlink:href="#f"/>
<use x="352.013672" xlink:href="#j"/>
<use x="413.292969" xlink:href="#i"/>
</g>
</g>
<path d="m159.32 803.94v35.285q0 2.4 2.4 2.4h7.7425q2.4 0 2.4-2.4v-35.285q0-2.4-2.4-2.4h-7.7425q-2.4 0-2.4 2.4z" clip-path="url(#a)" fill="#fff" stroke="#fff"/>
<g clip-path="url(#a)">
<g transform="translate(163.38 803.94) rotate(90) scale(.08 -.08)">
<use xlink:href="#k"/>
<use x="60.818359" xlink:href="#c"/>
<use x="122.341797" xlink:href="#h"/>
<use x="163.439453" xlink:href="#l"/>
<use x="260.851562" xlink:href="#e"/>
<use x="288.634766" xlink:href="#f"/>
<use x="352.013672" xlink:href="#j"/>
<use x="413.292969" xlink:href="#i"/>
</g>
</g>
<path d="m583.48 803.94v35.285q0 2.4 2.4 2.4h7.7425q2.4 0 2.4-2.4v-35.285q0-2.4-2.4-2.4h-7.7425q-2.4 0-2.4 2.4z" clip-path="url(#a)" fill="#fff" stroke="#fff"/>
<g clip-path="url(#a)">
<g transform="translate(587.54 803.94) rotate(90) scale(.08 -.08)">
<use xlink:href="#k"/>
<use x="60.818359" xlink:href="#c"/>
<use x="122.341797" xlink:href="#h"/>
<use x="163.439453" xlink:href="#l"/>
<use x="260.851562" xlink:href="#e"/>
<use x="288.634766" xlink:href="#f"/>
<use x="352.013672" xlink:href="#j"/>
<use x="413.292969" xlink:href="#i"/>
</g>
</g>
<path d="m880.4 803.94v35.285q0 2.4 2.4 2.4h7.7425q2.4 0 2.4-2.4v-35.285q0-2.4-2.4-2.4h-7.7425q-2.4 0-2.4 2.4z" clip-path="url(#a)" fill="#fff" stroke="#fff"/>
<g clip-path="url(#a)">
<g transform="translate(884.46 803.94) rotate(90) scale(.08 -.08)">
<use xlink:href="#k"/>
<use x="60.818359" xlink:href="#c"/>
<use x="122.341797" xlink:href="#h"/>
<use x="163.439453" xlink:href="#l"/>
<use x="260.851562" xlink:href="#e"/>
<use x="288.634766" xlink:href="#f"/>
<use x="352.013672" xlink:href="#j"/>
<use x="413.292969" xlink:href="#i"/>
</g>
</g>
<path d="m1050.1 803.94v35.285q0 2.4 2.4 2.4h7.7425q2.4 0 2.4-2.4v-35.285q0-2.4-2.4-2.4h-7.7425q-2.4 0-2.4 2.4z" clip-path="url(#a)" fill="#fff" stroke="#fff"/>
<g clip-path="url(#a)">
<g transform="translate(1054.1 803.94) rotate(90) scale(.08 -.08)">
<use xlink:href="#k"/>
<use x="60.818359" xlink:href="#c"/>
<use x="122.341797" xlink:href="#h"/>
<use x="163.439453" xlink:href="#l"/>
<use x="260.851562" xlink:href="#e"/>
<use x="288.634766" xlink:href="#f"/>
<use x="352.013672" xlink:href="#j"/>
<use x="413.292969" xlink:href="#i"/>
</g>
</g>
<path d="m1431.8 803.94v35.285q0 2.4 2.4 2.4h7.7425q2.4 0 2.4-2.4v-35.285q0-2.4-2.4-2.4h-7.7425q-2.4 0-2.4 2.4z" clip-path="url(#a)" fill="#fff" stroke="#fff"/>
<g clip-path="url(#a)">
<g transform="translate(1435.9 803.94) rotate(90) scale(.08 -.08)">
<use xlink:href="#k"/>
<use x="60.818359" xlink:href="#c"/>
<use x="122.341797" xlink:href="#h"/>
<use x="163.439453" xlink:href="#l"/>
<use x="260.851562" xlink:href="#e"/>
<use x="288.634766" xlink:href="#f"/>
<use x="352.013672" xlink:href="#j"/>
<use x="413.292969" xlink:href="#i"/>
</g>
</g>
<path d="m1474.2 803.94v35.285q0 2.4 2.4 2.4h7.7425q2.4 0 2.4-2.4v-35.285q0-2.4-2.4-2.4h-7.7425q-2.4 0-2.4 2.4z" clip-path="url(#a)" fill="#fff" stroke="#fff"/>
<g clip-path="url(#a)">
<g transform="translate(1478.3 803.94) rotate(90) scale(.08 -.08)">
<use xlink:href="#k"/>
<use x="60.818359" xlink:href="#c"/>
<use x="122.341797" xlink:href="#h"/>
<use x="163.439453" xlink:href="#l"/>
<use x="260.851562" xlink:href="#e"/>
<use x="288.634766" xlink:href="#f"/>
<use x="352.013672" xlink:href="#j"/>
<use x="413.292969" xlink:href="#i"/>
</g>
</g>
<path d="m1516.6 803.94v35.285q0 2.4 2.4 2.4h7.7425q2.4 0 2.4-2.4v-35.285q0-2.4-2.4-2.4h-7.7425q-2.4 0-2.4 2.4z" clip-path="url(#a)" fill="#fff" stroke="#fff"/>
<g clip-path="url(#a)">
<g transform="translate(1520.7 803.94) rotate(90) scale(.08 -.08)">
<use xlink:href="#k"/>
<use x="60.818359" xlink:href="#c"/>
<use x="122.341797" xlink:href="#h"/>
<use x="163.439453" xlink:href="#l"/>
<use x="260.851562" xlink:href="#e"/>
<use x="288.634766" xlink:href="#f"/>
<use x="352.013672" xlink:href="#j"/>
<use x="413.292969" xlink:href="#i"/>
</g>
</g>
<defs>
<path id="b" d="m0 8.6603c2.2967 0 4.4997-0.9125 6.1237-2.5365 1.624-1.624 2.5365-3.827 2.5365-6.1237s-0.9125-4.4997-2.5365-6.1237c-1.624-1.624-3.827-2.5365-6.1237-2.5365s-4.4997 0.9125-6.1237 2.5365c-1.624 1.624-2.5365 3.827-2.5365 6.1237s0.9125 4.4997 2.5365 6.1237c1.624 1.624 3.827 2.5365 6.1237 2.5365z"/>
</defs>
<g clip-path="url(#a)">
<use x="80.755205" y="889.995044" fill="#ffffff" stroke="#ffffff" xlink:href="#b"/>
</g>
<g clip-path="url(#a)">
<use x="123.171598" y="889.995044" fill="#ffffff" stroke="#ffffff" xlink:href="#b"/>
</g>
<g clip-path="url(#a)">
<use x="165.58799" y="889.995044" fill="#ffffff" stroke="#ffffff" xlink:href="#b"/>
</g>
<g clip-path="url(#a)">
<use x="208.004383" y="889.995044" fill="#ffffff" stroke="#ffffff" xlink:href="#b"/>
</g>
<g clip-path="url(#a)">
<use x="250.420776" y="889.995044" fill="#ffffff" stroke="#ffffff" xlink:href="#b"/>
</g>
<g clip-path="url(#a)">
<use x="292.837168" y="889.995044" fill="#ffffff" stroke="#ffffff" xlink:href="#b"/>
</g>
<g clip-path="url(#a)">
<use x="335.253561" y="889.995044" fill="#ffffff" stroke="#ffffff" xlink:href="#b"/>
</g>
<g clip-path="url(#a)">
<use x="377.669954" y="889.995044" fill="#ffffff" stroke="#ffffff" xlink:href="#b"/>
</g>
<g clip-path="url(#a)">
<use x="420.086347" y="889.995044" fill="#ffffff" stroke="#ffffff" xlink:href="#b"/>
</g>
<g clip-path="url(#a)">
<use x="462.502739" y="889.995044" fill="#ffffff" stroke="#ffffff" xlink:href="#b"/>
</g>
<g clip-path="url(#a)">
<use x="504.919132" y="889.995044" fill="#ffffff" stroke="#ffffff" xlink:href="#b"/>
</g>
<g clip-path="url(#a)">
<use x="547.335525" y="889.995044" fill="#ffffff" stroke="#ffffff" xlink:href="#b"/>
</g>
<g clip-path="url(#a)">
<use x="589.751918" y="889.995044" fill="#ffffff" stroke="#ffffff" xlink:href="#b"/>
</g>
<g clip-path="url(#a)">
<use x="632.16831" y="889.995044" fill="#ffffff" stroke="#ffffff" xlink:href="#b"/>
</g>
<g clip-path="url(#a)">
<use x="674.584703" y="889.995044" fill="#ffffff" stroke="#ffffff" xlink:href="#b"/>
</g>
<g clip-path="url(#a)">
<use x="717.001096" y="889.995044" fill="#ffffff" stroke="#ffffff" xlink:href="#b"/>
</g>
<g clip-path="url(#a)">
<use x="759.417488" y="889.995044" fill="#ffffff" stroke="#ffffff" xlink:href="#b"/>
</g>
<g clip-path="url(#a)">
<use x="801.833881" y="889.995044" fill="#ffffff" stroke="#ffffff" xlink:href="#b"/>
</g>
<g clip-path="url(#a)">
<use x="844.250274" y="889.995044" fill="#ffffff" stroke="#ffffff" xlink:href="#b"/>
</g>
<g clip-path="url(#a)">
<use x="886.666667" y="889.995044" fill="#ffffff" stroke="#ffffff" xlink:href="#b"/>
</g>
<g clip-path="url(#a)">
<use x="929.083059" y="889.995044" fill="#ffffff" stroke="#ffffff" xlink:href="#b"/>
</g>
<g clip-path="url(#a)">
<use x="971.499452" y="889.995044" fill="#ffffff" stroke="#ffffff" xlink:href="#b"/>
</g>
<g clip-path="url(#a)">
<use x="1013.915845" y="889.995044" fill="#ffffff" stroke="#ffffff" xlink:href="#b"/>
</g>
<g clip-path="url(#a)">
<use x="1056.332238" y="889.995044" fill="#ffffff" stroke="#ffffff" xlink:href="#b"/>
</g>
<g clip-path="url(#a)">
<use x="1098.74863" y="889.995044" fill="#ffffff" stroke="#ffffff" xlink:href="#b"/>
</g>
<g clip-path="url(#a)">
<use x="1141.165023" y="889.995044" fill="#ffffff" stroke="#ffffff" xlink:href="#b"/>
</g>
<g clip-path="url(#a)">
<use x="1183.581416" y="889.995044" fill="#ffffff" stroke="#ffffff" xlink:href="#b"/>
</g>
<g clip-path="url(#a)">
<use x="1225.997808" y="889.995044" fill="#ffffff" stroke="#ffffff" xlink:href="#b"/>
</g>
<g clip-path="url(#a)">
<use x="1268.414201" y="889.995044" fill="#ffffff" stroke="#ffffff" xlink:href="#b"/>
</g>
<g clip-path="url(#a)">
<use x="1310.830594" y="889.995044" fill="#ffffff" stroke="#ffffff" xlink:href="#b"/>
</g>
<g clip-path="url(#a)">
<use x="1353.246987" y="889.995044" fill="#ffffff" stroke="#ffffff" xlink:href="#b"/>
</g>
<g clip-path="url(#a)">
<use x="1395.663379" y="889.995044" fill="#ffffff" stroke="#ffffff" xlink:href="#b"/>
</g>
<g clip-path="url(#a)">
<use x="1438.079772" y="889.995044" fill="#ffffff" stroke="#ffffff" xlink:href="#b"/>
</g>
<g clip-path="url(#a)">
<use x="1480.496165" y="889.995044" fill="#ffffff" stroke="#ffffff" xlink:href="#b"/>
</g>
<g clip-path="url(#a)">
<use x="1522.912558" y="889.995044" fill="#ffffff" stroke="#ffffff" xlink:href="#b"/>
</g>
<g clip-path="url(#a)">
<use x="1367.832477" y="43.338289" fill="#ffffff" stroke="#ffffff" xlink:href="#b"/>
</g>
<g clip-path="url(#a)">
<use x="1367.832477" y="191.633114" fill="#ffffff" stroke="#ffffff" xlink:href="#b"/>
</g>
<g clip-path="url(#a)">
<use x="1692.578128" y="889.995044" fill="#ffffff" stroke="#ffffff" xlink:href="#b"/>
</g>
<g clip-path="url(#a)">
<use x="1650.161736" y="889.995044" fill="#ffffff" stroke="#ffffff" xlink:href="#b"/>
</g>
<g clip-path="url(#a)">
<use x="760.757567" y="336.246839" fill="#ffffff" stroke="#ffffff" xlink:href="#b"/>
</g>
<g clip-path="url(#a)">
<use x="1098.74863" y="616.359813" fill="#ffffff" stroke="#ffffff" xlink:href="#b"/>
</g>
<g clip-path="url(#a)">
<use x="361.763807" y="477.638914" fill="#ffffff" stroke="#ffffff" xlink:href="#b"/>
</g>
<g clip-path="url(#a)">
<use x="632.16831" y="753.177429" fill="#ffffff" stroke="#ffffff" xlink:href="#b"/>
</g>
<g clip-path="url(#a)">
<use x="759.417488" y="616.359813" fill="#ffffff" stroke="#ffffff" xlink:href="#b"/>
</g>
<g clip-path="url(#a)">
<use x="929.083059" y="753.177429" fill="#ffffff" stroke="#ffffff" xlink:href="#b"/>
</g>
<g clip-path="url(#a)">
<use x="886.666667" y="616.359813" fill="#ffffff" stroke="#ffffff" xlink:href="#b"/>
</g>
<g clip-path="url(#a)">
<use x="1098.74863" y="753.177429" fill="#ffffff" stroke="#ffffff" xlink:href="#b"/>
</g>
<g clip-path="url(#a)">
<use x="1344.15776" y="477.638914" fill="#ffffff" stroke="#ffffff" xlink:href="#b"/>
</g>
<g clip-path="url(#a)">
<use x="1141.165023" y="753.177429" fill="#ffffff" stroke="#ffffff" xlink:href="#b"/>
</g>
<g clip-path="url(#a)">
<use x="1289.622398" y="753.177429" fill="#ffffff" stroke="#ffffff" xlink:href="#b"/>
</g>
<g clip-path="url(#a)">
<use x="1225.997808" y="753.177429" fill="#ffffff" stroke="#ffffff" xlink:href="#b"/>
</g>
<g clip-path="url(#a)">
<use x="1310.830594" y="616.359813" fill="#ffffff" stroke="#ffffff" xlink:href="#b"/>
</g>
<g clip-path="url(#a)">
<use x="1268.414201" y="753.177429" fill="#ffffff" stroke="#ffffff" xlink:href="#b"/>
</g>
<g clip-path="url(#a)">
<use x="1310.830594" y="753.177429" fill="#ffffff" stroke="#ffffff" xlink:href="#b"/>
</g>
<g clip-path="url(#a)">
<use x="1353.246987" y="753.177429" fill="#ffffff" stroke="#ffffff" xlink:href="#b"/>
</g>
<g clip-path="url(#a)">
<use x="971.499452" y="753.177429" fill="#ffffff" stroke="#ffffff" xlink:href="#b"/>
</g>
<g clip-path="url(#a)">
<use x="1013.915845" y="753.177429" fill="#ffffff" stroke="#ffffff" xlink:href="#b"/>
</g>
<g clip-path="url(#a)">
<use x="674.584703" y="753.177429" fill="#ffffff" stroke="#ffffff" xlink:href="#b"/>
</g>
<g clip-path="url(#a)">
<use x="717.001096" y="753.177429" fill="#ffffff" stroke="#ffffff" xlink:href="#b"/>
</g>
<g clip-path="url(#a)">
<use x="759.417488" y="753.177429" fill="#ffffff" stroke="#ffffff" xlink:href="#b"/>
</g>
<g clip-path="url(#a)">
<use x="801.833881" y="753.177429" fill="#ffffff" stroke="#ffffff" xlink:href="#b"/>
</g>
<g clip-path="url(#a)">
<use x="844.250274" y="753.177429" fill="#ffffff" stroke="#ffffff" xlink:href="#b"/>
</g>
<g clip-path="url(#a)">
<use x="250.420776" y="616.359813" fill="#ffffff" stroke="#ffffff" xlink:href="#b"/>
</g>
<g clip-path="url(#a)">
<use x="335.253561" y="753.177429" fill="#ffffff" stroke="#ffffff" xlink:href="#b"/>
</g>
<g clip-path="url(#a)">
<use x="377.669954" y="753.177429" fill="#ffffff" stroke="#ffffff" xlink:href="#b"/>
</g>
<g clip-path="url(#a)">
<use x="483.710936" y="616.359813" fill="#ffffff" stroke="#ffffff" xlink:href="#b"/>
</g>
<g clip-path="url(#a)">
<use x="420.086347" y="753.177429" fill="#ffffff" stroke="#ffffff" xlink:href="#b"/>
</g>
<g clip-path="url(#a)">
<use x="462.502739" y="753.177429" fill="#ffffff" stroke="#ffffff" xlink:href="#b"/>
</g>
<g clip-path="url(#a)">
<use x="504.919132" y="753.177429" fill="#ffffff" stroke="#ffffff" xlink:href="#b"/>
</g>
<g clip-path="url(#a)">
<use x="547.335525" y="753.177429" fill="#ffffff" stroke="#ffffff" xlink:href="#b"/>
</g>
<g clip-path="url(#a)">
<use x="208.004383" y="753.177429" fill="#ffffff" stroke="#ffffff" xlink:href="#b"/>
</g>
<g clip-path="url(#a)">
<use x="250.420776" y="753.177429" fill="#ffffff" stroke="#ffffff" xlink:href="#b"/>
</g>
<g clip-path="url(#a)">
<use x="292.837168" y="753.177429" fill="#ffffff" stroke="#ffffff" xlink:href="#b"/>
</g>
<g clip-path="url(#a)">
<use x="1607.745343" y="889.995044" fill="#ffffff" stroke="#ffffff" xlink:href="#b"/>
</g>
<g clip-path="url(#a)">
<use x="1565.32895" y="889.995044" fill="#ffffff" stroke="#ffffff" xlink:href="#b"/>
</g>
<g clip-path="url(#a)">
<use x="123.171598" y="753.177429" fill="#ffffff" stroke="#ffffff" xlink:href="#b"/>
</g>
<g clip-path="url(#a)">
<use x="80.755205" y="753.177429" fill="#ffffff" stroke="#ffffff" xlink:href="#b"/>
</g>
<g clip-path="url(#a)">
<use x="165.58799" y="753.177429" fill="#ffffff" stroke="#ffffff" xlink:href="#b"/>
</g>
<g clip-path="url(#a)">
<use x="589.751918" y="753.177429" fill="#ffffff" stroke="#ffffff" xlink:href="#b"/>
</g>
<g clip-path="url(#a)">
<use x="886.666667" y="753.177429" fill="#ffffff" stroke="#ffffff" xlink:href="#b"/>
</g>
<g clip-path="url(#a)">
<use x="1056.332238" y="753.177429" fill="#ffffff" stroke="#ffffff" xlink:href="#b"/>
</g>
<g clip-path="url(#a)">
<use x="1438.079772" y="753.177429" fill="#ffffff" stroke="#ffffff" xlink:href="#b"/>
</g>
<g clip-path="url(#a)">
<use x="1480.496165" y="753.177429" fill="#ffffff" stroke="#ffffff" xlink:href="#b"/>
</g>
<g clip-path="url(#a)">
<use x="1522.912558" y="753.177429" fill="#ffffff" stroke="#ffffff" xlink:href="#b"/>
</g>
<g clip-path="url(#a)">
<defs>
<path id="ar" d="m9.4219 51.703 22.906-20.406v-4l-22.906-20.406v9.3281l14.703 13.078-14.703 13.094zm21.188 0 22.906-20.406v-4l-22.906-20.406v9.3281l14.703 13.078-14.703 13.094z"/>
</defs>
<g transform="translate(77.696 892.75) scale(.1 -.1)">
<use xlink:href="#ar"/>
</g>
</g>
<g clip-path="url(#a)">
<defs>
<path id="v" d="m45.406 46.391v29.594h8.9844v-75.984h-8.9844v8.2031q-2.8281-4.875-7.1562-7.25-4.3125-2.375-10.375-2.375-9.9062 0-16.141 7.9062-6.2188 7.9219-6.2188 20.812t6.2188 20.797q6.2344 7.9062 16.141 7.9062 6.0625 0 10.375-2.375 4.3281-2.3594 7.1562-7.2344zm-30.609-19.094q0-9.9062 4.0781-15.547t11.203-5.6406 11.219 5.6406q4.1094 5.6406 4.1094 15.547t-4.1094 15.547q-4.0938 5.6406-11.219 5.6406t-11.203-5.6406-4.0781-15.547z"/>
<path id="y" d="m45.406 27.984q0 9.7656-4.0312 15.125-4.0156 5.375-11.297 5.375-7.2188 0-11.25-5.375-4.0312-5.3594-4.0312-15.125 0-9.7188 4.0312-15.094t11.25-5.375q7.2812 0 11.297 5.375 4.0312 5.375 4.0312 15.094zm8.9844-21.203q0-13.953-6.2031-20.766-6.1875-6.8125-18.984-6.8125-4.7344 0-8.9375 0.70312t-8.1562 2.1719v8.7344q3.9531-2.1406 7.8125-3.1562 3.8594-1.0312 7.8594-1.0312 8.8438 0 13.234 4.6094t4.3906 13.938v4.4531q-2.7812-4.8438-7.125-7.2344t-10.406-2.3906q-10.047 0-16.203 7.6562-6.1562 7.6719-6.1562 20.328 0 12.688 6.1562 20.344 6.1562 7.6719 16.203 7.6719 6.0625 0 10.406-2.3906t7.125-7.2188v8.2969h8.9844z"/>
<path id="s" d="m44.281 53.078v-8.5q-3.7969 1.9531-7.9062 2.9219-4.0938 0.98438-8.5 0.98438-6.6875 0-10.031-2.0469t-3.3438-6.1562q0-3.125 2.3906-4.9062t9.625-3.3906l3.0781-0.6875q9.5625-2.0469 13.594-5.7812t4.0312-10.422q0-7.625-6.0312-12.078-6.0312-4.4375-16.578-4.4375-4.3906 0-9.1562 0.85938t-10.031 2.5625v9.2812q4.9844-2.5938 9.8125-3.8906 4.8281-1.2812 9.5781-1.2812 6.3438 0 9.75 2.1719 3.4219 2.1719 3.4219 6.125 0 3.6562-2.4688 5.6094-2.4531 1.9531-10.812 3.7656l-3.125 0.73438q-8.3438 1.75-12.062 5.3906-3.7031 3.6406-3.7031 9.9844 0 7.7188 5.4688 11.906 5.4688 4.2031 15.531 4.2031 4.9688 0 9.3594-0.73438 4.4062-0.71875 8.1094-2.1875z"/>
</defs>
<g transform="translate(98.331 892.75) scale(.1 -.1)">
<use xlink:href="#o"/>
<use x="68.408203" xlink:href="#i"/>
<use x="96.191406" xlink:href="#i"/>
<use x="123.974609" xlink:href="#c"/>
<use x="185.498047" xlink:href="#h"/>
<use x="226.595703" xlink:href="#v"/>
<use x="290.072266" xlink:href="#e"/>
<use x="317.855469" xlink:href="#f"/>
<use x="381.234375" xlink:href="#y"/>
<use x="444.710938" xlink:href="#s"/>
</g>
</g>
<g clip-path="url(#a)">
<defs>
<path id="g" d="m10.688 12.406h10.312v-12.406h-10.312z"/>
</defs>
<g transform="translate(164 892.75) scale(.1 -.1)">
<use xlink:href="#g"/>
</g>
</g>
<g clip-path="url(#a)">
<g transform="translate(199.69 892.75) scale(.1 -.1)">
<use xlink:href="#af"/>
<use x="77.001953" xlink:href="#e"/>
<use x="104.785156" xlink:href="#c"/>
</g>
</g>
<g clip-path="url(#a)">
<defs>
<path id="at" d="m9.0781 75.984h9.0312v-44.875l26.812 23.578h11.469l-29-25.578 30.234-29.109h-11.719l-27.797 26.703v-26.703h-9.0312z"/>
<path id="ac" d="m18.312 70.219v-15.531h18.5v-6.9844h-18.5v-29.688q0-6.6875 1.8281-8.5938t7.4531-1.9062h9.2188v-7.5156h-9.2188q-10.406 0-14.359 3.875-3.9531 3.8906-3.9531 14.141v29.688h-6.5938v6.9844h6.5938v15.531z"/>
<path id="ad" d="m48.781 52.594v-8.4062q-3.8125 2.1094-7.6406 3.1562t-7.7344 1.0469q-8.75 0-13.594-5.5469-4.8281-5.5312-4.8281-15.547t4.8281-15.562q4.8438-5.5312 13.594-5.5312 3.9062 0 7.7344 1.0469t7.6406 3.1562v-8.3125q-3.7656-1.75-7.7969-2.625-4.0156-0.89062-8.5625-0.89062-12.359 0-19.641 7.7656-7.2656 7.7656-7.2656 20.953 0 13.375 7.3438 21.031 7.3594 7.6719 20.156 7.6719 4.1406 0 8.0938-0.85938 3.9531-0.84375 7.6719-2.5469z"/>
<path id="ak" d="m54.891 33.016v-33.016h-8.9844v32.719q0 7.7656-3.0312 11.609-3.0312 3.8594-9.0781 3.8594-7.2812 0-11.484-4.6406-4.2031-4.625-4.2031-12.641v-30.906h-9.0312v75.984h9.0312v-29.797q3.2344 4.9375 7.5938 7.375 4.375 2.4375 10.094 2.4375 9.4219 0 14.25-5.8281 4.8438-5.8281 4.8438-17.156z"/>
</defs>
<g transform="translate(219.81 892.75) scale(.1 -.1)">
<use xlink:href="#c"/>
<use x="61.523438" xlink:href="#i"/>
<use x="89.306641" xlink:href="#c"/>
<use x="150.830078" xlink:href="#at"/>
<use x="208.740234" xlink:href="#ac"/>
<use x="247.949219" xlink:href="#h"/>
<use x="289.0625" xlink:href="#e"/>
<use x="316.845703" xlink:href="#s"/>
<use x="368.945312" xlink:href="#ad"/>
<use x="423.925781" xlink:href="#ak"/>
<use x="487.304688" xlink:href="#c"/>
<use x="548.828125" xlink:href="#f"/>
</g>
</g>
<g clip-path="url(#a)">
<defs>
<path id="ax" d="m9.8125 72.906h9.8594v-30.812l32.719 30.812h12.703l-36.188-33.984 38.766-38.922h-12.984l-35.016 35.109v-35.109h-9.8594z"/>
<path id="aa" d="m8.5 21.578v33.109h8.9844v-32.766q0-7.7656 3.0156-11.656 3.0312-3.875 9.0938-3.875 7.2656 0 11.484 4.6406 4.2344 4.6406 4.2344 12.656v31h8.9844v-54.688h-8.9844v8.4062q-3.2656-4.9844-7.5938-7.4062-4.3125-2.4219-10.031-2.4219-9.4219 0-14.312 5.8594-4.875 5.8594-4.875 17.141z"/>
</defs>
<g transform="translate(275.58 892.75) scale(.1 -.1)">
<use xlink:href="#ax"/>
<use x="65.498047" xlink:href="#aa"/>
<use x="128.876953" xlink:href="#y"/>
<use x="192.353516" xlink:href="#c"/>
<use x="253.876953" xlink:href="#i"/>
<use x="281.660156" xlink:href="#f"/>
</g>
</g>
<g clip-path="url(#a)">
<g transform="translate(324.92 892.75) scale(.1 -.1)">
<use xlink:href="#s"/>
<use x="52.099609" xlink:href="#e"/>
<use x="79.882812" xlink:href="#f"/>
<use x="143.261719" xlink:href="#v"/>
</g>
</g>
<g clip-path="url(#a)">
<defs>
<path id="am" d="m4.2031 54.688h8.9844l11.234-42.672 11.172 42.672h10.594l11.234-42.672 11.188 42.672h8.9844l-14.312-54.688h-10.594l-11.766 44.828-11.812-44.828h-10.609z"/>
</defs>
<g transform="translate(350.36 892.75) scale(.1 -.1)">
<use xlink:href="#aa"/>
<use x="63.378906" xlink:href="#f"/>
<use x="126.757812" xlink:href="#am"/>
<use x="208.544922" xlink:href="#e"/>
<use x="236.328125" xlink:href="#h"/>
<use x="277.441406" xlink:href="#at"/>
<use x="335.351562" xlink:href="#s"/>
<use x="387.451172" xlink:href="#j"/>
<use x="448.730469" xlink:href="#l"/>
</g>
</g>
<g clip-path="url(#a)">
<g transform="translate(404.42 892.75) scale(.1 -.1)">
<use xlink:href="#y"/>
<use x="63.476562" xlink:href="#c"/>
<use x="125" xlink:href="#y"/>
<use x="188.476562" xlink:href="#c"/>
<use x="250" xlink:href="#f"/>
</g>
</g>
<g clip-path="url(#a)">
<g transform="translate(446.58 892.75) scale(.1 -.1)">
<use xlink:href="#v"/>
<use x="63.476562" xlink:href="#e"/>
<use x="91.259766" xlink:href="#c"/>
<use x="152.783203" xlink:href="#s"/>
<use x="204.882812" xlink:href="#c"/>
<use x="266.40625" xlink:href="#s"/>
</g>
</g>
<g clip-path="url(#a)">
<g transform="translate(487.37 892.75) scale(.1 -.1)">
<use xlink:href="#am"/>
<use x="81.787109" xlink:href="#c"/>
<use x="143.310547" xlink:href="#e"/>
<use x="171.09375" xlink:href="#ad"/>
<use x="226.074219" xlink:href="#ak"/>
<use x="289.453125" xlink:href="#c"/>
</g>
</g>
<g clip-path="url(#a)">
<g transform="translate(530.08 892.75) scale(.1 -.1)">
<use xlink:href="#al"/>
<use x="57.519531" xlink:href="#i"/>
<use x="85.302734" xlink:href="#c"/>
<use x="146.826172" xlink:href="#e"/>
<use x="174.609375" xlink:href="#s"/>
<use x="226.708984" xlink:href="#ad"/>
<use x="281.689453" xlink:href="#ak"/>
</g>
</g>
<g clip-path="url(#a)">
<defs>
<path id="aq" d="m11.719 12.406h10.297v-8.4062l-8-15.625h-6.2969l4 15.625z"/>
</defs>
<g transform="translate(588.16 892.75) scale(.1 -.1)">
<use xlink:href="#aq"/>
</g>
</g>
<g clip-path="url(#a)">
<g transform="translate(622.66 892.75) scale(.1 -.1)">
<use xlink:href="#aa"/>
<use x="63.378906" xlink:href="#f"/>
<use x="126.757812" xlink:href="#v"/>
</g>
</g>
<g clip-path="url(#a)">
<g transform="translate(667.51 892.75) scale(.1 -.1)">
<use xlink:href="#s"/>
<use x="52.099609" xlink:href="#e"/>
<use x="79.882812" xlink:href="#c"/>
</g>
</g>
<g clip-path="url(#a)">
<defs>
<path id="au" d="m37.109 75.984v-7.4844h-8.5938q-4.8281 0-6.7188-1.9531-1.875-1.9531-1.875-7.0312v-4.8281h14.797v-6.9844h-14.797v-47.703h-9.0312v47.703h-8.5938v6.9844h8.5938v3.8125q0 9.125 4.25 13.297 4.25 4.1875 13.469 4.1875z"/>
</defs>
<g transform="translate(701.26 892.75) scale(.1 -.1)">
<use xlink:href="#au"/>
<use x="35.205078" xlink:href="#e"/>
<use x="62.988281" xlink:href="#f"/>
<use x="126.367188" xlink:href="#v"/>
<use x="189.84375" xlink:href="#c"/>
<use x="251.367188" xlink:href="#f"/>
</g>
</g>
<g clip-path="url(#a)">
<g transform="translate(746.98 892.75) scale(.1 -.1)">
<use xlink:href="#f"/>
<use x="63.378906" xlink:href="#e"/>
<use x="91.162109" xlink:href="#ad"/>
<use x="146.142578" xlink:href="#ak"/>
<use x="209.521484" xlink:href="#ac"/>
</g>
</g>
<g clip-path="url(#a)">
<defs>
<path id="aw" d="m3.3281 72.906h9.9531l15.328-61.625 15.281 61.625h11.094l15.328-61.625 15.281 61.625h10.016l-18.312-72.906h-12.406l-15.375 63.281-15.531-63.281h-12.406z"/>
</defs>
<g transform="translate(773.22 892.75) scale(.1 -.1)">
<use xlink:href="#aw"/>
<use x="98.845703" xlink:href="#e"/>
<use x="126.628906" xlink:href="#v"/>
<use x="190.105469" xlink:href="#c"/>
<use x="251.628906" xlink:href="#h"/>
<use x="292.742188" xlink:href="#s"/>
<use x="344.841797" xlink:href="#ac"/>
<use x="384.050781" xlink:href="#j"/>
<use x="445.330078" xlink:href="#f"/>
<use x="508.708984" xlink:href="#v"/>
</g>
</g>
<g clip-path="url(#a)">
<g transform="translate(828.49 892.75) scale(.1 -.1)">
<use xlink:href="#y"/>
<use x="63.476562" xlink:href="#c"/>
<use x="125" xlink:href="#f"/>
<use x="188.378906" xlink:href="#aa"/>
<use x="251.757812" xlink:href="#y"/>
</g>
</g>
<g clip-path="url(#a)">
<g transform="translate(885.08 892.75) scale(.1 -.1)">
<use xlink:href="#aq"/>
</g>
</g>
<g clip-path="url(#a)">
<g transform="translate(921.04 892.75) scale(.1 -.1)">
<use xlink:href="#aa"/>
<use x="63.378906" xlink:href="#l"/>
</g>
</g>
<g clip-path="url(#a)">
<defs>
<path id="as" d="m5.5156 54.688h42.672v-8.2031l-33.781-39.312h33.781v-7.1719h-43.891v8.2031l33.797 39.312h-32.578z"/>
</defs>
<g transform="translate(965.71 892.75) scale(.1 -.1)">
<use xlink:href="#as"/>
<use x="52.490234" xlink:href="#aa"/>
</g>
</g>
<g clip-path="url(#a)">
<defs>
<path id="ba" d="m18.109 8.2031v-29h-9.0312v75.484h9.0312v-8.2969q2.8438 4.875 7.1562 7.2344 4.3281 2.375 10.328 2.375 9.9688 0 16.188-7.9062 6.2344-7.9062 6.2344-20.797t-6.2344-20.812q-6.2188-7.9062-16.188-7.9062-6 0-10.328 2.375-4.3125 2.375-7.1562 7.25zm30.578 19.094q0 9.9062-4.0781 15.547t-11.203 5.6406q-7.1406 0-11.219-5.6406t-4.0781-15.547 4.0781-15.547 11.219-5.6406q7.125 0 11.203 5.6406t4.0781 15.547z"/>
</defs>
<g transform="translate(995.46 892.75) scale(.1 -.1)">
<use xlink:href="#ba"/>
<use x="63.476562" xlink:href="#i"/>
<use x="91.259766" xlink:href="#j"/>
<use x="152.539062" xlink:href="#ac"/>
<use x="191.748047" xlink:href="#as"/>
<use x="244.238281" xlink:href="#c"/>
<use x="305.761719" xlink:href="#f"/>
</g>
</g>
<g clip-path="url(#a)">
<g transform="translate(1054.7 892.75) scale(.1 -.1)">
<use xlink:href="#g"/>
</g>
</g>
<g clip-path="url(#a)">
<defs>
<path id="av" d="m48.688 27.297q0 9.9062-4.0781 15.547t-11.203 5.6406q-7.1406 0-11.219-5.6406t-4.0781-15.547 4.0781-15.547 11.219-5.6406q7.125 0 11.203 5.6406t4.0781 15.547zm-30.578 19.094q2.8438 4.875 7.1562 7.2344 4.3281 2.375 10.328 2.375 9.9688 0 16.188-7.9062 6.2344-7.9062 6.2344-20.797t-6.2344-20.812q-6.2188-7.9062-16.188-7.9062-6 0-10.328 2.375-4.3125 2.375-7.1562 7.25v-8.2031h-9.0312v75.984h9.0312z"/>
</defs>
<g transform="translate(1087 892.75) scale(.1 -.1)">
<use xlink:href="#o"/>
<use x="68.408203" xlink:href="#av"/>
<use x="131.884766" xlink:href="#c"/>
<use x="193.408203" xlink:href="#h"/>
</g>
</g>
<g clip-path="url(#a)">
<g transform="translate(1133.6 892.75) scale(.1 -.1)">
<use xlink:href="#am"/>
<use x="81.787109" xlink:href="#e"/>
<use x="109.570312" xlink:href="#h"/>
</g>
</g>
<g clip-path="url(#a)">
<g transform="translate(1165.9 892.75) scale(.1 -.1)">
<use xlink:href="#y"/>
<use x="63.476562" xlink:href="#h"/>
<use x="104.558594" xlink:href="#c"/>
<use x="166.082031" xlink:href="#e"/>
<use x="193.865234" xlink:href="#au"/>
<use x="229.070312" xlink:href="#c"/>
<use x="290.59375" xlink:href="#f"/>
</g>
</g>
<g clip-path="url(#a)">
<g transform="translate(1218.9 892.75) scale(.1 -.1)">
<use xlink:href="#s"/>
<use x="52.099609" xlink:href="#e"/>
<use x="79.882812" xlink:href="#c"/>
</g>
</g>
<g clip-path="url(#a)">
<g transform="translate(1260.2 892.75) scale(.1 -.1)">
<use xlink:href="#l"/>
<use x="97.412109" xlink:href="#e"/>
<use x="125.195312" xlink:href="#ac"/>
</g>
</g>
<g clip-path="url(#a)">
<g transform="translate(1299.7 892.75) scale(.1 -.1)">
<use xlink:href="#v"/>
<use x="63.476562" xlink:href="#c"/>
<use x="125" xlink:href="#l"/>
</g>
</g>
<g clip-path="url(#a)">
<defs>
<path id="ay" d="m19.672 34.812v-26.703h15.828q7.9531 0 11.781 3.2969 3.8438 3.2969 3.8438 10.078 0 6.8438-3.8438 10.078-3.8281 3.25-11.781 3.25zm0 29.984v-21.969h14.609q7.2188 0 10.75 2.7031 3.5469 2.7188 3.5469 8.2812 0 5.5156-3.5469 8.25-3.5312 2.7344-10.75 2.7344zm-9.8594 8.1094h25.203q11.281 0 17.375-4.6875 6.1094-4.6875 6.1094-13.328 0-6.7031-3.125-10.656t-9.1875-4.9219q7.2812-1.5625 11.312-6.5312 4.0312-4.9531 4.0312-12.375 0-9.7656-6.6406-15.094-6.6406-5.3125-18.906-5.3125h-26.172z"/>
</defs>
<g transform="translate(1344 892.75) scale(.1 -.1)">
<use xlink:href="#ay"/>
<use x="68.603516" xlink:href="#c"/>
<use x="130.126953" xlink:href="#e"/>
<use x="157.910156" xlink:href="#i"/>
</g>
</g>
<g clip-path="url(#a)">
<g transform="translate(1389.4 892.75) scale(.1 -.1)">
<use xlink:href="#j"/>
<use x="61.279297" xlink:href="#f"/>
</g>
</g>
<g clip-path="url(#a)">
<g transform="translate(1436.5 892.75) scale(.1 -.1)">
<use xlink:href="#g"/>
</g>
</g>
<g clip-path="url(#a)">
<defs>
<path id="az" d="m51.812 51.703v-9.3125l-14.703-13.094 14.703-13.078v-9.3281l-22.906 20.406v4zm-21.203 0v-9.3125l-14.688-13.094 14.688-13.078v-9.3281l-22.891 20.406v4z"/>
</defs>
<g transform="translate(1477.4 892.75) scale(.1 -.1)">
<use xlink:href="#az"/>
</g>
</g>
<g clip-path="url(#a)">
<g transform="translate(1519.9 892.75) scale(.1 -.1)">
<use xlink:href="#ar"/>
</g>
</g>
<g clip-path="url(#a)">
<defs>
<path id="d" d="m12.406 8.2969h16.109v55.625l-17.531-3.5156v8.9844l17.438 3.5156h9.8594v-64.609h16.109v-8.2969h-41.984z"/>
</defs>
<g transform="translate(1359.9 46.098) scale(.1 -.1)">
<use xlink:href="#d"/>
<use x="63.623047" xlink:href="#g"/>
<use x="95.410156" xlink:href="#d"/>
</g>
</g>
<g clip-path="url(#a)">
<defs>
<path id="n" d="m19.188 8.2969h34.422v-8.2969h-46.281v8.2969q5.6094 5.8125 15.297 15.594 9.7031 9.7969 12.188 12.641 4.7344 5.3125 6.6094 9 1.8906 3.6875 1.8906 7.25 0 5.8125-4.0781 9.4688-4.0781 3.6719-10.625 3.6719-4.6406 0-9.7969-1.6094-5.1406-1.6094-11-4.8906v9.9688q5.9531 2.3906 11.125 3.6094 5.1875 1.2188 9.4844 1.2188 11.328 0 18.062-5.6719 6.7344-5.6562 6.7344-15.125 0-4.5-1.6875-8.5312-1.6719-4.0156-6.125-9.4844-1.2188-1.4219-7.7656-8.1875-6.5312-6.7656-18.453-18.922z"/>
</defs>
<g transform="translate(1359.9 194.39) scale(.1 -.1)">
<use xlink:href="#d"/>
<use x="63.623047" xlink:href="#g"/>
<use x="95.410156" xlink:href="#n"/>
</g>
</g>
<g clip-path="url(#a)">
<defs>
<path id="q" d="m9.8125 72.906h9.8594v-72.906h-9.8594z"/>
<path id="ae" d="m9.8125 72.906h14.703l18.594-49.609 18.703 49.609h14.703v-72.906h-9.625v64.016l-18.797-50h-9.9062l-18.797 50v-64.016h-9.5781z"/>
</defs>
<g transform="translate(1671.5 892.75) scale(.1 -.1)">
<use xlink:href="#q"/>
<use x="29.492188" xlink:href="#ae"/>
<use x="115.771484" xlink:href="#u"/>
<use x="176.074219" xlink:href="#w"/>
<use x="231.787109" xlink:href="#q"/>
<use x="261.279297" xlink:href="#x"/>
<use x="331.103516" xlink:href="#q"/>
<use x="360.595703" xlink:href="#k"/>
</g>
</g>
<g clip-path="url(#a)">
<g transform="translate(1629.1 892.75) scale(.1 -.1)">
<use xlink:href="#q"/>
<use x="29.492188" xlink:href="#ae"/>
<use x="115.771484" xlink:href="#u"/>
<use x="176.074219" xlink:href="#w"/>
<use x="231.787109" xlink:href="#q"/>
<use x="261.279297" xlink:href="#x"/>
<use x="331.103516" xlink:href="#q"/>
<use x="360.595703" xlink:href="#k"/>
</g>
</g>
<g clip-path="url(#a)">
<defs>
<path id="ah" d="m31.781 34.625q-7.0312 0-11.062-3.7656-4.0156-3.7656-4.0156-10.344 0-6.5938 4.0156-10.359 4.0312-3.7656 11.062-3.7656t11.078 3.7812q4.0625 3.7969 4.0625 10.344 0 6.5781-4.0312 10.344-4.0156 3.7656-11.109 3.7656zm-9.8594 4.1875q-6.3438 1.5625-9.8906 5.9062-3.5312 4.3594-3.5312 10.609 0 8.7344 6.2188 13.812 6.2344 5.0781 17.062 5.0781 10.891 0 17.094-5.0781t6.2031-13.812q0-6.25-3.5469-10.609-3.5312-4.3438-9.8281-5.9062 7.125-1.6562 11.094-6.5 3.9844-4.8281 3.9844-11.797 0-10.609-6.4688-16.281-6.4688-5.6562-18.531-5.6562-12.047 0-18.531 5.6562-6.4688 5.6719-6.4688 16.281 0 6.9688 4 11.797 4.0156 4.8438 11.141 6.5zm-3.6094 15.578q0-5.6562 3.5312-8.8281 3.5469-3.1719 9.9375-3.1719 6.3594 0 9.9375 3.1719 3.5938 3.1719 3.5938 8.8281 0 5.6719-3.5938 8.8438-3.5781 3.1719-9.9375 3.1719-6.3906 0-9.9375-3.1719-3.5312-3.1719-3.5312-8.8438z"/>
</defs>
<g transform="translate(752.81 339.01) scale(.1 -.1)">
<use xlink:href="#d"/>
<use x="63.623047" xlink:href="#g"/>
<use x="95.410156" xlink:href="#ah"/>
</g>
</g>
<g clip-path="url(#a)">
<defs>
<path id="ag" d="m10.984 1.5156v8.9844q3.7188-1.7656 7.5156-2.6875 3.8125-0.92188 7.4844-0.92188 9.7656 0 14.906 6.5625 5.1562 6.5625 5.8906 19.953-2.8281-4.2031-7.1875-6.4531-4.3438-2.25-9.6094-2.25-10.938 0-17.312 6.6094-6.375 6.625-6.375 18.109 0 11.219 6.6406 18 6.6406 6.7969 17.672 6.7969 12.656 0 19.312-9.7031 6.6719-9.6875 6.6719-28.141 0-17.234-8.1875-27.516-8.1719-10.281-21.984-10.281-3.7188 0-7.5312 0.73438-3.7969 0.73438-7.9062 2.2031zm19.625 30.906q6.6406 0 10.516 4.5312 3.8906 4.5469 3.8906 12.469 0 7.8594-3.8906 12.422-3.875 4.5625-10.516 4.5625t-10.516-4.5625-3.875-12.422q0-7.9219 3.875-12.469 3.875-4.5312 10.516-4.5312z"/>
</defs>
<g transform="translate(1090.8 619.12) scale(.1 -.1)">
<use xlink:href="#d"/>
<use x="63.623047" xlink:href="#g"/>
<use x="95.410156" xlink:href="#ag"/>
</g>
</g>
<g clip-path="url(#a)">
<defs>
<path id="aj" d="m31.781 66.406q-7.6094 0-11.453-7.5-3.8281-7.4844-3.8281-22.531 0-14.984 3.8281-22.484 3.8438-7.5 11.453-7.5 7.6719 0 11.5 7.5 3.8438 7.5 3.8438 22.484 0 15.047-3.8438 22.531-3.8281 7.5-11.5 7.5zm0 7.8125q12.266 0 18.734-9.7031 6.4688-9.6875 6.4688-28.141 0-18.406-6.4688-28.109-6.4688-9.6875-18.734-9.6875-12.25 0-18.719 9.6875-6.4688 9.7031-6.4688 28.109 0 18.453 6.4688 28.141 6.4688 9.7031 18.719 9.7031z"/>
</defs>
<g transform="translate(350.63 480.4) scale(.1 -.1)">
<use xlink:href="#d"/>
<use x="63.623047" xlink:href="#g"/>
<use x="95.410156" xlink:href="#d"/>
<use x="159.033203" xlink:href="#aj"/>
</g>
</g>
<g clip-path="url(#a)">
<g transform="translate(621.04 755.94) scale(.1 -.1)">
<use xlink:href="#d"/>
<use x="63.623047" xlink:href="#g"/>
<use x="95.410156" xlink:href="#d"/>
<use x="159.033203" xlink:href="#d"/>
</g>
</g>
<g clip-path="url(#a)">
<g transform="translate(748.28 619.12) scale(.1 -.1)">
<use xlink:href="#d"/>
<use x="63.623047" xlink:href="#g"/>
<use x="95.410156" xlink:href="#d"/>
<use x="159.033203" xlink:href="#n"/>
</g>
</g>
<g clip-path="url(#a)">
<defs>
<path id="m" d="m40.578 39.312q7.0781-1.5156 11.047-6.3125 3.9844-4.7812 3.9844-11.812 0-10.781-7.4219-16.703-7.4219-5.9062-21.094-5.9062-4.5781 0-9.4375 0.90625t-10.031 2.7188v9.5156q4.0938-2.3906 8.9688-3.6094 4.8906-1.2188 10.219-1.2188 9.2656 0 14.125 3.6562t4.8594 10.641q0 6.4531-4.5156 10.078-4.5156 3.6406-12.562 3.6406h-8.5v8.1094h8.8906q7.2656 0 11.125 2.9062t3.8594 8.375q0 5.6094-3.9844 8.6094-3.9688 3.0156-11.391 3.0156-4.0625 0-8.7031-0.89062-4.6406-0.875-10.203-2.7188v8.7812q5.625 1.5625 10.531 2.3438t9.25 0.78125q11.234 0 17.766-5.1094 6.5469-5.0938 6.5469-13.781 0-6.0625-3.4688-10.234t-9.8594-5.7812z"/>
</defs>
<g transform="translate(917.95 755.94) scale(.1 -.1)">
<use xlink:href="#d"/>
<use x="63.623047" xlink:href="#g"/>
<use x="95.410156" xlink:href="#d"/>
<use x="159.033203" xlink:href="#m"/>
</g>
</g>
<g clip-path="url(#a)">
<defs>
<path id="p" d="m37.797 64.312-24.906-38.922h24.906zm-2.5938 8.5938h12.406v-47.516h10.406v-8.2031h-10.406v-17.188h-9.8125v17.188h-32.906v9.5156z"/>
</defs>
<g transform="translate(875.53 619.12) scale(.1 -.1)">
<use xlink:href="#d"/>
<use x="63.623047" xlink:href="#g"/>
<use x="95.410156" xlink:href="#d"/>
<use x="159.033203" xlink:href="#p"/>
</g>
</g>
<g clip-path="url(#a)">
<defs>
<path id="r" d="m10.797 72.906h38.719v-8.3125h-29.688v-17.859q2.1406 0.73438 4.2812 1.0938 2.1562 0.35938 4.3125 0.35938 12.203 0 19.328-6.6875 7.1406-6.6875 7.1406-18.109 0-11.766-7.3281-18.297-7.3281-6.5156-20.656-6.5156-4.5938 0-9.3594 0.78125-4.75 0.78125-9.8281 2.3438v9.9219q4.3906-2.3906 9.0781-3.5625t9.9062-1.1719q8.4531 0 13.375 4.4375 4.9375 4.4375 4.9375 12.062 0 7.6094-4.9375 12.047-4.9219 4.4531-13.375 4.4531-3.9531 0-7.8906-0.875-3.9219-0.875-8.0156-2.7344z"/>
</defs>
<g transform="translate(1087.6 755.94) scale(.1 -.1)">
<use xlink:href="#d"/>
<use x="63.623047" xlink:href="#g"/>
<use x="95.410156" xlink:href="#d"/>
<use x="159.033203" xlink:href="#r"/>
</g>
</g>
<g clip-path="url(#a)">
<defs>
<path id="ai" d="m33.016 40.375q-6.6406 0-10.531-4.5469-3.875-4.5312-3.875-12.438 0-7.8594 3.875-12.438 3.8906-4.5625 10.531-4.5625t10.516 4.5625q3.875 4.5781 3.875 12.438 0 7.9062-3.875 12.438-3.875 4.5469-10.516 4.5469zm19.578 30.922v-8.9844q-3.7188 1.75-7.5 2.6719-3.7812 0.9375-7.5 0.9375-9.7656 0-14.922-6.5938-5.1406-6.5938-5.875-19.922 2.875 4.25 7.2188 6.5156 4.3594 2.2656 9.5781 2.2656 10.984 0 17.359-6.6719 6.375-6.6562 6.375-18.125 0-11.234-6.6406-18.031-6.6406-6.7812-17.672-6.7812-12.656 0-19.344 9.6875-6.6875 9.7031-6.6875 28.109 0 17.281 8.2031 27.562t22.016 10.281q3.7188 0 7.5-0.73438t7.8906-2.1875z"/>
</defs>
<g transform="translate(1333 480.4) scale(.1 -.1)">
<use xlink:href="#d"/>
<use x="63.623047" xlink:href="#g"/>
<use x="95.410156" xlink:href="#d"/>
<use x="159.033203" xlink:href="#ai"/>
</g>
</g>
<g clip-path="url(#a)">
<g transform="translate(1130 755.94) scale(.1 -.1)">
<use xlink:href="#d"/>
<use x="63.623047" xlink:href="#g"/>
<use x="95.410156" xlink:href="#n"/>
<use x="159.033203" xlink:href="#d"/>
</g>
</g>
<g clip-path="url(#a)">
<g transform="translate(1278.5 755.94) scale(.1 -.1)">
<use xlink:href="#d"/>
<use x="63.623047" xlink:href="#g"/>
<use x="95.410156" xlink:href="#n"/>
<use x="159.033203" xlink:href="#n"/>
</g>
</g>
<g clip-path="url(#a)">
<g transform="translate(1214.9 755.94) scale(.1 -.1)">
<use xlink:href="#d"/>
<use x="63.623047" xlink:href="#g"/>
<use x="95.410156" xlink:href="#n"/>
<use x="159.033203" xlink:href="#m"/>
</g>
</g>
<g clip-path="url(#a)">
<g transform="translate(1299.7 619.12) scale(.1 -.1)">
<use xlink:href="#d"/>
<use x="63.623047" xlink:href="#g"/>
<use x="95.410156" xlink:href="#n"/>
<use x="159.033203" xlink:href="#p"/>
</g>
</g>
<g clip-path="url(#a)">
<g transform="translate(1257.3 755.94) scale(.1 -.1)">
<use xlink:href="#d"/>
<use x="63.623047" xlink:href="#g"/>
<use x="95.410156" xlink:href="#n"/>
<use x="159.033203" xlink:href="#r"/>
</g>
</g>
<g clip-path="url(#a)">
<g transform="translate(1299.7 755.94) scale(.1 -.1)">
<use xlink:href="#d"/>
<use x="63.623047" xlink:href="#g"/>
<use x="95.410156" xlink:href="#n"/>
<use x="159.033203" xlink:href="#ai"/>
</g>
</g>
<g clip-path="url(#a)">
<defs>
<path id="ap" d="m8.2031 72.906h46.875v-4.2031l-26.469-68.703h-10.297l24.906 64.594h-35.016z"/>
</defs>
<g transform="translate(1342.1 755.94) scale(.1 -.1)">
<use xlink:href="#d"/>
<use x="63.623047" xlink:href="#g"/>
<use x="95.410156" xlink:href="#n"/>
<use x="159.033203" xlink:href="#ap"/>
</g>
</g>
<g clip-path="url(#a)">
<g transform="translate(960.37 755.94) scale(.1 -.1)">
<use xlink:href="#d"/>
<use x="63.623047" xlink:href="#g"/>
<use x="95.410156" xlink:href="#n"/>
<use x="159.033203" xlink:href="#ah"/>
</g>
</g>
<g clip-path="url(#a)">
<g transform="translate(1002.8 755.94) scale(.1 -.1)">
<use xlink:href="#d"/>
<use x="63.623047" xlink:href="#g"/>
<use x="95.410156" xlink:href="#n"/>
<use x="159.033203" xlink:href="#ag"/>
</g>
</g>
<g clip-path="url(#a)">
<g transform="translate(663.45 755.94) scale(.1 -.1)">
<use xlink:href="#d"/>
<use x="63.623047" xlink:href="#g"/>
<use x="95.410156" xlink:href="#m"/>
<use x="159.033203" xlink:href="#aj"/>
</g>
</g>
<g clip-path="url(#a)">
<g transform="translate(705.87 755.94) scale(.1 -.1)">
<use xlink:href="#d"/>
<use x="63.623047" xlink:href="#g"/>
<use x="95.410156" xlink:href="#m"/>
<use x="159.033203" xlink:href="#d"/>
</g>
</g>
<g clip-path="url(#a)">
<g transform="translate(748.28 755.94) scale(.1 -.1)">
<use xlink:href="#d"/>
<use x="63.623047" xlink:href="#g"/>
<use x="95.410156" xlink:href="#m"/>
<use x="159.033203" xlink:href="#n"/>
</g>
</g>
<g clip-path="url(#a)">
<g transform="translate(790.7 755.94) scale(.1 -.1)">
<use xlink:href="#d"/>
<use x="63.623047" xlink:href="#g"/>
<use x="95.410156" xlink:href="#m"/>
<use x="159.033203" xlink:href="#m"/>
</g>
</g>
<g clip-path="url(#a)">
<g transform="translate(833.12 755.94) scale(.1 -.1)">
<use xlink:href="#d"/>
<use x="63.623047" xlink:href="#g"/>
<use x="95.410156" xlink:href="#m"/>
<use x="159.033203" xlink:href="#p"/>
</g>
</g>
<g clip-path="url(#a)">
<g transform="translate(239.29 619.12) scale(.1 -.1)">
<use xlink:href="#d"/>
<use x="63.623047" xlink:href="#g"/>
<use x="95.410156" xlink:href="#m"/>
<use x="159.033203" xlink:href="#r"/>
</g>
</g>
<g clip-path="url(#a)">
<g transform="translate(324.12 755.94) scale(.1 -.1)">
<use xlink:href="#d"/>
<use x="63.623047" xlink:href="#g"/>
<use x="95.410156" xlink:href="#m"/>
<use x="159.033203" xlink:href="#ai"/>
</g>
</g>
<g clip-path="url(#a)">
<g transform="translate(366.54 755.94) scale(.1 -.1)">
<use xlink:href="#d"/>
<use x="63.623047" xlink:href="#g"/>
<use x="95.410156" xlink:href="#m"/>
<use x="159.033203" xlink:href="#ap"/>
</g>
</g>
<g clip-path="url(#a)">
<g transform="translate(472.58 619.12) scale(.1 -.1)">
<use xlink:href="#d"/>
<use x="63.623047" xlink:href="#g"/>
<use x="95.410156" xlink:href="#m"/>
<use x="159.033203" xlink:href="#ah"/>
</g>
</g>
<g clip-path="url(#a)">
<g transform="translate(408.95 755.94) scale(.1 -.1)">
<use xlink:href="#d"/>
<use x="63.623047" xlink:href="#g"/>
<use x="95.410156" xlink:href="#m"/>
<use x="159.033203" xlink:href="#ag"/>
</g>
</g>
<g clip-path="url(#a)">
<g transform="translate(451.37 755.94) scale(.1 -.1)">
<use xlink:href="#d"/>
<use x="63.623047" xlink:href="#g"/>
<use x="95.410156" xlink:href="#p"/>
<use x="159.033203" xlink:href="#aj"/>
</g>
</g>
<g clip-path="url(#a)">
<g transform="translate(493.79 755.94) scale(.1 -.1)">
<use xlink:href="#d"/>
<use x="63.623047" xlink:href="#g"/>
<use x="95.410156" xlink:href="#p"/>
<use x="159.033203" xlink:href="#d"/>
</g>
</g>
<g clip-path="url(#a)">
<g transform="translate(536.2 755.94) scale(.1 -.1)">
<use xlink:href="#d"/>
<use x="63.623047" xlink:href="#g"/>
<use x="95.410156" xlink:href="#p"/>
<use x="159.033203" xlink:href="#n"/>
</g>
</g>
<g clip-path="url(#a)">
<g transform="translate(196.87 755.94) scale(.1 -.1)">
<use xlink:href="#d"/>
<use x="63.623047" xlink:href="#g"/>
<use x="95.410156" xlink:href="#p"/>
<use x="159.033203" xlink:href="#m"/>
</g>
</g>
<g clip-path="url(#a)">
<g transform="translate(239.29 755.94) scale(.1 -.1)">
<use xlink:href="#d"/>
<use x="63.623047" xlink:href="#g"/>
<use x="95.410156" xlink:href="#p"/>
<use x="159.033203" xlink:href="#p"/>
</g>
</g>
<g clip-path="url(#a)">
<g transform="translate(281.7 755.94) scale(.1 -.1)">
<use xlink:href="#d"/>
<use x="63.623047" xlink:href="#g"/>
<use x="95.410156" xlink:href="#p"/>
<use x="159.033203" xlink:href="#r"/>
</g>
</g>
<g clip-path="url(#a)">
<g transform="translate(1586.7 892.75) scale(.1 -.1)">
<use xlink:href="#q"/>
<use x="29.492188" xlink:href="#ae"/>
<use x="115.771484" xlink:href="#u"/>
<use x="176.074219" xlink:href="#w"/>
<use x="231.787109" xlink:href="#q"/>
<use x="261.279297" xlink:href="#x"/>
<use x="331.103516" xlink:href="#q"/>
<use x="360.595703" xlink:href="#k"/>
</g>
</g>
<g clip-path="url(#a)">
<g transform="translate(1544.2 892.75) scale(.1 -.1)">
<use xlink:href="#q"/>
<use x="29.492188" xlink:href="#ae"/>
<use x="115.771484" xlink:href="#u"/>
<use x="176.074219" xlink:href="#w"/>
<use x="231.787109" xlink:href="#q"/>
<use x="261.279297" xlink:href="#x"/>
<use x="331.103516" xlink:href="#q"/>
<use x="360.595703" xlink:href="#k"/>
</g>
</g>
<g clip-path="url(#a)">
<g transform="translate(112.04 755.94) scale(.1 -.1)">
<use xlink:href="#d"/>
<use x="63.623047" xlink:href="#g"/>
<use x="95.410156" xlink:href="#p"/>
<use x="159.033203" xlink:href="#ah"/>
</g>
</g>
<g clip-path="url(#a)">
<g transform="translate(69.622 755.94) scale(.1 -.1)">
<use xlink:href="#d"/>
<use x="63.623047" xlink:href="#g"/>
<use x="95.410156" xlink:href="#p"/>
<use x="159.033203" xlink:href="#ag"/>
</g>
</g>
<g clip-path="url(#a)">
<g transform="translate(154.46 755.94) scale(.1 -.1)">
<use xlink:href="#d"/>
<use x="63.623047" xlink:href="#g"/>
<use x="95.410156" xlink:href="#r"/>
<use x="159.033203" xlink:href="#aj"/>
</g>
</g>
<g clip-path="url(#a)">
<g transform="translate(578.62 755.94) scale(.1 -.1)">
<use xlink:href="#d"/>
<use x="63.623047" xlink:href="#g"/>
<use x="95.410156" xlink:href="#r"/>
<use x="159.033203" xlink:href="#d"/>
</g>
</g>
<g clip-path="url(#a)">
<g transform="translate(875.53 755.94) scale(.1 -.1)">
<use xlink:href="#d"/>
<use x="63.623047" xlink:href="#g"/>
<use x="95.410156" xlink:href="#r"/>
<use x="159.033203" xlink:href="#n"/>
</g>
</g>
<g clip-path="url(#a)">
<g transform="translate(1045.2 755.94) scale(.1 -.1)">
<use xlink:href="#d"/>
<use x="63.623047" xlink:href="#g"/>
<use x="95.410156" xlink:href="#r"/>
<use x="159.033203" xlink:href="#m"/>
</g>
</g>
<g clip-path="url(#a)">
<g transform="translate(1426.9 755.94) scale(.1 -.1)">
<use xlink:href="#d"/>
<use x="63.623047" xlink:href="#g"/>
<use x="95.410156" xlink:href="#r"/>
<use x="159.033203" xlink:href="#p"/>
</g>
</g>
<g clip-path="url(#a)">
<g transform="translate(1469.4 755.94) scale(.1 -.1)">
<use xlink:href="#d"/>
<use x="63.623047" xlink:href="#g"/>
<use x="95.410156" xlink:href="#r"/>
<use x="159.033203" xlink:href="#r"/>
</g>
</g>
<g clip-path="url(#a)">
<g transform="translate(1511.8 755.94) scale(.1 -.1)">
<use xlink:href="#d"/>
<use x="63.623047" xlink:href="#g"/>
<use x="95.410156" xlink:href="#r"/>
<use x="159.033203" xlink:href="#ai"/>
</g>
</g>
<defs>
<clipPath id="a">
<rect width="1773.3" height="933.33"/>
</clipPath>
</defs>
</svg>
